<svg xmlns="http://www.w3.org/2000/svg" width="35" height="21" viewBox="0 0 35 21" fill="none"><g id="EGYPT_3_"><g id="Group"><g id="Group_2"><g id="Clip path group"><mask id="mask0_9372_26944" style="mask-type:luminance" maskUnits="userSpaceOnUse" x="0" y="0" width="35" height="21"><g id="SVGID_00000036237714819454642920000001242992531609313164_"><path id="Vector" d="M34.2205 0.710938H0.656494V20.2889H34.2205V0.710938Z" fill="white"></path></g></mask><g mask="url(#mask0_9372_26944)"><path id="Vector_2" d="M34.2205 13.761H0.656494V20.288H34.2205V13.761Z" fill="black"></path></g></g><g id="Clip path group_2"><mask id="mask1_9372_26944" style="mask-type:luminance" maskUnits="userSpaceOnUse" x="0" y="0" width="35" height="21"><g id="SVGID_00000036237714819454642920000001242992531609313164__2"><path id="Vector_3" d="M34.2205 0.710938H0.656494V20.2889H34.2205V0.710938Z" fill="white"></path></g></mask><g mask="url(#mask1_9372_26944)"><g id="Group_3"><g id="Clip path group_3"><mask id="mask2_9372_26944" style="mask-type:luminance" maskUnits="userSpaceOnUse" x="0" y="0" width="35" height="21"><g id="SVGID_00000046316558819215351670000015601092702917757884_"><path id="Vector_4" d="M34.2205 0.710938H0.656494V20.2889H34.2205V0.710938Z" fill="white"></path></g></mask><g mask="url(#mask2_9372_26944)"><g id="Group_4"><path id="Vector_5" d="M34.2545 20.3199H0.625488V13.7339H34.2545V20.3199ZM0.693481 20.2569H34.1895V13.7959H0.693481V20.2569Z" fill="black"></path></g></g></g></g></g></g><g id="Clip path group_4"><mask id="mask3_9372_26944" style="mask-type:luminance" maskUnits="userSpaceOnUse" x="0" y="0" width="35" height="21"><g id="SVGID_00000036237714819454642920000001242992531609313164__3"><path id="Vector_6" d="M34.2205 0.710938H0.656494V20.2889H34.2205V0.710938Z" fill="white"></path></g></mask><g mask="url(#mask3_9372_26944)"><path id="Vector_7" d="M34.2205 7.23792H0.656494V13.7609H34.2205V7.23792Z" fill="white"></path></g></g><g id="Clip path group_5"><mask id="mask4_9372_26944" style="mask-type:luminance" maskUnits="userSpaceOnUse" x="0" y="0" width="35" height="21"><g id="SVGID_00000036237714819454642920000001242992531609313164__4"><path id="Vector_8" d="M34.2205 0.710938H0.656494V20.2889H34.2205V0.710938Z" fill="white"></path></g></mask><g mask="url(#mask4_9372_26944)"><g id="Group_5"><g id="Clip path group_6"><mask id="mask5_9372_26944" style="mask-type:luminance" maskUnits="userSpaceOnUse" x="0" y="0" width="35" height="21"><g id="SVGID_00000098925243850644653700000005360937371899872928_"><path id="Vector_9" d="M34.2205 0.710938H0.656494V20.2889H34.2205V0.710938Z" fill="white"></path></g></mask><g mask="url(#mask5_9372_26944)"><g id="Group_6"><path id="Vector_10" d="M34.2545 13.7969H0.625488V7.20288H34.2545V13.7969ZM0.693481 13.7339H34.1895V7.27289H0.693481V13.7339Z" fill="white"></path></g></g></g></g></g></g><g id="Clip path group_7"><mask id="mask6_9372_26944" style="mask-type:luminance" maskUnits="userSpaceOnUse" x="0" y="0" width="35" height="21"><g id="SVGID_00000036237714819454642920000001242992531609313164__5"><path id="Vector_11" d="M34.2205 0.710938H0.656494V20.2889H34.2205V0.710938Z" fill="white"></path></g></mask><g mask="url(#mask6_9372_26944)"><path id="Vector_12" d="M34.2205 0.710938H0.656494V7.23795H34.2205V0.710938Z" fill="#BC0030"></path></g></g><g id="Clip path group_8"><mask id="mask7_9372_26944" style="mask-type:luminance" maskUnits="userSpaceOnUse" x="0" y="0" width="35" height="21"><g id="SVGID_00000036237714819454642920000001242992531609313164__6"><path id="Vector_13" d="M34.2205 0.710938H0.656494V20.2889H34.2205V0.710938Z" fill="white"></path></g></mask><g mask="url(#mask7_9372_26944)"><g id="Group_7"><g id="Clip path group_9"><mask id="mask8_9372_26944" style="mask-type:luminance" maskUnits="userSpaceOnUse" x="0" y="0" width="35" height="21"><g id="SVGID_00000072252331280634568600000002834902716932786594_"><path id="Vector_14" d="M34.2205 0.710938H0.656494V20.2889H34.2205V0.710938Z" fill="white"></path></g></mask><g mask="url(#mask8_9372_26944)"><g id="Group_8"><path id="Vector_15" d="M34.2545 7.27295H0.625488V0.678955H34.2545V7.27295ZM0.693481 7.20294H34.1895V0.745941H0.693481V7.20294Z" fill="#BC0030"></path></g></g></g><g id="Clip path group_10"><mask id="mask9_9372_26944" style="mask-type:luminance" maskUnits="userSpaceOnUse" x="0" y="0" width="35" height="21"><g id="SVGID_00000072252331280634568600000002834902716932786594__2"><path id="Vector_16" d="M34.2205 0.710938H0.656494V20.2889H34.2205V0.710938Z" fill="white"></path></g></mask><g mask="url(#mask9_9372_26944)"><path id="Vector_17" d="M17.2546 13.593C17.8956 13.593 18.5086 13.542 18.8676 13.441C19.0216 13.418 19.0216 13.336 19.0216 13.234C19.1736 13.183 19.0956 13.004 19.2016 13.004C19.0966 13.035 19.0706 12.824 18.9436 12.856C18.9436 12.672 18.7616 12.649 18.6096 12.7C18.3046 12.802 17.7636 12.825 17.2546 12.825C16.7426 12.802 16.2056 12.802 15.8956 12.7C15.7456 12.649 15.5656 12.673 15.5656 12.856C15.4386 12.825 15.4136 13.036 15.3076 13.004C15.4126 13.004 15.3366 13.184 15.4856 13.234C15.4856 13.336 15.4856 13.418 15.6456 13.441C15.9966 13.543 16.6116 13.593 17.2546 13.593Z" fill="white"></path></g></g><g id="Clip path group_11"><mask id="mask10_9372_26944" style="mask-type:luminance" maskUnits="userSpaceOnUse" x="0" y="0" width="35" height="21"><g id="SVGID_00000072252331280634568600000002834902716932786594__3"><path id="Vector_18" d="M34.2205 0.710938H0.656494V20.2889H34.2205V0.710938Z" fill="white"></path></g></mask><g mask="url(#mask10_9372_26944)"><g id="Group_9"><path id="Vector_19" d="M17.2546 13.6599C16.5616 13.6599 15.9716 13.6009 15.6256 13.5079C15.4476 13.4769 15.4266 13.3709 15.4226 13.2809C15.3426 13.2339 15.3246 13.1519 15.3156 13.1009C15.3116 13.0889 15.3076 13.0779 15.3036 13.0699C15.2996 13.0699 15.2916 13.0699 15.2896 13.0699C15.2606 13.0579 15.2386 13.0309 15.2406 12.9959C15.2446 12.9649 15.2736 12.9409 15.3066 12.9409C15.3106 12.9409 15.3146 12.9409 15.3186 12.9409H15.3226C15.3326 12.9409 15.3576 12.9099 15.3736 12.8939C15.4046 12.8549 15.4436 12.8039 15.5106 12.7889C15.5436 12.6369 15.7256 12.5779 15.9166 12.6369C16.1626 12.7189 16.5576 12.7349 16.9826 12.7499L17.2556 12.7619C17.9056 12.7619 18.3456 12.7229 18.5916 12.6369C18.7866 12.5739 18.9686 12.6369 18.9996 12.7969C19.0696 12.8169 19.1046 12.8599 19.1346 12.8949C19.1506 12.9109 19.1716 12.9379 19.1776 12.9419C19.1896 12.9419 19.1976 12.9419 19.2006 12.9419C19.2316 12.9419 19.2616 12.9649 19.2656 12.9969C19.2696 13.0319 19.2476 13.0599 19.2186 13.0709C19.2146 13.0709 19.2106 13.0669 19.2066 13.0669C19.2026 13.0709 19.2006 13.0709 19.2006 13.0709C19.2006 13.0709 19.2006 13.0709 19.1966 13.0709C19.2006 13.0749 19.1966 13.0869 19.1926 13.1019C19.1806 13.1529 19.1636 13.2349 19.0836 13.2819C19.0796 13.3719 19.0586 13.4769 18.8806 13.5089C18.5376 13.6009 17.9416 13.6599 17.2546 13.6599ZM15.4266 13.0309C15.4346 13.0429 15.4386 13.0619 15.4426 13.0779C15.4526 13.1329 15.4606 13.1599 15.5066 13.1759C15.5316 13.1839 15.5496 13.2069 15.5496 13.2349C15.5496 13.3369 15.5496 13.3639 15.6546 13.3829C15.9886 13.4809 16.5866 13.5309 17.2546 13.5309C17.9206 13.5309 18.5186 13.4799 18.8506 13.3829C18.9576 13.3629 18.9576 13.3359 18.9576 13.2349C18.9576 13.2079 18.9756 13.1839 19.0006 13.1759C19.0496 13.1599 19.0556 13.1329 19.0706 13.0779C19.0706 13.0619 19.0766 13.0429 19.0806 13.0309C19.0666 13.0109 19.0496 12.9919 19.0336 12.9759C19.0046 12.9329 18.9866 12.9129 18.9656 12.9129C18.9476 12.9169 18.9246 12.9129 18.9066 12.8969C18.8926 12.8849 18.8776 12.8699 18.8776 12.8539C18.8776 12.8229 18.8776 12.7369 18.7486 12.7369C18.7116 12.7369 18.6706 12.7449 18.6316 12.7599C18.3736 12.8459 17.9206 12.8849 17.2546 12.8849L16.9756 12.8769C16.5476 12.8569 16.1376 12.8459 15.8776 12.7599C15.8366 12.7439 15.7956 12.7369 15.7606 12.7369C15.6296 12.7369 15.6296 12.8229 15.6296 12.8539C15.6296 12.8699 15.6196 12.8849 15.6046 12.8969C15.5906 12.9129 15.5736 12.9169 15.5536 12.9129C15.5186 12.9169 15.5026 12.9329 15.4736 12.9759C15.4596 12.9919 15.4436 13.0109 15.4266 13.0309Z" fill="#F0C727"></path></g></g></g><g id="Clip path group_12"><mask id="mask11_9372_26944" style="mask-type:luminance" maskUnits="userSpaceOnUse" x="0" y="0" width="35" height="21"><g id="SVGID_00000072252331280634568600000002834902716932786594__4"><path id="Vector_20" d="M34.2205 0.710938H0.656494V20.2889H34.2205V0.710938Z" fill="white"></path></g></mask><g mask="url(#mask11_9372_26944)"><path id="Vector_21" d="M15.7956 12.9529C15.7446 12.9529 15.7446 12.9839 15.7956 12.9839C15.8186 12.9839 15.8186 12.9529 15.7956 12.9529Z" fill="#F4D134"></path></g></g><g id="Clip path group_13"><mask id="mask12_9372_26944" style="mask-type:luminance" maskUnits="userSpaceOnUse" x="0" y="0" width="35" height="21"><g id="SVGID_00000072252331280634568600000002834902716932786594__5"><path id="Vector_22" d="M34.2205 0.710938H0.656494V20.2889H34.2205V0.710938Z" fill="white"></path></g></mask><g mask="url(#mask12_9372_26944)"><g id="Group_10"><path id="Vector_23" d="M15.7956 13.019C15.7276 13.019 15.7256 12.976 15.7256 12.968C15.7256 12.937 15.7686 12.917 15.7956 12.917C15.8156 12.917 15.8466 12.948 15.8466 12.968C15.8466 12.984 15.8146 13.019 15.7956 13.019Z" fill="#F0C727"></path></g></g></g><g id="Clip path group_14"><mask id="mask13_9372_26944" style="mask-type:luminance" maskUnits="userSpaceOnUse" x="0" y="0" width="35" height="21"><g id="SVGID_00000072252331280634568600000002834902716932786594__6"><path id="Vector_24" d="M34.2205 0.710938H0.656494V20.2889H34.2205V0.710938Z" fill="white"></path></g></mask><g mask="url(#mask13_9372_26944)"><path id="Vector_25" d="M15.7954 12.855C15.7684 12.855 15.7684 12.902 15.7954 12.902C15.8464 12.902 15.8464 12.855 15.7954 12.855Z" fill="#F4D134"></path></g></g><g id="Clip path group_15"><mask id="mask14_9372_26944" style="mask-type:luminance" maskUnits="userSpaceOnUse" x="0" y="0" width="35" height="21"><g id="SVGID_00000072252331280634568600000002834902716932786594__7"><path id="Vector_26" d="M34.2205 0.710938H0.656494V20.2889H34.2205V0.710938Z" fill="white"></path></g></mask><g mask="url(#mask14_9372_26944)"><g id="Group_11"><path id="Vector_27" d="M15.7954 12.933C15.7774 12.933 15.7424 12.894 15.7424 12.878C15.7424 12.858 15.7774 12.819 15.7954 12.819C15.8444 12.819 15.8694 12.85 15.8694 12.878C15.8694 12.906 15.8444 12.933 15.7954 12.933Z" fill="#F0C727"></path></g></g></g><g id="Clip path group_16"><mask id="mask15_9372_26944" style="mask-type:luminance" maskUnits="userSpaceOnUse" x="0" y="0" width="35" height="21"><g id="SVGID_00000072252331280634568600000002834902716932786594__8"><path id="Vector_28" d="M34.2205 0.710938H0.656494V20.2889H34.2205V0.710938Z" fill="white"></path></g></mask><g mask="url(#mask15_9372_26944)"><path id="Vector_29" d="M15.7954 13.2339C15.7684 13.2339 15.7684 13.2849 15.7954 13.2849C15.8184 13.2849 15.8184 13.2339 15.7954 13.2339Z" fill="#F4D134"></path></g></g><g id="Clip path group_17"><mask id="mask16_9372_26944" style="mask-type:luminance" maskUnits="userSpaceOnUse" x="0" y="0" width="35" height="21"><g id="SVGID_00000072252331280634568600000002834902716932786594__9"><path id="Vector_30" d="M34.2205 0.710938H0.656494V20.2889H34.2205V0.710938Z" fill="white"></path></g></mask><g mask="url(#mask16_9372_26944)"><g id="Group_12"><path id="Vector_31" d="M15.7954 13.32C15.7774 13.32 15.7424 13.281 15.7424 13.261C15.7424 13.241 15.7774 13.198 15.7954 13.198C15.8154 13.198 15.8464 13.241 15.8464 13.261C15.8464 13.281 15.8144 13.32 15.7954 13.32Z" fill="#F0C727"></path></g></g></g><g id="Clip path group_18"><mask id="mask17_9372_26944" style="mask-type:luminance" maskUnits="userSpaceOnUse" x="0" y="0" width="35" height="21"><g id="SVGID_00000072252331280634568600000002834902716932786594__10"><path id="Vector_32" d="M34.2205 0.710938H0.656494V20.2889H34.2205V0.710938Z" fill="white"></path></g></mask><g mask="url(#mask17_9372_26944)"><path id="Vector_33" d="M15.8944 13.261C15.8454 13.261 15.8454 13.312 15.8944 13.312C15.9244 13.312 15.9244 13.261 15.8944 13.261Z" fill="#F4D134"></path></g></g><g id="Clip path group_19"><mask id="mask18_9372_26944" style="mask-type:luminance" maskUnits="userSpaceOnUse" x="0" y="0" width="35" height="21"><g id="SVGID_00000072252331280634568600000002834902716932786594__11"><path id="Vector_34" d="M34.2205 0.710938H0.656494V20.2889H34.2205V0.710938Z" fill="white"></path></g></mask><g mask="url(#mask18_9372_26944)"><g id="Group_13"><path id="Vector_35" d="M15.8944 13.347C15.8494 13.347 15.8264 13.316 15.8264 13.288C15.8264 13.257 15.8654 13.229 15.8944 13.229C15.9164 13.229 15.9514 13.272 15.9514 13.288C15.9514 13.316 15.9244 13.347 15.8944 13.347Z" fill="#F0C727"></path></g></g></g><g id="Clip path group_20"><mask id="mask19_9372_26944" style="mask-type:luminance" maskUnits="userSpaceOnUse" x="0" y="0" width="35" height="21"><g id="SVGID_00000072252331280634568600000002834902716932786594__12"><path id="Vector_36" d="M34.2205 0.710938H0.656494V20.2889H34.2205V0.710938Z" fill="white"></path></g></mask><g mask="url(#mask19_9372_26944)"><path id="Vector_37" d="M15.9964 13.2849C15.9764 13.2849 15.9764 13.3359 15.9964 13.3359C16.0494 13.3359 16.0494 13.2849 15.9964 13.2849Z" fill="#F4D134"></path></g></g><g id="Clip path group_21"><mask id="mask20_9372_26944" style="mask-type:luminance" maskUnits="userSpaceOnUse" x="0" y="0" width="35" height="21"><g id="SVGID_00000072252331280634568600000002834902716932786594__13"><path id="Vector_38" d="M34.2205 0.710938H0.656494V20.2889H34.2205V0.710938Z" fill="white"></path></g></mask><g mask="url(#mask20_9372_26944)"><g id="Group_14"><path id="Vector_39" d="M15.9965 13.3709C15.9805 13.3709 15.9475 13.3319 15.9475 13.3079C15.9475 13.2919 15.9805 13.2529 15.9965 13.2529C16.0475 13.2529 16.0725 13.2839 16.0725 13.3079C16.0725 13.3359 16.0475 13.3709 15.9965 13.3709Z" fill="#F0C727"></path></g></g></g><g id="Clip path group_22"><mask id="mask21_9372_26944" style="mask-type:luminance" maskUnits="userSpaceOnUse" x="0" y="0" width="35" height="21"><g id="SVGID_00000072252331280634568600000002834902716932786594__14"><path id="Vector_40" d="M34.2205 0.710938H0.656494V20.2889H34.2205V0.710938Z" fill="white"></path></g></mask><g mask="url(#mask21_9372_26944)"><path id="Vector_41" d="M17.5886 13.0349C17.5616 13.0349 17.5616 13.0819 17.5886 13.0819C17.6116 13.0819 17.6116 13.0349 17.5886 13.0349Z" fill="#F4D134"></path></g></g><g id="Clip path group_23"><mask id="mask22_9372_26944" style="mask-type:luminance" maskUnits="userSpaceOnUse" x="0" y="0" width="35" height="21"><g id="SVGID_00000072252331280634568600000002834902716932786594__15"><path id="Vector_42" d="M34.2205 0.710938H0.656494V20.2889H34.2205V0.710938Z" fill="white"></path></g></mask><g mask="url(#mask22_9372_26944)"><g id="Group_15"><path id="Vector_43" d="M17.5884 13.1169C17.5654 13.1169 17.5334 13.0779 17.5334 13.0579C17.5334 13.0379 17.5644 12.9949 17.5884 12.9949C17.6054 12.9949 17.6414 13.0379 17.6414 13.0579C17.6414 13.0779 17.6054 13.1169 17.5884 13.1169Z" fill="#F0C727"></path></g></g></g><g id="Clip path group_24"><mask id="mask23_9372_26944" style="mask-type:luminance" maskUnits="userSpaceOnUse" x="0" y="0" width="35" height="21"><g id="SVGID_00000072252331280634568600000002834902716932786594__16"><path id="Vector_44" d="M34.2205 0.710938H0.656494V20.2889H34.2205V0.710938Z" fill="white"></path></g></mask><g mask="url(#mask23_9372_26944)"><path id="Vector_45" d="M17.6115 13.132C17.5605 13.132 17.5605 13.1549 17.6115 13.1549C17.6395 13.1559 17.6395 13.132 17.6115 13.132Z" fill="#F4D134"></path></g></g><g id="Clip path group_25"><mask id="mask24_9372_26944" style="mask-type:luminance" maskUnits="userSpaceOnUse" x="0" y="0" width="35" height="21"><g id="SVGID_00000072252331280634568600000002834902716932786594__17"><path id="Vector_46" d="M34.2205 0.710938H0.656494V20.2889H34.2205V0.710938Z" fill="white"></path></g></mask><g mask="url(#mask24_9372_26944)"><path id="Vector_47" d="M17.6894 13.386C17.6624 13.386 17.6624 13.441 17.6894 13.441C17.7134 13.441 17.7134 13.386 17.6894 13.386Z" fill="#F4D134"></path></g></g><g id="Clip path group_26"><mask id="mask25_9372_26944" style="mask-type:luminance" maskUnits="userSpaceOnUse" x="0" y="0" width="35" height="21"><g id="SVGID_00000072252331280634568600000002834902716932786594__18"><path id="Vector_48" d="M34.2205 0.710938H0.656494V20.2889H34.2205V0.710938Z" fill="white"></path></g></mask><g mask="url(#mask25_9372_26944)"><g id="Group_16"><path id="Vector_49" d="M17.6894 13.4799C17.6664 13.4799 17.6384 13.4369 17.6384 13.4139C17.6384 13.3939 17.6654 13.351 17.6894 13.351C17.7074 13.351 17.7424 13.3939 17.7424 13.4139C17.7424 13.4369 17.7074 13.4799 17.6894 13.4799Z" fill="#F0C727"></path></g></g></g><g id="Clip path group_27"><mask id="mask26_9372_26944" style="mask-type:luminance" maskUnits="userSpaceOnUse" x="0" y="0" width="35" height="21"><g id="SVGID_00000072252331280634568600000002834902716932786594__19"><path id="Vector_50" d="M34.2205 0.710938H0.656494V20.2889H34.2205V0.710938Z" fill="white"></path></g></mask><g mask="url(#mask26_9372_26944)"><path id="Vector_51" d="M17.7934 13.386C17.7404 13.386 17.7404 13.441 17.7934 13.441C17.8144 13.441 17.8144 13.386 17.7934 13.386Z" fill="#F4D134"></path></g></g><g id="Clip path group_28"><mask id="mask27_9372_26944" style="mask-type:luminance" maskUnits="userSpaceOnUse" x="0" y="0" width="35" height="21"><g id="SVGID_00000072252331280634568600000002834902716932786594__20"><path id="Vector_52" d="M34.2205 0.710938H0.656494V20.2889H34.2205V0.710938Z" fill="white"></path></g></mask><g mask="url(#mask27_9372_26944)"><g id="Group_17"><path id="Vector_53" d="M17.7935 13.4799C17.7425 13.4799 17.7175 13.4449 17.7175 13.4139C17.7175 13.3869 17.7425 13.351 17.7935 13.351C17.8115 13.351 17.8445 13.3939 17.8445 13.4139C17.8445 13.4409 17.8185 13.4799 17.7935 13.4799Z" fill="#F0C727"></path></g></g></g><g id="Clip path group_29"><mask id="mask28_9372_26944" style="mask-type:luminance" maskUnits="userSpaceOnUse" x="0" y="0" width="35" height="21"><g id="SVGID_00000072252331280634568600000002834902716932786594__21"><path id="Vector_54" d="M34.2205 0.710938H0.656494V20.2889H34.2205V0.710938Z" fill="white"></path></g></mask><g mask="url(#mask28_9372_26944)"><path id="Vector_55" d="M18.8424 13.183C18.7914 13.183 18.7914 13.214 18.8424 13.214C18.8674 13.214 18.8674 13.183 18.8424 13.183Z" fill="#F4D134"></path></g></g><g id="Clip path group_30"><mask id="mask29_9372_26944" style="mask-type:luminance" maskUnits="userSpaceOnUse" x="0" y="0" width="35" height="21"><g id="SVGID_00000072252331280634568600000002834902716932786594__22"><path id="Vector_56" d="M34.2205 0.710938H0.656494V20.2889H34.2205V0.710938Z" fill="white"></path></g></mask><g mask="url(#mask29_9372_26944)"><g id="Group_18"><path id="Vector_57" d="M18.8425 13.2459C18.7725 13.2459 18.7705 13.2069 18.7705 13.1989C18.7705 13.1679 18.8135 13.1479 18.8425 13.1479C18.8605 13.1479 18.8975 13.1789 18.8975 13.1989C18.8965 13.2179 18.8595 13.2459 18.8425 13.2459Z" fill="#F0C727"></path></g></g></g><g id="Clip path group_31"><mask id="mask30_9372_26944" style="mask-type:luminance" maskUnits="userSpaceOnUse" x="0" y="0" width="35" height="21"><g id="SVGID_00000072252331280634568600000002834902716932786594__23"><path id="Vector_58" d="M34.2205 0.710938H0.656494V20.2889H34.2205V0.710938Z" fill="white"></path></g></mask><g mask="url(#mask30_9372_26944)"><g id="Group_19"><path id="Vector_59" d="M16.0724 13.281C16.0494 13.281 16.0314 13.277 16.0134 13.269C15.9884 13.261 15.9584 13.253 15.9374 13.234C15.9164 13.234 15.8904 13.23 15.8574 13.218C15.8354 13.218 15.7854 13.179 15.7854 13.101C15.8074 13.054 15.8284 12.984 15.8464 12.906L15.8664 12.843C15.8704 12.827 15.8884 12.8159 15.9054 12.8229C15.9254 12.8229 15.9344 12.843 15.9304 12.858L15.9134 12.924C15.8924 13.006 15.8744 13.076 15.8504 13.119C15.8544 13.131 15.8664 13.1459 15.8704 13.1459C15.8924 13.1539 15.9094 13.162 15.9214 13.166C15.9254 13.146 15.9314 13.131 15.9354 13.115C15.9434 13.068 15.9524 13.041 15.9724 13.033C15.9784 13.041 15.9864 13.056 15.9974 13.076L16.0114 13.08C16.0114 13.084 16.0114 13.0959 16.0074 13.1069C16.0074 13.1109 16.0074 13.115 16.0074 13.119C15.9994 13.146 15.9974 13.17 15.9894 13.182C15.9934 13.186 16.0034 13.1939 16.0324 13.2019C16.0534 13.2099 16.0734 13.214 16.0834 13.21C16.0994 13.202 16.1084 13.175 16.1164 13.124L16.1284 13.132L16.0954 13.089C16.1014 13.077 16.1284 13.0689 16.1464 13.0729C16.1604 13.0769 16.1854 13.12 16.1854 13.132C16.1754 13.195 16.1564 13.245 16.1174 13.269C16.0994 13.281 16.0864 13.281 16.0724 13.281Z" fill="#F0C727"></path></g></g></g><g id="Clip path group_32"><mask id="mask31_9372_26944" style="mask-type:luminance" maskUnits="userSpaceOnUse" x="0" y="0" width="35" height="21"><g id="SVGID_00000072252331280634568600000002834902716932786594__24"><path id="Vector_60" d="M34.2205 0.710938H0.656494V20.2889H34.2205V0.710938Z" fill="white"></path></g></mask><g mask="url(#mask31_9372_26944)"><g id="Group_20"><path id="Vector_61" d="M15.8694 13.218C15.8694 13.218 15.8654 13.218 15.8614 13.218C15.7814 13.195 15.7344 13.1519 15.7344 13.1049C15.7344 13.0779 15.7554 13.0389 15.8394 13.0229C15.8574 13.0229 15.8764 13.031 15.8824 13.05C15.8824 13.07 15.8724 13.081 15.8534 13.085C15.8104 13.093 15.8024 13.1079 15.8024 13.1079C15.8024 13.1119 15.8274 13.1349 15.8784 13.1469C15.8944 13.1549 15.9034 13.1739 15.9004 13.1899C15.8964 13.2069 15.8874 13.218 15.8694 13.218Z" fill="#F0C727"></path></g></g></g><g id="Clip path group_33"><mask id="mask32_9372_26944" style="mask-type:luminance" maskUnits="userSpaceOnUse" x="0" y="0" width="35" height="21"><g id="SVGID_00000072252331280634568600000002834902716932786594__25"><path id="Vector_62" d="M34.2205 0.710938H0.656494V20.2889H34.2205V0.710938Z" fill="white"></path></g></mask><g mask="url(#mask32_9372_26944)"><g id="Group_21"><path id="Vector_63" d="M16.6074 13.4289C16.5934 13.4289 16.5684 13.4169 16.5604 13.4089C16.5564 13.4209 16.5014 13.4049 16.5014 13.3109C16.4914 13.3109 16.4624 13.3029 16.4444 13.2909C16.3794 13.3179 16.3054 13.3259 16.2584 13.3069C16.2404 13.3339 16.2194 13.3539 16.1944 13.3659C16.1724 13.3739 16.1534 13.3659 16.1474 13.3499C16.1354 13.3339 16.1474 13.3109 16.1654 13.3029C16.1834 13.2949 16.1984 13.2829 16.2084 13.2679C16.1984 13.2519 16.1944 13.2329 16.1944 13.2129C16.1864 13.1969 16.1784 13.1619 16.1944 13.1389C16.2514 13.1309 16.2744 13.1509 16.2884 13.1979C16.2884 13.2179 16.2884 13.2329 16.2844 13.2449C16.3064 13.2529 16.3434 13.2529 16.3864 13.2409C16.3574 13.2059 16.3534 13.1589 16.3724 13.1279C16.3934 13.0809 16.4444 13.0579 16.4954 13.0769C16.5384 13.0929 16.5594 13.1319 16.5554 13.1749C16.5554 13.2099 16.5414 13.2409 16.5124 13.2609C16.5284 13.2689 16.5374 13.2809 16.5514 13.2839C16.5714 13.3499 16.5784 13.3499 16.5884 13.3499C16.6024 13.3499 16.6294 13.3069 16.6294 13.2599V13.0329C16.6294 12.9939 16.6974 12.9939 16.6974 13.0329V13.2599C16.6974 13.3229 16.6604 13.4049 16.6174 13.4239C16.6154 13.4249 16.6114 13.4289 16.6074 13.4289Z" fill="#F0C727"></path></g></g></g><g id="Clip path group_34"><mask id="mask33_9372_26944" style="mask-type:luminance" maskUnits="userSpaceOnUse" x="0" y="0" width="35" height="21"><g id="SVGID_00000072252331280634568600000002834902716932786594__26"><path id="Vector_64" d="M34.2205 0.710938H0.656494V20.2889H34.2205V0.710938Z" fill="white"></path></g></mask><g mask="url(#mask33_9372_26944)"><g id="Group_22"><path id="Vector_65" d="M16.7426 13.347C16.7256 13.347 16.7056 13.331 16.7056 13.312C16.7056 13.277 16.7136 13.218 16.7256 13.164C16.7336 13.113 16.7356 13.07 16.7356 13.035C16.7356 12.996 16.8036 12.996 16.8036 13.035C16.8036 13.074 16.7976 13.121 16.7896 13.176C16.7836 13.227 16.7756 13.281 16.7756 13.313C16.7756 13.332 16.7606 13.347 16.7426 13.347Z" fill="#F0C727"></path></g></g></g><g id="Clip path group_35"><mask id="mask34_9372_26944" style="mask-type:luminance" maskUnits="userSpaceOnUse" x="0" y="0" width="35" height="21"><g id="SVGID_00000072252331280634568600000002834902716932786594__27"><path id="Vector_66" d="M34.2205 0.710938H0.656494V20.2889H34.2205V0.710938Z" fill="white"></path></g></mask><g mask="url(#mask34_9372_26944)"><g id="Group_23"><path id="Vector_67" d="M16.8186 13.4999C16.8106 13.4999 16.8006 13.4959 16.7936 13.4879C16.7796 13.4719 16.7836 13.4489 16.8016 13.4369C16.8526 13.3979 16.8736 13.3709 16.8816 13.3389C16.8656 13.3309 16.8546 13.3159 16.8446 13.3079C16.8266 13.2769 16.8266 13.2449 16.8366 13.2299C16.8446 13.2179 16.8736 13.2069 16.8876 13.2069C16.9126 13.2069 16.9386 13.2339 16.9536 13.2769C16.9536 13.2849 16.9556 13.2929 16.9536 13.2999C16.9596 13.2999 16.9676 13.2999 16.9746 13.2999C16.9746 13.2999 16.9846 13.2919 16.9846 13.2529C16.9746 13.2409 16.9666 13.2329 16.9666 13.2139C16.9666 13.1909 16.9916 13.1549 17.0096 13.1549C17.0296 13.1549 17.0466 13.1819 17.0546 13.1979C17.0646 13.1979 17.0796 13.1979 17.1016 13.1979C17.1586 13.2289 17.2596 13.2249 17.2836 13.2099C17.3446 13.1979 17.3656 13.2409 17.3656 13.3119C17.3656 13.3159 17.3516 13.3629 17.3476 13.3669C17.3296 13.4139 17.3146 13.4449 17.2836 13.4529C17.2506 13.4569 17.2206 13.4369 17.2036 13.4139C17.1916 13.3789 17.1916 13.3709 17.1526 13.3709H16.9746C16.9626 13.3709 16.9536 13.3709 16.9456 13.3669C16.9316 13.4059 16.9026 13.4449 16.8406 13.4919C16.8366 13.4959 16.8306 13.4999 16.8186 13.4999ZM17.0476 13.2999H17.1526C17.2466 13.2999 17.2596 13.3549 17.2596 13.3859L17.2886 13.3349C17.2926 13.3079 17.2966 13.2919 17.2926 13.2799C17.2326 13.2959 17.1306 13.2879 17.0856 13.2639C17.0796 13.2639 17.0646 13.2679 17.0546 13.2679C17.0546 13.2809 17.0516 13.2929 17.0476 13.2999Z" fill="#F0C727"></path></g></g></g><g id="Clip path group_36"><mask id="mask35_9372_26944" style="mask-type:luminance" maskUnits="userSpaceOnUse" x="0" y="0" width="35" height="21"><g id="SVGID_00000072252331280634568600000002834902716932786594__28"><path id="Vector_68" d="M34.2205 0.710938H0.656494V20.2889H34.2205V0.710938Z" fill="white"></path></g></mask><g mask="url(#mask35_9372_26944)"><g id="Group_24"><path id="Vector_69" d="M17.4355 13.3709C17.4235 13.3709 17.4195 13.3669 17.4155 13.3629C17.3905 13.3589 17.3765 13.3629 17.3645 13.3669C17.3435 13.3669 17.3135 13.3509 17.3135 13.3359C17.3135 13.3159 17.3095 13.3009 17.3335 13.3009V13.3359L17.3515 13.2969C17.3615 13.2969 17.3735 13.2929 17.3885 13.2929C17.3885 13.2579 17.4025 13.2339 17.4115 13.2269C17.4345 13.1999 17.4665 13.1959 17.4955 13.2069C17.5285 13.2229 17.5465 13.2539 17.5465 13.2849C17.5475 13.3359 17.4715 13.3709 17.4355 13.3709Z" fill="#F0C727"></path></g></g></g><g id="Clip path group_37"><mask id="mask36_9372_26944" style="mask-type:luminance" maskUnits="userSpaceOnUse" x="0" y="0" width="35" height="21"><g id="SVGID_00000072252331280634568600000002834902716932786594__29"><path id="Vector_70" d="M34.2205 0.710938H0.656494V20.2889H34.2205V0.710938Z" fill="white"></path></g></mask><g mask="url(#mask36_9372_26944)"><g id="Group_25"><path id="Vector_71" d="M17.6415 13.3629C17.6315 13.3629 17.6195 13.3629 17.6125 13.3589C17.5985 13.3549 17.5815 13.3279 17.5815 13.3119C17.6105 13.2689 17.6425 13.2489 17.6715 13.2419C17.6795 13.1869 17.6755 13.1089 17.6575 13.0429C17.6495 13.0269 17.6615 13.0039 17.6785 12.9999C17.7005 12.9959 17.7175 13.0079 17.7215 13.0269C17.7415 13.0899 17.7505 13.1869 17.7415 13.2609C17.7475 13.2609 17.7925 13.2809 17.7945 13.2809C17.8195 13.2809 17.8315 13.2689 17.8355 13.2219C17.8155 13.1989 17.7985 13.1669 17.8065 13.1559C17.8125 13.1399 17.8435 13.1289 17.8615 13.1329C17.8755 13.1329 17.9045 13.1679 17.9045 13.1839C17.9045 13.1919 17.9005 13.1999 17.9005 13.2069C17.9045 13.2109 17.9045 13.2149 17.9005 13.2189C17.8965 13.3169 17.8715 13.3479 17.7955 13.3479C17.7605 13.3639 17.7315 13.3559 17.7135 13.3439C17.7135 13.3399 17.7095 13.3399 17.7095 13.3359C17.6855 13.3549 17.6605 13.3629 17.6415 13.3629Z" fill="#F0C727"></path></g></g></g><g id="Clip path group_38"><mask id="mask37_9372_26944" style="mask-type:luminance" maskUnits="userSpaceOnUse" x="0" y="0" width="35" height="21"><g id="SVGID_00000072252331280634568600000002834902716932786594__30"><path id="Vector_72" d="M34.2205 0.710938H0.656494V20.2889H34.2205V0.710938Z" fill="white"></path></g></mask><g mask="url(#mask37_9372_26944)"><g id="Group_26"><path id="Vector_73" d="M17.9454 13.4489C17.9394 13.4489 17.9274 13.4449 17.9234 13.4369C17.9094 13.4289 17.9094 13.4019 17.9234 13.3899C17.9454 13.3669 17.9664 13.3349 17.9784 13.2999C17.9194 13.2729 17.9104 13.2339 17.9104 13.2139C17.9104 13.1979 17.9104 13.1509 17.9454 13.1359C17.9824 13.1279 18.0134 13.1559 18.0434 13.1869C18.0844 13.2649 18.0294 13.3819 17.9714 13.4369C17.9634 13.4449 17.9574 13.4489 17.9454 13.4489Z" fill="#F0C727"></path></g></g></g><g id="Clip path group_39"><mask id="mask38_9372_26944" style="mask-type:luminance" maskUnits="userSpaceOnUse" x="0" y="0" width="35" height="21"><g id="SVGID_00000072252331280634568600000002834902716932786594__31"><path id="Vector_74" d="M34.2205 0.710938H0.656494V20.2889H34.2205V0.710938Z" fill="white"></path></g></mask><g mask="url(#mask38_9372_26944)"><g id="Group_27"><path id="Vector_75" d="M18.1276 13.398C18.1136 13.398 18.0986 13.386 18.0946 13.378C18.0886 13.358 18.0946 13.335 18.1146 13.331C18.1396 13.323 18.1536 13.308 18.1616 13.296C18.1066 13.296 18.0856 13.276 18.0816 13.249C18.0736 13.214 18.0936 13.179 18.1326 13.151C18.1446 13.147 18.1836 13.135 18.1916 13.139C18.2186 13.151 18.2346 13.182 18.2386 13.229C18.3286 13.213 18.4556 13.182 18.5436 13.127C18.5576 13.115 18.5826 13.119 18.5906 13.135C18.6006 13.155 18.5986 13.174 18.5786 13.182C18.4696 13.252 18.3326 13.284 18.2346 13.291C18.2226 13.33 18.2056 13.369 18.1406 13.393C18.1356 13.398 18.1316 13.398 18.1276 13.398Z" fill="#F0C727"></path></g></g></g><g id="Clip path group_40"><mask id="mask39_9372_26944" style="mask-type:luminance" maskUnits="userSpaceOnUse" x="0" y="0" width="35" height="21"><g id="SVGID_00000072252331280634568600000002834902716932786594__32"><path id="Vector_76" d="M34.2205 0.710938H0.656494V20.2889H34.2205V0.710938Z" fill="white"></path></g></mask><g mask="url(#mask39_9372_26944)"><g id="Group_28"><path id="Vector_77" d="M18.4324 13.2999C18.4204 13.2999 18.4075 13.2959 18.3975 13.2919C18.3745 13.2649 18.3604 13.2329 18.3484 13.1939C18.3424 13.2099 18.3424 13.2249 18.3424 13.2329C18.3424 13.2759 18.2725 13.2759 18.2725 13.2329C18.2725 13.1819 18.2955 13.1309 18.3275 13.1119C18.3235 13.1079 18.3235 13.0959 18.3235 13.0889L18.2984 12.9909C18.2964 12.9749 18.3025 12.9519 18.3195 12.9479C18.3425 12.9399 18.3604 12.9519 18.3644 12.9749L18.3894 13.0769C18.3894 13.0809 18.3934 13.0809 18.3934 13.0849C18.4074 13.0809 18.4284 13.0849 18.4544 13.0929C18.4914 13.1129 18.5184 13.1439 18.5184 13.1829C18.5304 13.2029 18.5265 13.2459 18.5005 13.2769C18.4825 13.2929 18.4574 13.2999 18.4324 13.2999Z" fill="#F0C727"></path></g></g></g><g id="Clip path group_41"><mask id="mask40_9372_26944" style="mask-type:luminance" maskUnits="userSpaceOnUse" x="0" y="0" width="35" height="21"><g id="SVGID_00000072252331280634568600000002834902716932786594__33"><path id="Vector_78" d="M34.2205 0.710938H0.656494V20.2889H34.2205V0.710938Z" fill="white"></path></g></mask><g mask="url(#mask40_9372_26944)"><g id="Group_29"><path id="Vector_79" d="M18.6236 13.2339C18.5766 13.2339 18.5416 13.2069 18.5256 13.1679C18.5216 13.1599 18.5256 13.1169 18.5296 13.1089C18.5686 13.0429 18.6896 13.0349 18.7366 13.0819C18.7546 13.1249 18.7486 13.1479 18.7326 13.1799C18.7116 13.2069 18.6646 13.2339 18.6236 13.2339Z" fill="#F0C727"></path></g></g></g><g id="Clip path group_42"><mask id="mask41_9372_26944" style="mask-type:luminance" maskUnits="userSpaceOnUse" x="0" y="0" width="35" height="21"><g id="SVGID_00000072252331280634568600000002834902716932786594__34"><path id="Vector_80" d="M34.2205 0.710938H0.656494V20.2889H34.2205V0.710938Z" fill="white"></path></g></mask><g mask="url(#mask41_9372_26944)"><g id="Group_30"><path id="Vector_81" d="M18.8384 13.14C18.8184 13.14 18.8054 13.136 18.7954 13.132C18.7364 13.101 18.7075 13.027 18.7075 12.902C18.7075 12.879 18.6994 12.859 18.6824 12.859C18.6604 12.847 18.6314 12.859 18.6144 12.875C18.5984 12.887 18.5774 12.887 18.5634 12.875C18.5514 12.863 18.5514 12.84 18.5634 12.832C18.6024 12.789 18.6655 12.773 18.7115 12.793C18.7505 12.813 18.7725 12.852 18.7725 12.902C18.7725 13.011 18.8015 13.062 18.8275 13.078C18.8395 13.078 18.8504 13.078 18.8604 13.078C18.8604 13.078 18.8604 13.074 18.8644 13.07C18.8704 13.054 18.9074 13.015 18.9254 13.023C18.9414 13.027 18.9544 13.07 18.9544 13.082C18.9024 13.132 18.8634 13.14 18.8384 13.14Z" fill="#F0C727"></path></g></g></g><g id="Clip path group_43"><mask id="mask42_9372_26944" style="mask-type:luminance" maskUnits="userSpaceOnUse" x="0" y="0" width="35" height="21"><g id="SVGID_00000072252331280634568600000002834902716932786594__35"><path id="Vector_82" d="M34.2205 0.710938H0.656494V20.2889H34.2205V0.710938Z" fill="white"></path></g></mask><g mask="url(#mask42_9372_26944)"><path id="Vector_83" d="M17.2794 10.6599L19.4824 12.6989L19.3264 8.9879C19.3034 8.4249 18.8124 8.54989 18.4574 8.75389C18.0984 8.98789 17.6894 8.98789 17.2544 8.83589C16.8184 8.98789 16.4084 8.98789 16.0494 8.75389C15.6964 8.55089 15.2054 8.4259 15.1844 8.9879L15.0244 12.6989L17.2794 10.6599Z" fill="white"></path></g></g><g id="Clip path group_44"><mask id="mask43_9372_26944" style="mask-type:luminance" maskUnits="userSpaceOnUse" x="0" y="0" width="35" height="21"><g id="SVGID_00000072252331280634568600000002834902716932786594__36"><path id="Vector_84" d="M34.2205 0.710938H0.656494V20.2889H34.2205V0.710938Z" fill="white"></path></g></mask><g mask="url(#mask43_9372_26944)"><g id="Group_31"><path id="Vector_85" d="M15.0235 12.7299C15.0195 12.7299 15.0135 12.7299 15.0095 12.7299C14.9975 12.7259 14.9895 12.7099 14.9895 12.6949L15.1455 8.98389C15.1615 8.62489 15.3605 8.5459 15.5225 8.5459C15.7255 8.5459 15.9505 8.65889 16.0675 8.72189C16.3935 8.93289 16.7885 8.9559 17.2415 8.7999C17.7495 8.9559 18.1125 8.93289 18.4385 8.72189C18.5535 8.65889 18.7825 8.5459 18.9775 8.5459C19.1455 8.5459 19.3445 8.62389 19.3585 8.98389L19.5145 12.6949C19.5145 12.7109 19.5065 12.7259 19.4965 12.7299C19.4845 12.7339 19.4675 12.7339 19.4555 12.7259L17.2775 10.7029L15.0435 12.7259C15.0415 12.7299 15.0355 12.7299 15.0235 12.7299ZM15.5235 8.61688C15.3285 8.61688 15.2265 8.73788 15.2165 8.98788L15.0645 12.6209L17.2555 10.6329C17.2675 10.6169 17.2885 10.6169 17.3045 10.6329L19.4475 12.6209L19.2915 8.98788C19.2755 8.56588 18.9475 8.51488 18.4755 8.78488C18.1355 9.00388 17.7175 9.03488 17.2425 8.86688C16.8185 9.03488 16.3775 9.00388 16.0315 8.78488C15.8445 8.67888 15.6625 8.61688 15.5235 8.61688Z" fill="#F0C727"></path></g></g></g><g id="Clip path group_45"><mask id="mask44_9372_26944" style="mask-type:luminance" maskUnits="userSpaceOnUse" x="0" y="0" width="35" height="21"><g id="SVGID_00000072252331280634568600000002834902716932786594__37"><path id="Vector_86" d="M34.2205 0.710938H0.656494V20.2889H34.2205V0.710938Z" fill="white"></path></g></mask><g mask="url(#mask44_9372_26944)"><path id="Vector_87" d="M17.6116 8.96098C17.7406 9.03898 17.8656 9.03898 17.9456 9.03898C17.6896 8.85498 17.6116 8.37098 17.6386 8.16798C17.6896 7.75798 17.5876 7.531 17.3336 7.477C17.2826 7.477 17.2536 7.45 17.1516 7.45C17.0756 7.427 17.0126 7.50099 16.9836 7.55199C16.9076 7.50099 16.8426 7.53198 16.7666 7.47798C16.6906 7.45098 16.5596 7.478 16.5596 7.658L16.6106 7.63798C16.6356 7.64198 16.6766 7.66501 16.7316 7.69301C16.7956 7.74401 16.8896 7.787 16.9196 7.963C16.9746 8.35 16.9196 8.701 16.5606 9.041C16.6406 9.041 16.7676 9.041 16.8906 8.963C16.8436 9.041 16.8186 9.065 16.7676 9.119C16.9196 9.092 17.0506 9.041 17.1226 8.912C17.1516 8.963 17.2246 9.04099 17.2536 9.09199C17.2826 9.04099 17.3556 8.963 17.3846 8.912C17.4566 9.041 17.5876 9.092 17.7396 9.119C17.6896 9.062 17.6626 9.03898 17.6116 8.96098Z" fill="white"></path></g></g><g id="Clip path group_46"><mask id="mask45_9372_26944" style="mask-type:luminance" maskUnits="userSpaceOnUse" x="0" y="0" width="35" height="21"><g id="SVGID_00000072252331280634568600000002834902716932786594__38"><path id="Vector_88" d="M34.2205 0.710938H0.656494V20.2889H34.2205V0.710938Z" fill="white"></path></g></mask><g mask="url(#mask45_9372_26944)"><g id="Group_32"><path id="Vector_89" d="M16.6745 9.16394L16.7465 9.09393C16.7635 9.07393 16.7795 9.05494 16.7975 9.04294C16.7055 9.06994 16.6195 9.06995 16.5615 9.06995H16.4795L16.5435 9.01096C16.8445 8.72996 16.9535 8.41696 16.8875 7.96396C16.8695 7.82696 16.8075 7.78794 16.7465 7.74094L16.7095 7.71796C16.6585 7.69096 16.6235 7.66696 16.6075 7.66696L16.5315 7.70193V7.65494C16.5315 7.44794 16.6815 7.40894 16.7795 7.44394C16.8185 7.47094 16.8475 7.47494 16.8815 7.48294C16.9085 7.48694 16.9425 7.49095 16.9795 7.50595C17.0045 7.46695 17.0555 7.40796 17.1245 7.40796C17.2145 7.41596 17.2555 7.42394 17.2845 7.43494C17.3025 7.43894 17.3155 7.43893 17.3355 7.43893C17.6125 7.49793 17.7225 7.73994 17.6675 8.17294C17.6455 8.37994 17.7265 8.84094 17.9645 9.00494L18.0525 9.06796H17.9475C17.8905 9.06796 17.8065 9.06795 17.7155 9.04095C17.7275 9.05295 17.7445 9.07195 17.7625 9.09595L17.8365 9.15894L17.7345 9.14694C17.6175 9.12694 17.4765 9.08395 17.3865 8.96695C17.3745 8.98295 17.3595 8.99794 17.3455 9.01794C17.3205 9.04894 17.2985 9.07695 17.2845 9.09995L17.2555 9.15094L17.2265 9.09995C17.2145 9.07695 17.1895 9.04894 17.1675 9.01794C17.1535 8.99794 17.1385 8.98295 17.1245 8.96695C17.0345 9.08395 16.8925 9.12694 16.7765 9.14694L16.6745 9.16394ZM17.3815 8.85095L17.4125 8.89795C17.4575 8.97195 17.5335 9.02695 17.6445 9.05795C17.6305 9.03795 17.6115 9.01495 17.5875 8.97995L17.6305 8.93295C17.7065 8.97995 17.7905 8.99596 17.8595 8.99896C17.6405 8.77996 17.5845 8.35396 17.6055 8.16696C17.6525 7.76896 17.5605 7.55396 17.3265 7.50696C17.3065 7.51896 17.2875 7.50293 17.2635 7.49493C17.2365 7.48693 17.2035 7.48294 17.1445 7.48294C17.0645 7.48294 17.0255 7.54594 17.0135 7.56494L16.9995 7.59595L16.9705 7.57996C16.9375 7.55296 16.9045 7.54895 16.8725 7.54495C16.8355 7.53695 16.7925 7.53295 16.7515 7.50195C16.7315 7.49795 16.6225 7.46694 16.5975 7.60394C16.6445 7.60394 16.6775 7.62694 16.7245 7.65094L16.7795 7.68994C16.8475 7.73694 16.9275 7.79193 16.9535 7.95593C16.9925 8.25293 16.9885 8.64396 16.6405 8.99896C16.7125 8.99896 16.7965 8.97895 16.8765 8.93295L16.9195 8.97995C16.8975 9.01495 16.8805 9.03895 16.8605 9.05795C16.9775 9.02695 17.0495 8.97195 17.0965 8.89795L17.1255 8.85095L17.1505 8.89795C17.1645 8.91795 17.1855 8.94895 17.2115 8.97995C17.2275 8.99595 17.2405 9.01094 17.2525 9.03094C17.2665 9.01094 17.2775 8.99595 17.2915 8.97995C17.3135 8.94895 17.3385 8.91695 17.3545 8.89795L17.3815 8.85095Z" fill="#F0C727"></path></g></g></g><g id="Clip path group_47"><mask id="mask46_9372_26944" style="mask-type:luminance" maskUnits="userSpaceOnUse" x="0" y="0" width="35" height="21"><g id="SVGID_00000072252331280634568600000002834902716932786594__39"><path id="Vector_90" d="M34.2205 0.710938H0.656494V20.2889H34.2205V0.710938Z" fill="white"></path></g></mask><g mask="url(#mask46_9372_26944)"><g id="Group_33"><path id="Vector_91" d="M17.6314 9.01893C17.6194 9.01893 17.6064 9.01094 17.5984 8.99894C17.5264 8.85394 17.4504 8.69393 17.4504 8.47193C17.4504 8.43693 17.5184 8.43693 17.5184 8.47193C17.5184 8.67893 17.5844 8.82393 17.6614 8.96793C17.6674 8.98793 17.6614 9.00293 17.6454 9.01493C17.6414 9.01893 17.6394 9.01893 17.6314 9.01893Z" fill="#F0C727"></path></g></g></g><g id="Clip path group_48"><mask id="mask47_9372_26944" style="mask-type:luminance" maskUnits="userSpaceOnUse" x="0" y="0" width="35" height="21"><g id="SVGID_00000072252331280634568600000002834902716932786594__40"><path id="Vector_92" d="M34.2205 0.710938H0.656494V20.2889H34.2205V0.710938Z" fill="white"></path></g></mask><g mask="url(#mask47_9372_26944)"><g id="Group_34"><path id="Vector_93" d="M17.3854 8.94492C17.3734 8.94492 17.3624 8.94093 17.3564 8.92893C17.3014 8.84693 17.2725 8.69093 17.2725 8.47193C17.2725 8.43693 17.3405 8.43693 17.3405 8.47193C17.3405 8.67093 17.3654 8.81993 17.4124 8.89393C17.4244 8.90993 17.4164 8.92892 17.4024 8.94092C17.3944 8.94492 17.3914 8.94492 17.3854 8.94492Z" fill="#F0C727"></path></g></g></g><g id="Clip path group_49"><mask id="mask48_9372_26944" style="mask-type:luminance" maskUnits="userSpaceOnUse" x="0" y="0" width="35" height="21"><g id="SVGID_00000072252331280634568600000002834902716932786594__41"><path id="Vector_94" d="M34.2205 0.710938H0.656494V20.2889H34.2205V0.710938Z" fill="white"></path></g></mask><g mask="url(#mask48_9372_26944)"><g id="Group_35"><path id="Vector_95" d="M16.8775 9.01893C16.8735 9.01893 16.8655 9.01893 16.8615 9.01493C16.8435 9.00293 16.8405 8.98793 16.8475 8.96793C16.9195 8.83093 16.9885 8.67893 16.9885 8.47193C16.9885 8.43693 17.0565 8.43693 17.0565 8.47193C17.0565 8.69493 16.9845 8.85494 16.9085 8.99894C16.9025 9.01094 16.8915 9.01893 16.8775 9.01893Z" fill="#F0C727"></path></g></g></g><g id="Clip path group_50"><mask id="mask49_9372_26944" style="mask-type:luminance" maskUnits="userSpaceOnUse" x="0" y="0" width="35" height="21"><g id="SVGID_00000072252331280634568600000002834902716932786594__42"><path id="Vector_96" d="M34.2205 0.710938H0.656494V20.2889H34.2205V0.710938Z" fill="white"></path></g></mask><g mask="url(#mask49_9372_26944)"><g id="Group_36"><path id="Vector_97" d="M17.1236 8.94492C17.1196 8.94492 17.1116 8.94492 17.1056 8.94092C17.0896 8.92892 17.0856 8.90993 17.0936 8.89393C17.1406 8.81993 17.1696 8.67093 17.1696 8.47193C17.1696 8.43693 17.2356 8.43693 17.2356 8.47193C17.2356 8.69093 17.2066 8.84693 17.1556 8.92893C17.1486 8.94093 17.1356 8.94492 17.1236 8.94492Z" fill="#F0C727"></path></g></g></g><g id="Clip path group_51"><mask id="mask50_9372_26944" style="mask-type:luminance" maskUnits="userSpaceOnUse" x="0" y="0" width="35" height="21"><g id="SVGID_00000072252331280634568600000002834902716932786594__43"><path id="Vector_98" d="M34.2205 0.710938H0.656494V20.2889H34.2205V0.710938Z" fill="white"></path></g></mask><g mask="url(#mask50_9372_26944)"><path id="Vector_99" d="M16.5806 7.63203C16.6336 7.63603 16.6546 7.65502 16.7326 7.69102C16.7796 7.71802 16.8906 7.78502 16.9206 7.94102C16.8916 7.85902 16.9456 7.78502 17.0006 7.81202C16.9206 7.62902 16.6826 7.58603 16.5806 7.63203Z" fill="#F0C727"></path></g></g><g id="Clip path group_52"><mask id="mask51_9372_26944" style="mask-type:luminance" maskUnits="userSpaceOnUse" x="0" y="0" width="35" height="21"><g id="SVGID_00000072252331280634568600000002834902716932786594__44"><path id="Vector_100" d="M34.2205 0.710938H0.656494V20.2889H34.2205V0.710938Z" fill="white"></path></g></mask><g mask="url(#mask51_9372_26944)"><g id="Group_37"><path id="Vector_101" d="M16.9204 7.95288C16.9164 7.95288 16.9084 7.94889 16.9044 7.94489C16.9044 7.94489 16.9044 7.94489 16.9044 7.94089C16.9024 7.93689 16.8984 7.91788 16.8984 7.90988C16.8654 7.78888 16.7675 7.73388 16.7245 7.70688L16.6954 7.67587L16.6834 7.6879C16.6404 7.6649 16.6184 7.6489 16.5754 7.6489C16.5964 7.6019 16.6324 7.5979 16.6734 7.5979C16.7964 7.5979 16.9525 7.6609 17.0135 7.8049C17.0175 7.8089 17.0035 7.81289 16.9995 7.81689C16.9995 7.81689 16.9835 7.81689 16.9785 7.81689C16.9335 7.84789 16.9275 7.87589 16.9315 7.90289C16.9315 7.90689 16.9315 7.91089 16.9275 7.91489C16.9335 7.92289 16.9334 7.9349 16.9374 7.9379C16.9374 7.9459 16.9334 7.95389 16.9234 7.95389H16.9204V7.95288ZM16.6335 7.6319C16.6545 7.6359 16.6745 7.63988 16.7035 7.65488L16.7384 7.67789C16.7794 7.70089 16.8574 7.74389 16.9044 7.84189C16.9124 7.82989 16.9205 7.81488 16.9275 7.81488C16.9415 7.79488 16.9585 7.78787 16.9785 7.78787C16.9245 7.67487 16.7425 7.6129 16.6335 7.6319Z" fill="#F0C727"></path></g></g></g><g id="Clip path group_53"><mask id="mask52_9372_26944" style="mask-type:luminance" maskUnits="userSpaceOnUse" x="0" y="0" width="35" height="21"><g id="SVGID_00000072252331280634568600000002834902716932786594__45"><path id="Vector_102" d="M34.2205 0.710938H0.656494V20.2889H34.2205V0.710938Z" fill="white"></path></g></mask><g mask="url(#mask52_9372_26944)"><path id="Vector_103" d="M17.3555 11.0659L17.6625 12.4679L17.5605 12.5739L17.4575 12.4919L17.2835 11.2379L17.3555 12.4919L17.2545 12.6249L17.1525 12.4919L17.2245 11.2379L17.0515 12.4919L16.9455 12.5739L16.8445 12.4679L17.1525 11.0659H17.3555Z" fill="#F0C727"></path></g></g><g id="Clip path group_54"><mask id="mask53_9372_26944" style="mask-type:luminance" maskUnits="userSpaceOnUse" x="0" y="0" width="35" height="21"><g id="SVGID_00000072252331280634568600000002834902716932786594__46"><path id="Vector_104" d="M34.2205 0.710938H0.656494V20.2889H34.2205V0.710938Z" fill="white"></path></g></mask><g mask="url(#mask53_9372_26944)"><g id="Group_38"><path id="Vector_105" d="M17.2545 12.668L17.1315 12.512L17.1625 11.91L17.0805 12.496L16.9635 12.594L16.8225 12.489L17.1235 11.059L17.3555 11.032L17.6915 12.462L17.5845 12.595L17.4385 12.517L17.3485 11.9L17.3855 12.494L17.2545 12.668ZM17.2545 11.261L17.1825 12.491L17.2545 12.577L17.3345 12.475L17.2545 11.261ZM17.3265 11.07L17.1525 11.093L16.8735 12.476L16.9675 12.55L17.0335 12.468L17.1995 11.234L17.2545 11.238L17.3075 11.234L17.4875 12.488L17.5815 12.547L17.6455 12.445L17.3265 11.07Z" fill="#F0C727"></path></g></g></g><g id="Clip path group_55"><mask id="mask54_9372_26944" style="mask-type:luminance" maskUnits="userSpaceOnUse" x="0" y="0" width="35" height="21"><g id="SVGID_00000072252331280634568600000002834902716932786594__47"><path id="Vector_106" d="M34.2205 0.710938H0.656494V20.2889H34.2205V0.710938Z" fill="white"></path></g></mask><g mask="url(#mask54_9372_26944)"><path id="Vector_107" d="M15.4374 8.85498L15.2854 12.468L15.0234 12.698L15.1834 8.98697C15.2564 8.93297 15.3834 8.85498 15.4374 8.85498Z" fill="#F0C727"></path></g></g><g id="Clip path group_56"><mask id="mask55_9372_26944" style="mask-type:luminance" maskUnits="userSpaceOnUse" x="0" y="0" width="35" height="21"><g id="SVGID_00000072252331280634568600000002834902716932786594__48"><path id="Vector_108" d="M34.2205 0.710938H0.656494V20.2889H34.2205V0.710938Z" fill="white"></path></g></mask><g mask="url(#mask55_9372_26944)"><path id="Vector_109" d="M15.7444 9.11688L15.6154 12.1369L15.3574 12.4029L15.5134 8.91089C15.5644 8.96089 15.7174 9.08888 15.7444 9.11688Z" fill="#F0C727"></path></g></g><g id="Clip path group_57"><mask id="mask56_9372_26944" style="mask-type:luminance" maskUnits="userSpaceOnUse" x="0" y="0" width="35" height="21"><g id="SVGID_00000072252331280634568600000002834902716932786594__49"><path id="Vector_110" d="M34.2205 0.710938H0.656494V20.2889H34.2205V0.710938Z" fill="white"></path></g></mask><g mask="url(#mask56_9372_26944)"><path id="Vector_111" d="M16.0256 9.34695L15.9236 11.8669L15.7166 12.0699L15.8456 9.19495C15.8946 9.24595 15.9966 9.31995 16.0256 9.34695Z" fill="#F0C727"></path></g></g><g id="Clip path group_58"><mask id="mask57_9372_26944" style="mask-type:luminance" maskUnits="userSpaceOnUse" x="0" y="0" width="35" height="21"><g id="SVGID_00000072252331280634568600000002834902716932786594__50"><path id="Vector_112" d="M34.2205 0.710938H0.656494V20.2889H34.2205V0.710938Z" fill="white"></path></g></mask><g mask="url(#mask57_9372_26944)"><path id="Vector_113" d="M16.3304 9.47595L16.2284 11.6209L16.0254 11.7849L16.1274 9.39795C16.1794 9.41795 16.2814 9.47595 16.3304 9.47595Z" fill="#F0C727"></path></g></g><g id="Clip path group_59"><mask id="mask58_9372_26944" style="mask-type:luminance" maskUnits="userSpaceOnUse" x="0" y="0" width="35" height="21"><g id="SVGID_00000072252331280634568600000002834902716932786594__51"><path id="Vector_114" d="M34.2205 0.710938H0.656494V20.2889H34.2205V0.710938Z" fill="white"></path></g></mask><g mask="url(#mask58_9372_26944)"><path id="Vector_115" d="M16.6116 9.47595L16.5396 11.269L16.3306 11.468L16.4086 9.49896C16.4596 9.49996 16.5906 9.49995 16.6116 9.47595Z" fill="#F0C727"></path></g></g><g id="Clip path group_60"><mask id="mask59_9372_26944" style="mask-type:luminance" maskUnits="userSpaceOnUse" x="0" y="0" width="35" height="21"><g id="SVGID_00000072252331280634568600000002834902716932786594__52"><path id="Vector_116" d="M34.2205 0.710938H0.656494V20.2889H34.2205V0.710938Z" fill="white"></path></g></mask><g mask="url(#mask59_9372_26944)"><path id="Vector_117" d="M19.0706 8.85498L19.2246 12.468L19.4826 12.698L19.3266 8.98697C19.2546 8.93297 19.1236 8.85498 19.0706 8.85498Z" fill="#F0C727"></path></g></g><g id="Clip path group_61"><mask id="mask60_9372_26944" style="mask-type:luminance" maskUnits="userSpaceOnUse" x="0" y="0" width="35" height="21"><g id="SVGID_00000072252331280634568600000002834902716932786594__53"><path id="Vector_118" d="M34.2205 0.710938H0.656494V20.2889H34.2205V0.710938Z" fill="white"></path></g></mask><g mask="url(#mask60_9372_26944)"><path id="Vector_119" d="M18.7625 9.11691L18.8934 12.1369L19.1515 12.3669L18.9955 8.90991C18.9435 8.96091 18.7915 9.08891 18.7625 9.11691Z" fill="#F0C727"></path></g></g><g id="Clip path group_62"><mask id="mask61_9372_26944" style="mask-type:luminance" maskUnits="userSpaceOnUse" x="0" y="0" width="35" height="21"><g id="SVGID_00000072252331280634568600000002834902716932786594__54"><path id="Vector_120" d="M34.2205 0.710938H0.656494V20.2889H34.2205V0.710938Z" fill="white"></path></g></mask><g mask="url(#mask61_9372_26944)"><path id="Vector_121" d="M18.4824 9.34695L18.5874 11.8669L18.7904 12.0269L18.6594 9.19495C18.6094 9.24595 18.5084 9.31995 18.4824 9.34695Z" fill="#F0C727"></path></g></g><g id="Clip path group_63"><mask id="mask62_9372_26944" style="mask-type:luminance" maskUnits="userSpaceOnUse" x="0" y="0" width="35" height="21"><g id="SVGID_00000072252331280634568600000002834902716932786594__55"><path id="Vector_122" d="M34.2205 0.710938H0.656494V20.2889H34.2205V0.710938Z" fill="white"></path></g></mask><g mask="url(#mask62_9372_26944)"><path id="Vector_123" d="M18.1785 9.47598L18.2805 11.581L18.4835 11.749L18.3815 9.39697C18.3305 9.41797 18.2285 9.47598 18.1785 9.47598Z" fill="#F0C727"></path></g></g><g id="Clip path group_64"><mask id="mask63_9372_26944" style="mask-type:luminance" maskUnits="userSpaceOnUse" x="0" y="0" width="35" height="21"><g id="SVGID_00000072252331280634568600000002834902716932786594__56"><path id="Vector_124" d="M34.2205 0.710938H0.656494V20.2889H34.2205V0.710938Z" fill="white"></path></g></mask><g mask="url(#mask63_9372_26944)"><path id="Vector_125" d="M17.8945 9.47595L17.9706 11.269L18.1776 11.468L18.0975 9.49896C18.0475 9.49996 17.9165 9.49995 17.8945 9.47595Z" fill="#F0C727"></path></g></g><g id="Clip path group_65"><mask id="mask64_9372_26944" style="mask-type:luminance" maskUnits="userSpaceOnUse" x="0" y="0" width="35" height="21"><g id="SVGID_00000072252331280634568600000002834902716932786594__57"><path id="Vector_126" d="M34.2205 0.710938H0.656494V20.2889H34.2205V0.710938Z" fill="white"></path></g></mask><g mask="url(#mask64_9372_26944)"><path id="Vector_127" d="M16.5605 10.449L15.9475 12.625L16.7935 12.75L17.1525 11.113L16.5605 10.449Z" fill="white"></path></g></g><g id="Clip path group_66"><mask id="mask65_9372_26944" style="mask-type:luminance" maskUnits="userSpaceOnUse" x="0" y="0" width="35" height="21"><g id="SVGID_00000072252331280634568600000002834902716932786594__58"><path id="Vector_128" d="M34.2205 0.710938H0.656494V20.2889H34.2205V0.710938Z" fill="white"></path></g></mask><g mask="url(#mask65_9372_26944)"><g id="Group_39"><path id="Vector_129" d="M16.7935 12.781C16.7895 12.781 16.7895 12.781 16.7895 12.781L15.9455 12.652C15.9335 12.648 15.9255 12.644 15.9205 12.636C15.9165 12.628 15.9165 12.624 15.9165 12.616L16.5315 10.436C16.5355 10.42 16.5435 10.413 16.5525 10.413C16.5645 10.413 16.5755 10.413 16.5855 10.421L17.1775 11.093L16.8255 12.757C16.8185 12.773 16.8075 12.781 16.7935 12.781ZM15.9885 12.593L16.7635 12.714L17.1185 11.105L16.5755 10.507L15.9885 12.593Z" fill="#F0C727"></path></g></g></g><g id="Clip path group_67"><mask id="mask66_9372_26944" style="mask-type:luminance" maskUnits="userSpaceOnUse" x="0" y="0" width="35" height="21"><g id="SVGID_00000072252331280634568600000002834902716932786594__59"><path id="Vector_130" d="M34.2205 0.710938H0.656494V20.2889H34.2205V0.710938Z" fill="white"></path></g></mask><g mask="url(#mask66_9372_26944)"><path id="Vector_131" d="M17.9455 10.449L18.5595 12.625L17.7135 12.75L17.3555 11.113L17.9455 10.449Z" fill="white"></path></g></g><g id="Clip path group_68"><mask id="mask67_9372_26944" style="mask-type:luminance" maskUnits="userSpaceOnUse" x="0" y="0" width="35" height="21"><g id="SVGID_00000072252331280634568600000002834902716932786594__60"><path id="Vector_132" d="M34.2205 0.710938H0.656494V20.2889H34.2205V0.710938Z" fill="white"></path></g></mask><g mask="url(#mask67_9372_26944)"><g id="Group_40"><path id="Vector_133" d="M17.7135 12.7809C17.6995 12.7809 17.6905 12.7729 17.6865 12.7579L17.3235 11.1169L17.9255 10.4219C17.9335 10.4139 17.9435 10.4139 17.9545 10.4139C17.9645 10.4139 17.9725 10.426 17.9755 10.437L18.5925 12.6169C18.5925 12.6249 18.5925 12.629 18.5885 12.637C18.5805 12.645 18.5725 12.649 18.5635 12.653L17.7215 12.782C17.7215 12.782 17.7175 12.7809 17.7135 12.7809ZM17.9325 10.511L17.3815 11.132L17.7405 12.714L18.5175 12.593L17.9325 10.511Z" fill="#F0C727"></path></g></g></g><g id="Clip path group_69"><mask id="mask68_9372_26944" style="mask-type:luminance" maskUnits="userSpaceOnUse" x="0" y="0" width="35" height="21"><g id="SVGID_00000072252331280634568600000002834902716932786594__61"><path id="Vector_134" d="M34.2205 0.710938H0.656494V20.2889H34.2205V0.710938Z" fill="white"></path></g></mask><g mask="url(#mask68_9372_26944)"><g id="Group_41"><path id="Vector_135" d="M16.4346 11.3979C16.4306 11.3979 16.4306 11.3979 16.4286 11.3979C16.4166 11.3979 16.4056 11.3899 16.4016 11.3749L16.3276 11.1989C16.3236 11.1789 16.3276 11.1639 16.3456 11.1559C16.3636 11.1439 16.3846 11.1559 16.3926 11.1719L16.4476 11.3049L16.6426 11.0899C16.6546 11.0739 16.6716 11.0739 16.6856 11.0899C16.7016 11.1019 16.7056 11.1169 16.6896 11.1329L16.4576 11.3909C16.4496 11.3939 16.4416 11.3979 16.4346 11.3979Z" fill="#F0C727"></path></g></g></g><g id="Clip path group_70"><mask id="mask69_9372_26944" style="mask-type:luminance" maskUnits="userSpaceOnUse" x="0" y="0" width="35" height="21"><g id="SVGID_00000072252331280634568600000002834902716932786594__62"><path id="Vector_136" d="M34.2205 0.710938H0.656494V20.2889H34.2205V0.710938Z" fill="white"></path></g></mask><g mask="url(#mask69_9372_26944)"><g id="Group_42"><path id="Vector_137" d="M16.7175 11.5499C16.7175 11.5499 16.7135 11.5499 16.7095 11.5499C16.6955 11.5459 16.6845 11.5379 16.6845 11.5229L16.6045 10.8079C16.6045 10.7879 16.6205 10.7689 16.6375 10.7689C16.6555 10.7649 16.6705 10.7809 16.6745 10.7999L16.7425 11.4289L16.9455 11.1669C16.9555 11.1509 16.9785 11.1469 16.9925 11.1589C17.0065 11.1669 17.0105 11.1899 17.0005 11.2059L16.7465 11.5419C16.7385 11.5469 16.7325 11.5499 16.7175 11.5499Z" fill="#F0C727"></path></g></g></g><g id="Clip path group_71"><mask id="mask70_9372_26944" style="mask-type:luminance" maskUnits="userSpaceOnUse" x="0" y="0" width="35" height="21"><g id="SVGID_00000072252331280634568600000002834902716932786594__63"><path id="Vector_138" d="M34.2205 0.710938H0.656494V20.2889H34.2205V0.710938Z" fill="white"></path></g></mask><g mask="url(#mask70_9372_26944)"><g id="Group_43"><path id="Vector_139" d="M17.0216 11.734C17.0096 11.734 16.9966 11.722 16.9886 11.714L16.8406 11.3229C16.8346 11.3149 16.8406 11.2919 16.8586 11.2839C16.8746 11.2759 16.8956 11.284 16.9036 11.304L17.0556 11.683C17.0616 11.703 17.0556 11.722 17.0356 11.73C17.0336 11.734 17.0296 11.734 17.0216 11.734Z" fill="#F0C727"></path></g></g></g><g id="Clip path group_72"><mask id="mask71_9372_26944" style="mask-type:luminance" maskUnits="userSpaceOnUse" x="0" y="0" width="35" height="21"><g id="SVGID_00000072252331280634568600000002834902716932786594__64"><path id="Vector_140" d="M34.2205 0.710938H0.656494V20.2889H34.2205V0.710938Z" fill="white"></path></g></mask><g mask="url(#mask71_9372_26944)"><g id="Group_44"><path id="Vector_141" d="M16.7936 12.0389C16.7896 12.0389 16.7856 12.0389 16.7836 12.0389C16.7716 12.0349 16.7636 12.0269 16.7606 12.0189L16.6556 11.6829L16.5696 11.8429C16.5616 11.8549 16.5486 11.8699 16.5406 11.8629C16.5266 11.8629 16.5156 11.8509 16.5076 11.8399L16.4216 11.6289L16.2306 11.8009C16.2186 11.8169 16.1976 11.8169 16.1816 11.8009C16.1716 11.7849 16.1716 11.7619 16.1856 11.7539L16.4106 11.5469C16.4226 11.5429 16.4316 11.5389 16.4396 11.5429C16.4516 11.5429 16.4606 11.5509 16.4646 11.5629L16.5446 11.7509L16.6346 11.5789C16.6426 11.5709 16.6556 11.5669 16.6676 11.5669C16.6836 11.5669 16.6926 11.5709 16.6966 11.5869L16.8076 11.9459L16.9796 11.7739C16.9896 11.7619 17.0106 11.7619 17.0266 11.7739C17.0366 11.7859 17.0366 11.8129 17.0266 11.8249L16.8156 12.0319C16.8106 12.0349 16.8016 12.0389 16.7936 12.0389Z" fill="#F0C727"></path></g></g></g><g id="Clip path group_73"><mask id="mask72_9372_26944" style="mask-type:luminance" maskUnits="userSpaceOnUse" x="0" y="0" width="35" height="21"><g id="SVGID_00000072252331280634568600000002834902716932786594__65"><path id="Vector_142" d="M34.2205 0.710938H0.656494V20.2889H34.2205V0.710938Z" fill="white"></path></g></mask><g mask="url(#mask72_9372_26944)"><g id="Group_45"><path id="Vector_143" d="M16.8736 12.5039C16.8536 12.5039 16.8406 12.492 16.8366 12.477L16.7726 12.1639L16.6166 12.3629C16.6086 12.3749 16.5985 12.3789 16.5835 12.3749C16.5735 12.3749 16.5626 12.363 16.5586 12.352L16.4765 12.102L16.3335 12.282C16.3275 12.294 16.3196 12.2939 16.3046 12.2979C16.2946 12.2939 16.2835 12.2859 16.2775 12.2749L16.1196 11.89C16.1116 11.874 16.1196 11.855 16.1376 11.847C16.1556 11.835 16.1746 11.8469 16.1806 11.8669L16.3196 12.1949L16.4646 12.007C16.4686 11.999 16.4815 11.9949 16.4935 11.9949C16.5075 11.9989 16.5186 12.0069 16.5226 12.0179L16.6026 12.2679L16.7645 12.0569C16.7765 12.0489 16.7856 12.041 16.8016 12.045C16.8116 12.049 16.8226 12.061 16.8266 12.072L16.9025 12.459C16.9085 12.479 16.8946 12.494 16.8776 12.502C16.8736 12.504 16.8736 12.5039 16.8736 12.5039Z" fill="#F0C727"></path></g></g></g><g id="Clip path group_74"><mask id="mask73_9372_26944" style="mask-type:luminance" maskUnits="userSpaceOnUse" x="0" y="0" width="35" height="21"><g id="SVGID_00000072252331280634568600000002834902716932786594__66"><path id="Vector_144" d="M34.2205 0.710938H0.656494V20.2889H34.2205V0.710938Z" fill="white"></path></g></mask><g mask="url(#mask73_9372_26944)"><g id="Group_46"><path id="Vector_145" d="M16.6625 12.7849C16.6585 12.7849 16.6545 12.7809 16.6545 12.7809C16.6445 12.7809 16.6335 12.7729 16.6335 12.7609L16.5515 12.5229L16.4385 12.7179C16.4345 12.7299 16.4205 12.7379 16.4055 12.7299C16.3955 12.7299 16.3845 12.7259 16.3785 12.7099L16.2735 12.4289L16.1565 12.5929C16.1465 12.6089 16.1255 12.6089 16.1095 12.6009C16.0955 12.5849 16.0915 12.5699 16.1015 12.5499L16.2535 12.3429C16.2615 12.3309 16.2765 12.3269 16.2865 12.3269C16.2985 12.3269 16.3085 12.3389 16.3115 12.3499L16.4165 12.6229L16.5315 12.4239C16.5395 12.4119 16.5515 12.4079 16.5645 12.4079C16.5805 12.4079 16.5895 12.4199 16.5935 12.4279L16.6815 12.6899L16.7965 12.5919C16.8105 12.5799 16.8355 12.5839 16.8475 12.5999C16.8575 12.6159 16.8575 12.6349 16.8435 12.6429L16.6835 12.7759C16.6785 12.7809 16.6705 12.7849 16.6625 12.7849Z" fill="#F0C727"></path></g></g></g><g id="Clip path group_75"><mask id="mask74_9372_26944" style="mask-type:luminance" maskUnits="userSpaceOnUse" x="0" y="0" width="35" height="21"><g id="SVGID_00000072252331280634568600000002834902716932786594__67"><path id="Vector_146" d="M34.2205 0.710938H0.656494V20.2889H34.2205V0.710938Z" fill="white"></path></g></mask><g mask="url(#mask74_9372_26944)"><g id="Group_47"><path id="Vector_147" d="M18.0766 11.3979C18.0646 11.3979 18.0546 11.3939 18.0516 11.3899L17.8196 11.1319C17.8096 11.1159 17.8096 11.1009 17.8236 11.0889C17.8356 11.0729 17.8606 11.0729 17.8706 11.0889L18.0656 11.3039L18.1166 11.1709C18.1246 11.1549 18.1455 11.1439 18.1655 11.1549C18.1795 11.1629 18.1905 11.1779 18.1835 11.1979L18.1076 11.3739C18.1036 11.3899 18.0936 11.3969 18.0826 11.3969C18.0806 11.3979 18.0806 11.3979 18.0766 11.3979Z" fill="#F0C727"></path></g></g></g><g id="Clip path group_76"><mask id="mask75_9372_26944" style="mask-type:luminance" maskUnits="userSpaceOnUse" x="0" y="0" width="35" height="21"><g id="SVGID_00000072252331280634568600000002834902716932786594__68"><path id="Vector_148" d="M34.2205 0.710938H0.656494V20.2889H34.2205V0.710938Z" fill="white"></path></g></mask><g mask="url(#mask75_9372_26944)"><g id="Group_48"><path id="Vector_149" d="M17.7936 11.55C17.7836 11.55 17.7726 11.546 17.7646 11.542L17.5086 11.2059C17.4966 11.1899 17.5006 11.1669 17.5146 11.1589C17.5306 11.1469 17.5516 11.147 17.5616 11.167L17.7686 11.429L17.8346 10.8C17.8346 10.78 17.8526 10.765 17.8696 10.769C17.8896 10.769 17.9026 10.789 17.8986 10.808L17.8306 11.523C17.8266 11.535 17.8146 11.546 17.8056 11.55C17.8016 11.55 17.7976 11.55 17.7936 11.55Z" fill="#F0C727"></path></g></g></g><g id="Clip path group_77"><mask id="mask76_9372_26944" style="mask-type:luminance" maskUnits="userSpaceOnUse" x="0" y="0" width="35" height="21"><g id="SVGID_00000072252331280634568600000002834902716932786594__69"><path id="Vector_150" d="M34.2205 0.710938H0.656494V20.2889H34.2205V0.710938Z" fill="white"></path></g></mask><g mask="url(#mask76_9372_26944)"><g id="Group_49"><path id="Vector_151" d="M17.4864 11.7339C17.4824 11.7339 17.4744 11.7339 17.4704 11.7299C17.4524 11.7219 17.4454 11.7029 17.4524 11.6829L17.6044 11.3039C17.6104 11.2839 17.6294 11.2769 17.6474 11.2839C17.6654 11.2919 17.6724 11.3149 17.6654 11.3229L17.5174 11.7139C17.5104 11.7219 17.5004 11.7339 17.4864 11.7339Z" fill="#F0C727"></path></g></g></g><g id="Clip path group_78"><mask id="mask77_9372_26944" style="mask-type:luminance" maskUnits="userSpaceOnUse" x="0" y="0" width="35" height="21"><g id="SVGID_00000072252331280634568600000002834902716932786594__70"><path id="Vector_152" d="M34.2205 0.710938H0.656494V20.2889H34.2205V0.710938Z" fill="white"></path></g></mask><g mask="url(#mask77_9372_26944)"><g id="Group_50"><path id="Vector_153" d="M17.7135 12.0389C17.7075 12.0389 17.6955 12.0349 17.6915 12.0309L17.4885 11.8239C17.4745 11.8079 17.4745 11.7849 17.4885 11.7729C17.5005 11.7609 17.5215 11.7609 17.5375 11.7729L17.6955 11.9409L17.7835 11.5859C17.7875 11.5739 17.7975 11.5659 17.8105 11.5659C17.8265 11.5619 17.8375 11.5659 17.8435 11.5779L17.9625 11.7579L18.0425 11.5629C18.0465 11.5509 18.0585 11.5429 18.0645 11.5429C18.0805 11.5389 18.0875 11.5429 18.0975 11.5469L18.3265 11.7539C18.3425 11.7619 18.3465 11.7809 18.3305 11.8009C18.3185 11.8169 18.2975 11.8169 18.2835 11.8009L18.0885 11.6289L18.0006 11.8399C17.9966 11.8519 17.9865 11.8629 17.9715 11.8629C17.9615 11.8629 17.9505 11.8589 17.9425 11.8469L17.8355 11.6789L17.7515 12.0149C17.7475 12.0269 17.7415 12.0349 17.7265 12.0379C17.7215 12.0389 17.7215 12.0389 17.7135 12.0389Z" fill="#F0C727"></path></g></g></g><g id="Clip path group_79"><mask id="mask78_9372_26944" style="mask-type:luminance" maskUnits="userSpaceOnUse" x="0" y="0" width="35" height="21"><g id="SVGID_00000072252331280634568600000002834902716932786594__71"><path id="Vector_154" d="M34.2205 0.710938H0.656494V20.2889H34.2205V0.710938Z" fill="white"></path></g></mask><g mask="url(#mask78_9372_26944)"><g id="Group_51"><path id="Vector_155" d="M17.6394 12.504C17.6354 12.504 17.6354 12.504 17.6314 12.504C17.6114 12.496 17.6024 12.481 17.6064 12.461L17.6824 12.074C17.6864 12.062 17.6924 12.051 17.7074 12.047C17.7214 12.043 17.7364 12.051 17.7424 12.063L17.9064 12.27L17.9864 12.02C17.9904 12.008 18.0004 12 18.0134 11.997C18.0254 11.997 18.0404 12.001 18.0464 12.009L18.1894 12.197L18.3224 11.869C18.3304 11.849 18.3514 11.838 18.3694 11.849C18.3894 11.857 18.3964 11.876 18.3894 11.892L18.2334 12.275C18.2294 12.287 18.2174 12.295 18.2084 12.298C18.1944 12.298 18.1834 12.294 18.1754 12.282L18.0344 12.102L17.9504 12.352C17.9464 12.364 17.9364 12.375 17.9254 12.375C17.9134 12.379 17.9004 12.375 17.8944 12.363L17.7384 12.164L17.6724 12.477C17.6664 12.492 17.6524 12.504 17.6394 12.504Z" fill="#F0C727"></path></g></g></g><g id="Clip path group_80"><mask id="mask79_9372_26944" style="mask-type:luminance" maskUnits="userSpaceOnUse" x="0" y="0" width="35" height="21"><g id="SVGID_00000072252331280634568600000002834902716932786594__72"><path id="Vector_156" d="M34.2205 0.710938H0.656494V20.2889H34.2205V0.710938Z" fill="white"></path></g></mask><g mask="url(#mask79_9372_26944)"><g id="Group_52"><path id="Vector_157" d="M17.8445 12.7849C17.8385 12.7849 17.8305 12.7809 17.8225 12.7769L17.6665 12.6439C17.6485 12.6359 17.6485 12.6169 17.6605 12.6009C17.6745 12.5849 17.6955 12.5809 17.7115 12.5929L17.8305 12.6909L17.9125 12.4289C17.9165 12.4209 17.9285 12.4089 17.9415 12.4089C17.9535 12.4089 17.9705 12.4129 17.9745 12.4249L18.0915 12.6239L18.1955 12.3509C18.1995 12.3389 18.2115 12.3279 18.2205 12.3279C18.2325 12.3279 18.2455 12.3319 18.2535 12.3439L18.4055 12.5509C18.4155 12.5709 18.4135 12.5859 18.3975 12.6019C18.3835 12.6099 18.3625 12.6099 18.3505 12.5939L18.2355 12.4299L18.1305 12.7109C18.1265 12.7269 18.1145 12.7309 18.1015 12.7309C18.0875 12.7389 18.0765 12.7309 18.0685 12.7189L17.9575 12.5279L17.8775 12.7619C17.8735 12.7739 17.8615 12.7819 17.8555 12.7819C17.8515 12.7809 17.8475 12.7849 17.8445 12.7849Z" fill="#F0C727"></path></g></g></g><g id="Clip path group_81"><mask id="mask80_9372_26944" style="mask-type:luminance" maskUnits="userSpaceOnUse" x="0" y="0" width="35" height="21"><g id="SVGID_00000072252331280634568600000002834902716932786594__73"><path id="Vector_158" d="M34.2205 0.710938H0.656494V20.2889H34.2205V0.710938Z" fill="white"></path></g></mask><g mask="url(#mask80_9372_26944)"><path id="Vector_159" d="M17.2545 9.19495C17.5105 9.39795 17.8445 9.49995 18.2295 9.47595C18.2005 10.371 17.9465 10.9839 17.2545 11.4449C16.5615 10.9839 16.3075 10.371 16.2815 9.47595C16.6625 9.49995 17.0005 9.39795 17.2545 9.19495Z" fill="white"></path></g></g><g id="Clip path group_82"><mask id="mask81_9372_26944" style="mask-type:luminance" maskUnits="userSpaceOnUse" x="0" y="0" width="35" height="21"><g id="SVGID_00000072252331280634568600000002834902716932786594__74"><path id="Vector_160" d="M34.2205 0.710938H0.656494V20.2889H34.2205V0.710938Z" fill="white"></path></g></mask><g mask="url(#mask81_9372_26944)"><g id="Group_53"><path id="Vector_161" d="M17.2546 11.4719C17.2506 11.4719 17.2426 11.4679 17.2386 11.4679C16.5806 11.0229 16.2856 10.4289 16.2566 9.47589C16.3196 9.45289 16.3506 9.45287 16.3876 9.45587C16.7176 9.45587 17.0106 9.3539 17.2396 9.1709C17.5306 9.3739 17.8526 9.47587 18.2256 9.45187C18.2216 10.4289 17.9286 11.0219 17.2686 11.4679C17.2606 11.4679 17.2566 11.4719 17.2546 11.4719ZM16.2796 9.49988C16.3326 10.4059 16.6196 10.9839 17.2546 11.4179C17.8936 10.9839 18.1786 10.4059 18.2036 9.4769C18.1936 9.5039 18.1566 9.50388 18.1236 9.50388C17.7876 9.50388 17.4826 9.40188 17.2386 9.21088C17.0336 9.40188 16.7286 9.50388 16.3866 9.50388C16.3496 9.50388 16.3146 9.50388 16.2796 9.49988Z" fill="#F0C727"></path></g></g></g><g id="Clip path group_83"><mask id="mask82_9372_26944" style="mask-type:luminance" maskUnits="userSpaceOnUse" x="0" y="0" width="35" height="21"><g id="SVGID_00000072252331280634568600000002834902716932786594__75"><path id="Vector_162" d="M34.2205 0.710938H0.656494V20.2889H34.2205V0.710938Z" fill="white"></path></g></mask><g mask="url(#mask82_9372_26944)"><path id="Vector_163" d="M17.2544 11.3389C17.7934 10.9839 18.0984 10.3699 18.1274 9.5499C17.7934 9.5499 17.4574 9.4759 17.2544 9.2959C17.0224 9.4759 16.7174 9.5499 16.3584 9.5499C16.4084 10.3709 16.7174 10.9839 17.2544 11.3389Z" fill="#F0C727"></path></g></g><g id="Clip path group_84"><mask id="mask83_9372_26944" style="mask-type:luminance" maskUnits="userSpaceOnUse" x="0" y="0" width="35" height="21"><g id="SVGID_00000072252331280634568600000002834902716932786594__76"><path id="Vector_164" d="M34.2205 0.710938H0.656494V20.2889H34.2205V0.710938Z" fill="white"></path></g></mask><g mask="url(#mask83_9372_26944)"><g id="Group_54"><path id="Vector_165" d="M17.2544 11.375C17.2464 11.375 17.2384 11.371 17.2364 11.371C16.6914 11.004 16.3774 10.375 16.3264 9.55498C16.3264 9.54298 16.3304 9.53498 16.3364 9.52798C16.3404 9.51998 16.3484 9.51598 16.3584 9.51598C16.7354 9.51598 17.0224 9.43398 17.2334 9.26998C17.2474 9.26198 17.2604 9.26198 17.2764 9.27398C17.4544 9.42598 17.7604 9.51598 18.1284 9.51598C18.1364 9.51598 18.1464 9.51998 18.1494 9.52798C18.1574 9.53598 18.1614 9.54398 18.1614 9.55498C18.1324 10.371 17.8234 11.004 17.2724 11.371C17.2674 11.371 17.2604 11.375 17.2544 11.375ZM16.3914 9.57796C16.4504 10.359 16.7464 10.953 17.2544 11.308C17.7684 10.953 18.0634 10.359 18.0924 9.57796C17.8694 9.57396 17.5004 9.53896 17.2544 9.33996C17.0354 9.49596 16.7564 9.57396 16.3914 9.57796Z" fill="#F0C727"></path></g></g></g><g id="Clip path group_85"><mask id="mask84_9372_26944" style="mask-type:luminance" maskUnits="userSpaceOnUse" x="0" y="0" width="35" height="21"><g id="SVGID_00000072252331280634568600000002834902716932786594__77"><path id="Vector_166" d="M34.2205 0.710938H0.656494V20.2889H34.2205V0.710938Z" fill="white"></path></g></mask><g mask="url(#mask84_9372_26944)"><path id="Vector_167" d="M16.3835 12.6249C16.5905 12.6479 16.8185 12.6719 17.0005 12.6479C17.1025 12.6479 17.1745 12.8239 16.9755 12.8549C16.7935 12.8749 16.5105 12.8549 16.3585 12.8239C16.2295 12.8009 15.9485 12.7499 15.7685 12.6989C15.5905 12.6249 15.7175 12.4689 15.8195 12.4919C15.9765 12.5429 16.1795 12.5929 16.3835 12.6249Z" fill="white"></path></g></g><g id="Clip path group_86"><mask id="mask85_9372_26944" style="mask-type:luminance" maskUnits="userSpaceOnUse" x="0" y="0" width="35" height="21"><g id="SVGID_00000072252331280634568600000002834902716932786594__78"><path id="Vector_168" d="M34.2205 0.710938H0.656494V20.2889H34.2205V0.710938Z" fill="white"></path></g></mask><g mask="url(#mask85_9372_26944)"><g id="Group_55"><path id="Vector_169" d="M16.7976 12.8939C16.6336 12.8939 16.4556 12.8779 16.3546 12.8589C16.2296 12.8359 15.9426 12.7809 15.7606 12.7299C15.6376 12.6789 15.6416 12.6049 15.6476 12.5739C15.6636 12.5079 15.7276 12.4529 15.7956 12.4529C15.9346 12.4919 16.1416 12.5549 16.3876 12.5859C16.5476 12.6089 16.8076 12.6369 16.9966 12.6169C17.0686 12.6169 17.1316 12.6759 17.1356 12.7419C17.1376 12.8009 17.0986 12.8669 16.9796 12.8829C16.9246 12.8899 16.8616 12.8939 16.7976 12.8939ZM15.8076 12.5269C15.7606 12.5269 15.7216 12.5539 15.7136 12.5859C15.7016 12.6289 15.7526 12.6519 15.7816 12.6679C15.9596 12.7189 16.2426 12.7699 16.3656 12.7889C16.5026 12.8199 16.7856 12.8399 16.9676 12.8199C17.0336 12.8119 17.0696 12.7809 17.0656 12.7459C17.0656 12.7189 17.0366 12.6799 17.0016 12.6799C16.8196 12.7069 16.5446 12.6799 16.3786 12.6529C16.1276 12.6249 15.9126 12.5579 15.8076 12.5269Z" fill="#F0C727"></path></g></g></g><g id="Clip path group_87"><mask id="mask86_9372_26944" style="mask-type:luminance" maskUnits="userSpaceOnUse" x="0" y="0" width="35" height="21"><g id="SVGID_00000072252331280634568600000002834902716932786594__79"><path id="Vector_170" d="M34.2205 0.710938H0.656494V20.2889H34.2205V0.710938Z" fill="white"></path></g></mask><g mask="url(#mask86_9372_26944)"><path id="Vector_171" d="M18.1275 12.6249C17.9165 12.6479 17.6895 12.6719 17.5105 12.6479C17.4075 12.6479 17.3345 12.8239 17.5335 12.8549C17.7135 12.8749 17.9965 12.8549 18.1485 12.8239C18.2795 12.8009 18.5585 12.7499 18.7405 12.6989C18.9205 12.6249 18.7915 12.4689 18.6895 12.4919C18.5335 12.5429 18.3305 12.5929 18.1275 12.6249Z" fill="white"></path></g></g><g id="Clip path group_88"><mask id="mask87_9372_26944" style="mask-type:luminance" maskUnits="userSpaceOnUse" x="0" y="0" width="35" height="21"><g id="SVGID_00000072252331280634568600000002834902716932786594__80"><path id="Vector_172" d="M34.2205 0.710938H0.656494V20.2889H34.2205V0.710938Z" fill="white"></path></g></mask><g mask="url(#mask87_9372_26944)"><g id="Group_56"><path id="Vector_173" d="M17.7116 12.894C17.6456 12.894 17.5846 12.89 17.5336 12.882C17.4086 12.866 17.3696 12.8 17.3736 12.741C17.3776 12.675 17.4416 12.616 17.5106 12.616C17.7116 12.636 17.9616 12.608 18.1196 12.585C18.3636 12.554 18.5726 12.491 18.6786 12.46C18.7766 12.444 18.8506 12.507 18.8606 12.573C18.8686 12.604 18.8706 12.678 18.7556 12.729C18.5676 12.78 18.2806 12.834 18.1576 12.858C18.0516 12.879 17.8736 12.894 17.7116 12.894ZM17.5086 12.679C17.4756 12.679 17.4426 12.718 17.4386 12.745C17.4386 12.78 17.4756 12.811 17.5406 12.819C17.7226 12.839 18.0056 12.819 18.1456 12.788C18.2666 12.768 18.5516 12.718 18.7336 12.667C18.7546 12.651 18.8016 12.628 18.7966 12.585C18.7886 12.554 18.7496 12.526 18.7126 12.526C18.5976 12.557 18.3786 12.624 18.1326 12.651C17.9536 12.679 17.6956 12.707 17.5086 12.679Z" fill="#F0C727"></path></g></g></g><g id="Clip path group_89"><mask id="mask88_9372_26944" style="mask-type:luminance" maskUnits="userSpaceOnUse" x="0" y="0" width="35" height="21"><g id="SVGID_00000072252331280634568600000002834902716932786594__81"><path id="Vector_174" d="M34.2205 0.710938H0.656494V20.2889H34.2205V0.710938Z" fill="white"></path></g></mask><g mask="url(#mask88_9372_26944)"><path id="Vector_175" d="M15.7446 12.523C15.5906 12.492 15.5146 12.671 15.5646 12.777C15.5896 12.722 15.6956 12.722 15.7166 12.672C15.7446 12.593 15.6956 12.593 15.7446 12.523Z" fill="white"></path></g></g><g id="Clip path group_90"><mask id="mask89_9372_26944" style="mask-type:luminance" maskUnits="userSpaceOnUse" x="0" y="0" width="35" height="21"><g id="SVGID_00000072252331280634568600000002834902716932786594__82"><path id="Vector_176" d="M34.2205 0.710938H0.656494V20.2889H34.2205V0.710938Z" fill="white"></path></g></mask><g mask="url(#mask89_9372_26944)"><g id="Group_57"><path id="Vector_177" d="M15.5645 12.808C15.5525 12.808 15.5425 12.8 15.5355 12.788C15.5025 12.729 15.5105 12.64 15.5495 12.577C15.5865 12.518 15.6475 12.479 15.7135 12.479C15.7255 12.483 15.7525 12.491 15.7565 12.506C15.7645 12.514 15.7785 12.529 15.7765 12.537C15.7535 12.568 15.7565 12.576 15.7565 12.592C15.7605 12.615 15.7645 12.635 15.7485 12.678C15.7305 12.725 15.6875 12.737 15.6545 12.752C15.6295 12.764 15.5995 12.775 15.5955 12.787C15.5905 12.8 15.5825 12.812 15.5645 12.808ZM15.6875 12.558C15.6405 12.57 15.6195 12.593 15.6075 12.617C15.5895 12.64 15.5825 12.68 15.5825 12.711C15.5965 12.703 15.6155 12.695 15.6295 12.691C15.6545 12.679 15.6805 12.671 15.6845 12.656C15.6965 12.633 15.6925 12.625 15.6885 12.609C15.6875 12.589 15.6845 12.578 15.6875 12.558Z" fill="#F0C727"></path></g></g></g><g id="Clip path group_91"><mask id="mask90_9372_26944" style="mask-type:luminance" maskUnits="userSpaceOnUse" x="0" y="0" width="35" height="21"><g id="SVGID_00000072252331280634568600000002834902716932786594__83"><path id="Vector_178" d="M34.2205 0.710938H0.656494V20.2889H34.2205V0.710938Z" fill="white"></path></g></mask><g mask="url(#mask90_9372_26944)"><path id="Vector_179" d="M16.3576 12.9919C16.3576 12.8869 16.4596 12.9019 16.4596 12.8009C16.4596 12.7499 16.4346 12.6719 16.3836 12.6719C16.3306 12.6719 16.2816 12.7229 16.2816 12.7769C16.2566 12.8749 16.3576 12.8859 16.3576 12.9919Z" fill="white"></path></g></g><g id="Clip path group_92"><mask id="mask91_9372_26944" style="mask-type:luminance" maskUnits="userSpaceOnUse" x="0" y="0" width="35" height="21"><g id="SVGID_00000072252331280634568600000002834902716932786594__84"><path id="Vector_180" d="M34.2205 0.710938H0.656494V20.2889H34.2205V0.710938Z" fill="white"></path></g></mask><g mask="url(#mask91_9372_26944)"><g id="Group_58"><path id="Vector_181" d="M16.3575 13.027C16.3395 13.027 16.3265 13.011 16.3265 12.992C16.3265 12.957 16.3066 12.933 16.2896 12.91C16.2646 12.875 16.2306 12.836 16.2466 12.765C16.2466 12.702 16.3105 12.636 16.3835 12.636C16.4595 12.636 16.4966 12.734 16.4966 12.8C16.4966 12.866 16.4595 12.898 16.4335 12.921C16.4085 12.941 16.3945 12.956 16.3945 12.991C16.3945 13.011 16.3775 13.027 16.3575 13.027ZM16.3835 12.707C16.3485 12.707 16.3156 12.742 16.3156 12.777C16.3076 12.824 16.3236 12.84 16.3406 12.867C16.3486 12.875 16.3545 12.883 16.3615 12.894C16.3695 12.882 16.3815 12.878 16.3865 12.871C16.4115 12.851 16.4276 12.84 16.4276 12.801C16.4286 12.757 16.4005 12.707 16.3835 12.707Z" fill="#F0C727"></path></g></g></g><g id="Clip path group_93"><mask id="mask92_9372_26944" style="mask-type:luminance" maskUnits="userSpaceOnUse" x="0" y="0" width="35" height="21"><g id="SVGID_00000072252331280634568600000002834902716932786594__85"><path id="Vector_182" d="M34.2205 0.710938H0.656494V20.2889H34.2205V0.710938Z" fill="white"></path></g></mask><g mask="url(#mask92_9372_26944)"><path id="Vector_183" d="M17.0905 12.699C17.2385 12.699 17.2254 12.902 17.1534 13.004C17.1534 12.934 17.0225 12.902 17.0225 12.856C17.0215 12.777 17.1375 12.777 17.0905 12.699Z" fill="white"></path></g></g><g id="Clip path group_94"><mask id="mask93_9372_26944" style="mask-type:luminance" maskUnits="userSpaceOnUse" x="0" y="0" width="35" height="21"><g id="SVGID_00000072252331280634568600000002834902716932786594__86"><path id="Vector_184" d="M34.2205 0.710938H0.656494V20.2889H34.2205V0.710938Z" fill="white"></path></g></mask><g mask="url(#mask93_9372_26944)"><g id="Group_59"><path id="Vector_185" d="M17.1525 13.039C17.1485 13.039 17.1445 13.039 17.1405 13.035C17.1265 13.035 17.1185 13.019 17.1185 13.004C17.1185 12.984 17.0855 12.965 17.0555 12.941C17.0245 12.918 16.9875 12.89 16.9875 12.855C16.9875 12.8 17.0205 12.773 17.0465 12.753C17.0385 12.741 17.0465 12.71 17.0505 12.698C17.0565 12.686 17.0755 12.663 17.0895 12.663C17.1485 12.663 17.1946 12.69 17.2206 12.741C17.2596 12.827 17.2325 12.948 17.1815 13.026C17.1745 13.035 17.1625 13.039 17.1525 13.039ZM17.1355 12.742C17.1315 12.777 17.1065 12.793 17.0905 12.808C17.0685 12.824 17.0575 12.835 17.0575 12.855C17.0615 12.859 17.0845 12.875 17.0985 12.882C17.1165 12.894 17.1375 12.909 17.1575 12.929C17.1755 12.874 17.1785 12.812 17.1595 12.773C17.1565 12.761 17.1445 12.75 17.1355 12.742Z" fill="#F0C727"></path></g></g></g><g id="Clip path group_95"><mask id="mask94_9372_26944" style="mask-type:luminance" maskUnits="userSpaceOnUse" x="0" y="0" width="35" height="21"><g id="SVGID_00000072252331280634568600000002834902716932786594__87"><path id="Vector_186" d="M34.2205 0.710938H0.656494V20.2889H34.2205V0.710938Z" fill="white"></path></g></mask><g mask="url(#mask94_9372_26944)"><path id="Vector_187" d="M18.7625 12.523C18.9205 12.492 18.9945 12.671 18.9445 12.777C18.9215 12.722 18.8134 12.722 18.7924 12.672C18.7624 12.593 18.8125 12.593 18.7625 12.523Z" fill="white"></path></g></g><g id="Clip path group_96"><mask id="mask95_9372_26944" style="mask-type:luminance" maskUnits="userSpaceOnUse" x="0" y="0" width="35" height="21"><g id="SVGID_00000072252331280634568600000002834902716932786594__88"><path id="Vector_188" d="M34.2205 0.710938H0.656494V20.2889H34.2205V0.710938Z" fill="white"></path></g></mask><g mask="url(#mask95_9372_26944)"><g id="Group_60"><path id="Vector_189" d="M18.9436 12.8079C18.9276 12.8079 18.9186 12.7999 18.9106 12.7879C18.9066 12.7759 18.8776 12.7649 18.8516 12.7529C18.8186 12.7369 18.7756 12.7259 18.7576 12.6829C18.7436 12.6359 18.7476 12.6169 18.7496 12.5929C18.7536 12.5769 18.7536 12.5699 18.7356 12.5379C18.7276 12.5299 18.7276 12.5179 18.7316 12.5069C18.7356 12.4949 18.7436 12.4869 18.7526 12.4839C18.8656 12.4799 18.9186 12.5189 18.9556 12.5779C18.9966 12.6409 19.0026 12.7299 18.9696 12.7889C18.9696 12.7999 18.9576 12.8079 18.9436 12.8079ZM18.8186 12.5539C18.8226 12.5739 18.8186 12.5889 18.8186 12.6089C18.8166 12.6249 18.8126 12.6319 18.8226 12.6599C18.8266 12.6719 18.8556 12.6799 18.8816 12.6909C18.8976 12.6949 18.9106 12.7029 18.9246 12.7109C18.9286 12.6799 18.9186 12.6409 18.9016 12.6169C18.8896 12.5929 18.8596 12.5619 18.8186 12.5539Z" fill="#F0C727"></path></g></g></g><g id="Clip path group_97"><mask id="mask96_9372_26944" style="mask-type:luminance" maskUnits="userSpaceOnUse" x="0" y="0" width="35" height="21"><g id="SVGID_00000072252331280634568600000002834902716932786594__89"><path id="Vector_190" d="M34.2205 0.710938H0.656494V20.2889H34.2205V0.710938Z" fill="white"></path></g></mask><g mask="url(#mask96_9372_26944)"><path id="Vector_191" d="M18.1484 12.9919C18.1484 12.8869 18.0464 12.9019 18.0464 12.8009C18.0464 12.7499 18.0754 12.6719 18.1264 12.6719C18.1774 12.6719 18.2284 12.7229 18.2284 12.7769C18.2504 12.8749 18.1484 12.8859 18.1484 12.9919Z" fill="white"></path></g></g><g id="Clip path group_98"><mask id="mask97_9372_26944" style="mask-type:luminance" maskUnits="userSpaceOnUse" x="0" y="0" width="35" height="21"><g id="SVGID_00000072252331280634568600000002834902716932786594__90"><path id="Vector_192" d="M34.2205 0.710938H0.656494V20.2889H34.2205V0.710938Z" fill="white"></path></g></mask><g mask="url(#mask97_9372_26944)"><g id="Group_61"><path id="Vector_193" d="M18.1484 13.0269C18.1304 13.0269 18.1154 13.0109 18.1154 12.9919C18.1154 12.9569 18.0974 12.9409 18.0764 12.9219C18.0514 12.8989 18.0134 12.8669 18.0134 12.8009C18.0134 12.7349 18.0504 12.637 18.1264 12.637C18.1944 12.637 18.2654 12.703 18.2654 12.778C18.2754 12.837 18.2454 12.8759 18.2164 12.9109C18.1984 12.9339 18.1854 12.958 18.1854 12.993C18.1854 13.011 18.1664 13.0269 18.1484 13.0269ZM18.1274 12.7069C18.1054 12.7069 18.0804 12.7579 18.0804 12.8009C18.0804 12.8399 18.0984 12.8519 18.1194 12.8709C18.1274 12.8789 18.1394 12.883 18.1444 12.894C18.1524 12.882 18.1604 12.8739 18.1664 12.8669C18.1894 12.8399 18.2034 12.8239 18.1934 12.7809C18.1934 12.7419 18.1564 12.7069 18.1274 12.7069Z" fill="#F0C727"></path></g></g></g><g id="Clip path group_99"><mask id="mask98_9372_26944" style="mask-type:luminance" maskUnits="userSpaceOnUse" x="0" y="0" width="35" height="21"><g id="SVGID_00000072252331280634568600000002834902716932786594__91"><path id="Vector_194" d="M34.2205 0.710938H0.656494V20.2889H34.2205V0.710938Z" fill="white"></path></g></mask><g mask="url(#mask98_9372_26944)"><path id="Vector_195" d="M17.4205 12.699C17.2685 12.699 17.2835 12.902 17.3555 13.004C17.3555 12.934 17.4866 12.902 17.4866 12.856C17.4866 12.777 17.3695 12.777 17.4205 12.699Z" fill="white"></path></g></g><g id="Clip path group_100"><mask id="mask99_9372_26944" style="mask-type:luminance" maskUnits="userSpaceOnUse" x="0" y="0" width="35" height="21"><g id="SVGID_00000072252331280634568600000002834902716932786594__92"><path id="Vector_196" d="M34.2205 0.710938H0.656494V20.2889H34.2205V0.710938Z" fill="white"></path></g></mask><g mask="url(#mask99_9372_26944)"><g id="Group_62"><path id="Vector_197" d="M17.3556 13.0389C17.3436 13.0389 17.3346 13.0349 17.3266 13.0269C17.2756 12.9489 17.2426 12.8279 17.2876 12.7419C17.3106 12.6909 17.3576 12.6639 17.4206 12.6639C17.4326 12.6639 17.4416 12.672 17.4496 12.68C17.4536 12.696 17.4536 12.7069 17.4456 12.7189C17.4866 12.7739 17.5176 12.801 17.5176 12.856C17.5176 12.891 17.4826 12.919 17.4496 12.942C17.4206 12.965 17.3906 12.9849 17.3906 13.0049C17.3906 13.0209 17.3806 13.0359 17.3656 13.0359C17.3616 13.0389 17.3576 13.0389 17.3556 13.0389ZM17.3736 12.7419C17.3616 12.7499 17.3556 12.7619 17.3486 12.7729C17.3276 12.8119 17.3346 12.875 17.3566 12.929C17.3706 12.909 17.3916 12.894 17.4096 12.882C17.4256 12.874 17.4466 12.8589 17.4506 12.8549C17.4506 12.8349 17.4386 12.824 17.4176 12.808C17.4026 12.793 17.3776 12.7769 17.3736 12.7419Z" fill="#F0C727"></path></g></g></g><g id="Clip path group_101"><mask id="mask100_9372_26944" style="mask-type:luminance" maskUnits="userSpaceOnUse" x="0" y="0" width="35" height="21"><g id="SVGID_00000072252331280634568600000002834902716932786594__93"><path id="Vector_198" d="M34.2205 0.710938H0.656494V20.2889H34.2205V0.710938Z" fill="white"></path></g></mask><g mask="url(#mask100_9372_26944)"><path id="Vector_199" d="M15.7954 12.574C15.8464 12.574 15.9244 12.594 15.9474 12.625L15.7954 12.574Z" fill="white"></path></g></g><g id="Clip path group_102"><mask id="mask101_9372_26944" style="mask-type:luminance" maskUnits="userSpaceOnUse" x="0" y="0" width="35" height="21"><g id="SVGID_00000072252331280634568600000002834902716932786594__94"><path id="Vector_200" d="M34.2205 0.710938H0.656494V20.2889H34.2205V0.710938Z" fill="white"></path></g></mask><g mask="url(#mask101_9372_26944)"><g id="Group_63"><path id="Vector_201" d="M15.9476 12.6439C15.9456 12.6439 15.9416 12.6439 15.9416 12.6399L15.7897 12.5929C15.7777 12.5889 15.7716 12.5769 15.7756 12.5699C15.7756 12.5539 15.7856 12.5469 15.7956 12.5469C15.8466 12.5469 15.9346 12.5699 15.9676 12.6099C15.9756 12.6179 15.9756 12.6299 15.9676 12.6369C15.9636 12.6399 15.9556 12.6439 15.9476 12.6439Z" fill="#F0C727"></path></g></g></g><g id="Clip path group_103"><mask id="mask102_9372_26944" style="mask-type:luminance" maskUnits="userSpaceOnUse" x="0" y="0" width="35" height="21"><g id="SVGID_00000072252331280634568600000002834902716932786594__95"><path id="Vector_202" d="M34.2205 0.710938H0.656494V20.2889H34.2205V0.710938Z" fill="white"></path></g></mask><g mask="url(#mask102_9372_26944)"><path id="Vector_203" d="M16.0496 12.6479C16.0786 12.6479 16.1806 12.6709 16.2296 12.6989L16.0496 12.6479Z" fill="white"></path></g></g><g id="Clip path group_104"><mask id="mask103_9372_26944" style="mask-type:luminance" maskUnits="userSpaceOnUse" x="0" y="0" width="35" height="21"><g id="SVGID_00000072252331280634568600000002834902716932786594__96"><path id="Vector_204" d="M34.2205 0.710938H0.656494V20.2889H34.2205V0.710938Z" fill="white"></path></g></mask><g mask="url(#mask103_9372_26944)"><g id="Group_64"><path id="Vector_205" d="M16.2284 12.7259C16.2284 12.7259 16.2244 12.7259 16.2244 12.7219L16.0424 12.6709C16.0304 12.6669 16.0254 12.6549 16.0254 12.6439C16.0314 12.6049 16.1704 12.6359 16.2424 12.6789C16.2524 12.6829 16.2564 12.6949 16.2524 12.7059C16.2464 12.7179 16.2384 12.7259 16.2284 12.7259Z" fill="#F0C727"></path></g></g></g><g id="Clip path group_105"><mask id="mask104_9372_26944" style="mask-type:luminance" maskUnits="userSpaceOnUse" x="0" y="0" width="35" height="21"><g id="SVGID_00000072252331280634568600000002834902716932786594__97"><path id="Vector_206" d="M34.2205 0.710938H0.656494V20.2889H34.2205V0.710938Z" fill="white"></path></g></mask><g mask="url(#mask104_9372_26944)"><path id="Vector_207" d="M16.9745 12.75C16.9195 12.75 16.8185 12.75 16.7925 12.777L16.9745 12.75Z" fill="white"></path></g></g><g id="Clip path group_106"><mask id="mask105_9372_26944" style="mask-type:luminance" maskUnits="userSpaceOnUse" x="0" y="0" width="35" height="21"><g id="SVGID_00000072252331280634568600000002834902716932786594__98"><path id="Vector_208" d="M34.2205 0.710938H0.656494V20.2889H34.2205V0.710938Z" fill="white"></path></g></mask><g mask="url(#mask105_9372_26944)"><g id="Group_65"><path id="Vector_209" d="M16.7934 12.7969C16.7834 12.7969 16.7764 12.7889 16.7684 12.7809C16.7644 12.7769 16.7684 12.7649 16.7764 12.7579C16.8034 12.7309 16.8744 12.731 16.9754 12.731C16.9854 12.731 16.9974 12.7349 16.9974 12.7469C16.9974 12.7629 16.9854 12.774 16.9794 12.778L16.7974 12.7979H16.7934V12.7969Z" fill="#F0C727"></path></g></g></g><g id="Clip path group_107"><mask id="mask106_9372_26944" style="mask-type:luminance" maskUnits="userSpaceOnUse" x="0" y="0" width="35" height="21"><g id="SVGID_00000072252331280634568600000002834902716932786594__99"><path id="Vector_210" d="M34.2205 0.710938H0.656494V20.2889H34.2205V0.710938Z" fill="white"></path></g></mask><g mask="url(#mask106_9372_26944)"><path id="Vector_211" d="M16.6915 12.75C16.6625 12.723 16.5605 12.723 16.5095 12.75H16.6915Z" fill="white"></path></g></g><g id="Clip path group_108"><mask id="mask107_9372_26944" style="mask-type:luminance" maskUnits="userSpaceOnUse" x="0" y="0" width="35" height="21"><g id="SVGID_00000072252331280634568600000002834902716932786594__100"><path id="Vector_212" d="M34.2205 0.710938H0.656494V20.2889H34.2205V0.710938Z" fill="white"></path></g></mask><g mask="url(#mask107_9372_26944)"><g id="Group_66"><path id="Vector_213" d="M16.6916 12.777H16.5096C16.4996 12.777 16.4916 12.769 16.4886 12.757C16.4846 12.745 16.4886 12.734 16.5006 12.73C16.5476 12.707 16.6486 12.671 16.7096 12.73C16.7136 12.738 16.7176 12.75 16.7136 12.761C16.7096 12.769 16.6996 12.777 16.6916 12.777Z" fill="#F0C727"></path></g></g></g><g id="Clip path group_109"><mask id="mask108_9372_26944" style="mask-type:luminance" maskUnits="userSpaceOnUse" x="0" y="0" width="35" height="21"><g id="SVGID_00000072252331280634568600000002834902716932786594__101"><path id="Vector_214" d="M34.2205 0.710938H0.656494V20.2889H34.2205V0.710938Z" fill="white"></path></g></mask><g mask="url(#mask108_9372_26944)"><path id="Vector_215" d="M18.7116 12.574C18.6606 12.574 18.5886 12.594 18.5596 12.625L18.7116 12.574Z" fill="white"></path></g></g><g id="Clip path group_110"><mask id="mask109_9372_26944" style="mask-type:luminance" maskUnits="userSpaceOnUse" x="0" y="0" width="35" height="21"><g id="SVGID_00000072252331280634568600000002834902716932786594__102"><path id="Vector_216" d="M34.2205 0.710938H0.656494V20.2889H34.2205V0.710938Z" fill="white"></path></g></mask><g mask="url(#mask109_9372_26944)"><g id="Group_67"><path id="Vector_217" d="M18.5595 12.6439C18.5515 12.6439 18.5455 12.6359 18.5415 12.6319C18.5335 12.6279 18.5335 12.6119 18.5455 12.6049C18.5765 12.5739 18.6605 12.5459 18.7115 12.5459C18.7255 12.5459 18.7365 12.5539 18.7365 12.5689C18.7365 12.5769 18.7325 12.5889 18.7205 12.5919L18.5665 12.6389C18.5665 12.6439 18.5625 12.6439 18.5595 12.6439Z" fill="#F0C727"></path></g></g></g><g id="Clip path group_111"><mask id="mask110_9372_26944" style="mask-type:luminance" maskUnits="userSpaceOnUse" x="0" y="0" width="35" height="21"><g id="SVGID_00000072252331280634568600000002834902716932786594__103"><path id="Vector_218" d="M34.2205 0.710938H0.656494V20.2889H34.2205V0.710938Z" fill="white"></path></g></mask><g mask="url(#mask110_9372_26944)"><path id="Vector_219" d="M18.4576 12.6479C18.4286 12.6479 18.3305 12.6709 18.2795 12.6989L18.4576 12.6479Z" fill="white"></path></g></g><g id="Clip path group_112"><mask id="mask111_9372_26944" style="mask-type:luminance" maskUnits="userSpaceOnUse" x="0" y="0" width="35" height="21"><g id="SVGID_00000072252331280634568600000002834902716932786594__104"><path id="Vector_220" d="M34.2205 0.710938H0.656494V20.2889H34.2205V0.710938Z" fill="white"></path></g></mask><g mask="url(#mask111_9372_26944)"><g id="Group_68"><path id="Vector_221" d="M18.2796 12.7259C18.2676 12.7259 18.2616 12.7179 18.2586 12.7059C18.2506 12.6939 18.2586 12.6789 18.2686 12.6789C18.3466 12.6359 18.4756 12.6049 18.4836 12.6439C18.4876 12.6559 18.4796 12.6669 18.4656 12.6709L18.2876 12.7219C18.2836 12.7259 18.2836 12.7259 18.2796 12.7259Z" fill="#F0C727"></path></g></g></g><g id="Clip path group_113"><mask id="mask112_9372_26944" style="mask-type:luminance" maskUnits="userSpaceOnUse" x="0" y="0" width="35" height="21"><g id="SVGID_00000072252331280634568600000002834902716932786594__105"><path id="Vector_222" d="M34.2205 0.710938H0.656494V20.2889H34.2205V0.710938Z" fill="white"></path></g></mask><g mask="url(#mask112_9372_26944)"><path id="Vector_223" d="M17.5334 12.75C17.5884 12.75 17.6894 12.75 17.7134 12.777L17.5334 12.75Z" fill="white"></path></g></g><g id="Clip path group_114"><mask id="mask113_9372_26944" style="mask-type:luminance" maskUnits="userSpaceOnUse" x="0" y="0" width="35" height="21"><g id="SVGID_00000072252331280634568600000002834902716932786594__106"><path id="Vector_224" d="M34.2205 0.710938H0.656494V20.2889H34.2205V0.710938Z" fill="white"></path></g></mask><g mask="url(#mask113_9372_26944)"><g id="Group_69"><path id="Vector_225" d="M17.7135 12.797L17.5335 12.777C17.5175 12.773 17.5105 12.761 17.5105 12.746C17.5105 12.734 17.5225 12.73 17.5335 12.73C17.6385 12.73 17.7035 12.73 17.7325 12.757C17.7405 12.765 17.7425 12.777 17.7405 12.78C17.7365 12.789 17.7245 12.797 17.7135 12.797Z" fill="#F0C727"></path></g></g></g><g id="Clip path group_115"><mask id="mask114_9372_26944" style="mask-type:luminance" maskUnits="userSpaceOnUse" x="0" y="0" width="35" height="21"><g id="SVGID_00000072252331280634568600000002834902716932786594__107"><path id="Vector_226" d="M34.2205 0.710938H0.656494V20.2889H34.2205V0.710938Z" fill="white"></path></g></mask><g mask="url(#mask114_9372_26944)"><path id="Vector_227" d="M17.8145 12.75C17.8435 12.723 17.9455 12.723 17.9965 12.75H17.8145Z" fill="white"></path></g></g><g id="Clip path group_116"><mask id="mask115_9372_26944" style="mask-type:luminance" maskUnits="userSpaceOnUse" x="0" y="0" width="35" height="21"><g id="SVGID_00000072252331280634568600000002834902716932786594__108"><path id="Vector_228" d="M34.2205 0.710938H0.656494V20.2889H34.2205V0.710938Z" fill="white"></path></g></mask><g mask="url(#mask115_9372_26944)"><g id="Group_70"><path id="Vector_229" d="M17.9965 12.777H17.8145C17.8085 12.777 17.7965 12.769 17.7925 12.761C17.7905 12.749 17.7925 12.738 17.8005 12.73C17.8615 12.671 17.9625 12.707 18.0075 12.73C18.0175 12.734 18.0215 12.746 18.0175 12.757C18.0175 12.769 18.0085 12.777 17.9965 12.777Z" fill="#F0C727"></path></g></g></g><g id="Clip path group_117"><mask id="mask116_9372_26944" style="mask-type:luminance" maskUnits="userSpaceOnUse" x="0" y="0" width="35" height="21"><g id="SVGID_00000072252331280634568600000002834902716932786594__109"><path id="Vector_230" d="M34.2205 0.710938H0.656494V20.2889H34.2205V0.710938Z" fill="white"></path></g></mask><g mask="url(#mask116_9372_26944)"><path id="Vector_231" d="M17.6116 7.70688C17.5606 7.58188 17.4706 7.47688 17.3436 7.44888C17.2826 7.43688 17.2166 7.43689 17.1406 7.43689C17.0646 7.41689 16.9996 7.4999 16.9746 7.5499C17.0506 7.6049 17.0686 7.65889 17.1076 7.67889C17.1876 7.70589 17.2246 7.67889 17.3046 7.60489C17.3856 7.53089 17.5606 7.54988 17.6116 7.70688Z" fill="#F0C727"></path></g></g><g id="Clip path group_118"><mask id="mask117_9372_26944" style="mask-type:luminance" maskUnits="userSpaceOnUse" x="0" y="0" width="35" height="21"><g id="SVGID_00000072252331280634568600000002834902716932786594__110"><path id="Vector_232" d="M34.2205 0.710938H0.656494V20.2889H34.2205V0.710938Z" fill="white"></path></g></mask><g mask="url(#mask117_9372_26944)"><g id="Group_71"><path id="Vector_233" d="M17.1624 7.70697C17.1444 7.70697 17.1234 7.70298 17.1014 7.69098C17.0804 7.68698 17.0644 7.66398 17.0464 7.63998C17.0254 7.61698 17.0034 7.59298 16.9624 7.56198C16.9744 7.51498 17.0324 7.41699 17.1144 7.41699L17.1844 7.42099C17.2624 7.41699 17.3054 7.42498 17.3504 7.43698C17.4554 7.45698 17.5454 7.53898 17.6084 7.65598C17.5064 7.58998 17.3794 7.55097 17.3134 7.61697C17.2564 7.67197 17.2174 7.70697 17.1624 7.70697ZM17.1354 7.45297C17.0614 7.45297 17.0144 7.50798 16.9854 7.55798C17.0264 7.56998 17.0514 7.59697 17.0694 7.62097C17.0874 7.64097 17.0984 7.65597 17.1164 7.66397C17.1824 7.68697 17.2104 7.67196 17.2944 7.59396C17.3534 7.53896 17.4644 7.53497 17.5384 7.58597C17.4794 7.52297 17.4174 7.48396 17.3454 7.46896C17.3024 7.45696 17.2614 7.45297 17.2224 7.45297H17.1424C17.1374 7.45297 17.1374 7.45297 17.1354 7.45297Z" fill="#F0C727"></path></g></g></g><g id="Clip path group_119"><mask id="mask118_9372_26944" style="mask-type:luminance" maskUnits="userSpaceOnUse" x="0" y="0" width="35" height="21"><g id="SVGID_00000072252331280634568600000002834902716932786594__111"><path id="Vector_234" d="M34.2205 0.710938H0.656494V20.2889H34.2205V0.710938Z" fill="white"></path></g></mask><g mask="url(#mask118_9372_26944)"><path id="Vector_235" d="M17.1236 7.51099C17.0766 7.51099 17.0766 7.58899 17.1236 7.58899C17.1746 7.58899 17.1746 7.51099 17.1236 7.51099Z" fill="white"></path></g></g><g id="Clip path group_120"><mask id="mask119_9372_26944" style="mask-type:luminance" maskUnits="userSpaceOnUse" x="0" y="0" width="35" height="21"><g id="SVGID_00000072252331280634568600000002834902716932786594__112"><path id="Vector_236" d="M34.2205 0.710938H0.656494V20.2889H34.2205V0.710938Z" fill="white"></path></g></mask><g mask="url(#mask119_9372_26944)"><g id="Group_72"><path id="Vector_237" d="M17.1235 7.62098C17.0845 7.62098 17.0515 7.58997 17.0515 7.54697C17.0515 7.46497 17.1995 7.46497 17.1995 7.54697C17.1995 7.58897 17.1665 7.62098 17.1235 7.62098Z" fill="white"></path></g></g></g><g id="Clip path group_121"><mask id="mask120_9372_26944" style="mask-type:luminance" maskUnits="userSpaceOnUse" x="0" y="0" width="35" height="21"><g id="SVGID_00000072252331280634568600000002834902716932786594__113"><path id="Vector_238" d="M34.2205 0.710938H0.656494V20.2889H34.2205V0.710938Z" fill="white"></path></g></mask><g mask="url(#mask120_9372_26944)"><path id="Vector_239" d="M17.5644 9.4639V11.0769C17.4744 11.1749 17.3694 11.2679 17.2534 11.3389C17.1364 11.2689 17.0324 11.1749 16.9404 11.0769V9.4599C17.0534 9.4169 17.1614 9.3619 17.2534 9.2959C17.3404 9.3669 17.4454 9.4219 17.5644 9.4639Z" fill="white"></path></g></g></g></g></g></g></g></g></svg>