<svg xmlns="http://www.w3.org/2000/svg" width="35" height="21" viewBox="0 0 35 21" fill="none"><g id="SOUTH_AFRICA_2_"><g id="Group"><g id="Group_2"><path id="Vector" d="M34.2165 0.710938H0.656494V20.2889H34.2165V0.710938Z" fill="white"></path><g id="Clip path group"><mask id="mask0_9372_26808" style="mask-type:luminance" maskUnits="userSpaceOnUse" x="0" y="0" width="35" height="21"><g id="SVGID_00000025405733559230654970000013399854708901414039_"><path id="Vector_2" d="M34.2165 0.710938H0.656494V20.2889H34.2165V0.710938Z" fill="white"></path></g></mask><g mask="url(#mask0_9372_26808)"><path id="Vector_3" d="M6.5376 0.710938L16.3266 7.23395H34.2166V0.710938H6.5376Z" fill="#D03033"></path></g></g><g id="Clip path group_2"><mask id="mask1_9372_26808" style="mask-type:luminance" maskUnits="userSpaceOnUse" x="0" y="0" width="35" height="21"><g id="SVGID_00000025405733559230654970000013399854708901414039__2"><path id="Vector_4" d="M34.2165 0.710938H0.656494V20.2889H34.2165V0.710938Z" fill="white"></path></g></mask><g mask="url(#mask1_9372_26808)"><path id="Vector_5" d="M18.2844 8.53888H34.2164V7.23389H16.3264L18.2844 8.53888Z" fill="white"></path></g></g><g id="Clip path group_3"><mask id="mask2_9372_26808" style="mask-type:luminance" maskUnits="userSpaceOnUse" x="0" y="0" width="35" height="21"><g id="SVGID_00000025405733559230654970000013399854708901414039__3"><path id="Vector_6" d="M34.2165 0.710938H0.656494V20.2889H34.2165V0.710938Z" fill="white"></path></g></mask><g mask="url(#mask2_9372_26808)"><path id="Vector_7" d="M16.3264 13.765H34.2164V12.457H18.2844L16.3264 13.765Z" fill="white"></path></g></g><g id="Clip path group_4"><mask id="mask3_9372_26808" style="mask-type:luminance" maskUnits="userSpaceOnUse" x="0" y="0" width="35" height="21"><g id="SVGID_00000025405733559230654970000013399854708901414039__4"><path id="Vector_8" d="M34.2165 0.710938H0.656494V20.2889H34.2165V0.710938Z" fill="white"></path></g></mask><g mask="url(#mask3_9372_26808)"><path id="Vector_9" d="M16.3266 13.7649L6.5376 20.2889H34.2166V13.7649H16.3266Z" fill="#1F189B"></path></g></g><g id="Clip path group_5"><mask id="mask4_9372_26808" style="mask-type:luminance" maskUnits="userSpaceOnUse" x="0" y="0" width="35" height="21"><g id="SVGID_00000025405733559230654970000013399854708901414039__5"><path id="Vector_10" d="M34.2165 0.710938H0.656494V20.2889H34.2165V0.710938Z" fill="white"></path></g></mask><g mask="url(#mask4_9372_26808)"><path id="Vector_11" d="M0.656494 7.23389H4.5605L0.656494 4.62891V7.23389Z" fill="black"></path></g></g><g id="Clip path group_6"><mask id="mask5_9372_26808" style="mask-type:luminance" maskUnits="userSpaceOnUse" x="0" y="0" width="35" height="21"><g id="SVGID_00000025405733559230654970000013399854708901414039__6"><path id="Vector_12" d="M34.2165 0.710938H0.656494V20.2889H34.2165V0.710938Z" fill="white"></path></g></mask><g mask="url(#mask5_9372_26808)"><path id="Vector_13" d="M0.656494 7.23389V13.7649H4.5605L9.45651 10.4959L4.5605 7.23389H0.656494Z" fill="black"></path></g></g><g id="Clip path group_7"><mask id="mask6_9372_26808" style="mask-type:luminance" maskUnits="userSpaceOnUse" x="0" y="0" width="35" height="21"><g id="SVGID_00000025405733559230654970000013399854708901414039__7"><path id="Vector_14" d="M34.2165 0.710938H0.656494V20.2889H34.2165V0.710938Z" fill="white"></path></g></mask><g mask="url(#mask6_9372_26808)"><path id="Vector_15" d="M0.656494 13.7649V16.3669L4.5605 13.7649H0.656494Z" fill="black"></path></g></g><g id="Clip path group_8"><mask id="mask7_9372_26808" style="mask-type:luminance" maskUnits="userSpaceOnUse" x="0" y="0" width="35" height="21"><g id="SVGID_00000025405733559230654970000013399854708901414039__8"><path id="Vector_16" d="M34.2165 0.710938H0.656494V20.2889H34.2165V0.710938Z" fill="white"></path></g></mask><g mask="url(#mask7_9372_26808)"><path id="Vector_17" d="M0.656494 4.62903L9.45651 10.496L0.656494 16.367V17.933L11.8095 10.496L0.656494 3.06201V4.62903Z" fill="#F2B126"></path></g></g><g id="Clip path group_9"><mask id="mask8_9372_26808" style="mask-type:luminance" maskUnits="userSpaceOnUse" x="0" y="0" width="35" height="21"><g id="SVGID_00000025405733559230654970000013399854708901414039__9"><path id="Vector_18" d="M34.2165 0.710938H0.656494V20.2889H34.2165V0.710938Z" fill="white"></path></g></mask><g mask="url(#mask8_9372_26808)"><path id="Vector_19" d="M0.656494 0.710938V3.06195L11.8095 10.496L0.656494 17.9329V20.2889H4.18449L15.9315 12.457H34.2165V8.53894H15.9315L4.18449 0.710938H0.656494Z" fill="#32784C"></path></g></g></g></g></g></svg>