<svg xmlns="http://www.w3.org/2000/svg" width="35" height="21" viewBox="0 0 35 21" fill="none"><g id="KENYA_2_"><g id="Group"><g id="Group_2"><g id="Clip path group"><mask id="mask0_9372_26864" style="mask-type:luminance" maskUnits="userSpaceOnUse" x="0" y="0" width="35" height="21"><g id="SVGID_00000052091579302841182890000005572808438062472118_"><path id="Vector" d="M34.2195 0.708984H0.656494V20.291H34.2195V0.708984Z" fill="white"></path></g></mask><g mask="url(#mask0_9372_26864)"><path id="Vector_2" d="M34.2195 0.708984H0.656494V20.291H34.2195V0.708984Z" fill="white"></path></g></g><g id="Clip path group_2"><mask id="mask1_9372_26864" style="mask-type:luminance" maskUnits="userSpaceOnUse" x="0" y="0" width="35" height="21"><g id="SVGID_00000052091579302841182890000005572808438062472118__2"><path id="Vector_3" d="M34.2195 0.708984H0.656494V20.291H34.2195V0.708984Z" fill="white"></path></g></mask><g mask="url(#mask1_9372_26864)"><path id="Vector_4" d="M34.2195 0.708984H0.656494V6.58398H34.2195V0.708984Z" fill="black"></path></g></g><g id="Clip path group_3"><mask id="mask2_9372_26864" style="mask-type:luminance" maskUnits="userSpaceOnUse" x="0" y="0" width="35" height="21"><g id="SVGID_00000052091579302841182890000005572808438062472118__3"><path id="Vector_5" d="M34.2195 0.708984H0.656494V20.291H34.2195V0.708984Z" fill="white"></path></g></mask><g mask="url(#mask2_9372_26864)"><path id="Vector_6" d="M34.2195 14.416H0.656494V20.291H34.2195V14.416Z" fill="#2A680B"></path></g></g><g id="Clip path group_4"><mask id="mask3_9372_26864" style="mask-type:luminance" maskUnits="userSpaceOnUse" x="0" y="0" width="35" height="21"><g id="SVGID_00000052091579302841182890000005572808438062472118__4"><path id="Vector_7" d="M34.2195 0.708984H0.656494V20.291H34.2195V0.708984Z" fill="white"></path></g></mask><g mask="url(#mask3_9372_26864)"><g id="Group_3"><g id="Clip path group_5"><mask id="mask4_9372_26864" style="mask-type:luminance" maskUnits="userSpaceOnUse" x="0" y="0" width="35" height="21"><g id="SVGID_00000049913426002118358450000008603762947706359223_"><path id="Vector_8" d="M34.2195 0.708984H0.656494V20.291H34.2195V0.708984Z" fill="white"></path></g></mask><g mask="url(#mask4_9372_26864)"><path id="Vector_9" d="M13.7983 16.3139L14.0114 16.4349L19.7203 6.53693C20.0563 6.44693 20.2383 6.12688 20.4213 5.80988C20.5423 5.59888 21.0324 4.7519 21.2454 3.6499C20.3974 4.3809 19.9094 5.23587 19.7844 5.44287C19.6024 5.75887 19.4194 6.07993 19.5114 6.41193L13.7983 16.3139Z" fill="black"></path></g></g><g id="Clip path group_6"><mask id="mask5_9372_26864" style="mask-type:luminance" maskUnits="userSpaceOnUse" x="0" y="0" width="35" height="21"><g id="SVGID_00000049913426002118358450000008603762947706359223__2"><path id="Vector_10" d="M34.2195 0.708984H0.656494V20.291H34.2195V0.708984Z" fill="white"></path></g></mask><g mask="url(#mask5_9372_26864)"><g id="Group_4"><path id="Vector_11" d="M14.0156 16.459L13.7886 16.326L19.4956 6.40393C19.4016 6.07993 19.5896 5.74796 19.7706 5.43896C20.2786 4.55996 20.8466 3.97394 21.2336 3.63794C21.1636 4.15394 20.9426 4.93893 20.4366 5.81793C20.2526 6.13393 20.0656 6.45897 19.7236 6.54797L14.0156 16.459ZM21.2286 3.64594C20.8676 3.99394 20.3026 4.57599 19.8006 5.45099C19.6206 5.75999 19.4376 6.08396 19.5276 6.40796L13.8126 16.326L14.0036 16.416L19.7066 6.52893C20.0446 6.43093 20.2296 6.11094 20.4076 5.80194C20.9106 4.93094 21.1326 4.14594 21.2286 3.64594Z" fill="black"></path></g></g></g><g id="Clip path group_7"><mask id="mask6_9372_26864" style="mask-type:luminance" maskUnits="userSpaceOnUse" x="0" y="0" width="35" height="21"><g id="SVGID_00000049913426002118358450000008603762947706359223__3"><path id="Vector_12" d="M34.2195 0.708984H0.656494V20.291H34.2195V0.708984Z" fill="white"></path></g></mask><g mask="url(#mask6_9372_26864)"><path id="Vector_13" d="M13.7983 16.3139L14.0114 16.4349L19.7203 6.53693C20.0563 6.44693 20.2383 6.12688 20.4213 5.80988C20.5423 5.59888 21.0324 4.7519 21.2454 3.6499C20.3974 4.3809 19.9094 5.23587 19.7844 5.44287C19.6024 5.75887 19.4194 6.07993 19.5114 6.41193L13.7983 16.3139Z" fill="white"></path></g></g><g id="Clip path group_8"><mask id="mask7_9372_26864" style="mask-type:luminance" maskUnits="userSpaceOnUse" x="0" y="0" width="35" height="21"><g id="SVGID_00000049913426002118358450000008603762947706359223__4"><path id="Vector_14" d="M34.2195 0.708984H0.656494V20.291H34.2195V0.708984Z" fill="white"></path></g></mask><g mask="url(#mask7_9372_26864)"><path id="Vector_15" d="M20.7874 16.3139L20.5723 16.4349L14.8654 6.53693C14.5294 6.44693 14.3473 6.12688 14.1663 5.80988C14.0433 5.59888 13.5513 4.7519 13.3403 3.6499C14.1883 4.3809 14.6763 5.23587 14.8013 5.44287C14.9813 5.75887 15.1643 6.07993 15.0743 6.41193L20.7874 16.3139Z" fill="black"></path></g></g><g id="Clip path group_9"><mask id="mask8_9372_26864" style="mask-type:luminance" maskUnits="userSpaceOnUse" x="0" y="0" width="35" height="21"><g id="SVGID_00000049913426002118358450000008603762947706359223__5"><path id="Vector_16" d="M34.2195 0.708984H0.656494V20.291H34.2195V0.708984Z" fill="white"></path></g></mask><g mask="url(#mask8_9372_26864)"><g id="Group_5"><path id="Vector_17" d="M20.5665 16.459L20.5605 16.4429L14.8475 6.54797C14.5195 6.45797 14.3315 6.13398 14.1505 5.82098C13.6425 4.93798 13.4195 4.15295 13.3245 3.65295C13.7385 3.97295 14.3075 4.55899 14.8145 5.43799C14.9965 5.74599 15.1815 6.07498 15.0915 6.41498L20.8005 16.306L20.5665 16.459ZM13.3304 3.66595C13.4534 4.14595 13.6745 4.92798 14.1765 5.80298C14.3585 6.11198 14.5434 6.43197 14.8694 6.52197L20.5804 16.4169L20.7775 16.3L15.0605 6.42499C15.1485 6.08499 14.9625 5.76097 14.7855 5.45197C14.2815 4.57997 13.7154 3.99795 13.3304 3.66595Z" fill="black"></path></g></g></g><g id="Clip path group_10"><mask id="mask9_9372_26864" style="mask-type:luminance" maskUnits="userSpaceOnUse" x="0" y="0" width="35" height="21"><g id="SVGID_00000049913426002118358450000008603762947706359223__6"><path id="Vector_18" d="M34.2195 0.708984H0.656494V20.291H34.2195V0.708984Z" fill="white"></path></g></mask><g mask="url(#mask9_9372_26864)"><path id="Vector_19" d="M20.7874 16.3139L20.5723 16.4349L14.8654 6.53693C14.5294 6.44693 14.3473 6.12688 14.1663 5.80988C14.0433 5.59888 13.5513 4.7519 13.3403 3.6499C14.1883 4.3809 14.6763 5.23587 14.8013 5.44287C14.9813 5.75887 15.1643 6.07993 15.0743 6.41193L20.7874 16.3139Z" fill="white"></path></g></g><g id="Clip path group_11"><mask id="mask10_9372_26864" style="mask-type:luminance" maskUnits="userSpaceOnUse" x="0" y="0" width="35" height="21"><g id="SVGID_00000049913426002118358450000008603762947706359223__7"><path id="Vector_20" d="M34.2195 0.708984H0.656494V20.291H34.2195V0.708984Z" fill="white"></path></g></mask><g mask="url(#mask10_9372_26864)"><path id="Vector_21" d="M0.656494 7.56396V13.439H14.9705C15.3375 14.416 16.5585 16.377 17.2925 16.377C18.0265 16.377 19.2495 14.416 19.6125 13.439H34.2184V7.56396H19.6135C19.2505 6.58296 18.0275 4.62598 17.2935 4.62598C16.5595 4.62598 15.3384 6.58296 14.9714 7.56396H0.656494Z" fill="#AA0017"></path></g></g><g id="Clip path group_12"><mask id="mask11_9372_26864" style="mask-type:luminance" maskUnits="userSpaceOnUse" x="0" y="0" width="35" height="21"><g id="SVGID_00000049913426002118358450000008603762947706359223__8"><path id="Vector_22" d="M34.2195 0.708984H0.656494V20.291H34.2195V0.708984Z" fill="white"></path></g></mask><g mask="url(#mask11_9372_26864)"><path id="Vector_23" d="M19.6134 13.439C19.9844 12.458 20.2264 11.4819 20.2264 10.4969C20.2264 9.51995 19.9844 8.53996 19.6134 7.56396C19.2504 8.54096 19.0044 9.52095 19.0044 10.4969C19.0044 11.4819 19.2504 12.459 19.6134 13.439Z" fill="black"></path></g></g><g id="Clip path group_13"><mask id="mask12_9372_26864" style="mask-type:luminance" maskUnits="userSpaceOnUse" x="0" y="0" width="35" height="21"><g id="SVGID_00000049913426002118358450000008603762947706359223__9"><path id="Vector_24" d="M34.2195 0.708984H0.656494V20.291H34.2195V0.708984Z" fill="white"></path></g></mask><g mask="url(#mask12_9372_26864)"><path id="Vector_25" d="M14.9704 13.439C14.6034 12.458 14.3594 11.4819 14.3594 10.4969C14.3594 9.51995 14.6034 8.53996 14.9704 7.56396C15.3374 8.54096 15.5814 9.52095 15.5814 10.4969C15.5824 11.4819 15.3384 12.459 14.9704 13.439Z" fill="black"></path></g></g><g id="Clip path group_14"><mask id="mask13_9372_26864" style="mask-type:luminance" maskUnits="userSpaceOnUse" x="0" y="0" width="35" height="21"><g id="SVGID_00000049913426002118358450000008603762947706359223__10"><path id="Vector_26" d="M34.2195 0.708984H0.656494V20.291H34.2195V0.708984Z" fill="white"></path></g></mask><g mask="url(#mask13_9372_26864)"><path id="Vector_27" d="M17.2934 9.76697C17.5634 9.76697 17.7834 10.0949 17.7834 10.4969C17.7834 10.9069 17.5624 11.235 17.2934 11.235C17.0224 11.235 16.8054 10.9069 16.8054 10.4969C16.8044 10.0959 17.0214 9.76697 17.2934 9.76697Z" fill="white"></path></g></g><g id="Clip path group_15"><mask id="mask14_9372_26864" style="mask-type:luminance" maskUnits="userSpaceOnUse" x="0" y="0" width="35" height="21"><g id="SVGID_00000049913426002118358450000008603762947706359223__11"><path id="Vector_28" d="M34.2195 0.708984H0.656494V20.291H34.2195V0.708984Z" fill="white"></path></g></mask><g mask="url(#mask14_9372_26864)"><path id="Vector_29" d="M17.4165 11.217C17.4165 11.217 17.9025 12.194 17.9025 13.783C17.9025 15.377 17.4165 16.357 17.4165 16.357V11.217Z" fill="white"></path></g></g><g id="Clip path group_16"><mask id="mask15_9372_26864" style="mask-type:luminance" maskUnits="userSpaceOnUse" x="0" y="0" width="35" height="21"><g id="SVGID_00000049913426002118358450000008603762947706359223__12"><path id="Vector_30" d="M34.2195 0.708984H0.656494V20.291H34.2195V0.708984Z" fill="white"></path></g></mask><g mask="url(#mask15_9372_26864)"><path id="Vector_31" d="M17.1704 9.78699C17.1704 9.78699 16.6824 8.80595 16.6824 7.21295C16.6824 5.62695 17.1704 4.64697 17.1704 4.64697V9.78699Z" fill="white"></path></g></g><g id="Clip path group_17"><mask id="mask16_9372_26864" style="mask-type:luminance" maskUnits="userSpaceOnUse" x="0" y="0" width="35" height="21"><g id="SVGID_00000049913426002118358450000008603762947706359223__13"><path id="Vector_32" d="M34.2195 0.708984H0.656494V20.291H34.2195V0.708984Z" fill="white"></path></g></mask><g mask="url(#mask16_9372_26864)"><path id="Vector_33" d="M17.1704 11.217C17.1704 11.217 16.6824 12.194 16.6824 13.783C16.6824 15.377 17.1704 16.357 17.1704 16.357V11.217Z" fill="white"></path></g></g><g id="Clip path group_18"><mask id="mask17_9372_26864" style="mask-type:luminance" maskUnits="userSpaceOnUse" x="0" y="0" width="35" height="21"><g id="SVGID_00000049913426002118358450000008603762947706359223__14"><path id="Vector_34" d="M34.2195 0.708984H0.656494V20.291H34.2195V0.708984Z" fill="white"></path></g></mask><g mask="url(#mask17_9372_26864)"><path id="Vector_35" d="M17.4165 9.78699C17.4165 9.78699 17.9025 8.80595 17.9025 7.21295C17.9025 5.62695 17.4165 4.64697 17.4165 4.64697V9.78699Z" fill="white"></path></g></g></g></g></g></g></g></g></svg>