<svg xmlns="http://www.w3.org/2000/svg" width="923" height="527" viewBox="0 0 923 527" fill="none"><g filter="url(#filter0_b_25_228)"><rect y="0.664551" width="923" height="525.637" rx="22.75" fill="url(#paint0_linear_25_228)" fill-opacity="0.59"></rect><rect x="0.379235" y="1.04379" width="922.242" height="524.879" rx="22.3708" stroke="url(#paint1_linear_25_228)" stroke-opacity="0.6" stroke-width="0.75847"></rect></g><rect y="0.664551" width="922.917" height="64.7267" rx="22.75" fill="black" fill-opacity="0.33"></rect><circle cx="30.5175" cy="35.4858" r="7.34807" fill="#59A52C"></circle><circle cx="56.9706" cy="35.4858" r="7.34807" fill="#59A52C"></circle><circle cx="83.4238" cy="35.4858" r="7.34807" fill="#59A52C"></circle><line x1="103.427" y1="453.815" x2="853.015" y2="453.815" stroke="#555555" stroke-width="0.560408"></line><line x1="103.427" y1="416.451" x2="853.015" y2="416.451" stroke="#555555" stroke-width="0.560408"></line><line x1="103.427" y1="379.088" x2="853.015" y2="379.088" stroke="#555555" stroke-width="0.560408"></line><line x1="103.427" y1="341.723" x2="853.015" y2="341.723" stroke="#555555" stroke-width="0.560408"></line><line x1="103.427" y1="303.747" x2="853.015" y2="303.747" stroke="#555555" stroke-width="0.560408"></line><line x1="103.427" y1="265.771" x2="853.015" y2="265.771" stroke="#555555" stroke-width="0.560408"></line><line x1="103.427" y1="227.794" x2="853.015" y2="227.794" stroke="#555555" stroke-width="0.560408"></line><line x1="103.427" y1="189.817" x2="853.015" y2="189.817" stroke="#555555" stroke-width="0.560408"></line><line x1="103.427" y1="151.841" x2="853.015" y2="151.841" stroke="#555555" stroke-width="0.560408"></line><line x1="103.427" y1="113.864" x2="853.015" y2="113.864" stroke="#555555" stroke-width="0.560408"></line><path d="M104.688 471.45H106.657L110.357 481.32L114.048 471.45H116.017L111.13 484.247H109.566L104.688 471.45ZM103.792 471.45H105.664L105.989 479.993V484.247H103.792V471.45ZM115.042 471.45H116.922V484.247H114.716V479.993L115.042 471.45ZM125.052 482.005V474.737H127.179V484.247H125.175L125.052 482.005ZM125.351 480.028L126.063 480.01C126.063 480.649 125.993 481.238 125.852 481.777C125.711 482.31 125.495 482.776 125.202 483.174C124.909 483.567 124.534 483.875 124.077 484.097C123.62 484.314 123.072 484.422 122.433 484.422C121.97 484.422 121.545 484.355 121.159 484.22C120.772 484.085 120.438 483.877 120.157 483.596C119.881 483.315 119.667 482.949 119.515 482.498C119.363 482.046 119.287 481.507 119.287 480.88V474.737H121.405V480.898C121.405 481.244 121.446 481.534 121.528 481.768C121.61 481.997 121.721 482.181 121.862 482.322C122.002 482.462 122.167 482.562 122.354 482.621C122.542 482.679 122.741 482.708 122.952 482.708C123.555 482.708 124.03 482.591 124.375 482.357C124.727 482.117 124.976 481.794 125.123 481.39C125.275 480.986 125.351 480.532 125.351 480.028ZM131.618 470.747V484.247H129.491V470.747H131.618ZM138.297 474.737V476.284H132.936V474.737H138.297ZM134.483 472.408H136.601V481.619C136.601 481.912 136.642 482.137 136.724 482.295C136.812 482.448 136.932 482.55 137.084 482.603C137.237 482.656 137.416 482.682 137.621 482.682C137.767 482.682 137.908 482.673 138.042 482.656C138.177 482.638 138.286 482.621 138.368 482.603L138.376 484.22C138.201 484.273 137.996 484.32 137.761 484.361C137.533 484.402 137.269 484.422 136.97 484.422C136.484 484.422 136.053 484.337 135.678 484.167C135.303 483.992 135.01 483.708 134.799 483.315C134.588 482.922 134.483 482.401 134.483 481.75V472.408ZM142.2 474.737V484.247H140.073V474.737H142.2ZM139.932 472.241C139.932 471.918 140.038 471.652 140.249 471.441C140.465 471.224 140.764 471.116 141.145 471.116C141.52 471.116 141.816 471.224 142.033 471.441C142.25 471.652 142.358 471.918 142.358 472.241C142.358 472.557 142.25 472.821 142.033 473.032C141.816 473.243 141.52 473.348 141.145 473.348C140.764 473.348 140.465 473.243 140.249 473.032C140.038 472.821 139.932 472.557 139.932 472.241ZM148.783 477.936V479.624H144.133V477.936H148.783ZM158.407 480.081H160.604C160.534 480.918 160.299 481.666 159.901 482.322C159.502 482.972 158.943 483.485 158.222 483.86C157.501 484.235 156.625 484.422 155.594 484.422C154.803 484.422 154.091 484.282 153.458 484C152.826 483.713 152.284 483.309 151.833 482.788C151.381 482.26 151.036 481.625 150.795 480.88C150.561 480.136 150.444 479.304 150.444 478.384V477.321C150.444 476.401 150.564 475.569 150.804 474.825C151.05 474.081 151.402 473.445 151.859 472.917C152.316 472.384 152.864 471.977 153.502 471.696C154.147 471.415 154.871 471.274 155.673 471.274C156.693 471.274 157.554 471.461 158.257 471.836C158.96 472.211 159.505 472.73 159.892 473.392C160.285 474.054 160.525 474.813 160.613 475.668H158.416C158.357 475.118 158.228 474.646 158.029 474.253C157.835 473.861 157.548 473.562 157.167 473.357C156.787 473.146 156.289 473.041 155.673 473.041C155.169 473.041 154.73 473.134 154.355 473.322C153.98 473.509 153.667 473.785 153.415 474.148C153.163 474.511 152.972 474.959 152.843 475.493C152.72 476.02 152.659 476.624 152.659 477.303V478.384C152.659 479.029 152.714 479.615 152.826 480.142C152.943 480.664 153.119 481.112 153.353 481.487C153.593 481.862 153.898 482.152 154.267 482.357C154.636 482.562 155.079 482.665 155.594 482.665C156.221 482.665 156.728 482.565 157.115 482.366C157.507 482.167 157.803 481.876 158.002 481.496C158.208 481.109 158.342 480.637 158.407 480.081ZM166.326 484.247H163.592L163.61 482.498H166.326C167.117 482.498 167.779 482.325 168.312 481.979C168.851 481.633 169.255 481.138 169.525 480.494C169.8 479.849 169.938 479.082 169.938 478.191V477.497C169.938 476.805 169.859 476.193 169.701 475.66C169.548 475.126 169.32 474.678 169.015 474.315C168.716 473.952 168.347 473.676 167.908 473.489C167.474 473.301 166.973 473.208 166.405 473.208H163.54V471.45H166.405C167.254 471.45 168.031 471.593 168.734 471.88C169.437 472.162 170.043 472.569 170.553 473.102C171.069 473.635 171.464 474.274 171.74 475.018C172.015 475.762 172.153 476.594 172.153 477.514V478.191C172.153 479.111 172.015 479.943 171.74 480.687C171.464 481.431 171.069 482.07 170.553 482.603C170.038 483.13 169.422 483.538 168.708 483.825C167.999 484.106 167.205 484.247 166.326 484.247ZM164.814 471.45V484.247H162.608V471.45H164.814ZM184.519 471.45V484.247H182.313L176.574 475.08V484.247H174.368V471.45H176.574L182.331 480.634V471.45H184.519Z" fill="#CFCFCF"></path><path d="M89.3823 447.167V455.745H88.2983V448.521L86.1128 449.317V448.339L89.2124 447.167H89.3823Z" fill="white"></path><path d="M91.4097 417.491V418.381H85.8257V417.602L88.6206 414.491C88.9644 414.108 89.23 413.784 89.4175 413.518C89.6089 413.249 89.7417 413.008 89.8159 412.797C89.894 412.583 89.9331 412.364 89.9331 412.141C89.9331 411.86 89.8745 411.606 89.7573 411.379C89.644 411.149 89.4761 410.965 89.2534 410.829C89.0308 410.692 88.7612 410.624 88.4448 410.624C88.0659 410.624 87.7495 410.698 87.4956 410.846C87.2456 410.991 87.0581 411.194 86.9331 411.456C86.8081 411.717 86.7456 412.018 86.7456 412.358H85.6616C85.6616 411.877 85.7671 411.438 85.978 411.04C86.189 410.641 86.5015 410.325 86.9155 410.09C87.3296 409.852 87.8394 409.733 88.4448 409.733C88.9839 409.733 89.4448 409.829 89.8276 410.02C90.2104 410.208 90.5034 410.473 90.7065 410.817C90.9136 411.157 91.0171 411.555 91.0171 412.012C91.0171 412.262 90.9741 412.516 90.8882 412.774C90.8062 413.028 90.6909 413.282 90.5425 413.536C90.3979 413.79 90.228 414.04 90.0327 414.286C89.8413 414.532 89.6362 414.774 89.4175 415.012L87.1323 417.491H91.4097Z" fill="white"></path><path d="M87.4019 374.569H88.1753C88.5542 374.569 88.8667 374.507 89.1128 374.382C89.3628 374.253 89.5483 374.079 89.6694 373.86C89.7944 373.638 89.8569 373.388 89.8569 373.11C89.8569 372.782 89.8022 372.507 89.6929 372.284C89.5835 372.062 89.4194 371.894 89.2007 371.78C88.9819 371.667 88.7046 371.61 88.3687 371.61C88.064 371.61 87.7944 371.671 87.5601 371.792C87.3296 371.909 87.1479 372.077 87.0151 372.296C86.8862 372.515 86.8218 372.772 86.8218 373.069H85.7378C85.7378 372.636 85.8472 372.241 86.0659 371.886C86.2847 371.53 86.5913 371.247 86.9858 371.036C87.3843 370.825 87.8452 370.72 88.3687 370.72C88.8843 370.72 89.3354 370.812 89.7222 370.995C90.1089 371.175 90.4097 371.444 90.6245 371.804C90.8394 372.159 90.9468 372.603 90.9468 373.134C90.9468 373.349 90.896 373.579 90.7944 373.825C90.6968 374.067 90.5425 374.294 90.3315 374.505C90.1245 374.716 89.855 374.89 89.5229 375.026C89.1909 375.159 88.7925 375.226 88.3276 375.226H87.4019V374.569ZM87.4019 375.46V374.81H88.3276C88.8706 374.81 89.3198 374.874 89.6753 375.003C90.0308 375.132 90.3101 375.304 90.5132 375.519C90.7202 375.733 90.8647 375.97 90.9468 376.228C91.0327 376.481 91.0757 376.735 91.0757 376.989C91.0757 377.388 91.0073 377.741 90.8706 378.05C90.7378 378.358 90.5483 378.62 90.3022 378.835C90.0601 379.05 89.7749 379.212 89.4468 379.321C89.1187 379.431 88.7612 379.485 88.3745 379.485C88.0034 379.485 87.6538 379.433 87.3257 379.327C87.0015 379.222 86.7144 379.069 86.4644 378.87C86.2144 378.667 86.019 378.419 85.8784 378.126C85.7378 377.829 85.6675 377.491 85.6675 377.112H86.7515C86.7515 377.409 86.8159 377.669 86.9448 377.892C87.0776 378.114 87.2651 378.288 87.5073 378.413C87.7534 378.534 88.0425 378.595 88.3745 378.595C88.7065 378.595 88.9917 378.538 89.23 378.425C89.4722 378.308 89.6577 378.132 89.7866 377.897C89.9194 377.663 89.9858 377.368 89.9858 377.013C89.9858 376.657 89.9116 376.366 89.7632 376.14C89.6147 375.909 89.4038 375.739 89.1304 375.63C88.8608 375.517 88.5425 375.46 88.1753 375.46H87.4019Z" fill="white"></path><path d="M91.5854 339.958V340.848H85.4214V340.209L89.2417 334.297H90.1265L89.1772 336.008L86.6519 339.958H91.5854ZM90.396 334.297V342.829H89.312V334.297H90.396Z" fill="white"></path><path d="M87.1909 301.768L86.3237 301.545L86.7515 297.297H91.1284V298.299H87.6714L87.4136 300.62C87.5698 300.53 87.7671 300.446 88.0054 300.368C88.2476 300.29 88.5249 300.25 88.8374 300.25C89.2319 300.25 89.5854 300.319 89.8979 300.456C90.2104 300.588 90.4761 300.78 90.6948 301.03C90.9175 301.28 91.0874 301.581 91.2046 301.932C91.3218 302.284 91.3804 302.676 91.3804 303.11C91.3804 303.52 91.3237 303.897 91.2104 304.241C91.1011 304.584 90.9351 304.885 90.7124 305.143C90.4897 305.397 90.2085 305.594 89.8687 305.735C89.5327 305.875 89.1362 305.946 88.6792 305.946C88.3354 305.946 88.0093 305.899 87.7007 305.805C87.396 305.708 87.1226 305.561 86.8804 305.366C86.6421 305.167 86.4468 304.92 86.2944 304.627C86.146 304.331 86.0522 303.983 86.0132 303.584H87.0444C87.0913 303.905 87.1851 304.174 87.3257 304.393C87.4663 304.612 87.6499 304.778 87.8765 304.891C88.1069 305 88.3745 305.055 88.6792 305.055C88.937 305.055 89.1655 305.01 89.3647 304.92C89.564 304.831 89.7319 304.702 89.8687 304.534C90.0054 304.366 90.1089 304.163 90.1792 303.924C90.2534 303.686 90.2905 303.418 90.2905 303.122C90.2905 302.852 90.2534 302.602 90.1792 302.372C90.105 302.141 89.9937 301.94 89.8452 301.768C89.7007 301.596 89.5229 301.463 89.312 301.37C89.1011 301.272 88.8589 301.223 88.5854 301.223C88.2222 301.223 87.9468 301.272 87.7593 301.37C87.5757 301.467 87.3862 301.6 87.1909 301.768Z" fill="white"></path><path d="M89.98 258.286H90.0737V259.206H89.98C89.4058 259.206 88.9253 259.299 88.5386 259.487C88.1519 259.67 87.8452 259.918 87.6187 260.231C87.3921 260.54 87.228 260.887 87.1265 261.274C87.0288 261.661 86.98 262.053 86.98 262.452V263.706C86.98 264.084 87.0249 264.42 87.1147 264.713C87.2046 265.002 87.3276 265.247 87.4839 265.446C87.6401 265.645 87.8159 265.795 88.0112 265.897C88.2104 265.999 88.4175 266.049 88.6323 266.049C88.8823 266.049 89.105 266.002 89.3003 265.909C89.4956 265.811 89.6597 265.676 89.7925 265.504C89.9292 265.329 90.0327 265.122 90.103 264.883C90.1733 264.645 90.2085 264.383 90.2085 264.098C90.2085 263.844 90.1772 263.6 90.1147 263.366C90.0522 263.127 89.9565 262.917 89.8276 262.733C89.6987 262.545 89.5366 262.399 89.3413 262.293C89.1499 262.184 88.9214 262.129 88.6558 262.129C88.355 262.129 88.0737 262.204 87.812 262.352C87.5542 262.497 87.3413 262.688 87.1733 262.926C87.0093 263.161 86.9155 263.417 86.8921 263.694L86.3179 263.688C86.3726 263.25 86.4741 262.877 86.6226 262.569C86.7749 262.256 86.9624 262.002 87.1851 261.807C87.4116 261.608 87.6636 261.463 87.9409 261.374C88.2222 261.28 88.519 261.233 88.8315 261.233C89.2573 261.233 89.6245 261.313 89.9331 261.473C90.2417 261.633 90.4956 261.848 90.6948 262.118C90.894 262.383 91.0405 262.684 91.1343 263.02C91.2319 263.352 91.2808 263.694 91.2808 264.045C91.2808 264.448 91.2241 264.825 91.1108 265.176C90.9976 265.528 90.8276 265.836 90.6011 266.102C90.3784 266.368 90.103 266.575 89.7749 266.723C89.4468 266.872 89.0659 266.946 88.6323 266.946C88.1714 266.946 87.769 266.852 87.4253 266.665C87.0815 266.473 86.7964 266.219 86.5698 265.903C86.3433 265.586 86.1733 265.235 86.0601 264.848C85.9468 264.461 85.8901 264.069 85.8901 263.67V263.161C85.8901 262.559 85.9507 261.969 86.0718 261.391C86.1929 260.813 86.4019 260.29 86.6987 259.821C86.9995 259.352 87.4155 258.979 87.9468 258.702C88.478 258.424 89.1558 258.286 89.98 258.286Z" fill="white"></path><path d="M91.3335 221.297V221.907L87.8003 229.829H86.6577L90.1851 222.188H85.5679V221.297H91.3335Z" fill="white"></path><path d="M91.1987 190.52C91.1987 191.04 91.0776 191.481 90.8354 191.844C90.5972 192.204 90.2729 192.477 89.8628 192.665C89.4565 192.852 88.9976 192.946 88.4858 192.946C87.9741 192.946 87.5132 192.852 87.103 192.665C86.6929 192.477 86.3687 192.204 86.1304 191.844C85.8921 191.481 85.7729 191.04 85.7729 190.52C85.7729 190.18 85.8374 189.87 85.9663 189.588C86.0991 189.303 86.2847 189.055 86.5229 188.844C86.7651 188.633 87.0503 188.471 87.3784 188.358C87.7104 188.241 88.0757 188.182 88.4741 188.182C88.9976 188.182 89.4644 188.284 89.8745 188.487C90.2847 188.686 90.6069 188.961 90.8413 189.313C91.0796 189.665 91.1987 190.067 91.1987 190.52ZM90.1089 190.497C90.1089 190.18 90.0405 189.901 89.9038 189.659C89.7671 189.413 89.5757 189.221 89.3296 189.084C89.0835 188.948 88.7983 188.879 88.4741 188.879C88.1421 188.879 87.855 188.948 87.6128 189.084C87.3745 189.221 87.189 189.413 87.0562 189.659C86.9233 189.901 86.8569 190.18 86.8569 190.497C86.8569 190.825 86.9214 191.106 87.0503 191.34C87.1831 191.571 87.3706 191.749 87.6128 191.874C87.8589 191.995 88.1499 192.055 88.4858 192.055C88.8218 192.055 89.1108 191.995 89.353 191.874C89.5952 191.749 89.7808 191.571 89.9097 191.34C90.0425 191.106 90.1089 190.825 90.1089 190.497ZM90.9995 186.518C90.9995 186.932 90.8901 187.305 90.6714 187.637C90.4526 187.969 90.1538 188.231 89.7749 188.422C89.396 188.614 88.9663 188.709 88.4858 188.709C87.9976 188.709 87.562 188.614 87.1792 188.422C86.8003 188.231 86.5034 187.969 86.2886 187.637C86.0737 187.305 85.9663 186.932 85.9663 186.518C85.9663 186.022 86.0737 185.6 86.2886 185.252C86.5073 184.905 86.8062 184.639 87.1851 184.456C87.564 184.272 87.9956 184.18 88.48 184.18C88.9683 184.18 89.4019 184.272 89.7808 184.456C90.1597 184.639 90.4565 184.905 90.6714 185.252C90.8901 185.6 90.9995 186.022 90.9995 186.518ZM89.9155 186.536C89.9155 186.25 89.855 185.999 89.7339 185.78C89.6128 185.561 89.4448 185.389 89.23 185.264C89.0151 185.135 88.7651 185.071 88.48 185.071C88.1948 185.071 87.9448 185.131 87.73 185.252C87.519 185.37 87.353 185.538 87.2319 185.756C87.1147 185.975 87.0562 186.235 87.0562 186.536C87.0562 186.829 87.1147 187.084 87.2319 187.303C87.353 187.522 87.521 187.692 87.7358 187.813C87.9507 187.934 88.2007 187.995 88.4858 187.995C88.771 187.995 89.019 187.934 89.23 187.813C89.4448 187.692 89.6128 187.522 89.7339 187.303C89.855 187.084 89.9155 186.829 89.9155 186.536Z" fill="white"></path><path d="M86.8979 153.92H87.0093C87.6343 153.92 88.1421 153.833 88.5327 153.657C88.9233 153.481 89.2241 153.245 89.4351 152.948C89.646 152.651 89.7905 152.317 89.8687 151.946C89.9468 151.571 89.9858 151.186 89.9858 150.792V149.485C89.9858 149.098 89.9409 148.754 89.8511 148.454C89.7651 148.153 89.644 147.901 89.4878 147.698C89.3354 147.495 89.1616 147.34 88.9663 147.235C88.771 147.129 88.564 147.077 88.3452 147.077C88.0952 147.077 87.8706 147.127 87.6714 147.229C87.4761 147.327 87.3101 147.465 87.1733 147.645C87.0405 147.825 86.939 148.036 86.8687 148.278C86.7983 148.52 86.7632 148.784 86.7632 149.069C86.7632 149.323 86.7944 149.569 86.8569 149.807C86.9194 150.045 87.0151 150.26 87.144 150.452C87.2729 150.643 87.4331 150.795 87.6245 150.909C87.8198 151.018 88.0483 151.073 88.3101 151.073C88.5522 151.073 88.7788 151.026 88.9897 150.932C89.2046 150.834 89.394 150.704 89.5581 150.54C89.7261 150.372 89.8589 150.182 89.9565 149.971C90.0581 149.76 90.1167 149.54 90.1323 149.309H90.6479C90.6479 149.633 90.5835 149.954 90.4546 150.27C90.3296 150.583 90.1538 150.868 89.9272 151.125C89.7007 151.383 89.4351 151.59 89.1304 151.747C88.8257 151.899 88.4937 151.975 88.1343 151.975C87.7124 151.975 87.3472 151.893 87.0386 151.729C86.73 151.565 86.4761 151.346 86.2769 151.073C86.0815 150.799 85.9351 150.495 85.8374 150.159C85.7437 149.819 85.6968 149.475 85.6968 149.127C85.6968 148.721 85.7534 148.34 85.8667 147.985C85.98 147.629 86.1479 147.317 86.3706 147.047C86.5933 146.774 86.8687 146.561 87.1968 146.409C87.5288 146.256 87.9116 146.18 88.3452 146.18C88.8335 146.18 89.2495 146.278 89.5933 146.473C89.937 146.668 90.2163 146.93 90.4312 147.258C90.6499 147.586 90.8101 147.956 90.9116 148.366C91.0132 148.776 91.064 149.198 91.064 149.631V150.024C91.064 150.465 91.0347 150.915 90.9761 151.372C90.9214 151.825 90.814 152.258 90.6538 152.672C90.4976 153.086 90.269 153.458 89.9683 153.786C89.6675 154.11 89.2749 154.368 88.7905 154.559C88.3101 154.747 87.7163 154.84 87.0093 154.84H86.8979V153.92Z" fill="white"></path><path d="M82.5073 108.25V116.829H81.4233V109.604L79.2378 110.401V109.422L82.3374 108.25H82.5073ZM91.0503 111.883V113.184C91.0503 113.883 90.9878 114.473 90.8628 114.954C90.7378 115.434 90.5581 115.821 90.3237 116.114C90.0894 116.407 89.8062 116.62 89.4741 116.752C89.146 116.881 88.7749 116.946 88.3608 116.946C88.0327 116.946 87.73 116.905 87.4526 116.823C87.1753 116.741 86.9253 116.61 86.7026 116.43C86.4839 116.247 86.2964 116.008 86.1401 115.715C85.9839 115.422 85.8647 115.067 85.7827 114.649C85.7007 114.231 85.6597 113.743 85.6597 113.184V111.883C85.6597 111.184 85.7222 110.598 85.8472 110.125C85.9761 109.653 86.1577 109.274 86.3921 108.989C86.6265 108.7 86.9077 108.493 87.2358 108.368C87.5679 108.243 87.939 108.18 88.3491 108.18C88.6812 108.18 88.9858 108.221 89.2632 108.303C89.5444 108.381 89.7944 108.508 90.0132 108.684C90.2319 108.856 90.4175 109.086 90.5698 109.375C90.7261 109.661 90.8452 110.01 90.9272 110.424C91.0093 110.838 91.0503 111.325 91.0503 111.883ZM89.9604 113.36V111.702C89.9604 111.319 89.937 110.983 89.8901 110.694C89.8472 110.401 89.7827 110.151 89.6968 109.944C89.6108 109.737 89.5015 109.569 89.3687 109.44C89.2397 109.311 89.0894 109.217 88.9175 109.159C88.7495 109.096 88.5601 109.065 88.3491 109.065C88.0913 109.065 87.8628 109.114 87.6636 109.211C87.4644 109.305 87.2964 109.456 87.1597 109.663C87.0269 109.87 86.9253 110.141 86.855 110.477C86.7847 110.813 86.7495 111.221 86.7495 111.702V113.36C86.7495 113.743 86.771 114.081 86.814 114.374C86.8608 114.667 86.9292 114.92 87.019 115.135C87.1089 115.346 87.2183 115.52 87.3472 115.657C87.4761 115.793 87.6245 115.895 87.7925 115.961C87.9644 116.024 88.1538 116.055 88.3608 116.055C88.6265 116.055 88.8589 116.004 89.0581 115.903C89.2573 115.801 89.4233 115.643 89.5562 115.428C89.6929 115.209 89.7944 114.93 89.8608 114.59C89.9272 114.247 89.9604 113.836 89.9604 113.36Z" fill="white"></path><path d="M155.56 415.948C154.753 425.801 151.508 447.497 151.162 448.551C150.617 450.207 151.165 452.318 152.909 452.312L796.319 450.128C799.497 450.118 808.863 435.859 807.951 432.816C807.905 432.664 807.879 432.623 807.807 432.482C804.069 425.176 793.521 400.884 788.874 357.136C785.977 343.535 781.701 351.175 779.77 357.136C778.795 360.25 772.532 373.649 768.137 381.512C765.996 385.342 762.155 387.6 757.771 387.793C751.615 388.065 750.757 386.605 749.146 384.841C747.574 383.31 745.763 379.259 744.258 375.891L744.173 375.702C743.369 373.903 742.856 371.979 742.1 370.16C739.974 365.05 735.405 363.411 732.25 363.17C731.102 363.083 729.903 363.249 728.85 362.783C726.027 361.533 724.667 357.687 724.317 355.625C723.323 352.199 721.144 342.612 720.178 338.246C715.212 322.328 712.591 334.3 711.902 342.276C711.24 346.709 709.833 362.677 709.419 373.003C706.936 389.878 699.487 409.512 693.693 441.247C693.362 445.881 685.279 446.704 681.278 446.536C678.18 446.671 675.773 445.088 674.228 443.472C672.956 442.14 671.927 440.561 671.105 438.913C669.902 436.502 668.882 433.219 668.211 430.633C667.784 428.991 667.327 427.394 666.969 425.735C663.779 410.931 654.093 337.612 645.856 302.094C645.219 299.348 644.17 296.616 642.006 294.81C636.388 290.123 630.106 292.83 626.211 296.026C624.764 297.214 623.714 298.794 622.927 300.493C618.917 309.146 613.719 324.344 608.858 328.44C602.568 334.888 598.409 331.462 596.857 328.44C594.012 322.899 593.753 318.114 592.305 312.824C587.754 296.207 583.783 304.687 582.301 312.488C582.037 313.879 581.728 315.253 581.337 316.614C577.8 328.906 571.062 363.943 566.647 397.926C565.142 409.512 562.095 426.135 557.957 436.21C556.324 440.186 549.266 439.19 544.714 438.728C536.769 437.922 535.058 427.982 533.955 422.861C525.221 390.377 514.587 368.954 503.296 346.844C502.766 345.808 502.201 344.732 501.203 344.133C496.528 341.324 484.731 343.416 479.032 344.759C477.636 345.088 476.164 345.52 474.824 345.011C467.416 342.202 469.698 319.988 470.315 309.416C470.525 305.837 470.144 302.136 469.988 298.554L462.469 125.838C462.398 124.209 462.6 122.536 462.176 120.961C461.617 118.883 460.174 116.616 458.581 115.104C456.617 113.24 453.313 112.583 451.106 114.151C448.109 116.279 446.751 121.683 446.465 124.812C446.36 125.959 446.397 127.114 446.333 128.265L432.98 368.451L426.773 403.971L418.915 438.167C418.636 439.379 418.309 440.68 417.263 441.353C415.781 442.308 413.49 442.628 412.289 442.506L402.357 442.255C394.08 441.499 393.666 435.202 392.839 430.669L371.161 287.314C370.991 286.188 371.097 284.92 370.391 284.026C369.025 282.297 365.044 282.168 359.732 281.845C353.39 281.459 352.151 282.848 350.987 284.311C350.253 285.234 349.414 286.073 348.646 286.967L340.282 296.705C333.247 305.52 328.281 301.658 324.557 298.972C300.736 285.41 293.68 300.069 292.792 312.516C292.658 314.392 292.463 316.252 292.07 318.09C289.381 330.693 281.149 375.229 277.38 411.779C277.711 424.876 272.276 433.355 269.517 435.958C260.625 443.423 255.543 433.026 253.745 425.581L253.692 425.362C253.436 424.301 253.181 423.247 252.958 422.178C251.663 415.979 248.93 396.745 247.584 386.844C242.48 308.011 234.272 224.941 234.272 223.329C234.272 221.717 232.893 207.896 232.203 202.187C230.217 185.866 228.617 195.387 228.065 202.187L226.995 218.019C226.881 219.707 226.638 221.393 226.457 223.074C225.701 230.066 224.509 249.027 223.927 259.094L216.547 366.136L208.063 424.578C207.653 427.401 206.239 432.439 204.178 430.467C203.77 430.076 203.423 429.469 203.142 428.795C202.552 427.375 202.477 425.809 202.477 424.271V420.287L200.653 392.102C200.491 389.585 200.466 387.025 200.359 384.505C200.007 376.287 198.689 356.83 197.925 345.728C197.925 344.519 196.545 319.534 195.855 307.192C195.855 305.177 192.545 258.079 192.545 256.316C192.545 254.905 191.165 240.784 190.476 233.9C190.145 231.482 187.027 197.463 185.51 180.756C185.272 179.021 184.309 175.192 183.479 172.082C182.918 169.98 182.242 167.652 180.34 166.597C177.603 165.079 174.521 167.202 172.142 169.884C170.073 172.217 169.173 175.301 168.792 178.395L168.129 183.779L166.887 205.187L163.163 297.873V322.808L160.776 391.571C160.712 393.413 160.424 395.241 159.919 397.014L156.86 407.755C156.102 410.415 155.785 413.192 155.56 415.948Z" fill="url(#paint2_linear_25_228)"></path><g filter="url(#filter1_f_25_228)"><path d="M147.851 452.329C148.817 451.489 150.831 449.558 151.162 448.551C151.51 447.491 154.789 425.559 155.573 415.785C155.785 413.138 156.067 410.467 156.758 407.902L159.999 395.87C160.452 394.192 160.71 392.468 160.769 390.731L163.163 320.808V295.873L166.887 203.187L168.129 181.779L168.792 176.395C169.173 173.301 170.073 170.217 172.142 167.884C174.521 165.202 177.603 163.079 180.34 164.596C182.242 165.651 182.918 167.98 183.479 170.082C184.309 173.191 185.272 177.021 185.51 178.756C187.027 195.463 190.145 229.482 190.476 231.9C191.165 238.784 192.545 252.905 192.545 254.315C192.545 256.079 195.855 303.177 195.855 305.192C196.545 317.533 197.925 342.518 197.925 343.727C198.693 354.88 200.019 375.094 200.363 383.506C200.466 386.027 200.491 388.585 200.653 391.102L202.477 419.287V423.271C202.477 424.809 202.552 426.375 203.142 427.794C203.423 428.469 203.77 429.076 204.178 429.467C206.239 431.439 207.653 426.401 208.063 423.578L216.547 365.136L223.927 258.093C224.51 248.005 225.707 228.981 226.462 222.027C226.641 220.375 226.883 218.722 227.002 217.064L228.065 202.187C228.617 195.387 230.217 185.866 232.203 202.187C232.893 207.896 234.272 220.717 234.272 222.329C234.272 223.941 242.48 308.011 247.584 386.844C248.93 396.745 251.663 415.979 252.958 422.177C253.197 423.321 253.471 424.446 253.745 425.581C255.543 433.026 260.625 443.423 269.517 435.958C272.276 433.355 277.711 424.876 277.38 411.779C281.149 375.229 289.381 330.693 292.07 318.09C292.463 316.251 292.658 314.391 292.792 312.516C293.68 300.069 300.736 285.41 324.557 298.972C328.281 301.658 333.247 305.52 340.282 296.705L348.646 286.967C349.414 286.072 350.253 285.234 350.987 284.311C352.151 282.848 353.39 281.459 359.732 281.845C365.044 282.168 369.025 282.297 370.391 284.026C371.097 284.92 370.991 286.188 371.161 287.314L392.839 430.669C393.666 435.202 394.08 441.499 402.357 442.254L412.289 442.506C413.49 442.628 415.781 442.308 417.263 441.353C418.309 440.68 418.636 439.379 418.915 438.167L426.773 403.971L432.98 367.451L446.335 125.259C446.398 124.112 446.333 122.962 446.35 121.814C446.382 119.716 446.972 117.245 449.686 116.605C452.542 115.931 455.609 116.423 458.517 116.821C459.857 117.005 461.084 117.411 461.79 118.178C462.856 119.338 462.391 121.181 462.448 122.755L470.024 331.465C470.156 335.104 470.826 339.101 473.875 341.091C476.064 342.519 479.473 343.597 485.039 343.423C486.472 343.378 487.884 343.098 489.266 342.715C493.014 341.675 497.392 340.747 500.509 343.511C501.38 344.284 501.942 345.332 502.472 346.368C513.8 368.499 525.221 390.376 533.955 422.861C535.058 427.982 536.769 437.922 544.714 438.728C549.266 439.19 556.324 440.186 557.957 436.21C562.095 426.135 565.142 409.512 566.647 397.926C571.062 363.943 577.8 328.905 581.337 316.614C581.728 315.253 582.037 313.879 582.301 312.488C583.783 304.687 587.754 296.207 592.305 312.824C593.753 318.113 594.012 322.899 596.857 328.44C598.409 331.462 602.568 334.888 608.858 328.44C613.718 324.344 618.917 309.146 622.927 300.492C623.714 298.794 624.764 297.214 626.211 296.026C630.106 292.83 636.388 290.123 642.006 294.81C644.17 296.616 645.219 299.348 645.856 302.094C654.093 337.611 663.779 410.931 666.969 425.734C667.327 427.393 667.784 428.99 668.211 430.633C668.882 433.218 669.903 436.501 671.105 438.913C671.927 440.561 672.956 442.14 674.228 443.471C675.773 445.088 678.18 446.671 681.278 446.536C685.279 446.704 693.362 445.881 693.693 441.247C699.487 409.512 706.936 389.878 709.419 373.003C709.833 362.677 711.24 346.709 711.902 342.276C712.591 334.3 715.212 322.328 720.178 338.246C721.144 342.612 723.323 352.199 724.317 355.625C724.667 357.687 726.027 361.533 728.85 362.783C729.903 363.249 731.102 363.083 732.25 363.17C735.405 363.411 739.974 365.049 742.1 370.16C742.856 371.979 743.369 373.903 744.173 375.702C745.695 379.105 747.545 383.281 749.146 384.841C750.757 386.605 751.615 388.064 757.771 387.793C762.155 387.6 765.996 385.342 768.137 381.512C772.532 373.648 778.795 360.25 779.77 357.136C781.701 351.175 785.977 343.535 788.874 357.136C793.232 398.167 802.782 422.083 807.034 430.923C807.605 432.108 808.09 433.321 808.562 434.549C810.001 438.289 812.818 443.581 817.015 444.773" stroke="#4FA83D" stroke-opacity="0.48" stroke-width="4.9002"></path></g><path d="M147.851 452.328C148.817 451.488 150.831 449.555 151.162 448.547C151.514 447.474 154.86 425.063 155.597 415.443C155.785 412.99 156.009 410.523 156.588 408.132L160.134 393.483C160.497 391.983 160.706 390.45 160.759 388.908L163.163 318.627V293.671L166.887 200.904L168.034 181.109C168.097 180.022 168.238 178.942 168.456 177.876L169.37 173.394C170.76 168.276 174.203 165.799 177.694 166.117C181.373 166.452 183.372 170.377 184.741 173.809C185.104 174.717 185.393 175.603 185.51 176.452C187.027 193.174 190.145 227.222 190.476 229.642C191.165 236.532 192.545 250.666 192.545 252.077C192.545 253.842 195.855 300.981 195.855 302.998C196.545 315.35 197.925 340.357 197.925 341.567C198.693 352.732 200.02 372.972 200.364 381.387C200.466 383.906 200.49 386.461 200.653 388.977L202.477 417.192V421.184C202.477 422.72 202.552 424.285 203.141 425.704C203.423 426.382 203.771 426.992 204.182 427.384C206.244 429.352 207.653 424.315 208.062 421.494L216.547 362.994L223.927 255.859C224.512 245.733 225.713 226.617 226.468 219.704C226.645 218.086 226.886 216.471 227.009 214.848L228.065 200.904C228.617 194.098 230.217 184.569 232.203 200.904C232.893 206.618 234.272 218.449 234.272 220.063C234.272 221.676 242.48 307.884 247.584 386.786C248.93 396.697 251.664 415.952 252.958 422.153C253.197 423.295 253.471 424.419 253.745 425.554C255.542 433.006 260.624 443.415 269.517 435.942C272.276 433.337 277.711 424.851 277.38 411.742C281.15 375.155 289.383 330.551 292.071 317.941C292.463 316.103 292.658 314.245 292.792 312.372C293.679 299.912 300.733 285.235 324.557 298.811C328.281 301.5 333.247 305.365 340.282 296.542L348.646 286.795C349.414 285.9 350.253 285.061 350.986 284.138C352.15 282.673 353.389 281.283 359.732 281.669C365.047 281.993 369.028 282.122 370.393 283.855C371.097 284.748 370.991 286.015 371.161 287.14L392.839 430.649C393.666 435.186 394.08 441.488 402.357 442.244L412.289 442.497C413.49 442.619 415.783 442.298 417.265 441.341C418.309 440.667 418.636 439.367 418.914 438.156L426.773 403.928L432.98 367.376L446.43 125.397C447.05 121.685 446.534 112.884 454.189 112.884C457.5 112.884 461.75 116.384 461.75 122.634L470.088 333.42C470.179 335.71 470.533 338.014 471.527 340.079C474.095 345.411 477.693 346.96 487.192 343.177C491.29 342.043 496.796 340.091 500.51 343.39C501.38 344.163 501.942 345.211 502.471 346.246C513.799 368.398 525.22 390.32 533.955 422.834C535.058 427.96 536.769 437.909 544.714 438.715C549.266 439.177 556.324 440.174 557.957 436.194C562.095 426.111 565.142 409.474 566.647 397.878C571.063 363.861 577.801 328.766 581.338 316.465C581.729 315.105 582.037 313.732 582.3 312.342C583.782 304.533 587.753 296.041 592.305 312.675C593.753 317.969 594.012 322.759 596.857 328.305C598.409 331.33 602.568 334.758 608.858 328.305C613.719 324.205 618.918 308.991 622.928 300.33C623.715 298.632 624.763 297.052 626.21 295.864C630.105 292.664 636.39 289.952 642.009 294.648C644.171 296.455 645.219 299.185 645.855 301.93C654.092 337.481 663.781 410.903 666.97 425.714C667.327 427.372 667.784 428.968 668.21 430.609C668.881 433.198 669.903 436.487 671.106 438.902C671.928 440.55 672.955 442.129 674.227 443.461C675.771 445.079 678.179 446.665 681.278 446.53C685.279 446.698 693.362 445.874 693.693 441.236C699.487 409.474 706.936 389.765 709.419 372.875C709.833 362.54 711.24 346.558 711.902 342.121C712.591 334.139 715.212 322.156 720.178 338.088C721.144 342.457 723.323 352.053 724.317 355.482C724.667 357.546 726.027 361.394 728.849 362.646C729.902 363.113 731.103 362.946 732.252 363.034C735.408 363.275 739.977 364.916 742.101 370.034C742.856 371.852 743.368 373.775 744.172 375.572C745.694 378.98 747.544 383.162 749.146 384.723C750.757 386.489 751.615 387.949 757.767 387.678C762.153 387.485 765.996 385.225 768.137 381.392C772.532 373.521 778.795 360.111 779.77 356.994C781.701 351.028 785.977 343.382 788.874 356.994C793.232 398.065 802.784 422.053 807.036 430.905C807.605 432.09 808.09 433.303 808.561 434.53C810 438.273 812.817 443.572 817.015 444.765" stroke="#4FA83D" stroke-width="1.83757"></path><path d="M108.993 79.5942V92.3911H106.804V79.5942H108.993ZM113.009 79.5942V81.3521H102.823V79.5942H113.009ZM114.495 78.8911H116.613V90.3608L116.411 92.3911H114.495V78.8911ZM122.818 87.5483V87.7329C122.818 88.436 122.739 89.0835 122.581 89.6753C122.428 90.2612 122.194 90.771 121.877 91.2046C121.567 91.6382 121.18 91.9751 120.717 92.2153C120.26 92.4497 119.73 92.5669 119.126 92.5669C118.535 92.5669 118.019 92.4556 117.58 92.2329C117.14 92.0103 116.771 91.6938 116.472 91.2837C116.179 90.8735 115.942 90.3843 115.76 89.8159C115.579 89.2476 115.45 88.6206 115.374 87.9351V87.3462C115.45 86.6548 115.579 86.0278 115.76 85.4653C115.942 84.897 116.179 84.4077 116.472 83.9976C116.771 83.5815 117.137 83.2622 117.571 83.0396C118.01 82.8169 118.523 82.7056 119.109 82.7056C119.718 82.7056 120.254 82.8228 120.717 83.0571C121.186 83.2915 121.576 83.6255 121.886 84.0591C122.197 84.4868 122.428 84.9966 122.581 85.5884C122.739 86.1802 122.818 86.8335 122.818 87.5483ZM120.7 87.7329V87.5483C120.7 87.1206 120.665 86.7192 120.594 86.3442C120.524 85.9634 120.407 85.6294 120.243 85.3423C120.084 85.0552 119.868 84.8296 119.592 84.6655C119.323 84.4956 118.986 84.4106 118.582 84.4106C118.207 84.4106 117.884 84.4751 117.615 84.604C117.345 84.7329 117.12 84.9087 116.938 85.1313C116.756 85.354 116.613 85.6118 116.507 85.9048C116.408 86.1978 116.34 86.5142 116.305 86.854V88.4448C116.358 88.8843 116.469 89.2886 116.639 89.6577C116.815 90.021 117.061 90.314 117.377 90.5366C117.694 90.7534 118.101 90.8618 118.599 90.8618C118.992 90.8618 119.323 90.7827 119.592 90.6245C119.862 90.4663 120.076 90.2466 120.234 89.9653C120.398 89.6782 120.515 89.3442 120.585 88.9634C120.662 88.5825 120.7 88.1724 120.7 87.7329ZM126.738 84.7095V96.0474H124.62V82.8813H126.571L126.738 84.7095ZM132.934 87.5483V87.7329C132.934 88.4243 132.852 89.0659 132.688 89.6577C132.53 90.2437 132.292 90.7563 131.976 91.1958C131.666 91.6294 131.282 91.9663 130.825 92.2065C130.368 92.4468 129.84 92.5669 129.243 92.5669C128.651 92.5669 128.132 92.4585 127.687 92.2417C127.248 92.019 126.875 91.7056 126.571 91.3013C126.266 90.897 126.02 90.4224 125.833 89.8774C125.651 89.3267 125.522 88.7231 125.446 88.0669V87.355C125.522 86.6577 125.651 86.0249 125.833 85.4565C126.02 84.8882 126.266 84.3989 126.571 83.9888C126.875 83.5786 127.248 83.2622 127.687 83.0396C128.126 82.8169 128.639 82.7056 129.225 82.7056C129.823 82.7056 130.353 82.8228 130.816 83.0571C131.279 83.2856 131.668 83.6138 131.985 84.0415C132.301 84.4634 132.539 84.9731 132.697 85.5708C132.855 86.1626 132.934 86.8218 132.934 87.5483ZM130.816 87.7329V87.5483C130.816 87.1089 130.775 86.7017 130.693 86.3267C130.611 85.9458 130.482 85.6118 130.306 85.3247C130.13 85.0376 129.905 84.8149 129.629 84.6567C129.36 84.4927 129.035 84.4106 128.654 84.4106C128.279 84.4106 127.957 84.4751 127.687 84.604C127.417 84.7271 127.192 84.8999 127.01 85.1226C126.829 85.3452 126.688 85.606 126.588 85.9048C126.489 86.1978 126.418 86.5171 126.377 86.8628V88.5679C126.448 88.9897 126.568 89.3765 126.738 89.728C126.908 90.0796 127.148 90.3608 127.458 90.5718C127.775 90.7769 128.179 90.8794 128.671 90.8794C129.052 90.8794 129.377 90.7974 129.647 90.6333C129.917 90.4692 130.136 90.2437 130.306 89.9565C130.482 89.6636 130.611 89.3267 130.693 88.9458C130.775 88.5649 130.816 88.1606 130.816 87.7329ZM140.071 89.8159C140.071 89.605 140.018 89.4146 139.913 89.2446C139.807 89.0688 139.605 88.9106 139.306 88.77C139.013 88.6294 138.58 88.5005 138.005 88.3833C137.501 88.272 137.039 88.1401 136.617 87.9878C136.201 87.8296 135.843 87.6392 135.544 87.4165C135.246 87.1938 135.014 86.9302 134.85 86.6255C134.686 86.3208 134.604 85.9692 134.604 85.5708C134.604 85.1841 134.689 84.8179 134.859 84.4722C135.029 84.1265 135.272 83.8218 135.588 83.5581C135.905 83.2944 136.289 83.0864 136.74 82.9341C137.197 82.7817 137.707 82.7056 138.269 82.7056C139.066 82.7056 139.749 82.8403 140.317 83.1099C140.891 83.3735 141.331 83.7339 141.635 84.1909C141.94 84.6421 142.092 85.1519 142.092 85.7202H139.974C139.974 85.4683 139.91 85.2339 139.781 85.0171C139.658 84.7944 139.47 84.6157 139.218 84.481C138.966 84.3403 138.65 84.27 138.269 84.27C137.906 84.27 137.604 84.3286 137.364 84.4458C137.129 84.5571 136.954 84.7036 136.836 84.8853C136.725 85.0669 136.669 85.2661 136.669 85.4829C136.669 85.6411 136.699 85.7847 136.757 85.9136C136.822 86.0366 136.927 86.1509 137.074 86.2563C137.22 86.356 137.419 86.4497 137.671 86.5376C137.929 86.6255 138.251 86.7104 138.638 86.7925C139.365 86.9448 139.989 87.1411 140.51 87.3813C141.038 87.6157 141.442 87.9204 141.723 88.2954C142.004 88.6646 142.145 89.1333 142.145 89.7017C142.145 90.1235 142.054 90.5103 141.873 90.8618C141.697 91.2075 141.439 91.5093 141.099 91.7671C140.759 92.019 140.352 92.2153 139.877 92.356C139.409 92.4966 138.881 92.5669 138.295 92.5669C137.434 92.5669 136.705 92.4146 136.107 92.1099C135.509 91.7993 135.055 91.4038 134.745 90.9233C134.44 90.437 134.288 89.9331 134.288 89.4116H136.335C136.359 89.8042 136.467 90.1177 136.661 90.3521C136.86 90.5806 137.106 90.7476 137.399 90.853C137.698 90.9526 138.005 91.0024 138.322 91.0024C138.703 91.0024 139.022 90.9526 139.28 90.853C139.538 90.7476 139.734 90.6069 139.869 90.4312C140.003 90.2495 140.071 90.0444 140.071 89.8159Z" fill="#CFCFCF"></path><defs><filter id="filter0_b_25_228" x="-15.1694" y="-14.5049" width="953.339" height="555.976" color-interpolation-filters="sRGB"><feGaussianBlur stdDeviation="7.5847"></feGaussianBlur></filter><filter id="filter1_f_25_228" x="139.443" y="107.023" width="685.041" height="353.955" color-interpolation-filters="sRGB"><feGaussianBlur stdDeviation="3.4"></feGaussianBlur></filter><linearGradient id="paint0_linear_25_228" x1="0" y1="0.664551" x2="933.3" y2="495.942" gradientUnits="userSpaceOnUse"><stop></stop><stop offset="1" stop-color="#2D2D2D"></stop></linearGradient><linearGradient id="paint1_linear_25_228" x1="0" y1="0.664551" x2="927.93" y2="500.712" gradientUnits="userSpaceOnUse"><stop stop-color="#525252"></stop><stop offset="1" stop-color="#CFCFCF" stop-opacity="0.35"></stop></linearGradient><linearGradient id="paint2_linear_25_228" x1="481.812" y1="90.0901" x2="481.812" y2="452.329" gradientUnits="userSpaceOnUse"><stop stop-color="#4FA83D" stop-opacity="0.47"></stop><stop offset="0.92752" stop-color="#4FA83D" stop-opacity="0.02"></stop></linearGradient></defs></svg>