<svg xmlns="http://www.w3.org/2000/svg" width="2384" height="979" viewBox="0 0 2384 979" fill="none"><g opacity="0.2" filter="url(#filter0_f_3_1422)"><ellipse cx="814.294" cy="401.618" rx="268.08" ry="150.817" fill="#4FA83D"></ellipse></g><g opacity="0.2"><path d="M955.908 475.519C918.334 475.14 878.35 476.587 831.058 480.019C705.173 489.147 612.902 516.454 523.661 542.852C489.476 552.965 454.128 563.426 417.948 572.474C355.122 588.26 291.749 598.597 214.583 597.819C154.113 597.21 85.1763 589.779 1.3568 572.793L1.28414 572.898C48.7319 582.51 91.7269 589.183 132.686 593.287C171.026 597.132 206.498 598.61 241.133 597.801C272.618 597.073 302.947 594.447 333.84 589.782C360.302 585.786 387.855 580.155 418.047 572.573C454.241 563.525 489.59 553.063 523.775 542.951C613.001 516.553 705.258 489.261 831.099 480.132C907.04 474.621 1007.21 470.699 1108.78 489.449C1173.94 501.473 1237.56 520.172 1297.91 545.025C1368.91 574.271 1442.35 597.948 1516.21 615.405C1584.83 631.621 1653.55 642.432 1720.43 647.527C1747.8 649.615 1774.57 650.794 1800.85 651.059C1864.94 651.705 1926.12 646.916 1986.22 636.629C2072.46 621.861 2157.91 595.53 2247.44 556.122L2247.29 556.031C2096.73 622.294 1956.17 652.512 1801.03 650.948C1774.63 650.682 1747.81 649.494 1720.45 647.414C1581.07 636.793 1435 601.355 1298.03 544.936C1266.9 532.105 1234.69 520.835 1202.3 511.434C1171.88 502.602 1140.45 495.166 1108.86 489.337C1064.16 481.091 1017.29 476.611 965.544 475.654C962.351 475.599 959.144 475.552 955.908 475.519Z" stroke="url(#paint0_linear_3_1422)" stroke-miterlimit="10"></path><path d="M909.286 470.374C890.184 470.181 870.048 470.377 848.375 470.955C784.731 472.652 725.175 479.359 660.919 492.07C604.211 503.287 552.801 517.376 498.361 532.298C474.379 538.868 449.578 545.67 424.495 552.13C299.622 584.536 190.398 595.922 1.688 558.19L1.52829 558.407C49.9063 568.074 93.4038 574.616 134.538 578.392C172.982 581.922 208.558 582.964 243.314 581.578C274.603 580.33 305.239 577.083 336.985 571.651C363.496 567.122 391.368 560.983 424.679 552.335C449.763 545.874 474.563 539.073 498.545 532.503C606.621 502.882 708.708 474.908 848.386 471.189C923.218 469.199 1021.51 470.084 1118.12 494.814C1179.48 510.529 1241.01 531.492 1301 557.131C1372.99 587.905 1448.6 611.146 1525.74 626.207C1561.31 633.151 1597.13 638.309 1632.2 641.526C1665.82 644.609 1698.96 645.951 1730.72 645.481C1824.77 644.114 1907.23 635.976 1990.19 619.883C2074.25 603.574 2159.62 578.972 2258.84 542.466L2258.58 542.275C2064.54 613.678 1916.51 642.55 1730.69 645.256C1723.5 645.364 1716.27 645.381 1709.01 645.308C1575.94 643.966 1432.04 612.881 1301.26 556.968C1241.24 531.314 1179.69 510.335 1118.3 494.621C1076.43 483.899 1031.7 476.923 981.548 473.275C958.58 471.593 934.86 470.632 909.286 470.374Z" stroke="url(#paint1_linear_3_1422)" stroke-miterlimit="10"></path><path d="M832.465 460.939C698.524 459.589 590.351 488.826 476.32 519.635C461.558 523.621 446.294 527.744 431.059 531.778C313.327 563.204 206.972 584.031 2.03609 543.587L1.81804 543.908C96.4898 562.589 173.939 569.399 245.555 565.34C310.077 561.682 366.496 549.403 431.371 532.082C446.606 528.048 461.87 523.924 476.632 519.938C590.577 489.144 698.706 459.929 832.476 461.278C843.373 461.388 854.426 461.702 865.676 462.229C956.798 466.53 1045.38 472.663 1127.48 500.156C1184.7 519.317 1242.48 541.912 1304.13 569.229C1374.84 600.562 1452.64 622.516 1535.34 634.468C1602.79 644.222 1672.01 647.235 1741.06 643.413C1827.22 638.651 1905.4 627.305 1994.55 606.628C2078.21 587.225 2165.23 561.023 2270.31 528.786L2269.97 528.482C2059.62 593.022 1921.52 633.083 1740.99 643.067C1631.81 649.101 1467.49 641.144 1304.56 568.963C1242.88 541.638 1185.07 519.035 1127.84 499.867C1090.06 487.209 1047.46 478.067 997.615 471.896C951.989 466.249 905.616 463.767 865.723 461.884C854.458 461.364 843.377 461.049 832.465 460.939Z" stroke="url(#paint2_linear_3_1422)" stroke-miterlimit="10"></path><path d="M825.059 450.592C768.656 450.023 712.119 454.16 653.658 463.08C577.886 474.646 505.05 493.15 437.616 511.437C301.625 548.626 204.475 568.365 2.37729 528.987L2.08651 529.42C98.0041 548.114 176.075 554.374 247.774 549.113C315.962 544.117 374.282 529.278 438.027 511.848C575.739 474.511 713.402 441.926 882.959 453.296C987.115 460.269 1070.15 477.352 1136.8 505.517C1191.06 528.444 1244.17 552.413 1307.24 581.345C1378.71 614.129 1458.71 635.181 1545 643.922C1630.09 652.538 1704.21 647.293 1751.43 641.372C1877.18 625.604 1975.45 598.395 2099.87 563.947C2152.92 549.258 2213.05 532.611 2281.71 515.14L2281.31 514.723C2212.64 532.193 2152.5 548.841 2099.45 563.529C1975.08 597.963 1876.84 625.164 1751.21 640.918C1659.48 652.428 1479.88 659.933 1307.8 580.99C1244.72 552.057 1191.59 528.089 1137.33 505.154C1070.54 476.928 987.363 459.813 883.05 452.823C863.701 451.538 844.39 450.787 825.059 450.592Z" stroke="url(#paint3_linear_3_1422)" stroke-width="1.5" stroke-miterlimit="10"></path><path d="M799.347 437.456C756.575 437.025 713.46 439.424 669.228 444.647C600.909 452.724 529.415 467.475 444.198 491.087C310.999 528.295 214.765 555.179 2.74336 514.378L2.37992 514.915C100.873 533.86 177.246 539.404 250.032 532.876C319.178 526.671 380.155 509.634 444.737 491.596C622.782 442.269 758.999 428.141 900.253 444.329C1000.87 455.868 1083.6 478.256 1146.14 510.845C1194.48 536.028 1251.01 565.255 1310.38 593.429C1382.81 627.794 1465.01 647.928 1554.68 653.268C1641.74 658.453 1715.39 648.527 1761.87 639.29C1846.9 622.39 1917.15 601.605 1991.53 579.598C2073.06 555.476 2165.44 528.14 2293.15 501.461L2292.73 500.931C2164.96 527.624 2072.52 554.967 1990.97 579.097C1916.63 601.089 1846.42 621.867 1761.46 638.752C1686.45 653.656 1492.45 679.043 1311.12 593.001C1251.76 564.834 1195.24 535.614 1146.92 510.431C1084.21 477.758 1001.3 455.324 900.473 443.76C866.715 439.902 833.126 437.796 799.347 437.456Z" stroke="url(#paint4_linear_3_1422)" stroke-width="2" stroke-miterlimit="10"></path><path d="M778.06 422.666C675.262 421.63 568.514 437.477 450.749 470.744L440.394 473.692C301.988 513.148 210.546 539.215 3.07874 499.776L2.64257 500.425C210.653 539.976 302.296 513.85 441.032 474.307L451.387 471.359C622.879 422.906 770.984 411.476 917.458 435.386C1016.08 451.483 1096.14 478.67 1155.41 516.187C1212.15 552.093 1262.37 580.49 1313.46 605.551C1386.96 641.603 1471.31 660.789 1564.18 662.59C1566.44 662.635 1568.71 662.665 1570.95 662.688C1662.25 663.608 1735.95 647.248 1772.23 637.239C1832.8 620.536 1884.81 602.589 1935.09 585.234C2032.71 551.546 2133.64 516.718 2304.49 487.828L2304.06 487.169C2133.06 516.088 2032.04 550.945 1934.35 584.655C1884.08 602.003 1832.11 619.935 1771.59 636.624C1712.6 652.892 1505.29 698.69 1314.33 605.048C1263.28 580.011 1213.1 551.636 1156.4 515.754C1096.97 478.129 1016.69 450.873 917.808 434.728C871.629 427.18 825.256 423.149 778.06 422.666Z" stroke="url(#paint5_linear_3_1422)" stroke-width="2" stroke-miterlimit="10"></path><path d="M760.583 406.678C740.565 406.476 720.44 406.927 700.237 408.031C621.902 412.316 540.159 426.573 457.303 450.404C448.399 452.983 439.709 455.519 431.235 457.997C296.281 497.414 207.13 523.451 3.43179 485.177L2.93729 485.931C99.0188 503.988 172.95 508.868 242.62 501.744C307.187 495.148 362.269 479.059 432.001 458.697C440.49 456.219 449.165 453.682 458.07 451.103C625.233 403.02 785.593 394.721 934.695 426.415C1030.14 446.705 1109.67 479.578 1164.73 521.496C1215.46 560.13 1265.14 591.574 1316.59 617.638C1391.24 655.454 1477.68 673.668 1573.6 671.839C1644.96 670.46 1721.17 657.088 1782.68 635.147C1828.86 618.675 1868.65 602.243 1907.13 586.348C2012.99 542.631 2112.96 501.344 2315.9 474.16L2315.51 473.382C2112.27 500.6 2012.16 541.946 1906.18 585.714C1867.73 601.595 1827.95 618.019 1781.81 634.484C1665.48 675.99 1474.13 696.329 1317.66 617.063C1266.29 591.045 1216.67 559.639 1165.99 521.05C1110.77 479.003 1030.98 446.022 935.261 425.677C878.601 413.641 820.065 407.277 760.583 406.678Z" stroke="url(#paint6_linear_3_1422)" stroke-width="2" stroke-miterlimit="10"></path><path d="M747.481 389.566C736.899 389.46 726.286 389.541 715.643 389.809C632.734 391.913 548.02 405.456 463.867 430.063C449.719 434.22 436.231 438.272 423.174 442.185C286.744 483.127 204.409 507.843 3.77953 470.57L3.18358 471.443C97.9379 489.043 170.526 493.661 238.579 486.408C301.787 479.678 355.738 463.487 424.025 442.99C437.082 439.07 450.57 435.018 464.704 430.868C631.386 382.134 799.83 377.502 951.871 417.458C1045.69 442.122 1122.5 479.937 1173.98 526.818C1220.37 569.069 1268.02 602.733 1319.65 629.739C1394.38 668.833 1485.38 686.598 1582.8 681.107C1687.95 675.183 1764.89 645.541 1793.08 633.068C1830.69 616.434 1863.2 600.388 1894.65 584.872C2008.92 528.475 2099.17 483.932 2327.22 460.52L2326.86 459.614C2222.07 470.376 2139.33 486.367 2066.49 509.953C2000.72 531.249 1948.6 556.969 1893.42 584.198C1861.99 599.706 1829.49 615.745 1791.93 632.364C1698.39 673.739 1493.9 719.604 1320.87 629.105C1269.36 602.16 1221.81 568.558 1175.49 526.382C1123.84 479.334 1046.76 441.389 952.624 416.646C886.908 399.354 818.032 390.277 747.481 389.566Z" stroke="url(#paint7_linear_3_1422)" stroke-width="2" stroke-miterlimit="10"></path><path d="M737.59 371.665C735.385 371.643 733.18 371.628 730.96 371.621C643.964 371.405 556.307 384.219 470.413 409.711C451.208 415.434 433.338 420.952 416.056 426.289C282.702 467.48 202.213 492.35 4.09521 455.966L3.46956 456.945C202.459 493.487 283.25 468.531 417.078 427.193C434.345 421.857 452.216 416.339 471.406 410.623C638.671 360.977 815.41 360.225 969.085 408.483C1061.49 437.508 1135.56 480.264 1183.29 532.129C1225.65 578.144 1271.27 614.036 1322.77 641.837C1384.65 675.246 1456.36 692.395 1535.59 692.848C1646.33 693.46 1746.61 661.28 1803.54 630.963C1835.89 613.735 1863.88 597.388 1890.94 581.58C2006.35 514.158 2089.75 465.442 2338.6 446.863L2338.29 445.837C2223.43 454.415 2135.88 470.199 2062.81 495.512C1995.96 518.67 1946.6 547.499 1889.46 580.888C1862.4 596.689 1834.44 613.029 1802.12 630.242C1745.48 660.411 1645.7 692.424 1535.58 691.818C1534.73 691.809 1533.89 691.808 1533.04 691.8C1455.26 691.016 1385 673.971 1324.17 641.129C1272.82 613.405 1227.31 577.612 1185.06 531.696C1137.15 479.649 1062.82 436.739 970.068 407.605C896.749 384.561 818.566 372.481 737.59 371.665Z" stroke="url(#paint8_linear_3_1422)" stroke-width="2" stroke-miterlimit="10"></path><path d="M730.346 353.145C644.918 352.284 559.774 364.446 476.964 389.368C452.803 396.649 430.922 403.616 409.76 410.349C279.267 451.893 200.494 476.96 4.44486 441.357L3.76087 442.44C200.782 478.226 279.885 453.049 410.925 411.33C432.072 404.597 453.939 397.638 478.085 390.364C649.192 338.87 829.671 342.11 986.291 399.493C1076.14 432.402 1149.41 481.39 1192.61 537.42C1231.03 587.251 1274.62 625.355 1325.89 653.921C1387.22 688.099 1458.6 704.944 1537.95 704.052C1655.49 702.696 1760.1 662.695 1813.99 628.852C1843.03 610.613 1868.06 593.485 1892.29 576.919C2003.05 501.143 2083.07 446.393 2349.97 433.191L2349.73 432.046C2081.89 445.291 2001.63 500.204 1890.53 576.21C1866.34 592.768 1841.3 609.889 1812.29 628.113C1758.7 661.772 1654.67 701.56 1537.86 702.908C1459.1 703.806 1388.35 687.072 1327.46 653.147C1276.39 624.689 1232.94 586.707 1194.62 537.011C1151.26 480.777 1077.71 431.606 987.517 398.566C912.553 371.099 831.351 355.922 746.167 353.462C740.899 353.304 735.616 353.198 730.346 353.145Z" stroke="url(#paint9_linear_3_1422)" stroke-width="3" stroke-miterlimit="10"></path><path d="M726 334.085C644.423 333.263 562.434 344.969 483.514 369.027C454.511 377.869 428.921 386.264 404.194 394.382C276.331 436.351 199.16 461.675 4.77911 426.75L4.02231 427.952C199.489 463.076 277.02 437.628 405.486 395.462C430.199 387.352 455.775 378.957 484.749 370.122C610.714 331.72 744.565 324.95 871.819 350.523C1020.21 380.353 1143.59 452.197 1201.88 542.72C1236.92 597.133 1281.1 639.423 1333.22 668.418C1379.03 693.907 1431.08 709.264 1487.92 714.062C1549.88 719.302 1617.52 711.76 1683.48 692.269C1738.06 676.145 1789.42 652.26 1824.41 626.744C1851.3 607.138 1874.33 588.861 1896.6 571.178C2005.94 484.405 2078.18 427.08 2361.3 419.529L2361.14 418.265C2076.82 425.849 2004.32 483.381 1894.59 570.466C1872.33 588.134 1849.3 606.396 1822.46 625.987C1754.36 675.655 1620.73 724.008 1488.27 712.825C1367.67 702.641 1269.43 643.688 1204.16 542.337C1145.64 451.458 1021.71 379.316 872.647 349.351C824.455 339.656 775.301 334.582 726 334.085Z" stroke="url(#paint10_linear_3_1422)" stroke-width="3" stroke-miterlimit="10"></path></g><g opacity="0.3" filter="url(#filter1_f_3_1422)"><ellipse cx="1844.7" cy="353.767" rx="299.281" ry="113.767" fill="#4FA83D"></ellipse></g><g opacity="0.3" filter="url(#filter2_f_3_1422)"><ellipse cx="1964.34" cy="676.785" rx="163.251" ry="62.0573" fill="#4FA83D"></ellipse></g><g opacity="0.3" filter="url(#filter3_f_3_1422)"><ellipse cx="1335.72" cy="561.631" rx="163.251" ry="62.0573" fill="#4FA83D"></ellipse></g><defs><filter id="filter0_f_3_1422" x="345.125" y="49.7118" width="938.338" height="703.813" color-interpolation-filters="sRGB"><feGaussianBlur stdDeviation="100.545"></feGaussianBlur></filter><filter id="filter1_f_3_1422" x="1305.42" y="-1.52588e-05" width="1078.56" height="707.533" color-interpolation-filters="sRGB"><feGaussianBlur stdDeviation="120"></feGaussianBlur></filter><filter id="filter2_f_3_1422" x="1561.09" y="374.728" width="806.503" height="604.115" color-interpolation-filters="sRGB"><feGaussianBlur stdDeviation="120"></feGaussianBlur></filter><filter id="filter3_f_3_1422" x="932.471" y="259.574" width="806.503" height="604.115" color-interpolation-filters="sRGB"><feGaussianBlur stdDeviation="120"></feGaussianBlur></filter><linearGradient id="paint0_linear_3_1422" x1="1123.56" y1="644.232" x2="1125.24" y2="477.226" gradientUnits="userSpaceOnUse"><stop stop-color="#4FA83D" stop-opacity="0.1"></stop><stop offset="1" stop-color="#4FA83D" stop-opacity="0.4"></stop></linearGradient><linearGradient id="paint1_linear_3_1422" x1="1129.29" y1="639.68" x2="1130.97" y2="472.608" gradientUnits="userSpaceOnUse"><stop stop-color="#4FA83D" stop-opacity="0.1"></stop><stop offset="1" stop-color="#4FA83D" stop-opacity="0.4"></stop></linearGradient><linearGradient id="paint2_linear_3_1422" x1="1135.02" y1="639.548" x2="1136.79" y2="464.007" gradientUnits="userSpaceOnUse"><stop stop-color="#4FA83D" stop-opacity="0.1"></stop><stop offset="1" stop-color="#4FA83D" stop-opacity="0.4"></stop></linearGradient><linearGradient id="paint3_linear_3_1422" x1="1140.68" y1="643.516" x2="1142.59" y2="453.792" gradientUnits="userSpaceOnUse"><stop stop-color="#4FA83D" stop-opacity="0.1"></stop><stop offset="1" stop-color="#4FA83D" stop-opacity="0.4"></stop></linearGradient><linearGradient id="paint4_linear_3_1422" x1="1146.33" y1="650.135" x2="1148.44" y2="440.975" gradientUnits="userSpaceOnUse"><stop stop-color="#4FA83D" stop-opacity="0.1"></stop><stop offset="1" stop-color="#4FA83D" stop-opacity="0.4"></stop></linearGradient><linearGradient id="paint5_linear_3_1422" x1="1151.91" y1="658.464" x2="1154.25" y2="426.458" gradientUnits="userSpaceOnUse"><stop stop-color="#4FA83D" stop-opacity="0.1"></stop><stop offset="1" stop-color="#4FA83D" stop-opacity="0.4"></stop></linearGradient><linearGradient id="paint6_linear_3_1422" x1="1157.52" y1="667.936" x2="1160.12" y2="410.705" gradientUnits="userSpaceOnUse"><stop stop-color="#4FA83D" stop-opacity="0.1"></stop><stop offset="1" stop-color="#4FA83D" stop-opacity="0.4"></stop></linearGradient><linearGradient id="paint7_linear_3_1422" x1="1163.06" y1="678.228" x2="1165.93" y2="393.784" gradientUnits="userSpaceOnUse"><stop stop-color="#4FA83D" stop-opacity="0.1"></stop><stop offset="1" stop-color="#4FA83D" stop-opacity="0.4"></stop></linearGradient><linearGradient id="paint8_linear_3_1422" x1="1168.64" y1="689.154" x2="1171.8" y2="376.042" gradientUnits="userSpaceOnUse"><stop stop-color="#4FA83D" stop-opacity="0.1"></stop><stop offset="1" stop-color="#4FA83D" stop-opacity="0.4"></stop></linearGradient><linearGradient id="paint9_linear_3_1422" x1="1174.22" y1="700.506" x2="1177.67" y2="357.654" gradientUnits="userSpaceOnUse"><stop stop-color="#4FA83D" stop-opacity="0.1"></stop><stop offset="1" stop-color="#4FA83D" stop-opacity="0.4"></stop></linearGradient><linearGradient id="paint10_linear_3_1422" x1="1179.76" y1="712.206" x2="1183.52" y2="338.697" gradientUnits="userSpaceOnUse"><stop stop-color="#4FA83D" stop-opacity="0.06"></stop><stop offset="1" stop-color="#4FA83D" stop-opacity="0.4"></stop></linearGradient></defs></svg>