<svg xmlns="http://www.w3.org/2000/svg" width="169" height="117" viewBox="0 0 169 117" fill="none"><g id="Group 1261153597"><g id="Group"><g id="Group_2"><g id="Group_3"><path id="Vector" d="M166.549 32.873H157.633C156.442 32.873 155.478 31.9081 155.478 30.7179C155.478 29.5278 156.442 28.5625 157.633 28.5625H166.549C167.74 28.5625 168.704 29.5274 168.704 30.7179C168.705 31.9081 167.74 32.873 166.549 32.873Z" fill="url(#paint0_radial_1_1542)"></path></g><g id="Group_4"><path id="Vector_2" d="M160.277 30.7236C160.278 31.028 160.032 31.2758 159.727 31.2769C159.423 31.2779 159.175 31.0318 159.174 30.7271C159.173 30.4227 159.419 30.1749 159.724 30.1738C160.028 30.1731 160.276 30.4192 160.277 30.7236Z" fill="white"></path><path id="Vector_3" d="M162.643 30.7158C162.644 31.0202 162.398 31.268 162.093 31.2691C161.789 31.2701 161.541 31.024 161.54 30.7193C161.539 30.4145 161.785 30.1671 162.09 30.166C162.395 30.1653 162.642 30.4114 162.643 30.7158Z" fill="white"></path><path id="Vector_4" d="M165.007 30.708C165.008 31.0128 164.762 31.2602 164.458 31.2613C164.153 31.2623 163.905 31.0162 163.904 30.7115C163.903 30.4071 164.149 30.1592 164.454 30.1582C164.759 30.1572 165.006 30.4033 165.007 30.708Z" fill="white"></path></g></g><g id="Group_5"><g id="Group_6"><path id="Vector_5" d="M29.9688 38.106H10.0773C8.95654 38.106 8.04785 37.1974 8.04785 36.0766V18.6505C8.04785 17.5298 8.95654 16.6211 10.0773 16.6211H29.9688C31.0895 16.6211 31.9982 17.5298 31.9982 18.6505V36.0766C31.9982 37.1974 31.0899 38.106 29.9688 38.106Z" fill="#C8FFA7"></path><path id="Vector_6" d="M20.0234 35.5308L26.1794 41.3376C26.4863 41.6271 26.9909 41.4095 26.9909 40.9878V33.7783L20.0234 35.5308Z" fill="#C8FFA7"></path></g><g id="Group_7"><path id="Vector_7" d="M12.2178 20.5941C14.4126 18.3993 14.4126 14.8409 12.2178 12.6461C10.0231 10.4514 6.46464 10.4514 4.26987 12.6461C2.07511 14.8409 2.07511 18.3993 4.26987 20.5941C6.46464 22.7889 10.0231 22.7889 12.2178 20.5941Z" fill="url(#paint1_radial_1_1542)"></path><path id="Vector_8" d="M5.74414 16.9019L7.84821 18.4388L10.3511 15.2598" stroke="white" stroke-width="0.969357" stroke-miterlimit="10" stroke-linecap="round" stroke-linejoin="round"></path></g><path id="Vector_9" d="M25.0429 26.0213L24.2106 25.8755C24.1131 25.5128 23.9687 25.1643 23.7812 24.8391L24.2665 24.1474C24.4449 23.8933 24.4147 23.5476 24.195 23.3282L23.6965 22.8298C23.4737 22.6143 23.1284 22.5896 22.8774 22.7715L22.1857 23.2567C21.8604 23.0689 21.512 22.9246 21.1489 22.8274L21.0059 21.9763C20.9538 21.6743 20.6945 21.4518 20.3881 21.4463H19.6696C19.3582 21.4456 19.0917 21.6695 19.0386 21.9763L18.8928 22.8062C18.5301 22.9037 18.1816 23.0481 17.8564 23.2355L17.1671 22.7715C16.913 22.5931 16.5673 22.6233 16.3479 22.843L15.8495 23.3414C15.6298 23.5608 15.5996 23.9065 15.778 24.1605L16.2632 24.8523C16.0755 25.1775 15.9311 25.526 15.8339 25.8887L15.004 26.0345C14.6972 26.0876 14.4733 26.3542 14.4736 26.6655V27.3708C14.4729 27.6821 14.6968 27.9487 15.004 28.0018L15.8339 28.1476C15.9311 28.5103 16.0755 28.8588 16.2632 29.184L15.778 29.8758C15.5996 30.1298 15.6298 30.4755 15.8495 30.6949L16.3479 31.1933C16.5673 31.413 16.913 31.4432 17.1671 31.2648L17.8588 30.7796C18.184 30.9674 18.5325 31.1117 18.8952 31.2089L19.041 32.0388C19.0941 32.3457 19.3607 32.5695 19.672 32.5692H20.3877C20.6991 32.5699 20.9656 32.346 21.0187 32.0388L21.1645 31.2089C21.5272 31.1117 21.8757 30.9674 22.2009 30.7796L22.8771 31.2541C23.1311 31.4325 23.4768 31.4023 23.6962 31.1826L24.1946 30.6841C24.4143 30.4648 24.4445 30.1191 24.2661 29.865L23.7809 29.1677C23.9687 28.8425 24.1131 28.494 24.2102 28.1313L25.0426 27.9855C25.3494 27.9324 25.5736 27.6658 25.5729 27.3545V26.6492C25.5726 26.3392 25.3487 26.0741 25.0429 26.0213ZM20.0219 28.9056C18.9705 28.9056 18.1184 28.0535 18.1184 27.0022C18.1184 25.9508 18.9705 25.0987 20.0219 25.0987C21.0732 25.0987 21.9253 25.9508 21.9253 27.0022C21.9253 27.0057 21.9253 27.0091 21.9253 27.0129C21.9194 28.0598 21.0691 28.9056 20.0219 28.9056Z" fill="#100C25"></path></g></g><g id="Group_8"><g id="Group_9"><g id="Group_10"><g id="Group_11"><g id="Group_12"><path id="Vector_10" d="M61.4917 101.13C61.4917 103.283 63.2376 105.029 65.3913 105.029H142.688C144.842 105.029 146.588 103.283 146.588 101.13V31.3643H61.4914V101.13H61.4917Z" fill="url(#paint2_linear_1_1542)"></path><path id="Vector_11" d="M142.699 9.2627H65.4025C63.2488 9.2627 61.5029 11.0086 61.5029 13.1623V31.3866H146.599V13.1623C146.599 11.0086 144.853 9.2627 142.699 9.2627Z" fill="url(#paint3_linear_1_1542)"></path></g><g id="Group_13"><path id="Vector_12" d="M55.3714 101.131C55.3714 103.284 57.1173 105.03 59.271 105.03H136.568C138.722 105.03 140.467 103.284 140.467 101.131V31.3652H55.371V101.131H55.3714Z" fill="#C8FFA7"></path><path id="Vector_13" d="M136.569 9.24121H59.2716C57.1179 9.24121 55.372 10.9871 55.372 13.1408V31.3652H140.468V13.1408C140.468 10.9871 138.723 9.24121 136.569 9.24121Z" fill="url(#paint4_linear_1_1542)"></path></g></g><g id="Group_14"><g id="Group_15"><path id="Vector_14" d="M79.0096 25.3182C81.4825 25.3182 83.4871 23.3136 83.4871 20.8408C83.4871 18.3679 81.4825 16.3633 79.0096 16.3633C76.5368 16.3633 74.5322 18.3679 74.5322 20.8408C74.5322 23.3136 76.5368 25.3182 79.0096 25.3182Z" fill="#100C25"></path><g id="Group_16"><path id="Vector_15" d="M78.0644 18.4438C76.7781 18.4438 75.7358 17.4012 75.7358 16.1152V6.37929C75.7358 5.25297 76.4949 4.21864 77.6004 4.00379C79.0869 3.71501 80.3934 4.85173 80.3934 6.28765V9.24209H84.3353V6.5091C84.3353 3.17216 81.8231 0.254165 78.4938 0.0309855C74.8427 -0.213367 71.7939 2.68762 71.7939 6.28765V15.9118C71.7939 19.1828 74.2134 22.0567 77.4705 22.358C77.819 22.3903 78.1626 22.3937 78.4986 22.3705C80.9807 22.1997 80.7752 18.4435 78.2872 18.4435H78.0644V18.4438Z" fill="white"></path></g></g><g id="Group_17"><path id="Vector_16" d="M114.711 25.3184C117.184 25.3184 119.188 23.3137 119.188 20.8409C119.188 18.368 117.184 16.3634 114.711 16.3634C112.238 16.3634 110.233 18.368 110.233 20.8409C110.233 23.3137 112.238 25.3184 114.711 25.3184Z" fill="#100C25"></path><g id="Group_18"><path id="Vector_17" d="M113.765 18.4438C112.478 18.4438 111.436 17.4012 111.436 16.1152V6.37929C111.436 5.25297 112.195 4.21864 113.301 4.00379C114.787 3.71501 116.094 4.85173 116.094 6.28765V9.24209H120.036V6.5091C120.036 3.17216 117.523 0.254165 114.194 0.0309855C110.543 -0.213367 107.494 2.68762 107.494 6.28765V15.9118C107.494 19.1828 109.914 22.0567 113.171 22.358C113.519 22.3903 113.863 22.3937 114.199 22.3705C116.681 22.1997 116.476 18.4435 113.988 18.4435H113.765V18.4438Z" fill="white"></path></g></g></g></g><g id="Group_19"><g id="Group_20"><path id="Vector_18" d="M80.8821 41.92H68.1532V54.6489H80.8821V41.92Z" fill="#8CF051"></path><path id="Vector_19" d="M80.8821 60.6593H68.1532V73.3882H80.8821V60.6593Z" fill="#8CF051"></path><path id="Vector_20" d="M80.8821 79.3977H68.1532V92.1266H80.8821V79.3977Z" fill="#8CF051"></path></g><g id="Group_21"><path id="Vector_21" d="M102.479 41.92H89.7499V54.6489H102.479V41.92Z" fill="url(#paint5_linear_1_1542)"></path><path id="Vector_22" d="M102.479 60.6593H89.7499V73.3882H102.479V60.6593Z" fill="#8CF051"></path><path id="Vector_23" d="M102.479 79.3967H89.7499V92.1256H102.479V79.3967Z" fill="#8CF051"></path></g><g id="Group_22"><path id="Vector_24" d="M124.076 41.92H111.347V54.6489H124.076V41.92Z" fill="url(#paint6_linear_1_1542)"></path><path id="Vector_25" d="M124.076 60.6593H111.347V73.3882H124.076V60.6593Z" fill="url(#paint7_linear_1_1542)"></path><path id="Vector_26" d="M124.076 79.3967H111.347V92.1256H124.076V79.3967Z" fill="#8CF051"></path></g></g></g><g id="Group_23"><g id="Group_24"><path id="Vector_27" d="M51.7175 44.1533H43.1259V49.8113H51.7175V44.1533Z" fill="white"></path><path id="Vector_28" d="M55.3568 42.1709H39.4843V45.6213H55.3568V42.1709Z" fill="url(#paint8_linear_1_1542)"></path></g><g id="Group_25"><path id="Vector_29" d="M67.5548 96.6482C78.7308 85.4721 78.7308 67.3521 67.5548 56.1761C56.3787 45 38.2587 45 27.0827 56.1761C15.9066 67.3521 15.9066 85.4721 27.0827 96.6482C38.2587 107.824 56.3787 107.824 67.5548 96.6482Z" fill="url(#paint9_linear_1_1542)"></path><path id="Vector_30" d="M70.215 81.7423C73.1565 69.0988 65.2914 56.4646 52.6479 53.523C40.0043 50.5815 27.3701 58.4466 24.4286 71.0902C21.4871 83.7338 29.3521 96.368 41.9957 99.3095C54.6393 102.251 67.2735 94.3859 70.215 81.7423Z" fill="white"></path><g id="Group_26"><g id="Group_27"><g id="Group_28"><g id="Group_29"><path id="Vector_31" d="M34.0426 63.7561C33.8913 63.7561 33.7399 63.6985 33.6244 63.5829L32.6428 62.6013C32.412 62.3705 32.412 61.9956 32.6428 61.7652C32.874 61.534 33.2478 61.534 33.4789 61.7652L34.4605 62.7467C34.6913 62.9776 34.6913 63.3524 34.4605 63.5829C34.3453 63.6985 34.1939 63.7561 34.0426 63.7561Z" fill="#78DE3C"></path><path id="Vector_32" d="M61.8112 91.5246C61.6598 91.5246 61.5085 91.467 61.3929 91.3514L60.4113 90.3699C60.1805 90.139 60.1805 89.7645 60.4113 89.5337C60.6425 89.3026 61.0163 89.3026 61.2475 89.5337L62.2291 90.5153C62.4599 90.7461 62.4599 91.1206 62.2291 91.3514C62.1138 91.467 61.9625 91.5246 61.8112 91.5246Z" fill="#78DE3C"></path></g><g id="Group_30"><path id="Vector_33" d="M33.061 91.5246C32.9097 91.5246 32.7584 91.467 32.6428 91.3514C32.412 91.1206 32.412 90.7461 32.6428 90.5153L33.6244 89.5337C33.8555 89.3026 34.2293 89.3026 34.4605 89.5337C34.6913 89.7645 34.6913 90.139 34.4605 90.3699L33.4789 91.3514C33.3637 91.467 33.2124 91.5246 33.061 91.5246Z" fill="#78DE3C"></path><path id="Vector_34" d="M60.8296 63.7561C60.6783 63.7561 60.5269 63.6985 60.4113 63.5829C60.1805 63.3521 60.1805 62.9772 60.4113 62.7467L61.3929 61.7652C61.6241 61.534 61.9979 61.534 62.2291 61.7652C62.4599 61.996 62.4599 62.3708 62.2291 62.6013L61.2475 63.5829C61.1319 63.6985 60.9806 63.7561 60.8296 63.7561Z" fill="#78DE3C"></path></g></g><g id="Group_31"><path id="Vector_35" d="M47.4164 58.0897C48.1636 58.0897 48.7694 57.484 48.7694 56.7368C48.7694 55.9895 48.1636 55.3838 47.4164 55.3838C46.6692 55.3838 46.0634 55.9895 46.0634 56.7368C46.0634 57.484 46.6692 58.0897 47.4164 58.0897Z" fill="#100C25"></path><path id="Vector_36" d="M47.4164 97.4579C48.1636 97.4579 48.7694 96.8521 48.7694 96.1049C48.7694 95.3577 48.1636 94.752 47.4164 94.752C46.6692 94.752 46.0634 95.3577 46.0634 96.1049C46.0634 96.8521 46.6692 97.4579 47.4164 97.4579Z" fill="#100C25"></path></g><g id="Group_32"><path id="Vector_37" d="M27.7328 75.0684C28.4801 75.0684 29.0858 75.674 29.0858 76.4213C29.0858 77.1686 28.4801 77.7743 27.7328 77.7743C26.9855 77.7743 26.3798 77.1686 26.3798 76.4213C26.3795 75.6744 26.9855 75.0684 27.7328 75.0684Z" fill="#100C25"></path><path id="Vector_38" d="M67.101 75.0684C67.8483 75.0684 68.4539 75.674 68.4539 76.4213C68.4539 77.1686 67.8483 77.7743 67.101 77.7743C66.3537 77.7743 65.748 77.1686 65.748 76.4213C65.7477 75.6744 66.3537 75.0684 67.101 75.0684Z" fill="#100C25"></path></g></g><path id="Vector_39" d="M55.8256 64.2225L46.1657 75.5446C45.869 75.8476 45.6954 76.2683 45.7312 76.7244C45.7971 77.5623 46.5295 78.1877 47.3673 78.1218C48.0011 78.0718 48.5124 77.6397 48.6957 77.0697L56.1619 64.463C56.2918 64.2447 55.9905 64.0295 55.8256 64.2225Z" fill="#59A52C"></path></g></g></g></g></g><defs><radialGradient id="paint0_radial_1_1542" cx="0" cy="0" r="1" gradientUnits="userSpaceOnUse" gradientTransform="translate(155.676 26.6722) rotate(-1.41889) scale(42.5782 52.1906)"><stop stop-color="#4FA83D"></stop><stop offset="0.98"></stop></radialGradient><radialGradient id="paint1_radial_1_1542" cx="0" cy="0" r="1" gradientUnits="userSpaceOnUse" gradientTransform="translate(-3.07025 13.0153) rotate(-39.6576) scale(49.4958 185.659)"><stop stop-color="#4FA83D"></stop><stop offset="0.98"></stop></radialGradient><linearGradient id="paint2_linear_1_1542" x1="85.2178" y1="101.39" x2="97.0705" y2="15.0351" gradientUnits="userSpaceOnUse"><stop stop-color="#3A6421"></stop><stop offset="1" stop-color="#63B632"></stop></linearGradient><linearGradient id="paint3_linear_1_1542" x1="104.05" y1="10.3584" x2="104.05" y2="37.0153" gradientUnits="userSpaceOnUse"><stop stop-color="#3A6421"></stop><stop offset="1" stop-color="#63B632"></stop></linearGradient><linearGradient id="paint4_linear_1_1542" x1="111.561" y1="40.6573" x2="110.641" y2="-1.49114" gradientUnits="userSpaceOnUse"><stop offset="0.215786" stop-color="#77D340"></stop><stop offset="1" stop-color="#498824"></stop></linearGradient><linearGradient id="paint5_linear_1_1542" x1="98.1547" y1="59.9951" x2="96.1323" y2="35.9035" gradientUnits="userSpaceOnUse"><stop offset="0.215786" stop-color="#77D340"></stop><stop offset="1" stop-color="#498824"></stop></linearGradient><linearGradient id="paint6_linear_1_1542" x1="119.751" y1="59.9951" x2="117.729" y2="35.9035" gradientUnits="userSpaceOnUse"><stop offset="0.215786" stop-color="#77D340"></stop><stop offset="1" stop-color="#498824"></stop></linearGradient><linearGradient id="paint7_linear_1_1542" x1="119.751" y1="78.7344" x2="117.729" y2="54.6427" gradientUnits="userSpaceOnUse"><stop offset="0.215786" stop-color="#77D340"></stop><stop offset="1" stop-color="#498824"></stop></linearGradient><linearGradient id="paint8_linear_1_1542" x1="36.8751" y1="42.1709" x2="45.0731" y2="55.6513" gradientUnits="userSpaceOnUse"><stop stop-color="#1EA303"></stop><stop offset="0.98" stop-color="#106100"></stop></linearGradient><linearGradient id="paint9_linear_1_1542" x1="0.193623" y1="83.0651" x2="93.3859" y2="38.9533" gradientUnits="userSpaceOnUse"><stop stop-color="#1EA303"></stop><stop offset="0.98" stop-color="#106100"></stop></linearGradient></defs></svg>