<svg xmlns="http://www.w3.org/2000/svg" width="234" height="155" viewBox="0 0 234 155" fill="none"><g id="Group 1261153586"><path id="Vector" opacity="0.1" d="M116.944 154.653C159.537 154.653 194.065 120.125 194.065 77.5317C194.065 34.9387 159.537 0.410156 116.944 0.410156C74.3506 0.410156 39.8221 34.9387 39.8221 77.5317C39.8221 120.125 74.3506 154.653 116.944 154.653Z" fill="url(#paint0_radial_1_2365)"></path><g id="Group"><g id="Group_2"><path id="Vector_2" d="M117.577 32.5662L82.7606 42.2187C75.2919 72.4696 78.2477 104.594 100.278 118.911C127.824 105.696 143.572 73.9805 148.237 43.6702L117.577 32.5662Z" fill="url(#paint1_linear_1_2365)"></path><path id="Vector_3" d="M150.962 64.4989C151.035 64.2614 151.101 64.0239 151.167 63.7929C151.351 63.1596 151.529 62.5328 151.701 61.8994C151.78 61.6091 151.859 61.3188 151.939 61.0285C152.005 60.7844 152.071 60.5402 152.136 60.3027C152.196 60.0652 152.249 59.8343 152.308 59.5968C152.466 58.9766 152.618 58.3564 152.763 57.7296C152.862 57.3139 152.961 56.9049 153.054 56.4892C153.199 55.8558 153.337 55.2158 153.469 54.5824C153.555 54.1866 153.641 53.7973 153.72 53.4014C153.859 52.7087 153.99 52.0159 154.122 51.3231C154.182 50.9866 154.254 50.6567 154.314 50.3203C154.499 49.2976 154.67 48.2749 154.828 47.2523L148.244 43.6697C148.085 44.6923 147.914 45.715 147.729 46.7377C147.67 47.0741 147.604 47.404 147.538 47.7405C147.406 48.4333 147.281 49.1261 147.135 49.8188C147.056 50.2147 146.97 50.604 146.885 50.9998C146.753 51.6332 146.614 52.2732 146.469 52.9066C146.377 53.3222 146.278 53.7313 146.179 54.147C146.034 54.7672 145.875 55.394 145.723 56.0141C145.605 56.4958 145.479 56.9708 145.354 57.4525C145.275 57.7428 145.196 58.0331 145.116 58.3234C144.945 58.9568 144.767 59.5901 144.582 60.2169C144.516 60.4545 144.45 60.692 144.378 60.9229C144.127 61.7806 143.863 62.6317 143.592 63.4829C143.546 63.628 143.493 63.7798 143.447 63.9249C143.236 64.5913 143.012 65.2511 142.787 65.9174C142.464 66.8675 142.128 67.811 141.785 68.7545C141.745 68.8666 141.705 68.9788 141.666 69.091C141.277 70.14 140.874 71.1825 140.458 72.2183C140.3 72.6208 140.129 73.0167 139.964 73.4191C139.746 73.9469 139.528 74.4748 139.304 74.996C139.126 75.4117 138.941 75.8207 138.756 76.2364C138.532 76.7444 138.301 77.259 138.063 77.7671C137.846 78.2421 137.615 78.7171 137.39 79.1856C137.212 79.5551 137.034 79.9311 136.856 80.3006C136.612 80.7955 136.361 81.2837 136.11 81.7785C135.932 82.1348 135.754 82.4845 135.569 82.8408C135.207 83.5335 134.83 84.2263 134.454 84.9059C134.395 85.0114 134.342 85.117 134.283 85.2226C133.841 86.0143 133.386 86.7994 132.924 87.578C132.812 87.7693 132.693 87.9541 132.581 88.1454C132.238 88.7194 131.888 89.2868 131.532 89.8542C131.373 90.0983 131.221 90.349 131.063 90.5932C130.707 91.1474 130.344 91.7016 129.975 92.2492C129.856 92.4274 129.737 92.6055 129.618 92.7836C129.143 93.483 128.662 94.1692 128.167 94.8488C127.461 95.8252 126.742 96.7819 126.003 97.7254C125.805 97.9761 125.607 98.2202 125.409 98.4709C124.841 99.1835 124.261 99.8829 123.667 100.569C123.403 100.873 123.146 101.183 122.882 101.486C122.737 101.658 122.585 101.823 122.433 101.988C121.925 102.555 121.411 103.116 120.889 103.67C120.823 103.736 120.764 103.809 120.698 103.881C120.117 104.488 119.53 105.089 118.93 105.676C118.771 105.827 118.613 105.979 118.461 106.131C117.973 106.599 117.485 107.068 116.983 107.523C116.832 107.662 116.687 107.8 116.541 107.932C115.921 108.493 115.288 109.047 114.654 109.582C114.496 109.714 114.331 109.846 114.173 109.977C113.671 110.393 113.157 110.809 112.642 111.211C112.424 111.383 112.2 111.554 111.976 111.726C111.527 112.069 111.072 112.405 110.61 112.742C110.32 112.953 110.036 113.164 109.746 113.369C109.284 113.699 108.809 114.015 108.34 114.325C108.07 114.51 107.799 114.695 107.522 114.873C107.199 115.084 106.862 115.282 106.539 115.487C106.005 115.817 105.47 116.146 104.929 116.463C104.573 116.668 104.217 116.866 103.86 117.07C103.339 117.36 102.818 117.651 102.284 117.928C101.624 118.271 100.964 118.621 100.284 118.944L106.869 122.526C107.384 122.282 107.898 122.025 108.4 121.768C108.558 121.689 108.71 121.596 108.862 121.517C109.389 121.24 109.917 120.95 110.432 120.659C110.788 120.461 111.151 120.263 111.501 120.052C112.042 119.736 112.576 119.406 113.111 119.076C113.361 118.917 113.619 118.772 113.863 118.614C113.942 118.561 114.014 118.508 114.094 118.462C114.371 118.284 114.641 118.099 114.912 117.915C115.387 117.598 115.855 117.281 116.317 116.958C116.607 116.753 116.898 116.542 117.181 116.331C117.439 116.146 117.696 115.962 117.953 115.777C118.151 115.625 118.349 115.473 118.541 115.322C118.765 115.15 118.989 114.979 119.207 114.807C119.722 114.405 120.23 113.989 120.738 113.573C120.896 113.441 121.061 113.309 121.219 113.177C121.272 113.138 121.325 113.092 121.371 113.052C121.958 112.551 122.532 112.043 123.106 111.528C123.258 111.396 123.403 111.257 123.548 111.119C123.832 110.855 124.122 110.598 124.406 110.327C124.617 110.129 124.815 109.925 125.026 109.727C125.185 109.575 125.343 109.423 125.501 109.265C126.075 108.698 126.649 108.124 127.21 107.536C127.23 107.517 127.25 107.49 127.269 107.47C127.335 107.404 127.401 107.332 127.461 107.259C127.982 106.705 128.497 106.144 129.005 105.577C129.156 105.412 129.302 105.24 129.453 105.075C129.585 104.93 129.717 104.785 129.843 104.633C129.975 104.475 130.106 104.31 130.238 104.158C130.826 103.465 131.406 102.766 131.974 102.06C132.099 101.902 132.238 101.75 132.363 101.592C132.435 101.499 132.501 101.407 132.567 101.321C133.306 100.378 134.032 99.421 134.732 98.4446C134.758 98.4116 134.784 98.3786 134.804 98.3456C135.273 97.699 135.728 97.0392 136.176 96.3794C136.295 96.2013 136.414 96.0166 136.539 95.8384C136.764 95.5085 136.988 95.172 137.206 94.8421C137.344 94.6244 137.483 94.4067 137.621 94.189C137.78 93.9449 137.938 93.7007 138.09 93.45C138.446 92.8826 138.796 92.3152 139.139 91.7412C139.251 91.5499 139.37 91.3651 139.482 91.1738C139.522 91.1144 139.555 91.055 139.594 90.989C140.016 90.2699 140.432 89.5441 140.841 88.8118C140.9 88.7062 140.953 88.6006 141.013 88.4951C141.343 87.8947 141.679 87.2943 141.996 86.6873C142.042 86.6015 142.081 86.5157 142.128 86.43C142.312 86.0803 142.491 85.724 142.675 85.3677C142.926 84.8795 143.177 84.3912 143.421 83.8964C143.606 83.5269 143.777 83.1575 143.955 82.7814C144.114 82.4449 144.279 82.115 144.437 81.7785C144.503 81.64 144.562 81.5014 144.628 81.3629C144.866 80.8548 145.09 80.3468 145.321 79.8322C145.506 79.4165 145.69 79.0075 145.869 78.5918C146.093 78.0706 146.311 77.5427 146.528 77.0149C146.66 76.6982 146.799 76.3881 146.924 76.0714C146.957 75.9857 146.99 75.9065 147.023 75.8207C147.439 74.7849 147.848 73.7424 148.231 72.6934C148.27 72.5812 148.31 72.469 148.349 72.3569C148.692 71.4134 149.029 70.4699 149.352 69.5198C149.392 69.4143 149.431 69.3021 149.464 69.1965C149.649 68.6423 149.827 68.0881 150.012 67.5273C150.058 67.3821 150.111 67.2304 150.157 67.0852C150.454 66.2077 150.711 65.3566 150.962 64.4989Z" fill="url(#paint2_linear_1_2365)"></path><path id="Vector_4" d="M116.548 37.6862L86.0662 46.138C83.0378 60.0461 82.5561 73.2615 84.6806 84.5635C87.102 97.4358 92.7167 107.121 101.38 113.389C112.464 107.557 121.892 98.2011 129.433 85.5466C136.051 74.4359 140.841 61.3195 143.388 47.3982L116.548 37.6862Z" fill="url(#paint3_linear_1_2365)"></path><path id="Vector_5" d="M126.853 42.0475C120.453 55.5532 113.183 68.7158 103.847 80.4269C99.2612 86.1736 94.2337 91.5112 88.8697 96.4925C91.7925 103.242 95.9821 108.672 101.419 112.69C112.265 106.897 121.516 97.6669 128.912 85.2433C135.384 74.3767 140.148 61.4319 142.701 47.7876L126.853 42.0475Z" fill="url(#paint4_linear_1_2365)"></path><g id="Group_3"><path id="Vector_6" d="M122.717 59.9995L126.115 65.3371L103.682 86.2983L102.864 85.7968L99.2487 66.3532L100.067 66.8546L105.781 75.821L121.899 59.4915L122.717 59.9995Z" fill="url(#paint5_linear_1_2365)"></path></g><g id="Group_4"><path id="Vector_7" d="M121.898 59.4915L125.296 64.8291L102.864 85.7968L93.7522 71.4928L99.2482 66.3532L104.962 75.3195L121.898 59.4915Z" fill="url(#paint6_linear_1_2365)"></path></g></g></g><path id="Vector_8" d="M188.153 75.6148H187.534C187.045 75.6148 186.64 75.2172 186.64 74.7204V74.1012C186.64 73.6119 187.037 73.2068 187.534 73.2068H188.153C188.642 73.2068 189.048 73.6043 189.048 74.1012V74.7204C189.048 75.2172 188.65 75.6148 188.153 75.6148ZM192.396 78.0686V77.4494C192.396 76.9602 191.998 76.555 191.501 76.555H190.882C190.393 76.555 189.988 76.9525 189.988 77.4494V78.0686C189.988 78.5578 190.385 78.963 190.882 78.963H191.501C191.998 78.963 192.396 78.5655 192.396 78.0686ZM190.882 75.6148H191.501C191.991 75.6148 192.396 75.2172 192.396 74.7204V74.1012C192.396 73.6119 191.998 73.2068 191.501 73.2068H190.882C190.393 73.2068 189.988 73.6043 189.988 74.1012V74.7204C189.995 75.2172 190.393 75.6148 190.882 75.6148ZM187.534 78.963H188.153C188.642 78.963 189.048 78.5655 189.048 78.0686V77.4494C189.048 76.9602 188.65 76.555 188.153 76.555H187.534C187.045 76.555 186.64 76.9525 186.64 77.4494V78.0686C186.647 78.5655 187.045 78.963 187.534 78.963Z" fill="#85ED47"></path><path id="Vector_9" d="M59.8493 69.8681H59.2301C58.7409 69.8681 58.3358 69.4706 58.3358 68.9737V68.3545C58.3358 67.8652 58.7333 67.4601 59.2301 67.4601H59.8493C60.3386 67.4601 60.7437 67.8576 60.7437 68.3545V68.9737C60.7437 69.4629 60.3462 69.8681 59.8493 69.8681ZM64.092 72.3219V71.7027C64.092 71.2135 63.6944 70.8083 63.1976 70.8083H62.5784C62.0891 70.8083 61.684 71.2058 61.684 71.7027V72.3219C61.684 72.8111 62.0815 73.2163 62.5784 73.2163H63.1976C63.6944 73.2086 64.092 72.8111 64.092 72.3219ZM62.5784 69.8681H63.1976C63.6868 69.8681 64.092 69.4706 64.092 68.9737V68.3545C64.092 67.8652 63.6944 67.4601 63.1976 67.4601H62.5784C62.0891 67.4601 61.684 67.8576 61.684 68.3545V68.9737C61.684 69.4629 62.0891 69.8681 62.5784 69.8681ZM59.2301 73.2086H59.8493C60.3386 73.2086 60.7437 72.8111 60.7437 72.3142V71.6951C60.7437 71.2058 60.3462 70.8007 59.8493 70.8007H59.2301C58.7409 70.8007 58.3358 71.1982 58.3358 71.6951V72.3142C58.3434 72.8111 58.7409 73.2086 59.2301 73.2086Z" fill="#85ED47"></path><g id="Group_5"><path id="Vector_10" d="M98.0411 138.811H97.3226C96.6805 138.811 96.153 138.284 96.153 137.642V136.915C96.153 136.273 96.6805 135.746 97.3226 135.746H98.0411C98.6833 135.746 99.2108 136.273 99.2108 136.915V137.642C99.2108 138.284 98.6833 138.811 98.0411 138.811ZM97.3149 136.006C96.8104 136.006 96.4053 136.411 96.4053 136.915V137.642C96.4053 138.146 96.8104 138.551 97.3149 138.551H98.0335C98.538 138.551 98.9432 138.146 98.9432 137.642V136.915C98.9432 136.411 98.538 136.006 98.0335 136.006H97.3149ZM94.1425 138.811H93.424C92.7819 138.811 92.2544 138.284 92.2544 137.642V136.915C92.2544 136.273 92.7819 135.746 93.424 135.746H94.1425C94.7847 135.746 95.3121 136.273 95.3121 136.915V137.642C95.3121 138.284 94.7847 138.811 94.1425 138.811ZM93.4163 136.006C92.9118 136.006 92.5066 136.411 92.5066 136.915V137.642C92.5066 138.146 92.9118 138.551 93.4163 138.551H94.1349C94.6394 138.551 95.0446 138.146 95.0446 137.642V136.915C95.0446 136.411 94.6394 136.006 94.1349 136.006H93.4163ZM98.0411 134.913H97.3226C96.6805 134.913 96.153 134.385 96.153 133.743V133.024C96.153 132.382 96.6805 131.855 97.3226 131.855H98.0411C98.6833 131.855 99.2108 132.382 99.2108 133.024V133.743C99.2108 134.385 98.6833 134.913 98.0411 134.913ZM97.3149 132.107C96.8104 132.107 96.4053 132.512 96.4053 133.017V133.735C96.4053 134.24 96.8104 134.645 97.3149 134.645H98.0335C98.538 134.645 98.9432 134.24 98.9432 133.735V133.017C98.9432 132.512 98.538 132.107 98.0335 132.107H97.3149ZM94.1425 134.913H93.424C92.7819 134.913 92.2544 134.385 92.2544 133.743V133.024C92.2544 132.382 92.7819 131.855 93.424 131.855H94.1425C94.7847 131.855 95.3121 132.382 95.3121 133.024V133.743C95.3121 134.385 94.7847 134.913 94.1425 134.913ZM93.4163 132.107C92.9118 132.107 92.5066 132.512 92.5066 133.017V133.735C92.5066 134.24 92.9118 134.645 93.4163 134.645H94.1349C94.6394 134.645 95.0446 134.24 95.0446 133.735V133.017C95.0446 132.512 94.6394 132.107 94.1349 132.107H93.4163Z" fill="#85ED47"></path></g><g id="Group_6"><path id="Vector_11" d="M155.94 26.1717H155.489C155.084 26.1717 154.755 25.843 154.755 25.4379V24.9869C154.755 24.5817 155.084 24.253 155.489 24.253H155.94C156.345 24.253 156.674 24.5817 156.674 24.9869V25.4379C156.674 25.843 156.345 26.1717 155.94 26.1717ZM155.489 24.4212C155.175 24.4212 154.923 24.6734 154.923 24.9869V25.4379C154.923 25.7513 155.175 26.0036 155.489 26.0036H155.94C156.253 26.0036 156.505 25.7513 156.505 25.4379V24.9869C156.505 24.6734 156.253 24.4212 155.94 24.4212H155.489ZM153.501 26.1717H153.05C152.645 26.1717 152.316 25.843 152.316 25.4379V24.9869C152.316 24.5817 152.645 24.253 153.05 24.253H153.501C153.906 24.253 154.235 24.5817 154.235 24.9869V25.4379C154.235 25.843 153.906 26.1717 153.501 26.1717ZM153.05 24.4212C152.737 24.4212 152.485 24.6734 152.485 24.9869V25.4379C152.485 25.7513 152.737 26.0036 153.05 26.0036H153.501C153.815 26.0036 154.067 25.7513 154.067 25.4379V24.9869C154.067 24.6734 153.815 24.4212 153.501 24.4212H153.05ZM155.94 23.7332H155.489C155.084 23.7332 154.755 23.4045 154.755 22.9993V22.5483C154.755 22.1432 155.084 21.8145 155.489 21.8145H155.94C156.345 21.8145 156.674 22.1432 156.674 22.5483V22.9993C156.674 23.4045 156.345 23.7332 155.94 23.7332ZM155.489 21.9826C155.175 21.9826 154.923 22.2349 154.923 22.5483V22.9993C154.923 23.3127 155.175 23.565 155.489 23.565H155.94C156.253 23.565 156.505 23.3127 156.505 22.9993V22.5483C156.505 22.2349 156.253 21.9826 155.94 21.9826H155.489ZM153.501 23.7332H153.05C152.645 23.7332 152.316 23.4045 152.316 22.9993V22.5483C152.316 22.1432 152.645 21.8145 153.05 21.8145H153.501C153.906 21.8145 154.235 22.1432 154.235 22.5483V22.9993C154.235 23.4045 153.906 23.7332 153.501 23.7332ZM153.05 21.9826C152.737 21.9826 152.485 22.2349 152.485 22.5483V22.9993C152.485 23.3127 152.737 23.565 153.05 23.565H153.501C153.815 23.565 154.067 23.3127 154.067 22.9993V22.5483C154.067 22.2349 153.815 21.9826 153.501 21.9826H153.05Z" fill="#85ED47"></path></g><path id="Vector_12" d="M164.929 93.0295H163.171C161.772 93.0295 160.641 91.8982 160.641 90.4992V88.741C160.641 87.3421 161.772 86.2108 163.171 86.2108H164.929C166.328 86.2108 167.459 87.3421 167.459 88.741V90.4992C167.459 91.8982 166.328 93.0295 164.929 93.0295Z" fill="#85ED47"></path><path id="Vector_13" d="M83.9287 133.895H83.1719C82.5756 133.895 82.0864 133.413 82.0864 132.809V132.053C82.0864 131.456 82.568 130.967 83.1719 130.967H83.9287C84.5249 130.967 85.0142 131.449 85.0142 132.053V132.809C85.0142 133.413 84.5326 133.895 83.9287 133.895Z" fill="#85ED47"></path><g id="Group_7"><path id="Vector_14" d="M184.117 104.502H182.359C180.715 104.502 179.385 103.164 179.385 101.528V99.7703C179.385 98.1268 180.723 96.7966 182.359 96.7966H184.117C185.76 96.7966 187.09 98.1344 187.09 99.7703V101.528C187.09 103.164 185.753 104.502 184.117 104.502ZM182.359 97.6834C181.212 97.6834 180.279 98.616 180.279 99.7626V101.521C180.279 102.667 181.212 103.608 182.359 103.608H184.117C185.263 103.608 186.204 102.675 186.204 101.521V99.7626C186.204 98.616 185.271 97.6834 184.117 97.6834H182.359Z" fill="#85ED47"></path></g><g id="Group_8"><path id="Vector_15" d="M51.3571 101.727H50.6844C50.0575 101.727 49.5454 101.215 49.5454 100.588V99.915C49.5454 99.2882 50.0575 98.776 50.6844 98.776H51.3571C51.9839 98.776 52.4961 99.2882 52.4961 99.915V100.588C52.5037 101.215 51.9839 101.727 51.3571 101.727ZM50.6844 99.1124C50.241 99.1124 49.8817 99.4716 49.8817 99.915V100.588C49.8817 101.031 50.241 101.39 50.6844 101.39H51.3571C51.8005 101.39 52.1597 101.031 52.1597 100.588V99.915C52.1597 99.4716 51.8005 99.1124 51.3571 99.1124H50.6844Z" fill="#85ED47"></path></g><g id="Group_9"><path id="Vector_16" d="M61.1403 105.657V108.256C61.1403 108.532 61.362 108.753 61.6372 108.753H65.9333C66.2085 108.753 66.4302 108.532 66.4302 108.256V105.657C66.4302 105.382 66.2085 105.16 65.9333 105.16H61.6372C61.362 105.16 61.1403 105.382 61.1403 105.657ZM63.9611 106.903L64.0146 107.698H63.5406L63.5941 106.903C63.4718 106.835 63.3954 106.705 63.4107 106.552C63.4259 106.384 63.5636 106.246 63.7317 106.223C63.9534 106.2 64.1369 106.368 64.1369 106.582C64.1445 106.72 64.0757 106.835 63.9611 106.903Z" fill="#85ED47"></path><path id="Vector_17" d="M63.7863 101.384C62.6855 101.384 61.7988 102.278 61.7988 103.371V104.373H62.4868V103.371C62.4868 102.653 63.0677 102.072 63.7863 102.072C64.5049 102.072 65.0859 102.653 65.0859 103.371V105.152H65.7738V103.371C65.7738 102.278 64.8795 101.384 63.7863 101.384Z" fill="#85ED47"></path></g><g id="Group_10"><path id="Vector_18" d="M139.177 114.655L138.428 114.494C138.374 114.295 138.29 114.104 138.191 113.921L138.603 113.271C138.642 113.217 138.634 113.141 138.588 113.095L137.984 112.491C137.938 112.445 137.862 112.438 137.808 112.476L137.159 112.889C136.983 112.789 136.784 112.705 136.585 112.652L136.425 111.903C136.409 111.842 136.356 111.788 136.287 111.788H135.431C135.362 111.788 135.309 111.834 135.293 111.903L135.133 112.652C134.934 112.705 134.743 112.789 134.559 112.889L133.91 112.476C133.856 112.438 133.78 112.445 133.734 112.491L133.13 113.095C133.084 113.141 133.076 113.217 133.115 113.271L133.527 113.921C133.428 114.097 133.352 114.295 133.291 114.494L132.541 114.655C132.48 114.67 132.427 114.723 132.427 114.792V115.648C132.427 115.717 132.473 115.771 132.541 115.786L133.291 115.947C133.344 116.145 133.428 116.336 133.527 116.52L133.115 117.17C133.076 117.223 133.084 117.3 133.13 117.345L133.734 117.949C133.764 117.98 133.795 117.988 133.833 117.988C133.856 117.988 133.887 117.98 133.91 117.965L134.559 117.552C134.735 117.651 134.934 117.728 135.133 117.789L135.293 118.538C135.309 118.599 135.362 118.653 135.431 118.653H136.287C136.356 118.653 136.409 118.607 136.425 118.538L136.585 117.789C136.784 117.735 136.975 117.651 137.159 117.552L137.808 117.965C137.831 117.98 137.862 117.988 137.885 117.988C137.923 117.988 137.961 117.972 137.984 117.949L138.588 117.345C138.634 117.3 138.642 117.223 138.603 117.17L138.191 116.52C138.29 116.344 138.366 116.145 138.428 115.947L139.177 115.786C139.238 115.771 139.291 115.717 139.291 115.648V114.792C139.284 114.723 139.238 114.662 139.177 114.655ZM136.532 115.213C136.532 115.58 136.234 115.885 135.859 115.885C135.492 115.885 135.186 115.587 135.186 115.213C135.186 114.846 135.484 114.54 135.859 114.54C136.234 114.548 136.532 114.846 136.532 115.213Z" fill="#85ED47"></path></g><g id="Group_11"><path id="Vector_19" d="M163.852 114.212L163.31 114.098C163.271 113.952 163.21 113.815 163.141 113.685L163.44 113.218C163.462 113.18 163.462 113.127 163.424 113.088L162.989 112.653C162.958 112.622 162.904 112.615 162.859 112.637L162.392 112.936C162.262 112.859 162.125 112.806 161.979 112.767L161.865 112.225C161.857 112.179 161.811 112.141 161.765 112.141H161.146C161.1 112.141 161.054 112.171 161.047 112.225L160.932 112.767C160.787 112.806 160.649 112.867 160.519 112.936L160.053 112.637C160.015 112.615 159.961 112.615 159.923 112.653L159.487 113.088C159.457 113.119 159.449 113.173 159.472 113.218L159.77 113.685C159.694 113.815 159.64 113.952 159.602 114.098L159.059 114.212C159.013 114.22 158.975 114.266 158.975 114.312V114.931C158.975 114.977 159.006 115.022 159.059 115.03L159.602 115.145C159.64 115.29 159.701 115.428 159.77 115.558L159.472 116.024C159.449 116.062 159.449 116.116 159.487 116.154L159.923 116.59C159.946 116.613 159.969 116.62 159.992 116.62C160.007 116.62 160.03 116.613 160.045 116.605L160.512 116.307C160.642 116.383 160.779 116.437 160.925 116.475L161.039 117.018C161.047 117.064 161.093 117.102 161.139 117.102H161.758C161.804 117.102 161.849 117.071 161.857 117.018L161.972 116.475C162.117 116.437 162.255 116.376 162.385 116.307L162.851 116.605C162.866 116.613 162.889 116.62 162.904 116.62C162.927 116.62 162.958 116.613 162.973 116.59L163.409 116.154C163.44 116.123 163.447 116.07 163.424 116.024L163.126 115.558C163.203 115.428 163.256 115.29 163.294 115.145L163.837 115.03C163.883 115.022 163.921 114.977 163.921 114.931V114.312C163.936 114.258 163.906 114.22 163.852 114.212ZM161.934 114.617C161.934 114.885 161.712 115.107 161.444 115.107C161.177 115.107 160.955 114.885 160.955 114.617C160.955 114.35 161.177 114.128 161.444 114.128C161.712 114.128 161.934 114.35 161.934 114.617Z" fill="#85ED47"></path></g><g id="Group_12"><path id="Vector_20" d="M140.285 109.838C140.3 109.754 140.308 109.67 140.308 109.578C140.308 109.486 140.3 109.402 140.285 109.318L140.606 109.028C140.682 108.959 140.698 108.844 140.644 108.76L140.407 108.347C140.354 108.263 140.254 108.217 140.155 108.248L139.75 108.378C139.62 108.271 139.467 108.179 139.299 108.118L139.207 107.698C139.184 107.598 139.1 107.529 138.993 107.529H138.519C138.42 107.529 138.328 107.598 138.305 107.698L138.213 108.118C138.053 108.179 137.9 108.263 137.762 108.378L137.357 108.248C137.258 108.217 137.158 108.256 137.105 108.347L136.868 108.76C136.814 108.844 136.837 108.959 136.906 109.028L137.227 109.318C137.212 109.402 137.204 109.486 137.204 109.578C137.204 109.67 137.212 109.754 137.227 109.838L136.906 110.128C136.83 110.197 136.814 110.312 136.868 110.396L137.105 110.809C137.143 110.878 137.219 110.916 137.288 110.916C137.311 110.916 137.334 110.916 137.357 110.908L137.762 110.778C137.892 110.885 138.045 110.977 138.213 111.038L138.305 111.459C138.328 111.558 138.412 111.627 138.519 111.627H138.993C139.092 111.627 139.184 111.558 139.207 111.459L139.299 111.038C139.459 110.977 139.612 110.893 139.75 110.778L140.155 110.908C140.178 110.916 140.201 110.916 140.224 110.916C140.3 110.916 140.369 110.878 140.407 110.809L140.644 110.396C140.698 110.312 140.675 110.197 140.606 110.128L140.285 109.838ZM138.764 110.258C138.389 110.258 138.076 109.953 138.076 109.57C138.076 109.188 138.381 108.882 138.764 108.882C139.138 108.882 139.452 109.188 139.452 109.57C139.452 109.953 139.138 110.258 138.764 110.258Z" fill="#85ED47"></path></g><g id="Group_13"><path id="Vector_21" d="M44.0044 70.8378C44.0273 70.7002 44.0426 70.5626 44.0426 70.425C44.0426 70.2797 44.0273 70.1422 44.0044 70.0122L44.5165 69.5459C44.6389 69.4389 44.6618 69.2554 44.5853 69.1178L44.2031 68.4604C44.119 68.3228 43.9509 68.254 43.798 68.2999L43.1406 68.5063C42.9265 68.3304 42.6819 68.1928 42.422 68.0935L42.2768 67.4208C42.2385 67.2602 42.1009 67.1456 41.9404 67.1456H41.1836C41.0231 67.1456 40.8778 67.2602 40.8473 67.4208L40.702 68.0935C40.4345 68.1928 40.1975 68.3304 39.9835 68.5063L39.326 68.2999C39.1731 68.2464 39.005 68.3152 38.9209 68.4604L38.5387 69.1178C38.4546 69.2554 38.4851 69.4389 38.6075 69.5459L39.1196 70.0122C39.0967 70.1498 39.0814 70.2874 39.0814 70.425C39.0814 70.5702 39.0967 70.7078 39.1196 70.8378L38.6075 71.3041C38.4851 71.4111 38.4622 71.5946 38.5387 71.7322L38.9209 72.3896C38.982 72.4966 39.0967 72.5654 39.219 72.5654C39.2572 72.5654 39.2878 72.5578 39.326 72.5501L39.9835 72.3437C40.1975 72.5195 40.4421 72.6571 40.702 72.7565L40.8473 73.4292C40.8855 73.5898 41.0231 73.7044 41.1836 73.7044H41.9404C42.1009 73.7044 42.2462 73.5898 42.2768 73.4292L42.422 72.7565C42.6896 72.6571 42.9265 72.5195 43.1406 72.3437L43.798 72.5501C43.8362 72.5578 43.8668 72.5654 43.905 72.5654C44.0273 72.5654 44.142 72.5043 44.2031 72.3896L44.5853 71.7322C44.6694 71.5946 44.6389 71.4111 44.5165 71.3041L44.0044 70.8378ZM41.5505 71.5258C40.9466 71.5258 40.4497 71.0289 40.4497 70.425C40.4497 69.8211 40.9466 69.3242 41.5505 69.3242C42.1544 69.3242 42.6513 69.8211 42.6513 70.425C42.6513 71.0289 42.1544 71.5258 41.5505 71.5258Z" fill="#85ED47"></path></g><g id="Group_14"><path id="Vector_22" d="M202.828 57.6516L202.5 57.5828C202.462 57.4452 202.408 57.3229 202.339 57.2006L202.523 56.9177C202.569 56.8489 202.553 56.7572 202.5 56.7037L202.125 56.3291C202.072 56.2756 201.98 56.2603 201.911 56.3062L201.628 56.4896C201.506 56.4208 201.376 56.3673 201.246 56.3291L201.177 56.0004C201.162 55.924 201.093 55.8628 201.009 55.8628H200.474C200.39 55.8628 200.321 55.9163 200.306 56.0004L200.237 56.3291C200.099 56.3673 199.977 56.4208 199.855 56.4896L199.572 56.3062C199.503 56.2603 199.411 56.2756 199.358 56.3291L198.983 56.7037C198.93 56.7572 198.915 56.8489 198.96 56.9177L199.144 57.2006C199.075 57.3229 199.022 57.4528 198.983 57.5828L198.655 57.6516C198.578 57.6669 198.517 57.7357 198.517 57.8197V58.3549C198.517 58.4389 198.571 58.5077 198.655 58.523L198.983 58.5918C199.022 58.7294 199.075 58.8517 199.144 58.974L198.96 59.2569C198.915 59.3257 198.93 59.4174 198.983 59.4709L199.358 59.8455C199.389 59.8761 199.434 59.899 199.48 59.899C199.511 59.899 199.541 59.8914 199.572 59.8684L199.855 59.685C199.977 59.7538 200.107 59.8073 200.237 59.8455L200.306 60.1742C200.321 60.2506 200.39 60.3118 200.474 60.3118H201.009C201.093 60.3118 201.162 60.2583 201.177 60.1742L201.246 59.8455C201.384 59.8073 201.506 59.7538 201.628 59.685L201.911 59.8684C201.942 59.8837 201.972 59.899 202.003 59.899C202.049 59.899 202.095 59.8837 202.125 59.8455L202.5 59.4709C202.553 59.4174 202.569 59.3257 202.523 59.2569L202.339 58.974C202.408 58.8517 202.462 58.7218 202.5 58.5918L202.828 58.523C202.905 58.5077 202.966 58.4389 202.966 58.3549V57.8197C202.966 57.7357 202.905 57.6669 202.828 57.6516ZM201.888 58.0797C201.888 58.7141 201.376 59.2263 200.742 59.2263C200.107 59.2263 199.595 58.7141 199.595 58.0797C199.595 57.4452 200.107 56.933 200.742 56.933C201.376 56.933 201.888 57.4528 201.888 58.0797Z" fill="#85ED47"></path></g><g id="Group_15"><path id="Vector_23" d="M47.9393 66.7252L47.6946 66.6717C47.6641 66.5723 47.6258 66.4729 47.5723 66.3812L47.7099 66.1671C47.7405 66.1136 47.7329 66.0525 47.6946 66.0066L47.4118 65.7238C47.3659 65.6779 47.3048 65.6703 47.2513 65.7085L47.0372 65.8461C46.9455 65.7926 46.8538 65.7543 46.7467 65.7238L46.6932 65.4791C46.6779 65.418 46.6244 65.3798 46.5709 65.3798H46.1734C46.1123 65.3798 46.0587 65.4256 46.0511 65.4791L45.9976 65.7238C45.8982 65.7543 45.7988 65.7926 45.7071 65.8461L45.4931 65.7085C45.4395 65.6779 45.3784 65.6855 45.3325 65.7238L45.0497 66.0066C45.0038 66.0525 44.9962 66.1136 45.0344 66.1671L45.172 66.3812C45.1185 66.4729 45.0803 66.5646 45.0497 66.6717L44.8051 66.7252C44.7439 66.7405 44.7057 66.794 44.7057 66.8475V67.245C44.7057 67.3061 44.7516 67.3597 44.8051 67.3673L45.0497 67.4208C45.0803 67.5202 45.1185 67.6196 45.172 67.7113L45.0344 67.9253C45.0038 67.9788 45.0115 68.04 45.0497 68.0859L45.3325 68.3687C45.3555 68.3916 45.3937 68.4069 45.4243 68.4069C45.4472 68.4069 45.4701 68.3993 45.4931 68.384L45.7071 68.2464C45.7988 68.2999 45.8906 68.3381 45.9976 68.3687L46.0511 68.6133C46.0664 68.6745 46.1199 68.7127 46.1734 68.7127H46.5709C46.6321 68.7127 46.6856 68.6668 46.6932 68.6133L46.7467 68.3687C46.8461 68.3381 46.9455 68.2999 47.0372 68.2464L47.2513 68.384C47.2742 68.3993 47.2971 68.4069 47.3201 68.4069C47.3506 68.4069 47.3889 68.3916 47.4118 68.3687L47.6946 68.0859C47.7405 68.04 47.7481 67.9788 47.7099 67.9253L47.5723 67.7113C47.6258 67.6196 47.6641 67.5278 47.6946 67.4208L47.9393 67.3673C48.0004 67.352 48.0386 67.2985 48.0386 67.245V66.8475C48.0463 66.794 48.0004 66.7405 47.9393 66.7252ZM47.236 67.0539C47.236 67.5278 46.8461 67.9177 46.3722 67.9177C45.8982 67.9177 45.5084 67.5278 45.5084 67.0539C45.5084 66.5799 45.8982 66.1901 46.3722 66.1901C46.8461 66.1901 47.236 66.5799 47.236 67.0539Z" fill="#85ED47"></path></g><g id="Group_16"><path id="Vector_24" d="M71.3407 60.3115C70.4922 59.0119 68.7569 58.6373 67.4497 59.4859C66.1502 60.3344 65.7756 62.0697 66.6242 63.3768C67.4727 64.6764 69.2079 65.051 70.5151 64.2024C71.8147 63.3539 72.1816 61.6186 71.3407 60.3115Z" fill="#85ED47"></path></g><g id="Group_17"><g id="Group_18"><path id="Vector_25" d="M154.076 109.526C154.014 109.526 153.961 109.472 153.961 109.411V109.066C153.961 109.004 154.014 108.951 154.076 108.951C154.137 108.951 154.191 109.004 154.191 109.066V109.411C154.198 109.472 154.145 109.526 154.076 109.526Z" fill="#85ED47"></path></g><g id="Group_19"><path id="Vector_26" d="M154.076 112.141C154.014 112.141 153.961 112.087 153.961 112.026V111.681C153.961 111.62 154.014 111.566 154.076 111.566C154.137 111.566 154.191 111.62 154.191 111.681V112.026C154.198 112.095 154.145 112.141 154.076 112.141Z" fill="#85ED47"></path></g><g id="Group_20"><path id="Vector_27" d="M153.51 109.68C153.471 109.68 153.433 109.657 153.41 109.619L153.234 109.32C153.203 109.266 153.218 109.197 153.28 109.159C153.333 109.128 153.402 109.143 153.441 109.197L153.617 109.496C153.648 109.55 153.632 109.619 153.571 109.657C153.548 109.672 153.533 109.68 153.51 109.68Z" fill="#85ED47"></path></g><g id="Group_21"><path id="Vector_28" d="M154.818 111.942C154.78 111.942 154.742 111.919 154.719 111.88L154.542 111.581C154.512 111.528 154.527 111.459 154.588 111.42C154.642 111.39 154.711 111.405 154.749 111.459L154.926 111.758C154.956 111.811 154.941 111.88 154.88 111.919C154.864 111.942 154.841 111.942 154.818 111.942Z" fill="#85ED47"></path></g><g id="Group_22"><path id="Vector_29" d="M153.098 110.093C153.075 110.093 153.059 110.085 153.036 110.078L152.738 109.902C152.684 109.871 152.661 109.802 152.692 109.741C152.722 109.687 152.791 109.664 152.852 109.702L153.151 109.879C153.205 109.909 153.228 109.978 153.197 110.04C153.174 110.078 153.136 110.093 153.098 110.093Z" fill="#85ED47"></path></g><g id="Group_23"><path id="Vector_30" d="M155.36 111.399C155.337 111.399 155.321 111.391 155.298 111.383L154.999 111.207C154.946 111.176 154.923 111.107 154.953 111.046C154.984 110.993 155.053 110.97 155.114 111L155.413 111.176C155.467 111.207 155.49 111.276 155.459 111.337C155.444 111.383 155.398 111.399 155.36 111.399Z" fill="#85ED47"></path></g><g id="Group_24"><path id="Vector_31" d="M152.944 110.665H152.599C152.538 110.665 152.484 110.612 152.484 110.55C152.484 110.489 152.538 110.435 152.599 110.435H152.944C153.005 110.435 153.059 110.489 153.059 110.55C153.059 110.612 153.013 110.665 152.944 110.665Z" fill="#85ED47"></path></g><g id="Group_25"><path id="Vector_32" d="M155.558 110.664H155.214C155.152 110.664 155.099 110.61 155.099 110.549C155.099 110.488 155.152 110.434 155.214 110.434H155.558C155.62 110.434 155.673 110.488 155.673 110.549C155.673 110.61 155.627 110.664 155.558 110.664Z" fill="#85ED47"></path></g><g id="Group_26"><path id="Vector_33" d="M152.798 111.399C152.76 111.399 152.722 111.376 152.699 111.338C152.668 111.284 152.683 111.215 152.745 111.177L153.043 111C153.097 110.97 153.166 110.985 153.204 111.046C153.235 111.1 153.22 111.169 153.158 111.207L152.86 111.384C152.837 111.399 152.814 111.399 152.798 111.399Z" fill="#85ED47"></path></g><g id="Group_27"><path id="Vector_34" d="M155.06 110.091C155.022 110.091 154.983 110.068 154.96 110.029C154.93 109.976 154.945 109.907 155.006 109.868L155.305 109.692C155.359 109.661 155.428 109.677 155.466 109.73C155.497 109.784 155.482 109.853 155.42 109.891L155.121 110.068C155.098 110.091 155.083 110.091 155.06 110.091Z" fill="#85ED47"></path></g><g id="Group_28"><path id="Vector_35" d="M153.342 111.941C153.319 111.941 153.304 111.933 153.281 111.926C153.227 111.895 153.204 111.826 153.235 111.765L153.411 111.466C153.442 111.412 153.511 111.389 153.572 111.428C153.626 111.458 153.649 111.527 153.618 111.589L153.442 111.887C153.419 111.926 153.381 111.941 153.342 111.941Z" fill="#85ED47"></path></g><g id="Group_29"><path id="Vector_36" d="M154.648 109.679C154.625 109.679 154.61 109.672 154.587 109.664C154.533 109.633 154.51 109.564 154.541 109.503L154.717 109.204C154.748 109.151 154.817 109.127 154.878 109.166C154.932 109.196 154.955 109.265 154.924 109.327L154.748 109.626C154.725 109.656 154.686 109.679 154.648 109.679Z" fill="#85ED47"></path></g></g><g id="Group_30"><g id="Group_31"><path id="Vector_37" d="M22.1164 60.5323C22.0551 60.5323 22.0014 60.5859 22.0014 60.6472V60.9921C22.0014 61.0534 22.0551 61.107 22.1164 61.107C22.1777 61.107 22.2313 61.0534 22.2313 60.9921V60.6472C22.2313 60.5859 22.1853 60.5323 22.1164 60.5323Z" fill="#85ED47"></path></g><g id="Group_32"><path id="Vector_38" d="M22.1164 57.9179C22.0551 57.9179 22.0014 57.9716 22.0014 58.0329V58.3777C22.0014 58.439 22.0551 58.4926 22.1164 58.4926C22.1777 58.4926 22.2313 58.439 22.2313 58.3777V58.0329C22.2313 57.9716 22.1853 57.9179 22.1164 57.9179Z" fill="#85ED47"></path></g><g id="Group_33"><path id="Vector_39" d="M21.5506 60.3788C21.5123 60.3788 21.474 60.4018 21.451 60.4402L21.2748 60.739C21.2441 60.7927 21.2594 60.8616 21.3207 60.8999C21.3744 60.9306 21.4434 60.9153 21.4817 60.854L21.6579 60.5551C21.6886 60.5015 21.6732 60.4325 21.6119 60.3942C21.5889 60.3865 21.5736 60.3788 21.5506 60.3788Z" fill="#85ED47"></path></g><g id="Group_34"><path id="Vector_40" d="M22.8601 58.1168C22.8218 58.1168 22.7835 58.1398 22.7605 58.1781L22.5843 58.4769C22.5536 58.5306 22.5689 58.5995 22.6303 58.6379C22.6839 58.6685 22.7529 58.6532 22.7912 58.5919L22.9674 58.293C22.9981 58.2394 22.9828 58.1704 22.9214 58.1321C22.8985 58.1168 22.8831 58.1168 22.8601 58.1168Z" fill="#85ED47"></path></g><g id="Group_35"><path id="Vector_41" d="M21.1387 59.9676C21.1157 59.9676 21.1003 59.9752 21.0774 59.9829L20.7785 60.1592C20.7248 60.1898 20.7019 60.2588 20.7325 60.3201C20.7632 60.3737 20.8321 60.3967 20.8934 60.3661L21.1923 60.1898C21.2459 60.1592 21.2689 60.0902 21.2383 60.0289C21.2153 59.9906 21.177 59.9676 21.1387 59.9676Z" fill="#85ED47"></path></g><g id="Group_36"><path id="Vector_42" d="M23.4029 58.6587C23.38 58.6587 23.3646 58.6664 23.3416 58.674L23.0428 58.8503C22.9891 58.8809 22.9661 58.9499 22.9968 59.0112C23.0274 59.0648 23.0964 59.0878 23.1577 59.0572L23.4566 58.8809C23.5102 58.8503 23.5332 58.7813 23.5026 58.72C23.4796 58.674 23.4413 58.6587 23.4029 58.6587Z" fill="#85ED47"></path></g><g id="Group_37"><path id="Vector_43" d="M20.9875 59.4012H20.6427C20.5814 59.4012 20.5277 59.4549 20.5277 59.5162C20.5277 59.5775 20.5814 59.6311 20.6427 59.6311H20.9875C21.0488 59.6311 21.1025 59.5775 21.1025 59.5162C21.1025 59.4549 21.0488 59.4012 20.9875 59.4012Z" fill="#85ED47"></path></g><g id="Group_38"><path id="Vector_44" d="M23.6016 59.4012H23.2568C23.1955 59.4012 23.1418 59.4549 23.1418 59.5162C23.1418 59.5775 23.1955 59.6311 23.2568 59.6311H23.6016C23.6629 59.6311 23.7166 59.5775 23.7166 59.5162C23.7166 59.4549 23.6629 59.4012 23.6016 59.4012Z" fill="#85ED47"></path></g><g id="Group_39"><path id="Vector_45" d="M20.8405 58.6589C20.8021 58.6589 20.7638 58.6819 20.7409 58.7202C20.7102 58.7739 20.7255 58.8428 20.7868 58.8812L21.0857 59.0574C21.1393 59.0881 21.2083 59.0728 21.2466 59.0114C21.2773 58.9578 21.2619 58.8888 21.2006 58.8505L20.9018 58.6743C20.8788 58.6589 20.8558 58.6589 20.8405 58.6589Z" fill="#85ED47"></path></g><g id="Group_40"><path id="Vector_46" d="M23.1036 59.9676C23.0653 59.9676 23.027 59.9906 23.004 60.0289C22.9734 60.0825 22.9887 60.1515 23.05 60.1898L23.3488 60.3661C23.4025 60.3967 23.4715 60.3814 23.5098 60.3201C23.5404 60.2664 23.5251 60.1975 23.4638 60.1592L23.1649 59.9829C23.1419 59.9676 23.119 59.9676 23.1036 59.9676Z" fill="#85ED47"></path></g><g id="Group_41"><path id="Vector_47" d="M21.3775 58.1168C21.3545 58.1168 21.3391 58.1244 21.3162 58.1321C21.2625 58.1627 21.2395 58.2317 21.2702 58.293L21.4464 58.5919C21.4771 58.6455 21.546 58.6685 21.6073 58.6379C21.661 58.6072 21.684 58.5382 21.6533 58.4769L21.4771 58.1781C21.4617 58.1398 21.4234 58.1168 21.3775 58.1168Z" fill="#85ED47"></path></g><g id="Group_42"><path id="Vector_48" d="M22.682 60.3788C22.6591 60.3788 22.6437 60.3865 22.6207 60.3942C22.5671 60.4248 22.5441 60.4938 22.5748 60.5551L22.751 60.854C22.7817 60.9076 22.8506 60.9306 22.9119 60.8999C22.9656 60.8693 22.9886 60.8003 22.9579 60.739L22.7817 60.4402C22.7663 60.4018 22.728 60.3788 22.682 60.3788Z" fill="#85ED47"></path></g></g><g id="Group_43"><g id="Group_44"><path id="Vector_49" d="M60.6241 46.0851C60.4101 46.0851 60.2419 45.917 60.2419 45.7029V45.5271C60.2419 45.3131 60.4101 45.1449 60.6241 45.1449C60.8381 45.1449 61.0063 45.3131 61.0063 45.5271V45.7029C61.0063 45.917 60.8305 46.0851 60.6241 46.0851Z" fill="#85ED47"></path></g><g id="Group_45"><path id="Vector_50" d="M60.6241 50.6048C60.4101 50.6048 60.2419 50.4366 60.2419 50.2225V50.0467C60.2419 49.8327 60.4101 49.6645 60.6241 49.6645C60.8381 49.6645 61.0063 49.8327 61.0063 50.0467V50.2225C61.0063 50.4366 60.8305 50.6048 60.6241 50.6048Z" fill="#85ED47"></path></g><g id="Group_46"><path id="Vector_51" d="M59.0859 46.7209C58.9865 46.7209 58.8871 46.6827 58.8183 46.6063L58.696 46.484C58.5431 46.3311 58.5431 46.0941 58.696 45.9412C58.8489 45.7883 59.0859 45.7883 59.2388 45.9412L59.3611 46.0635C59.514 46.2164 59.514 46.4534 59.3611 46.6063C59.277 46.6903 59.1852 46.7209 59.0859 46.7209Z" fill="#85ED47"></path></g><g id="Group_47"><path id="Vector_52" d="M62.2811 49.9148C62.1817 49.9148 62.0823 49.8766 62.0135 49.8002L61.8912 49.6779C61.7383 49.525 61.7383 49.288 61.8912 49.1351C62.0441 48.9822 62.2811 48.9822 62.434 49.1351L62.5563 49.2574C62.7092 49.4103 62.7092 49.6473 62.5563 49.8002C62.4722 49.8766 62.3728 49.9148 62.2811 49.9148Z" fill="#85ED47"></path></g><g id="Group_48"><path id="Vector_53" d="M58.452 48.2547H58.2762C58.0621 48.2547 57.894 48.0865 57.894 47.8725C57.894 47.6584 58.0621 47.4902 58.2762 47.4902H58.452C58.666 47.4902 58.8342 47.6584 58.8342 47.8725C58.8342 48.0865 58.6584 48.2547 58.452 48.2547Z" fill="#85ED47"></path></g><g id="Group_49"><path id="Vector_54" d="M62.9706 48.2547H62.7948C62.5808 48.2547 62.4126 48.0865 62.4126 47.8725C62.4126 47.6584 62.5808 47.4902 62.7948 47.4902H62.9706C63.1847 47.4902 63.3528 47.6584 63.3528 47.8725C63.3528 48.0865 63.177 48.2547 62.9706 48.2547Z" fill="#85ED47"></path></g><g id="Group_50"><path id="Vector_55" d="M58.9555 49.9148C58.8561 49.9148 58.7568 49.8766 58.688 49.8002C58.5351 49.6473 58.5351 49.4103 58.688 49.2574L58.8103 49.1351C58.9632 48.9822 59.2001 48.9822 59.353 49.1351C59.5059 49.288 59.5059 49.525 59.353 49.6779L59.2307 49.8002C59.1543 49.8766 59.0549 49.9148 58.9555 49.9148Z" fill="#85ED47"></path></g><g id="Group_51"><path id="Vector_56" d="M62.1533 46.7209C62.0539 46.7209 61.9546 46.6827 61.8858 46.6063C61.7329 46.4534 61.7329 46.2164 61.8858 46.0635L62.0081 45.9412C62.161 45.7883 62.3979 45.7883 62.5508 45.9412C62.7037 46.0941 62.7037 46.3311 62.5508 46.484L62.4285 46.6063C62.3521 46.6903 62.2527 46.7209 62.1533 46.7209Z" fill="#85ED47"></path></g></g><path id="Vector_57" d="M225.687 77.8085H225.266C224.93 77.8085 224.663 77.541 224.663 77.2046V76.7842C224.663 76.4479 224.93 76.1803 225.266 76.1803H225.687C226.023 76.1803 226.291 76.4479 226.291 76.7842V77.2046C226.291 77.541 226.023 77.8085 225.687 77.8085ZM228.554 79.4674V79.0469C228.554 78.7106 228.286 78.443 227.95 78.443H227.529C227.193 78.443 226.925 78.7106 226.925 79.0469V79.4674C226.925 79.8037 227.193 80.0713 227.529 80.0713H227.95C228.286 80.0713 228.554 79.8037 228.554 79.4674ZM227.529 77.8085H227.95C228.286 77.8085 228.554 77.541 228.554 77.2046V76.7842C228.554 76.4479 228.286 76.1803 227.95 76.1803H227.529C227.193 76.1803 226.925 76.4479 226.925 76.7842V77.2046C226.925 77.541 227.2 77.8085 227.529 77.8085ZM225.266 80.0713H225.687C226.023 80.0713 226.291 79.8037 226.291 79.4674V79.0469C226.291 78.7106 226.023 78.443 225.687 78.443H225.266C224.93 78.443 224.663 78.7106 224.663 79.0469V79.4674C224.663 79.8037 224.938 80.0713 225.266 80.0713Z" fill="#85ED47"></path><g id="Group_52"><path id="Vector_58" d="M214.969 78.4673C214.985 78.3756 214.992 78.2838 214.992 78.1844C214.992 78.0851 214.985 77.9933 214.969 77.9016L215.313 77.5882C215.397 77.5117 215.413 77.3894 215.359 77.2977L215.099 76.8543C215.046 76.755 214.931 76.7167 214.824 76.7473L214.381 76.8926C214.235 76.7703 214.075 76.6785 213.891 76.6097L213.792 76.1511C213.769 76.044 213.67 75.9676 213.563 75.9676H213.051C212.944 75.9676 212.844 76.044 212.821 76.1511L212.722 76.6097C212.546 76.6785 212.378 76.7703 212.233 76.8926L211.789 76.7473C211.682 76.7167 211.568 76.755 211.514 76.8543L211.254 77.2977C211.201 77.3971 211.216 77.5117 211.3 77.5882L211.644 77.9016C211.629 77.9933 211.621 78.0851 211.621 78.1844C211.621 78.2838 211.629 78.3756 211.644 78.4673L211.3 78.7807C211.216 78.8572 211.201 78.9795 211.254 79.0712L211.514 79.5146C211.56 79.591 211.636 79.6292 211.72 79.6292C211.743 79.6292 211.766 79.6292 211.789 79.6216L212.233 79.4763C212.378 79.5987 212.538 79.6904 212.722 79.7592L212.821 80.2178C212.844 80.3249 212.944 80.4013 213.051 80.4013H213.563C213.67 80.4013 213.769 80.3249 213.792 80.2178L213.891 79.7592C214.067 79.6904 214.235 79.5987 214.381 79.4763L214.824 79.6216C214.847 79.6292 214.87 79.6292 214.893 79.6292C214.977 79.6292 215.053 79.5834 215.099 79.5146L215.359 79.0712C215.413 78.9718 215.397 78.8572 215.313 78.7807L214.969 78.4673ZM213.311 78.9336C212.898 78.9336 212.569 78.5972 212.569 78.1921C212.569 77.7793 212.905 77.4506 213.311 77.4506C213.723 77.4506 214.052 77.7869 214.052 78.1921C214.052 78.5972 213.723 78.9336 213.311 78.9336Z" fill="#85ED47"></path></g><g id="Group_53"><path id="Vector_59" d="M217.637 75.6917L217.469 75.6534C217.446 75.5846 217.423 75.5235 217.385 75.4623L217.477 75.3171C217.5 75.2789 217.492 75.2407 217.462 75.2101L217.27 75.019C217.24 74.9884 217.194 74.9884 217.163 75.0037L217.018 75.0954C216.957 75.0648 216.888 75.0343 216.827 75.0113L216.789 74.8431C216.781 74.8049 216.743 74.7744 216.705 74.7744H216.437C216.399 74.7744 216.361 74.8049 216.353 74.8431L216.315 75.0113C216.246 75.0343 216.185 75.0572 216.124 75.0954L215.979 75.0037C215.94 74.9808 215.902 74.9884 215.871 75.019L215.68 75.2101C215.65 75.2407 215.65 75.2865 215.665 75.3171L215.757 75.4623C215.726 75.5235 215.696 75.5923 215.673 75.6534L215.505 75.6917C215.466 75.6993 215.436 75.7375 215.436 75.7758V76.0433C215.436 76.0815 215.466 76.1198 215.505 76.1274L215.673 76.1656C215.696 76.2344 215.719 76.3032 215.757 76.3567L215.665 76.502C215.642 76.5402 215.65 76.5784 215.68 76.609L215.871 76.8001C215.887 76.8154 215.91 76.823 215.933 76.823C215.948 76.823 215.963 76.8154 215.979 76.8078L216.124 76.716C216.185 76.7466 216.254 76.7772 216.315 76.8001L216.353 76.9683C216.361 77.0065 216.399 77.0371 216.437 77.0371H216.705C216.743 77.0371 216.781 77.0065 216.789 76.9683L216.827 76.8001C216.896 76.7772 216.965 76.7542 217.018 76.716L217.163 76.8078C217.179 76.8154 217.194 76.823 217.209 76.823C217.232 76.823 217.255 76.8154 217.27 76.8001L217.462 76.609C217.492 76.5784 217.492 76.5325 217.477 76.502L217.385 76.3567C217.416 76.2956 217.446 76.2268 217.469 76.1656L217.637 76.1274C217.676 76.1198 217.706 76.0815 217.706 76.0433V75.7758C217.706 75.7299 217.676 75.6993 217.637 75.6917ZM217.156 75.9057C217.156 76.2268 216.896 76.4867 216.575 76.4867C216.254 76.4867 215.994 76.2268 215.994 75.9057C215.994 75.5847 216.254 75.3247 216.575 75.3247C216.896 75.3247 217.156 75.5847 217.156 75.9057Z" fill="#85ED47"></path></g><g id="Group_54"><path id="Vector_60" d="M233.452 71.3489C232.879 70.4698 231.701 70.2176 230.822 70.7909C229.943 71.3642 229.691 72.5415 230.264 73.4206C230.837 74.2997 232.015 74.5519 232.894 73.9786C233.773 73.4053 234.025 72.228 233.452 71.3489Z" fill="#85ED47"></path></g><g id="Group_55"><g id="Group_56"><path id="Vector_61" d="M226.207 61.7351C226.062 61.7351 225.947 61.6205 225.947 61.4752V61.3529C225.947 61.2077 226.062 61.093 226.207 61.093C226.352 61.093 226.467 61.2077 226.467 61.3529V61.4752C226.467 61.6205 226.344 61.7351 226.207 61.7351Z" fill="#85ED47"></path></g><g id="Group_57"><path id="Vector_62" d="M226.207 64.784C226.062 64.784 225.947 64.6694 225.947 64.5241V64.4018C225.947 64.2566 226.062 64.1419 226.207 64.1419C226.352 64.1419 226.467 64.2566 226.467 64.4018V64.5241C226.467 64.6694 226.344 64.784 226.207 64.784Z" fill="#85ED47"></path></g><g id="Group_58"><path id="Vector_63" d="M225.168 62.1619C225.099 62.1619 225.038 62.139 224.984 62.0855L224.9 62.0014C224.801 61.902 224.801 61.7338 224.9 61.6345C224.999 61.5351 225.168 61.5351 225.267 61.6345L225.351 61.7186C225.451 61.8179 225.451 61.9861 225.351 62.0855C225.298 62.139 225.236 62.1619 225.168 62.1619Z" fill="#85ED47"></path></g><g id="Group_59"><path id="Vector_64" d="M227.33 64.323C227.261 64.323 227.2 64.3001 227.146 64.2466L227.062 64.1625C226.963 64.0631 226.963 63.8949 227.062 63.7955C227.162 63.6962 227.33 63.6962 227.429 63.7955L227.513 63.8796C227.613 63.979 227.613 64.1472 227.513 64.2466C227.46 64.2924 227.391 64.323 227.33 64.323Z" fill="#85ED47"></path></g><g id="Group_60"><path id="Vector_65" d="M224.739 63.2024H224.617C224.472 63.2024 224.357 63.0878 224.357 62.9425C224.357 62.7973 224.472 62.6826 224.617 62.6826H224.739C224.885 62.6826 224.999 62.7973 224.999 62.9425C224.999 63.0878 224.877 63.2024 224.739 63.2024Z" fill="#85ED47"></path></g><g id="Group_61"><path id="Vector_66" d="M227.79 63.2024H227.667C227.522 63.2024 227.407 63.0878 227.407 62.9425C227.407 62.7973 227.522 62.6826 227.667 62.6826H227.79C227.935 62.6826 228.049 62.7973 228.049 62.9425C228.049 63.0878 227.935 63.2024 227.79 63.2024Z" fill="#85ED47"></path></g><g id="Group_62"><path id="Vector_67" d="M225.083 64.3268C225.015 64.3268 224.953 64.3038 224.9 64.2503C224.8 64.151 224.8 63.9828 224.9 63.8834L224.984 63.7993C225.083 63.6999 225.252 63.6999 225.351 63.7993C225.45 63.8987 225.45 64.0669 225.351 64.1663L225.267 64.2503C225.213 64.2962 225.152 64.3268 225.083 64.3268Z" fill="#85ED47"></path></g><g id="Group_63"><path id="Vector_68" d="M227.246 62.1619C227.177 62.1619 227.116 62.139 227.062 62.0855C226.963 61.9861 226.963 61.8179 227.062 61.7186L227.146 61.6345C227.246 61.5351 227.414 61.5351 227.513 61.6345C227.613 61.7338 227.613 61.902 227.513 62.0014L227.429 62.0855C227.376 62.139 227.307 62.1619 227.246 62.1619Z" fill="#85ED47"></path></g></g><path id="Vector_69" d="M8.45 69.9661H8.87045C9.2068 69.9661 9.47434 70.2336 9.47434 70.57V70.9904C9.47434 71.3268 9.2068 71.5943 8.87045 71.5943H8.45C8.11365 71.5943 7.84609 71.3268 7.84609 70.9904V70.57C7.84609 70.2413 8.11365 69.9661 8.45 69.9661ZM5.58337 68.3073V68.7277C5.58337 69.0641 5.85092 69.3316 6.18727 69.3316H6.60771C6.94406 69.3316 7.21161 69.0641 7.21161 68.7277V68.3073C7.21161 67.9709 6.94406 67.7034 6.60771 67.7034H6.18727C5.85092 67.7034 5.58337 67.9786 5.58337 68.3073ZM6.60771 69.9661H6.18727C5.85092 69.9661 5.58337 70.2336 5.58337 70.57V70.9904C5.58337 71.3268 5.85092 71.5943 6.18727 71.5943H6.60771C6.94406 71.5943 7.21161 71.3268 7.21161 70.9904V70.57C7.21161 70.2413 6.93642 69.9661 6.60771 69.9661ZM8.87045 67.7034H8.45C8.11365 67.7034 7.84609 67.9709 7.84609 68.3073V68.7277C7.84609 69.0641 8.11365 69.3316 8.45 69.3316H8.87045C9.2068 69.3316 9.47434 69.0641 9.47434 68.7277V68.3073C9.47434 67.9786 9.19915 67.7034 8.87045 67.7034Z" fill="#85ED47"></path><g id="Group_64"><path id="Vector_70" d="M19.1695 69.3082C19.1542 69.3999 19.1466 69.4916 19.1466 69.591C19.1466 69.6904 19.1542 69.7821 19.1695 69.8738L18.8255 70.1873C18.7414 70.2637 18.7261 70.386 18.7797 70.4778L19.0396 70.9211C19.0931 71.0205 19.2077 71.0587 19.3148 71.0282L19.7581 70.8829C19.9034 71.0052 20.0639 71.0969 20.2474 71.1657L20.3468 71.6244C20.3697 71.7314 20.4691 71.8079 20.5761 71.8079H21.0883C21.1953 71.8079 21.2947 71.7314 21.3176 71.6244L21.417 71.1657C21.5928 71.0969 21.761 71.0052 21.9062 70.8829L22.3496 71.0282C22.4566 71.0587 22.5713 71.0205 22.6248 70.9211L22.8847 70.4778C22.9382 70.3784 22.9229 70.2637 22.8388 70.1873L22.4948 69.8738C22.5101 69.7821 22.5177 69.6904 22.5177 69.591C22.5177 69.4916 22.5101 69.3999 22.4948 69.3082L22.8388 68.9948C22.9229 68.9183 22.9382 68.796 22.8847 68.7043L22.6248 68.2609C22.5789 68.1844 22.5025 68.1462 22.4184 68.1462C22.3954 68.1462 22.3725 68.1462 22.3496 68.1539L21.9062 68.2991C21.761 68.1768 21.6004 68.0851 21.417 68.0163L21.3176 67.5576C21.2947 67.4506 21.1953 67.3741 21.0883 67.3741H20.5761C20.4691 67.3741 20.3697 67.4506 20.3468 67.5576L20.2474 68.0163C20.0716 68.0851 19.9034 68.1768 19.7581 68.2991L19.3148 68.1539C19.2918 68.1462 19.2689 68.1462 19.246 68.1462C19.1619 68.1462 19.0854 68.1921 19.0396 68.2609L18.7797 68.7043C18.7261 68.8036 18.7414 68.9183 18.8255 68.9948L19.1695 69.3082ZM20.8283 68.8419C21.2411 68.8419 21.5699 69.1782 21.5699 69.5834C21.5699 69.9962 21.2335 70.3249 20.8283 70.3249C20.4232 70.3249 20.0868 69.9885 20.0868 69.5834C20.0868 69.1782 20.4156 68.8419 20.8283 68.8419Z" fill="#85ED47"></path></g><g id="Group_65"><path id="Vector_71" d="M16.4992 72.0898L16.6673 72.128C16.6903 72.1968 16.7132 72.2656 16.7514 72.3191L16.6597 72.4644C16.6367 72.5026 16.6444 72.5408 16.675 72.5714L16.8661 72.7625C16.8967 72.7931 16.9425 72.7931 16.9731 72.7778L17.1183 72.6861C17.1795 72.7166 17.2483 72.7472 17.3095 72.7701L17.3477 72.9383C17.3553 72.9765 17.3935 73.0071 17.4318 73.0071H17.6993C17.7375 73.0071 17.7758 72.9765 17.7834 72.9383L17.8216 72.7701C17.8904 72.7472 17.9516 72.7243 18.0127 72.6861L18.158 72.7778C18.1962 72.8007 18.2344 72.7931 18.265 72.7625L18.4561 72.5714C18.4867 72.5408 18.4867 72.4949 18.4714 72.4644L18.3797 72.3191C18.4102 72.258 18.4408 72.1892 18.4637 72.128L18.6319 72.0898C18.6701 72.0822 18.7007 72.0439 18.7007 72.0057V71.7382C18.7007 71.6999 18.6701 71.6617 18.6319 71.6541L18.4637 71.6158C18.4408 71.547 18.4179 71.4782 18.3797 71.4247L18.4714 71.2795C18.4943 71.2413 18.4867 71.203 18.4561 71.1725L18.265 70.9814C18.2497 70.9661 18.2268 70.9584 18.2038 70.9584C18.1886 70.9584 18.1733 70.9661 18.158 70.9737L18.0127 71.0654C17.9516 71.0349 17.8828 71.0043 17.8216 70.9814L17.7834 70.8132C17.7758 70.775 17.7375 70.7444 17.6993 70.7444H17.4318C17.3935 70.7444 17.3553 70.775 17.3477 70.8132L17.3095 70.9737C17.2407 70.9967 17.1795 71.0196 17.1183 71.0578L16.9731 70.9661C16.9578 70.9584 16.9425 70.9508 16.9272 70.9508C16.9043 70.9508 16.8814 70.9584 16.8661 70.9737L16.675 71.1648C16.6444 71.1954 16.6444 71.2413 16.6597 71.2718L16.7514 71.4171C16.7208 71.4782 16.6903 71.547 16.6673 71.6082L16.4992 71.6464C16.4609 71.6541 16.4304 71.6923 16.4304 71.7305V71.9981C16.4304 72.0439 16.4609 72.0822 16.4992 72.0898ZM16.9808 71.8681C16.9808 71.547 17.2407 71.2871 17.5617 71.2871C17.8828 71.2871 18.1427 71.547 18.1427 71.8681C18.1427 72.1892 17.8828 72.4491 17.5617 72.4491C17.2407 72.4491 16.9808 72.1892 16.9808 71.8681Z" fill="#85ED47"></path></g><g id="Group_66"><path id="Vector_72" d="M0.682498 76.4273C1.25582 77.3064 2.43306 77.5586 3.31216 76.9853C4.19126 76.412 4.44352 75.2347 3.87019 74.3556C3.29686 73.4765 2.11963 73.2243 1.24053 73.7976C0.361433 74.3709 0.109173 75.5482 0.682498 76.4273Z" fill="#85ED47"></path></g><g id="Group_67"><g id="Group_68"><path id="Vector_73" d="M7.93041 86.0494C8.07565 86.0494 8.19032 86.1641 8.19032 86.3093V86.4317C8.19032 86.5769 8.07565 86.6916 7.93041 86.6916C7.78516 86.6916 7.6705 86.5769 7.6705 86.4317V86.3093C7.6705 86.1641 7.79281 86.0494 7.93041 86.0494Z" fill="#85ED47"></path></g><g id="Group_69"><path id="Vector_74" d="M7.93041 82.9913C8.07565 82.9913 8.19032 83.106 8.19032 83.2512V83.3736C8.19032 83.5188 8.07565 83.6335 7.93041 83.6335C7.78516 83.6335 7.6705 83.5188 7.6705 83.3736V83.2512C7.6705 83.106 7.79281 82.9913 7.93041 82.9913Z" fill="#85ED47"></path></g><g id="Group_70"><path id="Vector_75" d="M8.96935 85.6138C9.03815 85.6138 9.09931 85.6367 9.15282 85.6902L9.23691 85.7743C9.33629 85.8737 9.33629 86.0419 9.23691 86.1412C9.13753 86.2406 8.96936 86.2406 8.86999 86.1412L8.7859 86.0572C8.68652 85.9578 8.68652 85.7896 8.7859 85.6902C8.83941 85.6444 8.90055 85.6138 8.96935 85.6138Z" fill="#85ED47"></path></g><g id="Group_71"><path id="Vector_76" d="M6.807 83.4568C6.8758 83.4568 6.93696 83.4798 6.99047 83.5333L7.07456 83.6174C7.17393 83.7168 7.17393 83.8849 7.07456 83.9843C6.97518 84.0837 6.80701 84.0837 6.70763 83.9843L6.62354 83.9002C6.52417 83.8009 6.52417 83.6327 6.62354 83.5333C6.67705 83.4798 6.74585 83.4568 6.807 83.4568Z" fill="#85ED47"></path></g><g id="Group_72"><path id="Vector_77" d="M9.39754 84.5795H9.51985C9.66509 84.5795 9.77976 84.6942 9.77976 84.8395C9.77976 84.9847 9.66509 85.0994 9.51985 85.0994H9.39754C9.2523 85.0994 9.13763 84.9847 9.13763 84.8395C9.13763 84.6942 9.25994 84.5795 9.39754 84.5795Z" fill="#85ED47"></path></g><g id="Group_73"><path id="Vector_78" d="M6.34627 84.5797H6.46858C6.61382 84.5797 6.72849 84.6943 6.72849 84.8396C6.72849 84.9848 6.61382 85.0995 6.46858 85.0995H6.34627C6.20103 85.0995 6.08636 84.9848 6.08636 84.8396C6.08636 84.6943 6.20103 84.5797 6.34627 84.5797Z" fill="#85ED47"></path></g><g id="Group_74"><path id="Vector_79" d="M9.05344 83.4568C9.12224 83.4568 9.1834 83.4798 9.23691 83.5333C9.33629 83.6327 9.33629 83.8009 9.23691 83.9002L9.15282 83.9843C9.05345 84.0837 8.88527 84.0837 8.7859 83.9843C8.68652 83.8849 8.68652 83.7168 8.7859 83.6174L8.86999 83.5333C8.9235 83.4798 8.98464 83.4568 9.05344 83.4568Z" fill="#85ED47"></path></g><g id="Group_75"><path id="Vector_80" d="M6.89091 85.6137C6.9597 85.6137 7.02086 85.6366 7.07437 85.6902C7.17375 85.7895 7.17375 85.9577 7.07437 86.0571L6.99029 86.1412C6.89091 86.2405 6.72274 86.2405 6.62336 86.1412C6.52398 86.0418 6.52398 85.8736 6.62336 85.7742L6.70745 85.6902C6.76096 85.6443 6.82975 85.6137 6.89091 85.6137Z" fill="#85ED47"></path></g></g></g><defs><radialGradient id="paint0_radial_1_2365" cx="0" cy="0" r="1" gradientUnits="userSpaceOnUse" gradientTransform="translate(116.946 77.5317) scale(77.1216 77.1216)"><stop stop-color="#81E645"></stop><stop offset="0.2961" stop-color="#59A52C" stop-opacity="0.7"></stop><stop offset="1" stop-color="#163536" stop-opacity="0"></stop></radialGradient><linearGradient id="paint1_linear_1_2365" x1="60.7266" y1="78.3864" x2="148.235" y2="75.7379" gradientUnits="userSpaceOnUse"><stop offset="0.00450562" stop-color="#8DDE5D"></stop><stop offset="0.55439" stop-color="#64B036"></stop><stop offset="0.999" stop-color="#7DE440"></stop></linearGradient><linearGradient id="paint2_linear_1_2365" x1="140.668" y1="46.2478" x2="115.062" y2="123.776" gradientUnits="userSpaceOnUse"><stop offset="0.00301753" stop-color="#509825"></stop><stop offset="0.999" stop-color="#77DE3A"></stop></linearGradient><linearGradient id="paint3_linear_1_2365" x1="115.432" y1="14.1667" x2="30.5409" y2="100.583" gradientUnits="userSpaceOnUse"><stop stop-color="#6FFF1A"></stop><stop offset="0.427083" stop-color="#98F561"></stop><stop offset="0.9963" stop-color="#8AFF44"></stop></linearGradient><linearGradient id="paint4_linear_1_2365" x1="135.147" y1="23.3503" x2="44.9207" y2="90.1216" gradientUnits="userSpaceOnUse"><stop stop-color="#6FFF1A"></stop><stop offset="0.427083" stop-color="#98F561"></stop><stop offset="0.9963" stop-color="#8AFF44"></stop></linearGradient><linearGradient id="paint5_linear_1_2365" x1="122.345" y1="52.3964" x2="86.5564" y2="87.2294" gradientUnits="userSpaceOnUse"><stop stop-color="#848484"></stop><stop offset="0.427083" stop-color="#CECECE"></stop><stop offset="0.9963" stop-color="#939393"></stop></linearGradient><linearGradient id="paint6_linear_1_2365" x1="120.869" y1="52.5291" x2="86.1417" y2="92.9718" gradientUnits="userSpaceOnUse"><stop stop-color="#D9D9D9"></stop><stop offset="0.427083" stop-color="white"></stop><stop offset="0.9963" stop-color="#D9D9D9"></stop></linearGradient></defs></svg>