<svg xmlns="http://www.w3.org/2000/svg" width="161" height="99" viewBox="0 0 161 99" fill="none"><g id="Group 1261153596"><g id="Group"><g id="Group_2"><path id="Vector" d="M2.79072 95.3162C2.79072 96.8474 4.0445 98.0999 5.57689 98.0999H156.24C157.773 98.0999 159.026 96.8474 159.026 95.3162L160.28 8.73423C160.28 7.20308 158.477 4.2145 155.171 4.43939L7.92578 0.629329C6.00294 0.579353 4.14383 1.31963 2.7826 2.67648C1.42137 4.03334 0.6761 5.88933 0.721703 7.81029L2.79072 95.3162Z" fill="url(#paint0_linear_1_1472)"></path><path id="Vector_2" d="M5.54136 92.6465C5.54136 94.0964 6.72768 95.2821 8.17699 95.2821H152.607C154.057 95.2821 155.243 94.0958 155.243 92.6465L156.426 14.0463C156.287 9.31605 152.14 7.61623 149.626 7.71681L8.50496 3.93048C7.15435 3.89425 5.8481 4.41463 4.89168 5.36918C3.93525 6.32372 3.40863 7.62935 3.44299 8.97996L5.54136 92.6465Z" fill="#5BB824"></path><g id="Group_3"><path id="Vector_3" d="M153.681 55.3045C153.679 55.3045 153.677 55.3045 153.675 55.3045C153.462 55.3013 153.292 55.1258 153.295 54.9121L153.389 48.5377C153.392 48.3265 153.564 48.1572 153.775 48.1572C153.777 48.1572 153.778 48.1572 153.78 48.1572C153.994 48.1604 154.164 48.3359 154.161 48.5495L154.067 54.924C154.064 55.1358 153.892 55.3045 153.681 55.3045Z" fill="white"></path><path id="Vector_4" d="M153.911 39.6847C153.909 39.6847 153.907 39.6847 153.905 39.6847C153.691 39.6816 153.522 39.5061 153.525 39.2924L153.883 14.8784C153.876 13.4285 153.437 12.2703 152.575 11.445C150.967 9.9045 148.413 9.98321 148.305 9.98821L103.2 8.77878C102.987 8.77316 102.818 8.59575 102.824 8.38272C102.83 8.1697 102.994 7.98791 103.221 8.00728L148.3 9.2167C148.58 9.19983 151.299 9.15298 153.109 10.8878C154.128 11.8636 154.648 13.2079 154.656 14.8834L154.297 39.3049C154.294 39.5154 154.121 39.6847 153.911 39.6847Z" fill="white"></path></g></g><path id="Vector_5" d="M152.606 92.905C152.606 93.9382 151.769 94.776 150.735 94.776H9.42494C8.39203 94.776 7.55469 93.9386 7.55469 92.9057V14.9154C7.55469 10.9497 10.8431 7.76418 14.8306 7.86666L145.775 11.2491C149.558 11.3466 152.575 14.4241 152.577 18.1873L152.606 92.905Z" fill="#C8FFA7"></path></g><g id="Group_4"><g id="Group_5"><path id="Vector_6" opacity="0.69" d="M12.1835 77.1984L12.2797 77.8019C12.3678 78.3554 13.1099 78.7764 13.9964 78.7764H107.23C108.183 78.7764 108.955 78.2917 108.955 77.6938C108.955 77.1003 108.194 76.6174 107.248 76.6112L13.917 76.0077C12.89 76.0015 12.081 76.5569 12.1835 77.1984Z" fill="white"></path><path id="Vector_7" opacity="0.69" d="M10.7437 83.2902L10.8043 83.8937C10.8599 84.4472 11.3253 84.8682 11.8813 84.8682H70.3816C70.9795 84.8682 71.4642 84.3835 71.4642 83.7856C71.4642 83.1921 70.9863 82.7092 70.3929 82.703L11.8319 82.0995C11.1866 82.0933 10.6794 82.6487 10.7437 83.2902Z" fill="white"></path><path id="Vector_8" opacity="0.69" d="M10.7437 89.1152L10.8043 89.7186C10.8599 90.2721 11.3253 90.6932 11.8813 90.6932H70.3816C70.9795 90.6932 71.4642 90.2084 71.4642 89.6106C71.4642 89.0171 70.9863 88.5342 70.3929 88.5279L11.8319 87.9245C11.1866 87.9182 10.6794 88.4736 10.7437 89.1152Z" fill="white"></path><path id="Vector_9" d="M49.6187 78.3734C49.5499 77.4751 49.4662 76.5649 49.3856 75.651L13.2684 75.0556C12.6237 75.045 12.1158 75.9327 12.1802 76.9579L12.2408 77.923C12.2964 78.807 12.7618 79.4804 13.3178 79.4804H49.7192C49.6811 79.0931 49.6449 78.7201 49.6187 78.3734Z" fill="url(#paint1_linear_1_1472)"></path><path id="Vector_10" d="M49.9083 79.4817C50.9892 79.4817 51.8655 78.6054 51.8655 77.5245C51.8655 76.4435 50.9892 75.5673 49.9083 75.5673C48.8274 75.5673 47.9511 76.4435 47.9511 77.5245C47.9511 78.6054 48.8274 79.4817 49.9083 79.4817Z" fill="#397615"></path></g><g id="Group_6"><path id="Vector_11" d="M105.819 72.1137H14.1653C12.2725 72.1137 10.7382 70.5795 10.7382 68.6866V15.9729C10.7382 14.0545 12.3131 12.5096 14.2315 12.5464L105.885 14.3131C107.751 14.3493 109.246 15.8723 109.246 17.7396V68.6873C109.246 70.5789 107.712 72.1137 105.819 72.1137Z" fill="url(#paint2_linear_1_1472)"></path><path id="Vector_12" fill-rule="evenodd" clip-rule="evenodd" d="M58.04 50.2355V37.038C58.04 35.6281 59.5749 34.7535 60.788 35.4731L71.909 42.0719C73.0972 42.7765 73.0972 44.4964 71.909 45.201L60.788 51.7998C59.5749 52.52 58.04 51.6461 58.04 50.2355Z" fill="white"></path></g></g><g id="Group_7"><g id="Group_8"><path id="Vector_13" d="M145.562 33.2808H117.242C116.658 33.2808 116.184 32.8067 116.184 32.222V15.9341C116.184 15.3412 116.67 14.864 117.263 14.8752L145.583 15.4212C146.159 15.4324 146.621 15.9028 146.621 16.4801V32.222C146.622 32.8067 146.147 33.2808 145.562 33.2808Z" fill="url(#paint3_linear_1_1472)"></path><path id="Vector_14" fill-rule="evenodd" clip-rule="evenodd" d="M130.799 26.5221V22.444C130.799 22.0079 131.273 21.7381 131.648 21.9605L135.084 23.9995C135.452 24.2175 135.452 24.7485 135.084 24.9665L131.648 27.0056C131.273 27.2273 130.799 26.9575 130.799 26.5221Z" fill="white"></path></g><g id="Group_9"><path id="Vector_15" d="M145.805 59.3716H117.486C116.901 59.3716 116.427 58.8975 116.427 58.3128V42.0249C116.427 41.432 116.913 40.9548 117.506 40.966L145.826 41.512C146.403 41.5232 146.864 41.9937 146.864 42.5709V58.3128C146.864 58.8975 146.391 59.3716 145.805 59.3716Z" fill="url(#paint4_linear_1_1472)"></path><path id="Vector_16" fill-rule="evenodd" clip-rule="evenodd" d="M131.043 52.6129V48.5348C131.043 48.0988 131.517 47.8289 131.892 48.0513L135.328 50.0903C135.695 50.3083 135.695 50.8393 135.328 51.0574L131.892 53.0964C131.517 53.3188 131.043 53.0483 131.043 52.6129Z" fill="white"></path></g><g id="Group_10"><path id="Vector_17" opacity="0.69" d="M116.875 87.4687L116.905 87.6554C116.932 87.8266 117.162 87.9566 117.437 87.9566H146.332C146.627 87.9566 146.866 87.8066 146.866 87.6223C146.866 87.4387 146.63 87.29 146.337 87.2881L117.413 87.1013C117.094 87.0988 116.843 87.27 116.875 87.4687Z" fill="white"></path><path id="Vector_18" opacity="0.69" d="M116.43 89.5393L116.449 89.7885C116.466 90.0172 116.61 90.1915 116.782 90.1915H134.858C135.043 90.1915 135.192 89.9909 135.192 89.7442C135.192 89.4987 135.045 89.2994 134.861 89.2969L116.767 89.0476C116.568 89.0445 116.411 89.2744 116.43 89.5393Z" fill="white"></path><path id="Vector_19" d="M128.442 87.8306C128.42 87.5532 128.395 87.2715 128.37 86.9891L117.21 86.8054C117.011 86.8023 116.854 87.0766 116.874 87.3933L116.893 87.6913C116.909 87.9643 117.054 88.1723 117.226 88.1723H128.473C128.461 88.0524 128.45 87.9374 128.442 87.8306Z" fill="url(#paint5_linear_1_1472)"></path><path id="Vector_20" d="M128.671 88.1407C128.996 88.0639 129.197 87.7381 129.12 87.4129C129.043 87.0877 128.718 86.8864 128.392 86.9631C128.067 87.0399 127.866 87.3658 127.943 87.6909C128.02 88.0161 128.345 88.2174 128.671 88.1407Z" fill="#397615"></path></g><g id="Group_11"><path id="Vector_21" d="M145.805 85.4654H117.486C116.901 85.4654 116.427 84.9912 116.427 84.4065V68.1186C116.427 67.5258 116.913 67.0485 117.506 67.0598L145.826 67.6058C146.403 67.617 146.864 68.0874 146.864 68.6646V84.4065C146.864 84.9919 146.391 85.4654 145.805 85.4654Z" fill="url(#paint6_linear_1_1472)"></path><path id="Vector_22" fill-rule="evenodd" clip-rule="evenodd" d="M131.043 78.7056V74.6276C131.043 74.1915 131.517 73.9217 131.892 74.1441L135.328 76.1831C135.695 76.4011 135.695 76.9321 135.328 77.1501L131.892 79.1892C131.517 79.4116 131.043 79.1417 131.043 78.7056Z" fill="white"></path></g><g id="Group_12"><path id="Vector_23" opacity="0.69" d="M117.157 61.7892L117.184 61.9616C117.209 62.1197 117.422 62.2396 117.675 62.2396H144.358C144.63 62.2396 144.851 62.1015 144.851 61.931C144.851 61.7617 144.633 61.6236 144.363 61.6224L117.653 61.45C117.358 61.4475 117.127 61.6062 117.157 61.7892Z" fill="white"></path><path id="Vector_24" opacity="0.69" d="M116.746 63.7022L116.763 63.9327C116.779 64.1439 116.912 64.3044 117.071 64.3044H133.763C133.933 64.3044 134.071 64.1195 134.071 63.8915C134.071 63.6647 133.935 63.4811 133.766 63.4786L117.057 63.2481C116.872 63.2456 116.728 63.4573 116.746 63.7022Z" fill="white"></path><path id="Vector_25" d="M127.838 62.1249C127.818 61.8688 127.794 61.6089 127.771 61.3478L117.466 61.1779C117.282 61.1748 117.138 61.4284 117.156 61.7208L117.173 61.9963C117.189 62.2486 117.322 62.4404 117.481 62.4404H127.867C127.856 62.3305 127.845 62.2243 127.838 62.1249Z" fill="url(#paint7_linear_1_1472)"></path><path id="Vector_26" d="M128.314 62.277C128.533 62.0588 128.533 61.7051 128.314 61.4869C128.096 61.2687 127.742 61.2687 127.524 61.4869C127.306 61.7051 127.306 62.0588 127.524 62.277C127.742 62.4952 128.096 62.4952 128.314 62.277Z" fill="#397615"></path></g><g id="Group_13"><path id="Vector_27" opacity="0.69" d="M116.854 36.0316L116.882 36.204C116.907 36.3621 117.119 36.482 117.373 36.482H144.055C144.327 36.482 144.548 36.344 144.548 36.1734C144.548 36.0041 144.33 35.8661 144.06 35.8648L117.35 35.6924C117.056 35.6899 116.825 35.8486 116.854 36.0316Z" fill="white"></path><path id="Vector_28" opacity="0.69" d="M116.443 37.9433L116.46 38.1738C116.476 38.385 116.609 38.5455 116.768 38.5455H133.46C133.63 38.5455 133.768 38.3606 133.768 38.1326C133.768 37.9058 133.632 37.7222 133.463 37.7197L116.754 37.4892C116.57 37.4867 116.425 37.6984 116.443 37.9433Z" fill="white"></path><path id="Vector_29" d="M127.535 36.366C127.515 36.1099 127.491 35.85 127.469 35.5889L117.163 35.419C116.979 35.4159 116.835 35.6695 116.853 35.9618L116.87 36.2373C116.886 36.4897 117.019 36.6815 117.178 36.6815H127.564C127.553 36.5715 127.542 36.4653 127.535 36.366Z" fill="url(#paint8_linear_1_1472)"></path><path id="Vector_30" d="M127.619 36.6819C127.928 36.6819 128.178 36.4317 128.178 36.1232C128.178 35.8146 127.928 35.5645 127.619 35.5645C127.311 35.5645 127.061 35.8146 127.061 36.1232C127.061 36.4317 127.311 36.6819 127.619 36.6819Z" fill="#397615"></path></g></g></g><defs><linearGradient id="paint0_linear_1_1472" x1="-25.5097" y1="0.626951" x2="201.877" y2="133.682" gradientUnits="userSpaceOnUse"><stop stop-color="#1EA303"></stop><stop offset="0.98" stop-color="#106100"></stop></linearGradient><linearGradient id="paint1_linear_1_1472" x1="30.9467" y1="75.2747" x2="30.9467" y2="80.6062" gradientUnits="userSpaceOnUse"><stop stop-color="#77D340"></stop><stop offset="1" stop-color="#447E21"></stop></linearGradient><linearGradient id="paint2_linear_1_1472" x1="75.7822" y1="97.1327" x2="70.0337" y2="-16.113" gradientUnits="userSpaceOnUse"><stop offset="0.215786" stop-color="#77D340"></stop><stop offset="1" stop-color="#498824"></stop></linearGradient><linearGradient id="paint3_linear_1_1472" x1="136.281" y1="41.0114" x2="134.505" y2="6.01978" gradientUnits="userSpaceOnUse"><stop offset="0.215786" stop-color="#77D340"></stop><stop offset="1" stop-color="#498824"></stop></linearGradient><linearGradient id="paint4_linear_1_1472" x1="136.524" y1="67.1022" x2="134.748" y2="32.1106" gradientUnits="userSpaceOnUse"><stop offset="0.215786" stop-color="#77D340"></stop><stop offset="1" stop-color="#498824"></stop></linearGradient><linearGradient id="paint5_linear_1_1472" x1="122.673" y1="86.8731" x2="122.673" y2="88.5201" gradientUnits="userSpaceOnUse"><stop stop-color="#77D340"></stop><stop offset="1" stop-color="#447E21"></stop></linearGradient><linearGradient id="paint6_linear_1_1472" x1="136.524" y1="93.1959" x2="134.748" y2="58.2044" gradientUnits="userSpaceOnUse"><stop offset="0.215786" stop-color="#77D340"></stop><stop offset="1" stop-color="#498824"></stop></linearGradient><linearGradient id="paint7_linear_1_1472" x1="122.51" y1="61.2404" x2="122.51" y2="62.7616" gradientUnits="userSpaceOnUse"><stop stop-color="#77D340"></stop><stop offset="1" stop-color="#447E21"></stop></linearGradient><linearGradient id="paint8_linear_1_1472" x1="122.208" y1="35.4815" x2="122.208" y2="37.0027" gradientUnits="userSpaceOnUse"><stop stop-color="#77D340"></stop><stop offset="1" stop-color="#447E21"></stop></linearGradient></defs></svg>