<svg xmlns="http://www.w3.org/2000/svg" width="90" height="82" viewBox="0 0 90 82"><g id="API" transform="translate(-1125 -1884)"><rect id="Rectangle_7813" data-name="Rectangle 7813" width="90" height="82" rx="15" transform="translate(1125 1884)" fill="#1b1f1a"></rect><g id="Group_44452" data-name="Group 44452" transform="translate(-8646.2 -90.914)"><path id="Path_54830" data-name="Path 54830" d="M16.568,2.61a1.794,1.794,0,0,1,.133.64,1.509,1.509,0,0,1-.453,1.133,1.451,1.451,0,0,1-1.04.44,1.4,1.4,0,0,1-.866-.293,1.906,1.906,0,0,1-.6-.8L12.356.5H4.412L3.026,3.756a1.64,1.64,0,0,1-.573.786,1.4,1.4,0,0,1-.84.28A1.4,1.4,0,0,1,.56,4.45,1.4,1.4,0,0,1,.2,3.437,1.764,1.764,0,0,1,.28,2.93L6.918-13.012a1.769,1.769,0,0,1,.64-.826,1.4,1.4,0,0,1,.96-.24,1.561,1.561,0,0,1,.893.28,1.579,1.579,0,0,1,.6.786ZM5.718-2.562H11.05L8.357-8.8Zm20.953-11.41a4.6,4.6,0,0,1,2.586.813,6.018,6.018,0,0,1,1.973,2.186,6.177,6.177,0,0,1,.746,3,6.2,6.2,0,0,1-.746,2.986,5.989,5.989,0,0,1-1.973,2.2,4.6,4.6,0,0,1-2.586.813H22.033V3.063a1.642,1.642,0,0,1-.427,1.173,1.466,1.466,0,0,1-1.12.453,1.415,1.415,0,0,1-1.093-.467,1.654,1.654,0,0,1-.427-1.16V-12.345a1.574,1.574,0,0,1,.467-1.16,1.574,1.574,0,0,1,1.16-.467Zm0,8.957a1.528,1.528,0,0,0,1-.427,3.144,3.144,0,0,0,.8-1.106,3.431,3.431,0,0,0,.307-1.426A3.431,3.431,0,0,0,28.471-9.4a3.012,3.012,0,0,0-.8-1.093,1.554,1.554,0,0,0-1-.413H22.033v5.891Zm11.7,8.077a1.512,1.512,0,0,1-.507,1.16A1.679,1.679,0,0,1,36.7,4.69a1.607,1.607,0,0,1-1.186-.467,1.574,1.574,0,0,1-.467-1.16V-12.345a1.552,1.552,0,0,1,.48-1.16,1.686,1.686,0,0,1,1.226-.467,1.587,1.587,0,0,1,1.146.467,1.552,1.552,0,0,1,.48,1.16Z" transform="translate(9796 2016)" fill="#cae2bc"></path><line id="Line_1032" data-name="Line 1032" x2="39.988" transform="translate(9796.6 2029.354)" fill="none" stroke="#4fa83d" stroke-linecap="round" stroke-width="3"></line></g></g></svg>