<svg xmlns="http://www.w3.org/2000/svg" width="90" height="82" viewBox="0 0 90 82"><g id="Boost_Your_Ad_Revenue" data-name="Boost Your Ad Revenue" transform="translate(-1545 -1884)"><rect id="Rectangle_7813" data-name="Rectangle 7813" width="90" height="82" rx="15" transform="translate(1545 1884)" fill="#1b1f1a"></rect><g id="Group_44447" data-name="Group 44447" transform="translate(-8057 119.887)"><rect id="Rectangle_7870" data-name="Rectangle 7870" width="8" height="17" rx="1.5" transform="translate(9625 1805.775)" fill="#cae2bc"></rect><rect id="Rectangle_7871" data-name="Rectangle 7871" width="8" height="27" rx="1.5" transform="translate(9661 1795.775)" fill="#cae2bc"></rect><path id="Path_54829" data-name="Path 54829" d="M19.748,7.32a6.456,6.456,0,0,1-2.028,4.813,9.69,9.69,0,0,1-5.173,2.539v3.07a1.752,1.752,0,0,1-1.819,1.819,1.724,1.724,0,0,1-1.27-.512,1.771,1.771,0,0,1-.512-1.308V14.749a12.947,12.947,0,0,1-3.98-.948,11.83,11.83,0,0,1-3.411-2.274,2.012,2.012,0,0,1-.8-1.554,1.732,1.732,0,0,1,.531-1.232,1.683,1.683,0,0,1,1.251-.55,1.569,1.569,0,0,1,1.1.417,10.63,10.63,0,0,0,2.5,1.781,9.319,9.319,0,0,0,2.8.872V2.507A11.952,11.952,0,0,1,3.375-.127,6.38,6.38,0,0,1,1.442-5.035,6.512,6.512,0,0,1,3.508-9.981,9.34,9.34,0,0,1,8.946-12.35v-1.971a1.737,1.737,0,0,1,.531-1.308A1.835,1.835,0,0,1,10.8-16.14a1.662,1.662,0,0,1,1.251.512,1.808,1.808,0,0,1,.493,1.308v2.009a12.471,12.471,0,0,1,3.3.948A8.859,8.859,0,0,1,18.384-9.7a2.167,2.167,0,0,1,.872,1.63,1.7,1.7,0,0,1-.512,1.213,1.65,1.65,0,0,1-1.232.531,1.263,1.263,0,0,1-.872-.3,7.135,7.135,0,0,0-1.781-1.251,9.368,9.368,0,0,0-2.312-.834V-.3a12.332,12.332,0,0,1,5.42,2.634A6.545,6.545,0,0,1,19.748,7.32ZM5.043-5.187a3.172,3.172,0,0,0,1,2.445,7.689,7.689,0,0,0,2.9,1.535V-8.863A5.327,5.327,0,0,0,6.085-7.575,3.165,3.165,0,0,0,5.043-5.187Zm7.5,16.259a5.73,5.73,0,0,0,2.577-1.364,3,3,0,0,0,.985-2.236,3.562,3.562,0,0,0-.929-2.407,6.66,6.66,0,0,0-2.634-1.611Z" transform="translate(9636.71 1803.254)" fill="#4fa83d"></path></g></g></svg>