<svg xmlns="http://www.w3.org/2000/svg" width="61" height="58" viewBox="0 0 61 58"><g id="Group_44529" data-name="Group 44529" transform="translate(-458 -1033)"><rect id="Rectangle_6430" data-name="Rectangle 6430" width="61" height="58" rx="14" transform="translate(458 1033)" fill="#2c2f32"></rect><g id="Group_5386" data-name="Group 5386" transform="translate(474 1047)"><circle id="Ellipse_1458" data-name="Ellipse 1458" cx="10.599" cy="10.599" r="10.599" transform="translate(5.217 3.395)" fill="#4fa83d"></circle><path id="Icon_ionic-ios-checkmark-circle" data-name="Icon ionic-ios-checkmark-circle" d="M18.375,3.375a15,15,0,1,0,15,15A15,15,0,0,0,18.375,3.375Zm7.68,10.853-9.642,9.685h-.007a1.3,1.3,0,0,1-.837.4,1.263,1.263,0,0,1-.844-.411l-4.038-4.038a.287.287,0,0,1,0-.411l1.284-1.284a.279.279,0,0,1,.4,0l3.2,3.2,8.8-8.863a.285.285,0,0,1,.2-.087h0a.262.262,0,0,1,.2.087l1.262,1.305A.284.284,0,0,1,26.055,14.228Z" transform="translate(-3.375 -3.375)" fill="#cae2bc"></path></g></g></svg>