<svg xmlns="http://www.w3.org/2000/svg" width="66" height="66" viewBox="0 0 66 66"><g id="Customizable" transform="translate(-5209 -4256)"><circle id="Ellipse_2069" data-name="Ellipse 2069" cx="33" cy="33" r="33" transform="translate(5209 4256)" fill="#fff" opacity="0.085"></circle><g id="Group_44276" data-name="Group 44276" transform="translate(5226 4274)"><path id="Path_54408" data-name="Path 54408" d="M29.654,3.048A2.516,2.516,0,0,0,29.09.574,2.158,2.158,0,0,0,26.87.137c-1.11.546-10.48,6.314-13.956,10.135-1.565,1.747-3.748,6.9-1.983,8.77,1.674,1.783,7.205-.309,8.716-1.82C23.395,13.474,29.126,4.176,29.654,3.048Z" transform="translate(2.462)" fill="#cae2bc"></path><path id="Path_54409" data-name="Path 54409" d="M0,24.914c4.312-2.838,2.657-6.2,5.877-8.443a4.253,4.253,0,0,1,5.6.528c1.146,1.219,1.456,4.676-.291,6.3C8.333,25.933,3.912,26.115,0,24.914Z" transform="translate(0 3.752)" fill="#59a52c"></path></g></g></svg>