<svg xmlns="http://www.w3.org/2000/svg" width="512" height="413" viewBox="0 0 512 413" fill="none">
<path d="M502.94 359.93C500.618 359.644 498.279 359.524 495.94 359.57C432.287 359.57 368.62 359.593 304.94 359.64C301.04 359.64 299.18 358.69 297.77 354.77C292.13 339.1 275.65 328.08 258.97 328.27C242.1 328.45 226.26 339.07 220.59 354.65C219.1 358.76 217.02 359.65 213.04 359.65C146.88 359.54 80.73 359.65 14.57 359.5C7.84 359.48 2.48 361 0 368V373C3.09 379.08 8.21 380.79 14.76 380.78C81.08 380.66 147.41 380.78 213.76 380.62C217.45 380.62 219.2 381.52 220.55 385.23C226.29 401.06 242.32 411.88 259.24 411.89C275.94 411.89 292.04 401.22 297.75 385.69C299.25 381.6 301.21 380.62 305.24 380.62C368.887 380.74 432.553 380.76 496.24 380.68C498.73 380.72 501.218 380.522 503.67 380.09C506.059 379.632 508.206 378.336 509.724 376.435C511.242 374.535 512.032 372.155 511.951 369.724C511.87 367.293 510.924 364.97 509.283 363.175C507.642 361.379 505.414 360.229 503 359.93H502.94ZM259.38 390.77C255.296 390.801 251.294 389.622 247.88 387.379C244.466 385.137 241.793 381.934 240.199 378.173C238.605 374.413 238.162 370.264 238.925 366.251C239.688 362.239 241.623 358.543 244.486 355.629C247.348 352.716 251.01 350.717 255.009 349.884C259.008 349.052 263.163 349.423 266.951 350.951C270.739 352.479 273.989 355.096 276.29 358.471C278.591 361.845 279.84 365.826 279.88 369.91C279.845 375.37 277.685 380.601 273.858 384.495C270.031 388.39 264.838 390.64 259.38 390.77Z" fill="#59A52C"/>
<path d="M259.29 327.37C250.842 327.368 242.584 329.871 235.559 334.563C228.534 339.255 223.058 345.925 219.824 353.729C216.59 361.533 215.743 370.121 217.39 378.406C219.036 386.692 223.103 394.303 229.076 400.277C235.049 406.251 242.659 410.32 250.944 411.969C259.229 413.618 267.817 412.772 275.622 409.54C283.427 406.308 290.098 400.833 294.791 393.81C299.485 386.786 301.99 378.528 301.99 370.08C301.99 358.754 297.492 347.893 289.484 339.883C281.477 331.874 270.616 327.373 259.29 327.37V327.37ZM279.03 370C279.03 373.841 277.891 377.596 275.757 380.789C273.623 383.983 270.59 386.472 267.042 387.942C263.493 389.412 259.589 389.796 255.821 389.047C252.054 388.298 248.594 386.448 245.878 383.732C243.162 381.016 241.313 377.556 240.563 373.789C239.814 370.022 240.198 366.117 241.668 362.568C243.138 359.02 245.627 355.987 248.821 353.853C252.015 351.719 255.769 350.58 259.61 350.58C264.76 350.583 269.698 352.63 273.339 356.271C276.981 359.912 279.027 364.85 279.03 370V370Z" fill="#59A52C"/>
<rect width="512" height="300" rx="27" fill="#CAE1BC"/>
<path d="M174.086 51H337.837C341.001 52.0853 343.225 53.9212 342.982 57.5929C342.534 64.1743 342.047 70.7518 341.522 77.3255C340.804 86.5625 340.039 95.8804 339.321 105.164C338.741 112.449 338.162 119.735 337.629 127.021C336.903 136.304 336.165 145.583 335.416 154.859C334.848 162.144 334.257 169.43 333.736 176.716C333.01 186.061 332.268 195.405 331.511 204.75C331.083 210.292 330.596 215.835 330.26 221.377C330.028 225.279 328.035 227.392 324.328 228.524C311.942 232.311 299.614 236.271 287.251 240.174L256.35 250H255.574L252.26 248.972L223.166 239.735C211.186 235.948 199.213 232.173 187.248 228.408C184.085 227.415 182.046 225.637 181.826 222.162C181.617 218.929 181.339 215.708 181.084 212.486C180.227 201.794 179.346 191.091 178.5 180.399C177.782 171.243 177.133 162.087 176.415 152.93C175.569 142.239 174.665 131.535 173.831 120.843C173.113 111.687 172.452 102.531 171.745 93.3748C170.876 82.0248 169.938 70.6864 169.104 59.3479C168.687 54.1059 169.37 53.113 174.086 51ZM206.25 163.98C206.25 164.569 206.25 164.823 206.25 165.077C207.069 175.977 207.884 186.877 208.695 197.776C208.787 199.058 209.517 199.347 210.514 199.658C225.217 204.277 239.92 208.895 254.635 213.514C255.486 213.762 256.391 213.762 257.242 213.514C271.957 208.895 286.66 204.277 301.363 199.658C302.337 199.358 303.136 199.092 303.206 197.799C303.402 194.116 303.715 190.444 304.005 186.773C304.553 179.614 305.106 172.455 305.662 165.297C306.512 154.72 307.365 144.148 308.222 133.579C308.214 133.087 308.167 132.597 308.083 132.113H305.476C280.457 132.113 255.442 132.113 230.431 132.113C228.508 132.113 227.975 131.466 227.928 129.699C227.882 127.933 227.546 125.981 227.349 124.111L225.727 108.939H228.229C254.739 108.939 281.249 108.939 307.759 108.939C309.52 108.939 310.215 108.627 310.308 106.63C310.598 101.007 311.131 95.407 311.64 89.807C311.895 87.1167 311.953 87.0821 309.219 87.0821H202.623C201.87 87.0821 201.106 87.1629 200.132 87.2322C200.271 88.8718 200.399 90.3381 200.515 91.8507C201.21 101.007 201.882 110.175 202.6 119.331C203.446 130.092 204.408 140.853 205.126 151.66C205.265 153.669 205.879 154.074 207.756 154.062C232.381 154 257.006 154 281.632 154.062H284.03C283.369 162.756 282.709 171.139 282.141 179.464C282.165 179.966 281.994 180.458 281.664 180.838C281.334 181.218 280.87 181.458 280.369 181.508C272.907 183.459 265.48 185.537 258.03 187.512C257.159 187.731 256.247 187.731 255.377 187.512C247.787 185.526 240.245 183.424 232.656 181.461C231.323 181.115 231.08 180.491 231.091 179.302C231.091 174.764 231.091 170.238 231.091 165.701C231.091 164.234 230.639 163.83 229.203 163.853C224.568 163.934 219.841 163.853 215.172 163.853L206.25 163.98Z" fill="#59A52C"/>
<path d="M206.115 164.003H215.09C219.74 164.003 224.472 164.061 229.169 164.003C230.611 164.003 231.099 164.385 231.064 165.856C230.983 170.407 231.064 174.947 231.064 179.498C231.064 180.656 231.296 181.316 232.633 181.664C240.248 183.633 247.817 185.74 255.431 187.732C256.305 187.952 257.22 187.952 258.094 187.732C265.569 185.752 273.021 183.667 280.508 181.71C281.012 181.66 281.477 181.42 281.808 181.039C282.139 180.657 282.31 180.164 282.287 179.66C282.856 171.252 283.519 162.845 284.182 154.182H281.775C257.075 154.182 232.366 154.182 207.65 154.182C205.766 154.182 205.15 153.788 205.011 151.773C204.29 140.956 203.325 130.163 202.476 119.346C201.755 110.162 201.081 100.967 200.384 91.783C200.267 90.3122 200.14 88.8414 200 87.1506C200.977 87.0811 201.744 87 202.5 87H309.456C312.2 87 312.142 87 311.886 89.7331C311.374 95.35 310.84 100.967 310.549 106.607C310.456 108.576 309.758 108.923 307.991 108.923C281.392 108.877 254.792 108.877 228.192 108.923H225.681L227.309 124.141C227.506 126.017 227.844 127.881 227.89 129.746C227.937 131.61 228.471 132.178 230.401 132.166C255.497 132.105 280.597 132.105 305.701 132.166H308.34C308.424 132.652 308.471 133.144 308.48 133.637C307.635 144.245 306.778 154.85 305.91 165.45C305.337 172.631 304.783 179.811 304.248 186.991C303.957 190.674 303.643 194.357 303.446 198.051C303.376 199.348 302.574 199.615 301.597 199.916C286.844 204.548 272.091 209.181 257.326 213.813C256.472 214.062 255.565 214.062 254.711 213.813C239.946 209.181 225.193 204.548 210.44 199.916C209.44 199.603 208.708 199.313 208.615 198.028C207.84 187.095 207.022 176.163 206.162 165.23C206.104 164.848 206.115 164.582 206.115 164.003Z" fill="#CAE1BC"/>
</svg>