<svg xmlns="http://www.w3.org/2000/svg" width="90" height="82" viewBox="0 0 90 82"><g id="Longer_Sessions" data-name="Longer Sessions" transform="translate(-285 -1884)"><rect id="Rectangle_7813" data-name="Rectangle 7813" width="90" height="82" rx="15" transform="translate(285 1884)" fill="#1b1f1a"></rect><g id="Group_44446" data-name="Group 44446" transform="translate(-2 -2.837)"><path id="Path_54334" data-name="Path 54334" d="M67.149,81.6H66.66a.316.316,0,0,0-.075-.028,1.687,1.687,0,0,1-.746-.3,1.666,1.666,0,0,1-.517-.614A3.217,3.217,0,0,1,65,79.095V63.5a4.454,4.454,0,0,1,.159-1.13,1.748,1.748,0,0,1,1.891-1.369,3.38,3.38,0,0,1,1.429.489q6.894,3.913,13.784,7.834a4.453,4.453,0,0,1,.9.673,1.711,1.711,0,0,1,.121,2.473,3.611,3.611,0,0,1-1.046.817L69.173,80.71A6.107,6.107,0,0,1,67.149,81.6Z" transform="translate(247 1860.102)" fill="#cae2bc"></path><path id="Icon_open-arrow-thick-top" data-name="Icon open-arrow-thick-top" d="M9.973,0,0,10.074H6.716v16.79h6.716V10.074h6.716Z" transform="translate(332.006 1914.837)" fill="#4fa83d"></path></g></g></svg>