<svg xmlns="http://www.w3.org/2000/svg" xmlns:xlink="http://www.w3.org/1999/xlink" width="1684" height="811.469" viewBox="0 0 1684 811.469"><defs><linearGradient id="linear-gradient" x1="0.04" y1="0.359" x2="0.944" y2="0.5" gradientUnits="objectBoundingBox"><stop offset="0" stop-color="#161a15"/><stop offset="1" stop-color="#060a05"/></linearGradient><linearGradient id="linear-gradient-2" x1="0.975" y1="0.934" x2="0.022" y2="0.056" gradientUnits="objectBoundingBox"><stop offset="0" stop-color="#28541f" stop-opacity="0"/><stop offset="1" stop-color="#4fa83d"/></linearGradient></defs><g id="BG" transform="translate(-9770 -1811.268)"><rect id="Rectangle_7906" data-name="Rectangle 7906" width="1680" height="807" rx="26" transform="translate(9772 1813.268)" fill="url(#linear-gradient)"/><path id="Rectangle_7807" data-name="Rectangle 7807" d="M26-.4C11.641-.4,0,8.927,0,20.43V787.04c0,11.5,11.641,20.827,26,20.827H1654c14.359,0,26-9.325,26-20.827V20.43C1680,8.927,1668.359-.4,1654-.4H26M26-2H1654a33.887,33.887,0,0,1,10.9,1.763,29.091,29.091,0,0,1,8.9,4.806,22.807,22.807,0,0,1,6,7.129,18.534,18.534,0,0,1,2.2,8.731V787.04a18.534,18.534,0,0,1-2.2,8.731,22.807,22.807,0,0,1-6,7.129,29.092,29.092,0,0,1-8.9,4.806,33.889,33.889,0,0,1-10.9,1.763H26a33.889,33.889,0,0,1-10.9-1.763A29.092,29.092,0,0,1,6.2,802.9a22.807,22.807,0,0,1-6-7.129A18.534,18.534,0,0,1-2,787.04V20.43A18.534,18.534,0,0,1,.2,11.7a22.807,22.807,0,0,1,6-7.129A29.091,29.091,0,0,1,15.1-.237,33.887,33.887,0,0,1,26-2Z" transform="translate(9772 1813.268)" fill="url(#linear-gradient-2)"/></g></svg>