<svg xmlns="http://www.w3.org/2000/svg" width="72" height="72" viewBox="0 0 72 72"><g id="Multidevice" transform="translate(3078 -6708)"><g id="Group_44528" data-name="Group 44528"><circle id="Ellipse_2131" data-name="Ellipse 2131" cx="36" cy="36" r="36" transform="translate(-3078 6708)" fill="#17181a"></circle><g id="Group_44519" data-name="Group 44519" transform="translate(-4889.051 -18.093)"><path id="Icon_material-important-devices" data-name="Icon material-important-devices" d="M30,3H3A2.99,2.99,0,0,0,0,6V24a3,3,0,0,0,3,3H13.5v3h-3v3h12V30h-3V27h3V24H3V6H30v7.5h3V6A3,3,0,0,0,30,3ZM17.955,13.5,16.5,9l-1.455,4.5H10.5l3.7,2.64L12.8,20.5l3.7-2.7,3.7,2.7L18.8,16.14l3.7-2.64Z" transform="translate(1829.051 6744.093)" fill="#cae2bc"></path><path id="Icon_material-important-devices-2" data-name="Icon material-important-devices" d="M34.5,16.515,27,16.5A1.5,1.5,0,0,0,25.5,18V31.5A1.5,1.5,0,0,0,27,33h7.5A1.5,1.5,0,0,0,36,31.5V18A1.492,1.492,0,0,0,34.5,16.515ZM34.5,30H27V19.5h7.5Z" transform="translate(1829.051 6744.093)" fill="#4fa83d"></path><rect id="Rectangle_7905" data-name="Rectangle 7905" width="8" height="13" transform="translate(1856 6762)" fill="#4fa83d"></rect></g></g></g></svg>