<svg xmlns="http://www.w3.org/2000/svg" viewBox="0 0 272 143" width="272" height="143"><defs><clipPath clipPathUnits="userSpaceOnUse" id="cp1"><path d="m-204-501h960v4334h-960z"/></clipPath><linearGradient id="P" gradientUnits="userSpaceOnUse"/><linearGradient id="g1" x1="7.6" y1="138.4" x2="246.2" y2="20.6" href="#P"><stop stop-color="#4fa83d"/><stop offset="1" stop-color="#28541f" stop-opacity="0"/></linearGradient></defs><style>.a{fill:url(#g1)}.b{fill:#1c1e20}</style><g clip-path="url(#cp1)"><path fill-rule="evenodd" class="a" d="m7 8h251c3.6 0 6.5 2.2 6.5 4.8v124.7c0 2.6-2.9 4.8-6.5 4.8h-251c-3.6 0-6.5-2.2-6.5-4.8v-124.7c0-2.6 2.9-4.8 6.5-4.8zm0 0.4c-1.6 0-3.1 0.4-4.2 1.3-1.2 0.8-1.8 1.9-1.8 3.1v124.7c0 1.2 0.6 2.3 1.8 3.1 1.1 0.9 2.6 1.3 4.2 1.3h251c1.6 0 3.1-0.4 4.2-1.3 1.2-0.8 1.8-1.9 1.8-3.1v-124.7c0-1.2-0.6-2.3-1.8-3.1-1.1-0.9-2.6-1.3-4.2-1.3z"/><rect class="b" x="7.4" y=".5" width="264" height="134.3" rx="6.5"/></g></svg>