<svg xmlns="http://www.w3.org/2000/svg" width="90" height="82" viewBox="0 0 90 82"><g id="Powered_By_Our_Network" data-name="Powered By Our Network" transform="translate(-705 -1884)"><rect id="Rectangle_7813" data-name="Rectangle 7813" width="90" height="82" rx="15" transform="translate(705 1884)" fill="#1b1f1a"></rect><g id="world" transform="translate(732 1907)"><g id="Group_4217" data-name="Group 4217" transform="translate(4.792 4.293)"><circle id="Ellipse_640" data-name="Ellipse 640" cx="12.809" cy="12.809" r="12.809" transform="translate(0.901 0.854)" fill="#4fa83d" stroke="#cae2bc" stroke-linejoin="round" stroke-width="1"></circle><g id="Group_4216" data-name="Group 4216"><circle id="Ellipse_641" data-name="Ellipse 641" cx="1.424" cy="1.424" r="1.424" transform="translate(0 25.024)" fill="#4fa83d" stroke="#cae2bc" stroke-linejoin="round" stroke-width="1"></circle><circle id="Ellipse_642" data-name="Ellipse 642" cx="1.424" cy="1.424" r="1.424" transform="translate(23.671)" fill="#4fa83d" stroke="#cae2bc" stroke-linejoin="round" stroke-width="1"></circle></g></g><g id="Group_4219" data-name="Group 4219" transform="translate(0)"><g id="Group_4218" data-name="Group 4218"><path id="Path_21270" data-name="Path 21270" d="M86.925,139.269a.712.712,0,0,0-.331.951,16.611,16.611,0,0,1,1.667,7.3A16.8,16.8,0,0,1,61.37,160.948a2.136,2.136,0,1,0-1.02,1.013,18.22,18.22,0,0,0,29.336-14.446,18.024,18.024,0,0,0-1.81-7.915A.712.712,0,0,0,86.925,139.269ZM58.939,160.53a.712.712,0,1,1,1.007,0A.712.712,0,0,1,58.939,160.53Z" transform="translate(-53.226 -129.285)" fill="#cae2bc" stroke="#cae2bc" stroke-linejoin="round" stroke-width="1"></path><path id="Path_21271" data-name="Path 21271" d="M2.581,26.131a.712.712,0,0,0,.352-.944,16.631,16.631,0,0,1-1.509-6.958A16.824,16.824,0,0,1,18.229,1.424a16.6,16.6,0,0,1,9.832,3.184,2.137,2.137,0,1,0,1.153-.917A18.221,18.221,0,0,0,0,18.229a18.046,18.046,0,0,0,1.638,7.55A.712.712,0,0,0,2.581,26.131ZM30.39,5.214a.712.712,0,1,1-1.007,0A.712.712,0,0,1,30.39,5.214Z" transform="translate(0)" fill="#cae2bc" stroke="#cae2bc" stroke-linejoin="round" stroke-width="1"></path><path id="Path_21272" data-name="Path 21272" d="M79.53,66a13.53,13.53,0,1,0,13.53,13.53A13.512,13.512,0,0,0,79.53,66ZM67.424,79.53a12.064,12.064,0,0,1,.535-3.56h4.693a26.251,26.251,0,0,0,0,7.122H67.959A12.063,12.063,0,0,1,67.424,79.53Zm6.409,0a24.029,24.029,0,0,1,.262-3.56h4.723V83.09H74.1A24.029,24.029,0,0,1,73.833,79.53ZM84.7,74.545h-4.46V67.523C82.2,68.069,83.886,70.831,84.7,74.545Zm-5.884-7.022v7.022h-4.46C75.174,70.831,76.858,68.069,78.818,67.523Zm0,16.991v7.022c-1.96-.546-3.644-3.308-4.46-7.022Zm1.424,7.022V84.514H84.7C83.886,88.229,82.2,90.99,80.242,91.536Zm0-8.446V75.969h4.723a24.313,24.313,0,0,1,0,7.121Zm6.166-7.121H91.1a12.122,12.122,0,0,1,0,7.121H86.408a26.246,26.246,0,0,0,0-7.121Zm4.153-1.424h-4.4a15.041,15.041,0,0,0-2.823-6.506A12.169,12.169,0,0,1,90.561,74.545ZM75.718,68.039A15.042,15.042,0,0,0,72.9,74.545H68.5A12.169,12.169,0,0,1,75.718,68.039ZM68.5,84.514h4.4a15.041,15.041,0,0,0,2.823,6.506A12.169,12.169,0,0,1,68.5,84.514ZM83.341,91.02a15.041,15.041,0,0,0,2.823-6.506h4.4A12.168,12.168,0,0,1,83.341,91.02Z" transform="translate(-61.3 -61.3)" fill="#cae2bc" stroke="#cae2bc" stroke-linejoin="round" stroke-width="1"></path></g></g></g></g></svg>