<svg xmlns="http://www.w3.org/2000/svg" viewBox="0 0 520 121" width="520" height="121"><defs><clipPath clipPathUnits="userSpaceOnUse" id="cp1"><path d="m-190-4223h1920v12304h-1920z"/></clipPath><linearGradient id="P" gradientUnits="userSpaceOnUse"/><linearGradient id="g1" x1="39.1" y1="1.5" x2="440.7" y2="63.5" href="#P"><stop stop-color="#4fa83d"/><stop offset="1" stop-color="#28541f" stop-opacity=".1"/></linearGradient></defs><style>.a{fill:url(#g1)}.b{opacity:.1;fill:#18191b}</style><g clip-path="url(#cp1)"><path fill-rule="evenodd" class="a" d="m18.4 0.2h460.1c10.2 0 18.4 8.1 18.4 18v72.9c0 10-8.2 18-18.4 18h-460.1c-10.1 0-18.4-8-18.4-18v-72.9c0-9.9 8.3-18 18.4-18zm0 1c-4.6 0-9 1.8-12.3 5-3.3 3.2-5.1 7.5-5.1 12v72.9c0 4.6 1.8 8.8 5.1 12 3.3 3.2 7.7 5 12.3 5h460.1c4.6 0 9-1.8 12.3-5 3.3-3.2 5.1-7.4 5.1-12v-72.9c0-4.5-1.8-8.8-5.1-12-3.3-3.2-7.7-5-12.3-5z"/><rect class="b" x="32" y="11.6" width="487" height="108.9" rx="18"/></g></svg>