<svg xmlns="http://www.w3.org/2000/svg" xmlns:xlink="http://www.w3.org/1999/xlink" width="575" height="753.299" viewBox="0 0 575 753.299"><defs><linearGradient id="linear-gradient" x1="0.012" y1="0.5" x2="0.986" y2="0.5" gradientUnits="objectBoundingBox"><stop offset="0" stop-color="#4fa83d"></stop><stop offset="1" stop-color="#28541f" stop-opacity="0.325"></stop></linearGradient><linearGradient id="linear-gradient-2" x1="0.049" y1="0.5" x2="0.961" y2="0.5" gradientUnits="objectBoundingBox"><stop offset="0" stop-color="#4fa83d"></stop><stop offset="1" stop-color="#28541f" stop-opacity="0.271"></stop></linearGradient><linearGradient id="linear-gradient-3" x1="0.029" y1="0.5" x2="1" y2="0.5" gradientUnits="objectBoundingBox"><stop offset="0" stop-color="#4fa83d"></stop><stop offset="1" stop-color="#28541f" stop-opacity="0.275"></stop></linearGradient><linearGradient id="linear-gradient-4" x1="0.061" y1="0.5" x2="0.953" y2="0.5" gradientUnits="objectBoundingBox"><stop offset="0" stop-color="#4fa83d"></stop><stop offset="1" stop-color="#28541f" stop-opacity="0.482"></stop></linearGradient><linearGradient id="linear-gradient-5" x1="0.977" y1="0.5" x2="0.039" y2="0.5" gradientUnits="objectBoundingBox"><stop offset="0" stop-color="#4fa83d"></stop><stop offset="1" stop-color="#28541f" stop-opacity="0.345"></stop></linearGradient><linearGradient id="linear-gradient-6" x1="0.974" y1="0.5" x2="0" y2="0.5" gradientUnits="objectBoundingBox"><stop offset="0" stop-color="#4fa83d"></stop><stop offset="1" stop-color="#28541f" stop-opacity="0.467"></stop></linearGradient><linearGradient id="linear-gradient-7" x1="1" y1="0.5" x2="0.051" y2="0.5" gradientUnits="objectBoundingBox"><stop offset="0" stop-color="#4fa83d"></stop><stop offset="1" stop-color="#28541f" stop-opacity="0.294"></stop></linearGradient></defs><g id="Group_44444" data-name="Group 44444" transform="translate(-214 -6941.201)"><path id="Ellipse_2110" data-name="Ellipse 2110" d="M287.5,1c-38.793,0-76.425,1.031-111.851,3.063-34.21,1.963-64.93,4.772-91.308,8.351-12.989,1.762-24.78,3.7-35.044,5.761a248.873,248.873,0,0,0-26.4,6.6c-7.251,2.326-12.8,4.749-16.505,7.2C2.815,34.346,1,36.71,1,39s1.815,4.654,5.393,7.026c3.7,2.453,9.254,4.876,16.505,7.2a248.875,248.875,0,0,0,26.4,6.6c10.264,2.061,22.055,4,35.044,5.761,26.378,3.578,57.1,6.388,91.308,8.351C211.075,75.969,248.707,77,287.5,77s76.425-1.031,111.851-3.063c34.21-1.963,64.93-4.772,91.308-8.351,12.989-1.762,24.78-3.7,35.044-5.761a248.875,248.875,0,0,0,26.4-6.6c7.251-2.326,12.8-4.749,16.505-7.2C572.185,43.654,574,41.29,574,39s-1.815-4.654-5.393-7.026c-3.7-2.453-9.254-4.876-16.505-7.2a248.873,248.873,0,0,0-26.4-6.6c-10.264-2.061-22.055-4-35.044-5.761-26.378-3.578-57.1-6.388-91.308-8.351C363.925,2.031,326.293,1,287.5,1m0-1C446.282,0,575,17.461,575,39S446.282,78,287.5,78,0,60.539,0,39,128.718,0,287.5,0Z" transform="translate(214 7616.5)" opacity="0.5" fill="url(#linear-gradient)"></path><path id="Ellipse_2112" data-name="Ellipse 2112" d="M214.5,1c-28.935,0-57,.9-83.426,2.67-25.513,1.71-48.422,4.159-68.092,7.276-9.683,1.535-18.471,3.223-26.12,5.018A163.817,163.817,0,0,0,17.207,21.7C6.6,25.676,1,29.928,1,34s5.6,8.324,16.207,12.3a163.816,163.816,0,0,0,19.654,5.738c7.65,1.795,16.438,3.483,26.12,5.018,19.67,3.118,42.579,5.566,68.092,7.276C157.5,66.1,185.565,67,214.5,67s57-.9,83.426-2.67c25.513-1.71,48.422-4.159,68.092-7.276,9.683-1.535,18.471-3.223,26.12-5.018A163.816,163.816,0,0,0,411.793,46.3C422.4,42.324,428,38.072,428,34s-5.6-8.324-16.207-12.3a163.817,163.817,0,0,0-19.654-5.738c-7.65-1.795-16.438-3.483-26.12-5.018-19.67-3.118-42.579-5.566-68.092-7.276C271.5,1.9,243.435,1,214.5,1m0-1C332.965,0,429,15.222,429,34S332.965,68,214.5,68,0,52.778,0,34,96.035,0,214.5,0Z" transform="translate(287 7379.5)" opacity="0.7" fill="url(#linear-gradient-2)"></path><path id="Ellipse_2114" data-name="Ellipse 2114" d="M177.5,1c-23.942,0-47.167.674-69.03,2C87.36,4.285,68.405,6.121,52.131,8.459,35.89,10.792,23.152,13.5,14.27,16.521a41.3,41.3,0,0,0-10.09,4.658C2.07,22.661,1,24.115,1,25.5s1.07,2.839,3.181,4.321a41.3,41.3,0,0,0,10.09,4.658c8.882,3.017,21.62,5.729,37.86,8.063C68.405,44.879,87.36,46.715,108.47,48c21.863,1.328,45.088,2,69.03,2s47.167-.674,69.03-2c21.109-1.283,40.065-3.118,56.339-5.457,16.24-2.333,28.978-5.046,37.86-8.063a41.3,41.3,0,0,0,10.09-4.658C352.93,28.339,354,26.885,354,25.5s-1.07-2.839-3.181-4.321a41.3,41.3,0,0,0-10.09-4.658c-8.882-3.017-21.62-5.729-37.86-8.063C286.595,6.121,267.64,4.285,246.53,3c-21.863-1.328-45.088-2-69.03-2m0-1C275.531,0,355,11.417,355,25.5S275.531,51,177.5,51,0,39.583,0,25.5,79.469,0,177.5,0Z" transform="translate(324 7178.5)" opacity="0.9" fill="url(#linear-gradient-3)"></path><path id="Ellipse_2116" data-name="Ellipse 2116" d="M105.5,1c-14.216,0-28.007.515-40.987,1.529A326.774,326.774,0,0,0,31.082,6.695c-9.614,1.777-17.147,3.84-22.391,6.131a22.16,22.16,0,0,0-5.877,3.486A4.529,4.529,0,0,0,1,19.5a4.529,4.529,0,0,0,1.814,3.188,22.16,22.16,0,0,0,5.877,3.486c5.244,2.291,12.777,4.354,22.391,6.131a326.775,326.775,0,0,0,33.431,4.165C77.493,37.485,91.284,38,105.5,38s28.007-.515,40.987-1.529a326.775,326.775,0,0,0,33.431-4.165c9.614-1.777,17.147-3.84,22.391-6.131a22.16,22.16,0,0,0,5.877-3.486A4.529,4.529,0,0,0,210,19.5a4.529,4.529,0,0,0-1.814-3.188,22.16,22.16,0,0,0-5.877-3.486c-5.244-2.291-12.777-4.354-22.391-6.131a326.774,326.774,0,0,0-33.431-4.165C133.507,1.515,119.716,1,105.5,1m0-1C163.766,0,211,8.73,211,19.5S163.766,39,105.5,39,0,30.27,0,19.5,47.234,0,105.5,0Z" transform="translate(396 7011.5)" fill="url(#linear-gradient-4)"></path><path id="Ellipse_2111" data-name="Ellipse 2111" d="M255,1c-34.4,0-67.777,1.03-99.193,3.063-30.336,1.962-57.578,4.771-80.968,8.349-11.516,1.761-21.969,3.7-31.068,5.759a200.4,200.4,0,0,0-23.392,6.59C7.7,29.344,1,34.268,1,39s6.7,9.656,19.379,14.24a200.4,200.4,0,0,0,23.392,6.59c9.1,2.06,19.552,4,31.068,5.759,23.39,3.577,50.632,6.386,80.968,8.349C187.223,75.97,220.6,77,255,77s67.777-1.03,99.193-3.063c30.336-1.962,57.578-4.771,80.968-8.349,11.516-1.761,21.969-3.7,31.068-5.759a200.4,200.4,0,0,0,23.392-6.59C502.3,48.656,509,43.732,509,39s-6.7-9.656-19.379-14.24a200.4,200.4,0,0,0-23.392-6.59c-9.1-2.06-19.552-4-31.068-5.759-23.39-3.577-50.632-6.386-80.968-8.349C322.777,2.03,289.4,1,255,1m0-1C395.833,0,510,17.461,510,39S395.833,78,255,78,0,60.539,0,39,114.167,0,255,0Z" transform="translate(247 7493.5)" opacity="0.6" fill="url(#linear-gradient-5)"></path><path id="Ellipse_2113" data-name="Ellipse 2113" d="M199.5,1c-26.911,0-53.015.819-77.589,2.434C98.184,4.993,76.878,7.225,58.586,10.068c-9,1.4-17.177,2.938-24.29,4.574a154.636,154.636,0,0,0-18.273,5.23A45.008,45.008,0,0,0,4.658,25.549C2.231,27.392,1,29.226,1,31s1.231,3.608,3.658,5.451a45.008,45.008,0,0,0,11.365,5.677A154.637,154.637,0,0,0,34.3,47.358c7.114,1.636,15.286,3.175,24.29,4.574,18.293,2.842,39.6,5.074,63.325,6.634C146.485,60.181,172.589,61,199.5,61s53.015-.819,77.589-2.434c23.727-1.559,45.033-3.791,63.325-6.634,9-1.4,17.177-2.938,24.29-4.574a154.639,154.639,0,0,0,18.273-5.23,45.008,45.008,0,0,0,11.365-5.677C396.769,34.608,398,32.774,398,31s-1.231-3.608-3.658-5.451a45.008,45.008,0,0,0-11.365-5.677,154.638,154.638,0,0,0-18.273-5.23c-7.114-1.636-15.286-3.175-24.29-4.574-18.293-2.842-39.6-5.074-63.325-6.634C252.515,1.819,226.411,1,199.5,1m0-1C309.681,0,399,13.879,399,31S309.681,62,199.5,62,0,48.121,0,31,89.319,0,199.5,0Z" transform="translate(302 7273.5)" opacity="0.8" fill="url(#linear-gradient-6)"></path><g id="Group_44432" data-name="Group 44432" transform="matrix(0.921, 0.391, -0.391, 0.921, 489.836, 6941.201)"><path id="Path_54812" data-name="Path 54812" d="M42.3,18.382a2.614,2.614,0,0,1-2.614-2.614V.094H8.337A7.837,7.837,0,0,0,.5,7.931V65.412a7.837,7.837,0,0,0,7.837,7.837H50.143a7.837,7.837,0,0,0,7.837-7.837V18.382Z" transform="translate(-0.5 -0.094)" fill="#cae2bc"></path><path id="Path_54813" data-name="Path 54813" d="M13.28.533V12.065H24.812Z" transform="translate(31.137 0.666)" fill="#59a52c"></path><path id="Path_54814" data-name="Path 54814" d="M1.038-4.8.96-5.806l.771-.118v-6.741L1-12.743v-1.084H4l2.09,7.081,2.064-7.081h2.783l.17,1.084-.705.118V-5.91l.692.1V-4.8H8.472l-.1-1.032L8.994-6v-6.754l-2.3,7.773H5.14L2.88-12.638v6.689l.666.144L3.56-4.8Zm13.835.052a5.527,5.527,0,0,1-1.346-.163,9.151,9.151,0,0,1-1.176-.372l.131-2.365.993.065.183,1.4q.2.065.509.144a2.683,2.683,0,0,0,.653.078,2.353,2.353,0,0,0,.8-.131,1.416,1.416,0,0,0,.6-.4,1,1,0,0,0,.235-.686,1.1,1.1,0,0,0-.157-.6,1.555,1.555,0,0,0-.477-.457,7.326,7.326,0,0,0-.843-.457Q14.468-8.928,14-9.17a4.786,4.786,0,0,1-.83-.542,2.263,2.263,0,0,1-.581-.719,2.2,2.2,0,0,1-.216-1.019,2.064,2.064,0,0,1,.4-1.267,2.6,2.6,0,0,1,1.071-.83A3.6,3.6,0,0,1,15.3-13.84a6.817,6.817,0,0,1,1.241.111,9.213,9.213,0,0,1,1.1.268l.183,2.325h-.98l-.6-1.385q-.2-.039-.444-.072a3.7,3.7,0,0,0-.483-.033,1.933,1.933,0,0,0-.764.137,1.118,1.118,0,0,0-.49.379.963.963,0,0,0-.17.568.884.884,0,0,0,.17.542,1.578,1.578,0,0,0,.464.4,6.059,6.059,0,0,0,.627.327l.647.294a6.181,6.181,0,0,1,1.254.745,2.491,2.491,0,0,1,.692.83,2.29,2.29,0,0,1,.222,1.026,2.482,2.482,0,0,1-.261,1.182A2.4,2.4,0,0,1,17-5.375,2.987,2.987,0,0,1,16-4.9,4.308,4.308,0,0,1,14.873-4.748Zm6.741,0a5.527,5.527,0,0,1-1.346-.163,9.151,9.151,0,0,1-1.176-.372l.131-2.365.993.065.183,1.4q.2.065.509.144a2.683,2.683,0,0,0,.653.078,2.353,2.353,0,0,0,.8-.131,1.416,1.416,0,0,0,.6-.4,1,1,0,0,0,.235-.686,1.1,1.1,0,0,0-.157-.6,1.555,1.555,0,0,0-.477-.457,7.326,7.326,0,0,0-.843-.457q-.509-.235-.973-.477a4.786,4.786,0,0,1-.83-.542,2.263,2.263,0,0,1-.581-.719,2.2,2.2,0,0,1-.216-1.019,2.064,2.064,0,0,1,.4-1.267,2.6,2.6,0,0,1,1.071-.83,3.6,3.6,0,0,1,1.457-.294,6.817,6.817,0,0,1,1.241.111,9.213,9.213,0,0,1,1.1.268l.183,2.325h-.98l-.6-1.385q-.2-.039-.444-.072a3.7,3.7,0,0,0-.483-.033,1.933,1.933,0,0,0-.764.137,1.118,1.118,0,0,0-.49.379.963.963,0,0,0-.17.568A.884.884,0,0,0,20.8-11a1.578,1.578,0,0,0,.464.4,6.059,6.059,0,0,0,.627.327l.647.294a6.18,6.18,0,0,1,1.254.745,2.491,2.491,0,0,1,.692.83,2.29,2.29,0,0,1,.222,1.026,2.482,2.482,0,0,1-.261,1.182,2.4,2.4,0,0,1-.705.816,2.987,2.987,0,0,1-1,.477A4.308,4.308,0,0,1,21.614-4.748Z" transform="translate(15.905 66.505)" fill="#4fa83d" opacity="0.997"></path><path id="Path_54334" data-name="Path 54334" d="M66.259,73.075h-.287a.185.185,0,0,0-.044-.017.989.989,0,0,1-.438-.178.976.976,0,0,1-.3-.36A1.886,1.886,0,0,1,65,71.607V62.468a2.611,2.611,0,0,1,.093-.662A1.025,1.025,0,0,1,66.2,61a1.981,1.981,0,0,1,.837.286q4.041,2.294,8.08,4.592a2.61,2.61,0,0,1,.529.394,1,1,0,0,1,.071,1.45,2.117,2.117,0,0,1-.613.479l-7.662,4.349A3.58,3.58,0,0,1,66.259,73.075Z" transform="translate(-41.485 -33.566)" fill="#4fa83d" stroke="#4fa83d" stroke-width="1"></path></g><g id="Group_44438" data-name="Group 44438" transform="matrix(0.921, 0.391, -0.391, 0.921, 542.145, 7145.837)"><g id="Group_44436" data-name="Group 44436" transform="translate(0 0)"><path id="Path_54812-2" data-name="Path 54812" d="M34.759,15.082a2.142,2.142,0,0,1-2.142-2.142V.094H6.923A6.423,6.423,0,0,0,.5,6.517V53.624a6.423,6.423,0,0,0,6.423,6.423H41.185a6.423,6.423,0,0,0,6.423-6.423V15.082Z" transform="translate(-0.5 -0.094)" fill="#cae2bc"></path><path id="Path_54813-2" data-name="Path 54813" d="M13.28.533V9.984h9.451Z" transform="translate(23.121 0.45)" fill="#59a52c"></path></g><path id="Path_54334-2" data-name="Path 54334" d="M66.032,70.9H65.8a.151.151,0,0,0-.036-.014.811.811,0,0,1-.359-.146.8.8,0,0,1-.248-.295A1.545,1.545,0,0,1,65,69.693V62.2a2.139,2.139,0,0,1,.076-.543A.84.84,0,0,1,65.986,61a1.624,1.624,0,0,1,.686.235q3.312,1.88,6.622,3.763a2.139,2.139,0,0,1,.434.323.822.822,0,0,1,.058,1.188,1.735,1.735,0,0,1-.5.393L67,70.469A2.934,2.934,0,0,1,66.032,70.9Z" transform="translate(-45.996 -38.517)" fill="#4fa83d" stroke="#4fa83d" stroke-width="1"></path><path id="Path_54823" data-name="Path 54823" d="M1.008-6.431.88-7.266l.674-.139v-5.5l-.664-.075v-.846H2.679a5.3,5.3,0,0,1,2.152.4,3.108,3.108,0,0,1,1.413,1.2,3.741,3.741,0,0,1,.5,2.029,4.511,4.511,0,0,1-.428,2.056A2.877,2.877,0,0,1,5.066-6.865a4.306,4.306,0,0,1-2.023.434Zm2.023-.985a2.851,2.851,0,0,0,1.119-.2,1.949,1.949,0,0,0,.765-.567,2.427,2.427,0,0,0,.444-.878,4.083,4.083,0,0,0,.145-1.119A3.088,3.088,0,0,0,5.2-11.613a2.073,2.073,0,0,0-.894-.9,3.131,3.131,0,0,0-1.435-.321H2.743v5.407Zm4.079.985-.139-.728.589-.193,2.088-6.477h1.2l2.12,6.477.492.193-.107.728H10.8v-.7l.857-.225L11.222-8.84H9.027l-.45,1.531.942.171v.707ZM9.317-9.825h1.52l-.707-2.709ZM16.04-6.388a4.529,4.529,0,0,1-1.1-.134,7.5,7.5,0,0,1-.964-.305l.107-1.938.814.054.15,1.146q.161.054.418.118A2.2,2.2,0,0,0,16-7.384a1.929,1.929,0,0,0,.653-.107,1.161,1.161,0,0,0,.492-.327.821.821,0,0,0,.193-.562.9.9,0,0,0-.128-.492,1.274,1.274,0,0,0-.391-.375,6,6,0,0,0-.691-.375q-.418-.193-.8-.391a3.922,3.922,0,0,1-.68-.444,1.855,1.855,0,0,1-.476-.589A1.805,1.805,0,0,1,14-11.881a1.691,1.691,0,0,1,.327-1.039,2.13,2.13,0,0,1,.878-.68,2.949,2.949,0,0,1,1.194-.241,5.587,5.587,0,0,1,1.017.091,7.551,7.551,0,0,1,.9.219l.15,1.906h-.8l-.492-1.135q-.161-.032-.364-.059a3.036,3.036,0,0,0-.4-.027,1.584,1.584,0,0,0-.626.112.916.916,0,0,0-.4.31.789.789,0,0,0-.139.466.724.724,0,0,0,.139.444,1.293,1.293,0,0,0,.38.332,4.966,4.966,0,0,0,.514.268l.53.241a5.065,5.065,0,0,1,1.028.61,2.042,2.042,0,0,1,.567.68,1.877,1.877,0,0,1,.182.84,2.034,2.034,0,0,1-.214.969,1.971,1.971,0,0,1-.578.669,2.448,2.448,0,0,1-.819.391A3.53,3.53,0,0,1,16.04-6.388Zm3.587-.043L19.5-7.277l.664-.118v-5.5l-.653-.064v-.867H21.9l.118.867-.664.118v2.12h2.655V-12.9l-.61-.064v-.867H25.8l.118.867-.728.118v5.471l.728.107-.011.835h-2.4L23.4-7.277l.61-.118V-9.74H21.35v2.366l.664.107v.835Z" transform="translate(10.362 57.001)" fill="#4fa83d"></path></g><g id="Group_44440" data-name="Group 44440" transform="translate(430.128 7280.236) rotate(-43)"><g id="Group_44436-2" data-name="Group 44436" transform="translate(0 0)"><path id="Path_54812-3" data-name="Path 54812" d="M28.806,12.477a1.77,1.77,0,0,1-1.77-1.77V.094H5.807A5.307,5.307,0,0,0,.5,5.4V44.322a5.307,5.307,0,0,0,5.307,5.307H34.115a5.307,5.307,0,0,0,5.307-5.307V12.477Z" transform="translate(-0.5 -0.094)" fill="#cae2bc"></path><path id="Path_54813-3" data-name="Path 54813" d="M13.28.533V8.341h7.808Z" transform="translate(16.796 0.279)" fill="#59a52c"></path></g><path id="Path_54334-3" data-name="Path 54334" d="M65.853,69.177h-.194a.126.126,0,0,0-.03-.011.67.67,0,0,1-.3-.121.661.661,0,0,1-.205-.244A1.277,1.277,0,0,1,65,68.182V61.994a1.768,1.768,0,0,1,.063-.448.694.694,0,0,1,.75-.543,1.342,1.342,0,0,1,.567.194q2.737,1.553,5.471,3.109a1.767,1.767,0,0,1,.358.267.679.679,0,0,1,.048.982,1.433,1.433,0,0,1-.415.324l-5.188,2.945A2.424,2.424,0,0,1,65.853,69.177Z" transform="translate(-49.299 -42.424)" fill="#4fa83d" stroke="#4fa83d" stroke-width="1"></path><path id="Path_54825" data-name="Path 54825" d="M.94-7.708.86-8.371l.584-.124V-13.05L.869-13.1v-.717H2.841a3.424,3.424,0,0,1,1.358.239,1.831,1.831,0,0,1,.836.672,1.85,1.85,0,0,1,.283,1.035,1.758,1.758,0,0,1-.345,1.115,2.087,2.087,0,0,1-.92.663l.823,1.619.566.1v.672H4.089L3.125-9.875,2.8-9.857q-.168.009-.372.009v1.371l.531.1v.672ZM2.426-10.68H2.78a2.244,2.244,0,0,0,.836-.137,1.1,1.1,0,0,0,.517-.4,1.1,1.1,0,0,0,.177-.632,1.117,1.117,0,0,0-.164-.628,1,1,0,0,0-.513-.376,2.872,2.872,0,0,0-.924-.137H2.426ZM6.893-7.708l-.062-.628,1.008-.186V-13H6.769l-.363.876H5.814l.177-1.7h4.653l.2,1.7h-.593L9.883-13H8.812v4.476l1.017.186-.053.628Zm4.529,0-.053-.681.522-.08v-4.564l-.5-.053v-.734H13.43l1.415,4.794,1.4-4.794h1.884l.115.734-.478.08v4.547l.469.071v.681H16.455l-.071-.7.425-.115v-4.573L15.252-7.831H14.2l-1.53-5.184v4.529l.451.1.009.681Zm7.74,0-.1-.672.584-.124V-13.05l-.575-.053v-.717h1.973a3.7,3.7,0,0,1,1.123.15,2.13,2.13,0,0,1,.77.416,1.608,1.608,0,0,1,.442.628,2.147,2.147,0,0,1,.142.787,1.981,1.981,0,0,1-.3,1.1,1.886,1.886,0,0,1-.84.7,3.205,3.205,0,0,1-1.314.243H20.63v1.247l1.309.195-.035.646Zm1.468-2.91h.2a2.765,2.765,0,0,0,1.053-.168.91.91,0,0,0,.482-.438,1.5,1.5,0,0,0,.128-.632,1.046,1.046,0,0,0-.349-.845,1.511,1.511,0,0,0-1-.3H20.63Z" transform="translate(7.101 49.525)" fill="#4fa83d"></path></g><g id="Group_44441" data-name="Group 44441" transform="translate(534.539 7360.949) rotate(20)"><g id="Group_44436-3" data-name="Group 44436" transform="translate(0 0)"><path id="Path_54812-4" data-name="Path 54812" d="M29.4,12.736a1.807,1.807,0,0,1-1.807-1.807V.094H5.918A5.418,5.418,0,0,0,.5,5.512V45.246a5.418,5.418,0,0,0,5.418,5.418h28.9a5.418,5.418,0,0,0,5.418-5.418V12.736Z" transform="translate(-0.5 -0.094)" fill="#cae2bc"></path><path id="Path_54813-4" data-name="Path 54813" d="M13.28.533V8.5h7.971Z" transform="translate(17.424 0.296)" fill="#59a52c"></path></g><path id="Path_54334-4" data-name="Path 54334" d="M65.871,69.347h-.2a.128.128,0,0,0-.03-.011.684.684,0,0,1-.3-.123.675.675,0,0,1-.21-.249A1.3,1.3,0,0,1,65,68.332V62.015a1.805,1.805,0,0,1,.064-.458A.708.708,0,0,1,65.832,61a1.37,1.37,0,0,1,.579.2Q69.2,62.786,72,64.375a1.8,1.8,0,0,1,.366.273.693.693,0,0,1,.049,1,1.463,1.463,0,0,1-.424.331l-5.3,3.006A2.475,2.475,0,0,1,65.871,69.347Z" transform="translate(-48.971 -42.036)" fill="#4fa83d" stroke="#4fa83d" stroke-width="1"></path><path id="Path_54826" data-name="Path 54826" d="M.988-7.58l-.108-.7L1.449-8.4v-4.642l-.56-.063v-.713H4.844l.181,1.752H4.42l-.37-.912h-1.6v1.806h1.4v.831h-1.4v1.905l1.481.226-.054.632Zm5.373-.009v-.659L7.68-8.393V-9.3h-2.4l-.325-.731L7.572-13.82h1.1v3.675H9.4v.84H8.673v.939l.7.117.018.659Zm-.433-2.556H7.68v-2.52Zm4.3,2.565-.054-.7.533-.081v-4.66L10.2-13.07v-.75h2.077l1.445,4.895,1.427-4.895h1.923l.117.75-.488.081v4.642l.479.072v.7H15.365l-.072-.713.433-.117V-13.08L14.137-7.706H13.062L11.5-13v4.624l.461.1.009.7Z" transform="translate(10.86 50.271)" fill="#4fa83d"></path></g><g id="Group_44439" data-name="Group 44439" transform="matrix(0.616, -0.788, 0.788, 0.616, 384.007, 7501.989)"><g id="Group_44436-4" data-name="Group 44436" transform="translate(0 0)"><path id="Path_54812-5" data-name="Path 54812" d="M31.616,13.706a1.946,1.946,0,0,1-1.945-1.945V.094H6.334A5.834,5.834,0,0,0,.5,5.928V48.713a5.834,5.834,0,0,0,5.834,5.834H37.452a5.834,5.834,0,0,0,5.834-5.834V13.706Z" transform="translate(-0.5 -0.094)" fill="#cae2bc"></path><path id="Path_54813-5" data-name="Path 54813" d="M13.28.533V9.117h8.583Z" transform="translate(19.782 0.36)" fill="#59a52c"></path></g><path id="Path_54334-5" data-name="Path 54334" d="M65.937,69.988h-.213a.138.138,0,0,0-.033-.012.736.736,0,0,1-.326-.133.727.727,0,0,1-.226-.268A1.4,1.4,0,0,1,65,68.9v-6.8a1.943,1.943,0,0,1,.069-.493A.763.763,0,0,1,65.9,61a1.475,1.475,0,0,1,.623.213q3.008,1.707,6.014,3.418a1.943,1.943,0,0,1,.394.293.747.747,0,0,1,.053,1.079,1.576,1.576,0,0,1-.456.357l-5.7,3.237A2.665,2.665,0,0,1,65.937,69.988Z" transform="translate(-47.74 -40.58)" fill="#4fa83d" stroke="#4fa83d" stroke-width="1"></path><path id="Path_54824" data-name="Path 54824" d="M1.914-7.1.786-12.935.3-13.081v-.739H2.5l.117.661-.71.126L2.8-8.3l1.5-5.368H5.5L6.961-8.209l.875-4.833-.8-.136.068-.642H9.324v.729l-.642.185L7.544-7.1h-1.4l-1.4-5.144L3.382-7.1Zm7.964,0-.117-.758.613-.126v-5l-.6-.068v-.768H14.03l.185,1.886h-.661l-.379-.982H11.453v1.945h1.507v.895H11.453v2.071h1.8l.35-.982h.671L14.079-7.1Zm5.309,0-.117-.739.6-.136v-5l-.642-.068v-.778h2.48a2.668,2.668,0,0,1,1.172.233,1.743,1.743,0,0,1,.734.632,1.635,1.635,0,0,1,.253.895,1.629,1.629,0,0,1-.165.763,1.5,1.5,0,0,1-.4.5,1.537,1.537,0,0,1-.442.253,2.292,2.292,0,0,1,.661.306,1.432,1.432,0,0,1,.462.52,1.688,1.688,0,0,1,.17.8,1.6,1.6,0,0,1-.6,1.366,2.52,2.52,0,0,1-1.561.452Zm1.575-.9h.885a1.558,1.558,0,0,0,.627-.117.886.886,0,0,0,.408-.34,1.04,1.04,0,0,0,.141-.564.876.876,0,0,0-.355-.749,1.612,1.612,0,0,0-.977-.263h-.729Zm0-2.917h.681a1.228,1.228,0,0,0,.622-.141.888.888,0,0,0,.36-.374,1.115,1.115,0,0,0,.117-.506.837.837,0,0,0-.34-.729,1.506,1.506,0,0,0-.895-.243h-.545ZM20.837-7.1l-.058-.749.574-.088v-5.018l-.545-.058v-.807h2.237L24.6-8.55l1.536-5.27h2.071l.126.807-.525.088v5l.515.078V-7.1H26.37l-.078-.768L26.759-8v-5.027L25.048-7.237H23.89l-1.682-5.7v4.979l.5.107.01.749Z" transform="translate(6.993 53.07)" fill="#4fa83d"></path></g><g id="Group_44443" data-name="Group 44443" transform="translate(487.771 7603.144) rotate(30)"><g id="Group_44436-5" data-name="Group 44436" transform="translate(0 0)"><path id="Path_54812-6" data-name="Path 54812" d="M32.874,14.257a2.024,2.024,0,0,1-2.024-2.024V.094H6.569A6.069,6.069,0,0,0,.5,6.163V50.679a6.07,6.07,0,0,0,6.069,6.069H38.946a6.07,6.07,0,0,0,6.069-6.069V14.257Z" transform="translate(-0.5 -0.094)" fill="#cae2bc"></path><path id="Path_54813-6" data-name="Path 54813" d="M13.28.533V9.464h8.931Z" transform="translate(21.119 0.396)" fill="#59a52c"></path></g><path id="Path_54334-6" data-name="Path 54334" d="M65.975,70.352h-.222a.143.143,0,0,0-.034-.013.766.766,0,0,1-.339-.138.756.756,0,0,1-.235-.279A1.46,1.46,0,0,1,65,69.215V62.137a2.022,2.022,0,0,1,.072-.513A.794.794,0,0,1,65.932,61a1.534,1.534,0,0,1,.649.222q3.13,1.776,6.258,3.556a2.022,2.022,0,0,1,.41.305.777.777,0,0,1,.055,1.123,1.64,1.64,0,0,1-.475.371l-5.934,3.368A2.773,2.773,0,0,1,65.975,70.352Z" transform="translate(-47.042 -39.754)" fill="#4fa83d" stroke="#4fa83d" stroke-width="1"></path><path id="Path_54827" data-name="Path 54827" d="M1.021-6.829.96-7.608l.6-.091v-5.22L.99-12.98v-.84H3.317L4.936-8.336l1.6-5.484H8.69l.132.84-.546.091v5.2l.536.081v.779H6.777l-.081-.8.486-.132V-12.99L5.4-6.971H4.2L2.447-12.9v5.18l.516.111.01.779Zm8.853,0L9.762-7.6l.668-.142v-5.2L9.772-13v-.819h2.256a4.233,4.233,0,0,1,1.285.172,2.436,2.436,0,0,1,.88.476,1.839,1.839,0,0,1,.506.718,2.455,2.455,0,0,1,.162.9,2.266,2.266,0,0,1-.339,1.255,2.157,2.157,0,0,1-.961.8,3.666,3.666,0,0,1-1.5.278h-.506V-7.79l1.5.223-.04.739Zm1.679-3.329h.233a3.162,3.162,0,0,0,1.2-.192,1.041,1.041,0,0,0,.551-.5,1.711,1.711,0,0,0,.147-.723,1.2,1.2,0,0,0-.4-.966,1.728,1.728,0,0,0-1.148-.339h-.587ZM16.6-6.839v-.739l1.477-.162V-8.761H15.387l-.364-.819,2.934-4.239h1.234V-9.7h.819v.941h-.819v1.052l.779.132.02.739ZM16.116-9.7h1.963v-2.823Z" transform="translate(11.687 54.38)" fill="#4fa83d"></path></g><g id="Group_44442" data-name="Group 44442" transform="translate(577.406 7508.193) rotate(30)"><g id="Group_44436-6" data-name="Group 44436" transform="translate(0 0)"><path id="Path_54812-7" data-name="Path 54812" d="M20.746,8.951A1.266,1.266,0,0,1,19.48,7.685V.094H4.3A3.8,3.8,0,0,0,.5,3.89V31.728a3.8,3.8,0,0,0,3.8,3.8H24.543a3.8,3.8,0,0,0,3.8-3.8V8.951Z" transform="translate(-0.5 -0.094)" fill="#cae2bc"></path><path id="Path_54813-7" data-name="Path 54813" d="M13.28.533V6.118h5.585Z" transform="translate(8.232 0.048)" fill="#59a52c"></path></g><path id="Path_54334-7" data-name="Path 54334" d="M65.61,66.848h-.139a.089.089,0,0,0-.021-.008.479.479,0,0,1-.212-.086.473.473,0,0,1-.147-.174.913.913,0,0,1-.09-.442V61.711a1.264,1.264,0,0,1,.045-.321A.5.5,0,0,1,65.583,61a.96.96,0,0,1,.406.139L69.9,63.364a1.264,1.264,0,0,1,.256.191.486.486,0,0,1,.034.7,1.025,1.025,0,0,1-.3.232L66.185,66.6A1.734,1.734,0,0,1,65.61,66.848Z" transform="translate(-53.77 -47.713)" fill="#4fa83d" stroke="#4fa83d" stroke-width="1"></path><path id="Path_54806" data-name="Path 54806" d="M.956-9.448.88-9.942l.4-.082v-3.252L.886-13.32v-.5H1.943a3.132,3.132,0,0,1,1.272.237,1.837,1.837,0,0,1,.835.709,2.211,2.211,0,0,1,.3,1.2,2.666,2.666,0,0,1-.253,1.215,1.7,1.7,0,0,1-.74.756,2.545,2.545,0,0,1-1.2.256Zm1.2-.582a1.685,1.685,0,0,0,.661-.117,1.152,1.152,0,0,0,.452-.335A1.435,1.435,0,0,0,3.528-11a2.413,2.413,0,0,0,.085-.661,1.825,1.825,0,0,0-.18-.848,1.225,1.225,0,0,0-.528-.531,1.85,1.85,0,0,0-.848-.19H1.981v3.2Zm3.935.582L4.771-13.276l-.228-.063v-.481H5.98l.057.43-.506.114,1.012,3.043,1.012-3.05-.576-.108v-.43h1.4v.481l-.24.063L6.827-9.448Zm2.645,0-.057-.475.418-.089V-13.27l-.411-.038v-.512h1.411a2.449,2.449,0,0,1,.971.171,1.31,1.31,0,0,1,.6.481,1.324,1.324,0,0,1,.2.74,1.257,1.257,0,0,1-.247.8,1.493,1.493,0,0,1-.658.475L11.547-10l.4.07v.481h-.968L10.295-11l-.234.013q-.12.006-.266.006V-10l.38.07v.481Zm1.063-2.126h.253a1.605,1.605,0,0,0,.6-.1.787.787,0,0,0,.37-.285.787.787,0,0,0,.127-.452.8.8,0,0,0-.117-.449.718.718,0,0,0-.367-.269,2.054,2.054,0,0,0-.661-.1h-.2Z" transform="translate(7.661 39.358)" fill="#4fa83d"></path></g><g id="Group_44437" data-name="Group 44437" transform="matrix(0.966, -0.259, 0.259, 0.966, 451.544, 7085.588)"><g id="Group_44436-7" data-name="Group 44436" transform="translate(0 0)"><path id="Path_54812-8" data-name="Path 54812" d="M31.118,13.489A1.914,1.914,0,0,1,29.2,11.574V.094H6.24A5.74,5.74,0,0,0,.5,5.834v42.1a5.74,5.74,0,0,0,5.74,5.74h30.62a5.74,5.74,0,0,0,5.74-5.74V13.489Z" transform="translate(-0.5 -0.094)" fill="#cae2bc"></path><path id="Path_54813-8" data-name="Path 54813" d="M13.28.533V8.979h8.446Z" transform="translate(19.253 0.345)" fill="#59a52c"></path></g><path id="Path_54334-8" data-name="Path 54334" d="M65.922,69.844h-.21a.135.135,0,0,0-.032-.012.724.724,0,0,1-.32-.131.715.715,0,0,1-.222-.263A1.381,1.381,0,0,1,65,68.769V62.075a1.912,1.912,0,0,1,.068-.485A.751.751,0,0,1,65.882,61a1.451,1.451,0,0,1,.613.21q2.96,1.68,5.918,3.363a1.912,1.912,0,0,1,.388.289.735.735,0,0,1,.052,1.062,1.551,1.551,0,0,1-.449.351l-5.612,3.185A2.622,2.622,0,0,1,65.922,69.844Z" transform="translate(-48.016 -40.906)" fill="#4fa83d" stroke="#4fa83d" stroke-width="1"></path><path id="Path_54822" data-name="Path 54822" d="M1.015-7.219.9-7.975l.593-.105V-13L.91-13.055v-.775H3.043l.105.775-.593.105v1.895H4.928V-13l-.545-.057v-.775H6.536l.105.775-.651.105v4.889l.651.1-.01.746H4.488l-.105-.756.545-.105v-2.1H2.555v2.115l.593.1v.746Zm6.564,0-.115-.746.593-.105v-4.937l-.584-.057v-.765H9.7l.105.765-.679.115v4.842H10.9l.344-.966h.66l-.191,1.856Zm6.669.038a4.048,4.048,0,0,1-.986-.12,6.7,6.7,0,0,1-.861-.273L12.5-9.3l.727.048.134,1.024q.144.048.373.105a1.965,1.965,0,0,0,.478.057,1.724,1.724,0,0,0,.584-.1,1.037,1.037,0,0,0,.44-.292.733.733,0,0,0,.172-.5.808.808,0,0,0-.115-.44,1.139,1.139,0,0,0-.349-.335,5.366,5.366,0,0,0-.617-.335q-.373-.172-.713-.349a3.505,3.505,0,0,1-.608-.4,1.657,1.657,0,0,1-.426-.526,1.613,1.613,0,0,1-.158-.746,1.512,1.512,0,0,1,.292-.928,1.9,1.9,0,0,1,.785-.608,2.635,2.635,0,0,1,1.067-.215,4.993,4.993,0,0,1,.909.081,6.748,6.748,0,0,1,.8.2l.134,1.7h-.718l-.44-1.014q-.144-.029-.325-.053a2.713,2.713,0,0,0-.354-.024,1.416,1.416,0,0,0-.56.1.819.819,0,0,0-.359.277.705.705,0,0,0-.124.416.647.647,0,0,0,.124.4,1.156,1.156,0,0,0,.34.3,4.438,4.438,0,0,0,.459.239l.474.215a4.527,4.527,0,0,1,.919.545,1.825,1.825,0,0,1,.507.608,1.677,1.677,0,0,1,.163.751,1.818,1.818,0,0,1-.191.866,1.762,1.762,0,0,1-.517.6,2.188,2.188,0,0,1-.732.349A3.155,3.155,0,0,1,14.248-7.18Z" transform="translate(12.496 52.414)" fill="#4fa83d"></path></g><path id="Ellipse_2115" data-name="Ellipse 2115" d="M138.5,1c-18.679,0-36.8.489-53.854,1.452C68.179,3.383,53.393,4.714,40.7,6.41,28.036,8.1,18.106,10.067,11.185,12.253A33.205,33.205,0,0,0,3.36,15.609C2.284,16.312,1,17.384,1,18.5s1.284,2.188,2.36,2.891a33.205,33.205,0,0,0,7.825,3.356C18.106,26.933,28.036,28.9,40.7,30.59c12.695,1.7,27.481,3.027,43.948,3.958C101.7,35.511,119.821,36,138.5,36s36.8-.489,53.854-1.452c16.467-.93,31.253-2.262,43.948-3.958,12.663-1.691,22.592-3.657,29.513-5.843a33.205,33.205,0,0,0,7.825-3.356c1.077-.7,2.36-1.775,2.36-2.891s-1.284-2.188-2.36-2.891a33.205,33.205,0,0,0-7.825-3.356C258.894,10.067,248.964,8.1,236.3,6.41c-12.695-1.7-27.481-3.027-43.948-3.958C175.3,1.489,157.179,1,138.5,1m0-1C214.991,0,277,8.283,277,18.5S214.991,37,138.5,37,0,28.717,0,18.5,62.009,0,138.5,0Z" transform="translate(363 7095.5)" fill="url(#linear-gradient-7)"></path><path id="Path_54828" data-name="Path 54828" d="M2028.263,7094.744l1.663,5.223,30.712-1.739h11.742l-1.574-7.6Z" transform="translate(-1574)" fill="#cae2bc"></path></g></svg>