<svg xmlns="http://www.w3.org/2000/svg" xmlns:xlink="http://www.w3.org/1999/xlink" width="807" height="215" viewBox="0 0 807 215"><defs><linearGradient id="linear-gradient" x1="0.5" x2="0.988" y2="1" gradientUnits="objectBoundingBox"><stop offset="0" stop-color="#4fa83d"/><stop offset="1" stop-color="#28541f" stop-opacity="0.059"/></linearGradient></defs><g id="Video.js" transform="translate(6827 -3173)"><rect id="Rectangle_7732" data-name="Rectangle 7732" width="807" height="215" rx="14" transform="translate(-6827 3173)" fill="#161719"/><path id="Rectangle_7719" data-name="Rectangle 7719" d="M16,1A15,15,0,0,0,1,16V199a15,15,0,0,0,15,15H791a15,15,0,0,0,15-15V16A15,15,0,0,0,791,1H16m0-1H791a16,16,0,0,1,16,16V199a16,16,0,0,1-16,16H16A16,16,0,0,1,0,199V16A16,16,0,0,1,16,0Z" transform="translate(-6827 3173)" fill="url(#linear-gradient)"/></g></svg>