<svg xmlns="http://www.w3.org/2000/svg" viewBox="0 0 734 218" width="734" height="218"><defs><clipPath clipPathUnits="userSpaceOnUse" id="cp1"><path d="m-1066-7600h1920v14060h-1920z"/></clipPath><linearGradient id="P" gradientUnits="userSpaceOnUse"/><linearGradient id="g1" x1="383.9" y1="98.8" x2="730.4" y2="99.8" href="#P"><stop stop-opacity=".1"/><stop offset="1" stop-color="#4fa83d"/></linearGradient></defs><style>.a{fill:url(#g1)}</style><g clip-path="url(#cp1)"><path fill-rule="evenodd" class="a" d="m16 0.7h702c8.8 0 16 5.2 16 11.7v193.7c0 6.4-7.2 11.7-16 11.7h-702c-8.8 0-16-5.3-16-11.7v-193.7c0-6.5 7.2-11.7 16-11.7zm0 0.7c-4 0-7.8 1.1-10.6 3.2-2.8 2.1-4.4 4.9-4.4 7.8v193.7c0 2.9 1.6 5.7 4.4 7.7 2.8 2.1 6.6 3.3 10.6 3.3h702c4 0 7.8-1.2 10.6-3.3 2.8-2 4.4-4.8 4.4-7.7v-193.7c0-2.9-1.6-5.7-4.4-7.8-2.8-2.1-6.6-3.2-10.6-3.2z"/></g></svg>