<svg xmlns="http://www.w3.org/2000/svg" viewBox="0 0 734 216" width="734" height="216"><defs><clipPath clipPathUnits="userSpaceOnUse" id="cp1"><path d="m-1066-6419h1920v14060h-1920z"/></clipPath><linearGradient id="P" gradientUnits="userSpaceOnUse"/><linearGradient id="g1" x1="6.6" y1="96.3" x2="431.5" y2="95.7" href="#P"><stop stop-color="#4fa83d"/><stop offset="1" stop-opacity=".1"/></linearGradient></defs><style>.a{fill:url(#g1)}</style><g clip-path="url(#cp1)"><path fill-rule="evenodd" class="a" d="m16 0.7h702c8.8 0 16 5.2 16 11.6v191.6c0 6.5-7.2 11.7-16 11.7h-702c-8.8 0-16-5.2-16-11.7v-191.6c0-6.4 7.2-11.6 16-11.6zm0 0.7c-4 0-7.8 1.1-10.6 3.2-2.8 2-4.4 4.8-4.4 7.7v191.6c0 3 1.6 5.7 4.4 7.7 2.8 2.1 6.6 3.2 10.6 3.2h702c4 0 7.8-1.1 10.6-3.2 2.8-2 4.4-4.7 4.4-7.7v-191.6c0-2.9-1.6-5.7-4.4-7.7-2.8-2.1-6.6-3.2-10.6-3.2z"/></g></svg>