<svg xmlns="http://www.w3.org/2000/svg" width="642.113" height="160.113" viewBox="0 0 642.113 160.113"><g id="Group_5648" data-name="Group 5648" transform="translate(-639 -1324)"><g id="world" transform="translate(639 1324)"><g id="Group_4217" data-name="Group 4217" transform="translate(21.044 18.855)"><circle id="Ellipse_640" data-name="Ellipse 640" cx="56.252" cy="56.252" r="56.252" transform="translate(3.957 3.752)" fill="#4fa83d" opacity="0"></circle><g id="Group_4216" data-name="Group 4216"><circle id="Ellipse_641" data-name="Ellipse 641" cx="6.254" cy="6.254" r="6.254" transform="translate(0 109.894)" fill="#4fa83d"></circle><circle id="Ellipse_642" data-name="Ellipse 642" cx="6.254" cy="6.254" r="6.254" transform="translate(103.952)" fill="#4fa83d"></circle></g></g><g id="Group_4219" data-name="Group 4219" transform="translate(0)"><g id="Group_4218" data-name="Group 4218"><path id="Path_21270" data-name="Path 21270" d="M187.375,139.51a3.127,3.127,0,0,0-1.453,4.177,72.95,72.95,0,0,1,7.322,32.037,73.762,73.762,0,0,1-118.1,58.992,9.38,9.38,0,1,0-4.479,4.449A80.015,80.015,0,0,0,199.5,175.724a79.153,79.153,0,0,0-7.947-34.761A3.127,3.127,0,0,0,187.375,139.51Zm-122.9,93.372a3.127,3.127,0,1,1,4.422,0A3.125,3.125,0,0,1,64.474,232.882Z" transform="translate(-39.386 -95.668)" fill="#4fa83d"></path><path id="Path_21271" data-name="Path 21271" d="M11.336,114.758a3.127,3.127,0,0,0,1.545-4.144A73.035,73.035,0,0,1,6.254,80.057a73.886,73.886,0,0,1,73.8-73.8,72.878,72.878,0,0,1,43.178,13.983,9.386,9.386,0,1,0,5.065-4.029A80.018,80.018,0,0,0,0,80.057a79.249,79.249,0,0,0,7.192,33.156A3.127,3.127,0,0,0,11.336,114.758ZM133.462,22.9a3.127,3.127,0,1,1-4.423,0A3.125,3.125,0,0,1,133.462,22.9Z" fill="#4fa83d"></path><path id="Path_21272" data-name="Path 21272" d="M125.417,66C94.831,66,66,90.294,66,125.417A59.417,59.417,0,1,0,125.417,66ZM72.254,125.417A52.978,52.978,0,0,1,74.6,109.781l20.608,0a115.288,115.288,0,0,0,0,31.275H74.6A52.977,52.977,0,0,1,72.254,125.417Zm28.145,0a105.516,105.516,0,0,1,1.151-15.636H122.29v31.272H101.55A105.515,105.515,0,0,1,100.4,125.417Zm47.731-21.89H128.544V72.689C137.15,75.088,144.547,87.214,148.13,103.527ZM122.29,72.689v30.838H102.7C106.287,87.214,113.684,75.088,122.29,72.689Zm0,74.619v30.838c-8.606-2.4-16-14.525-19.586-30.838Zm6.254,30.838V147.3l19.586,0C144.547,163.62,137.15,175.746,128.544,178.145Zm0-37.092V109.781h20.739a106.764,106.764,0,0,1,0,31.272Zm27.079-31.272h20.608a53.237,53.237,0,0,1,0,31.272H155.624a115.262,115.262,0,0,0,0-31.272Zm18.237-6.254H154.552c-2.023-9.922-5.934-20.887-12.4-28.57A53.441,53.441,0,0,1,173.861,103.527Zm-65.182-28.57c-6.462,7.682-10.373,18.646-12.4,28.57H76.973A53.443,53.443,0,0,1,108.679,74.956ZM76.973,147.308H96.282c2.023,9.922,5.934,20.887,12.4,28.57A53.441,53.441,0,0,1,76.973,147.308Zm65.182,28.57c6.465-7.685,10.375-18.652,12.4-28.573h19.309A53.438,53.438,0,0,1,142.155,175.878Z" transform="translate(-45.36 -45.36)" fill="#cae2bc"></path></g></g></g><g id="world-2" data-name="world" transform="translate(1121 1324)"><g id="Group_4217-2" data-name="Group 4217" transform="translate(21.044 18.855)"><circle id="Ellipse_640-2" data-name="Ellipse 640" cx="56.252" cy="56.252" r="56.252" transform="translate(3.957 3.752)" fill="#4fa83d" opacity="0"></circle><g id="Group_4216-2" data-name="Group 4216"><circle id="Ellipse_641-2" data-name="Ellipse 641" cx="6.254" cy="6.254" r="6.254" transform="translate(0 109.894)" fill="#4fa83d"></circle><circle id="Ellipse_642-2" data-name="Ellipse 642" cx="6.254" cy="6.254" r="6.254" transform="translate(103.952)" fill="#4fa83d"></circle></g></g><g id="Group_4219-2" data-name="Group 4219" transform="translate(0)"><g id="Group_4218-2" data-name="Group 4218"><path id="Path_21270-2" data-name="Path 21270" d="M187.375,139.51a3.127,3.127,0,0,0-1.453,4.177,72.95,72.95,0,0,1,7.322,32.037,73.762,73.762,0,0,1-118.1,58.992,9.38,9.38,0,1,0-4.479,4.449A80.015,80.015,0,0,0,199.5,175.724a79.153,79.153,0,0,0-7.947-34.761A3.127,3.127,0,0,0,187.375,139.51Zm-122.9,93.372a3.127,3.127,0,1,1,4.422,0A3.125,3.125,0,0,1,64.474,232.882Z" transform="translate(-39.386 -95.668)" fill="#4fa83d"></path><path id="Path_21271-2" data-name="Path 21271" d="M11.336,114.758a3.127,3.127,0,0,0,1.545-4.144A73.035,73.035,0,0,1,6.254,80.057a73.886,73.886,0,0,1,73.8-73.8,72.878,72.878,0,0,1,43.178,13.983,9.386,9.386,0,1,0,5.065-4.029A80.018,80.018,0,0,0,0,80.057a79.249,79.249,0,0,0,7.192,33.156A3.127,3.127,0,0,0,11.336,114.758ZM133.462,22.9a3.127,3.127,0,1,1-4.423,0A3.125,3.125,0,0,1,133.462,22.9Z" fill="#4fa83d"></path><path id="Path_21272-2" data-name="Path 21272" d="M125.417,66C94.831,66,66,90.294,66,125.417A59.417,59.417,0,1,0,125.417,66ZM72.254,125.417A52.978,52.978,0,0,1,74.6,109.781l20.608,0a115.288,115.288,0,0,0,0,31.275H74.6A52.977,52.977,0,0,1,72.254,125.417Zm28.145,0a105.516,105.516,0,0,1,1.151-15.636H122.29v31.272H101.55A105.515,105.515,0,0,1,100.4,125.417Zm47.731-21.89H128.544V72.689C137.15,75.088,144.547,87.214,148.13,103.527ZM122.29,72.689v30.838H102.7C106.287,87.214,113.684,75.088,122.29,72.689Zm0,74.619v30.838c-8.606-2.4-16-14.525-19.586-30.838Zm6.254,30.838V147.3l19.586,0C144.547,163.62,137.15,175.746,128.544,178.145Zm0-37.092V109.781h20.739a106.764,106.764,0,0,1,0,31.272Zm27.079-31.272h20.608a53.237,53.237,0,0,1,0,31.272H155.624a115.262,115.262,0,0,0,0-31.272Zm18.237-6.254H154.552c-2.023-9.922-5.934-20.887-12.4-28.57A53.441,53.441,0,0,1,173.861,103.527Zm-65.182-28.57c-6.462,7.682-10.373,18.646-12.4,28.57H76.973A53.443,53.443,0,0,1,108.679,74.956ZM76.973,147.308H96.282c2.023,9.922,5.934,20.887,12.4,28.57A53.441,53.441,0,0,1,76.973,147.308Zm65.182,28.57c6.465-7.685,10.375-18.652,12.4-28.573h19.309A53.438,53.438,0,0,1,142.155,175.878Z" transform="translate(-45.36 -45.36)" fill="#cae2bc"></path></g></g></g><g id="flowKitConnector" transform="translate(24.092 29.943)"><path id="line" d="M799.113,1374.057h259.076" fill="#fff" stroke="#fff" stroke-width="3"></path><path id="leftEdge" transform="translate(799.113 1374.057)" fill="#fff" stroke="#fff" stroke-width="3"></path><g id="rightEdge" transform="translate(1058.189 1366.057)" fill="none" stroke="#fff" stroke-width="3"><circle cx="8" cy="8" r="8" stroke="none"></circle><circle cx="8" cy="8" r="6.5" fill="none"></circle></g></g></g></svg>