<svg xmlns="http://www.w3.org/2000/svg" width="36.574" height="36.574" viewBox="0 0 36.574 36.574"><g id="Group_5337" data-name="Group 5337" transform="translate(-218 -1145)"><circle id="Ellipse_1462" data-name="Ellipse 1462" cx="12.5" cy="12.5" r="12.5" transform="translate(224 1153)" fill="#fff"></circle><path id="Icon_ionic-ios-checkmark-circle" data-name="Icon ionic-ios-checkmark-circle" d="M21.662,3.375A18.287,18.287,0,1,0,39.949,21.662,18.284,18.284,0,0,0,21.662,3.375Zm9.363,13.232L19.271,28.414h-.009a1.588,1.588,0,0,1-1.02.484,1.539,1.539,0,0,1-1.029-.5L12.29,23.473a.35.35,0,0,1,0-.5l1.565-1.565a.34.34,0,0,1,.492,0l3.9,3.9L28.977,14.506a.347.347,0,0,1,.246-.106h0a.319.319,0,0,1,.246.106L31.008,16.1A.347.347,0,0,1,31.025,16.607Z" transform="translate(214.625 1141.625)" fill="#4fa83d"></path></g></svg>