<svg xmlns="http://www.w3.org/2000/svg" width="103" height="134" viewBox="0 0 103 134" fill="none"><g clip-path="url(#clip0_1695_15105)"><path d="M9.21094 98.7452L52.0601 120.601L93.2821 98.7452V13.2773H9.21094V98.7452Z" fill="white"></path><path d="M94.1584 13.6016L8.35156 100.266L52.8279 122.339L94.1584 101.135V13.6016Z" fill="#F2F3F2"></path><path d="M6.39062 41.7657V100.593L7.90933 101.354L50.7585 123.21L52.0602 123.863L53.362 123.21L94.6924 101.354L96.2111 100.593V10.4492H6.39062V41.7657ZM9.21108 98.9617V13.2764H93.3907V98.9617L52.0602 120.818L9.21108 98.9617Z" fill="#DCDEDC"></path><path d="M51.3021 14.69C51.736 14.69 52.1699 14.69 52.6038 14.7987L51.3021 17.2997C49.3494 17.191 47.6138 18.7133 47.5053 20.6706C47.3968 22.6278 48.9155 24.3676 50.8681 24.4764H51.3021C52.1699 24.4764 53.0377 24.1502 53.6886 23.6065L55.0988 25.9987C54.014 26.7599 52.7123 27.1948 51.3021 27.1948C47.8307 27.3036 44.9018 24.6939 44.7933 21.2143C44.6848 17.7346 47.2883 14.7987 50.7597 14.69H51.3021ZM55.7497 20.0181L57.3769 22.7366L55.7497 25.3463L54.231 22.7366H51.0851L52.7123 20.0181H55.7497ZM53.1462 19.0395C53.1462 18.6045 53.2547 18.1696 53.4716 17.8434C53.6886 17.5172 54.1225 17.191 54.4479 16.9735L54.6649 16.8647C55.0988 16.6473 55.2073 16.5385 55.2073 16.3211C55.2073 16.1036 54.8819 15.8861 54.6649 15.8861C54.231 15.8861 53.9055 16.1036 53.6886 16.5385L53.1462 15.9948C53.2547 15.7774 53.4716 15.5599 53.6886 15.3424C54.014 15.1249 54.3395 15.1249 54.6649 15.1249C54.9903 15.1249 55.4243 15.2337 55.6412 15.4512C55.8582 15.6686 56.0751 15.9948 56.0751 16.3211C56.0751 16.8647 55.7497 17.2997 55.0988 17.5172L54.7734 17.7346C54.4479 17.9521 54.231 18.0609 54.1225 18.3871H56.0751V19.1482L53.1462 19.0395ZM51.3021 32.6317L61.6076 26.7599V10.4492H40.8881V26.6511L51.3021 32.6317ZM98.2734 71.1249H4.3307L0.859375 78.7365L4.3307 86.3481H98.2734L101.636 78.7365L98.2734 71.1249Z" fill="#FF492C"></path><path d="M19.1902 54.8047C19.9061 54.8047 20.5353 54.9497 21.0777 55.2397C21.6201 55.5296 22.0395 55.9465 22.3361 56.4902C22.6326 57.0266 22.7808 57.6428 22.7808 58.3387C22.7808 59.0274 22.629 59.6327 22.3252 60.1546C22.0142 60.6693 21.5803 61.0716 21.0235 61.3616C20.4666 61.6516 19.823 61.7966 19.0925 61.7966H16.7819C16.7313 61.7966 16.706 61.8256 16.706 61.8836V66.0373C16.706 66.0953 16.6843 66.1424 16.6409 66.1787C16.6048 66.2149 16.5577 66.2331 16.4999 66.2331H14.6015C14.5437 66.2331 14.4966 66.2149 14.4605 66.1787C14.4243 66.1424 14.4062 66.0953 14.4062 66.0373V55.0005C14.4062 54.9425 14.4243 54.8953 14.4605 54.8591C14.4966 54.8229 14.5437 54.8047 14.6015 54.8047H19.1902ZM18.843 59.9589C19.3493 59.9589 19.7506 59.8139 20.0472 59.5239C20.3509 59.234 20.5028 58.857 20.5028 58.3931C20.5028 57.9074 20.3509 57.5195 20.0472 57.2296C19.7506 56.9324 19.3493 56.7838 18.843 56.7838H16.7819C16.7313 56.7838 16.706 56.8127 16.706 56.8707V59.8719C16.706 59.9299 16.7313 59.9589 16.7819 59.9589H18.843ZM30.9927 61.1768C31.0505 61.59 31.0686 62.0503 31.0469 62.5577C31.0397 62.6955 30.971 62.7643 30.8408 62.7643H25.8182C25.7531 62.7643 25.7278 62.7897 25.7423 62.8404C25.7785 63.0579 25.8399 63.2754 25.9267 63.4929C26.2088 64.1018 26.7837 64.4063 27.6515 64.4063C28.3458 64.399 28.8918 64.1163 29.2896 63.5581C29.3402 63.4929 29.3908 63.4603 29.4414 63.4603C29.4704 63.4603 29.5065 63.482 29.5499 63.5255L30.7215 64.6781C30.7793 64.7361 30.8083 64.7868 30.8083 64.8303C30.8083 64.8521 30.7866 64.8956 30.7432 64.9608C30.3816 65.4103 29.9223 65.7546 29.3655 65.9938C28.7942 66.2403 28.1722 66.3635 27.4997 66.3635C26.574 66.3635 25.7857 66.1533 25.1348 65.7329C24.4912 65.3052 24.0283 64.7107 23.7463 63.9496C23.5149 63.4059 23.3991 62.6955 23.3991 61.8183C23.3991 61.2166 23.4823 60.6874 23.6487 60.2307C23.9018 59.4623 24.3393 58.8498 24.9612 58.3931C25.5832 57.9364 26.3208 57.708 27.1742 57.708C28.259 57.708 29.1305 58.0234 29.7886 58.654C30.4467 59.2847 30.848 60.1256 30.9927 61.1768ZM27.1959 59.6979C26.5089 59.6979 26.0569 60.0169 25.8399 60.6548C25.7965 60.7998 25.7604 60.9738 25.7314 61.1768C25.7314 61.2275 25.7604 61.2529 25.8182 61.2529H28.6278C28.6929 61.2529 28.7146 61.2275 28.6929 61.1768C28.6351 60.865 28.6061 60.7128 28.6061 60.7201C28.5121 60.3938 28.3422 60.1401 28.0963 59.9589C27.8576 59.7849 27.5575 59.6979 27.1959 59.6979ZM36.6336 57.7406C37.0241 57.7406 37.3351 57.8168 37.5665 57.969C37.646 58.0125 37.675 58.0922 37.6533 58.2082L37.317 60.0676C37.3098 60.1981 37.2338 60.238 37.0892 60.1872C36.9229 60.1292 36.7348 60.1003 36.5251 60.1003C36.4383 60.1003 36.3154 60.1111 36.1563 60.1329C35.773 60.1691 35.4439 60.3141 35.1691 60.5678C34.9015 60.8215 34.7677 61.1623 34.7677 61.59V66.0373C34.7677 66.0953 34.746 66.1424 34.7027 66.1787C34.6665 66.2149 34.6231 66.2331 34.5725 66.2331H32.6632C32.6126 66.2331 32.5656 66.2149 32.5222 66.1787C32.4861 66.1424 32.468 66.0953 32.468 66.0373V58.0451C32.468 57.9944 32.4861 57.9472 32.5222 57.9038C32.5656 57.8675 32.6126 57.8494 32.6632 57.8494H34.5725C34.6231 57.8494 34.6665 57.8675 34.7027 57.9038C34.746 57.9472 34.7677 57.9944 34.7677 58.0451V58.6649C34.7677 58.6939 34.7786 58.7157 34.8003 58.7302C34.8147 58.7447 34.8292 58.7374 34.8437 58.7084C35.2921 58.0632 35.8887 57.7406 36.6336 57.7406ZM43.5654 57.8385C43.6232 57.8385 43.6702 57.8566 43.7064 57.8929C43.7426 57.9291 43.7606 57.9762 43.7606 58.0342V59.5783C43.7606 59.6363 43.7426 59.6834 43.7064 59.7197C43.6702 59.7559 43.6232 59.774 43.5654 59.774H41.9924C41.9346 59.774 41.9057 59.7994 41.9057 59.8502V66.0373C41.9057 66.0953 41.8876 66.1424 41.8514 66.1787C41.8152 66.2149 41.7682 66.2331 41.7104 66.2331H39.812C39.7542 66.2331 39.7071 66.2149 39.671 66.1787C39.6348 66.1424 39.6167 66.0953 39.6167 66.0373V59.8502C39.6167 59.7994 39.5878 59.774 39.53 59.774H38.5753C38.5175 59.774 38.4705 59.7559 38.4343 59.7197C38.3982 59.6834 38.3801 59.6363 38.3801 59.5783V58.0342C38.3801 57.9762 38.3982 57.9291 38.4343 57.8929C38.4705 57.8566 38.5175 57.8385 38.5753 57.8385H39.53C39.5878 57.8385 39.6167 57.8095 39.6167 57.7515V57.3927C39.6167 56.7185 39.718 56.1929 39.9205 55.816C40.1302 55.4463 40.4629 55.1817 40.9185 55.0222C41.3813 54.8627 42.0214 54.7939 42.8386 54.8156H43.4569C43.5075 54.8156 43.5509 54.8337 43.5871 54.87C43.6305 54.9135 43.6522 54.9606 43.6522 55.0113V56.3271C43.6522 56.385 43.6305 56.4322 43.5871 56.4684C43.5509 56.5119 43.5075 56.5337 43.4569 56.5337H42.9145C42.5384 56.5409 42.2745 56.617 42.1226 56.762C41.978 56.9142 41.9057 57.1861 41.9057 57.5775V57.7515C41.9057 57.8095 41.9346 57.8385 41.9924 57.8385H43.5654ZM48.2842 66.3635C47.373 66.3635 46.5919 66.1243 45.9411 65.6459C45.2902 65.1674 44.8454 64.515 44.6068 63.6886C44.4549 63.1812 44.379 62.6266 44.379 62.0249C44.379 61.387 44.4549 60.8107 44.6068 60.296C44.8599 59.4913 45.3119 58.8606 45.9628 58.4039C46.6136 57.9472 47.3947 57.7189 48.3059 57.7189C49.1882 57.7189 49.9476 57.9436 50.584 58.3931C51.2059 58.8498 51.6471 59.4804 51.9074 60.2851C52.0882 60.8288 52.1786 61.3979 52.1786 61.9923C52.1786 62.5795 52.1027 63.1304 51.9508 63.6451C51.7121 64.4933 51.2674 65.1566 50.6165 65.635C49.9729 66.1207 49.1954 66.3635 48.2842 66.3635ZM48.2842 64.3954C48.6386 64.3954 48.9423 64.2867 49.1954 64.0692C49.4485 63.8517 49.6293 63.5509 49.7378 63.1667C49.8174 62.8187 49.8572 62.4381 49.8572 62.0249C49.8572 61.5682 49.8174 61.184 49.7378 60.8723C49.6149 60.5026 49.4305 60.2126 49.1846 60.0024C48.9315 59.7994 48.6241 59.6979 48.2625 59.6979C47.9009 59.6979 47.5972 59.7994 47.3513 60.0024C47.1054 60.2126 46.9282 60.5026 46.8197 60.8723C46.733 61.126 46.6896 61.5102 46.6896 62.0249C46.6896 62.5179 46.7293 62.8984 46.8089 63.1667C46.9174 63.5509 47.0982 63.8517 47.3513 64.0692C47.6044 64.2867 47.9154 64.3954 48.2842 64.3954ZM57.8195 57.7406C58.21 57.7406 58.521 57.8168 58.7524 57.969C58.8392 58.0125 58.8681 58.0922 58.8392 58.2082L58.5029 60.0676C58.4957 60.1981 58.4198 60.238 58.2751 60.1872C58.1088 60.1292 57.9208 60.1003 57.711 60.1003C57.6242 60.1003 57.5049 60.1111 57.353 60.1329C56.9625 60.1691 56.6299 60.3141 56.355 60.5678C56.0875 60.8215 55.9537 61.1623 55.9537 61.59V66.0373C55.9537 66.0953 55.932 66.1424 55.8886 66.1787C55.8524 66.2149 55.8054 66.2331 55.7476 66.2331H53.8492C53.7986 66.2331 53.7515 66.2149 53.7082 66.1787C53.672 66.1424 53.6539 66.0953 53.6539 66.0373V58.0451C53.6539 57.9944 53.672 57.9472 53.7082 57.9038C53.7515 57.8675 53.7986 57.8494 53.8492 57.8494H55.7476C55.8054 57.8494 55.8524 57.8675 55.8886 57.9038C55.932 57.9472 55.9537 57.9944 55.9537 58.0451V58.6649C55.9537 58.6939 55.9609 58.7157 55.9754 58.7302C56.0043 58.7447 56.0224 58.7374 56.0296 58.7084C56.478 58.0632 57.0746 57.7406 57.8195 57.7406ZM69.1555 57.7189C70.0017 57.7189 70.6634 57.9726 71.1407 58.4801C71.618 58.9948 71.8567 59.716 71.8567 60.6439V66.0373C71.8567 66.0953 71.8386 66.1424 71.8024 66.1787C71.7663 66.2149 71.7229 66.2331 71.6723 66.2331H69.763C69.7124 66.2331 69.6654 66.2149 69.622 66.1787C69.5858 66.1424 69.5678 66.0953 69.5678 66.0373V61.1441C69.5678 60.7019 69.4557 60.3503 69.2315 60.0894C69.0001 59.8284 68.6927 59.6979 68.3094 59.6979C67.9334 59.6979 67.626 59.8284 67.3873 60.0894C67.1487 60.3503 67.0294 60.6983 67.0294 61.1333V66.0373C67.0294 66.0953 67.0113 66.1424 66.9751 66.1787C66.9317 66.2149 66.8847 66.2331 66.8341 66.2331H64.9466C64.8887 66.2331 64.8417 66.2149 64.8055 66.1787C64.7694 66.1424 64.7513 66.0953 64.7513 66.0373V61.1441C64.7513 60.7092 64.632 60.3576 64.3933 60.0894C64.1547 59.8284 63.8437 59.6979 63.4604 59.6979C63.1205 59.6979 62.8312 59.7994 62.5926 60.0024C62.3612 60.2126 62.2237 60.5026 62.1804 60.8723V66.0373C62.1804 66.0953 62.1623 66.1424 62.1261 66.1787C62.0827 66.2149 62.0357 66.2331 61.9851 66.2331H60.0867C60.0289 66.2331 59.9818 66.2149 59.9457 66.1787C59.9095 66.1424 59.8914 66.0953 59.8914 66.0373V58.0451C59.8914 57.9944 59.9095 57.9472 59.9457 57.9038C59.9818 57.8675 60.0289 57.8494 60.0867 57.8494H61.9851C62.0357 57.8494 62.0827 57.8675 62.1261 57.9038C62.1623 57.9472 62.1804 57.9944 62.1804 58.0451V58.6867C62.1804 58.7157 62.1912 58.7374 62.2129 58.7519C62.2346 58.7592 62.2563 58.7447 62.278 58.7084C62.7264 58.0487 63.417 57.7189 64.3499 57.7189C64.8923 57.7189 65.366 57.8349 65.771 58.0669C66.176 58.2916 66.487 58.6178 66.7039 59.0455C66.7328 59.1107 66.7726 59.1107 66.8232 59.0455C67.0547 58.596 67.3765 58.2626 67.7887 58.0451C68.1937 57.8276 68.6493 57.7189 69.1555 57.7189ZM80.8279 61.1768C80.893 61.59 80.9147 62.0503 80.893 62.5577C80.8785 62.6955 80.8062 62.7643 80.676 62.7643H75.6534C75.5883 62.7643 75.5667 62.7897 75.5883 62.8404C75.6173 63.0579 75.6751 63.2754 75.7619 63.4929C76.044 64.1018 76.6189 64.4063 77.4867 64.4063C78.181 64.399 78.7306 64.1163 79.1356 63.5581C79.179 63.4929 79.226 63.4603 79.2766 63.4603C79.3128 63.4603 79.3526 63.482 79.396 63.5255L80.5675 64.6781C80.6181 64.7361 80.6435 64.7868 80.6435 64.8303C80.6435 64.8521 80.6218 64.8956 80.5784 64.9608C80.224 65.4103 79.7648 65.7546 79.2007 65.9938C78.6366 66.2403 78.0183 66.3635 77.3457 66.3635C76.4128 66.3635 75.6245 66.1533 74.9809 65.7329C74.33 65.3052 73.8635 64.7107 73.5815 63.9496C73.3573 63.4059 73.2452 62.6955 73.2452 61.8183C73.2452 61.2166 73.3248 60.6874 73.4839 60.2307C73.737 59.4623 74.1745 58.8498 74.7964 58.3931C75.4184 57.9364 76.1597 57.708 77.0203 57.708C78.1051 57.708 78.9765 58.0234 79.6346 58.654C80.2927 59.2847 80.6905 60.1256 80.8279 61.1768ZM77.0311 59.6979C76.3513 59.6979 75.9029 60.0169 75.686 60.6548C75.6426 60.7998 75.6028 60.9738 75.5666 61.1768C75.5666 61.2275 75.5956 61.2529 75.6534 61.2529H78.463C78.5281 61.2529 78.5498 61.2275 78.5281 61.1768C78.4775 60.865 78.4522 60.7128 78.4522 60.7201C78.3509 60.3938 78.181 60.1401 77.9423 59.9589C77.6964 59.7849 77.3927 59.6979 77.0311 59.6979ZM86.4688 57.7406C86.8593 57.7406 87.1703 57.8168 87.4017 57.969C87.4885 58.0125 87.521 58.0922 87.4993 58.2082L87.163 60.0676C87.1486 60.1981 87.069 60.238 86.9244 60.1872C86.7653 60.1292 86.5773 60.1003 86.3603 60.1003C86.2735 60.1003 86.1542 60.1111 86.0023 60.1329C85.6118 60.1691 85.2791 60.3141 85.0043 60.5678C84.7367 60.8215 84.6029 61.1623 84.6029 61.59V66.0373C84.6029 66.0953 84.5849 66.1424 84.5487 66.1787C84.5053 66.2149 84.4583 66.2331 84.4077 66.2331H82.4985C82.4478 66.2331 82.4044 66.2149 82.3683 66.1787C82.3249 66.1424 82.3032 66.0953 82.3032 66.0373V58.0451C82.3032 57.9944 82.3249 57.9472 82.3683 57.9038C82.4044 57.8675 82.4478 57.8494 82.4985 57.8494H84.4077C84.4583 57.8494 84.5053 57.8675 84.5487 57.9038C84.5849 57.9472 84.6029 57.9944 84.6029 58.0451V58.6649C84.6029 58.6939 84.6138 58.7157 84.6355 58.7302C84.6572 58.7447 84.6753 58.7374 84.6897 58.7084C85.1309 58.0632 85.7239 57.7406 86.4688 57.7406ZM41.7104 38.7007C41.7104 38.6499 41.7285 38.6028 41.7646 38.5593C41.8008 38.5231 41.8442 38.5049 41.8948 38.5049H43.804C43.8547 38.5049 43.9017 38.5231 43.9451 38.5593C43.9812 38.6028 43.9993 38.6499 43.9993 38.7007V49.7267C43.9993 49.7847 43.9812 49.8318 43.9451 49.868C43.9017 49.9043 43.8547 49.9224 43.804 49.9224H41.8948C41.8442 49.9224 41.8008 49.9043 41.7646 49.868C41.7285 49.8318 41.7104 49.7847 41.7104 49.7267V45.2249C41.7104 45.1742 41.6815 45.1488 41.6236 45.1488H38.0221C37.9715 45.1488 37.9462 45.1742 37.9462 45.2249V49.7267C37.9462 49.7847 37.9281 49.8318 37.8919 49.868C37.8485 49.9043 37.8015 49.9224 37.7509 49.9224H35.8417C35.7911 49.9224 35.7477 49.9043 35.7115 49.868C35.6681 49.8318 35.6464 49.7847 35.6464 49.7267V38.7007C35.6464 38.6499 35.6681 38.6028 35.7115 38.5593C35.7477 38.5231 35.7911 38.5049 35.8417 38.5049H37.7509C37.8015 38.5049 37.8485 38.5231 37.8919 38.5593C37.9281 38.6028 37.9462 38.6499 37.9462 38.7007V43.0828C37.9462 43.1408 37.9715 43.1698 38.0221 43.1698H41.6236C41.6815 43.1698 41.7104 43.1408 41.7104 43.0828V38.7007ZM46.9608 40.5927C46.5919 40.5927 46.2846 40.4695 46.0387 40.223C45.7928 39.9838 45.6699 39.6793 45.6699 39.3096C45.6699 38.9254 45.7892 38.6137 46.0278 38.3745C46.2665 38.1352 46.5775 38.0156 46.9608 38.0156C47.3441 38.0156 47.655 38.1352 47.8937 38.3745C48.1323 38.6137 48.2517 38.9254 48.2517 39.3096C48.2517 39.6793 48.1287 39.9838 47.8828 40.223C47.637 40.4695 47.3296 40.5927 46.9608 40.5927ZM45.9845 49.9224C45.9338 49.9224 45.8868 49.9043 45.8434 49.868C45.8073 49.8318 45.7892 49.7847 45.7892 49.7267V41.7236C45.7892 41.6656 45.8073 41.6185 45.8434 41.5822C45.8868 41.546 45.9338 41.5279 45.9845 41.5279H47.8937C47.9443 41.5279 47.9877 41.546 48.0239 41.5822C48.0673 41.6185 48.0889 41.6656 48.0889 41.7236V49.7267C48.0889 49.7847 48.0673 49.8318 48.0239 49.868C47.9877 49.9043 47.9443 49.9224 47.8937 49.9224H45.9845ZM54.9774 41.7345C54.9774 41.6837 54.9991 41.6366 55.0424 41.5931C55.0786 41.5569 55.122 41.5387 55.1726 41.5387H57.0818C57.1325 41.5387 57.1795 41.5569 57.2229 41.5931C57.259 41.6366 57.2771 41.6837 57.2771 41.7345V49.1721C57.2771 50.593 56.8685 51.6078 56.0513 52.2168C55.2341 52.833 54.1782 53.141 52.8837 53.141C52.5004 53.141 52.0774 53.112 51.6145 53.0541C51.506 53.0396 51.4518 52.9707 51.4518 52.8474L51.5169 51.162C51.5169 51.017 51.5928 50.9554 51.7447 50.9772C52.1352 51.0424 52.4932 51.075 52.8186 51.075C53.5129 51.075 54.0481 50.9264 54.4241 50.6292C54.7929 50.3175 54.9774 49.8282 54.9774 49.1612C54.9774 49.125 54.9665 49.1032 54.9448 49.096C54.9231 49.0888 54.9014 49.0996 54.8797 49.1286C54.4675 49.5708 53.8673 49.7919 53.079 49.7919C52.3702 49.7919 51.723 49.6216 51.1372 49.2809C50.5442 48.9401 50.1211 48.3892 49.868 47.628C49.7089 47.1278 49.6293 46.479 49.6293 45.6816C49.6293 44.8335 49.727 44.1448 49.9222 43.6156C50.1464 42.9487 50.5297 42.4159 51.0721 42.0172C51.6145 41.6112 52.2473 41.4082 52.9705 41.4082C53.8022 41.4082 54.4386 41.6583 54.8797 42.1585C54.9014 42.1803 54.9231 42.1875 54.9448 42.1803C54.9665 42.173 54.9774 42.1549 54.9774 42.1259V41.7345ZM54.8472 46.9974C54.934 46.6784 54.9774 46.2326 54.9774 45.6599C54.9774 45.3264 54.9665 45.0691 54.9448 44.8878C54.9231 44.6994 54.887 44.5218 54.8363 44.355C54.7351 44.0651 54.5724 43.8295 54.3482 43.6482C54.124 43.4743 53.8419 43.3873 53.502 43.3873C53.1766 43.3873 52.9018 43.4743 52.6776 43.6482C52.4462 43.8295 52.2762 44.0651 52.1678 44.355C52.0159 44.6812 51.9399 45.1234 51.9399 45.6816C51.9399 46.2906 52.005 46.7255 52.1352 46.9865C52.2292 47.2837 52.3992 47.5193 52.6451 47.6933C52.8909 47.8745 53.1802 47.9651 53.5129 47.9651C53.86 47.9651 54.1493 47.8745 54.3807 47.6933C54.6049 47.5193 54.7604 47.2873 54.8472 46.9974ZM63.2868 41.4082C64.1547 41.4082 64.8526 41.6765 65.3805 42.2129C65.9084 42.7421 66.1724 43.4634 66.1724 44.3768V49.7267C66.1724 49.7847 66.1543 49.8318 66.1181 49.868C66.082 49.9043 66.0386 49.9224 65.988 49.9224H64.0787C64.0281 49.9224 63.9811 49.9043 63.9377 49.868C63.9016 49.8318 63.8835 49.7847 63.8835 49.7267V44.8444C63.8835 44.4167 63.7605 44.0651 63.5146 43.7896C63.276 43.5214 62.9542 43.3873 62.5492 43.3873C62.1514 43.3873 61.8296 43.5214 61.5837 43.7896C61.3378 44.0651 61.2149 44.4167 61.2149 44.8444V49.7267C61.2149 49.7847 61.1968 49.8318 61.1607 49.868C61.1245 49.9043 61.0775 49.9224 61.0196 49.9224H59.1213C59.0634 49.9224 59.0164 49.9043 58.9802 49.868C58.9441 49.8318 58.926 49.7847 58.926 49.7267V38.7007C58.926 38.6499 58.9441 38.6028 58.9802 38.5593C59.0164 38.5231 59.0634 38.5049 59.1213 38.5049H61.0196C61.0775 38.5049 61.1245 38.5231 61.1607 38.5593C61.1968 38.6028 61.2149 38.6499 61.2149 38.7007V42.3108C61.2149 42.3398 61.2257 42.3615 61.2474 42.376C61.2691 42.3833 61.2836 42.376 61.2908 42.3543C61.7392 41.7236 62.4045 41.4082 63.2868 41.4082Z" fill="#252530"></path><path d="M29.7518 75.4543C29.7879 75.3963 29.8386 75.3673 29.9036 75.3673H30.9016C30.9378 75.3673 30.9667 75.3818 30.9884 75.4108C31.0174 75.4325 31.0318 75.4615 31.0318 75.4978V82.8484C31.0318 82.8847 31.0174 82.9137 30.9884 82.9354C30.9667 82.9644 30.9378 82.9789 30.9016 82.9789H29.9036C29.8675 82.9789 29.8349 82.9644 29.806 82.9354C29.7843 82.9137 29.7735 82.8847 29.7735 82.8484V77.6617C29.7735 77.6399 29.7662 77.6254 29.7518 77.6182C29.7301 77.6109 29.7156 77.6182 29.7084 77.6399L28.3524 79.7277C28.3162 79.7857 28.2656 79.8147 28.2005 79.8147H27.7015C27.6364 79.8147 27.5858 79.7857 27.5497 79.7277L26.1828 77.6508C26.1756 77.629 26.1647 77.6218 26.1503 77.629C26.1286 77.6363 26.1177 77.6508 26.1177 77.6725V82.8484C26.1177 82.8847 26.1033 82.9137 26.0743 82.9354C26.0526 82.9644 26.0237 82.9789 25.9876 82.9789H24.9895C24.9534 82.9789 24.9245 82.9644 24.9028 82.9354C24.8738 82.9137 24.8594 82.8847 24.8594 82.8484V75.4978C24.8594 75.4615 24.8738 75.4325 24.9028 75.4108C24.9245 75.3818 24.9534 75.3673 24.9895 75.3673H25.9876C26.0526 75.3673 26.1033 75.3963 26.1394 75.4543L27.9076 78.1401C27.9221 78.1546 27.9366 78.1618 27.951 78.1618C27.9655 78.1618 27.9763 78.1546 27.9836 78.1401L29.7518 75.4543ZM33.2122 76.6613C32.9881 76.6613 32.8036 76.5888 32.659 76.4438C32.5144 76.2988 32.442 76.1139 32.442 75.8892C32.442 75.6645 32.5144 75.4797 32.659 75.3347C32.8036 75.1897 32.9881 75.1172 33.2122 75.1172C33.4364 75.1172 33.6209 75.1897 33.7655 75.3347C33.9101 75.4797 33.9824 75.6645 33.9824 75.8892C33.9824 76.1139 33.9101 76.2988 33.7655 76.4438C33.6209 76.5888 33.4364 76.6613 33.2122 76.6613ZM32.6916 82.9789C32.6554 82.9789 32.6265 82.9644 32.6048 82.9354C32.5758 82.9137 32.5614 82.8847 32.5614 82.8484V77.542C32.5614 77.5058 32.5758 77.4768 32.6048 77.455C32.6265 77.4261 32.6554 77.4116 32.6916 77.4116H33.6896C33.7257 77.4116 33.7583 77.4261 33.7872 77.455C33.8089 77.4768 33.8197 77.5058 33.8197 77.542V82.8484C33.8197 82.8847 33.8089 82.9137 33.7872 82.9354C33.7583 82.9644 33.7257 82.9789 33.6896 82.9789H32.6916ZM38.7013 75.4978C38.7013 75.4615 38.7157 75.4325 38.7447 75.4108C38.7664 75.3818 38.7953 75.3673 38.8315 75.3673H39.8295C39.8656 75.3673 39.8982 75.3818 39.9271 75.4108C39.9488 75.4325 39.9596 75.4615 39.9596 75.4978V82.8484C39.9596 82.8847 39.9488 82.9137 39.9271 82.9354C39.8982 82.9644 39.8656 82.9789 39.8295 82.9789H38.8315C38.7953 82.9789 38.7664 82.9644 38.7447 82.9354C38.7157 82.9137 38.7013 82.8847 38.7013 82.8484V82.5222C38.7013 82.5005 38.694 82.486 38.6796 82.4787C38.6651 82.4715 38.6507 82.4787 38.6362 82.5005C38.318 82.8774 37.9022 83.0659 37.3887 83.0659C36.8752 83.0659 36.4413 82.9318 36.0869 82.6636C35.7326 82.3954 35.4758 82.022 35.3167 81.5436C35.1866 81.1376 35.1215 80.6846 35.1215 80.1844C35.1215 79.6697 35.183 79.2275 35.3059 78.8578C35.465 78.3793 35.7217 78.006 36.0761 77.7378C36.4305 77.4696 36.8752 77.3354 37.4104 77.3354C37.9094 77.3354 38.318 77.5167 38.6362 77.8791C38.6507 77.8936 38.6651 77.9009 38.6796 77.9009C38.694 77.8936 38.7013 77.8791 38.7013 77.8574V75.4978ZM38.4409 81.4566C38.6073 81.1594 38.6904 80.7389 38.6904 80.1952C38.6904 79.6298 38.6 79.1985 38.4192 78.9013C38.224 78.5823 37.9492 78.4228 37.5948 78.4228C37.226 78.4228 36.9367 78.575 36.727 78.8795C36.51 79.1985 36.4015 79.6407 36.4015 80.2061C36.4015 80.7136 36.4883 81.1304 36.6619 81.4566C36.8644 81.8046 37.1717 81.9785 37.5839 81.9785C37.9528 81.9785 38.2384 81.8046 38.4409 81.4566ZM41.1312 80.2496C41.095 80.2496 41.0661 80.2387 41.0444 80.217C41.0155 80.188 41.001 80.1554 41.001 80.1191V79.2927C41.001 79.2565 41.0155 79.2238 41.0444 79.1949C41.0661 79.1731 41.095 79.1622 41.1312 79.1622H44.5483C44.5845 79.1622 44.6134 79.1731 44.6351 79.1949C44.664 79.2238 44.6785 79.2565 44.6785 79.2927V80.1191C44.6785 80.1554 44.664 80.188 44.6351 80.217C44.6134 80.2387 44.5845 80.2496 44.5483 80.2496H41.1312ZM50.7207 75.4543C50.7569 75.3963 50.8075 75.3673 50.8726 75.3673H51.8706C51.9068 75.3673 51.9393 75.3818 51.9682 75.4108C51.9899 75.4325 52.0008 75.4615 52.0008 75.4978V82.8484C52.0008 82.8847 51.9899 82.9137 51.9682 82.9354C51.9393 82.9644 51.9068 82.9789 51.8706 82.9789H50.8726C50.8365 82.9789 50.8075 82.9644 50.7858 82.9354C50.7569 82.9137 50.7424 82.8847 50.7424 82.8484V77.6617C50.7424 77.6399 50.7352 77.6254 50.7207 77.6182C50.699 77.6109 50.6846 77.6182 50.6774 77.6399L49.3214 79.7277C49.2852 79.7857 49.2346 79.8147 49.1695 79.8147H48.6705C48.6054 79.8147 48.5548 79.7857 48.5186 79.7277L47.1518 77.6508C47.1446 77.629 47.1337 77.6218 47.1192 77.629C47.0975 77.6363 47.0867 77.6508 47.0867 77.6725V82.8484C47.0867 82.8847 47.0759 82.9137 47.0542 82.9354C47.0252 82.9644 46.9927 82.9789 46.9565 82.9789H45.9585C45.9224 82.9789 45.8934 82.9644 45.8717 82.9354C45.8428 82.9137 45.8283 82.8847 45.8283 82.8484V75.4978C45.8283 75.4615 45.8428 75.4325 45.8717 75.4108C45.8934 75.3818 45.9224 75.3673 45.9585 75.3673H46.9565C47.0216 75.3673 47.0722 75.3963 47.1084 75.4543L48.8766 78.1401C48.8911 78.1546 48.9055 78.1618 48.92 78.1618C48.9345 78.1618 48.9453 78.1546 48.9525 78.1401L50.7207 75.4543ZM55.5806 77.3354C56.0362 77.3354 56.4376 77.4152 56.7847 77.5747C57.1318 77.7341 57.3994 77.9516 57.5875 78.2271C57.7755 78.5098 57.8695 78.8288 57.8695 79.184V82.8484C57.8695 82.8847 57.8587 82.9137 57.837 82.9354C57.808 82.9644 57.7755 82.9789 57.7393 82.9789H56.7413C56.7052 82.9789 56.6762 82.9644 56.6545 82.9354C56.6256 82.9137 56.6111 82.8847 56.6111 82.8484V82.5005C56.6111 82.4787 56.6039 82.4642 56.5895 82.457C56.575 82.457 56.5605 82.4642 56.5461 82.4787C56.1917 82.8702 55.6782 83.0659 55.0057 83.0659C54.4633 83.0659 54.0185 82.9282 53.6714 82.6527C53.317 82.3772 53.1398 81.9677 53.1398 81.424C53.1398 80.8585 53.3387 80.4163 53.7365 80.0974C54.127 79.7857 54.6802 79.6298 55.3962 79.6298H56.5569C56.5931 79.6298 56.6111 79.6117 56.6111 79.5754V79.3145C56.6111 79.0317 56.528 78.8106 56.3616 78.6512C56.1953 78.4989 55.9458 78.4228 55.6131 78.4228C55.3383 78.4228 55.1178 78.4736 54.9514 78.575C54.7779 78.6693 54.6694 78.8034 54.626 78.9774C54.6043 79.0644 54.5537 79.1006 54.4741 79.0861L53.4219 78.9556C53.3857 78.9484 53.3568 78.9375 53.3351 78.923C53.3062 78.9013 53.2953 78.8759 53.3025 78.8469C53.3604 78.4047 53.5991 78.0422 54.0185 77.7595C54.4307 77.4768 54.9514 77.3354 55.5806 77.3354ZM55.3202 82.0655C55.6746 82.0655 55.9784 81.9713 56.2315 81.7828C56.4846 81.5943 56.6111 81.3551 56.6111 81.0651V80.5541C56.6111 80.5178 56.5931 80.4997 56.5569 80.4997H55.6457C55.2624 80.4997 54.9623 80.5722 54.7453 80.7172C54.5211 80.8622 54.409 81.0688 54.409 81.337C54.409 81.569 54.4958 81.7466 54.6694 81.8698C54.8357 82.0003 55.0527 82.0655 55.3202 82.0655ZM61.7097 77.3572C61.9411 77.3572 62.1436 77.4043 62.3171 77.4985C62.375 77.5275 62.3967 77.5819 62.3822 77.6617L62.1978 78.6403C62.1906 78.7273 62.14 78.7527 62.0459 78.7164C61.9375 78.6802 61.8109 78.662 61.6663 78.662C61.5722 78.662 61.4999 78.6657 61.4493 78.6729C61.1456 78.6874 60.8924 78.7925 60.69 78.9883C60.4875 79.1912 60.3862 79.4522 60.3862 79.7712V82.8484C60.3862 82.8847 60.3754 82.9137 60.3537 82.9354C60.3247 82.9644 60.2922 82.9789 60.256 82.9789H59.258C59.2219 82.9789 59.1929 82.9644 59.1712 82.9354C59.1423 82.9137 59.1279 82.8847 59.1279 82.8484V77.5529C59.1279 77.5167 59.1423 77.484 59.1712 77.455C59.1929 77.4333 59.2219 77.4224 59.258 77.4224H60.256C60.2922 77.4224 60.3247 77.4333 60.3537 77.455C60.3754 77.484 60.3862 77.5167 60.3862 77.5529V78.0422C60.3862 78.0712 60.3934 78.0857 60.4079 78.0857C60.4151 78.093 60.426 78.0857 60.4405 78.064C60.7442 77.5928 61.1673 77.3572 61.7097 77.3572ZM63.3368 82.9789C63.3007 82.9789 63.2718 82.9644 63.2501 82.9354C63.2211 82.9137 63.2067 82.8847 63.2067 82.8484V75.4978C63.2067 75.4615 63.2211 75.4325 63.2501 75.4108C63.2718 75.3818 63.3007 75.3673 63.3368 75.3673H64.3348C64.371 75.3673 64.3999 75.3818 64.4216 75.4108C64.4506 75.4325 64.465 75.4615 64.465 75.4978V79.4232C64.465 79.4449 64.4722 79.4594 64.4867 79.4667C64.5012 79.4739 64.5156 79.4667 64.5301 79.445L66.2875 77.4985C66.3381 77.4478 66.3923 77.4224 66.4502 77.4224H67.6001C67.6724 77.4224 67.7085 77.4478 67.7085 77.4985C67.7085 77.5203 67.6977 77.5493 67.676 77.5855L66.2983 79.2383C66.2766 79.2601 66.273 79.2855 66.2875 79.3145L67.9146 82.8267C67.9291 82.8557 67.9363 82.8774 67.9363 82.8919C67.9363 82.9499 67.8966 82.9789 67.817 82.9789H66.7648C66.6925 82.9789 66.6418 82.9463 66.6129 82.8811L65.4305 80.1191C65.4232 80.1046 65.4088 80.0937 65.3871 80.0865C65.3726 80.0865 65.3618 80.0938 65.3545 80.1083L64.4867 81.1086C64.4722 81.1376 64.465 81.163 64.465 81.1848V82.8484C64.465 82.8847 64.4506 82.9137 64.4216 82.9354C64.3999 82.9644 64.371 82.9789 64.3348 82.9789H63.3368ZM73.1542 79.5754C73.1831 79.7567 73.1976 79.9596 73.1976 80.1844L73.1867 80.5215C73.1867 80.6084 73.1433 80.6519 73.0565 80.6519H69.6612C69.625 80.6519 69.6069 80.6701 69.6069 80.7063C69.6286 80.9455 69.6612 81.1086 69.7045 81.1956C69.8781 81.7176 70.3012 81.9822 70.9738 81.9894C71.4655 81.9894 71.856 81.7864 72.1453 81.3805C72.1743 81.337 72.2104 81.3152 72.2538 81.3152C72.2827 81.3152 72.308 81.3261 72.3297 81.3479L73.0023 81.9024C73.0674 81.9532 73.0782 82.0112 73.0349 82.0764C72.8107 82.3954 72.5105 82.6418 72.1345 82.8158C71.7656 82.9898 71.3534 83.0768 70.8978 83.0768C70.3337 83.0768 69.8528 82.9499 69.455 82.6962C69.0645 82.4425 68.7789 82.0873 68.5981 81.6306C68.4317 81.2391 68.3486 80.6954 68.3486 79.9995C68.3486 79.5791 68.392 79.2383 68.4787 78.9774C68.6234 78.4699 68.8982 78.0676 69.3032 77.7704C69.7009 77.4804 70.1819 77.3354 70.7459 77.3354C72.1706 77.3354 72.9734 78.0821 73.1542 79.5754ZM70.7459 78.4228C70.4784 78.4228 70.2542 78.4917 70.0734 78.6294C69.8998 78.7599 69.7769 78.9448 69.7045 79.184C69.6612 79.3072 69.6322 79.4667 69.6178 79.6624C69.6033 79.6987 69.6178 79.7168 69.6612 79.7168H71.8633C71.8994 79.7168 71.9175 79.6987 71.9175 79.6624C71.9031 79.4812 71.8814 79.3435 71.8524 79.2492C71.7873 78.9883 71.6608 78.7853 71.4728 78.6403C71.2775 78.4953 71.0352 78.4228 70.7459 78.4228ZM77.1787 78.3141C77.1787 78.3503 77.1679 78.3793 77.1462 78.4011C77.1173 78.4301 77.0847 78.4446 77.0486 78.4446H75.9421C75.9059 78.4446 75.8878 78.4627 75.8878 78.4989V81.1195C75.8878 81.395 75.9493 81.5943 76.0723 81.7176C76.188 81.8408 76.376 81.9024 76.6363 81.9024H76.9618C76.9979 81.9024 77.0269 81.9133 77.0486 81.935C77.0775 81.964 77.092 81.9967 77.092 82.0329V82.8484C77.092 82.9282 77.0486 82.9753 76.9618 82.9898L76.3977 83.0007C75.8264 83.0007 75.3997 82.9028 75.1176 82.7071C74.8356 82.5114 74.691 82.1416 74.6837 81.598V78.4989C74.6837 78.4627 74.6657 78.4446 74.6295 78.4446H74.0112C73.975 78.4446 73.9461 78.4301 73.9244 78.4011C73.8955 78.3793 73.881 78.3503 73.881 78.3141V77.5529C73.881 77.5167 73.8955 77.484 73.9244 77.455C73.9461 77.4333 73.975 77.4224 74.0112 77.4224H74.6295C74.6657 77.4224 74.6837 77.4043 74.6837 77.3681V76.0958C74.6837 76.0596 74.6982 76.027 74.7271 75.998C74.7488 75.9762 74.7777 75.9653 74.8139 75.9653H75.7577C75.7938 75.9653 75.8228 75.9762 75.8445 75.998C75.8734 76.027 75.8878 76.0596 75.8878 76.0958V77.3681C75.8878 77.4043 75.9059 77.4224 75.9421 77.4224H77.0486C77.0847 77.4224 77.1173 77.4333 77.1462 77.455C77.1679 77.484 77.1787 77.5167 77.1787 77.5529V78.3141Z" fill="white"></path><path d="M34.2312 98.3109C34.1517 98.3109 34.1011 98.2746 34.0794 98.2021L32.1593 90.8406L32.1484 90.7971C32.1484 90.7318 32.1882 90.6992 32.2678 90.6992H33.6129C33.6852 90.6992 33.7322 90.7355 33.7539 90.808L34.7845 95.2336C34.7917 95.2626 34.8026 95.2771 34.817 95.2771C34.8315 95.2771 34.8423 95.2626 34.8496 95.2336L35.8476 90.8188C35.8693 90.7391 35.9163 90.6992 35.9886 90.6992H37.3012C37.3807 90.6992 37.4314 90.7355 37.4531 90.808L38.5378 95.2336C38.5451 95.2553 38.5559 95.2698 38.5704 95.2771C38.5849 95.2771 38.5957 95.2626 38.6029 95.2336L39.6009 90.8188C39.6226 90.7391 39.6696 90.6992 39.742 90.6992H41.022C41.1233 90.6992 41.163 90.7463 41.1413 90.8406L39.3623 98.2021C39.3406 98.2746 39.29 98.3109 39.2104 98.3109H37.9195C37.8472 98.3109 37.8002 98.2746 37.7785 98.2021L36.672 93.4938C36.6648 93.4648 36.6539 93.4503 36.6395 93.4503C36.625 93.4503 36.6142 93.4648 36.6069 93.4938L35.5764 98.1912C35.5619 98.271 35.5149 98.3109 35.4353 98.3109H34.2312ZM42.1936 98.3109C42.1574 98.3109 42.1249 98.2964 42.096 98.2674C42.0743 98.2456 42.0634 98.2166 42.0634 98.1804V90.8297C42.0634 90.7935 42.0743 90.7645 42.096 90.7427C42.1249 90.7137 42.1574 90.6992 42.1936 90.6992H43.4628C43.4989 90.6992 43.5279 90.7137 43.5496 90.7427C43.5785 90.7645 43.593 90.7935 43.593 90.8297V98.1804C43.593 98.2166 43.5785 98.2456 43.5496 98.2674C43.5279 98.2964 43.4989 98.3109 43.4628 98.3109H42.1936ZM49.2773 90.8297C49.2773 90.7935 49.2881 90.7645 49.3098 90.7427C49.3387 90.7137 49.3713 90.6992 49.4074 90.6992H50.6766C50.7128 90.6992 50.7417 90.7137 50.7634 90.7427C50.7923 90.7645 50.8068 90.7935 50.8068 90.8297V98.1804C50.8068 98.2166 50.7923 98.2456 50.7634 98.2674C50.7417 98.2964 50.7128 98.3109 50.6766 98.3109H49.4508C49.3785 98.3109 49.3279 98.2819 49.299 98.2239L46.4893 93.5699C46.4749 93.5481 46.4604 93.5409 46.446 93.5481C46.4315 93.5481 46.4243 93.5626 46.4243 93.5916L46.446 98.1804C46.446 98.2166 46.4315 98.2456 46.4026 98.2674C46.3809 98.2964 46.3519 98.3109 46.3158 98.3109H45.0466C45.0104 98.3109 44.9779 98.2964 44.9489 98.2674C44.9273 98.2456 44.9164 98.2166 44.9164 98.1804V90.8297C44.9164 90.7935 44.9273 90.7645 44.9489 90.7427C44.9779 90.7137 45.0104 90.6992 45.0466 90.6992H46.2724C46.3447 90.6992 46.3953 90.7282 46.4243 90.7862L49.223 95.4184C49.2375 95.4402 49.2519 95.4474 49.2664 95.4402C49.2809 95.4402 49.2881 95.4257 49.2881 95.3967L49.2773 90.8297ZM57.3698 90.6992C57.4059 90.6992 57.4349 90.7137 57.4566 90.7427C57.4855 90.7645 57.5 90.7935 57.5 90.8297V91.8953C57.5 91.9316 57.4855 91.9606 57.4566 91.9823C57.4349 92.0113 57.4059 92.0258 57.3698 92.0258H55.428C55.3918 92.0258 55.3738 92.0439 55.3738 92.0802V98.1804C55.3738 98.2166 55.3593 98.2456 55.3304 98.2674C55.3087 98.2964 55.2798 98.3109 55.2436 98.3109H53.9744C53.9382 98.3109 53.9057 98.2964 53.8768 98.2674C53.8551 98.2456 53.8442 98.2166 53.8442 98.1804V92.0802C53.8442 92.0439 53.8261 92.0258 53.79 92.0258H51.9024C51.8663 92.0258 51.8337 92.0113 51.8048 91.9823C51.7831 91.9606 51.7723 91.9316 51.7723 91.8953V90.8297C51.7723 90.7935 51.7831 90.7645 51.8048 90.7427C51.8337 90.7137 51.8663 90.6992 51.9024 90.6992H57.3698ZM63.7483 91.8845C63.7483 91.9207 63.7375 91.9497 63.7158 91.9714C63.6869 92.0004 63.6543 92.0149 63.6182 92.0149H60.0601C60.0239 92.0149 60.0058 92.0331 60.0058 92.0693V93.7547C60.0058 93.791 60.0239 93.8091 60.0601 93.8091H62.3924C62.4285 93.8091 62.4574 93.82 62.4791 93.8417C62.5081 93.8707 62.5225 93.9034 62.5225 93.9396V94.9944C62.5225 95.0306 62.5081 95.0632 62.4791 95.0922C62.4574 95.114 62.4285 95.1248 62.3924 95.1248H60.0601C60.0239 95.1248 60.0058 95.143 60.0058 95.1792V96.9408C60.0058 96.977 60.0239 96.9951 60.0601 96.9951H63.6182C63.6543 96.9951 63.6869 97.006 63.7158 97.0278C63.7375 97.0567 63.7483 97.0894 63.7483 97.1256V98.1804C63.7483 98.2166 63.7375 98.2456 63.7158 98.2674C63.6869 98.2964 63.6543 98.3109 63.6182 98.3109H58.6064C58.5703 98.3109 58.5377 98.2964 58.5088 98.2674C58.4871 98.2456 58.4763 98.2166 58.4763 98.1804V90.8297C58.4763 90.7935 58.4871 90.7645 58.5088 90.7427C58.5377 90.7137 58.5703 90.6992 58.6064 90.6992H63.6182C63.6543 90.6992 63.6869 90.7137 63.7158 90.7427C63.7375 90.7645 63.7483 90.7935 63.7483 90.8297V91.8845ZM68.977 98.3109C68.9047 98.3109 68.8541 98.2782 68.8251 98.213L67.4692 95.201C67.4547 95.172 67.433 95.1575 67.4041 95.1575H66.3952C66.3591 95.1575 66.341 95.1756 66.341 95.2118V98.1804C66.341 98.2166 66.3265 98.2456 66.2976 98.2674C66.2759 98.2964 66.247 98.3109 66.2108 98.3109H64.9416C64.9054 98.3109 64.8729 98.2964 64.844 98.2674C64.8223 98.2456 64.8114 98.2166 64.8114 98.1804V90.8297C64.8114 90.7935 64.8223 90.7645 64.844 90.7427C64.8729 90.7137 64.9054 90.6992 64.9416 90.6992H68.0441C68.507 90.6992 68.9119 90.7935 69.2591 90.9819C69.6134 91.1704 69.8846 91.4386 70.0727 91.7866C70.2679 92.1346 70.3656 92.5369 70.3656 92.9936C70.3656 93.4865 70.2426 93.907 69.9967 94.2549C69.7508 94.6101 69.4073 94.8602 68.9662 95.0052C68.93 95.0197 68.9192 95.0451 68.9336 95.0813L70.4089 98.1586C70.4234 98.1876 70.4306 98.2094 70.4306 98.2239C70.4306 98.2819 70.3909 98.3109 70.3113 98.3109H68.977ZM66.3952 92.0149C66.3591 92.0149 66.341 92.0331 66.341 92.0693V93.9287C66.341 93.965 66.3591 93.9831 66.3952 93.9831H67.8163C68.12 93.9831 68.3659 93.8925 68.554 93.7112C68.7492 93.53 68.8468 93.2944 68.8468 93.0045C68.8468 92.7145 68.7492 92.4753 68.554 92.2868C68.3659 92.1056 68.12 92.0149 67.8163 92.0149H66.3952ZM41.7163 107.151C41.7018 107.166 41.6982 107.18 41.7054 107.195C41.7127 107.209 41.7271 107.216 41.7488 107.216H44.6886C44.7248 107.216 44.7573 107.227 44.7862 107.249C44.8079 107.278 44.8188 107.311 44.8188 107.347V108.402C44.8188 108.438 44.8079 108.467 44.7862 108.489C44.7573 108.518 44.7248 108.532 44.6886 108.532H39.807C39.7709 108.532 39.7383 108.518 39.7094 108.489C39.6877 108.467 39.6769 108.438 39.6769 108.402V107.401C39.6769 107.336 39.6986 107.282 39.742 107.238C40.0963 106.89 40.4579 106.513 40.8268 106.107C41.1956 105.694 41.427 105.437 41.521 105.335C41.7235 105.096 41.9296 104.868 42.1393 104.65C42.7975 103.918 43.1265 103.374 43.1265 103.019C43.1265 102.765 43.0361 102.555 42.8553 102.389C42.6745 102.229 42.4395 102.149 42.1502 102.149C41.8609 102.149 41.6259 102.229 41.4451 102.389C41.2643 102.555 41.1739 102.773 41.1739 103.041V103.313C41.1739 103.349 41.1594 103.382 41.1305 103.411C41.1088 103.432 41.0799 103.443 41.0437 103.443H39.7637C39.7275 103.443 39.6986 103.432 39.6769 103.411C39.6479 103.382 39.6335 103.349 39.6335 103.313V102.802C39.6552 102.41 39.7781 102.062 40.0023 101.758C40.2265 101.461 40.523 101.232 40.8918 101.073C41.2679 100.913 41.6873 100.834 42.1502 100.834C42.6637 100.834 43.112 100.928 43.4953 101.116C43.8714 101.312 44.1643 101.573 44.374 101.899C44.5765 102.225 44.6778 102.588 44.6778 102.987C44.6778 103.291 44.6018 103.603 44.4499 103.922C44.2981 104.241 44.0703 104.585 43.7665 104.955C43.5423 105.237 43.3001 105.517 43.0397 105.792C42.7794 106.067 42.3925 106.466 41.879 106.988L41.7163 107.151ZM48.3443 108.652C47.5488 108.652 46.9196 108.427 46.4568 107.978C45.994 107.535 45.7625 106.93 45.7625 106.162V103.291C45.7625 102.537 45.994 101.939 46.4568 101.497C46.9196 101.055 47.5488 100.834 48.3443 100.834C49.1398 100.834 49.7726 101.055 50.2427 101.497C50.7056 101.939 50.937 102.537 50.937 103.291V106.162C50.937 106.93 50.7056 107.535 50.2427 107.978C49.7726 108.427 49.1398 108.652 48.3443 108.652ZM48.3443 107.336C48.6698 107.336 48.9301 107.235 49.1254 107.032C49.3134 106.836 49.4074 106.571 49.4074 106.238V103.248C49.4074 102.914 49.3134 102.649 49.1254 102.454C48.9301 102.251 48.6698 102.149 48.3443 102.149C48.0261 102.149 47.773 102.251 47.585 102.454C47.3897 102.649 47.2921 102.914 47.2921 103.248V106.238C47.2921 106.571 47.3897 106.836 47.585 107.032C47.773 107.235 48.0261 107.336 48.3443 107.336ZM53.9744 107.151C53.9599 107.166 53.9563 107.18 53.9635 107.195C53.9708 107.209 53.9852 107.216 54.0069 107.216H56.9467C56.9829 107.216 57.0154 107.227 57.0443 107.249C57.066 107.278 57.0769 107.311 57.0769 107.347V108.402C57.0769 108.438 57.066 108.467 57.0443 108.489C57.0154 108.518 56.9829 108.532 56.9467 108.532H52.0652C52.029 108.532 52.0001 108.518 51.9784 108.489C51.9495 108.467 51.935 108.438 51.935 108.402V107.401C51.935 107.336 51.9567 107.282 52.0001 107.238C52.3544 106.89 52.716 106.513 53.0849 106.107C53.4537 105.694 53.6851 105.437 53.7791 105.335C53.9816 105.096 54.1877 104.868 54.3975 104.65C55.0556 103.918 55.3846 103.374 55.3846 103.019C55.3846 102.765 55.2942 102.555 55.1134 102.389C54.9326 102.229 54.6976 102.149 54.4083 102.149C54.119 102.149 53.884 102.229 53.7032 102.389C53.5224 102.555 53.432 102.773 53.432 103.041V103.313C53.432 103.349 53.4212 103.382 53.3995 103.411C53.3705 103.432 53.338 103.443 53.3018 103.443H52.0218C51.9856 103.443 51.9567 103.432 51.935 103.411C51.9061 103.382 51.8916 103.349 51.8916 103.313V102.802C51.9133 102.41 52.0362 102.062 52.2604 101.758C52.4846 101.461 52.7847 101.232 53.1608 101.073C53.5296 100.913 53.9455 100.834 54.4083 100.834C54.9218 100.834 55.3702 100.928 55.7534 101.116C56.1295 101.312 56.4224 101.573 56.6321 101.899C56.8346 102.225 56.9359 102.588 56.9359 102.987C56.9359 103.291 56.8599 103.603 56.7081 103.922C56.5562 104.241 56.3284 104.585 56.0246 104.955C55.8005 105.237 55.5582 105.517 55.2978 105.792C55.0375 106.067 54.6506 106.466 54.1371 106.988L53.9744 107.151ZM62.5442 104.9C62.6889 105.234 62.7612 105.618 62.7612 106.053C62.7612 106.444 62.6961 106.807 62.5659 107.14C62.3924 107.604 62.1031 107.967 61.6981 108.228C61.2859 108.489 60.8013 108.619 60.2445 108.619C59.6948 108.619 59.2139 108.481 58.8017 108.206C58.3823 107.931 58.0821 107.557 57.9013 107.086C57.8001 106.803 57.7422 106.499 57.7278 106.173C57.7278 106.086 57.7712 106.042 57.8579 106.042H59.138C59.2248 106.042 59.2682 106.086 59.2682 106.173C59.2971 106.412 59.3369 106.589 59.3875 106.705C59.4526 106.894 59.5611 107.039 59.7129 107.14C59.8576 107.249 60.0311 107.303 60.2336 107.303C60.6386 107.303 60.917 107.126 61.0689 106.771C61.1702 106.553 61.2208 106.299 61.2208 106.009C61.2208 105.669 61.1665 105.39 61.0581 105.172C60.8917 104.831 60.6133 104.661 60.2228 104.661C60.1432 104.661 60.0601 104.683 59.9733 104.726C59.8865 104.777 59.7816 104.846 59.6587 104.933C59.6298 104.955 59.6008 104.966 59.5719 104.966C59.5285 104.966 59.496 104.944 59.4743 104.9L58.8342 103.998C58.8198 103.976 58.8125 103.951 58.8125 103.922C58.8125 103.878 58.827 103.842 58.8559 103.813L60.5808 102.302C60.5952 102.287 60.6025 102.273 60.6025 102.258C60.5952 102.244 60.5808 102.236 60.5591 102.236H58.0098C57.9736 102.236 57.9447 102.222 57.923 102.193C57.8941 102.171 57.8796 102.142 57.8796 102.106V101.051C57.8796 101.015 57.8941 100.986 57.923 100.964C57.9447 100.935 57.9736 100.921 58.0098 100.921H62.5334C62.5695 100.921 62.6021 100.935 62.631 100.964C62.6527 100.986 62.6635 101.015 62.6635 101.051V102.247C62.6635 102.305 62.6382 102.36 62.5876 102.41L61.1665 103.715C61.1521 103.73 61.1485 103.744 61.1557 103.759C61.1557 103.773 61.1702 103.78 61.1991 103.78C61.8283 103.904 62.2766 104.277 62.5442 104.9Z" fill="#252530"></path></g><defs><clipPath id="clip0_1695_15105"><rect width="101.97" height="132.66" fill="white" transform="translate(0.429688 0.988281)"></rect></clipPath></defs></svg>