<svg xmlns="http://www.w3.org/2000/svg" width="16" height="16" viewBox="0 0 16 16" fill="none"><path d="M0 8.00007C0 9.5734 0.45409 11.0401 1.22871 12.2667H14.7713C15.5459 11.0401 16 9.5734 16 8.00007C16 6.42673 15.5459 4.96007 14.7713 3.7334H1.22871C0.45409 4.96007 0 6.42673 0 8.00007Z" fill="#F9F9F9"></path><path d="M14.7978 3.73333C13.3821 1.49333 10.8713 0 8.01316 0C5.15506 0 2.64421 1.49333 1.22852 3.73333H14.7978ZM1.22852 12.2667C2.64421 14.5067 5.15506 16 8.01316 16C10.8713 16 13.3821 14.5067 14.7978 12.2667H1.22852Z" fill="#B4D7EE"></path><path d="M11.6728 7.9466L9.48246 7.8666V7.83994C9.82971 7.7866 10.0968 7.57327 10.4708 7.59994C10.9249 7.65327 11.192 7.3866 11.3522 7.33327C11.5392 7.27994 11.6461 7.3866 11.6461 7.33327C11.6728 7.27994 11.5392 7.17327 11.2721 7.19993C11.0317 7.2266 10.9516 7.43994 10.3906 7.3866C9.90984 7.35994 9.74957 7.5466 9.40233 7.5466V7.51994L11.379 6.61327C11.379 6.61327 11.4324 6.5866 11.4324 6.53327C11.4057 6.47993 11.3522 6.5066 11.3522 6.5066L9.34891 7.3066V7.27993C9.64273 7.09327 9.803 6.79994 10.177 6.69327C10.6043 6.55994 10.7646 6.23993 10.8982 6.1066C11.0317 5.97327 11.192 6.05327 11.192 5.99994C11.192 5.9466 11.0317 5.89327 10.818 6.0266C10.6043 6.15994 10.6043 6.37327 10.0701 6.53327C9.61602 6.6666 9.53588 6.9066 9.21535 7.0666L9.18864 7.03993L10.6845 5.43993C10.6845 5.43993 10.7379 5.3866 10.7112 5.35994C10.6845 5.33327 10.631 5.3866 10.631 5.3866L9.02837 6.87993L9.00166 6.85327C9.21535 6.55994 9.24206 6.23994 9.53588 5.99994C9.88313 5.7066 9.88313 5.35993 9.96326 5.19993C10.0434 5.03993 10.2037 5.03994 10.177 4.9866C10.1502 4.93327 9.98997 4.95993 9.82971 5.1466C9.66944 5.35993 9.74957 5.5466 9.34891 5.89327C9.00166 6.1866 9.00166 6.45327 8.78797 6.69327C8.78797 6.69327 8.76126 6.69327 8.76126 6.6666L9.50917 4.61327C9.50917 4.61327 9.53588 4.55993 9.48246 4.53327C9.42904 4.5066 9.40233 4.5866 9.40233 4.5866L8.49415 6.55994H8.46744C8.54757 6.21327 8.46744 5.89327 8.6277 5.57327C8.84139 5.17327 8.70784 4.8266 8.70784 4.6666C8.73455 4.47993 8.8681 4.4266 8.84139 4.39993C8.81468 4.3466 8.65442 4.45327 8.57428 4.69327C8.52086 4.93327 8.65442 5.09327 8.41402 5.57327C8.20033 5.99993 8.30717 6.21327 8.20033 6.53327H8.17361L8.09348 4.3466C8.09348 4.3466 8.09348 4.2666 8.04006 4.2666C7.98664 4.2666 7.98664 4.3466 7.98664 4.3466L7.9065 6.53327H7.87979C7.82637 6.1866 7.61268 5.91993 7.63939 5.5466C7.69281 5.09327 7.4257 4.8266 7.37228 4.6666C7.31886 4.5066 7.4257 4.37327 7.37228 4.37327C7.31886 4.3466 7.21201 4.47993 7.23872 4.7466C7.26543 4.9866 7.47912 5.0666 7.4257 5.6266C7.39899 6.1066 7.58597 6.2666 7.58597 6.61327H7.55926L6.65108 4.63993C6.65108 4.63993 6.62437 4.5866 6.57094 4.5866C6.51752 4.61327 6.54423 4.6666 6.54423 4.6666L7.29215 6.71994H7.26543C7.07846 6.4266 6.78463 6.2666 6.67779 5.89327C6.54423 5.4666 6.2237 5.3066 6.09014 5.17327C5.95659 5.03993 6.03672 4.87993 5.9833 4.87993C5.92987 4.87993 5.87645 5.03994 6.01001 5.25327C6.14356 5.4666 6.35725 5.4666 6.51752 5.99994C6.65108 6.45327 6.89148 6.53327 7.05174 6.85327L7.02503 6.87993L5.42236 5.3866C5.42236 5.3866 5.36894 5.33327 5.34223 5.35994C5.31552 5.3866 5.36894 5.43993 5.36894 5.43993L6.86477 7.03993L6.83806 7.0666C6.54423 6.85327 6.2237 6.8266 5.9833 6.53327C5.68947 6.1866 5.34223 6.1866 5.18196 6.1066C5.02169 6.0266 5.02169 5.8666 4.96827 5.89327C4.91485 5.91994 4.94156 6.07993 5.12854 6.23993C5.34223 6.39994 5.52921 6.31994 5.87645 6.71994C6.17028 7.0666 6.43739 7.0666 6.67779 7.27993C6.67779 7.27993 6.67779 7.3066 6.65108 7.3066L4.59432 6.55994C4.59432 6.55994 4.54089 6.53327 4.51418 6.5866C4.48747 6.63994 4.5676 6.6666 4.5676 6.6666L6.54423 7.57327V7.59994C6.19699 7.51994 5.87645 7.59994 5.55592 7.43993C5.15525 7.2266 4.80801 7.35994 4.64774 7.35994C4.46076 7.33327 4.40734 7.19994 4.38063 7.2266C4.3272 7.25327 4.43405 7.41327 4.67445 7.49327C4.91485 7.5466 5.07512 7.41327 5.55592 7.65327C5.9833 7.8666 6.19699 7.75994 6.51752 7.8666V7.89327L4.3272 7.97327C4.3272 7.97327 4.24707 7.97327 4.24707 8.0266C4.24707 8.07993 4.3272 8.07993 4.3272 8.07993L6.51752 8.15993V8.1866C6.17028 8.23994 5.90316 8.45327 5.52921 8.4266C5.07512 8.37327 4.80801 8.63993 4.64774 8.69327C4.46076 8.7466 4.35391 8.63993 4.35391 8.69327C4.3272 8.7466 4.46076 8.85327 4.72787 8.8266C4.99498 8.79993 5.04841 8.61327 5.60934 8.63994C6.09014 8.6666 6.25041 8.47993 6.59765 8.47993V8.5066L4.62103 9.41327C4.62103 9.41327 4.5676 9.43993 4.5676 9.49327C4.5676 9.5466 4.64774 9.51994 4.64774 9.51994L6.7045 8.77327V8.79994C6.41068 8.9866 6.25041 9.27994 5.87645 9.3866C5.44907 9.51994 5.28881 9.83994 5.15525 9.97327C5.02169 10.1066 4.86143 10.0266 4.86143 10.0799C4.86143 10.1333 5.02169 10.1866 5.23538 10.0533C5.44907 9.91994 5.44907 9.7066 5.9833 9.5466C6.43739 9.41327 6.51752 9.17327 6.83806 9.01327L6.86477 9.03994L5.36894 10.6399C5.36894 10.6399 5.31552 10.6933 5.34223 10.7199C5.36894 10.7466 5.42236 10.6933 5.42236 10.6933L7.02503 9.19993L7.05174 9.2266C6.83806 9.51993 6.81134 9.83993 6.51752 10.0799C6.17028 10.3733 6.17028 10.7199 6.09014 10.8799C6.01001 11.0399 5.84974 11.0399 5.87645 11.0933C5.90316 11.1466 6.06343 11.1199 6.2237 10.9333C6.38397 10.7466 6.30383 10.5333 6.7045 10.1866C7.05174 9.89327 7.05174 9.6266 7.26543 9.3866C7.26543 9.3866 7.29215 9.3866 7.29215 9.41327L6.54423 11.4666C6.54423 11.4666 6.51752 11.5199 6.57094 11.5466C6.62437 11.5733 6.65108 11.4933 6.65108 11.4933L7.55926 9.51994H7.58597C7.50583 9.8666 7.58597 10.1866 7.4257 10.5066C7.21201 10.9066 7.34557 11.2533 7.31886 11.4133C7.29215 11.5999 7.15859 11.6533 7.1853 11.6799C7.21201 11.7333 7.37228 11.6266 7.45241 11.3866C7.50583 11.1466 7.37228 11.0133 7.61268 10.5066C7.82637 10.0799 7.71952 9.8666 7.82637 9.5466H7.85308L7.93321 11.7333C7.93321 11.7333 7.93321 11.8133 7.98664 11.8133C8.04006 11.8133 8.04006 11.7333 8.04006 11.7333L8.12019 9.5466H8.1469C8.20033 9.89327 8.41402 10.1599 8.3873 10.5333C8.33388 10.9866 8.60099 11.2533 8.65442 11.4133C8.70784 11.5999 8.60099 11.7066 8.65442 11.7066C8.70784 11.7333 8.81468 11.5999 8.78797 11.3333C8.76126 11.0933 8.54757 11.0133 8.60099 10.4533C8.6277 9.97327 8.44073 9.81327 8.44073 9.4666H8.46744L9.37562 11.4399C9.37562 11.4399 9.40233 11.4933 9.45575 11.4933C9.50917 11.4666 9.48246 11.4133 9.48246 11.4133L8.70784 9.33327H8.73455C8.92153 9.6266 9.21535 9.7866 9.3222 10.1599C9.45575 10.5866 9.77629 10.7466 9.90984 10.8799C10.0434 11.0133 9.96326 11.1733 10.0167 11.1733C10.0701 11.1733 10.1235 11.0133 9.98998 10.7999C9.85642 10.5866 9.64273 10.5866 9.48246 10.0533C9.34891 9.59994 9.10851 9.51994 8.94824 9.19993L8.97495 9.17327L10.5776 10.6666C10.5776 10.6666 10.631 10.7199 10.6578 10.6933C10.6845 10.6666 10.631 10.6133 10.631 10.6133L9.13522 9.01327L9.16193 8.9866C9.45575 9.19994 9.77629 9.2266 10.0167 9.51994C10.3105 9.8666 10.6578 9.8666 10.818 9.9466C10.9783 10.0266 10.9783 10.1866 11.0317 10.1599C11.0851 10.1333 11.0584 9.97327 10.8714 9.81327C10.6578 9.65327 10.4708 9.73327 10.1235 9.33327C9.82971 8.9866 9.5626 8.9866 9.3222 8.7466C9.3222 8.7466 9.3222 8.71994 9.34891 8.71994L11.4057 9.4666C11.4057 9.4666 11.4591 9.49327 11.4858 9.43994C11.5125 9.3866 11.4324 9.35993 11.4324 9.35993L9.45575 8.45327V8.4266C9.803 8.5066 10.1235 8.4266 10.4441 8.5866C10.8447 8.79994 11.192 8.6666 11.3522 8.6666C11.5392 8.69327 11.5926 8.8266 11.6194 8.79994C11.6728 8.77327 11.5659 8.61327 11.3255 8.53327C11.0851 8.47994 10.9249 8.61327 10.4441 8.37327C10.0167 8.15994 9.803 8.2666 9.48246 8.15993V8.13327L11.6728 8.05327C11.6728 8.05327 11.7529 8.05327 11.7529 7.99994C11.7529 7.9466 11.6728 7.9466 11.6728 7.9466Z" fill="#F6B40E"></path><path d="M8.81488 7.81326C8.73488 7.73326 8.62822 7.67993 8.52155 7.67993C8.41488 7.67993 8.33488 7.73326 8.25488 7.81326C8.38822 7.91993 8.62822 7.91993 8.81488 7.81326ZM8.73488 7.7866C8.68155 7.83993 8.62822 7.8666 8.57488 7.8666C8.60155 7.83993 8.62822 7.81327 8.62822 7.7866C8.62822 7.75993 8.60155 7.73327 8.57488 7.7066C8.65488 7.73327 8.70822 7.75993 8.73488 7.7866ZM8.44155 7.7066C8.41488 7.73327 8.41488 7.75993 8.41488 7.7866C8.41488 7.81327 8.44155 7.8666 8.46822 7.8666C8.41488 7.8666 8.36155 7.83993 8.30822 7.7866C8.36155 7.75993 8.38822 7.73327 8.44155 7.7066Z" fill="#85340A"></path><path d="M8.54842 7.59985C8.38815 7.59985 8.36144 7.62652 8.30802 7.67985C8.22788 7.73319 8.20117 7.73319 8.20117 7.73319C8.20117 7.73319 8.20117 7.78652 8.22788 7.75985C8.25459 7.75985 8.30802 7.73319 8.36144 7.67985C8.44157 7.62652 8.49499 7.62652 8.57513 7.62652C8.78882 7.62652 8.89566 7.78652 8.92237 7.78652C8.94909 7.78652 8.76211 7.59985 8.54842 7.59985Z" fill="#85340A"></path><path d="M8.09494 7.57327C8.06823 7.62661 8.06823 7.65327 8.06823 7.70661C8.04152 7.86661 8.06823 8.05327 8.17507 8.23994C8.17507 8.23994 8.20178 8.21327 8.22849 8.21327C8.12165 8.07994 8.09494 7.91994 8.09494 7.78661C8.09494 7.70661 8.14836 7.65327 8.17507 7.59994C8.36205 7.43994 8.68259 7.46661 8.9497 7.67994C8.7093 7.33327 8.36205 7.35994 8.09494 7.57327Z" fill="#85340A"></path><path d="M8.36085 7.91984C8.28072 7.86651 8.25401 7.83984 8.22729 7.83984C8.20058 7.83984 8.20058 7.86651 8.30743 7.91984C8.41427 7.97318 8.62796 7.99984 8.81494 7.83984C8.60125 7.94651 8.44098 7.94651 8.36085 7.91984ZM8.22729 8.34651C8.20058 8.34651 8.17387 8.31984 8.14716 8.29318C8.14716 8.31984 8.09374 8.37318 8.0136 8.37318C7.93347 8.37318 7.88005 8.29318 7.88005 8.29318C7.88005 8.31984 7.85334 8.34651 7.79992 8.34651C7.7732 8.34651 7.71978 8.31984 7.71978 8.26651C7.71978 8.23984 7.74649 8.21318 7.7732 8.21318C7.71978 8.21318 7.69307 8.26651 7.69307 8.31984C7.69307 8.37318 7.74649 8.42651 7.79992 8.42651C7.82663 8.42651 7.85334 8.39984 7.88005 8.37318C7.90676 8.39984 7.98689 8.39984 8.0136 8.39984H8.04032C8.06703 8.39984 8.12045 8.39984 8.17387 8.37318C8.20058 8.39984 8.22729 8.42651 8.25401 8.42651C8.30743 8.42651 8.36085 8.37318 8.36085 8.31984C8.36085 8.26651 8.33414 8.23984 8.28072 8.21318C8.30743 8.21318 8.33414 8.23984 8.33414 8.26651C8.30743 8.31984 8.28072 8.34651 8.22729 8.34651ZM8.0136 8.58651C8.06703 8.58651 8.12045 8.53318 8.20058 8.58651C8.28072 8.63984 8.33414 8.66651 8.38756 8.69318C8.28072 8.61318 8.22729 8.53318 8.12045 8.53318C8.09374 8.53318 8.04032 8.53318 8.0136 8.55984C7.96018 8.53318 7.93347 8.53318 7.90676 8.53318C7.79992 8.53318 7.74649 8.63984 7.63965 8.69318C7.69307 8.66651 7.74649 8.61318 7.82663 8.58651C7.90676 8.55984 7.96018 8.58651 8.0136 8.58651Z" fill="#85340A"></path><path d="M8.01399 8.66661C7.96057 8.66661 7.93386 8.63994 7.85373 8.66661C7.8003 8.66661 7.74688 8.66661 7.66675 8.69327H7.64004C7.88044 8.71994 7.77359 8.85327 8.01399 8.85327C8.25439 8.85327 8.14755 8.71994 8.38795 8.69327H8.33453C8.12084 8.61327 8.09413 8.66661 8.01399 8.66661ZM8.01399 8.79994C7.82701 8.79994 7.88044 8.66661 7.66675 8.66661C7.88044 8.61327 7.90715 8.69327 8.01399 8.69327C8.09413 8.69327 8.14755 8.63994 8.36124 8.66661C8.14755 8.69327 8.20097 8.79994 8.01399 8.79994ZM8.01399 8.85327C7.90715 8.85327 7.8003 8.93327 7.8003 9.06661C7.82701 8.95994 7.90715 8.90661 8.01399 8.90661C8.12084 8.90661 8.20097 8.98661 8.22768 9.06661C8.22768 8.93327 8.12084 8.85327 8.01399 8.85327ZM7.85373 7.59994C7.90715 7.65327 7.93386 7.73327 7.93386 7.78661C7.96057 7.91994 7.90715 8.05327 7.8003 8.21327C7.8003 8.21327 7.82701 8.21327 7.85373 8.23994C7.93386 8.05327 7.98728 7.89327 7.96057 7.70661C7.96057 7.65327 7.93386 7.62661 7.93386 7.57327C7.69346 7.35994 7.34621 7.33327 7.0791 7.67994C7.34621 7.43994 7.69346 7.41327 7.85373 7.59994Z" fill="#85340A"></path><path d="M7.69287 7.70671C7.773 7.76004 7.79971 7.78671 7.82642 7.78671C7.85313 7.78671 7.85313 7.76004 7.85313 7.76004C7.85313 7.76004 7.79971 7.76004 7.74629 7.70671C7.66616 7.65338 7.63945 7.62671 7.50589 7.62671C7.26549 7.62671 7.13193 7.81338 7.15864 7.81338C7.18536 7.81338 7.2922 7.65338 7.50589 7.65338C7.55931 7.65338 7.63945 7.65338 7.69287 7.70671Z" fill="#85340A"></path><path d="M7.23926 7.81326C7.29259 7.8666 7.39926 7.89327 7.50592 7.89327C7.58592 7.89327 7.69259 7.8666 7.77259 7.81326C7.69259 7.73326 7.58592 7.67993 7.47926 7.67993C7.39926 7.67993 7.29259 7.73326 7.23926 7.81326ZM7.29259 7.81326C7.34592 7.75993 7.39926 7.7066 7.45259 7.7066C7.42592 7.73327 7.39926 7.75993 7.39926 7.7866C7.39926 7.83993 7.42592 7.8666 7.45259 7.8666C7.39926 7.89327 7.31926 7.8666 7.29259 7.81326ZM7.69259 7.7866C7.66592 7.81327 7.61259 7.83993 7.55926 7.8666C7.58592 7.83993 7.58592 7.81327 7.58592 7.7866C7.58592 7.75993 7.55926 7.73327 7.55926 7.7066C7.63926 7.73327 7.69259 7.75993 7.69259 7.7866Z" fill="#85340A"></path><path d="M7.8269 7.83984C7.80019 7.83984 7.77348 7.86651 7.69335 7.91984C7.61321 7.97318 7.45295 7.97318 7.23926 7.86651C7.42624 8.02651 7.63993 7.99984 7.74677 7.94651C7.85361 7.86651 7.85361 7.83984 7.8269 7.83984Z" fill="#85340A"></path></svg>