<svg xmlns="http://www.w3.org/2000/svg" width="16" height="16" viewBox="0 0 16 16" fill="none"><path d="M7.97312 0C4.50646 0 1.54646 2.24 0.453125 5.33333H15.5465C14.4265 2.24 11.4665 0 7.97312 0Z" fill="#F2B200"></path><path d="M7.97312 16.0001C11.4665 16.0001 14.4265 13.7867 15.5198 10.6667H0.453125C1.54646 13.7867 4.50646 16.0001 7.97312 16.0001Z" fill="#83BF4F"></path><path d="M0.453333 5.33325C0.16 6.15992 0 7.06659 0 7.99992C0 8.93325 0.16 9.83992 0.453333 10.6666H15.5467C15.84 9.83992 16 8.93325 16 7.99992C16 7.06659 15.84 6.15992 15.5467 5.33325H0.453333Z" fill="white"></path><path d="M7.9722 10.1331C9.15041 10.1331 10.1055 9.178 10.1055 7.99979C10.1055 6.82158 9.15041 5.86646 7.9722 5.86646C6.79399 5.86646 5.83887 6.82158 5.83887 7.99979C5.83887 9.178 6.79399 10.1331 7.9722 10.1331Z" fill="#428BC1"></path><path d="M7.97311 9.86688C9.00404 9.86688 9.83978 9.03114 9.83978 8.00021C9.83978 6.96928 9.00404 6.13354 7.97311 6.13354C6.94218 6.13354 6.10645 6.96928 6.10645 8.00021C6.10645 9.03114 6.94218 9.86688 7.97311 9.86688Z" fill="white"></path><path d="M7.27884 6.40046C7.35248 6.40046 7.41217 6.34076 7.41217 6.26712C7.41217 6.19348 7.35248 6.13379 7.27884 6.13379C7.2052 6.13379 7.14551 6.19348 7.14551 6.26712C7.14551 6.34076 7.2052 6.40046 7.27884 6.40046Z" fill="#428BC1"></path><path d="M6.85306 6.63996C6.9267 6.63996 6.98639 6.58026 6.98639 6.50662C6.98639 6.43299 6.9267 6.37329 6.85306 6.37329C6.77942 6.37329 6.71973 6.43299 6.71973 6.50662C6.71973 6.58026 6.77942 6.63996 6.85306 6.63996Z" fill="#428BC1"></path><path d="M6.50736 6.98664C6.58099 6.98664 6.64069 6.92694 6.64069 6.8533C6.64069 6.77967 6.58099 6.71997 6.50736 6.71997C6.43372 6.71997 6.37402 6.77967 6.37402 6.8533C6.37402 6.92694 6.43372 6.98664 6.50736 6.98664Z" fill="#428BC1"></path><path d="M6.26615 7.41315C6.33978 7.41315 6.39948 7.35346 6.39948 7.27982C6.39948 7.20618 6.33978 7.14648 6.26615 7.14648C6.19251 7.14648 6.13281 7.20618 6.13281 7.27982C6.13281 7.35346 6.19251 7.41315 6.26615 7.41315Z" fill="#428BC1"></path><path d="M6.13333 7.89338C6.20697 7.89338 6.26667 7.83368 6.26667 7.76004C6.26667 7.6864 6.20697 7.62671 6.13333 7.62671C6.0597 7.62671 6 7.6864 6 7.76004C6 7.83368 6.0597 7.89338 6.13333 7.89338Z" fill="#428BC1"></path><path d="M6.13333 8.37336C6.20697 8.37336 6.26667 8.31366 6.26667 8.24002C6.26667 8.16638 6.20697 8.10669 6.13333 8.10669C6.0597 8.10669 6 8.16638 6 8.24002C6 8.31366 6.0597 8.37336 6.13333 8.37336Z" fill="#428BC1"></path><path d="M6.26615 8.85358C6.33978 8.85358 6.39948 8.79389 6.39948 8.72025C6.39948 8.64661 6.33978 8.58691 6.26615 8.58691C6.19251 8.58691 6.13281 8.64661 6.13281 8.72025C6.13281 8.79389 6.19251 8.85358 6.26615 8.85358Z" fill="#428BC1"></path><path d="M6.50736 9.28009C6.58099 9.28009 6.64069 9.2204 6.64069 9.14676C6.64069 9.07312 6.58099 9.01343 6.50736 9.01343C6.43372 9.01343 6.37402 9.07312 6.37402 9.14676C6.37402 9.2204 6.43372 9.28009 6.50736 9.28009Z" fill="#428BC1"></path><path d="M6.85306 9.62702C6.9267 9.62702 6.98639 9.56732 6.98639 9.49368C6.98639 9.42005 6.9267 9.36035 6.85306 9.36035C6.77942 9.36035 6.71973 9.42005 6.71973 9.49368C6.71973 9.56732 6.77942 9.62702 6.85306 9.62702Z" fill="#428BC1"></path><path d="M7.27884 9.86652C7.35248 9.86652 7.41217 9.80682 7.41217 9.73319C7.41217 9.65955 7.35248 9.59985 7.27884 9.59985C7.2052 9.59985 7.14551 9.65955 7.14551 9.73319C7.14551 9.80682 7.2052 9.86652 7.27884 9.86652Z" fill="#428BC1"></path><path d="M7.73392 9.97345C7.80756 9.97345 7.86725 9.91376 7.86725 9.84012C7.86725 9.76648 7.80756 9.70679 7.73392 9.70679C7.66028 9.70679 7.60059 9.76648 7.60059 9.84012C7.60059 9.91376 7.66028 9.97345 7.73392 9.97345Z" fill="#428BC1"></path><path d="M8.10645 9.86679C8.10645 9.78679 8.15978 9.73345 8.21311 9.70679C8.29311 9.70679 8.34645 9.76012 8.37311 9.81345C8.37311 9.89345 8.31978 9.94679 8.26645 9.97345C8.15978 10.0001 8.10645 9.94679 8.10645 9.86679Z" fill="#428BC1"></path><path d="M8.6929 9.86652C8.76654 9.86652 8.82624 9.80682 8.82624 9.73319C8.82624 9.65955 8.76654 9.59985 8.6929 9.59985C8.61927 9.59985 8.55957 9.65955 8.55957 9.73319C8.55957 9.80682 8.61927 9.86652 8.6929 9.86652Z" fill="#428BC1"></path><path d="M9.12064 9.62702C9.19428 9.62702 9.25397 9.56732 9.25397 9.49368C9.25397 9.42005 9.19428 9.36035 9.12064 9.36035C9.047 9.36035 8.9873 9.42005 8.9873 9.49368C8.9873 9.56732 9.047 9.62702 9.12064 9.62702Z" fill="#428BC1"></path><path d="M9.46634 9.28009C9.53998 9.28009 9.59967 9.2204 9.59967 9.14676C9.59967 9.07312 9.53998 9.01343 9.46634 9.01343C9.3927 9.01343 9.33301 9.07312 9.33301 9.14676C9.33301 9.2204 9.3927 9.28009 9.46634 9.28009Z" fill="#428BC1"></path><path d="M9.70658 8.85358C9.78021 8.85358 9.83991 8.79389 9.83991 8.72025C9.83991 8.64661 9.78021 8.58691 9.70658 8.58691C9.63294 8.58691 9.57324 8.64661 9.57324 8.72025C9.57324 8.79389 9.63294 8.85358 9.70658 8.85358Z" fill="#428BC1"></path><path d="M9.84134 8.37336C9.91498 8.37336 9.97467 8.31366 9.97467 8.24002C9.97467 8.16638 9.91498 8.10669 9.84134 8.10669C9.7677 8.10669 9.70801 8.16638 9.70801 8.24002C9.70801 8.31366 9.7677 8.37336 9.84134 8.37336Z" fill="#428BC1"></path><path d="M9.83969 7.89338C9.75969 7.89338 9.70635 7.84004 9.67969 7.78671C9.67969 7.70671 9.73302 7.65338 9.78635 7.62671C9.86635 7.62671 9.91969 7.68004 9.94635 7.73338C9.97302 7.81338 9.91969 7.86671 9.83969 7.89338Z" fill="#428BC1"></path><path d="M9.70658 7.41315C9.78021 7.41315 9.83991 7.35346 9.83991 7.27982C9.83991 7.20618 9.78021 7.14648 9.70658 7.14648C9.63294 7.14648 9.57324 7.20618 9.57324 7.27982C9.57324 7.35346 9.63294 7.41315 9.70658 7.41315Z" fill="#428BC1"></path><path d="M9.46634 6.98664C9.53998 6.98664 9.59967 6.92694 9.59967 6.8533C9.59967 6.77967 9.53998 6.71997 9.46634 6.71997C9.3927 6.71997 9.33301 6.77967 9.33301 6.8533C9.33301 6.92694 9.3927 6.98664 9.46634 6.98664Z" fill="#428BC1"></path><path d="M9.12064 6.63996C9.19428 6.63996 9.25397 6.58026 9.25397 6.50662C9.25397 6.43299 9.19428 6.37329 9.12064 6.37329C9.047 6.37329 8.9873 6.43299 8.9873 6.50662C8.9873 6.58026 9.047 6.63996 9.12064 6.63996Z" fill="#428BC1"></path><path d="M8.82725 6.32035C8.80059 6.40035 8.72059 6.42701 8.64059 6.40034C8.56059 6.37368 8.53392 6.29368 8.56059 6.21368C8.58725 6.13368 8.66725 6.10701 8.74725 6.13368C8.82725 6.18701 8.85392 6.26701 8.82725 6.32035ZM8.34725 6.16035C8.34725 6.24035 8.26725 6.29368 8.18725 6.26701C8.10725 6.26701 8.05392 6.18701 8.08059 6.10701C8.08059 6.02701 8.16059 5.97368 8.24059 6.00035C8.32059 6.02701 8.37392 6.10701 8.34725 6.16035ZM7.86725 6.13368C7.86725 6.21368 7.81392 6.26701 7.76059 6.29368C7.68059 6.29368 7.62725 6.24035 7.60059 6.18701C7.60059 6.10701 7.65392 6.05368 7.70725 6.02701C7.78725 6.00035 7.86725 6.05368 7.86725 6.13368Z" fill="#428BC1"></path><path d="M7.97324 8.39985C8.19416 8.39985 8.37324 8.22077 8.37324 7.99985C8.37324 7.77894 8.19416 7.59985 7.97324 7.59985C7.75233 7.59985 7.57324 7.77894 7.57324 7.99985C7.57324 8.22077 7.75233 8.39985 7.97324 8.39985Z" fill="#428BC1"></path><path d="M7.97316 6.13379L7.91983 7.28046L7.97316 8.00046L8.05316 7.28046L7.97316 6.13379ZM7.49316 6.18712L7.73316 7.33379L7.97316 8.00046L7.8665 7.28046L7.49316 6.18712Z" fill="#428BC1"></path><path d="M7.04033 6.37329L7.57366 7.41329L7.97366 7.99996L7.68033 7.33329L7.04033 6.37329ZM6.66699 6.66662L7.44033 7.54662L7.97366 7.99996L7.52033 7.43996L6.66699 6.66662Z" fill="#428BC1"></path><path d="M6.37402 7.06665L7.33402 7.70665L7.97402 7.99998L7.38736 7.57332L6.37402 7.06665Z" fill="#428BC1"></path><path d="M6.18645 7.51978L7.27978 7.86644L7.97311 7.99978L7.30645 7.75978L6.18645 7.51978ZM6.10645 7.99978L7.27978 8.05311L7.97311 7.99978L7.27978 7.94644L6.10645 7.99978Z" fill="#428BC1"></path><path d="M6.18652 8.48L7.30652 8.24L7.97319 8L7.27986 8.13333L6.18652 8.48ZM6.37319 8.93333L7.38652 8.42667L7.97319 8L7.33319 8.29333L6.37319 8.93333Z" fill="#428BC1"></path><path d="M6.66699 9.30667L7.52033 8.56L7.97366 8L7.44033 8.45333L6.66699 9.30667ZM7.04033 9.62667L7.68033 8.64L7.97366 8L7.57366 8.58667L7.04033 9.62667Z" fill="#428BC1"></path><path d="M7.49316 9.81333L7.8665 8.72L7.97316 8L7.73316 8.66667L7.49316 9.81333ZM7.97316 9.86667L8.05316 8.72L7.97316 8L7.91983 8.72L7.97316 9.86667ZM8.45316 9.81333L8.23983 8.66667L7.97316 8L8.1065 8.72L8.45316 9.81333Z" fill="#428BC1"></path><path d="M8.90697 9.62667L8.4003 8.58667L7.97363 8L8.29363 8.66667L8.90697 9.62667ZM9.30697 9.30667L8.53363 8.45333L7.97363 8L8.45363 8.56L9.30697 9.30667Z" fill="#428BC1"></path><path d="M9.6003 8.93311L8.6403 8.29311L7.97363 7.99978L8.5603 8.42644L9.6003 8.93311ZM9.78697 8.47977L8.69363 8.13311L7.97363 7.99978L8.66697 8.23978L9.78697 8.47977ZM9.8403 7.99978L8.69363 7.91978L7.97363 7.99978L8.69363 8.05311L9.8403 7.99978ZM9.78697 7.51978L8.66697 7.75978L7.97363 7.99978L8.69363 7.86644L9.78697 7.51978Z" fill="#428BC1"></path><path d="M9.6003 7.06669L8.5603 7.57336L7.97363 8.00003L8.6403 7.70669L9.6003 7.06669ZM9.30697 6.69336L8.45363 7.44003L7.97363 8.00003L8.53363 7.54669L9.30697 6.69336Z" fill="#428BC1"></path><path d="M8.90697 6.37329L8.29363 7.35996L7.97363 7.99996L8.4003 7.41329L8.90697 6.37329Z" fill="#428BC1"></path><path d="M8.4803 6.18652L8.10697 7.27986L7.97363 7.99986L8.2403 7.33319L8.4803 6.18652Z" fill="#428BC1"></path></svg>