<svg xmlns="http://www.w3.org/2000/svg" width="16" height="16" viewBox="0 0 16 16" fill="none"><path d="M8 16C12.4183 16 16 12.4183 16 8C16 3.58172 12.4183 0 8 0C3.58172 0 0 3.58172 0 8C0 12.4183 3.58172 16 8 16Z" fill="#3A7DCE"></path><path d="M4.16792 7.65151L4.08792 7.27818H4.00792L3.87458 7.41151L3.84792 7.06484L3.68792 6.93151L3.58125 6.98484V7.03818L3.39458 6.95818L3.26125 6.79818L3.58125 6.53151L3.04792 6.10484L2.78125 5.11818L4.75458 6.53151L5.98125 6.21151L5.92792 6.02484L6.16792 5.97151L6.27458 5.57151L6.24792 5.43818L6.32792 5.33151L6.38125 5.06484L6.32792 4.95818L6.51458 4.79818L6.46125 4.39818L6.88792 4.21151L7.23458 3.86484L7.20792 3.67818L7.44792 3.81151L7.66125 3.67818L7.74125 3.46484L7.84792 3.62484L8.99458 3.67818L9.23458 3.89151L10.1679 4.07818L10.3546 4.26484L10.4879 4.21151L10.6213 4.66484H10.7013L10.8079 4.53151L11.6613 4.82484L11.7146 4.95818L11.9279 4.90484L12.1679 5.11818L12.4079 6.42484L12.1946 7.14484L13.1012 7.41151L13.1546 8.02484L12.9679 8.47818L13.2346 8.69151L13.1012 9.46484L12.6479 9.81151L12.7546 10.3448L12.4879 10.5315L12.3279 10.4782V10.9848H12.1146L12.1946 11.1715L11.7413 11.3582L11.8746 11.6248L11.5813 11.9448L11.6613 12.0248L11.4746 11.9715L10.6213 12.4782L10.6746 12.3448L10.4079 12.3982L10.3546 12.2648L10.1413 12.4248L10.0613 12.3982L9.92792 12.5582L8.96792 12.4248L8.83458 12.3448L8.67458 12.4248L8.32792 12.1582L8.48792 11.9982L8.72792 11.5182V11.2248L8.54125 10.7982L8.32792 11.0115L7.07458 10.6915L6.80792 10.7182L6.59458 10.8515L5.98125 10.7982V10.9048L4.70125 10.4515V10.1848H4.48792L4.43458 9.41151L4.27458 9.46484L4.03458 8.90484L4.08792 9.03818L3.63458 8.55818H3.90125L3.82125 8.02484L4.03458 7.65151H4.16792" fill="white"></path></svg>