<svg xmlns="http://www.w3.org/2000/svg" width="16" height="16" viewBox="0 0 16 16" fill="none"><path d="M8 0V2.66667H2.66667V8H0C0 12.4267 3.57333 16 8 16C12.4267 16 16 12.4267 16 8C16 3.57333 12.4267 0 8 0Z" fill="#2A5F9E"></path><path d="M3.2 1.59998C1.25333 3.06664 0 5.38664 0 7.99998H3.2V1.59998Z" fill="white"></path><path d="M1.59961 3.2H7.99961V0C5.38628 0 3.06628 1.25333 1.59961 3.2Z" fill="white"></path><path d="M2.08008 2.61337L6.40008 8.00004H8.00008V6.00004L4.02674 1.04004C3.30674 1.46671 2.64008 2.00004 2.08008 2.61337Z" fill="white"></path><path d="M7.9998 0.800049H4.50647C2.90647 1.57338 1.57314 2.90672 0.799805 4.50672V8.00005H2.3998V2.40005H7.9998V0.800049Z" fill="#ED4C5C"></path><path d="M8.00026 6.69336L4.53359 2.40002H2.93359L7.46693 8.00002H8.00026V6.69336Z" fill="#ED4C5C"></path><path d="M9.36056 8.00006L9.62723 7.22672L8.90723 6.72006H9.81389L10.0806 5.97339L10.3472 6.72006H11.2539L10.5339 7.22672L10.8006 8.00006L10.0806 7.52006L9.36056 8.00006Z" fill="white"></path><path d="M10.0801 7.33336L10.5067 7.62669L10.3467 7.14669L10.7734 6.85336H10.2401L10.0801 6.40002L9.92005 6.85336H9.38672L9.81339 7.14669L9.65339 7.62669L10.0801 7.33336Z" fill="#ED4C5C"></path><path d="M14.0266 8.00006L14.2932 7.22672L13.5732 6.72006H14.4799L14.7466 5.97339L15.0132 6.72006H15.9199L15.1999 7.22672L15.4666 8.00006L14.7466 7.52006L14.0266 8.00006Z" fill="white"></path><path d="M14.747 7.33336L15.1737 7.62669L15.0137 7.14669L15.4404 6.85336H14.907L14.747 6.40002L14.587 6.85336H14.0537L14.4804 7.14669L14.3204 7.62669L14.747 7.33336Z" fill="#ED4C5C"></path><path d="M11.7063 5.25335L11.9729 4.48002L11.2529 3.97335H12.1596L12.4263 3.22668L12.6929 3.97335H13.5996L12.8796 4.48002L13.1463 5.25335L12.4263 4.77335L11.7063 5.25335Z" fill="white"></path><path d="M12.4001 4.58665L12.8267 4.87999L12.6667 4.39999L13.0934 4.10665H12.5867L12.4001 3.65332L12.2667 4.10665H11.7334L12.1601 4.39999L12.0001 4.87999L12.4001 4.58665Z" fill="#ED4C5C"></path><path d="M11.4668 12.4533L11.8135 11.44L10.8535 10.7733H12.0535L12.4002 9.78662L12.7468 10.7733H13.9202L12.9602 11.44L13.3068 12.4533L12.3735 11.8133L11.4668 12.4533Z" fill="white"></path><path d="M12.4005 11.5733L12.9605 11.9467L12.7738 11.3333L13.3072 10.9333H12.6405L12.4005 10.3467L12.2138 10.9333H11.5205L12.0538 11.3333L11.8672 11.9467L12.4005 11.5733Z" fill="#ED4C5C"></path><path d="M2.82617 2.40002H6.0795V3.20002H2.82617V2.40002Z" fill="white"></path></svg>