<svg xmlns="http://www.w3.org/2000/svg" width="16" height="16" viewBox="0 0 16 16" fill="none"><path d="M4 14.9333V1.06665C1.6 2.45332 0 5.03998 0 7.99998C0 10.96 1.6 13.5467 4 14.9333Z" fill="#F9F9F9"></path><path d="M8 0C6.53333 0 5.17333 0.4 4 1.06667V14.9333C5.17333 15.6267 6.53333 16 8 16C12.4267 16 16 12.4267 16 8C16 3.57333 12.4267 0 8 0Z" fill="#699635"></path><path d="M9.60059 9.62677C7.97392 9.62677 6.66725 8.34677 6.66725 6.74677C6.66725 5.97344 6.96059 5.30677 7.46725 4.77344C6.37392 5.33344 5.60059 6.4801 5.60059 7.78677C5.60059 9.65344 7.14725 11.1734 9.06725 11.1734C10.9873 11.1734 12.5339 9.65344 12.5339 7.78677C12.5339 7.6001 12.5073 7.41344 12.4806 7.25344C12.2406 8.61344 11.0406 9.62677 9.60059 9.62677Z" fill="white"></path><path d="M10.134 4.77351L10.8007 4.26685L10.534 5.09351L11.2007 5.57351L10.4007 5.60018L10.134 6.40018L9.86738 5.60018L9.06738 5.57351L9.73405 5.09351L9.46738 4.26685L10.134 4.77351Z" fill="white"></path></svg>