<svg xmlns="http://www.w3.org/2000/svg" width="16" height="16" viewBox="0 0 16 16" fill="none"><path d="M8.26616 8L2.47949 13.7867C3.91949 15.1467 5.86616 16 7.99949 16C12.4262 16 15.9995 12.4267 15.9995 8H8.26616Z" fill="#ED4C5C"></path><path d="M15.9995 8C15.9995 3.57333 12.4262 0 7.99949 0C5.86616 0 3.91949 0.853333 2.47949 2.21333L8.26616 8H15.9995Z" fill="#428BC1"></path><path d="M2.48 2.21338C0.96 3.68005 0 5.73338 0 8.00005C0 10.2667 0.96 12.32 2.48 13.7867L8.26667 8.00005L2.48 2.21338Z" fill="#F9F9F9"></path><path d="M2.93286 3.09318L2.71953 3.46652L3.01286 3.75985L2.61286 3.70652L2.39953 4.07985L2.3462 3.67985L1.9462 3.62652L2.31953 3.41318L2.2662 3.01318L2.55953 3.30652L2.93286 3.09318ZM2.9862 12.2665L2.69286 12.5865L2.9062 12.9332L2.53286 12.7732L2.23953 13.0932L2.29286 12.6665L1.89286 12.5065L2.31953 12.4265L2.37286 11.9999L2.5862 12.3732L2.9862 12.2665ZM7.59953 7.99985L7.19953 8.13318V8.53318L6.93286 8.21318L6.53286 8.31985L6.79953 7.99985L6.53286 7.67985L6.93286 7.78652L7.19953 7.46652V7.86652L7.59953 7.99985ZM5.7862 7.59985L5.6262 7.46652L3.89286 7.83985H3.91953L5.5462 7.41318L5.33286 7.27985L3.9462 7.81318L5.09286 6.85318L5.0662 6.61318L3.8662 7.83985H3.83953L5.03953 6.50652L5.01286 6.31985L4.8262 6.34652L3.75953 7.73318V7.70652L4.7462 6.29318L4.5062 6.31985L3.7862 7.62652L4.05287 6.13318L3.89286 5.97318L3.73286 7.70652V7.73318L3.7862 5.91985L3.65286 5.78652L3.51953 5.91985L3.57286 7.73318V7.70652L3.43953 5.99985L3.27953 6.15985L3.5462 7.65318L2.8262 6.34652L2.5862 6.31985L3.57286 7.73318V7.75985L2.47953 6.31985L2.29286 6.29318L2.2662 6.47985L3.4662 7.81318H3.43953L2.23953 6.58652L2.21286 6.82652L3.35953 7.78652L1.97286 7.25318L1.7862 7.38652L3.41286 7.81318H3.43953L1.67953 7.46652L1.51953 7.57318L1.6262 7.73318L3.3862 7.97318H3.35953L1.67953 7.81318L1.81286 7.99985L3.3062 7.97318L1.91953 8.53318L1.8662 8.77318L3.3862 8.02652H3.41286L1.83953 8.87985L1.7862 9.06652L1.97286 9.11985L3.49286 8.15985V8.18652L2.1062 9.17318L2.31953 9.22652L3.43953 8.23985L2.6662 9.54652L2.77286 9.75985L3.4662 8.21318L3.49286 8.18652L2.8262 9.86652L2.9062 10.0532L3.09286 9.97318L3.65286 8.23985V8.26652L3.19953 9.91985L3.41286 9.81318L3.65286 8.31985L3.89286 9.81318L4.1062 9.91985L3.65286 8.26652V8.23985L4.21286 9.97318L4.39953 10.0532L4.47953 9.86652L3.81286 8.18652L3.83953 8.21318L4.53286 9.75985L4.63953 9.54652L3.89286 8.23985L5.01286 9.22652L5.2262 9.17318L3.83953 8.18652V8.15985L5.35953 9.11985L5.5462 9.06652L5.49286 8.87985L3.91953 8.02652H3.9462L5.4662 8.77318L5.3862 8.53318L3.97286 8.02652L5.4662 8.05318L5.59953 7.86652L3.91953 8.02652H3.89286L5.65286 7.78652L5.7862 7.59985Z" fill="#FFCE31"></path><path d="M3.65313 9.1998C4.31587 9.1998 4.85313 8.66255 4.85313 7.9998C4.85313 7.33706 4.31587 6.7998 3.65313 6.7998C2.99038 6.7998 2.45312 7.33706 2.45312 7.9998C2.45312 8.66255 2.99038 9.1998 3.65313 9.1998Z" fill="#FFCE31"></path></svg>