<svg xmlns="http://www.w3.org/2000/svg" width="16" height="16" viewBox="0 0 16 16" fill="none"><path d="M8 16C12.4267 16 16 12.4267 16 8H0C0 12.4267 3.57333 16 8 16Z" fill="#F9F9F9"></path><path d="M8 0C3.57333 0 0 3.57333 0 8H16C16 3.57333 12.4267 0 8 0Z" fill="#ED4C5C"></path><path d="M5.1198 4.13317L4.7998 3.8665H5.1998L5.33314 3.4665L5.46647 3.8665H5.86647L5.54647 4.13317L5.65314 4.53317L5.33314 4.29317L5.01314 4.53317L5.1198 4.13317ZM7.25314 4.13317L6.93314 3.8665H7.33314L7.46647 3.4665L7.5998 3.8665H7.9998L7.6798 4.13317L7.78647 4.53317L7.46647 4.29317L7.14647 4.53317L7.25314 4.13317ZM5.38647 5.4665L5.06647 5.19984H5.46647L5.5998 4.79984L5.73314 5.19984H6.13314L5.81314 5.4665L5.9198 5.8665L5.5998 5.6265L5.2798 5.8665L5.38647 5.4665ZM6.98647 5.4665L6.66647 5.19984H7.06647L7.1998 4.79984L7.33314 5.19984H7.73314L7.41314 5.4665L7.5198 5.8665L7.1998 5.6265L6.8798 5.8665L6.98647 5.4665ZM6.18647 3.33317L5.86647 3.0665H6.26647L6.3998 2.6665L6.53314 3.0665H6.93314L6.61314 3.33317L6.71981 3.73317L6.3998 3.49317L6.0798 3.73317L6.18647 3.33317Z" fill="#F9F9F9"></path><path d="M5.97268 6.93337C4.69268 6.93337 3.67935 5.84003 3.67935 4.5067C3.67935 3.17337 4.71935 2.08003 5.97268 2.08003C6.07935 2.08003 6.15935 2.08003 6.23935 2.1067C5.91935 1.9467 5.57268 1.8667 5.19935 1.8667C3.81268 1.8667 2.66602 3.0667 2.66602 4.53337C2.66602 6.00003 3.81268 7.20003 5.19935 7.20003C5.62602 7.20003 6.05268 7.09337 6.39935 6.88003C6.26602 6.9067 6.13268 6.93337 5.97268 6.93337Z" fill="#F9F9F9"></path></svg>