<svg xmlns="http://www.w3.org/2000/svg" width="16" height="16" viewBox="0 0 16 16" fill="none"><path d="M0 8.00007C0 9.5734 0.45409 11.0401 1.22871 12.2667H14.7713C15.5459 11.0401 16 9.5734 16 8.00007C16 6.42673 15.5459 4.96007 14.7713 3.7334H1.22871C0.45409 4.96007 0 6.42673 0 8.00007Z" fill="#FFCE31"></path><path d="M14.7978 3.73333C13.3821 1.49333 10.8713 0 8.01316 0C5.15506 0 2.64421 1.49333 1.22852 3.73333H14.7978ZM1.22852 12.2667C2.64421 14.5067 5.15506 16 8.01316 16C10.8713 16 13.3821 14.5067 14.7978 12.2667H1.22852Z" fill="#ED4C5C"></path><path d="M1.92285 7.12012H2.77761V7.60012H1.92285V7.12012ZM1.92285 10.6401H2.80432V11.0934H1.92285V10.6401Z" fill="#C8B100"></path><path d="M1.84329 9.89355C1.76329 9.94689 1.70996 10.0002 1.70996 10.0269C1.70996 10.0536 1.73663 10.0802 1.78996 10.1069C1.84329 10.1336 1.89663 10.1869 1.86996 10.2402C1.92329 10.1869 1.94996 10.1336 1.94996 10.0802C1.94996 10.0002 1.89663 9.92022 1.84329 9.89355Z" fill="#ED4C5C"></path><path d="M2.05762 7.6001H2.67197V10.6401H2.05762V7.6001Z" fill="white"></path><path d="M3.31166 8.71994C3.1781 8.6666 2.9377 8.61327 2.67059 8.61327C2.59046 8.61327 2.48361 8.61327 2.37677 8.63994C2.00281 8.69327 1.70899 8.85327 1.7357 8.95993L1.60214 8.6666C1.57543 8.53327 1.89597 8.37327 2.29663 8.29327C2.43019 8.2666 2.56375 8.2666 2.67059 8.2666C2.9377 8.2666 3.1781 8.29327 3.31166 8.3466V8.71994Z" fill="#ED4C5C"></path><path d="M2.05554 9.12005C1.89527 9.12005 1.76172 9.06672 1.76172 8.98672C1.76172 8.93338 1.81514 8.85338 1.92199 8.80005H2.08225L2.05554 9.12005ZM2.6699 8.88005C2.77674 8.90672 2.85688 8.93338 2.9103 8.96005C2.93701 8.98672 2.83017 9.09338 2.6699 9.17338V8.88005Z" fill="#ED4C5C"></path><path d="M1.65489 9.70663C1.62818 9.6533 1.81516 9.54663 2.05556 9.46663C2.1624 9.43996 2.24253 9.38663 2.37609 9.33329C2.69662 9.19996 2.96374 9.01329 2.91031 8.95996L2.96374 9.27996C2.99045 9.33329 2.77676 9.49329 2.45622 9.65329C2.34938 9.70663 2.1624 9.78663 2.05556 9.81329C1.86858 9.86663 1.70831 9.97329 1.70831 9.99996L1.65489 9.70663Z" fill="#ED4C5C"></path><path d="M7.66636 7.12012H8.52112V7.60012H7.66636V7.12012ZM7.63965 10.6401H8.52112V11.0934H7.63965V10.6401Z" fill="#C8B100"></path><path d="M8.59983 9.89355C8.67983 9.94689 8.73316 10.0002 8.73316 10.0269C8.73316 10.0536 8.7065 10.0802 8.65316 10.1069C8.59983 10.1602 8.5465 10.2402 8.57316 10.2669C8.51983 10.2136 8.49316 10.1602 8.49316 10.1069C8.49316 10.0002 8.5465 9.92022 8.59983 9.89355Z" fill="#ED4C5C"></path><path d="M7.77246 7.6001H8.38682V10.6401H7.77246V7.6001Z" fill="white"></path><path d="M7.13086 8.72042C7.26442 8.66709 7.50482 8.61376 7.77193 8.61376C7.85206 8.61376 7.95891 8.61376 8.06575 8.64042C8.43971 8.69376 8.73353 8.85376 8.70682 8.96042L8.84037 8.64042C8.86709 8.50709 8.54655 8.34709 8.14588 8.26709H7.77193C7.50482 8.26709 7.26442 8.29376 7.13086 8.34709V8.72042Z" fill="#ED4C5C"></path><path d="M8.38619 9.12029C8.54646 9.12029 8.68002 9.06696 8.68002 8.98696C8.68002 8.93363 8.62659 8.85363 8.51975 8.80029H8.35948L8.38619 9.12029ZM7.77183 8.88029C7.66499 8.90696 7.58486 8.93363 7.53143 8.96029C7.50472 8.98696 7.61157 9.09363 7.77183 9.17363V8.88029Z" fill="#ED4C5C"></path><path d="M8.78668 9.70691C8.8134 9.65357 8.62642 9.54691 8.38602 9.46691C8.27917 9.44024 8.19904 9.38691 8.06548 9.33357C7.74495 9.20024 7.47784 9.01357 7.53126 8.96024L7.47784 9.28024C7.45112 9.33357 7.66481 9.49357 7.98535 9.65357C8.09219 9.70691 8.27917 9.78691 8.38602 9.81357C8.573 9.86691 8.73326 10.0002 8.70655 10.0269L8.78668 9.70691ZM5.20739 5.41357C5.7149 5.41357 6.75663 5.52024 7.13059 5.89357C6.72992 6.85357 6.08885 6.45357 5.20739 6.45357C4.35263 6.45357 3.68485 6.85357 3.28418 5.89357C3.65814 5.52024 4.67316 5.41357 5.20739 5.41357Z" fill="#ED4C5C"></path><path d="M6.51679 6.47977C6.19626 6.29311 5.71546 6.26644 5.20794 6.26644C4.70043 6.26644 4.21963 6.31977 3.89909 6.47977L4.00594 6.93311C4.29976 7.01311 4.72714 7.06644 5.20794 7.06644C5.68874 7.06644 6.08941 7.01311 6.40995 6.93311L6.51679 6.47977ZM6.97088 5.33311C6.86404 5.25311 6.65035 5.17311 6.46337 5.17311C6.38324 5.17311 6.3031 5.17311 6.22297 5.19977C6.22297 5.19977 6.0627 4.98644 5.68874 4.98644C5.55519 4.98644 5.44834 5.01311 5.3415 5.06644V5.03977C5.31479 4.98644 5.26137 4.93311 5.20794 4.93311C5.15452 4.93311 5.07439 5.01311 5.07439 5.06644V5.09311C4.96754 5.03977 4.8607 5.01311 4.72714 5.01311C4.35319 5.01311 4.19292 5.25311 4.19292 5.22644C4.11278 5.19977 4.03265 5.19977 3.95252 5.19977C2.7238 5.19977 3.33816 6.02644 3.33816 6.02644L3.47172 5.86644C3.17789 5.49311 3.445 5.27977 3.97923 5.27977C4.05936 5.27977 4.11278 5.27977 4.16621 5.30644C3.97923 5.57311 4.32647 5.81311 4.32647 5.81311L4.40661 5.67977C4.21963 5.54644 4.19292 5.09311 4.72714 5.09311C4.8607 5.09311 4.96754 5.11977 5.07439 5.19977C5.07439 5.22644 5.04768 5.59977 5.02096 5.65311L5.23465 5.83977L5.44834 5.65311C5.42163 5.57311 5.39492 5.22644 5.39492 5.19977C5.47505 5.14644 5.60861 5.09311 5.74217 5.09311C6.3031 5.09311 6.3031 5.54644 6.0627 5.67977L6.14283 5.81311C6.14283 5.81311 6.43666 5.57311 6.3031 5.30644C6.35652 5.30644 6.43666 5.27977 6.49008 5.27977C7.13115 5.27977 7.15786 5.75977 6.99759 5.86644L7.10444 6.02644C7.05101 6.02644 7.34484 5.65311 6.97088 5.33311Z" fill="#C8B100"></path><path d="M5.04883 4.8265C5.04883 4.7465 5.12883 4.6665 5.20883 4.6665C5.31549 4.6665 5.36883 4.7465 5.36883 4.8265C5.36883 4.9065 5.28883 4.9865 5.20883 4.9865C5.12883 4.9865 5.04883 4.9065 5.04883 4.8265Z" fill="#005BBF"></path><path d="M5.15549 4.37354V4.45354H5.07549V4.53354H5.15549V4.8002H5.04883V4.8802H5.36883L5.3955 4.82687L5.36883 4.8002H5.26216V4.53354H5.34216V4.45354H5.26216V4.37354H5.15549Z" fill="#C8B100"></path><path d="M5.20844 7.01325C4.78106 7.01325 4.4071 6.95992 4.11328 6.87992C4.4071 6.79992 4.78106 6.74658 5.20844 6.74658C5.63582 6.74658 6.00978 6.79992 6.3036 6.87992C6.03649 6.95992 5.63582 7.01325 5.20844 7.01325Z" fill="#ED4C5C"></path><path d="M5.23571 11.6266C4.72819 11.6266 4.24739 11.4933 3.82001 11.3066C3.49948 11.1466 3.3125 10.8533 3.3125 10.5066V9.22659H7.15891V10.5066C7.15891 10.8533 6.94522 11.1733 6.6514 11.3066C6.22402 11.5199 5.74322 11.6266 5.23571 11.6266ZM5.20899 7.09326H7.1322V9.22659H5.20899V7.09326Z" fill="white"></path><path d="M5.23571 10.5066C5.23571 11.0132 4.80833 11.4132 4.2741 11.4132C3.73988 11.4132 3.3125 11.0132 3.3125 10.5066V9.22656H5.23571V10.5066Z" fill="#ED4C5C"></path><path d="M3.71351 11.2533C3.76693 11.28 3.84707 11.3333 3.95391 11.36V9.17334H3.74022L3.71351 11.2533ZM3.28613 10.48C3.28613 10.7467 3.39298 10.96 3.49982 11.0667V9.17334H3.28613V10.48Z" fill="#C8B100"></path><path d="M4.14062 11.4133H4.35396V9.17334H4.14062V11.4133Z" fill="#C7B500"></path><path d="M4.56738 11.36C4.64738 11.3333 4.75405 11.28 4.80738 11.2533V9.17334H4.59405L4.56738 11.36Z" fill="#C8B100"></path><path d="M3.28613 7.09326H5.20934V9.22659H3.28613V7.09326Z" fill="#ED4C5C"></path><path d="M5.02246 11.0669C5.12913 10.9869 5.20913 10.8002 5.23579 10.5869V9.2002H5.02246V11.0669Z" fill="#C8B100"></path><path d="M7.15924 9.22677V10.5068C7.15924 11.0134 6.73187 11.4134 6.19764 11.4134C5.66342 11.4134 5.23604 11.0134 5.23604 10.5068V9.22677H7.15924ZM6.46475 7.46677C6.54489 7.62677 6.54489 8.02677 6.30449 7.94677C6.35791 7.97343 6.38462 8.1601 6.46475 8.26677C6.59831 8.42677 6.75858 8.29344 6.73187 8.10677C6.67844 7.81344 6.70515 7.62677 6.75858 7.33343C6.75858 7.3601 6.89213 7.3601 6.94556 7.30677C6.91884 7.38677 6.89213 7.49343 6.94556 7.49343C6.89213 7.57343 6.75858 7.70677 6.73187 7.78677C6.70516 7.97343 6.99898 8.3201 6.67844 8.4001C6.46475 8.45343 6.59831 8.61343 6.67844 8.69343C6.67844 8.69343 6.5716 9.0401 6.62502 9.01343C6.41133 9.09343 6.46475 8.90677 6.46475 8.90677C6.5716 8.58677 6.27778 8.5601 6.30449 8.50677C6.03738 8.4801 6.3312 8.74677 6.0908 8.74677C6.03737 8.74677 5.93053 8.8001 5.93053 8.8001C5.63671 8.77343 5.79697 8.50677 5.90382 8.53343C5.98395 8.5601 6.06409 8.69344 6.06409 8.50677C6.06409 8.50677 5.93053 8.29343 6.27778 8.29343C6.14422 8.29343 6.06409 8.18677 6.01066 8.05343C5.95724 8.0801 5.87711 8.21344 5.58328 8.2401C5.58328 8.2401 5.50315 7.94677 5.58328 8.0001C5.69013 8.05343 5.74355 8.05343 5.8504 7.94677C5.79697 7.86677 5.47644 7.7601 5.52986 7.57343C5.52986 7.5201 5.69013 7.4401 5.69013 7.4401C5.66342 7.57343 5.74355 7.70677 5.90382 7.70677C6.11751 7.73343 6.03738 7.65343 6.06409 7.6001C6.0908 7.54677 6.25106 7.62677 6.19764 7.49343C6.19764 7.46677 6.01066 7.4401 6.06409 7.3601C6.17093 7.22677 6.3312 7.33343 6.46475 7.46677ZM5.23604 11.3601L5.18262 11.2268L5.23604 11.0668L5.28946 11.2268L5.23604 11.3601Z" fill="#ED4C5C"></path><path d="M3.87316 7.54683V7.68016H3.92658V7.78683H3.79302V8.0535H3.87316V8.64016H3.71289V8.9335H4.80805V8.64016H4.67449V8.0535H4.72792V7.78683H4.59436V7.68016H4.67449V7.54683H4.40738V7.68016H4.4608V7.78683H4.32725V7.46683H4.40738V7.3335H4.11356V7.46683H4.19369V7.78683H4.06014V7.68016H4.11356V7.54683H3.87316ZM6.89152 10.8268V9.4935H5.50254V10.8268L6.14361 11.1202H6.22374L6.89152 10.8268ZM6.14361 9.60016V10.0535L5.68952 9.60016H6.14361ZM5.58267 9.62683L6.1169 10.1602L5.58267 10.6935V9.62683ZM5.6361 10.8002L6.14361 10.2935V11.0402L5.6361 10.8002ZM6.22374 11.0135V10.2668L6.73125 10.7735L6.22374 11.0135ZM6.78468 10.6935L6.25045 10.1602L6.78468 9.62683V10.6935ZM6.22374 9.60016H6.67783L6.22374 10.0535V9.60016Z" fill="#C8B100"></path><path d="M4.59473 9.20017C4.59473 8.80017 4.86184 8.50684 5.20908 8.50684C5.55633 8.50684 5.82344 8.82684 5.82344 9.20017C5.82344 9.5735 5.55633 9.8935 5.20908 9.8935C4.86184 9.8935 4.59473 9.60017 4.59473 9.20017Z" fill="#ED4C5C"></path><path d="M4.78125 9.20003C4.78125 8.90669 4.96823 8.69336 5.20863 8.69336C5.44903 8.69336 5.63601 8.93336 5.63601 9.20003C5.63601 9.49336 5.44903 9.70669 5.20863 9.70669C4.99494 9.73336 4.78125 9.49336 4.78125 9.20003Z" fill="#005BBF"></path><path d="M5.02188 8.85352L4.91504 9.14685L4.99517 9.17352L4.94175 9.28018H5.10202L5.04859 9.17352L5.12873 9.14685L5.02188 8.85352ZM5.42255 8.85352L5.31571 9.14685L5.39584 9.17352L5.34242 9.28018H5.50269L5.47597 9.17352L5.55611 9.14685L5.42255 8.85352ZM5.23557 9.20018L5.10202 9.49351L5.18215 9.52018L5.15544 9.62685H5.289L5.26228 9.52018L5.34242 9.49351L5.23557 9.20018Z" fill="#C8B100"></path></svg>