<svg xmlns="http://www.w3.org/2000/svg" width="16" height="16" viewBox="0 0 16 16" fill="none"><path d="M13.4396 2.13333C11.9996 0.8 10.1062 0 7.99957 0C5.8929 0 3.99957 0.8 2.55957 2.13333H13.4396ZM2.55957 13.8667C3.99957 15.2 5.8929 16 7.99957 16C10.1062 16 11.9996 15.2 13.4396 13.8667H2.55957Z" fill="#ED4C5C"></path><path d="M0 7.9998C0 9.14647 0.24 10.2131 0.666667 11.1998H15.3333C15.76 10.2131 16 9.14647 16 7.9998C16 6.85314 15.76 5.78647 15.3333 4.7998H0.666667C0.24 5.78647 0 6.85314 0 7.9998Z" fill="#2A5F9E"></path><path d="M2.55965 13.8666H13.413C14.213 13.12 14.8796 12.2133 15.3063 11.2H0.639648C1.11965 12.2133 1.75965 13.12 2.55965 13.8666ZM13.4396 2.1333H2.55965C1.75965 2.87997 1.09298 3.78663 0.666315 4.79997H15.333C14.8796 3.78663 14.2396 2.87997 13.4396 2.1333Z" fill="#F9F9F9"></path></svg>