<svg xmlns="http://www.w3.org/2000/svg" width="16" height="16" viewBox="0 0 16 16" fill="none"><path d="M12.2667 1.22667C11.0133 0.453333 9.57333 0 8 0V1.22667H12.2667Z" fill="#ED4C5C"></path><path d="M8 2.45347H13.76C13.3067 2.00014 12.8 1.57347 12.2667 1.22681H8V2.45347Z" fill="white"></path><path d="M8 3.68003H14.7467C14.4533 3.2267 14.1333 2.8267 13.7867 2.45337H8V3.68003Z" fill="#ED4C5C"></path><path d="M8 4.9066H15.3867C15.2 4.47993 14.9867 4.05326 14.7467 3.67993H8V4.9066Z" fill="white"></path><path d="M8 6.1334H15.7867C15.68 5.70674 15.5467 5.30674 15.3867 4.90674H8V6.1334Z" fill="#ED4C5C"></path><path d="M8 7.38658H15.9733C15.9467 6.95991 15.8667 6.55991 15.7867 6.15991H8V7.38658Z" fill="white"></path><path d="M15.9733 7.38672H7.99999V8.00005H0C0 8.21338 -2.58287e-08 8.40005 0.0266666 8.61338H15.9733C16 8.40005 16 8.21338 16 8.00005C16 7.78672 16 7.57339 15.9733 7.38672Z" fill="#ED4C5C"></path><path d="M0.213034 9.83995H15.7864C15.893 9.43995 15.9464 9.03995 15.973 8.61328H0.0263672C0.0530338 9.01328 0.106367 9.43995 0.213034 9.83995Z" fill="white"></path><path d="M0.61289 11.0665H15.3862C15.5462 10.6665 15.6795 10.2665 15.7862 9.83984H0.212891C0.319557 10.2665 0.45289 10.6665 0.61289 11.0665Z" fill="#ED4C5C"></path><path d="M1.25328 12.2933H14.7466C14.9866 11.8933 15.1999 11.4933 15.3866 11.0667H0.613281C0.799948 11.4933 1.01328 11.8933 1.25328 12.2933Z" fill="white"></path><path d="M2.21293 13.5201H13.7863C14.1329 13.1468 14.4796 12.7201 14.7463 12.2935H1.25293C1.5196 12.7468 1.86626 13.1468 2.21293 13.5201Z" fill="#ED4C5C"></path><path d="M3.70622 14.7467H12.2929C12.8529 14.4 13.3329 13.9734 13.7862 13.52H2.21289C2.66622 14 3.17289 14.4 3.70622 14.7467Z" fill="white"></path><path d="M8.00036 15.9999C9.57369 15.9999 11.0404 15.5466 12.2937 14.7466H3.70703C4.96036 15.5466 6.42703 15.9999 8.00036 15.9999Z" fill="#ED4C5C"></path><path d="M3.73333 1.22667C3.17333 1.57333 2.66666 2 2.21333 2.45333C1.84 2.82666 1.52 3.25333 1.25333 3.68C1.01333 4.08 0.773333 4.48 0.613333 4.90666C0.453333 5.30666 0.32 5.70666 0.213333 6.13333C0.106667 6.53333 0.0533333 6.93333 0.0266666 7.35999C-2.58287e-08 7.57333 0 7.78666 0 7.99999H7.99999V0C6.42666 0 4.98666 0.453333 3.73333 1.22667Z" fill="#428BC1"></path><path d="M6.13304 0.266602L6.26638 0.666601H6.66638L6.34637 0.933268L6.45304 1.33327L6.13304 1.09327L5.81304 1.33327L5.91971 0.933268L5.59971 0.666601H5.99971L6.13304 0.266602ZM7.19971 1.8666L7.33304 2.2666H7.73304L7.41304 2.53327L7.51971 2.93327L7.19971 2.69327L6.87971 2.93327L6.98637 2.53327L6.66638 2.2666H7.06637L7.19971 1.8666ZM5.06638 1.8666L5.19971 2.2666H5.59971L5.27971 2.53327L5.38638 2.93327L5.06638 2.69327L4.74638 2.93327L4.85304 2.53327L4.53304 2.2666H4.93304L5.06638 1.8666ZM6.13304 3.4666L6.26638 3.8666H6.66638L6.34637 4.13327L6.45304 4.53326L6.13304 4.29326L5.81304 4.53326L5.91971 4.13327L5.59971 3.8666H5.99971L6.13304 3.4666ZM3.99971 3.4666L4.13304 3.8666H4.53304L4.21304 4.13327L4.31971 4.53326L3.99971 4.29326L3.67971 4.53326L3.78638 4.13327L3.46638 3.8666H3.86638L3.99971 3.4666ZM1.86638 3.4666L1.99971 3.8666H2.39971L2.07971 4.13327L2.18638 4.53326L1.86638 4.29326L1.54638 4.53326L1.65305 4.13327L1.33305 3.8666H1.73305L1.86638 3.4666ZM7.19971 5.0666L7.33304 5.4666H7.73304L7.41304 5.73326L7.51971 6.13326L7.19971 5.89326L6.87971 6.13326L6.98637 5.73326L6.66638 5.4666H7.06637L7.19971 5.0666ZM5.06638 5.0666L5.19971 5.4666H5.59971L5.27971 5.73326L5.38638 6.13326L5.06638 5.89326L4.74638 6.13326L4.85304 5.73326L4.53304 5.4666H4.93304L5.06638 5.0666ZM2.93304 5.0666L3.06638 5.4666H3.46638L3.14638 5.73326L3.25304 6.13326L2.93304 5.89326L2.61304 6.13326L2.71971 5.73326L2.39971 5.4666H2.79971L2.93304 5.0666ZM6.13304 6.6666L6.26638 7.0666H6.66638L6.34637 7.33326L6.45304 7.73326L6.13304 7.49326L5.81304 7.73326L5.91971 7.33326L5.59971 7.0666H5.99971L6.13304 6.6666ZM3.99971 6.6666L4.13304 7.0666H4.53304L4.21304 7.33326L4.31971 7.73326L3.99971 7.49326L3.67971 7.73326L3.78638 7.33326L3.46638 7.0666H3.86638L3.99971 6.6666ZM1.86638 6.6666L1.99971 7.0666H2.39971L2.07971 7.33326L2.18638 7.73326L1.86638 7.49326L1.54638 7.73326L1.65305 7.33326L1.33305 7.0666H1.73305L1.86638 6.6666ZM2.61304 2.93327L2.93304 2.69327L3.25304 2.93327L3.11971 2.53327L3.43971 2.2666H3.03971L2.93304 1.8666L2.79971 2.2666H2.42638L2.74638 2.5066L2.61304 2.93327ZM0.479713 6.13326L0.799713 5.89326L1.11971 6.13326L0.98638 5.73326L1.30638 5.4666H0.933046L0.799713 5.0666L0.66638 5.4666H0.399713C0.399713 5.49326 0.373047 5.51993 0.373047 5.5466L0.58638 5.7066L0.479713 6.13326Z" fill="white"></path></svg>