<svg xmlns="http://www.w3.org/2000/svg" width="114" height="70" viewBox="0 0 114 70" fill="none"><path d="M103.145 1.07422H21.4883V55.8704H103.145V1.07422Z" fill="#CAE2BC"></path><path d="M19.7158 0.000354767V1.83282V29.4726V57.0742H62.2826H104.849V29.4726V1.83282L104.758 7.24792e-05H104.221L102.712 0.000354767H62.2826H21.8537H19.7158ZM67.9327 1.79465C68.0473 2.17641 66.7493 2.29094 62.3208 2.29094C57.0143 2.29094 56.0598 2.13824 56.8234 1.37471C56.9761 1.26018 59.4957 1.18382 62.4353 1.222C66.253 1.29835 67.8182 1.45106 67.9327 1.79465ZM101.146 28.6327C101.184 42.3763 101.146 54.0201 101.032 54.4782L100.841 55.3563H62.3208C27.542 55.3563 23.8007 55.2799 23.5716 54.7455C23.2662 53.9056 23.2662 4.00888 23.6098 3.70347C23.7244 3.55077 41.2092 3.47441 62.4353 3.51259L101.032 3.62712L101.146 28.6327Z" fill="#4FA83D"></path><path d="M11.6604 60.0133C12.1567 61.1204 12.8438 62.6857 13.2638 63.4492L13.951 64.8999H62.2824H110.652L112.217 61.5404L113.783 58.219L94.2361 58.1045C77.1712 58.0281 74.6516 58.1045 74.2698 58.6008C73.6208 59.4788 50.6386 59.4788 50.295 58.6008C50.1041 58.1045 47.5463 58.0281 30.405 58.0281H10.7441L11.6604 60.0133Z" fill="#4FA83D"></path><rect x="55.8706" y="1.07422" width="12.8932" height="1.61165" fill="white"></rect><path d="M37.6395 15.2473C37.6106 15.3482 37.5962 16.4724 37.6106 17.7263L37.6539 20.0322H45.7968H53.9398L53.983 17.7263C54.0119 15.6797 53.9975 15.4059 53.7669 15.2473C53.4065 14.9735 37.7548 14.9735 37.6395 15.2473Z" fill="#4FA83D"></path><path d="M55.3377 15.1753C55.208 15.2762 55.1648 15.8671 55.1936 17.6686L55.2368 20.0322H63.3798H71.5228L71.566 17.6686C71.5948 15.8671 71.5516 15.2762 71.4219 15.1753C71.321 15.1176 67.7035 15.06 63.3798 15.06C59.0561 15.06 55.4386 15.1176 55.3377 15.1753Z" fill="#4FA83D" fill-opacity="0.91"></path><path d="M72.9927 15.2473C72.7621 15.4059 72.7477 15.6797 72.7765 17.7263L72.8198 20.0322H80.9628H89.1057L89.149 17.6686C89.1778 15.8671 89.1345 15.2762 89.0048 15.1753C88.9039 15.1176 85.3153 15.06 81.0204 15.06C74.996 15.06 73.1801 15.1032 72.9927 15.2473Z" fill="#59A52C" fill-opacity="0.41"></path><path d="M37.6395 21.445C37.6106 21.5458 37.5962 22.67 37.6106 23.9239L37.6539 26.2299L41.2425 26.2731C43.7647 26.3019 44.8889 26.2587 45.0186 26.1434C45.2924 25.9272 45.3068 21.69 45.0474 21.4305C44.788 21.1711 37.7403 21.1855 37.6395 21.445Z" fill="#4FA83D"></path><path d="M46.4744 21.3578C46.4168 21.401 46.3735 22.4964 46.3735 23.7935C46.3735 25.7824 46.4024 26.1427 46.6041 26.2148C46.95 26.3445 62.4145 26.3157 62.6306 26.1859C62.7603 26.0851 62.8036 25.4941 62.7748 23.6926L62.7315 21.329L54.6462 21.2857C50.2072 21.2713 46.5177 21.3002 46.4744 21.3578Z" fill="#59A52C" fill-opacity="0.41"></path><path d="M64.129 21.4299C64.0137 21.5452 63.9561 22.2946 63.9561 23.8656C63.9561 25.7968 63.9849 26.1427 64.1867 26.2148C64.5325 26.3445 79.997 26.3157 80.2132 26.1859C80.3429 26.0851 80.3861 25.4941 80.3573 23.6926L80.314 21.329L72.3152 21.2857C66.2044 21.2569 64.2587 21.3002 64.129 21.4299Z" fill="#4FA83D"></path><path d="M81.7131 21.4301C81.468 21.6751 81.468 25.8835 81.7131 26.1285C81.9148 26.3303 88.6886 26.3735 89.0057 26.1861C89.1354 26.0852 89.1786 25.4943 89.1498 23.6928L89.1066 21.3292L85.5035 21.2859C82.8084 21.2571 81.8428 21.3004 81.7131 21.4301Z" fill="#4FA83D"></path><path d="M37.6395 27.6424C37.6106 27.7433 37.5962 28.8242 37.6106 30.0493L37.6539 32.2832H45.7968H53.9398V29.9052V27.5271L45.8257 27.4839C39.2825 27.4551 37.6971 27.4839 37.6395 27.6424Z" fill="#4FA83D"></path><path d="M55.223 27.6424C55.1941 27.7433 55.1797 28.8242 55.1941 30.0493L55.2374 32.2832H63.3803H71.5233V29.9052V27.5271L63.4092 27.4839C56.866 27.4551 55.2806 27.4839 55.223 27.6424Z" fill="#4FA83D" fill-opacity="0.91"></path><path d="M72.8055 27.6417C72.7767 27.7425 72.7622 28.8235 72.7767 30.0485L72.8199 32.2824L81.0061 32.3257L89.1779 32.3545V29.9044V27.4543H81.0349C74.5061 27.4543 72.8631 27.4975 72.8055 27.6417Z" fill="#4FA83D"></path><path d="M37.6395 33.6948C37.6106 33.7957 37.5962 34.9198 37.6106 36.1737L37.6539 38.4797L41.1128 38.5229C43.0153 38.5373 44.7159 38.5229 44.9033 38.4797C45.2203 38.4076 45.2203 38.3644 45.2203 36.1305C45.2203 34.5451 45.1627 33.7957 45.0474 33.6804C44.788 33.421 37.7403 33.4354 37.6395 33.6948Z" fill="#4FA83D"></path><path d="M46.5462 33.6235C46.4165 33.7244 46.3733 34.3153 46.4021 36.1168L46.4453 38.4805H54.5883H62.7313L62.7745 36.1889C62.8033 34.6324 62.7601 33.8397 62.6448 33.71C62.5151 33.537 61.1315 33.5082 54.6027 33.5082C50.279 33.5082 46.6471 33.5659 46.5462 33.6235Z" fill="#4FA83D"></path><path d="M64.129 33.6804C64.0137 33.7957 63.9561 34.5451 63.9561 36.1305C63.9561 38.3644 63.9561 38.4076 64.2875 38.4797C64.4605 38.5229 68.1356 38.5373 72.4593 38.5229L80.314 38.4797L80.3573 36.1161C80.3861 34.3145 80.3429 33.7236 80.2132 33.6227C79.8961 33.4354 64.3308 33.4786 64.129 33.6804Z" fill="#4FA83D" fill-opacity="0.91"></path><path d="M81.7123 33.6797C81.5106 33.8815 81.4673 38.0754 81.6547 38.3781C81.7556 38.5078 82.6059 38.5511 85.4451 38.5222L89.1059 38.479L89.1491 36.1154C89.1779 34.3138 89.1347 33.7229 89.005 33.622C88.6879 33.4347 81.9141 33.4779 81.7123 33.6797Z" fill="#4FA83D"></path><path d="M37.6395 39.8926C37.6106 39.9935 37.5962 41.1176 37.6106 42.3715L37.6539 44.6775L45.6383 44.7207C51.4897 44.7351 53.666 44.7063 53.8245 44.591C53.983 44.4613 54.0119 43.9424 53.983 42.0977L53.9398 39.7773L45.8257 39.734C39.2825 39.7052 37.6971 39.734 37.6395 39.8926Z" fill="#59A52C" fill-opacity="0.41"></path><path d="M55.2659 39.8065C55.2083 39.8498 55.165 40.9451 55.165 42.2422C55.165 44.2311 55.1939 44.5914 55.3956 44.6635C55.7415 44.7932 71.206 44.7644 71.4221 44.6347C71.5519 44.5338 71.5951 43.9429 71.5663 42.1413L71.523 39.7777L63.4377 39.7345C58.9987 39.7201 55.3092 39.7489 55.2659 39.8065Z" fill="#59A52C" fill-opacity="0.41"></path><path d="M72.8346 39.9355C72.6616 40.3822 72.7337 44.3889 72.9211 44.5762C73.1228 44.778 88.6881 44.8212 89.0052 44.6339C89.1349 44.533 89.1782 43.9421 89.1493 42.1406L89.1061 39.7769L81.0208 39.7337C73.7281 39.7049 72.9211 39.7193 72.8346 39.9355Z" fill="#4FA83D"></path><path d="M1.71143 24.0415L21.9187 18.5615L42.8109 25.0689V41.5087L38.3585 56.2361L29.7961 64.7985L21.9187 67.8809L15.7538 66.1685L9.93133 60.6885L5.47888 55.2086L1.71143 45.6187V37.3988V24.0415Z" fill="#4FA83D"></path><path d="M23.906 17.7013C24.849 17.9836 25.93 18.302 26.3084 18.4161C27.3535 18.7224 37.4437 21.6954 40.4767 22.5903C41.9422 23.0227 43.2335 23.4191 43.3416 23.4672C43.4557 23.5212 43.6059 23.6654 43.6779 23.7855L43.8161 24.0017L43.8341 31.2991C43.8581 40.0919 43.8161 41.203 43.3596 43.9718C41.9362 52.6506 37.4196 60.2362 30.801 65.0711C29.0532 66.3444 27.1012 67.4375 25.0231 68.3084C24.0021 68.7348 22.2183 69.3174 21.942 69.3174C21.6838 69.3174 20.7228 69.0291 19.6417 68.6267C13.0951 66.1882 7.49145 61.1191 4.01395 54.5004C1.86378 50.4043 0.614517 46.158 0.152054 41.3292C0.0739746 40.4703 -0.0401382 34.1639 0.013916 33.9657C0.152054 33.4612 0.716625 33.1369 1.20312 33.2811C1.50342 33.3711 1.7797 33.6474 1.86378 33.9357C1.89381 34.0558 1.92384 34.4282 1.92384 34.7585C1.92384 35.9598 2.1821 42.3442 2.44036 43.8517C3.40734 49.5154 5.73168 54.6326 9.25723 58.8729C9.95393 59.7077 11.6476 61.4374 12.4585 62.1281C15.011 64.3264 18.0921 66.0861 21.1612 67.1011L21.93 67.3534L22.6928 67.1011C30.0322 64.6627 36.1103 58.7828 39.3716 50.9689C40.4527 48.3743 41.2695 45.2992 41.6179 42.4703C41.8461 40.6265 41.8641 39.9598 41.8641 32.4102V25.0167L40.1043 24.5002C39.1434 24.2179 34.6568 22.8966 30.1403 21.5632L21.93 19.1488L19.4195 19.8876C18.0381 20.296 16.1402 20.8545 15.1972 21.1308C14.2543 21.4071 13.0951 21.7494 12.6146 21.8936C12.1341 22.0317 9.54552 22.7945 6.86082 23.5873L1.9839 25.0227V29.4672C1.9839 32.2 1.95988 33.9898 1.92384 34.1159C1.83976 34.4102 1.53945 34.6985 1.22713 34.7826C0.998905 34.8486 0.92083 34.8426 0.704613 34.7585C0.374279 34.6324 0.152054 34.3982 0.0679665 34.0919C-0.0221214 33.7555 -0.0221214 24.4281 0.0679665 24.0678C0.104004 23.9116 0.212112 23.7314 0.320221 23.6233C0.530434 23.4191 0.200104 23.5212 8.2302 21.1548C20.3564 17.5872 21.7378 17.1848 21.96 17.1908C22.0862 17.1908 22.9631 17.4251 23.906 17.7013Z" fill="#CAE2BC"></path><path d="M12.8931 41.5442L20.056 47.2745L30.8003 32.2324" stroke="white" stroke-width="2.14887" stroke-linecap="round" stroke-linejoin="round"></path></svg>