<svg xmlns="http://www.w3.org/2000/svg" width="84" height="78" viewBox="0 0 84 78" fill="none"><rect y="24.2188" width="51.9809" height="21.7375" rx="0.472554" fill="#4FA83D"></rect><rect x="2.36279" y="26.2271" width="3.54415" height="17.6026" rx="0.354415" fill="#CAE2BC"></rect><rect x="8.06299" y="26.2271" width="3.54415" height="17.6026" rx="0.354415" fill="#CAE2BC"></rect><rect x="13.7622" y="26.2271" width="3.54415" height="17.6026" rx="0.354415" fill="#CAE2BC"></rect><rect x="19.4619" y="26.2271" width="3.54415" height="17.6026" rx="0.354415" fill="#CAE2BC"></rect><circle cx="34.9102" cy="35.0284" r="1.94928" fill="#CAE2BC"></circle><circle cx="39.8716" cy="35.0284" r="1.94928" fill="#CAE2BC"></circle><circle cx="44.8336" cy="35.0284" r="1.94928" fill="#CAE2BC"></circle><rect width="51.9809" height="21.7375" rx="0.472554" fill="#4FA83D"></rect><rect x="2.36279" y="2.00879" width="3.54415" height="17.6026" rx="0.354415" fill="#CAE2BC"></rect><rect x="8.06299" y="2.00879" width="3.54415" height="17.6026" rx="0.354415" fill="#CAE2BC"></rect><rect x="13.7622" y="2.00879" width="3.54415" height="17.6026" rx="0.354415" fill="#CAE2BC"></rect><rect x="19.4619" y="2.00879" width="3.54415" height="17.6026" rx="0.354415" fill="#CAE2BC"></rect><circle cx="34.9102" cy="10.8096" r="1.94928" fill="#CAE2BC"></circle><circle cx="39.8716" cy="10.8096" r="1.94928" fill="#CAE2BC"></circle><circle cx="44.834" cy="10.8096" r="1.94928" fill="#CAE2BC"></circle><rect y="48.4365" width="51.9809" height="21.7375" rx="0.472554" fill="#4FA83D"></rect><circle cx="34.9102" cy="59.2466" r="1.94928" fill="#CAE2BC"></circle><circle cx="39.8716" cy="59.2466" r="1.94928" fill="#CAE2BC"></circle><circle cx="44.8336" cy="59.2466" r="1.94928" fill="#CAE2BC"></circle><path d="M36.6318 27.2899L59.0065 21.2222L82.1396 28.4276V46.6307L77.2096 62.9376L67.7288 72.4184L59.0065 75.8315L52.1803 73.9354L45.7334 67.8676L40.8034 61.7999L36.6318 51.1815V42.0799V27.2899Z" fill="#CAE2BC"></path><path d="M61.206 20.271C62.2501 20.5836 63.4471 20.9361 63.8661 21.0624C65.0232 21.4016 76.1956 24.6935 79.554 25.6843C81.1767 26.1632 82.6065 26.6021 82.7262 26.6553C82.8526 26.7151 83.0188 26.8747 83.0986 27.0077L83.2516 27.2472L83.2715 35.3272C83.2981 45.0632 83.2516 46.2935 82.7461 49.3593C81.17 58.9689 76.169 67.3682 68.8405 72.7216C66.9052 74.1315 64.7439 75.3418 62.4429 76.3061C61.3124 76.7783 59.3372 77.4233 59.0313 77.4233C58.7454 77.4233 57.6813 77.1041 56.4843 76.6586C49.2355 73.9586 43.0308 68.3457 39.1803 61.0172C36.7995 56.4817 35.4163 51.78 34.9042 46.4331C34.8177 45.4822 34.6914 38.4994 34.7512 38.2799C34.9042 37.7213 35.5293 37.3622 36.068 37.5218C36.4005 37.6216 36.7064 37.9275 36.7995 38.2467C36.8328 38.3797 36.866 38.792 36.866 39.1578C36.866 40.4878 37.152 47.557 37.438 49.2263C38.5086 55.4974 41.0823 61.1635 44.986 65.8585C45.7574 66.7829 47.6328 68.6982 48.5306 69.463C51.3569 71.897 54.7685 73.8455 58.1668 74.9694L59.018 75.2487L59.8626 74.9694C67.9892 72.2694 74.7193 65.7588 78.3304 57.1068C79.5274 54.2339 80.4319 50.829 80.8176 47.6967C81.0703 45.6551 81.0902 44.9169 81.0902 36.5575V28.3711L79.1417 27.7991C78.0777 27.4866 73.1099 26.0235 68.1089 24.5472L59.018 21.8738L56.2382 22.6917C54.7087 23.144 52.6072 23.7624 51.5631 24.0683C50.519 24.3742 49.2355 24.7533 48.7035 24.9129C48.1715 25.0659 45.3052 25.9105 42.3325 26.7883L36.9325 28.3777V33.2989C36.9325 36.3248 36.9059 38.3065 36.866 38.4462C36.7729 38.7721 36.4404 39.0913 36.0946 39.1844C35.8419 39.2575 35.7554 39.2509 35.516 39.1578C35.1503 39.0181 34.9042 38.7588 34.8111 38.4196C34.7113 38.0472 34.7113 27.7193 34.8111 27.3203C34.851 27.1474 34.9707 26.9479 35.0904 26.8282C35.3232 26.6021 34.9574 26.7151 43.8488 24.0949C57.2757 20.1447 58.8052 19.6991 59.0513 19.7058C59.1909 19.7058 60.1619 19.9651 61.206 20.271Z" fill="#4FA83D"></path><path fill-rule="evenodd" clip-rule="evenodd" d="M52.8231 43.0306C51.2969 44.6546 51.3762 47.2082 53.0001 48.7344L58.3511 53.7634L58.351 53.7635C59.6353 54.6752 63.7172 56.1376 67.9093 53.6097C68.8939 52.071 69.7848 47.8198 67.2772 44.2666L67.2774 44.2664L61.9259 39.237C60.302 37.7108 57.7483 37.79 56.2221 39.414L52.8231 43.0306Z" fill="#50A83D"></path><path d="M50.666 31.4784L49.5981 36.6213L54.5673 41.2915L55.4516 40.3505L56.1645 36.6459L50.666 31.4784Z" fill="#4FA83D"></path><path d="M44.3374 38.2116L49.4042 36.8269L54.3735 41.497L53.4892 42.4379L49.8359 43.3792L44.3374 38.2116Z" fill="#4FA83D"></path><path d="M54.4562 41.3796L46.7671 34.1533" stroke="#50A83D" stroke-width="0.282459"></path><path d="M56.1849 36.6651L49.625 36.5913L54.6478 41.1456L55.4848 40.2549L56.1849 36.6651Z" fill="#4FA83D"></path><mask id="mask0_3176_21604" style="mask-type:alpha" maskUnits="userSpaceOnUse" x="51" y="38" width="18" height="18"><path fill-rule="evenodd" clip-rule="evenodd" d="M52.8231 43.0306C51.2969 44.6546 51.3762 47.2082 53.0001 48.7344L58.3511 53.7634L58.351 53.7635C59.6353 54.6752 63.7172 56.1376 67.9093 53.6097C68.8939 52.071 69.7848 47.8198 67.2772 44.2666L67.2774 44.2664L61.9259 39.237C60.302 37.7108 57.7483 37.79 56.2221 39.414L52.8231 43.0306Z" fill="#50A83D"></path></mask><g mask="url(#mask0_3176_21604)"><rect x="54.5635" y="41.1777" width="6.94043" height="20.0949" transform="rotate(-46.7772 54.5635 41.1777)" fill="#4FA83D"></rect></g><path d="M53.1654 49.1242L63.4006 38.905L63.924 39.3796L64.4225 39.8789L54.1358 50.1496L53.6372 49.6502L53.1654 49.1242Z" fill="#CADFBD"></path><path d="M57.0195 52.896L66.467 43.2845L66.7655 43.5779L67.6521 44.5665L58.3714 54.1078L57.318 53.1894L57.0195 52.896Z" fill="#CADFBD"></path><rect x="74.4316" y="29.7549" width="3.83529" height="42.6304" transform="rotate(44.6797 74.4316 29.7549)" fill="#4FA83D"></rect><rect x="2.40137" y="49.8848" width="3.54415" height="17.6026" rx="0.354415" fill="#CAE2BC"></rect><rect x="8.10107" y="49.8848" width="3.54415" height="17.6026" rx="0.354415" fill="#CAE2BC"></rect><rect x="13.8008" y="49.8848" width="3.54415" height="17.6026" rx="0.354415" fill="#CAE2BC"></rect><rect x="19.5005" y="49.8848" width="3.54415" height="17.6026" rx="0.354415" fill="#CAE2BC"></rect></svg>