<svg xmlns="http://www.w3.org/2000/svg" width="116" height="77" viewBox="0 0 116 77" fill="none"><g id="Group 45039"><g id="Group 45038"><path id="Vector 2" d="M88.5641 1.70508H10.9009V53.8212H88.5641V1.70508Z" fill="#CADFBD"></path><g id="Black"><path id="Vector" d="M9.21533 0.681484V2.42433V28.7123V54.9639H49.7002H90.185V28.7123V2.42433L90.0979 0.681221H89.587L88.1517 0.681484H49.7002H11.2487H9.21533ZM55.074 2.38802C55.1829 2.75112 53.9484 2.86004 49.7365 2.86004C44.6895 2.86004 43.7818 2.71481 44.508 1.98862C44.6532 1.87969 47.0496 1.80707 49.8454 1.84338C53.4764 1.916 54.965 2.06124 55.074 2.38802ZM86.663 27.9135C86.6993 40.9848 86.663 52.0591 86.5541 52.4948L86.3726 53.3299H49.7365C16.6587 53.3299 13.1004 53.2573 12.8826 52.749C12.5921 51.9502 12.5921 4.49396 12.9189 4.20348C13.0278 4.05825 29.6575 3.98563 49.8454 4.02194L86.5541 4.13087L86.663 27.9135Z" fill="#4FA83D"></path><path id="Vector_2" d="M1.55404 57.7606C2.02606 58.8136 2.67963 60.3023 3.07903 61.0285L3.7326 62.4082H49.7001H95.704L97.1927 59.213L98.6814 56.0541L80.091 55.9452C63.8608 55.8725 61.4644 55.9452 61.1013 56.4172C60.484 57.2523 38.6258 57.2523 38.299 56.4172C38.1175 55.9452 35.6848 55.8725 19.3819 55.8725H0.682617L1.55404 57.7606Z" fill="#4FA83D"></path></g><rect id="Rectangle 1" x="43.6016" y="1.70508" width="12.2626" height="1.53283" fill="white"></rect><rect id="Rectangle 11" x="67.1069" y="27.1504" width="3.51446" height="26.8966" fill="#59A52C" fill-opacity="0.29"></rect><g id="Group 45076"><rect id="Rectangle 2" x="14.0464" y="10.5088" width="3.93043" height="43.2347" fill="#4FA83D" fill-opacity="0.4"></rect><rect id="Rectangle 3" x="19.9424" y="19.3516" width="3.93043" height="34.3912" fill="#4FA83D" fill-opacity="0.4"></rect><rect id="Rectangle 4" x="25.8379" y="35.0737" width="3.93043" height="18.6695" fill="#4FA83D" fill-opacity="0.4"></rect><rect id="Rectangle 5" x="31.7334" y="24.2651" width="3.93043" height="29.4782" fill="#4FA83D" fill-opacity="0.4"></rect><rect id="Rectangle 6" x="37.6294" y="43.2866" width="3.93043" height="10.7586" fill="#4FA83D" fill-opacity="0.4"></rect><rect id="Rectangle 7" x="43.5249" y="32.2852" width="3.93043" height="21.7618" fill="#4FA83D" fill-opacity="0.4"></rect><rect id="Rectangle 8" x="49.4204" y="14.439" width="3.93043" height="39.3043" fill="#4FA83D" fill-opacity="0.4"></rect><rect id="Rectangle 9" x="55.3159" y="27.2124" width="3.93043" height="26.5304" fill="#4FA83D" fill-opacity="0.4"></rect><rect id="Rectangle 10" x="61.2119" y="32.126" width="3.93043" height="21.6173" fill="#4FA83D" fill-opacity="0.4"></rect><rect id="Rectangle 12" x="72.5879" y="7.56104" width="3.93043" height="46.1825" fill="#4FA83D" fill-opacity="0.4"></rect><rect id="Rectangle 15" x="78.8989" y="11.4912" width="3.93043" height="42.2521" fill="#4FA83D" fill-opacity="0.4"></rect></g></g><g id="Group 45037"><g id="Group 45029"><g id="Black_2"><path id="Vector 1" d="M67.4717 24.4641L90.5284 18.2114L114.367 25.6365V44.3945L109.286 61.1985L99.5166 70.9683L90.5284 74.4854L83.4941 72.5314L76.8507 66.2788L71.7704 60.0261L67.4717 49.0839V39.705V24.4641Z" fill="#CADFBD"></path><path id="Vector_3" d="M92.7949 17.2306C93.8708 17.5527 95.1043 17.9159 95.5361 18.0461C96.7285 18.3956 108.241 21.7878 111.702 22.8089C113.374 23.3023 114.848 23.7546 114.971 23.8094C115.101 23.8711 115.273 24.0356 115.355 24.1726L115.513 24.4193L115.533 32.7457C115.56 42.7784 115.513 44.0462 114.992 47.2055C113.368 57.108 108.214 65.7633 100.662 71.2799C98.6679 72.7328 96.4407 73.98 94.0696 74.9737C92.9045 75.4603 90.8692 76.125 90.554 76.125C90.2593 76.125 89.1628 75.7961 87.9293 75.3369C80.4595 72.5546 74.0657 66.7707 70.0979 59.2187C67.6445 54.545 66.2191 49.6999 65.6914 44.1902C65.6023 43.2102 65.4721 36.0146 65.5338 35.7884C65.6914 35.2128 66.3356 34.8427 66.8907 35.0072C67.2333 35.11 67.5486 35.4252 67.6445 35.7541C67.6788 35.8912 67.713 36.3161 67.713 36.693C67.713 38.0636 68.0077 45.3483 68.3024 47.0684C69.4057 53.5308 72.0578 59.3695 76.0805 64.2077C76.8754 65.1602 78.808 67.1339 79.7331 67.922C82.6456 70.4302 86.1612 72.4381 89.6631 73.5963L90.5403 73.8841L91.4106 73.5963C99.7849 70.8139 106.72 64.1049 110.441 55.1892C111.675 52.2287 112.607 48.72 113.004 45.4922C113.265 43.3884 113.285 42.6277 113.285 34.0135V25.5775L111.277 24.9881C110.181 24.666 105.062 23.1584 99.9083 21.637L90.5403 18.8821L87.6757 19.725C86.0995 20.1911 83.934 20.8284 82.8581 21.1436C81.7822 21.4589 80.4595 21.8495 79.9113 22.0139C79.3631 22.1716 76.4094 23.0419 73.3462 23.9465L67.7816 25.5843V30.6555C67.7816 33.7736 67.7541 35.8158 67.713 35.9597C67.6171 36.2955 67.2744 36.6245 66.9181 36.7204C66.6577 36.7958 66.5686 36.7889 66.3219 36.693C65.945 36.5491 65.6914 36.2818 65.5955 35.9323C65.4927 35.5486 65.4927 24.9059 65.5955 24.4947C65.6366 24.3165 65.7599 24.111 65.8833 23.9876C66.1231 23.7546 65.7462 23.8711 74.9086 21.171C88.7448 17.1004 90.321 16.6412 90.5745 16.6481C90.7184 16.6481 91.719 16.9153 92.7949 17.2306Z" fill="#4FA83D"></path></g></g><g id="Group 45036"><g id="Black_3"><g id="Group 45035"><path id="Vector_4" d="M85.8134 31.2462C80.4764 33.1172 76.9185 36.7672 75.3848 41.9508C74.8021 43.9138 74.8021 48.2693 75.3848 50.2323C76.1823 52.9008 77.4706 55.0786 79.3722 56.9802C82.3781 59.9861 85.8748 61.4277 90.2609 61.4277C94.6471 61.4277 98.1437 59.9861 101.15 56.9802C104.155 53.9744 105.597 50.4777 105.597 46.0916C105.597 39.0063 101.272 33.2705 94.4017 31.2155C92.4693 30.6327 87.5004 30.6634 85.8134 31.2462ZM93.6349 33.6999C98.5425 35.3562 100.996 37.81 102.653 42.7176C104.002 46.6437 102.591 51.858 99.3093 55.1399C94.2483 60.2008 86.2735 60.2008 81.2126 55.1399C78.7588 52.7168 77.3785 49.4348 77.3785 46.0916C77.3785 39.1289 83.1143 33.3625 90.1076 33.2399C91.3038 33.2399 92.8681 33.4239 93.6349 33.6999Z" fill="#4FA83D"></path><path id="Vector_5" d="M96.0272 36.6145C96.61 37.2279 96.518 38.2401 95.8739 37.9947C95.2604 37.7494 93.9415 38.9149 93.9415 39.7124C93.9415 40.3565 93.2361 40.4485 92.776 39.8657C92.5919 39.6817 92.4079 39.0683 92.3159 38.5775C92.1932 37.7494 92.1932 37.78 92.1319 38.8229C92.1012 39.9884 91.4877 40.1725 91.4877 39.0069C91.4877 38.7002 91.3344 38.4241 91.1503 38.4241C90.9356 38.4241 90.8436 38.7922 90.9356 39.3443C91.0583 40.2031 91.0583 40.2338 90.5062 39.7431C90.1995 39.467 89.9541 39.375 89.9541 39.559C89.9541 39.9578 90.6289 40.7859 91.181 41.0006C91.4264 41.0926 91.3037 41.1233 90.8743 41.062C86.5802 40.2645 79.5255 40.1111 79.3108 40.7552C79.1268 41.3073 82.5621 43.209 84.5251 43.6078C86.0281 43.9452 86.4268 43.9145 86.9789 43.5464C87.347 43.3011 88.5739 42.9637 89.6781 42.7489C92.1319 42.3502 92.1012 42.3502 92.1012 42.7183C92.1012 42.8716 91.7331 43.025 91.3037 43.025C90.3222 43.025 87.5003 45.6321 86.1507 47.7792C84.9852 49.6196 83.973 51.8586 84.1877 52.104C84.3718 52.2574 86.8869 50.9691 89.0953 49.5889C90.7516 48.546 92.3159 46.8284 93.052 45.3254L93.6348 44.0985L93.4508 46.0922C93.3281 47.1964 93.052 48.3927 92.8373 48.7607C92.2545 49.6809 92.2852 51.1838 92.9293 53.0242C93.4508 54.6498 95.0151 57.1343 95.4751 57.1343C96.1499 57.1343 95.7205 47.2271 94.9844 45.3254C94.8003 44.8347 94.923 44.8653 95.6285 45.5401C96.7327 46.6443 97.3461 46.675 96.3646 45.5708C95.7205 44.8653 95.6898 44.804 96.2419 45.0187C97.4382 45.4788 97.9289 45.5401 97.9289 45.2641C97.9289 45.1107 97.5609 44.8347 97.1008 44.6506L96.2419 44.3132L97.0088 44.2826C97.4382 44.2519 97.9903 44.0985 98.2356 43.9452C98.573 43.7305 98.4504 43.6384 97.7142 43.6384C96.3646 43.6384 95.7819 43.3624 95.7819 42.6876C95.7819 42.2582 95.9966 42.1048 96.6407 42.1048C97.4995 42.1048 97.8676 41.6754 98.3583 40.1725C98.5117 39.7124 98.6344 39.6817 99.1865 39.9578C99.5239 40.1725 99.892 40.2338 99.984 40.1725C100.26 39.8657 98.8184 39.3136 98.2356 39.4977C97.3768 39.7737 96.61 38.8842 96.5793 37.5653C96.5487 36.8905 96.3646 36.4304 96.0886 36.3384C95.7205 36.2157 95.6898 36.2771 96.0272 36.6145Z" fill="#4FA83D"></path></g></g></g></g></g></svg>