<svg xmlns="http://www.w3.org/2000/svg" width="577" height="397" viewBox="0 0 577 397" fill="none"><g filter="url(#filter0_b_3176_22241)"><path d="M0.361816 14.201C0.361816 6.35801 6.71983 0 14.5628 0H562.161C570.004 0 576.362 6.35802 576.362 14.201V382.261C576.362 390.104 570.004 396.462 562.161 396.462H14.5629C6.71987 396.462 0.361816 390.104 0.361816 382.261V14.201Z" fill="url(#paint0_linear_3176_22241)"></path><path d="M0.5985 14.201C0.5985 6.48873 6.85055 0.236684 14.5628 0.236684H562.161C569.873 0.236684 576.125 6.48873 576.125 14.201V382.261C576.125 389.973 569.873 396.225 562.161 396.225H14.5629C6.85059 396.225 0.5985 389.973 0.5985 382.261V14.201Z" stroke="url(#paint1_linear_3176_22241)" stroke-opacity="0.6" stroke-width="0.473368"></path></g><path d="M0.361816 14.201C0.361816 6.35802 6.71983 0 14.5628 0H562.161C570.004 0 576.362 6.35802 576.362 14.201V46.7258H0.361816V14.201Z" fill="black" fill-opacity="0.33"></path><circle cx="28.3155" cy="25.3658" r="4.58599" fill="#59A52C"></circle><circle cx="44.8252" cy="25.3658" r="4.58599" fill="#59A52C"></circle><circle cx="61.335" cy="25.3658" r="4.58599" fill="#59A52C"></circle><path d="M69.9512 110.552C69.9512 107.852 72.1406 105.662 74.8414 105.662H533.325C536.026 105.662 538.216 107.852 538.216 110.552V340.352H69.9512V110.552Z" fill="#141615"></path><rect x="18.5073" y="115.097" width="40.7983" height="42.4788" rx="5" fill="#141615"></rect><rect x="18.5073" y="173.182" width="40.7983" height="42.4788" rx="5" fill="#141615"></rect><rect x="18.5073" y="231.266" width="40.7983" height="42.4788" rx="5" fill="#141615"></rect><rect x="18.5073" y="289.35" width="40.7983" height="42.4788" rx="5" fill="#141615"></rect><g filter="url(#filter1_b_3176_22241)"><rect x="137.04" y="62.3408" width="302.175" height="21.7192" rx="3" fill="url(#paint2_linear_3176_22241)"></rect><rect x="137.276" y="62.5775" width="301.701" height="21.2458" rx="2.76332" stroke="url(#paint3_linear_3176_22241)" stroke-opacity="0.6" stroke-width="0.473368"></rect></g><rect x="18.5073" y="62.3408" width="62.5078" height="22.4649" rx="1" fill="#141615"></rect><path d="M417.846 62.8513H436.717C437.821 62.8513 438.717 63.7467 438.717 64.8513V81.5665C438.717 82.671 437.821 83.5665 436.717 83.5665H417.846V62.8513Z" fill="#4FA83D" fill-opacity="0.41"></path><path d="M558.038 68.6291C557.946 68.4908 557.823 68.3778 557.68 68.2997C557.537 68.2216 557.377 68.1808 557.216 68.1807H543.549L542.395 65.2989C542.244 64.9194 541.987 64.5952 541.659 64.3674C541.33 64.1396 540.944 64.0184 540.549 64.0193H538.216V66.1H540.549L545.293 77.9444C545.369 78.1339 545.497 78.2958 545.661 78.4097C545.825 78.5235 546.018 78.5843 546.216 78.5843H554.216C554.633 78.5843 555.006 78.3148 555.153 77.9101L558.153 69.5873C558.21 69.4298 558.229 69.2603 558.209 69.0935C558.189 68.9266 558.13 68.7673 558.038 68.6291Z" fill="#274B1F"></path><path d="M546.716 82.7456C547.544 82.7456 548.216 82.0469 548.216 81.185C548.216 80.3232 547.544 79.6245 546.716 79.6245C545.887 79.6245 545.216 80.3232 545.216 81.185C545.216 82.0469 545.887 82.7456 546.716 82.7456Z" fill="#274B1F"></path><path d="M553.716 82.7456C554.544 82.7456 555.216 82.0469 555.216 81.185C555.216 80.3232 554.544 79.6245 553.716 79.6245C552.887 79.6245 552.216 80.3232 552.216 81.185C552.216 82.0469 552.887 82.7456 553.716 82.7456Z" fill="#274B1F"></path><path d="M496.629 82.7455L495.179 81.3723C490.029 76.5138 486.629 73.2991 486.629 69.377C486.629 66.1623 489.049 63.655 492.129 63.655C493.869 63.655 495.539 64.4977 496.629 65.819C497.719 64.4977 499.389 63.655 501.129 63.655C504.209 63.655 506.629 66.1623 506.629 69.377C506.629 73.2991 503.229 76.5138 498.079 81.3723L496.629 82.7455Z" fill="#274B1F"></path><path d="M433.549 77.2734L430.745 74.4694C431.419 73.6604 431.755 72.6228 431.683 71.5724C431.612 70.522 431.138 69.5397 430.36 68.8298C429.583 68.12 428.561 67.7372 427.509 67.7611C426.456 67.785 425.453 68.2138 424.709 68.9582C423.965 69.7027 423.536 70.7055 423.512 71.7581C423.488 72.8107 423.871 73.8319 424.581 74.6094C425.29 75.3869 426.273 75.8608 427.323 75.9325C428.374 76.0042 429.411 75.6682 430.22 74.9944L433.024 77.7985L433.549 77.2734ZM424.267 71.8576C424.267 71.1967 424.463 70.5506 424.83 70.0011C425.197 69.4515 425.719 69.0232 426.33 68.7703C426.94 68.5173 427.612 68.4512 428.26 68.5801C428.909 68.709 429.504 69.0273 429.971 69.4947C430.439 69.962 430.757 70.5574 430.886 71.2057C431.015 71.8539 430.949 72.5258 430.696 73.1364C430.443 73.7471 430.014 74.269 429.465 74.6362C428.915 75.0034 428.269 75.1993 427.608 75.1993C426.722 75.1984 425.873 74.846 425.246 74.2195C424.62 73.593 424.268 72.7436 424.267 71.8576Z" fill="#4FA83D"></path><rect x="78.3467" y="110.589" width="218.318" height="224.835" rx="4.64621" fill="#141615"></rect><path d="M231.586 237.815L228.211 231.936L239.492 231.755L246.428 237.815H231.586Z" fill="#171717"></path><path d="M228.233 231.939V219.255H239.472L239.525 232.04L228.233 231.939Z" fill="#171717"></path><path fill-rule="evenodd" clip-rule="evenodd" d="M215.201 229.288C214.81 229.366 214.406 229.407 213.993 229.407C210.567 229.407 207.79 226.605 207.79 223.148C207.79 219.69 210.567 216.888 213.993 216.888C217.419 216.888 220.196 219.69 220.196 223.148C220.196 224.025 220.017 224.861 219.693 225.619C220.104 225.821 220.479 226.116 220.785 226.502L231.07 239.505C232.173 240.899 231.958 242.95 230.59 244.085C229.221 245.22 227.218 245.009 226.115 243.615L215.829 230.612C215.513 230.213 215.305 229.759 215.201 229.288ZM217.404 223.147C217.404 225.048 215.877 226.59 213.993 226.59C212.109 226.59 210.581 225.048 210.581 223.147C210.581 221.246 212.109 219.704 213.993 219.704C215.877 219.704 217.404 221.246 217.404 223.147Z" fill="#272828"></path><path fill-rule="evenodd" clip-rule="evenodd" d="M216.687 228.773C216.28 228.86 215.858 228.906 215.425 228.906C212.106 228.906 209.416 226.215 209.416 222.897C209.416 219.578 212.106 216.888 215.425 216.888C218.743 216.888 221.434 219.578 221.434 222.897C221.434 223.855 221.21 224.76 220.811 225.563C221.293 225.749 221.735 226.059 222.084 226.49L232.158 238.928C233.218 240.237 233.017 242.157 231.708 243.217C230.4 244.277 228.479 244.075 227.42 242.766L217.345 230.328C216.969 229.865 216.752 229.324 216.687 228.773ZM218.73 222.896C218.73 224.721 217.25 226.201 215.425 226.201C213.6 226.201 212.12 224.721 212.12 222.896C212.12 221.071 213.6 219.591 215.425 219.591C217.25 219.591 218.73 221.071 218.73 222.896Z" fill="#0D0D0D"></path><path d="M164.871 328.46C133.019 319.415 124.725 296.797 124.157 285.326H171.778C180.866 323.323 215.657 327.921 227.592 327.069C227.592 327.069 208.635 329.192 196.434 329.47C181.819 329.803 164.871 328.46 164.871 328.46Z" fill="#272828"></path><path d="M215.656 167.886C216.89 150.457 204.926 134.07 198.885 128.209C226.567 115.787 242.891 135.051 247.109 144.82C251.771 151.353 254.819 162.919 255.76 167.886V227.51H242.401V218.91H228.226V228.74H220.874L214.945 225.478L215.656 167.886Z" fill="#272828"></path><path d="M194.455 177.604C192.522 159.96 176.437 158.75 168.636 160.351L168.977 285.373C184.489 286.574 191.556 277.033 193.151 272.112L194.455 177.604Z" fill="#4FA83D"></path><path d="M215.803 116.537C178.474 117.514 166.335 145.769 167.031 160.172H177.538C178.556 147.238 190.085 134.428 195.686 130.057C204.751 124.15 215.589 124.286 219.875 125.092C235.559 125.703 246.694 142.321 250.301 150.553C252.949 155.238 254.616 165.151 255.119 169.522V185.756V227.776H260.249V274.438C259.663 288.901 255.282 299.032 253.164 302.289C243.783 320.075 222.473 322.677 212.56 321.298C193.754 313.841 182.647 288.859 183.461 282.344C182.288 284.494 174.301 285.657 171.776 285.576C171.386 301.798 189.889 316.866 197.951 321.589C220.818 331.557 239.402 325.743 245.835 321.589C262.253 314.163 269.451 290.807 270.999 280.058V227.776H264.891V166.455C259.419 125.412 229.892 115.723 215.803 116.537Z" fill="#0D0D0D"></path><path d="M165.723 117.062C134.824 123.423 124.39 149.168 123.254 160.434H166.858C168.221 130.897 196.774 118.671 210.596 117.062H165.723Z" fill="#272828"></path><path d="M112.882 160.2C104.064 159.999 100.022 165.628 99.1033 168.467L97.8506 276.947C102.26 284.162 112.548 285.632 117.141 285.465H168.25C179.072 282.057 181.611 272.354 181.528 267.928V178.488C181.127 165.461 172.676 160.868 168.5 160.2H112.882Z" fill="#9BC493"></path><path d="M228.201 217.36H242.493V227.243H246.172H254.749H260.231L260.439 235.18L254.749 231.785L246.435 231.724V237.822L239.52 231.785H228.201V217.36Z" fill="#0D0D0D"></path><rect x="96.6099" y="168.053" width="80.2486" height="110.171" rx="13.1987" fill="#0D0D0D"></rect><path fill-rule="evenodd" clip-rule="evenodd" d="M107.402 165.711C100.112 165.711 94.2031 171.621 94.2031 178.91V266.837C94.2031 274.126 100.112 280.036 107.402 280.036H161.253C165.279 280.036 168.884 278.233 171.305 275.391C169.148 276.926 166.509 277.829 163.66 277.829H109.809C102.519 277.829 96.6099 271.92 96.6099 264.631V181.426C96.6099 174.136 102.519 168.227 109.809 168.227H163.66C166.782 168.227 169.651 169.311 171.911 171.124C169.51 167.842 165.63 165.711 161.253 165.711H107.402Z" fill="#272828"></path><ellipse cx="191.456" cy="223.139" rx="8.07908" ry="11.7275" fill="#333131"></ellipse><ellipse cx="193.193" cy="223.139" rx="8.07908" ry="11.7275" fill="#0D0D0D"></ellipse><path d="M196.675 223.139C196.675 224.72 196.233 226.115 195.56 227.092C194.884 228.072 194.034 228.566 193.194 228.566C192.354 228.566 191.503 228.072 190.828 227.092C190.155 226.115 189.712 224.72 189.712 223.139C189.712 221.559 190.155 220.164 190.828 219.187C191.503 218.206 192.354 217.713 193.194 217.713C194.034 217.713 194.884 218.206 195.56 219.187C196.233 220.164 196.675 221.559 196.675 223.139Z" stroke="#333131" stroke-width="1.64984"></path><path d="M210.381 184.071V169.847H240.425H252.967V184.071H240.425H210.381Z" fill="#88CF7A"></path><path d="M252.967 184.071V169.847H266.543H272.21V184.071H266.543H252.967Z" fill="#4FA83D"></path><path fill-rule="evenodd" clip-rule="evenodd" d="M220.585 232.021H228.263L231.612 237.806H246.436V231.725H254.781L260.304 235.067C260.304 241.843 260.255 253.287 260.217 262.032C260.194 267.441 260.175 271.817 260.175 273.42C260.055 282.157 257.391 301.73 247.701 310.118C243.544 314.276 231.176 323.6 212.787 321.363C209.247 320.932 207.312 319.293 204.83 317.191L204.83 317.191C204.657 317.045 204.482 316.896 204.303 316.745C205.229 315.697 206.604 314.316 208.138 312.775L208.138 312.775C211.897 309.001 216.616 304.262 218.054 301.079C218.897 299.874 220.585 294.245 220.585 281.374V232.021ZM247.182 277.662H232.328V284.232H247.182V277.662ZM232.328 262.017H247.182V268.587H232.328V262.017ZM246.986 247.662H232.131V254.232H246.986V247.662Z" fill="#272828"></path><path fill-rule="evenodd" clip-rule="evenodd" d="M263.173 230.517C262.782 230.595 262.377 230.636 261.963 230.636C258.537 230.636 255.76 227.833 255.76 224.376C255.76 220.919 258.537 218.116 261.963 218.116C265.388 218.116 268.165 220.919 268.165 224.376C268.165 225.254 267.986 226.089 267.663 226.848C268.075 227.049 268.45 227.345 268.757 227.731L279.042 240.734C280.145 242.129 279.93 244.179 278.562 245.314C277.193 246.449 275.19 246.239 274.087 244.844L263.801 231.842C263.484 231.442 263.276 230.988 263.173 230.517ZM265.374 224.376C265.374 226.278 263.847 227.819 261.963 227.819C260.079 227.819 258.551 226.278 258.551 224.376C258.551 222.475 260.079 220.933 261.963 220.933C263.847 220.933 265.374 222.475 265.374 224.376Z" fill="#272828"></path><path fill-rule="evenodd" clip-rule="evenodd" d="M264.656 230.002C264.25 230.088 263.828 230.134 263.396 230.134C260.077 230.134 257.387 227.444 257.387 224.125C257.387 220.807 260.077 218.116 263.396 218.116C266.714 218.116 269.404 220.807 269.404 224.125C269.404 225.084 269.18 225.99 268.781 226.793C269.263 226.979 269.705 227.289 270.054 227.72L280.128 240.158C281.188 241.467 280.987 243.387 279.678 244.447C278.37 245.507 276.449 245.305 275.39 243.996L265.315 231.558C264.939 231.094 264.722 230.554 264.656 230.002ZM266.7 224.126C266.7 225.951 265.221 227.43 263.396 227.43C261.57 227.43 260.091 225.951 260.091 224.126C260.091 222.3 261.57 220.821 263.396 220.821C265.221 220.821 266.7 222.3 266.7 224.126Z" fill="#0D0D0D"></path><rect x="227.602" y="220.479" width="9.45301" height="2.65994" fill="#272828"></rect><rect x="228.527" y="226.301" width="10.9095" height="5.73855" fill="#272828"></rect><rect x="220.517" y="228.74" width="8.00993" height="3.29968" fill="#0D0D0D"></rect><path d="M121.161 205.488L120.671 208.723C120.517 209.754 120.267 210.755 119.924 211.726C119.589 212.689 119.133 213.556 118.557 214.33C117.982 215.103 117.268 215.713 116.418 216.16C115.567 216.598 114.549 216.805 113.363 216.779C112.461 216.762 111.692 216.594 111.056 216.276C110.428 215.958 109.913 215.537 109.509 215.013C109.114 214.48 108.813 213.874 108.607 213.196C108.409 212.508 108.293 211.786 108.259 211.03C108.233 210.265 108.267 209.501 108.362 208.736L108.839 205.488C108.993 204.465 109.243 203.473 109.586 202.51C109.93 201.548 110.39 200.684 110.966 199.919C111.541 199.146 112.254 198.545 113.105 198.115C113.964 197.677 114.983 197.471 116.16 197.496C117.062 197.513 117.827 197.681 118.454 197.999C119.09 198.308 119.606 198.725 120.001 199.249C120.405 199.773 120.706 200.375 120.903 201.054C121.109 201.733 121.225 202.45 121.251 203.206C121.286 203.962 121.256 204.723 121.161 205.488ZM116.985 209.226L117.616 204.959C117.651 204.65 117.685 204.302 117.72 203.915C117.763 203.52 117.771 203.12 117.745 202.716C117.728 202.313 117.659 201.939 117.539 201.595C117.427 201.243 117.243 200.959 116.985 200.744C116.727 200.521 116.375 200.396 115.928 200.371C115.309 200.345 114.794 200.478 114.381 200.77C113.977 201.054 113.651 201.436 113.402 201.917C113.161 202.399 112.976 202.91 112.847 203.451C112.718 203.993 112.615 204.504 112.538 204.985L111.919 209.239C111.885 209.548 111.846 209.9 111.803 210.295C111.769 210.691 111.76 211.095 111.778 211.507C111.803 211.919 111.872 212.302 111.984 212.654C112.096 213.006 112.28 213.294 112.538 213.518C112.796 213.741 113.148 213.866 113.595 213.892C114.214 213.926 114.729 213.797 115.142 213.505C115.554 213.204 115.881 212.813 116.121 212.332C116.37 211.842 116.56 211.322 116.688 210.772C116.817 210.214 116.916 209.698 116.985 209.226ZM124.757 213.698H124.951C125.879 213.715 126.725 213.604 127.49 213.363C128.263 213.123 128.942 212.762 129.526 212.28C130.111 211.799 130.587 211.206 130.957 210.502C131.326 209.788 131.58 208.972 131.717 208.053L132.207 204.482C132.25 204.121 132.267 203.709 132.259 203.245C132.25 202.781 132.186 202.334 132.065 201.904C131.954 201.475 131.756 201.118 131.473 200.835C131.198 200.542 130.802 200.392 130.287 200.384C129.814 200.375 129.397 200.491 129.036 200.732C128.676 200.964 128.37 201.273 128.121 201.66C127.872 202.046 127.674 202.463 127.528 202.91C127.382 203.357 127.292 203.778 127.258 204.173C127.215 204.542 127.21 204.929 127.245 205.333C127.279 205.728 127.369 206.106 127.515 206.467C127.662 206.82 127.872 207.112 128.147 207.344C128.431 207.567 128.8 207.683 129.256 207.692C129.677 207.7 130.063 207.632 130.416 207.486C130.768 207.331 131.082 207.12 131.357 206.854C131.631 206.579 131.859 206.27 132.04 205.926C132.22 205.574 132.345 205.204 132.413 204.817L133.548 205.488C133.47 206.149 133.277 206.781 132.968 207.382C132.667 207.975 132.276 208.504 131.795 208.968C131.314 209.432 130.768 209.797 130.158 210.063C129.548 210.33 128.899 210.459 128.212 210.45C127.352 210.433 126.618 210.248 126.007 209.896C125.397 209.535 124.903 209.058 124.525 208.465C124.156 207.864 123.894 207.198 123.739 206.467C123.593 205.737 123.554 204.985 123.623 204.212C123.7 203.301 123.924 202.437 124.293 201.621C124.671 200.805 125.165 200.083 125.775 199.455C126.386 198.828 127.094 198.338 127.902 197.986C128.718 197.625 129.599 197.458 130.544 197.483C131.584 197.509 132.456 197.75 133.161 198.205C133.866 198.652 134.424 199.249 134.837 199.997C135.258 200.736 135.537 201.552 135.674 202.446C135.821 203.331 135.846 204.225 135.752 205.127L135.584 206.429C135.438 207.606 135.167 208.719 134.772 209.767C134.377 210.807 133.87 211.752 133.251 212.603C132.641 213.445 131.919 214.175 131.086 214.794C130.252 215.404 129.311 215.877 128.263 216.212C127.223 216.547 126.08 216.714 124.834 216.714H124.461L124.757 213.698Z" fill="#CAE2BC"></path><path d="M112.476 234.933L114.255 234.959C114.83 234.942 115.35 234.83 115.814 234.624C116.287 234.409 116.669 234.096 116.961 233.683C117.254 233.271 117.434 232.772 117.503 232.188C117.563 231.715 117.52 231.303 117.374 230.951C117.236 230.59 117.009 230.306 116.691 230.1C116.373 229.894 115.973 229.786 115.492 229.778C115.019 229.769 114.59 229.859 114.203 230.048C113.825 230.229 113.507 230.487 113.249 230.822C112.992 231.157 112.82 231.552 112.734 232.007L109.099 232.033C109.168 230.925 109.52 229.984 110.156 229.21C110.8 228.437 111.604 227.853 112.566 227.458C113.529 227.062 114.53 226.869 115.569 226.877C116.635 226.895 117.606 227.105 118.482 227.509C119.359 227.904 120.046 228.493 120.545 229.275C121.043 230.048 121.254 231.006 121.176 232.149C121.133 232.94 120.914 233.636 120.519 234.237C120.124 234.83 119.617 235.324 118.998 235.72C118.388 236.115 117.722 236.416 117 236.622C116.287 236.819 115.574 236.918 114.86 236.918L112.167 236.905L112.476 234.933ZM112.038 237.756L112.347 235.836L114.654 235.848C115.385 235.866 116.085 235.969 116.755 236.158C117.434 236.347 118.031 236.63 118.547 237.009C119.071 237.378 119.475 237.859 119.758 238.452C120.042 239.045 120.162 239.75 120.119 240.566C120.059 241.494 119.819 242.315 119.398 243.028C118.985 243.741 118.444 244.334 117.773 244.807C117.112 245.279 116.369 245.632 115.544 245.864C114.727 246.096 113.889 246.207 113.03 246.199C112.214 246.181 111.458 246.048 110.762 245.799C110.074 245.541 109.473 245.18 108.957 244.716C108.442 244.252 108.046 243.69 107.771 243.028C107.496 242.366 107.363 241.614 107.372 240.772L110.968 240.785C110.968 241.266 111.058 241.692 111.239 242.061C111.419 242.431 111.681 242.723 112.025 242.938C112.377 243.152 112.802 243.264 113.301 243.273C113.859 243.281 114.371 243.174 114.835 242.951C115.299 242.727 115.677 242.409 115.969 241.997C116.27 241.576 116.454 241.086 116.523 240.527C116.601 239.943 116.553 239.453 116.381 239.058C116.218 238.654 115.947 238.345 115.569 238.13C115.191 237.906 114.719 237.786 114.152 237.769L112.038 237.756ZM135.767 234.895L135.277 238.13C135.123 239.161 134.873 240.162 134.53 241.133C134.195 242.096 133.739 242.963 133.163 243.737C132.588 244.51 131.874 245.12 131.024 245.567C130.173 246.005 129.155 246.212 127.969 246.186C127.067 246.169 126.298 246.001 125.662 245.683C125.034 245.365 124.519 244.944 124.115 244.42C123.72 243.887 123.419 243.281 123.213 242.603C123.015 241.915 122.899 241.193 122.865 240.437C122.839 239.672 122.873 238.908 122.968 238.143L123.445 234.895C123.599 233.872 123.849 232.88 124.192 231.917C124.536 230.955 124.996 230.091 125.572 229.326C126.147 228.553 126.86 227.952 127.711 227.522C128.57 227.084 129.589 226.877 130.766 226.903C131.668 226.92 132.433 227.088 133.06 227.406C133.696 227.715 134.212 228.132 134.607 228.656C135.011 229.18 135.312 229.782 135.509 230.461C135.715 231.14 135.831 231.857 135.857 232.613C135.892 233.369 135.862 234.13 135.767 234.895ZM131.591 238.633L132.222 234.366C132.257 234.057 132.291 233.709 132.326 233.322C132.369 232.927 132.377 232.527 132.351 232.123C132.334 231.72 132.265 231.346 132.145 231.002C132.033 230.65 131.849 230.366 131.591 230.151C131.333 229.928 130.981 229.803 130.534 229.778C129.915 229.752 129.4 229.885 128.987 230.177C128.583 230.461 128.257 230.843 128.008 231.324C127.767 231.806 127.582 232.317 127.453 232.858C127.324 233.4 127.221 233.911 127.144 234.392L126.525 238.645C126.491 238.955 126.452 239.307 126.409 239.702C126.375 240.098 126.366 240.502 126.384 240.914C126.409 241.326 126.478 241.709 126.59 242.061C126.701 242.413 126.886 242.701 127.144 242.925C127.402 243.148 127.754 243.273 128.201 243.299C128.82 243.333 129.335 243.204 129.748 242.912C130.16 242.611 130.487 242.22 130.727 241.739C130.976 241.249 131.166 240.729 131.294 240.179C131.423 239.621 131.522 239.105 131.591 238.633Z" fill="#4FA83D"></path><path d="M143.104 217.274L144.194 212.669H144.803L144.942 213.436L143.78 218.142H143.126L143.104 217.274ZM142.544 212.669L143.446 217.274L143.371 218.142H142.641L141.427 212.669H142.544ZM145.901 217.255L146.792 212.669H147.908L146.698 218.142H145.968L145.901 217.255ZM145.145 212.669L146.243 217.293L146.213 218.142H145.559L144.389 213.432L144.54 212.669H145.145ZM152.194 217.263V218.142H149.28V217.263H152.194ZM149.649 212.669V218.142H148.521V212.669H149.649ZM151.814 214.898V215.755H149.28V214.898H151.814ZM152.19 212.669V213.552H149.28V212.669H152.19ZM154.532 218.142H153.341L153.348 217.263H154.532C154.828 217.263 155.077 217.196 155.28 217.063C155.483 216.928 155.636 216.731 155.739 216.473C155.844 216.215 155.897 215.903 155.897 215.537V215.27C155.897 214.989 155.867 214.743 155.807 214.53C155.749 214.317 155.663 214.137 155.547 213.992C155.432 213.847 155.29 213.738 155.122 213.665C154.955 213.59 154.762 213.552 154.544 213.552H153.318V212.669H154.544C154.909 212.669 155.244 212.731 155.547 212.857C155.853 212.979 156.117 213.156 156.341 213.387C156.564 213.617 156.735 213.893 156.856 214.214C156.978 214.532 157.04 214.887 157.04 215.278V215.537C157.04 215.926 156.978 216.28 156.856 216.601C156.735 216.922 156.564 217.197 156.341 217.428C156.12 217.656 155.856 217.833 155.547 217.958C155.242 218.081 154.903 218.142 154.532 218.142ZM153.98 212.669V218.142H152.852V212.669H153.98Z" fill="#4FA83D"></path><path d="M143.998 225.462V221.669H145.122V225.462C145.122 225.828 145.042 226.142 144.882 226.405C144.721 226.666 144.502 226.867 144.224 227.007C143.948 227.147 143.638 227.218 143.292 227.218C142.933 227.218 142.616 227.157 142.341 227.037C142.065 226.917 141.848 226.733 141.69 226.484C141.532 226.234 141.453 225.917 141.453 225.533H142.585C142.585 225.734 142.612 225.893 142.668 226.011C142.725 226.129 142.807 226.213 142.912 226.263C143.017 226.313 143.144 226.338 143.292 226.338C143.435 226.338 143.559 226.304 143.664 226.236C143.769 226.169 143.851 226.07 143.908 225.939C143.968 225.809 143.998 225.65 143.998 225.462ZM149.107 221.669H150.231V225.285C150.231 225.706 150.141 226.061 149.961 226.349C149.783 226.637 149.536 226.854 149.22 226.999C148.907 227.145 148.546 227.218 148.138 227.218C147.729 227.218 147.366 227.145 147.047 226.999C146.731 226.854 146.483 226.637 146.303 226.349C146.125 226.061 146.036 225.706 146.036 225.285V221.669H147.164V225.285C147.164 225.531 147.203 225.731 147.28 225.887C147.358 226.042 147.47 226.156 147.615 226.229C147.763 226.301 147.937 226.338 148.138 226.338C148.343 226.338 148.517 226.301 148.66 226.229C148.805 226.156 148.916 226.042 148.991 225.887C149.069 225.731 149.107 225.531 149.107 225.285V221.669ZM155.615 221.669V227.142H154.487L152.288 223.473V227.142H151.16V221.669H152.288L154.491 225.342V221.669H155.615ZM162.145 226.296V227.142H158.401V226.421L160.171 224.522C160.349 224.324 160.49 224.15 160.592 223.999C160.695 223.847 160.769 223.71 160.814 223.59C160.862 223.467 160.886 223.35 160.886 223.24C160.886 223.075 160.858 222.933 160.803 222.815C160.748 222.695 160.666 222.602 160.559 222.537C160.453 222.472 160.323 222.439 160.168 222.439C160.002 222.439 159.859 222.479 159.739 222.56C159.621 222.64 159.531 222.751 159.468 222.894C159.408 223.037 159.378 223.199 159.378 223.379H158.292C158.292 223.053 158.369 222.755 158.525 222.484C158.68 222.211 158.899 221.994 159.183 221.834C159.466 221.671 159.802 221.59 160.19 221.59C160.574 221.59 160.897 221.652 161.16 221.778C161.426 221.9 161.626 222.078 161.762 222.312C161.899 222.542 161.968 222.818 161.968 223.139C161.968 223.319 161.94 223.496 161.882 223.669C161.824 223.839 161.742 224.01 161.634 224.18C161.528 224.348 161.401 224.518 161.25 224.691C161.1 224.864 160.933 225.043 160.75 225.229L159.799 226.296H162.145ZM166.656 225.097V225.947H162.713L162.66 225.289L164.942 221.669H165.803L164.871 223.229L163.735 225.097H166.656ZM166.036 221.669V227.142H164.953V221.669H166.036Z" fill="white"></path><path d="M123.65 186.015C123.735 186.015 123.817 186.049 123.878 186.11C123.938 186.17 123.972 186.252 123.972 186.338V186.661C123.972 186.746 123.938 186.829 123.878 186.889C123.817 186.95 123.735 186.984 123.65 186.984C123.564 186.984 123.482 186.95 123.421 186.889C123.361 186.829 123.327 186.746 123.327 186.661V186.338C123.327 186.252 123.361 186.17 123.421 186.11C123.482 186.049 123.564 186.015 123.65 186.015ZM125.704 185.353L125.932 185.582C125.991 185.643 126.023 185.724 126.023 185.809C126.022 185.893 125.988 185.974 125.928 186.034C125.868 186.094 125.787 186.128 125.703 186.129C125.618 186.129 125.536 186.097 125.476 186.038L125.247 185.81C125.189 185.749 125.156 185.667 125.157 185.583C125.158 185.498 125.191 185.417 125.251 185.357C125.311 185.298 125.392 185.264 125.477 185.263C125.561 185.262 125.643 185.295 125.704 185.353ZM121.595 185.353C121.653 185.296 121.731 185.262 121.813 185.259C121.895 185.257 121.975 185.286 122.037 185.34C122.098 185.394 122.137 185.47 122.144 185.551C122.152 185.633 122.129 185.715 122.078 185.78L122.052 185.81L121.823 186.038C121.765 186.096 121.687 186.13 121.605 186.132C121.523 186.135 121.444 186.106 121.382 186.052C121.321 185.997 121.282 185.922 121.274 185.84C121.266 185.758 121.29 185.677 121.34 185.612L121.367 185.582L121.595 185.353ZM123.65 181.819C124.163 181.819 124.656 182.023 125.019 182.386C125.382 182.749 125.586 183.242 125.586 183.756C125.586 184.269 125.382 184.762 125.019 185.125C124.656 185.488 124.163 185.692 123.65 185.692C123.136 185.692 122.643 185.488 122.28 185.125C121.917 184.762 121.713 184.269 121.713 183.756C121.713 183.242 121.917 182.749 122.28 182.386C122.643 182.023 123.136 181.819 123.65 181.819ZM121.067 183.433C121.149 183.433 121.229 183.464 121.288 183.521C121.348 183.577 121.384 183.655 121.389 183.737C121.394 183.819 121.367 183.9 121.314 183.963C121.261 184.026 121.187 184.066 121.105 184.076L121.067 184.078H120.744C120.662 184.078 120.583 184.047 120.523 183.99C120.463 183.934 120.427 183.857 120.422 183.775C120.418 183.692 120.444 183.612 120.497 183.548C120.55 183.485 120.625 183.445 120.707 183.435L120.744 183.433H121.067ZM126.555 183.433C126.64 183.433 126.722 183.467 126.783 183.527C126.844 183.588 126.878 183.67 126.878 183.756C126.878 183.841 126.844 183.923 126.783 183.984C126.722 184.044 126.64 184.078 126.555 184.078H126.232C126.146 184.078 126.064 184.044 126.004 183.984C125.943 183.923 125.909 183.841 125.909 183.756C125.909 183.67 125.943 183.588 126.004 183.527C126.064 183.467 126.146 183.433 126.232 183.433H126.555ZM121.367 181.473C121.423 181.417 121.497 181.384 121.575 181.379C121.653 181.374 121.731 181.398 121.793 181.446L121.823 181.473L122.052 181.701C122.11 181.759 122.143 181.837 122.146 181.919C122.148 182.001 122.119 182.081 122.065 182.143C122.011 182.204 121.935 182.243 121.854 182.251C121.772 182.258 121.69 182.235 121.626 182.185L121.595 182.158L121.367 181.93C121.306 181.869 121.272 181.787 121.272 181.701C121.272 181.616 121.306 181.534 121.367 181.473ZM125.932 181.473C125.993 181.534 126.027 181.616 126.027 181.701C126.027 181.787 125.993 181.869 125.932 181.93L125.704 182.158C125.674 182.189 125.638 182.213 125.599 182.23C125.56 182.247 125.517 182.256 125.474 182.256C125.432 182.257 125.389 182.248 125.349 182.232C125.31 182.216 125.274 182.192 125.243 182.162C125.213 182.131 125.189 182.095 125.173 182.056C125.157 182.016 125.148 181.974 125.149 181.931C125.149 181.888 125.158 181.845 125.175 181.806C125.192 181.767 125.217 181.731 125.247 181.701L125.476 181.473C125.536 181.413 125.618 181.379 125.704 181.379C125.789 181.379 125.872 181.413 125.932 181.473ZM123.65 180.528C123.735 180.528 123.817 180.562 123.878 180.622C123.938 180.683 123.972 180.765 123.972 180.85V181.173C123.972 181.259 123.938 181.341 123.878 181.401C123.817 181.462 123.735 181.496 123.65 181.496C123.564 181.496 123.482 181.462 123.421 181.401C123.361 181.341 123.327 181.259 123.327 181.173V180.85C123.327 180.765 123.361 180.683 123.421 180.622C123.482 180.562 123.564 180.528 123.65 180.528Z" fill="#4FA83D"></path><path d="M123.698 184.769C123.585 184.199 123.278 183.685 122.829 183.316C122.38 182.948 121.817 182.746 121.236 182.746C120.269 182.746 119.428 183.295 119.009 184.099C118.517 184.152 118.062 184.385 117.731 184.754C117.401 185.122 117.218 185.6 117.218 186.095C117.218 187.203 118.119 188.104 119.227 188.104H123.581C124.505 188.104 125.255 187.354 125.255 186.43C125.255 185.546 124.568 184.829 123.698 184.769Z" fill="#CAE2BC"></path><path d="M68.5469 340.49H538.216V371.004H68.5469V340.49Z" fill="#050505"></path><rect x="117.675" y="352.305" width="341.338" height="8" fill="#CAE2BC"></rect><rect x="117.675" y="352.305" width="133.284" height="8" fill="#4FA83D"></rect><path d="M80.7451 348.242H75.6816V365.12H80.7451V348.242ZM84.1207 365.12H89.1842V348.242H84.1207V365.12Z" fill="#CAE2BC"></path><g filter="url(#filter2_d_3176_22241)"><circle cx="253.186" cy="356.305" r="9.14404" fill="#4FA83D"></circle></g><circle cx="253.186" cy="356.305" r="4.13794" fill="#CAE2BC"></circle><path d="M104.703 358.255C105.368 358.255 106.006 357.991 106.476 357.521C106.946 357.051 107.211 356.413 107.211 355.748C107.211 355.082 106.946 354.445 106.476 353.974C106.006 353.504 105.368 353.24 104.703 353.24M104.703 360.763C107.837 360.763 109.718 358.513 109.718 355.748C109.718 352.982 107.468 350.732 104.703 350.732M95.9253 355.748V353.24H99.0601L102.822 350.105V361.39L99.0601 358.255H95.9253V355.748Z" stroke="#CAE2BC" stroke-width="1.25392"></path><path d="M473.275 358.205V358.996H469.254V358.316L471.207 356.186C471.421 355.944 471.59 355.736 471.714 355.56C471.837 355.384 471.924 355.226 471.973 355.086C472.025 354.943 472.051 354.804 472.051 354.67C472.051 354.48 472.016 354.314 471.944 354.171C471.876 354.025 471.774 353.911 471.639 353.829C471.505 353.744 471.341 353.701 471.149 353.701C470.927 353.701 470.74 353.749 470.589 353.846C470.438 353.942 470.324 354.075 470.247 354.245C470.17 354.413 470.131 354.605 470.131 354.822H469.138C469.138 354.473 469.218 354.155 469.377 353.866C469.537 353.575 469.767 353.344 470.069 353.174C470.372 353.001 470.736 352.914 471.161 352.914C471.563 352.914 471.903 352.982 472.183 353.116C472.464 353.251 472.676 353.442 472.822 353.689C472.97 353.936 473.045 354.229 473.045 354.567C473.045 354.753 473.014 354.939 472.954 355.123C472.893 355.307 472.807 355.491 472.694 355.675C472.584 355.856 472.454 356.039 472.303 356.223C472.152 356.404 471.986 356.589 471.804 356.775L470.506 358.205H473.275ZM474.12 358.502C474.12 358.348 474.172 358.219 474.277 358.115C474.381 358.007 474.523 357.954 474.701 357.954C474.882 357.954 475.024 358.007 475.125 358.115C475.23 358.219 475.282 358.348 475.282 358.502C475.282 358.656 475.23 358.785 475.125 358.889C475.024 358.994 474.882 359.046 474.701 359.046C474.523 359.046 474.381 358.994 474.277 358.889C474.172 358.785 474.12 358.656 474.12 358.502ZM474.124 354.991C474.124 354.837 474.176 354.708 474.281 354.604C474.385 354.497 474.527 354.443 474.705 354.443C474.887 354.443 475.028 354.497 475.13 354.604C475.234 354.708 475.286 354.837 475.286 354.991C475.286 355.145 475.234 355.274 475.13 355.378C475.028 355.483 474.887 355.535 474.705 355.535C474.527 355.535 474.385 355.483 474.281 355.378C474.176 355.274 474.124 355.145 474.124 354.991ZM480.297 358.205V358.996H476.275V358.316L478.228 356.186C478.443 355.944 478.612 355.736 478.735 355.56C478.859 355.384 478.945 355.226 478.995 355.086C479.047 354.943 479.073 354.804 479.073 354.67C479.073 354.48 479.037 354.314 478.966 354.171C478.897 354.025 478.796 353.911 478.661 353.829C478.526 353.744 478.363 353.701 478.171 353.701C477.948 353.701 477.761 353.749 477.61 353.846C477.459 353.942 477.345 354.075 477.268 354.245C477.191 354.413 477.153 354.605 477.153 354.822H476.16C476.16 354.473 476.239 354.155 476.399 353.866C476.558 353.575 476.789 353.344 477.091 353.174C477.393 353.001 477.757 352.914 478.183 352.914C478.584 352.914 478.925 352.982 479.205 353.116C479.485 353.251 479.698 353.442 479.844 353.689C479.992 353.936 480.066 354.229 480.066 354.567C480.066 354.753 480.036 354.939 479.976 355.123C479.915 355.307 479.829 355.491 479.716 355.675C479.606 355.856 479.476 356.039 479.324 356.223C479.173 356.404 479.007 356.589 478.826 356.775L477.528 358.205H480.297ZM484.982 355.494V356.474C484.982 356.944 484.935 357.345 484.842 357.678C484.751 358.007 484.619 358.275 484.446 358.481C484.273 358.687 484.066 358.838 483.824 358.935C483.585 359.031 483.317 359.079 483.021 359.079C482.784 359.079 482.565 359.049 482.361 358.988C482.161 358.928 481.98 358.833 481.817 358.704C481.655 358.575 481.517 358.408 481.401 358.205C481.289 357.999 481.201 357.753 481.138 357.468C481.077 357.182 481.047 356.851 481.047 356.474V355.494C481.047 355.021 481.094 354.623 481.187 354.299C481.28 353.972 481.414 353.707 481.587 353.504C481.76 353.297 481.966 353.148 482.205 353.054C482.447 352.961 482.716 352.914 483.012 352.914C483.251 352.914 483.471 352.944 483.672 353.005C483.875 353.063 484.056 353.155 484.216 353.281C484.378 353.407 484.515 353.572 484.628 353.775C484.743 353.976 484.831 354.219 484.891 354.505C484.952 354.788 484.982 355.117 484.982 355.494ZM483.989 356.615V355.345C483.989 355.106 483.975 354.896 483.948 354.715C483.92 354.531 483.879 354.376 483.824 354.249C483.772 354.12 483.706 354.016 483.626 353.936C483.547 353.854 483.456 353.795 483.354 353.759C483.253 353.721 483.139 353.701 483.012 353.701C482.859 353.701 482.721 353.732 482.6 353.792C482.479 353.85 482.378 353.943 482.295 354.072C482.213 354.201 482.15 354.372 482.106 354.583C482.065 354.792 482.044 355.046 482.044 355.345V356.615C482.044 356.856 482.058 357.069 482.085 357.253C482.113 357.437 482.154 357.595 482.209 357.727C482.264 357.856 482.33 357.963 482.407 358.049C482.486 358.131 482.577 358.191 482.679 358.23C482.783 358.268 482.897 358.288 483.021 358.288C483.177 358.288 483.316 358.257 483.437 358.197C483.558 358.136 483.659 358.04 483.742 357.908C483.824 357.774 483.886 357.599 483.927 357.385C483.968 357.171 483.989 356.914 483.989 356.615Z" fill="white"></path><rect x="494.117" y="349.783" width="13.6196" height="11.8803" rx="1.68782" fill="#CAE2BC"></rect><path d="M499.094 356.348H500.124C500.091 356.741 499.981 357.091 499.794 357.399C499.607 357.704 499.345 357.944 499.007 358.12C498.669 358.296 498.258 358.384 497.775 358.384C497.404 358.384 497.07 358.318 496.774 358.186C496.477 358.052 496.223 357.862 496.011 357.617C495.8 357.37 495.638 357.072 495.525 356.723C495.415 356.374 495.36 355.984 495.36 355.553V355.054C495.36 354.623 495.417 354.233 495.529 353.884C495.645 353.535 495.809 353.237 496.024 352.99C496.238 352.74 496.495 352.549 496.794 352.417C497.096 352.285 497.436 352.219 497.812 352.219C498.29 352.219 498.694 352.307 499.024 352.483C499.353 352.659 499.609 352.902 499.79 353.213C499.974 353.523 500.087 353.879 500.128 354.28H499.098C499.07 354.022 499.01 353.8 498.916 353.616C498.826 353.432 498.691 353.292 498.513 353.196C498.334 353.097 498.1 353.048 497.812 353.048C497.576 353.048 497.37 353.092 497.194 353.18C497.018 353.267 496.871 353.397 496.753 353.567C496.635 353.737 496.546 353.947 496.485 354.197C496.427 354.445 496.399 354.728 496.399 355.046V355.553C496.399 355.855 496.425 356.13 496.477 356.377C496.532 356.622 496.614 356.832 496.724 357.008C496.837 357.183 496.98 357.319 497.153 357.416C497.326 357.512 497.533 357.56 497.775 357.56C498.069 357.56 498.307 357.513 498.488 357.42C498.672 357.326 498.811 357.19 498.904 357.012C499 356.83 499.063 356.609 499.094 356.348ZM505.535 356.348H506.565C506.532 356.741 506.423 357.091 506.236 357.399C506.049 357.704 505.787 357.944 505.449 358.12C505.111 358.296 504.7 358.384 504.217 358.384C503.846 358.384 503.512 358.318 503.215 358.186C502.919 358.052 502.665 357.862 502.453 357.617C502.242 357.37 502.079 357.072 501.967 356.723C501.857 356.374 501.802 355.984 501.802 355.553V355.054C501.802 354.623 501.858 354.233 501.971 353.884C502.086 353.535 502.251 353.237 502.465 352.99C502.68 352.74 502.937 352.549 503.236 352.417C503.538 352.285 503.877 352.219 504.254 352.219C504.732 352.219 505.136 352.307 505.465 352.483C505.795 352.659 506.05 352.902 506.232 353.213C506.416 353.523 506.528 353.879 506.57 354.28H505.539C505.512 354.022 505.452 353.8 505.358 353.616C505.267 353.432 505.133 353.292 504.954 353.196C504.776 353.097 504.542 353.048 504.254 353.048C504.018 353.048 503.811 353.092 503.636 353.18C503.46 353.267 503.313 353.397 503.195 353.567C503.077 353.737 502.987 353.947 502.927 354.197C502.869 354.445 502.84 354.728 502.84 355.046V355.553C502.84 355.855 502.866 356.13 502.919 356.377C502.974 356.622 503.056 356.832 503.166 357.008C503.279 357.183 503.421 357.319 503.594 357.416C503.768 357.512 503.975 357.56 504.217 357.56C504.511 357.56 504.748 357.513 504.93 357.42C505.114 357.326 505.252 357.19 505.346 357.012C505.442 356.83 505.505 356.609 505.535 356.348Z" fill="#4FA83D"></path><path d="M518.859 349.783H516.469C516.311 349.783 516.159 349.846 516.047 349.958C515.935 350.07 515.872 350.222 515.872 350.38V352.769M518.859 360.534H516.469C516.311 360.534 516.159 360.471 516.047 360.359C515.935 360.247 515.872 360.095 515.872 359.937V357.548M523.637 360.534H526.026C526.185 360.534 526.337 360.471 526.449 360.359C526.561 360.247 526.624 360.095 526.624 359.937V357.548M523.637 349.783H526.026C526.185 349.783 526.337 349.846 526.449 349.958C526.561 350.07 526.624 350.222 526.624 350.38V352.769" stroke="#CAE2BC" stroke-width="1.19462" stroke-linecap="round" stroke-linejoin="round"></path><rect x="338.164" y="134.385" width="155.952" height="21.1685" fill="#1A1C1E"></rect><rect x="338.164" y="166.138" width="155.952" height="21.1685" fill="#1A1C1E"></rect><rect x="338.164" y="197.891" width="155.952" height="22.6806" fill="#1A1C1E"></rect><rect x="338.164" y="262.908" width="155.381" height="22.6806" fill="#1A1C1E"></rect><rect x="338.164" y="231.155" width="155.381" height="21.1685" fill="#1A1C1E"></rect><rect x="338.164" y="296.173" width="155.381" height="21.1685" fill="#1A1C1E"></rect><path d="M69.9517 104.667H538.216V340.353H69.9517V104.667Z" fill="black" fill-opacity="0.53"></path><circle cx="304.084" cy="222.648" r="28.719" fill="#4FA83D"></circle><path d="M299.388 211.737C299.697 211.577 300.044 211.507 300.391 211.532C300.738 211.557 301.071 211.678 301.354 211.88L314.588 221.334C314.834 221.509 315.033 221.739 315.171 222.007C315.309 222.275 315.381 222.572 315.381 222.873C315.381 223.174 315.309 223.47 315.171 223.738C315.033 224.006 314.834 224.237 314.588 224.412L301.354 233.865C301.071 234.067 300.738 234.188 300.391 234.213C300.045 234.239 299.698 234.168 299.388 234.009C299.079 233.85 298.82 233.608 298.639 233.312C298.458 233.015 298.363 232.674 298.363 232.326V213.419C298.362 213.072 298.458 212.731 298.639 212.434C298.819 212.137 299.079 211.896 299.388 211.737Z" fill="#CAE2BC"></path><defs><filter id="filter0_b_3176_22241" x="-9.10553" y="-9.46735" width="594.935" height="415.397" color-interpolation-filters="sRGB"><feGaussianBlur stdDeviation="4.73368"></feGaussianBlur></filter><filter id="filter1_b_3176_22241" x="127.572" y="52.8735" width="321.11" height="40.6539" color-interpolation-filters="sRGB"><feGaussianBlur stdDeviation="4.73368"></feGaussianBlur></filter><filter id="filter2_d_3176_22241" x="224.472" y="327.592" width="57.4261" height="57.4261" color-interpolation-filters="sRGB"><feGaussianBlur stdDeviation="9.7845"></feGaussianBlur></filter><linearGradient id="paint0_linear_3176_22241" x1="0.361816" y1="0" x2="626.166" y2="274.771" gradientUnits="userSpaceOnUse"><stop></stop><stop offset="1" stop-color="#2D2D2D" stop-opacity="0.54"></stop></linearGradient><linearGradient id="paint1_linear_3176_22241" x1="0.361816" y1="0" x2="623.687" y2="277.918" gradientUnits="userSpaceOnUse"><stop stop-color="#525252"></stop><stop offset="1" stop-color="#CFCFCF" stop-opacity="0.35"></stop></linearGradient><linearGradient id="paint2_linear_3176_22241" x1="137.04" y1="62.3408" x2="158.004" y2="150.489" gradientUnits="userSpaceOnUse"><stop></stop><stop offset="1" stop-color="#2D2D2D" stop-opacity="0.54"></stop></linearGradient><linearGradient id="paint3_linear_3176_22241" x1="137.04" y1="62.3408" x2="157.425" y2="149.379" gradientUnits="userSpaceOnUse"><stop stop-color="#525252"></stop><stop offset="1" stop-color="#CFCFCF" stop-opacity="0.35"></stop></linearGradient></defs></svg>