<svg xmlns="http://www.w3.org/2000/svg" width="106" height="86" viewBox="0 0 106 86" fill="none"><g id="Group 45080"><g id="Group 45060"><rect id="Rectangle 13" x="2.97412" y="0.424805" width="84.5536" height="61.1845" fill="#C9E2BB"></rect><path id="Vector 4" d="M59.8644 71.8987V63.7453H80.0208V56.2982H3.02345V3.39914H87.277V45.251H90.5021V0H0V63.7453H31.847V71.8987H21.5673V78.272H68.7332V71.8987H59.8644Z" fill="#4FA83D"></path></g><g id="Group 45079"><g id="Group 45033"><rect id="Rectangle 4" x="11.2314" y="6.61523" width="65.9379" height="47.4431" fill="url(#paint0_linear_3176_21944)" fill-opacity="0.45"></rect><path id="Vector 3" d="M31.7357 12.5205L27.4844 17.9528" stroke="white" stroke-width="0.472375"></path><path id="Vector 12" d="M60.3148 12.5205L56.0635 17.9528" stroke="white" stroke-width="0.472375"></path><path id="Vector 4_2" d="M27.4841 22.9126L23.7051 28.1087" stroke="white" stroke-width="0.472375"></path><path id="Vector 13" d="M56.0632 22.9126L52.2842 28.1087" stroke="white" stroke-width="0.472375"></path><path id="Vector 9" d="M39.5305 22.6763L35.7515 27.8724" stroke="white" stroke-width="0.472375"></path><path id="Vector 5" d="M23.7058 33.7769L19.9268 38.973" stroke="white" stroke-width="0.472375"></path><path id="Vector 15" d="M52.2844 33.7769L48.5054 38.973" stroke="white" stroke-width="0.472375"></path><path id="Vector 10" d="M29.6101 43.9321L25.8311 49.1283" stroke="white" stroke-width="0.472375"></path><path id="Vector 16" d="M58.1887 43.9321L54.4097 49.1283" stroke="white" stroke-width="0.472375"></path><path id="Vector 6" d="M24.0347 33.7764L29.6003 38.6177" stroke="white" stroke-width="0.472375"></path><path id="Vector 17" d="M52.6134 33.7764L58.1789 38.6177" stroke="white" stroke-width="0.472375"></path><path id="Vector 11" d="M29.939 43.9321L35.5046 48.7735" stroke="white" stroke-width="0.472375"></path><path id="Vector 18" d="M58.5177 43.9321L64.0832 48.7735" stroke="white" stroke-width="0.472375"></path><path id="Vector 7" d="M32.1129 12.5205L37.6785 17.3619" stroke="white" stroke-width="0.472375"></path><path id="Vector 19" d="M60.692 12.5205L66.2576 17.3619" stroke="white" stroke-width="0.472375"></path><path id="Vector 8" d="M39.475 22.9117L44.4245 28.3813" stroke="white" stroke-width="0.472375"></path><rect id="Rectangle 2" x="10.4277" y="6.61523" width="4.0206" height="47.4431" fill="white"></rect><rect id="Rectangle 3" x="10.4277" y="6.61523" width="4.0206" height="12.8659" fill="#4FA83D"></rect><circle id="Ellipse 1" cx="31.7358" cy="9.21329" r="2.59806" fill="#4FA83D"></circle><circle id="Ellipse 12" cx="60.3144" cy="9.21329" r="2.59806" fill="#4FA83D"></circle><circle id="Ellipse 2" cx="27.4844" cy="20.5503" r="1.65331" fill="#4FA83D"></circle><circle id="Ellipse 13" cx="56.063" cy="20.5503" r="1.65331" fill="#4FA83D"></circle><circle id="Ellipse 10" cx="39.2939" cy="20.5503" r="1.65331" fill="#4FA83D"></circle><circle id="Ellipse 4" cx="24.1772" cy="30.4702" r="1.65331" fill="#4FA83D"></circle><circle id="Ellipse 15" cx="52.7563" cy="30.4702" r="1.65331" fill="#4FA83D"></circle><circle id="Ellipse 5" cx="19.9268" cy="42.2793" r="1.65331" fill="#4FA83D"></circle><circle id="Ellipse 16" cx="48.5049" cy="42.2793" r="1.65331" fill="#4FA83D"></circle><circle id="Ellipse 6" cx="30.791" cy="40.626" r="1.65331" fill="#4FA83D"></circle><circle id="Ellipse 17" cx="59.3696" cy="40.626" r="1.65331" fill="#4FA83D"></circle><circle id="Ellipse 7" cx="44.4897" cy="30.4702" r="1.65331" fill="#4FA83D"></circle><circle id="Ellipse 8" cx="25.831" cy="52.1992" r="1.65331" fill="#4FA83D"></circle><circle id="Ellipse 21" cx="55.1186" cy="51.2549" r="1.65331" fill="#4FA83D"></circle><circle id="Ellipse 9" cx="35.9868" cy="52.1992" r="1.65331" fill="#CAE2BC"></circle><circle id="Ellipse 22" cx="65.2744" cy="51.2549" r="1.65331" fill="#4FA83D"></circle><circle id="Ellipse 3" cx="35.5146" cy="31.1792" r="1.65331" fill="black"></circle><circle id="Ellipse 19" cx="68.3442" cy="19.8408" r="1.65331" fill="black"></circle><circle id="Ellipse 11" cx="35.5153" cy="31.1783" r="2.83425" stroke="#4FA83D" stroke-width="0.472375"></circle><circle id="Ellipse 20" cx="68.3448" cy="19.8414" r="2.83425" stroke="#4FA83D" stroke-width="0.472375"></circle></g><line id="Line 10" x1="8.81934" y1="7.94987" x2="10.4276" y2="7.94987" stroke="white" stroke-width="0.546549"></line><line id="Line 11" x1="8.81934" y1="13.5788" x2="10.4276" y2="13.5788" stroke="white" stroke-width="0.546549"></line><line id="Line 12" x1="8.81934" y1="19.2072" x2="10.4276" y2="19.2072" stroke="white" stroke-width="0.546549"></line><line id="Line 13" x1="8.81934" y1="24.8366" x2="10.4276" y2="24.8366" stroke="white" stroke-width="0.546549"></line><line id="Line 14" x1="8.81934" y1="31.2692" x2="10.4276" y2="31.2692" stroke="white" stroke-width="0.546549"></line><line id="Line 15" x1="8.81934" y1="36.8986" x2="10.4276" y2="36.8986" stroke="white" stroke-width="0.546549"></line><line id="Line 16" x1="8.81934" y1="42.528" x2="10.4276" y2="42.528" stroke="white" stroke-width="0.546549"></line><line id="Line 17" x1="8.81934" y1="48.1554" x2="10.4276" y2="48.1554" stroke="white" stroke-width="0.546549"></line><line id="Line 18" x1="8.81934" y1="53.7843" x2="10.4276" y2="53.7843" stroke="white" stroke-width="0.546549"></line></g><g id="Group 45032"><g id="Black"><path id="Vector 1" d="M61.3154 38.0092L82.3834 32.2959L104.166 39.0805V56.2205L99.5234 71.5752L90.5963 80.5023L82.3834 83.716L75.9559 81.9306L69.8854 76.2172L65.2434 70.5039L61.3154 60.5055V51.9355V38.0092Z" fill="#C9E2BB"></path><path id="Vector" d="M84.4549 31.4003C85.438 31.6946 86.5652 32.0265 86.9597 32.1454C88.0492 32.4648 98.5692 35.5644 101.731 36.4974C103.259 36.9483 104.606 37.3616 104.718 37.4117C104.837 37.468 104.994 37.6183 105.069 37.7436L105.213 37.969L105.232 45.5772C105.257 54.7446 105.213 55.903 104.737 58.7897C103.253 67.8381 98.5441 75.7469 91.6435 80.7877C89.8213 82.1152 87.7862 83.2549 85.6196 84.1628C84.5551 84.6074 82.6953 85.2148 82.4073 85.2148C82.138 85.2148 81.1361 84.9143 80.009 84.4947C73.1835 81.9524 67.3412 76.6674 63.7156 69.7668C61.4738 65.4962 60.1713 61.069 59.6892 56.0345C59.6078 55.1391 59.4888 48.5641 59.5452 48.3574C59.6892 47.8314 60.2778 47.4933 60.785 47.6436C61.0981 47.7375 61.3862 48.0256 61.4738 48.3261C61.5051 48.4514 61.5364 48.8396 61.5364 49.184C61.5364 50.4364 61.8057 57.0928 62.075 58.6645C63.0831 64.5694 65.5065 69.9046 69.1822 74.3254C69.9086 75.1958 71.6744 76.9993 72.5198 77.7194C75.1811 80.0112 78.3934 81.846 81.5932 82.9042L82.3948 83.1672L83.19 82.9042C90.842 80.3619 97.179 74.2315 100.579 66.0848C101.706 63.3797 102.558 60.1736 102.921 57.2243C103.159 55.3019 103.178 54.6068 103.178 46.7356V39.0272L101.343 38.4887C100.341 38.1944 95.6637 36.8168 90.9547 35.4267L82.3948 32.9094L79.7773 33.6796C78.3371 34.1054 76.3583 34.6878 75.3752 34.9758C74.3921 35.2639 73.1835 35.6208 72.6826 35.7711C72.1816 35.9151 69.4828 36.7103 66.6837 37.5369L61.5991 39.0335V43.6673C61.5991 46.5164 61.574 48.3825 61.5364 48.514C61.4488 48.8208 61.1357 49.1214 60.8101 49.2091C60.5721 49.2779 60.4907 49.2717 60.2653 49.184C59.9209 49.0525 59.6892 48.8083 59.6015 48.4889C59.5076 48.1383 59.5076 38.4136 59.6015 38.0379C59.6391 37.8751 59.7518 37.6872 59.8645 37.5745C60.0837 37.3616 59.7393 37.468 68.1114 35.0009C80.7541 31.2813 82.1944 30.8618 82.4261 30.868C82.5576 30.868 83.4718 31.1122 84.4549 31.4003Z" fill="#4FA83D"></path></g><g id="Mask group"><mask id="mask0_3176_21944" style="mask-type:alpha" maskUnits="userSpaceOnUse" x="59" y="30" width="47" height="56"><g id="Black_2"><path id="Vector 1_2" d="M61.3154 38.0092L82.3834 32.2959L104.166 39.0805V56.2205L99.5234 71.5752L90.5963 80.5023L82.3834 83.716L75.9559 81.9306L69.8854 76.2172L65.2434 70.5039L61.3154 60.5055V51.9355V38.0092Z" fill="#59A52C"></path><path id="Vector_2" d="M84.4544 31.4003C85.4375 31.6946 86.5647 32.0265 86.9592 32.1454C88.0487 32.4648 98.5687 35.5644 101.731 36.4974C103.259 36.9483 104.605 37.3616 104.718 37.4117C104.837 37.468 104.993 37.6183 105.069 37.7436L105.213 37.969L105.231 45.5772C105.256 54.7446 105.213 55.903 104.737 58.7897C103.253 67.8381 98.5436 75.7469 91.6431 80.7877C89.8208 82.1152 87.7857 83.2549 85.6191 84.1628C84.5546 84.6074 82.6948 85.2148 82.4068 85.2148C82.1375 85.2148 81.1356 84.9143 80.0085 84.4947C73.183 81.9524 67.3407 76.6674 63.7151 69.7668C61.4733 65.4962 60.1709 61.069 59.6887 56.0345C59.6073 55.1391 59.4883 48.5641 59.5447 48.3574C59.6887 47.8314 60.2773 47.4933 60.7845 47.6436C61.0976 47.7375 61.3857 48.0256 61.4733 48.3261C61.5046 48.4514 61.5359 48.8396 61.5359 49.184C61.5359 50.4364 61.8052 57.0928 62.0745 58.6645C63.0826 64.5694 65.506 69.9046 69.1817 74.3254C69.9081 75.1958 71.6739 76.9993 72.5193 77.7194C75.1806 80.0112 78.3929 81.846 81.5927 82.9042L82.3943 83.1672L83.1895 82.9042C90.8415 80.3619 97.1786 74.2315 100.579 66.0848C101.706 63.3797 102.558 60.1736 102.921 57.2243C103.159 55.3019 103.177 54.6068 103.177 46.7356V39.0272L101.343 38.4887C100.341 38.1944 95.6632 36.8168 90.9542 35.4267L82.3943 32.9094L79.7768 33.6796C78.3366 34.1054 76.3578 34.6878 75.3747 34.9758C74.3916 35.2639 73.183 35.6208 72.6821 35.7711C72.1811 35.9151 69.4823 36.7104 66.6832 37.5369L61.5986 39.0335V43.6673C61.5986 46.5164 61.5735 48.3825 61.5359 48.514C61.4483 48.8208 61.1352 49.1214 60.8096 49.2091C60.5716 49.2779 60.4902 49.2717 60.2648 49.184C59.9204 49.0525 59.6887 48.8083 59.601 48.4889C59.5071 48.1383 59.5071 38.4136 59.601 38.0379C59.6386 37.8751 59.7513 37.6872 59.864 37.5745C60.0832 37.3616 59.7388 37.468 68.1109 35.0009C80.7537 31.2813 82.1939 30.8618 82.4256 30.868C82.5571 30.868 83.4713 31.1122 84.4544 31.4003Z" fill="#CAE2BC"></path></g></mask><g mask="url(#mask0_3176_21944)"><path id="Vector_3" d="M54.4085 43.9761C54.3785 44.0813 54.3634 45.2534 54.3785 46.5607L54.4235 48.9648H62.9133H71.4031L71.4482 46.5607C71.4783 44.4269 71.4633 44.1414 71.2228 43.9761C70.8472 43.6906 54.5287 43.6906 54.4085 43.9761Z" fill="#4FA83D"></path><path id="Vector_4" d="M72.8608 43.901C72.7256 44.0062 72.6805 44.6223 72.7106 46.5005L72.7556 48.9648H81.2454H89.7353L89.7803 46.5005C89.8104 44.6223 89.7653 44.0062 89.6301 43.901C89.5249 43.8409 85.7533 43.7808 81.2454 43.7808C76.7376 43.7808 72.966 43.8409 72.8608 43.901Z" fill="#4FA83D" fill-opacity="0.91"></path><path id="Vector_5" d="M91.2666 43.9761C91.0261 44.1414 91.0111 44.4269 91.0412 46.5607L91.0863 48.9648H99.5761H108.066L108.111 46.5005C108.141 44.6223 108.096 44.0062 107.961 43.901C107.855 43.8409 104.114 43.7808 99.6362 43.7808C93.3552 43.7808 91.4619 43.8259 91.2666 43.9761Z" fill="#59A52C" fill-opacity="0.41"></path><path id="Vector_6" d="M54.4085 50.4396C54.3785 50.5448 54.3634 51.7169 54.3785 53.0241L54.4235 55.4283L58.1651 55.4734C60.7946 55.5035 61.9667 55.4584 62.1019 55.3382C62.3874 55.1128 62.4024 50.6951 62.132 50.4246C61.8615 50.1541 54.5137 50.1692 54.4085 50.4396Z" fill="#4FA83D"></path><path id="Vector_7" d="M63.6193 50.3475C63.5592 50.3926 63.5142 51.5346 63.5142 52.887C63.5142 54.9606 63.5442 55.3362 63.7546 55.4114C64.1152 55.5466 80.2383 55.5166 80.4637 55.3813C80.599 55.2761 80.644 54.6601 80.614 52.7818L80.5689 50.3175L72.1392 50.2724C67.5111 50.2574 63.6644 50.2874 63.6193 50.3475Z" fill="#59A52C" fill-opacity="0.41"></path><path id="Vector_8" d="M82.025 50.4227C81.9048 50.5429 81.8447 51.3243 81.8447 52.9621C81.8447 54.9756 81.8748 55.3362 82.0851 55.4114C82.4458 55.5466 98.5689 55.5166 98.7943 55.3813C98.9295 55.2761 98.9746 54.6601 98.9445 52.7818L98.8995 50.3175L90.5599 50.2724C84.1888 50.2424 82.1603 50.2874 82.025 50.4227Z" fill="#4FA83D"></path><path id="Vector_9" d="M100.358 50.4236C100.103 50.679 100.103 55.0667 100.358 55.3221C100.568 55.5325 107.631 55.5776 107.961 55.3822C108.097 55.277 108.142 54.661 108.112 52.7827L108.067 50.3184L104.31 50.2733C101.5 50.2432 100.493 50.2883 100.358 50.4236Z" fill="#4FA83D"></path><path id="Vector_10" d="M54.4085 56.9013C54.3785 57.0065 54.3634 58.1335 54.3785 59.4107L54.4235 61.7397H62.9133H71.4031V59.2604V56.7811L62.9434 56.736C56.1215 56.706 54.4686 56.736 54.4085 56.9013Z" fill="#4FA83D"></path><path id="Vector_11" d="M72.74 56.9013C72.71 57.0065 72.695 58.1335 72.71 59.4107L72.7551 61.7397H81.2449H89.7347V59.2604V56.7811L81.2749 56.736C74.453 56.706 72.8002 56.736 72.74 56.9013Z" fill="#4FA83D" fill-opacity="0.91"></path><path id="Vector_12" d="M91.0721 56.8994C91.042 57.0046 91.027 58.1316 91.042 59.4088L91.0871 61.7379L99.622 61.7829L108.142 61.813V59.2585V56.7041H99.652C92.8452 56.7041 91.1322 56.7492 91.0721 56.8994Z" fill="#4FA83D"></path><path id="Vector_13" d="M54.4085 63.2116C54.3785 63.3167 54.3634 64.4888 54.3785 65.7961L54.4235 68.2003L58.0298 68.2453C60.0133 68.2604 61.7864 68.2453 61.9817 68.2003C62.3123 68.1251 62.3123 68.0801 62.3123 65.751C62.3123 64.0981 62.2522 63.3167 62.132 63.1965C61.8615 62.9261 54.5137 62.9411 54.4085 63.2116Z" fill="#4FA83D"></path><path id="Vector_14" d="M63.6938 63.1354C63.5586 63.2406 63.5135 63.8566 63.5436 65.7349L63.5886 68.1992H72.0785H80.5683L80.6133 65.8101C80.6434 64.1872 80.5983 63.3608 80.4781 63.2255C80.3429 63.0452 78.9003 63.0152 72.0935 63.0152C67.5856 63.0152 63.799 63.0753 63.6938 63.1354Z" fill="#4FA83D"></path><path id="Vector_15" d="M82.025 63.1965C81.9048 63.3167 81.8447 64.0981 81.8447 65.751C81.8447 68.0801 81.8447 68.1251 82.1903 68.2003C82.3706 68.2453 86.2023 68.2604 90.7102 68.2453L98.8995 68.2003L98.9445 65.736C98.9746 63.8577 98.9295 63.2416 98.7943 63.1364C98.4637 62.9411 82.2354 62.9862 82.025 63.1965Z" fill="#4FA83D" fill-opacity="0.91"></path><path id="Vector_16" d="M100.358 63.1947C100.147 63.4051 100.102 67.7777 100.297 68.0933C100.403 68.2285 101.289 68.2736 104.249 68.2435L108.066 68.1985L108.111 65.7342C108.141 63.8559 108.096 63.2398 107.961 63.1346C107.63 62.9393 100.568 62.9844 100.358 63.1947Z" fill="#4FA83D"></path><path id="Vector_17" d="M54.4085 69.6716C54.3785 69.7768 54.3634 70.9489 54.3785 72.2561L54.4235 74.6603L62.748 74.7054C68.8487 74.7204 71.1176 74.6904 71.2829 74.5702C71.4482 74.4349 71.4783 73.894 71.4482 71.9706L71.4031 69.5514L62.9434 69.5063C56.1215 69.4763 54.4686 69.5063 54.4085 69.6716Z" fill="#59A52C" fill-opacity="0.41"></path><path id="Vector_18" d="M72.7849 69.5834C72.7248 69.6285 72.6797 70.7705 72.6797 72.1228C72.6797 74.1964 72.7097 74.5721 72.9201 74.6472C73.2807 74.7825 89.4039 74.7524 89.6292 74.6172C89.7645 74.512 89.8096 73.8959 89.7795 72.0176L89.7344 69.5533L81.3047 69.5083C76.6767 69.4932 72.8299 69.5233 72.7849 69.5834Z" fill="#59A52C" fill-opacity="0.41"></path><path id="Vector_19" d="M91.102 69.7171C90.9216 70.1829 90.9968 74.3602 91.1921 74.5555C91.4025 74.7659 107.631 74.811 107.961 74.6156C108.097 74.5104 108.142 73.8944 108.112 72.0161L108.067 69.5518L99.6368 69.5067C92.0336 69.4766 91.1921 69.4917 91.102 69.7171Z" fill="#4FA83D"></path></g></g></g></g><defs><linearGradient id="paint0_linear_3176_21944" x1="44.2004" y1="6.61523" x2="44.2004" y2="54.0583" gradientUnits="userSpaceOnUse"><stop stop-color="#59A52C"></stop><stop offset="0.86849" stop-color="#CAE2BC" stop-opacity="0"></stop></linearGradient></defs></svg>