<svg width="58" height="56" viewBox="0 0 58 56" fill="none" xmlns="http://www.w3.org/2000/svg">
<path d="M21.2163 17.2195L29 3.94303L36.7837 17.2195C37.4181 18.3017 38.4755 19.0699 39.7008 19.3389L54.7327 22.6389L44.5113 34.1443C43.6782 35.0821 43.2743 36.3251 43.3971 37.5735L44.9037 52.8895L30.8029 46.7238C29.6535 46.2212 28.3465 46.2212 27.1971 46.7238L13.0963 52.8895L14.6029 37.5735C14.7257 36.3251 14.3218 35.0821 13.4887 34.1443L3.26729 22.6389L18.2992 19.3389C19.5245 19.0699 20.5819 18.3017 21.2163 17.2195ZM55.2991 22.0014L55.2984 22.0022L55.2991 22.0014ZM45.6851 53.2312L45.6839 53.2307L45.6851 53.2312Z" stroke="#59A52C" stroke-width="5"/>
</svg>
