<svg width="64" height="64" viewBox="0 0 64 64" fill="none" xmlns="http://www.w3.org/2000/svg">
<path fill-rule="evenodd" clip-rule="evenodd" d="M32 59C46.9117 59 59 46.9117 59 32C59 17.0883 46.9117 5 32 5C17.0883 5 5 17.0883 5 32C5 46.9117 17.0883 59 32 59ZM32 64C49.6731 64 64 49.6731 64 32C64 14.3269 49.6731 0 32 0C14.3269 0 0 14.3269 0 32C0 49.6731 14.3269 64 32 64Z" fill="#59A52C"/>
<path fill-rule="evenodd" clip-rule="evenodd" d="M31.5 14C30.6716 14 30 14.6716 30 15.5V35.5C30 36.3284 30.6716 37 31.5 37H45.5C46.3284 37 47 36.3284 47 35.5C47 34.6716 46.3284 34 45.5 34H33V15.5C33 14.6716 32.3284 14 31.5 14Z" fill="#59A52C"/>
</svg>
