<svg width="64" height="64" viewBox="0 0 64 64" fill="none" xmlns="http://www.w3.org/2000/svg">
<path fill-rule="evenodd" clip-rule="evenodd" d="M32 60C32.6095 60 33.5055 59.7345 34.6692 58.6095C35.8521 57.4659 37.1001 55.618 38.2349 53.0241C39.1795 50.865 39.9912 48.3135 40.6166 45.4616C34.48 44.8402 28.6081 44.8974 23.3549 45.3305C23.984 48.2353 24.806 50.8319 25.7651 53.0241C26.8999 55.618 28.1479 57.4659 29.3308 58.6095C30.4945 59.7345 31.3905 60 32 60ZM22.6486 41.3762C22.231 38.4539 22 35.303 22 32C22 29.0858 22.1798 26.29 22.509 23.6651C28.2502 24.1684 34.7109 24.2436 41.4733 23.5248C41.8137 26.1902 42 29.0338 42 32C42 35.3549 41.7617 38.5529 41.3316 41.5137C34.6754 40.8167 28.3147 40.8873 22.6486 41.3762ZM44.6014 45.9586C43.4683 51.2929 41.706 55.7995 39.5351 58.9745C45.8064 57.2263 51.1905 53.3499 54.86 48.1725C51.4226 47.1833 47.9842 46.4615 44.6014 45.9586ZM56.9953 44.6323C53.0758 43.4458 49.1528 42.5961 45.3002 42.0183C45.7543 38.8668 46 35.499 46 32C46 28.8803 45.8047 25.8648 45.4405 23.014C49.3935 22.4147 53.4196 21.5284 57.4391 20.2854C59.083 23.8494 60 27.8176 60 32C60 36.545 58.9171 40.8371 56.9953 44.6323ZM58.8423 49.4278C62.1047 44.4135 64 38.4281 64 32C64 14.3269 49.6731 0 32 0C14.3269 0 0 14.3269 0 32C0 37.9213 1.6083 43.4671 4.4119 48.2241L4.66381 48.9401C4.71337 48.9227 4.76339 48.9052 4.81388 48.8877C10.462 57.9608 20.5257 64 32 64C43.24 64 53.1265 58.2049 58.8347 49.4396C58.8357 49.4399 58.8368 49.4403 58.8378 49.4407L58.8423 49.4278ZM8.81316 47.7012C12.4859 53.1144 18.0047 57.1737 24.4649 58.9745C22.2649 55.757 20.4845 51.1718 19.3534 45.7436C15.282 46.2496 11.7011 46.9598 8.81316 47.7012ZM6.74798 44.1119C9.92375 43.2411 13.9885 42.3902 18.6686 41.7989C18.2344 38.7107 18 35.4179 18 32C18 28.9615 18.1853 26.022 18.5314 23.2371C13.6967 22.6195 9.52481 21.7258 6.31998 20.8226C4.82766 24.2464 4 28.0266 4 32C4 36.3385 4.98672 40.4465 6.74798 44.1119ZM23.1414 19.7051C28.51 20.1595 34.5341 20.2232 40.8319 19.5698C40.1827 16.2997 39.292 13.3921 38.2349 10.9759C37.1001 8.38203 35.8521 6.53411 34.6692 5.39052C33.5055 4.26553 32.6095 4 32 4C31.3905 4 30.4945 4.26553 29.3308 5.39052C28.1479 6.53411 26.8999 8.38203 25.7651 10.9759C24.6935 13.4254 23.7928 16.3799 23.1414 19.7051ZM44.8089 19.0638C48.3211 18.5327 51.8919 17.7648 55.458 16.7061C51.7886 11.0893 46.1563 6.87123 39.5351 5.02554C41.8434 8.40135 43.6897 13.2827 44.8089 19.0638ZM24.4649 5.02554C22.1273 8.44418 20.2635 13.4068 19.1489 19.2842C14.8833 18.7448 11.1641 17.9825 8.22728 17.199C11.8851 11.3363 17.6514 6.92483 24.4649 5.02554Z" fill="#59A52C"/>
</svg>
