<svg width="300" height="235" viewBox="0 0 300 235" fill="none" xmlns="http://www.w3.org/2000/svg">
<rect x="1" y="1" width="298" height="233" rx="9" fill="url(#paint0_linear_84_3529)" stroke="url(#paint1_angular_84_3529)" stroke-width="2"/>
<path d="M175.449 94.4329C175.17 94.5689 174.956 94.8099 174.855 95.1031C174.754 95.3963 174.772 95.7177 174.908 95.9969C176.723 99.7372 177.662 103.843 177.652 108C177.654 113.137 176.226 118.174 173.525 122.544C170.825 126.914 166.96 130.445 162.365 132.74C157.769 135.036 152.625 136.006 147.509 135.54C142.393 135.074 137.508 133.192 133.402 130.105C133.76 129.357 133.842 128.507 133.633 127.704C133.425 126.902 132.94 126.199 132.264 125.719C131.589 125.239 130.765 125.014 129.939 125.082C129.113 125.15 128.337 125.508 127.749 126.092C127.161 126.677 126.798 127.45 126.725 128.275C126.651 129.101 126.872 129.926 127.347 130.605C127.822 131.284 128.522 131.774 129.323 131.987C130.124 132.2 130.975 132.124 131.725 131.771C136.163 135.19 141.47 137.296 147.044 137.852C152.618 138.408 158.236 137.391 163.262 134.917C168.288 132.442 172.52 128.609 175.478 123.852C178.437 119.095 180.003 113.605 180 108.003C180.011 103.492 178.993 99.0378 177.024 94.9795C176.957 94.8396 176.863 94.7143 176.747 94.6109C176.632 94.5076 176.497 94.4281 176.35 94.3773C176.204 94.3264 176.049 94.3052 175.894 94.3147C175.739 94.3243 175.588 94.3645 175.449 94.4329ZM129.4 129.417C129.236 129.254 129.125 129.045 129.079 128.817C129.034 128.59 129.057 128.354 129.146 128.14C129.234 127.926 129.385 127.743 129.577 127.614C129.77 127.485 129.997 127.417 130.228 127.417C130.46 127.417 130.687 127.485 130.879 127.614C131.072 127.743 131.222 127.926 131.311 128.14C131.4 128.354 131.423 128.59 131.377 128.817C131.332 129.045 131.22 129.254 131.056 129.417C130.837 129.637 130.539 129.76 130.228 129.76C129.918 129.76 129.62 129.637 129.4 129.417Z" fill="url(#paint2_linear_84_3529)"/>
<path d="M129.4 129.417C129.236 129.254 129.125 129.045 129.079 128.817C129.034 128.59 129.057 128.354 129.146 128.14C129.234 127.926 129.385 127.743 129.577 127.614C129.77 127.485 129.997 127.417 130.228 127.417C130.46 127.417 130.687 127.485 130.879 127.614C131.072 127.743 131.222 127.926 131.311 128.14C131.4 128.354 131.423 128.59 131.377 128.817C131.332 129.045 131.22 129.254 131.056 129.417C130.837 129.637 130.539 129.76 130.228 129.76C129.918 129.76 129.62 129.637 129.4 129.417Z" fill="#CAE2BC"/>
<path d="M124.248 121.004C124.388 120.94 124.514 120.85 124.619 120.737C124.724 120.624 124.806 120.492 124.86 120.348C124.913 120.203 124.938 120.05 124.933 119.896C124.927 119.742 124.891 119.591 124.827 119.451C123.183 115.859 122.335 111.953 122.343 108.003C122.351 100.671 125.267 93.6412 130.452 88.4568C135.636 83.2723 142.665 80.3563 149.997 80.3484C155.81 80.3266 161.477 82.1599 166.176 85.5816C165.746 86.2876 165.579 87.1222 165.704 87.939C165.828 88.7559 166.236 89.5028 166.856 90.0489C167.477 90.595 168.269 90.9054 169.095 90.9257C169.921 90.946 170.728 90.6748 171.374 90.1597C172.02 89.6447 172.464 88.9187 172.629 88.1089C172.793 87.2991 172.667 86.4574 172.273 85.7311C171.879 85.0049 171.242 84.4406 170.473 84.1372C169.705 83.8338 168.854 83.8106 168.07 84.0717C163.62 80.7048 158.318 78.6468 152.762 78.1293C147.206 77.6117 141.615 78.6551 136.62 81.142C131.624 83.6289 127.422 87.4607 124.486 92.2061C121.55 96.9515 119.996 102.422 120 108.003C119.995 112.29 120.918 116.528 122.706 120.425C122.835 120.705 123.069 120.923 123.358 121.032C123.647 121.14 123.967 121.13 124.248 121.004ZM170.007 86.5854C170.171 86.7493 170.283 86.958 170.328 87.1853C170.374 87.4126 170.35 87.6483 170.262 87.8625C170.173 88.0766 170.023 88.2597 169.83 88.3885C169.638 88.5173 169.411 88.5861 169.179 88.5861C168.947 88.5861 168.721 88.5173 168.528 88.3885C168.335 88.2597 168.185 88.0766 168.097 87.8625C168.008 87.6483 167.985 87.4126 168.03 87.1853C168.075 86.958 168.187 86.7493 168.351 86.5854C168.571 86.366 168.869 86.2428 169.179 86.2428C169.49 86.2428 169.788 86.366 170.007 86.5854Z" fill="url(#paint3_linear_84_3529)"/>
<path d="M170.007 86.5854C170.171 86.7493 170.283 86.958 170.328 87.1853C170.374 87.4126 170.35 87.6483 170.262 87.8625C170.173 88.0766 170.023 88.2597 169.83 88.3885C169.638 88.5173 169.411 88.5861 169.179 88.5861C168.947 88.5861 168.721 88.5173 168.528 88.3885C168.335 88.2597 168.185 88.0766 168.097 87.8625C168.008 87.6483 167.985 87.4126 168.03 87.1853C168.075 86.958 168.187 86.7493 168.351 86.5854C168.571 86.366 168.869 86.2428 169.179 86.2428C169.49 86.2428 169.788 86.366 170.007 86.5854Z" fill="#CAE2BC"/>
<circle cx="150" cy="108" r="22" fill="#CAE2BC"/>
<path d="M149.998 85.7403C145.595 85.7403 141.29 87.046 137.629 89.4924C133.968 91.9388 131.114 95.416 129.429 99.4842C127.744 103.552 127.303 108.029 128.162 112.348C129.021 116.667 131.142 120.634 134.255 123.747C137.369 126.861 141.336 128.981 145.655 129.841C149.974 130.7 154.45 130.259 158.518 128.574C162.587 126.888 166.064 124.035 168.51 120.374C170.956 116.712 172.262 112.408 172.262 108.004C172.266 105.079 171.693 102.183 170.575 99.4796C169.458 96.7766 167.818 94.3207 165.75 92.2525C163.682 90.1843 161.226 88.5445 158.523 87.427C155.82 86.3095 152.923 85.7363 149.998 85.7403ZM130.078 108.004C130.076 106.019 130.373 104.044 130.957 102.146L138.68 102.146C138.147 106.034 138.147 109.977 138.68 113.865L130.957 113.865C130.372 111.967 130.076 109.991 130.078 108.004ZM140.631 108.004C140.629 106.044 140.772 104.085 141.061 102.146L148.832 102.146L148.832 113.863L141.055 113.863C140.766 111.923 140.621 109.965 140.622 108.004L140.631 108.004ZM158.508 99.8108L151.17 99.8108L151.17 88.2567C154.393 89.1443 157.166 93.6901 158.508 99.8108ZM148.827 88.2567L148.827 99.8108L141.488 99.8108C142.83 93.6901 145.593 89.1443 148.827 88.2459L148.827 88.2567ZM148.827 116.217L148.827 127.771C145.601 126.872 142.83 122.329 141.488 116.217L148.827 116.217ZM151.17 127.771L151.17 116.203L158.508 116.203C157.166 122.318 154.393 126.87 151.17 127.76L151.17 127.771ZM151.17 113.873L151.17 102.157L158.941 102.157C159.516 106.041 159.516 109.989 158.941 113.873L151.17 113.873ZM161.317 102.157L169.039 102.157C170.212 105.974 170.212 110.056 169.039 113.873L161.314 113.873C161.846 109.986 161.849 106.044 161.317 102.157ZM168.149 99.8135L160.914 99.8135C160.24 95.9261 158.647 92.256 156.268 89.1091C158.877 89.9809 161.279 91.3812 163.323 93.2224C165.367 95.0637 167.01 97.3092 168.149 99.8135ZM143.726 89.0955C141.345 92.2456 139.752 95.9196 139.08 99.8108L131.845 99.8108C132.982 97.304 134.624 95.0586 136.669 93.2149C138.713 91.3713 141.115 89.9689 143.726 89.0955ZM131.847 116.206L139.083 116.206C139.756 120.093 141.349 123.763 143.729 126.91C141.119 126.038 138.716 124.638 136.671 122.796C134.627 120.954 132.986 118.711 131.847 116.206ZM156.27 126.91C158.651 123.763 160.244 120.092 160.916 116.203L168.152 116.203C167.013 118.709 165.37 120.953 163.326 122.795C161.281 124.637 158.881 126.038 156.27 126.91Z" fill="url(#paint4_linear_84_3529)"/>
<rect x="122" y="149" width="56" height="2" fill="#59A52C"/>
<circle cx="150" cy="150" r="5" fill="#CAE2BC" stroke="#59A52C" stroke-width="2"/>
<circle cx="176" cy="150" r="3.25" fill="#CAE2BC" stroke="#59A52C" stroke-width="1.5"/>
<circle cx="124" cy="150" r="3.25" fill="#CAE2BC" stroke="#59A52C" stroke-width="1.5"/>
<defs>
<linearGradient id="paint0_linear_84_3529" x1="300" y1="0" x2="113.462" y2="183.83" gradientUnits="userSpaceOnUse">
<stop stop-color="#232324"/>
<stop offset="1" stop-color="#0D0E10"/>
</linearGradient>
<radialGradient id="paint1_angular_84_3529" cx="0" cy="0" r="1" gradientUnits="userSpaceOnUse" gradientTransform="translate(132.5 111.971) rotate(-43.2568) scale(163.396 191.917)">
<stop offset="0.164852" stop-color="#0D0E10"/>
<stop offset="0.317442" stop-color="#121913"/>
<stop offset="0.489152" stop-color="#4FA83D"/>
<stop offset="0.658904" stop-color="#0D0E10"/>
<stop offset="0.828155" stop-color="#0D0E10"/>
<stop offset="1" stop-color="#4FA83D"/>
</radialGradient>
<linearGradient id="paint2_linear_84_3529" x1="128.248" y1="127.498" x2="171.262" y2="93.6136" gradientUnits="userSpaceOnUse">
<stop stop-color="#59A52C"/>
<stop offset="1" stop-color="#60BD29"/>
</linearGradient>
<linearGradient id="paint3_linear_84_3529" x1="121.52" y1="110.744" x2="163.984" y2="77.2174" gradientUnits="userSpaceOnUse">
<stop stop-color="#59A52C"/>
<stop offset="1" stop-color="#60BD29"/>
</linearGradient>
<linearGradient id="paint4_linear_84_3529" x1="129.019" y1="119.564" x2="170.121" y2="93.0194" gradientUnits="userSpaceOnUse">
<stop stop-color="#59A52C"/>
<stop offset="1" stop-color="#60BD29"/>
</linearGradient>
</defs>
</svg>
