<svg width="56" height="58" viewBox="0 0 56 58" fill="none" xmlns="http://www.w3.org/2000/svg">
<circle cx="28.5" cy="32" r="6" stroke="#59A52C" stroke-width="3"/>
<circle cx="27.5" cy="6" r="4" stroke="#59A52C" stroke-width="3"/>
<circle cx="5.5" cy="21.5" r="4" stroke="#59A52C" stroke-width="3"/>
<path d="M10 24L22 30" stroke="#59A52C" stroke-width="3"/>
<circle cx="50.5" cy="19.5" r="4" stroke="#59A52C" stroke-width="3"/>
<circle cx="28.5" cy="32" r="2" stroke="#59A52C" stroke-width="3"/>
<path d="M35 30L46.5 22.5" stroke="#59A52C" stroke-width="3"/>
<path fill-rule="evenodd" clip-rule="evenodd" d="M40.3636 46.6176C40.7304 46.5405 41.1106 46.5 41.5003 46.5C44.5379 46.5 47.0003 48.9625 47.0003 52C47.0003 55.0376 44.5379 57.5 41.5003 57.5C38.4628 57.5 36.0003 55.0376 36.0003 52C36.0003 50.4328 36.6558 49.0187 37.7076 48.0169L31.7002 37.5762L34.3005 36.0801L40.3636 46.6176ZM44.0003 52C44.0003 53.3807 42.8811 54.5 41.5003 54.5C40.1196 54.5 39.0003 53.3807 39.0003 52C39.0003 50.6193 40.1196 49.5 41.5003 49.5C42.8811 49.5 44.0003 50.6193 44.0003 52Z" fill="#59A52C"/>
<path fill-rule="evenodd" clip-rule="evenodd" d="M12.1174 46.2415C11.6062 46.0845 11.0632 46 10.5004 46C7.46288 46 5.00045 48.4624 5.00045 51.5C5.00045 54.5376 7.46288 57 10.5004 57C13.538 57 16.0004 54.5376 16.0004 51.5C16.0004 50.1247 15.4957 48.8674 14.6613 47.9031L24.1104 37.509L21.8905 35.491L12.1174 46.2415ZM8.00045 51.5C8.00045 52.8807 9.11973 54 10.5004 54C11.8812 54 13.0004 52.8807 13.0004 51.5C13.0004 50.1193 11.8812 49 10.5004 49C9.11973 49 8.00045 50.1193 8.00045 51.5Z" fill="#59A52C"/>
<path d="M27.5001 25L27.8381 10.9999" stroke="#59A52C" stroke-width="3"/>
</svg>
