<svg xmlns="http://www.w3.org/2000/svg" width="45" height="45" viewBox="0 0 45 45" fill="none"><circle cx="22.5" cy="22.5" r="22.5" fill="url(#paint0_radial_1962_15439)" fill-opacity="0.26"></circle><path d="M27.9512 28.7393V24.8552C27.9512 24.7148 28.0069 24.5801 28.1062 24.4809C28.2055 24.3816 28.3402 24.3258 28.4806 24.3258H39.0685C39.2089 24.3258 39.3435 24.3816 39.4428 24.4809C39.5421 24.5801 39.5979 24.7148 39.5979 24.8552V28.7393C39.5979 34.2975 34.8796 36.137 33.9399 36.448C33.8332 36.4876 33.7158 36.4876 33.6091 36.448C32.6694 36.137 27.9512 34.2975 27.9512 28.7393Z" fill="#DDDDDD"></path><path d="M21 20.3767V15.1267" stroke="#DDDDDD" stroke-width="2.56128" stroke-linecap="round" stroke-linejoin="round"></path><path d="M15.75 25.6249V20.3749" stroke="#DDDDDD" stroke-width="2.56128" stroke-linecap="round" stroke-linejoin="round"></path><path d="M26.252 25.6249V20.3749" stroke="#DDDDDD" stroke-width="2.56128" stroke-linecap="round" stroke-linejoin="round"></path><path d="M21 30.876V25.626" stroke="#DDDDDD" stroke-width="2.56128" stroke-linecap="round" stroke-linejoin="round"></path><path d="M10.5 20.3749H31.5007" stroke="#DDDDDD" stroke-width="2.56128" stroke-linecap="round" stroke-linejoin="round"></path><path d="M10.5 25.626H31.5007" stroke="#DDDDDD" stroke-width="2.56128" stroke-linecap="round" stroke-linejoin="round"></path><path d="M31.5007 15.1266H10.5V30.8766H31.5007V15.1266Z" stroke="#DDDDDD" stroke-width="2.56128" stroke-linecap="round" stroke-linejoin="round"></path><defs><radialGradient id="paint0_radial_1962_15439" cx="0" cy="0" r="1" gradientUnits="userSpaceOnUse" gradientTransform="translate(22.5 22.5) rotate(90.5907) scale(48.5026)"><stop stop-color="#4FA83D"></stop><stop offset="0.46875" stop-color="#22CB00" stop-opacity="0.53125"></stop><stop offset="1" stop-opacity="0"></stop></radialGradient></defs></svg>