<svg xmlns="http://www.w3.org/2000/svg" width="80" height="80" viewBox="0 0 80 80" fill="none"><path fill-rule="evenodd" clip-rule="evenodd" d="M8.30664 54.8586H71.6937V19.327C71.6937 18.159 70.7378 17.2048 69.5681 17.2048H10.4305C9.26232 17.2048 8.30664 18.1589 8.30664 19.327V54.8586Z" stroke="#4FA83D" stroke-width="2.15633" stroke-miterlimit="2.6131" stroke-linecap="round" stroke-linejoin="round"></path><path fill-rule="evenodd" clip-rule="evenodd" d="M41.5178 23.121H63.4727C63.7557 23.121 63.9869 23.3522 63.9869 23.6351V33.9631C63.9869 34.2459 63.7557 34.4771 63.4727 34.4771H41.5178C41.2332 34.4771 41.002 34.2459 41.002 33.9631V23.6351C41.0021 23.3523 41.2332 23.121 41.5178 23.121Z" stroke="#4FA83D" stroke-width="2.15633" stroke-miterlimit="2.6131" stroke-linecap="round" stroke-linejoin="round"></path><path d="M4 54.8776H76V60.4176" stroke="#4FA83D" stroke-width="2.15633" stroke-miterlimit="2.6131" stroke-linecap="round" stroke-linejoin="round"></path><path d="M75.999 60.4176C75.999 61.7272 74.9275 62.795 73.623 62.795" stroke="#4FA83D" stroke-width="2.15633" stroke-miterlimit="2.6131" stroke-linecap="round" stroke-linejoin="round"></path><path d="M73.6233 62.7952H5.90234" stroke="#4FA83D" stroke-width="2.15633" stroke-miterlimit="2.6131" stroke-linecap="round" stroke-linejoin="round"></path><path d="M5.90304 62.7952C4.85584 62.7952 4 61.9394 4 60.892" stroke="#4FA83D" stroke-width="2.15633" stroke-miterlimit="2.6131" stroke-linecap="round" stroke-linejoin="round"></path><path d="M4 60.892V54.8776" stroke="#4FA83D" stroke-width="2.15633" stroke-miterlimit="2.6131" stroke-linecap="round" stroke-linejoin="round"></path><path d="M7.49609 58.8355H30.8295" stroke="#4FA83D" stroke-width="2.15633" stroke-miterlimit="2.6131" stroke-linecap="round" stroke-linejoin="round"></path><path fill-rule="evenodd" clip-rule="evenodd" d="M64.3572 59.3394C64.635 59.3394 64.8593 59.1115 64.8593 58.8355C64.8593 58.556 64.6351 58.3334 64.3572 58.3334C64.0793 58.3334 63.8535 58.556 63.8535 58.8355C63.8535 59.1115 64.0794 59.3394 64.3572 59.3394Z" stroke="#4FA83D" stroke-width="2.15633" stroke-miterlimit="2.6131" stroke-linecap="round" stroke-linejoin="round"></path><path fill-rule="evenodd" clip-rule="evenodd" d="M68.129 59.3394C68.4068 59.3394 68.6329 59.1115 68.6329 58.8355C68.6329 58.556 68.4068 58.3334 68.129 58.3334C67.8495 58.3334 67.627 58.556 67.627 58.8355C67.627 59.1115 67.8495 59.3394 68.129 59.3394Z" stroke="#4FA83D" stroke-width="2.15633" stroke-miterlimit="2.6131" stroke-linecap="round" stroke-linejoin="round"></path><path fill-rule="evenodd" clip-rule="evenodd" d="M71.5862 59.3394C71.864 59.3394 72.0899 59.1115 72.0899 58.8355C72.0899 58.556 71.864 58.3334 71.5862 58.3334C71.3101 58.3334 71.084 58.556 71.084 58.8355C71.084 59.1115 71.3101 59.3394 71.5862 59.3394Z" stroke="#4FA83D" stroke-width="2.15633" stroke-miterlimit="2.6131" stroke-linecap="round" stroke-linejoin="round"></path><path d="M40.6191 38.8803H63.9871" stroke="#4FA83D" stroke-width="2.15633" stroke-miterlimit="2.6131" stroke-linecap="round" stroke-linejoin="round"></path><path d="M64.249 42.8416H32.0215" stroke="#4FA83D" stroke-width="2.15633" stroke-miterlimit="2.6131" stroke-linecap="round" stroke-linejoin="round"></path><path d="M28.7229 42.8416H14.6699" stroke="#4FA83D" stroke-width="2.15633" stroke-miterlimit="2.6131" stroke-linecap="round" stroke-linejoin="round"></path><path d="M14.6699 46.803H34.4387" stroke="#4FA83D" stroke-width="2.15633" stroke-miterlimit="2.6131" stroke-linecap="round" stroke-linejoin="round"></path><path d="M37.6465 46.803H64.2494" stroke="#4FA83D" stroke-width="2.15633" stroke-miterlimit="2.6131" stroke-linecap="round" stroke-linejoin="round"></path><path d="M14.6699 50.7643H64.2491" stroke="#4FA83D" stroke-width="2.15633" stroke-miterlimit="2.6131" stroke-linecap="round" stroke-linejoin="round"></path><path d="M19.8754 25.3622L15.041 30.3726L19.9754 35.4349" stroke="#4FA83D" stroke-width="2.15633" stroke-miterlimit="2.6131" stroke-linecap="round" stroke-linejoin="round"></path><path d="M29.7191 25.3622L34.5535 30.3726L29.6191 35.4349" stroke="#4FA83D" stroke-width="2.15633" stroke-miterlimit="2.6131" stroke-linecap="round" stroke-linejoin="round"></path><path d="M27.7117 23.121L22.3477 37.6743" stroke="#4FA83D" stroke-width="2.15633" stroke-miterlimit="2.6131" stroke-linecap="round" stroke-linejoin="round"></path></svg>