<svg xmlns="http://www.w3.org/2000/svg" width="57" height="55" viewBox="0 0 57 55" fill="none"><path d="M2.78729 43.3327H31.0543C32.2692 43.3327 33.2541 44.3176 33.254 45.5325V52.2127C33.254 53.4276 32.2692 54.4125 31.0543 54.4125H2.78729C1.5724 54.4125 0.587544 53.4276 0.587544 52.2127V45.5325C0.587544 44.3176 1.5724 43.3327 2.78729 43.3327Z" stroke="#4FA83D" stroke-width="1.17509"></path><path d="M2.78729 27.4448H31.0543C32.2692 27.4448 33.2541 28.4296 33.254 29.6445V36.3247C33.254 37.5396 32.2692 38.5245 31.0543 38.5245H2.78729C1.5724 38.5245 0.587544 37.5396 0.587544 36.3247V29.6445C0.587544 28.4296 1.5724 27.4448 2.78729 27.4448Z" stroke="#4FA83D" stroke-width="1.17509"></path><path d="M2.78729 11.5648H31.0543C32.2692 11.5648 33.2541 12.5496 33.254 13.7645V20.4447C33.254 21.6596 32.2692 22.6445 31.0543 22.6445H2.78729C1.5724 22.6445 0.587544 21.6596 0.587544 20.4447V13.7645C0.587544 12.5496 1.5724 11.5648 2.78729 11.5648Z" stroke="#4FA83D" stroke-width="1.17509"></path><path d="M30.8499 39.112H2.99023V42.7452H30.8499V39.112Z" fill="#4FA83D"></path><path d="M30.8499 23.2241H2.99023V26.8572H30.8499V23.2241Z" fill="#4FA83D"></path><path d="M6.52634 19.463C7.82883 19.463 8.88471 18.4071 8.88471 17.1046C8.88471 15.8021 7.82883 14.7462 6.52634 14.7462C5.22385 14.7462 4.16797 15.8021 4.16797 17.1046C4.16797 18.4071 5.22385 19.463 6.52634 19.463Z" fill="#4FA83D"></path><path d="M13.2295 19.463C14.532 19.463 15.5878 18.4071 15.5878 17.1046C15.5878 15.8021 14.532 14.7462 13.2295 14.7462C11.927 14.7462 10.8711 15.8021 10.8711 17.1046C10.8711 18.4071 11.927 19.463 13.2295 19.463Z" fill="#4FA83D"></path><path d="M6.52634 35.343C7.82883 35.343 8.88471 34.2871 8.88471 32.9846C8.88471 31.6821 7.82883 30.6263 6.52634 30.6263C5.22385 30.6263 4.16797 31.6821 4.16797 32.9846C4.16797 34.2871 5.22385 35.343 6.52634 35.343Z" fill="#4FA83D"></path><path d="M13.2295 35.343C14.532 35.343 15.5878 34.2871 15.5878 32.9846C15.5878 31.6821 14.532 30.6263 13.2295 30.6263C11.927 30.6263 10.8711 31.6821 10.8711 32.9846C10.8711 34.2871 11.927 35.343 13.2295 35.343Z" fill="#4FA83D"></path><path d="M6.52634 51.231C7.82883 51.231 8.88471 50.1751 8.88471 48.8726C8.88471 47.5701 7.82883 46.5142 6.52634 46.5142C5.22385 46.5142 4.16797 47.5701 4.16797 48.8726C4.16797 50.1751 5.22385 51.231 6.52634 51.231Z" fill="#4FA83D"></path><path d="M13.2295 51.231C14.532 51.231 15.5878 50.1751 15.5878 48.8726C15.5878 47.5701 14.532 46.5142 13.2295 46.5142C11.927 46.5142 10.8711 47.5701 10.8711 48.8726C10.8711 50.1751 11.927 51.231 13.2295 51.231Z" fill="#4FA83D"></path><path d="M53.803 4.91298C48.5139 5.54189 44.1616 3.95009 40.5421 0.63743C39.6136 -0.212477 38.221 -0.212477 37.2925 0.63743C33.673 3.95016 29.3207 5.54188 24.0316 4.91298C22.603 4.74318 21.3486 5.91839 21.4338 7.35446C22.5529 26.2152 34.3356 33.2109 37.9008 34.9052C38.5483 35.2128 39.2863 35.2128 39.9338 34.9052C43.499 33.2109 55.2816 26.2152 56.4007 7.35446C56.4859 5.91839 55.2315 4.74318 53.803 4.91298Z" fill="#4FA83D"></path><path d="M38.9124 31.4786C35.5739 29.7813 26.478 23.802 25.0645 8.54453C25.4655 8.56694 25.8631 8.57843 26.2573 8.57843C30.976 8.57843 35.22 7.00977 38.917 3.90691C42.614 7.00977 46.8591 8.57843 51.5766 8.57843C51.9696 8.57843 52.3673 8.56694 52.7683 8.54511C51.3445 23.7726 42.2025 29.7905 38.9124 31.4786Z" fill="#4FA83D"></path></svg>