<svg xmlns="http://www.w3.org/2000/svg" width="56" height="56" viewBox="0 0 56 56" fill="none"><path d="M40.6447 18.9677H34.6192L39.6385 13.2305C40.287 12.4898 40.6447 11.5387 40.6447 10.5542V10.3871C40.6447 8.1462 38.821 6.32259 36.5801 6.32259C34.3392 6.32259 32.5156 8.1462 32.5156 10.3871V11.7419H34.3221V10.3871C34.3221 9.14155 35.3346 8.12904 36.5801 8.12904C37.8257 8.12904 38.8382 9.14155 38.8382 10.3871V10.5542C38.8382 11.1016 38.6395 11.629 38.2791 12.0409L32.5156 18.6281V20.7742H40.6447V18.9677Z" fill="#4FA83D"></path><path d="M47.8705 20.7742H49.677V18.0645H51.4834V16.2581H49.677V6.32259H47.3123L42.4512 16.0449V18.0645H47.8705V20.7742ZM44.3642 16.2581L47.8705 9.24542V16.2581H44.3642Z" fill="#4FA83D"></path><path d="M44.6239 28.5663C51.119 27.1519 56 21.364 56 14.4516C56 6.48336 49.5166 0 41.5484 0C34.636 0 28.8481 4.88103 27.4337 11.3761C25.8395 11.0257 24.2128 10.8387 22.5806 10.8387C10.1297 10.8387 0 20.9684 0 33.4194C0 45.8703 10.1297 56 22.5806 56C35.0316 56 45.1613 45.8703 45.1613 33.4194C45.1613 31.7872 44.9743 30.1605 44.6239 28.5663ZM41.5484 1.80645C48.5213 1.80645 54.1935 7.47871 54.1935 14.4516C54.1935 21.4245 48.5213 27.0968 41.5484 27.0968C34.5755 27.0968 28.9032 21.4245 28.9032 14.4516C28.9032 7.47871 34.5755 1.80645 41.5484 1.80645ZM39.7067 32.5161H37.9355V34.3226H39.6959C39.4836 38.3726 37.8677 42.0479 35.3179 44.8795L34.076 43.6375L32.7988 44.9147L34.0408 46.1566C31.2092 48.7074 27.5339 50.3223 23.4839 50.5346V48.7742H21.6774V50.5346C17.6274 50.3223 13.9521 48.7065 11.1205 46.1566L12.3625 44.9147L11.0853 43.6375L9.84335 44.8795C7.29264 42.0479 5.67768 38.3726 5.46542 34.3226H7.22581V32.5161H5.46542C5.67768 28.4661 7.29355 24.7908 9.84335 21.9592L11.0853 23.2012L12.3625 21.924L11.1205 20.6821C13.9521 18.1314 17.6274 16.5164 21.6774 16.3041V18.0645H23.4839V16.2933C24.7827 16.3619 26.0689 16.5805 27.3271 16.9436C28.3712 22.9148 33.0843 27.6279 39.0564 28.6729C39.4186 29.9311 39.6372 31.2173 39.7067 32.5161ZM22.5806 54.1935C11.125 54.1935 1.80645 44.875 1.80645 33.4194C1.80645 21.9637 11.125 12.6452 22.5806 12.6452C24.1215 12.6452 25.6579 12.8267 27.1618 13.1663C27.1239 13.5908 27.0968 14.0181 27.0968 14.4516C27.0968 14.6404 27.1175 14.8246 27.1248 15.0125C25.6345 14.6431 24.1116 14.4516 22.5806 14.4516C12.1222 14.4516 3.6129 22.9609 3.6129 33.4194C3.6129 43.8778 12.1222 52.3871 22.5806 52.3871C33.0391 52.3871 41.5484 43.8778 41.5484 33.4194C41.5484 31.8884 41.3569 30.3655 40.9875 28.8752C41.1754 28.8825 41.3596 28.9032 41.5484 28.9032C41.9819 28.9032 42.4092 28.8761 42.8337 28.8382C43.1733 30.3421 43.3548 31.8785 43.3548 33.4194C43.3548 44.875 34.0363 54.1935 22.5806 54.1935Z" fill="#4FA83D"></path><path d="M25.2904 33.4194C25.2904 32.2434 24.5326 31.2498 23.484 30.8759V19.871H21.6775V30.8759C20.6289 31.2498 19.8711 32.2434 19.8711 33.4194C19.8711 34.9133 21.0868 36.129 22.5808 36.129C22.9981 36.129 23.3883 36.027 23.7414 35.8572L30.0712 42.187L31.3484 40.9098L25.0186 34.58C25.1884 34.2268 25.2904 33.8366 25.2904 33.4194ZM21.6775 33.4194C21.6775 32.9208 22.0822 32.5161 22.5808 32.5161C23.0794 32.5161 23.484 32.9208 23.484 33.4194C23.484 33.9179 23.0794 34.3226 22.5808 34.3226C22.0822 34.3226 21.6775 33.9179 21.6775 33.4194Z" fill="#4FA83D"></path><path d="M49.6781 30.7097C48.1841 30.7097 46.9684 31.9254 46.9684 33.4194C46.9684 34.5493 47.6648 35.5185 48.6502 35.924C48.0839 41.8708 45.4898 47.4681 41.2871 51.7548L42.5769 53.0194C47.0921 48.4147 49.8696 42.3947 50.4576 36.0008C51.5703 35.6639 52.3878 34.6414 52.3878 33.4194C52.3878 31.9254 51.172 30.7097 49.6781 30.7097ZM49.6781 34.3226C49.1795 34.3226 48.7749 33.9179 48.7749 33.4194C48.7749 32.9208 49.1795 32.5161 49.6781 32.5161C50.1767 32.5161 50.5813 32.9208 50.5813 33.4194C50.5813 33.9179 50.1767 34.3226 49.6781 34.3226Z" fill="#4FA83D"></path><path d="M4.77241 14.2104C8.97963 10.3076 14.3927 7.90774 20.0812 7.3649C20.4912 8.34309 21.4568 9.03225 22.5813 9.03225C24.0752 9.03225 25.291 7.81651 25.291 6.32258C25.291 4.82864 24.0752 3.6129 22.5813 3.6129C21.3601 3.6129 20.3368 4.43032 19.9999 5.54309C13.8841 6.10671 8.06466 8.69445 3.54492 12.8863L4.77241 14.2104ZM22.5813 5.41935C23.0799 5.41935 23.4845 5.824 23.4845 6.32258C23.4845 6.82116 23.0799 7.2258 22.5813 7.2258C22.0827 7.2258 21.6781 6.82116 21.6781 6.32258C21.6781 5.824 22.0827 5.41935 22.5813 5.41935Z" fill="#4FA83D"></path></svg>