<svg xmlns="http://www.w3.org/2000/svg" width="66" height="66" viewBox="0 0 66 66" fill="none"><path d="M30.8 0.000257419C30.5171 -0.00728832 30.2258 0.153015 30.134 0.223692L25.734 3.52794C25.1516 3.96817 25.1516 4.84292 25.734 5.28319L30.134 8.58744C30.6202 8.95413 31.3116 8.85555 31.6766 8.3683C32.0428 7.88197 31.9447 7.19077 31.4574 6.82574L29.6764 5.49158L49.5021 5.49373C50.74 5.49381 51.7043 6.45566 51.7043 7.6937V23.1365C48.7128 23.2192 46.0018 23.6151 43.9141 24.2794C42.7422 24.6523 41.7562 25.0994 40.99 25.6759C40.1086 26.3448 39.6021 27.1131 39.6021 28.0477C39.6187 36.8767 39.6021 45.6373 39.6021 54.4581C39.6021 55.4569 40.2238 56.2535 40.99 56.8299C41.7562 57.4063 42.7421 57.8535 43.914 58.2264C46.2578 58.9722 49.3618 59.4037 52.7978 59.4037C56.2338 59.4037 59.3443 58.9722 61.688 58.2264C62.86 57.8535 63.8459 57.4064 64.6121 56.8299C65.3784 56.2536 66 55.4569 66 54.4581C65.9834 45.6279 66 36.8703 66 28.0477C66 27.0108 65.2073 26.123 64.6121 25.6737C63.8459 25.0973 62.86 24.6501 61.688 24.2773C59.6021 23.6135 56.8916 23.2176 53.9021 23.1343V7.6937C53.9022 5.27471 51.9186 3.29183 49.5 3.29162L29.7129 3.28947L31.4574 1.98324C31.9449 1.61822 32.0431 0.927015 31.6766 0.440681C31.4695 0.164629 31.1444 0.000693996 30.8 0.000257419ZM13.1979 6.60016C9.7609 6.60104 6.65733 7.03186 4.31406 7.77749C3.14216 8.15041 2.1562 8.59757 1.39004 9.17396C0.503105 9.81246 0 10.5743 0 11.5479C0.0166299 20.3769 0 29.1376 0 37.9583C0 38.9572 0.621727 39.7516 1.38789 40.328C2.15405 40.9044 3.14001 41.3516 4.31191 41.7245C6.39857 42.3885 9.11029 42.7844 12.1 42.8674V58.3059C12.1007 60.7249 14.0814 62.7105 16.5 62.7101L36.2957 62.706L34.5447 64.0165C34.0572 64.3815 33.959 65.0727 34.3256 65.5591C34.6906 66.0467 35.3819 66.1449 35.8682 65.7782L40.2703 62.4718C40.8515 62.0315 40.8515 61.159 40.2703 60.7187L35.8682 57.4144C35.674 57.2689 35.4384 57.1898 35.1957 57.1931C34.8535 57.1962 34.5313 57.3602 34.3256 57.6336C33.9589 58.1199 34.0571 58.8111 34.5447 59.1761L36.3193 60.5038L16.5 60.508C15.2622 60.5083 14.3003 59.5439 14.3 58.3059V42.8674C17.2912 42.7846 20.0012 42.3885 22.0881 41.7245C23.26 41.3516 24.2459 40.9044 25.0121 40.328C25.7784 39.7516 26.4021 38.9572 26.4021 37.9583C26.3855 29.1282 26.4021 20.3705 26.4021 11.5479C26.4021 10.6374 25.6521 9.60762 25.0121 9.17396C24.246 8.59757 23.26 8.15041 22.0881 7.77749C19.7448 7.03186 16.6348 6.59971 13.1979 6.60016ZM13.1979 8.80013C16.4447 8.80013 19.3864 9.22657 21.4221 9.87434C22.4399 10.1982 23.2302 10.5843 23.6887 10.9292C24.147 11.2743 24.2 11.4835 24.2 11.5479C24.2 11.6124 24.1472 11.8281 23.6887 12.1731C23.2302 12.5182 22.4399 12.8955 21.4221 13.2194C19.3864 13.8672 16.4447 14.3001 13.1979 14.3001C9.95097 14.3001 7.01577 13.8672 4.98008 13.2194C3.96225 12.8955 3.17194 12.518 2.71348 12.1731C2.25502 11.8281 2.20215 11.6123 2.20215 11.5479C2.20215 11.4835 2.25493 11.2741 2.71348 10.9292C3.17194 10.5841 3.96225 10.1982 4.98008 9.87434C7.01577 9.22657 9.95095 8.80013 13.1979 8.80013ZM2.20215 14.4376C2.81598 14.7768 3.51763 15.0693 4.31406 15.3227C6.65783 16.0685 9.76184 16.5 13.1979 16.5C16.6339 16.5 19.7443 16.0685 22.0881 15.3227C22.8836 15.0695 23.5866 14.7786 24.2 14.4397V20.35C24.2 20.4144 24.1472 20.6217 23.6887 20.9666C23.2302 21.3116 22.4399 21.6997 21.4221 22.0236C19.3864 22.6713 16.4447 23.1042 13.1979 23.1042C9.95101 23.1042 7.01577 22.6713 4.98008 22.0236C3.96225 21.6997 3.17194 21.3115 2.71348 20.9666C2.25502 20.6215 2.20215 20.4144 2.20215 20.35V14.4376ZM5.5 17.6C4.89245 17.6 4.4 18.0923 4.4 18.7C4.4 19.3076 4.89245 19.8 5.5 19.8C6.10755 19.8 6.6 19.3076 6.6 18.7C6.6 18.0923 6.10755 17.6 5.5 17.6ZM20.9107 17.817C20.8151 17.8182 20.7194 17.8307 20.6272 17.8557C18.5823 18.3931 15.9293 18.7021 13.1979 18.7021C12.113 18.7021 11.039 18.6479 9.99883 18.5539C9.3929 18.4994 8.85768 18.9466 8.8043 19.5529C8.74942 20.1559 9.19216 20.6896 9.79473 20.7474C10.9039 20.8476 12.0484 20.9021 13.1979 20.9021C16.0918 20.9021 18.8956 20.5871 21.1879 19.9847C21.7766 19.8284 22.1261 19.2237 21.9678 18.6355C21.8406 18.1552 21.4075 17.8191 20.9107 17.817ZM2.20215 23.2417C2.81585 23.5785 3.5178 23.8649 4.31406 24.1183C6.65783 24.8641 9.76184 25.3042 13.1979 25.3042C16.6338 25.3042 19.7443 24.8641 22.0881 24.1183C22.8838 23.8651 23.5865 23.5784 24.2 23.2417V29.1541C24.2 29.2186 24.1472 29.4259 23.6887 29.7707C23.2302 30.1158 22.4399 30.5017 21.4221 30.8256C19.3864 31.4734 16.4447 31.8977 13.1979 31.8977C9.95101 31.8977 7.01577 31.4734 4.98008 30.8256C3.96225 30.5017 3.17194 30.1157 2.71348 29.7707C2.25502 29.4257 2.20215 29.2186 2.20215 29.1541V23.2417ZM51.7043 25.3386V27.5042C51.7064 28.1089 52.1954 28.5978 52.8 28.5999C53.4077 28.6023 53.9022 28.112 53.9043 27.5042V25.3386C56.7025 25.4234 59.2259 25.8018 61.0242 26.3741C62.042 26.698 62.8324 27.0841 63.2908 27.429C63.7493 27.774 63.8022 27.9833 63.8022 28.0477C63.8022 28.1122 63.7494 28.3278 63.2908 28.6729C62.8324 29.018 62.042 29.3953 61.0242 29.7192C58.9885 30.3669 56.0468 30.7998 52.8 30.7998C49.5531 30.7998 46.6158 30.3669 44.5801 29.7192C43.5623 29.3953 42.7719 29.0178 42.3135 28.6729C41.855 28.3278 41.8022 28.1122 41.8022 28.0477C41.8022 27.9833 41.8549 27.7739 42.3135 27.429C42.7719 27.0839 43.5623 26.698 44.5801 26.3741C46.3802 25.8013 48.9038 25.4231 51.7043 25.3386ZM5.5 26.402C4.89245 26.402 4.4 26.8944 4.4 27.502C4.4 28.1096 4.89245 28.602 5.5 28.602C6.10755 28.602 6.6 28.1096 6.6 27.502C6.6 26.8944 6.10755 26.402 5.5 26.402ZM20.9107 26.6212C20.8151 26.6191 20.7199 26.6285 20.6272 26.6534C18.5823 27.1909 15.9293 27.4977 13.1979 27.4977C12.113 27.4977 11.039 27.452 9.99883 27.3581C9.3929 27.3036 8.85768 27.7529 8.8043 28.3592C8.74942 28.9622 9.19216 29.496 9.79473 29.5537C10.9039 29.6539 12.0484 29.6998 13.1979 29.6998C16.0918 29.6998 18.8956 29.3827 21.1879 28.7803C21.7723 28.624 22.1207 28.0251 21.9678 27.4397C21.8406 26.9594 21.4076 26.6244 20.9107 26.6212ZM41.8022 30.9373C42.416 31.2766 43.1176 31.569 43.9141 31.8225C46.2578 32.5683 49.364 32.9998 52.8 32.9998C56.236 32.9998 59.3464 32.5683 61.6902 31.8225C62.4858 31.5693 63.1887 31.2784 63.8022 30.9395V36.8519C63.8022 36.9163 63.7494 37.1237 63.2908 37.4685C62.8324 37.8135 62.042 38.1994 61.0242 38.5234C58.9885 39.1711 56.0468 39.604 52.8 39.604C49.5532 39.604 46.6158 39.1711 44.5801 38.5234C43.5623 38.1995 42.7719 37.8134 42.3135 37.4685C41.855 37.1234 41.8022 36.9163 41.8022 36.8519V30.9373ZM2.20215 32.0373C2.81594 32.3765 3.51771 32.6669 4.31406 32.9203C6.65783 33.6661 9.76184 34.0998 13.1979 34.0998C16.6338 34.0998 19.7443 33.6661 22.0881 32.9203C22.8839 32.6671 23.5865 32.3764 24.2 32.0373V37.9583C24.2 38.0228 24.1472 38.2301 23.6887 38.5749C23.2302 38.92 22.4399 39.3059 21.4221 39.6298C19.3864 40.2775 16.4447 40.7018 13.1979 40.7018C9.95101 40.7018 7.01577 40.2775 4.98008 39.6298C3.96225 39.3059 3.17194 38.9198 2.71348 38.5749C2.25502 38.2298 2.20215 38.0228 2.20215 37.9583V32.0373ZM45.1 34.1019C44.4925 34.1019 44 34.5943 44 35.2019C44 35.8095 44.4925 36.3019 45.1 36.3019C45.7076 36.3019 46.2 35.8095 46.2 35.2019C46.2 34.5943 45.7075 34.1019 45.1 34.1019ZM60.5129 34.3168C60.4173 34.3173 60.3216 34.3306 60.2293 34.3555C58.1844 34.8929 55.5314 35.2019 52.8 35.2019C51.7152 35.2019 50.6412 35.1477 49.601 35.0537C48.995 34.9992 48.4598 35.4464 48.4065 36.0527C48.3516 36.6557 48.7944 37.1894 49.3969 37.2472C50.5061 37.3474 51.6506 37.4019 52.8 37.4019C55.694 37.4019 58.4978 37.087 60.7901 36.4845C61.3787 36.3282 61.7283 35.7235 61.5699 35.1353C61.4427 34.655 61.0097 34.3196 60.5129 34.3168ZM5.5 35.2041C4.89245 35.2041 4.4 35.6964 4.4 36.304C4.4 36.9117 4.89245 37.404 5.5 37.404C6.10755 37.404 6.6 36.9117 6.6 36.304C6.6 35.6964 6.10755 35.2041 5.5 35.2041ZM20.9107 35.4254C20.8151 35.4237 20.7199 35.4327 20.6272 35.4576C18.5823 35.995 15.9293 36.3019 13.1979 36.3019C12.113 36.3019 11.039 36.2562 9.99883 36.1623C9.3929 36.1078 8.85768 36.5553 8.8043 37.1613C8.74942 37.7642 9.19216 38.298 9.79473 38.3558C10.9039 38.456 12.0484 38.5019 13.1979 38.5019C16.0918 38.5019 18.8956 38.1869 21.1879 37.5845C21.7723 37.4282 22.1207 36.8293 21.9678 36.2439C21.8406 35.7636 21.4075 35.4283 20.9107 35.4254ZM41.8022 39.7415C42.4159 40.0783 43.1178 40.3647 43.9141 40.618C46.2578 41.3638 49.364 41.804 52.8 41.804C56.236 41.804 59.3464 41.3638 61.6902 40.618C62.486 40.3649 63.1887 40.0781 63.8022 39.7415V45.6539C63.8022 45.7184 63.7494 45.9278 63.2908 46.2727C62.8324 46.6177 62.042 47.0036 61.0242 47.3275C58.9885 47.9753 56.0468 48.3996 52.8 48.3996C49.5532 48.3996 46.6158 47.9753 44.5801 47.3275C43.5623 47.0037 42.7719 46.6176 42.3135 46.2727C41.855 45.9276 41.8022 45.7184 41.8022 45.6539V39.7415ZM45.1 42.9018C44.4925 42.9018 44 43.3942 44 44.0018C44 44.6094 44.4925 45.1018 45.1 45.1018C45.7076 45.1018 46.2 44.6094 46.2 44.0018C46.2 43.3942 45.7076 42.9018 45.1 42.9018ZM60.5129 43.1209C60.4173 43.1194 60.322 43.1305 60.2293 43.1554C58.1844 43.6929 55.5314 43.9998 52.8 43.9998C51.7152 43.9997 50.6411 43.9541 49.601 43.8601C48.995 43.8057 48.4598 44.2528 48.4065 44.8591C48.3516 45.4621 48.7944 45.9958 49.3969 46.0536C50.5061 46.1538 51.6506 46.1997 52.8 46.1997C55.694 46.1997 58.4978 45.8848 60.7901 45.2824C61.3744 45.1261 61.7229 44.5272 61.5699 43.9418C61.4427 43.4615 61.0097 43.1238 60.5129 43.1209ZM41.8022 48.5392C42.4159 48.8785 43.1177 49.1688 43.9141 49.4222C46.2578 50.168 49.364 50.5995 52.8 50.5995C56.236 50.5995 59.3464 50.168 61.6902 49.4222C62.486 49.169 63.1886 48.8783 63.8022 48.5392V54.4581C63.8022 54.5225 63.7494 54.7299 63.2908 55.0747C62.8324 55.4198 62.042 55.8056 61.0242 56.1295C58.9885 56.7773 56.0468 57.2016 52.8 57.2016C49.5532 57.2016 46.6158 56.7773 44.5801 56.1295C43.5623 55.8057 42.7719 55.4196 42.3135 55.0747C41.855 54.7296 41.8022 54.5225 41.8022 54.4581V48.5392ZM45.1 51.7038C44.4925 51.7038 44 52.1962 44 52.8038C44 53.4114 44.4925 53.9038 45.1 53.9038C45.7076 53.9038 46.2 53.4114 46.2 52.8038C46.2 52.1962 45.7076 51.7038 45.1 51.7038ZM60.5129 51.9251C60.4173 51.9236 60.322 51.9322 60.2293 51.9576C58.1844 52.495 55.5314 52.8019 52.8 52.8019C51.7152 52.8018 50.6411 52.7562 49.601 52.6622C48.995 52.6078 48.4598 53.0571 48.4065 53.6634C48.3516 54.2664 48.7944 54.8001 49.3969 54.8579C50.5061 54.9581 51.6506 55.004 52.8 55.004C55.694 55.004 58.4978 54.6869 60.7901 54.0845C61.3744 53.9282 61.7229 53.3293 61.5699 52.7439C61.4427 52.2636 61.0097 51.928 60.5129 51.9251Z" fill="#4FA83D"></path></svg>