<svg xmlns="http://www.w3.org/2000/svg" width="63" height="64" viewBox="0 0 63 64" fill="none"><rect x="0.0351562" y="0.914062" width="62.37" height="62.37" rx="31.185" fill="url(#paint0_linear_1572_25733)" fill-opacity="0.7"></rect><path d="M20.1924 14.0795C19.8455 14.1734 19.3613 14.6432 19.1734 15.0406L19 15.4092V32.5V49.5908L19.1734 49.9594C19.3686 50.3785 19.8527 50.8266 20.2213 50.9277C20.3875 50.9711 23.5744 51 28.9365 51H37.3916L37.7602 50.8266C37.9625 50.7326 38.2299 50.5303 38.3527 50.3785C38.7936 49.8438 38.8008 49.7787 38.8008 45.5656V41.75H38.1504H37.5V42.6533V43.5566H28.9004H20.3008V30.9463V18.3359H28.9004H37.5V19.2754V20.2148H38.1504H38.8008V17.9168C38.8008 15.3658 38.7646 15.1201 38.3527 14.6215C38.2299 14.4697 37.9625 14.2674 37.7602 14.1734L37.3916 14L28.9004 14.0072C24.2176 14.0072 20.308 14.0434 20.1924 14.0795ZM37.2904 15.4381C37.4494 15.5609 37.4639 15.6404 37.4855 16.3053L37.5145 17.0352H28.9076H20.3008V16.3342C20.3008 15.7127 20.3225 15.6187 20.4598 15.467L20.6115 15.3008H28.8715C36.8857 15.3008 37.1242 15.308 37.2904 15.4381ZM37.4855 47.141L37.4639 49.4246L37.2904 49.5619C37.1242 49.692 36.8857 49.6992 28.8787 49.6992H20.6332L20.467 49.5402L20.3008 49.3885V47.1193V44.8574H28.9004H37.5072L37.4855 47.141Z" fill="#C8C8C8"></path><path d="M27.0215 47.3145V47.9648H28.9004H30.7793V47.3145V46.6641H28.9004H27.0215V47.3145Z" fill="#C8C8C8"></path><path fill-rule="evenodd" clip-rule="evenodd" d="M28.7271 25.0078L32.1613 23.8652C32.8444 23.6397 33.4835 23.4281 34.0223 23.2497C34.9757 22.9341 35.6148 22.7225 35.6268 22.7225C35.6455 22.7162 37.2253 23.2283 39.1422 23.8589L42.6264 25.0016L42.6015 27.9363L42.6012 27.9661C42.5765 30.8215 42.5759 30.8861 42.4141 31.6266C41.9021 33.9681 40.8281 35.91 39.161 37.5085C38.4429 38.1954 37.7997 38.6574 36.6071 39.3568L35.683 39.9L34.9212 39.4629C33.3539 38.57 32.4236 37.8457 31.5556 36.8654C30.5566 35.7352 29.7448 34.324 29.2828 32.9254C28.7957 31.433 28.6833 30.2591 28.7083 27.1308L28.7271 25.0078Z" fill="#C8C8C8"></path><defs><linearGradient id="paint0_linear_1572_25733" x1="-3.95566" y1="-2.02676" x2="42.2443" y2="55.7232" gradientUnits="userSpaceOnUse"><stop stop-color="#56B743"></stop><stop offset="1" stop-color="#083100"></stop></linearGradient></defs></svg>