<svg xmlns="http://www.w3.org/2000/svg" width="63" height="63" viewBox="0 0 63 63" fill="none"><rect width="62.37" height="62.37" rx="31.185" fill="url(#paint0_linear_2048_15627)" fill-opacity="0.7"></rect><path d="M28.6934 40.9699C23.2318 40.3381 18.1436 37.9312 13.1771 33.629C12.7658 33.2679 12.126 32.6737 11.7604 32.2977C11.0977 31.6207 11.0977 31.6207 11.0977 31.2221V30.8235L12.1488 29.8081C15.5766 26.4986 19.6365 23.979 23.8184 22.5724C24.8848 22.2114 26.5301 21.8128 27.7031 21.6323C28.9447 21.4367 32.243 21.4367 33.4922 21.6323C36.0668 22.0234 38.4662 22.8131 41.0332 24.0993C43.9049 25.5359 46.6623 27.5065 49.0465 29.8081L50.0977 30.8235V31.2296V31.6358L49.1684 32.5534C46.5861 35.0731 43.6916 37.1039 40.4771 38.6458C38.8014 39.4505 37.3846 39.9695 35.7469 40.3757C33.7816 40.8646 32.9895 40.9624 30.8262 40.9774C29.7979 40.9924 28.8381 40.9849 28.6934 40.9699ZM31.9078 39.3528C33.9873 39.067 36.1125 37.7507 37.3998 35.9531C38.908 33.8621 39.3193 31.0491 38.4814 28.6122C37.5141 25.8067 35.0689 23.7157 32.0906 23.1516C31.2984 23.0012 29.8969 23.0012 29.1047 23.1516C25.6922 23.7909 23.0566 26.4009 22.4092 29.7554C22.2797 30.4399 22.2568 31.8765 22.3711 32.576C22.7977 35.1483 24.5648 37.4649 26.9795 38.6157C28.5791 39.3753 30.1025 39.6085 31.9078 39.3528ZM23.0109 37.5777C22.173 36.6074 21.6094 35.6071 21.1904 34.3736C20.8324 33.3055 20.6953 32.4556 20.6953 31.2371C20.6953 30.0187 20.8324 29.1687 21.1904 28.1007C21.6094 26.8672 22.173 25.8668 23.0109 24.8966C23.4299 24.4077 23.4299 24.4002 23.1861 24.4829C22.6148 24.6784 20.8096 25.5284 19.8498 26.0624C18.235 26.965 16.4068 28.2286 15.0281 29.3793C14.1445 30.124 13.002 31.177 13.002 31.2447C13.002 31.3274 14.7844 32.9069 15.6604 33.5989C17.4352 34.9979 19.3471 36.2088 21.1828 37.1039C22.0359 37.5175 23.3004 38.0666 23.4223 38.0816C23.4299 38.0816 23.2471 37.856 23.0109 37.5777ZM38.7252 37.6981C40.9799 36.7503 43.3488 35.3213 45.535 33.5989C46.4109 32.9069 48.1934 31.3274 48.1934 31.2447C48.1934 31.2071 47.8582 30.8761 47.4545 30.5076C44.6057 27.9427 41.833 26.115 38.8014 24.8138C38.2682 24.5807 37.8111 24.3926 37.7883 24.3926C37.773 24.3926 37.9482 24.6183 38.1844 24.8966C39.0223 25.8668 39.5859 26.8672 40.0049 28.1007C40.3629 29.1687 40.5 30.0187 40.5 31.2371C40.5 32.4556 40.3629 33.3055 40.0049 34.3736C39.5859 35.6071 39.0223 36.6074 38.1844 37.5777C37.9482 37.856 37.7654 38.0816 37.7883 38.0816C37.8035 38.0816 38.2301 37.9087 38.7252 37.6981Z" fill="#CFCFCF"></path><path d="M29.4759 35.0408C27.8969 34.4951 26.9082 33.0321 26.9082 31.2369C26.9082 28.9672 28.4798 27.2827 30.5974 27.2827C32.715 27.2827 34.2866 28.9672 34.2866 31.2369C34.2866 33.0321 33.2831 34.5189 31.7115 35.0329C31.0991 35.2385 30.0661 35.2385 29.4759 35.0408Z" fill="#CFCFCF"></path><defs><linearGradient id="paint0_linear_2048_15627" x1="-3.99082" y1="-2.94082" x2="42.2092" y2="54.8092" gradientUnits="userSpaceOnUse"><stop stop-color="#56B743"></stop><stop offset="1" stop-color="#083100"></stop></linearGradient></defs></svg>