<svg xmlns="http://www.w3.org/2000/svg" width="226.172" height="116.961" viewBox="0 0 226.172 116.961"><g id="Group_3652" data-name="Group 3652" transform="translate(-131 -1022.769)"><g id="Group_3419" data-name="Group 3419" transform="translate(131 1022.769)"><rect id="Rectangle_3537" data-name="Rectangle 3537" width="197.254" height="78.323" rx="13" transform="translate(0 0)" fill="#cae2bc"/><g id="Group_3416" data-name="Group 3416" transform="translate(21.216 20.792)"><path id="Path_14017" data-name="Path 14017" d="M415.478,696.065V659.326H422.9v14.459H437.43V659.326h7.417v36.739H437.43V680H422.9v16.064Z" transform="translate(-415.478 -659.326)" fill="#59a52c"/><path id="Path_14018" data-name="Path 14018" d="M456.154,696.065V665.541h-10.9v-6.215h29.195v6.215H463.572v30.524Z" transform="translate(-401.865 -659.326)" fill="#59a52c"/><path id="Path_14019" data-name="Path 14019" d="M483.831,696.065V665.541h-10.9v-6.215h29.194v6.215H491.25v30.524Z" transform="translate(-389.212 -659.326)" fill="#59a52c"/><path id="Path_14020" data-name="Path 14020" d="M502.414,696.065V659.326h11.9a43.04,43.04,0,0,1,8.82.552,9.626,9.626,0,0,1,5.288,3.6,11.408,11.408,0,0,1,2.129,7.154,12,12,0,0,1-1.227,5.689,10.076,10.076,0,0,1-3.12,3.621,10.75,10.75,0,0,1-3.847,1.741,42.309,42.309,0,0,1-7.694.526h-4.837v13.86Zm7.417-30.524v10.425h4.06a19.226,19.226,0,0,0,5.864-.575,4.878,4.878,0,0,0,2.318-1.8,4.943,4.943,0,0,0,.839-2.857,4.745,4.745,0,0,0-1.178-3.308,5.13,5.13,0,0,0-2.983-1.629,35.783,35.783,0,0,0-5.338-.251Z" transform="translate(-375.732 -659.326)" fill="#59a52c"/></g></g><path id="Path_14051" data-name="Path 14051" d="M33.279,0A32.568,32.568,0,0,1,66.144,32.858,33.585,33.585,0,0,1,32.866,66.144,32.568,32.568,0,0,1,0,33.287,33.585,33.585,0,0,1,33.279,0Z" transform="translate(280.712 1128.56) rotate(-80.783)" fill="#59a52c" stroke="#fff" stroke-width="1"/><g id="Icon_feather-upload" data-name="Icon feather-upload" transform="translate(306.212 1085.769)"><path id="Path_14034" data-name="Path 14034" d="M36.418,17.459,23.459,4.5,10.5,17.459" transform="translate(-10.5 -4.5)" fill="none" stroke="#fff" stroke-linecap="round" stroke-linejoin="round" stroke-width="4"/><path id="Path_14035" data-name="Path 14035" d="M18,4.5V35.6" transform="translate(-5.041 -4.5)" fill="none" stroke="#fff" stroke-linecap="round" stroke-linejoin="round" stroke-width="4"/></g></g></svg>