<svg xmlns="http://www.w3.org/2000/svg" width="24" height="18" viewBox="0 0 24 18" fill="none"><rect x="2.08203" y="4.57715" width="10.7167" height="6.45081" fill="#4FA83D"></rect><rect x="14.1484" y="4.57715" width="7.8034" height="0.832362" fill="#4FA83D"></rect><rect x="14.1484" y="6.34668" width="7.8034" height="0.832362" fill="#4FA83D"></rect><rect x="14.1484" y="8.11621" width="7.8034" height="0.832362" fill="#4FA83D"></rect><rect x="14.1484" y="9.88379" width="7.8034" height="0.832362" fill="#4FA83D"></rect><rect x="0.726562" y="0.520508" width="22.1616" height="1.97686" fill="#CAE2BC"></rect><path d="M0.726562 2.70508H23.2003" stroke="#4FA83D" stroke-width="0.520226"></path><path d="M16.4414 1.66504H18.0021" stroke="#4FA83D" stroke-width="0.520226"></path><path d="M18.4141 1.66504H19.9747" stroke="#4FA83D" stroke-width="0.520226"></path><path d="M20.3906 1.66504H21.9513" stroke="#4FA83D" stroke-width="0.520226"></path><path fill-rule="evenodd" clip-rule="evenodd" d="M1.66261 0.520226H22.1595C22.5618 0.520226 22.8878 0.846304 22.8878 1.24854V12.9016C22.8878 13.3039 22.5618 13.6299 22.1595 13.6299H13.2186V14.1502H22.1595C22.8491 14.1502 23.4081 13.5912 23.4081 12.9016V1.24854C23.4081 0.558992 22.8491 0 22.1595 0H1.66261C0.973054 0 0.414062 0.558993 0.414062 1.24854V6.36313H0.934289V1.24854C0.934289 0.846306 1.26037 0.520226 1.66261 0.520226Z" fill="#4FA83D"></path><circle cx="5.9826" cy="12.0168" r="5.72249" fill="#CAE2BC" stroke="#4FA83D" stroke-width="0.520226"></circle><path fill-rule="evenodd" clip-rule="evenodd" d="M8.51072 14.9825C9.33731 14.2784 9.86157 13.23 9.86157 12.0591C9.86157 9.93904 8.14295 8.22042 6.02293 8.22042C3.90291 8.22042 2.18429 9.93904 2.18429 12.0591C2.18429 13.23 2.70855 14.2784 3.53514 14.9825H2.78976C2.09016 14.2093 1.66406 13.1839 1.66406 12.0591C1.66406 9.65173 3.61559 7.7002 6.02293 7.7002C8.43027 7.7002 10.3818 9.65173 10.3818 12.0591C10.3818 13.1839 9.9557 14.2093 9.2561 14.9825H8.51072Z" fill="#4FA83D"></path><path fill-rule="evenodd" clip-rule="evenodd" d="M8.50581 13.9069L8.28411 14.1676L6.36082 13.0158L6.38908 12.9826C5.99136 13.1677 5.50517 13.1177 5.14909 12.8149C4.66177 12.4005 4.60268 11.6695 5.0171 11.1822C5.43153 10.6948 6.16254 10.6357 6.64986 11.0502C7.00594 11.353 7.13339 11.8248 7.01453 12.2471L7.04299 12.2137L8.50581 13.9069Z" fill="#4FA83D"></path><path fill-rule="evenodd" clip-rule="evenodd" d="M2.75282 12.8068L3.23798 12.5407C3.18434 12.1051 3.23465 11.666 3.37859 11.259L3.06177 10.6812C2.73135 11.3292 2.61676 12.0775 2.75282 12.8068ZM8.78504 12.7296L9.23005 13.1045C9.44486 12.3467 9.39258 11.5128 9.02855 10.756L8.65395 11.2007C8.844 11.7002 8.88204 12.2292 8.78504 12.7296ZM4.80473 9.09908C5.58585 8.78976 6.43114 8.79675 7.18088 9.07344L6.82017 9.50166C6.25446 9.33512 5.63671 9.34563 5.05722 9.55952L4.80473 9.09908Z" fill="#4FA83D"></path></svg>