<svg xmlns="http://www.w3.org/2000/svg" width="26" height="26" viewBox="0 0 26 26" fill="none"><path d="M12.6516 0.161677L11.3516 1.89468L12.0446 2.41468L12.5646 1.72168V5.18868H13.4316V1.72168L13.9516 2.41468L14.6446 1.89468L13.3446 0.161677C13.2684 0.0702304 13.1591 0.0127556 13.0406 0.00188017C12.9221 -0.00899522 12.8041 0.0276185 12.7126 0.103677C12.6905 0.121109 12.6701 0.140524 12.6516 0.161677Z" fill="#4FA83D"></path><path d="M13.4316 24.2551V20.7881H12.5646V24.2551L12.0446 23.5621L11.3516 24.0821L12.6516 25.8151C12.6919 25.8689 12.7442 25.9126 12.8044 25.9427C12.8645 25.9727 12.9308 25.9884 12.9981 25.9884C13.0653 25.9884 13.1316 25.9727 13.1918 25.9427C13.2519 25.9126 13.3042 25.8689 13.3446 25.8151L14.6446 24.0821L13.9516 23.5621L13.4316 24.2551Z" fill="#4FA83D"></path><path d="M13.4334 6.05469H12.5664V6.92169H13.4334V6.05469Z" fill="#4FA83D"></path><path d="M13.4334 19.0547H12.5664V19.9217H13.4334V19.0547Z" fill="#4FA83D"></path><path d="M5.20033 13.4218V12.5548H1.73333L2.42633 12.0348L1.90633 11.3418L0.173333 12.6418C0.119518 12.6821 0.0758367 12.7344 0.0457503 12.7946C0.0156639 12.8547 0 12.921 0 12.9883C0 13.0555 0.0156639 13.1219 0.0457503 13.182C0.0758367 13.2422 0.119518 13.2945 0.173333 13.3348L1.90633 14.6348L2.42633 13.9418L1.73333 13.4218H5.20033Z" fill="#4FA83D"></path><path d="M25.8278 12.6418L24.0948 11.3418L23.5748 12.0348L24.2678 12.5548H20.8008V13.4218H24.2678L23.5748 13.9418L24.0948 14.6348L25.8278 13.3348C25.8816 13.2945 25.9253 13.2422 25.9554 13.182C25.9854 13.1219 26.0011 13.0555 26.0011 12.9883C26.0011 12.921 25.9854 12.8547 25.9554 12.7946C25.9253 12.7344 25.8816 12.6821 25.8278 12.6418Z" fill="#4FA83D"></path><path d="M6.93341 12.5547H6.06641V13.4217H6.93341V12.5547Z" fill="#4FA83D"></path><path d="M19.9334 12.5547H19.0664V13.4217H19.9334V12.5547Z" fill="#4FA83D"></path><path d="M4.85028 6.18472L4.72828 5.32672L7.17928 7.77772L7.79228 7.16472L5.33628 4.71372L6.19428 4.83572L6.31729 3.97772L4.17228 3.67072C4.11601 3.66235 4.05864 3.66517 4.00345 3.67899C3.94826 3.69281 3.89634 3.71736 3.85065 3.75126C3.80496 3.78516 3.76639 3.82773 3.73716 3.87654C3.70793 3.92534 3.6886 3.97943 3.68028 4.03572C3.67428 4.07784 3.67428 4.1206 3.68028 4.16272L3.98628 6.30772L4.85028 6.18472Z" fill="#4FA83D"></path><path d="M21.149 19.7903L21.271 20.6483L18.82 18.1973L18.207 18.8103L20.6581 21.2613L19.801 21.1383L19.678 21.9963L21.823 22.3023C21.8437 22.3038 21.8644 22.3038 21.885 22.3023C21.9999 22.3023 22.11 22.2566 22.1912 22.1754C22.2724 22.0942 22.318 21.9841 22.318 21.8693C22.3196 21.8486 22.3196 21.8279 22.318 21.8073L22.012 19.6623L21.149 19.7903Z" fill="#4FA83D"></path><path d="M8.40256 9.00564L9.01562 8.39258L8.40256 7.77952L7.7895 8.39258L8.40256 9.00564Z" fill="#4FA83D"></path><path d="M17.5979 18.198L18.2109 17.585L17.5979 16.9719L16.9848 17.585L17.5979 18.198Z" fill="#4FA83D"></path><path d="M7.17908 18.1963L4.72808 20.6473L4.85007 19.7893L3.99208 19.6663L3.68407 21.8113C3.66778 21.925 3.69727 22.0406 3.76607 22.1327C3.83487 22.2247 3.93737 22.2857 4.05108 22.3023C4.09188 22.308 4.13328 22.308 4.17408 22.3023L6.31908 21.9963L6.19608 21.1383L5.33807 21.2603L7.78908 18.8093L7.17908 18.1963Z" fill="#4FA83D"></path><path d="M18.8239 7.77835L21.2749 5.32735L21.1529 6.18435L22.0109 6.30735L22.3169 4.16235C22.3265 4.09565 22.3203 4.02766 22.299 3.96374C22.2777 3.89983 22.2418 3.84174 22.1942 3.7941C22.1465 3.74646 22.0885 3.71057 22.0245 3.68927C21.9606 3.66796 21.8926 3.66183 21.8259 3.67135L19.6809 3.97735L19.8039 4.83535L20.6619 4.71335L18.2109 7.16435L18.8239 7.77835Z" fill="#4FA83D"></path><path d="M8.40647 18.197L9.01953 17.584L8.40647 16.9709L7.79341 17.584L8.40647 18.197Z" fill="#4FA83D"></path><path d="M17.5979 9.00466L18.2109 8.3916L17.5979 7.77854L16.9848 8.3916L17.5979 9.00466Z" fill="#4FA83D"></path><path d="M14.0916 11.0357H15.8356C15.8621 11.0357 15.8875 11.0251 15.9063 11.0064C15.925 10.9876 15.9356 10.9622 15.9356 10.9357C15.9359 10.8519 15.9178 10.7691 15.8823 10.6932C15.8469 10.6172 15.795 10.5501 15.7306 10.4967L14.2636 9.28165C14.1526 9.18946 14.0128 9.1392 13.8686 9.13965C13.8499 9.13952 13.8314 9.1431 13.8141 9.15019C13.7968 9.15728 13.7811 9.16773 13.7679 9.18095C13.7546 9.19416 13.7442 9.20987 13.7371 9.22715C13.73 9.24444 13.7264 9.26297 13.7266 9.28165V10.6717C13.7266 10.7195 13.736 10.767 13.7544 10.8112C13.7727 10.8554 13.7996 10.8956 13.8335 10.9294C13.8674 10.9632 13.9077 10.99 13.952 11.0082C13.9962 11.0265 14.0437 11.0358 14.0916 11.0357Z" fill="#CAE2BC"></path><path d="M13.2285 10.6717V9.13867H10.7185C10.5561 9.1392 10.4004 9.20395 10.2856 9.3188C10.1707 9.43364 10.106 9.58926 10.1055 9.75167V16.1897C10.106 16.3521 10.1707 16.5077 10.2856 16.6225C10.4004 16.7374 10.5561 16.8021 10.7185 16.8027H15.3185C15.4809 16.8021 15.6365 16.7374 15.7513 16.6225C15.8662 16.5077 15.9309 16.3521 15.9315 16.1897V11.5347H14.0925C13.8635 11.5347 13.6439 11.4438 13.4819 11.282C13.3199 11.1202 13.2287 10.9006 13.2285 10.6717Z" fill="#CAE2BC"></path></svg>