<svg xmlns="http://www.w3.org/2000/svg" width="18" height="21" viewBox="0 0 18 21" fill="none"><path d="M1.16797 2.72363L9.00391 0.598633L17.1055 3.12207V9.49707L15.3789 15.208L12.0586 18.5283L9.00391 19.7236L6.61328 19.0596L4.35547 16.9346L2.62891 14.8096L1.16797 11.0908V7.90332V2.72363Z" fill="#CADFBD"></path><path d="M9.77418 0.264692C10.1398 0.374156 10.5591 0.497594 10.7058 0.541845C11.111 0.660625 15.0238 1.81349 16.1999 2.16051C16.7682 2.3282 17.269 2.48192 17.3109 2.50055C17.3551 2.52151 17.4134 2.57741 17.4413 2.62399L17.4949 2.70783L17.5019 5.53759C17.5112 8.94727 17.4949 9.37814 17.3179 10.4518C16.7659 13.8172 15.0145 16.7588 12.4479 18.6337C11.7702 19.1274 11.0132 19.5513 10.2074 19.889C9.81145 20.0544 9.11973 20.2803 9.01259 20.2803C8.91245 20.2803 8.5398 20.1685 8.12058 20.0124C5.58195 19.0669 3.40898 17.1012 2.06047 14.5346C1.22669 12.9462 0.74225 11.2996 0.562915 9.42705C0.532638 9.094 0.488388 6.64853 0.509349 6.57167C0.562916 6.37604 0.781845 6.25027 0.970495 6.30617C1.08695 6.3411 1.19408 6.44824 1.22669 6.56003C1.23833 6.60661 1.24998 6.75101 1.24998 6.8791C1.24998 7.34491 1.35012 9.82065 1.45027 10.4052C1.82524 12.6015 2.72657 14.5858 4.09371 16.2301C4.36387 16.5538 5.02066 17.2246 5.33507 17.4924C6.32491 18.3449 7.51969 19.0273 8.70982 19.4209L9.00794 19.5187L9.30372 19.4209C12.1498 18.4753 14.5067 16.1952 15.7714 13.1651C16.1906 12.159 16.5074 10.9665 16.6425 9.86956C16.731 9.15455 16.7379 8.89603 16.7379 5.96846V3.10144L16.0555 2.90114C15.6829 2.79168 13.9431 2.27929 12.1917 1.76225L9.00794 0.825986L8.03441 1.11246C7.49873 1.27083 6.76276 1.48743 6.39711 1.59456C6.03145 1.7017 5.58195 1.83445 5.39563 1.89035C5.20931 1.94391 4.2055 2.2397 3.16443 2.54713L1.27327 3.10377V4.82724C1.27327 5.88694 1.26395 6.58099 1.24998 6.6299C1.21737 6.74402 1.10092 6.85581 0.97981 6.88842C0.891307 6.91404 0.861031 6.91171 0.777186 6.8791C0.64909 6.83019 0.562916 6.73936 0.530309 6.62058C0.495374 6.49016 0.495374 2.87319 0.530309 2.73345C0.544283 2.6729 0.586205 2.60303 0.628128 2.5611C0.709643 2.48192 0.581548 2.52151 3.69545 1.60388C8.39773 0.220442 8.93341 0.0643967 9.01958 0.0667257C9.06849 0.0667257 9.40853 0.157557 9.77418 0.264692Z" fill="#4FA83D"></path><path fill-rule="evenodd" clip-rule="evenodd" d="M5.66691 12.6975C5.66691 12.6975 5.66607 12.6997 5.66691 12.6997C7.01606 12.6997 7.38042 11.9906 7.70221 11.3643C7.95668 10.8691 8.18452 10.4257 8.85168 10.4257C9.51892 10.4257 9.74674 10.8688 10.0012 11.3638C10.323 11.9897 10.6874 12.6985 12.0364 12.6997C12.0373 12.6997 12.0364 12.6975 12.0364 12.6975C13.4641 12.6975 14.6721 11.389 14.6721 9.85718C14.6721 8.32537 13.5018 7.07656 12.0364 7.01688V7.01465H5.66691V7.01688C4.20154 7.07656 3.03125 8.32537 3.03125 9.85718C3.03125 11.389 4.20154 12.6378 5.66691 12.6975ZM5.44728 8.60647C5.3433 8.60647 5.25901 8.69373 5.25901 8.80138V9.77597H4.31771C4.21373 9.77597 4.12944 9.86323 4.12944 9.97088C4.12944 10.0785 4.21373 10.1658 4.31771 10.1658H5.25901V11.1404C5.25901 11.248 5.3433 11.3353 5.44728 11.3353C5.55125 11.3353 5.63554 11.248 5.63554 11.1404V10.1658H6.57685C6.68082 10.1658 6.76511 10.0785 6.76511 9.97088C6.76511 9.86323 6.68082 9.77597 6.57685 9.77597H5.63554V8.80138C5.63554 8.69373 5.55125 8.60647 5.44728 8.60647ZM12.1463 9.28868C12.4495 9.28868 12.6954 9.03415 12.6954 8.72017C12.6954 8.40619 12.4495 8.15166 12.1463 8.15166C11.843 8.15166 11.5972 8.40619 11.5972 8.72017C11.5972 9.03415 11.843 9.28868 12.1463 9.28868ZM12.6954 10.9942C12.6954 11.3082 12.4495 11.5627 12.1463 11.5627C11.843 11.5627 11.5972 11.3082 11.5972 10.9942C11.5972 10.6802 11.843 10.4257 12.1463 10.4257C12.4495 10.4257 12.6954 10.6802 12.6954 10.9942ZM11.0481 10.4257C11.3513 10.4257 11.5972 10.1712 11.5972 9.85718C11.5972 9.5432 11.3513 9.28868 11.0481 9.28868C10.7448 9.28868 10.499 9.5432 10.499 9.85718C10.499 10.1712 10.7448 10.4257 11.0481 10.4257ZM13.7935 9.85718C13.7935 10.1712 13.5477 10.4257 13.2445 10.4257C12.9412 10.4257 12.6954 10.1712 12.6954 9.85718C12.6954 9.5432 12.9412 9.28868 13.2445 9.28868C13.5477 9.28868 13.7935 9.5432 13.7935 9.85718ZM7.8633 7.69686C7.742 7.69686 7.64366 7.79867 7.64366 7.92426C7.64366 8.04985 7.742 8.15166 7.8633 8.15166H10.0597C10.181 8.15166 10.2793 8.04985 10.2793 7.92426C10.2793 7.79867 10.181 7.69686 10.0597 7.69686H7.8633Z" fill="#4FA83D"></path></svg>