<svg xmlns="http://www.w3.org/2000/svg" width="22" height="15" viewBox="0 0 22 15" fill="none"><rect x="16.6484" y="8.51953" width="5.11174" height="4.25979" rx="2.12989" fill="#CAE2BC"></rect><rect x="9.83203" y="8.51953" width="3.40783" height="4.25979" rx="0.851958" fill="#CAE2BC"></rect><rect x="13.2422" y="7.66797" width="4.25979" height="1.70391" rx="0.851957" fill="#CAE2BC"></rect><path fill-rule="evenodd" clip-rule="evenodd" d="M0.460938 6.10463C0.460938 6.02743 0.523524 5.96484 0.600728 5.96484H15.6564C15.7336 5.96484 15.7962 6.02743 15.7962 6.10463V6.87653H11.4434V6.87932C9.6134 6.95385 8.15192 8.5134 8.15192 10.4264C8.15192 10.6485 8.17162 10.8658 8.20931 11.0766H0.600728C0.523524 11.0766 0.460938 11.014 0.460938 10.9368V6.10463Z" fill="#CAE2BC"></path><path fill-rule="evenodd" clip-rule="evenodd" d="M11.9275 14.0221V14.0246C13.436 14.0246 13.8434 13.2318 14.2032 12.5315C14.4877 11.9778 14.7425 11.482 15.4885 11.482C16.2345 11.482 16.4893 11.9774 16.7738 12.5309C17.1336 13.2307 17.5411 14.0232 19.0495 14.0246V14.0221C20.6458 14.0221 21.9965 12.5591 21.9965 10.8463C21.9965 9.13353 20.688 7.7372 19.0495 7.67046V7.66797H11.9275V7.67046C10.289 7.7372 8.98047 9.13353 8.98047 10.8463C8.98047 12.5591 10.289 13.9554 11.9275 14.0221ZM11.6819 9.44783C11.5656 9.44783 11.4714 9.54541 11.4714 9.66578V10.7555H10.4189C10.3026 10.7555 10.2084 10.8531 10.2084 10.9734C10.2084 11.0938 10.3026 11.1914 10.4189 11.1914H11.4714V12.2811C11.4714 12.4015 11.5656 12.499 11.6819 12.499C11.7982 12.499 11.8924 12.4015 11.8924 12.2811V11.1914H12.9449C13.0612 11.1914 13.1554 11.0938 13.1554 10.9734C13.1554 10.8531 13.0612 10.7555 12.9449 10.7555H11.8924V9.66578C11.8924 9.54541 11.7982 9.44783 11.6819 9.44783ZM19.1723 10.2106C19.5113 10.2106 19.7862 9.92604 19.7862 9.57497C19.7862 9.2239 19.5113 8.9393 19.1723 8.9393C18.8332 8.9393 18.5583 9.2239 18.5583 9.57497C18.5583 9.92604 18.8332 10.2106 19.1723 10.2106ZM19.7862 12.1176C19.7862 12.4687 19.5113 12.7533 19.1723 12.7533C18.8332 12.7533 18.5583 12.4687 18.5583 12.1176C18.5583 11.7666 18.8332 11.482 19.1723 11.482C19.5113 11.482 19.7862 11.7666 19.7862 12.1176ZM17.9443 11.482C18.2834 11.482 18.5583 11.1974 18.5583 10.8463C18.5583 10.4952 18.2834 10.2106 17.9443 10.2106C17.6052 10.2106 17.3304 10.4952 17.3304 10.8463C17.3304 11.1974 17.6052 11.482 17.9443 11.482ZM21.0141 10.8463C21.0141 11.1974 20.7393 11.482 20.4002 11.482C20.0611 11.482 19.7862 11.1974 19.7862 10.8463C19.7862 10.4952 20.0611 10.2106 20.4002 10.2106C20.7393 10.2106 21.0141 10.4952 21.0141 10.8463ZM14.3833 8.43077C14.2477 8.43077 14.1378 8.54461 14.1378 8.68503C14.1378 8.82546 14.2477 8.9393 14.3833 8.9393H16.8392C16.9748 8.9393 17.0848 8.82546 17.0848 8.68503C17.0848 8.54461 16.9748 8.43077 16.8392 8.43077H14.3833Z" fill="#4FA83D"></path><rect x="0.460938" width="15.3352" height="5.11174" rx="0.13979" fill="#CAE2BC"></rect><circle cx="9.93992" cy="2.34714" r="0.576635" fill="#4FA83D"></circle><circle cx="11.4087" cy="2.34714" r="0.576635" fill="#4FA83D"></circle><circle cx="12.8735" cy="2.34714" r="0.576635" fill="#4FA83D"></circle><rect x="2.16797" y="0.853516" width="0.608541" height="3.40783" rx="0.304271" fill="#4FA83D"></rect><rect x="3.31641" y="0.853516" width="0.608541" height="3.40783" rx="0.304271" fill="#4FA83D"></rect><rect x="4.46484" y="0.853516" width="0.608541" height="3.40783" rx="0.304271" fill="#4FA83D"></rect><rect x="2.16797" y="6.81445" width="0.608541" height="3.40783" rx="0.304271" fill="#4FA83D"></rect><rect x="3.31641" y="6.81445" width="0.608541" height="3.40783" rx="0.304271" fill="#4FA83D"></rect><rect x="4.46484" y="6.81445" width="0.608541" height="3.40783" rx="0.304271" fill="#4FA83D"></rect></svg>