<svg xmlns="http://www.w3.org/2000/svg" width="18" height="20" viewBox="0 0 18 20" fill="none"><path d="M10.2636 4.53038C10.1928 4.50095 10.116 4.48907 10.0399 4.49577C9.96382 4.50246 9.89061 4.52752 9.82658 4.56881C9.76256 4.61009 9.70962 4.66637 9.67232 4.73281C9.63502 4.79924 9.61446 4.87386 9.6124 4.95026L9.52621 8.18831L8.65939 8.75858L7.77729 8.19837L7.60361 4.96182C7.5995 4.88545 7.57692 4.81108 7.53783 4.74509C7.49874 4.67909 7.44429 4.62343 7.37916 4.58289C7.31403 4.54235 7.24015 4.51813 7.16388 4.51231C7.0876 4.5065 7.01119 4.51926 6.94121 4.5495C6.30346 4.82511 5.74439 5.25364 5.31311 5.79744C4.88184 6.34123 4.59156 6.98365 4.46779 7.66824C4.34402 8.35283 4.39054 9.05864 4.60326 9.72365C4.81598 10.3887 5.1884 10.9925 5.68778 11.4822C6.10887 11.8963 6.61024 12.2197 7.16053 12.4322L6.8834 17.1244C6.8823 17.1357 6.88245 17.1474 6.88219 17.1587C6.88896 17.6602 7.09469 18.14 7.45411 18.4925C7.63207 18.6671 7.84241 18.8052 8.07312 18.8989C8.30383 18.9926 8.55038 19.0401 8.79871 19.0387C9.04703 19.0372 9.29227 18.9869 9.52041 18.8906C9.74854 18.7942 9.95512 18.6537 10.1283 18.4772C10.4782 18.1205 10.6709 17.6384 10.6641 17.1369C10.664 17.1261 10.6634 17.114 10.6624 17.1031L10.2573 12.4144C10.913 12.1536 11.492 11.7329 11.942 11.1904C12.3919 10.6479 12.6985 10.0007 12.8341 9.30744C12.9697 8.61415 12.9299 7.89666 12.7184 7.21992C12.5069 6.54318 12.1304 5.92856 11.6228 5.4317C11.2316 5.04666 10.77 4.74057 10.2636 4.53038ZM11.0266 10.783C10.6358 11.1803 10.15 11.4716 9.61449 11.6297C9.51074 11.6603 9.42095 11.7257 9.36016 11.815C9.29937 11.9043 9.27127 12.0119 9.28058 12.12L9.71802 17.1579C9.71503 17.4043 9.61586 17.6391 9.44164 17.8122C9.26742 17.9853 9.03193 18.083 8.7854 18.0844C8.53886 18.0858 8.30077 17.9909 8.1219 17.8198C7.94303 17.6488 7.83752 17.4151 7.82788 17.1687L8.12748 12.1291C8.13394 12.0209 8.10293 11.9134 8.03964 11.8247C7.97636 11.7361 7.88466 11.6717 7.77995 11.6423C7.17919 11.4735 6.63697 11.1389 6.21562 10.6771C5.79427 10.2153 5.5109 9.64496 5.39808 9.0317C5.28527 8.41845 5.34759 7.78714 5.57788 7.21038C5.80817 6.63362 6.19709 6.1348 6.69991 5.77129L6.84565 8.48658C6.84975 8.56218 6.87194 8.63582 6.91034 8.70132C6.94874 8.76683 7.00224 8.82228 7.06634 8.86301L8.41456 9.71885C8.49167 9.7678 8.5811 9.79356 8.67211 9.79304C8.76312 9.79251 8.85184 9.76573 8.92762 9.7159L10.2533 8.84384C10.3163 8.80238 10.3683 8.74632 10.4049 8.68038C10.4416 8.61445 10.4618 8.54056 10.4638 8.46493L10.5362 5.74838C10.9317 6.02529 11.2629 6.38457 11.5066 6.80123C11.7504 7.2179 11.9008 7.68194 11.9475 8.16109C11.9942 8.64025 11.936 9.12301 11.7769 9.5758C11.6179 10.0286 11.3619 10.4405 11.0266 10.783Z" fill="#4FA83D"></path><path fill-rule="evenodd" clip-rule="evenodd" d="M15.6297 8.40049C15.6328 8.28888 15.6328 8.17727 15.6297 8.06567L16.7861 6.62098C16.8467 6.54512 16.8887 6.45609 16.9086 6.36105C16.9285 6.26601 16.9259 6.16761 16.9008 6.07379C16.7112 5.36122 16.4277 4.67704 16.0575 4.03929C16.0091 3.95583 15.9418 3.88484 15.8611 3.83196C15.7804 3.77908 15.6884 3.74578 15.5925 3.7347L13.7541 3.53009C13.6776 3.44948 13.6001 3.37198 13.5216 3.29757L13.3046 1.45451C13.2934 1.35857 13.26 1.26656 13.207 1.18582C13.154 1.10509 13.0828 1.03785 12.9992 0.989479C12.3612 0.62005 11.6771 0.33676 10.9647 0.147002C10.8708 0.122043 10.7724 0.11949 10.6774 0.139549C10.5823 0.159608 10.4933 0.201718 10.4175 0.262484L8.97671 1.41266H8.64189L7.1972 0.258609C7.12135 0.197976 7.03231 0.156006 6.93727 0.136082C6.84223 0.116158 6.74383 0.118837 6.65002 0.143902C5.93755 0.333809 5.25342 0.617365 4.61551 0.987154C4.53206 1.03561 4.46106 1.10289 4.40818 1.18362C4.3553 1.26435 4.322 1.35631 4.31092 1.45218L4.10631 3.2937C4.0257 3.37068 3.9482 3.44819 3.87379 3.52621L2.03073 3.7378C1.93479 3.74896 1.84278 3.78238 1.76204 3.8354C1.68131 3.88842 1.61407 3.95956 1.5657 4.04317C1.19627 4.68116 0.912982 5.36528 0.723224 6.07767C0.698265 6.17155 0.695712 6.26997 0.715771 6.36502C0.73583 6.46006 0.77794 6.54907 0.838706 6.62485L1.98888 8.06567V8.40049L0.834831 9.84518C0.774197 9.92103 0.732228 10.0101 0.712304 10.1051C0.69238 10.2001 0.695059 10.2985 0.720123 10.3924C0.909692 11.1049 1.19327 11.7891 1.56338 12.4269C1.61184 12.5103 1.67911 12.5813 1.75984 12.6342C1.84057 12.6871 1.93253 12.7204 2.0284 12.7315L3.86682 12.9361C3.94381 13.0167 4.02131 13.0942 4.09933 13.1686L4.31402 15.0116C4.32518 15.1076 4.3586 15.1996 4.41162 15.2803C4.46464 15.3611 4.53579 15.4283 4.61939 15.4767C5.20926 15.8182 5.83857 16.0862 6.49319 16.2746V14.9784C6.15586 14.8622 5.82768 14.7208 5.51147 14.5551L5.31306 12.8059C5.29613 12.6533 5.22322 12.5125 5.10845 12.4106C4.94065 12.2614 4.78175 12.1025 4.63257 11.9347C4.53067 11.8199 4.38983 11.747 4.23729 11.7301L2.48723 11.5348C2.29207 11.1624 2.13048 10.7733 2.00438 10.3722L3.10417 8.99727C3.2002 8.8773 3.24826 8.72594 3.23903 8.57255C3.22585 8.3485 3.22585 8.12386 3.23903 7.89981C3.24826 7.74641 3.2002 7.59505 3.10417 7.47508L2.00438 6.09782C2.13058 5.69676 2.29216 5.3077 2.48723 4.93525L4.23652 4.73684C4.38906 4.7199 4.5299 4.647 4.63179 4.53222C4.78098 4.36443 4.93988 4.20553 5.10767 4.05634C5.2229 3.95438 5.29611 3.81322 5.31306 3.66029L5.5076 1.91101C5.88001 1.71585 6.26907 1.55426 6.67017 1.42816L8.0451 2.52795C8.16507 2.62398 8.31643 2.67204 8.46983 2.66281C8.69388 2.64963 8.91852 2.64963 9.14257 2.66281C9.29597 2.67204 9.44732 2.62398 9.5673 2.52795L10.9446 1.42816C11.3456 1.55435 11.7347 1.71594 12.1071 1.91101L12.3055 3.66029C12.3225 3.81284 12.3954 3.95368 12.5102 4.05557C12.6779 4.20476 12.8368 4.36366 12.986 4.53145C13.0879 4.64622 13.2288 4.71913 13.3813 4.73606L15.1314 4.9306C15.3265 5.30301 15.4881 5.69207 15.6142 6.09317L14.5144 7.4681C14.4175 7.58909 14.3694 7.742 14.3796 7.89671H14.3819C14.3951 8.12076 14.3951 8.34539 14.3819 8.56945C14.3727 8.72284 14.4207 8.8742 14.5168 8.99417L15.6165 10.3683C15.4903 10.7694 15.3288 11.1585 15.1337 11.5309L13.3821 11.7293C13.2295 11.7463 13.0887 11.8192 12.9868 11.9339C12.8376 12.1017 12.6787 12.2606 12.5109 12.4098C12.3962 12.5117 12.3232 12.6525 12.3063 12.8051L12.1118 14.5551C11.795 14.7211 11.4662 14.8628 11.1282 14.9791V16.2804C11.7834 16.092 12.4131 15.8237 13.0031 15.4813C13.0865 15.4329 13.1575 15.3656 13.2104 15.2849C13.2633 15.2041 13.2966 15.1122 13.3077 15.0163L13.5123 13.1779C13.5929 13.1014 13.6704 13.0239 13.7448 12.9454L15.5879 12.7284C15.6838 12.7172 15.7758 12.6838 15.8566 12.6308C15.9373 12.5777 16.0045 12.5066 16.0529 12.423C16.4223 11.785 16.7056 11.1009 16.8954 10.3885C16.9203 10.2946 16.9229 10.1962 16.9028 10.1011C16.8828 10.0061 16.8407 9.91709 16.7799 9.8413L15.6297 8.40049Z" fill="#4FA83D"></path></svg>