<svg xmlns="http://www.w3.org/2000/svg" width="23" height="23" viewBox="0 0 23 23" fill="none"><path d="M20.289 10.5293H1.955C1.43666 10.5298 0.93971 10.736 0.573191 11.1025C0.206672 11.469 0.000529455 11.966 0 12.4843L0 20.3043C0.000529455 20.8226 0.206672 21.3196 0.573191 21.6861C0.93971 22.0526 1.43666 22.2588 1.955 22.2593H20.289C20.8073 22.2588 21.3043 22.0526 21.6708 21.6861C22.0373 21.3196 22.2435 20.8226 22.244 20.3043V12.4843C22.2435 11.966 22.0373 11.469 21.6708 11.1025C21.3043 10.736 20.8073 10.5298 20.289 10.5293ZM5.909 19.6533H3.3C3.21434 19.6534 3.1295 19.6366 3.05033 19.6039C2.97117 19.5712 2.89924 19.5232 2.83867 19.4626C2.7781 19.4021 2.73008 19.3301 2.69736 19.251C2.66464 19.1718 2.64787 19.087 2.648 19.0013V13.7873C2.64096 13.6976 2.65254 13.6075 2.68202 13.5226C2.71149 13.4376 2.75822 13.3597 2.81926 13.2936C2.88031 13.2276 2.95435 13.1749 3.03674 13.1389C3.11913 13.1029 3.20808 13.0843 3.298 13.0843C3.38792 13.0843 3.47687 13.1029 3.55926 13.1389C3.64165 13.1749 3.71569 13.2276 3.77674 13.2936C3.83778 13.3597 3.88451 13.4376 3.91398 13.5226C3.94346 13.6075 3.95504 13.6976 3.948 13.7873V18.3493H5.909C5.99865 18.3423 6.08878 18.3538 6.17373 18.3833C6.25869 18.4128 6.33663 18.4595 6.40265 18.5206C6.46868 18.5816 6.52136 18.6556 6.5574 18.738C6.59343 18.8204 6.61203 18.9094 6.61203 18.9993C6.61203 19.0892 6.59343 19.1782 6.5574 19.2606C6.52136 19.3429 6.46868 19.417 6.40265 19.478C6.33663 19.5391 6.25869 19.5858 6.17373 19.6153C6.08878 19.6448 5.99865 19.6563 5.909 19.6493V19.6533ZM9.167 19.0013C9.15416 19.1649 9.08011 19.3176 8.95962 19.429C8.83914 19.5404 8.68109 19.6023 8.517 19.6023C8.35291 19.6023 8.19486 19.5404 8.07438 19.429C7.95389 19.3176 7.87984 19.1649 7.867 19.0013V13.7873C7.85996 13.6976 7.87154 13.6075 7.90102 13.5226C7.93049 13.4376 7.97722 13.3597 8.03826 13.2936C8.09931 13.2276 8.17335 13.1749 8.25574 13.1389C8.33813 13.1029 8.42708 13.0843 8.517 13.0843C8.60692 13.0843 8.69587 13.1029 8.77826 13.1389C8.86065 13.1749 8.93469 13.2276 8.99574 13.2936C9.05678 13.3597 9.10351 13.4376 9.13298 13.5226C9.16246 13.6075 9.17404 13.6976 9.167 13.7873V19.0013ZM14.361 13.9453L13.061 19.1593C13.0261 19.3005 12.9449 19.426 12.8303 19.5157C12.7158 19.6054 12.5745 19.6542 12.429 19.6542C12.2835 19.6542 12.1422 19.6054 12.0277 19.5157C11.9131 19.426 11.8319 19.3005 11.797 19.1593L10.497 13.9453C10.4551 13.7777 10.4815 13.6003 10.5704 13.4521C10.6593 13.304 10.8034 13.1972 10.971 13.1553C11.1386 13.1134 11.316 13.1398 11.4642 13.2287C11.6123 13.3176 11.7191 13.4617 11.761 13.6293L12.432 16.3133L13.1 13.6293C13.1207 13.5463 13.1576 13.4682 13.2086 13.3995C13.2595 13.3307 13.3235 13.2727 13.3968 13.2287C13.545 13.1398 13.7224 13.1134 13.89 13.1553C13.973 13.1761 14.0511 13.2129 14.1198 13.2639C14.1886 13.3148 14.2466 13.3788 14.2906 13.4521C14.3346 13.5255 14.3638 13.6068 14.3764 13.6914C14.3889 13.776 14.3847 13.8623 14.364 13.9453H14.361ZM18.943 15.7453C19.1066 15.7581 19.2593 15.8322 19.3707 15.9527C19.4821 16.0731 19.544 16.2312 19.544 16.3953C19.544 16.5594 19.4821 16.7174 19.3707 16.8379C19.2593 16.9584 19.1066 17.0325 18.943 17.0453H16.987V18.3453H18.942C19.0316 18.3383 19.1218 18.3498 19.2067 18.3793C19.2917 18.4088 19.3696 18.4555 19.4357 18.5166C19.5017 18.5776 19.5544 18.6517 19.5904 18.734C19.6264 18.8164 19.645 18.9054 19.645 18.9953C19.645 19.0852 19.6264 19.1742 19.5904 19.2566C19.5544 19.3389 19.5017 19.413 19.4357 19.474C19.3696 19.5351 19.2917 19.5818 19.2067 19.6113C19.1218 19.6408 19.0316 19.6523 18.942 19.6453H16.336C16.2503 19.6454 16.1655 19.6287 16.0863 19.5959C16.0072 19.5632 15.9352 19.5152 15.8747 19.4546C15.8141 19.3941 15.7661 19.3221 15.7334 19.243C15.7006 19.1638 15.6839 19.079 15.684 18.9933V13.7793C15.6839 13.6936 15.7006 13.6088 15.7334 13.5296C15.7661 13.4505 15.8141 13.3785 15.8747 13.318C15.9352 13.2574 16.0072 13.2094 16.0863 13.1767C16.1655 13.1439 16.2503 13.1272 16.336 13.1273H18.943C19.0326 13.1203 19.1228 13.1318 19.2077 13.1613C19.2927 13.1908 19.3706 13.2375 19.4367 13.2986C19.5027 13.3596 19.5554 13.4336 19.5914 13.516C19.6274 13.5984 19.646 13.6874 19.646 13.7773C19.646 13.8672 19.6274 13.9562 19.5914 14.0386C19.5554 14.1209 19.5027 14.195 19.4367 14.256C19.3706 14.3171 19.2927 14.3638 19.2077 14.3933C19.1228 14.4228 19.0326 14.4343 18.943 14.4273H16.987V15.7273L18.943 15.7453Z" fill="#4FA83D"></path><path d="M5.38989 8.87826C4.4646 7.63558 3.96484 6.12758 3.96484 4.57826C3.96484 3.02893 4.4646 1.52093 5.38989 0.278256C5.44019 0.206918 5.5043 0.146405 5.57841 0.100306C5.65253 0.0542059 5.73516 0.0234578 5.82138 0.00988456C5.9076 -0.00368872 5.99568 0.000189114 6.08038 0.0212881C6.16507 0.0423872 6.24467 0.0802778 6.31445 0.132714C6.38423 0.185149 6.44277 0.251062 6.4866 0.326545C6.53043 0.402027 6.55867 0.485542 6.56962 0.572138C6.58057 0.658734 6.57403 0.746647 6.55037 0.830666C6.52671 0.914684 6.48642 0.993098 6.43189 1.06126C5.67424 2.07786 5.26498 3.31188 5.26498 4.57976C5.26498 5.84764 5.67424 7.08165 6.43189 8.09826C6.48642 8.16641 6.52671 8.24483 6.55037 8.32885C6.57403 8.41286 6.58057 8.50078 6.56962 8.58737C6.55867 8.67397 6.53043 8.75748 6.4866 8.83297C6.44277 8.90845 6.38423 8.97436 6.31445 9.0268C6.24467 9.07923 6.16507 9.11712 6.08038 9.13822C5.99568 9.15932 5.9076 9.1632 5.82138 9.14963C5.73516 9.13605 5.65253 9.10531 5.57841 9.05921C5.5043 9.01311 5.44019 8.95259 5.38989 8.88126V8.87826Z" fill="#CAE2BC"></path><path d="M15.9448 9.0093C15.8763 8.9579 15.8186 8.8935 15.775 8.8198C15.7314 8.74609 15.7027 8.66452 15.6906 8.57973C15.6785 8.49495 15.6833 8.40862 15.7046 8.32567C15.7259 8.24272 15.7633 8.16478 15.8148 8.0963C16.5724 7.0797 16.9817 5.84568 16.9817 4.5778C16.9817 3.30992 16.5724 2.07591 15.8148 1.0593C15.7602 0.991144 15.7199 0.912731 15.6963 0.828713C15.6726 0.744694 15.6661 0.656781 15.677 0.570185C15.688 0.483589 15.7162 0.400074 15.76 0.324592C15.8039 0.249109 15.8624 0.183196 15.9322 0.13076C16.002 0.0783247 16.0816 0.0404341 16.1663 0.019335C16.251 -0.00176401 16.339 -0.00564185 16.4253 0.00793144C16.5115 0.0215047 16.5941 0.0522528 16.6682 0.0983525C16.7424 0.144452 16.8064 0.204965 16.8567 0.276303C17.782 1.51898 18.2818 3.02698 18.2818 4.5763C18.2818 6.12563 17.782 7.63363 16.8567 8.8763C16.8053 8.9448 16.7409 9.0025 16.6672 9.0461C16.5935 9.0897 16.512 9.11836 16.4272 9.13043C16.3424 9.14251 16.2561 9.13776 16.1731 9.11646C16.0902 9.09516 16.0122 9.05773 15.9438 9.0063L15.9448 9.0093Z" fill="#CAE2BC"></path><path d="M7.72316 7.61813C6.97332 6.78252 6.55859 5.69936 6.55859 4.57663C6.55859 3.45391 6.97332 2.37075 7.72316 1.53513C7.8403 1.41377 7.99992 1.34253 8.16847 1.33637C8.33703 1.33021 8.50141 1.38961 8.62709 1.50209C8.75278 1.61457 8.82998 1.77139 8.84248 1.93959C8.85499 2.10779 8.80183 2.2743 8.69417 2.40413C8.15888 3.00095 7.86282 3.77443 7.86282 4.57613C7.86282 5.37784 8.15888 6.15131 8.69417 6.74813C8.80183 6.87797 8.85499 7.04447 8.84248 7.21268C8.82998 7.38088 8.75278 7.53769 8.62709 7.65017C8.50141 7.76265 8.33703 7.82205 8.16847 7.81589C7.99992 7.80973 7.8403 7.73949 7.72316 7.61813Z" fill="#CAE2BC"></path><path d="M13.6011 7.66959C13.4724 7.55428 13.3948 7.39263 13.3852 7.22014C13.3756 7.04764 13.4349 6.8784 13.5501 6.74958C14.0854 6.15276 14.3814 5.37929 14.3814 4.57759C14.3814 3.77588 14.0854 3.00241 13.5501 2.40559C13.4892 2.34249 13.4416 2.26776 13.4103 2.18587C13.3789 2.10397 13.3644 2.0166 13.3676 1.92897C13.3708 1.84133 13.3917 1.75525 13.4289 1.67586C13.4661 1.59647 13.519 1.52542 13.5844 1.46694C13.6497 1.40846 13.7262 1.36376 13.8092 1.33552C13.8922 1.30728 13.9801 1.29607 14.0675 1.30258C14.155 1.30908 14.2402 1.33315 14.3182 1.37336C14.3961 1.41357 14.4651 1.46909 14.5211 1.53659C15.2709 2.3722 15.6856 3.45536 15.6856 4.57809C15.6856 5.70081 15.2709 6.78397 14.5211 7.61959C14.4058 7.74824 14.2441 7.82587 14.0716 7.83543C13.8991 7.845 13.7299 7.78471 13.6011 7.66959Z" fill="#CAE2BC"></path><path d="M11.123 6.5311C10.7363 6.5311 10.3583 6.41644 10.0368 6.20162C9.71533 5.9868 9.46476 5.68147 9.31679 5.32424C9.16882 4.96701 9.1301 4.57393 9.20553 4.19469C9.28097 3.81546 9.46716 3.46711 9.74057 3.1937C10.014 2.92029 10.3623 2.73409 10.7416 2.65866C11.1208 2.58323 11.5139 2.62194 11.8711 2.76991C12.2283 2.91788 12.5337 3.16846 12.7485 3.48995C12.9633 3.81145 13.078 4.18944 13.078 4.5761C13.0774 5.09443 12.8713 5.59138 12.5048 5.9579C12.1383 6.32442 11.6413 6.53057 11.123 6.5311Z" fill="#CAE2BC"></path></svg>