<svg xmlns="http://www.w3.org/2000/svg" width="24" height="17" viewBox="0 0 24 17" fill="none"><circle cx="3.94031" cy="4.49695" r="1.74891" fill="#CAE2BC"></circle><path fill-rule="evenodd" clip-rule="evenodd" d="M1.67578 12.2803L7.93783 7.49606L10.0615 9.24496L14.6836 5.87207L15.6971 6.63215C13.6842 7.52596 12.2805 9.54236 12.2805 11.8866C12.2805 12.444 12.3598 12.9827 12.5078 13.4923H1.67578V12.2803Z" fill="#CAE2BC"></path><path fill-rule="evenodd" clip-rule="evenodd" d="M1.11632 1.11632H19.8121V6.49258C20.2071 6.64202 20.5811 6.83589 20.9284 7.06827V1.11632C20.9284 0.499796 20.4286 0 19.8121 0H1.11632C0.499795 0 0 0.499796 0 1.11632V14.1242C0 14.7407 0.499797 15.2405 1.11633 15.2405H13.3315C13.0893 14.8951 12.8835 14.521 12.7199 14.1242H1.11632V1.11632Z" fill="#59A52C"></path><circle cx="17.987" cy="11.8483" r="5.15104" fill="#59A52C"></circle><path fill-rule="evenodd" clip-rule="evenodd" d="M19.1905 9.02339L19.4566 9.19088L18.6609 11.0904L18.6271 11.0691C18.8475 11.4065 18.8657 11.8552 18.6369 12.2186C18.3238 12.7159 17.6668 12.8653 17.1695 12.5522C16.6722 12.2391 16.5228 11.5822 16.8359 11.0848C17.0647 10.7214 17.4771 10.5438 17.8767 10.5967L17.8423 10.575L19.1905 9.02339Z" fill="#CAE2BC"></path></svg>