<svg xmlns="http://www.w3.org/2000/svg" width="29" height="25" viewBox="0 0 29 25" fill="none"><rect x="16" y="9" width="9" height="15" fill="#4FA83D"></rect><path d="M14.5 1L4 8V23H15L14.5 1Z" fill="#4FA83D" stroke="#4FA83D" stroke-linecap="round"></path><path d="M28.0333 23.077H26.1V9.61615C26.1 9.10615 25.8963 8.61703 25.5337 8.2564C25.1712 7.89577 24.6794 7.69317 24.1667 7.69317H16.4333V1.92423C16.4336 1.57601 16.3387 1.23426 16.1589 0.935458C15.9791 0.636659 15.7212 0.392026 15.4125 0.227669C15.1039 0.0633126 14.7561 -0.0145979 14.4064 0.00225334C14.0568 0.0191046 13.7182 0.130085 13.427 0.323349L3.76033 6.73168C3.49515 6.90766 3.27783 7.14613 3.12773 7.42586C2.97763 7.70558 2.89939 8.01789 2.9 8.33497V23.077H0.966667C0.710291 23.077 0.464415 23.1783 0.28313 23.3586C0.101845 23.5389 0 23.7835 0 24.0385C0 24.2935 0.101845 24.5381 0.28313 24.7184C0.464415 24.8987 0.710291 25 0.966667 25H28.0333C28.2897 25 28.5356 24.8987 28.7169 24.7184C28.8982 24.5381 29 24.2935 29 24.0385C29 23.7835 28.8982 23.5389 28.7169 23.3586C28.5356 23.1783 28.2897 23.077 28.0333 23.077ZM24.1667 9.61615V23.077H16.4333V9.61615H24.1667ZM4.83333 8.33497L14.5 1.92423V23.077H4.83333V8.33497ZM12.5667 11.5391V13.4621C12.5667 13.7171 12.4648 13.9617 12.2835 14.142C12.1023 14.3223 11.8564 14.4236 11.6 14.4236C11.3436 14.4236 11.0977 14.3223 10.9165 14.142C10.7352 13.9617 10.6333 13.7171 10.6333 13.4621V11.5391C10.6333 11.2841 10.7352 11.0396 10.9165 10.8593C11.0977 10.6789 11.3436 10.5776 11.6 10.5776C11.8564 10.5776 12.1023 10.6789 12.2835 10.8593C12.4648 11.0396 12.5667 11.2841 12.5667 11.5391ZM8.7 11.5391V13.4621C8.7 13.7171 8.59816 13.9617 8.41687 14.142C8.23558 14.3223 7.98971 14.4236 7.73333 14.4236C7.47696 14.4236 7.23108 14.3223 7.0498 14.142C6.86851 13.9617 6.76667 13.7171 6.76667 13.4621V11.5391C6.76667 11.2841 6.86851 11.0396 7.0498 10.8593C7.23108 10.6789 7.47696 10.5776 7.73333 10.5776C7.98971 10.5776 8.23558 10.6789 8.41687 10.8593C8.59816 11.0396 8.7 11.2841 8.7 11.5391ZM8.7 18.2696V20.1925C8.7 20.4476 8.59816 20.6921 8.41687 20.8724C8.23558 21.0527 7.98971 21.154 7.73333 21.154C7.47696 21.154 7.23108 21.0527 7.0498 20.8724C6.86851 20.6921 6.76667 20.4476 6.76667 20.1925V18.2696C6.76667 18.0146 6.86851 17.77 7.0498 17.5897C7.23108 17.4094 7.47696 17.3081 7.73333 17.3081C7.98971 17.3081 8.23558 17.4094 8.41687 17.5897C8.59816 17.77 8.7 18.0146 8.7 18.2696ZM12.5667 18.2696V20.1925C12.5667 20.4476 12.4648 20.6921 12.2835 20.8724C12.1023 21.0527 11.8564 21.154 11.6 21.154C11.3436 21.154 11.0977 21.0527 10.9165 20.8724C10.7352 20.6921 10.6333 20.4476 10.6333 20.1925V18.2696C10.6333 18.0146 10.7352 17.77 10.9165 17.5897C11.0977 17.4094 11.3436 17.3081 11.6 17.3081C11.8564 17.3081 12.1023 17.4094 12.2835 17.5897C12.4648 17.77 12.5667 18.0146 12.5667 18.2696Z" fill="#CAE2BC"></path></svg>