<svg xmlns="http://www.w3.org/2000/svg" width="24" height="23" viewBox="0 0 24 23" fill="none"><path d="M16.8761 7.60705C17.0084 7.47914 17.0996 7.31477 17.1381 7.13485C17.1767 6.95494 17.1608 6.76762 17.0925 6.59675C17.0243 6.42588 16.9067 6.27919 16.7548 6.17536C16.6029 6.07153 16.4235 6.01526 16.2395 6.01371C16.0555 6.01215 15.8753 6.06538 15.7216 6.16662C15.568 6.26787 15.448 6.41254 15.3768 6.58223C15.3057 6.75192 15.2866 6.93894 15.3221 7.11949C15.3576 7.30003 15.446 7.46593 15.5761 7.59606C15.748 7.76805 15.9807 7.86558 16.2239 7.86763C16.467 7.86969 16.7013 7.77611 16.8761 7.60705Z" fill="#4FA83D"></path><path d="M21.1363 2.03601C20.4919 1.38917 19.7258 0.876252 18.8823 0.526818C18.0387 0.177384 17.1344 -0.00165726 16.2213 1.15594e-05C16.0984 1.15612e-05 15.9805 0.0488445 15.8936 0.135768C15.8067 0.222691 15.7578 0.340584 15.7578 0.463512C15.7578 0.586439 15.8067 0.704332 15.8936 0.791256C15.9805 0.878179 16.0984 0.927012 16.2213 0.927012C17.8192 0.927012 19.3517 1.56179 20.4816 2.69169C21.6115 3.8216 22.2463 5.35408 22.2463 6.95201C22.2463 7.07494 22.2952 7.19283 22.3821 7.27976C22.469 7.36668 22.5869 7.41551 22.7098 7.41551C22.8328 7.41551 22.9506 7.36668 23.0376 7.27976C23.1245 7.19283 23.1733 7.07494 23.1733 6.95201C23.1748 6.03898 22.9957 5.13466 22.6463 4.29113C22.2969 3.44761 21.784 2.68153 21.1373 2.03701L21.1363 2.03601Z" fill="#4FA83D"></path><path d="M16.2194 2.78056C16.7672 2.7803 17.3097 2.88801 17.8159 3.09752C18.3221 3.30704 18.782 3.61427 19.1693 4.00163C19.5567 4.389 19.8639 4.84891 20.0735 5.35508C20.283 5.86125 20.3907 6.40375 20.3904 6.95156C20.3904 7.07449 20.4392 7.19238 20.5262 7.27931C20.6131 7.36623 20.731 7.41506 20.8539 7.41506C20.9768 7.41506 21.0947 7.36623 21.1816 7.27931C21.2686 7.19238 21.3174 7.07449 21.3174 6.95156C21.3174 5.59896 20.7801 4.30176 19.8236 3.34532C18.8672 2.38888 17.57 1.85156 16.2174 1.85156C16.0945 1.85156 15.9766 1.90039 15.8897 1.98732C15.8028 2.07424 15.7539 2.19213 15.7539 2.31506C15.7539 2.43799 15.8028 2.55589 15.8897 2.64281C15.9766 2.72973 16.0945 2.77856 16.2174 2.77856L16.2194 2.78056Z" fill="#4FA83D"></path><path d="M16.2223 4.63403H16.2343C16.8463 4.63721 17.432 4.88288 17.8632 5.3172C18.2943 5.75152 18.5356 6.33906 18.5343 6.95103C18.5343 7.07396 18.5831 7.19185 18.67 7.27878C18.757 7.3657 18.8749 7.41453 18.9978 7.41453C19.1207 7.41453 19.2386 7.3657 19.3255 7.27878C19.4125 7.19185 19.4613 7.07396 19.4613 6.95103C19.4624 6.09346 19.1234 5.27044 18.5187 4.66236C17.914 4.05428 17.0929 3.71074 16.2353 3.70703H16.2213C16.0984 3.70703 15.9805 3.75587 15.8936 3.84279C15.8066 3.92971 15.7578 4.0476 15.7578 4.17053C15.7578 4.29346 15.8066 4.41135 15.8936 4.49828C15.9805 4.5852 16.0994 4.63403 16.2223 4.63403Z" fill="#4FA83D"></path><path d="M16.666 22.2445C17.8846 20.6472 18.5423 18.6926 18.537 16.6835C18.537 14.2254 17.5605 11.8679 15.8224 10.1297C14.0842 8.39153 11.7267 7.41504 9.26853 7.41504C6.81037 7.41504 4.45289 8.39153 2.71471 10.1297C0.97653 11.8679 3.10589e-05 14.2254 3.10589e-05 16.6835C-0.00520781 18.6926 0.652439 20.6472 1.87103 22.2445H16.666ZM9.26603 12.0445C10.1825 12.0445 11.0785 12.3163 11.8405 12.8255C12.6026 13.3347 13.1966 14.0584 13.5473 14.9052C13.898 15.7519 13.9898 16.6837 13.811 17.5826C13.6322 18.4815 13.1908 19.3072 12.5428 19.9553C11.8947 20.6033 11.069 21.0447 10.1701 21.2235C9.27117 21.4023 8.33943 21.3105 7.49268 20.9598C6.64592 20.6091 5.92219 20.0151 5.413 19.2531C4.90381 18.491 4.63203 17.5951 4.63203 16.6785C4.63309 15.4497 5.12219 14.2716 5.99177 13.4033C6.86135 12.5351 8.04019 12.0477 9.26903 12.0485L9.26603 12.0445Z" fill="#CAE2BC"></path><path d="M9.2695 20.3906C10.0026 20.3906 10.7193 20.1732 11.3289 19.7659C11.9385 19.3586 12.4136 18.7797 12.6942 18.1024C12.9748 17.4251 13.0483 16.6798 12.9053 15.9607C12.7624 15.2417 12.4094 14.5811 11.8911 14.0627C11.3728 13.5442 10.7123 13.1911 9.99332 13.0479C9.27429 12.9048 8.52896 12.978 7.85158 13.2585C7.17419 13.5389 6.59518 14.0138 6.18773 14.6233C5.78028 15.2328 5.5627 15.9494 5.5625 16.6826C5.56237 17.1695 5.65816 17.6516 5.84439 18.1015C6.03063 18.5513 6.30366 18.9601 6.6479 19.3044C6.99214 19.6488 7.40084 19.9219 7.85066 20.1083C8.30048 20.2946 8.78261 20.3906 9.2695 20.3906ZM9.2695 13.9026C9.81953 13.9026 10.3572 14.0657 10.8145 14.3712C11.2719 14.6768 11.6283 15.1111 11.8388 15.6193C12.0493 16.1275 12.1044 16.6866 11.9971 17.2261C11.8898 17.7656 11.6249 18.2611 11.236 18.65C10.847 19.039 10.3515 19.3038 9.81204 19.4111C9.27258 19.5184 8.71342 19.4634 8.20526 19.2529C7.6971 19.0424 7.26276 18.6859 6.95718 18.2286C6.6516 17.7713 6.48849 17.2336 6.48849 16.6836C6.48849 15.946 6.7815 15.2386 7.30304 14.7171C7.82458 14.1956 8.53193 13.9026 9.2695 13.9026Z" fill="#4FA83D"></path><path d="M11.1221 16.6831C11.1221 17.0498 11.0133 17.4083 10.8095 17.7132C10.6058 18.0181 10.3162 18.2558 9.97734 18.3961C9.6385 18.5364 9.26567 18.573 8.906 18.5014C8.54633 18.4298 8.21598 18.2531 7.95674 17.9937C7.69749 17.7343 7.52099 17.4039 7.44957 17.0442C7.37814 16.6845 7.415 16.3117 7.55548 15.9729C7.69596 15.6341 7.93375 15.3447 8.23877 15.1411C8.54379 14.9375 8.90234 14.8289 9.26907 14.8291C9.76061 14.8294 10.2319 15.0248 10.5794 15.3725C10.9269 15.7201 11.1221 16.1916 11.1221 16.6831Z" fill="#4FA83D"></path></svg>