<svg xmlns="http://www.w3.org/2000/svg" width="21" height="16" viewBox="0 0 21 16" fill="none"><path d="M12.0103 9.21208C11.7128 9.51023 11.3335 9.71341 10.9205 9.79592C10.5075 9.87843 10.0793 9.83655 9.69006 9.67558C9.30085 9.51461 8.96814 9.2418 8.73405 8.89166C8.49995 8.54152 8.375 8.1298 8.375 7.70862C8.375 7.28743 8.49995 6.87572 8.73405 6.52558C8.96814 6.17544 9.30085 5.90263 9.69006 5.74166C10.0793 5.58069 10.5075 5.53881 10.9205 5.62132C11.3335 5.70383 11.7128 5.90701 12.0103 6.20516C12.4073 6.60485 12.63 7.1453 12.63 7.70862C12.63 8.27193 12.4073 8.81239 12.0103 9.21208Z" fill="#4FA83D"></path><path d="M14.9213 12.4329C14.721 12.4329 14.5252 12.3734 14.3586 12.2621C14.1921 12.1507 14.0624 11.9925 13.9858 11.8074C13.9092 11.6223 13.8892 11.4186 13.9284 11.2222C13.9676 11.0257 14.0642 10.8453 14.2059 10.7038C14.6 10.3107 14.9127 9.84378 15.126 9.3297C15.3394 8.81561 15.4492 8.26449 15.4492 7.70789C15.4492 7.1513 15.3394 6.60017 15.126 6.08609C14.9127 5.57201 14.6 5.10507 14.2059 4.71203C14.1096 4.6186 14.0328 4.50697 13.9801 4.38362C13.9273 4.26027 13.8996 4.12766 13.8985 3.9935C13.8974 3.85934 13.923 3.7263 13.9737 3.60211C14.0245 3.47792 14.0994 3.36505 14.1942 3.27007C14.289 3.17509 14.4016 3.09989 14.5257 3.04884C14.6498 2.99778 14.7828 2.97189 14.9169 2.97267C15.0511 2.97345 15.1838 3.00088 15.3072 3.05338C15.4307 3.10587 15.5425 3.18238 15.6362 3.27845C16.2188 3.85957 16.6811 4.54995 16.9966 5.31003C17.312 6.07011 17.4744 6.88496 17.4744 7.70789C17.4744 8.53083 17.312 9.34568 16.9966 10.1058C16.6811 10.8658 16.2188 11.5562 15.6362 12.1373C15.5423 12.2312 15.4309 12.3056 15.3082 12.3564C15.1855 12.4071 15.054 12.4331 14.9213 12.4329Z" fill="#CAE2BC"></path><path d="M17.208 15.4128C17.0077 15.4128 16.8119 15.3533 16.6453 15.242C16.4788 15.1307 16.349 14.9724 16.2725 14.7873C16.1959 14.6022 16.1759 14.3986 16.2151 14.2021C16.2543 14.0057 16.3509 13.8252 16.4926 13.6837C17.2791 12.8996 17.903 11.9681 18.3288 10.9424C18.7545 9.91672 18.9737 8.81712 18.9737 7.7066C18.9737 6.59607 18.7545 5.49647 18.3288 4.4708C17.903 3.44513 17.2791 2.51357 16.4926 1.7295C16.3025 1.53976 16.1956 1.28228 16.1953 1.01369C16.1951 0.745102 16.3015 0.487412 16.4912 0.297308C16.681 0.107204 16.9385 0.000259477 17.207 4.71546e-07C17.4756 -0.000258534 17.7333 0.106189 17.9234 0.295927C18.8983 1.26819 19.6717 2.42322 20.1994 3.69487C20.7271 4.96652 20.9988 6.3298 20.9988 7.7066C20.9988 9.0834 20.7271 10.4467 20.1994 11.7183C19.6717 12.99 18.8983 14.145 17.9234 15.1173C17.8295 15.2112 17.718 15.2856 17.5952 15.3364C17.4724 15.3871 17.3408 15.4131 17.208 15.4128Z" fill="#CAE2BC"></path><path d="M6.08097 12.4301C5.9481 12.4302 5.81652 12.4042 5.69376 12.3533C5.57099 12.3025 5.45947 12.228 5.36556 12.134C4.78288 11.5529 4.32058 10.8625 4.00515 10.1024C3.68971 9.34235 3.52734 8.5275 3.52734 7.70456C3.52734 6.88163 3.68971 6.06678 4.00515 5.3067C4.32058 4.54662 4.78288 3.85624 5.36556 3.27512C5.55655 3.08981 5.81282 2.98713 6.07893 2.98929C6.34504 2.99145 6.5996 3.09828 6.78755 3.28668C6.97551 3.47507 7.08175 3.72988 7.0833 3.99599C7.08484 4.26211 6.98157 4.51813 6.79582 4.7087C6.40172 5.10174 6.08904 5.56868 5.8757 6.08276C5.66235 6.59684 5.55254 7.14797 5.55254 7.70456C5.55254 8.26116 5.66235 8.81228 5.8757 9.32637C6.08904 9.84045 6.40172 10.3074 6.79582 10.7004C6.93756 10.842 7.03414 11.0224 7.07332 11.2189C7.11251 11.4153 7.09255 11.619 7.01597 11.8041C6.93938 11.9892 6.80961 12.1474 6.64308 12.2587C6.47655 12.3701 6.28073 12.4295 6.08041 12.4296L6.08097 12.4301Z" fill="#CAE2BC"></path><path d="M3.79073 15.4141C3.65786 15.4142 3.52626 15.3882 3.40349 15.3374C3.28072 15.2866 3.16919 15.212 3.07533 15.1179C2.1005 14.1457 1.32707 12.9906 0.799355 11.719C0.271638 10.4473 0 9.08408 0 7.70728C0 6.33048 0.271638 4.9672 0.799355 3.69555C1.32707 2.4239 2.1005 1.26887 3.07533 0.296606C3.26632 0.111293 3.52258 0.00861335 3.78869 0.0107757C4.0548 0.012938 4.30937 0.119768 4.49732 0.30816C4.68528 0.496552 4.79152 0.751362 4.79306 1.01748C4.79461 1.28359 4.69134 1.53962 4.50558 1.73018C3.71921 2.51429 3.09528 3.44586 2.66957 4.47152C2.24386 5.49719 2.02473 6.59677 2.02473 7.70728C2.02473 8.81778 2.24386 9.91736 2.66957 10.943C3.09528 11.9687 3.71921 12.9003 4.50558 13.6844C4.64733 13.8259 4.74391 14.0063 4.78309 14.2028C4.82228 14.3992 4.80232 14.6029 4.72573 14.788C4.64915 14.9731 4.51938 15.1313 4.35285 15.2427C4.18631 15.354 3.9905 15.4135 3.79018 15.4135L3.79073 15.4141Z" fill="#CAE2BC"></path></svg>