<svg xmlns="http://www.w3.org/2000/svg" width="22" height="21" viewBox="0 0 22 21" fill="none"><path d="M8.6146 7.23002C8.74473 7.16746 8.88988 7.14291 9.03335 7.15919C9.17682 7.17546 9.31278 7.2319 9.4256 7.32202L14.5366 11.411C14.6268 11.4829 14.6997 11.5741 14.7497 11.678C14.7998 11.7819 14.8258 11.8957 14.8258 12.011C14.8258 12.1263 14.7998 12.2402 14.7497 12.344C14.6997 12.4479 14.6268 12.5392 14.5366 12.611L9.4296 16.697C9.3167 16.7873 9.1806 16.8438 9.03698 16.8601C8.89336 16.8764 8.74806 16.8517 8.61783 16.789C8.48759 16.7263 8.37773 16.6281 8.30091 16.5056C8.22408 16.3832 8.18341 16.2416 8.1836 16.097V7.92102C8.18331 7.77699 8.22359 7.63579 8.29981 7.51359C8.37603 7.39139 8.48512 7.29311 8.6146 7.23002Z" fill="#4FA83D"></path><path fill-rule="evenodd" clip-rule="evenodd" d="M2.269 0.224298C2.41281 0.0806724 2.60775 0 2.811 0C3.01425 0 3.20919 0.0806724 3.353 0.224298L5.878 2.7493L8.402 0.224298C8.54742 0.0889781 8.73968 0.0153559 8.93829 0.0189288C9.1369 0.0225016 9.32638 0.102991 9.46684 0.243454C9.60731 0.383917 9.6878 0.573397 9.69137 0.772009C9.69494 0.970622 9.62132 1.16287 9.486 1.3083L7.728 3.0663H19.166C19.9115 3.0663 20.6265 3.36246 21.1537 3.88962C21.6808 4.41679 21.977 5.13177 21.977 5.8773V18.1433C21.9757 18.888 21.6789 19.6017 21.1519 20.1277C20.6249 20.6538 19.9107 20.9493 19.166 20.9493H2.811C2.06634 20.9493 1.35211 20.6538 0.825089 20.1277C0.298067 19.6017 0.00132454 18.888 0 18.1433V5.8773C0 5.13177 0.296158 4.41679 0.823323 3.88962C1.35049 3.36246 2.06548 3.0663 2.811 3.0663H4.027L2.269 1.3083C2.12537 1.16449 2.0447 0.969547 2.0447 0.766298C2.0447 0.563049 2.12537 0.36811 2.269 0.224298ZM2.811 4.5993H19.166C19.5049 4.5993 19.83 4.73394 20.0697 4.97362C20.3094 5.21329 20.444 5.53835 20.444 5.8773V18.1433C20.444 18.4822 20.3094 18.8073 20.0697 19.047C19.83 19.2867 19.5049 19.4213 19.166 19.4213H2.811C2.47205 19.4213 2.14699 19.2867 1.90732 19.047C1.66765 18.8073 1.533 18.4822 1.533 18.1433V5.8773C1.533 5.53835 1.66765 5.21329 1.90732 4.97362C2.14699 4.73394 2.47205 4.5993 2.811 4.5993Z" fill="#CAE2BC"></path></svg>