<svg xmlns="http://www.w3.org/2000/svg" width="22" height="16" viewBox="0 0 22 16" fill="none"><path d="M10.707 8.95402C10.707 8.69302 10.9186 8.48145 11.1796 8.48145H21.1511C21.4121 8.48145 21.6236 8.69302 21.6236 8.95402V11.3106C21.6236 11.5716 21.4121 11.7831 21.1511 11.7831H11.1796C10.9186 11.7831 10.707 11.5716 10.707 11.3106V8.95402Z" fill="#4FA83D"></path><ellipse cx="17.68" cy="10.1331" rx="0.410486" ry="0.410491" fill="#CAE2BC"></ellipse><ellipse cx="18.7269" cy="10.1331" rx="0.410486" ry="0.410491" fill="#CAE2BC"></ellipse><ellipse cx="19.7699" cy="10.1331" rx="0.410486" ry="0.410491" fill="#CAE2BC"></ellipse><rect x="11.7344" y="8.9209" width="0.433199" height="2.42594" rx="0.2166" fill="#CAE2BC"></rect><rect x="12.5508" y="8.9209" width="0.433199" height="2.42594" rx="0.2166" fill="#CAE2BC"></rect><rect x="13.3711" y="8.9209" width="0.433199" height="2.42594" rx="0.2166" fill="#CAE2BC"></rect><path d="M10.707 12.7314C10.707 12.4704 10.9186 12.2588 11.1796 12.2588H21.1511C21.4121 12.2588 21.6236 12.4704 21.6236 12.7314V15.0868C21.6236 15.3478 21.4121 15.5594 21.1511 15.5594H11.1796C10.9186 15.5594 10.707 15.3478 10.707 15.0868V12.7314Z" fill="#4FA83D"></path><ellipse cx="17.68" cy="13.9076" rx="0.410486" ry="0.410491" fill="#CAE2BC"></ellipse><ellipse cx="18.7269" cy="13.9076" rx="0.410486" ry="0.410491" fill="#CAE2BC"></ellipse><ellipse cx="19.7699" cy="13.9076" rx="0.410486" ry="0.410491" fill="#CAE2BC"></ellipse><rect x="11.7344" y="12.6943" width="0.433199" height="2.42594" rx="0.2166" fill="#CAE2BC"></rect><rect x="12.5508" y="12.6943" width="0.433199" height="2.42594" rx="0.2166" fill="#CAE2BC"></rect><rect x="13.3711" y="12.6943" width="0.433199" height="2.42594" rx="0.2166" fill="#CAE2BC"></rect><path fill-rule="evenodd" clip-rule="evenodd" d="M0.708997 0.219727C0.317429 0.219727 0 0.537155 0 0.928724V11.5637C0 11.9552 0.317429 12.2727 0.708997 12.2727H10.0625V8.52271C10.0625 8.16914 10.3491 7.88251 10.7027 7.88251H18.1503V0.928724C18.1503 0.537155 17.8329 0.219727 17.4413 0.219727H0.708997Z" fill="#CAE2BC"></path><path d="M7.36529 7.60359C7.36529 7.63296 7.38137 7.65997 7.4072 7.67395C7.43302 7.68794 7.46443 7.68666 7.48903 7.67062L10.7504 5.54363C10.7731 5.52886 10.7867 5.50364 10.7867 5.4766C10.7867 5.44956 10.7731 5.42434 10.7504 5.40957L7.48903 3.28258C7.46443 3.26654 7.43302 3.26526 7.4072 3.27925C7.38137 3.29323 7.36529 3.32024 7.36529 3.34961V7.60359Z" fill="#4FA83D" stroke="#CAE2BC" stroke-width="0.160048" stroke-linejoin="round"></path><path d="M1.03516 9.75391H9.91418" stroke="#4FA83D" stroke-width="0.426795" stroke-linejoin="round"></path><circle cx="3.23243" cy="9.75392" r="0.602298" fill="#CAE2BC" stroke="#4FA83D" stroke-width="0.213398"></circle></svg>