<svg xmlns="http://www.w3.org/2000/svg" width="142" height="50" viewBox="0 0 142 50" fill="none"><path d="M25.7239 49.4756C39.9309 49.4756 51.4479 38.4001 51.4479 24.7378C51.4479 11.0755 39.9309 0 25.7239 0C11.517 0 0 11.0755 0 24.7378C0 38.4001 11.517 49.4756 25.7239 49.4756Z" fill="#59A52C"/><path d="M38.6903 25.215C38.9972 27.4712 38.2954 30.2125 36.4103 33.2911C31.6306 41.2614 19.5716 42.1254 11.5244 37.9928L13.4316 29.9801H16.4795C21.3253 35.5466 26.9382 31.7067 27.618 29.284C28.1003 27.5575 27.0043 25.8891 25.1184 25.215H23.0782C21.8766 24.8231 20.5741 24.8231 19.3725 25.215H21.3898C20.1802 25.6302 19.07 26.2756 18.1255 27.1126H15.3615L15.7998 25.215H13.7596L17.662 8.70557H40.3347L38.5149 16.4867H26.2584L25.71 18.7853C32.2875 18.7853 36.1467 21.2102 36.6722 25.2165H38.6895L38.6903 25.215Z" fill="white"/><path d="M65.3547 16.3644C64.371 16.3571 63.3953 16.1943 62.4666 15.8826C61.5224 15.5928 60.6293 15.167 59.8177 14.6199C59.7569 14.5812 59.7119 14.5235 59.6901 14.4566C59.6684 14.3897 59.6714 14.3176 59.6985 14.2526L60.9161 11.9116C60.933 11.8687 60.9621 11.8313 61 11.8035C61.038 11.7758 61.0833 11.7588 61.1307 11.7546C61.1755 11.7444 61.2219 11.7432 61.2672 11.7512C61.3124 11.7592 61.3554 11.7761 61.3935 11.8009C61.9279 12.2481 62.5318 12.6122 63.1831 12.88C63.7638 13.12 64.3889 13.2449 65.0209 13.2473C65.6126 13.2856 66.1985 13.1142 66.6677 12.7654C66.8568 12.616 67.007 12.4262 67.1061 12.211C67.2053 11.9958 67.2508 11.7613 67.239 11.5263C67.2516 11.2726 67.2094 11.0192 67.1148 10.7821C67.0203 10.545 66.8755 10.3294 66.6897 10.149C66.153 9.83415 65.5269 9.68973 64.9001 9.73617C64.4227 9.73617 64.1844 9.73618 63.3961 9.75894C62.6078 9.7817 62.0088 9.80524 61.6065 9.85076C61.521 9.856 61.4364 9.83149 61.3682 9.7817C61.3329 9.75351 61.3041 9.71858 61.2836 9.67914C61.2631 9.63969 61.2513 9.59659 61.2491 9.55254V2.02415C61.2505 1.9455 61.2837 1.87046 61.3415 1.81484C61.3993 1.75922 61.4774 1.72735 61.5592 1.72594H70.0829C70.1647 1.72735 70.2428 1.75922 70.3006 1.81484C70.3584 1.87046 70.3916 1.9455 70.393 2.02415V4.63354C70.3916 4.71219 70.3584 4.78723 70.3006 4.84286C70.2428 4.89848 70.1647 4.93035 70.0829 4.93176H64.7834V6.58451H65.5995C66.6112 6.56059 67.6154 6.7567 68.5373 7.15818C69.3429 7.49069 70.0309 8.04081 70.5179 8.74186C70.9983 9.51041 71.2462 10.3926 71.2336 11.2893C71.2558 12.2337 70.9991 13.1649 70.4934 13.9748C70.0032 14.7438 69.2898 15.3581 68.441 15.7421C67.4753 16.1739 66.4194 16.3869 65.3547 16.3644ZM81.1308 16.3644C79.7831 16.3807 78.4557 16.0478 77.288 15.4007C76.1576 14.7522 75.2279 13.8251 74.595 12.7152C73.9367 11.5542 73.5995 10.2501 73.6157 8.92785C73.6017 7.61778 73.9474 6.32735 74.6178 5.18681C75.2784 4.09257 76.2244 3.18291 77.3622 2.5476C78.413 1.9751 79.5889 1.6478 80.7952 1.59205C82.0016 1.5363 83.2047 1.75365 84.3077 2.22662C85.279 2.63772 86.1554 3.23079 86.8857 3.97119C86.932 4.02686 86.9573 4.09606 86.9573 4.16738C86.9573 4.23871 86.932 4.3079 86.8857 4.36358L84.6187 6.15366C84.5893 6.18758 84.553 6.21527 84.512 6.235C84.471 6.25472 84.4262 6.26604 84.3804 6.26824C84.3341 6.26855 84.2883 6.25833 84.2469 6.23842C84.2055 6.21851 84.1696 6.18947 84.1421 6.15366C83.5813 5.47125 82.7739 5.0168 81.8806 4.8807C80.9873 4.74459 80.0734 4.93681 79.3208 5.41911C78.6621 5.85479 78.1388 6.45433 77.8068 7.15371C77.4748 7.8531 77.3465 8.62607 77.4357 9.39009C77.4896 10.168 77.7911 10.9111 78.2991 11.5187C78.8071 12.1263 79.4971 12.5689 80.2756 12.7866C80.9479 13.0032 81.6711 13.0275 82.3575 12.8564C83.0439 12.6853 83.6638 12.3263 84.1421 11.8229C84.1739 11.795 84.2119 11.7744 84.2531 11.7624C84.2943 11.7505 84.3378 11.7476 84.3804 11.7539C84.4214 11.7495 84.4629 11.7556 84.5006 11.7718C84.5383 11.7879 84.5709 11.8134 84.595 11.8457L86.9102 13.4066C86.9565 13.4623 86.9818 13.5315 86.9818 13.6028C86.9818 13.6741 86.9565 13.7433 86.9102 13.799C86.1481 14.5807 85.2416 15.2194 84.2367 15.6825C83.2667 16.125 82.2077 16.3578 81.1341 16.3644H81.1308ZM89.1282 16.3644V2.61587C89.1282 2.0422 89.2474 1.92762 89.4383 1.92762H99.8921C99.9313 1.92583 99.9706 1.93157 100.007 1.94449C100.044 1.95742 100.078 1.97728 100.107 2.00292C100.136 2.02855 100.159 2.05945 100.176 2.09382C100.192 2.12818 100.201 2.16531 100.202 2.20308V4.79285C100.201 4.8715 100.168 4.94653 100.11 5.00216C100.052 5.05778 99.9739 5.08966 99.8921 5.09107H92.8282V7.47836H97.2913C97.3731 7.47977 97.4511 7.51165 97.509 7.56728C97.5668 7.6229 97.5999 7.69793 97.6014 7.77658V10.3475C97.5999 10.4262 97.5668 10.5012 97.509 10.5568C97.4511 10.6125 97.3731 10.6443 97.2913 10.6457H92.8282V13.1013H99.8692C99.951 13.1027 100.029 13.1346 100.087 13.1902C100.145 13.2458 100.178 13.3209 100.179 13.3995V15.9705C100.178 16.0491 100.145 16.1242 100.087 16.1798C100.029 16.2354 99.951 16.2673 99.8692 16.2687H89.4391C89.2482 16.2726 89.129 16.1345 89.129 16.3644H89.1282ZM102.899 16.3644C102.817 16.363 102.739 16.3311 102.682 16.2755C102.624 16.2199 102.591 16.1449 102.589 16.0662V2.31766C102.591 2.23901 102.624 2.16397 102.682 2.10834C102.739 2.05272 102.817 2.02085 102.899 2.01944H105.716C105.815 2.02329 105.91 2.06439 105.978 2.13402L111.469 10.284V2.31766C111.47 2.23901 111.503 2.16397 111.561 2.10834C111.619 2.05272 111.697 2.02085 111.779 2.01944H114.717C114.798 2.02085 114.876 2.05272 114.934 2.10834C114.992 2.16397 115.025 2.23901 115.027 2.31766V16.0662C115.025 16.1449 114.992 16.2199 114.934 16.2755C114.876 16.3311 114.798 16.363 114.717 16.3644H111.898C111.798 16.3606 111.704 16.3195 111.635 16.2498L106.168 8.14779V16.0662C106.166 16.1449 106.133 16.2199 106.075 16.2755C106.017 16.3311 105.939 16.363 105.858 16.3644H102.899ZM121.515 16.3644C121.476 16.3632 121.437 16.3545 121.402 16.3388C121.366 16.3231 121.334 16.3007 121.307 16.273C121.281 16.2452 121.26 16.2127 121.246 16.1772C121.233 16.1417 121.227 16.1039 121.229 16.0662V5.23625H117.961C117.921 5.23804 117.882 5.23231 117.845 5.21938C117.808 5.20645 117.774 5.1866 117.746 5.16097C117.717 5.13533 117.693 5.10443 117.677 5.07007C117.661 5.0357 117.652 4.99856 117.65 4.9608V2.32158C117.652 2.24293 117.685 2.16789 117.743 2.11227C117.801 2.05665 117.879 2.02478 117.961 2.02337H128.2C128.241 2.02217 128.282 2.02907 128.32 2.04363C128.358 2.05819 128.393 2.08012 128.422 2.10806C128.451 2.13599 128.474 2.16934 128.489 2.20606C128.504 2.24278 128.511 2.28209 128.51 2.32158V4.9608C128.511 4.99914 128.503 5.03721 128.487 5.0725C128.472 5.10778 128.448 5.13948 128.419 5.16551C128.39 5.19153 128.355 5.21129 128.317 5.22349C128.279 5.23568 128.239 5.24003 128.2 5.23625H124.927V16.0662C124.926 16.1449 124.893 16.2199 124.835 16.2755C124.777 16.3311 124.699 16.363 124.617 16.3644H121.515ZM136.313 16.5018C135.153 16.5005 134.003 16.2902 132.924 15.8818C131.864 15.5063 130.885 14.946 130.036 14.229C129.99 14.1845 129.959 14.1283 129.947 14.0671C129.934 14.0059 129.94 13.9424 129.964 13.8845L130.8 11.1535C130.817 11.1106 130.846 11.0732 130.884 11.0454C130.922 11.0177 130.967 11.0007 131.014 10.9965C131.061 10.9845 131.109 10.9846 131.155 10.9968C131.202 11.0089 131.244 11.0327 131.277 11.0656C132.542 12.2129 133.97 13.2457 135.765 13.3415C136.253 13.3918 136.745 13.3607 137.221 13.2496C138.63 12.8133 138.032 11.4368 136.983 11.0232C136.625 10.8856 136.124 10.725 135.479 10.5414C134.677 10.3393 133.894 10.0705 133.14 9.73775C132.483 9.44579 131.91 9.00464 131.47 8.45228C130.987 7.77069 130.744 6.9581 130.778 6.13404C130.758 5.30125 131.008 4.48325 131.493 3.79304C131.988 3.10933 132.675 2.57568 133.474 2.25488C134.397 1.89097 135.388 1.71128 136.386 1.72672C137.366 1.72386 138.341 1.87115 139.274 2.16306C140.159 2.42549 141.002 2.8039 141.78 3.28764C141.839 3.32744 141.882 3.38656 141.899 3.45408C141.917 3.5216 141.908 3.59294 141.875 3.65492L141.085 6.21959C141.073 6.26068 141.048 6.29736 141.014 6.32522C140.98 6.35307 140.939 6.37089 140.894 6.37654C140.855 6.38977 140.814 6.39459 140.773 6.39066C140.731 6.38672 140.692 6.37413 140.656 6.35378C139.647 5.6004 138.484 5.06071 137.243 4.7701C136.408 4.65552 135.143 4.70103 134.856 5.66552C134.498 6.90469 136.384 7.22645 137.243 7.47836C138.051 7.70127 138.842 7.97739 139.61 8.30474C140.268 8.61634 140.841 9.07352 141.28 9.63887C141.785 10.3287 142.036 11.1602 141.996 12.0026C142.014 12.8706 141.747 13.722 141.232 14.4354C140.726 15.1326 140.022 15.6746 139.203 15.9964C138.282 16.3374 137.302 16.5089 136.315 16.5018H136.313Z" fill="white"/><path d="M73.8016 48.3501C71.2702 48.3808 68.7769 47.7554 66.5835 46.5396C64.4574 45.3224 62.7083 43.5808 61.5174 41.4951C60.2813 39.3142 59.6482 36.8646 59.6788 34.381C59.6526 31.92 60.302 29.4959 61.5614 27.3533C62.8025 25.2976 64.5796 23.5886 66.7173 22.3951C68.6912 21.3197 70.8999 20.7049 73.1658 20.6001C75.4318 20.4953 77.6917 20.9034 79.7637 21.7916C81.5881 22.5637 83.2343 23.6775 84.6062 25.0681C84.6933 25.1719 84.7408 25.3012 84.7408 25.4345C84.7408 25.5679 84.6933 25.6972 84.6062 25.801L80.3472 29.1638C80.2922 29.2277 80.2239 29.2798 80.1468 29.317C80.0697 29.3541 79.9853 29.3755 79.8992 29.3796C79.8121 29.3802 79.7261 29.361 79.6482 29.3235C79.5704 29.286 79.5028 29.2313 79.4512 29.1638C78.3976 27.8816 76.8808 27.0277 75.2023 26.7721C73.5239 26.5164 71.8069 26.8778 70.3929 27.7842C67.6999 29.3796 66.7165 32.3116 66.8512 35.2396C66.9527 36.701 67.5191 38.097 68.4735 39.2385C69.4279 40.3799 70.7242 41.2115 72.1866 41.6206C73.4495 42.0275 74.8081 42.0731 76.0974 41.7517C77.3867 41.4303 78.5512 40.7558 79.4495 39.8101C79.5094 39.7577 79.5808 39.7189 79.6583 39.6965C79.7358 39.6741 79.8176 39.6687 79.8976 39.6807C79.9746 39.6725 80.0526 39.6842 80.1234 39.7145C80.1943 39.7448 80.2555 39.7928 80.3007 39.8533L84.6495 42.7852C84.7365 42.8891 84.784 43.0184 84.784 43.1517C84.784 43.2851 84.7365 43.4144 84.6495 43.5182C83.218 44.9857 81.5154 46.1846 79.6283 47.0537C77.8071 47.8892 75.8177 48.3306 73.7999 48.347L73.8016 48.3501ZM89.8519 48.3501C89.7747 48.3524 89.6979 48.3395 89.6261 48.3121C89.5544 48.2848 89.4892 48.2436 89.4346 48.1911C89.38 48.1386 89.3372 48.0759 89.3087 48.0069C89.2803 47.9379 89.2669 47.864 89.2692 47.7898V21.9619C89.2667 21.8877 89.2801 21.8137 89.3085 21.7447C89.3369 21.6756 89.3797 21.6129 89.4343 21.5603C89.489 21.5078 89.5542 21.4666 89.626 21.4393C89.6978 21.412 89.7747 21.3992 89.8519 21.4016H100.03C102.58 21.3581 105.099 21.9531 107.338 23.1281C109.456 24.2248 111.2 25.8873 112.359 27.9152C113.565 30.0432 114.183 32.4332 114.154 34.8566C114.196 37.3004 113.562 39.711 112.316 41.8412C111.135 43.8831 109.358 45.5475 107.205 46.6283C104.935 47.8087 102.387 48.4035 99.8071 48.3548L89.8519 48.3501ZM96.2172 42.3136H100.163C101.408 42.3316 102.633 42.0182 103.705 41.408C104.758 40.761 105.61 39.8524 106.171 38.7782C106.782 37.5701 107.09 36.2408 107.068 34.8974C107.092 33.5492 106.768 32.2164 106.127 31.0175C105.546 29.9174 104.662 28.9925 103.571 28.3445C102.455 27.7198 101.186 27.3923 99.8944 27.3957H96.2188L96.2172 42.3136ZM119.217 48.3501C119.063 48.3475 118.917 48.2876 118.808 48.1831C118.699 48.0786 118.637 47.9376 118.634 47.7898V21.9619C118.637 21.8141 118.699 21.6731 118.808 21.5686C118.917 21.4641 119.063 21.4042 119.217 21.4016H124.505C124.691 21.4098 124.867 21.4872 124.995 21.6174L135.307 36.9206V21.9619C135.309 21.8141 135.372 21.6731 135.48 21.5686C135.589 21.4641 135.736 21.4042 135.889 21.4016H141.404C141.558 21.4042 141.705 21.4641 141.813 21.5686C141.922 21.6731 141.984 21.8141 141.987 21.9619V47.7882C141.984 47.936 141.922 48.077 141.813 48.1815C141.705 48.2861 141.558 48.3459 141.404 48.3485H136.114C135.928 48.3403 135.752 48.2629 135.624 48.1327L125.361 32.9135V47.7882C125.359 47.936 125.296 48.077 125.188 48.1815C125.079 48.2861 124.932 48.3459 124.779 48.3485H119.219L119.217 48.3501Z" fill="white"/></svg>