<svg width="21" height="20" viewBox="0 0 21 20" fill="none" xmlns="http://www.w3.org/2000/svg">
<g id="Delivery Acceleration Plus">
<path id="Vector" d="M7.9049 13.047C7.9049 13.047 7.81756 13.798 8.66379 14.7417C8.68677 14.7672 8.71452 14.7876 8.7453 14.8017C8.77607 14.8157 8.80926 14.8232 8.84284 14.8236C8.87648 14.824 8.90983 14.8174 8.94089 14.8041C8.972 14.7908 9.0002 14.7711 9.0238 14.7462C9.86011 13.8511 9.79648 13.0569 9.79648 13.0569C9.79121 12.7977 9.69069 12.5505 9.51556 12.3663C9.34043 12.1822 9.10414 12.075 8.8554 12.0669C8.33303 12.0642 7.95659 12.4786 7.9049 13.047Z" fill="#4FA83D"/>
<path id="Vector_2" d="M10.0938 11.4364C10.3713 11.4775 10.6323 11.5987 10.8471 11.7863C11.1723 12.0908 11.453 12.4432 11.6804 12.8323C11.6994 12.8643 11.7269 12.8899 11.7596 12.906C11.7922 12.9222 11.8286 12.9283 11.8645 12.9235C11.9003 12.9187 11.9341 12.9034 11.9618 12.8791C11.9895 12.8549 12.0099 12.823 12.0207 12.787C12.3644 11.6518 12.2333 10.278 10.9099 9.67438C10.7683 10.3181 10.4893 10.9203 10.0938 11.4364Z" fill="#4FA83D"/>
<path id="Vector_3" d="M6.8624 11.7626C7.0793 11.5771 7.34177 11.4586 7.62005 11.4207C7.22847 10.9009 6.95507 10.2955 6.82036 9.64987C5.49058 10.2396 5.34665 11.6123 5.67909 12.7514C5.68934 12.7872 5.70936 12.8191 5.7366 12.8434C5.76385 12.8676 5.79726 12.8832 5.8328 12.8882C5.86868 12.8938 5.90534 12.8884 5.93836 12.8727C5.97138 12.8571 5.99936 12.8319 6.01898 12.8001C6.25011 12.4133 6.53423 12.0638 6.8624 11.7626Z" fill="#4FA83D"/>
<path id="Vector_4" d="M9.09173 4.94436C9.03388 4.89979 8.96386 4.87556 8.89193 4.87519C8.81995 4.87482 8.74977 4.89832 8.69146 4.9423C8.3537 5.19932 8.05367 5.50616 7.80078 5.85319C8.11023 6.10609 8.49183 6.24445 8.88521 6.24635C9.27858 6.24826 9.66136 6.11364 9.97305 5.86377C9.72364 5.51442 9.42675 5.20471 9.09173 4.94436Z" fill="#4FA83D"/>
<path id="Vector_5" d="M7.59475 6.15659C7.25351 6.71794 7.05982 7.36281 7.03308 8.02662C6.94227 10.2022 7.95942 11.2641 7.95942 11.2641L9.75525 11.2735C9.75525 11.2735 10.7827 10.2222 10.7128 8.04591C10.6923 7.38153 10.5047 6.73442 10.1686 6.16936C9.79735 6.46079 9.34455 6.61743 8.87965 6.61507C8.41468 6.61277 7.96334 6.45171 7.59475 6.15659ZM9.39203 8.91328C9.28782 9.02069 9.1554 9.09351 9.0115 9.12255C8.86759 9.15159 8.71864 9.1355 8.58348 9.07636C8.44832 9.01727 8.33306 8.91771 8.25222 8.79034C8.17138 8.66297 8.12866 8.51351 8.12939 8.3608C8.13012 8.20815 8.1743 8.05914 8.25637 7.93261C8.33839 7.80608 8.45465 7.70775 8.59038 7.65001C8.72604 7.59232 8.87516 7.5778 9.01879 7.60835C9.16241 7.63885 9.29415 7.71307 9.39725 7.82155C9.46575 7.89359 9.51991 7.97903 9.55674 8.07287C9.59351 8.16672 9.61224 8.26718 9.61173 8.36854C9.61123 8.46995 9.59161 8.57019 9.55388 8.66364C9.51621 8.75715 9.46121 8.84191 9.39203 8.91328Z" fill="#4FA83D"/>
<g id="Mask group">
<mask id="mask0_2885_27821" style="mask-type:luminance" maskUnits="userSpaceOnUse" x="8" y="7" width="2" height="3">
<g id="Group">
<path id="Vector_6" d="M8.88301 9.16454C9.32537 9.16454 9.68398 8.79104 9.68398 8.33032C9.68398 7.86959 9.32537 7.49609 8.88301 7.49609C8.44064 7.49609 8.08203 7.86959 8.08203 8.33032C8.08203 8.79104 8.44064 9.16454 8.88301 9.16454Z" fill="white"/>
</g>
</mask>
<g mask="url(#mask0_2885_27821)">
<path id="Vector_7" d="M8.56285 8.33271C8.56285 8.21762 8.66371 8.04573 8.88307 8.04573V10.2882C9.98723 10.2882 10.8053 9.36927 10.8053 8.33271H8.56285ZM8.88307 8.04573C9.10249 8.04573 9.20334 8.21762 9.20334 8.33271H6.96094C6.96094 9.36927 7.77897 10.2882 8.88307 10.2882V8.04573ZM9.20334 8.33271C9.20334 8.4478 9.10249 8.61968 8.88307 8.61968V6.37726C7.77897 6.37726 6.96094 7.29615 6.96094 8.33271H9.20334ZM8.88307 8.61968C8.66371 8.61968 8.56285 8.4478 8.56285 8.33271H10.8053C10.8053 7.29615 9.98723 6.37726 8.88307 6.37726V8.61968Z" fill="white"/>
</g>
</g>
<path id="Vector_8" fill-rule="evenodd" clip-rule="evenodd" d="M8.88137 18.0096C13.1247 18.0096 16.6415 14.4136 16.6415 9.88086C16.6415 5.34805 13.1247 1.75207 8.88137 1.75207C4.63807 1.75207 1.1212 5.34805 1.1212 9.88086C1.1212 14.4136 4.63807 18.0096 8.88137 18.0096ZM8.88137 19.1309C13.7864 19.1309 17.7627 14.9895 17.7627 9.88086C17.7627 4.77222 13.7864 0.630859 8.88137 0.630859C3.97632 0.630859 0 4.77222 0 9.88086C0 14.9895 3.97632 19.1309 8.88137 19.1309Z" fill="#CAE2BC"/>
<path id="Vector_9" d="M16.4563 17.9308C18.514 17.9308 20.1821 16.1935 20.1821 14.0504C20.1821 11.9073 18.514 10.1699 16.4563 10.1699C14.3985 10.1699 12.7305 11.9073 12.7305 14.0504C12.7305 16.1935 14.3985 17.9308 16.4563 17.9308Z" fill="#4FA83D"/>
<path id="Vector_10" d="M14.9023 14.0516H18.0072" stroke="white" stroke-width="0.560603" stroke-linecap="round" stroke-linejoin="round"/>
<path id="Vector_11" d="M16.3008 12.4347V15.6683" stroke="white" stroke-width="0.560603" stroke-linecap="round" stroke-linejoin="round"/>
</g>
</svg>
