<svg xmlns="http://www.w3.org/2000/svg" width="50" height="50" viewBox="0 0 50 50" fill="none"><g id="Group 45154"><g id="Rectangle 8107" filter="url(#filter0_i_4011_16780)"><rect width="50" height="50" rx="6" fill="#313432"></rect></g><g id="Group 45161"><g id="Vector"><path d="M30 19.5C30 21.9853 27.9853 24 25.5 24C23.0147 24 21 21.9853 21 19.5C21 17.0147 23.0147 15 25.5 15C27.9853 15 30 17.0147 30 19.5Z" fill="white"></path><path d="M26.9793 19.7542C26.9793 20.5827 26.3077 21.2542 25.4793 21.2542C24.6509 21.2542 23.9793 20.5827 23.9793 19.7542C23.9793 18.9258 24.6509 18.2542 25.4793 18.2542C26.3077 18.2542 26.9793 18.9258 26.9793 19.7542Z" fill="#313432"></path></g><path id="Vector_2" d="M22.0094 36.1999C22.0094 36.1999 21.6869 38.6517 24.8123 41.7327C24.8972 41.8158 24.9997 41.8824 25.1134 41.9284C25.2271 41.9743 25.3497 41.9986 25.4737 41.9999C25.5979 42.0014 25.7211 41.9796 25.8358 41.9362C25.9507 41.8929 26.0549 41.8286 26.1421 41.7472C29.2309 38.825 28.9959 36.2321 28.9959 36.2321C28.9764 35.386 28.6052 34.579 27.9583 33.9776C27.3115 33.3763 26.4388 33.0264 25.5201 33C23.5907 32.9911 22.2003 34.3442 22.0094 36.1999Z" fill="#4FA83D"></path><path id="Vector_3" d="M30 30.5043C30.9302 30.656 31.8047 31.1034 32.5246 31.7961C33.6147 32.92 34.5553 34.2211 35.3172 35.6575C35.381 35.7754 35.4731 35.87 35.5826 35.9296C35.692 35.9894 35.8141 36.0118 35.9341 35.9942C36.0544 35.9764 36.1677 35.9197 36.2605 35.8303C36.3533 35.7409 36.4217 35.6229 36.4577 35.4903C37.6096 31.2996 37.1703 26.2284 32.7352 24C32.2605 26.3762 31.3256 28.5992 30 30.5043Z" fill="#4FA83D"></path><path id="Vector_4" d="M18.4657 31.8239C19.1912 31.1367 20.0692 30.6981 21 30.5575C19.6902 28.6326 18.7757 26.3907 18.3251 24C13.877 26.1838 13.3956 31.2671 14.5076 35.4856C14.5419 35.618 14.6088 35.7364 14.7 35.8261C14.7911 35.9159 14.9029 35.9737 15.0217 35.9921C15.1418 36.0127 15.2644 35.9928 15.3748 35.9348C15.4853 35.8769 15.5789 35.7835 15.6445 35.6658C16.4176 34.2335 17.368 32.9393 18.4657 31.8239Z" fill="#4FA83D"></path><path id="Vector_5" d="M26.16 8.2018C25.9736 8.07177 25.7479 8.00109 25.5162 8.00001C25.2842 7.99893 25.058 8.0675 24.8702 8.1958C23.7817 8.94556 22.8149 9.84067 22 10.853C22.9972 11.5908 24.2269 11.9944 25.4945 11.9999C26.7621 12.0055 27.9956 11.6128 29 10.8839C28.1963 9.86476 27.2396 8.96129 26.16 8.2018Z" fill="#4FA83D"></path><path id="Vector_6" d="M20.9996 12C19.797 13.9747 19.1145 16.2432 19.0202 18.5783C18.7002 26.2316 22.2848 29.9671 22.2848 29.9671L28.6136 30C28.6136 30 32.2343 26.3018 31.988 18.6462C31.9161 16.3091 31.2548 14.0327 30.0704 12.0449C28.7619 13.0701 27.1662 13.6211 25.5278 13.6128C23.8892 13.6048 22.2986 13.0382 20.9996 12ZM27.3335 21.6974C26.9663 22.0752 26.4996 22.3314 25.9925 22.4335C25.4853 22.5357 24.9604 22.4791 24.4841 22.271C24.0077 22.0632 23.6016 21.7129 23.3167 21.2649C23.0318 20.8168 22.8812 20.2911 22.8838 19.7539C22.8864 19.2169 23.042 18.6927 23.3313 18.2476C23.6203 17.8025 24.0301 17.4566 24.5084 17.2535C24.9865 17.0506 25.512 16.9995 26.0182 17.107C26.5243 17.2142 26.9886 17.4753 27.3519 17.8569C27.5933 18.1104 27.7842 18.4109 27.914 18.741C28.0436 19.0712 28.1096 19.4245 28.1078 19.7811C28.106 20.1378 28.0369 20.4905 27.9039 20.8192C27.7712 21.1481 27.5773 21.4463 27.3335 21.6974Z" fill="#4FA83D"></path></g></g><defs><filter id="filter0_i_4011_16780" x="0" y="0" width="52" height="54" color-interpolation-filters="sRGB"><feGaussianBlur stdDeviation="3.5"></feGaussianBlur></filter></defs></svg>