<svg width="21" height="17" viewBox="0 0 21 17" fill="none" xmlns="http://www.w3.org/2000/svg">
<g id="Live Stream ">
<path id="Path 13797" d="M12.0103 9.84281C11.7128 10.141 11.3335 10.3441 10.9205 10.4267C10.5075 10.5092 10.0793 10.4673 9.69006 10.3063C9.30085 10.1453 8.96814 9.87253 8.73405 9.5224C8.49995 9.17226 8.375 8.76054 8.375 8.33935C8.375 7.91817 8.49995 7.50645 8.73405 7.15632C8.96814 6.80618 9.30085 6.53336 9.69006 6.3724C10.0793 6.21143 10.5075 6.16955 10.9205 6.25206C11.3335 6.33456 11.7128 6.53775 12.0103 6.8359C12.4073 7.23558 12.63 7.77604 12.63 8.33935C12.63 8.90267 12.4073 9.44313 12.0103 9.84281Z" fill="#4FA83D"/>
<path id="Path 13798" d="M14.9213 13.0642C14.721 13.0642 14.5252 13.0048 14.3586 12.8934C14.1921 12.7821 14.0624 12.6239 13.9858 12.4388C13.9092 12.2536 13.8892 12.05 13.9284 11.8535C13.9676 11.6571 14.0642 11.4767 14.2059 11.3351C14.6 10.9421 14.9127 10.4751 15.126 9.96104C15.3394 9.44696 15.4492 8.89584 15.4492 8.33924C15.4492 7.78265 15.3394 7.23152 15.126 6.71744C14.9127 6.20336 14.6 5.73642 14.2059 5.34338C14.1096 5.24995 14.0328 5.13832 13.9801 5.01497C13.9273 4.89162 13.8996 4.75901 13.8985 4.62485C13.8974 4.49069 13.923 4.35765 13.9737 4.23346C14.0245 4.10927 14.0994 3.9964 14.1942 3.90142C14.289 3.80644 14.4016 3.73124 14.5257 3.68018C14.6498 3.62913 14.7828 3.60324 14.9169 3.60402C15.0511 3.6048 15.1838 3.63223 15.3072 3.68473C15.4307 3.73722 15.5425 3.81373 15.6362 3.9098C16.2188 4.49092 16.6811 5.1813 16.9966 5.94138C17.312 6.70146 17.4744 7.51631 17.4744 8.33924C17.4744 9.16218 17.312 9.97702 16.9966 10.7371C16.6811 11.4972 16.2188 12.1876 15.6362 12.7687C15.5423 12.8626 15.4309 12.937 15.3082 12.9877C15.1855 13.0384 15.054 13.0644 14.9213 13.0642Z" fill="#CAE2BC"/>
<path id="Path 13799" d="M17.208 16.0437C17.0077 16.0437 16.8119 15.9842 16.6453 15.8729C16.4788 15.7615 16.349 15.6033 16.2725 15.4182C16.1959 15.2331 16.1759 15.0294 16.2151 14.833C16.2543 14.6365 16.3509 14.4561 16.4926 14.3146C17.2791 13.5305 17.903 12.5989 18.3288 11.5733C18.7545 10.5476 18.9737 9.44798 18.9737 8.33746C18.9737 7.22693 18.7545 6.12733 18.3288 5.10166C17.903 4.07599 17.2791 3.14443 16.4926 2.36036C16.3025 2.17062 16.1956 1.91314 16.1953 1.64455C16.1951 1.37596 16.3015 1.11827 16.4912 0.928167C16.681 0.738064 16.9385 0.631119 17.207 0.63086C17.4756 0.630601 17.7333 0.737049 17.9234 0.926786C18.8983 1.89905 19.6717 3.05408 20.1994 4.32573C20.7271 5.59738 20.9988 6.96066 20.9988 8.33746C20.9988 9.71426 20.7271 11.0775 20.1994 12.3492C19.6717 13.6208 18.8983 14.7759 17.9234 15.7481C17.8295 15.842 17.718 15.9165 17.5952 15.9672C17.4724 16.0179 17.3408 16.0439 17.208 16.0437Z" fill="#CAE2BC"/>
<path id="Path 13800" d="M6.08097 13.061C5.9481 13.0612 5.81652 13.0351 5.69376 12.9843C5.57099 12.9335 5.45947 12.8589 5.36556 12.7649C4.78288 12.1838 4.32058 11.4934 4.00515 10.7333C3.68971 9.97327 3.52734 9.15842 3.52734 8.33548C3.52734 7.51255 3.68971 6.6977 4.00515 5.93762C4.32058 5.17754 4.78288 4.48716 5.36556 3.90604C5.55655 3.72073 5.81282 3.61805 6.07893 3.62021C6.34504 3.62237 6.5996 3.7292 6.78755 3.9176C6.97551 4.10599 7.08175 4.3608 7.0833 4.62691C7.08484 4.89303 6.98157 5.14905 6.79582 5.33962C6.40172 5.73266 6.08904 6.1996 5.8757 6.71368C5.66235 7.22776 5.55254 7.77889 5.55254 8.33548C5.55254 8.89208 5.66235 9.4432 5.8757 9.95729C6.08904 10.4714 6.40172 10.9383 6.79582 11.3314C6.93756 11.4729 7.03414 11.6533 7.07332 11.8498C7.11251 12.0462 7.09255 12.2499 7.01597 12.435C6.93938 12.6201 6.80961 12.7783 6.64308 12.8897C6.47655 13.001 6.28073 13.0605 6.08041 13.0605L6.08097 13.061Z" fill="#CAE2BC"/>
<path id="Path 13801" d="M3.79073 16.045C3.65786 16.0452 3.52626 16.0191 3.40349 15.9683C3.28072 15.9175 3.16919 15.8429 3.07533 15.7489C2.1005 14.7766 1.32707 13.6216 0.799355 12.3499C0.271638 11.0783 0 9.715 0 8.3382C0 6.9614 0.271638 5.59812 0.799355 4.32647C1.32707 3.05482 2.1005 1.89979 3.07533 0.927526C3.26632 0.742213 3.52258 0.639534 3.78869 0.641696C4.0548 0.643858 4.30937 0.750689 4.49732 0.939081C4.68528 1.12747 4.79152 1.38228 4.79307 1.6484C4.79461 1.91451 4.69134 2.17054 4.50558 2.3611C3.71921 3.14521 3.09528 4.07678 2.66957 5.10245C2.24386 6.12811 2.02473 7.22769 2.02473 8.3382C2.02473 9.4487 2.24386 10.5483 2.66957 11.5739C3.09528 12.5996 3.71921 13.5312 4.50558 14.3153C4.64733 14.4568 4.74391 14.6373 4.78309 14.8337C4.82228 15.0302 4.80232 15.2338 4.72573 15.4189C4.64915 15.604 4.51938 15.7623 4.35285 15.8736C4.18631 15.9849 3.9905 16.0444 3.79018 16.0444L3.79073 16.045Z" fill="#CAE2BC"/>
</g>
</svg>
