<svg width="53" height="50" viewBox="0 0 53 50" fill="none" xmlns="http://www.w3.org/2000/svg">
<g filter="url(#filter0_i_108_1042)">
<rect width="53" height="50" rx="8" fill="#313432"/>
</g>
<rect x="15.4277" y="16.0811" width="24.1178" height="2.882" fill="#CAE2BC"/>
<path d="M15.4277 19.2661H39.5455" stroke="#4FA83D" stroke-width="0.758421"/>
<path d="M30.4453 17.7493H32.7206" stroke="#4FA83D" stroke-width="0.758421"/>
<path d="M33.3262 17.7493H35.6014" stroke="#4FA83D" stroke-width="0.758421"/>
<path d="M36.209 17.7493H38.4842" stroke="#4FA83D" stroke-width="0.758421"/>
<path fill-rule="evenodd" clip-rule="evenodd" d="M16.7929 16.0808H38.1803C38.7667 16.0808 39.2421 16.5562 39.2421 17.1426V32.311C39.2421 32.8974 38.7667 33.3728 38.1803 33.3728H20.1304V34.1312H38.1803C39.1856 34.1312 40.0005 33.3163 40.0005 32.311V17.1426C40.0005 16.1373 39.1856 15.3224 38.1803 15.3224H16.7929C15.7876 15.3224 14.9727 16.1373 14.9727 17.1426V28.064H15.7311V17.1426C15.7311 16.5562 16.2065 16.0808 16.7929 16.0808Z" fill="#4FA83D"/>
<path d="M24.983 28.4431C24.983 31.7521 22.3005 34.4346 18.9915 34.4346C15.6825 34.4346 13 31.7521 13 28.4431C13 25.1341 15.6825 22.4516 18.9915 22.4516C22.3005 22.4516 24.983 25.1341 24.983 28.4431Z" fill="#CAE2BC"/>
<path d="M24.5993 28.4431C24.5993 31.5402 22.0886 34.0509 18.9915 34.0509V34.8184C22.5125 34.8184 25.3668 31.9641 25.3668 28.4431H24.5993ZM18.9915 34.0509C15.8944 34.0509 13.3838 31.5402 13.3838 28.4431H12.6162C12.6162 31.9641 15.4706 34.8184 18.9915 34.8184V34.0509ZM13.3838 28.4431C13.3838 25.346 15.8944 22.8354 18.9915 22.8354V22.0678C15.4706 22.0678 12.6162 24.9222 12.6162 28.4431H13.3838ZM18.9915 22.8354C22.0886 22.8354 24.5993 25.346 24.5993 28.4431H25.3668C25.3668 24.9222 22.5125 22.0678 18.9915 22.0678V22.8354Z" fill="#4FA83D"/>
<path d="M14.7461 29.8353H16.6844L17.7575 28.2085L19.0728 29.8353L21.2534 26.6509" stroke="#4FA83D" stroke-width="0.669192" stroke-linecap="round" stroke-linejoin="round"/>
<path d="M21.2188 26.72L22.4302 28.9007H23.5725" stroke="#4FA83D" stroke-width="0.669192" stroke-linecap="round" stroke-linejoin="round"/>
<circle cx="21.2544" cy="26.6854" r="0.588428" fill="#4FA83D"/>
<circle cx="19.0396" cy="29.6618" r="0.588428" fill="#4FA83D"/>
<circle cx="17.6529" cy="28.2774" r="0.588428" fill="#4FA83D"/>
<path d="M27.4618 23.2314L28.4949 22.1984C28.5106 22.1824 28.5293 22.1698 28.5499 22.1611C28.5706 22.1525 28.5927 22.148 28.6151 22.148C28.6375 22.148 28.6597 22.1525 28.6803 22.1611C28.701 22.1698 28.7197 22.1824 28.7354 22.1984L29.7684 23.2314C29.7925 23.255 29.809 23.2852 29.8157 23.3183C29.8224 23.3513 29.8191 23.3855 29.8061 23.4167C29.7931 23.4478 29.7711 23.4743 29.743 23.4928C29.7148 23.5112 29.6817 23.5209 29.648 23.5203H28.9553L28.9526 25.7844L31.1663 27.998L31.1642 26.0031H30.4723C30.439 26.0029 30.4065 25.9928 30.3789 25.974C30.3513 25.9552 30.3299 25.9286 30.3175 25.8977C30.3051 25.8667 30.3022 25.8327 30.3092 25.8001C30.3162 25.7675 30.3327 25.7377 30.3567 25.7145L31.3897 24.6815C31.4054 24.6654 31.424 24.6527 31.4447 24.644C31.4653 24.6353 31.4876 24.6309 31.51 24.6309C31.5324 24.6309 31.5545 24.6353 31.5752 24.644C31.5958 24.6527 31.6146 24.6654 31.6302 24.6815L32.6632 25.7145C32.6872 25.7381 32.7036 25.7683 32.7102 25.8013C32.7169 25.8342 32.7135 25.8685 32.7006 25.8995C32.6876 25.9306 32.6657 25.957 32.6376 25.9755C32.6095 25.9939 32.5765 26.0036 32.5428 26.0031H31.8501V26.4795C31.8501 26.4795 31.8501 26.4795 31.8501 26.481V30.9067C31.8501 30.997 31.8142 31.0835 31.7504 31.1474C31.6866 31.2112 31.6001 31.247 31.5098 31.247C31.4196 31.247 31.333 31.2112 31.2691 31.1474C31.2053 31.0835 31.1695 30.997 31.1695 30.9067V28.9626L28.3774 26.1702C28.3146 26.1056 28.2784 26.0197 28.2762 25.9296L28.2738 23.5209H27.5808C27.547 23.5214 27.5139 23.5117 27.4857 23.4931C27.4575 23.4745 27.4356 23.4479 27.4228 23.4167C27.41 23.3854 27.4068 23.351 27.4138 23.318C27.4207 23.285 27.4375 23.2548 27.4618 23.2314Z" fill="#CAE2BC"/>
<path d="M35.5508 23.2319L34.5178 22.1989C34.5021 22.1829 34.4834 22.1703 34.4628 22.1616C34.4421 22.153 34.4199 22.1486 34.3976 22.1486C34.3752 22.1486 34.353 22.153 34.3323 22.1616C34.3117 22.1703 34.293 22.1829 34.2773 22.1989L33.2443 23.2319C33.2202 23.2555 33.2037 23.2858 33.197 23.3188C33.1903 23.3518 33.1936 23.3861 33.2066 23.4172C33.2196 23.4483 33.2415 23.4748 33.2697 23.4933C33.2979 23.5118 33.331 23.5214 33.3647 23.5209H34.0589L34.0613 25.785L31.8477 27.9986V28.9617L34.6397 26.1692C34.7026 26.1047 34.7386 26.0188 34.7407 25.9287L34.7431 23.52H35.4363C35.4694 23.5193 35.5015 23.5089 35.5287 23.49C35.5559 23.4712 35.577 23.4447 35.5892 23.4139C35.6014 23.3832 35.6043 23.3495 35.5975 23.3172C35.5907 23.2848 35.5744 23.2551 35.5508 23.2319Z" fill="white"/>
<defs>
<filter id="filter0_i_108_1042" x="0" y="0" width="55" height="54" filterUnits="userSpaceOnUse" color-interpolation-filters="sRGB">
<feFlood flood-opacity="0" result="BackgroundImageFix"/>
<feBlend mode="normal" in="SourceGraphic" in2="BackgroundImageFix" result="shape"/>
<feColorMatrix in="SourceAlpha" type="matrix" values="0 0 0 0 0 0 0 0 0 0 0 0 0 0 0 0 0 0 127 0" result="hardAlpha"/>
<feOffset dx="2" dy="4"/>
<feGaussianBlur stdDeviation="3.5"/>
<feComposite in2="hardAlpha" operator="arithmetic" k2="-1" k3="1"/>
<feColorMatrix type="matrix" values="0 0 0 0 0 0 0 0 0 0 0 0 0 0 0 0 0 0 0.25 0"/>
<feBlend mode="normal" in2="shape" result="effect1_innerShadow_108_1042"/>
</filter>
</defs>
</svg>
