<svg width="53" height="50" viewBox="0 0 53 50" fill="none" xmlns="http://www.w3.org/2000/svg">
<g filter="url(#filter0_i_108_1031)">
<rect width="53" height="50" rx="8" fill="#313432"/>
</g>
<path d="M38.1044 24.3492C38.11 24.1466 38.11 23.944 38.1044 23.7414L40.2036 21.1188C40.3137 20.9811 40.3899 20.8195 40.4261 20.6469C40.4622 20.4744 40.4574 20.2958 40.4119 20.1255C40.0677 18.8319 39.5529 17.5899 38.8811 16.4321C38.7931 16.2806 38.671 16.1517 38.5244 16.0557C38.3778 15.9597 38.2109 15.8993 38.0369 15.8792L34.6995 15.5077C34.5607 15.3614 34.42 15.2207 34.2774 15.0856L33.8834 11.7398C33.8632 11.5656 33.8025 11.3986 33.7062 11.252C33.61 11.1055 33.4808 10.9834 33.3291 10.8956C32.1709 10.225 30.929 9.7107 29.6357 9.36622C29.4653 9.32091 29.2866 9.31627 29.1141 9.35269C28.9415 9.3891 28.78 9.46555 28.6424 9.57586L26.0268 11.6638C25.8242 11.6638 25.6216 11.6638 25.419 11.6638L22.7964 9.56882C22.6587 9.45875 22.497 9.38256 22.3245 9.34639C22.1519 9.31023 21.9733 9.31509 21.803 9.36059C20.5096 9.70534 19.2677 10.2201 18.1097 10.8914C17.9582 10.9794 17.8293 11.1015 17.7333 11.248C17.6373 11.3946 17.5768 11.5615 17.5567 11.7356L17.1853 15.0786C17.039 15.2184 16.8983 15.3591 16.7632 15.5007L13.4174 15.8848C13.2432 15.9051 13.0762 15.9657 12.9296 16.062C12.783 16.1582 12.661 16.2874 12.5732 16.4392C11.9025 17.5973 11.3882 18.8393 11.0438 20.1325C10.9985 20.3029 10.9938 20.4816 11.0302 20.6541C11.0667 20.8267 11.1431 20.9883 11.2534 21.1258L13.3414 23.7414C13.3414 23.944 13.3414 24.1466 13.3414 24.3492L11.2464 26.9719C11.1363 27.1096 11.0601 27.2712 11.0239 27.4437C10.9878 27.6163 10.9926 27.7949 11.0381 27.9652C11.3823 29.2588 11.8971 30.5008 12.5689 31.6586C12.6569 31.8101 12.779 31.9389 12.9256 32.0349C13.0722 32.1309 13.2391 32.1914 13.4131 32.2115L16.7505 32.5829C16.8903 32.7293 17.031 32.87 17.1726 33.005L17.5624 36.3509C17.5826 36.525 17.6433 36.6921 17.7395 36.8386C17.8358 36.9852 17.9649 37.1072 18.1167 37.1951C19.2749 37.8657 20.5168 38.38 21.8101 38.7245C21.9805 38.7698 22.1592 38.7744 22.3317 38.738C22.5042 38.7016 22.6658 38.6251 22.8034 38.5148L25.419 36.4268C25.6216 36.4325 25.8242 36.4325 26.0268 36.4268L28.6494 38.5261C28.7871 38.6361 28.9488 38.7123 29.1213 38.7485C29.2938 38.7847 29.4724 38.7798 29.6428 38.7343C30.9363 38.3902 32.1784 37.8754 33.3361 37.2035C33.4876 37.1155 33.6165 36.9934 33.7125 36.8468C33.8085 36.7003 33.8689 36.5333 33.8891 36.3593L34.2605 33.0219C34.4068 32.8831 34.5475 32.7424 34.6826 32.5998L38.0284 32.2059C38.2026 32.1856 38.3696 32.1249 38.5162 32.0287C38.6627 31.9324 38.7848 31.8033 38.8726 31.6515C39.5433 30.4933 40.0575 29.2514 40.402 27.9582C40.4473 27.7878 40.452 27.6091 40.4155 27.4365C40.3791 27.264 40.3027 27.1024 40.1924 26.9648L38.1044 24.3492ZM35.8391 23.4347C35.8631 23.8414 35.8631 24.2492 35.8391 24.656C35.8224 24.9344 35.9096 25.2092 36.084 25.427L38.0805 27.9216C37.8514 28.6497 37.558 29.3559 37.2039 30.0321L34.0241 30.3923C33.7472 30.423 33.4915 30.5554 33.3066 30.7637C33.0357 31.0683 32.7473 31.3568 32.4427 31.6276C32.2343 31.8126 32.102 32.0683 32.0712 32.3452L31.7181 35.5221C31.042 35.8764 30.3357 36.1698 29.6076 36.3987L27.1116 34.4022C26.9119 34.2426 26.6637 34.1558 26.4081 34.156H26.3406C25.9338 34.1799 25.526 34.1799 25.1193 34.156C24.8408 34.1392 24.5661 34.2264 24.3483 34.4008L21.8466 36.3987C21.1186 36.1696 20.4123 35.8763 19.7361 35.5221L19.376 32.3466C19.3452 32.0697 19.2129 31.814 19.0045 31.629C18.6999 31.3582 18.4115 31.0697 18.1406 30.7651C17.9557 30.5568 17.7 30.4244 17.4231 30.3937L14.2461 30.0391C13.8918 29.3631 13.5984 28.6568 13.3695 27.9286L15.366 25.4326C15.5404 25.2148 15.6276 24.9401 15.6109 24.6616C15.5869 24.2549 15.5869 23.8471 15.6109 23.4403C15.6276 23.1619 15.5404 22.8871 15.366 22.6693L13.3695 20.1691C13.5986 19.441 13.892 18.7347 14.2461 18.0586L17.4217 17.6984C17.6986 17.6677 17.9542 17.5353 18.1392 17.327C18.41 17.0224 18.6985 16.7339 19.0031 16.4631C19.2123 16.278 19.3452 16.0217 19.376 15.7441L19.7291 12.5685C20.4052 12.2142 21.1115 11.9209 21.8396 11.692L24.3356 13.6885C24.5534 13.8628 24.8282 13.9501 25.1066 13.9333C25.5134 13.9094 25.9212 13.9094 26.3279 13.9333C26.6064 13.9501 26.8811 13.8628 27.0989 13.6885L29.5991 11.692C30.3272 11.9211 31.0335 12.2144 31.7096 12.5685L32.0698 15.7441C32.1006 16.021 32.2329 16.2767 32.4413 16.4617C32.7459 16.7325 33.0343 17.021 33.3052 17.3256C33.4901 17.5339 33.7458 17.6663 34.0227 17.697L37.1997 18.0502C37.554 18.7262 37.8473 19.4325 38.0763 20.1606L36.0797 22.6566C35.9037 22.8763 35.8164 23.1539 35.8349 23.4347H35.8391Z" fill="#4FA83D"/>
<path d="M33.3642 24.392C33.3642 28.5295 30.0101 31.8837 25.8725 31.8837C21.735 31.8837 18.3809 28.5295 18.3809 24.392C18.3809 20.2545 21.735 16.9003 25.8725 16.9003C30.0101 16.9003 33.3642 20.2545 33.3642 24.392Z" fill="#C9E2BB"/>
<path fill-rule="evenodd" clip-rule="evenodd" d="M29.901 27.3485L29.534 27.78L26.3505 25.8735L26.3967 25.8192C25.7385 26.1252 24.9342 26.0423 24.3451 25.5413C23.5384 24.8553 23.4406 23.6453 24.1266 22.8386C24.8126 22.032 26.0226 21.9342 26.8292 22.6202C27.4184 23.1212 27.6294 23.9017 27.4331 24.6005L27.4797 24.5457L29.901 27.3485Z" fill="#4FA83D"/>
<circle cx="37.0923" cy="32.3141" r="7.40556" fill="#4FA83D" stroke="#CAE2BC" stroke-width="1.20556"/>
<path d="M34.5938 32.7232L36.1545 34.388L39.5882 30.8503" stroke="#CAE2BC" stroke-width="1.66481" stroke-linecap="round" stroke-linejoin="round"/>
<defs>
<filter id="filter0_i_108_1031" x="0" y="0" width="55" height="54" filterUnits="userSpaceOnUse" color-interpolation-filters="sRGB">
<feFlood flood-opacity="0" result="BackgroundImageFix"/>
<feBlend mode="normal" in="SourceGraphic" in2="BackgroundImageFix" result="shape"/>
<feColorMatrix in="SourceAlpha" type="matrix" values="0 0 0 0 0 0 0 0 0 0 0 0 0 0 0 0 0 0 127 0" result="hardAlpha"/>
<feOffset dx="2" dy="4"/>
<feGaussianBlur stdDeviation="3.5"/>
<feComposite in2="hardAlpha" operator="arithmetic" k2="-1" k3="1"/>
<feColorMatrix type="matrix" values="0 0 0 0 0 0 0 0 0 0 0 0 0 0 0 0 0 0 0.25 0"/>
<feBlend mode="normal" in2="shape" result="effect1_innerShadow_108_1031"/>
</filter>
</defs>
</svg>
