<svg width="53" height="51" viewBox="0 0 53 51" fill="none" xmlns="http://www.w3.org/2000/svg">
<g filter="url(#filter0_i_108_1065)">
<rect y="0.677734" width="53" height="50" rx="8" fill="#313432"/>
</g>
<path d="M26.6992 34.7838C31.9372 34.7838 36.1835 30.5376 36.1835 25.2995C36.1835 20.0615 31.9372 15.8152 26.6992 15.8152C21.4611 15.8152 17.2148 20.0615 17.2148 25.2995C17.2148 30.5376 21.4611 34.7838 26.6992 34.7838Z" fill="#4FA83D"/>
<path d="M17.6033 35.8205C18.1857 35.8205 18.6578 35.3484 18.6578 34.766C18.6578 34.1837 18.1857 33.7115 17.6033 33.7115C17.0209 33.7115 16.5488 34.1837 16.5488 34.766C16.5488 35.3484 17.0209 35.8205 17.6033 35.8205Z" fill="#4FA83D"/>
<path d="M35.1307 17.2917C35.713 17.2917 36.1852 16.8196 36.1852 16.2372C36.1852 15.6549 35.713 15.1827 35.1307 15.1827C34.5483 15.1827 34.0762 15.6549 34.0762 16.2372C34.0762 16.8196 34.5483 17.2917 35.1307 17.2917Z" fill="#4FA83D"/>
<path d="M37.9519 19.3948C37.8264 19.4559 37.7303 19.5644 37.6846 19.6963C37.639 19.8283 37.6475 19.9729 37.7084 20.0986C38.5254 21.7817 38.9477 23.6291 38.9431 25.5001C38.9444 27.8118 38.3014 30.0781 37.0862 32.0447C35.8711 34.0112 34.1319 35.6002 32.0639 36.6333C29.9959 37.6663 27.6809 38.1026 25.3787 37.8931C23.0765 37.6836 20.8783 36.8366 19.0307 35.4471C19.1916 35.1106 19.2284 34.7281 19.1347 34.367C19.041 34.006 18.8228 33.6896 18.5187 33.4737C18.2145 33.2578 17.8438 33.1563 17.4721 33.187C17.1004 33.2177 16.7514 33.3788 16.4868 33.6417C16.2222 33.9046 16.0589 34.2525 16.0258 34.624C15.9927 34.9955 16.0918 35.3668 16.3057 35.6724C16.5196 35.978 16.8346 36.1982 17.195 36.2942C17.5554 36.3902 17.9382 36.3559 18.2758 36.1972C20.2729 37.7354 22.6611 38.6834 25.1695 38.9335C27.6779 39.1837 30.2062 38.7261 32.4678 37.6126C34.7294 36.4991 36.6338 34.7743 37.9651 32.6336C39.2964 30.493 40.0013 28.0222 40 25.5013C40.005 23.4714 39.5469 21.467 38.6606 19.6407C38.6305 19.5778 38.5883 19.5214 38.5363 19.4749C38.4843 19.4283 38.4235 19.3926 38.3576 19.3697C38.2917 19.3468 38.2219 19.3373 38.1522 19.3416C38.0826 19.3459 38.0145 19.364 37.9519 19.3948ZM17.2298 35.1379C17.156 35.0641 17.1057 34.9702 17.0853 34.8679C17.065 34.7656 17.0754 34.6596 17.1152 34.5632C17.1551 34.4668 17.2227 34.3844 17.3094 34.3265C17.3961 34.2685 17.4981 34.2376 17.6024 34.2376C17.7067 34.2376 17.8087 34.2685 17.8954 34.3265C17.9821 34.3844 18.0497 34.4668 18.0896 34.5632C18.1295 34.6596 18.1399 34.7656 18.1195 34.8679C18.0991 34.9702 18.0488 35.0641 17.975 35.1379C17.8762 35.2366 17.7421 35.2921 17.6024 35.2921C17.4627 35.2921 17.3287 35.2366 17.2298 35.1379Z" fill="#4FA83D"/>
<path d="M14.9117 31.3521C14.9748 31.3233 15.0315 31.2824 15.0787 31.2317C15.1259 31.181 15.1627 31.1215 15.1869 31.0566C15.2111 30.9917 15.2222 30.9227 15.2197 30.8534C15.2172 30.7842 15.2011 30.7161 15.1723 30.6531C14.4322 29.0367 14.0508 27.2791 14.0545 25.5012C14.058 22.2018 15.3703 19.0386 17.7033 16.7056C20.0363 14.3726 23.1996 13.0603 26.499 13.0568C29.1145 13.047 31.665 13.8719 33.7793 15.4117C33.5862 15.7294 33.511 16.105 33.567 16.4726C33.623 16.8402 33.8066 17.1763 34.0857 17.4221C34.3647 17.6678 34.7213 17.8075 35.0931 17.8166C35.4648 17.8257 35.8278 17.7037 36.1186 17.4719C36.4093 17.2402 36.6092 16.9134 36.6832 16.549C36.7572 16.1846 36.7005 15.8058 36.5231 15.479C36.3458 15.1522 36.059 14.8983 35.7132 14.7618C35.3673 14.6252 34.9845 14.6148 34.6317 14.7323C32.6291 13.2172 30.2434 12.2911 27.743 12.0582C25.2427 11.8253 22.727 12.2948 20.479 13.4139C18.231 14.533 16.3399 16.2573 15.0186 18.3928C13.6973 20.5282 12.9982 22.9901 13 25.5012C12.9975 27.4307 13.4129 29.3378 14.2177 31.0915C14.2758 31.2175 14.3812 31.3156 14.5112 31.3644C14.6411 31.4132 14.785 31.4087 14.9117 31.3521ZM35.5035 15.8635C35.5773 15.9372 35.6276 16.0311 35.648 16.1334C35.6684 16.2357 35.658 16.3418 35.6181 16.4381C35.5782 16.5345 35.5106 16.6169 35.4239 16.6749C35.3372 16.7328 35.2352 16.7638 35.1309 16.7638C35.0266 16.7638 34.9247 16.7328 34.8379 16.6749C34.7512 16.6169 34.6836 16.5345 34.6438 16.4381C34.6039 16.3418 34.5935 16.2357 34.6139 16.1334C34.6343 16.0311 34.6845 15.9372 34.7583 15.8635C34.8572 15.7647 34.9912 15.7093 35.1309 15.7093C35.2707 15.7093 35.4047 15.7647 35.5035 15.8635Z" fill="#4FA83D"/>
<path d="M26.4994 15.4834C24.5178 15.4834 22.5808 16.071 20.9332 17.1719C19.2856 18.2728 18.0014 19.8375 17.2431 21.6682C16.4848 23.4989 16.2864 25.5134 16.673 27.4569C17.0596 29.4004 18.0138 31.1855 19.4149 32.5867C20.8161 33.9879 22.6013 34.9421 24.5448 35.3287C26.4882 35.7152 28.5027 35.5168 30.3334 34.7585C32.1641 34.0002 33.7289 32.7161 34.8297 31.0685C35.9306 29.4209 36.5182 27.4838 36.5182 25.5023C36.52 24.1861 36.2621 22.8825 35.7592 21.6661C35.2563 20.4498 34.5184 19.3446 33.5877 18.4139C32.657 17.4832 31.5518 16.7453 30.3355 16.2425C29.1192 15.7396 27.8155 15.4816 26.4994 15.4834ZM17.535 25.5023C17.5343 24.6087 17.6677 23.7201 17.9307 22.8661H21.4059C21.1663 24.6158 21.1663 26.39 21.4059 28.1397H17.9307C17.6676 27.2853 17.5342 26.3963 17.535 25.5023ZM22.2838 25.5023C22.2829 24.62 22.3476 23.7388 22.4774 22.8661H25.9745V28.1385H22.475C22.3448 27.2658 22.2797 26.3846 22.2802 25.5023H22.2838ZM30.3289 21.8152H27.0266V16.6158C28.4768 17.0152 29.7249 19.0609 30.3289 21.8152ZM25.9721 16.6158V21.8152H22.6698C23.2738 19.0609 24.517 17.0152 25.9721 16.611V16.6158ZM25.9721 29.1979V34.3973C24.5207 33.993 23.2738 31.9486 22.6698 29.1979H25.9721ZM27.0266 34.3973V29.1918H30.3289C29.7249 31.9437 28.4768 33.9918 27.0266 34.3924V34.3973ZM27.0266 28.1434V22.8709H30.5237C30.7825 24.6189 30.7825 26.3954 30.5237 28.1434H27.0266ZM31.5928 22.8709H35.068C35.5958 24.5888 35.5958 26.4255 35.068 28.1434H31.5916C31.8311 26.3941 31.8323 24.6203 31.5928 22.8709ZM34.6674 21.8164H31.4114C31.1084 20.0671 30.3915 18.4155 29.3207 16.9994C30.4949 17.3917 31.5757 18.0218 32.4956 18.8504C33.4155 19.679 34.1548 20.6895 34.6674 21.8164ZM23.6768 16.9933C22.6053 18.4108 21.8884 20.0641 21.5861 21.8152H18.3301C18.842 20.6871 19.581 19.6767 20.5009 18.847C21.4209 18.0174 22.502 17.3863 23.6768 16.9933ZM18.3313 29.193H21.5873C21.8903 30.9424 22.6072 32.594 23.678 34.0101C22.5035 33.6177 21.4224 32.9875 20.5022 32.1587C19.5821 31.3299 18.8439 30.3203 18.3313 29.193ZM29.3219 34.0101C30.393 32.5936 31.1098 30.9416 31.4126 29.1918H34.6686C34.1562 30.3193 33.4168 31.3291 32.4967 32.1581C31.5765 32.9872 30.4966 33.6176 29.3219 34.0101Z" fill="#CAE2BC"/>
<defs>
<filter id="filter0_i_108_1065" x="0" y="0.677734" width="55" height="54" filterUnits="userSpaceOnUse" color-interpolation-filters="sRGB">
<feFlood flood-opacity="0" result="BackgroundImageFix"/>
<feBlend mode="normal" in="SourceGraphic" in2="BackgroundImageFix" result="shape"/>
<feColorMatrix in="SourceAlpha" type="matrix" values="0 0 0 0 0 0 0 0 0 0 0 0 0 0 0 0 0 0 127 0" result="hardAlpha"/>
<feOffset dx="2" dy="4"/>
<feGaussianBlur stdDeviation="3.5"/>
<feComposite in2="hardAlpha" operator="arithmetic" k2="-1" k3="1"/>
<feColorMatrix type="matrix" values="0 0 0 0 0 0 0 0 0 0 0 0 0 0 0 0 0 0 0.25 0"/>
<feBlend mode="normal" in2="shape" result="effect1_innerShadow_108_1065"/>
</filter>
</defs>
</svg>
