<svg width="53" height="50" viewBox="0 0 53 50" fill="none" xmlns="http://www.w3.org/2000/svg">
<g filter="url(#filter0_i_108_1079)">
<rect width="53" height="50" rx="8" fill="#313432"/>
</g>
<mask id="path-2-inside-1_108_1079" fill="white">
<path fill-rule="evenodd" clip-rule="evenodd" d="M32.688 15.9738L40 23.2858V32.2238C40 32.7847 39.5453 33.2394 38.9844 33.2394H15.0156C14.4547 33.2394 14 32.7847 14 32.2238V16.9894C14 16.4285 14.4547 15.9738 15.0156 15.9738H32.688Z"/>
</mask>
<path fill-rule="evenodd" clip-rule="evenodd" d="M32.688 15.9738L40 23.2858V32.2238C40 32.7847 39.5453 33.2394 38.9844 33.2394H15.0156C14.4547 33.2394 14 32.7847 14 32.2238V16.9894C14 16.4285 14.4547 15.9738 15.0156 15.9738H32.688Z" fill="#4FA83D"/>
<path d="M32.688 15.9738L33.4061 15.2556L33.1087 14.9581H32.688V15.9738ZM40 23.2858H41.0156V22.8651L40.7182 22.5676L40 23.2858ZM31.9698 16.6919L39.2818 24.0039L40.7182 22.5676L33.4061 15.2556L31.9698 16.6919ZM38.9844 23.2858V32.2238H41.0156V23.2858H38.9844ZM38.9844 32.2238V34.255C40.1062 34.255 41.0156 33.3456 41.0156 32.2238H38.9844ZM38.9844 32.2238H15.0156V34.255H38.9844V32.2238ZM15.0156 32.2238H12.9844C12.9844 33.3456 13.8938 34.255 15.0156 34.255V32.2238ZM15.0156 32.2238V16.9894H12.9844V32.2238H15.0156ZM15.0156 16.9894V16.9894V14.9581C13.8938 14.9581 12.9844 15.8676 12.9844 16.9894H15.0156ZM15.0156 16.9894H32.688V14.9581H15.0156V16.9894Z" fill="#CAE2BC" mask="url(#path-2-inside-1_108_1079)"/>
<path d="M25.4493 20.6259C25.2932 20.5241 25.0939 20.516 24.93 20.6048C24.7661 20.6935 24.6641 20.8649 24.6641 21.0513V27.145C24.6641 27.3314 24.7661 27.5028 24.93 27.5915C25.0939 27.6803 25.2932 27.6722 25.4493 27.5704L30.1212 24.5235C30.2649 24.4297 30.3516 24.2698 30.3516 24.0981C30.3516 23.9265 30.2649 23.7665 30.1212 23.6728L25.4493 20.6259Z" fill="#CAE2BC" stroke="#CAE2BC" stroke-width="1.01562" stroke-linejoin="round"/>
<path d="M16.8438 29.9888H37.2578" stroke="#CAE2BC" stroke-width="1.01562" stroke-linejoin="round"/>
<circle cx="19.9922" cy="29.9891" r="1.01562" fill="#CAE2BC"/>
<circle cx="18.2959" cy="19.7314" r="0.437799" stroke="#CAE2BC" stroke-width="0.212266"/>
<path fill-rule="evenodd" clip-rule="evenodd" d="M17.6928 18.4117C17.1919 18.6403 16.8438 19.1455 16.8438 19.7321C16.8438 20.3186 17.1919 20.8238 17.6928 21.0524V20.8147C17.313 20.6032 17.056 20.1976 17.056 19.7321C17.056 19.2665 17.313 18.8609 17.6928 18.6494V18.4117ZM18.8957 20.8147C19.2755 20.6032 19.5325 20.1976 19.5325 19.7321C19.5325 19.2665 19.2755 18.8609 18.8957 18.6495V18.4117C19.3966 18.6403 19.7447 19.1455 19.7447 19.7321C19.7447 20.3186 19.3966 20.8238 18.8957 21.0524V20.8147Z" fill="#CAE2BC"/>
<path fill-rule="evenodd" clip-rule="evenodd" d="M17.763 18.8877C17.4829 19.0642 17.2969 19.3763 17.2969 19.7318C17.2969 20.0873 17.4829 20.3994 17.763 20.576V20.3098C17.6069 20.1663 17.5091 19.9605 17.5091 19.7318C17.5091 19.5031 17.6069 19.2973 17.763 19.1538V18.8877ZM18.8243 20.3106C18.9809 20.1671 19.079 19.9609 19.079 19.7318C19.079 19.5027 18.9809 19.2965 18.8243 19.153V18.8871C19.1048 19.0635 19.2913 19.3759 19.2913 19.7318C19.2913 20.0877 19.1048 20.4001 18.8243 20.5765V20.3106Z" fill="#CAE2BC"/>
<defs>
<filter id="filter0_i_108_1079" x="0" y="0" width="55" height="54" filterUnits="userSpaceOnUse" color-interpolation-filters="sRGB">
<feFlood flood-opacity="0" result="BackgroundImageFix"/>
<feBlend mode="normal" in="SourceGraphic" in2="BackgroundImageFix" result="shape"/>
<feColorMatrix in="SourceAlpha" type="matrix" values="0 0 0 0 0 0 0 0 0 0 0 0 0 0 0 0 0 0 127 0" result="hardAlpha"/>
<feOffset dx="2" dy="4"/>
<feGaussianBlur stdDeviation="3.5"/>
<feComposite in2="hardAlpha" operator="arithmetic" k2="-1" k3="1"/>
<feColorMatrix type="matrix" values="0 0 0 0 0 0 0 0 0 0 0 0 0 0 0 0 0 0 0.25 0"/>
<feBlend mode="normal" in2="shape" result="effect1_innerShadow_108_1079"/>
</filter>
</defs>
</svg>
