<svg width="22" height="16" viewBox="0 0 22 16" fill="none" xmlns="http://www.w3.org/2000/svg">
<path d="M10.707 8.95451C10.707 8.69351 10.9186 8.48193 11.1796 8.48193H21.1511C21.4121 8.48193 21.6236 8.69351 21.6236 8.95451V11.311C21.6236 11.572 21.4121 11.7836 21.1511 11.7836H11.1796C10.9186 11.7836 10.707 11.572 10.707 11.311V8.95451Z" fill="#4FA83D"/>
<ellipse cx="17.68" cy="10.1345" rx="0.410486" ry="0.410491" fill="#CAE2BC"/>
<ellipse cx="18.7269" cy="10.1345" rx="0.410486" ry="0.410491" fill="#CAE2BC"/>
<ellipse cx="19.7699" cy="10.1345" rx="0.410486" ry="0.410491" fill="#CAE2BC"/>
<rect x="11.7344" y="8.92175" width="0.433199" height="2.42594" rx="0.2166" fill="#CAE2BC"/>
<rect x="12.5527" y="8.92175" width="0.433199" height="2.42594" rx="0.2166" fill="#CAE2BC"/>
<rect x="13.3711" y="8.92175" width="0.433199" height="2.42594" rx="0.2166" fill="#CAE2BC"/>
<path d="M10.707 12.7318C10.707 12.4709 10.9186 12.2593 11.1796 12.2593H21.1511C21.4121 12.2593 21.6236 12.4709 21.6236 12.7319V15.0873C21.6236 15.3483 21.4121 15.5599 21.1511 15.5599H11.1796C10.9186 15.5599 10.707 15.3483 10.707 15.0873V12.7318Z" fill="#4FA83D"/>
<ellipse cx="17.68" cy="13.9076" rx="0.410486" ry="0.410491" fill="#CAE2BC"/>
<ellipse cx="18.7249" cy="13.9076" rx="0.410486" ry="0.410491" fill="#CAE2BC"/>
<ellipse cx="19.7699" cy="13.9076" rx="0.410486" ry="0.410491" fill="#CAE2BC"/>
<rect x="11.7324" y="12.6947" width="0.433199" height="2.42594" rx="0.2166" fill="#CAE2BC"/>
<rect x="12.5508" y="12.6946" width="0.433199" height="2.42594" rx="0.2166" fill="#CAE2BC"/>
<rect x="13.3691" y="12.6946" width="0.433199" height="2.42594" rx="0.2166" fill="#CAE2BC"/>
<path fill-rule="evenodd" clip-rule="evenodd" d="M0.708997 0.219727C0.317429 0.219727 0 0.537155 0 0.928724V11.5637C0 11.9552 0.317429 12.2727 0.708997 12.2727H10.0625V8.52271C10.0625 8.16914 10.3491 7.88251 10.7027 7.88251H18.1503V0.928724C18.1503 0.537155 17.8329 0.219727 17.4413 0.219727H0.708997Z" fill="#CAE2BC"/>
<path d="M7.36334 7.60396C7.36334 7.63333 7.37942 7.66033 7.40524 7.67432C7.43107 7.68831 7.46248 7.68703 7.48707 7.67099L10.7485 5.544C10.7711 5.52922 10.7848 5.50401 10.7848 5.47697C10.7848 5.44992 10.7711 5.42471 10.7485 5.40994L7.48707 3.28295C7.46248 3.2669 7.43107 3.26562 7.40524 3.27961C7.37942 3.2936 7.36334 3.32061 7.36334 3.34998V7.60396Z" fill="#4FA83D" stroke="#CAE2BC" stroke-width="0.160048" stroke-linejoin="round"/>
<path d="M1.03711 9.75378H9.91614" stroke="#4FA83D" stroke-width="0.426795" stroke-linejoin="round"/>
<circle cx="3.23439" cy="9.75416" r="0.602298" fill="#CAE2BC" stroke="#4FA83D" stroke-width="0.213398"/>
</svg>
