<svg width="23" height="18" viewBox="0 0 23 18" fill="none" xmlns="http://www.w3.org/2000/svg">
<rect x="1.85352" y="9.28821" width="6.19" height="5.27658" fill="#4FA83D"/>
<circle cx="16.1389" cy="11.7356" r="6.20242" transform="rotate(-0.643582 16.1389 11.7356)" fill="#CAE2BC"/>
<path d="M18.7503 11.5438C18.7503 11.0659 18.5788 10.7351 18.4318 10.4774C18.2357 10.159 18.0518 9.88938 18.0518 9.57076C18.0518 9.21527 18.3215 8.88448 18.7013 8.88448C18.7184 8.88448 18.735 8.88661 18.7513 8.88749C18.0635 8.25741 17.147 7.87256 16.1406 7.87256C14.7897 7.87256 13.6016 8.56549 12.9102 9.61529C13.0008 9.61793 13.0864 9.61994 13.159 9.61994C13.5634 9.61994 14.1894 9.57076 14.1894 9.57076C14.3977 9.55834 14.4223 9.86467 14.2142 9.88925C14.2142 9.88925 14.0047 9.91384 13.7718 9.92601L15.1795 14.1143L16.0257 11.5768L15.4232 9.92638C15.2151 9.91422 15.0178 9.88963 15.0178 9.88963C14.8096 9.87734 14.8339 9.55885 15.0423 9.57114C15.0423 9.57114 15.6807 9.62019 16.0605 9.62019C16.4649 9.62019 17.0911 9.57114 17.0911 9.57114C17.2997 9.55885 17.3239 9.86492 17.1157 9.88963C17.1157 9.88963 16.9057 9.91422 16.6732 9.92638L18.0705 14.0826L18.4561 12.7941C18.6232 12.2589 18.7503 11.8747 18.7503 11.5438Z" fill="#4FA83D"/>
<path d="M12.2734 11.7389C12.2734 13.2693 13.1629 14.5918 14.4526 15.2185L12.6081 10.1655C12.3936 10.6462 12.2734 11.1785 12.2734 11.7389Z" fill="#4FA83D"/>
<path d="M16.209 12.0787L15.0488 15.4494C15.3953 15.5513 15.7616 15.6071 16.1412 15.6071C16.5914 15.6071 17.0231 15.5292 17.425 15.3878C17.4145 15.3713 17.4052 15.3538 17.3973 15.3345L16.209 12.0787Z" fill="#4FA83D"/>
<path d="M18.0859 15.0821C19.2355 14.4119 20.0086 13.1665 20.0086 11.7403C20.0087 11.068 19.837 10.4361 19.5349 9.88525C19.5517 10.0083 19.561 10.1406 19.561 10.2828C19.561 10.6751 19.4879 11.1162 19.267 11.6676L18.0859 15.0821Z" fill="#4FA83D"/>
<path d="M16.1406 5.60828C12.7546 5.60828 10.0098 8.35315 10.0098 11.7391C10.0098 15.1251 12.7546 17.87 16.1406 17.87C19.5266 17.87 22.2715 15.1251 22.2715 11.7391C22.2715 8.35315 19.5266 5.60828 16.1406 5.60828ZM16.1408 16.0394C13.7697 16.0394 11.8406 14.1102 11.8406 11.739C11.8406 9.36796 13.7696 7.43895 16.1408 7.43895C18.5117 7.43895 20.4406 9.36796 20.4406 11.739C20.4406 14.1102 18.5117 16.0394 16.1408 16.0394Z" fill="#4FA83D"/>
<path fill-rule="evenodd" clip-rule="evenodd" d="M0.198738 0.337891C0.0932926 0.337891 0.0078125 0.423371 0.0078125 0.528816V7.12858C0.0078125 7.23402 0.0932929 7.3195 0.198738 7.3195H11.3069C12.5242 5.99174 14.273 5.15928 16.2162 5.15928C18.0692 5.15928 19.7453 5.91617 20.9524 7.13762C20.9526 7.13463 20.9526 7.13161 20.9526 7.12858V0.528816C20.9526 0.423371 20.8672 0.337891 20.7617 0.337891H0.198738Z" fill="#CAE2BC"/>
<path fill-rule="evenodd" clip-rule="evenodd" d="M10.5761 15.3781C9.93294 14.3537 9.56103 13.1417 9.56103 11.8428C9.56103 10.6185 9.8915 9.47127 10.4681 8.4856H0.198738C0.0932926 8.4856 0.0078125 8.57108 0.0078125 8.67652V15.2763C0.0078125 15.3817 0.0932929 15.4672 0.198738 15.4672H10.5912C10.5859 15.4376 10.5808 15.4079 10.5761 15.3781ZM2.33597 10.0621C2.33597 9.83262 2.52203 9.64656 2.75154 9.64656C2.98105 9.64656 3.16711 9.83262 3.16711 10.0621V13.8854C3.16711 14.1149 2.98105 14.301 2.75154 14.301C2.52203 14.301 2.33597 14.1149 2.33597 13.8854V10.0621ZM4.32125 9.6464C4.09174 9.6464 3.90568 9.83246 3.90568 10.062V13.8852C3.90568 14.1147 4.09174 14.3008 4.32125 14.3008C4.55077 14.3008 4.73682 14.1147 4.73682 13.8852V10.062C4.73682 9.83246 4.55077 9.6464 4.32125 9.6464ZM5.47536 10.062C5.47536 9.83246 5.66142 9.6464 5.89093 9.6464C6.12045 9.6464 6.3065 9.83246 6.3065 10.062V13.8852C6.3065 14.1147 6.12045 14.3008 5.89093 14.3008C5.66142 14.3008 5.47536 14.1147 5.47536 13.8852V10.062Z" fill="#CAE2BC"/>
<circle cx="12.9204" cy="3.54208" r="0.787566" fill="#4FA83D"/>
<circle cx="14.9262" cy="3.54208" r="0.787566" fill="#4FA83D"/>
<circle cx="16.9301" cy="3.54208" r="0.787566" fill="#4FA83D"/>
<rect x="2.30664" y="1.50195" width="0.831144" height="4.65441" rx="0.415572" fill="#4FA83D"/>
<rect x="3.87695" y="1.50195" width="0.831144" height="4.65441" rx="0.415572" fill="#4FA83D"/>
<rect x="5.44531" y="1.50195" width="0.831144" height="4.65441" rx="0.415572" fill="#4FA83D"/>
</svg>
