<svg width="19" height="19" viewBox="0 0 19 19" fill="none" xmlns="http://www.w3.org/2000/svg">
<path d="M5.61285 18.0653C5.76108 17.8997 5.87373 17.7054 5.94383 17.4944C6.01393 17.2835 6.03998 17.0604 6.02036 16.839C6.02036 16.839 4.16211 18.589 2.78558 18.7387C2.74241 18.2998 2.83226 17.8581 3.04345 17.471C2.35062 17.5977 1.66717 17.7713 0.997826 17.9905C1.22042 17.3235 1.39545 16.6415 1.5216 15.9498C1.13541 16.1635 0.692907 16.2535 0.253906 16.2077C0.403556 14.8317 2.15359 12.9729 2.15359 12.9729C1.93225 12.9543 1.70945 12.9808 1.49866 13.0509C1.28788 13.1209 1.09351 13.233 0.927329 13.3804C0.494459 10.9421 3.75088 10.9272 3.75088 10.9272L8.06227 15.2386C8.06599 15.2454 8.04743 18.4951 5.61285 18.0653Z" fill="#4FA83D"/>
<path d="M3.87528 11.0537C3.12766 11.0663 2.40958 11.3477 1.85253 11.8465C1.71256 12.013 1.62082 12.2147 1.58725 12.4296C1.86385 12.3349 2.15517 12.2905 2.44742 12.2985L3.33357 12.3208L2.72755 12.9676C2.02168 13.7098 1.45209 14.5706 1.04492 15.5104C1.25326 15.4637 1.45631 15.396 1.65094 15.3082L2.33117 15.0163L2.19265 15.7454C2.18523 15.7868 2.05413 16.4708 1.88345 17.1102C2.51916 16.942 3.20742 16.8146 3.24823 16.8072L3.97731 16.6687L3.68543 17.3489C3.59935 17.5442 3.53165 17.7471 3.48322 17.9549C4.42156 17.5449 5.28186 16.9757 6.02603 16.2723L6.67286 15.6662L6.69512 16.5524C6.70418 16.8444 6.66104 17.1357 6.56773 17.4126C6.78155 17.379 6.98201 17.2872 7.14716 17.1473C7.64611 16.5889 7.9275 15.8696 7.93994 15.1208L3.87528 11.0537Z" fill="#CAE2BC"/>
<path d="M11.4204 7.57594C10.531 6.68575 9.40945 6.06323 8.18355 5.77926C6.95765 5.4953 5.67665 5.56131 4.48643 5.96978C3.29622 6.37825 2.24463 7.11276 1.45144 8.08965C0.658254 9.06654 0.155348 10.2465 0 11.4953C0.0846337 11.3935 0.174417 11.296 0.268998 11.2034C1.26838 10.2073 2.62183 9.64805 4.03281 9.64805C5.44379 9.64805 6.79724 10.2073 7.79662 11.2034C8.79267 12.2028 9.35196 13.5562 9.35196 14.9672C9.35196 16.3782 8.79267 17.7316 7.79662 18.731C7.70324 18.8244 7.60245 18.9165 7.50474 19C8.75412 18.845 9.93478 18.3419 10.9121 17.5483C11.8894 16.7547 12.624 15.7024 13.0321 14.5114C13.4403 13.3204 13.5055 12.0387 13.2204 10.8125C12.9354 9.58619 12.312 8.46472 11.4204 7.57594Z" fill="#4FA83D"/>
<path d="M17.2014 2.78039e-08C16.2878 -5.77858e-05 15.3764 0.0900449 14.4805 0.268998C11.8468 0.803927 9.42758 2.0987 7.5216 3.99336C5.61563 5.88801 4.30647 8.29953 3.75586 10.93L8.07467 15.2488C11.1638 14.6056 13.9367 12.917 15.9259 10.4677C17.9151 8.0183 18.999 4.95797 18.9948 1.8026V2.78039e-08H17.2014Z" fill="#CAE2BC"/>
<path d="M14.8646 4.13187C14.5153 3.78321 14.0854 3.52597 13.613 3.38287C13.1406 3.23977 12.6403 3.21521 12.1561 3.31138C11.672 3.40754 11.219 3.62147 10.8372 3.93425C10.4554 4.24703 10.1565 4.64904 9.96689 5.10476C9.7773 5.56047 9.70286 6.05587 9.75016 6.54718C9.79747 7.03849 9.96505 7.51059 10.2381 7.92176C10.5112 8.33293 10.8813 8.67053 11.3158 8.90471C11.7503 9.13889 12.2358 9.26245 12.7293 9.26448C13.3244 9.26544 13.9064 9.08992 14.4017 8.76011C14.8969 8.4303 15.2833 7.96101 15.5119 7.41161C15.7404 6.8622 15.8009 6.25735 15.6857 5.67356C15.5705 5.08977 15.2848 4.55325 14.8646 4.13187Z" fill="white"/>
<path d="M12.7388 8.25682C13.8436 8.25682 14.7392 7.36118 14.7392 6.25634C14.7392 5.15151 13.8436 4.25586 12.7388 4.25586C11.6339 4.25586 10.7383 5.15151 10.7383 6.25634C10.7383 7.36118 11.6339 8.25682 12.7388 8.25682Z" fill="#4FA83D"/>
<path d="M18.728 4.52103L14.4766 0.268999C15.3724 0.0898617 16.2838 -0.000242847 17.1975 4.91552e-07H18.9964V1.79889C18.9967 2.71289 18.9068 3.62469 18.728 4.52103Z" fill="#4FA83D"/>
</svg>
