<svg width="26" height="26" viewBox="0 0 26 26" fill="none" xmlns="http://www.w3.org/2000/svg">
<path d="M12.6535 0.161677L11.3535 1.89468L12.0465 2.41468L12.5665 1.72168V5.18868H13.4335V1.72168L13.9535 2.41468L14.6465 1.89468L13.3465 0.161677C13.2704 0.0702304 13.161 0.0127556 13.0425 0.00188017C12.924 -0.00899522 12.806 0.0276185 12.7145 0.103677C12.6925 0.121109 12.672 0.140524 12.6535 0.161677Z" fill="#4FA83D"/>
<path d="M13.4335 24.2547V20.7877H12.5665V24.2547L12.0465 23.5617L11.3535 24.0817L12.6535 25.8147C12.6938 25.8685 12.7462 25.9122 12.8063 25.9423C12.8664 25.9724 12.9328 25.988 13 25.988C13.0673 25.988 13.1336 25.9724 13.1937 25.9423C13.2539 25.9122 13.3062 25.8685 13.3465 25.8147L14.6465 24.0817L13.9535 23.5617L13.4335 24.2547Z" fill="#4FA83D"/>
<path d="M13.4334 6.05469H12.5664V6.92169H13.4334V6.05469Z" fill="#4FA83D"/>
<path d="M13.4334 19.0547H12.5664V19.9217H13.4334V19.0547Z" fill="#4FA83D"/>
<path d="M5.20033 13.4217V12.5547H1.73333L2.42633 12.0347L1.90633 11.3417L0.173333 12.6417C0.119518 12.682 0.0758367 12.7343 0.0457503 12.7945C0.0156639 12.8546 0 12.9209 0 12.9882C0 13.0554 0.0156639 13.1218 0.0457503 13.1819C0.0758367 13.242 0.119518 13.2943 0.173333 13.3347L1.90633 14.6347L2.42633 13.9417L1.73333 13.4217H5.20033Z" fill="#4FA83D"/>
<path d="M25.8278 12.6418L24.0948 11.3418L23.5748 12.0348L24.2678 12.5548H20.8008V13.4218H24.2678L23.5748 13.9418L24.0948 14.6348L25.8278 13.3348C25.8816 13.2945 25.9253 13.2422 25.9554 13.182C25.9854 13.1219 26.0011 13.0555 26.0011 12.9883C26.0011 12.921 25.9854 12.8547 25.9554 12.7946C25.9253 12.7344 25.8816 12.6821 25.8278 12.6418Z" fill="#4FA83D"/>
<path d="M6.93341 12.5547H6.06641V13.4217H6.93341V12.5547Z" fill="#4FA83D"/>
<path d="M19.9334 12.5547H19.0664V13.4217H19.9334V12.5547Z" fill="#4FA83D"/>
<path d="M4.85028 6.18472L4.72828 5.32672L7.17928 7.77772L7.79228 7.16472L5.33628 4.71372L6.19428 4.83572L6.31729 3.97772L4.17228 3.67072C4.11601 3.66235 4.05864 3.66517 4.00345 3.67899C3.94826 3.69281 3.89634 3.71736 3.85065 3.75126C3.80496 3.78516 3.76639 3.82773 3.73716 3.87654C3.70793 3.92534 3.6886 3.97943 3.68028 4.03572C3.67428 4.07784 3.67428 4.1206 3.68028 4.16272L3.98628 6.30772L4.85028 6.18472Z" fill="#4FA83D"/>
<path d="M21.149 19.7907L21.271 20.6487L18.82 18.1978L18.207 18.8108L20.6581 21.2617L19.801 21.1388L19.678 21.9968L21.823 22.3028C21.8437 22.3043 21.8644 22.3043 21.885 22.3028C21.9999 22.3028 22.11 22.2571 22.1912 22.1759C22.2724 22.0947 22.318 21.9846 22.318 21.8698C22.3196 21.8491 22.3196 21.8284 22.318 21.8077L22.012 19.6628L21.149 19.7907Z" fill="#4FA83D"/>
<path d="M8.40256 9.00564L9.01562 8.39258L8.40256 7.77952L7.7895 8.39258L8.40256 9.00564Z" fill="#4FA83D"/>
<path d="M17.5959 18.1975L18.209 17.5845L17.5959 16.9714L16.9829 17.5845L17.5959 18.1975Z" fill="#4FA83D"/>
<path d="M7.17908 18.1967L4.72808 20.6476L4.85007 19.7896L3.99208 19.6667L3.68407 21.8116C3.66778 21.9254 3.69727 22.041 3.76607 22.133C3.83487 22.2251 3.93737 22.2861 4.05108 22.3026C4.09188 22.3084 4.13328 22.3084 4.17408 22.3026L6.31908 21.9966L6.19608 21.1386L5.33807 21.2607L7.78908 18.8096L7.17908 18.1967Z" fill="#4FA83D"/>
<path d="M18.822 7.77883L21.273 5.32784L21.151 6.18484L22.009 6.30783L22.315 4.16284C22.3245 4.09614 22.3184 4.02814 22.2971 3.96423C22.2758 3.90031 22.2399 3.84223 22.1922 3.79459C22.1446 3.74695 22.0865 3.71106 22.0226 3.68975C21.9587 3.66845 21.8907 3.66231 21.824 3.67184L19.679 3.97784L19.802 4.83583L20.66 4.71384L18.209 7.16484L18.822 7.77883Z" fill="#4FA83D"/>
<path d="M8.40647 18.1967L9.01953 17.5836L8.40647 16.9706L7.79341 17.5836L8.40647 18.1967Z" fill="#4FA83D"/>
<path d="M17.5959 9.00466L18.209 8.3916L17.5959 7.77854L16.9829 8.3916L17.5959 9.00466Z" fill="#4FA83D"/>
<path d="M14.0896 11.0357H15.8336C15.8601 11.0357 15.8856 11.0251 15.9043 11.0064C15.9231 10.9876 15.9336 10.9622 15.9336 10.9357C15.934 10.8519 15.9158 10.7691 15.8804 10.6932C15.8449 10.6172 15.7931 10.5501 15.7286 10.4967L14.2616 9.28165C14.1507 9.18946 14.0109 9.1392 13.8666 9.13965C13.8479 9.13952 13.8294 9.1431 13.8121 9.15019C13.7948 9.15728 13.7791 9.16773 13.7659 9.18095C13.7527 9.19416 13.7422 9.20987 13.7352 9.22715C13.7281 9.24444 13.7245 9.26297 13.7246 9.28165V10.6717C13.7246 10.7195 13.7341 10.767 13.7524 10.8112C13.7708 10.8554 13.7977 10.8956 13.8316 10.9294C13.8655 10.9632 13.9057 10.99 13.95 11.0082C13.9943 11.0265 14.0417 11.0358 14.0896 11.0357Z" fill="#CAE2BC"/>
<path d="M13.2285 10.6717V9.13867H10.7185C10.5561 9.1392 10.4004 9.20395 10.2856 9.3188C10.1707 9.43364 10.106 9.58926 10.1055 9.75167V16.1897C10.106 16.3521 10.1707 16.5077 10.2856 16.6225C10.4004 16.7374 10.5561 16.8021 10.7185 16.8027H15.3185C15.4809 16.8021 15.6365 16.7374 15.7513 16.6225C15.8662 16.5077 15.9309 16.3521 15.9315 16.1897V11.5347H14.0925C13.8635 11.5347 13.6439 11.4438 13.4819 11.282C13.3199 11.1202 13.2287 10.9006 13.2285 10.6717Z" fill="#CAE2BC"/>
</svg>
