<svg width="22" height="21" viewBox="0 0 22 21" fill="none" xmlns="http://www.w3.org/2000/svg">
<path d="M8.61264 7.23051C8.74278 7.16795 8.88793 7.1434 9.0314 7.15967C9.17487 7.17595 9.31083 7.23239 9.42364 7.32251L14.5346 11.4115C14.6249 11.4833 14.6977 11.5746 14.7478 11.6785C14.7978 11.7824 14.8238 11.8962 14.8238 12.0115C14.8238 12.1268 14.7978 12.2407 14.7478 12.3445C14.6977 12.4484 14.6249 12.5397 14.5346 12.6115L9.42764 16.6975C9.31475 16.7878 9.17865 16.8443 9.03503 16.8606C8.8914 16.8769 8.7461 16.8522 8.61587 16.7895C8.48564 16.7268 8.37578 16.6286 8.29895 16.5061C8.22213 16.3837 8.18146 16.2421 8.18164 16.0975V7.92151C8.18136 7.77748 8.22163 7.63628 8.29786 7.51408C8.37408 7.39187 8.48317 7.2936 8.61264 7.23051Z" fill="#4FA83D"/>
<path fill-rule="evenodd" clip-rule="evenodd" d="M2.269 0.224298C2.41281 0.0806724 2.60775 0 2.811 0C3.01425 0 3.20919 0.0806724 3.353 0.224298L5.878 2.7493L8.402 0.224298C8.54742 0.0889781 8.73968 0.0153559 8.93829 0.0189288C9.1369 0.0225016 9.32638 0.102991 9.46684 0.243454C9.60731 0.383917 9.6878 0.573397 9.69137 0.772009C9.69494 0.970622 9.62132 1.16287 9.486 1.3083L7.728 3.0663H19.166C19.9115 3.0663 20.6265 3.36246 21.1537 3.88962C21.6808 4.41679 21.977 5.13177 21.977 5.8773V18.1433C21.9757 18.888 21.6789 19.6017 21.1519 20.1277C20.6249 20.6538 19.9107 20.9493 19.166 20.9493H2.811C2.06634 20.9493 1.35211 20.6538 0.825089 20.1277C0.298067 19.6017 0.00132454 18.888 0 18.1433V5.8773C0 5.13177 0.296158 4.41679 0.823323 3.88962C1.35049 3.36246 2.06548 3.0663 2.811 3.0663H4.027L2.269 1.3083C2.12537 1.16449 2.0447 0.969547 2.0447 0.766298C2.0447 0.563049 2.12537 0.36811 2.269 0.224298ZM2.811 4.5993H19.166C19.5049 4.5993 19.83 4.73394 20.0697 4.97362C20.3094 5.21329 20.444 5.53835 20.444 5.8773V18.1433C20.444 18.4822 20.3094 18.8073 20.0697 19.047C19.83 19.2867 19.5049 19.4213 19.166 19.4213H2.811C2.47205 19.4213 2.14699 19.2867 1.90732 19.047C1.66765 18.8073 1.533 18.4822 1.533 18.1433V5.8773C1.533 5.53835 1.66765 5.21329 1.90732 4.97362C2.14699 4.73394 2.47205 4.5993 2.811 4.5993Z" fill="#CAE2BC"/>
</svg>
