<svg width="19" height="23" viewBox="0 0 19 23" fill="none" xmlns="http://www.w3.org/2000/svg">
<path d="M0.978516 3.44395L9.38515 1.16418L18.0768 3.87141V10.7107L16.2244 16.8376L12.6623 20.3997L9.38515 21.6821L6.82041 20.9696L4.39816 18.6899L2.54585 16.4101L0.978516 12.4205V9.00088V3.44395Z" fill="#CADFBD"/>
<path d="M10.2112 0.806456C10.6035 0.923893 11.0533 1.05632 11.2107 1.1038C11.6454 1.23123 15.8432 2.46805 17.105 2.84035C17.7146 3.02025 18.2519 3.18516 18.2968 3.20515C18.3443 3.22764 18.4068 3.28761 18.4368 3.33758L18.4942 3.42753L18.5017 6.46338C18.5117 10.1214 18.4942 10.5836 18.3043 11.7355C17.7121 15.3461 15.8332 18.5018 13.0797 20.5132C12.3526 21.043 11.5405 21.4977 10.676 21.86C10.2512 22.0374 9.5091 22.2798 9.39417 22.2798C9.28673 22.2798 8.88694 22.1599 8.43719 21.9924C5.71367 20.978 3.38243 18.8691 1.93572 16.1156C1.04121 14.4116 0.521488 12.645 0.329092 10.6361C0.29661 10.2788 0.249138 7.65524 0.271626 7.57278C0.329094 7.36289 0.563967 7.22797 0.766357 7.28793C0.891289 7.32541 1.00623 7.44035 1.04121 7.56029C1.0537 7.61026 1.06619 7.76517 1.06619 7.9026C1.06619 8.40233 1.17364 11.0584 1.28108 11.6855C1.68336 14.0418 2.65033 16.1706 4.11703 17.9346C4.40688 18.282 5.11149 19.0016 5.44881 19.2889C6.51073 20.2034 7.79254 20.9355 9.06934 21.3578L9.38917 21.4627L9.7065 21.3578C12.7598 20.3433 15.2885 17.8972 16.6452 14.6464C17.095 13.567 17.4348 12.2877 17.5797 11.1109C17.6747 10.3438 17.6822 10.0664 17.6822 6.92563V3.8498L16.9501 3.63492C16.5503 3.51748 14.6838 2.96778 12.8048 2.41308L9.38917 1.40863L8.34474 1.71596C7.77005 1.88587 6.98048 2.11824 6.58819 2.23318C6.19591 2.34812 5.71367 2.49054 5.51378 2.55051C5.31388 2.60798 4.23697 2.9253 3.12008 3.25513L1.09118 3.8523V5.7013C1.09118 6.83818 1.08118 7.58277 1.06619 7.63525C1.03121 7.75768 0.906279 7.87761 0.77635 7.91259C0.681402 7.94008 0.64892 7.93758 0.558969 7.9026C0.421543 7.85013 0.329094 7.75268 0.294111 7.62525C0.256632 7.48533 0.256632 3.60494 0.294111 3.45502C0.309103 3.39005 0.354078 3.31509 0.399054 3.27012C0.486507 3.18517 0.349083 3.22764 3.68977 2.24318C8.73453 0.758984 9.30921 0.591574 9.40166 0.594072C9.45413 0.594072 9.81894 0.691519 10.2112 0.806456Z" fill="#4FA83D"/>
<path fill-rule="evenodd" clip-rule="evenodd" d="M5.80418 14.1458C5.80418 14.1458 5.80328 14.1482 5.80418 14.1482C7.25159 14.1482 7.64249 13.3874 7.98771 12.7156C8.26071 12.1843 8.50515 11.7085 9.22089 11.7085C9.93673 11.7085 10.1811 12.1839 10.4542 12.715C10.7994 13.3864 11.1903 14.1468 12.6376 14.1482C12.6385 14.1482 12.6376 14.1458 12.6376 14.1458C14.1692 14.1458 15.4652 12.742 15.4652 11.0986C15.4652 9.45526 14.2097 8.1155 12.6376 8.05147V8.04907H5.80418V8.05147C4.23208 8.1155 2.97656 9.45526 2.97656 11.0986C2.97656 12.742 4.23208 14.0818 5.80418 14.1458ZM5.56855 9.75682C5.457 9.75682 5.36658 9.85045 5.36658 9.96594V11.0115H4.35671C4.24516 11.0115 4.15474 11.1051 4.15474 11.2206C4.15474 11.3361 4.24516 11.4297 4.35671 11.4297H5.36658V12.4753C5.36658 12.5908 5.457 12.6844 5.56855 12.6844C5.6801 12.6844 5.77052 12.5908 5.77052 12.4753V11.4297H6.78039C6.89193 11.4297 6.98236 11.3361 6.98236 11.2206C6.98236 11.1051 6.89193 11.0115 6.78039 11.0115H5.77052V9.96594C5.77052 9.85045 5.6801 9.75682 5.56855 9.75682ZM12.7554 10.4887C13.0808 10.4887 13.3445 10.2157 13.3445 9.87881C13.3445 9.54196 13.0808 9.2689 12.7554 9.2689C12.4301 9.2689 12.1663 9.54196 12.1663 9.87881C12.1663 10.2157 12.4301 10.4887 12.7554 10.4887ZM13.3445 12.3185C13.3445 12.6553 13.0808 12.9284 12.7554 12.9284C12.4301 12.9284 12.1663 12.6553 12.1663 12.3185C12.1663 11.9816 12.4301 11.7085 12.7554 11.7085C13.0808 11.7085 13.3445 11.9816 13.3445 12.3185ZM11.5772 11.7085C11.9026 11.7085 12.1663 11.4355 12.1663 11.0986C12.1663 10.7618 11.9026 10.4887 11.5772 10.4887C11.2519 10.4887 10.9882 10.7618 10.9882 11.0986C10.9882 11.4355 11.2519 11.7085 11.5772 11.7085ZM14.5227 11.0986C14.5227 11.4355 14.2589 11.7085 13.9336 11.7085C13.6083 11.7085 13.3445 11.4355 13.3445 11.0986C13.3445 10.7618 13.6083 10.4887 13.9336 10.4887C14.2589 10.4887 14.5227 10.7618 14.5227 11.0986ZM8.16054 8.78097C8.0304 8.78097 7.9249 8.89019 7.9249 9.02493C7.9249 9.15967 8.0304 9.2689 8.16054 9.2689H10.5169C10.647 9.2689 10.7525 9.15967 10.7525 9.02493C10.7525 8.89019 10.647 8.78097 10.5169 8.78097H8.16054Z" fill="#4FA83D"/>
</svg>
