<svg width="22" height="21" viewBox="0 0 22 21" fill="none" xmlns="http://www.w3.org/2000/svg">
<rect x="2.06445" y="9.58887" width="6.23497" height="5.31491" fill="#4FA83D"/>
<rect x="11.2734" y="10.318" width="10.1822" height="10.11" rx="1.29986" fill="#4FA83D"/>
<path d="M20.0603 11.7882C20.1358 11.8386 20.1625 11.8979 20.1551 11.9986C20.1462 12.123 20.1136 12.1512 19.7566 12.3304L19.4559 12.4815L19.1241 14.5168L18.7923 16.5521L18.8323 16.8113C18.853 16.9535 18.8782 17.112 18.8871 17.1624L18.9019 17.2557H18.9789C19.3863 17.2572 19.7551 17.5623 19.841 17.9667C19.8573 18.0423 19.8618 18.1178 19.8573 18.2037C19.8336 18.5859 19.5759 18.9044 19.2026 19.0111C19.0945 19.0436 18.8782 19.0466 18.7656 19.0185C18.4353 18.9385 18.1672 18.6644 18.0975 18.3356L18.0812 18.263H16.4622C14.932 18.263 14.8416 18.2645 14.8342 18.2882C14.8313 18.303 14.8224 18.3385 14.8179 18.3667C14.812 18.3948 14.7809 18.4748 14.7468 18.5444C14.6417 18.7652 14.4298 18.94 14.181 19.0125C14.1217 19.0288 14.0417 19.0377 13.944 19.0377C13.6892 19.0362 13.4685 18.94 13.2922 18.7503C13.2018 18.6511 13.1041 18.4659 13.0789 18.34C12.9974 17.9445 13.19 17.5372 13.5425 17.3579C13.7973 17.2261 14.0877 17.2261 14.3513 17.3535C14.4891 17.4216 14.6802 17.6068 14.735 17.7253L14.7705 17.8038H16.4577H18.1435L18.1746 17.7401C18.2234 17.6468 18.3257 17.5194 18.3982 17.4631L18.4634 17.4127L18.4219 17.1535C18.3997 17.0098 18.3775 16.8706 18.3731 16.8454L18.3642 16.7965L15.8919 16.7936C13.4211 16.7891 13.4196 16.7891 13.3796 16.758C13.3574 16.7417 13.3263 16.7121 13.3115 16.6913C13.2744 16.6425 12.5738 13.9969 12.5738 13.9065C12.5738 13.8221 12.6197 13.748 12.6923 13.7124C12.7278 13.6962 13.7603 13.5421 15.8386 13.2429C17.5406 12.997 18.936 12.794 18.9374 12.7926C18.9404 12.7911 18.9626 12.6652 18.9878 12.5156C19.0248 12.2948 19.0411 12.2326 19.0693 12.1956C19.0945 12.163 19.207 12.0964 19.4722 11.9601C19.8025 11.7882 19.8484 11.769 19.9284 11.7645C19.998 11.7601 20.0262 11.7645 20.0603 11.7882ZM18.3138 13.3466C18.0205 13.388 17.7776 13.4251 17.7761 13.4266C17.7702 13.431 17.7168 14.0754 17.7213 14.0813C17.7242 14.0857 18.7419 13.9806 18.7463 13.9761C18.7493 13.9732 18.7745 13.8295 18.8026 13.6547C18.8308 13.4799 18.856 13.3229 18.8589 13.3036C18.8634 13.2858 18.8604 13.271 18.856 13.271C18.8515 13.271 18.6071 13.3051 18.3138 13.3466ZM16.7318 13.5762L16.2326 13.6458V13.9406V14.2339H16.2652C16.3422 14.2324 17.2413 14.1331 17.2488 14.1257C17.2547 14.1213 17.2695 13.9761 17.2828 13.8043L17.308 13.4903L17.2695 13.4977C17.2488 13.5021 17.0073 13.5362 16.7318 13.5762ZM15.2046 13.7954C14.8964 13.8398 14.6431 13.8784 14.6402 13.8813C14.6357 13.8858 14.7039 14.3835 14.7098 14.3909C14.7128 14.3924 14.9527 14.3701 15.2446 14.3405L15.7734 14.2857V14.0013C15.7734 13.8443 15.7719 13.7154 15.7689 13.7154C15.766 13.7154 15.5127 13.751 15.2046 13.7954ZM13.0967 14.102C13.0848 14.108 13.1855 14.5257 13.2033 14.5435C13.2122 14.5523 14.2313 14.4472 14.2432 14.4368C14.2462 14.4324 14.2358 14.3198 14.218 14.1865L14.1854 13.9435L13.6477 14.0206C13.3515 14.062 13.1041 14.0991 13.0967 14.102ZM18.1435 14.502C17.8946 14.5272 17.6887 14.5494 17.6872 14.5523C17.6813 14.5583 17.628 15.2012 17.6324 15.2086C17.6354 15.2115 18.5479 15.1641 18.5538 15.1597C18.5567 15.1582 18.5819 15.0145 18.6101 14.8397C18.6382 14.6649 18.6649 14.5049 18.6693 14.4827C18.6752 14.4457 18.6723 14.4427 18.6352 14.4487C18.613 14.4531 18.3923 14.4768 18.1435 14.502ZM16.4874 14.6708L16.2326 14.6975V14.9908V15.2856H16.2726C16.357 15.2856 17.1584 15.2382 17.1643 15.2323C17.1673 15.2293 17.1791 15.1182 17.1895 14.9864C17.1999 14.853 17.2117 14.7108 17.2162 14.6694L17.2221 14.5953L16.9836 14.6205C16.8518 14.6338 16.6281 14.656 16.4874 14.6708ZM15.2401 14.7997C14.9838 14.8249 14.772 14.8471 14.7705 14.8486C14.7691 14.8486 14.7824 14.9627 14.8002 15.1019L14.8342 15.3522L14.8772 15.3582C14.9201 15.3626 15.4282 15.3389 15.6578 15.3197L15.7734 15.3108V15.0323V14.7523H15.7393C15.7215 14.7523 15.4964 14.7731 15.2401 14.7997ZM13.8062 14.9479C13.43 14.9864 13.3292 14.9997 13.3292 15.016C13.3292 15.0338 13.4314 15.4367 13.4388 15.4426C13.4433 15.4485 14.3661 15.3937 14.3721 15.3878C14.378 15.3819 14.3247 14.9523 14.3143 14.9182C14.3099 14.9093 14.3024 14.9005 14.2965 14.9005C14.2906 14.9005 14.0699 14.9212 13.8062 14.9479ZM17.9894 15.6485C17.7776 15.6618 17.6028 15.6737 17.5998 15.6767C17.5969 15.6796 17.585 15.8011 17.5732 15.9462C17.5613 16.0929 17.5495 16.2395 17.5465 16.2736L17.5391 16.3373H17.9524H18.3657L18.3716 16.3032C18.376 16.2855 18.3997 16.1433 18.4249 15.9892C18.4501 15.8337 18.4738 15.69 18.4782 15.6663C18.4886 15.6174 18.5153 15.6174 17.9894 15.6485ZM16.677 15.7226C16.477 15.7344 16.2963 15.7448 16.2726 15.7448H16.2326V16.0411V16.3373L16.6577 16.3343L17.0843 16.3299L17.1021 16.1077C17.111 15.9848 17.1228 15.844 17.1273 15.7922L17.1347 15.7004H17.0873C17.0606 15.7004 16.8769 15.7107 16.677 15.7226ZM15.3068 15.7981C15.0861 15.8114 14.9053 15.8233 14.9024 15.8263C14.9009 15.8277 14.9127 15.9433 14.932 16.084L14.9646 16.3373H15.369H15.7734V16.0559V15.7744H15.7393C15.7215 15.7744 15.526 15.7848 15.3068 15.7981ZM13.9899 15.8707C13.7692 15.884 13.5811 15.8959 13.5722 15.8974C13.5633 15.8988 13.5796 15.9833 13.6151 16.1181L13.6744 16.3373H14.0862C14.4254 16.3373 14.4995 16.3343 14.4995 16.3166C14.4995 16.3062 14.4861 16.1981 14.4698 16.0781C14.4535 15.9581 14.4402 15.8574 14.4402 15.8544C14.4402 15.8455 14.4284 15.847 13.9899 15.8707ZM18.7671 17.7682C18.6219 17.8468 18.5404 17.9816 18.539 18.1445C18.536 18.3534 18.6767 18.5267 18.8856 18.5741C19.1567 18.6348 19.4203 18.3993 19.3996 18.1164C19.3877 17.946 19.2796 17.8082 19.0989 17.7342C19.0219 17.7016 18.8574 17.7179 18.7671 17.7682ZM13.7988 17.7445C13.5159 17.8497 13.43 18.2126 13.6344 18.4393C13.8995 18.7341 14.381 18.543 14.381 18.1401C14.381 17.8468 14.0773 17.6409 13.7988 17.7445Z" fill="#CAE2BC"/>
<rect x="0.515625" y="0.681274" width="21.097" height="7.03233" rx="0.192312" fill="#CAE2BC"/>
<circle cx="13.5511" cy="3.90828" r="0.793288" fill="#4FA83D"/>
<circle cx="15.5726" cy="3.90828" r="0.793288" fill="#4FA83D"/>
<circle cx="17.5921" cy="3.90828" r="0.793288" fill="#4FA83D"/>
<rect x="2.86328" y="1.85388" width="0.837182" height="4.68822" rx="0.418591" fill="#4FA83D"/>
<rect x="4.44531" y="1.85388" width="0.837182" height="4.68822" rx="0.418591" fill="#4FA83D"/>
<rect x="6.02539" y="1.85388" width="0.837182" height="4.68822" rx="0.418591" fill="#4FA83D"/>
<path fill-rule="evenodd" clip-rule="evenodd" d="M0.707937 8.88843C0.601726 8.88843 0.515625 8.97453 0.515625 9.08074V15.7284C0.515625 15.8347 0.601726 15.9208 0.707937 15.9208H10.7921V11.1501C10.7921 10.3642 11.4292 9.727 12.2152 9.727H20.5167C20.9086 9.727 21.2635 9.88543 21.5209 10.1417H21.6126V9.08074C21.6126 8.97453 21.5265 8.88843 21.4203 8.88843H0.707937Z" fill="#CAE2BC"/>
<rect x="2.86133" y="10.0599" width="0.837182" height="4.68822" rx="0.418591" fill="#4FA83D"/>
<rect x="4.44336" y="10.0599" width="0.837182" height="4.68822" rx="0.418591" fill="#4FA83D"/>
<rect x="6.02344" y="10.0599" width="0.837182" height="4.68822" rx="0.418591" fill="#4FA83D"/>
</svg>
