<svg xmlns="http://www.w3.org/2000/svg" width="50" height="50" viewBox="0 0 50 50" fill="none"><g id="Group 45160"><g id="Rectangle 8107" filter="url(#filter0_i_4014_17012)"><rect width="50" height="50" rx="6" fill="#313432"></rect></g><g id="Group 5130"><g id="Group 5093"><g id="Group 5092"><path id="Rectangle 22894" d="M10 32V15C10 14.4477 10.4477 14 11 14H41C41.5523 14 42 14.4477 42 15V35C42 35.5523 41.5523 36 41 36H17" stroke="#59A52C" stroke-width="0.8"></path><path id="Rectangle 22895" d="M10.4 15C10.4 14.6686 10.6686 14.4 11 14.4H41C41.3314 14.4 41.6 14.6686 41.6 15V17.6H10.4V15Z" fill="#CAE2BC" stroke="#59A52C" stroke-width="0.8"></path></g></g></g><g id="Group 45164"><path id="Union" fill-rule="evenodd" clip-rule="evenodd" d="M30 37H22V40H19.5C19.2246 40 19 40.2239 19 40.5C19 40.6567 19.0723 40.7964 19.1855 40.8879C19.2715 40.958 19.3809 41 19.5 41H32.5C32.7754 41 33 40.7761 33 40.5C33 40.2239 32.7754 40 32.5 40H30V37Z" fill="#CAE2BC"></path><g id="Vector"><path d="M13 20.6059C13 20.2713 13.291 20 13.65 20H38.35C38.709 20 39 20.2713 39 20.6059C39 20.9406 38.709 21.2119 38.35 21.2119H13.65C13.291 21.2119 13 20.9406 13 20.6059Z" fill="#CAE2BC"></path><path d="M13 23.8686C13 23.534 13.291 23.2627 13.65 23.2627H38.35C38.709 23.2627 39 23.534 39 23.8686C39 24.2033 38.709 24.4746 38.35 24.4746H13.65C13.291 24.4746 13 24.2033 13 23.8686Z" fill="#CAE2BC"></path><path d="M13 30.3941C13 30.0594 13.291 29.7881 13.65 29.7881H38.35C38.709 29.7881 39 30.0594 39 30.3941C39 30.7287 38.709 31 38.35 31H13.65C13.291 31 13 30.7287 13 30.3941Z" fill="#CAE2BC"></path><path d="M13 27.1314C13 26.7967 13.291 26.5254 13.65 26.5254H38.35C38.709 26.5254 39 26.7967 39 27.1314C39 27.466 38.709 27.7373 38.35 27.7373H13.65C13.291 27.7373 13 27.466 13 27.1314Z" fill="#CAE2BC"></path></g></g><g id="Group 45168"><path id="Vector 61" d="M9.46967 36.9697C9.17678 37.2626 9.17678 37.7374 9.46967 38.0303C9.76256 38.3232 10.2374 38.3232 10.5303 38.0303L9.46967 36.9697ZM14.9697 31.4697L9.46967 36.9697L10.5303 38.0303L16.0303 32.5303L14.9697 31.4697Z" fill="#59A52C"></path><circle id="Ellipse 1629" cx="19" cy="28" r="5.25" fill="#1D1E20" stroke="#59A52C" stroke-width="1.5"></circle><g id="Group 45163"><path id="Vector 53" d="M14 29H17L18.5 27L20.5 28.5L23 26" stroke="#4FA83D" stroke-width="0.6" stroke-linecap="round" stroke-linejoin="round"></path><path id="Ellipse 768" d="M19 27C19 27.2761 18.7761 27.5 18.5 27.5C18.2239 27.5 18 27.2762 18 27C18 26.7239 18.2239 26.5 18.5 26.5C18.7761 26.5 19 26.7239 19 27Z" fill="#CAE2BC"></path><path id="Ellipse 770" d="M21 28.5C21 28.7761 20.7761 29 20.5 29C20.2239 29 20 28.7762 20 28.5C20 28.2239 20.2239 28 20.5 28C20.7761 28 21 28.2239 21 28.5Z" fill="#CAE2BC"></path><path id="Ellipse 769" d="M17.5 29C17.5 29.2761 17.2761 29.5 17 29.5C16.7239 29.5 16.5 29.2761 16.5 29C16.5 28.7239 16.7239 28.5 17 28.5C17.2761 28.5 17.5 28.7239 17.5 29Z" fill="#CAE2BC"></path></g></g></g><defs><filter id="filter0_i_4014_17012" x="0" y="0" width="52" height="54" color-interpolation-filters="sRGB"><feGaussianBlur stdDeviation="3.5"></feGaussianBlur></filter></defs></svg>