<svg xmlns="http://www.w3.org/2000/svg" width="50" height="50" viewBox="0 0 50 50" fill="none"><g id="Group 45158"><g id="Rectangle 8107" filter="url(#filter0_i_4014_16961)"><rect width="50" height="50" rx="6" fill="#313432"></rect></g><g id="SimpleDNS Icon"><path id="Path 14418" d="M24.2037 15.7864C21.9861 15.7886 19.8188 16.4482 17.976 17.682C16.1331 18.9157 14.6975 20.6681 13.8504 22.7176C13.0033 24.7671 12.7829 27.0216 13.2169 29.1964C13.6509 31.3712 14.7199 33.3685 16.2889 34.9359C17.8578 36.5032 19.8561 37.5701 22.0313 38.0019C24.2065 38.4338 26.461 38.211 28.5096 37.3618C30.5583 36.5126 32.3091 35.0752 33.541 33.2311C34.7728 31.3871 35.4303 29.2191 35.4303 27.0015C35.4309 25.5275 35.1408 24.0679 34.5767 22.7062C34.0126 21.3445 33.1855 20.1074 32.1428 19.0657C31.1 18.024 29.8621 17.1982 28.4998 16.6355C27.1375 16.0728 25.6776 15.7842 24.2037 15.7864ZM31.9756 22.5153H28.667C28.3157 21.125 27.7954 19.7829 27.1176 18.5192C29.1647 19.2238 30.8893 20.6425 31.9756 22.5153ZM24.2143 18.0739C25.1567 19.433 25.8797 20.9317 26.3567 22.5153H22.0727C22.5497 20.9319 23.2723 19.4331 24.2143 18.0739ZM21.3094 18.5225C20.6316 19.7862 20.1112 21.1283 19.7598 22.5186H16.4521C17.5352 20.6431 19.2602 19.2234 21.3094 18.5225ZM16.4537 31.4894H19.7615C20.1128 32.8797 20.6332 34.2217 21.311 35.4854C19.2618 34.784 17.5361 33.3638 16.4537 31.4877V31.4894ZM24.2143 35.9307C23.2723 34.5715 22.5496 33.0728 22.0727 31.4894H26.3567C25.8796 33.0724 25.1566 34.5706 24.2143 35.9291V35.9307ZM27.1192 35.4822C27.7971 34.2185 28.3175 32.8764 28.6687 31.4861H31.9773C30.8918 33.3575 29.1686 34.7755 27.1233 35.4805L27.1192 35.4822ZM29.1041 29.2467C29.1229 29.0901 29.1401 28.9343 29.1564 28.7777H26.8982C26.8794 28.9343 26.8599 29.0901 26.8387 29.2467H21.5899C21.5687 29.0901 21.5491 28.9343 21.5304 28.7777H19.2713C19.2876 28.9343 19.3056 29.0901 19.3244 29.2467H15.5338C15.1454 27.7768 15.1454 26.2312 15.5338 24.7613H19.3244C19.3054 24.9173 19.2876 25.0736 19.2713 25.2302H21.5296C21.5483 25.0728 21.5679 24.9162 21.5899 24.7613H26.8387C26.8599 24.9162 26.8799 25.0725 26.899 25.2302H29.1564C29.1401 25.0736 29.1229 24.9179 29.1041 24.7613H32.8948C33.2834 26.2311 33.2834 27.7768 32.8948 29.2467H29.1041Z" fill="#CAE2BC"></path><g id="Group 4259"><path id="Path 14419" d="M18.7586 25.4211H19.597L20.0781 27.6989L20.5674 25.4211H21.4295L20.512 28.5838H19.6622L19.1663 26.2799L18.6648 28.5838H17.8061L16.918 25.4211H17.8061L18.2954 27.6899L18.7586 25.4211Z" fill="#4FA83D"></path><path id="Path 14420" d="M23.4832 25.4214H24.3224L24.8035 27.6991L25.2929 25.4214H26.1549L25.2383 28.584H24.3885L23.8918 26.2801L23.3894 28.584H22.5307L21.6426 25.4214H22.5307L23.02 27.6902L23.4832 25.4214Z" fill="#4FA83D"></path><path id="Path 14421" d="M28.2031 25.4214H29.0415L29.5227 27.6991L30.012 25.4214H30.874L29.9573 28.584H29.1075L28.6109 26.2801L28.1093 28.584H27.2506L26.3633 25.4214H27.2506L27.744 27.6902L28.2031 25.4214Z" fill="#4FA83D"></path><path id="Path 14422" d="M30.8945 27.7163H31.7737V28.584H30.8945V27.7163Z" fill="#4FA83D"></path></g><g id="Group 4263"><g id="Group 4262"><g id="Group 4261"><path id="Ellipse 602" d="M35.436 22.5163C38.2699 22.5163 40.5673 20.2189 40.5673 17.385C40.5673 14.551 38.2699 12.2537 35.436 12.2537C32.602 12.2537 30.3047 14.551 30.3047 17.385C30.3047 20.2189 32.602 22.5163 35.436 22.5163Z" fill="white"></path><g id="Group 4260"><path id="Ellipse 603" d="M40.0803 18.1533C40.4966 15.5876 38.7542 13.1702 36.1885 12.7538C33.6228 12.3375 31.2053 14.0799 30.789 16.6456C30.3727 19.2113 32.1151 21.6288 34.6808 22.0451C37.2465 22.4614 39.664 20.719 40.0803 18.1533Z" fill="#4FA83D"></path></g></g></g></g><g id="gXkcrn.tif"><g id="Group 4264"><path id="Path 14423" d="M37.7136 16.3109C37.7136 16.0456 37.7136 15.7808 37.7136 15.5166C37.7136 15.4008 37.6867 15.3722 37.5791 15.3698C37.0963 15.3671 36.622 15.2429 36.2 15.0085C35.9651 14.8747 35.7449 14.7108 35.519 14.5583C35.4375 14.5012 35.4187 14.4996 35.3347 14.5583L35.0248 14.7801C34.5143 15.1535 33.9005 15.359 33.2682 15.3682C33.1695 15.3682 33.141 15.4016 33.141 15.5092C33.141 15.97 33.141 16.4299 33.141 16.8907C33.1377 17.1239 33.159 17.3569 33.2046 17.5856C33.3324 18.2823 33.6981 18.913 34.2394 19.37C34.5991 19.6709 34.9735 19.9497 35.3404 20.2384C35.4155 20.2972 35.4415 20.2963 35.5174 20.2384C35.8338 19.9938 36.1494 19.7427 36.4667 19.4972C36.6631 19.3484 36.8413 19.177 36.9976 18.9866C37.4502 18.4288 37.7023 17.7353 37.7136 17.0171C37.7193 16.7823 37.7136 16.5466 37.7136 16.3109Z" fill="#CAE2BC"></path><path id="Path 14424" d="M37.7136 16.3108C37.7136 16.5465 37.7193 16.7821 37.7136 17.0178C37.7023 17.736 37.4502 18.4296 36.9976 18.9874C36.8413 19.1778 36.6631 19.3491 36.4667 19.4979C36.1494 19.7425 35.8338 19.992 35.5174 20.2391C35.4415 20.2986 35.4155 20.2986 35.3404 20.2391C34.9726 19.9504 34.5991 19.6683 34.2394 19.3706C33.6983 18.9139 33.3326 18.2835 33.2046 17.5871C33.159 17.3583 33.1377 17.1254 33.141 16.8922C33.141 16.4314 33.141 15.9715 33.141 15.5107C33.141 15.4022 33.1695 15.3713 33.2682 15.3696C33.9005 15.3605 34.5143 15.1551 35.0248 14.7817L35.3347 14.5598C35.4162 14.4994 35.435 14.5011 35.519 14.5598C35.7449 14.7123 35.9651 14.8762 36.2 15.01C36.622 15.2444 37.0963 15.3686 37.5791 15.3712C37.6875 15.3712 37.7136 15.4023 37.7136 15.5181C37.7136 15.7828 37.7136 16.0476 37.7136 16.3124V16.3108Z" fill="#CAE2BC"></path></g></g></g></g><defs><filter id="filter0_i_4014_16961" x="0" y="0" width="52" height="54" color-interpolation-filters="sRGB"><feGaussianBlur stdDeviation="3.5"></feGaussianBlur></filter></defs></svg>