<svg xmlns="http://www.w3.org/2000/svg" width="50" height="50" viewBox="0 0 50 50" fill="none"><g id="Group 45159"><g id="Rectangle 8107" filter="url(#filter0_i_4014_17098)"><rect width="50" height="50" rx="6" fill="#313432"></rect></g><g id="Group 5130"><g id="Group 5093"><g id="Group 5092"><rect id="Rectangle 22894" x="9.4" y="14.4" width="30.9778" height="21.2" rx="0.6" stroke="#CAE2BC" stroke-width="0.8"></rect><path id="Rectangle 22895" d="M9.09375 15C9.09375 14.4477 9.54147 14 10.0938 14H39.4014C39.9537 14 40.4014 14.4477 40.4014 15V18.2308H9.09375V15Z" fill="#CAE2BC"></path></g><g id="Group 5131"><circle id="Ellipse 1584" cx="11.6801" cy="16.3276" r="0.846154" fill="#E31D1D"></circle><circle id="Ellipse 1585" cx="14.2192" cy="16.3276" r="0.846154" fill="#FFB229"></circle><circle id="Ellipse 1586" cx="16.7563" cy="16.3276" r="0.846154" fill="#69E420"></circle></g></g><g id="By Need"><path id="Vector 60" d="M22.0244 22.1247V23.6516L20.1035 24.1605L19.5547 25.433L20.3779 26.1964V26.9599L19.5547 27.9778V28.7412L20.3779 29.5047L21.4298 29.7592L22.0244 30.2681L22.5013 32.3308L27.0552 32.0629L28.0614 31.5405V30.2681L28.8846 29.7592L30.2567 29.5047L30.8055 28.2323L29.9823 27.2143V26.4509L30.8055 25.433L30.2567 23.9061H28.8846L28.0614 23.3971V22.1247L26.4149 21.6157L25.5917 22.3792H24.7685L23.6708 21.6157L22.0244 22.1247Z" fill="#4FA83D"></path><g id="Group 44808"><path id="Subtract" fill-rule="evenodd" clip-rule="evenodd" d="M30.0442 26.8753C30.0465 26.9579 30.0465 27.0404 30.0442 27.123L30.895 28.1888C30.94 28.2448 30.9711 28.3106 30.986 28.381C31.0008 28.4513 30.9989 28.5241 30.9804 28.5935C30.8401 29.1205 30.6305 29.6265 30.3573 30.0984C30.3215 30.1603 30.2717 30.2129 30.212 30.2521C30.1523 30.2913 30.0842 30.3161 30.0133 30.3243L28.65 30.4848C28.5949 30.5429 28.5376 30.6003 28.478 30.6568L28.3266 32.0167C28.3184 32.0876 28.2938 32.1557 28.2547 32.2154C28.2156 32.2751 28.163 32.3249 28.1013 32.3607C27.6296 32.6345 27.1235 32.8442 26.5964 32.9845C26.527 33.003 26.4542 33.005 26.3839 32.9902C26.3136 32.9755 26.2477 32.9445 26.1916 32.8996L25.123 32.0442C25.0404 32.0465 24.9579 32.0465 24.8753 32.0442L23.8095 32.895C23.7535 32.94 23.6876 32.9711 23.6173 32.986C23.547 33.0008 23.4742 32.9989 23.4048 32.9804C22.8778 32.8401 22.3718 32.6305 21.8998 32.3573C21.838 32.3215 21.7854 32.2717 21.7462 32.212C21.7069 32.1523 21.6822 32.0842 21.674 32.0133L21.5152 30.65C21.4574 30.5949 21.4001 30.5376 21.3432 30.478L19.9833 30.3266C19.9124 30.3184 19.8443 30.2938 19.7846 30.2547C19.7249 30.2156 19.6751 30.163 19.6393 30.1013C19.3655 29.6296 19.1558 29.1235 19.0155 28.5964C18.997 28.527 18.995 28.4542 19.0098 28.3839C19.0245 28.3136 19.0555 28.2477 19.1004 28.1916L19.954 27.123V26.8753L19.1033 25.8095C19.0583 25.7535 19.0272 25.6876 19.0123 25.6173C18.9975 25.547 18.9994 25.4742 19.0178 25.4048C19.1582 24.8778 19.3678 24.3718 19.641 23.8998C19.6768 23.838 19.7265 23.7854 19.7863 23.7462C19.846 23.7069 19.914 23.6822 19.985 23.674L21.3483 23.5175C21.4034 23.4597 21.4607 23.4024 21.5203 23.3455L21.6717 21.9833C21.6799 21.9124 21.7045 21.8443 21.7436 21.7846C21.7827 21.7249 21.8352 21.6751 21.897 21.6393C22.3688 21.3658 22.8749 21.156 23.4019 21.0155C23.4713 20.997 23.5441 20.995 23.6144 21.0098C23.6847 21.0245 23.7506 21.0555 23.8067 21.1004L24.8753 21.954H25.123L26.1888 21.1033C26.2448 21.0583 26.3106 21.0272 26.381 21.0123C26.4513 20.9975 26.5241 20.9994 26.5935 21.0178C27.1205 21.1582 27.6265 21.3678 28.0984 21.641C28.1603 21.6768 28.2129 21.7265 28.2521 21.7863C28.2913 21.846 28.3161 21.914 28.3243 21.985L28.4848 23.3483C28.5429 23.4034 28.6003 23.4607 28.6568 23.5203L30.0167 23.6717C30.0876 23.6799 30.1557 23.7045 30.2154 23.7436C30.2751 23.7827 30.3249 23.8352 30.3607 23.897C30.6345 24.3687 30.8442 24.8748 30.9845 25.4019C31.003 25.4713 31.005 25.5441 30.9902 25.6144C30.9755 25.6847 30.9445 25.7506 30.8996 25.8067L30.0442 26.8753ZM29.1212 27.248C29.131 27.0822 29.131 26.9161 29.1212 26.7503H29.1195C29.1119 26.6359 29.1475 26.5228 29.2192 26.4333L30.0328 25.4162C29.9395 25.1195 29.82 24.8318 29.6756 24.5563L28.3811 24.4124C28.2682 24.3999 28.1641 24.3459 28.0887 24.261C27.9783 24.1369 27.8608 24.0194 27.7367 23.909C27.6518 23.8336 27.5979 23.7295 27.5853 23.6166L27.4386 22.3227C27.1631 22.1784 26.8753 22.0589 26.5786 21.9655L25.5598 22.779C25.4711 22.8501 25.3591 22.8856 25.2457 22.8788C25.0799 22.869 24.9138 22.869 24.748 22.8788C24.6346 22.8856 24.5226 22.8501 24.4339 22.779L23.4168 21.9655C23.1201 22.0588 22.8323 22.1783 22.5569 22.3227L22.413 23.6166C22.4004 23.7298 22.3463 23.8342 22.261 23.9096C22.1369 24.0199 22.0194 24.1375 21.909 24.2616C21.8336 24.3465 21.7295 24.4004 21.6166 24.413L20.3227 24.5597C20.1784 24.8352 20.0589 25.123 19.9655 25.4197L20.779 26.4384C20.8501 26.5272 20.8856 26.6392 20.8788 26.7526C20.869 26.9184 20.869 27.0845 20.8788 27.2502C20.8856 27.3637 20.8501 27.4757 20.779 27.5644L19.9655 28.5815C20.0588 28.8782 20.1783 29.166 20.3227 29.4414L21.6172 29.5859C21.73 29.5984 21.8342 29.6524 21.9096 29.7373C22.0199 29.8614 22.1375 29.9789 22.2616 30.0893C22.3465 30.1646 22.4004 30.2688 22.413 30.3816L22.5597 31.6756C22.8352 31.8199 23.123 31.9394 23.4197 32.0328L24.439 31.2187C24.5278 31.1476 24.6397 31.1121 24.7532 31.1189C24.9189 31.1287 25.0851 31.1287 25.2508 31.1189H25.2783C25.3825 31.1188 25.4836 31.1542 25.565 31.2192L26.582 32.0328C26.8787 31.9395 27.1665 31.82 27.442 31.6756L27.5859 30.3811C27.5984 30.2682 27.6524 30.1641 27.7373 30.0887C27.8614 29.9783 27.9789 29.8608 28.0893 29.7367C28.1646 29.6518 28.2688 29.5979 28.3816 29.5853L29.6773 29.4386C29.8216 29.1631 29.9411 28.8753 30.0345 28.5786L29.221 27.5621C29.1499 27.4734 29.1144 27.3614 29.1212 27.248Z" fill="#CAE2BC"></path><path id="Vector" d="M25.6414 23.6597C25.6084 23.646 25.5727 23.6405 25.5373 23.6436C25.5019 23.6467 25.4678 23.6584 25.438 23.6776C25.4082 23.6968 25.3836 23.723 25.3662 23.7539C25.3489 23.7848 25.3393 23.8195 25.3383 23.8551L25.2982 25.3619L24.8949 25.6273L24.4844 25.3666L24.4036 23.8605C24.4016 23.8249 24.3911 23.7903 24.3729 23.7596C24.3548 23.7289 24.3294 23.703 24.2991 23.6841C24.2688 23.6653 24.2344 23.654 24.1989 23.6513C24.1634 23.6486 24.1279 23.6545 24.0953 23.6686C23.7985 23.7969 23.5384 23.9963 23.3377 24.2493C23.137 24.5024 23.0019 24.8013 22.9443 25.1199C22.8867 25.4385 22.9084 25.7669 23.0074 26.0764C23.1063 26.3858 23.2796 26.6669 23.512 26.8947C23.708 27.0874 23.9413 27.2379 24.1974 27.3368L24.0684 29.5203C24.0679 29.5256 24.068 29.531 24.0678 29.5363C24.071 29.7696 24.1667 29.9929 24.334 30.157C24.4168 30.2382 24.5147 30.3025 24.622 30.3461C24.7294 30.3897 24.8441 30.4118 24.9597 30.4111C25.0753 30.4104 25.1894 30.387 25.2955 30.3422C25.4017 30.2973 25.4978 30.232 25.5784 30.1498C25.7412 29.9838 25.8309 29.7595 25.8278 29.5261C25.8277 29.5211 25.8274 29.5154 25.827 29.5104L25.6384 27.3285C25.9436 27.2071 26.213 27.0114 26.4224 26.7589C26.6318 26.5065 26.7745 26.2053 26.8376 25.8827C26.9007 25.5601 26.8822 25.2262 26.7837 24.9113C26.6853 24.5964 26.5101 24.3103 26.2739 24.0791C26.0918 23.8999 25.877 23.7575 25.6414 23.6597ZM25.9964 26.5693C25.8146 26.7542 25.5885 26.8898 25.3393 26.9633C25.291 26.9776 25.2493 27.008 25.221 27.0496C25.1927 27.0911 25.1796 27.1412 25.1839 27.1915L25.3875 29.5359C25.3861 29.6506 25.34 29.7598 25.2589 29.8404C25.1778 29.9209 25.0682 29.9664 24.9535 29.967C24.8388 29.9677 24.728 29.9235 24.6447 29.8439C24.5615 29.7643 24.5124 29.6556 24.5079 29.5409L24.6473 27.1958C24.6503 27.1454 24.6359 27.0954 24.6065 27.0541C24.577 27.0129 24.5343 26.9829 24.4856 26.9692C24.2061 26.8906 23.9537 26.735 23.7577 26.5201C23.5616 26.3052 23.4297 26.0398 23.3772 25.7544C23.3247 25.469 23.3537 25.1752 23.4609 24.9068C23.5681 24.6384 23.749 24.4063 23.983 24.2372L24.0508 25.5007C24.0528 25.5359 24.0631 25.5702 24.0809 25.6006C24.0988 25.6311 24.1237 25.6569 24.1535 25.6759L24.7809 26.0741C24.8168 26.0969 24.8584 26.1089 24.9008 26.1087C24.9431 26.1084 24.9844 26.096 25.0197 26.0728L25.6366 25.667C25.6659 25.6477 25.6901 25.6216 25.7072 25.5909C25.7242 25.5602 25.7336 25.5258 25.7345 25.4906L25.7682 24.2265C25.9523 24.3554 26.1064 24.5225 26.2198 24.7164C26.3332 24.9103 26.4033 25.1263 26.425 25.3492C26.4467 25.5722 26.4196 25.7969 26.3456 26.0076C26.2716 26.2183 26.1525 26.41 25.9964 26.5693Z" fill="#CAE2BC"></path></g></g></g></g><defs><filter id="filter0_i_4014_17098" x="0" y="0" width="52" height="54" color-interpolation-filters="sRGB"><feGaussianBlur stdDeviation="3.5"></feGaussianBlur></filter></defs></svg>