<svg xmlns="http://www.w3.org/2000/svg" width="50" height="50" viewBox="0 0 50 50" fill="none"><g id="Group 45160"><g id="Rectangle 8107" filter="url(#filter0_i_4014_17136)"><rect width="50" height="50" rx="6" fill="#313432"></rect></g><g id="Group 45050"><g id="Black"><path id="Vector" d="M36.2614 14.0749C36.4861 14.2246 36.5654 14.4008 36.5433 14.7004C36.5169 15.0704 36.42 15.1541 35.3584 15.6871L34.4642 16.1364L33.4775 22.1887L32.4909 28.2409L32.6098 29.0118C32.6715 29.4347 32.7463 29.906 32.7728 30.0558L32.8168 30.3333H33.0459C34.2572 30.3377 35.354 31.2451 35.6095 32.4476C35.658 32.6722 35.6712 32.8969 35.658 33.1524C35.5875 34.2888 34.821 35.2359 33.711 35.553C33.3895 35.6499 32.7463 35.6588 32.4116 35.5751C31.4293 35.3372 30.632 34.5223 30.425 33.5444L30.3765 33.3286H25.562C21.0118 33.3286 20.7431 33.333 20.721 33.4035C20.7122 33.4475 20.6858 33.5532 20.6726 33.6369C20.655 33.7206 20.5625 33.9585 20.4611 34.1655C20.1484 34.8218 19.5185 35.3416 18.7785 35.5574C18.6023 35.6059 18.3644 35.6323 18.0737 35.6323C17.3161 35.6279 16.6597 35.3416 16.1356 34.7778C15.8669 34.4827 15.5761 33.932 15.5013 33.5576C15.259 32.3815 15.8316 31.1702 16.88 30.6372C17.6376 30.2452 18.501 30.2452 19.285 30.624C19.6947 30.8266 20.2629 31.3772 20.4259 31.7296L20.5316 31.9631H25.5488H30.5615L30.654 31.7737C30.7994 31.4961 31.1033 31.1173 31.3192 30.9499L31.513 30.8002L31.3896 30.0293C31.3236 29.6021 31.2575 29.188 31.2443 29.1131L31.2178 28.9678L23.8661 28.9589C16.5188 28.9457 16.5144 28.9457 16.3955 28.8532C16.3294 28.8048 16.2369 28.7167 16.1928 28.655C16.0827 28.5096 13.9992 20.6425 13.9992 20.3738C13.9992 20.1228 14.1358 19.9025 14.3516 19.7968C14.4573 19.7484 17.5275 19.2902 23.7075 18.4005C28.7687 17.6693 32.9181 17.0658 32.9225 17.0614C32.9313 17.057 32.9974 16.6826 33.0723 16.2377C33.1824 15.5813 33.2309 15.3963 33.3146 15.2862C33.3895 15.1893 33.7242 14.9911 34.5127 14.5858C35.495 14.0749 35.6315 14.0176 35.8694 14.0044C36.0764 13.9912 36.1601 14.0044 36.2614 14.0749ZM31.0681 18.7088C30.1959 18.8321 29.4735 18.9423 29.4691 18.9467C29.4515 18.9599 29.2929 20.876 29.3061 20.8936C29.3149 20.9068 32.3411 20.5941 32.3543 20.5809C32.3631 20.5721 32.438 20.1448 32.5217 19.625C32.6054 19.1052 32.6803 18.6383 32.6891 18.5811C32.7023 18.5282 32.6935 18.4842 32.6803 18.4842C32.6671 18.4842 31.9402 18.5855 31.0681 18.7088ZM26.3637 19.3916L24.8792 19.5986V20.4752V21.3473H24.9761C25.2052 21.3429 27.879 21.0478 27.901 21.0258C27.9186 21.0126 27.9626 20.5809 28.0023 20.0699L28.0772 19.1361L27.9626 19.1581C27.901 19.1713 27.183 19.2726 26.3637 19.3916ZM21.8223 20.0435C20.906 20.1756 20.1528 20.2902 20.144 20.299C20.1308 20.3122 20.3334 21.7922 20.351 21.8142C20.3598 21.8186 21.0734 21.7526 21.9412 21.6645L23.5137 21.5015V20.6558C23.5137 20.1888 23.5093 19.8056 23.5005 19.8056C23.4917 19.8056 22.7385 19.9113 21.8223 20.0435ZM15.5541 20.9553C15.5189 20.9729 15.8184 22.2151 15.8713 22.2679C15.8977 22.2944 18.9283 21.9816 18.9635 21.9508C18.9723 21.9376 18.9415 21.6028 18.8886 21.2064L18.7917 20.484L17.1927 20.713C16.3118 20.8364 15.5761 20.9465 15.5541 20.9553ZM30.5615 22.1446C29.8215 22.2195 29.2092 22.2856 29.2048 22.2944C29.1872 22.312 29.0286 24.2237 29.0418 24.2457C29.0507 24.2545 31.7641 24.1136 31.7817 24.1004C31.7905 24.096 31.8654 23.6687 31.9491 23.1489C32.0327 22.6291 32.112 22.1534 32.1253 22.0873C32.1429 21.9772 32.1341 21.9684 32.0239 21.986C31.9579 21.9992 31.3015 22.0697 30.5615 22.1446ZM25.6369 22.6468L24.8792 22.726V23.5982V24.4748H24.9982C25.2492 24.4748 27.6323 24.3338 27.6499 24.3162C27.6587 24.3074 27.6939 23.977 27.7248 23.585C27.7556 23.1886 27.7909 22.7657 27.8041 22.6424L27.8217 22.4221L27.1125 22.497C26.7205 22.5366 26.0553 22.6027 25.6369 22.6468ZM21.928 23.03C21.1659 23.1049 20.536 23.1709 20.5316 23.1753C20.5272 23.1753 20.5669 23.5145 20.6197 23.9286L20.721 24.673L20.8488 24.6906C20.9765 24.7038 22.4874 24.6334 23.1701 24.5761L23.5137 24.5497V23.7215V22.889H23.4124C23.3596 22.889 22.69 22.9507 21.928 23.03ZM17.6641 23.4705C16.5452 23.585 16.2457 23.6246 16.2457 23.6731C16.2457 23.726 16.5496 24.9241 16.5716 24.9417C16.5849 24.9593 19.3291 24.7963 19.3467 24.7787C19.3643 24.7611 19.2058 23.4837 19.1749 23.3824C19.1617 23.3559 19.1397 23.3295 19.1221 23.3295C19.1044 23.3295 18.4481 23.3912 17.6641 23.4705ZM30.1034 25.554C29.4735 25.5936 28.9537 25.6289 28.9449 25.6377C28.9361 25.6465 28.9009 26.0077 28.8656 26.4394C28.8304 26.8754 28.7952 27.3115 28.7864 27.4128L28.7643 27.6022H29.9933H31.2223L31.2399 27.5009C31.2531 27.4481 31.3236 27.0252 31.3984 26.5671C31.4733 26.1046 31.5438 25.6773 31.557 25.6068C31.5879 25.4615 31.6671 25.4615 30.1034 25.554ZM26.2007 25.7742C25.606 25.8095 25.0686 25.8403 24.9982 25.8403H24.8792V26.7213V27.6022L26.1434 27.5934L27.412 27.5802L27.4649 26.9195C27.4913 26.5539 27.5266 26.1354 27.5398 25.9812L27.5618 25.7081H27.4208C27.3416 25.7081 26.7954 25.739 26.2007 25.7742ZM22.1262 25.9989C21.4699 26.0385 20.9325 26.0738 20.9237 26.0826C20.9193 26.087 20.9545 26.4305 21.0118 26.849L21.1087 27.6022H22.3112H23.5137V26.7653V25.9284H23.4124C23.3596 25.9284 22.7781 25.9592 22.1262 25.9989ZM18.2103 26.2147C17.5539 26.2544 16.9945 26.2896 16.9681 26.294C16.9417 26.2984 16.9901 26.5495 17.0958 26.9503L17.272 27.6022H18.4966C19.5053 27.6022 19.7255 27.5934 19.7255 27.5406C19.7255 27.5097 19.6859 27.1882 19.6374 26.8314C19.589 26.4746 19.5493 26.1751 19.5493 26.1663C19.5493 26.1398 19.5141 26.1442 18.2103 26.2147ZM32.416 31.8573C31.9843 32.0908 31.742 32.4917 31.7376 32.9762C31.7288 33.5973 32.1473 34.1126 32.7684 34.2536C33.5745 34.4342 34.3585 33.7338 34.2969 32.8925C34.2616 32.3859 33.9401 31.9763 33.4027 31.756C33.1736 31.6591 32.6847 31.7076 32.416 31.8573ZM17.642 31.7869C16.8007 32.0996 16.5452 33.1788 17.1531 33.8528C17.9416 34.7293 19.3731 34.1611 19.3731 32.963C19.3731 32.0908 18.4701 31.4785 17.642 31.7869Z" fill="#59A52C"></path></g></g></g><defs><filter id="filter0_i_4014_17136" x="0" y="0" width="52" height="54" color-interpolation-filters="sRGB"><feGaussianBlur stdDeviation="3.5"></feGaussianBlur></filter></defs></svg>