<svg xmlns="http://www.w3.org/2000/svg" width="23" height="23" viewBox="0 0 23 23" fill="none"><path d="M5.64491 2.09941V4.94941L2.05955 5.89941L1.03516 8.27441L2.57174 9.69941V11.1244L1.03516 13.0244V14.4494L2.57174 15.8744L4.53516 16.3494L5.64491 17.2994L6.53516 21.1494L15.0352 20.6494L16.9132 19.6744V17.2994L18.4498 16.3494L21.0108 15.8744L22.0352 13.4994L20.4986 11.5994V10.1744L22.0352 8.27441L21.0108 5.42441H18.4498L16.9132 4.47441V2.09941L13.84 1.14941L12.3034 2.57441H10.7669L8.71808 1.14941L5.64491 2.09941Z" fill="#4FA83D"></path><path fill-rule="evenodd" clip-rule="evenodd" d="M20.6144 10.9664C20.6187 11.1205 20.6187 11.2746 20.6144 11.4287L22.2024 13.418C22.2863 13.5227 22.3445 13.6456 22.3722 13.7768C22.3999 13.908 22.3963 14.0439 22.3619 14.1735C22.0999 15.1571 21.7088 16.1017 21.1987 16.9825C21.1319 17.0979 21.0391 17.1962 20.9276 17.2694C20.8161 17.3426 20.6891 17.3887 20.5566 17.4041L18.0119 17.7038C17.9092 17.8122 17.8022 17.9192 17.6909 18.0248L17.4084 20.5631C17.3931 20.6954 17.3471 20.8224 17.2741 20.9339C17.2011 21.0453 17.1031 21.1382 16.9879 21.2051C16.1073 21.7161 15.1627 22.1076 14.1789 22.3694C14.0493 22.404 13.9135 22.4077 13.7823 22.3802C13.651 22.3527 13.5281 22.2947 13.4234 22.211L11.4287 20.6144C11.2746 20.6187 11.1205 20.6187 10.9664 20.6144L8.97714 22.2024C8.8725 22.2863 8.74962 22.3445 8.61839 22.3722C8.48717 22.3999 8.35127 22.3963 8.22165 22.3619C7.23807 22.0999 6.29352 21.7088 5.41265 21.1987C5.29722 21.1319 5.19899 21.0391 5.12579 20.9276C5.05259 20.8161 5.00645 20.6891 4.99104 20.5566L4.69462 18.0119C4.5869 17.9092 4.47989 17.8022 4.37359 17.6909L1.83533 17.4084C1.70296 17.3931 1.57599 17.3471 1.46453 17.2741C1.35306 17.2011 1.26018 17.1031 1.19327 16.9879C0.682268 16.1073 0.290742 15.1627 0.0290082 14.1789C-0.0055985 14.0493 -0.00929634 13.9135 0.0182123 13.7823C0.0457209 13.651 0.103667 13.5281 0.187382 13.4234L1.78075 11.4287V10.9664L0.192733 8.97714C0.108834 8.8725 0.0506942 8.74962 0.0229989 8.61839C-0.00469626 8.48717 -0.00117168 8.35127 0.0332887 8.22165C0.295285 7.23807 0.686418 6.29352 1.19648 5.41265C1.26327 5.29722 1.3561 5.19899 1.46757 5.12579C1.57904 5.05259 1.70607 5.00645 1.83854 4.99104L4.38322 4.6989C4.48595 4.59118 4.59296 4.48417 4.70425 4.37787L4.98676 1.83533C5.00205 1.70296 5.04803 1.57599 5.12104 1.46453C5.19405 1.35306 5.29207 1.26018 5.4073 1.19327C6.28805 0.682711 7.23262 0.29121 8.2163 0.0290082C8.34583 -0.0055985 8.48168 -0.00929634 8.61291 0.0182123C8.74413 0.0457209 8.86706 0.103667 8.97179 0.187382L10.9664 1.78075H11.4287L13.418 0.192733C13.5227 0.108834 13.6456 0.0506942 13.7768 0.0229989C13.908 -0.00469626 14.0439 -0.00117168 14.1735 0.0332887C15.1571 0.295285 16.1017 0.686418 16.9825 1.19648C17.0979 1.26327 17.1962 1.3561 17.2694 1.46757C17.3426 1.57904 17.3887 1.70607 17.4041 1.83854L17.7038 4.38322C17.8122 4.48595 17.9192 4.59296 18.0248 4.70425L20.5631 4.98676C20.6954 5.00205 20.8224 5.04803 20.9339 5.12104C21.0453 5.19405 21.1382 5.29207 21.2051 5.4073C21.7161 6.28783 22.1076 7.23246 22.3694 8.2163C22.404 8.34583 22.4077 8.48168 22.3802 8.61291C22.3527 8.74413 22.2947 8.86706 22.211 8.97179L20.6144 10.9664ZM18.8916 11.662C18.9098 11.3527 18.9098 11.0425 18.8916 10.7332H18.8884C18.8743 10.5196 18.9407 10.3084 19.0746 10.1414L20.593 8.24305C20.4189 7.68927 20.1958 7.1521 19.9263 6.63791L17.5101 6.36932C17.2995 6.34594 17.105 6.24528 16.9643 6.08681C16.7583 5.85515 16.539 5.63576 16.3073 5.42978C16.1488 5.28909 16.0482 5.09464 16.0248 4.88403L15.7508 2.46882C15.2366 2.19949 14.6994 1.97639 14.1457 1.80216L12.2441 3.32062C12.0785 3.45321 11.8695 3.51956 11.6577 3.50682C11.3484 3.48862 11.0382 3.48862 10.7289 3.50682C10.5171 3.51956 10.3081 3.45321 10.1425 3.32062L8.24412 1.80216C7.69034 1.97626 7.15317 2.19937 6.63898 2.46882L6.37039 4.88403C6.34699 5.09517 6.24591 5.29007 6.08681 5.43085C5.85515 5.63683 5.63576 5.85622 5.42978 6.08788C5.28909 6.24635 5.09464 6.34701 4.88403 6.37039L2.46882 6.64433C2.19949 7.15858 1.97639 7.69574 1.80216 8.24947L3.32062 10.151C3.45321 10.3167 3.51956 10.5257 3.50682 10.7374C3.48862 11.0468 3.48862 11.3569 3.50682 11.6663C3.51956 11.8781 3.45321 12.0871 3.32062 12.2527L1.80216 14.151C1.97626 14.7048 2.19937 15.242 2.46882 15.7562L4.8851 16.0259C5.09571 16.0492 5.29016 16.1499 5.43085 16.3084C5.63683 16.54 5.85622 16.7594 6.08788 16.9654C6.24635 17.1061 6.34701 17.3005 6.37039 17.5111L6.64433 19.9263C7.15858 20.1957 7.69574 20.4188 8.24947 20.593L10.1521 19.0735C10.3177 18.9409 10.5267 18.8745 10.7385 18.8873C11.0479 18.9055 11.358 18.9055 11.6674 18.8873H11.7187C11.9132 18.8871 12.1019 18.9532 12.2538 19.0746L14.1521 20.593C14.7059 20.4189 15.2431 20.1958 15.7573 19.9263L16.0259 17.5101C16.0492 17.2995 16.1499 17.105 16.3084 16.9643C16.54 16.7583 16.7594 16.539 16.9654 16.3073C17.1061 16.1488 17.3005 16.0482 17.5111 16.0248L19.9296 15.7508C20.1989 15.2366 20.422 14.6994 20.5962 14.1457L19.0778 12.2484C18.9452 12.0828 18.8788 11.8738 18.8916 11.662Z" fill="#CAE2BC"></path><path d="M12.3953 4.96389C12.3338 4.93833 12.2671 4.92801 12.201 4.93382C12.1349 4.93963 12.0713 4.9614 12.0157 4.99726C11.9601 5.03312 11.9141 5.082 11.8817 5.13971C11.8493 5.19742 11.8315 5.26223 11.8297 5.32859L11.7548 8.14112L11.0019 8.63645L10.2357 8.14985L10.0849 5.33863C10.0813 5.2723 10.0617 5.2077 10.0277 5.15038C9.99377 5.09305 9.94648 5.04471 9.88991 5.00949C9.83334 4.97428 9.76917 4.95325 9.70292 4.94819C9.63666 4.94314 9.5703 4.95422 9.50951 4.98049C8.95557 5.21989 8.46997 5.5921 8.09537 6.06444C7.72077 6.53677 7.46864 7.09476 7.36113 7.68939C7.25363 8.28401 7.29403 8.89707 7.4788 9.47469C7.66357 10.0523 7.98704 10.5768 8.4208 11.0022C8.78655 11.3618 9.22204 11.6428 9.70001 11.8273L9.4593 15.9029C9.45834 15.9127 9.45848 15.9229 9.45825 15.9327C9.46413 16.3683 9.64282 16.785 9.95501 17.0912C10.1096 17.2429 10.2923 17.3628 10.4927 17.4442C10.6931 17.5256 10.9072 17.5668 11.1229 17.5656C11.3386 17.5643 11.5516 17.5206 11.7498 17.437C11.9479 17.3533 12.1274 17.2313 12.2778 17.0779C12.5817 16.7681 12.7491 16.3494 12.7432 15.9138C12.7431 15.9044 12.7426 15.8938 12.7417 15.8844L12.3898 11.8118C12.9593 11.5853 13.4623 11.2199 13.8531 10.7487C14.2439 10.2775 14.5103 9.71535 14.628 9.11317C14.7458 8.511 14.7112 7.8878 14.5275 7.29999C14.3438 6.71218 14.0168 6.17833 13.5759 5.74676C13.2361 5.41232 12.8352 5.14645 12.3953 4.96389ZM13.058 10.3948C12.7186 10.74 12.2966 10.9929 11.8315 11.1302C11.7414 11.1568 11.6634 11.2137 11.6106 11.2912C11.5578 11.3687 11.5334 11.4623 11.5415 11.5561L11.9214 15.9319C11.9188 16.146 11.8327 16.35 11.6814 16.5003C11.53 16.6507 11.3255 16.7355 11.1113 16.7367C10.8972 16.738 10.6904 16.6555 10.535 16.5069C10.3797 16.3583 10.288 16.1554 10.2797 15.9414L10.5399 11.5641C10.5455 11.47 10.5186 11.3767 10.4636 11.2997C10.4086 11.2227 10.329 11.1667 10.238 11.1412C9.71622 10.9946 9.24526 10.704 8.87928 10.3028C8.5133 9.90172 8.26716 9.40634 8.16917 8.87368C8.07118 8.34101 8.12531 7.79267 8.32534 7.2917C8.52537 6.79073 8.86318 6.35747 9.29992 6.04172L9.42651 8.40019C9.43007 8.46585 9.44934 8.52982 9.4827 8.58671C9.51606 8.64361 9.56253 8.69177 9.6182 8.72715L10.7892 9.47052C10.8562 9.51304 10.9339 9.53541 11.013 9.53496C11.092 9.5345 11.1691 9.51124 11.2349 9.46796L12.3864 8.7105C12.4411 8.67448 12.4862 8.62579 12.5181 8.56852C12.5499 8.51125 12.5674 8.44708 12.5692 8.38139L12.632 6.02182C12.9756 6.26234 13.2633 6.57441 13.475 6.93632C13.6867 7.29823 13.8174 7.70129 13.8579 8.11748C13.8984 8.53366 13.8479 8.95298 13.7098 9.34627C13.5716 9.73956 13.3492 10.0974 13.058 10.3948Z" fill="#CAE2BC"></path></svg>