<svg xmlns="http://www.w3.org/2000/svg" width="50" height="50" viewBox="0 0 50 50" fill="none"><g id="Group 45162"><g id="Rectangle 8107" filter="url(#filter0_i_4014_17192)"><rect width="50" height="50" rx="6" fill="#313432"></rect></g><g id="Group 45166"><circle id="Ellipse 1636" cx="25" cy="25" r="14.5" fill="#CAE2BC" stroke="#59A52C"></circle><path id="$" d="M26.0645 16V18.8613H24.5215V16H26.0645ZM25.8691 31.9473V34.5742H24.3262V31.9473H25.8691ZM26.7285 28.7148C26.7285 28.3503 26.6667 28.0443 26.543 27.7969C26.4258 27.5495 26.2305 27.3314 25.957 27.1426C25.6836 26.9538 25.3223 26.7682 24.873 26.5859C24.0137 26.2474 23.2585 25.8958 22.6074 25.5312C21.9564 25.1602 21.4486 24.6979 21.084 24.1445C20.7194 23.5911 20.5371 22.8815 20.5371 22.0156C20.5371 21.2083 20.7324 20.5085 21.123 19.916C21.5137 19.3171 22.054 18.8548 22.7441 18.5293C23.4408 18.2038 24.2448 18.041 25.1562 18.041C25.8529 18.041 26.4876 18.1452 27.0605 18.3535C27.6335 18.5618 28.125 18.8613 28.5352 19.252C28.9518 19.6426 29.2708 20.1243 29.4922 20.6973C29.7135 21.2637 29.8242 21.9115 29.8242 22.6406H26.7676C26.7676 22.2565 26.7285 21.9245 26.6504 21.6445C26.5723 21.3581 26.4583 21.1237 26.3086 20.9414C26.1589 20.7526 25.9831 20.6126 25.7812 20.5215C25.5859 20.4303 25.3646 20.3848 25.1172 20.3848C24.7591 20.3848 24.4661 20.4596 24.2383 20.6094C24.0104 20.7526 23.8444 20.9479 23.7402 21.1953C23.6361 21.4427 23.584 21.7194 23.584 22.0254C23.584 22.3379 23.6393 22.6113 23.75 22.8457C23.8672 23.0801 24.0625 23.2949 24.3359 23.4902C24.6094 23.6855 24.9837 23.8841 25.459 24.0859C26.3053 24.431 27.054 24.7956 27.7051 25.1797C28.3561 25.5573 28.8639 26.0228 29.2285 26.5762C29.5996 27.123 29.7852 27.8294 29.7852 28.6953C29.7852 29.5417 29.5866 30.2611 29.1895 30.8535C28.7988 31.446 28.2487 31.8984 27.5391 32.2109C26.8359 32.5169 26.0221 32.6699 25.0977 32.6699C24.4792 32.6699 23.8672 32.5918 23.2617 32.4355C22.6628 32.2728 22.1159 32.0091 21.6211 31.6445C21.1263 31.2799 20.7324 30.7949 20.4395 30.1895C20.1465 29.584 20 28.8418 20 27.9629H23.0566C23.0566 28.4186 23.112 28.7995 23.2227 29.1055C23.3398 29.4049 23.4928 29.6458 23.6816 29.8281C23.877 30.0039 24.0951 30.1309 24.3359 30.209C24.5833 30.2871 24.8372 30.3262 25.0977 30.3262C25.4688 30.3262 25.7747 30.2546 26.0156 30.1113C26.2565 29.9681 26.4355 29.776 26.5527 29.5352C26.6699 29.2878 26.7285 29.0143 26.7285 28.7148Z" fill="#59A52C"></path></g></g><defs><filter id="filter0_i_4014_17192" x="0" y="0" width="52" height="54" color-interpolation-filters="sRGB"><feGaussianBlur stdDeviation="3.5"></feGaussianBlur></filter></defs></svg>