<svg xmlns="http://www.w3.org/2000/svg" width="50" height="50" viewBox="0 0 50 50" fill="none"><g id="Group 45158"><g id="Rectangle 8107" filter="url(#filter0_i_4014_17069)"><rect width="50" height="50" rx="6" fill="#313432"></rect></g><g id="Group 44940"><path id="Union" d="M17 31.9836C17 31.9836 16.9936 32 17 32C23 32 21.4369 26 25.5 26C29.5631 26 27 32 34 32C34.0064 32 34 31.9836 34 31.9836C37.909 31.7263 41 28.4741 41 24.5C41 20.5259 37.909 17.2737 34 17.0164V17H17V17.0164C13.091 17.2737 10 20.5259 10 24.5C10 28.4741 14 32 17 31.9836Z" fill="#CAE2BC"></path><rect id="Rectangle 8263" x="21" y="19" width="9" height="1" rx="0.5" fill="#59A52C"></rect><circle id="Ellipse 1627" cx="34.5" cy="21.5" r="1.5" fill="#59A52C"></circle><circle id="Ellipse 1630" cx="34.5" cy="27.5" r="1.5" fill="#59A52C"></circle><circle id="Ellipse 1628" cx="31.5" cy="24.5" r="1.5" fill="#59A52C"></circle><circle id="Ellipse 1629" cx="37.5" cy="24.5" r="1.5" fill="#59A52C"></circle><path id="Union_2" fill-rule="evenodd" clip-rule="evenodd" d="M17 22C16.7239 22 16.5 22.2239 16.5 22.5V24.5H14.5C14.2239 24.5 14 24.7239 14 25C14 25.2761 14.2239 25.5 14.5 25.5H16.5V27.5C16.5 27.7761 16.7239 28 17 28C17.2761 28 17.5 27.7761 17.5 27.5V25.5H19.5C19.7761 25.5 20 25.2761 20 25C20 24.7239 19.7761 24.5 19.5 24.5H17.5V22.5C17.5 22.2239 17.2761 22 17 22Z" fill="#59A52C"></path></g></g><defs><filter id="filter0_i_4014_17069" x="0" y="0" width="52" height="54" color-interpolation-filters="sRGB"><feGaussianBlur stdDeviation="3.5"></feGaussianBlur></filter></defs></svg>