<svg xmlns="http://www.w3.org/2000/svg" width="50" height="50" viewBox="0 0 50 50" fill="none"><g id="Group 45158"><g id="Rectangle 8107" filter="url(#filter0_i_4014_17218)"><rect width="50" height="50" rx="6" fill="#313432"></rect></g><g id="Group 5130"><g id="Group 5093"><g id="Group 5092"><rect id="Rectangle 22894" x="9.4" y="14.4" width="30.9778" height="21.2" rx="0.6" stroke="#59A52C" stroke-width="0.8"></rect><path id="Rectangle 22895" d="M9.09375 15C9.09375 14.4477 9.54147 14 10.0938 14H39.4014C39.9537 14 40.4014 14.4477 40.4014 15V18.2308H9.09375V15Z" fill="#59A52C"></path></g><g id="Group 5131"><circle id="Ellipse 1584" cx="11.6801" cy="16.3276" r="0.846154" fill="#E31D1D"></circle><circle id="Ellipse 1585" cx="14.2192" cy="16.3276" r="0.846154" fill="#FFB229"></circle><circle id="Ellipse 1586" cx="16.7563" cy="16.3276" r="0.846154" fill="#69E420"></circle></g></g></g><g id="Group 45167"><rect id="Rectangle 22899" x="25" y="21" width="13" height="1" rx="0.5" fill="#CAE2BC"></rect><rect id="Rectangle 22900" x="25" y="24" width="13" height="1" rx="0.5" fill="#CAE2BC"></rect><rect id="Rectangle 22901" x="25" y="27" width="13" height="1" rx="0.5" fill="#CAE2BC"></rect><rect id="Rectangle 22902" x="25" y="30" width="13" height="1" rx="0.5" fill="#CAE2BC"></rect><rect id="Rectangle 22903" x="12" y="21" width="10" height="10" rx="1" fill="#CAE2BC"></rect></g><g id="Group 1"><circle id="Ellipse 4" cx="38.151" cy="34.151" r="5.15104" fill="#59A52C"></circle><path id="Union" fill-rule="evenodd" clip-rule="evenodd" d="M39.3551 31.3264L39.6211 31.4939L38.8254 33.3934L38.7901 33.3712C39.0112 33.7087 39.0297 34.158 38.8007 34.5218C38.4876 35.0191 37.8306 35.1685 37.3333 34.8554C36.836 34.5423 36.6866 33.8854 36.9997 33.388C37.2287 33.0242 37.6418 32.8466 38.0417 32.9L38.0068 32.878L39.3551 31.3264Z" fill="#CAE2BC"></path></g></g><defs><filter id="filter0_i_4014_17218" x="0" y="0" width="52" height="54" color-interpolation-filters="sRGB"><feGaussianBlur stdDeviation="3.5"></feGaussianBlur></filter></defs></svg>