<svg xmlns="http://www.w3.org/2000/svg" width="50" height="50" viewBox="0 0 50 50" fill="none"><g id="Group 45160"><g id="Rectangle 8107" filter="url(#filter0_i_4014_17326)"><rect width="50" height="50" rx="6" fill="#313432"></rect></g><g id="Group 45169"><g id="Group 3620"><path id="Rectangle 3659" d="M34.8122 16.8154H13.1681C11.4184 16.8154 10 18.2338 10 19.9835V33.6798C10 35.4294 11.4184 36.8478 13.1681 36.8478H34.8122C36.5619 36.8478 37.9802 35.4294 37.9802 33.6798V19.9835C37.9802 18.2338 36.5619 16.8154 34.8122 16.8154Z" fill="#CAE2BC"></path><path id="Path 14073" d="M21.2891 22.9839V30.6799L26.6906 26.8315L21.2891 22.9839Z" fill="#569532"></path></g><circle id="Ellipse 1627" cx="35.5" cy="17.5" r="6.25" fill="#59A52C" stroke="white" stroke-width="0.5"></circle><g id="Live Stream "><path id="Path 13797" d="M36.1458 17.9476C36.0183 18.0753 35.8557 18.1624 35.6787 18.1978C35.5017 18.2331 35.3182 18.2152 35.1514 18.1462C34.9847 18.0772 34.8421 17.9603 34.7418 17.8103C34.6414 17.6602 34.5879 17.4838 34.5879 17.3033C34.5879 17.1228 34.6414 16.9463 34.7418 16.7963C34.8421 16.6463 34.9847 16.5293 35.1514 16.4604C35.3182 16.3914 35.5017 16.3734 35.6787 16.4088C35.8557 16.4441 36.0183 16.5312 36.1458 16.659C36.3159 16.8303 36.4113 17.0619 36.4113 17.3033C36.4113 17.5447 36.3159 17.7763 36.1458 17.9476Z" fill="#CAE2BC"></path><path id="Path 13798" d="M37.3934 19.328C37.3076 19.328 37.2237 19.3025 37.1523 19.2548C37.0809 19.2071 37.0253 19.1393 36.9925 19.06C36.9597 18.9806 36.9511 18.8934 36.9679 18.8092C36.9847 18.725 37.0261 18.6477 37.0868 18.587C37.2557 18.4186 37.3897 18.2185 37.4811 17.9982C37.5726 17.7779 37.6196 17.5417 37.6196 17.3032C37.6196 17.0646 37.5726 16.8285 37.4811 16.6082C37.3897 16.3878 37.2557 16.1877 37.0868 16.0193C37.0456 15.9793 37.0127 15.9314 36.9901 15.8786C36.9674 15.8257 36.9556 15.7689 36.9551 15.7114C36.9546 15.6539 36.9656 15.5969 36.9873 15.5437C37.0091 15.4905 37.0412 15.4421 37.0818 15.4014C37.1224 15.3607 37.1707 15.3285 37.2239 15.3066C37.2771 15.2847 37.334 15.2736 37.3915 15.2739C37.449 15.2743 37.5059 15.286 37.5588 15.3085C37.6117 15.331 37.6596 15.3638 37.6998 15.405C37.9495 15.654 38.1476 15.9499 38.2828 16.2756C38.4179 16.6013 38.4875 16.9505 38.4875 17.3032C38.4875 17.6558 38.4179 18.005 38.2828 18.3307C38.1476 18.6565 37.9495 18.9523 37.6998 19.2013C37.6595 19.2416 37.6118 19.2735 37.5592 19.2952C37.5066 19.3169 37.4503 19.3281 37.3934 19.328Z" fill="#CAE2BC"></path><path id="Path 13799" d="M38.3754 20.605C38.2895 20.605 38.2056 20.5795 38.1343 20.5318C38.0629 20.4841 38.0073 20.4163 37.9745 20.337C37.9416 20.2576 37.9331 20.1704 37.9499 20.0862C37.9667 20.002 38.0081 19.9247 38.0688 19.864C38.4058 19.528 38.6732 19.1288 38.8557 18.6892C39.0381 18.2497 39.1321 17.7785 39.1321 17.3026C39.1321 16.8267 39.0381 16.3555 38.8557 15.9159C38.6732 15.4764 38.4058 15.0772 38.0688 14.7412C37.9873 14.6598 37.9415 14.5495 37.9414 14.4344C37.9413 14.3193 37.9869 14.2089 38.0682 14.1274C38.1495 14.0459 38.2599 14.0001 38.375 14C38.4901 13.9999 38.6005 14.0455 38.682 14.1268C39.0997 14.5435 39.4312 15.0384 39.6573 15.5834C39.8835 16.1284 39.9999 16.7126 39.9999 17.3026C39.9999 17.8926 39.8835 18.4768 39.6573 19.0218C39.4312 19.5667 39.0997 20.0617 38.682 20.4783C38.6417 20.5186 38.5939 20.5505 38.5413 20.5722C38.4887 20.594 38.4323 20.6051 38.3754 20.605Z" fill="#CAE2BC"></path><path id="Path 13800" d="M33.606 19.327C33.5491 19.3271 33.4927 19.3159 33.4401 19.2941C33.3875 19.2724 33.3397 19.2404 33.2995 19.2001C33.0498 18.9511 32.8517 18.6552 32.7165 18.3295C32.5813 18.0038 32.5117 17.6546 32.5117 17.3019C32.5117 16.9493 32.5813 16.6001 32.7165 16.2744C32.8517 15.9486 33.0498 15.6528 33.2995 15.4038C33.3813 15.3243 33.4911 15.2803 33.6052 15.2813C33.7192 15.2822 33.8283 15.328 33.9088 15.4087C33.9894 15.4894 34.0349 15.5986 34.0356 15.7127C34.0362 15.8267 33.992 15.9364 33.9124 16.0181C33.7435 16.1865 33.6095 16.3866 33.5181 16.6069C33.4267 16.8272 33.3796 17.0634 33.3796 17.3019C33.3796 17.5405 33.4267 17.7766 33.5181 17.9969C33.6095 18.2173 33.7435 18.4174 33.9124 18.5858C33.9731 18.6465 34.0145 18.7238 34.0313 18.808C34.0481 18.8921 34.0396 18.9794 34.0067 19.0587C33.9739 19.1381 33.9183 19.2059 33.8469 19.2536C33.7756 19.3013 33.6917 19.3268 33.6058 19.3268L33.606 19.327Z" fill="#CAE2BC"></path><path id="Path 13801" d="M32.6245 20.6058C32.5675 20.6059 32.5111 20.5947 32.4585 20.5729C32.4059 20.5512 32.3581 20.5192 32.3179 20.4789C31.9001 20.0623 31.5687 19.5673 31.3426 19.0223C31.1164 18.4774 31 17.8932 31 17.3031C31 16.7131 31.1164 16.1289 31.3426 15.584C31.5687 15.039 31.9001 14.544 32.3179 14.1274C32.3997 14.048 32.5096 14.004 32.6236 14.0049C32.7376 14.0058 32.8467 14.0516 32.9273 14.1323C33.0078 14.2131 33.0534 14.3223 33.054 14.4363C33.0547 14.5503 33.0104 14.6601 32.9308 14.7417C32.5938 15.0777 32.3265 15.477 32.144 15.9165C31.9616 16.356 31.8677 16.8273 31.8677 17.3031C31.8677 17.779 31.9616 18.2503 32.144 18.6898C32.3265 19.1293 32.5938 19.5285 32.9308 19.8646C32.9916 19.9252 33.0329 20.0025 33.0497 20.0867C33.0665 20.1709 33.058 20.2582 33.0252 20.3375C32.9923 20.4168 32.9367 20.4847 32.8654 20.5324C32.794 20.5801 32.7101 20.6056 32.6242 20.6056L32.6245 20.6058Z" fill="#CAE2BC"></path></g></g></g><defs><filter id="filter0_i_4014_17326" x="0" y="0" width="52" height="54" color-interpolation-filters="sRGB"><feGaussianBlur stdDeviation="3.5"></feGaussianBlur></filter></defs></svg>