<svg width="20" height="21" viewBox="0 0 20 21" fill="none" xmlns="http://www.w3.org/2000/svg">
<g id="Video Streaming">
<g id="Group 3429">
<path id="Icon material-video-library" d="M17.4999 0.630859H2.50008C1.8376 0.632764 1.2028 0.896776 0.734361 1.36522C0.265917 1.83366 0.00190443 2.46846 0 3.13094V18.1301C0.00190443 18.7926 0.265917 19.4274 0.734361 19.8958C1.2028 20.3643 1.8376 20.6283 2.50008 20.6302H17.4999C18.1624 20.6283 18.7972 20.3643 19.2656 19.8958C19.7341 19.4274 19.9981 18.7926 20 18.1301V3.13094C19.9981 2.46846 19.7341 1.83366 19.2656 1.36522C18.7972 0.896776 18.1624 0.632764 17.4999 0.630859ZM7.49959 16.2554V5.00567L14.9979 10.6305L7.49959 16.2554Z" fill="#CAE2BC"/>
<path id="Rectangle 3541" d="M17.5967 2.62665H2.11719V18.1062H17.5967V2.62665Z" fill="#CAE2BC"/>
</g>
<path id="Path 14028" d="M7.73828 7.26392V14.2195L12.6216 10.7417L7.73828 7.26392Z" fill="#569532"/>
</g>
</svg>
