<svg xmlns="http://www.w3.org/2000/svg" width="45" height="45" viewBox="0 0 45 45" fill="none"><circle cx="22.5" cy="22.5" r="22.5" fill="url(#paint0_radial_38_2953)" fill-opacity="0.26"></circle><path d="M32.9974 24.2496C32.9974 27.4966 32.9974 30.745 32.9974 33.992C32.9974 34.5533 32.8321 34.7172 32.2656 34.7172C26.4614 34.7172 20.6558 34.7172 14.8516 34.7172C14.3244 34.7172 14.1395 34.5402 14.1395 34.0261C14.1382 32.6478 14.1421 31.2682 14.1343 29.8899C14.1343 29.7011 14.1788 29.6355 14.3716 29.6513C14.588 29.6683 14.807 29.667 15.0247 29.6513C15.2004 29.6382 15.2319 29.7064 15.2319 29.8677C15.2253 31.0374 15.2319 32.2085 15.224 33.3783C15.2227 33.571 15.2555 33.6353 15.4693 33.6353C20.8657 33.6274 26.262 33.6287 31.6598 33.634C31.8525 33.634 31.9168 33.6038 31.9168 33.3901C31.9102 27.1858 31.9102 20.9816 31.9142 14.7761C31.9142 14.6305 31.8788 14.523 31.7752 14.4168C30.7496 13.365 29.7268 12.3094 28.7104 11.2498C28.6003 11.1344 28.4914 11.0924 28.3341 11.0924C24.0523 11.0963 19.7719 11.0976 15.4902 11.0911C15.2817 11.0911 15.2227 11.1383 15.224 11.3534C15.2319 14.2384 15.2253 17.1222 15.2358 20.0073C15.2358 20.2564 15.1663 20.3233 14.9342 20.2958C14.6772 20.2643 14.3297 20.4072 14.1828 20.2394C14.0543 20.0938 14.1408 19.7555 14.1408 19.5037C14.1408 16.5924 14.1408 13.6798 14.1408 10.7685C14.1408 10.1692 14.3008 10.0079 14.8936 10.0079C19.452 10.0052 24.0143 10.0079 28.5767 10C28.8835 10 29.1065 10.0931 29.3176 10.3134C30.452 11.5002 31.5955 12.6779 32.7417 13.8529C32.9266 14.0417 33.0013 14.245 33 14.5073C32.9948 17.7543 32.9961 21.0026 32.9961 24.2496H32.9974Z" fill="#4FA83D"></path><path d="M27.917 13.2313C27.917 12.7867 27.9144 12.3435 27.9196 11.8989C27.9196 11.8137 27.8698 11.672 27.959 11.6524C28.0888 11.6235 28.254 11.5802 28.3721 11.6943C28.574 11.8897 28.7642 12.0956 28.9596 12.2976C29.0238 12.3645 29.0068 12.4497 29.0068 12.5297C29.0068 12.9834 29.0212 13.4372 29.0015 13.8883C28.9911 14.1152 29.0724 14.1532 29.273 14.1466C29.69 14.1322 30.1071 14.1493 30.5228 14.1388C30.6801 14.1348 30.7955 14.1742 30.8991 14.2961C31.0211 14.4417 31.164 14.5689 31.2952 14.7066C31.4263 14.8443 31.3791 15.024 31.3516 15.1695C31.328 15.2941 31.1667 15.2259 31.0696 15.2272C30.2356 15.2325 29.4015 15.2325 28.5688 15.2299C28.1137 15.2299 27.9223 15.0397 27.9196 14.5886C27.9157 14.1348 27.9196 13.6824 27.9196 13.2287L27.917 13.2313Z" fill="#4FA83D"></path><path d="M15.0496 25.2567C14.9158 25.7459 14.8017 26.1616 14.6876 26.5773C14.5801 26.9642 14.045 27.1622 13.6923 26.9498C13.5795 26.8816 13.5454 26.7701 13.5165 26.656C13.2464 25.5964 12.9776 24.5355 12.71 23.4746C12.6156 23.0995 12.7336 22.9526 13.1257 22.95C13.2254 22.95 13.3251 22.9513 13.4247 22.95C13.628 22.9461 13.7421 23.0457 13.788 23.2411C13.8955 23.7067 14.0083 24.1696 14.1381 24.7138C14.2706 24.2142 14.3821 23.7867 14.4948 23.3618C14.6011 22.9618 14.6404 22.9526 15.2318 22.9461C15.5479 22.9421 15.6279 23.1283 15.683 23.3775C15.7734 23.784 15.8744 24.1866 15.9715 24.5984C16.0449 24.5617 16.0462 24.4896 16.0633 24.4266C16.1406 24.1289 16.2154 23.8313 16.2928 23.5336C16.4475 22.9408 16.5839 22.8543 17.1963 22.9552C17.4193 22.992 17.515 23.169 17.4429 23.4287C17.195 24.3165 16.9432 25.203 16.6914 26.0908C16.6298 26.3085 16.5668 26.5249 16.5039 26.7426C16.4554 26.9117 16.3426 26.9983 16.1656 26.9983C16.1472 26.9983 16.1288 26.9983 16.1118 26.9983C15.4797 27.0179 15.4771 27.0166 15.3276 26.4081C15.2397 26.0514 15.1545 25.6934 15.0496 25.2567Z" fill="#4FA83D"></path><path d="M20.5796 24.9984C20.5796 24.4555 20.581 23.9126 20.5796 23.3683C20.5796 23.1847 20.64 23.0379 20.8301 23.0038C21.3389 22.912 21.8504 22.8346 22.3605 22.9959C23.2037 23.2621 23.4739 23.9414 23.0438 24.7125C23.0005 24.7899 23.0044 24.824 23.0569 24.8935C23.7178 25.7865 23.2837 26.8107 22.1756 26.9838C21.752 27.0507 21.3284 27.0363 20.9036 26.9865C20.6741 26.9602 20.577 26.8252 20.5796 26.5983C20.5836 26.0646 20.5796 25.5295 20.5796 24.9958V24.9984ZM21.6537 25.7039C21.7415 25.7983 21.537 26.0121 21.8045 26.02C22.0838 26.0278 22.2595 25.9019 22.2635 25.7079C22.2661 25.5098 22.0576 25.3459 21.7927 25.3695C21.5448 25.3905 21.7376 25.599 21.655 25.7039H21.6537ZM21.6642 24.1355C21.7206 24.2076 21.5684 24.3899 21.7966 24.3755C21.9658 24.365 22.1481 24.3335 22.1481 24.1237C22.1481 23.9086 21.9461 23.9322 21.8006 23.9112C21.5947 23.8811 21.7009 24.0463 21.6642 24.1342V24.1355Z" fill="#4FA83D"></path><path d="M17.5885 24.967C17.5885 24.4319 17.5872 23.8969 17.5885 23.3618C17.5898 23.0562 17.6921 22.9526 17.9924 22.9513C18.555 22.9487 19.1176 22.9474 19.6788 22.9513C19.9896 22.954 20.0788 23.0641 20.0814 23.4247C20.0841 23.8418 20.0054 23.9532 19.6841 23.9611C19.4034 23.9677 19.1215 23.9729 18.8409 23.9585C18.6428 23.948 18.6822 24.0726 18.6769 24.1867C18.6717 24.3021 18.6638 24.3978 18.8369 24.3873C19.09 24.3729 19.3444 24.3794 19.5988 24.3847C19.8834 24.3899 19.9883 24.4975 19.9975 24.7807C20.0001 24.8712 19.9975 24.9617 19.9975 25.0522C19.9923 25.2856 19.8651 25.3997 19.6395 25.4036C19.3851 25.4089 19.132 25.4128 18.8776 25.4023C18.732 25.3958 18.6743 25.4259 18.6756 25.5899C18.6796 25.9754 18.6691 25.9754 19.0599 25.9754C19.2867 25.9754 19.5136 25.9715 19.7405 25.9754C20.046 25.982 20.147 26.0856 20.1523 26.3846C20.1536 26.4751 20.1549 26.5655 20.1523 26.656C20.1444 26.8593 20.0408 26.9865 19.8349 26.9878C19.191 26.9944 18.5471 26.997 17.9032 26.9865C17.6645 26.9826 17.5885 26.8147 17.5898 26.5957C17.5924 26.0515 17.5898 25.5072 17.5898 24.963L17.5885 24.967Z" fill="#4FA83D"></path><path d="M23.5814 24.9853C23.5814 24.4686 23.588 23.9532 23.5788 23.4365C23.5735 23.1585 23.6916 23.0116 23.9656 22.9841C24.3709 22.9447 24.7761 22.8923 25.1839 22.9592C25.8082 23.0615 26.2212 23.4575 26.317 24.0398C26.418 24.6561 26.1504 25.182 25.5878 25.481C25.3846 25.5885 25.1669 25.679 24.9439 25.6672C24.6738 25.6528 24.6567 25.78 24.6699 25.9859C24.683 26.2114 24.6738 26.4383 24.6725 26.6652C24.6699 26.8855 24.5518 26.997 24.3368 27.0088C24.2555 27.014 24.1742 27.0114 24.0928 27.0114C23.6627 27.0101 23.5827 26.9314 23.5827 26.5065C23.5827 25.999 23.5827 25.4915 23.5827 24.9853H23.5814ZM24.6515 24.3007C24.7538 24.4096 24.5295 24.6351 24.8036 24.6601C25.0567 24.6823 25.2351 24.5197 25.2416 24.2889C25.2482 24.0621 25.0974 23.9335 24.8272 23.9401C24.5099 23.9467 24.7643 24.1984 24.6515 24.302V24.3007Z" fill="#4FA83D"></path><defs><radialGradient id="paint0_radial_38_2953" cx="0" cy="0" r="1" gradientUnits="userSpaceOnUse" gradientTransform="translate(22.5 22.5) rotate(90.5907) scale(48.5026)"><stop stop-color="#4FA83D"></stop><stop offset="0.46875" stop-color="#22CB00" stop-opacity="0.53125"></stop><stop offset="1" stop-opacity="0"></stop></radialGradient></defs></svg>