<svg xmlns="http://www.w3.org/2000/svg" width="45" height="45" viewBox="0 0 45 45" fill="none"><circle cx="22.5" cy="22.5" r="22.5" fill="url(#paint0_radial_38_2955)" fill-opacity="0.26"></circle><path d="M10.0027 13.6214V13.063C10.2712 12.4089 10.7764 12.1988 11.4545 12.244C11.9836 12.2786 12.5181 12.244 13.0472 12.2546C13.2121 12.2573 13.2573 12.2121 13.2546 12.0472C13.244 11.3984 13.2493 10.747 13.252 10.0982C13.252 9.76846 13.3796 9.49724 13.6189 9.26856C13.7492 9.14625 13.9247 9.10636 14.063 9H14.5203C15.2489 9.28452 15.4218 9.55042 15.4218 10.3721C15.4218 10.9065 15.435 11.4383 15.4164 11.9701C15.4085 12.2068 15.4829 12.252 15.7063 12.252C20.2585 12.244 24.8134 12.2467 29.3657 12.2467C29.6449 12.2467 29.9241 12.26 30.198 12.3238C31.7163 12.6748 32.7506 13.9671 32.7506 15.5306C32.7533 20.1254 32.7506 24.7202 32.748 29.3176C32.748 29.5197 32.7825 29.5888 33.0032 29.5835C33.6281 29.5649 34.2556 29.5702 34.8805 29.5782C35.532 29.5862 36.0053 30.0595 36 30.6737C35.9946 31.288 35.5134 31.7427 34.8566 31.7453C34.2131 31.748 33.5696 31.7506 32.9261 31.7426C32.7825 31.7426 32.7427 31.7825 32.7453 31.9261C32.7533 32.5616 32.7506 33.1945 32.748 33.83C32.748 34.5054 32.2986 34.992 31.6737 34.9973C31.0382 35.0026 30.5809 34.516 30.5782 33.8247C30.5755 33.2237 30.5622 32.6228 30.5835 32.0218C30.5915 31.7772 30.5064 31.7426 30.291 31.7426C25.7388 31.748 21.1839 31.748 16.6316 31.748C16.3524 31.748 16.0732 31.732 15.7993 31.6682C14.2784 31.3119 13.2493 30.0223 13.2493 28.4588C13.2493 23.864 13.2493 19.2692 13.2546 14.6717C13.2546 14.4616 13.2094 14.4058 12.9941 14.4111C12.3851 14.4271 11.7762 14.4164 11.1673 14.4164C10.6515 14.4164 10.2765 14.1931 10.0691 13.7118C10.0532 13.6746 10.0532 13.6267 10 13.6161L10.0027 13.6214ZM15.4244 25.1882C15.7089 24.901 15.9429 24.659 16.1822 24.4224C16.9959 23.6193 18.1738 23.6167 18.9928 24.4224C19.3731 24.7946 19.7533 25.1695 20.1203 25.5551C20.2532 25.6934 20.325 25.704 20.4659 25.5604C22.0879 23.9278 23.7153 22.3004 25.3452 20.6758C26.2147 19.8089 27.3741 19.8089 28.2462 20.6758C28.9642 21.3937 29.6821 22.1117 30.4027 22.8269C30.4506 22.8748 30.4825 22.9519 30.5809 22.9439V22.7099C30.5809 20.3673 30.5622 18.0221 30.5915 15.6795C30.5995 14.9004 30.0863 14.4085 29.3285 14.4111C24.7842 14.4297 20.2399 14.4218 15.6983 14.4164C15.4829 14.4164 15.4191 14.4563 15.4191 14.6877C15.4271 18.0886 15.4244 21.4894 15.4244 24.893V25.1908V25.1882Z" fill="#4FA83D"></path><path d="M21.9205 18.748C21.9205 19.934 20.9473 20.9098 19.7587 20.9178C18.5675 20.9231 17.5703 19.9233 17.5836 18.7347C17.5943 17.5462 18.5754 16.573 19.7587 16.5783C20.9473 16.5836 21.9205 17.5621 21.9205 18.748Z" fill="#4FA83D"></path><defs><radialGradient id="paint0_radial_38_2955" cx="0" cy="0" r="1" gradientUnits="userSpaceOnUse" gradientTransform="translate(22.5 22.5) rotate(90.5907) scale(48.5026)"><stop stop-color="#4FA83D"></stop><stop offset="0.46875" stop-color="#22CB00" stop-opacity="0.53125"></stop><stop offset="1" stop-opacity="0"></stop></radialGradient></defs></svg>