<svg xmlns="http://www.w3.org/2000/svg" width="45" height="45" viewBox="0 0 45 45" fill="none"><circle cx="22.5" cy="22.5" r="22.5" fill="url(#paint0_radial_38_2954)" fill-opacity="0.26"></circle><path d="M36 21.2228V23.8477C35.9321 24.4385 35.4678 24.5609 35.0075 24.7099C34.45 24.8908 33.9112 25.129 33.3484 25.2913C32.9027 25.419 32.622 25.6292 32.5209 26.1108C32.4504 26.4461 32.2748 26.7627 32.1204 27.0754C32.0353 27.2497 32.0326 27.3827 32.1244 27.5583C32.5422 28.3526 32.9373 29.1589 33.3537 29.9545C33.4815 30.1966 33.4615 30.3909 33.2965 30.6064C32.6021 31.5137 31.8144 32.328 30.931 33.0517C30.7062 33.2353 30.5093 33.2593 30.2512 33.1329C29.5128 32.7697 28.7557 32.4437 28.0253 32.0659C27.714 31.9049 27.4745 31.9036 27.1712 32.0805C26.8505 32.2668 26.4953 32.4025 26.1414 32.5196C25.9033 32.5981 25.7809 32.7151 25.7064 32.9599C25.4523 33.7955 25.1635 34.619 24.9014 35.4519C24.8203 35.7113 24.6779 35.839 24.4012 35.8723C24.2176 35.8949 24.0061 35.847 23.8477 35.9973H21.0724C20.5669 35.8976 20.4498 35.4864 20.3154 35.0753C20.1278 34.5072 19.8857 33.9564 19.7247 33.3804C19.5917 32.9054 19.3615 32.6114 18.8572 32.5036C18.5339 32.4344 18.2293 32.2668 17.9273 32.1191C17.7543 32.034 17.6199 32.0313 17.4443 32.1231C16.65 32.5408 15.8451 32.936 15.0495 33.3511C14.8247 33.4682 14.6437 33.4695 14.4295 33.3165C13.4796 32.6353 12.6175 31.8676 11.9296 30.9137C11.7527 30.6689 11.7327 30.4614 11.8751 30.1939C12.2622 29.4675 12.6188 28.7251 13.0086 28.0001C13.139 27.7579 13.1603 27.5677 13.0166 27.3175C12.7359 26.8319 12.4884 26.325 12.3434 25.7795C12.2862 25.5627 12.1691 25.4815 11.9749 25.427C11.2192 25.2154 10.4675 24.9853 9.71046 24.7804C9.43106 24.7045 9.18227 24.6021 9 24.3719V21.2228C9.08116 21.2068 9.08515 21.1403 9.08382 21.0791C9.07317 20.7066 9.27673 20.5309 9.61466 20.4205C10.3012 20.197 10.9704 19.9149 11.6622 19.7087C12.1079 19.5757 12.386 19.3628 12.4898 18.8865C12.5603 18.5632 12.7212 18.2546 12.8716 17.9552C12.9714 17.757 12.97 17.6013 12.8663 17.4031C12.4592 16.6314 12.084 15.8438 11.6729 15.0748C11.5278 14.8034 11.5491 14.5998 11.7341 14.3617C12.4246 13.4676 13.2042 12.6654 14.077 11.9483C14.3005 11.7647 14.4974 11.7381 14.7568 11.8671C15.4487 12.209 16.1658 12.5044 16.8443 12.8729C17.2501 13.0938 17.5787 13.1057 17.9698 12.857C18.2492 12.68 18.5779 12.5682 18.8985 12.4698C19.13 12.3979 19.2298 12.2716 19.299 12.0467C19.5491 11.2378 19.8365 10.4395 20.0813 9.6293C20.177 9.31265 20.3247 9.1397 20.672 9.11974C20.8276 9.11043 21.0232 9.15699 21.1509 9H23.7759C23.7865 9.05987 23.8304 9.08116 23.8823 9.07717C24.2908 9.0479 24.4757 9.27008 24.5968 9.63595C24.8536 10.4169 25.1502 11.1846 25.415 11.9629C25.4895 12.1811 25.5959 12.3061 25.8274 12.3807C26.2532 12.5177 26.6696 12.6906 27.0741 12.8809C27.2683 12.9727 27.4093 12.9541 27.5903 12.8596C28.3633 12.4552 29.1496 12.0747 29.9199 11.6662C30.1886 11.5238 30.3948 11.5345 30.6357 11.7221C31.5271 12.4152 32.3333 13.1922 33.0491 14.0663C33.2447 14.3045 33.2553 14.512 33.1223 14.7808C32.7896 15.45 32.5009 16.1431 32.151 16.8017C31.9355 17.2075 31.8637 17.5481 32.143 17.9619C32.3333 18.2452 32.4344 18.5952 32.5448 18.9251C32.6114 19.1247 32.7205 19.2218 32.9187 19.283C33.7502 19.5438 34.5751 19.8311 35.408 20.0866C35.6967 20.1757 35.8457 20.3154 35.8763 20.6281C35.8962 20.825 35.8537 21.0485 36 21.2241V21.2228ZM22.48 30.4733C26.8825 30.484 30.4547 26.945 30.4747 22.5519C30.4946 18.1268 26.9596 14.5466 22.5479 14.5267C18.1282 14.5067 14.5426 18.059 14.5346 22.4654C14.5267 26.8945 18.067 30.4627 22.4787 30.4733H22.48Z" fill="#4FA83D"></path><path d="M18.8894 25.1503C18.8894 24.5755 18.8814 24.0008 18.8934 23.426C18.8973 23.2331 18.8468 23.1612 18.6432 23.1706C18.2814 23.1865 17.9181 23.1706 17.5563 23.1759C17.2463 23.1799 17.0919 23.0362 17.0933 22.7235C17.0946 22.2233 17.0933 21.723 17.0933 21.2241C17.0933 20.9314 17.2436 20.7877 17.5323 20.7864C17.8942 20.7851 18.2574 20.7744 18.6193 20.7904C18.8322 20.7997 18.896 20.7332 18.892 20.519C18.8801 19.7447 18.892 18.969 18.884 18.1947C18.8814 17.9206 18.9186 17.6545 19.2459 17.6506C19.5958 17.6466 19.6371 17.926 19.6344 18.212C19.6291 18.9743 19.6397 19.7367 19.6264 20.499C19.6224 20.7225 19.6743 20.8077 19.9138 20.7904C20.2491 20.7678 20.5883 20.7917 20.9263 20.7824C21.2788 20.7718 21.4279 20.9474 21.4265 21.284C21.4239 21.747 21.4292 22.2087 21.4225 22.6716C21.4172 23.0641 21.3015 23.1706 20.8957 23.1746C20.583 23.1772 20.269 23.1932 19.959 23.1692C19.6996 23.1506 19.6224 23.2251 19.6264 23.4925C19.6437 24.5542 19.6331 25.6172 19.6331 26.6789C19.6331 26.7787 19.6411 26.8798 19.6291 26.9783C19.6012 27.2058 19.4748 27.3615 19.2393 27.3508C19.0064 27.3402 18.8867 27.1885 18.8867 26.949C18.8867 26.349 18.8867 25.749 18.8867 25.1489L18.8894 25.1503Z" fill="#4FA83D"></path><path d="M26.1121 24.1591C26.1121 25.0465 26.1081 25.9326 26.1148 26.82C26.1161 27.0967 26.0722 27.3535 25.7396 27.3468C25.4137 27.3402 25.3658 27.0821 25.3671 26.808C25.3698 25.0718 25.3618 23.3342 25.3737 21.598C25.3751 21.3159 25.3192 21.1949 25.0105 21.2241C24.7005 21.2534 24.3866 21.2215 24.0739 21.2335C23.7479 21.2454 23.5776 21.1044 23.5763 20.7758C23.5737 20.2755 23.571 19.7766 23.5763 19.2764C23.5803 18.989 23.7373 18.844 24.026 18.844C24.3639 18.844 24.7019 18.828 25.0371 18.8493C25.2899 18.8666 25.4057 18.8067 25.3698 18.5313C25.3485 18.3597 25.3538 18.1801 25.3724 18.0071C25.3964 17.7796 25.5334 17.6293 25.7689 17.6479C25.9778 17.6652 26.1028 17.8009 26.1095 18.0244C26.1095 18.0497 26.1095 18.075 26.1108 18.0989C26.1414 18.8427 26.1414 18.8506 26.8771 18.8413C27.9907 18.828 27.9136 18.848 27.9056 19.8551C27.9029 20.1678 27.9042 20.4804 27.9056 20.7918C27.9069 21.0845 27.7645 21.2308 27.4719 21.2295C27.0727 21.2295 26.6723 21.2268 26.2731 21.2295C26.1787 21.2295 26.0948 21.1949 26.1002 21.3838C26.1228 22.3071 26.1108 23.2331 26.1108 24.1564H26.1121V24.1591Z" fill="#4FA83D"></path><path d="M22.8737 20.8476C22.8737 21.7098 22.8896 22.5706 22.8657 23.4314C22.8564 23.7427 22.9628 23.8052 23.2409 23.7866C23.5642 23.764 23.8901 23.7813 24.2147 23.7826C24.5221 23.7826 24.6724 23.9383 24.6711 24.2469C24.6684 24.7339 24.6684 25.2208 24.6711 25.7077C24.6724 26.039 24.5034 26.18 24.1801 26.1721C23.8928 26.1654 23.6014 26.2027 23.3194 26.1628C22.9149 26.1055 22.8178 26.2772 22.8723 26.6337C22.8896 26.7442 22.879 26.8586 22.8723 26.9703C22.8603 27.2071 22.726 27.3535 22.4958 27.3495C22.2656 27.3455 22.1379 27.1952 22.1299 26.9584C22.1286 26.9211 22.1299 26.8839 22.1299 26.8466C22.1153 26.1707 22.1153 26.1667 21.4501 26.1707C20.262 26.1774 20.3272 26.2506 20.3352 25.0598C20.3365 24.7977 20.3418 24.5356 20.3338 24.2735C20.3232 23.921 20.4988 23.7759 20.8367 23.7813C21.1614 23.7866 21.4873 23.7626 21.8106 23.7879C22.0794 23.8092 22.1379 23.7174 22.1366 23.4593C22.1246 21.7483 22.1299 20.0387 22.1299 18.3278C22.1299 18.228 22.1273 18.1282 22.1326 18.0284C22.1446 17.7903 22.2803 17.6453 22.5091 17.6493C22.7393 17.6519 22.8723 17.8036 22.875 18.0391C22.8803 18.538 22.8776 19.0382 22.8776 19.5371C22.8776 19.9735 22.8776 20.4112 22.8776 20.8476H22.8737Z" fill="#4FA83D"></path><defs><radialGradient id="paint0_radial_38_2954" cx="0" cy="0" r="1" gradientUnits="userSpaceOnUse" gradientTransform="translate(22.5 22.5) rotate(90.5907) scale(48.5026)"><stop stop-color="#4FA83D"></stop><stop offset="0.46875" stop-color="#22CB00" stop-opacity="0.53125"></stop><stop offset="1" stop-opacity="0"></stop></radialGradient></defs></svg>