<svg xmlns="http://www.w3.org/2000/svg" width="72" height="490" viewBox="0 0 72 490" fill="none"><path d="M0.542969 0.780518H71.9999V464.302C71.9999 478.272 60.6752 489.596 46.7054 489.596H0.542969V0.780518Z" fill="#2C2E2F"/><circle cx="35.9552" cy="52.6342" r="18.9709" fill="#D9D9D9"/><circle cx="35.9552" cy="52.6342" r="18.9709" fill="#1A1C1E"/><circle cx="35.9552" cy="106.385" r="18.9709" fill="#D9D9D9"/><circle cx="35.9552" cy="106.385" r="18.9709" fill="#1A1C1E"/><circle cx="35.9552" cy="160.136" r="18.9709" fill="#D9D9D9"/><circle cx="35.9552" cy="160.136" r="18.9709" fill="#1A1C1E"/><circle cx="35.9552" cy="428.89" r="18.9709" fill="#D9D9D9"/><circle cx="35.9552" cy="428.89" r="18.9709" fill="#1A1C1E"/><circle cx="35.9552" cy="375.139" r="18.9709" fill="#D9D9D9"/><circle cx="35.9552" cy="375.139" r="18.9709" fill="#1A1C1E"/><circle cx="35.9552" cy="213.887" r="18.9709" fill="#D9D9D9"/><circle cx="35.9552" cy="213.887" r="18.9709" fill="#1A1C1E"/><circle cx="35.9552" cy="267.637" r="18.9709" fill="#1A1C1E"/><circle cx="35.9552" cy="267.637" r="18.9709" fill="#1A1C1E"/><circle cx="35.9552" cy="321.388" r="18.9709" fill="#1A1C1E"/><circle cx="35.9552" cy="321.388" r="18.9709" fill="#1A1C1E"/></svg>