<svg xmlns="http://www.w3.org/2000/svg" width="1440" height="794" viewBox="0 0 1440 794" fill="none"><g opacity="0.43"><path d="M593.197 306.092C565.72 300.747 536.053 297.328 500.565 295.395C406.104 290.241 332.105 311.751 260.539 332.54C233.124 340.504 204.776 348.745 176.144 355.144C126.407 366.347 77.5274 370.795 21.096 359.818C-23.1255 351.215 -71.9827 333.146 -129.552 301.423L-129.629 301.542C-97.0405 319.496 -67.0395 333.266 -37.9391 343.621C-10.6995 353.317 14.9822 359.737 40.5784 363.244C63.8441 366.441 86.7007 367.159 110.443 365.449C130.779 363.985 152.293 360.657 176.194 355.278C204.836 348.881 233.185 340.64 260.6 332.676C332.155 311.885 406.14 290.391 500.569 295.54C557.555 298.643 631.947 306.843 702.133 343.037C747.154 366.249 789.512 397.45 828.049 435.776C873.377 480.871 921.787 519.454 971.942 550.461C1018.54 579.265 1066.45 601.453 1114.34 616.39C1133.94 622.506 1153.31 627.43 1172.52 631.168C1219.39 640.286 1265.39 642.359 1311.85 637.545C1378.53 630.633 1447.3 609.434 1522.08 572.724L1521.99 572.593C1396.23 634.316 1286.14 653.125 1172.69 631.056C1153.38 627.3 1133.97 622.359 1114.38 616.254C1014.58 585.121 915.606 522.678 828.154 435.681C808.278 415.899 787.252 397.89 765.665 382.153C745.382 367.367 724.042 354.163 702.213 342.909C671.326 326.988 637.976 315.405 600.236 307.509C597.906 307.027 595.564 306.553 593.197 306.092Z" stroke="url(#paint0_linear_342_7251)" stroke-miterlimit="10"/><path d="M560.185 293.727C546.215 291.009 531.397 288.634 515.364 286.528C468.281 280.342 423.041 280.833 372.965 288.079C328.772 294.472 287.802 305.076 244.417 316.31C225.306 321.253 205.541 326.375 185.647 331.041C86.552 354.572 3.79285 354.351 -125.935 283.555L-126.102 283.8C-92.8431 301.942 -62.4434 315.618 -33.1385 325.591C-5.75028 334.915 20.1086 340.815 45.9266 343.629C69.1692 346.162 92.3945 346.158 116.939 343.62C137.434 341.508 159.3 337.598 185.735 331.316C205.629 326.65 225.394 321.528 244.505 316.585C330.633 294.289 411.988 273.235 515.319 286.816C570.676 294.095 642.579 307.948 707.746 350.833C749.135 378.079 789.429 411.785 827.517 451.027C873.226 498.127 923.326 536.456 976.437 564.95C1000.93 578.089 1026.02 589.068 1051 597.57C1074.96 605.719 1098.96 611.669 1122.36 615.218C1191.68 625.758 1254.05 626.486 1318.63 617.522C1384.06 608.435 1452.38 589.346 1533.6 557.455L1533.46 557.188C1374.61 619.568 1259.34 635.756 1122.4 614.938C1117.1 614.136 1111.79 613.218 1106.48 612.185C1009.16 593.255 910.778 536.434 827.745 450.861C789.64 411.597 749.328 377.868 707.919 350.618C679.681 332.028 648.481 317.661 612.527 306.672C596.066 301.625 578.887 297.365 560.185 293.727Z" stroke="url(#paint1_linear_342_7251)" stroke-miterlimit="10"/><path d="M506.006 272.175C408.055 253.121 321.944 274.933 231.173 297.912C219.422 300.884 207.272 303.96 195.163 306.929C101.534 330.184 18.699 341.917 -122.306 265.687L-122.54 266.053C-57.4015 301.265 -2.15571 319.678 51.3209 324.001C99.5011 327.896 143.727 320.162 195.322 307.342C207.43 304.373 219.581 301.297 231.331 298.325C322.037 275.352 408.11 253.562 505.936 272.592C513.905 274.142 521.941 275.963 530.073 278.071C595.929 295.183 659.499 314.212 713.376 358.6C750.927 389.536 788.102 424.757 827.018 466.273C871.66 513.892 923.663 550.927 981.57 576.33C1028.8 597.056 1078.89 609.744 1130.43 614.025C1194.74 619.374 1254.71 615.612 1324.89 601.828C1390.75 588.895 1460.64 568.058 1545.17 542.164L1544.99 541.747C1375.77 593.591 1265.21 624.794 1130.46 613.591C1048.97 606.81 930.254 575.706 827.397 466.002C788.461 424.473 751.268 389.239 713.708 358.292C688.915 337.858 659.776 321.111 624.634 307.067C592.466 294.213 559.018 285.145 530.186 277.653C522.042 275.553 513.985 273.727 506.006 272.175Z" stroke="url(#paint2_linear_342_7251)" stroke-miterlimit="10"/><path d="M502.962 258.522C461.714 250.498 419.282 248.228 374.333 251.577C316.073 255.921 258.366 269.158 204.67 282.831C96.3145 310.783 20.4837 322.378 -118.685 247.824L-118.998 248.318C-52.9484 283.707 2.88022 301.527 56.6959 304.386C107.874 307.115 154.087 296.488 204.877 283.388C314.529 255.477 423.049 233.388 544.814 269.359C619.614 291.442 676.582 323.182 718.974 366.387C753.484 401.559 786.917 437.859 826.499 481.54C871.362 531.038 925.188 567.252 986.477 589.183C1046.91 610.805 1102.5 613.999 1138.51 612.868C1234.4 609.861 1312.78 589.251 1412.02 563.157C1454.33 552.03 1502.28 539.42 1556.69 526.907L1556.49 526.344C1502.08 538.854 1454.11 551.462 1411.8 562.589C1312.61 588.673 1234.26 609.278 1138.45 612.283C1068.5 614.487 935.005 600.364 826.993 481.177C787.401 437.494 753.958 401.192 719.449 366.011C676.967 322.712 619.902 290.915 544.99 268.791C531.092 264.701 517.098 261.272 502.962 258.522Z" stroke="url(#paint3_linear_342_7251)" stroke-width="1.5" stroke-miterlimit="10"/><path d="M487.132 239.067C455.854 232.983 423.669 230.326 390.013 230.987C338.027 232.02 282.17 240.828 214.2 258.721C107.887 287.061 31.0787 307.538 -115.042 229.949L-115.433 230.561C-47.5517 266.594 7.19748 283.314 62.1031 284.761C114.263 286.132 162.932 273.154 214.477 259.416C356.488 222.037 459.684 222.4 559.572 260.605C630.721 287.829 686.246 326.037 724.599 374.134C754.243 411.304 788.964 454.498 826.017 496.77C871.217 548.331 926.87 583.706 991.417 601.902C1054.09 619.571 1110.41 616.963 1146.64 611.669C1212.93 601.985 1269.27 585.614 1328.92 568.28C1394.3 549.281 1468.39 527.75 1568.24 511.613L1568.05 510.907C1468.15 527.054 1394.02 548.586 1328.63 567.593C1269 584.912 1212.7 601.28 1146.47 610.956C1088 619.495 939.814 625.436 826.655 496.34C789.611 454.079 754.899 410.896 725.265 373.729C686.806 325.505 631.166 287.218 559.865 259.936C535.991 250.818 511.835 243.872 487.132 239.067Z" stroke="url(#paint4_linear_342_7251)" stroke-width="2" stroke-miterlimit="10"/><path d="M474.932 218.161C399.757 203.538 317.784 209.11 223.705 234.62L215.427 236.891C104.776 267.312 31.6711 287.409 -111.423 212.082L-111.893 212.823C31.574 288.356 104.84 268.213 215.753 237.728L224.031 235.457C361.032 198.299 472.326 203.516 574.261 251.87C642.894 284.426 695.352 328.174 730.167 381.893C763.496 433.306 793.782 474.662 825.473 512.038C871.069 565.809 928.523 600.3 996.236 614.572C997.885 614.921 999.538 615.252 1001.18 615.572C1067.95 628.56 1125.8 618.065 1154.72 610.5C1203.02 597.879 1245.32 582.62 1286.21 567.863C1365.61 539.22 1447.7 509.608 1579.71 496.362L1579.55 495.5C1447.41 508.76 1365.26 538.396 1285.8 567.057C1244.92 581.807 1202.64 597.052 1154.39 609.662C1107.36 621.954 944.693 651.205 826.233 511.536C794.558 474.192 764.298 432.869 730.995 381.49C696.08 327.618 643.481 283.756 574.67 251.108C542.534 235.852 509.445 224.884 474.932 218.161Z" stroke="url(#paint5_linear_342_7251)" stroke-width="2" stroke-miterlimit="10"/><path d="M465.803 196.28C451.163 193.432 436.295 191.372 421.218 190.102C362.761 185.183 299.499 192.053 233.21 210.523C226.081 212.53 219.121 214.512 212.331 216.451C104.222 247.271 32.8048 267.63 -107.793 194.222L-108.33 195.083C-42.0128 229.712 11.098 245.301 63.8551 245.613C112.746 245.908 156.872 233.327 212.732 217.408C219.532 215.471 226.482 213.487 233.61 211.48C367.351 174.213 486.912 184.862 588.977 243.107C654.31 280.393 705.067 331.047 735.775 389.616C764.073 443.597 793.254 488.62 824.979 527.274C871.006 583.355 930.215 616.927 1001.01 627.142C1053.68 634.72 1112.67 628.215 1162.87 609.292C1200.55 595.085 1233.54 580.098 1265.44 565.599C1353.2 525.724 1436.08 488.065 1591.24 481.081L1591.13 480.075C1435.74 487.062 1352.75 524.777 1264.89 564.698C1233.01 579.183 1200.04 594.162 1162.39 608.366C1067.46 644.169 922.376 644.262 825.893 526.706C794.221 488.12 765.073 443.151 736.806 389.234C706.002 330.483 655.082 279.664 589.563 242.274C550.775 220.151 509.302 204.742 465.803 196.28Z" stroke="url(#paint6_linear_342_7251)" stroke-width="2" stroke-miterlimit="10"/><path d="M460.142 173.587C452.404 172.081 444.6 170.802 436.73 169.749C375.42 161.561 310.143 167.169 242.723 186.422C231.384 189.684 220.553 192.902 210.07 196.006C100.525 228.506 34.4137 248.128 -104.164 176.347L-104.803 177.341C-39.3538 211.237 12.8318 226.331 64.4325 226.274C112.358 226.229 155.677 213.376 210.509 197.104C220.993 193.991 231.824 190.773 243.151 187.518C376.689 149.39 501.334 165.588 603.646 234.348C666.781 276.789 714.395 333.151 741.336 397.344C765.609 455.197 792.791 502.68 824.427 542.512C870.223 600.173 932.881 633.784 1005.62 639.704C1084.12 646.094 1147.42 619.729 1170.98 608.091C1202.41 592.571 1229.97 577.112 1256.62 562.165C1353.48 507.829 1429.98 464.915 1602.69 465.818L1602.64 464.66C1523.27 464.249 1458.88 473.117 1400 492.587C1346.82 510.166 1302.65 534.945 1255.88 561.179C1229.24 576.119 1201.69 591.571 1170.3 607.078C1092.12 645.68 931.506 675.378 825.471 541.893C793.904 502.151 766.782 454.756 742.543 397.006C715.516 332.585 667.733 276.028 604.386 233.45C560.169 203.703 511.736 183.623 460.142 173.587Z" stroke="url(#paint7_linear_342_7251)" stroke-width="2" stroke-miterlimit="10"/><path d="M457.023 150.344C455.411 150.03 453.796 149.726 452.17 149.429C388.397 137.864 321.13 142.196 252.228 162.308C236.817 166.834 222.433 171.282 208.522 175.583C101.176 208.788 36.3833 228.839 -100.558 158.476L-101.243 159.595C36.3012 230.266 101.336 210.148 209.063 176.825C222.963 172.522 237.348 168.074 252.746 163.556C386.922 124.385 516.756 146.42 618.35 225.575C679.437 273.182 723.898 335.249 746.941 405.07C767.385 467.015 792.565 516.966 823.928 557.758C861.603 606.776 910.255 637.127 968.277 647.974C1049.37 663.109 1130.38 636.662 1179.14 606.869C1206.86 589.938 1231.17 573.522 1254.66 557.645C1354.91 489.935 1427.34 441.01 1614.2 450.544L1614.21 449.246C1527.96 444.848 1460.09 452.838 1400.63 474.396C1346.24 494.118 1303.37 523.071 1253.74 556.605C1230.24 572.472 1205.95 588.883 1178.26 605.799C1129.74 635.449 1049.15 661.756 968.502 646.708C967.884 646.588 967.264 646.477 966.646 646.357C909.765 635.292 862.159 605.259 825.116 557.072C793.85 516.394 768.731 466.579 748.336 404.767C725.211 334.701 680.587 272.411 619.274 224.627C570.808 186.836 516.24 161.863 457.023 150.344Z" stroke="url(#paint8_linear_342_7251)" stroke-width="2" stroke-miterlimit="10"/><path d="M455.985 126.685C393.511 114.532 328.238 118.392 261.731 138.205C242.324 143.999 224.663 149.702 207.582 155.212C102.254 189.221 38.6748 209.738 -96.9286 140.6L-97.6806 141.84C38.5937 211.328 102.441 190.72 208.21 156.567C225.28 151.055 242.929 145.359 262.323 139.572C399.745 98.6337 531.4 126.051 633.047 216.783C691.359 268.821 733.799 338.429 752.55 412.768C769.227 478.885 792.409 531.287 823.421 572.985C860.524 622.876 908.997 652.81 967.413 662.023C1053.96 675.627 1139.95 640.15 1187.29 605.636C1212.81 587.036 1235.13 569.277 1256.73 552.103C1355.49 473.541 1426.84 416.776 1625.69 435.25L1625.78 433.815C1426.23 415.271 1354.66 472.204 1255.61 551.005C1234.03 568.173 1211.71 585.924 1186.22 604.509C1139.13 638.834 1053.62 674.127 967.612 660.608C909.625 651.479 861.588 621.764 824.751 572.24C793.86 530.699 770.754 478.465 754.118 412.528C735.3 337.918 692.694 268.048 634.161 215.805C585.509 172.377 529.442 143.212 467.518 129.129C463.69 128.251 459.838 127.435 455.985 126.685Z" stroke="url(#paint9_linear_342_7251)" stroke-width="3" stroke-miterlimit="10"/><path d="M457.199 102.743C397.542 91.1384 334.69 94.8473 271.235 114.107C247.916 121.186 227.204 128.159 207.188 134.905C103.691 169.777 41.2274 190.817 -93.3085 122.728L-94.1415 124.105C41.1455 192.579 103.902 171.434 207.886 136.399C227.89 129.66 248.592 122.684 271.888 115.611C373.169 84.8675 472.929 93.9495 560.379 141.847C662.353 197.713 736.273 301.865 758.128 420.475C771.265 491.773 793.911 549.385 825.452 591.722C853.174 628.938 887.808 654.536 928.405 667.806C972.647 682.281 1024.01 681.815 1076.9 666.475C1120.67 653.786 1163.87 631.16 1195.43 604.405C1219.68 583.848 1240.8 564.42 1261.22 545.623C1361.48 453.386 1427.71 392.453 1637.16 419.966L1637.34 418.394C1427 390.765 1360.52 451.919 1259.91 544.488C1239.5 563.269 1218.39 582.679 1194.17 603.223C1132.74 655.303 1023.54 697.258 928.941 666.333C842.824 638.176 784.364 553.101 759.89 420.302C737.951 301.226 663.692 196.635 561.257 140.517C528.142 122.365 493.253 109.757 457.199 102.743Z" stroke="url(#paint10_linear_342_7251)" stroke-width="3" stroke-miterlimit="10"/></g><defs><linearGradient id="paint0_linear_342_7251" x1="677.222" y1="534.818" x2="717.029" y2="330.181" gradientUnits="userSpaceOnUse"><stop stop-color="#4FA83D" stop-opacity="0"/><stop offset="1" stop-color="#4FA83D" stop-opacity="0.4"/></linearGradient><linearGradient id="paint1_linear_342_7251" x1="682.477" y1="529.98" x2="722.301" y2="325.263" gradientUnits="userSpaceOnUse"><stop stop-color="#4FA83D" stop-opacity="0"/><stop offset="1" stop-color="#4FA83D" stop-opacity="0.4"/></linearGradient><linearGradient id="paint2_linear_342_7251" x1="686.717" y1="530.563" x2="728.559" y2="315.468" gradientUnits="userSpaceOnUse"><stop stop-color="#4FA83D" stop-opacity="0"/><stop offset="1" stop-color="#4FA83D" stop-opacity="0.4"/></linearGradient><linearGradient id="paint3_linear_342_7251" x1="689.947" y1="536.166" x2="735.169" y2="303.692" gradientUnits="userSpaceOnUse"><stop stop-color="#4FA83D" stop-opacity="0"/><stop offset="1" stop-color="#4FA83D" stop-opacity="0.4"/></linearGradient><linearGradient id="paint4_linear_342_7251" x1="692.569" y1="545.018" x2="742.425" y2="288.728" gradientUnits="userSpaceOnUse"><stop stop-color="#4FA83D" stop-opacity="0"/><stop offset="1" stop-color="#4FA83D" stop-opacity="0.4"/></linearGradient><linearGradient id="paint5_linear_342_7251" x1="694.736" y1="555.96" x2="750.037" y2="271.676" gradientUnits="userSpaceOnUse"><stop stop-color="#4FA83D" stop-opacity="0"/><stop offset="1" stop-color="#4FA83D" stop-opacity="0.4"/></linearGradient><linearGradient id="paint6_linear_342_7251" x1="696.667" y1="568.31" x2="757.981" y2="253.117" gradientUnits="userSpaceOnUse"><stop stop-color="#4FA83D" stop-opacity="0"/><stop offset="1" stop-color="#4FA83D" stop-opacity="0.4"/></linearGradient><linearGradient id="paint7_linear_342_7251" x1="698.354" y1="581.652" x2="766.154" y2="233.114" gradientUnits="userSpaceOnUse"><stop stop-color="#4FA83D" stop-opacity="0"/><stop offset="1" stop-color="#4FA83D" stop-opacity="0.4"/></linearGradient><linearGradient id="paint8_linear_342_7251" x1="699.925" y1="595.779" x2="774.559" y2="212.113" gradientUnits="userSpaceOnUse"><stop stop-color="#4FA83D" stop-opacity="0"/><stop offset="1" stop-color="#4FA83D" stop-opacity="0.4"/></linearGradient><linearGradient id="paint9_linear_342_7251" x1="701.39" y1="610.427" x2="783.112" y2="190.32" gradientUnits="userSpaceOnUse"><stop stop-color="#4FA83D" stop-opacity="0"/><stop offset="1" stop-color="#4FA83D" stop-opacity="0.4"/></linearGradient><linearGradient id="paint10_linear_342_7251" x1="702.753" y1="625.5" x2="791.782" y2="167.829" gradientUnits="userSpaceOnUse"><stop stop-color="#4FA83D" stop-opacity="0"/><stop offset="1" stop-color="#4FA83D" stop-opacity="0.4"/></linearGradient></defs></svg>