<svg xmlns="http://www.w3.org/2000/svg" width="216" height="93" viewBox="0 0 216 93" fill="none"><path d="M116.002 64.2687C117.266 48.3941 129.203 20.7599 166.844 37.2193C204.485 53.6787 207.487 21.3102 204.284 3.06859M204.284 3.06859L194.778 15.4597M204.284 3.06859L214.63 13.9574" stroke="white" stroke-width="3" stroke-dasharray="3 5"/><path d="M24.9934 81.7579C24.7601 81.7526 24.537 81.6642 24.3242 81.4927C24.111 81.3378 24.0089 81.0604 24.018 80.6605C24.0191 80.6105 24.0204 80.5522 24.0219 80.4856C24.0231 80.4356 24.0327 80.3774 24.0509 80.3112C24.4643 78.2533 24.9989 76.365 25.6547 74.6461C26.3271 72.9275 27.0119 71.401 27.709 70.0664C28.4061 68.7319 28.9981 67.62 29.485 66.7308C29.624 66.4839 29.8031 66.3046 30.0224 66.1929C30.2587 66.0648 30.4768 66.0031 30.6767 66.0076C30.9933 66.0148 31.174 66.1356 31.2187 66.37C31.5383 66.2439 31.8569 66.1594 32.1747 66.1166C32.4087 66.0886 32.6425 66.0689 32.8762 66.0575C33.1269 66.0298 33.3772 66.0188 33.6271 66.0245C34.277 66.0392 34.8831 66.1447 35.4454 66.3408C36.0244 66.5373 36.4923 66.8563 36.8491 67.2978C37.2062 67.7227 37.3761 68.3184 37.3587 69.0848C37.3395 69.9346 37.0562 70.6617 36.5091 71.2662C35.9619 71.8706 35.2496 72.4046 34.3722 72.8681C33.5119 73.3154 32.585 73.7529 31.5918 74.1805C31.1203 74.3865 30.5663 74.5573 29.9297 74.6929C29.2935 74.8119 28.6831 74.8981 28.0984 74.9515C27.5307 74.9887 27.0803 75.0034 26.747 74.9959C26.6236 75.2932 26.5089 75.574 26.4029 75.8383C26.2969 76.1026 26.1995 76.3505 26.1109 76.5819C26.0223 76.8133 25.932 77.1196 25.84 77.501C25.7484 77.8657 25.6646 78.2555 25.5885 78.6706C25.5124 79.0856 25.4539 79.4594 25.413 79.7919C25.3725 80.1077 25.3508 80.3323 25.3477 80.4656C25.3455 80.5656 25.4097 80.6754 25.5403 80.795C25.6873 80.9317 25.759 81.0751 25.7556 81.225C25.7522 81.375 25.6574 81.5145 25.4711 81.6437C25.3359 81.724 25.1766 81.762 24.9934 81.7579ZM27.7445 74.0182C28.0444 74.025 28.4621 73.9845 28.9975 73.8966C29.5334 73.7921 30.2387 73.5663 31.1134 73.2194C32.6785 72.5714 33.928 71.8745 34.8618 71.1288C35.8126 70.3668 36.2384 69.6013 36.1391 68.8321C36.1471 68.4822 36.0041 68.1706 35.7102 67.8972C35.4163 67.6238 35.0212 67.4064 34.5247 67.2452C34.0453 67.0676 33.5139 66.9722 32.9308 66.959C32.6308 66.9522 32.3137 66.97 31.9793 67.0124C31.796 67.0083 31.6529 67.0717 31.5499 67.2027C31.4473 67.3171 31.3193 67.4476 31.1659 67.5941C31.0292 67.7411 30.8013 67.8693 30.482 67.9787C30.3813 68.0098 30.3059 68.0248 30.256 68.0236C29.9788 68.4841 29.6575 69.052 29.2921 69.7272C28.9437 70.3862 28.5861 71.0866 28.2192 71.8284C27.8693 72.554 27.5363 73.2717 27.2202 73.9814C27.2701 73.9825 27.3366 73.9923 27.4195 74.0109C27.5195 74.0131 27.6278 74.0156 27.7445 74.0182ZM37.9401 79.8758C37.8401 79.8735 37.7402 79.8713 37.6402 79.869C37.5406 79.8501 37.441 79.8311 37.3414 79.8122C36.6601 79.7134 36.1343 79.3764 35.7639 78.8012C35.4106 78.2097 35.242 77.5557 35.2582 76.8392C35.2688 76.3727 35.3716 75.8832 35.5666 75.3709C35.7786 74.8422 36.0978 74.366 36.5242 73.9422C36.951 73.5017 37.4423 73.1545 37.9982 72.9003C38.5541 72.6462 39.1153 72.5255 39.6818 72.5384C39.9651 72.5448 40.2309 72.5842 40.4794 72.6565C40.7445 72.7292 40.8747 72.8655 40.8702 73.0654C40.8672 73.1987 40.7892 73.3303 40.6362 73.4602C40.5003 73.5739 40.3162 73.603 40.0841 73.5478C40.0178 73.5296 39.9097 73.5188 39.7597 73.5154C39.3598 73.5063 38.9491 73.6054 38.5277 73.8126C38.1062 74.0197 37.7247 74.3028 37.3831 74.6618C37.042 75.0042 36.7915 75.3903 36.6317 75.8201C36.5075 76.1507 36.4416 76.4826 36.4341 76.8159C36.4224 77.3324 36.529 77.7766 36.754 78.1485C36.9956 78.5207 37.2747 78.7104 37.5913 78.7176C37.6742 78.7361 37.749 78.7462 37.8157 78.7477C37.899 78.7496 37.9739 78.7513 38.0406 78.7528C38.7737 78.7694 39.4781 78.5853 40.1537 78.2005C40.8463 77.7995 41.3813 77.3615 41.7588 76.8866C41.9485 76.6075 42.0792 76.3604 42.1507 76.1453C42.2227 75.9135 42.2603 75.7226 42.2637 75.5727C42.2713 75.2394 42.1764 75.0122 41.9791 74.891C41.7818 74.7699 41.5997 74.7157 41.4327 74.7286C41.1653 74.7559 40.9061 74.7917 40.655 74.836C40.4043 74.8637 40.1864 74.9171 40.0012 74.9963C39.9005 75.0273 39.8251 75.0423 39.7752 75.0411C39.6085 75.0374 39.4684 74.9675 39.3548 74.8316C39.2578 74.696 39.2111 74.5532 39.2145 74.4033C39.2205 74.1367 39.3494 73.9645 39.6013 73.8869C39.8364 73.8089 40.1131 73.7401 40.4311 73.6807C40.7492 73.6212 41.0753 73.5786 41.4093 73.5528C41.4763 73.5376 41.5348 73.5306 41.5848 73.5318C41.6348 73.5329 41.6931 73.5342 41.7598 73.5357C42.3596 73.5493 42.822 73.7432 43.147 74.1173C43.4723 74.4748 43.6291 74.9118 43.6174 75.4283C43.6102 75.7449 43.5275 76.0848 43.3692 76.4479C43.2109 76.8111 42.9614 77.1556 42.6206 77.4812C42.312 77.8577 41.9201 78.2322 41.4448 78.6049C40.9696 78.9776 40.4374 79.2906 39.8481 79.5439C39.2593 79.7807 38.6233 79.8913 37.9401 79.8758ZM44.9275 81.4846C44.8109 81.4819 44.6778 81.4706 44.5282 81.4505C44.3953 81.4308 44.2542 81.4026 44.105 81.3659C43.8895 81.311 43.7848 81.1502 43.7909 80.8836C43.7943 80.7337 43.8556 80.6017 43.9749 80.4877C44.0945 80.3571 44.2623 80.3108 44.4781 80.3491C44.6611 80.3699 44.9536 80.3348 45.3558 80.2439C45.7746 80.1534 46.2358 80.0305 46.7395 79.8752C47.4787 79.6252 48.0849 79.3556 48.5583 79.0662C49.0316 78.7769 49.4228 78.4356 49.7318 78.0425C50.0574 77.6498 50.2244 77.2702 50.2327 76.9036C50.2365 76.737 50.2067 76.5779 50.1435 76.4265C50.0806 76.2583 49.9592 76.0972 49.7794 75.9431C49.5018 75.6867 49.1655 75.4457 48.7705 75.22C48.3755 74.9944 47.989 74.7605 47.6111 74.5186C47.2335 74.26 46.9148 73.9777 46.655 73.6717C46.4123 73.3494 46.296 72.9634 46.3062 72.5135C46.3152 72.1136 46.4646 71.7752 46.7543 71.4984C47.0444 71.2049 47.3747 70.9706 47.7455 70.7957C48.1332 70.6044 48.4614 70.4701 48.7299 70.3929C48.9983 70.3156 49.2663 70.2633 49.5336 70.236C49.8013 70.1921 50.0685 70.1731 50.3351 70.1792C50.6517 70.1864 50.9507 70.2348 51.232 70.3246C51.5305 70.398 51.8109 70.5294 52.0733 70.7187C52.221 70.8221 52.3267 70.9412 52.3903 71.076C52.4539 71.2108 52.4842 71.3449 52.4812 71.4782C52.4771 71.6614 52.415 71.8267 52.2949 71.9741C52.1919 72.1051 52.0488 72.1685 51.8655 72.1644C51.7322 72.1614 51.5588 72.0907 51.3452 71.9525L51.3702 71.9531C51.0096 71.6782 50.5878 71.5353 50.1046 71.5243C49.838 71.5183 49.5956 71.5461 49.3775 71.6079C49.0257 71.6832 48.6817 71.7838 48.3454 71.9095C48.0091 72.0353 47.7961 72.2389 47.7064 72.5202C47.6515 72.7357 47.771 72.9801 48.0649 73.2535C48.3758 73.5106 48.7615 73.7778 49.222 74.055C49.6829 74.3155 50.1104 74.5752 50.5047 74.8342C50.883 75.0595 51.1846 75.3581 51.4096 75.73C51.6346 76.1018 51.7423 76.496 51.7329 76.9126C51.7212 77.4291 51.5182 77.9247 51.124 78.3992C50.4905 79.135 49.8358 79.7037 49.1599 80.1051C48.5006 80.5069 47.7597 80.8319 46.9372 81.08C46.4839 81.2198 46.1066 81.3196 45.8051 81.3794C45.5033 81.4559 45.2108 81.491 44.9275 81.4846ZM57.2508 82.164C57.1842 82.1625 57.1261 82.1528 57.0765 82.135C57.0265 82.1339 56.9683 82.1242 56.9021 82.1061C56.4382 81.9789 55.9841 81.7852 55.5399 81.5251C55.1123 81.2653 54.7624 80.8906 54.4901 80.401C54.2182 79.8947 54.0913 79.2416 54.1094 78.4418C54.1166 78.1253 54.1493 77.7842 54.2076 77.4188C54.3041 76.8375 54.4696 76.1578 54.7039 75.3795C54.9553 74.585 55.2491 73.7581 55.5854 72.8989L55.5604 72.8983C55.4604 72.896 55.3684 72.9106 55.2843 72.9421C55.2003 72.9735 55.1166 72.9883 55.0332 72.9864C54.7667 72.9803 54.6369 72.819 54.6441 72.5024C54.6483 72.3191 54.7272 72.1459 54.881 71.9827C55.0347 71.8194 55.1782 71.7393 55.3115 71.7424L56.0619 71.7344C56.503 70.6608 56.9428 69.6455 57.3812 68.6885C57.8368 67.7152 58.2209 66.9487 58.5337 66.389C58.6204 66.2409 58.7395 66.1353 58.8909 66.072C59.0594 65.9925 59.227 65.9546 59.3936 65.9584C59.5603 65.9622 59.7009 66.007 59.8157 66.093C59.9475 66.1627 60.0119 66.2641 60.0088 66.3974C60.0081 66.4308 59.9899 66.497 59.9543 66.5963L58.3282 69.9353C58.1711 70.2484 58.0227 70.5452 57.883 70.8254C57.7599 71.106 57.6285 71.3864 57.4888 71.6667C57.822 71.6742 58.1634 71.6903 58.513 71.7149C58.8792 71.7399 59.2866 71.7825 59.7354 71.8426C59.8183 71.8612 59.9003 71.9214 59.9813 72.0233C60.0624 72.1251 60.1016 72.2344 60.0989 72.351C60.0971 72.4343 60.0618 72.5169 59.9933 72.5987C59.9418 72.6642 59.8242 72.7032 59.6406 72.7157C59.2395 72.7566 58.7972 72.78 58.3136 72.7857C57.8304 72.7747 57.397 72.7732 57.0134 72.7812C56.6071 73.7889 56.2779 74.7067 56.0258 75.5345C55.7903 76.3627 55.5976 77.1419 55.4476 77.872C55.4283 77.9883 55.409 78.1045 55.3897 78.2208C55.3871 78.3374 55.3846 78.4457 55.3824 78.5457C55.3654 79.2955 55.5527 79.8582 55.9442 80.2339C56.3358 80.6095 56.7799 80.878 57.2763 81.0393C57.574 81.1461 57.78 81.2507 57.8944 81.3534C58.025 81.473 58.0892 81.5828 58.087 81.6828C58.0839 81.8161 57.998 81.9309 57.8291 82.0271C57.6769 82.1236 57.4841 82.1693 57.2508 82.164ZM70.9192 82.4738C70.8526 82.4723 70.7944 82.4626 70.7448 82.4449C70.6948 82.4437 70.6367 82.4341 70.5704 82.4159C70.1065 82.2887 69.6525 82.095 69.2082 81.8349C68.7807 81.5751 68.4308 81.2004 68.1585 80.7108C67.8865 80.2045 67.7596 79.5515 67.7777 78.7517C67.7849 78.4351 67.8177 78.0941 67.876 77.7286C67.9725 77.1473 68.1379 76.4676 68.3723 75.6894C68.6237 74.8948 68.9175 74.068 69.2537 73.2087L69.2287 73.2081C69.1288 73.2059 69.0368 73.2204 68.9527 73.2519C68.8686 73.2833 68.7849 73.2981 68.7016 73.2962C68.435 73.2902 68.3053 73.1288 68.3125 72.8123C68.3166 72.629 68.3956 72.4557 68.5493 72.2925C68.7031 72.1293 68.8466 72.0492 68.9799 72.0522L69.7303 72.0442C70.1714 70.9706 70.6111 69.9553 71.0496 68.9983C71.5051 68.025 71.8893 67.2586 72.202 66.6988C72.2887 66.5508 72.4078 66.4451 72.5593 66.3818C72.7278 66.3023 72.8954 66.2644 73.062 66.2682C73.2286 66.272 73.3693 66.3168 73.4841 66.4028C73.6158 66.4725 73.6802 66.574 73.6772 66.7073C73.6765 66.7406 73.6583 66.8069 73.6227 66.9061L71.9966 70.2451C71.8395 70.5583 71.691 70.855 71.5513 71.1352C71.4283 71.4158 71.2969 71.6963 71.1572 71.9765C71.4904 71.9841 71.8318 72.0001 72.1813 72.0247C72.5475 72.0497 72.955 72.0923 73.4037 72.1525C73.4867 72.171 73.5687 72.2312 73.6497 72.3331C73.7308 72.4349 73.77 72.5442 73.7673 72.6608C73.7654 72.7441 73.7302 72.8267 73.6617 72.9085C73.6102 72.974 73.4926 73.013 73.3089 73.0255C72.9079 73.0665 72.4656 73.0898 71.982 73.0955C71.4988 73.0845 71.0654 73.083 70.6818 73.091C70.2755 74.0987 69.9463 75.0165 69.6941 75.8443C69.4586 76.6726 69.2659 77.4517 69.116 78.1818C69.0967 78.2981 69.0774 78.4144 69.0581 78.5306C69.0554 78.6473 69.053 78.7556 69.0507 78.8555C69.0337 79.6053 69.221 80.1681 69.6126 80.5437C70.0042 80.9193 70.4482 81.1878 70.9447 81.3491C71.2424 81.4559 71.4484 81.5606 71.5627 81.6632C71.6934 81.7828 71.7576 81.8927 71.7553 81.9926C71.7523 82.1259 71.6663 82.2407 71.4975 82.3369C71.3452 82.4335 71.1525 82.4791 70.9192 82.4738ZM80.6331 81.9188C80.2665 81.9105 80.0119 81.7463 79.8691 81.4264C79.7263 81.1064 79.6598 80.7298 79.6696 80.2965C79.6817 79.7634 79.7781 79.1904 79.9586 78.5777C80.1392 77.9649 80.3172 77.4688 80.4925 77.0894C80.7382 76.5448 80.9325 76.0657 81.0752 75.6522C81.218 75.2387 81.2922 74.9069 81.2978 74.657C81.3046 74.3571 81.2164 74.205 81.0331 74.2009C80.9168 74.1816 80.6735 74.2511 80.3032 74.4094C79.9328 74.5677 79.5445 74.784 79.1382 75.0582C78.8845 75.2191 78.5456 75.4615 78.1215 75.7853C77.6977 76.0924 77.2566 76.4325 76.798 76.8056C76.3394 77.1786 75.931 77.5445 75.5728 77.9031C75.0953 78.3757 74.7685 78.8184 74.5925 79.2312C74.4868 79.4789 74.3174 79.6001 74.0841 79.5948C73.9341 79.5914 73.8107 79.5219 73.7137 79.3863C73.6171 79.2341 73.5889 79.0084 73.629 78.7093C73.7248 78.1613 73.8984 77.49 74.1498 76.6955C74.4179 75.9014 74.7206 75.0497 75.0579 74.1405C75.4123 73.2149 75.7832 72.2981 76.1706 71.39C76.5583 70.4652 76.9362 69.6069 77.3042 68.815C77.6889 68.0235 78.0289 67.3644 78.3243 66.8376C78.4803 66.5744 78.6916 66.4458 78.9582 66.4519C79.1081 66.4553 79.2401 66.5166 79.3541 66.6359C79.4685 66.7385 79.5234 66.8898 79.5189 67.0897C79.5174 67.1564 79.4892 67.2975 79.4343 67.5129C79.396 67.7288 79.3326 67.9524 79.244 68.1838C79.1721 68.4156 79.0844 68.6053 78.981 68.753C78.8084 69.0158 78.6022 69.2862 78.3625 69.5642C78.1228 69.8421 77.907 70.1707 77.715 70.5497C77.2955 71.4071 76.9537 72.1412 76.6898 72.7521C76.4263 73.3463 76.2143 73.8749 76.0537 74.3381C75.9098 74.8016 75.7836 75.2238 75.6749 75.6048C75.5663 75.9858 75.4489 76.3832 75.3228 76.7971C75.461 76.5836 75.5899 76.4114 75.7096 76.2808C75.8293 76.1501 75.9487 76.0278 76.068 75.9138C76.4088 75.5881 76.8165 75.2556 77.2909 74.9163C77.7654 74.5769 78.2562 74.2546 78.7632 73.9494C79.2869 73.6445 79.7758 73.4055 80.2298 73.2324C80.7009 73.0431 81.0781 72.9516 81.3614 72.958C81.6779 72.9652 81.9671 73.0801 82.2288 73.3027C82.4908 73.5087 82.6153 73.9033 82.602 74.4865C82.5945 74.8198 82.5269 75.2267 82.3993 75.7072C82.2888 76.1715 82.0847 76.717 81.7871 77.3438C81.541 77.905 81.3189 78.5085 81.1209 79.1541C80.9399 79.7835 80.8201 80.2893 80.7614 80.6714C80.9224 80.9251 80.9994 81.2019 80.9926 81.5018C80.9862 81.7851 80.8664 81.9241 80.6331 81.9188ZM88.4285 71.9179C88.343 72.016 88.2345 72.0218 88.1031 71.9355C87.9883 71.8496 87.8912 71.7223 87.8116 71.5538C87.7325 71.3686 87.7114 71.1931 87.7485 71.0272L87.7735 71.0278C87.8459 70.7794 87.9339 70.573 88.0376 70.4086C88.1414 70.2443 88.2785 70.0807 88.4489 69.9178C88.5511 69.8201 88.6855 69.7732 88.8522 69.7769C89.0021 69.7803 89.1343 69.8333 89.2487 69.936C89.3801 70.0223 89.4443 70.1321 89.4412 70.2654C89.4397 70.3321 89.413 70.4065 89.3612 70.4887C89.3097 70.5542 89.2057 70.7269 89.0493 71.0067C88.9096 71.287 88.7027 71.5907 88.4285 71.9179ZM85.0703 81.0691C84.8037 81.0631 84.5394 80.9571 84.2773 80.7511C84.0323 80.5288 83.94 80.185 84.0006 79.7195C84.082 79.0712 84.1861 78.5234 84.3129 78.0762C84.4398 77.629 84.5823 77.2238 84.7406 76.8606C84.8992 76.4807 85.0668 76.0761 85.2432 75.6467C85.4363 75.2176 85.6315 74.6969 85.8288 74.0845C85.9352 73.8035 86.1467 73.6666 86.4632 73.6738C86.6799 73.6787 86.87 73.7497 87.0336 73.8868C87.1972 74.0239 87.243 74.2083 87.1711 74.44C86.9386 75.1349 86.7091 75.6966 86.4827 76.1249C86.2563 76.5532 86.0476 76.9319 85.8568 77.261C85.6663 77.5734 85.5001 77.9197 85.3581 78.2999C85.2332 78.6639 85.1474 79.1371 85.1009 79.7195C85.0998 79.7695 85.2056 79.8802 85.4184 80.0518C85.6317 80.2066 85.736 80.384 85.7315 80.584C85.7281 80.734 85.6417 80.8654 85.4725 80.9782C85.3876 81.043 85.2536 81.0733 85.0703 81.0691ZM88.5198 82.4727C88.4032 82.47 88.2701 82.4587 88.1205 82.4386C87.9876 82.4189 87.8465 82.3907 87.6973 82.354C87.4818 82.2991 87.3771 82.1383 87.3832 81.8718C87.3866 81.7218 87.4479 81.5898 87.5672 81.4758C87.6869 81.3452 87.8546 81.299 88.0705 81.3372C88.2534 81.358 88.5459 81.323 88.9481 81.232C89.3669 81.1415 89.8281 81.0186 90.3318 80.8633C91.071 80.6133 91.6772 80.3437 92.1506 80.0543C92.6239 79.765 93.0151 79.4237 93.3241 79.0306C93.6497 78.6379 93.8167 78.2583 93.825 77.8917C93.8288 77.7251 93.7991 77.566 93.7358 77.4146C93.6729 77.2464 93.5516 77.0853 93.3717 76.9312C93.0941 76.6748 92.7578 76.4338 92.3628 76.2081C91.9678 75.9825 91.5813 75.7486 91.2034 75.5067C90.8258 75.2481 90.5071 74.9658 90.2473 74.6598C90.0046 74.3376 89.8883 73.9515 89.8985 73.5016C89.9076 73.1017 90.0569 72.7633 90.3466 72.4865C90.6367 72.193 90.9671 71.9588 91.3378 71.7838C91.7256 71.5925 92.0537 71.4582 92.3222 71.381C92.5907 71.3037 92.8586 71.2514 93.1259 71.2242C93.3937 71.1802 93.6608 71.1613 93.9274 71.1673C94.244 71.1745 94.543 71.2229 94.8244 71.3127C95.1228 71.3861 95.4032 71.5175 95.6657 71.7068C95.8133 71.8102 95.919 71.9293 95.9826 72.0641C96.0463 72.1989 96.0766 72.333 96.0735 72.4663C96.0694 72.6496 96.0073 72.8149 95.8873 72.9622C95.7843 73.0932 95.6411 73.1566 95.4578 73.1525C95.3245 73.1495 95.1511 73.0789 94.9375 72.9406L94.9625 72.9412C94.602 72.6663 94.1801 72.5234 93.6969 72.5124C93.4303 72.5064 93.1879 72.5342 92.9698 72.596C92.618 72.6713 92.274 72.7719 91.9377 72.8977C91.6014 73.0234 91.3884 73.227 91.2987 73.5083C91.2438 73.7238 91.3633 73.9682 91.6572 74.2416C91.9681 74.4988 92.3538 74.7659 92.8143 75.0431C93.2752 75.3036 93.7028 75.5633 94.097 75.8223C94.4753 76.0476 94.777 76.3462 95.0019 76.7181C95.2269 77.0899 95.3346 77.4841 95.3252 77.9007C95.3135 78.4172 95.1105 78.9128 94.7164 79.3873C94.0829 80.1231 93.4281 80.6918 92.7522 81.0932C92.0929 81.495 91.352 81.82 90.5295 82.0681C90.0762 82.2079 89.6989 82.3077 89.3975 82.3675C89.0956 82.444 88.8031 82.4791 88.5198 82.4727ZM106.055 82.6201C105.788 82.614 105.524 82.4997 105.262 82.277C105.017 82.0714 104.916 81.7357 104.96 81.2699C105.02 80.8378 105.149 80.2656 105.349 79.5533C105.565 78.8247 105.834 78.0222 106.154 77.1459C106.49 76.27 106.844 75.3694 107.215 74.4443C107.603 73.5028 107.991 72.5947 108.377 71.7199C108.764 70.8284 109.132 70.0282 109.482 69.3193C109.832 68.5937 110.128 68.0086 110.372 67.564C110.528 67.3008 110.739 67.1723 111.006 67.1783C111.156 67.1817 111.288 67.243 111.402 67.3623C111.516 67.4649 111.571 67.6162 111.566 67.8162C111.565 67.8828 111.537 68.0239 111.482 68.2394C111.444 68.4552 111.38 68.6788 111.292 68.9102C111.22 69.142 111.14 69.3319 111.054 69.48C110.881 69.7428 110.675 70.0132 110.435 70.2912C110.195 70.5691 109.98 70.8977 109.788 71.2767C109.368 72.1341 108.947 73.0415 108.526 73.9988C108.104 74.9395 107.716 75.8643 107.362 76.7732C107.008 77.6821 106.715 78.5006 106.482 79.2289C106.265 79.9575 106.135 80.538 106.092 80.9705C106.089 81.0871 106.137 81.2132 106.233 81.3488C106.347 81.4847 106.452 81.6205 106.549 81.756C106.663 81.892 106.718 82.0266 106.715 82.1599C106.712 82.2932 106.626 82.4163 106.457 82.5292C106.372 82.5939 106.238 82.6242 106.055 82.6201ZM115.009 72.5204C114.923 72.6185 114.815 72.6243 114.683 72.538C114.568 72.452 114.471 72.3248 114.392 72.1563C114.313 71.9711 114.292 71.7956 114.329 71.6297L114.354 71.6303C114.426 71.3819 114.514 71.1755 114.618 71.0111C114.721 70.8468 114.859 70.6832 115.029 70.5203C115.131 70.4226 115.266 70.3756 115.432 70.3794C115.582 70.3828 115.714 70.4358 115.829 70.5385C115.96 70.6248 116.024 70.7346 116.021 70.8679C116.02 70.9346 115.993 71.009 115.941 71.0911C115.89 71.1567 115.786 71.3293 115.629 71.6092C115.49 71.8894 115.283 72.1932 115.009 72.5204ZM111.65 81.6716C111.384 81.6656 111.119 81.5596 110.857 81.3536C110.612 81.1313 110.52 80.7875 110.581 80.322C110.662 79.6737 110.766 79.1259 110.893 78.6787C111.02 78.2315 111.162 77.8262 111.321 77.4631C111.479 77.0832 111.647 76.6786 111.823 76.2492C112.016 75.8201 112.212 75.2994 112.409 74.687C112.515 74.406 112.727 74.2691 113.043 74.2763C113.26 74.2812 113.45 74.3522 113.614 74.4893C113.777 74.6263 113.823 74.8108 113.751 75.0425C113.519 75.7374 113.289 76.299 113.063 76.7274C112.836 77.1557 112.628 77.5344 112.437 77.8635C112.246 78.1759 112.08 78.5222 111.938 78.9024C111.813 79.2664 111.728 79.7395 111.681 80.322C111.68 80.372 111.786 80.4827 111.999 80.6543C112.212 80.8091 112.316 80.9865 112.312 81.1865C112.308 81.3364 112.222 81.4679 112.053 81.5807C111.968 81.6455 111.834 81.6758 111.65 81.6716ZM123.74 82.4958C123.49 82.4901 123.26 82.3432 123.05 82.0551C122.84 81.7502 122.74 81.3729 122.751 80.923C122.757 80.6397 122.79 80.282 122.85 79.85C122.91 79.4179 122.995 78.9863 123.104 78.5554C123.215 78.1078 123.34 77.7272 123.48 77.4136C123.761 76.8198 123.905 76.348 123.913 75.998C123.922 75.5648 123.727 75.3437 123.327 75.3346C123.277 75.3335 123.219 75.3322 123.153 75.3306C123.086 75.3291 123.019 75.3443 122.951 75.3761C122.616 75.4685 122.161 75.6833 121.586 76.0203C121.012 76.3407 120.404 76.7187 119.76 77.1542C119.134 77.5902 118.54 78.0268 117.98 78.4642C117.42 78.9017 116.986 79.2836 116.679 79.61C116.252 80.0672 115.969 80.4192 115.83 80.6661C115.691 80.913 115.621 81.0364 115.621 81.0364C115.484 81.2167 115.332 81.305 115.165 81.3012C115.015 81.2978 114.892 81.22 114.795 81.0677C114.699 80.8988 114.679 80.6817 114.735 80.4162C114.999 79.0552 115.276 77.8945 115.564 76.9341C115.869 75.9741 116.213 75.1483 116.596 74.4568C116.752 74.1936 116.963 74.0651 117.23 74.0711C117.379 74.0745 117.511 74.1358 117.625 74.2551C117.74 74.3577 117.795 74.5174 117.79 74.734C117.787 74.8506 117.732 75.0744 117.624 75.4054C117.534 75.7368 117.419 76.0092 117.281 76.2228C117.108 76.4856 116.959 76.7907 116.835 77.1379C116.727 77.4689 116.592 77.9326 116.428 78.5291C116.618 78.25 116.781 78.0536 116.917 77.94C117.053 77.8097 117.232 77.6387 117.454 77.427C118.152 76.7594 118.974 76.1612 119.92 75.6325C120.882 75.0875 121.801 74.6332 122.676 74.2696C122.862 74.1904 123.097 74.1124 123.382 74.0355C123.667 73.9586 123.951 73.9234 124.235 73.9298C124.568 73.9374 124.866 74.0358 125.128 74.2251C125.391 74.4145 125.516 74.7674 125.504 75.2839C125.498 75.5505 125.441 75.8743 125.332 76.2553C125.24 76.6366 125.08 77.0831 124.852 77.5947C124.571 78.2052 124.382 78.8427 124.283 79.5073C124.201 80.1723 124.155 80.7381 124.145 81.2046C124.142 81.3379 124.139 81.4712 124.136 81.6045C124.15 81.7216 124.155 81.83 124.153 81.93C124.149 82.0966 124.121 82.2294 124.069 82.3282C124.017 82.4437 123.907 82.4996 123.74 82.4958ZM127.601 83.1335C127.368 83.1282 127.145 83.0398 126.932 82.8682C126.718 82.7134 126.616 82.436 126.625 82.0361C126.627 81.9861 126.628 81.9361 126.629 81.8861C126.63 81.8195 126.64 81.753 126.658 81.6867C127.072 79.6289 127.554 77.856 128.104 76.3681C128.655 74.8802 129.226 73.5845 129.818 72.481C130.41 71.3774 130.949 70.3811 131.436 69.4919C131.575 69.2449 131.754 69.0656 131.973 68.9539C132.21 68.8259 132.428 68.7641 132.628 68.7687C132.994 68.777 133.174 68.9228 133.168 69.206C133.163 69.406 133.058 69.6287 132.853 69.8741C132.494 70.266 132.089 70.8403 131.638 71.597C131.204 72.354 130.768 73.2027 130.33 74.143C129.893 75.0667 129.505 75.9998 129.167 76.9423C129.302 76.8621 129.437 76.7901 129.572 76.7265C129.707 76.6462 129.833 76.574 129.952 76.51C130.356 76.3191 130.819 76.1129 131.341 75.8914C131.88 75.6535 132.418 75.449 132.955 75.2778C133.493 75.0899 133.971 74.9674 134.389 74.9102C134.473 74.8954 134.565 74.8808 134.665 74.8664C134.782 74.8524 134.891 74.8465 134.99 74.8488C135.107 74.8514 135.198 74.8868 135.263 74.955C135.345 75.0235 135.384 75.1494 135.38 75.3327C135.372 75.666 135.276 75.8805 135.09 75.9763C134.921 76.0725 134.736 76.135 134.536 76.1638C134.218 76.19 133.808 76.289 133.304 76.461C132.817 76.6166 132.312 76.8053 131.79 77.0268C131.286 77.2321 130.839 77.4304 130.451 77.6216C130.216 77.6997 130.005 77.8282 129.818 78.0074C129.631 78.1698 129.494 78.3168 129.407 78.4482C129.322 78.5629 129.312 78.6044 129.38 78.5726C129.426 78.7404 129.563 78.9518 129.79 79.2071C130.018 79.4623 130.287 79.7185 130.598 79.9756C130.926 80.2164 131.246 80.4404 131.558 80.6475C131.887 80.8383 132.159 80.9779 132.374 81.0661C132.755 81.1914 133.018 81.3391 133.164 81.5091C133.327 81.6628 133.407 81.8064 133.404 81.9397C133.401 82.073 133.332 82.1881 133.197 82.285C133.078 82.3824 132.927 82.429 132.743 82.4248C132.677 82.4233 132.594 82.4047 132.494 82.3692C132.131 82.2275 131.669 82.0087 131.109 81.7126C130.566 81.4169 130.04 81.0715 129.532 80.6766C129.024 80.2816 128.641 79.8812 128.384 79.4753L128.359 79.4747C128.284 79.8398 128.191 80.2544 128.081 80.7187C127.987 81.1834 127.945 81.5575 127.955 81.8412C127.953 81.9411 128.017 82.0593 128.147 82.1956C128.295 82.3156 128.367 82.4506 128.363 82.6006C128.36 82.7506 128.265 82.8901 128.079 83.0193C127.943 83.0995 127.784 83.1376 127.601 83.1335ZM147.349 73.2534C147.263 73.3515 147.155 73.3574 147.023 73.2711C146.909 73.1851 146.812 73.0579 146.732 72.8894C146.653 72.7042 146.632 72.5287 146.669 72.3628L146.694 72.3634C146.766 72.1149 146.854 71.9085 146.958 71.7442C147.062 71.5798 147.199 71.4162 147.369 71.2534C147.472 71.1557 147.606 71.1087 147.773 71.1125C147.923 71.1159 148.055 71.1689 148.169 71.2715C148.3 71.3578 148.365 71.4677 148.362 71.601C148.36 71.6676 148.333 71.742 148.282 71.8242C148.23 71.8897 148.126 72.0624 147.97 72.3423C147.83 72.6225 147.623 72.9262 147.349 73.2534ZM143.991 82.4047C143.724 82.3986 143.46 82.2926 143.198 82.0866C142.953 81.8644 142.86 81.5205 142.921 81.0551C143.002 80.4068 143.107 79.859 143.233 79.4118C143.36 78.9645 143.503 78.5593 143.661 78.1961C143.82 77.8163 143.987 77.4117 144.164 76.9822C144.357 76.5531 144.552 76.0324 144.749 75.4201C144.856 75.1391 145.067 75.0022 145.384 75.0094C145.6 75.0143 145.79 75.0853 145.954 75.2223C146.118 75.3594 146.163 75.5438 146.091 75.7756C145.859 76.4705 145.63 77.0321 145.403 77.4604C145.177 77.8887 144.968 78.2674 144.777 78.5965C144.587 78.909 144.421 79.2553 144.279 79.6355C144.154 79.9994 144.068 80.4726 144.021 81.055C144.02 81.105 144.126 81.2158 144.339 81.3873C144.552 81.5422 144.656 81.7196 144.652 81.9195C144.648 82.0695 144.562 82.2009 144.393 82.3138C144.308 82.3785 144.174 82.4088 143.991 82.4047ZM156.081 83.2289C155.831 83.2232 155.601 83.0763 155.39 82.7881C155.181 82.4833 155.081 82.1059 155.091 81.656C155.097 81.3728 155.131 81.0151 155.19 80.583C155.25 80.1509 155.335 79.7194 155.445 79.2884C155.555 78.8408 155.68 78.4602 155.821 78.1467C156.101 77.5529 156.245 77.081 156.253 76.7311C156.263 76.2979 156.068 76.0767 155.668 76.0677C155.618 76.0665 155.559 76.0652 155.493 76.0637C155.426 76.0622 155.359 76.0773 155.292 76.1092C154.956 76.2016 154.501 76.4163 153.927 76.7534C153.353 77.0738 152.744 77.4518 152.101 77.8873C151.474 78.3232 150.881 78.7599 150.32 79.1973C149.76 79.6347 149.327 80.0167 149.019 80.3431C148.592 80.8002 148.309 81.1522 148.17 81.3991C148.031 81.646 147.962 81.7695 147.962 81.7695C147.824 81.9498 147.672 82.038 147.505 82.0342C147.356 82.0308 147.232 81.953 147.136 81.8008C147.039 81.6319 147.019 81.4147 147.075 81.1493C147.34 79.7882 147.616 78.6275 147.905 77.6672C148.21 76.7072 148.554 75.8814 148.936 75.1899C149.092 74.9267 149.303 74.7981 149.57 74.8042C149.72 74.8076 149.852 74.8689 149.966 74.9882C150.08 75.0908 150.135 75.2504 150.13 75.467C150.127 75.5837 150.072 75.8075 149.965 76.1385C149.874 76.4698 149.759 76.7423 149.621 76.9559C149.448 77.2187 149.3 77.5237 149.175 77.871C149.068 78.202 148.932 78.6657 148.769 79.2622C148.958 78.983 149.121 78.7867 149.257 78.6731C149.393 78.5428 149.572 78.3718 149.794 78.1601C150.493 77.4924 151.315 76.8942 152.26 76.3655C153.223 75.8205 154.142 75.3662 155.017 75.0026C155.202 74.9235 155.437 74.8455 155.722 74.7686C156.007 74.6917 156.292 74.6564 156.575 74.6629C156.908 74.6704 157.206 74.7689 157.468 74.9582C157.731 75.1475 157.856 75.5005 157.844 76.017C157.838 76.2836 157.781 76.6074 157.672 76.9883C157.58 77.3697 157.42 77.8162 157.192 78.3278C156.911 78.9383 156.722 79.5758 156.623 80.2404C156.542 80.9054 156.496 81.4712 156.485 81.9377C156.482 82.071 156.479 82.2043 156.476 82.3376C156.49 82.4546 156.496 82.5631 156.494 82.6631C156.49 82.8297 156.462 82.9624 156.409 83.0613C156.357 83.1768 156.247 83.2326 156.081 83.2289ZM169.444 82.6566C169.161 82.6501 168.87 82.6019 168.572 82.5118C168.274 82.4216 167.977 82.2899 167.681 82.1165C167.138 81.7874 166.764 81.3705 166.559 80.8657C166.354 80.3609 166.257 79.8253 166.27 79.2588C166.276 78.9922 166.299 78.7343 166.338 78.4851C166.377 78.2192 166.433 77.9538 166.506 77.6887C166.652 77.1419 166.896 76.6473 167.24 76.2049C167.584 75.746 167.967 75.3629 168.391 75.0557C168.815 74.7486 169.219 74.5577 169.604 74.4831C169.655 74.4676 169.722 74.4607 169.805 74.4626C170.038 74.4679 170.228 74.5389 170.375 74.6756C170.522 74.8123 170.594 74.964 170.59 75.1306C170.585 75.3305 170.465 75.4862 170.229 75.5975L170.229 75.6225C169.842 75.7805 169.496 75.9477 169.192 76.1242C168.905 76.2844 168.65 76.512 168.426 76.807C168.203 77.102 167.993 77.5307 167.797 78.0931C167.69 78.3907 167.631 78.7895 167.62 79.2894C167.611 79.6726 167.653 80.0403 167.745 80.3925C167.854 80.7284 168.041 80.9576 168.305 81.0803C168.585 81.2034 168.884 81.2685 169.2 81.2757C169.883 81.2912 170.564 81.0732 171.241 80.6217C171.918 80.1536 172.521 79.6672 173.049 79.1624C173.526 78.7064 173.971 78.1913 174.385 77.6172C174.815 77.0268 175.177 76.4849 175.472 75.9914C175.767 75.4813 175.942 75.1102 175.997 74.8781C176.07 74.5963 176.257 74.4588 176.557 74.4656C176.74 74.4698 176.905 74.5485 177.051 74.7019C177.198 74.8386 177.236 75.0228 177.164 75.2546C177.056 75.6022 176.846 76.0559 176.533 76.6156C176.237 77.1757 175.873 77.7593 175.443 78.3664C175.029 78.9572 174.592 79.4974 174.131 79.9871C173.755 80.3953 173.32 80.8106 172.827 81.2329C172.335 81.6385 171.802 81.9848 171.228 82.2719C170.655 82.5423 170.061 82.6705 169.444 82.6566ZM177.783 83.1206C177.633 83.1172 177.492 83.0557 177.362 82.936C177.248 82.8001 177.195 82.5822 177.201 82.2822C177.203 82.2156 177.204 82.149 177.206 82.0823C177.225 81.9994 177.243 81.9164 177.262 81.8335C177.428 81.1038 177.637 80.3333 177.889 79.5221C178.158 78.7113 178.425 77.9505 178.691 77.2397C178.958 76.5122 179.154 75.9415 179.28 75.5276C179.369 75.2629 179.49 75.0739 179.643 74.9607C179.812 74.8478 179.98 74.7933 180.147 74.7971C180.33 74.8012 180.479 74.8629 180.593 74.9822C180.724 75.0852 180.787 75.2284 180.783 75.4116C180.78 75.5616 180.726 75.7271 180.622 75.9081C180.518 76.0891 180.386 76.3779 180.227 76.7744C180.085 77.1713 179.942 77.5681 179.8 77.965C179.658 78.3619 179.534 78.6592 179.43 78.8569C180.026 78.3036 180.561 77.8489 181.036 77.4929C181.511 77.1369 182.135 76.7927 182.91 76.4601C183.247 76.301 183.682 76.2276 184.215 76.2396C184.598 76.2483 184.98 76.332 185.36 76.4906C185.74 76.6493 186.05 76.9231 186.291 77.312C186.533 77.7009 186.645 78.2452 186.629 78.945C186.623 79.2116 186.47 79.3415 186.171 79.3347C186.054 79.3321 185.93 79.2793 185.799 79.1763C185.685 79.0737 185.588 78.9048 185.51 78.6696C185.402 78.2837 185.226 77.9797 184.981 77.7574C184.753 77.5188 184.447 77.3952 184.064 77.3865C183.831 77.3812 183.563 77.4252 183.261 77.5183C182.892 77.6267 182.428 77.8412 181.871 78.162C181.314 78.4661 180.738 78.8532 180.144 79.3232C179.567 79.7935 179.029 80.3315 178.532 80.9371C178.53 81.0537 178.502 81.1864 178.448 81.3353C178.411 81.4845 178.391 81.6507 178.387 81.834C178.386 81.8673 178.401 81.951 178.431 82.0851C178.462 82.2191 178.475 82.3528 178.472 82.4861C178.468 82.6694 178.389 82.826 178.236 82.9559C178.1 83.0695 177.949 83.1244 177.783 83.1206ZM188.602 84.4912C188.335 84.4851 188.071 84.3708 187.809 84.1481C187.564 83.9425 187.463 83.6068 187.507 83.141C187.567 82.7089 187.697 82.1367 187.896 81.4244C188.113 80.6958 188.381 79.8933 188.701 79.017C189.037 78.1411 189.391 77.2405 189.762 76.3154C190.15 75.3739 190.538 74.4658 190.924 73.591C191.311 72.6995 191.68 71.8993 192.029 71.1904C192.379 70.4648 192.676 69.8797 192.919 69.4351C193.075 69.1719 193.286 69.0434 193.553 69.0494C193.703 69.0528 193.835 69.1141 193.949 69.2334C194.063 69.336 194.118 69.4873 194.114 69.6873C194.112 69.7539 194.084 69.895 194.029 70.1105C193.991 70.3263 193.927 70.5499 193.839 70.7813C193.767 71.0131 193.688 71.203 193.601 71.3511C193.428 71.6139 193.222 71.8843 192.982 72.1623C192.743 72.4402 192.527 72.7688 192.335 73.1478C191.915 74.0052 191.495 74.9126 191.073 75.8699C190.651 76.8106 190.264 77.7354 189.91 78.6443C189.556 79.5532 189.262 80.3717 189.029 81.1C188.812 81.8286 188.682 82.4091 188.639 82.8416C188.637 82.9582 188.684 83.0843 188.781 83.2199C188.894 83.3558 189 83.4916 189.096 83.6272C189.21 83.7631 189.265 83.8977 189.262 84.031C189.259 84.1643 189.173 84.2874 189.004 84.4003C188.919 84.465 188.785 84.4953 188.602 84.4912Z" fill="white"/></svg>