<svg xmlns="http://www.w3.org/2000/svg" width="45" height="45" viewBox="0 0 45 45" fill="none"><circle cx="22.5" cy="22.5" r="22.5" fill="url(#paint0_radial_344_8460)" fill-opacity="0.26"></circle><path d="M18.9722 30.2409C18.9235 30.4347 17.7047 34.9984 11.001 34.9984C10.7357 34.9984 10.4814 34.8931 10.2939 34.7055C10.1063 34.518 10.001 34.2636 10.001 33.9984C10.001 27.2947 14.5647 26.0759 14.7585 26.0272C15.0159 25.9629 15.2883 26.0034 15.5158 26.14C15.7433 26.2765 15.9073 26.4979 15.9716 26.7553C16.0359 27.0127 15.9953 27.2852 15.8588 27.5127C15.7222 27.7402 15.5009 27.9041 15.2435 27.9684C15.131 27.9997 12.441 28.7859 12.0485 32.9509C16.2135 32.5584 17.001 29.8734 17.0335 29.7484C17.0998 29.4913 17.2655 29.2711 17.4942 29.1362C17.7228 29.0013 17.9957 28.9628 18.2528 29.0291C18.5099 29.0954 18.7302 29.2611 18.8651 29.4898C19 29.7184 19.0385 29.9913 18.9722 30.2484V30.2409ZM30.5972 21.8159L30.001 22.4122V29.7034C30.0024 29.9671 29.9515 30.2284 29.8511 30.4722C29.7506 30.716 29.6027 30.9373 29.416 31.1234L25.126 35.4109C24.941 35.5973 24.7209 35.7451 24.4785 35.8459C24.236 35.9468 23.976 35.9986 23.7135 35.9984C23.4968 35.9984 23.2815 35.9633 23.076 35.8947C22.7231 35.778 22.4099 35.5649 22.1718 35.2795C21.9336 34.9941 21.7801 34.6478 21.7285 34.2797L21.0572 29.4684L15.531 23.9422L10.7222 23.2709C10.3536 23.2192 10.0068 23.0657 9.72072 22.8277C9.43464 22.5896 9.22065 22.2764 9.10284 21.9234C8.98503 21.5704 8.96807 21.1914 9.05386 20.8293C9.13965 20.4671 9.3248 20.1361 9.58846 19.8734L13.876 15.5834C14.0621 15.3967 14.2834 15.2488 14.5272 15.1483C14.771 15.0479 15.0323 14.9969 15.296 14.9984H22.5872L23.1835 14.4022C26.5185 11.0684 30.5372 10.9247 32.1097 11.0184C32.5973 11.0481 33.0572 11.2551 33.4026 11.6005C33.748 11.9459 33.9551 12.4058 33.9847 12.8934C34.076 14.4622 33.9322 18.4809 30.5985 21.8159H30.5972ZM11.001 21.2909L15.6447 21.9384L20.5872 16.9984H15.296L11.001 21.2909ZM17.416 22.9984L22.001 27.5834L29.1822 20.4022C30.15 19.4409 30.9008 18.2837 31.3842 17.0081C31.8676 15.7326 32.0723 14.3684 31.9847 13.0072C30.6242 12.9228 29.2614 13.1297 27.9872 13.6141C26.713 14.0984 25.5569 14.8491 24.596 15.8159L17.416 22.9984ZM28.001 24.4122L23.0597 29.3534L23.7097 33.9984L28.001 29.7034V24.4122Z" fill="#4FA83D"></path><defs><radialGradient id="paint0_radial_344_8460" cx="0" cy="0" r="1" gradientUnits="userSpaceOnUse" gradientTransform="translate(22.5 22.5) rotate(90.5907) scale(48.5026)"><stop stop-color="#4FA83D"></stop><stop offset="0.46875" stop-color="#22CB00" stop-opacity="0.53125"></stop><stop offset="1" stop-opacity="0"></stop></radialGradient></defs></svg>