<svg xmlns="http://www.w3.org/2000/svg" width="1438" height="528" viewBox="0 0 1438 528" fill="none"><g clip-path="url(#clip0_330_5296)"><rect width="1438" height="528" fill="#131517"/><g opacity="0.02"><path d="M-69.9932 262.624V208.435C-68.3235 208.424 -66.6548 208.362 -64.986 208.41C-52.4282 208.768 -39.8712 209.288 -27.3125 209.484C-13.7451 209.697 -0.175961 209.533 13.3923 209.684C22.3935 209.676 31.3148 211.696 39.6801 215.638C59.3826 225.122 79.1086 234.58 98.5875 245.124C119.309 256.385 137.41 273.456 151.326 294.865C159.899 307.848 167.787 322.061 175.464 336.416C182.824 350.179 189.493 364.865 196.503 379.099C207.201 400.824 220.191 418.076 236.155 429.295C247.424 437.219 256.86 448.818 264.464 464.094C273.331 481.797 284.525 494.551 297.677 502.842C305.772 508.119 314.159 512.742 322.779 516.678C328.682 519.254 334.961 519.811 341.102 520.766C343.194 521.091 345.433 520.188 347.514 519.305C351.696 517.533 354.17 512.937 354.32 506.132C354.363 500.852 354.096 495.576 353.522 490.34C352.866 483.524 351.551 476.848 351.127 470.017C350.326 457.124 353.592 449.889 361.551 446.759C365.1 445.478 368.769 444.72 372.475 444.501C385.147 443.376 397.518 446.737 409.734 451.643C434.268 461.507 458.909 469.968 484.329 472.035C507.847 473.952 531.199 473.017 554.395 466.26C577.282 459.592 597.727 445.901 612.343 415.49C612.659 414.886 613.002 414.304 613.371 413.743C618.277 405.674 623.556 398.348 629.848 393.058C639.166 385.228 648.307 376.797 657.845 369.715C686.203 348.582 713.309 325.178 738.975 299.664C746.783 291.932 754.682 284.346 762.84 277.611C769.379 272.176 776.303 267.426 783.536 263.414C793.685 257.84 803.716 259.348 813.085 268.044C817.852 272.469 822.461 277.316 827.145 281.966C831.546 286.332 835.848 290.957 840.365 295.005C849.67 303.351 859.684 305.761 869.968 301.228C877.54 298.041 884.814 293.946 891.685 289.004C922.492 266.093 952.543 240.945 980.88 210.911C990.49 200.727 1000.07 190.483 1009.75 180.464C1037.46 151.774 1066.44 126.874 1097.67 109.167C1114.89 99.5366 1131.34 88.0494 1146.79 74.8502C1161.97 61.5413 1178.86 51.1969 1196.79 44.2088C1217.3 36.405 1237.85 28.7939 1258.51 22.0869C1282.55 14.3245 1304.71 -0.0728861 1323.16 -19.929C1332.48 -29.8329 1341.5 -40.4322 1350.61 -50.8292C1358.76 -60.141 1366.7 -69.9309 1375.02 -78.8742C1379.13 -83.4066 1383.75 -87.2489 1388.75 -90.2914C1397.92 -95.6693 1404.07 -89.6823 1406.13 -74.4431C1407.74 -61.9173 1406.53 -49.1093 1402.62 -37.3162C1399.63 -27.5116 1395.92 -18.0337 1391.54 -8.98895C1384.88 4.29185 1377.37 16.48 1370.32 29.2933C1367.1 34.8809 1364.2 40.7154 1361.62 46.7583C1356.3 59.9496 1357.25 71.583 1364.24 82.7658C1366.28 86.0773 1368.62 89.1182 1371.21 91.8359C1374.64 95.4059 1378.29 98.68 1382.13 101.633C1399.77 115.091 1418.54 121.066 1437.99 122.358V190.892C1436.01 190.359 1434.04 189.835 1432.06 189.277C1414.25 184.245 1396.5 178.827 1379.09 170.949C1350.97 158.228 1324.14 140.369 1297.84 120.285C1285.63 110.952 1273.33 101.865 1260.97 93.0222C1238.59 77.0727 1215.66 76.0781 1192.27 86.9425C1176.42 94.297 1161.68 105.596 1146.85 116.761C1135.36 125.405 1123.84 134.133 1111.94 141.132C1088.03 154.98 1065.24 171.408 1043.88 190.207C1027.08 205.139 1010.51 220.752 994.119 236.762C956.136 273.848 916.178 305.141 876.866 338.339C871.459 342.726 865.72 346.487 859.711 349.569C850.73 354.417 841.398 357.043 832.031 353.358C825.744 350.885 819.63 347.022 813.629 343.053C806.219 338.149 799.115 332.066 791.685 327.249C778.726 318.849 765.553 318.749 752.455 326.673C747.534 329.577 742.753 332.804 738.135 336.339C721.2 349.681 705.044 364.363 689.775 380.285C676.588 393.775 665.922 410.38 658.459 429.039C648.629 453.555 634.619 469.429 617.701 479.78C597.628 492.062 576.664 497.102 555.421 499.868C539.077 501.982 522.599 502.221 506.216 500.585C487.319 498.721 468.461 496.225 449.826 490.869C435.503 486.753 421.303 481.571 407.024 477.069C402.113 475.52 397.157 473.955 392.094 475.822C386.519 477.878 383.61 482.79 383.398 491.833C383.357 497.394 383.562 502.954 384.011 508.49C384.581 517.198 385.718 525.859 385.871 534.573C385.988 541.404 385.471 548.228 384.329 554.924C383.052 562.293 379.389 566.355 374.42 565.732C371.04 565.35 367.734 564.324 364.63 562.693C357.984 559.086 351.479 554.821 344.912 550.843C324.115 538.25 303.291 525.771 282.527 513.038C267.636 503.908 254.583 490.288 243.368 472.176C235.953 459.93 226.824 449.279 216.375 440.689C207.773 433.78 200.188 425.242 193.922 415.415C184.649 400.836 175.526 385.99 166.692 370.743C145.62 334.377 120.617 307.766 90.9111 292.523C79.4418 286.638 67.9752 280.737 56.4601 275.086C44.892 269.406 33.0572 265.741 20.9196 265.43C3.16603 264.976 -14.593 265.058 -32.3457 264.564C-44.899 264.219 -57.4443 263.293 -69.9932 262.624Z" fill="#4FA83D"/><path d="M-69.9932 -57.7311C-66.2344 -59.9514 -62.3751 -61.8193 -58.7358 -64.455C-44.6727 -74.6422 -30.8386 -73.9404 -17.1401 -62.8512C-13.2646 -59.715 -9.31906 -56.7513 -5.58099 -53.2381C8.22725 -40.1447 24.0443 -30.3489 40.9958 -24.3911C48.0175 -21.9226 54.9521 -18.8054 61.8894 -15.7726C84.4947 -5.89002 104.557 11.8827 123.227 33.9993C140.171 54.0712 155.65 76.8012 170.919 99.9049C178.309 111.087 185.629 122.386 192.878 133.804C207.187 156.362 219.578 180.545 229.867 205.999C234.685 217.82 239.361 229.793 244.447 241.314C248.023 249.455 251.981 257.35 256.302 264.966C264.541 279.415 275.013 284.624 287.161 282.644C296.714 281.089 305.906 277.364 315.068 272.978C322.318 269.351 329.795 266.401 337.432 264.154C350.408 260.607 363.194 264.276 375.64 269.864C391.896 277.166 408.025 285.209 424.103 293.455C443.969 303.564 465.04 309.952 486.56 312.387C504.631 314.549 522.704 315.262 540.766 313.31C599.495 306.97 653.764 280.104 701.444 223.896C723.082 198.39 741.43 167.455 758.604 134.694C770.162 112.643 781.589 90.4131 793.345 68.6278C801.081 54.2905 809.454 40.7925 819.201 29.8366C824.178 24.0447 829.677 18.9157 835.596 14.5408C849.104 5.0044 862.388 6.96376 874.935 19.3585C878.896 23.2807 882.497 28.1379 886.341 32.3667C891.569 38.1014 896.688 44.179 902.193 49.1533C913.007 58.9316 924.575 60.3352 936.063 52.8497C943.499 47.9629 950.478 42.1507 956.881 35.5115C969.851 22.1284 981.356 5.76145 991.729 -12.3691C1006.06 -37.395 1009.95 -67.1898 1006.23 -99.8673C1004.2 -117.251 1000.18 -134.225 994.28 -150.321C987.957 -167.812 981.033 -184.759 974.584 -202.144C969.24 -216.545 964.022 -231.08 959.118 -245.859C955.453 -256.977 953.01 -268.611 951.861 -280.47C950.379 -295.368 952.175 -308.871 958.435 -320.724C960.744 -325.107 962.477 -330.261 964.48 -335.062H1024.8C1026.26 -332.828 1027.83 -330.689 1029.48 -328.652C1035.23 -322.268 1041.37 -316.68 1046.79 -309.669C1057.58 -295.925 1064.19 -278.294 1065.57 -259.581C1066.1 -253.023 1066.16 -246.356 1066.34 -239.732C1066.81 -222.242 1066.91 -204.739 1069.02 -187.427C1074.09 -145.925 1086.93 -112.882 1110.29 -91.2083C1126.68 -76.0021 1144.67 -70.8872 1163.37 -71.3835C1186.89 -72.0076 1209.45 -80.1692 1231.39 -93.3915C1266.18 -114.344 1296.52 -145 1320.01 -191.632C1325.63 -202.779 1332.26 -212.711 1338.76 -222.655C1346.11 -234.108 1354.8 -244.27 1364.55 -252.84C1374.88 -261.761 1385.76 -265.07 1397.51 -262.224C1411.49 -258.836 1424.89 -252.433 1437.99 -244.201V-218.7C1434.29 -221.15 1430.66 -223.978 1426.86 -225.957C1420.74 -229.243 1414.47 -232.148 1408.09 -234.66C1397.01 -238.855 1386.5 -235.603 1376.5 -227.258C1366.93 -219.258 1358.58 -208.601 1350.84 -196.793C1342.63 -184.275 1334.71 -171.284 1326.68 -158.481C1315.29 -140.325 1302.83 -124.258 1288.96 -111.086C1262.47 -85.9305 1234.13 -67.7542 1204.13 -56.4819C1179.71 -47.3032 1154.95 -43.2 1129.89 -49.7366C1107.35 -55.615 1087.44 -70.3367 1070.34 -94.4543C1059.13 -110.138 1052 -129.335 1049.81 -149.722C1047.77 -167.451 1046.27 -185.362 1044.95 -203.268C1043.64 -220.925 1043.46 -238.83 1041.72 -256.356C1038.23 -291.331 1025.12 -313.498 1003.71 -323.073C993.849 -327.483 984.104 -326.561 974.97 -318.509C965.926 -310.532 961.561 -298.318 962.127 -281.75C962.522 -270.099 964.992 -259.452 968.108 -249.098C972.859 -233.706 978.787 -218.862 985.811 -204.75C993.391 -189.202 1001.43 -174.213 1008.92 -158.556C1013.97 -148 1018.66 -136.96 1023.03 -125.675C1027.19 -115.06 1029.53 -103.573 1029.93 -91.8793C1031.21 -52.2637 1024.13 -17.059 1006.11 10.9775C995.169 27.6882 983.538 43.7387 971.243 59.0689C962.522 70.1443 953.028 79.8053 943.598 89.3951C937.212 95.801 929.856 100.706 921.917 103.848C913.591 107.264 905.517 106.348 898.071 99.5833C892.808 94.6102 887.823 89.2274 883.162 83.4708C878.752 78.2101 874.71 72.1644 870.39 66.7109C866.16 61.3777 861.463 57.3863 856.146 55.3299C848.116 52.2267 840.509 54.626 833.099 59.5152C824.015 65.5043 815.991 74.2965 808.87 84.8212C798.461 100.204 788.35 116.111 778.35 132.167C767.169 150.12 756.463 168.824 745.176 186.602C723.925 220.076 700.796 249.722 673.933 271.407C628.916 307.747 580.875 326.1 530.689 330.716C514.14 332.083 497.536 332.221 480.972 331.126C467.551 330.198 454.2 328.165 441.017 325.042C423.624 321.133 406.4 315.34 389.008 311.411C368.883 306.666 348.054 308.381 328.675 316.376C316.37 321.444 304.027 326.475 291.552 330.297C274.267 335.593 259.345 328.061 247.733 306.471C244.329 300.4 241.281 294.059 238.608 287.493C232.115 270.774 226.111 253.571 219.679 236.787C212.9 219.102 206.425 201.018 198.802 184.27C181.008 145.178 158.654 113.122 134.773 83.6338C116.716 61.3369 96.6906 45.1779 74.6996 35.1568C68.1018 32.1622 61.5067 29.0782 54.8228 26.6438C35.6348 19.6104 17.8635 7.99463 2.60379 -7.48846C-1.49623 -11.5947 -5.84325 -15.0825 -10.0816 -18.8407C-24.1214 -31.2951 -38.524 -32.95 -53.5886 -23.4667C-58.8301 -20.1654 -64.5118 -18.6319 -69.9932 -16.2912V-57.7311Z" fill="#4FA83D"/><path d="M573.413 -335.053C576.445 -331.299 579.494 -327.577 582.504 -323.776C584.128 -321.813 585.658 -319.743 587.084 -317.575C589.921 -313.066 589.758 -310.143 586.136 -307.047C582.962 -304.342 579.572 -302.011 576.016 -300.087C560.029 -291.401 544.05 -282.622 527.951 -274.46C501.324 -260.956 474.573 -248.068 447.954 -234.531C441.12 -231.057 434.547 -226.253 427.925 -221.792C426.527 -220.993 425.282 -219.861 424.27 -218.466C423.257 -217.071 422.499 -215.442 422.041 -213.683C423.333 -212.618 424.385 -211.215 425.552 -210.907C428.647 -209.952 431.821 -209.399 435.018 -209.257C470.7 -209.27 506.387 -208.917 542.062 -209.759C563.837 -210.272 585.464 -214.841 607.034 -219.542C625.936 -223.664 644.782 -228.488 663.719 -232.125C670.033 -233.207 676.46 -232.907 682.684 -231.242C692.05 -228.899 695.886 -219.015 693.215 -204.591C691.506 -196.159 689.236 -187.9 686.428 -179.893C683.554 -171.213 679.926 -163.164 676.925 -154.578C670.393 -135.9 671.676 -126.701 682.415 -113.628C686.798 -108.292 691.361 -103.324 695.697 -97.897C708.72 -81.6035 715.163 -59.8427 716.3 -33.9498C717.952 3.66046 711.248 38.0185 699.426 70.0858C683.865 112.299 661.465 143.235 634.659 166.482C611.765 186.335 587.247 198.287 561.281 202.476C514.174 210.084 469.145 198.314 426.791 164.352C405.824 147.539 387.7 124.591 372.163 96.428C355.935 67.0135 345.996 33.1975 342.222 -5.32332C341.605 -11.6128 340.789 -17.8576 339.972 -24.0917C337.625 -41.973 330.841 -53.435 319.681 -57.7171C312.7 -60.3954 305.531 -61.8032 298.5 -64.1844C293.772 -65.7818 288.963 -67.3952 284.503 -70.2354C276.124 -75.5717 272.521 -85.5481 273.176 -99.8406C273.37 -104.064 273.894 -108.254 274.299 -112.45C274.578 -115.336 275.031 -118.192 275.203 -121.09C275.647 -128.608 273.849 -131.775 269.096 -130.568C264.895 -129.466 260.834 -127.711 257.021 -125.35C243.429 -117.044 229.972 -108.184 216.381 -99.8789C209.824 -95.8747 203.145 -92.336 196.42 -89.1231C179.707 -81.1286 164.399 -86.0347 151.333 -104.187C142.602 -116.573 134.4 -129.471 126.759 -142.832C114.364 -164.072 102.573 -186.21 90.1845 -207.465C78.4583 -227.583 65.755 -246.082 51.5472 -261.849C31.2519 -284.369 8.64022 -295.848 -15.9546 -298.738C-32.6794 -300.803 -49.5751 -299.688 -66.0036 -295.437C-67.3252 -295.222 -68.6602 -295.145 -69.9932 -295.207V-306.364C-68.8399 -306.658 -67.6795 -306.897 -66.5344 -307.256C-36.3864 -316.785 -6.60308 -314.442 22.7411 -299.978C41.8715 -290.547 58.7962 -274.386 74.2837 -254.657C91.3826 -232.874 107.994 -210.135 124.844 -187.861C134.627 -174.927 144.603 -162.394 155.716 -152.371C163.477 -145.371 171.629 -139.971 180.461 -137.387C196.035 -132.832 210.819 -137.433 224.978 -147.669C233.196 -153.609 241.249 -160.178 249.195 -166.997C272.376 -186.896 296.361 -203.812 321.627 -215.813C344.546 -226.699 367.454 -237.762 390.614 -247.229C428.688 -262.793 466.969 -277.077 505.145 -292.02C514.24 -295.58 523.293 -299.44 532.3 -303.521C535.409 -304.929 538.857 -305.959 541.184 -311.739C539.78 -313.916 538.556 -316.378 537.006 -318.104C533.033 -322.526 528.888 -326.557 524.875 -330.889C523.867 -332.184 522.952 -333.577 522.141 -335.053H573.413ZM637.909 -197.716C629.849 -196.325 622.857 -195.151 615.87 -193.907C594.243 -190.06 572.656 -185.525 550.983 -182.498C526.464 -179.072 501.869 -177.052 477.313 -174.303C454.438 -171.894 431.801 -166.974 409.692 -159.607C391.653 -153.479 373.863 -145.902 357.104 -133.409C351.785 -129.49 346.891 -124.814 342.53 -119.486C333.884 -108.799 334.045 -99.4998 342.419 -88.4489C345.383 -84.5428 348.471 -80.8773 351.357 -76.8412C357.179 -68.6923 359.649 -58.372 358.672 -46.1433C358.147 -39.5663 357.485 -33.0084 356.724 -26.4889C354.77 -11.0186 354.477 4.68303 355.854 20.2405C357.939 41.6946 363.645 60.74 371.421 78.3423C387.998 115.866 410.056 143.171 436.113 161.868C477.504 191.569 520.918 201.514 565.999 191.207C599.179 183.623 629.12 163.722 655.514 130.825C675.771 105.783 690.854 75.5103 699.573 42.3868C706.048 18.1063 709.715 -7.0432 707.167 -33.6613C705.504 -51.0421 701.21 -66.4857 692.481 -77.6707C687.878 -83.3522 682.745 -88.3914 677.179 -92.6927C671.826 -97.0078 666.024 -99.8981 660.514 -103.753C656.406 -106.426 652.516 -109.545 648.895 -113.07C642.428 -119.751 641.219 -127.585 644.835 -138.35C646.873 -144.42 649.59 -149.904 651.804 -155.838C654.097 -161.987 656.613 -168.085 658.21 -174.696C661.011 -186.304 658.114 -194.024 650.372 -196.101C645.943 -197.29 641.387 -197.298 637.909 -197.716Z" fill="#4FA83D"/><path d="M-69.9928 17.1778C-59.4621 17.9573 -49.4649 12.787 -39.2467 10.1407C-25.6129 6.60935 -12.5521 8.84679 -0.0876336 18.5079C3.97377 21.6548 8.09535 24.6408 12.0373 28.1402C26.9915 41.4768 43.7041 51.7862 61.4982 58.6506C68.9725 61.544 76.3436 65.1467 83.7102 68.6919C111.847 82.241 135.713 107.136 157.417 138.019C180.267 170.538 197.978 209.166 212.705 251.605C219.077 269.968 225.87 287.986 232.837 305.801C237.432 317.551 242.911 328.384 249.792 337.1C263.38 354.312 278.802 361.102 295.913 355.563C306.062 352.277 316.037 347.586 326.083 343.479C346.795 335.012 367.748 334.321 388.89 338.142C421.352 344.013 453.852 348.918 486.6 345.827C504.812 344.109 523.102 343.603 541.225 340.575C590.902 332.276 638.688 312.866 683.086 275.461C704.971 257.025 724.416 233.07 742.566 206.543C759.437 181.886 775.744 156.263 792.593 131.572C799.81 120.926 807.601 110.844 815.914 101.389C821.195 95.529 827.172 90.6176 833.657 86.8107C844.273 80.4519 854.467 83.1111 863.484 94.3259C867.966 99.8913 872.079 106.169 876.516 111.82C881.079 117.629 885.668 123.459 890.536 128.579C899.338 137.834 908.957 139.72 918.845 133.705C925.393 129.722 932.048 125.656 938.012 119.961C948.412 110.224 958.31 99.7572 967.651 88.6179C983.081 69.9123 997.981 50.1056 1013.07 30.6993C1022.54 18.5228 1030.25 3.94276 1036.46 -12.6766C1038.93 -19.3026 1041.36 -25.983 1044.01 -32.4258C1045.88 -37.0332 1047.98 -41.497 1050.32 -45.7897C1054.73 -53.765 1060.42 -57.193 1067.03 -55.1761C1072.49 -53.4668 1077.85 -51.371 1083.1 -48.9004C1094.5 -43.6226 1105.85 -38.1019 1117.63 -35.0871C1132.96 -31.166 1148.37 -30.8774 1163.73 -32.8444C1206.57 -38.332 1246.55 -59.4677 1284.53 -90.6277C1304.32 -106.857 1321.78 -128.22 1337.77 -152.738C1345.95 -165.287 1354.11 -177.944 1362.79 -189.585C1368.67 -197.368 1375.15 -204.497 1382.13 -210.883C1392.78 -220.768 1404.33 -222.503 1416.05 -216.268C1423.48 -212.314 1430.69 -207.299 1437.99 -202.76V-182.041C1432.28 -186.43 1426.67 -191.239 1420.83 -195.122C1409.65 -202.551 1398.6 -201.161 1387.84 -192.515C1379.26 -185.625 1371.56 -176.694 1364.35 -166.731C1354.62 -153.3 1345.16 -139.392 1335.39 -126.063C1309.52 -90.7992 1279.83 -66.3717 1247.85 -48.1507C1214.54 -29.1703 1180.35 -16.9321 1145.04 -13.7448C1129.19 -12.3135 1113.24 -13.6734 1097.33 -13.8193C1094.32 -13.8459 1091.31 -14.2453 1088.3 -14.2453C1075.66 -14.2293 1064.51 -7.82477 1055.63 6.60297C1040.58 31.0816 1023.23 51.0108 1006.02 71.2903C991.766 88.0812 977.818 105.494 963.663 122.502C951.502 137.126 938.847 150.603 925.079 161.159C920.354 164.809 915.37 167.933 910.16 170.491C900.847 175 891.775 173.135 883.71 164.481C877.773 158.105 872.322 150.576 866.735 143.395C862.837 138.38 859.218 132.811 855.239 127.967C847.524 118.574 838.848 116.598 829.543 120.669C821.583 124.304 814.41 130.019 808.562 137.389C797.03 151.48 785.749 166.098 774.568 180.891C759.912 200.288 745.638 220.416 730.88 239.611C698.39 281.866 661.208 309.594 621.009 327.943C592.998 340.608 564.091 350.292 534.631 356.876C512.268 361.978 489.89 367.003 467.609 372.914C449.348 377.759 431.302 376.731 413.151 371.876C400.62 368.522 388.031 365.433 375.391 363.451C356.338 360.463 337.657 364.505 319.325 373.205C311.96 376.699 304.494 379.722 296.991 382.373C290.011 384.837 282.999 383.573 276.077 381.086C258.625 374.818 243.974 361.153 233.106 338.494C227.142 326.058 221.73 312.894 216.515 299.615C209.264 281.135 202.62 262.057 195.384 243.562C184.025 214.522 170.471 188.326 154.355 165.485C131.404 132.953 104.741 111.513 75.1841 98.968C55.3935 90.5699 36.1005 80.2699 17.6417 66.0722C5.55855 56.5312 -8.96489 52.3192 -23.3981 54.1704C-29.7434 54.9287 -36.0763 56.0128 -42.427 56.5953C-51.6105 57.4376 -60.8066 57.9584 -70 58.6187L-69.9928 17.1778Z" fill="#4FA83D"/><path d="M-69.9925 461.85C-33.3393 465.799 3.34631 462.68 40.0149 462.945C70.1476 463.158 98.7077 473.924 126.515 491.379C142.388 501.341 158.376 510.84 174.327 520.482C202.092 537.263 230.744 548.861 259.912 557.555C275.068 561.877 289.613 568.797 303.085 578.096C324.82 593.366 342.174 616.673 354.964 648.52C364.262 671.669 371.617 696.352 378.333 721.574C380.088 728.166 381.876 734.8 384.118 740.987C387.728 750.948 392.143 751.909 396.872 743.351C400.058 737.57 402.628 731.342 404.523 724.811C408.549 710.83 412.174 696.531 415.578 682.132C421.22 658.264 426.695 634.28 434.914 612.254C437.703 604.638 441.022 597.31 444.835 590.347C450.184 580.762 457.202 577.63 465.288 579.143C487.921 583.378 510.159 591.059 532.464 598.175C552 604.407 571.623 609.996 591.562 611.51C625.332 614.082 658.527 609.026 690.249 589.232C701.117 582.448 711.67 574.158 722.008 565.484C737.406 552.558 752.898 540.189 769.171 530.096C779.096 523.939 788.583 515.678 797.829 507.169C815.782 490.65 833.684 473.924 851.144 456.143C884.752 421.917 919.663 391.743 956.469 367.062C979.309 351.739 1001.06 332.91 1022.92 314.416C1052.66 289.257 1083.4 267.523 1115.86 252.773C1131.27 245.772 1147.09 241.033 1162.79 235.715C1173.91 231.948 1185.08 228.452 1196.32 225.677C1217.1 220.543 1237.48 224.006 1257 236.387C1269.02 243.854 1280.59 252.316 1291.61 261.711C1316.72 283.507 1341.55 306.139 1366.3 328.952C1386.75 347.801 1405.83 369.874 1424.37 393.147C1428.8 398.725 1433.45 403.903 1438 409.263V447.514C1436.12 445.385 1434.16 443.413 1432.39 441.106C1421.37 426.816 1410.69 411.805 1399.3 398.295C1387.52 384.313 1375.28 371.191 1362.84 358.718C1344.58 340.416 1325.93 323.107 1307.51 305.225C1290.2 288.435 1272.65 272.46 1253.82 260.243C1235.58 248.407 1216.67 242.02 1196.96 244.081C1184.27 245.406 1171.66 248.276 1159.03 250.684C1116.01 258.877 1076.25 283.336 1038.2 314.612C1004.74 342.128 970.705 367.666 936.108 391.225C908.616 409.872 882.938 433.839 858.293 460.606C834.941 485.965 811.587 511.323 788.231 536.678C777.554 548.463 765.765 558.747 753.099 567.324C742.47 574.387 732.285 583.208 722.086 591.795C702.43 608.342 681.97 621.1 659.908 626.859C641.185 631.751 621.935 633.168 602.845 631.059C582.395 628.846 562.369 622.773 542.421 615.715C522.662 608.722 502.888 601.842 483.098 595.072C478.374 593.504 473.57 592.301 468.714 591.471C459.685 589.85 452.087 594.965 446.446 605.911C442.361 613.914 438.814 622.286 435.84 630.951C428.361 652.538 424.535 676.27 420.681 699.92C416.955 722.792 413.383 745.734 407.446 767.51C402.903 784.173 397.355 799.874 389.728 813.557C385.263 821.566 380.396 828.932 374.383 833.876C371.548 836.268 368.349 837.986 364.963 838.938C361.011 839.959 358.49 836.329 358.267 829.973C358.159 826.013 358.375 822.048 358.909 818.136C360.637 804.883 362.76 791.756 364.344 778.463C367.886 748.76 365.614 719.819 359.294 691.493C348.772 644.341 330.5 607.987 301.357 586.738C291.314 579.325 280.369 573.787 268.907 570.316C254.272 565.965 239.463 562.992 224.913 558.063C201.844 550.25 178.865 541.786 155.974 532.67C139.591 526.124 123.507 517.726 107.205 510.648C89.394 502.871 70.5689 498.868 51.5884 498.82C27.634 498.751 3.67952 499.729 -20.2758 499.759C-35.846 499.778 -51.4162 498.907 -66.9873 498.45C-67.9888 498.42 -68.9911 498.488 -69.9934 498.51L-69.9925 461.85Z" fill="#4FA83D"/><path d="M-69.9932 294.501C-55.9336 295.163 -41.8813 296.05 -27.8145 296.429C-10.9007 296.885 6.02033 296.739 22.9306 297.168C37.4446 297.537 51.541 302.123 65.323 309.108C74.5738 313.794 83.7664 318.749 92.9337 323.82C118.471 337.947 140.862 360.172 160.447 389.701C168.213 401.416 175.963 413.223 184.237 423.992C191.118 432.843 198.506 441.12 206.349 448.763C215.044 457.336 223.678 465.965 231.364 476.713C244.66 495.428 261.124 510.622 279.688 521.312C295.085 530.257 310.357 539.742 325.599 549.336C339.096 558.041 351.82 568.334 363.58 580.059C367.846 584.416 372.432 588.315 377.282 591.707C386.722 597.945 393.764 592.878 397.127 577.543C398.43 571.437 399.196 565.187 399.414 558.893C399.773 549.371 399.437 539.787 399.435 530.229C399.435 524.656 399.265 519.047 399.594 513.515C400.294 501.764 404.283 495.783 411.761 495.561C415.299 495.494 418.825 496.063 422.22 497.247C452.58 507.499 483.741 514.066 515.222 516.842C549.775 519.98 584.22 518.43 618.041 504.816C628.504 500.653 638.49 494.963 647.769 487.878C661.267 477.521 672.721 463.16 682.003 444.476C685.838 436.758 689.547 428.87 693.494 421.303C705.644 398.034 720.941 381.794 738.713 371.304C755.411 361.448 772.267 363.011 789.115 370.215C795.741 373.048 802.297 376.299 808.862 379.48C824.346 386.974 839.71 386.327 854.583 376.311C865.343 369.092 875.77 361.189 885.811 352.635C934.302 311.192 982.847 269.938 1030.46 225.923C1058.09 200.29 1087.99 178.265 1119.62 160.231C1129.65 154.521 1139.2 146.502 1148.78 138.958C1160.04 130.098 1171.31 121.453 1183.34 115.39C1205.09 104.421 1226.78 104.289 1248.55 115.223C1265.19 123.578 1281.09 134.795 1297.04 145.893C1320.33 162.12 1343.41 179.292 1367.7 191.52C1385.24 200.35 1403.03 207.939 1420.71 216.127C1426.48 218.802 1432.23 221.617 1437.99 224.369V251.467C1417.98 237.058 1396.61 228.842 1375.93 217.476C1349.14 202.747 1323.67 183.146 1297.9 164.665C1279.74 151.644 1261.35 139.577 1241.99 131.567C1218.05 121.663 1194.83 124.815 1172.3 140.594C1164.8 145.842 1157.51 151.862 1150.3 158.034C1140.19 166.673 1129.43 174.181 1118.16 180.463C1085.38 198.78 1054.14 222.614 1023.86 249.414C975.608 292.115 927.018 333.834 878.105 374.573C869.357 381.825 860.403 388.458 851.448 395.044C835.174 407.014 818.231 410.379 800.48 405.43C786.836 401.507 772.586 401.656 759.002 405.861C744.093 410.482 730.558 419.853 718.676 434.837C712.65 442.433 706.737 450.315 701.131 458.674C675.563 496.799 644.735 516.803 610.566 525.619C581.466 533.127 552.212 533.597 522.899 530.427C493.821 527.284 464.95 521.244 436.204 513.672C432.783 512.607 429.289 511.906 425.762 511.578C416.732 511.165 411.991 517.276 410.626 531.555C409.65 541.77 409.53 552.186 408.619 562.421C407.85 571.054 406.996 579.828 405.229 588.025C403.814 594.276 401.627 600.242 398.741 605.735C394.335 614.255 388.412 616.058 381.936 612.012C379.715 610.588 377.622 608.9 375.687 606.977C373.195 604.608 370.855 602.022 368.687 599.24C347.355 571.208 322.735 552.934 296.907 538.219C286.668 532.39 276.381 526.793 266.178 520.829C252.431 512.794 239.772 501.578 227.778 488.207C216.146 475.236 204.125 463.144 192.401 450.374C185.23 442.563 178.221 434.358 171.28 426.036C166.609 420.434 162.078 414.504 157.663 408.397C126.654 365.518 89.7633 342.222 50.341 327.49C37.0485 322.522 23.4183 322.473 9.8563 322.229C-11.4135 321.848 -32.687 321.972 -53.9577 321.643C-59.3044 321.561 -64.6456 320.578 -69.9896 320.002L-69.9932 294.501Z" fill="#4FA83D"/><path d="M1437.99 -95.9836C1434.15 -106.077 1429.34 -115.617 1423.67 -124.417C1414.32 -138.495 1403.79 -141.715 1392.33 -132.549C1385.22 -126.675 1378.51 -120.181 1372.22 -113.119C1365.88 -106.197 1359.88 -98.4744 1353.92 -90.7451C1319 -45.4854 1279.78 -14.0283 1235.88 2.86266C1215.23 10.8081 1194.73 19.6993 1174.14 28.0643C1158.51 34.5705 1143.42 42.8295 1129.1 52.7293C1118.33 60.049 1107.49 67.0704 1096.56 73.7937C1062.19 94.9582 1030.1 122.766 999.984 156.406C991.361 166.043 982.802 175.84 974.225 185.585C954.448 208.063 932.874 228.198 909.801 245.702C900.577 252.705 891.138 258.787 880.953 261.569C872.313 263.927 864.193 261.814 856.775 254.688C851.772 249.889 847.102 244.23 842.359 238.782C838.156 233.954 834.114 228.765 829.911 223.95C821.258 214.052 811.725 211.868 801.762 217.492C795.457 220.926 789.475 225.142 783.917 230.07C774.638 238.529 765.685 247.906 756.73 257.234C746.094 268.317 735.652 279.865 725.046 291.017C697.256 320.236 667.315 342.453 635.918 360.025C622.823 367.358 609.872 375.36 596.944 383.41C585.359 390.538 574.921 400.027 566.108 411.442C549.23 433.38 529.458 442.467 508.226 445.966C477.315 451.061 447.11 445.503 417.244 432.524C407.14 428.272 396.807 424.826 386.316 422.206C370.015 417.923 353.923 421.09 338.086 427.871C333.965 429.551 330.008 431.749 326.281 434.427C319.64 439.358 315.472 447.609 314.617 459.516C314.58 460.044 314.511 460.564 314.451 461.088C313.165 472.521 310.286 475.351 303.705 470.335C299.634 467.191 296.003 463.311 292.947 458.833C283.048 444.244 270.793 432.145 256.901 423.243C253.027 420.755 249.275 417.783 245.488 414.957C230.804 403.998 218.529 388.319 208.922 367.545C203.675 356.199 198.573 344.682 193.427 333.216C188.186 321.534 183.041 309.739 177.733 298.132C155.354 249.195 125.969 215.677 89.5758 197.578C71.6974 188.632 53.8549 179.508 35.9944 170.474C25.9738 165.438 15.2322 162.728 4.35089 162.492C-1.8463 162.313 -8.0435 162.335 -14.2407 162.457C-32.8251 162.825 -51.4104 164.683 -69.9902 162.214V133.525C-67.171 134.015 -64.349 134.963 -61.5333 134.919C-46.6295 134.69 -31.7284 134.209 -16.8264 133.822C-5.27003 133.521 6.31513 132.792 17.7233 136.543C22.6776 138.225 27.5294 140.302 32.2464 142.761C49.9291 151.783 67.539 161.171 85.2369 170.138C107.435 181.388 128.271 196.704 146.498 220.152C159.411 236.974 170.454 255.687 179.359 275.834C187.029 292.912 194.106 310.658 201.65 327.878C207.757 341.823 213.986 355.658 220.505 369.122C225.047 378.594 230.958 387.045 237.968 394.092C254.157 410.263 271.542 421.496 290.599 425.817C297.902 427.471 304.961 425.615 311.958 422.79C321.524 418.926 331.007 414.538 340.59 410.786C358.463 403.789 376.451 404.077 394.374 410.06C409.273 415.03 424.026 421.115 438.941 425.939C462.735 433.634 486.563 433.454 510.099 423.49C517.291 420.619 524.048 416.399 530.114 410.994C552.881 389.908 577.536 376.64 602.545 364.449C619.175 356.342 635.748 347.857 652.129 338.58C681.34 322.038 708.123 298.054 733.33 269.572C746.832 254.319 760.076 238.488 773.686 223.486C781.648 214.64 790.033 206.344 798.799 198.64C803.859 194.236 809.577 191.468 815.175 188.958C822.327 185.752 829.193 188.249 835.327 194.656C839.234 198.733 842.835 203.549 846.518 208.129C851.529 214.349 856.37 220.926 861.499 226.872C870.992 237.885 881.519 240.769 892.961 236.243C901.601 232.648 909.783 227.702 917.31 221.537C937.428 205.48 956.136 187.085 973.165 166.624C990.041 146.537 1007.11 126.915 1024.88 108.786C1069.48 63.2733 1117.87 32.7767 1169.71 15.5716C1193.79 7.5782 1217.59 -2.10632 1241.26 -12.8622C1281.95 -31.3558 1318.56 -61.6926 1351.15 -104.447C1358.38 -113.925 1365.6 -123.456 1373.19 -132.157C1379.12 -139.07 1385.53 -145.375 1392.35 -151.007C1403.93 -160.367 1415.37 -158.977 1425.95 -146.585C1430.1 -141.714 1433.98 -136.255 1437.99 -131.057V-95.9836Z" fill="#4FA83D"/><path d="M1437.99 364.628C1427.58 353.028 1417.38 340.933 1406.73 329.923C1374.42 296.528 1340.52 267.532 1306.07 240.203C1292.16 229.172 1278 218.828 1263.62 209.426C1249.6 200.261 1234.86 195.332 1219.55 195.708C1211.07 195.768 1202.66 197.7 1194.76 201.405C1167.88 214.466 1140.54 224.973 1113.65 237.859C1077.65 255.111 1043.52 279.896 1010.64 308.758C984.41 331.793 957.672 353.202 930.431 372.984C906.837 390.191 884.222 410.395 861.777 431.069C840.204 450.944 818.399 470.17 795.203 485.015C789.411 488.855 783.411 492.236 777.24 495.132C761.703 502.234 747.054 511.811 733.696 523.6C725.913 530.36 718.166 537.225 710.344 543.854C685.463 565.158 656.702 579.22 626.389 584.904C600.959 589.665 575.023 589.128 549.75 583.313C528.712 578.592 507.759 572.926 486.744 567.92C476.984 565.595 467.178 563.745 457.375 561.865C448.497 560.161 441.583 565.654 436.867 577.458C433.92 584.835 431.381 592.651 428.904 600.466C423.721 616.828 418.825 633.419 413.561 649.715C411.129 657.427 408.298 664.953 405.085 672.252C396.848 690.555 389.655 691.306 379.805 674.892C375.777 668.183 372.26 660.679 368.612 653.418C363.498 643.247 358.679 632.683 353.371 622.778C337.884 593.879 318.152 574.62 295.799 562.475C280.951 554.41 265.692 548.126 250.477 541.906C227.945 532.544 206.493 519.865 186.626 504.165C164.396 486.822 142.098 469.683 119.646 453.082C102.159 440.152 84.0729 429.56 64.9253 424.64C56.5573 422.395 48.0376 421.035 39.4675 420.576C22.7279 419.87 5.96661 420.363 -10.7784 420.037C-29.3637 419.676 -47.9463 418.947 -66.5307 418.415C-67.6891 418.462 -68.8439 418.594 -69.9885 418.811V391.723C-54.7632 392.602 -39.5414 393.874 -24.3116 394.26C-6.39095 394.715 11.5378 394.485 29.463 394.404C55.0179 394.288 79.3513 403.532 102.567 419.725C117.107 429.867 131.283 441.415 145.336 453.19C164.582 469.316 183.58 486.189 202.638 502.869C222.871 520.578 244.581 532.076 266.781 541.552C282.474 548.249 297.964 555.855 312.735 566.82C331.19 580.522 347.357 598.972 360.696 623.549C365.61 632.601 370.695 641.44 375.867 650.127C377.88 653.489 380.185 656.592 382.743 659.384C389.51 666.802 395.373 666.241 401.329 657.103C404.489 652.378 407.125 647.191 409.173 641.67C413.945 628.294 418.334 614.554 422.597 600.746C424.874 593.373 426.523 585.517 428.554 577.95C429.6 574.048 430.752 570.195 432.042 566.484C436.629 553.291 443.785 548.105 453.068 550.154C477.44 555.534 501.791 561.159 526.177 566.392C550.606 571.636 575.137 575.018 599.818 573.002C637.099 569.962 672.632 556.289 705.631 527.895C713.284 521.308 720.876 514.532 728.426 507.655C746.563 491.138 765.674 478.795 786.236 472.053C803.402 466.428 819.513 455.838 835.111 443.417C847.371 433.648 859.352 422.97 871.513 412.889C891.991 395.924 912.253 378.233 933.09 362.448C960.618 341.592 987.203 318.016 1014.06 295.181C1047.76 266.513 1082.63 242.05 1119.18 223.815C1122.69 222.064 1126.22 220.373 1129.79 218.979C1145.28 212.937 1160.17 204.219 1174.94 194.784C1183.78 188.995 1192.99 184.077 1202.51 180.08C1218.66 173.545 1234.76 176.595 1250.63 183.749C1264.13 189.916 1276.97 197.931 1288.9 207.632C1325.48 237.09 1362.09 266.487 1398.33 296.954C1412.04 308.479 1424.8 322.86 1437.99 335.939V364.628Z" fill="#4FA83D"/><path d="M542.563 254.956C541.031 256.209 539.411 257.305 537.722 258.232C529.087 261.959 520.225 262.795 511.336 262.909C477.026 263.349 444.093 253.145 412.824 230.404C396.542 218.563 380.311 206.541 364.023 194.729C347.353 182.65 330.173 173.08 311.887 169.435C305.922 168.268 299.905 167.514 293.867 167.176C282.91 166.522 272.804 161.545 263.324 153.031C248.674 139.874 235.517 123.451 222.919 105.909C217.573 98.3699 212.612 90.4575 208.065 82.2144C205.387 77.1865 203.236 71.7904 201.659 66.1456C198.456 55.2641 199.316 44.6073 204.551 35.8546C208.114 29.8653 212.183 24.3224 216.694 19.3119C228.04 6.81704 240.909 0.127113 254.446 -3.23915C265.703 -6.0378 277.003 -7.7779 288.45 -5.52449C298.465 -3.5533 306.701 3.24098 312.802 15.8477C316.562 23.6217 319.97 31.8739 323.161 40.2709C330.167 58.6942 336.93 77.3881 345.714 93.8915C383.622 165.108 430.499 213.496 488.293 233.698C503.979 239.182 519.797 243.715 535.535 248.82C537.904 249.589 540.175 251.122 542.49 252.302C542.516 253.188 542.54 254.072 542.563 254.956ZM387.679 185.977L388.398 183.834C387.526 181.445 386.521 179.13 385.387 176.902C381.731 170.703 378.046 164.524 374.168 158.679C352.825 126.518 333.938 91.2504 318.968 50.8702C316.079 43.2629 312.825 35.8583 309.221 28.6928C303.109 16.2831 295.125 8.2941 285.193 6.19405C265.851 2.10257 247.495 7.59018 230.441 22.4641C225.606 26.8931 221.388 32.1942 217.94 38.1741C211.513 48.9437 210.927 60.3928 215.759 73.1667C217.916 78.9142 220.594 84.3658 223.747 89.4251C235.323 107.959 249.498 123.999 265.652 136.846C274.118 143.595 283.956 147.527 294.14 148.233C301.521 148.814 308.854 150.051 316.08 151.931C333.339 156.43 349.729 165.669 365.927 175.892C371.359 179.32 376.922 182.251 382.488 185.104C384.105 185.932 385.942 185.713 387.679 185.977Z" fill="#4FA83D"/><path d="M591.681 -168.501C598.417 -167.747 604.758 -167.065 611.094 -166.299C612.105 -166.132 613.096 -165.815 614.04 -165.354C620.547 -162.478 622.406 -157.439 620.693 -146.941C620.023 -142.835 619.024 -138.87 618.28 -134.793C615.824 -121.367 617.704 -113.375 625.662 -107.246C630.878 -103.437 636.38 -100.209 642.098 -97.6034C650.248 -93.6088 658.562 -90.4566 666.708 -86.4503C671.103 -84.2694 675.305 -81.574 679.249 -78.4026C693.676 -66.8598 700.995 -47.7261 702.226 -22.4934C703.393 1.41756 699.837 23.8983 693.588 45.4366C684.356 77.586 668.936 106.744 648.549 130.6C622.198 161.771 592.556 180.001 559.987 186.416C519.205 194.448 479.825 185.51 442.06 160.239C417.298 143.667 395.95 119.313 379.493 85.081C374.24 74.2233 370.022 62.7057 366.919 50.7411C360.322 25.1507 360.152 -0.419469 367.246 -25.8278C369.549 -34.0735 372.085 -42.1703 374.72 -50.1627C378.929 -62.9259 380.529 -75.9725 377.692 -90.1031C375.218 -102.429 377.902 -112.36 384.683 -118.806C390.098 -124.088 395.954 -128.701 402.16 -132.572C418.667 -142.518 435.939 -147.78 453.369 -151.715C476.092 -156.843 498.947 -159.715 521.842 -161.896C545.24 -164.122 568.636 -166.319 591.681 -168.501ZM536.258 183.011C542.601 181.986 553.814 180.932 564.866 178.244C596.289 170.596 624.628 151.243 649.477 119.64C667.397 96.8506 681.865 69.7033 690.342 35.358C694.41 18.8717 696.809 1.85631 695.985 -15.9803C694.839 -40.9222 687.35 -59.0868 672.808 -69.3965C669.573 -71.8799 666.095 -73.8841 662.45 -75.3665C651.189 -79.3472 639.845 -82.7337 628.552 -86.4919C617.915 -90.0307 607.233 -93.3213 596.7 -97.5257C588.328 -100.867 581.489 -108.307 576.7 -120.09C573.557 -127.825 568.976 -132.822 563.337 -134.504C556.94 -136.413 550.454 -138.261 543.973 -138.644C517.605 -140.208 491.438 -136.621 465.483 -129.253C455.75 -126.492 446.132 -122.897 436.989 -116.687C430.253 -112.116 423.996 -106.228 420.05 -96.2158C413.302 -79.0884 404.431 -65.1538 395.082 -51.7537C388.615 -42.4888 382.515 -32.5934 377.743 -20.895C370.075 -2.09672 367.684 18.1147 371.161 39.9959C374.3 59.761 380.699 76.7297 388.854 92.1309C400.482 114.287 415.99 133.222 434.326 147.654C464.863 171.769 497.477 181.873 536.261 183.016L536.258 183.011Z" fill="#4FA83D"/><path d="M299.488 120.506C275.52 124.608 257.524 110.568 241.363 89.1406C237.578 83.8499 234.449 77.9469 232.069 71.6096C230.289 67.304 229.505 62.5151 229.797 57.7324C230.089 52.9497 231.446 48.3446 233.731 44.3877C235.89 40.3258 238.583 36.6996 241.709 33.6468C253.205 23.0869 265.62 18.7197 278.867 22.0593C288.398 24.4629 296.06 32.272 302.009 44.0928C310.317 60.5993 316.526 79.0674 321.47 98.6312C321.656 99.3692 321.836 100.117 321.976 100.879C324.159 112.745 322.246 117.502 314.432 119.649C313.301 120.062 312.137 120.337 310.959 120.468C306.442 120.563 301.923 120.506 299.488 120.506ZM275.508 85.4516C279.819 84.8925 284.023 83.6593 286.134 76.8044C288.2 70.0878 286.755 63.8452 284.189 58.168C278.866 46.3951 268.484 42.4624 260.377 49.0639C253.876 54.3577 252.675 64.0635 257.646 72.5989C262.422 80.8149 268.574 84.5688 275.507 85.4473L275.508 85.4516Z" fill="#4FA83D"/><path d="M551.119 -71.0405C573.522 -69.1737 595.937 -67.6274 618.319 -65.308C630.328 -64.0631 642.362 -62.1132 653.915 -56.2113C658.157 -54.1081 662.185 -51.4425 665.92 -48.2658C676.797 -38.8071 682.317 -23.784 682.942 -4.26378C683.583 15.7368 679.694 33.9748 673.789 51.246C665.959 74.0703 654.444 94.861 639.891 112.45C616.476 141.131 590.004 158.546 560.814 165.705C520.552 175.58 481.756 167.211 444.516 141.323C426.131 128.58 410.654 110.699 399.434 89.2386C392.672 76.4988 387.474 62.4086 385.243 45.8744C382.648 26.6417 385.434 9.5857 393.326 -5.45544C398.245 -14.7087 404.592 -22.7795 412.033 -29.245C427.192 -42.7612 443.579 -51.0762 460.353 -57.732C487.852 -68.6412 515.845 -71.5357 544.07 -70.6263C546.413 -70.5507 548.759 -70.6156 551.103 -70.6156C551.105 -70.7519 551.113 -70.8936 551.119 -71.0405ZM566.306 -61.3028L528.613 -59.6202C505.841 -58.6798 483.265 -54.2774 461.439 -46.5215C446.377 -41.1382 431.656 -34.0905 417.915 -22.6286C411.027 -17.0379 405.019 -10.0597 400.163 -2.01038C390.283 14.6175 387.816 33.9386 392.073 55.4961C395.143 71.0442 400.984 83.948 408.035 95.5377C418.013 112.067 430.758 125.98 445.473 136.409C481.549 162.041 519.244 169.78 558.309 160.897C584.595 154.921 608.756 140.1 630.563 115.978C646.111 99.0217 658.6 78.5036 667.273 55.6633C672.68 41.3932 676.566 26.2093 677.482 9.48347C678.666 -12.1667 674.187 -29.8339 662.034 -41.1308C658.067 -44.6642 653.733 -47.5747 649.137 -49.7887C639.687 -54.6171 629.844 -56.5425 619.989 -57.419C600.933 -59.1133 581.858 -60.2048 566.306 -61.2974V-61.3028Z" fill="#4FA83D"/><path d="M576.476 -48.5664C589.465 -47.5015 605.019 -46.4727 620.545 -44.8391C629.056 -43.9968 637.367 -41.3259 645.072 -36.9586C664.227 -26.0239 671.635 -3.21296 666.138 27.8959C662.329 49.4555 654.489 67.1803 644.771 82.9051C625.159 114.64 601.263 134.613 574.392 146.025C558.647 152.821 541.956 156.012 525.207 155.43C496.417 154.337 468.744 145.223 442.979 124.015C430.986 114.145 420.138 101.854 411.504 85.117C407.347 77.2742 404.224 68.7256 402.242 59.7662C398.172 40.739 400.225 23.6862 408.807 8.77609C414.437 -1.00321 421.404 -7.78685 428.876 -13.3746C442.137 -23.2966 456.193 -29.1995 470.493 -33.7734C490.033 -39.9639 510.046 -43.8264 530.234 -45.3035C544.784 -46.4184 559.335 -47.3652 576.476 -48.5664ZM571.03 -32.9225C563.935 -32.4454 552.562 -31.7575 541.19 -30.8991C520.166 -29.4309 499.312 -25.5361 478.925 -19.27C465.438 -15.055 452.173 -9.53867 439.661 -0.219424C433.425 4.25991 427.906 10.0151 423.365 16.7791C413.648 31.5636 411.708 50.086 417.879 69.0514C420.555 77.1931 424.284 84.7906 428.934 91.5705C438.121 105.072 449.634 116.09 462.704 123.887C487.273 138.926 512.704 144.857 539.021 141.904C563.313 139.312 586.511 128.724 606 111.335C621.199 98.1976 633.792 81.2804 642.897 61.7673C648.106 50.9336 651.635 39.08 653.315 26.7692C655.78 7.75055 651.519 -8.52485 640.712 -17.6311C635.547 -21.892 629.84 -25.1454 623.808 -27.2677C607.867 -33.0514 591.564 -32.635 571.032 -32.9246L571.03 -32.9225Z" fill="#4FA83D"/><path d="M564.783 -25.1235C578.974 -23.787 593.189 -22.8957 607.342 -20.9043C613.277 -20.0694 619.116 -17.1142 624.927 -14.6925C627.404 -13.505 629.721 -11.8901 631.8 -9.90029C642.398 -0.528861 646.35 14.5751 643.241 33.2466C641.693 42.1941 639.014 50.8132 635.295 58.8125C627.789 75.2885 617.477 89.7357 605.014 101.238C586.602 118.576 566.639 128.592 545.382 132.282C519.875 136.71 494.928 132.949 470.685 119.255C459.97 113.337 450.228 105.204 441.917 95.2365C436.237 88.5607 431.61 80.7345 428.254 72.1274C421.411 54.195 422.875 36.8323 432.463 22.4354C437.895 14.2791 444.389 8.82446 451.22 4.27293C465.517 -5.25504 480.559 -10.4147 495.768 -14.3538C518.604 -20.2738 541.641 -22.72 564.783 -25.1235ZM525.759 126.612C532.426 125.791 539.121 125.324 545.758 124.081C565.278 120.426 583.632 111.007 600.563 95.0331C610.465 85.8345 618.868 74.5708 625.361 61.7954C629.629 53.6531 632.633 44.6702 634.23 35.2721C636.686 19.9754 633.691 6.99278 625.171 -1.04216C621.255 -4.63994 616.914 -7.5322 612.286 -9.62554C602.436 -14.242 592.21 -15.6286 582.005 -15.8554C570.298 -16.1131 558.576 -15.6211 546.874 -14.9066C526.671 -13.7117 506.642 -9.85641 487.158 -3.41164C475.676 0.399765 464.398 5.35703 453.798 13.5751C448.041 18.0383 442.654 23.3555 438.478 31.2381C432.583 42.3614 431.751 54.5602 435.682 67.5865C438.035 75.3829 441.377 82.1836 445.741 87.1813C451.412 93.6774 457.206 100.212 463.455 105.088C483.037 120.373 504.035 126.071 525.759 126.612Z" fill="#4FA83D"/><path d="M552.32 11.9627C560.937 11.7934 570.007 12.1011 578.81 15.8071C582.984 17.4969 586.889 20.0041 590.364 23.2244C596.783 29.3392 598.144 38.7362 594.797 49.3451C592.676 55.8164 589.429 61.685 585.267 66.5683C576.605 77.1318 565.885 85.0079 554.052 89.5027C534.831 97.1703 515.629 97.4631 496.489 88.8425C489.865 86.0375 483.851 81.5178 478.885 75.6117C468.448 62.9273 468.64 47.916 479.507 36.2634C488.416 26.7088 498.627 22.349 508.982 18.905C523.077 14.1626 537.67 11.825 552.32 11.9627ZM542.286 28.6822C532.442 29.6055 522.808 31.3445 513.567 36.3678C509.31 38.6258 505.398 41.7095 501.996 45.4922C496.831 51.361 496.911 59.5493 502.235 64.9496C505.712 68.4923 509.773 71.1361 514.16 72.7119C526.852 77.1122 539.453 75.4743 551.665 68.4969C555.527 66.2013 559.117 63.3124 562.343 59.905C565.866 56.2757 569.378 51.6432 568.473 43.9395C567.615 36.6287 563.496 34.1421 559.55 32.8344C553.86 30.9579 548.047 30.0197 542.285 28.6843L542.286 28.6822Z" fill="#4FA83D"/></g></g><defs><clipPath id="clip0_330_5296"><rect width="1438" height="528" fill="white"/></clipPath></defs></svg>