<svg xmlns="http://www.w3.org/2000/svg" id="Black_logo_-_no_background" data-name="Black logo - no background" width="464.143" height="168.168" viewBox="0 0 464.143 168.168"><g id="SvgjsG1474"><circle id="Ellipse_4" data-name="Ellipse 4" cx="84.084" cy="84.084" r="84.084" fill="#2c2d30"></circle></g><g id="SvgjsG1475" transform="translate(37.67 29.597)"><path id="Path_4" data-name="Path 4" d="M117.988,322.482c1,7.669-1.29,16.986-7.454,27.45-15.624,27.09-55.042,30.028-81.344,15.982l6.235-27.235h9.962c15.839,18.921,34.187,5.877,36.408-2.365,1.577-5.877-2.007-11.539-8.17-13.832H66.96a18.86,18.86,0,0,0-12.112,0h6.594a31.243,31.243,0,0,0-10.679,6.45h-9.03l1.433-6.45H36.5l12.757-56.116h74.106l-5.948,26.447H77.352l-1.792,7.812c21.5,0,34.114,8.242,35.833,21.859h6.594Z" transform="translate(-29.19 -266.366)" fill="#1d1e22"></path></g><g id="SvgjsG1476" transform="translate(195.075 5.381)"><path id="Path_5" data-name="Path 5" d="M43.807,229.755a29.33,29.33,0,0,1-9.44-1.638,32.065,32.065,0,0,1-8.66-4.291,1.034,1.034,0,0,1-.39-1.248L29.3,214.62a.833.833,0,0,1,.7-.546,1.083,1.083,0,0,1,.858.156,22.224,22.224,0,0,0,5.851,3.667,15.362,15.362,0,0,0,6.007,1.248,7.931,7.931,0,0,0,5.383-1.638,5.129,5.129,0,0,0,1.872-4.213,6.228,6.228,0,0,0-1.794-4.681q-1.872-1.4-5.851-1.4c-1.56,0-2.34,0-4.915.078s-4.525.156-5.851.312a1.164,1.164,0,0,1-.78-.234,1.083,1.083,0,0,1-.39-.78V181a1.033,1.033,0,0,1,1.014-1.014H59.254A1.033,1.033,0,0,1,60.268,181v8.894a1.033,1.033,0,0,1-1.014,1.014H41.935v5.617h2.652a21.969,21.969,0,0,1,9.6,1.95,14.811,14.811,0,0,1,6.475,5.383,16.379,16.379,0,0,1,2.34,8.66,16.988,16.988,0,0,1-2.418,9.128,15.716,15.716,0,0,1-6.709,6.007A22.745,22.745,0,0,1,43.807,229.755Zm51.568,0a24.534,24.534,0,0,1-12.56-3.276A24.151,24.151,0,0,1,74,217.35a26.247,26.247,0,0,1-3.2-12.872,25.313,25.313,0,0,1,3.277-12.716,24.733,24.733,0,0,1,8.972-8.972,25.221,25.221,0,0,1,22.7-1.092,26.114,26.114,0,0,1,8.426,5.929,1.056,1.056,0,0,1,0,1.326l-7.411,6.085a1.083,1.083,0,0,1-.78.39.96.96,0,0,1-.78-.39,11.769,11.769,0,0,0-15.759-2.5c-4.681,2.887-6.4,8.192-6.163,13.5a12.919,12.919,0,0,0,9.284,11.546,11.968,11.968,0,0,0,12.638-3.277.943.943,0,0,1,.78-.234.761.761,0,0,1,.7.312l7.567,5.305a1.056,1.056,0,0,1,0,1.326,29.376,29.376,0,0,1-8.738,6.4A24.022,24.022,0,0,1,95.375,229.755Zm26.135,0V183.024c0-1.95.39-2.34,1.014-2.34h34.17a.967.967,0,0,1,1.014.936v8.816a1.033,1.033,0,0,1-1.014,1.014H133.6v8.114h14.589a1.033,1.033,0,0,1,1.014,1.014v8.738a1.033,1.033,0,0,1-1.014,1.014H133.6v8.348h23.014a1.033,1.033,0,0,1,1.014,1.014v8.738a1.033,1.033,0,0,1-1.014,1.014H122.524C121.9,229.443,121.51,228.975,121.51,229.755Zm45.015,0a1.033,1.033,0,0,1-1.014-1.014V182.01A1.033,1.033,0,0,1,166.525,181h9.206a1.253,1.253,0,0,1,.858.39l17.943,27.7V182.01A1.033,1.033,0,0,1,195.546,181h9.6a1.033,1.033,0,0,1,1.014,1.014V228.74a1.033,1.033,0,0,1-1.014,1.014h-9.206a1.253,1.253,0,0,1-.858-.39l-17.865-27.539V228.74a1.033,1.033,0,0,1-1.014,1.014Zm60.852,0a.967.967,0,0,1-.936-1.014V191.918H215.752a.967.967,0,0,1-1.014-.936V182.01A1.033,1.033,0,0,1,215.752,181H249.22a.983.983,0,0,1,1.014,1.014v8.972a.924.924,0,0,1-1.014.936H238.532V228.74a1.033,1.033,0,0,1-1.014,1.014Zm48.369.468a30.352,30.352,0,0,1-11.078-2.106,30.03,30.03,0,0,1-9.44-5.617,1.09,1.09,0,0,1-.234-1.17l2.731-9.284a.833.833,0,0,1,.7-.546.88.88,0,0,1,.858.234c4.135,3.9,8.816,7.411,14.667,7.723a13.885,13.885,0,0,0,4.759-.312c4.6-1.482,2.652-6.163-.78-7.567q-1.755-.7-4.915-1.638a46.66,46.66,0,0,1-7.645-2.731,14.594,14.594,0,0,1-5.461-4.369,13.094,13.094,0,0,1-2.262-7.879,13.669,13.669,0,0,1,2.34-7.958,14.856,14.856,0,0,1,6.475-5.227,24.078,24.078,0,0,1,9.518-1.794,30.2,30.2,0,0,1,9.44,1.482,32.97,32.97,0,0,1,8.192,3.823.978.978,0,0,1,.312,1.248l-2.574,8.738a.756.756,0,0,1-.624.546.923.923,0,0,1-.78-.078c-3.511-2.184-7.021-4.837-11.156-5.383-2.731-.39-6.865-.234-7.8,3.043-1.17,4.213,4.993,5.3,7.8,6.163a59.843,59.843,0,0,1,7.723,2.809,15.189,15.189,0,0,1,5.461,4.525,12.931,12.931,0,0,1,2.34,8.035,14.022,14.022,0,0,1-2.5,8.27,15.02,15.02,0,0,1-6.631,5.3A25.754,25.754,0,0,1,275.745,230.223Z" transform="translate(-25.245 -179.513)" fill="#2c2d30"></path></g><g id="SvgjsG1477" transform="translate(195.075 69.958)"><path id="Path_6" data-name="Path 6" d="M93.526,431.6a46.087,46.087,0,0,1-23.595-6.155,45.368,45.368,0,0,1-16.56-17.146,49.306,49.306,0,0,1-6.009-24.181,47.551,47.551,0,0,1,6.155-23.888A46.462,46.462,0,0,1,70.37,343.372a47.38,47.38,0,0,1,42.646-2.052,49.058,49.058,0,0,1,15.828,11.138,1.985,1.985,0,0,1,0,2.491L114.922,366.38a2.035,2.035,0,0,1-1.466.733,1.8,1.8,0,0,1-1.466-.733c-7.474-9.086-19.491-10.991-29.6-4.69-8.793,5.422-12.017,15.388-11.578,25.353.44,10.112,7.767,18.759,17.44,21.69,8.793,2.638,17.44.586,23.741-6.155a1.771,1.771,0,0,1,1.466-.44,1.429,1.429,0,0,1,1.319.586l14.216,9.966a1.985,1.985,0,0,1,0,2.491A55.185,55.185,0,0,1,112.577,427.2a45.127,45.127,0,0,1-19.052,4.4Zm52.465,0a1.847,1.847,0,0,1-1.905-1.905V341.906A1.847,1.847,0,0,1,145.991,340h33.267a48.091,48.091,0,0,1,23.888,5.862A40.782,40.782,0,0,1,219.56,362.13a48.135,48.135,0,0,1,5.862,23.595,46.842,46.842,0,0,1-6.009,23.742,40.608,40.608,0,0,1-16.707,16.267,48.823,48.823,0,0,1-24.181,5.862Zm20.81-20.517h12.9A22.063,22.063,0,0,0,191.275,408a22.681,22.681,0,0,0,8.06-8.94,29.134,29.134,0,0,0,2.931-13.19,27.8,27.8,0,0,0-3.078-13.189,22.8,22.8,0,0,0-8.353-9.086,23.76,23.76,0,0,0-12.017-3.224H166.8ZM241.982,431.6a1.94,1.94,0,0,1-1.905-1.905V341.906A1.94,1.94,0,0,1,241.982,340h17.293a2.353,2.353,0,0,1,1.612.733l33.707,52.026V341.906A1.94,1.94,0,0,1,296.5,340h18.026a1.94,1.94,0,0,1,1.905,1.905V429.69a1.94,1.94,0,0,1-1.905,1.905H297.232a2.353,2.353,0,0,1-1.612-.733L262.06,379.13v50.56a1.94,1.94,0,0,1-1.905,1.905H241.982Z" transform="translate(-47.362 -337.217)" fill="#2c2d30"></path></g></svg>