<svg width="58" height="58" viewBox="0 0 58 58" fill="none" xmlns="http://www.w3.org/2000/svg">
<circle cx="28.7175" cy="29.4648" r="28.5" fill="#2C2C2C"/>
<path fill-rule="evenodd" clip-rule="evenodd" d="M46.3983 33.0063C44.9749 41.4868 37.5991 47.9486 28.7141 47.9486C19.829 47.9486 12.4532 41.4868 11.0298 33.0063H10.264C11.6952 41.906 19.4107 48.7042 28.7141 48.7042C38.0174 48.7042 45.7329 41.906 47.1641 33.0063H46.3983ZM11.3472 25.5311C13.3386 17.7978 20.359 12.0839 28.7141 12.0839C37.0691 12.0839 44.0896 17.7978 46.081 25.5311H46.8603C44.8514 17.3763 37.489 11.3283 28.7141 11.3283C19.9391 11.3283 12.5767 17.3763 10.5678 25.5311H11.3472Z" fill="white"/>
<path d="M9.83862 23.2887L10.9599 25.7181L13.0156 23.4756" stroke="white" stroke-width="0.755554" stroke-linejoin="round"/>
<path d="M47.9636 35.062L46.8423 32.6326L44.7867 34.8751" stroke="white" stroke-width="0.755554" stroke-linejoin="round"/>
<path d="M28.3723 37.8459C29.2818 37.8459 30.0192 37.1085 30.0192 36.199C30.0192 35.2894 29.2818 34.5521 28.3723 34.5521C27.4627 34.5521 26.7253 35.2894 26.7253 36.199C26.7253 37.1085 27.4627 37.8459 28.3723 37.8459Z" stroke="white" stroke-width="0.447824" stroke-linecap="round" stroke-linejoin="round"/>
<path d="M25.2698 32.5027C25.6787 32.083 26.1674 31.7494 26.7072 31.5217C27.247 31.2939 27.8269 31.1766 28.4128 31.1766C28.9987 31.1766 29.5787 31.2939 30.1185 31.5217C30.6583 31.7494 31.147 32.083 31.5558 32.5027M22.5417 30.378C23.307 29.6083 24.2169 28.9975 25.2191 28.5806C26.2213 28.1638 27.296 27.9492 28.3814 27.9492C29.4668 27.9492 30.5415 28.1638 31.5437 28.5806C32.5459 28.9975 33.4558 29.6083 34.221 30.378" stroke="white" stroke-width="0.447824" stroke-linecap="round" stroke-linejoin="round"/>
<path d="M20.2019 28.039C21.2748 26.9655 22.5487 26.114 23.9509 25.533C25.353 24.952 26.8559 24.6529 28.3736 24.6529C29.8914 24.6529 31.3942 24.952 32.7964 25.533C34.1985 26.114 35.4724 26.9655 36.5453 28.039" stroke="white" stroke-width="0.447824" stroke-linecap="round" stroke-linejoin="round"/>
<circle cx="35.9576" cy="24.9257" r="4.62681" fill="#4FA83D"/>
<path d="M34.3745 23.7911V26.1457H33.8065V24.3222H33.7927L33.2661 24.6442V24.1521L33.8467 23.7911H34.3745ZM34.8226 24.2532V23.7911H36.8127V24.2532H36.0988V26.1457H35.5377V24.2532H34.8226ZM33.2903 30.1457V27.7911H34.2721C34.4484 27.7911 34.596 27.816 34.7148 27.8658C34.8343 27.9156 34.924 27.9854 34.9838 28.075C35.0444 28.1647 35.0746 28.2686 35.0746 28.3866C35.0746 28.4763 35.0559 28.5564 35.0183 28.6269C34.9807 28.6967 34.929 28.7545 34.8631 28.8005C34.7972 28.8465 34.7209 28.8787 34.6343 28.8971V28.9201C34.7293 28.9247 34.8171 28.9504 34.8976 28.9971C34.9788 29.0439 35.044 29.109 35.093 29.1926C35.1421 29.2754 35.1666 29.3735 35.1666 29.4869C35.1666 29.6134 35.1344 29.7264 35.07 29.8261C35.0057 29.9249 34.9125 30.0031 34.7907 30.0606C34.6688 30.1173 34.5209 30.1457 34.3469 30.1457H33.2903ZM33.8594 29.687H34.2112C34.3346 29.687 34.4254 29.6636 34.4837 29.6168C34.5427 29.5701 34.5722 29.5049 34.5722 29.4214C34.5722 29.3608 34.558 29.3087 34.5297 29.265C34.5013 29.2205 34.4611 29.1864 34.4089 29.1627C34.3568 29.1382 34.2944 29.1259 34.2215 29.1259H33.8594V29.687ZM33.8594 28.7591H34.1744C34.2365 28.7591 34.2917 28.7488 34.34 28.7281C34.3883 28.7074 34.4258 28.6775 34.4526 28.6384C34.4802 28.5993 34.494 28.5522 34.494 28.497C34.494 28.418 34.4661 28.356 34.4101 28.3107C34.3541 28.2655 34.2786 28.2429 34.1836 28.2429H33.8594V28.7591Z" fill="white"/>
</svg>
