<svg width="29" height="29" viewBox="0 0 29 29" fill="none" xmlns="http://www.w3.org/2000/svg">
<path d="M19.6724 11.1401C19.7567 11.2242 19.8235 11.3242 19.8691 11.4342C19.9147 11.5442 19.9382 11.6622 19.9382 11.7812C19.9382 11.9003 19.9147 12.0183 19.8691 12.1283C19.8235 12.2383 19.7567 12.3383 19.6724 12.4224L13.3287 18.7662C13.2445 18.8504 13.1446 18.9173 13.0345 18.9629C12.9245 19.0085 12.8066 19.032 12.6875 19.032C12.5684 19.032 12.4505 19.0085 12.3405 18.9629C12.2304 18.9173 12.1305 18.8504 12.0463 18.7662L9.32758 16.0474C9.15753 15.8774 9.062 15.6467 9.062 15.4062C9.062 15.1658 9.15753 14.9351 9.32758 14.7651C9.49763 14.595 9.72827 14.4995 9.96876 14.4995C10.2092 14.4995 10.4399 14.595 10.6099 14.7651L12.6875 16.8438L18.3901 11.1401C18.4742 11.0558 18.5742 10.989 18.6842 10.9434C18.7942 10.8978 18.9122 10.8743 19.0313 10.8743C19.1504 10.8743 19.2683 10.8978 19.3783 10.9434C19.4883 10.989 19.5883 11.0558 19.6724 11.1401ZM26.2813 14.5C26.2813 16.8301 25.5903 19.1079 24.2958 21.0453C23.0012 22.9827 21.1612 24.4928 19.0085 25.3845C16.8558 26.2762 14.4869 26.5095 12.2016 26.0549C9.91626 25.6003 7.81704 24.4782 6.1694 22.8306C4.52177 21.183 3.39971 19.0837 2.94513 16.7984C2.49055 14.5131 2.72385 12.1443 3.61555 9.99151C4.50724 7.83877 6.01728 5.99879 7.95469 4.70425C9.89211 3.40971 12.1699 2.71875 14.5 2.71875C17.6236 2.72205 20.6183 3.96434 22.827 6.17304C25.0357 8.38174 26.278 11.3764 26.2813 14.5ZM24.4688 14.5C24.4688 12.5284 23.8841 10.601 22.7887 8.96166C21.6933 7.32231 20.1364 6.04459 18.3149 5.29008C16.4933 4.53556 14.4889 4.33815 12.5552 4.7228C10.6215 5.10744 8.84519 6.05687 7.45103 7.45103C6.05688 8.84518 5.10745 10.6214 4.7228 12.5552C4.33816 14.4889 4.53557 16.4933 5.29008 18.3149C6.04459 20.1364 7.32231 21.6933 8.96166 22.7887C10.601 23.8841 12.5284 24.4688 14.5 24.4688C17.143 24.4658 19.6768 23.4145 21.5457 21.5457C23.4145 19.6768 24.4658 17.143 24.4688 14.5Z" fill="#59A52C"/>
</svg>
