<svg width="58" height="58" viewBox="0 0 58 58" fill="none" xmlns="http://www.w3.org/2000/svg">
<circle cx="28.9341" cy="28.7986" r="28.8064" fill="#2C2C2C"/>
<path d="M40.1063 35.9194H11.7411C10.8515 35.9194 10.1277 35.1959 10.1277 34.3065V19.0543C10.1277 18.1649 10.8515 17.4413 11.7411 17.4413H40.1063C40.9956 17.4413 41.7195 18.1649 41.7195 19.0543V34.3065C41.7195 35.1959 40.9956 35.9194 40.1063 35.9194ZM11.7411 18.7443C11.5699 18.7443 11.4305 18.8833 11.4305 19.0543V34.3065C11.4305 34.4774 11.5699 34.6166 11.7411 34.6166H40.1063C40.2773 34.6166 40.4166 34.4774 40.4166 34.3065V19.0543C40.4166 18.8833 40.2774 18.7443 40.1063 18.7443H11.7411Z" fill="white"/>
<path d="M22.5522 31.6312C22.3382 31.5142 22.1991 31.296 22.1991 31.0523V22.3086C22.1991 22.0647 22.3354 21.8415 22.5522 21.7296C22.7688 21.6178 23.0295 21.6364 23.2282 21.7778L29.3762 26.1496C29.5482 26.2718 29.6501 26.4697 29.6501 26.6805C29.6501 26.8914 29.5482 27.0892 29.3762 27.2114C29.3762 27.2114 24.765 30.4901 23.2282 31.5831C23.1159 31.663 22.8738 31.8072 22.5522 31.6312ZM23.5022 23.5712V29.7897L27.8745 26.6805L23.5022 23.5712Z" fill="#4FA83D"/>
<path d="M41.0683 39.6175H28.6167C28.3275 38.5098 27.3184 37.6901 26.1214 37.6901C24.9246 37.6901 23.9157 38.5098 23.6265 39.6175H10.7794C10.4197 39.6175 10.1279 39.9092 10.1279 40.2689C10.1279 40.6287 10.4197 40.9203 10.7794 40.9203H23.6266C23.9158 42.028 24.9247 42.8478 26.1215 42.8478C27.3184 42.8478 28.3276 42.0279 28.6167 40.9203H41.0683C41.4278 40.9203 41.7197 40.6288 41.7197 40.2689C41.7197 39.9092 41.4278 39.6175 41.0683 39.6175ZM26.1214 41.5448C25.4182 41.5448 24.8456 40.9724 24.8456 40.2688C24.8456 39.5654 25.4182 38.993 26.1214 38.993C26.825 38.993 27.3974 39.5654 27.3974 40.2688C27.3974 40.9725 26.825 41.5448 26.1214 41.5448Z" fill="white"/>
<path d="M33.3428 15.104L43.4024 19.7985V26.5049L33.3428 21.8104V15.104Z" fill="white"/>
<path d="M46.3376 21.2664L39.7778 14.7067C39.3239 14.2528 38.6959 13.9922 38.0535 13.9922H32.9962C32.228 13.9922 31.6026 14.6172 31.6026 15.3858V20.4428C31.6026 21.0936 31.8564 21.7064 32.3171 22.1674L38.8769 28.7272C39.2606 29.1106 39.771 29.3219 40.3126 29.3219C40.8543 29.3219 41.3647 29.1106 41.7484 28.7272L46.3376 24.1381C46.7213 23.755 46.9323 23.2449 46.9323 22.7023C46.9323 22.1596 46.7214 21.6495 46.3376 21.2664ZM35.3752 18.2576L34.6362 18.9967C34.5681 19.0648 34.4789 19.0988 34.3898 19.0988C34.3007 19.0988 34.2115 19.0648 34.1435 18.9967C34.0074 18.8606 34.0074 18.6402 34.1435 18.5041L35.1284 17.519C35.1286 17.5188 35.1291 17.5183 35.1291 17.5183L36.1141 16.5331C36.2447 16.4025 36.4761 16.4025 36.6067 16.5331L37.5921 17.5185C37.7282 17.6546 37.7282 17.875 37.5921 18.0111C37.456 18.1472 37.2355 18.1472 37.0994 18.0111L36.3604 17.2721L35.8678 17.7649L36.3604 18.2578C36.4965 18.3939 36.4965 18.6144 36.3604 18.7504C36.2924 18.8185 36.2032 18.8525 36.1141 18.8525C36.0249 18.8525 35.9358 18.8185 35.8677 18.7504L35.3752 18.2576ZM37.3458 22.0551C37.2567 22.0551 37.1675 22.0211 37.0995 21.9531C36.9633 21.8169 36.9633 21.5961 37.0995 21.4604L37.5928 20.9674C37.7282 20.8316 37.7282 20.6105 37.5928 20.4744L37.3458 20.2284L36.6068 20.9674C36.4707 21.1035 36.2502 21.1035 36.1141 20.9674C35.978 20.8313 35.978 20.6108 36.1141 20.4747L37.0906 19.4989C37.0933 19.4955 37.0961 19.4925 37.0995 19.4894C37.1022 19.4863 37.1056 19.4833 37.109 19.4802L38.0855 18.5041C38.2216 18.368 38.4421 18.368 38.5781 18.5041L39.0708 18.9967C39.4784 19.4043 39.4784 20.0671 39.0708 20.4747C38.8871 20.6585 38.6468 20.7656 38.3889 20.7793C38.3753 21.0273 38.2739 21.2712 38.0854 21.4601L37.5921 21.9531C37.5241 22.0211 37.4349 22.0551 37.3458 22.0551ZM39.5635 23.431C39.6996 23.5671 39.6996 23.7876 39.5635 23.9237C39.4954 23.9917 39.4063 24.0258 39.3171 24.0258C39.228 24.0258 39.1388 23.9917 39.0708 23.9237L38.0854 22.9384C37.9493 22.8023 37.9493 22.5818 38.0854 22.4457L40.0561 20.4747C40.1214 20.4094 40.2099 20.3726 40.3024 20.3726C40.395 20.3726 40.4834 20.4094 40.5488 20.4747L41.5341 21.4604C41.6702 21.5965 41.6702 21.8169 41.5341 21.953C41.398 22.0891 41.1775 22.0891 41.0415 21.953L40.3025 21.2137L39.8097 21.7066L40.3025 22.1994C40.4386 22.3355 40.4386 22.5559 40.3025 22.692C40.2344 22.7601 40.1453 22.7941 40.0561 22.7941C39.967 22.7941 39.8778 22.7601 39.8098 22.692L39.3171 22.1993L38.8244 22.692L39.5635 23.431ZM43.5048 23.9237C43.3687 24.0598 43.1482 24.0598 43.0121 23.9237L42.2731 23.1847L41.7805 23.6774L42.2731 24.17C42.4092 24.3061 42.4092 24.5266 42.2731 24.6627C42.2051 24.7307 42.1159 24.7647 42.0268 24.7647C41.9377 24.7647 41.8485 24.7307 41.7804 24.6627L41.2878 24.17L40.7951 24.6627L41.5341 25.402C41.6702 25.5381 41.6702 25.7586 41.5341 25.8946C41.4661 25.9627 41.3769 25.9967 41.2878 25.9967C41.1987 25.9967 41.1095 25.9627 41.0415 25.8946L40.0561 24.909C39.92 24.7729 39.92 24.5524 40.0561 24.4163L42.0268 22.4457C42.1629 22.3096 42.3833 22.3096 42.5194 22.4457L43.5048 23.431C43.6409 23.5671 43.6409 23.7876 43.5048 23.9237Z" fill="#4FA83D"/>
<path d="M38.3317 20.0841H38.3324C38.4256 20.0841 38.5127 20.0477 38.5787 19.982C38.7148 19.8463 38.7148 19.6251 38.5787 19.4894L38.3324 19.243L37.8397 19.7357L38.0861 19.9817C38.152 20.048 38.2392 20.0841 38.3317 20.0841Z" fill="#4FA83D"/>
</svg>
