<svg width="58" height="58" viewBox="0 0 58 58" fill="none" xmlns="http://www.w3.org/2000/svg">
<circle cx="29.024" cy="28.8533" r="28.8064" fill="#2C2C2C"/>
<rect x="15.6626" y="21.4103" width="26.411" height="23.0496" rx="2.85777" stroke="white" stroke-width="0.960399"/>
<rect x="18.5444" y="24.2915" width="20.6486" height="17.2872" rx="2.85777" stroke="white" stroke-width="0.960399"/>
<path d="M26.2135 34.5203C26.2135 34.8708 26.1272 35.1768 25.9548 35.4383C25.7823 35.6998 25.532 35.9028 25.2037 36.0475C24.8811 36.1865 24.4861 36.2561 24.0187 36.2561C23.8129 36.2561 23.6098 36.2422 23.4096 36.2144C23.2148 36.1865 23.0257 36.1476 22.8421 36.0975C22.6641 36.0419 22.4944 35.9751 22.3331 35.8973V34.7206C22.6168 34.843 22.9089 34.9571 23.2093 35.0628C23.5153 35.1629 23.8185 35.213 24.1189 35.213C24.3247 35.213 24.4888 35.1852 24.6112 35.1295C24.7392 35.0739 24.831 34.9988 24.8866 34.9042C24.9478 34.8096 24.9784 34.7011 24.9784 34.5788C24.9784 34.4285 24.9256 34.3006 24.8199 34.1949C24.7197 34.0892 24.5834 33.9918 24.411 33.9028C24.2385 33.8082 24.041 33.7081 23.8185 33.6024C23.6794 33.5356 23.5292 33.4578 23.3678 33.3687C23.2065 33.2742 23.0507 33.1601 22.9005 33.0266C22.7559 32.8875 22.6363 32.7206 22.5417 32.5259C22.4471 32.3312 22.3998 32.0975 22.3998 31.8249C22.3998 31.4689 22.4805 31.1657 22.6418 30.9153C22.8087 30.6594 23.0424 30.4647 23.3428 30.3312C23.6488 30.1977 24.0076 30.1309 24.4193 30.1309C24.7308 30.1309 25.0257 30.1671 25.3039 30.2394C25.5876 30.3117 25.8824 30.4146 26.1884 30.5482L25.7795 31.5329C25.5069 31.4216 25.2621 31.3354 25.0452 31.2742C24.8282 31.213 24.6057 31.1824 24.3776 31.1824C24.2218 31.1824 24.0883 31.2074 23.977 31.2575C23.8658 31.3075 23.7795 31.3771 23.7183 31.4661C23.6627 31.5551 23.6349 31.6608 23.6349 31.7832C23.6349 31.9223 23.6766 32.0419 23.76 32.142C23.8435 32.2366 23.9687 32.3284 24.1356 32.4174C24.3025 32.5064 24.5111 32.6121 24.7614 32.7345C25.0674 32.8792 25.3261 33.0294 25.5375 33.1852C25.7545 33.3409 25.9214 33.5245 26.0382 33.7359C26.155 33.9473 26.2135 34.2088 26.2135 34.5203ZM30.8097 34.5203C30.8097 34.8708 30.7235 35.1768 30.551 35.4383C30.3785 35.6998 30.1282 35.9028 29.8 36.0475C29.4773 36.1865 29.0823 36.2561 28.615 36.2561C28.4091 36.2561 28.2061 36.2422 28.0058 36.2144C27.8111 36.1865 27.6219 36.1476 27.4383 36.0975C27.2603 36.0419 27.0906 35.9751 26.9293 35.8973V34.7206C27.213 34.843 27.5051 34.9571 27.8055 35.0628C28.1115 35.1629 28.4147 35.213 28.7151 35.213C28.921 35.213 29.0851 35.1852 29.2075 35.1295C29.3354 35.0739 29.4272 34.9988 29.4828 34.9042C29.544 34.8096 29.5746 34.7011 29.5746 34.5788C29.5746 34.4285 29.5218 34.3006 29.4161 34.1949C29.3159 34.0892 29.1796 33.9918 29.0072 33.9028C28.8347 33.8082 28.6372 33.7081 28.4147 33.6024C28.2756 33.5356 28.1254 33.4578 27.9641 33.3687C27.8027 33.2742 27.647 33.1601 27.4968 33.0266C27.3521 32.8875 27.2325 32.7206 27.1379 32.5259C27.0433 32.3312 26.9961 32.0975 26.9961 31.8249C26.9961 31.4689 27.0767 31.1657 27.2381 30.9153C27.405 30.6594 27.6386 30.4647 27.939 30.3312C28.245 30.1977 28.6038 30.1309 29.0155 30.1309C29.3271 30.1309 29.6219 30.1671 29.9001 30.2394C30.1838 30.3117 30.4787 30.4146 30.7847 30.5482L30.3758 31.5329C30.1031 31.4216 29.8584 31.3354 29.6414 31.2742C29.4244 31.213 29.2019 31.1824 28.9738 31.1824C28.818 31.1824 28.6845 31.2074 28.5732 31.2575C28.462 31.3075 28.3757 31.3771 28.3146 31.4661C28.2589 31.5551 28.2311 31.6608 28.2311 31.7832C28.2311 31.9223 28.2728 32.0419 28.3563 32.142C28.4397 32.2366 28.5649 32.3284 28.7318 32.4174C28.8987 32.5064 29.1073 32.6121 29.3577 32.7345C29.6636 32.8792 29.9223 33.0294 30.1337 33.1852C30.3507 33.3409 30.5176 33.5245 30.6344 33.7359C30.7513 33.9473 30.8097 34.2088 30.8097 34.5203ZM31.8927 36.1726V30.2144H33.1528V35.1295H35.5728V36.1726H31.8927Z" fill="#4FA83D"/>
<path fill-rule="evenodd" clip-rule="evenodd" d="M36.0324 20.93C35.7414 16.8324 32.6137 13.727 28.9503 13.727C25.2869 13.727 22.1591 16.8324 21.8682 20.93H20.9058C21.1999 16.368 24.6891 12.7666 28.9503 12.7666C33.2114 12.7666 36.7006 16.368 36.9948 20.93H36.0324Z" fill="white"/>
</svg>
