<svg width="63" height="62" viewBox="0 0 63 62" fill="none" xmlns="http://www.w3.org/2000/svg">
<rect width="62.5776" height="62" rx="8.85714" fill="#303432"/>
<g clip-path="url(#clip0_1_280)">
<path d="M39.5911 17.1022C38.6375 17.2311 37.5122 17.4458 37.014 17.5747C36.7563 17.6434 36.447 17.7121 36.3439 17.7379C35.7082 17.8668 33.7239 18.6313 32.8476 19.0866C32.3236 19.3615 31.2498 19.9972 31.1725 20.0917C31.1467 20.1174 31.0179 20.2119 30.8719 20.2978C30.0386 20.8218 28.037 22.6344 27.0062 23.7941L26.5767 24.2752L25.7606 24.3267C24.5064 24.4126 22.7454 24.5586 22.4189 24.6016C22.0324 24.6617 21.6286 24.8593 21.3194 25.1428C21.1046 25.3404 19.4295 27.7714 19.3264 28.0377C19.3092 28.0807 19.2663 28.1408 19.2405 28.1666C19.146 28.2439 18.2268 29.6613 18.0808 29.9448C17.866 30.3743 17.909 30.821 18.1925 31.2849C18.4846 31.7316 18.8969 31.9807 19.4896 32.058C19.7044 32.0924 19.9707 32.1353 20.091 32.1525C20.2112 32.1783 20.7352 32.2556 21.2506 32.3329C22.6852 32.5477 22.5822 32.4875 22.5822 33.0631C22.5822 33.9479 22.6766 34.0682 25.606 36.9889C27.4787 38.8444 28.3978 39.7035 28.6298 39.7979C28.8102 39.8753 29.1881 39.9354 29.463 39.9354C30.0214 39.9354 30.0042 39.9182 30.0987 40.7515C30.219 41.8682 30.5626 43.6292 30.7086 43.844C30.9749 44.2563 31.456 44.4883 32.0144 44.4883H32.5126L34.7891 42.9936C37.1256 41.4473 37.3318 41.2927 37.6325 40.8116C37.8902 40.3907 37.9417 40.0814 38.0878 37.9252L38.2166 35.9666L39.3849 34.8327C40.5274 33.7331 41.7215 32.3845 42.2197 31.6027C42.3572 31.388 42.486 31.199 42.5118 31.1732C42.6321 31.0615 43.1303 30.2025 43.4138 29.627C43.5856 29.2748 43.7574 28.9225 43.7918 28.8452C43.8347 28.7765 43.9636 28.4673 44.0838 28.158C45.0975 25.5809 45.5786 22.7633 45.5012 19.8511C45.4755 18.8289 45.4411 18.5196 45.3037 18.2447C45.0717 17.7637 44.8054 17.4888 44.333 17.2482C43.9464 17.0507 43.8605 17.0421 42.0393 17.0335C40.9999 17.0249 39.9003 17.0507 39.5911 17.1022ZM43.7059 18.8375C43.8089 18.9491 43.8347 19.2412 43.8261 20.504C43.8003 24.2322 42.821 27.6598 41.0428 30.3056C39.3505 32.8054 36.9624 35.0131 34.3595 36.4907L33.552 36.9459L29.5575 32.9514L25.563 28.9569L25.7348 28.6219C26.0183 28.0807 26.2588 27.6769 26.4908 27.3333C26.611 27.1529 26.8086 26.8523 26.9375 26.6633C27.934 25.16 29.7207 23.3216 31.602 21.8699C32.2291 21.3802 33.5864 20.5899 34.308 20.2892C34.5915 20.169 34.9437 20.0229 35.0811 19.9628C35.8285 19.6192 37.9245 19.0522 38.8609 18.932C39.1014 18.9062 39.4107 18.8546 39.5481 18.8289C40.682 18.6313 43.4997 18.6313 43.7059 18.8375ZM24.85 26.7664C24.2401 27.7457 23.7161 28.8366 23.3037 29.9963C23.0632 30.6836 22.943 30.9069 22.8485 30.8726C22.7883 30.8468 22.4705 30.7867 22.1612 30.7437C20.8211 30.5547 19.8934 30.4001 19.8676 30.3743C19.8418 30.3485 21.517 27.7543 22.1698 26.8265C22.5822 26.2252 22.4791 26.2595 24.3432 26.1393C24.8156 26.1135 25.2194 26.0705 25.2366 26.0534C25.3568 25.9417 25.2709 26.1049 24.85 26.7664ZM31.7738 37.6332C31.7738 37.6933 31.1725 37.8823 30.3307 38.0885C29.2655 38.3462 29.5146 38.5008 26.7914 35.7777C25.4513 34.4376 24.326 33.2693 24.3002 33.1834C24.2315 32.9944 24.3775 32.2127 24.6438 31.3193L24.85 30.6492L28.3119 34.1111C30.219 36.0182 31.7738 37.5988 31.7738 37.6332ZM36.4642 37.2638C36.4384 37.2981 36.3783 37.8737 36.3353 38.5438C36.2924 39.2052 36.2151 39.8237 36.1635 39.9268C36.112 40.0213 35.5536 40.4336 34.9265 40.846C34.308 41.2583 33.4232 41.8339 32.9765 42.1259C32.2979 42.5726 32.1518 42.6414 32.1089 42.5211C32.0573 42.4008 31.9371 41.6363 31.6879 39.9783C31.6536 39.7378 31.6278 39.5402 31.645 39.5231C31.6536 39.5145 31.9457 39.4028 32.2979 39.2825C33.5349 38.8616 34.7891 38.2603 35.7684 37.6332C36.49 37.1693 36.5329 37.1435 36.4642 37.2638Z" fill="white"/>
<path d="M21.5444 35.0222C21.2867 35.1854 19.457 36.8863 18.1856 38.1319C17.3953 38.905 17.3438 38.9738 17.3438 39.2916C17.3523 39.807 17.7475 40.1936 18.2715 40.1936C18.5206 40.1936 18.6667 40.0905 19.225 39.5493C19.5858 39.1971 20.0068 38.802 20.1614 38.6731C21.1235 37.8656 22.8244 36.1561 22.8588 35.9586C23.0048 35.1768 22.1801 34.5927 21.5444 35.0222Z" fill="#409640"/>
<path d="M27.2007 40.145C26.943 40.3082 25.1132 42.0091 23.8419 43.2547C23.0515 44.0279 23 44.0966 23 44.4144C23.0086 44.9298 23.4037 45.3164 23.9278 45.3164C24.1769 45.3164 24.3229 45.2133 24.8813 44.6721C25.2421 44.3199 25.663 43.9248 25.8176 43.7959C26.7798 42.9884 28.4807 41.2789 28.515 41.0814C28.661 40.2996 27.8364 39.7155 27.2007 40.145Z" fill="#409640"/>
<path d="M22.1227 39.4646C20.7912 40.8305 19.3652 42.2823 18.9443 42.7118C18.5233 43.1413 18.1282 43.5794 18.068 43.6911C17.8189 44.1808 18.2914 44.9023 18.8755 44.9023C19.0302 44.9023 19.2621 44.8164 19.4081 44.7048C19.5456 44.6017 20.4648 43.6825 21.4612 42.6688C22.4491 41.6552 23.437 40.6501 23.6518 40.4354C25.43 38.6486 25.7994 38.219 25.7994 37.9441C25.7994 37.3858 25.43 37.0078 24.8888 36.9992C24.5366 36.9992 24.5108 37.0164 22.1227 39.4646Z" fill="#409640"/>
</g>
<defs>
<clipPath id="clip0_1_280">
<rect width="28.52" height="28.52" fill="white" transform="translate(17 17)"/>
</clipPath>
</defs>
</svg>
