<svg width="1282" height="389" viewBox="0 0 1282 389" fill="none" xmlns="http://www.w3.org/2000/svg">
<g clip-path="url(#clip0_5_379)">
<g filter="url(#filter0_i_5_379)">
<rect width="1282" height="389" rx="15" fill="#0D0E10"/>
</g>
<g filter="url(#filter1_f_5_379)">
<path d="M1346 375.5C1346 208.346 1210.43 73 1043 73C875.569 73 740 208.346 740 375.5C740 542.654 875.569 678 1043 678C1210.43 678 1346 542.654 1346 375.5Z" fill="url(#paint0_linear_5_379)"/>
</g>
<path d="M1345.96 385.522C1345.96 223.905 1215.1 93.043 1053.48 93.043C891.862 93.043 761 223.905 761 385.522C761 547.139 891.862 678.002 1053.48 678.002C1215.1 678.002 1345.96 547.139 1345.96 385.522Z" fill="#141518"/>
<circle cx="857" cy="293" r="5" fill="#9CFF88"/>
<circle cx="798" cy="303" r="5" fill="#9CFF88"/>
<circle cx="860" cy="243" r="5" fill="#9CFF88"/>
<circle cx="876" cy="180" r="5" fill="#9CFF88"/>
<circle cx="1033" cy="131" r="5" fill="#9CFF88"/>
<circle cx="1188" cy="166" r="5" fill="#9CFF88"/>
<g style="mix-blend-mode:lighten">
<path fill-rule="evenodd" clip-rule="evenodd" d="M1063.35 575.236C1063.19 575.236 1063.04 575.236 1061.96 577.543C1061.66 578.312 1061.19 579.542 1060.89 580.465C1060.99 580.465 1061.14 580.465 1061.35 580.465C1059.96 583.694 1059.96 583.694 1056.43 588C1056.32 588 1056.22 588 1056.12 588C1054.89 589.537 1053.04 591.537 1051.66 593.074C1051.66 593.074 1051.71 593.074 1051.81 593.074C1048.58 596.15 1048.58 596.457 1048.12 600.148C1047.97 600.148 1047.66 600.148 1047.66 601.532C1047.97 602.455 1048.43 603.838 1048.74 604.761C1048.94 604.761 1049.15 604.761 1049.35 604.761C1049.35 606.76 1049.05 609.374 1048.58 611.373C1048.43 611.373 1048.28 611.373 1047.82 612.604C1047.66 613.526 1047.51 614.756 1047.51 615.679C1047.61 615.679 1047.76 615.679 1047.97 615.679C1048.12 617.524 1047.66 620.139 1046.89 621.83C1046.89 621.83 1046.74 621.83 1045.82 623.06C1045.36 623.829 1044.74 624.906 1044.28 625.674C1044.43 625.674 1044.59 625.674 1043.97 627.827C1043.66 628.75 1043.2 629.98 1042.9 630.903L1042.43 631.364C1042.43 631.364 1042.28 631.364 1040.13 632.287C1034.59 633.056 1029.67 633.671 1023.06 639.976C1022.9 639.976 1022.9 639.976 1022.75 640.437C1023.06 641.206 1023.52 642.436 1023.83 643.205C1024.13 643.205 1024.29 643.205 1025.36 644.743C1025.52 645.665 1025.67 646.895 1025.83 647.818C1025.83 647.818 1025.67 647.818 1025.36 648.279C1024.75 648.894 1023.98 649.663 1023.37 650.278V650.586C1023.52 650.586 1023.52 650.586 1023.37 651.97C1022.75 652.739 1022.14 653.815 1021.67 654.584C1021.52 654.584 1021.37 654.584 1022.14 656.583L1022.29 657.045C1022.29 657.045 1022.44 657.045 1022.75 657.352C1022.44 658.275 1022.14 659.505 1021.98 660.274C1021.83 660.274 1021.83 660.274 1020.91 662.273C1015.83 662.734 1015.68 662.58 1008.76 657.506C1009.37 658.275 1009.99 659.197 1010.6 659.966C1010.45 659.966 1010.29 659.966 1011.37 660.889C1012.14 661.196 1013.37 661.812 1014.14 662.119C1014.34 662.119 1014.55 662.119 1014.75 662.119C1016.45 662.888 1018.6 663.964 1020.14 665.041C1020.03 665.041 1019.98 665.041 1019.98 665.041L1020.91 666.732C1020.91 666.732 1020.91 666.732 1021.67 668.116C1020.14 668.27 1017.98 668.27 1016.45 668.116L1016.6 668.578C1016.6 668.578 1016.45 668.578 1016.6 668.731C1017.52 669.039 1018.6 669.5 1019.52 669.962C1019.52 669.962 1019.68 669.962 1019.06 670.269C1018.14 670.115 1016.91 669.962 1015.98 669.808C1018.44 670.73 1018.6 670.73 1022.6 671.499C1022.6 671.499 1022.55 671.499 1022.44 671.499L1024.6 672.268C1024.6 672.268 1024.6 672.268 1025.06 672.422C1025.98 672.73 1027.06 673.037 1027.98 673.191C1027.98 673.191 1027.98 673.191 1030.44 673.652C1030.44 673.652 1030.44 673.652 1032.44 673.806C1033.21 673.806 1034.44 673.96 1035.21 673.96L1031.21 673.652C997.532 671.192 984.461 660.581 971.851 650.278C970.775 649.51 872.513 548.633 872.052 544.943C865.285 481.434 865.285 481.434 859.903 476.513C859.134 476.974 858.212 477.59 857.443 478.051C857.289 478.051 857.135 477.897 856.828 480.511C856.213 481.434 855.598 482.664 854.983 483.433C848.985 481.126 848.985 481.126 803.314 419.617C802.392 419.924 801.161 420.232 800.239 420.539C799.931 421.308 799.624 422.538 799.316 423.307C799.419 423.307 799.521 423.307 799.624 423.307C799.624 423.41 799.624 423.461 799.624 423.461C798.855 423.307 797.778 423.153 796.856 423C796.087 421.308 794.549 419.001 793.165 417.771C792.242 417.925 791.012 418.079 789.936 418.079C776.404 403.624 776.865 361.182 777.634 307.207C776.865 309.206 776.096 311.821 775.635 313.666C775.532 313.666 775.481 313.615 775.481 313.512C775.173 315.357 775.02 317.818 774.866 319.509V321.201C774.866 321.355 775.02 321.355 775.02 322.738C774.251 328.582 774.251 328.582 774.097 332.734C773.943 332.58 773.943 332.58 773.79 334.118C773.79 335.963 773.79 338.424 773.79 340.269C773.79 340.371 773.841 340.423 773.943 340.423C773.174 347.804 773.174 347.804 773.174 349.957L773.328 351.648C773.174 351.648 773.021 351.494 773.174 353.186C773.482 355.185 773.636 357.645 773.943 359.644C773.943 359.644 774.097 359.644 774.097 361.797C773.943 362.72 773.79 363.796 773.636 364.719C773.174 364.565 772.559 364.565 772.098 364.411C761.641 264.612 826.073 196.336 847.14 174.038L846.064 175.115C846.064 175.115 846.064 175.115 845.448 175.73C843.296 177.883 843.296 177.883 838.529 182.957C838.529 182.957 838.529 182.804 838.067 183.419C837.298 184.341 836.222 185.264 835.453 186.033C840.681 180.189 844.372 176.191 856.213 165.273C858.519 163.12 861.749 160.199 864.209 158.2L864.517 157.892L877.741 147.435C892.965 136.364 895.271 134.98 917.723 122.37C920.337 120.986 923.72 119.295 926.949 117.757C926.026 118.218 925.258 118.833 923.72 119.602C923.822 119.5 923.874 119.448 923.874 119.448C922.182 120.371 920.029 121.448 918.338 122.37C920.029 121.601 922.336 120.679 924.027 119.756C924.181 119.756 924.181 119.756 922.797 121.14C923.566 120.832 924.796 120.525 925.565 120.217C924.95 120.679 923.874 121.294 923.105 121.909C923.258 121.909 923.566 121.909 923.72 121.909C922.797 122.37 921.721 122.985 920.798 123.447C920.798 123.447 920.798 123.498 920.798 123.6C921.721 123.6 923.105 123.754 924.181 123.754C923.412 124.369 922.49 124.984 921.721 125.599L921.413 125.753C921.311 125.753 921.259 125.753 921.259 125.753C920.029 126.676 918.491 128.214 917.261 129.29C923.566 126.522 929.102 122.678 934.945 119.295C934.176 119.602 933.1 120.064 932.331 120.371L930.793 120.986C930.178 120.832 929.256 120.679 928.641 120.679C943.095 112.067 948.631 113.297 950.323 113.605C949.554 114.066 948.477 114.528 947.709 114.835C947.709 114.835 947.709 114.835 946.632 115.604C945.094 116.681 943.095 117.911 941.558 118.987C942.327 119.295 943.403 119.602 944.326 119.756C943.557 120.217 942.48 120.832 941.558 121.294C939.712 122.216 937.406 123.6 935.714 124.523C935.817 124.523 935.868 124.574 935.868 124.677L935.56 124.831C946.94 118.833 946.94 118.833 948.477 118.218C948.477 117.296 948.631 116.219 948.785 115.45C950.477 114.681 952.629 113.605 954.321 112.836C953.398 112.99 952.322 113.144 951.399 113.297C953.398 112.375 955.859 111.298 957.704 110.376C956.781 110.376 955.705 110.376 954.782 110.376C961.241 107.608 964.778 107.146 969.391 106.531C968.161 107.3 966.315 108.069 964.931 108.53L964.47 108.684C964.47 108.684 964.47 108.838 962.932 110.222C962.163 110.683 961.087 111.452 960.164 112.067C962.317 111.452 964.47 110.683 966.623 110.068C966.777 110.068 966.777 110.222 966.469 110.53C964.163 112.529 964.163 112.529 958.78 114.681C958.78 114.681 958.627 114.681 957.704 115.143C956.012 115.758 953.706 116.68 952.014 117.296L951.245 117.603C949.246 119.756 949.246 119.756 943.864 122.216C943.864 122.216 943.864 122.216 943.403 122.37C941.711 123.293 939.712 124.523 938.175 125.599C938.328 125.599 938.328 125.599 936.944 126.983C936.022 128.675 934.176 130.366 932.639 131.289L932.177 131.597C932.075 131.494 932.024 131.443 932.024 131.443C932.024 131.443 932.024 131.494 932.024 131.597C928.487 133.134 927.872 133.442 922.797 133.749C922.797 133.749 922.797 133.749 921.721 134.365C921.259 135.133 920.644 136.21 920.029 136.979C921.721 137.594 923.874 138.209 925.719 138.516C937.56 131.904 937.56 131.904 938.175 132.058L936.944 132.827C936.791 132.827 936.791 132.827 934.484 134.365C933.561 134.98 932.331 135.749 931.409 136.517C931.511 136.517 931.614 136.517 931.716 136.517C930.178 137.44 928.641 139.132 927.41 140.516C928.948 139.747 931.101 138.67 932.639 138.055C938.328 135.133 941.865 128.982 948.785 128.367C948.939 128.521 949.093 128.521 947.555 129.905C946.325 131.135 944.633 132.981 943.557 134.211C943.403 134.211 943.249 134.211 942.942 134.365C942.48 135.133 941.865 136.21 941.404 136.979C942.48 136.825 943.71 136.671 944.633 136.364C944.172 137.133 943.403 138.055 942.788 138.67C942.942 138.824 942.942 138.824 942.48 139.285C941.711 140.054 940.943 141.131 940.174 141.9C941.711 140.977 943.864 139.9 945.556 139.132C945.556 139.132 945.607 139.132 945.71 139.132C949.246 137.901 949.554 137.44 951.245 134.365C950.477 133.749 949.4 132.981 948.785 132.366C956.32 123.6 964.316 122.678 968.468 122.063C967.084 123.293 965.239 124.831 963.547 125.907L962.471 126.522C962.471 126.522 962.317 126.522 961.241 127.137C960.472 127.752 959.549 128.521 958.78 129.136C961.702 128.367 961.702 128.367 967.392 124.523C974.312 123.293 975.542 123.908 979.079 125.753C978.925 126.522 978.771 127.752 978.617 128.521C978.31 128.521 978.156 128.521 978.002 128.982C978.31 129.905 978.617 131.289 978.925 132.212L979.079 132.519C979.386 132.519 979.694 132.519 981.693 133.749C982.462 134.518 983.384 135.595 983.999 136.364C983.538 137.133 982.923 138.055 982.308 138.824C982.308 138.824 982.154 138.824 981.385 139.593C980.924 140.516 980.155 141.592 979.694 142.361L979.54 142.668C979.694 142.668 979.848 142.668 981.078 143.745C981.847 144.052 982.923 144.36 983.846 144.667C983.999 145.59 984.153 146.82 984.307 147.897C985.076 148.358 985.999 148.973 986.767 149.588C986.255 149.588 985.793 149.537 985.383 149.435C985.845 150.203 986.614 151.126 987.075 151.895C986.306 152.51 985.537 153.279 984.768 153.894C984.871 153.894 984.973 153.894 985.076 153.894C983.846 154.817 982.154 155.739 980.77 156.508L979.848 157.123H979.694C978.771 156.969 977.541 156.662 976.618 156.508C976.311 155.739 975.849 154.663 975.388 153.74C974.619 153.586 973.543 153.125 972.774 152.818L972.313 153.279C972.466 153.279 972.466 153.279 971.851 154.355C972.005 156.201 972.62 158.507 973.389 160.199C973.081 160.199 972.825 160.199 972.62 160.199C972.62 161.583 972.159 163.582 971.697 164.812C971.851 164.812 972.005 164.812 971.544 166.042C970.621 166.503 969.545 166.965 968.622 167.426C967.853 166.965 966.93 166.196 966.162 165.735C965.546 166.503 964.624 167.426 964.009 168.041H963.701C960.164 168.195 959.088 166.35 957.858 164.043C957.243 164.351 956.628 164.812 956.012 165.273C954.936 158.969 951.245 157.123 942.327 158.661C945.248 154.202 946.478 153.279 949.246 151.434L949.554 151.28C949.554 151.28 949.554 151.28 951.553 151.434C952.014 151.587 952.476 151.587 953.091 151.741C957.396 150.972 960.626 147.743 964.47 146.205C964.778 145.898 965.393 145.744 965.7 145.59C965.393 144.667 965.085 143.437 964.931 142.515C960.779 145.744 960.779 145.744 958.78 146.974C958.78 146.974 958.729 146.974 958.627 146.974L956.935 144.821C959.242 143.899 960.626 142.668 963.086 140.516C962.932 139.593 962.471 138.517 962.317 137.594C962.779 136.979 963.701 136.056 964.163 135.287L962.317 136.671L962.01 136.979C961.907 136.979 961.805 136.979 961.702 136.979C961.702 136.979 961.702 136.979 960.779 137.594C957.089 137.133 956.474 137.133 952.322 139.9L952.168 140.208C952.476 140.208 952.629 140.208 952.783 140.977C950.169 145.283 943.095 149.588 937.713 146.82C937.098 147.589 936.176 148.358 935.56 149.127V149.435C935.714 149.435 935.868 149.588 937.098 150.05L937.867 149.742C937.97 149.845 938.072 149.896 938.175 149.896C938.277 149.896 938.38 149.896 938.482 149.896C938.636 149.896 938.943 149.896 938.79 150.665C938.328 152.356 938.328 154.817 938.79 156.508V157.277C938.482 157.277 938.328 157.123 937.867 158.046C937.098 158.815 936.176 159.737 935.407 160.506C934.638 160.199 933.408 159.891 932.485 159.737C932.792 158.661 933.254 157.431 933.561 156.508C925.873 158.2 925.873 158.2 924.181 158.2C928.794 155.124 928.794 155.124 929.871 151.434C928.487 152.664 926.642 154.202 925.258 155.278C925.258 155.278 925.104 155.278 924.642 155.585C923.874 156.047 922.951 156.662 922.182 157.123C921.567 156.662 920.644 156.047 919.875 155.432C917.876 156.201 915.416 157.431 913.724 158.507C913.724 158.507 913.724 158.507 911.418 159.891C908.496 161.429 905.728 162.813 902.806 164.504C901.115 165.735 899.116 167.58 897.886 169.118C897.988 169.118 898.091 169.118 898.193 169.118C894.041 173.577 894.041 173.577 892.811 175.884V176.653C892.504 176.499 892.35 176.499 890.966 178.959C890.351 179.728 889.582 180.805 888.967 181.727C889.172 181.727 889.326 181.727 889.428 181.727L889.736 182.189L890.658 182.035C890.812 182.035 890.812 182.035 892.657 182.342C892.965 182.496 893.272 182.496 893.734 183.265C895.425 191.261 901.269 190.492 905.267 190.185C905.267 190.954 905.421 192.184 905.574 193.106C905.369 193.004 905.164 192.953 904.959 192.953C904.344 194.644 903.422 196.797 902.499 198.489C902.653 198.489 902.806 198.489 902.499 200.026C902.499 200.949 902.345 202.025 902.345 202.948C902.96 202.333 903.883 201.564 904.652 200.949L904.344 201.41C904.498 201.41 904.806 201.41 904.959 201.41C904.037 203.102 902.806 205.408 901.73 207.1C901.627 207.1 901.525 207.1 901.422 207.1C900.807 207.869 899.885 208.945 899.27 209.714C899.577 210.483 899.885 211.559 900.038 212.482C904.344 213.097 904.344 213.097 912.34 193.568C913.263 193.722 914.34 194.029 915.262 194.183C915.057 194.183 914.852 194.183 914.647 194.183C915.262 194.49 916.185 194.952 916.8 195.259C924.95 190.185 924.95 189.57 925.565 178.037C926.488 177.729 927.718 177.421 928.487 177.114C937.098 166.657 937.098 166.657 938.636 165.427C947.862 162.505 948.939 166.196 950.169 169.733C951.092 170.194 952.322 170.655 953.245 170.963C952.629 170.963 952.014 170.963 952.629 171.424C953.245 172.193 953.86 173.27 954.475 174.192C953.706 174.654 952.783 175.422 952.014 176.038C952.014 176.038 952.066 176.038 952.168 176.038C951.399 176.653 950.477 177.268 949.861 177.883C949.708 178.805 949.708 180.036 949.554 181.112C951.092 181.881 953.398 182.65 955.09 182.957C957.704 181.266 957.704 181.266 962.779 176.499C963.701 176.653 964.931 176.806 965.854 176.96C966.008 176.96 966.162 176.96 966.623 178.805C966.777 180.497 967.084 182.957 967.238 184.649C966.93 184.649 966.777 184.649 966.93 187.109C966.93 187.878 966.777 189.108 966.777 190.031C967.084 190.031 967.238 190.031 967.238 190.954C966.93 192.799 967.084 195.567 967.699 197.412C969.545 197.412 972.159 197.72 973.85 198.335C973.543 198.335 973.235 198.335 972.928 198.335C973.85 199.873 974.773 202.179 975.388 203.871C975.593 203.871 975.798 203.871 976.003 203.871C976.157 206.177 976.465 207.408 980.616 209.407C980.616 210.329 980.77 211.559 980.77 212.482C980.668 212.482 980.514 212.482 980.309 212.482C979.232 214.174 977.695 216.48 976.464 218.172C976.618 218.172 976.618 218.172 975.849 219.71C974.773 221.247 973.389 223.554 972.466 225.399C973.235 225.86 974.158 226.476 974.927 226.937C974.517 226.937 974.158 226.937 973.85 226.937C974.465 227.398 975.388 228.167 976.157 228.628C976.926 228.475 978.156 228.321 978.925 228.167C980.309 229.244 981.539 231.396 981.847 233.088C982.154 233.088 982.41 233.088 982.615 233.088C984.307 238.931 984.307 238.931 983.384 242.161C983.231 242.161 983.077 242.161 981.693 242.776C981.078 242.314 980.155 241.545 979.54 240.93C978.617 240.93 977.387 241.084 976.311 241.084L975.388 242.007C975.234 242.007 975.234 242.007 972.62 241.238C970.775 240.315 970.775 240.315 961.087 240.315C960.779 238.162 960.626 235.702 971.851 222.324C971.544 221.247 971.082 219.863 970.929 218.941C969.391 220.017 967.392 221.709 966.008 223.093L965.854 223.246C957.704 224.015 957.704 224.015 954.475 226.168C954.475 226.168 954.475 226.168 953.86 226.476C953.091 229.859 952.783 231.089 946.478 232.473C946.632 230.32 946.478 227.552 946.171 225.399L946.017 225.245C944.479 224.477 942.327 223.861 940.635 223.4L940.327 223.708C935.56 226.168 929.563 225.86 925.719 230.474C925.821 230.474 925.924 230.474 926.026 230.474C924.95 232.165 923.566 234.626 922.797 236.471C926.949 234.779 931.562 233.703 935.714 231.55L936.483 231.243C936.637 231.243 936.637 231.243 939.251 230.474C940.02 230.781 941.096 231.243 942.019 231.55C942.327 231.55 942.634 231.55 942.942 231.55C943.711 235.241 943.71 235.241 940.789 240.623C940.481 240.623 940.174 240.623 940.02 240.93C940.327 241.853 940.635 242.929 940.789 243.698C942.48 243.237 944.941 243.237 946.632 243.545C946.325 244.621 946.171 246.005 945.863 247.081C946.171 247.081 946.478 247.081 949.246 247.697C950.477 246.313 952.476 245.082 954.167 244.467C954.321 245.39 954.475 246.62 954.628 247.543C954.936 247.543 955.244 247.543 955.551 249.08C955.705 250.003 955.705 251.233 955.705 252.156C955.705 252.31 955.705 252.463 954.013 254.155C946.94 257.384 938.636 257.692 932.024 262.305C932.024 262.305 932.024 262.305 931.101 262.766C930.178 262.92 928.948 263.074 927.872 263.228C927.41 259.845 927.872 256.462 927.257 253.232C926.642 253.847 925.719 254.77 925.104 255.385C925.001 255.385 924.847 255.385 924.642 255.385C921.874 259.845 915.877 257.846 912.494 260.921C912.597 260.921 912.648 260.921 912.648 260.921C910.803 264.458 910.495 265.073 911.879 270.609C911.572 270.609 911.264 270.609 911.418 272.3C911.11 273.223 910.649 274.299 910.341 275.068C905.421 275.683 900.192 271.839 895.425 275.991C895.63 275.991 895.835 275.991 896.04 275.991C896.04 277.221 895.425 278.913 894.964 280.143C894.195 280.45 892.965 280.912 892.196 281.219C890.966 282.142 890.043 284.141 889.889 285.525C889.582 285.525 889.326 285.474 889.121 285.371C888.659 291.984 884.2 291.83 881.739 291.522C881.432 296.136 881.432 296.289 882.508 301.979C882.201 301.876 881.944 301.825 881.739 301.825C881.739 302.594 881.893 303.67 882.047 304.439C879.74 306.9 879.74 306.9 874.204 309.36C872.82 310.437 872.359 310.898 866.823 317.664C866.669 317.664 866.516 317.664 864.978 319.509C863.748 320.893 862.056 322.738 860.672 324.122C860.672 324.122 860.723 324.122 860.826 324.122C855.751 327.352 855.136 329.043 853.291 333.81C853.137 333.81 852.983 333.81 852.522 335.348C852.983 337.04 853.291 339.346 853.445 341.038C853.752 341.038 854.06 341.038 854.367 342.575C854.572 345.651 854.778 348.778 854.983 351.956C854.675 351.956 854.521 351.956 854.367 352.878C854.367 354.877 854.367 357.338 854.06 359.183C854.367 359.183 854.521 359.183 854.367 360.721C853.752 362.874 852.368 365.642 850.984 367.641C850.369 367.487 849.447 367.487 848.832 367.487C846.679 357.799 845.449 347.804 842.681 338.116C841.758 338.27 840.528 338.577 839.605 338.885C839.144 337.04 838.375 334.579 838.067 332.888C828.072 334.118 828.072 334.118 826.227 333.81C825.458 334.272 824.535 335.04 823.92 335.502L823.613 336.578C823.766 336.578 823.92 336.578 822.997 338.577C822.229 338.577 820.998 338.424 820.076 338.424C817.462 334.272 815.462 332.888 809.465 333.657C809.568 333.657 809.619 333.657 809.619 333.657C807.62 337.347 805.16 339.5 803.16 341.191L802.238 341.653L801.315 342.729C801.161 342.729 801.161 342.729 800.546 343.344C799.624 345.036 799.009 347.65 799.316 349.649C799.419 349.649 799.572 349.7 799.777 349.803C799.316 354.724 799.316 355.031 797.932 360.413C797.83 360.413 797.727 360.362 797.625 360.259C796.856 363.181 796.856 363.181 796.241 367.333C796.343 367.333 796.446 367.384 796.548 367.487C796.087 372.254 796.087 372.869 795.933 378.405C795.779 378.405 795.626 378.251 795.472 379.789C795.472 381.634 795.626 383.941 795.779 385.786C795.984 385.786 796.138 385.837 796.241 385.94C797.163 390.707 797.471 391.783 800.085 397.934C799.88 397.832 799.675 397.78 799.47 397.78C801.93 403.624 801.93 403.624 805.006 405.008C807.312 402.086 807.466 401.932 812.695 401.471C813.156 397.473 813.002 393.475 813.617 389.63C818.692 386.247 825.612 388.708 825.612 388.708C825.919 389.63 826.227 391.014 826.534 391.937C826.688 391.937 826.842 392.091 827.149 393.475C826.996 398.396 826.996 398.396 825.15 402.855C825.048 402.855 824.945 402.804 824.843 402.701C823.151 405.469 823.151 405.469 822.69 409.775C822.844 409.775 822.997 409.775 823.151 411.005C823.305 417.464 823.305 417.464 822.997 420.847C822.844 420.693 822.69 420.693 822.229 421.923C822.229 423 822.229 424.23 822.229 425.306C824.074 425.921 826.688 426.998 828.533 427.92C830.071 426.844 832.378 425.614 834.223 424.999C835.607 426.536 837.298 428.689 838.529 430.381C838.682 430.535 838.99 430.534 840.374 432.534C841.758 436.532 841.758 436.532 841.143 441.606C841.04 441.606 840.887 441.555 840.682 441.453C840.682 443.605 840.528 446.373 840.528 448.526C840.835 448.526 840.989 448.526 841.143 449.603C841.604 454.523 841.604 454.523 842.373 459.137C842.168 459.137 841.963 459.137 841.758 459.137C842.527 461.289 843.603 464.211 844.68 466.364C844.885 466.364 845.09 466.364 845.295 466.364C847.448 470.516 847.448 470.516 851.446 472.207C852.983 471.285 855.136 469.747 856.674 468.671C856.982 468.209 857.289 467.594 857.597 467.133C858.366 467.44 859.442 467.902 860.365 468.209C860.672 468.363 861.134 468.363 862.979 469.593C864.209 471.131 865.593 473.13 866.362 474.822C867.284 474.975 868.668 474.975 869.591 475.129C873.282 469.901 874.358 463.288 879.894 459.444C884.969 455.292 884.969 455.292 887.275 454.062C887.89 454.677 888.813 455.292 889.428 455.907C888.967 458.214 888.352 461.443 887.89 463.75L887.737 464.057C887.634 464.057 887.48 464.057 887.275 464.057C887.121 466.056 887.583 468.363 888.044 470.977C888.352 470.977 888.505 470.977 889.121 472.976C889.736 473.745 890.351 474.822 890.812 475.59C890.658 468.978 890.658 459.905 899.27 459.444C900.192 461.136 901.269 463.442 902.191 465.134C901.884 465.134 901.576 465.134 901.884 466.21C902.653 466.672 903.729 467.287 904.498 467.594C910.495 463.596 912.187 466.672 915.724 472.976C916.031 472.976 916.339 472.976 917.415 471.285C917.569 469.593 918.645 467.44 919.875 466.21C919.875 466.21 919.722 466.21 921.413 465.441C923.412 465.441 926.026 465.903 927.718 466.672C927.205 466.672 926.693 466.62 926.18 466.518C928.641 468.056 930.486 470.516 932.946 472.054C934.023 470.055 935.407 467.287 936.483 465.134L936.637 465.288L937.713 467.133C937.559 467.133 937.252 467.133 937.098 467.748C936.944 469.593 936.637 472.054 936.329 473.899C936.483 473.899 936.637 473.899 936.791 474.514C936.176 476.206 935.56 478.666 935.56 480.665C941.25 481.434 944.787 483.279 946.478 484.202L946.632 484.509C946.325 484.509 945.966 484.509 945.556 484.509C947.401 486.97 949.554 489.123 951.399 491.429C951.809 491.429 952.168 491.429 952.476 491.429C953.552 493.121 955.09 495.12 956.32 496.504C968.93 494.197 968.93 494.197 976.926 501.886C976.464 501.886 976.157 501.886 976.311 502.655C977.695 504.039 979.54 506.038 980.924 507.576L981.693 508.498C982 508.498 982.359 508.498 982.769 508.498C988.305 517.11 988.305 517.11 989.074 518.032C988.613 518.032 988.151 518.032 988.151 518.494C991.688 519.57 991.996 519.57 993.687 524.337C993.995 524.337 994.251 524.337 994.456 524.337C992.918 528.028 992.303 529.412 983.999 532.641L983.231 532.948L982.769 533.41C982.769 533.41 982.615 533.41 981.847 534.486C982.462 535.101 983.231 536.178 983.846 536.793C989.382 536.639 994.917 527.72 999.992 533.564C999.684 533.564 999.531 533.563 999.531 535.87C999.223 536.639 998.916 537.869 998.608 538.638L998.147 539.561C998.3 539.561 998.454 539.561 997.224 541.098C996.455 541.56 995.533 542.329 994.917 542.79C995.225 543.405 995.686 544.328 995.994 544.943C996.917 544.943 998.147 544.943 999.069 545.097C999.838 540.637 1000.3 539.868 1002.45 536.024C1007.22 535.409 1009.37 535.563 1015.22 538.792L1016.45 539.561C1016.75 539.561 1017.21 539.561 1019.83 540.945C1027.21 545.25 1036.44 543.713 1043.97 548.018C1043.51 548.018 1043.05 548.172 1044.43 549.402C1045.82 550.786 1047.66 552.478 1049.05 553.708C1049.56 553.708 1050.07 553.708 1050.58 553.708C1060.43 557.245 1060.43 557.245 1063.81 561.704C1063.35 561.704 1063.04 561.704 1063.81 563.703C1064.12 564.626 1064.58 565.856 1064.73 566.779C1064.73 566.881 1064.73 567.035 1064.73 567.24C1065.04 567.24 1065.19 567.24 1065.35 568.009C1065.19 570.008 1064.42 572.007 1063.35 575.236ZM958.012 163.889C957.909 163.889 957.858 163.889 957.858 163.889C957.858 163.992 957.858 164.043 957.858 164.043C957.858 164.043 957.909 163.992 958.012 163.889ZM920.644 123.447C920.747 123.447 920.798 123.447 920.798 123.447C920.696 123.447 920.644 123.447 920.644 123.447ZM932.946 114.989C931.101 115.912 929.102 116.834 926.949 117.757C928.333 117.142 929.563 116.527 932.946 114.989ZM895.118 251.233C893.272 250.311 891.12 250.926 889.121 250.772C888.505 250.618 888.505 250.618 888.352 250.464C888.249 250.464 888.095 250.464 887.89 250.464C887.275 250.926 886.968 251.233 886.045 252.002C886.045 252.002 885.994 252.002 885.891 252.002C883.892 253.694 882.354 255.231 879.894 257.846C879.997 257.846 880.048 257.846 880.048 257.846C878.356 259.691 878.356 259.691 877.895 259.845L877.587 259.998C870.052 263.382 869.899 265.073 869.745 266.457C869.54 266.457 869.335 266.406 869.13 266.303L868.976 267.072C868.976 269.071 871.436 267.841 871.59 267.841C873.435 266.765 874.973 265.227 876.665 263.997C878.51 262.92 880.509 262.151 882.354 261.075C882.816 260.614 883.431 260.152 883.892 259.691C885.122 258.461 885.43 258.153 887.121 257.538C889.428 256.769 894.81 254.924 895.579 253.694C896.04 252.925 896.04 251.541 895.118 251.233ZM885.737 241.392C885.584 239.854 885.43 239.085 884.969 238.778C884.661 238.624 884.353 238.624 884.2 238.624C882.201 237.855 879.74 237.701 878.971 238.009C878.664 238.009 878.51 238.009 878.203 238.009C876.357 237.394 875.127 235.395 872.974 235.241C872.974 235.241 869.13 234.933 864.824 239.393C864.824 239.393 864.875 239.393 864.978 239.393C863.44 241.545 862.517 243.237 860.211 248.465C860.211 248.465 860.16 248.465 860.057 248.465C859.955 248.465 859.852 248.465 859.75 248.465C858.212 252.002 858.212 252.002 856.982 254.616C857.084 254.616 857.187 254.616 857.289 254.616C853.599 262.459 854.367 263.535 854.829 264.304C854.521 264.202 854.162 264.15 853.752 264.15L854.214 264.919C854.829 265.073 855.29 264.765 855.751 264.458L856.059 264.304C857.597 262.561 858.878 260.152 859.903 257.077C863.44 246.466 867.9 243.237 872.82 240.623C873.846 240.725 874.871 240.879 875.896 241.084C877.28 243.237 876.511 244.929 874.051 250.464C873.948 250.464 873.794 250.464 873.589 250.464C872.359 253.54 871.898 255.385 872.205 256.923C872.513 256.923 872.82 256.923 873.128 256.923C873.333 257.025 873.487 257.077 873.589 257.077C877.587 254.77 878.049 252.463 878.203 251.695C878.664 248.465 882.201 242.776 882.97 242.314C882.97 242.519 882.918 242.724 882.816 242.929L883.431 242.007C883.533 242.007 883.585 242.007 883.585 242.007C883.585 242.212 883.533 242.366 883.431 242.468C881.586 247.696 884.507 248.004 884.507 248.004C885.737 245.236 885.737 242.007 885.737 241.392ZM879.74 226.629C879.894 226.322 879.894 225.707 879.586 225.553C879.125 225.245 878.51 224.784 878.049 222.939C877.587 221.093 877.587 219.863 877.587 218.633C877.587 218.479 877.587 218.326 877.587 218.172C877.434 218.018 877.434 217.864 877.126 217.864C876.203 217.71 874.358 218.941 871.283 220.786C868.515 222.477 867.592 222.939 866.977 223.093C865.901 223.708 864.517 223.708 863.286 224.477C862.825 224.784 859.288 228.628 861.749 229.397C862.364 229.397 862.979 229.397 863.901 228.936C865.747 228.013 869.437 226.629 870.052 227.091C870.052 227.552 869.745 228.013 869.899 228.628C869.899 228.936 870.052 229.244 870.36 229.397C870.975 229.705 871.59 229.705 872.205 229.859C872.974 230.166 873.743 230.628 874.358 230.935C874.973 231.243 875.435 231.396 875.588 231.396C876.05 231.243 878.51 228.628 879.279 227.398C879.433 227.091 879.586 226.783 879.74 226.629ZM829.61 194.798C828.533 196.182 827.303 197.72 826.38 198.95C826.38 198.95 826.38 198.899 826.38 198.796C824.843 200.949 823.613 203.256 822.229 205.255C822.229 205.357 822.229 205.408 822.229 205.408C820.537 207.561 817.769 211.252 817.462 212.021C817.923 211.559 818.23 211.252 819.153 210.022C823.305 204.793 829.61 194.798 829.61 194.798ZM1008.14 656.583L1007.83 656.429L1007.99 656.583C1008.09 656.583 1008.14 656.583 1008.14 656.583Z" fill="#292929"/>
<path d="M975.081 106.84C974.312 107.148 973.544 107.302 972.928 107.609C972.928 107.609 972.877 107.609 972.775 107.609C968.469 108.993 968.469 108.993 968.008 108.993C968.315 108.532 968.777 108.686 969.084 108.378C968.469 108.071 968.008 108.532 967.393 108.532C967.393 108.532 968.777 107.763 972.621 106.687H973.082C974.005 106.482 974.979 106.225 976.004 105.918C978.772 105.303 979.233 105.303 979.541 105.303C979.233 105.457 979.233 105.457 975.081 106.84Z" fill="#292929"/>
<path d="M977.847 109.454C973.695 111.146 973.695 111.146 973.848 110.684C974.156 109.915 974.463 109.762 976.616 108.839C977.539 108.531 977.693 108.531 977.693 108.378C977.078 108.224 976.463 108.531 975.847 108.378C975.847 108.378 975.796 108.378 975.694 108.378C976.309 107.763 983.229 104.995 985.228 105.456C986.458 106.071 978 109.454 978 109.454C977.898 109.454 977.847 109.454 977.847 109.454Z" fill="#292929"/>
<path d="M959.09 123.294C958.014 123.909 957.86 123.909 956.322 124.371C952.017 124.678 952.017 124.678 952.017 124.678C951.555 123.14 960.782 120.526 961.858 120.219C962.063 120.219 962.268 120.27 962.473 120.373C961.551 121.449 961.551 121.449 961.705 121.449C961.499 121.859 960.628 122.474 959.09 123.294Z" fill="#292929"/>
<path d="M980.617 120.373C978.771 121.604 976.311 122.987 972.467 120.835C972.005 120.527 971.236 120.066 968.315 120.527C968.007 120.373 967.546 120.066 967.238 119.758C967.7 118.682 967.7 118.682 970.929 116.221C971.698 115.606 971.852 114.684 972.62 113.915C972.774 113.761 973.236 113.3 974.466 112.377C976.311 110.993 977.387 110.224 982.154 108.533C982.001 108.533 981.847 108.686 981.693 108.84C982.001 108.635 982.359 108.481 982.77 108.379C982.001 108.686 982.001 108.686 980.77 110.224C980.565 110.122 980.412 110.07 980.309 110.07C980.002 110.532 979.848 111.147 979.386 111.608C979.079 111.916 978.771 112.069 977.08 113.3C977.182 113.3 977.285 113.3 977.387 113.3C976.772 113.761 973.389 116.221 973.082 116.837C973.697 117.298 974.312 116.99 974.927 117.144C975.696 117.298 976.311 117.605 976.926 117.759C977.234 117.759 977.592 117.81 978.003 117.913C978.003 117.913 979.848 118.22 980.77 118.067C981.232 118.067 981.693 118.528 981.539 119.451C981.437 119.451 981.283 119.451 981.078 119.451C981.078 119.758 981.078 120.066 980.617 120.373Z" fill="#292929"/>
<path d="M1100.56 153.433C1100.72 153.895 1101.02 155.279 1100.41 157.431C1100.31 157.431 1100.25 157.431 1100.25 157.431L1100.1 157.893C1097.74 158.303 1096.46 158.918 1096.26 159.738C1095.95 161.583 1091.95 164.351 1089.8 163.736C1089.03 163.582 1088.11 162.66 1087.49 161.891C1086.88 160.968 1086.26 160.046 1083.8 160.046C1083.03 160.046 1082.26 160.353 1081.49 160.353C1081.34 160.353 1080.72 160.199 1080.11 159.738C1079.49 159.123 1074.27 153.741 1076.27 150.819C1076.42 150.665 1077.19 150.512 1077.34 150.512C1080.42 150.512 1081.65 151.434 1083.65 152.818C1084.36 152.716 1085.03 152.664 1085.65 152.664C1087.64 151.896 1089.95 151.896 1091.64 150.512C1092.1 150.204 1092.57 150.05 1092.87 149.896C1092.87 149.896 1094.87 150.05 1098.26 151.742C1098.56 151.639 1098.82 151.588 1099.02 151.588L1099.64 152.049C1099.95 152.357 1100.41 152.972 1100.56 153.433Z" fill="#292929"/>
<path d="M871.13 402.087L870.207 403.009C868.977 404.393 865.44 403.471 863.902 402.24C863.749 402.087 863.441 401.933 863.441 401.779C863.287 401.625 863.133 401.472 862.98 401.318C862.672 401.01 862.365 400.549 862.211 400.241C860.212 397.935 857.905 395.782 855.906 393.321C855.137 392.399 854.676 391.169 853.907 390.246C852.523 388.554 848.679 388.247 845.296 387.939C838.068 387.324 838.068 387.324 837.607 387.017C836.992 386.863 836.223 386.248 836.223 384.095C836.223 383.787 836.223 383.326 836.223 382.865C836.377 382.865 836.684 382.711 836.838 382.711V382.403C843.604 379.943 845.603 379.943 846.372 379.789C848.217 380.097 850.831 380.404 853.292 382.403C855.599 384.095 856.675 386.709 858.52 388.862C858.11 388.862 857.7 388.811 857.29 388.708C860.468 392.501 862.877 394.347 864.517 394.244C865.901 394.09 867.285 395.782 868.362 397.32C868.772 397.32 869.131 397.371 869.438 397.473C871.437 400.856 871.284 401.933 871.13 402.087Z" fill="#292929"/>
<path d="M1238.03 265.534C1238.65 267.226 1238.34 268.918 1237.42 270.609C1237.26 270.917 1236.65 271.685 1235.11 270.917C1231.11 268.764 1229.88 260.921 1232.04 260.152C1232.14 260.152 1232.19 260.152 1232.19 260.152C1233.27 260.152 1234.34 261.075 1235.88 262.92C1236.19 262.92 1236.44 262.869 1236.65 262.767C1236.96 263.382 1237.73 264.304 1238.03 265.534Z" fill="#292929"/>
<path d="M1216.51 270.15C1216.81 270.765 1216.81 270.765 1216.2 271.996C1215.58 273.533 1213.58 273.072 1213.12 271.996C1212.97 271.534 1213.12 269.997 1213.43 269.381C1213.43 269.381 1213.43 269.074 1213.58 268.92C1213.74 268.766 1213.89 268.766 1213.89 268.613C1214.05 268.459 1214.05 268.305 1214.2 268.151C1214.35 267.998 1214.51 267.998 1214.66 267.844C1215.58 267.844 1216.35 269.381 1216.51 270.15Z" fill="#292929"/>
<path d="M1262.49 278.451C1263.25 281.066 1261.1 283.065 1259.41 282.142C1259.26 281.988 1259.1 281.834 1258.8 281.681C1257.72 280.912 1256.8 279.835 1255.57 278.913C1254.64 278.298 1253.57 277.836 1252.64 277.067C1251.57 276.298 1251.11 275.683 1250.65 275.376C1249.11 273.531 1250.95 272.915 1251.26 272.762C1251.36 272.762 1251.47 272.762 1251.57 272.762C1252.03 272.762 1256.03 272.454 1257.1 272.762C1258.33 273.069 1259.26 274.146 1260.18 275.222C1260.38 275.222 1260.59 275.171 1260.79 275.068L1261.41 276.145C1261.87 276.76 1262.33 277.682 1262.49 278.451Z" fill="#292929"/>
<path d="M1154.38 202.795C1155 204.025 1155 204.948 1155 205.409C1154.89 205.409 1154.79 205.409 1154.69 205.409C1154.69 206.486 1154.84 207.716 1153.92 209.408C1153.15 210.638 1150.23 213.867 1149.92 214.175C1148.38 215.251 1146.85 216.02 1144.08 213.406C1142.85 212.329 1141 210.023 1141.77 208.639C1142.23 207.87 1142.39 207.716 1141.93 206.793C1141.16 204.794 1139.31 203.41 1138.7 201.257C1138.24 200.181 1138.24 200.181 1139.31 198.49C1139.72 198.49 1140.18 198.438 1140.7 198.336C1141.31 198.028 1141.47 197.874 1141.47 196.183C1141.62 194.645 1141.77 193.569 1143.93 193.261C1147.31 193.107 1149 195.414 1150.54 197.259C1150.74 197.259 1150.95 197.259 1151.15 197.259C1153.31 200.335 1154.38 202.641 1154.38 202.795Z" fill="#292929"/>
<path d="M1183.14 208.331C1183.91 211.561 1182.21 214.482 1181.45 214.944C1180.52 215.405 1178.68 215.251 1175.76 214.79C1171.14 214.021 1170.68 214.175 1170.07 214.636C1168.99 215.559 1169.91 217.558 1168.22 217.865C1167.76 218.019 1167.14 217.404 1167.14 217.404C1166.68 217.097 1166.22 216.174 1166.22 214.021C1163.61 213.406 1159.3 216.943 1158.23 213.406C1157.61 211.561 1159.92 202.488 1160.69 200.95C1160.99 200.489 1161.3 199.72 1161.45 199.259C1160.53 198.182 1160.07 197.875 1155.61 196.644C1152.07 195.722 1149.46 194.953 1142.23 187.726C1139.31 184.804 1137.93 181.113 1140.39 181.267C1143.46 181.421 1143.46 181.421 1143.46 180.652C1143.46 179.268 1143.46 176.961 1145.15 176.5C1145.31 176.5 1145.31 176.5 1147.77 177.269C1147.92 177.423 1147.92 177.423 1153.77 177.576C1152.64 177.781 1151.51 177.935 1150.38 178.038C1154.69 177.884 1158.23 178.192 1158.69 182.343C1158.79 182.343 1158.84 182.343 1158.84 182.343C1158.69 187.726 1158.69 187.726 1161.76 190.186C1161.56 190.288 1161.35 190.34 1161.15 190.34C1162.99 191.877 1164.99 193.569 1166.84 195.261C1167.14 195.158 1167.4 195.107 1167.61 195.107C1170.99 197.875 1175.14 199.566 1178.52 202.334C1178.22 202.334 1177.96 202.334 1177.75 202.334C1181.45 205.41 1182.06 206.64 1182.52 207.562C1182.62 207.562 1182.68 207.562 1182.68 207.562C1182.78 207.562 1182.88 207.562 1182.98 207.562C1182.98 207.716 1183.14 208.024 1183.14 208.331Z" fill="#292929"/>
<path fill-rule="evenodd" clip-rule="evenodd" d="M1154.38 107.609C1154.79 107.814 1155.15 107.968 1155.46 108.07C1153.92 107.455 1153 107.148 1151 106.379C1151.61 106.584 1152.23 106.84 1152.84 107.148C1153.46 107.353 1153.97 107.506 1154.38 107.609ZM1160.99 110.223L1161.76 110.531L1169.6 113.914C1159.3 109.608 1148.54 105.764 1141.92 103.457C1143.62 104.072 1145.77 104.687 1147.61 105.302C1147.82 105.405 1148.07 105.456 1148.38 105.456C1149.77 106.071 1151.3 106.533 1152.84 107.148C1153.92 107.455 1154.99 107.917 1155.92 108.224C1155.71 108.122 1155.56 108.07 1155.46 108.07C1156.84 108.532 1157.46 108.839 1160.99 110.223ZM1147.92 105.302C1148.02 105.405 1148.07 105.456 1148.07 105.456C1148.18 105.456 1148.28 105.456 1148.38 105.456C1149.41 105.866 1150.28 106.174 1151 106.379C1150.59 106.276 1150.23 106.174 1149.92 106.071L1149.31 105.764C1148.28 105.456 1147.31 105.149 1146.38 104.841C1146.38 104.841 1146.33 104.841 1146.23 104.841C1145.1 104.431 1143.97 104.021 1142.85 103.611C1144.69 104.226 1146.23 104.841 1147.61 105.302C1147.72 105.302 1147.82 105.302 1147.92 105.302ZM1172.52 115.144L1169.6 113.914C1170.53 114.324 1171.5 114.734 1172.52 115.144ZM1172.52 115.144L1174.22 115.913C1191.13 123.755 1193.28 125.139 1215.43 138.825C1229.11 148.205 1230.04 148.974 1251.57 167.581C1263.25 178.499 1263.56 178.807 1282.63 201.258C1292.32 213.713 1292.62 214.175 1308 239.394C1315.69 253.08 1315.69 253.08 1327.38 281.374C1330.76 291.523 1334.76 305.209 1337.53 315.666C1337.22 314.282 1333.99 303.056 1330.3 294.906C1330.76 296.906 1331.37 299.52 1331.99 301.519C1331.99 301.365 1331.99 301.365 1332.45 302.749C1333.37 305.671 1333.37 305.671 1335.22 310.899C1335.22 310.899 1335.17 310.95 1335.06 311.053C1335.83 312.898 1336.6 315.358 1337.06 317.204C1337.06 317.101 1337.06 317.05 1337.06 317.05C1337.83 319.818 1337.83 319.818 1339.52 326.123V326.43C1339.52 326.533 1339.52 326.635 1339.52 326.738C1340.14 328.891 1340.29 329.967 1340.75 332.735C1342.6 345.806 1344.14 362.106 1344.91 374.562C1345.06 401.318 1343.21 405.932 1340.75 409.161C1341.22 349.496 1322.46 319.203 1322.3 318.895C1321.84 319.664 1321.23 320.741 1320.76 321.509L1321.23 322.586C1321.23 322.586 1321.07 322.74 1321.38 323.662C1321.99 325.354 1322.92 327.507 1323.53 329.352C1323.69 329.198 1323.69 329.198 1324.76 331.505C1325.53 333.811 1326.45 336.733 1327.22 339.04C1327.12 339.142 1327.02 339.194 1326.91 339.194C1327.53 341.193 1328.3 343.961 1328.91 345.96C1329.07 345.96 1329.22 345.806 1329.68 347.036C1330.76 350.88 1330.76 351.034 1331.53 356.109C1331.53 356.263 1331.37 356.263 1331.53 358.108C1331.84 359.646 1331.99 361.952 1332.14 363.49C1332.3 363.49 1332.3 363.49 1332.6 365.028C1333.07 370.41 1333.07 370.41 1333.53 374.254C1333.53 374.254 1333.37 374.408 1333.53 375.638C1333.99 377.176 1334.6 379.329 1335.22 380.866C1335.32 380.764 1335.42 380.713 1335.53 380.713C1337.06 384.403 1337.37 385.941 1337.99 389.939V390.247C1337.88 390.247 1337.83 390.298 1337.83 390.4C1338.14 392.707 1338.14 395.014 1338.45 397.167C1338.55 397.167 1338.65 397.115 1338.76 397.013C1339.06 400.242 1339.83 403.318 1339.99 406.547C1339.99 406.649 1339.93 406.701 1339.83 406.701C1339.99 408.7 1339.99 411.314 1339.99 413.313C1340.14 413.313 1340.14 413.313 1340.14 414.389C1339.99 417.772 1339.99 417.772 1339.37 423.77C1339.37 423.77 1339.22 423.77 1339.06 424.692C1339.37 425.615 1339.52 426.691 1339.83 427.46C1340.45 425.615 1341.22 423.001 1341.68 421.002V420.848C1342.29 417.926 1342.45 417.465 1343.52 411.621C1343.37 413.467 1343.06 415.773 1342.91 417.465C1342.91 417.619 1342.91 417.619 1342.75 419.464C1342.45 421.155 1342.14 423.308 1341.98 425C1341.98 425 1341.98 425 1341.68 426.076C1341.22 429.613 1340.91 431.305 1340.14 435.918C1340.14 435.918 1340.14 435.918 1339.83 437.609C1339.37 439.301 1338.91 441.761 1338.45 443.607C1338.55 443.504 1338.6 443.453 1338.6 443.453C1337.37 448.374 1337.06 449.757 1335.83 454.678C1335.83 454.678 1335.83 454.678 1335.53 455.908C1335.06 457.6 1334.45 459.753 1333.99 461.444L1333.83 462.059C1333.83 461.957 1333.83 461.906 1333.83 461.906C1332.3 467.134 1331.84 468.672 1330.3 472.977C1330.14 472.977 1330.14 472.977 1329.22 475.438C1328.45 477.129 1327.53 479.436 1326.76 481.128C1326.86 481.128 1326.91 481.128 1326.91 481.128C1324.76 486.048 1324.3 487.278 1322.15 492.046C1322.15 492.046 1322.15 492.045 1321.69 493.122C1320.76 494.813 1319.69 497.12 1318.92 498.812L1318.76 499.273C1318.76 499.119 1318.76 499.119 1317.69 501.58C1315.54 505.731 1315.23 506.347 1313.54 509.576C1313.54 509.576 1313.54 509.576 1312.92 510.498C1311.84 512.344 1310.46 514.804 1309.38 516.496C1309.54 516.496 1309.54 516.496 1309.08 517.418C1307.54 520.289 1306 523.108 1304.46 525.876C1304.46 525.876 1304.46 525.876 1304 526.799C1303.08 528.183 1302 530.335 1301.23 531.873C1301.39 531.719 1301.39 531.719 1300.47 533.565C1299.39 535.564 1298.01 538.178 1296.77 540.023C1296.77 540.126 1296.72 540.177 1296.62 540.177C1295.85 541.715 1294.78 543.868 1293.85 545.405C1294.01 545.252 1294.01 545.252 1293.7 545.867C1291.55 549.096 1291.55 549.096 1288.47 553.555C1288.47 553.555 1288.42 553.555 1288.32 553.555C1287.24 555.247 1285.55 557.4 1284.47 559.091C1284.47 559.091 1284.47 558.937 1283.24 560.783C1282.17 562.32 1280.47 564.32 1279.24 566.011L1278.48 567.088C1278.32 567.088 1278.32 567.088 1277.71 567.856C1276.48 569.24 1274.79 571.239 1273.55 572.623C1273.55 572.623 1273.55 572.623 1271.86 574.622C1268.33 578.313 1268.02 578.774 1265.4 581.235C1265.4 581.389 1265.4 581.389 1264.17 582.619C1262.79 584.003 1260.95 585.694 1259.56 587.078C1259.56 587.078 1259.56 587.078 1258.18 588.308C1254.95 591.538 1254.64 591.845 1251.26 594.921C1251.26 594.921 1251.26 594.921 1249.26 596.766C1248.49 597.535 1247.57 598.458 1246.8 599.073L1246.18 599.688C1246.34 599.688 1246.34 599.688 1245.11 600.918C1243.42 602.456 1241.26 604.455 1239.57 605.993C1239.57 605.993 1239.52 605.993 1239.42 605.993C1238.03 607.223 1236.03 608.914 1234.65 610.144C1234.65 610.144 1234.7 610.144 1234.8 610.144C1234.8 610.144 1234.65 610.144 1233.42 611.221C1230.34 613.374 1227.11 615.527 1224.04 617.833C1223.94 617.833 1223.89 617.833 1223.89 617.833C1222.35 619.063 1220.5 620.447 1219.12 621.677C1219.12 621.524 1219.27 621.524 1218.35 622.293C1215.43 624.292 1215.12 624.599 1210.97 627.367C1210.97 627.367 1210.81 627.367 1210.05 627.982C1208.35 629.059 1206.05 630.443 1204.36 631.365C1204.36 631.365 1204.41 631.365 1204.51 631.365C1200.05 634.133 1198.21 635.056 1194.82 637.055C1194.82 637.055 1194.82 637.055 1193.9 637.516C1192.21 638.439 1189.9 639.669 1188.21 640.746C1188.21 640.643 1188.21 640.592 1188.21 640.592C1181.14 644.436 1172.83 647.665 1167.91 648.896C1184.52 639.208 1212.66 623.215 1242.65 568.164C1242.65 568.01 1250.64 549.557 1251.26 546.174C1252.8 537.409 1248.34 528.798 1250.03 519.879C1252.03 510.037 1260.64 503.117 1261.71 492.968C1261.87 490.046 1261.71 489.431 1256.95 485.279C1251.26 491.584 1250.8 491.738 1246.95 492.199C1237.42 477.129 1237.42 477.129 1235.73 477.283C1226.96 478.206 1224.81 487.432 1218.2 490.969C1210.97 494.813 1202.51 491.277 1195.28 494.813C1194.21 495.275 1193.44 496.966 1192.67 497.889L1192.05 499.273C1192.26 499.273 1192.46 499.273 1192.67 499.273C1192.05 499.888 1191.29 500.811 1190.67 501.426C1188.52 501.118 1181.29 498.812 1174.06 479.436C1170.22 468.979 1158.22 467.595 1152.53 459.138C1148.23 452.525 1150.54 444.529 1148.07 437.456L1148.38 437.302L1148.84 436.84C1160.38 420.54 1146.23 402.549 1152.38 385.941C1165.61 350.419 1165.61 350.419 1171.91 345.96C1173.29 344.883 1175.75 343.653 1176.22 341.961C1176.83 339.655 1176.52 336.426 1176.22 333.965C1175.14 321.202 1178.52 316.435 1180.06 314.128L1181.29 313.052C1189.75 306.132 1200.2 302.288 1208.51 294.906L1208.66 294.753C1208.56 294.753 1208.51 294.753 1208.51 294.753C1208.82 294.599 1239.88 268.457 1252.8 286.295L1253.41 287.371C1253.21 287.371 1253 287.423 1252.8 287.525C1253.41 289.063 1254.18 291.062 1254.95 292.6C1253.72 294.291 1252.03 296.598 1251.1 298.289C1252.18 299.827 1252.18 299.827 1258.18 304.133C1257.87 304.235 1257.56 304.287 1257.25 304.287C1259.87 306.286 1259.87 306.286 1268.17 309.207C1268.63 309.207 1269.1 309.054 1269.86 309.207C1274.17 311.975 1278.78 314.128 1283.24 316.742C1282.94 316.742 1282.63 316.896 1282.78 317.358C1283.7 317.665 1284.78 318.28 1285.55 318.741C1286.32 318.126 1287.09 317.511 1287.86 317.05C1288.32 311.36 1287.39 305.824 1288.62 300.289C1290.16 300.904 1292.32 301.826 1293.85 302.749C1294.16 302.646 1294.47 302.544 1294.78 302.441C1297.85 302.595 1300.77 301.365 1303.85 300.904C1305.69 303.518 1305.69 303.518 1305.08 310.13C1305.08 310.13 1305.08 310.284 1304.77 311.36C1304.62 313.206 1304.46 315.512 1304.46 317.358L1304.77 317.819C1304.98 317.716 1305.18 317.614 1305.39 317.511C1305.49 317.511 1305.59 317.511 1305.69 317.511C1307.23 303.364 1307.23 303.364 1311.23 301.519C1311.84 302.288 1312.46 303.057 1312.92 303.825C1313.54 303.057 1314.15 302.134 1314.77 301.365C1313.54 294.138 1310.15 274.608 1304.31 269.38C1302.77 274.147 1301.39 273.839 1298.31 273.378C1297.54 273.993 1296.77 274.608 1296.01 275.07C1287.7 269.687 1287.7 269.687 1278.32 253.08C1277.4 253.234 1276.32 253.387 1275.55 253.387V254.464C1275.4 256.001 1274.94 258.001 1274.63 259.384C1276.02 260.615 1277.71 261.999 1278.94 263.229C1278.73 263.229 1278.58 263.28 1278.48 263.383C1279.55 264.613 1280.94 266.458 1281.7 267.996L1282.17 269.38C1282.32 269.38 1282.47 269.38 1282.63 271.071C1282.17 274.147 1282.01 277.376 1281.7 280.605C1281.55 280.605 1281.55 280.605 1281.4 282.143C1280.78 282.758 1280.17 283.681 1279.71 284.45C1253.26 233.55 1234.03 234.473 1232.04 234.781C1232.8 236.318 1234.19 238.164 1235.42 239.394C1235.27 239.548 1234.96 239.548 1236.34 240.778C1238.03 241.854 1240.19 243.546 1241.57 244.93C1241.77 244.827 1241.98 244.776 1242.18 244.776C1242.18 244.776 1242.34 244.776 1243.72 246.16C1247.41 249.389 1247.72 249.697 1252.49 252.157L1253.1 252.465C1252.8 252.567 1252.49 252.618 1252.18 252.618C1254.03 253.695 1254.95 254.156 1260.02 257.693C1260.33 257.693 1260.48 257.539 1261.87 258.308L1261.56 258.923C1261.56 259.077 1261.41 259.231 1261.41 259.384C1260.64 259.846 1259.56 260.307 1258.79 260.615C1259.41 262.306 1259.56 262.46 1262.64 267.688C1262.48 267.688 1262.33 267.688 1262.64 268.611C1263.56 270.302 1264.64 272.455 1265.4 273.993C1265.56 273.993 1265.71 273.993 1264.48 275.223C1233.88 246.467 1233.88 246.467 1226.04 244.007C1224.65 245.083 1223.27 246.929 1222.66 248.62C1222.19 249.389 1221.43 250.619 1220.96 251.388C1218.5 251.85 1218.5 251.85 1211.28 250.466C1210.51 252.618 1210.51 252.618 1212.05 260.307C1211.94 260.307 1211.79 260.307 1211.58 260.307C1211.58 261.076 1211.43 262.152 1211.28 262.921C1209.58 263.69 1207.59 265.074 1206.36 266.304L1205.74 267.842C1205.89 267.842 1205.89 267.842 1205.59 268.919C1203.74 274.301 1203.89 274.608 1206.36 277.991C1206.05 277.991 1205.74 277.991 1206.82 279.837C1206.2 281.374 1205.13 283.527 1204.36 285.065C1204.51 285.065 1204.51 285.065 1204.05 286.449C1203.13 288.448 1200.67 293.984 1191.75 293.369C1191.44 293.676 1191.13 293.83 1190.82 293.984C1190.67 294.906 1190.36 296.137 1190.21 297.213C1190.06 297.213 1189.9 297.213 1189.75 297.674C1189.13 298.443 1188.36 299.366 1187.75 300.135C1182.06 292.6 1182.06 292.6 1174.99 293.83C1163.45 284.296 1161.91 258.308 1164.68 254.002C1172.83 252.311 1181.75 256.77 1189.29 250.773C1188.06 234.934 1184.52 233.858 1169.6 229.552C1169.6 228.63 1169.6 227.399 1169.76 226.477C1171.29 225.862 1173.29 224.785 1174.68 223.863C1174.68 223.863 1174.68 223.863 1175.6 222.632C1184.98 217.096 1184.98 217.096 1186.06 216.02C1185.44 214.021 1184.67 211.407 1184.21 209.408C1184.83 208.485 1186.21 207.562 1187.13 206.947C1187.59 206.794 1188.21 206.794 1188.83 205.717C1188.83 203.411 1189.13 200.335 1189.29 198.028L1189.44 197.721C1189.75 197.106 1190.21 196.183 1190.67 195.568C1192.36 195.26 1194.67 195.107 1196.36 195.414C1196.67 195.414 1196.82 195.414 1197.13 195.568C1188.21 188.033 1188.21 188.033 1185.75 181.421C1186.21 180.652 1186.83 179.575 1187.29 178.96C1190.52 179.575 1190.52 179.575 1194.36 184.958C1194.26 184.958 1194.16 185.009 1194.05 185.111C1194.36 185.419 1194.67 185.88 1196.67 188.033C1197.44 188.494 1198.36 189.417 1199.13 189.878C1199.28 189.878 1199.44 189.878 1200.82 190.493L1202.05 189.725C1202.15 189.725 1202.2 189.725 1202.2 189.725C1202.31 189.725 1202.36 189.725 1202.36 189.725C1202.56 189.725 1202.72 189.725 1202.82 189.725C1202.92 189.622 1203.02 189.571 1203.13 189.571C1203.43 189.571 1203.69 189.52 1203.9 189.417C1204.1 189.417 1204.36 189.366 1204.66 189.263C1204.66 189.263 1204.72 189.263 1204.82 189.263C1204.82 189.263 1204.87 189.263 1204.97 189.263C1205.07 189.161 1205.13 189.11 1205.13 189.11C1205.23 189.11 1205.28 189.11 1205.28 189.11C1205.28 189.11 1205.33 189.11 1205.43 189.11C1205.43 189.11 1205.59 189.11 1207.59 188.187C1207.79 188.084 1207.94 188.033 1208.05 188.033C1208.82 187.11 1211.12 184.958 1216.81 185.88C1217.12 185.88 1217.43 185.726 1218.04 184.342C1210.2 175.731 1210.2 174.808 1209.74 170.964C1210.51 170.349 1211.43 169.58 1212.2 169.119C1210.35 168.196 1207.89 166.812 1206.05 165.89C1206.82 164.198 1206.82 164.198 1212.05 160.661C1208.97 158.201 1203.28 153.741 1199.59 161.123C1185.75 151.896 1185.75 151.742 1182.83 145.438C1179.6 140.055 1179.29 140.055 1175.45 138.825C1174.68 139.133 1173.76 139.748 1172.99 140.209C1172.99 140.209 1172.99 140.209 1174.83 141.439C1176.52 142.823 1178.68 144.669 1180.21 146.206C1180.21 146.206 1180.16 146.258 1180.06 146.36C1180.98 147.283 1182.06 148.974 1182.83 150.205C1182.52 150.973 1182.21 152.204 1181.91 152.972C1183.14 155.74 1183.14 155.74 1186.52 158.355C1186.31 158.457 1186.16 158.508 1186.06 158.508C1191.29 160.354 1191.29 160.354 1193.59 162.199C1193.75 162.199 1193.9 162.199 1195.59 164.352C1196.36 165.89 1197.59 168.042 1198.36 169.734C1198.26 169.734 1198.21 169.734 1198.21 169.734C1198.97 171.272 1200.36 173.271 1201.59 174.655C1201.74 174.655 1201.74 174.655 1203.13 176.192C1203.43 177.115 1203.89 178.345 1204.2 179.268C1201.59 183.574 1200.67 183.881 1197.74 184.958C1192.36 180.037 1187.9 174.193 1181.75 170.195C1181.91 171.118 1182.21 172.194 1182.52 173.117C1182.52 173.117 1182.37 173.117 1182.67 173.886C1182.98 174.808 1183.29 175.885 1183.6 176.808C1174.37 180.344 1174.37 180.344 1148.23 129.291C1147.15 127.446 1145.77 124.985 1144.54 123.14C1144.69 123.14 1144.69 123.14 1144.23 122.679C1144.38 121.756 1144.38 120.526 1144.54 119.757C1146.54 120.065 1149.46 120.526 1151.61 120.987C1151.71 120.987 1151.82 120.936 1151.92 120.834C1162.84 123.448 1162.84 123.448 1164.53 123.909C1164.53 124.063 1164.37 124.063 1166.53 124.678C1168.22 124.985 1170.53 124.678 1171.91 123.755C1172.83 124.063 1173.91 124.524 1174.68 124.832C1174.68 124.678 1174.68 124.678 1175.6 124.985C1184.21 128.369 1185.44 128.984 1186.67 133.751C1185.9 133.751 1184.83 133.904 1183.9 133.904C1184.83 134.366 1185.9 134.827 1186.67 135.135C1186.67 135.135 1186.83 135.135 1188.06 135.75C1189.75 136.826 1192.05 137.903 1194.05 138.364C1193.75 137.903 1193.44 137.441 1193.13 136.98C1194.05 136.98 1195.13 136.98 1195.9 136.98C1189.44 132.982 1189.44 132.982 1186.36 129.137C1187.9 129.906 1190.06 130.983 1191.59 131.752C1191.59 131.649 1191.59 131.598 1191.59 131.598C1175.6 122.218 1175.6 122.218 1175.45 121.91L1176.83 122.525C1176.83 122.525 1176.83 122.525 1178.98 123.602C1180.98 124.832 1183.75 126.216 1185.75 127.292L1186.06 127.446C1186.06 127.446 1186.06 127.497 1186.06 127.6C1186.36 127.6 1186.83 127.907 1187.13 127.907C1185.6 126.985 1183.44 125.601 1181.75 124.678C1180.68 123.294 1178.98 121.449 1177.6 120.372C1177.6 120.372 1177.6 120.218 1178.83 120.372C1178.21 119.911 1177.45 118.988 1176.83 118.527C1176.83 118.373 1176.83 118.373 1176.68 118.219C1176.68 118.066 1176.68 118.066 1176.06 117.758C1174.22 116.989 1171.76 115.759 1169.91 114.836C1169.91 114.99 1169.91 114.99 1168.83 114.067C1168.99 114.067 1168.99 114.067 1170.53 114.529C1171.29 114.836 1172.37 115.144 1173.14 115.451C1173.14 115.451 1172.99 115.298 1172.52 115.144ZM1340.14 328.583L1340.29 329.352C1340.45 330.275 1340.75 331.505 1340.91 332.581C1340.91 333.196 1340.91 333.35 1340.91 333.35C1340.91 333.145 1340.86 332.94 1340.75 332.735C1340.55 331.3 1340.34 329.916 1340.14 328.583ZM1337.53 315.82C1337.53 315.717 1337.53 315.666 1337.53 315.666C1337.53 315.769 1337.53 315.82 1337.53 315.82ZM1284.32 223.401C1282.47 221.863 1280.17 220.941 1278.48 219.403C1277.55 218.634 1277.55 218.327 1277.09 216.789L1276.94 215.866C1275.86 212.945 1275.09 212.637 1274.94 212.637C1274.94 212.637 1273.09 212.945 1275.09 216.789C1275.09 216.686 1275.14 216.635 1275.25 216.635C1279.09 222.94 1278.63 226.631 1278.32 226.784C1278.17 226.784 1278.01 226.784 1277.4 226.015C1272.63 220.633 1268.48 216.481 1267.71 216.174C1267.1 216.02 1266.33 216.328 1267.71 220.172C1267.81 220.172 1267.87 220.121 1267.87 220.018L1268.17 220.941C1269.86 224.478 1270.79 226.631 1271.71 229.552C1271.71 229.552 1271.66 229.552 1271.56 229.552C1272.32 231.705 1272.63 234.012 1273.25 236.165C1273.35 236.165 1273.4 236.165 1273.4 236.165C1274.63 239.394 1277.25 242.008 1278.94 245.083C1278.83 245.083 1278.73 245.083 1278.63 245.083C1279.55 246.929 1280.32 248.928 1281.24 250.773C1281.4 251.234 1281.55 251.234 1281.86 251.234C1282.78 250.004 1281.09 247.39 1283.24 246.929C1285.24 246.467 1285.7 246.467 1286.16 245.545C1286.32 245.083 1286.32 245.083 1285.7 242.623C1285.7 242.623 1284.47 235.242 1291.09 239.548C1290.98 239.65 1290.83 239.753 1290.62 239.855C1294.47 242.316 1294.47 242.316 1294.62 242.316C1295.24 242.469 1298.77 240.778 1296.77 236.933C1294.01 231.398 1290.62 228.63 1284.32 223.401ZM1278.78 199.412C1279.4 200.233 1279.96 201.001 1280.47 201.719C1280.47 201.822 1280.47 201.873 1280.47 201.873C1283.24 206.178 1283.24 206.332 1283.4 206.794C1283.4 206.794 1283.35 206.794 1283.24 206.794C1282.94 206.947 1282.47 206.64 1282.01 206.794C1282.17 207.255 1282.17 207.255 1283.7 209.869C1283.7 209.767 1283.7 209.715 1283.7 209.715C1286.16 213.56 1287.7 215.866 1289.7 218.327C1289.7 218.429 1289.7 218.48 1289.7 218.48L1290.01 218.942C1291.24 220.48 1292.47 222.017 1293.85 223.709C1293.96 223.709 1294.01 223.658 1294.01 223.555C1299.54 230.475 1299.54 230.475 1300.31 230.936C1300.31 231.039 1300.26 231.141 1300.16 231.244C1301.85 232.166 1302.62 233.397 1304.16 236.011C1307.23 242.008 1307.08 242.469 1307.08 243.084C1307.54 244.007 1308 244.93 1308.92 246.621C1308.82 246.621 1308.77 246.672 1308.77 246.775C1310.15 249.082 1311.08 250.773 1312.15 252.772C1312.15 252.67 1312.15 252.618 1312.15 252.618C1314 255.54 1316 256.77 1316.15 256.77C1316 255.386 1315.23 253.849 1314.46 252.003C1304.31 232.32 1293.55 218.788 1293.08 218.48C1293.08 218.583 1293.08 218.685 1293.08 218.788C1292.93 218.788 1286.78 210.33 1286.78 209.1C1287.24 209.562 1287.7 210.023 1288.01 210.33C1288.11 210.33 1288.27 210.33 1288.47 210.33C1288.16 209.562 1287.7 208.946 1287.55 208.639C1287.39 208.485 1280.63 199.412 1278.78 199.412ZM1204.36 150.973C1203.59 151.127 1204.66 152.05 1205.28 152.511C1205.18 152.511 1205.13 152.562 1205.13 152.665L1205.59 152.972C1208.51 155.587 1210.97 156.202 1211.74 156.356C1212.05 156.253 1212.35 156.099 1212.66 155.894L1212.05 155.125C1211.84 154.92 1211.63 154.767 1211.43 154.664C1209.58 152.972 1205.59 150.973 1204.36 150.973ZM1313.54 494.506C1313.23 494.198 1312 494.352 1310.46 496.966C1310.15 497.735 1309.85 498.504 1309.23 499.734C1309.23 499.837 1309.18 499.888 1309.08 499.888C1308 502.348 1307.39 504.04 1306.46 506.347C1306.57 506.244 1306.67 506.193 1306.77 506.193C1305.39 509.576 1305.08 510.652 1305.39 511.114C1305.54 510.96 1305.69 510.806 1305.85 510.806C1308.15 507.577 1311.23 501.272 1312.77 497.428C1313.69 494.967 1313.54 494.66 1313.54 494.506Z" fill="#292929"/>
<path d="M1126.09 99.4589C1129.47 100.228 1132.08 100.997 1135.16 101.919C1137.31 102.534 1137.47 102.688 1137.93 102.842C1137.77 102.842 1137.47 102.842 1137.47 102.842C1138.54 104.072 1148.69 107.763 1154.69 109.916C1156.84 110.684 1158.99 111.3 1161.15 112.068C1165.45 113.76 1167.14 114.683 1167.76 115.144C1167.76 115.144 1162.53 114.99 1152.23 110.069L1151.92 109.916C1149.31 108.839 1147 107.763 1144.85 106.84C1139.16 104.533 1133.31 103.149 1127.78 100.535C1127.93 100.535 1128.24 100.535 1128.39 100.535C1128.09 100.228 1127.78 100.074 1125.32 99.4589C1123.93 99.1513 1123.16 98.9975 1122.86 98.8438C1123.47 98.8438 1123.47 98.8438 1124.7 99.1513C1124.6 99.1513 1124.55 99.1001 1124.55 98.9975L1126.09 99.4589Z" fill="#292929"/>
<path d="M932.484 166.81C931.715 167.579 930.946 167.887 930.638 168.04L930.177 168.348C928.947 168.809 928.639 168.04 928.947 167.271C929.562 165.887 931.869 164.965 932.791 164.965C933.868 165.272 932.637 166.503 932.484 166.81Z" fill="#292929"/>
<path d="M928.795 163.274C928.488 163.582 928.488 163.582 927.565 164.043C926.181 164.965 925.412 163.889 925.72 163.12C925.873 162.659 925.873 162.659 927.565 161.582C928.334 161.275 928.641 161.121 929.103 161.121C930.025 161.429 929.41 162.659 928.795 163.274Z" fill="#292929"/>
<path d="M964.78 118.374C963.396 118.989 962.627 118.989 962.781 118.528C963.089 117.605 967.394 115.76 968.163 115.913C968.471 116.016 968.112 116.426 967.087 117.144C966.984 117.144 966.933 117.144 966.933 117.144C965.857 117.759 964.934 118.22 964.78 118.374Z" fill="#292929"/>
<path d="M966.777 114.99C966.469 115.144 965.393 115.605 963.548 116.22C960.626 117.45 960.626 117.45 959.088 117.297C959.242 117.143 959.242 117.143 960.472 116.528C961.856 115.759 962.317 115.451 962.471 115.144C962.317 114.99 961.395 114.836 960.318 115.297C960.216 115.297 960.165 115.297 960.165 115.297C959.396 115.605 958.934 115.759 956.628 116.681C954.475 117.604 953.706 117.912 953.398 117.912C953.398 117.912 953.398 117.86 953.398 117.758C954.475 116.989 964.624 112.683 965.547 112.376H965.854C966.777 112.068 966.777 112.068 970.314 112.837C969.852 113.606 966.931 114.99 966.777 114.99Z" fill="#292929"/>
<path d="M950.014 124.061C948.169 125.291 948.169 125.291 943.863 127.29C943.094 127.597 942.172 127.905 941.249 128.366L940.788 128.52C940.173 128.674 940.019 128.674 939.865 128.674C939.865 128.52 939.865 127.905 946.324 124.061C946.631 123.907 946.631 123.753 946.785 123.753C946.016 123.446 945.247 124.368 944.478 123.753C944.94 123.138 948.784 120.985 950.629 120.37H950.783C951.091 120.216 951.552 120.062 951.86 120.062C951.962 120.062 952.013 120.062 952.013 120.062C952.475 120.062 952.321 120.678 952.782 120.678C954.935 120.216 954.935 120.216 955.396 120.37C955.858 120.524 955.396 120.831 955.243 120.985C954.935 121.139 954.166 121.754 950.168 124.214C950.168 124.112 950.117 124.061 950.014 124.061Z" fill="#292929"/>
<path d="M1057.66 100.689C1057.81 100.843 1057.97 100.996 1058.12 101.15C1059.04 102.073 1059.04 102.073 1060.12 106.84C1060.27 107.762 1060.43 108.224 1060.58 109.454V109.608C1060.89 111.299 1061.04 111.914 1061.96 113.452C1061.96 113.452 1061.91 113.452 1061.81 113.452L1062.27 114.221C1063.04 115.144 1064.27 115.451 1065.19 116.22C1065.3 116.22 1065.35 116.22 1065.35 116.22C1065.5 118.68 1065.5 118.68 1066.42 120.987C1066.32 120.987 1066.27 120.987 1066.27 120.987C1066.58 122.063 1066.73 122.371 1067.65 124.216C1067.76 124.216 1067.86 124.216 1067.96 124.216C1068.06 124.524 1068.22 124.831 1068.42 125.139C1068.42 125.241 1068.42 125.293 1068.42 125.293C1068.58 125.6 1068.42 126.062 1068.27 126.215C1066.12 126.83 1064.58 123.755 1062.27 125.139C1062.12 125.6 1061.96 126.677 1063.81 129.752C1063.6 129.752 1063.45 129.752 1063.35 129.752L1063.66 130.367C1064.27 131.29 1064.89 132.264 1065.5 133.289C1065.6 133.289 1065.76 133.289 1065.96 133.289L1066.27 133.904C1068.73 137.595 1066.12 139.132 1064.73 138.825C1063.66 138.517 1062.73 136.98 1062.43 135.749C1062.12 134.827 1061.66 133.135 1057.5 131.29C1057.35 131.444 1057.35 131.597 1057.2 131.597C1057.35 132.52 1057.35 132.674 1057.66 133.75C1057.76 133.75 1057.86 133.699 1057.97 133.596C1058.89 136.364 1061.81 137.287 1063.5 139.286C1063.3 139.286 1063.14 139.286 1063.04 139.286C1064.42 140.978 1064.42 140.978 1064.42 141.439C1064.27 141.593 1064.12 141.593 1063.96 141.747C1063.04 142.208 1062.12 141.593 1061.19 142.054C1058.89 142.977 1057.35 145.13 1054.89 145.898C1053.2 146.36 1051.51 146.36 1048.89 146.206C1047.51 146.052 1047.51 146.052 1046.74 146.36C1046.12 147.129 1045.82 147.744 1044.89 150.05C1044.79 150.05 1044.69 150.05 1044.59 150.05C1044.38 150.665 1044.13 151.281 1043.82 151.896C1042.74 154.664 1042.74 154.664 1038.59 154.202C1035.82 153.895 1035.82 153.895 1032.59 156.201C1028.13 159.431 1028.13 159.431 1028.29 161.43C1028.18 161.43 1028.03 161.43 1027.83 161.43C1028.13 165.889 1028.13 165.889 1023.83 166.197C1022.6 168.35 1022.75 170.964 1022.14 173.27C1022.03 173.27 1021.88 173.27 1021.67 173.27C1021.06 175.885 1020.44 176.346 1018.45 178.191V178.345C1013.99 181.882 1013.68 179.268 1013.06 174.347C1011.06 174.039 1009.99 177.115 1007.68 176.346C1006.3 172.963 1002.91 170.81 1002.15 167.119C1000.61 161.43 1001.68 160.661 1003.53 159.738V159.584C996.763 156.663 1002.15 147.898 1004.3 145.745C1005.53 144.361 1005.53 144.361 1005.37 143.746C1004.61 143.438 1004.61 143.438 1003.38 143.438C1001.68 140.516 1008.3 134.519 1009.83 134.98C1009.99 134.98 1009.99 134.98 1009.99 134.98C1010.09 134.98 1010.14 134.98 1010.14 134.98C1010.24 134.98 1010.3 134.98 1010.3 134.98C1010.4 134.98 1010.5 134.98 1010.6 134.98C1010.71 134.98 1010.81 134.98 1010.91 134.98C1010.91 134.98 1010.96 134.98 1011.06 134.98C1011.17 134.98 1011.27 134.98 1011.37 134.98C1011.53 135.442 1011.83 136.211 1009.37 139.901C1009.27 139.901 1009.17 139.901 1009.07 139.901L1008.91 140.209C1008.6 140.516 1008.45 141.131 1008.45 141.439C1008.6 141.9 1009.07 142.208 1009.22 142.669C1012.29 141.439 1013.06 133.135 1011.06 132.366C1009.99 131.905 1009.99 132.059 1007.99 134.058C1007.99 134.058 1008.04 134.058 1008.14 134.058C1005.99 136.211 1005.53 136.364 1004.76 136.672C1005.37 131.751 1011.22 129.137 1010.45 123.601C1009.99 119.911 1009.22 119.757 1002.3 118.988C1002.3 118.834 1002.15 118.68 1002.15 118.527C1002.45 117.911 1003.07 117.143 1005.22 115.297C1004.76 115.605 1004.3 115.912 1003.99 116.22C1003.68 116.374 1003.84 116.374 1003.84 116.374C999.993 119.295 999.07 120.064 997.378 120.218C997.378 120.064 997.378 119.911 997.225 119.757C999.993 115.605 999.993 115.605 999.839 115.451C999.736 115.451 999.634 115.4 999.531 115.297C999.377 115.297 999.377 115.297 999.377 115.297C999.275 115.297 999.224 115.297 999.224 115.297C999.121 115.195 999.019 115.144 998.916 115.144C999.377 114.067 999.993 113.606 1001.53 113.144C1001.84 113.144 1001.68 113.144 1001.53 113.144C1009.37 111.299 1015.83 106.532 1023.21 103.764C1023.52 103.61 1023.52 103.61 1023.67 103.61V103.764C1024.14 103.918 1024.44 104.072 1026.29 102.534C1027.21 101.765 1031.82 99.4585 1033.82 99.9199C1033.82 100.227 1033.67 100.689 1033.67 100.842C1034.28 100.996 1034.59 100.996 1035.82 100.074C1037.36 98.8434 1038.74 97.3057 1040.44 96.2293H1040.59C1040.28 96.5368 1040.13 96.8444 1039.82 97.1519C1039.51 97.3057 1039.36 97.6132 1039.05 97.9208C1040.44 97.1519 1041.36 96.0755 1042.59 95.1528C1042.69 95.0503 1042.84 94.9991 1043.05 94.9991C1043.2 94.8453 1043.2 94.8453 1043.2 94.8453C1043.82 94.384 1044.28 93.9226 1044.74 93.4613C1044.89 93.3075 1045.2 93.1538 1045.2 93C1045.3 93.1025 1045.36 93.2563 1045.36 93.4613C1045.51 93.7689 1045.66 94.0764 1045.82 94.384C1045.36 95.4604 1044.89 95.6141 1044.43 95.7679C1044.54 95.8704 1044.64 95.973 1044.74 96.0755C1045.2 95.9217 1045.2 95.9217 1046.12 94.8453C1046.23 94.7428 1046.33 94.6403 1046.43 94.5377C1046.54 94.5377 1046.64 94.589 1046.74 94.6915C1046.89 94.6915 1046.89 94.6915 1046.89 94.6915C1047.66 95.4604 1047.66 95.6142 1048.74 96.9981C1049.2 97.6132 1049.2 97.6132 1050.12 98.6897C1050.23 98.6897 1050.28 98.6897 1050.28 98.6897C1051.2 99.6123 1051.97 100.535 1052.89 101.458C1052.79 101.458 1052.74 101.458 1052.74 101.458C1053.97 102.688 1054.28 102.995 1055.04 103.149C1055.2 102.995 1055.35 102.688 1055.35 102.534C1055.04 101.458 1054.43 100.535 1054.12 99.4585C1055.2 98.8434 1057.35 100.381 1057.66 100.689Z" fill="#292929"/>
<path d="M863.594 374.099C863.286 376.098 860.364 376.867 859.134 375.329C858.365 374.253 858.365 372.715 858.827 371.793C859.032 371.382 859.185 371.177 859.288 371.177C859.595 370.716 860.518 370.255 860.518 370.255C860.826 369.947 861.441 369.947 861.748 369.947C862.517 370.101 862.978 370.409 863.594 371.177C863.184 371.177 862.722 371.126 862.21 371.024C863.747 372.254 863.594 373.792 863.594 374.099Z" fill="#292929"/>
</g>
<circle cx="1198" cy="158" r="5" fill="#9CFF88"/>
<circle cx="1203" cy="238" r="5" fill="#9CFF88"/>
<circle cx="1208" cy="318" r="5" fill="#9CFF88"/>
<circle cx="1193" cy="360" r="5" fill="#9CFF88"/>
</g>
<defs>
<filter id="filter0_i_5_379" x="0" y="0" width="1287" height="394" filterUnits="userSpaceOnUse" color-interpolation-filters="sRGB">
<feFlood flood-opacity="0" result="BackgroundImageFix"/>
<feBlend mode="normal" in="SourceGraphic" in2="BackgroundImageFix" result="shape"/>
<feColorMatrix in="SourceAlpha" type="matrix" values="0 0 0 0 0 0 0 0 0 0 0 0 0 0 0 0 0 0 127 0" result="hardAlpha"/>
<feMorphology radius="4" operator="erode" in="SourceAlpha" result="effect1_innerShadow_5_379"/>
<feOffset dx="5" dy="5"/>
<feGaussianBlur stdDeviation="40.7"/>
<feComposite in2="hardAlpha" operator="arithmetic" k2="-1" k3="1"/>
<feColorMatrix type="matrix" values="0 0 0 0 1 0 0 0 0 1 0 0 0 0 1 0 0 0 0.1 0"/>
<feBlend mode="normal" in2="shape" result="effect1_innerShadow_5_379"/>
</filter>
<filter id="filter1_f_5_379" x="295.6" y="-371.4" width="1494.8" height="1493.8" filterUnits="userSpaceOnUse" color-interpolation-filters="sRGB">
<feFlood flood-opacity="0" result="BackgroundImageFix"/>
<feBlend mode="normal" in="SourceGraphic" in2="BackgroundImageFix" result="shape"/>
<feGaussianBlur stdDeviation="222.2" result="effect1_foregroundBlur_5_379"/>
</filter>
<linearGradient id="paint0_linear_5_379" x1="1077" y1="376" x2="651.5" y2="92.5" gradientUnits="userSpaceOnUse">
<stop stop-color="#454545"/>
<stop offset="1" stop-color="#8F8F8F" stop-opacity="0"/>
</linearGradient>
<clipPath id="clip0_5_379">
<rect width="1282" height="389" fill="white"/>
</clipPath>
</defs>
</svg>
