<svg width="30" height="29" viewBox="0 0 30 29" fill="none" xmlns="http://www.w3.org/2000/svg">
<path d="M0.5 14.5C0.5 6.48992 6.98992 0 15 0C23.0101 0 29.5 6.48992 29.5 14.5C29.5 22.5101 23.0101 29 15 29C6.98992 29 0.5 22.5101 0.5 14.5ZM14.006 7.84052L6.08367 15.7629C5.53407 16.3125 5.53407 17.2012 6.08367 17.745L7.07762 18.7389C7.62722 19.2885 8.51593 19.2885 9.05968 18.7389L15 12.7986L20.9403 18.7389C21.4899 19.2885 22.3786 19.2885 22.9224 18.7389L23.9163 17.745C24.4659 17.1954 24.4659 16.3067 23.9163 15.7629L15.994 7.84052C15.4444 7.29093 14.5556 7.29093 14.006 7.84052Z" fill="white"/>
</svg>
