<svg width="29" height="30" viewBox="0 0 29 30" fill="none" xmlns="http://www.w3.org/2000/svg">
<path d="M29 15.4199C29 23.43 22.5101 29.9199 14.5 29.9199C6.48992 29.9199 0 23.43 0 15.4199C0 7.40984 6.48992 0.919922 14.5 0.919922C22.5101 0.919922 29 7.40984 29 15.4199ZM15.494 22.0794L23.4163 14.157C23.9659 13.6074 23.9659 12.7187 23.4163 12.175L22.4224 11.181C21.8728 10.6314 20.9841 10.6314 20.4403 11.181L14.5 17.1213L8.55968 11.181C8.01008 10.6314 7.12137 10.6314 6.57762 11.181L5.58367 12.175C5.03407 12.7246 5.03407 13.6133 5.58367 14.157L13.506 22.0794C14.0556 22.629 14.9444 22.629 15.494 22.0794Z" fill="white"/>
</svg>
