<svg width="135" height="138" viewBox="0 0 135 138" fill="none" xmlns="http://www.w3.org/2000/svg">
<g filter="url(#filter0_d_1_1463)">
<path d="M53.1012 83.7925L49.9916 93.6416C49.7133 94.523 49.0228 95.2135 48.1414 95.4918L38.2922 98.6014C37.9026 98.7243 37.9026 99.276 38.2922 99.3989L48.1414 102.509C49.0228 102.787 49.7133 103.477 49.9916 104.359L53.1012 114.208C53.2242 114.597 53.7758 114.597 53.8988 114.208L57.0084 104.359C57.2867 103.477 57.9772 102.787 58.8586 102.509L68.7078 99.3989C69.0974 99.276 69.0974 98.7243 68.7078 98.6014L58.8586 95.4918C57.9772 95.2135 57.2867 94.523 57.0084 93.6416L53.8988 83.7925C53.7762 83.4025 53.2245 83.4025 53.1012 83.7925Z" fill="#71FF44" fill-opacity="0.51"/>
</g>
<g filter="url(#filter1_d_1_1463)">
<path d="M41.6141 27.7925L38.6048 37.6416C38.3354 38.523 37.6672 39.2135 36.8142 39.4918L27.2828 42.6014C26.9057 42.7243 26.9057 43.276 27.2828 43.3989L36.8142 46.5085C37.6672 46.7868 38.3354 47.4773 38.6048 48.3587L41.6141 58.2078C41.7331 58.5974 42.2669 58.5974 42.3859 58.2078L45.3952 48.3587C45.6646 47.4773 46.3328 46.7868 47.1857 46.5085L56.7172 43.3989C57.0943 43.276 57.0943 42.7243 56.7172 42.6014L47.1857 39.4918C46.3328 39.2135 45.6646 38.523 45.3952 37.6416L42.3859 27.7925C42.2673 27.4025 41.7334 27.4025 41.6141 27.7925Z" fill="#71FF44" fill-opacity="0.51"/>
</g>
<g filter="url(#filter2_d_1_1463)">
<path d="M81.7925 32.0189L76.2754 49.4931C75.7816 51.0569 74.5566 52.2819 72.9928 52.7757L55.5185 58.2927C54.8272 58.5108 54.8272 59.4896 55.5185 59.7077L72.9928 65.2248C74.5566 65.7185 75.7816 66.9436 76.2754 68.5074L81.7925 85.9815C82.0106 86.6728 82.9894 86.6728 83.2075 85.9815L88.7246 68.5074C89.2184 66.9436 90.4434 65.7185 92.0072 65.2248L109.482 59.7077C110.173 59.4896 110.173 58.5108 109.482 58.2927L92.0072 52.7757C90.4434 52.2819 89.2184 51.0569 88.7246 49.4931L83.2075 32.0189C82.99 31.327 82.0112 31.327 81.7925 32.0189Z" fill="#71FF44" fill-opacity="0.51"/>
</g>
<defs>
<filter id="filter0_d_1_1463" x="11.8" y="56.3" width="81.4" height="81.4" filterUnits="userSpaceOnUse" color-interpolation-filters="sRGB">
<feFlood flood-opacity="0" result="BackgroundImageFix"/>
<feColorMatrix in="SourceAlpha" type="matrix" values="0 0 0 0 0 0 0 0 0 0 0 0 0 0 0 0 0 0 127 0" result="hardAlpha"/>
<feOffset dx="-1" dy="-2"/>
<feGaussianBlur stdDeviation="12.6"/>
<feColorMatrix type="matrix" values="0 0 0 0 0.286275 0 0 0 0 0.568627 0 0 0 0 0.196078 0 0 0 1 0"/>
<feBlend mode="normal" in2="BackgroundImageFix" result="effect1_dropShadow_1_1463"/>
<feBlend mode="normal" in="SourceGraphic" in2="effect1_dropShadow_1_1463" result="shape"/>
</filter>
<filter id="filter1_d_1_1463" x="0.799999" y="0.299999" width="80.4" height="81.4" filterUnits="userSpaceOnUse" color-interpolation-filters="sRGB">
<feFlood flood-opacity="0" result="BackgroundImageFix"/>
<feColorMatrix in="SourceAlpha" type="matrix" values="0 0 0 0 0 0 0 0 0 0 0 0 0 0 0 0 0 0 127 0" result="hardAlpha"/>
<feOffset dx="-1" dy="-2"/>
<feGaussianBlur stdDeviation="12.6"/>
<feColorMatrix type="matrix" values="0 0 0 0 0.286275 0 0 0 0 0.568627 0 0 0 0 0.196078 0 0 0 1 0"/>
<feBlend mode="normal" in2="BackgroundImageFix" result="effect1_dropShadow_1_1463"/>
<feBlend mode="normal" in="SourceGraphic" in2="effect1_dropShadow_1_1463" result="shape"/>
</filter>
<filter id="filter2_d_1_1463" x="28.8" y="4.3" width="105.4" height="105.4" filterUnits="userSpaceOnUse" color-interpolation-filters="sRGB">
<feFlood flood-opacity="0" result="BackgroundImageFix"/>
<feColorMatrix in="SourceAlpha" type="matrix" values="0 0 0 0 0 0 0 0 0 0 0 0 0 0 0 0 0 0 127 0" result="hardAlpha"/>
<feOffset dx="-1" dy="-2"/>
<feGaussianBlur stdDeviation="12.6"/>
<feColorMatrix type="matrix" values="0 0 0 0 0.286275 0 0 0 0 0.568627 0 0 0 0 0.196078 0 0 0 1 0"/>
<feBlend mode="normal" in2="BackgroundImageFix" result="effect1_dropShadow_1_1463"/>
<feBlend mode="normal" in="SourceGraphic" in2="effect1_dropShadow_1_1463" result="shape"/>
</filter>
</defs>
</svg>
