<svg width="317" height="219" viewBox="0 0 317 219" fill="none" xmlns="http://www.w3.org/2000/svg">
<g clip-path="url(#clip0_5_971)">
<g filter="url(#filter0_i_5_971)">
<rect x="0.252441" width="316.495" height="218.919" rx="7.5058" fill="#121212"/>
</g>
<rect x="0.565183" y="0.312742" width="315.869" height="218.294" rx="7.19306" stroke="url(#paint0_linear_5_971)" stroke-width="0.625484"/>
<g style="mix-blend-mode:overlay">
<mask id="mask0_5_971" style="mask-type:alpha" maskUnits="userSpaceOnUse" x="14" y="-5" width="309" height="229">
<g style="mix-blend-mode:overlay">
<line y1="-0.5" x2="228" y2="-0.5" transform="matrix(0 1 1 0 42.3618 -4.46875)" stroke="white"/>
<line y1="-0.5" x2="307.996" y2="-0.5" transform="matrix(1 0 0 -1 14.8657 209.959)" stroke="white"/>
<line y1="-0.5" x2="307.996" y2="-0.5" transform="matrix(1 0 0 -1 14.8618 193.945)" stroke="white"/>
<line y1="-0.5" x2="307.996" y2="-0.5" transform="matrix(1 0 0 -1 14.8657 177.932)" stroke="white"/>
<line y1="-0.5" x2="307.996" y2="-0.5" transform="matrix(1 0 0 -1 14.8618 161.918)" stroke="white"/>
<line y1="-0.5" x2="307.996" y2="-0.5" transform="matrix(1 0 0 -1 14.8618 145.902)" stroke="white"/>
<line y1="-0.5" x2="307.996" y2="-0.5" transform="matrix(1 0 0 -1 14.8618 129.889)" stroke="white"/>
<line y1="-0.5" x2="307.996" y2="-0.5" transform="matrix(1 0 0 -1 14.8618 113.873)" stroke="white"/>
<line y1="-0.5" x2="307.996" y2="-0.5" transform="matrix(1 0 0 -1 14.8618 97.8613)" stroke="white"/>
<line y1="-0.5" x2="307.996" y2="-0.5" transform="matrix(1 0 0 -1 14.8618 81.8457)" stroke="white"/>
<line y1="-0.5" x2="307.996" y2="-0.5" transform="matrix(1 0 0 -1 14.8618 65.832)" stroke="white"/>
<line y1="-0.5" x2="307.996" y2="-0.5" transform="matrix(1 0 0 -1 14.8618 49.8184)" stroke="white"/>
<line y1="-0.5" x2="307.996" y2="-0.5" transform="matrix(1 0 0 -1 14.8618 33.8027)" stroke="white"/>
<line y1="-0.5" x2="307.996" y2="-0.5" transform="matrix(1 0 0 -1 14.8618 17.7891)" stroke="white"/>
<line y1="-0.5" x2="307.996" y2="-0.5" transform="matrix(1 0 0 -1 14.8618 1.77539)" stroke="white"/>
<line y1="-0.5" x2="228" y2="-0.5" transform="matrix(0 1 1 0 63.4438 -4.46875)" stroke="white"/>
<line y1="-0.5" x2="228" y2="-0.5" transform="matrix(0 1 1 0 84.5298 -4.46875)" stroke="white"/>
<line y1="-0.5" x2="228" y2="-0.5" transform="matrix(0 1 1 0 105.616 -4.46875)" stroke="white"/>
<line y1="-0.5" x2="228" y2="-0.5" transform="matrix(0 1 1 0 126.69 -4.46875)" stroke="white"/>
<line y1="-0.5" x2="228" y2="-0.5" transform="matrix(0 1 1 0 147.78 -4.46875)" stroke="white"/>
<line y1="-0.5" x2="228" y2="-0.5" transform="matrix(0 1 1 0 168.862 -4.46875)" stroke="white"/>
<line y1="-0.5" x2="228" y2="-0.5" transform="matrix(0 1 1 0 189.94 -4.46875)" stroke="white"/>
<line y1="-0.5" x2="228" y2="-0.5" transform="matrix(0 1 1 0 211.026 -4.46875)" stroke="white"/>
<line y1="-0.5" x2="228" y2="-0.5" transform="matrix(0 1 1 0 232.108 -4.46875)" stroke="white"/>
<line y1="-0.5" x2="228" y2="-0.5" transform="matrix(0 1 1 0 253.19 -4.46875)" stroke="white"/>
<line y1="-0.5" x2="228" y2="-0.5" transform="matrix(0 1 1 0 274.28 -4.46875)" stroke="white"/>
<line y1="-0.5" x2="228" y2="-0.5" transform="matrix(0 1 1 0 295.362 -4.46875)" stroke="white"/>
<line y1="-0.5" x2="228" y2="-0.5" transform="matrix(0 1 1 0 313.444 -4.46875)" stroke="white"/>
</g>
</mask>
<g mask="url(#mask0_5_971)">
<ellipse cx="161.698" cy="122.393" rx="161.698" ry="122.393" transform="matrix(1 0 0 -1 28.7642 236.605)" fill="url(#paint1_linear_5_971)"/>
</g>
</g>
</g>
<defs>
<filter id="filter0_i_5_971" x="0.252441" y="0" width="324.495" height="226.919" filterUnits="userSpaceOnUse" color-interpolation-filters="sRGB">
<feFlood flood-opacity="0" result="BackgroundImageFix"/>
<feBlend mode="normal" in="SourceGraphic" in2="BackgroundImageFix" result="shape"/>
<feColorMatrix in="SourceAlpha" type="matrix" values="0 0 0 0 0 0 0 0 0 0 0 0 0 0 0 0 0 0 127 0" result="hardAlpha"/>
<feOffset dx="8" dy="8"/>
<feGaussianBlur stdDeviation="9.7"/>
<feComposite in2="hardAlpha" operator="arithmetic" k2="-1" k3="1"/>
<feColorMatrix type="matrix" values="0 0 0 0 1 0 0 0 0 1 0 0 0 0 1 0 0 0 0.08 0"/>
<feBlend mode="normal" in2="shape" result="effect1_innerShadow_5_971"/>
</filter>
<linearGradient id="paint0_linear_5_971" x1="2.32474" y1="-4.69189e-05" x2="342.875" y2="60.6967" gradientUnits="userSpaceOnUse">
<stop stop-color="#747474"/>
<stop offset="0.3625" stop-color="#7B8775" stop-opacity="0.55"/>
<stop offset="0.690625" stop-color="#76A958" stop-opacity="0.5"/>
<stop offset="1" stop-color="#59A52C" stop-opacity="0.43"/>
</linearGradient>
<linearGradient id="paint1_linear_5_971" x1="256.489" y1="131.058" x2="15.177" y2="129.496" gradientUnits="userSpaceOnUse">
<stop stop-color="#D9D9D9" stop-opacity="0.6"/>
<stop offset="0.479167" stop-color="#D9D9D9" stop-opacity="0.32"/>
<stop offset="1" stop-color="#D9D9D9" stop-opacity="0"/>
</linearGradient>
<clipPath id="clip0_5_971">
<rect width="316.495" height="218.919" fill="white" transform="translate(0.252441)"/>
</clipPath>
</defs>
</svg>
