<svg xmlns="http://www.w3.org/2000/svg" width="86" height="81" viewBox="0 0 86 81"><g id="Group_5999" data-name="Group 5999" transform="translate(-3874 19405.709)"><rect id="Rectangle_7623" data-name="Rectangle 7623" width="86" height="81" rx="22" transform="translate(3874 -19405.709)" fill="#cae2bc" opacity="0.2"></rect><g id="noun-secure-delivery-697039" transform="translate(3815.814 -19396.396)"><path id="Path_46284" data-name="Path 46284" d="M214.852,11.167l-4.235-3.63-4.235,3.63a.63.63,0,0,1-1.04-.478V0h10.551V10.689a.63.63,0,0,1-1.041.478Zm0,0" transform="translate(-109.431 9.332)" fill="none" stroke="#4fa83d" stroke-linecap="round" stroke-linejoin="round" stroke-width="2.5"></path><path id="Path_46285" data-name="Path 46285" d="M27.128,1.506V0H16.577V1.506H3.012A3.015,3.015,0,0,0,0,4.521V40.695A3.015,3.015,0,0,0,3.012,43.71H40.693a3.015,3.015,0,0,0,3.015-3.015V4.521a3.015,3.015,0,0,0-3.015-3.014Zm0,0" transform="translate(79.333 9.333)" fill="none" stroke="#4fa83d" stroke-linecap="round" stroke-linejoin="round" stroke-width="2.5"></path><path id="Path_46286" data-name="Path 46286" d="M174.365,204.029a9.684,9.684,0,0,1-2.438-1.409A10.589,10.589,0,0,1,168,194.293v-5.331a14.512,14.512,0,0,0,6.366-2.3,14.513,14.513,0,0,0,6.366,2.3v5.331a10.59,10.59,0,0,1-3.927,8.326,9.7,9.7,0,0,1-2.439,1.409Zm0,0" transform="translate(-73.179 -159.638)" fill="none" stroke="#4fa83d" stroke-linecap="round" stroke-linejoin="round" stroke-width="2.5"></path></g></g></svg>