<svg xmlns="http://www.w3.org/2000/svg" width="86" height="81" viewBox="0 0 86 81"><g id="Group_6001" data-name="Group 6001" transform="translate(-4151 18910.869)"><rect id="Rectangle_7625" data-name="Rectangle 7625" width="86" height="81" rx="22" transform="translate(4151 -18910.869)" fill="#cae2bc" opacity="0.2"></rect><g id="noun-internet-speed-1645210" transform="translate(4097.605 -18901.811)"><path id="Path_46315" data-name="Path 46315" d="M312.4,141.6a1.2,1.2,0,0,0-1.7,0l-8.8,8.739a4.478,4.478,0,1,0,1.7,6.1,4.23,4.23,0,0,0,.528-2.815,3.622,3.622,0,0,0-.528-1.584l8.8-8.739A1.2,1.2,0,0,0,312.4,141.6Z" transform="translate(-203.996 -122.855)" fill="#4fa83d"></path><path id="Path_46316" data-name="Path 46316" d="M240.5,290.778a.816.816,0,0,0-.528,0l-7.918,2.111A.936.936,0,0,0,231.4,294l.176.352a.057.057,0,0,0,.059.059l.88.939.939.939-9.15,9.15-6.745-6.745a1.558,1.558,0,0,0-2.17,0L201.14,312.948a1.469,1.469,0,0,0-.469,1.056,1.553,1.553,0,0,0,1.525,1.525,1.686,1.686,0,0,0,1.056-.411l13.255-13.2,6.745,6.745a1.487,1.487,0,0,0,2.111,0L235.627,298.4l1.818,1.818.117.059a.926.926,0,0,0,1.29-.176c.059-.117.117-.176.176-.293l2.111-7.918a.936.936,0,0,0-.645-1.115Z" transform="translate(-118.364 -258.251)" fill="#4fa83d"></path><path id="Path_46317" data-name="Path 46317" d="M83.538,43.847a1.226,1.226,0,0,0-.763-.411,1.527,1.527,0,0,0-.88.235.057.057,0,0,0-.059.059L78.611,46.9l-.939-1.173a22.85,22.85,0,0,1-4.751-11.613l-.235-1.466h4.692a1.22,1.22,0,0,0,0-2.4H72.687l.176-1.466A23.252,23.252,0,0,1,77.613,17.1l.939-1.173,3.226,3.226a1.134,1.134,0,0,0,1.642,0l.059-.059a1.318,1.318,0,0,0-.117-1.642l-3.108-3.167,1.173-.939A22.853,22.853,0,0,1,93.039,8.6l1.583-.235v4.575a1.173,1.173,0,0,0,2.346,0V8.3l2.4.293a22.878,22.878,0,0,1,12.669,6.569l.117.117a23.037,23.037,0,0,1,6.1,10.85l.059.176a1.368,1.368,0,0,0,1.525,1.114,1.611,1.611,0,0,0,.939-.587,1.36,1.36,0,0,0,.235-1.056l-.059-.117a25.809,25.809,0,0,0-50.969,5.807,27.527,27.527,0,0,0,.645,5.807,25.981,25.981,0,0,0,6.921,12.434,1.134,1.134,0,0,0,1.642,0l4.223-4.164a1.264,1.264,0,0,0,.117-1.7Z" transform="translate(0 0)" fill="#4fa83d"></path></g></g></svg>