<svg xmlns="http://www.w3.org/2000/svg" width="86" height="81" viewBox="0 0 86 81"><g id="Group_6000" data-name="Group 6000" transform="translate(-3606 18910.869)"><rect id="Rectangle_7624" data-name="Rectangle 7624" width="86" height="81" rx="22" transform="translate(3606 -18910.869)" fill="#cae2bc" opacity="0.2"></rect><g transform="translate(3459.019 -18967.49)"><path id="Path_46288" data-name="Path 46288" d="M243.321,70c-5.1,0-9.616,1.079-12.419,2.7-2.214,1.278-3.4,2.945-3.4,4.649s1.188,3.371,3.4,4.649c2.8,1.617,7.321,2.7,12.419,2.7s9.616-1.079,12.419-2.7c2.214-1.278,3.4-2.945,3.4-4.649s-1.188-3.371-3.4-4.649C252.938,71.08,248.419,70,243.321,70Zm0,2.26c4.631,0,8.744.926,11.29,2.395,1.353.781,2.27,1.649,2.27,2.69s-.918,1.91-2.27,2.69c-2.546,1.469-6.659,2.395-11.29,2.395s-8.744-.926-11.29-2.395c-1.353-.781-2.27-1.649-2.27-2.69s.918-1.91,2.27-2.69C234.576,73.186,238.689,72.26,243.321,72.26Z" transform="translate(-53.34 0)" fill="#4fa83d" fill-rule="evenodd"></path><path id="Path_46289" data-name="Path 46289" d="M256.881,259.26v-.007a1.13,1.13,0,0,1,2.26.007v9.04c0,1.7-1.188,3.371-3.4,4.649-2.8,1.617-7.321,2.7-12.419,2.7s-9.616-1.079-12.419-2.7c-2.214-1.278-3.4-2.945-3.4-4.649v-9.047a1.13,1.13,0,0,1,2.26.007c0,1.042.918,1.91,2.27,2.69,2.546,1.469,6.659,2.395,11.29,2.395s8.744-.926,11.29-2.395C255.964,261.169,256.881,260.3,256.881,259.26Zm-27.121,3.888a10.262,10.262,0,0,0,1.141.762c2.8,1.617,7.321,2.7,12.419,2.7s9.616-1.079,12.419-2.7a10.146,10.146,0,0,0,1.141-.762V268.3c0,1.042-.918,1.91-2.27,2.69-2.546,1.469-6.659,2.395-11.29,2.395s-8.744-.926-11.29-2.395c-1.353-.781-2.27-1.649-2.27-2.69Z" transform="translate(-53.34 -163.833)" fill="#4fa83d" fill-rule="evenodd"></path><path id="Path_46290" data-name="Path 46290" d="M256.881,189.26v-.007a1.13,1.13,0,0,1,2.26.007v9.04c0,1.7-1.188,3.371-3.4,4.649-2.8,1.617-7.321,2.7-12.419,2.7s-9.616-1.079-12.419-2.7c-2.214-1.278-3.4-2.945-3.4-4.649v-9.047a1.13,1.13,0,0,1,2.26.007c0,1.042.918,1.91,2.27,2.69,2.546,1.469,6.659,2.395,11.29,2.395s8.744-.926,11.29-2.395c1.353-.781,2.27-1.649,2.27-2.69Zm-27.121,3.888a10.267,10.267,0,0,0,1.141.762c2.8,1.617,7.321,2.7,12.419,2.7s9.616-1.079,12.419-2.7a10.152,10.152,0,0,0,1.141-.762V198.3c0,1.042-.918,1.91-2.27,2.69-2.546,1.469-6.659,2.395-11.29,2.395s-8.744-.926-11.29-2.395c-1.353-.781-2.27-1.649-2.27-2.69Z" transform="translate(-53.34 -102.874)" fill="#4fa83d" fill-rule="evenodd"></path><path id="Path_46291" data-name="Path 46291" d="M256.881,119.26v-.007a1.13,1.13,0,0,1,2.26.007v9.04c0,1.7-1.188,3.371-3.4,4.649-2.8,1.617-7.321,2.7-12.419,2.7s-9.616-1.079-12.419-2.7c-2.214-1.278-3.4-2.945-3.4-4.649v-9.047a1.13,1.13,0,0,1,2.26.007c0,1.042.918,1.91,2.27,2.69,2.546,1.469,6.659,2.395,11.29,2.395s8.744-.926,11.29-2.395c1.353-.781,2.27-1.649,2.27-2.69Zm-27.121,3.888a10.266,10.266,0,0,0,1.141.762c2.8,1.617,7.321,2.7,12.419,2.7s9.616-1.079,12.419-2.7a10.15,10.15,0,0,0,1.141-.762V128.3c0,1.042-.918,1.91-2.27,2.69-2.546,1.469-6.659,2.395-11.29,2.395s-8.744-.926-11.29-2.395c-1.353-.781-2.27-1.649-2.27-2.69Z" transform="translate(-53.34 -41.914)" fill="#4fa83d" fill-rule="evenodd"></path><path id="Path_46292" data-name="Path 46292" d="M219.88,448.51h12.43a1.13,1.13,0,1,0,0-2.26H219.88a1.13,1.13,0,1,0,0,2.26Z" transform="translate(-45.72 -327.658)" fill="#4fa83d" fill-rule="evenodd"></path><path id="Path_46293" data-name="Path 46293" d="M368.63,448.51h12.431a1.13,1.13,0,1,0,0-2.26H368.63a1.13,1.13,0,1,0,0,2.26Z" transform="translate(-175.259 -327.658)" fill="#4fa83d" fill-rule="evenodd"></path><path id="Path_46294" data-name="Path 46294" d="M319.52,420a4.52,4.52,0,1,0,4.52,4.52A4.522,4.522,0,0,0,319.52,420Zm0,2.26a2.26,2.26,0,1,1-2.26,2.26A2.261,2.261,0,0,1,319.52,422.26Z" transform="translate(-129.539 -304.798)" fill="#4fa83d" fill-rule="evenodd"></path><path id="Path_46295" data-name="Path 46295" d="M170.77,420a4.52,4.52,0,1,0,4.52,4.52A4.522,4.522,0,0,0,170.77,420Zm0,2.26a2.26,2.26,0,1,1-2.26,2.26A2.261,2.261,0,0,1,170.77,422.26Z" transform="translate(0 -304.798)" fill="#4fa83d" fill-rule="evenodd"></path><path id="Path_46296" data-name="Path 46296" d="M468.27,420a4.52,4.52,0,1,0,4.52,4.52A4.522,4.522,0,0,0,468.27,420Zm0,2.26a2.26,2.26,0,1,1-2.26,2.26A2.261,2.261,0,0,1,468.27,422.26Z" transform="translate(-259.078 -304.798)" fill="#4fa83d" fill-rule="evenodd"></path><path id="Path_46297" data-name="Path 46297" d="M343.51,383.03v-5.65a1.13,1.13,0,1,0-2.26,0v5.65a1.13,1.13,0,1,0,2.26,0Z" transform="translate(-152.399 -266.698)" fill="#4fa83d" fill-rule="evenodd"></path></g></g></svg>