<svg xmlns="http://www.w3.org/2000/svg" width="31.005" height="31.005" viewBox="0 0 31.005 31.005"><g id="world" transform="translate(0.5 0.5)"><g id="Group_4217" data-name="Group 4217" transform="translate(3.944 3.533)"><circle id="Ellipse_640" data-name="Ellipse 640" cx="10.542" cy="10.542" r="10.542" transform="translate(0.741 0.703)" fill="#4fa83d" stroke="#cae2bc" stroke-linejoin="round" stroke-width="1"/><g id="Group_4216" data-name="Group 4216"><circle id="Ellipse_641" data-name="Ellipse 641" cx="1.172" cy="1.172" r="1.172" transform="translate(0 20.594)" fill="#4fa83d" stroke="#cae2bc" stroke-linejoin="round" stroke-width="1"/><circle id="Ellipse_642" data-name="Ellipse 642" cx="1.172" cy="1.172" r="1.172" transform="translate(19.48)" fill="#4fa83d" stroke="#cae2bc" stroke-linejoin="round" stroke-width="1"/></g></g><g id="Group_4219" data-name="Group 4219" transform="translate(0)"><g id="Group_4218" data-name="Group 4218"><path id="Path_21270" data-name="Path 21270" d="M81.682,139.256a.586.586,0,0,0-.272.783,13.671,13.671,0,0,1,1.372,6A13.823,13.823,0,0,1,60.651,157.1a1.758,1.758,0,1,0-.839.834,14.995,14.995,0,0,0,24.143-11.889,14.833,14.833,0,0,0-1.489-6.514A.586.586,0,0,0,81.682,139.256Zm-23.031,17.5a.586.586,0,1,1,.829,0A.586.586,0,0,1,58.65,156.754Z" transform="translate(-53.949 -131.04)" fill="#cae2bc" stroke="#cae2bc" stroke-linejoin="round" stroke-width="1"/><path id="Path_21271" data-name="Path 21271" d="M2.124,21.505a.586.586,0,0,0,.29-.776A13.687,13.687,0,0,1,1.172,15,13.846,13.846,0,0,1,15,1.172a13.657,13.657,0,0,1,8.092,2.62,1.759,1.759,0,1,0,.949-.755A15,15,0,0,0,0,15a14.851,14.851,0,0,0,1.348,6.213A.586.586,0,0,0,2.124,21.505ZM25.01,4.291a.586.586,0,1,1-.829,0A.586.586,0,0,1,25.01,4.291Z" transform="translate(0)" fill="#cae2bc" stroke="#cae2bc" stroke-linejoin="round" stroke-width="1"/><path id="Path_21272" data-name="Path 21272" d="M77.135,66A11.135,11.135,0,1,0,88.269,77.135,11.12,11.12,0,0,0,77.135,66ZM67.172,77.135a9.928,9.928,0,0,1,.44-2.93h3.862a21.6,21.6,0,0,0,0,5.861H67.612A9.928,9.928,0,0,1,67.172,77.135Zm5.274,0a19.774,19.774,0,0,1,.216-2.93h3.887v5.86H72.662A19.774,19.774,0,0,1,72.446,77.135Zm8.945-4.1h-3.67V67.253C79.333,67.7,80.72,69.975,81.391,73.032Zm-4.842-5.779v5.779h-3.67C73.55,69.975,74.936,67.7,76.549,67.253Zm0,13.983v5.779c-1.613-.45-3-2.722-3.67-5.779Zm1.172,5.779v-5.78h3.67C80.72,84.294,79.333,86.566,77.721,87.016Zm0-6.951V74.2h3.887a20.009,20.009,0,0,1,0,5.86ZM82.8,74.2h3.862a9.977,9.977,0,0,1,0,5.86H82.8a21.6,21.6,0,0,0,0-5.86Zm3.418-1.172H82.594a12.378,12.378,0,0,0-2.323-5.354A10.015,10.015,0,0,1,86.213,73.032ZM74,67.678a12.379,12.379,0,0,0-2.323,5.354H68.056A10.015,10.015,0,0,1,74,67.678ZM68.056,81.237h3.618A12.378,12.378,0,0,0,74,86.591,10.015,10.015,0,0,1,68.056,81.237Zm12.215,5.354a12.378,12.378,0,0,0,2.323-5.355h3.618A10.014,10.014,0,0,1,80.271,86.591Z" transform="translate(-62.132 -62.132)" fill="#cae2bc" stroke="#cae2bc" stroke-linejoin="round" stroke-width="1"/></g></g></g></svg>