<svg xmlns="http://www.w3.org/2000/svg" width="30.719" height="30.726" viewBox="0 0 30.719 30.726"><g id="Group_5927" data-name="Group 5927" transform="translate(1684.352 -10100)"><path id="Path_21327" data-name="Path 21327" d="M15.515,303.838a2.626,2.626,0,0,0,.659-1.983s-3.005,2.83-5.231,3.072a3.554,3.554,0,0,1,.417-2.05,25.191,25.191,0,0,0-3.308.84,24.061,24.061,0,0,0,.847-3.3,3.485,3.485,0,0,1-2.05.417c.242-2.225,3.072-5.231,3.072-5.231a2.654,2.654,0,0,0-1.983.659c-.7-3.943,4.566-3.967,4.566-3.967l6.972,6.972C19.482,299.278,19.452,304.533,15.515,303.838Z" transform="translate(-1690.791 9825.376)" fill="#4fa83d"/><path id="Path_21328" data-name="Path 21328" d="M32.528,295.6a5.03,5.03,0,0,0-3.271,1.282,1.928,1.928,0,0,0-.429.943,3.961,3.961,0,0,1,1.391-.212l1.433.036-.98,1.046a14.1,14.1,0,0,0-2.721,4.112,5.094,5.094,0,0,0,.98-.327l1.1-.472-.224,1.179c-.012.067-.224,1.173-.5,2.207,1.028-.272,2.141-.478,2.207-.49l1.179-.224-.472,1.1a5.554,5.554,0,0,0-.327.98,14.35,14.35,0,0,0,4.112-2.721l1.046-.98.036,1.433a3.97,3.97,0,0,1-.206,1.391,1.908,1.908,0,0,0,.937-.429,5.044,5.044,0,0,0,1.282-3.277Z" transform="translate(-1710.615 9822.275)" fill="#cae2bc"/><path id="Path_21329" data-name="Path 21329" d="M18.518,153.092A10.865,10.865,0,0,0,.05,159.43a6.282,6.282,0,0,1,.435-.472,8.622,8.622,0,0,1,12.173,0,8.622,8.622,0,0,1,0,12.173c-.151.151-.314.3-.472.435a10.863,10.863,0,0,0,6.331-18.474Z" transform="translate(-1684.402 9959.159)" fill="#4fa83d"/><path id="Path_21330" data-name="Path 21330" d="M122.1,0a22.456,22.456,0,0,0-4.4.435,22.242,22.242,0,0,0-17.343,17.24l6.984,6.984A22.18,22.18,0,0,0,125,2.915V0Z" transform="translate(-1778.637 10100)" fill="#cae2bc"/><path id="Path_21331" data-name="Path 21331" d="M268.646,88.374a4.86,4.86,0,1,0-3.453,8.3,4.865,4.865,0,0,0,3.453-8.3Z" transform="translate(-1928.961 10018.308)" fill="#fff"/><circle id="Ellipse_644" data-name="Ellipse 644" cx="3.235" cy="3.235" r="3.235" transform="translate(-1666.985 10106.882)" fill="#4fa83d"/><path id="Path_21332" data-name="Path 21332" d="M394.025,7.311,387.15.435a22.41,22.41,0,0,1,4.4-.435h2.909V2.909A22.454,22.454,0,0,1,394.025,7.311Z" transform="translate(-2048.094 10100)" fill="#4fa83d"/></g></svg>