<svg xmlns="http://www.w3.org/2000/svg" width="61" height="58" viewBox="0 0 61 58"><g id="Group_5062" data-name="Group 5062" transform="translate(-180 -1082)"><rect id="Rectangle_6430" data-name="Rectangle 6430" width="61" height="58" rx="14" transform="translate(180 1082)" fill="#2c2f32"></rect><g id="Group_4247" data-name="Group 4247" transform="translate(193 1098)"><path id="Path_13797" data-name="Path 13797" d="M213.534,91.344a3.623,3.623,0,1,1,0-5.119A3.632,3.632,0,0,1,213.534,91.344Zm0,0" transform="translate(-193.088 -75.664)" fill="#59a52c"></path><path id="Path_13798" data-name="Path 13798" d="M293.528,61.589a1.724,1.724,0,0,1-1.218-2.944,7.2,7.2,0,0,0,0-10.2A1.724,1.724,0,1,1,294.745,46a10.65,10.65,0,0,1,0,15.082A1.717,1.717,0,0,1,293.528,61.589Zm0,0" transform="translate(-268.128 -40.424)" fill="#cae2bc"></path><path id="Path_13799" data-name="Path 13799" d="M328.481,26.243a1.724,1.724,0,0,1-1.218-2.944,14.37,14.37,0,0,0,0-20.352A1.724,1.724,0,1,1,329.7.507a17.819,17.819,0,0,1,0,25.233,1.719,1.719,0,0,1-1.218.5Zm0,0" transform="translate(-299.181 -0.003)" fill="#cae2bc"></path><path id="Path_13800" data-name="Path 13800" d="M137.749,61.588a1.719,1.719,0,0,1-1.218-.5,10.651,10.651,0,0,1,0-15.082,1.724,1.724,0,1,1,2.435,2.44,7.2,7.2,0,0,0,0,10.2,1.724,1.724,0,0,1-1.217,2.944Zm0,0" transform="translate(-127.396 -40.423)" fill="#cae2bc"></path><path id="Path_13801" data-name="Path 13801" d="M86.02,26.241a1.718,1.718,0,0,1-1.218-.5A17.819,17.819,0,0,1,84.8.5a1.724,1.724,0,0,1,2.436,2.44,14.37,14.37,0,0,0,0,20.352,1.724,1.724,0,0,1-1.218,2.944Zm0,0" transform="translate(-79.566 -0.001)" fill="#cae2bc"></path></g></g></svg>