<svg xmlns="http://www.w3.org/2000/svg" width="61" height="58" viewBox="0 0 61 58"><g id="Group_5560" data-name="Group 5560" transform="translate(-732 -1103)"><rect id="Rectangle_6430" data-name="Rectangle 6430" width="61" height="58" rx="14" transform="translate(732 1103)" fill="#2c2f32"></rect><g id="Group_4603" data-name="Group 4603" transform="translate(749 1118)"><g id="Group_3429" data-name="Group 3429"><path id="Icon_material-video-library" data-name="Icon material-video-library" d="M36.132,3H15.485a3.451,3.451,0,0,0-3.441,3.441V27.088a3.451,3.451,0,0,0,3.441,3.441H36.132a3.451,3.451,0,0,0,3.441-3.441V6.441A3.451,3.451,0,0,0,36.132,3ZM22.368,24.507V9.022l10.323,7.743Z" transform="translate(-12.044 -3)" fill="#cae2bc"></path><rect id="Rectangle_3541" data-name="Rectangle 3541" width="21.307" height="21.307" transform="translate(2.912 2.747)" fill="#cae2bc"></rect></g><path id="Path_14028" data-name="Path 14028" d="M455.039,382.935v9.576l6.722-4.788Z" transform="translate(-444.388 -373.804)" fill="#569532"></path></g></g></svg>