<svg xmlns="http://www.w3.org/2000/svg" width="99" height="79" viewBox="0 0 99 79" fill="none"><path fill-rule="evenodd" clip-rule="evenodd" d="M0.394202 8.95938L8.95938 0.394203C9.48498 -0.131401 10.3372 -0.131401 10.8628 0.394203L19.4279 8.95938C19.9535 9.48498 19.9535 10.3372 19.4279 10.8628C18.9023 11.3884 18.0502 11.3884 17.5246 10.8628L12.4057 5.74393C11.9818 5.32 11.257 5.62025 11.257 6.21978L11.257 67.0701C11.257 67.4418 11.5582 67.743 11.9299 67.743H19.5153V66.8457V43.9656V41.7224H21.7585H32.9742H35.2174V43.9656V66.8457V67.743H39.928V66.8456V26.469V24.2258H42.1711H53.3869H55.63V26.469V66.8456V67.743H61.6865V66.8457V52.041V49.7978H63.9296H75.1454H77.3885V52.041V66.8457V67.743H91.847C92.4465 67.743 92.7467 67.0182 92.3228 66.5943L87.204 61.4754C86.6784 60.9498 86.6784 60.0977 87.204 59.5721C87.7296 59.0465 88.5818 59.0465 89.1074 59.5721L97.6725 68.1372C98.1982 68.6628 98.1982 69.515 97.6725 70.0406L89.1074 78.6058C88.5818 79.1314 87.7296 79.1314 87.204 78.6058C86.6784 78.0802 86.6784 77.228 87.204 76.7024L92.3228 71.5836C92.7467 71.1597 92.4465 70.4348 91.847 70.4348H9.23812C8.86646 70.4348 8.56518 70.1335 8.56518 69.7619V67.743L8.56518 6.21977C8.56518 5.62024 7.84032 5.32 7.41639 5.74393L2.29757 10.8628C1.77197 11.3884 0.919803 11.3884 0.394202 10.8628C-0.131401 10.3372 -0.131401 9.48498 0.394202 8.95938ZM21.7585 43.9656H32.9742V66.8457H21.7585V43.9656ZM53.3869 26.469H42.1711V66.8456H53.3869V26.469ZM63.9296 52.041H75.1454V66.8457H63.9296V52.041Z" fill="#4FA83D"></path></svg>