<svg xmlns="http://www.w3.org/2000/svg" width="99" height="64" viewBox="0 0 99 64" fill="none"><path d="M87.1227 61.0786L81.3841 51.2652C84.2893 49.1914 86.2832 46.0773 86.9509 42.5709C87.6187 39.0645 86.9089 35.4356 84.9692 32.4391C83.0295 29.4427 80.0093 27.3094 76.5368 26.483C73.0643 25.6567 69.4069 26.2009 66.3254 28.0024C63.244 29.804 60.9757 32.7242 59.9924 36.1555C59.0092 39.5869 59.3866 43.2653 61.0463 46.4254C62.706 49.5855 65.5202 51.9841 68.9033 53.1223C72.2865 54.2604 75.9782 54.0504 79.2105 52.536L84.9471 62.3505C85.0306 62.4933 85.1415 62.6183 85.2733 62.7184C85.4051 62.8184 85.5554 62.8914 85.7154 62.9334C85.8755 62.9754 86.0422 62.9854 86.2062 62.9629C86.3701 62.9404 86.528 62.8858 86.6709 62.8023C86.8137 62.7188 86.9387 62.608 87.0387 62.4761C87.1387 62.3443 87.2118 62.1941 87.2538 62.034C87.2957 61.874 87.3057 61.7072 87.2832 61.5433C87.2608 61.3793 87.2062 61.2214 87.1227 61.0786ZM62.3746 37.1238C62.943 34.9554 64.1416 33.0042 65.8189 31.5171C67.4962 30.0299 69.5768 29.0734 71.7977 28.7687C74.0185 28.464 76.2798 28.8247 78.2957 29.8052C80.3115 30.7857 81.9914 32.3419 83.1228 34.2771C84.2542 36.2123 84.7863 38.4396 84.6519 40.6772C84.5175 42.9148 83.7225 45.0623 82.3676 46.8481C81.0127 48.634 79.1586 49.9779 77.0399 50.71C74.9212 51.4422 72.6329 51.5296 70.4645 50.9612C67.5586 50.1961 65.0749 48.3095 63.5583 45.7153C62.0416 43.1212 61.616 40.0314 62.3746 37.1238Z" fill="#4FA83D"></path><path d="M7.83203 27.7825L20.6977 6.52612L38.0384 40.6481L54.6333 20.1376" stroke="#4FA83D" stroke-width="2.61043"></path><circle cx="21.256" cy="5.22086" r="4.28856" fill="#4FA83D" stroke="#4FA83D" stroke-width="1.86459"></circle><circle cx="5.22086" cy="32.071" r="4.28856" fill="#4FA83D" stroke="#4FA83D" stroke-width="1.86459"></circle><circle cx="37.6642" cy="40.6481" r="4.28856" fill="#4FA83D" stroke="#4FA83D" stroke-width="1.86459"></circle><circle cx="55.4455" cy="20.5105" r="4.28856" fill="#4FA83D" stroke="#4FA83D" stroke-width="1.86459"></circle><path d="M54.6426 17.5861L72.8567 41.4529L92.327 14.7598" stroke="#4FA83D" stroke-width="2.61043"></path><rect x="67" y="36" width="12" height="9" fill="#4FA83D"></rect><circle cx="93.7794" cy="14.0138" r="4.28856" fill="#4FA83D" stroke="#4FA83D" stroke-width="1.86459"></circle></svg>