<svg xmlns="http://www.w3.org/2000/svg" width="69" height="83" viewBox="0 0 69 83" fill="none"><path d="M37.6264 0.803604C39.1106 1.2479 40.8121 1.74892 41.4076 1.92853C43.0525 2.41063 58.9336 7.0899 63.7075 8.49841C66.014 9.17903 68.0464 9.80293 68.2166 9.87856C68.3962 9.96364 68.6325 10.1905 68.7459 10.3796L68.9634 10.7199L68.9917 22.2054C69.0295 36.0447 68.9634 37.7935 68.2449 42.1514C66.0045 55.8111 58.8958 67.7503 48.4785 75.36C45.7277 77.3641 42.6555 79.0845 39.3847 80.4552C37.7777 81.1264 34.9701 82.0433 34.5353 82.0433C34.1288 82.0433 32.6163 81.5896 30.9147 80.9562C20.6109 77.1183 11.7912 69.1399 6.31784 58.7226C2.93363 52.2756 0.967392 45.5923 0.23951 37.992C0.116615 36.6402 -0.0629883 26.7145 0.0220947 26.4025C0.23951 25.6085 1.12811 25.098 1.89381 25.3249C2.36646 25.4667 2.80129 25.9015 2.93364 26.3553C2.9809 26.5443 3.02817 27.1304 3.02817 27.6503C3.02817 29.541 3.43465 39.5896 3.84113 41.9623C5.36308 50.8765 9.02142 58.9306 14.5704 65.6044C15.6669 66.9184 18.3327 69.6409 19.6089 70.728C23.6264 74.1878 28.4758 76.9576 33.3064 78.5552L34.5164 78.9522L35.7169 78.5552C47.2686 74.7172 56.8351 65.4626 61.9681 53.1642C63.6696 49.0805 64.9553 44.2405 65.5035 39.7881C65.8628 36.886 65.8911 35.8367 65.8911 23.9542V12.3175L63.1214 11.5045C61.6089 11.0602 54.5474 8.98052 47.4387 6.88194L34.5164 3.0818L30.565 4.24453C28.3908 4.88734 25.4036 5.76647 23.9195 6.20132C22.4353 6.63616 20.6109 7.17498 19.8546 7.40186C19.0984 7.61928 15.0241 8.81982 10.7986 10.0676L3.1227 12.3269V19.3222C3.1227 23.6233 3.08488 26.4403 3.02817 26.6389C2.89583 27.1021 2.42317 27.5558 1.93161 27.6882C1.5724 27.7921 1.44951 27.7827 1.1092 27.6503C0.589279 27.4518 0.23951 27.0832 0.107162 26.6011C-0.0346298 26.0717 -0.0346298 11.3911 0.107162 10.8239C0.163887 10.5781 0.334038 10.2945 0.504196 10.1243C0.835052 9.80294 0.315132 9.96364 12.9539 6.23913C32.0396 0.624001 34.2139 -0.00935364 34.5636 9.91821e-05C34.7621 9.91821e-05 36.1423 0.368767 37.6264 0.803604Z" fill="#4FA83D"></path><path d="M33.8685 19.9233C33.0255 20.1207 32.3213 20.5582 31.8358 21.1984C30.7847 22.5963 30.9074 24.501 32.1292 25.7174C32.3693 25.9521 32.6734 26.1922 32.8708 26.2936L33.2016 26.4697V28.2036V29.9323H34.5621H35.9226V28.2036V26.4697L36.2534 26.2936C36.7709 26.0215 37.3524 25.4133 37.6192 24.8638C38.5742 22.9324 37.6565 20.7129 35.6291 20.0353C35.1063 19.8593 34.354 19.8113 33.8685 19.9233Z" fill="#4FA83D"></path><path d="M25.1853 29.9913C19.5086 30.3754 14.7762 34.6703 13.7839 40.3363C13.6345 41.19 13.5811 42.7959 13.6772 43.6548C13.9759 46.4505 15.1497 48.9901 17.049 50.9802C18.4789 52.4794 20.1168 53.5304 22.0642 54.2027C22.395 54.3147 22.8538 54.4481 23.0779 54.5014L23.494 54.6028L26.1883 54.8375L29.3628 54.8589L34.1645 54.8589L37.1256 54.8589L40.8336 54.8375C44.3069 54.8109 44.579 54.8055 45.1018 54.7042C47.7374 54.1813 49.8449 53.1089 51.6535 51.359C52.7366 50.3079 53.4782 49.2942 54.1664 47.907C54.828 46.5786 55.2388 45.1754 55.3989 43.6548C55.4949 42.7959 55.4415 41.19 55.2921 40.3363C54.8547 37.8394 53.7183 35.5986 51.9843 33.806C49.7542 31.5011 46.9745 30.2047 43.784 29.9859C42.845 29.9219 26.135 29.9272 25.1853 29.9913ZM44.2482 33.0484C48.1589 33.5712 51.3654 36.5056 52.219 40.3523C52.9126 43.4414 52.011 46.6586 49.8288 48.9154C48.9432 49.8277 48.271 50.3293 47.1986 50.8681C46.1849 51.3803 45.1018 51.6897 43.9547 51.8071C43.5439 51.8498 40.6469 51.8605 34.1645 51.8498C25.5748 51.8338 24.9292 51.8231 24.481 51.7378C23.0245 51.4443 21.8934 50.9802 20.7197 50.1905C19.9087 49.641 18.7883 48.5153 18.2495 47.699C16.7716 45.4635 16.2861 42.9026 16.857 40.3523C17.7213 36.4736 20.9544 33.5445 24.9345 33.0324C25.1266 33.0057 29.4215 32.9843 34.4847 32.979C42.0981 32.979 43.784 32.9897 44.2482 33.0484Z" fill="#4FA83D"></path><path d="M24.9337 35.2408C23.4505 35.4756 22.0313 36.2012 20.9589 37.2682C19.8972 38.3299 19.225 39.5997 18.9262 41.1149C18.7928 41.7658 18.7928 43.0676 18.9262 43.7239C19.5184 46.7116 21.7326 48.9417 24.7203 49.5553C25.1418 49.6407 25.8514 49.646 34.5372 49.646C43.223 49.646 43.9326 49.6407 44.354 49.5553C48.4995 48.707 51.0658 44.6789 50.0361 40.6347C49.7053 39.3169 49.0917 38.2446 48.1154 37.2682C47.027 36.1851 45.6078 35.4702 44.0873 35.2408C43.3617 35.1288 25.6326 35.1341 24.9337 35.2408ZM28.7591 40.0372C29.2233 40.1599 29.5327 40.3413 29.8742 40.6774C31.272 42.0753 30.5731 44.4174 28.631 44.8176C27.7454 45.0043 26.7744 44.6255 26.2035 43.8679C25.4619 42.8862 25.6059 41.4084 26.5289 40.5974C27.1478 40.0532 28.0015 39.8345 28.7591 40.0372ZM41.4997 40.0372C42.6147 40.336 43.3403 41.2696 43.3403 42.4167C43.3403 42.9823 43.191 43.4464 42.8708 43.8679C41.7558 45.3458 39.5096 45.1324 38.704 43.4678C38.0371 42.1019 38.8 40.448 40.2886 40.0425C40.6194 39.9518 41.1689 39.9465 41.4997 40.0372Z" fill="#4FA83D"></path></svg>