<svg xmlns="http://www.w3.org/2000/svg" width="60.381" height="67.088" viewBox="0 0 60.381 67.088"><g id="Group_6168" data-name="Group 6168" transform="translate(-728 -1975.383)"><g id="Group_6147" data-name="Group 6147" transform="translate(1352.431 -379.617)"><g id="noun-integration-2336025" transform="translate(-624.43 2355)"><path id="Path_46234" data-name="Path 46234" d="M342.62,63.191h2.236v7.142H342.62Z" transform="translate(-313.372 -57.352)" fill="#4fa83d"></path><path id="Path_46235" data-name="Path 46235" d="M323.772,25.391a3.946,3.946,0,1,1,4-3.945A3.976,3.976,0,0,1,323.772,25.391Zm0-5.655a1.71,1.71,0,1,0,1.763,1.71A1.739,1.739,0,0,0,323.772,19.736Z" transform="translate(-293.445 -17.5)" fill="#4fa83d"></path><path id="Path_46236" data-name="Path 46236" d="M165.793,174.567l-6.433-4.129" transform="translate(-153.53 -150.895)" fill="#4fa83d"></path><path id="Path_46237" data-name="Path 46237" d="M154.62,164.942l1.207-1.881,6.432,4.129-1.207,1.881Z" transform="translate(-149.396 -144.46)" fill="#4fa83d"></path><path id="Path_46238" data-name="Path 46238" d="M118.8,140.315a4.008,4.008,0,0,1-1.983-.522,3.927,3.927,0,0,1-1.875-2.414,3.868,3.868,0,0,1,.408-2.988,4.039,4.039,0,0,1,5.45-1.441,3.927,3.927,0,0,1,1.875,2.414,3.868,3.868,0,0,1-.408,2.988,4.014,4.014,0,0,1-3.467,1.963Zm.01-5.654a1.774,1.774,0,0,0-1.533.863,1.657,1.657,0,0,0-.174,1.276,1.708,1.708,0,0,0,.817,1.047,1.79,1.79,0,0,0,2.419-.629,1.653,1.653,0,0,0,.176-1.276,1.708,1.708,0,0,0-.817-1.047,1.81,1.81,0,0,0-.888-.234Z" transform="translate(-114.673 -117.743)" fill="#4fa83d"></path><path id="Path_46239" data-name="Path 46239" d="M164.406,354.92l-6.434,4.129" transform="translate(-152.32 -311.803)" fill="#4fa83d"></path><path id="Path_46240" data-name="Path 46240" d="M153.25,351.673l6.433-4.13,1.207,1.881-6.433,4.129Z" transform="translate(-148.201 -305.369)" fill="#4fa83d"></path><path id="Path_46241" data-name="Path 46241" d="M117.75,371.948a4.018,4.018,0,0,1-3.467-1.962,3.871,3.871,0,0,1-.408-2.987,3.924,3.924,0,0,1,1.875-2.414,4.039,4.039,0,0,1,5.451,1.441,3.867,3.867,0,0,1,.407,2.988,3.925,3.925,0,0,1-1.875,2.414,4.024,4.024,0,0,1-1.982.521Zm-.009-5.653a1.79,1.79,0,0,0-.889.235,1.707,1.707,0,0,0-.817,1.047,1.657,1.657,0,0,0,.174,1.276,1.793,1.793,0,0,0,2.421.629,1.706,1.706,0,0,0,.817-1.047,1.657,1.657,0,0,0-.174-1.276A1.769,1.769,0,0,0,117.742,366.295Zm-1.44-.739h.011Z" transform="translate(-113.741 -319.777)" fill="#4fa83d"></path><path id="Path_46242" data-name="Path 46242" d="M339.88,440.92h2.236v7.142H339.88Z" transform="translate(-310.983 -386.813)" fill="#4fa83d"></path><path id="Path_46243" data-name="Path 46243" d="M321.632,488.641a3.946,3.946,0,1,1,4-3.946A3.977,3.977,0,0,1,321.632,488.641Zm0-5.655a1.71,1.71,0,1,0,1.763,1.709A1.738,1.738,0,0,0,321.632,482.986Z" transform="translate(-291.578 -421.553)" fill="#4fa83d"></path><path id="Path_46244" data-name="Path 46244" d="M490.3,357.25l6.433,4.129" transform="translate(-442.181 -313.835)" fill="#4fa83d"></path><path id="Path_46245" data-name="Path 46245" d="M485.56,351.772l1.207-1.881,6.432,4.129-1.207,1.881Z" transform="translate(-438.047 -307.416)" fill="#4fa83d"></path><path id="Path_46246" data-name="Path 46246" d="M526.562,373.754a4,4,0,0,1-1.981-.522,3.927,3.927,0,0,1-1.875-2.414,3.868,3.868,0,0,1,.408-2.988,4.037,4.037,0,0,1,5.45-1.441,3.926,3.926,0,0,1,1.875,2.414,3.869,3.869,0,0,1-.408,2.987,4.019,4.019,0,0,1-3.469,1.963Zm.01-5.654a1.768,1.768,0,0,0-1.531.863,1.653,1.653,0,0,0-.176,1.276,1.708,1.708,0,0,0,.817,1.047,1.788,1.788,0,0,0,2.421-.629,1.656,1.656,0,0,0,.174-1.276,1.708,1.708,0,0,0-.817-1.047,1.8,1.8,0,0,0-.889-.234Z" transform="translate(-470.328 -321.351)" fill="#4fa83d"></path><path id="Path_46247" data-name="Path 46247" d="M491.68,176.9l6.434-4.129" transform="translate(-443.385 -152.927)" fill="#4fa83d"></path><path id="Path_46248" data-name="Path 46248" d="M486.94,169.523l6.433-4.129,1.207,1.881-6.433,4.13Z" transform="translate(-439.25 -146.495)" fill="#4fa83d"></path><path id="Path_46249" data-name="Path 46249" d="M527.646,142.132a4.017,4.017,0,0,1-3.467-1.963,3.867,3.867,0,0,1-.407-2.987,3.924,3.924,0,0,1,1.875-2.414,4.039,4.039,0,0,1,5.45,1.44,3.872,3.872,0,0,1,.408,2.988,3.925,3.925,0,0,1-1.875,2.414,4,4,0,0,1-1.984.523Zm-.007-5.653a1.8,1.8,0,0,0-.889.234,1.707,1.707,0,0,0-.817,1.047,1.657,1.657,0,0,0,.174,1.276,1.789,1.789,0,0,0,2.421.629,1.706,1.706,0,0,0,.817-1.047,1.656,1.656,0,0,0-.174-1.276A1.774,1.774,0,0,0,527.639,136.479Z" transform="translate(-471.259 -119.328)" fill="#4fa83d"></path></g><g id="noun-settings-1558245" transform="translate(-610.249 2372.534)"><path id="Path_46250" data-name="Path 46250" d="M123.337,39.2a2.229,2.229,0,0,0-2.234,2.234v1.8a12.551,12.551,0,0,0-1.478.605l-1.268-1.268a2.235,2.235,0,0,0-3.165,0l-2.629,2.629a2.235,2.235,0,0,0,0,3.165l1.268,1.268a12.575,12.575,0,0,0-.605,1.478h-1.8a2.229,2.229,0,0,0-2.234,2.234v3.723a2.229,2.229,0,0,0,2.234,2.234h1.8a12.552,12.552,0,0,0,.605,1.478l-1.268,1.268a2.235,2.235,0,0,0,0,3.165l2.629,2.629a2.235,2.235,0,0,0,3.165,0l1.268-1.268a12.573,12.573,0,0,0,1.478.605v1.8a2.229,2.229,0,0,0,2.234,2.234h3.723a2.229,2.229,0,0,0,2.234-2.234v-1.8a12.55,12.55,0,0,0,1.478-.605l1.268,1.268a2.235,2.235,0,0,0,3.165,0l2.629-2.629a2.235,2.235,0,0,0,0-3.165l-1.268-1.268a12.575,12.575,0,0,0,.605-1.478h1.8a2.229,2.229,0,0,0,2.234-2.234V53.351a2.229,2.229,0,0,0-2.234-2.234h-1.8a12.549,12.549,0,0,0-.605-1.478l1.268-1.268a2.235,2.235,0,0,0,0-3.165L135.2,42.577a2.235,2.235,0,0,0-3.165,0l-1.268,1.268a12.57,12.57,0,0,0-1.478-.605v-1.8A2.229,2.229,0,0,0,127.06,39.2Zm1.861,8.563a7.446,7.446,0,1,1-7.446,7.446A7.446,7.446,0,0,1,125.2,47.766Z" transform="translate(-109.189 -39.203)" fill="#cae2bc"></path></g></g><circle id="Ellipse_2082" data-name="Ellipse 2082" cx="2.5" cy="2.5" r="2.5" transform="translate(756 1977)" fill="#4fa83d"></circle><circle id="Ellipse_2083" data-name="Ellipse 2083" cx="2.5" cy="2.5" r="2.5" transform="translate(782 1992)" fill="#4fa83d"></circle><circle id="Ellipse_2084" data-name="Ellipse 2084" cx="2.5" cy="2.5" r="2.5" transform="translate(782 2021)" fill="#4fa83d"></circle><circle id="Ellipse_2085" data-name="Ellipse 2085" cx="2.5" cy="2.5" r="2.5" transform="translate(755 2036)" fill="#4fa83d"></circle><circle id="Ellipse_2086" data-name="Ellipse 2086" cx="2.5" cy="2.5" r="2.5" transform="translate(730 2021)" fill="#4fa83d"></circle><circle id="Ellipse_2087" data-name="Ellipse 2087" cx="2.5" cy="2.5" r="2.5" transform="translate(730 1991)" fill="#4fa83d"></circle></g></svg>