<svg width="75" height="17" viewBox="0 0 75 17" fill="none" xmlns="http://www.w3.org/2000/svg">
<path d="M7.89474 0.964844L9.66722 6.41997H15.4031L10.7627 9.79143L12.5351 15.2466L7.89474 11.8751L3.25433 15.2466L5.02681 9.79143L0.386396 6.41997H6.12226L7.89474 0.964844Z" fill="#F3B304"/>
<path d="M22.8947 0.964844L24.6672 6.41997H30.4031L25.7627 9.79143L27.5351 15.2466L22.8947 11.8751L18.2543 15.2466L20.0268 9.79143L15.3864 6.41997H21.1223L22.8947 0.964844Z" fill="#F3B304"/>
<path d="M37.5 0.964844L39.1839 6.41997H44.6329L40.2245 9.79143L41.9084 15.2466L37.5 11.8751L33.0916 15.2466L34.7755 9.79143L30.3671 6.41997H35.8161L37.5 0.964844Z" fill="#F3B304"/>
<path d="M52.1057 0.964844L53.8782 6.41997H59.614L54.9736 9.79143L56.7461 15.2466L52.1057 11.8751L47.4653 15.2466L49.2377 9.79143L44.5973 6.41997H50.3332L52.1057 0.964844Z" fill="#F3B304"/>
<path d="M67.1057 0.964844L68.8782 6.41997H74.614L69.9736 9.79143L71.7461 15.2466L67.1057 11.8751L62.4653 15.2466L64.2377 9.79143L59.5973 6.41997H65.3332L67.1057 0.964844Z" fill="#D3D3D3"/>
</svg>
