<svg xmlns="http://www.w3.org/2000/svg" width="34" height="21" viewBox="0 0 34 21" fill="none"><g id="USA_4_"><g id="Group"><g id="Group_2"><g id="Clip path group"><mask id="mask0_9372_55903" style="mask-type:luminance" maskUnits="userSpaceOnUse" x="0" y="0" width="34" height="21"><g id="SVGID_00000078729036821881156140000007325787250777871026_"><path id="Vector" d="M33.997 0.709961H0.437012V20.29H33.997V0.709961Z" fill="white"></path></g></mask><g mask="url(#mask0_9372_55903)"><path id="Vector_2" d="M33.997 18.7842H0.437012V20.2902H33.997V18.7842Z" fill="#CB001C"></path></g></g><g id="Clip path group_2"><mask id="mask1_9372_55903" style="mask-type:luminance" maskUnits="userSpaceOnUse" x="0" y="0" width="34" height="21"><g id="SVGID_00000078729036821881156140000007325787250777871026__2"><path id="Vector_3" d="M33.997 0.709961H0.437012V20.29H33.997V0.709961Z" fill="white"></path></g></mask><g mask="url(#mask1_9372_55903)"><path id="Vector_4" d="M33.997 17.2777H0.437012V18.7841H33.997V17.2777Z" fill="white"></path></g></g><g id="Clip path group_3"><mask id="mask2_9372_55903" style="mask-type:luminance" maskUnits="userSpaceOnUse" x="0" y="0" width="34" height="21"><g id="SVGID_00000078729036821881156140000007325787250777871026__3"><path id="Vector_5" d="M33.997 0.709961H0.437012V20.29H33.997V0.709961Z" fill="white"></path></g></mask><g mask="url(#mask2_9372_55903)"><path id="Vector_6" d="M33.997 15.774H0.437012V17.2778H33.997V15.774Z" fill="#CB001C"></path></g></g><g id="Clip path group_4"><mask id="mask3_9372_55903" style="mask-type:luminance" maskUnits="userSpaceOnUse" x="0" y="0" width="34" height="21"><g id="SVGID_00000078729036821881156140000007325787250777871026__4"><path id="Vector_7" d="M33.997 0.709961H0.437012V20.29H33.997V0.709961Z" fill="white"></path></g></mask><g mask="url(#mask3_9372_55903)"><path id="Vector_8" d="M33.997 14.2661H0.437012V15.774H33.997V14.2661Z" fill="white"></path></g></g><g id="Clip path group_5"><mask id="mask4_9372_55903" style="mask-type:luminance" maskUnits="userSpaceOnUse" x="0" y="0" width="34" height="21"><g id="SVGID_00000078729036821881156140000007325787250777871026__5"><path id="Vector_9" d="M33.997 0.709961H0.437012V20.29H33.997V0.709961Z" fill="white"></path></g></mask><g mask="url(#mask4_9372_55903)"><path id="Vector_10" d="M33.997 12.7598H0.437012V14.2662H33.997V12.7598Z" fill="#CB001C"></path></g></g><g id="Clip path group_6"><mask id="mask5_9372_55903" style="mask-type:luminance" maskUnits="userSpaceOnUse" x="0" y="0" width="34" height="21"><g id="SVGID_00000078729036821881156140000007325787250777871026__6"><path id="Vector_11" d="M33.997 0.709961H0.437012V20.29H33.997V0.709961Z" fill="white"></path></g></mask><g mask="url(#mask5_9372_55903)"><path id="Vector_12" d="M33.997 11.2542H0.437012V12.7598H33.997V11.2542Z" fill="white"></path></g></g><g id="Clip path group_7"><mask id="mask6_9372_55903" style="mask-type:luminance" maskUnits="userSpaceOnUse" x="0" y="0" width="34" height="21"><g id="SVGID_00000078729036821881156140000007325787250777871026__7"><path id="Vector_13" d="M33.997 0.709961H0.437012V20.29H33.997V0.709961Z" fill="white"></path></g></mask><g mask="url(#mask6_9372_55903)"><path id="Vector_14" d="M33.997 9.74585H0.437012V11.2541H33.997V9.74585Z" fill="#CB001C"></path></g></g><g id="Clip path group_8"><mask id="mask7_9372_55903" style="mask-type:luminance" maskUnits="userSpaceOnUse" x="0" y="0" width="34" height="21"><g id="SVGID_00000078729036821881156140000007325787250777871026__8"><path id="Vector_15" d="M33.997 0.709961H0.437012V20.29H33.997V0.709961Z" fill="white"></path></g></mask><g mask="url(#mask7_9372_55903)"><path id="Vector_16" d="M33.997 8.2417H0.437012V9.7458H33.997V8.2417Z" fill="white"></path></g></g><g id="Clip path group_9"><mask id="mask8_9372_55903" style="mask-type:luminance" maskUnits="userSpaceOnUse" x="0" y="0" width="34" height="21"><g id="SVGID_00000078729036821881156140000007325787250777871026__9"><path id="Vector_17" d="M33.997 0.709961H0.437012V20.29H33.997V0.709961Z" fill="white"></path></g></mask><g mask="url(#mask8_9372_55903)"><path id="Vector_18" d="M33.997 6.73621H0.437012V8.24183H33.997V6.73621Z" fill="#CB001C"></path></g></g><g id="Clip path group_10"><mask id="mask9_9372_55903" style="mask-type:luminance" maskUnits="userSpaceOnUse" x="0" y="0" width="34" height="21"><g id="SVGID_00000078729036821881156140000007325787250777871026__10"><path id="Vector_19" d="M33.997 0.709961H0.437012V20.29H33.997V0.709961Z" fill="white"></path></g></mask><g mask="url(#mask9_9372_55903)"><path id="Vector_20" d="M33.997 5.22986H0.437012V6.73625H33.997V5.22986Z" fill="white"></path></g></g><g id="Clip path group_11"><mask id="mask10_9372_55903" style="mask-type:luminance" maskUnits="userSpaceOnUse" x="0" y="0" width="34" height="21"><g id="SVGID_00000078729036821881156140000007325787250777871026__11"><path id="Vector_21" d="M33.997 0.709961H0.437012V20.29H33.997V0.709961Z" fill="white"></path></g></mask><g mask="url(#mask10_9372_55903)"><path id="Vector_22" d="M33.997 3.72192H0.437012V5.22983H33.997V3.72192Z" fill="#CB001C"></path></g></g><g id="Clip path group_12"><mask id="mask11_9372_55903" style="mask-type:luminance" maskUnits="userSpaceOnUse" x="0" y="0" width="34" height="21"><g id="SVGID_00000078729036821881156140000007325787250777871026__12"><path id="Vector_23" d="M33.997 0.709961H0.437012V20.29H33.997V0.709961Z" fill="white"></path></g></mask><g mask="url(#mask11_9372_55903)"><path id="Vector_24" d="M33.997 2.2179H0.437012V3.722H33.997V2.2179Z" fill="white"></path></g></g><g id="Clip path group_13"><mask id="mask12_9372_55903" style="mask-type:luminance" maskUnits="userSpaceOnUse" x="0" y="0" width="34" height="21"><g id="SVGID_00000078729036821881156140000007325787250777871026__13"><path id="Vector_25" d="M33.997 0.709961H0.437012V20.29H33.997V0.709961Z" fill="white"></path></g></mask><g mask="url(#mask12_9372_55903)"><path id="Vector_26" d="M33.997 0.709961H0.437012V2.21787H33.997V0.709961Z" fill="#CB001C"></path></g></g><g id="Clip path group_14"><mask id="mask13_9372_55903" style="mask-type:luminance" maskUnits="userSpaceOnUse" x="0" y="0" width="34" height="21"><g id="SVGID_00000078729036821881156140000007325787250777871026__14"><path id="Vector_27" d="M33.997 0.709961H0.437012V20.29H33.997V0.709961Z" fill="white"></path></g></mask><g mask="url(#mask13_9372_55903)"><path id="Vector_28" d="M15.7629 0.709961H0.437012V11.2541H15.7629V0.709961Z" fill="#2A3560"></path></g></g><g id="Clip path group_15"><mask id="mask14_9372_55903" style="mask-type:luminance" maskUnits="userSpaceOnUse" x="0" y="0" width="34" height="21"><g id="SVGID_00000078729036821881156140000007325787250777871026__15"><path id="Vector_29" d="M33.997 0.709961H0.437012V20.29H33.997V0.709961Z" fill="white"></path></g></mask><g mask="url(#mask14_9372_55903)"><path id="Vector_30" d="M1.82171 1.87195L1.95285 2.27288H2.37232L2.03267 2.51869L2.16116 2.91714L1.82171 2.67134L1.48207 2.91714L1.61512 2.51869L1.2749 2.27288H1.69076L1.82171 1.87195Z" fill="white"></path></g></g><g id="Clip path group_16"><mask id="mask15_9372_55903" style="mask-type:luminance" maskUnits="userSpaceOnUse" x="0" y="0" width="34" height="21"><g id="SVGID_00000078729036821881156140000007325787250777871026__16"><path id="Vector_31" d="M33.997 0.709961H0.437012V20.29H33.997V0.709961Z" fill="white"></path></g></mask><g mask="url(#mask15_9372_55903)"><path id="Vector_32" d="M1.82171 3.63208L1.95285 4.03053H2.37232L2.03267 4.27634L2.16116 4.67518L1.82171 4.42899L1.48207 4.67518L1.61512 4.27634L1.2749 4.03053H1.69076L1.82171 3.63208Z" fill="white"></path></g></g><g id="Clip path group_17"><mask id="mask16_9372_55903" style="mask-type:luminance" maskUnits="userSpaceOnUse" x="0" y="0" width="34" height="21"><g id="SVGID_00000078729036821881156140000007325787250777871026__17"><path id="Vector_33" d="M33.997 0.709961H0.437012V20.29H33.997V0.709961Z" fill="white"></path></g></mask><g mask="url(#mask16_9372_55903)"><path id="Vector_34" d="M1.82171 5.39392L1.95285 5.79048H2.37232L2.03267 6.03666L2.16116 6.43683L1.82171 6.18874L1.48207 6.43683L1.61512 6.03666L1.2749 5.79048H1.69076L1.82171 5.39392Z" fill="white"></path></g></g><g id="Clip path group_18"><mask id="mask17_9372_55903" style="mask-type:luminance" maskUnits="userSpaceOnUse" x="0" y="0" width="34" height="21"><g id="SVGID_00000078729036821881156140000007325787250777871026__18"><path id="Vector_35" d="M33.997 0.709961H0.437012V20.29H33.997V0.709961Z" fill="white"></path></g></mask><g mask="url(#mask17_9372_55903)"><path id="Vector_36" d="M1.82171 7.15198L1.95285 7.55044H2.37232L2.03267 7.79662L2.16116 8.19488L1.82171 7.94908L1.48207 8.19488L1.61512 7.79662L1.2749 7.55044H1.69076L1.82171 7.15198Z" fill="white"></path></g></g><g id="Clip path group_19"><mask id="mask18_9372_55903" style="mask-type:luminance" maskUnits="userSpaceOnUse" x="0" y="0" width="34" height="21"><g id="SVGID_00000078729036821881156140000007325787250777871026__19"><path id="Vector_37" d="M33.997 0.709961H0.437012V20.29H33.997V0.709961Z" fill="white"></path></g></mask><g mask="url(#mask18_9372_55903)"><path id="Vector_38" d="M1.82171 8.91199L1.95285 9.31215H2.37232L2.03267 9.55644L2.16116 9.95489L1.82171 9.70871L1.48207 9.95489L1.61512 9.55644L1.2749 9.31215H1.69076L1.82171 8.91199Z" fill="white"></path></g></g><g id="Clip path group_20"><mask id="mask19_9372_55903" style="mask-type:luminance" maskUnits="userSpaceOnUse" x="0" y="0" width="34" height="21"><g id="SVGID_00000078729036821881156140000007325787250777871026__20"><path id="Vector_39" d="M33.997 0.709961H0.437012V20.29H33.997V0.709961Z" fill="white"></path></g></mask><g mask="url(#mask19_9372_55903)"><path id="Vector_40" d="M3.0484 2.80005L3.17365 3.19851H3.59559L3.25785 3.44507L3.38481 3.84315L3.0484 3.59734L2.71067 3.84315L2.83801 3.44507L2.49951 3.19851H2.92012L3.0484 2.80005Z" fill="white"></path></g></g><g id="Clip path group_21"><mask id="mask20_9372_55903" style="mask-type:luminance" maskUnits="userSpaceOnUse" x="0" y="0" width="34" height="21"><g id="SVGID_00000078729036821881156140000007325787250777871026__21"><path id="Vector_41" d="M33.997 0.709961H0.437012V20.29H33.997V0.709961Z" fill="white"></path></g></mask><g mask="url(#mask20_9372_55903)"><path id="Vector_42" d="M3.0484 4.55957L3.17365 4.95651H3.59559L3.25785 5.2046L3.38481 5.60077L3.0484 5.35896L2.71067 5.60077L2.83801 5.2046L2.49951 4.95651H2.92012L3.0484 4.55957Z" fill="white"></path></g></g><g id="Clip path group_22"><mask id="mask21_9372_55903" style="mask-type:luminance" maskUnits="userSpaceOnUse" x="0" y="0" width="34" height="21"><g id="SVGID_00000078729036821881156140000007325787250777871026__22"><path id="Vector_43" d="M33.997 0.709961H0.437012V20.29H33.997V0.709961Z" fill="white"></path></g></mask><g mask="url(#mask21_9372_55903)"><path id="Vector_44" d="M3.0484 6.31995L3.17365 6.71841H3.59559L3.25785 6.96421L3.38481 7.36248L3.0484 7.11667L2.71067 7.36248L2.83801 6.96421L2.49951 6.71841H2.92012L3.0484 6.31995Z" fill="white"></path></g></g><g id="Clip path group_23"><mask id="mask22_9372_55903" style="mask-type:luminance" maskUnits="userSpaceOnUse" x="0" y="0" width="34" height="21"><g id="SVGID_00000078729036821881156140000007325787250777871026__23"><path id="Vector_45" d="M33.997 0.709961H0.437012V20.29H33.997V0.709961Z" fill="white"></path></g></mask><g mask="url(#mask22_9372_55903)"><path id="Vector_46" d="M3.0484 8.08179L3.17365 8.47873H3.59559L3.25785 8.72434L3.38481 9.1209L3.0484 8.8749L2.71067 9.1209L2.83801 8.72434L2.49951 8.47873H2.92012L3.0484 8.08179Z" fill="white"></path></g></g><g id="Clip path group_24"><mask id="mask23_9372_55903" style="mask-type:luminance" maskUnits="userSpaceOnUse" x="0" y="0" width="34" height="21"><g id="SVGID_00000078729036821881156140000007325787250777871026__24"><path id="Vector_47" d="M33.997 0.709961H0.437012V20.29H33.997V0.709961Z" fill="white"></path></g></mask><g mask="url(#mask23_9372_55903)"><path id="Vector_48" d="M4.28655 1.87195L4.41769 2.27288H4.83715L4.4977 2.51869L4.62884 2.91714L4.28655 2.67134L3.95109 2.91714L4.07976 2.51869L3.73975 2.27288H4.15807L4.28655 1.87195Z" fill="white"></path></g></g><g id="Clip path group_25"><mask id="mask24_9372_55903" style="mask-type:luminance" maskUnits="userSpaceOnUse" x="0" y="0" width="34" height="21"><g id="SVGID_00000078729036821881156140000007325787250777871026__25"><path id="Vector_49" d="M33.997 0.709961H0.437012V20.29H33.997V0.709961Z" fill="white"></path></g></mask><g mask="url(#mask24_9372_55903)"><path id="Vector_50" d="M4.28655 3.63208L4.41769 4.03053H4.83715L4.4977 4.27634L4.62884 4.67518L4.28655 4.42899L3.95109 4.67518L4.07976 4.27634L3.73975 4.03053H4.15807L4.28655 3.63208Z" fill="white"></path></g></g><g id="Clip path group_26"><mask id="mask25_9372_55903" style="mask-type:luminance" maskUnits="userSpaceOnUse" x="0" y="0" width="34" height="21"><g id="SVGID_00000078729036821881156140000007325787250777871026__26"><path id="Vector_51" d="M33.997 0.709961H0.437012V20.29H33.997V0.709961Z" fill="white"></path></g></mask><g mask="url(#mask25_9372_55903)"><path id="Vector_52" d="M4.28655 5.39392L4.41769 5.79048H4.83715L4.4977 6.03666L4.62884 6.43683L4.28655 6.18874L3.95109 6.43683L4.07976 6.03666L3.73975 5.79048H4.15807L4.28655 5.39392Z" fill="white"></path></g></g><g id="Clip path group_27"><mask id="mask26_9372_55903" style="mask-type:luminance" maskUnits="userSpaceOnUse" x="0" y="0" width="34" height="21"><g id="SVGID_00000078729036821881156140000007325787250777871026__27"><path id="Vector_53" d="M33.997 0.709961H0.437012V20.29H33.997V0.709961Z" fill="white"></path></g></mask><g mask="url(#mask26_9372_55903)"><path id="Vector_54" d="M4.28655 7.15198L4.41769 7.55044H4.83715L4.4977 7.79662L4.62884 8.19488L4.28655 7.94908L3.95109 8.19488L4.07976 7.79662L3.73975 7.55044H4.15807L4.28655 7.15198Z" fill="white"></path></g></g><g id="Clip path group_28"><mask id="mask27_9372_55903" style="mask-type:luminance" maskUnits="userSpaceOnUse" x="0" y="0" width="34" height="21"><g id="SVGID_00000078729036821881156140000007325787250777871026__28"><path id="Vector_55" d="M33.997 0.709961H0.437012V20.29H33.997V0.709961Z" fill="white"></path></g></mask><g mask="url(#mask27_9372_55903)"><path id="Vector_56" d="M4.28655 8.91199L4.41769 9.31215H4.83715L4.4977 9.55644L4.62884 9.95489L4.28655 9.70871L3.95109 9.95489L4.07976 9.55644L3.73975 9.31215H4.15807L4.28655 8.91199Z" fill="white"></path></g></g><g id="Clip path group_29"><mask id="mask28_9372_55903" style="mask-type:luminance" maskUnits="userSpaceOnUse" x="0" y="0" width="34" height="21"><g id="SVGID_00000078729036821881156140000007325787250777871026__29"><path id="Vector_57" d="M33.997 0.709961H0.437012V20.29H33.997V0.709961Z" fill="white"></path></g></mask><g mask="url(#mask28_9372_55903)"><path id="Vector_58" d="M5.51325 2.80005L5.64212 3.19851H6.06386L5.72232 3.44507L5.85327 3.84315L5.51325 3.59734L5.17513 3.84315L5.30609 3.44507L4.96436 3.19851H5.38421L5.51325 2.80005Z" fill="white"></path></g></g><g id="Clip path group_30"><mask id="mask29_9372_55903" style="mask-type:luminance" maskUnits="userSpaceOnUse" x="0" y="0" width="34" height="21"><g id="SVGID_00000078729036821881156140000007325787250777871026__30"><path id="Vector_59" d="M33.997 0.709961H0.437012V20.29H33.997V0.709961Z" fill="white"></path></g></mask><g mask="url(#mask29_9372_55903)"><path id="Vector_60" d="M5.51325 4.55957L5.64212 4.95651H6.06386L5.72232 5.2046L5.85327 5.60077L5.51325 5.35896L5.17513 5.60077L5.30609 5.2046L4.96436 4.95651H5.38421L5.51325 4.55957Z" fill="white"></path></g></g><g id="Clip path group_31"><mask id="mask30_9372_55903" style="mask-type:luminance" maskUnits="userSpaceOnUse" x="0" y="0" width="34" height="21"><g id="SVGID_00000078729036821881156140000007325787250777871026__31"><path id="Vector_61" d="M33.997 0.709961H0.437012V20.29H33.997V0.709961Z" fill="white"></path></g></mask><g mask="url(#mask30_9372_55903)"><path id="Vector_62" d="M5.51325 6.31995L5.64212 6.71841H6.06386L5.72232 6.96421L5.85327 7.36248L5.51325 7.11667L5.17513 7.36248L5.30609 6.96421L4.96436 6.71841H5.38421L5.51325 6.31995Z" fill="white"></path></g></g><g id="Clip path group_32"><mask id="mask31_9372_55903" style="mask-type:luminance" maskUnits="userSpaceOnUse" x="0" y="0" width="34" height="21"><g id="SVGID_00000078729036821881156140000007325787250777871026__32"><path id="Vector_63" d="M33.997 0.709961H0.437012V20.29H33.997V0.709961Z" fill="white"></path></g></mask><g mask="url(#mask31_9372_55903)"><path id="Vector_64" d="M5.51325 8.08179L5.64212 8.47873H6.06386L5.72232 8.72434L5.85327 9.1209L5.51325 8.8749L5.17513 9.1209L5.30609 8.72434L4.96436 8.47873H5.38421L5.51325 8.08179Z" fill="white"></path></g></g><g id="Clip path group_33"><mask id="mask32_9372_55903" style="mask-type:luminance" maskUnits="userSpaceOnUse" x="0" y="0" width="34" height="21"><g id="SVGID_00000078729036821881156140000007325787250777871026__33"><path id="Vector_65" d="M33.997 0.709961H0.437012V20.29H33.997V0.709961Z" fill="white"></path></g></mask><g mask="url(#mask32_9372_55903)"><path id="Vector_66" d="M6.75373 1.87195L6.88487 2.27288H7.30015L6.96052 2.51869L7.09527 2.91714L6.75373 2.67134L6.41371 2.91714L6.54257 2.51869L6.20654 2.27288H6.62468L6.75373 1.87195Z" fill="white"></path></g></g><g id="Clip path group_34"><mask id="mask33_9372_55903" style="mask-type:luminance" maskUnits="userSpaceOnUse" x="0" y="0" width="34" height="21"><g id="SVGID_00000078729036821881156140000007325787250777871026__34"><path id="Vector_67" d="M33.997 0.709961H0.437012V20.29H33.997V0.709961Z" fill="white"></path></g></mask><g mask="url(#mask33_9372_55903)"><path id="Vector_68" d="M6.75373 3.63208L6.88487 4.03053H7.30015L6.96052 4.27634L7.09527 4.67518L6.75373 4.42899L6.41371 4.67518L6.54257 4.27634L6.20654 4.03053H6.62468L6.75373 3.63208Z" fill="white"></path></g></g><g id="Clip path group_35"><mask id="mask34_9372_55903" style="mask-type:luminance" maskUnits="userSpaceOnUse" x="0" y="0" width="34" height="21"><g id="SVGID_00000078729036821881156140000007325787250777871026__35"><path id="Vector_69" d="M33.997 0.709961H0.437012V20.29H33.997V0.709961Z" fill="white"></path></g></mask><g mask="url(#mask34_9372_55903)"><path id="Vector_70" d="M6.75373 5.39392L6.88487 5.79048H7.30015L6.96052 6.03666L7.09527 6.43683L6.75373 6.18874L6.41371 6.43683L6.54257 6.03666L6.20654 5.79048H6.62468L6.75373 5.39392Z" fill="white"></path></g></g><g id="Clip path group_36"><mask id="mask35_9372_55903" style="mask-type:luminance" maskUnits="userSpaceOnUse" x="0" y="0" width="34" height="21"><g id="SVGID_00000078729036821881156140000007325787250777871026__36"><path id="Vector_71" d="M33.997 0.709961H0.437012V20.29H33.997V0.709961Z" fill="white"></path></g></mask><g mask="url(#mask35_9372_55903)"><path id="Vector_72" d="M6.75373 7.15198L6.88487 7.55044H7.30015L6.96052 7.79662L7.09527 8.19488L6.75373 7.94908L6.41371 8.19488L6.54257 7.79662L6.20654 7.55044H6.62468L6.75373 7.15198Z" fill="white"></path></g></g><g id="Clip path group_37"><mask id="mask36_9372_55903" style="mask-type:luminance" maskUnits="userSpaceOnUse" x="0" y="0" width="34" height="21"><g id="SVGID_00000078729036821881156140000007325787250777871026__37"><path id="Vector_73" d="M33.997 0.709961H0.437012V20.29H33.997V0.709961Z" fill="white"></path></g></mask><g mask="url(#mask36_9372_55903)"><path id="Vector_74" d="M6.75373 8.91199L6.88487 9.31215H7.30015L6.96052 9.55644L7.09527 9.95489L6.75373 9.70871L6.41371 9.95489L6.54257 9.55644L6.20654 9.31215H6.62468L6.75373 8.91199Z" fill="white"></path></g></g><g id="Clip path group_38"><mask id="mask37_9372_55903" style="mask-type:luminance" maskUnits="userSpaceOnUse" x="0" y="0" width="34" height="21"><g id="SVGID_00000078729036821881156140000007325787250777871026__38"><path id="Vector_75" d="M33.997 0.709961H0.437012V20.29H33.997V0.709961Z" fill="white"></path></g></mask><g mask="url(#mask37_9372_55903)"><path id="Vector_76" d="M7.98023 2.80005L8.1089 3.19851H8.52742L8.18949 3.44507L8.31607 3.84315L7.98023 3.59734L7.64231 3.84315L7.76888 3.44507L7.43115 3.19851H7.84909L7.98023 2.80005Z" fill="white"></path></g></g><g id="Clip path group_39"><mask id="mask38_9372_55903" style="mask-type:luminance" maskUnits="userSpaceOnUse" x="0" y="0" width="34" height="21"><g id="SVGID_00000078729036821881156140000007325787250777871026__39"><path id="Vector_77" d="M33.997 0.709961H0.437012V20.29H33.997V0.709961Z" fill="white"></path></g></mask><g mask="url(#mask38_9372_55903)"><path id="Vector_78" d="M7.98023 4.55957L8.1089 4.95651H8.52742L8.18949 5.2046L8.31607 5.60077L7.98023 5.35896L7.64231 5.60077L7.76888 5.2046L7.43115 4.95651H7.84909L7.98023 4.55957Z" fill="white"></path></g></g><g id="Clip path group_40"><mask id="mask39_9372_55903" style="mask-type:luminance" maskUnits="userSpaceOnUse" x="0" y="0" width="34" height="21"><g id="SVGID_00000078729036821881156140000007325787250777871026__40"><path id="Vector_79" d="M33.997 0.709961H0.437012V20.29H33.997V0.709961Z" fill="white"></path></g></mask><g mask="url(#mask39_9372_55903)"><path id="Vector_80" d="M7.98023 6.31995L8.1089 6.71841H8.52742L8.18949 6.96421L8.31607 7.36248L7.98023 7.11667L7.64231 7.36248L7.76888 6.96421L7.43115 6.71841H7.84909L7.98023 6.31995Z" fill="white"></path></g></g><g id="Clip path group_41"><mask id="mask40_9372_55903" style="mask-type:luminance" maskUnits="userSpaceOnUse" x="0" y="0" width="34" height="21"><g id="SVGID_00000078729036821881156140000007325787250777871026__41"><path id="Vector_81" d="M33.997 0.709961H0.437012V20.29H33.997V0.709961Z" fill="white"></path></g></mask><g mask="url(#mask40_9372_55903)"><path id="Vector_82" d="M7.98023 8.08179L8.1089 8.47873H8.52742L8.18949 8.72434L8.31607 9.1209L7.98023 8.8749L7.64231 9.1209L7.76888 8.72434L7.43115 8.47873H7.84909L7.98023 8.08179Z" fill="white"></path></g></g><g id="Clip path group_42"><mask id="mask41_9372_55903" style="mask-type:luminance" maskUnits="userSpaceOnUse" x="0" y="0" width="34" height="21"><g id="SVGID_00000078729036821881156140000007325787250777871026__42"><path id="Vector_83" d="M33.997 0.709961H0.437012V20.29H33.997V0.709961Z" fill="white"></path></g></mask><g mask="url(#mask41_9372_55903)"><path id="Vector_84" d="M9.21781 1.87195L9.34895 2.27288H9.7669L9.42916 2.51869L9.56011 2.91714L9.21781 2.67134L8.88198 2.91714L9.00932 2.51869L8.67139 2.27288H9.08952L9.21781 1.87195Z" fill="white"></path></g></g><g id="Clip path group_43"><mask id="mask42_9372_55903" style="mask-type:luminance" maskUnits="userSpaceOnUse" x="0" y="0" width="34" height="21"><g id="SVGID_00000078729036821881156140000007325787250777871026__43"><path id="Vector_85" d="M33.997 0.709961H0.437012V20.29H33.997V0.709961Z" fill="white"></path></g></mask><g mask="url(#mask42_9372_55903)"><path id="Vector_86" d="M9.21781 3.63208L9.34895 4.03053H9.7669L9.42916 4.27634L9.56011 4.67518L9.21781 4.42899L8.88198 4.67518L9.00932 4.27634L8.67139 4.03053H9.08952L9.21781 3.63208Z" fill="white"></path></g></g><g id="Clip path group_44"><mask id="mask43_9372_55903" style="mask-type:luminance" maskUnits="userSpaceOnUse" x="0" y="0" width="34" height="21"><g id="SVGID_00000078729036821881156140000007325787250777871026__44"><path id="Vector_87" d="M33.997 0.709961H0.437012V20.29H33.997V0.709961Z" fill="white"></path></g></mask><g mask="url(#mask43_9372_55903)"><path id="Vector_88" d="M9.21781 5.39392L9.34895 5.79048H9.7669L9.42916 6.03666L9.56011 6.43683L9.21781 6.18874L8.88198 6.43683L9.00932 6.03666L8.67139 5.79048H9.08952L9.21781 5.39392Z" fill="white"></path></g></g><g id="Clip path group_45"><mask id="mask44_9372_55903" style="mask-type:luminance" maskUnits="userSpaceOnUse" x="0" y="0" width="34" height="21"><g id="SVGID_00000078729036821881156140000007325787250777871026__45"><path id="Vector_89" d="M33.997 0.709961H0.437012V20.29H33.997V0.709961Z" fill="white"></path></g></mask><g mask="url(#mask44_9372_55903)"><path id="Vector_90" d="M9.21781 7.15198L9.34895 7.55044H9.7669L9.42916 7.79662L9.56011 8.19488L9.21781 7.94908L8.88198 8.19488L9.00932 7.79662L8.67139 7.55044H9.08952L9.21781 7.15198Z" fill="white"></path></g></g><g id="Clip path group_46"><mask id="mask45_9372_55903" style="mask-type:luminance" maskUnits="userSpaceOnUse" x="0" y="0" width="34" height="21"><g id="SVGID_00000078729036821881156140000007325787250777871026__46"><path id="Vector_91" d="M33.997 0.709961H0.437012V20.29H33.997V0.709961Z" fill="white"></path></g></mask><g mask="url(#mask45_9372_55903)"><path id="Vector_92" d="M9.21781 8.91199L9.34895 9.31215H9.7669L9.42916 9.55644L9.56011 9.95489L9.21781 9.70871L8.88198 9.95489L9.00932 9.55644L8.67139 9.31215H9.08952L9.21781 8.91199Z" fill="white"></path></g></g><g id="Clip path group_47"><mask id="mask46_9372_55903" style="mask-type:luminance" maskUnits="userSpaceOnUse" x="0" y="0" width="34" height="21"><g id="SVGID_00000078729036821881156140000007325787250777871026__47"><path id="Vector_93" d="M33.997 0.709961H0.437012V20.29H33.997V0.709961Z" fill="white"></path></g></mask><g mask="url(#mask46_9372_55903)"><path id="Vector_94" d="M10.4444 2.80005L10.5736 3.19851H10.9954L10.6553 3.44507L10.7846 3.84315L10.4444 3.59734L10.1066 3.84315L10.2378 3.44507L9.89795 3.19851H10.3174L10.4444 2.80005Z" fill="white"></path></g></g><g id="Clip path group_48"><mask id="mask47_9372_55903" style="mask-type:luminance" maskUnits="userSpaceOnUse" x="0" y="0" width="34" height="21"><g id="SVGID_00000078729036821881156140000007325787250777871026__48"><path id="Vector_95" d="M33.997 0.709961H0.437012V20.29H33.997V0.709961Z" fill="white"></path></g></mask><g mask="url(#mask47_9372_55903)"><path id="Vector_96" d="M10.4444 4.55957L10.5736 4.95651H10.9954L10.6553 5.2046L10.7846 5.60077L10.4444 5.35896L10.1066 5.60077L10.2378 5.2046L9.89795 4.95651H10.3174L10.4444 4.55957Z" fill="white"></path></g></g><g id="Clip path group_49"><mask id="mask48_9372_55903" style="mask-type:luminance" maskUnits="userSpaceOnUse" x="0" y="0" width="34" height="21"><g id="SVGID_00000078729036821881156140000007325787250777871026__49"><path id="Vector_97" d="M33.997 0.709961H0.437012V20.29H33.997V0.709961Z" fill="white"></path></g></mask><g mask="url(#mask48_9372_55903)"><path id="Vector_98" d="M10.4444 6.31995L10.5736 6.71841H10.9954L10.6553 6.96421L10.7846 7.36248L10.4444 7.11667L10.1066 7.36248L10.2378 6.96421L9.89795 6.71841H10.3174L10.4444 6.31995Z" fill="white"></path></g></g><g id="Clip path group_50"><mask id="mask49_9372_55903" style="mask-type:luminance" maskUnits="userSpaceOnUse" x="0" y="0" width="34" height="21"><g id="SVGID_00000078729036821881156140000007325787250777871026__50"><path id="Vector_99" d="M33.997 0.709961H0.437012V20.29H33.997V0.709961Z" fill="white"></path></g></mask><g mask="url(#mask49_9372_55903)"><path id="Vector_100" d="M10.4444 8.08179L10.5736 8.47873H10.9954L10.6553 8.72434L10.7846 9.1209L10.4444 8.8749L10.1066 9.1209L10.2378 8.72434L9.89795 8.47873H10.3174L10.4444 8.08179Z" fill="white"></path></g></g><g id="Clip path group_51"><mask id="mask50_9372_55903" style="mask-type:luminance" maskUnits="userSpaceOnUse" x="0" y="0" width="34" height="21"><g id="SVGID_00000078729036821881156140000007325787250777871026__51"><path id="Vector_101" d="M33.997 0.709961H0.437012V20.29H33.997V0.709961Z" fill="white"></path></g></mask><g mask="url(#mask50_9372_55903)"><path id="Vector_102" d="M11.6873 1.87195L11.8179 2.27288H12.2362L11.8985 2.51869L12.0254 2.91714L11.6873 2.67134L11.3513 2.91714L11.4783 2.51869L11.1401 2.27288H11.5581L11.6873 1.87195Z" fill="white"></path></g></g><g id="Clip path group_52"><mask id="mask51_9372_55903" style="mask-type:luminance" maskUnits="userSpaceOnUse" x="0" y="0" width="34" height="21"><g id="SVGID_00000078729036821881156140000007325787250777871026__52"><path id="Vector_103" d="M33.997 0.709961H0.437012V20.29H33.997V0.709961Z" fill="white"></path></g></mask><g mask="url(#mask51_9372_55903)"><path id="Vector_104" d="M11.6873 3.63208L11.8179 4.03053H12.2362L11.8985 4.27634L12.0254 4.67518L11.6873 4.42899L11.3513 4.67518L11.4783 4.27634L11.1401 4.03053H11.5581L11.6873 3.63208Z" fill="white"></path></g></g><g id="Clip path group_53"><mask id="mask52_9372_55903" style="mask-type:luminance" maskUnits="userSpaceOnUse" x="0" y="0" width="34" height="21"><g id="SVGID_00000078729036821881156140000007325787250777871026__53"><path id="Vector_105" d="M33.997 0.709961H0.437012V20.29H33.997V0.709961Z" fill="white"></path></g></mask><g mask="url(#mask52_9372_55903)"><path id="Vector_106" d="M11.6873 5.39392L11.8179 5.79048H12.2362L11.8985 6.03666L12.0254 6.43683L11.6873 6.18874L11.3513 6.43683L11.4783 6.03666L11.1401 5.79048H11.5581L11.6873 5.39392Z" fill="white"></path></g></g><g id="Clip path group_54"><mask id="mask53_9372_55903" style="mask-type:luminance" maskUnits="userSpaceOnUse" x="0" y="0" width="34" height="21"><g id="SVGID_00000078729036821881156140000007325787250777871026__54"><path id="Vector_107" d="M33.997 0.709961H0.437012V20.29H33.997V0.709961Z" fill="white"></path></g></mask><g mask="url(#mask53_9372_55903)"><path id="Vector_108" d="M11.6873 7.15198L11.8179 7.55044H12.2362L11.8985 7.79662L12.0254 8.19488L11.6873 7.94908L11.3513 8.19488L11.4783 7.79662L11.1401 7.55044H11.5581L11.6873 7.15198Z" fill="white"></path></g></g><g id="Clip path group_55"><mask id="mask54_9372_55903" style="mask-type:luminance" maskUnits="userSpaceOnUse" x="0" y="0" width="34" height="21"><g id="SVGID_00000078729036821881156140000007325787250777871026__55"><path id="Vector_109" d="M33.997 0.709961H0.437012V20.29H33.997V0.709961Z" fill="white"></path></g></mask><g mask="url(#mask54_9372_55903)"><path id="Vector_110" d="M11.6873 8.91199L11.8179 9.31215H12.2362L11.8985 9.55644L12.0254 9.95489L11.6873 9.70871L11.3513 9.95489L11.4783 9.55644L11.1401 9.31215H11.5581L11.6873 8.91199Z" fill="white"></path></g></g><g id="Clip path group_56"><mask id="mask55_9372_55903" style="mask-type:luminance" maskUnits="userSpaceOnUse" x="0" y="0" width="34" height="21"><g id="SVGID_00000078729036821881156140000007325787250777871026__56"><path id="Vector_111" d="M33.997 0.709961H0.437012V20.29H33.997V0.709961Z" fill="white"></path></g></mask><g mask="url(#mask55_9372_55903)"><path id="Vector_112" d="M12.9135 2.80005L13.0401 3.19851H13.4603L13.1243 3.44507L13.2493 3.84315L12.9135 3.59734L12.572 3.84315L12.7022 3.44507L12.3667 3.19851H12.7824L12.9135 2.80005Z" fill="white"></path></g></g><g id="Clip path group_57"><mask id="mask56_9372_55903" style="mask-type:luminance" maskUnits="userSpaceOnUse" x="0" y="0" width="34" height="21"><g id="SVGID_00000078729036821881156140000007325787250777871026__57"><path id="Vector_113" d="M33.997 0.709961H0.437012V20.29H33.997V0.709961Z" fill="white"></path></g></mask><g mask="url(#mask56_9372_55903)"><path id="Vector_114" d="M12.9135 4.55957L13.0401 4.95651H13.4603L13.1243 5.2046L13.2493 5.60077L12.9135 5.35896L12.572 5.60077L12.7022 5.2046L12.3667 4.95651H12.7824L12.9135 4.55957Z" fill="white"></path></g></g><g id="Clip path group_58"><mask id="mask57_9372_55903" style="mask-type:luminance" maskUnits="userSpaceOnUse" x="0" y="0" width="34" height="21"><g id="SVGID_00000078729036821881156140000007325787250777871026__58"><path id="Vector_115" d="M33.997 0.709961H0.437012V20.29H33.997V0.709961Z" fill="white"></path></g></mask><g mask="url(#mask57_9372_55903)"><path id="Vector_116" d="M12.9135 6.31995L13.0401 6.71841H13.4603L13.1243 6.96421L13.2493 7.36248L12.9135 7.11667L12.572 7.36248L12.7022 6.96421L12.3667 6.71841H12.7824L12.9135 6.31995Z" fill="white"></path></g></g><g id="Clip path group_59"><mask id="mask58_9372_55903" style="mask-type:luminance" maskUnits="userSpaceOnUse" x="0" y="0" width="34" height="21"><g id="SVGID_00000078729036821881156140000007325787250777871026__59"><path id="Vector_117" d="M33.997 0.709961H0.437012V20.29H33.997V0.709961Z" fill="white"></path></g></mask><g mask="url(#mask58_9372_55903)"><path id="Vector_118" d="M12.9135 8.08179L13.0401 8.47873H13.4603L13.1243 8.72434L13.2493 9.1209L12.9135 8.8749L12.572 9.1209L12.7022 8.72434L12.3667 8.47873H12.7824L12.9135 8.08179Z" fill="white"></path></g></g><g id="Clip path group_60"><mask id="mask59_9372_55903" style="mask-type:luminance" maskUnits="userSpaceOnUse" x="0" y="0" width="34" height="21"><g id="SVGID_00000078729036821881156140000007325787250777871026__60"><path id="Vector_119" d="M33.997 0.709961H0.437012V20.29H33.997V0.709961Z" fill="white"></path></g></mask><g mask="url(#mask59_9372_55903)"><path id="Vector_120" d="M14.1518 1.87195L14.2848 2.27288H14.7009L14.3631 2.51869L14.4937 2.91714L14.1518 2.67134L13.816 2.91714L13.9429 2.51869L13.605 2.27288H14.0231L14.1518 1.87195Z" fill="white"></path></g></g><g id="Clip path group_61"><mask id="mask60_9372_55903" style="mask-type:luminance" maskUnits="userSpaceOnUse" x="0" y="0" width="34" height="21"><g id="SVGID_00000078729036821881156140000007325787250777871026__61"><path id="Vector_121" d="M33.997 0.709961H0.437012V20.29H33.997V0.709961Z" fill="white"></path></g></mask><g mask="url(#mask60_9372_55903)"><path id="Vector_122" d="M14.1518 3.63208L14.2848 4.03053H14.7009L14.3631 4.27634L14.4937 4.67518L14.1518 4.42899L13.816 4.67518L13.9429 4.27634L13.605 4.03053H14.0231L14.1518 3.63208Z" fill="white"></path></g></g><g id="Clip path group_62"><mask id="mask61_9372_55903" style="mask-type:luminance" maskUnits="userSpaceOnUse" x="0" y="0" width="34" height="21"><g id="SVGID_00000078729036821881156140000007325787250777871026__62"><path id="Vector_123" d="M33.997 0.709961H0.437012V20.29H33.997V0.709961Z" fill="white"></path></g></mask><g mask="url(#mask61_9372_55903)"><path id="Vector_124" d="M14.1518 5.39392L14.2848 5.79048H14.7009L14.3631 6.03666L14.4937 6.43683L14.1518 6.18874L13.816 6.43683L13.9429 6.03666L13.605 5.79048H14.0231L14.1518 5.39392Z" fill="white"></path></g></g><g id="Clip path group_63"><mask id="mask62_9372_55903" style="mask-type:luminance" maskUnits="userSpaceOnUse" x="0" y="0" width="34" height="21"><g id="SVGID_00000078729036821881156140000007325787250777871026__63"><path id="Vector_125" d="M33.997 0.709961H0.437012V20.29H33.997V0.709961Z" fill="white"></path></g></mask><g mask="url(#mask62_9372_55903)"><path id="Vector_126" d="M14.1518 7.15198L14.2848 7.55044H14.7009L14.3631 7.79662L14.4937 8.19488L14.1518 7.94908L13.816 8.19488L13.9429 7.79662L13.605 7.55044H14.0231L14.1518 7.15198Z" fill="white"></path></g></g><g id="Clip path group_64"><mask id="mask63_9372_55903" style="mask-type:luminance" maskUnits="userSpaceOnUse" x="0" y="0" width="34" height="21"><g id="SVGID_00000078729036821881156140000007325787250777871026__64"><path id="Vector_127" d="M33.997 0.709961H0.437012V20.29H33.997V0.709961Z" fill="white"></path></g></mask><g mask="url(#mask63_9372_55903)"><path id="Vector_128" d="M14.1518 8.91199L14.2848 9.31215H14.7009L14.3631 9.55644L14.4937 9.95489L14.1518 9.70871L13.816 9.95489L13.9429 9.55644L13.605 9.31215H14.0231L14.1518 8.91199Z" fill="white"></path></g></g></g></g></g></svg>