<svg xmlns="http://www.w3.org/2000/svg" width="30" height="32" viewBox="0 0 30 32" fill="none"><path d="M26.8125 0H2.4375C1.79103 0 1.17105 0.263392 0.713927 0.732233C0.256807 1.20107 0 1.83696 0 2.5V11.6828C0 25.6859 11.5507 30.3297 13.8633 31.1172C14.357 31.2905 14.893 31.2905 15.3867 31.1172C17.7023 30.3281 29.25 25.6844 29.25 11.6813V2.5C29.25 1.83696 28.9932 1.20107 28.5361 0.732233C28.079 0.263392 27.459 0 26.8125 0ZM26.8125 11.6859C26.8125 23.9391 16.706 28.0328 14.625 28.7453C12.5638 28.0422 2.4375 23.9516 2.4375 11.6859V2.5H26.8125V11.6859ZM8.53125 13.75C8.53125 13.4185 8.65965 13.1005 8.88821 12.8661C9.11677 12.6317 9.42677 12.5 9.75 12.5H13.4062V8.75C13.4062 8.41848 13.5347 8.10054 13.7632 7.86612C13.9918 7.6317 14.3018 7.5 14.625 7.5C14.9482 7.5 15.2582 7.6317 15.4868 7.86612C15.7153 8.10054 15.8438 8.41848 15.8438 8.75V12.5H19.5C19.8232 12.5 20.1332 12.6317 20.3618 12.8661C20.5903 13.1005 20.7188 13.4185 20.7188 13.75C20.7188 14.0815 20.5903 14.3995 20.3618 14.6339C20.1332 14.8683 19.8232 15 19.5 15H15.8438V18.75C15.8438 19.0815 15.7153 19.3995 15.4868 19.6339C15.2582 19.8683 14.9482 20 14.625 20C14.3018 20 13.9918 19.8683 13.7632 19.6339C13.5347 19.3995 13.4062 19.0815 13.4062 18.75V15H9.75C9.42677 15 9.11677 14.8683 8.88821 14.6339C8.65965 14.3995 8.53125 14.0815 8.53125 13.75Z" fill="white"/></svg>