<svg xmlns="http://www.w3.org/2000/svg" width="26" height="30" viewBox="0 0 26 30" fill="none"><path d="M20.5827 19.2872C19.8602 19.287 19.145 19.4302 18.4795 19.7083C17.8139 19.9864 17.2116 20.3937 16.708 20.9062L10.4669 16.9385C10.9578 15.6933 10.9578 14.311 10.4669 13.0658L16.708 9.09808C17.6455 10.0479 18.9061 10.6196 20.2455 10.7023C21.585 10.7851 22.9077 10.3729 23.9573 9.5458C25.007 8.71868 25.7087 7.53552 25.9265 6.22571C26.1443 4.91589 25.8627 3.57274 25.1362 2.45667C24.4097 1.34059 23.2901 0.531098 21.9944 0.185132C20.6988 -0.160833 19.3194 -0.0186232 18.1238 0.584191C16.9281 1.187 16.0014 2.20747 15.5232 3.44776C15.045 4.68804 15.0494 6.05977 15.5356 7.297L9.2945 11.2647C8.54295 10.5015 7.57837 9.97739 6.52409 9.75925C5.4698 9.54111 4.37369 9.6389 3.37588 10.0401C2.37808 10.4414 1.5239 11.1278 0.922555 12.0117C0.321205 12.8956 0 13.9368 0 15.0021C0 16.0675 0.321205 17.1087 0.922555 17.9926C1.5239 18.8765 2.37808 19.5629 3.37588 19.9642C4.37369 20.3654 5.4698 20.4632 6.52409 20.245C7.57837 20.0269 8.54295 19.5027 9.2945 18.7396L15.5356 22.7073C15.1175 23.7739 15.0557 24.9449 15.3591 26.0489C15.6625 27.1528 16.3153 28.1316 17.2218 28.842C18.1284 29.5524 19.241 29.9571 20.3969 29.9968C21.5528 30.0364 22.6912 29.709 23.6453 29.0625C24.5994 28.4159 25.3192 27.4842 25.6993 26.4037C26.0793 25.3233 26.0997 24.1508 25.7573 23.0581C25.415 21.9654 24.7279 21.0098 23.7968 20.3312C22.8656 19.6527 21.7393 19.2868 20.5827 19.2872ZM20.5827 2.14684C21.2253 2.14684 21.8535 2.33533 22.3878 2.68847C22.9222 3.04161 23.3386 3.54354 23.5845 4.13079C23.8305 4.71804 23.8948 5.36423 23.7694 5.98765C23.6441 6.61107 23.3346 7.18372 22.8802 7.63318C22.4258 8.08265 21.8469 8.38873 21.2166 8.51274C20.5863 8.63675 19.933 8.5731 19.3393 8.32985C18.7456 8.08661 18.2381 7.67468 17.8811 7.14617C17.5241 6.61766 17.3335 5.9963 17.3335 5.36067C17.3335 4.50831 17.6758 3.69086 18.2852 3.08815C18.8945 2.48544 19.721 2.14684 20.5827 2.14684ZM5.41985 18.216C4.77723 18.216 4.14903 18.0275 3.61471 17.6743C3.08038 17.3212 2.66393 16.8193 2.418 16.232C2.17208 15.6448 2.10774 14.9986 2.23311 14.3752C2.35848 13.7517 2.66793 13.1791 3.12234 12.7296C3.57674 12.2802 4.15569 11.9741 4.78597 11.8501C5.41625 11.7261 6.06955 11.7897 6.66326 12.033C7.25697 12.2762 7.76442 12.6881 8.12145 13.2166C8.47847 13.7451 8.66903 14.3665 8.66903 15.0021C8.66903 15.8545 8.32671 16.672 7.71737 17.2747C7.10803 17.8774 6.28159 18.216 5.41985 18.216ZM20.5827 27.8574C19.9401 27.8574 19.3119 27.669 18.7775 27.3158C18.2432 26.9627 17.8268 26.4608 17.5808 25.8735C17.3349 25.2862 17.2706 24.6401 17.3959 24.0166C17.5213 23.3932 17.8308 22.8206 18.2852 22.3711C18.7396 21.9216 19.3185 21.6156 19.9488 21.4915C20.5791 21.3675 21.2324 21.4312 21.8261 21.6744C22.4198 21.9177 22.9273 22.3296 23.2843 22.8581C23.6413 23.3866 23.8319 24.008 23.8319 24.6436C23.8319 25.496 23.4895 26.3134 22.8802 26.9161C22.2709 27.5189 21.4444 27.8574 20.5827 27.8574Z" fill="white"/></svg>