<svg xmlns="http://www.w3.org/2000/svg" width="133" height="157" viewBox="0 0 133 157" fill="none"><g clip-path="url(#clip0_1775_15391)"><path d="M124.506 127.521V11.3134L67.668 0.707187C66.6471 0.516686 65.5997 0.517598 64.5791 0.709877L8.29883 11.3134V127.521L65.2686 155.604C66.86 156.389 68.7296 156.371 70.3056 155.556L124.506 127.521Z" fill="url(#paint0_linear_1775_15391)"></path><path d="M120.874 124.912V14.9448L67.7801 5.16789C66.7767 4.98314 65.7481 4.98314 64.7447 5.1679L11.6504 14.9448V125.007L65.3172 150.638C66.8819 151.386 68.705 151.364 70.2516 150.58L120.874 124.912Z" fill="#1C211A"></path><g opacity="0.2" filter="url(#filter0_f_1775_15391)"><ellipse cx="66.6821" cy="75.2832" rx="47.7681" ry="49.7233" fill="#59A52C"></ellipse></g><g filter="url(#filter1_d_1775_15391)"><path d="M64.8795 5.16693L53.1016 7.32794V30.1908L66.3975 37.8511L79.9187 30.1908V7.38754L67.915 5.16892C66.9117 4.98348 65.883 4.98281 64.8795 5.16693Z" fill="url(#paint1_linear_1775_15391)"></path></g><path d="M48.7828 124.956L46.9234 117.228H48.3127L49.5276 122.69C49.5523 122.809 49.5717 122.913 49.5857 123.001C49.6034 123.089 49.6192 123.193 49.6333 123.313H49.6914C49.7055 123.193 49.7178 123.089 49.7284 123.001C49.7425 122.913 49.7653 122.809 49.797 122.69L51.1071 117.228H52.6495L53.9965 122.679C54.0282 122.802 54.0494 122.91 54.0599 123.001C54.074 123.089 54.0881 123.193 54.1022 123.313H54.1603C54.1744 123.19 54.1885 123.084 54.2025 122.996C54.2166 122.908 54.236 122.802 54.2607 122.679L55.4439 117.228H56.6747L54.8312 124.956H53.3257L51.9575 119.51C51.9294 119.386 51.9047 119.272 51.8836 119.166C51.8625 119.057 51.8448 118.943 51.8308 118.823H51.7727C51.755 118.943 51.7357 119.055 51.7145 119.161C51.6969 119.267 51.674 119.381 51.6459 119.504L50.2672 124.95L48.7828 124.956ZM57.784 124.919V117.228H59.1627V124.919H57.784ZM60.9217 124.919V117.228H62.4114L65.5438 122.304C65.6072 122.41 65.6671 122.52 65.7234 122.637C65.7798 122.753 65.8291 122.86 65.8713 122.959H65.9189C65.9118 122.846 65.9048 122.714 65.8978 122.563C65.8942 122.411 65.8925 122.279 65.8925 122.167V117.228H67.118V124.919H65.6178L62.4853 119.853C62.4184 119.747 62.3586 119.642 62.3057 119.536C62.2529 119.43 62.2071 119.328 62.1684 119.23H62.1208C62.1279 119.342 62.1332 119.464 62.1367 119.594C62.1437 119.721 62.1473 119.841 62.1473 119.953V124.919H60.9217ZM68.0688 118.284V117.228H74.3549V118.284H71.9038V124.919H70.5198V118.284H68.0688ZM75.3532 124.919V117.228H80.5617V118.284H76.7319V120.429H80.0704V121.48H76.7319V123.862H80.6198V124.919H75.3532ZM81.8506 124.919V117.228H84.6027C85.5077 117.228 86.2085 117.441 86.7051 117.867C87.2016 118.289 87.4499 118.863 87.4499 119.589C87.4499 120.314 87.2016 120.895 86.7051 121.332C86.2085 121.769 85.5077 121.987 84.6027 121.987H83.2293V124.919H81.8506ZM83.2293 120.946H84.5868C85.1362 120.946 85.5201 120.818 85.7384 120.561C85.9567 120.3 86.0677 119.978 86.0712 119.594C86.0712 119.207 85.962 118.89 85.7437 118.643C85.5253 118.397 85.1397 118.273 84.5868 118.273H83.2293V120.946ZM86.2349 124.919L84.3808 121.369L85.8335 121.269L87.7932 124.919H86.2349ZM55.3383 137.919V137.01L58.1855 134.057C58.5165 133.712 58.7701 133.401 58.9461 133.122C59.1222 132.844 59.2103 132.55 59.2103 132.24C59.2103 131.927 59.1064 131.664 58.8986 131.453C58.6943 131.242 58.4056 131.136 58.0323 131.136C57.6519 131.136 57.3403 131.258 57.0973 131.501C56.8543 131.744 56.7293 132.09 56.7222 132.541V132.626H55.3277V132.531C55.3277 131.805 55.5813 131.214 56.0884 130.756C56.5955 130.298 57.2434 130.069 58.0323 130.069C58.8352 130.069 59.4638 130.275 59.9181 130.687C60.3759 131.096 60.6066 131.594 60.6101 132.182C60.6101 132.679 60.4745 133.126 60.2033 133.524C59.9322 133.922 59.5906 134.33 59.1786 134.749L57.1396 136.82H60.8002V137.919H55.3383ZM61.5662 135.309V132.837C61.5662 132.009 61.7969 131.342 62.2582 130.835C62.7195 130.324 63.3781 130.069 64.2338 130.069C65.079 130.069 65.734 130.323 66.1988 130.83C66.6672 131.337 66.9014 132.006 66.9014 132.837V135.309C66.9014 136.14 66.6672 136.809 66.1988 137.317C65.734 137.824 65.079 138.077 64.2338 138.077C63.3781 138.077 62.7195 137.824 62.2582 137.317C61.7969 136.809 61.5662 136.14 61.5662 135.309ZM62.9819 135.394C62.9819 135.866 63.0787 136.253 63.2724 136.556C63.4696 136.859 63.7901 137.01 64.2338 137.01C64.674 137.01 64.9927 136.859 65.1899 136.556C65.3871 136.253 65.4857 135.866 65.4857 135.394V132.753C65.4857 132.281 65.3871 131.893 65.1899 131.59C64.9927 131.288 64.674 131.136 64.2338 131.136C63.7901 131.136 63.4696 131.288 63.2724 131.59C63.0787 131.893 62.9819 132.281 62.9819 132.753V135.394ZM67.7624 137.919V137.01L70.6096 134.057C70.9407 133.712 71.1942 133.401 71.3703 133.122C71.5464 132.844 71.6344 132.55 71.6344 132.24C71.6344 131.927 71.5305 131.664 71.3228 131.453C71.1185 131.242 70.8297 131.136 70.4565 131.136C70.0761 131.136 69.7645 131.258 69.5215 131.501C69.2785 131.744 69.1535 132.09 69.1464 132.541V132.626H67.7519V132.531C67.7519 131.805 68.0054 131.214 68.5125 130.756C69.0196 130.298 69.6676 130.069 70.4565 130.069C71.2594 130.069 71.888 130.275 72.3423 130.687C72.8001 131.096 73.0307 131.594 73.0343 132.182C73.0343 132.679 72.8987 133.126 72.6275 133.524C72.3563 133.922 72.0148 134.33 71.6027 134.749L69.5637 136.82H73.2244V137.919H67.7624ZM73.8372 135.837V135.763H75.2159V135.832C75.2159 136.209 75.3356 136.501 75.5751 136.709C75.8181 136.917 76.1544 137.021 76.584 137.021C76.996 137.021 77.3253 136.917 77.5718 136.709C77.8183 136.498 77.9416 136.17 77.9416 135.727C77.9416 135.297 77.8007 134.975 77.519 134.76C77.2408 134.541 76.864 134.432 76.3886 134.432H75.6754V133.408H76.3357C76.7654 133.408 77.0982 133.304 77.3341 133.096C77.5701 132.888 77.688 132.598 77.688 132.224C77.688 131.855 77.5859 131.58 77.3817 131.4C77.1809 131.217 76.9115 131.126 76.5735 131.126C76.2107 131.126 75.9255 131.217 75.7177 131.4C75.5099 131.583 75.406 131.849 75.406 132.198V132.256H74.0273V132.198C74.0273 131.61 74.2598 131.108 74.7246 130.692C75.1895 130.277 75.8093 130.069 76.584 130.069C77.3834 130.069 78.0015 130.263 78.4381 130.65C78.8748 131.038 79.0932 131.523 79.0932 132.108C79.0932 132.478 78.9928 132.821 78.7921 133.138C78.5948 133.455 78.2849 133.7 77.8624 133.872V133.894C78.3166 134.003 78.6794 134.223 78.9505 134.554C79.2217 134.881 79.3573 135.285 79.3573 135.763C79.3573 136.482 79.0984 137.047 78.5808 137.459C78.0631 137.871 77.3957 138.077 76.5787 138.077C75.7124 138.077 75.038 137.868 74.5556 137.449C74.0766 137.029 73.8372 136.492 73.8372 135.837Z" fill="url(#paint2_linear_1775_15391)"></path><g filter="url(#filter2_i_1775_15391)"><path d="M124.506 106.656L127.219 106.385L124.506 110.287V106.656Z" fill="url(#paint3_linear_1775_15391)"></path></g><g filter="url(#filter3_i_1775_15391)"><path d="M5.05078 106.425L8.29844 106.656V110.008L5.05078 106.425Z" fill="url(#paint4_linear_1775_15391)"></path></g><path d="M5.0957 85.7404C5.0957 84.8811 5.0957 84.4514 5.31953 84.1533C5.38287 84.0689 5.45783 83.994 5.54219 83.9306C5.8403 83.7068 6.26998 83.7068 7.12933 83.7068H125.415C126.275 83.7068 126.704 83.7068 127.002 83.9306C127.087 83.994 127.162 84.0689 127.225 84.1533C127.449 84.4514 127.449 84.8811 127.449 85.7404V105.596C127.449 106.026 127.449 106.241 127.337 106.39C127.305 106.432 127.268 106.469 127.226 106.501C127.077 106.613 126.862 106.613 126.432 106.613H6.11252C5.68284 106.613 5.468 106.613 5.31894 106.501C5.27677 106.469 5.23929 106.432 5.20762 106.39C5.0957 106.241 5.0957 106.026 5.0957 105.596V85.7404Z" fill="url(#paint5_linear_1775_15391)"></path><path d="M40.2581 96.8484H36.5582L35.8766 98.7349H34.7083L37.7752 90.3006H39.0532L42.108 98.7349H40.9396L40.2581 96.8484ZM39.9416 95.9478L38.4081 91.6637L36.8746 95.9478H39.9416ZM45.3189 98.8444C44.8078 98.8444 44.3493 98.7592 43.9437 98.5888C43.538 98.4103 43.2175 98.1669 42.9822 97.8586C42.7469 97.5421 42.6171 97.1811 42.5927 96.7754H43.7368C43.7692 97.1081 43.9234 97.3799 44.1992 97.5908C44.4832 97.8018 44.8524 97.9073 45.3068 97.9073C45.7287 97.9073 46.0613 97.814 46.3048 97.6273C46.5482 97.4407 46.6699 97.2054 46.6699 96.9214C46.6699 96.6293 46.5401 96.4143 46.2804 96.2764C46.0208 96.1304 45.6191 95.9884 45.0755 95.8504C44.5806 95.7206 44.1749 95.5908 43.8585 95.461C43.5501 95.323 43.2824 95.1242 43.0552 94.8646C42.8361 94.5969 42.7266 94.248 42.7266 93.8179C42.7266 93.4772 42.828 93.1648 43.0309 92.8808C43.2337 92.5968 43.5217 92.3737 43.895 92.2114C44.2682 92.041 44.6942 91.9558 45.1729 91.9558C45.9112 91.9558 46.5076 92.1424 46.962 92.5157C47.4163 92.8889 47.6598 93.4001 47.6922 94.0492H46.5847C46.5603 93.7003 46.4184 93.4204 46.1587 93.2094C45.9072 92.9984 45.5664 92.893 45.1364 92.893C44.7388 92.893 44.4224 92.9782 44.1871 93.1485C43.9518 93.3189 43.8341 93.5421 43.8341 93.8179C43.8341 94.037 43.9031 94.2196 44.041 94.3656C44.1871 94.5035 44.3656 94.6171 44.5765 94.7064C44.7956 94.7875 45.0958 94.8808 45.4772 94.9863C45.9559 95.1161 46.3453 95.246 46.6455 95.3758C46.9457 95.4975 47.2013 95.6841 47.4123 95.9356C47.6314 96.1871 47.7449 96.5158 47.7531 96.9214C47.7531 97.2866 47.6516 97.6152 47.4488 97.9073C47.246 98.1994 46.9579 98.4306 46.5847 98.601C46.2196 98.7633 45.7977 98.8444 45.3189 98.8444ZM49.4017 90.9822C49.1907 90.9822 49.0122 90.9092 48.8662 90.7631C48.7202 90.6171 48.6471 90.4386 48.6471 90.2276C48.6471 90.0166 48.7202 89.8381 48.8662 89.6921C49.0122 89.546 49.1907 89.473 49.4017 89.473C49.6045 89.473 49.7749 89.546 49.9129 89.6921C50.0589 89.8381 50.1319 90.0166 50.1319 90.2276C50.1319 90.4386 50.0589 90.6171 49.9129 90.7631C49.7749 90.9092 49.6045 90.9822 49.4017 90.9822ZM49.9372 92.0654V98.7349H48.8297V92.0654H49.9372ZM50.9242 95.3758C50.9242 94.6942 51.0621 94.0979 51.338 93.5867C51.6138 93.0674 51.9911 92.6658 52.4698 92.3818C52.9567 92.0978 53.4962 91.9558 54.0885 91.9558C54.6727 91.9558 55.1798 92.0816 55.6099 92.3331C56.0399 92.5846 56.3604 92.9011 56.5713 93.2824V92.0654H57.691V98.7349H56.5713V97.4935C56.3523 97.8829 56.0237 98.2075 55.5855 98.4671C55.1555 98.7186 54.6524 98.8444 54.0764 98.8444C53.4841 98.8444 52.9486 98.6984 52.4698 98.4063C51.9911 98.1142 51.6138 97.7044 51.338 97.177C51.0621 96.6496 50.9242 96.0492 50.9242 95.3758ZM56.5713 95.3879C56.5713 94.8849 56.4699 94.4467 56.2671 94.0735C56.0642 93.7003 55.7884 93.4163 55.4395 93.2216C55.0987 93.0187 54.7214 92.9173 54.3076 92.9173C53.8938 92.9173 53.5165 93.0147 53.1757 93.2094C52.835 93.4041 52.5632 93.6881 52.3603 94.0613C52.1575 94.4346 52.056 94.8727 52.056 95.3758C52.056 95.8869 52.1575 96.3332 52.3603 96.7145C52.5632 97.0878 52.835 97.3758 53.1757 97.5787C53.5165 97.7734 53.8938 97.8707 54.3076 97.8707C54.7214 97.8707 55.0987 97.7734 55.4395 97.5787C55.7884 97.3758 56.0642 97.0878 56.2671 96.7145C56.4699 96.3332 56.5713 95.891 56.5713 95.3879ZM67.5052 92.7347C67.5052 93.4406 67.2618 94.0289 66.775 94.4995C66.2963 94.962 65.562 95.1932 64.5721 95.1932H62.9412V98.7349H61.8337V90.2519H64.5721C65.5295 90.2519 66.2557 90.4832 66.7506 90.9457C67.2537 91.4082 67.5052 92.0045 67.5052 92.7347ZM64.5721 94.2804C65.1887 94.2804 65.6431 94.1465 65.9352 93.8788C66.2273 93.611 66.3733 93.2297 66.3733 92.7347C66.3733 91.6881 65.7729 91.1647 64.5721 91.1647H62.9412V94.2804H64.5721ZM67.9811 95.3758C67.9811 94.6942 68.119 94.0979 68.3949 93.5867C68.6708 93.0674 69.0481 92.6658 69.5268 92.3818C70.0136 92.0978 70.5532 91.9558 71.1455 91.9558C71.7297 91.9558 72.2368 92.0816 72.6668 92.3331C73.0968 92.5846 73.4173 92.9011 73.6283 93.2824V92.0654H74.748V98.7349H73.6283V97.4935C73.4092 97.8829 73.0806 98.2075 72.6425 98.4671C72.2124 98.7186 71.7094 98.8444 71.1333 98.8444C70.541 98.8444 70.0055 98.6984 69.5268 98.4063C69.0481 98.1142 68.6708 97.7044 68.3949 97.177C68.119 96.6496 67.9811 96.0492 67.9811 95.3758ZM73.6283 95.3879C73.6283 94.8849 73.5268 94.4467 73.324 94.0735C73.1212 93.7003 72.8453 93.4163 72.4964 93.2216C72.1556 93.0187 71.7783 92.9173 71.3645 92.9173C70.9507 92.9173 70.5734 93.0147 70.2327 93.2094C69.8919 93.4041 69.6201 93.6881 69.4172 94.0613C69.2144 94.4346 69.113 94.8727 69.113 95.3758C69.113 95.8869 69.2144 96.3332 69.4172 96.7145C69.6201 97.0878 69.8919 97.3758 70.2327 97.5787C70.5734 97.7734 70.9507 97.8707 71.3645 97.8707C71.7783 97.8707 72.1556 97.7734 72.4964 97.5787C72.8453 97.3758 73.1212 97.0878 73.324 96.7145C73.5268 96.3332 73.6283 95.891 73.6283 95.3879ZM75.719 95.3879C75.719 94.6983 75.8569 94.0979 76.1328 93.5867C76.4086 93.0674 76.79 92.6658 77.2768 92.3818C77.7717 92.0978 78.3356 91.9558 78.9685 91.9558C79.788 91.9558 80.4614 92.1546 80.9888 92.5522C81.5243 92.9498 81.8773 93.5015 82.0477 94.2074H80.855C80.7414 93.8017 80.5182 93.4812 80.1856 93.2459C79.861 93.0106 79.4553 92.893 78.9685 92.893C78.3356 92.893 77.8245 93.112 77.435 93.5502C77.0456 93.9802 76.8508 94.5928 76.8508 95.3879C76.8508 96.1912 77.0456 96.8119 77.435 97.25C77.8245 97.6882 78.3356 97.9073 78.9685 97.9073C79.4553 97.9073 79.861 97.7937 80.1856 97.5665C80.5101 97.3393 80.7332 97.0147 80.855 96.5928H82.0477C81.8692 97.2744 81.5122 97.8221 80.9767 98.2359C80.4412 98.6416 79.7718 98.8444 78.9685 98.8444C78.3356 98.8444 77.7717 98.7024 77.2768 98.4184C76.79 98.1344 76.4086 97.7328 76.1328 97.2135C75.8569 96.6943 75.719 96.0857 75.719 95.3879ZM83.6107 90.9822C83.3997 90.9822 83.2212 90.9092 83.0751 90.7631C82.9291 90.6171 82.8561 90.4386 82.8561 90.2276C82.8561 90.0166 82.9291 89.8381 83.0751 89.6921C83.2212 89.546 83.3997 89.473 83.6107 89.473C83.8135 89.473 83.9839 89.546 84.1218 89.6921C84.2679 89.8381 84.3409 90.0166 84.3409 90.2276C84.3409 90.4386 84.2679 90.6171 84.1218 90.7631C83.9839 90.9092 83.8135 90.9822 83.6107 90.9822ZM84.1462 92.0654V98.7349H83.0386V92.0654H84.1462ZM88.261 92.9782H86.8613V98.7349H85.7538V92.9782H84.8897V92.0654H85.7538V91.5907C85.7538 90.8442 85.9445 90.3006 86.3258 89.9598C86.7153 89.611 87.336 89.4365 88.1879 89.4365V90.3615C87.7011 90.3615 87.3563 90.4588 87.1534 90.6536C86.9587 90.8402 86.8613 91.1526 86.8613 91.5907V92.0654H88.261V92.9782ZM89.6375 90.9822C89.4265 90.9822 89.248 90.9092 89.102 90.7631C88.9559 90.6171 88.8829 90.4386 88.8829 90.2276C88.8829 90.0166 88.9559 89.8381 89.102 89.6921C89.248 89.546 89.4265 89.473 89.6375 89.473C89.8403 89.473 90.0107 89.546 90.1486 89.6921C90.2947 89.8381 90.3677 90.0166 90.3677 90.2276C90.3677 90.4386 90.2947 90.6171 90.1486 90.7631C90.0107 90.9092 89.8403 90.9822 89.6375 90.9822ZM90.173 92.0654V98.7349H89.0655V92.0654H90.173ZM91.16 95.3879C91.16 94.6983 91.2979 94.0979 91.5738 93.5867C91.8496 93.0674 92.231 92.6658 92.7178 92.3818C93.2127 92.0978 93.7766 91.9558 94.4095 91.9558C95.229 91.9558 95.9024 92.1546 96.4298 92.5522C96.9653 92.9498 97.3183 93.5015 97.4887 94.2074H96.296C96.1824 93.8017 95.9592 93.4812 95.6266 93.2459C95.302 93.0106 94.8963 92.893 94.4095 92.893C93.7766 92.893 93.2655 93.112 92.876 93.5502C92.4865 93.9802 92.2918 94.5928 92.2918 95.3879C92.2918 96.1912 92.4865 96.8119 92.876 97.25C93.2655 97.6882 93.7766 97.9073 94.4095 97.9073C94.8963 97.9073 95.302 97.7937 95.6266 97.5665C95.9511 97.3393 96.1742 97.0147 96.296 96.5928H97.4887C97.3102 97.2744 96.9532 97.8221 96.4177 98.2359C95.8822 98.6416 95.2128 98.8444 94.4095 98.8444C93.7766 98.8444 93.2127 98.7024 92.7178 98.4184C92.231 98.1344 91.8496 97.7328 91.5738 97.2135C91.2979 96.6943 91.16 96.0857 91.16 95.3879Z" fill="white"></path><path d="M70.0885 25.3531C70.7232 26.4493 71.3508 27.533 71.978 28.6155C69.2008 30.7315 64.8799 30.9872 61.6813 28.5504C58.0003 25.7441 57.3953 20.9556 59.366 17.5087C61.6327 13.5439 65.8742 12.6671 68.6052 13.3101C68.5314 13.4697 66.8957 16.8467 66.8957 16.8467C66.8957 16.8467 66.7664 16.8552 66.6933 16.8566C65.886 16.8906 65.2848 17.0775 64.6404 17.4091C63.9334 17.7762 63.3275 18.3101 62.8757 18.9641C62.4239 19.6181 62.14 20.3722 62.0487 21.1606C61.9534 21.9602 62.0645 22.7707 62.3714 23.5156C62.631 24.1454 62.9982 24.7048 63.4904 25.177C64.2454 25.9021 65.144 26.3511 66.1855 26.4997C67.1718 26.6406 68.1203 26.5011 69.0092 26.0566C69.3426 25.8901 69.6262 25.7063 69.9577 25.4541C70 25.4268 70.0375 25.3923 70.0885 25.3531Z" fill="url(#paint6_linear_1775_15391)"></path><path d="M70.0957 15.7397C69.9346 15.5819 69.7852 15.4363 69.6365 15.2898C69.5478 15.2025 69.4624 15.1116 69.3716 15.0263C69.339 14.9956 69.3008 14.9535 69.3008 14.9535C69.3008 14.9535 69.3317 14.8883 69.3449 14.8615C69.5188 14.5142 69.7913 14.2604 70.1146 14.0584C70.4721 13.8334 70.8885 13.7189 71.3114 13.7294C71.8524 13.74 72.3555 13.8741 72.78 14.2352C73.0933 14.5018 73.254 14.8399 73.2823 15.2436C73.3295 15.9245 73.0464 16.4461 72.4841 16.81C72.1538 17.0242 71.7975 17.1898 71.4402 17.3858C71.2432 17.4941 71.0747 17.5892 70.8822 17.785C70.7128 17.9816 70.7045 18.1668 70.7045 18.1668L73.2639 18.1636V19.298H69.3133C69.3133 19.298 69.3133 19.2205 69.3133 19.1883C69.2982 18.6308 69.3635 18.1063 69.62 17.6C69.856 17.1355 70.2227 16.7955 70.6632 16.5337C71.0025 16.3319 71.3598 16.1603 71.6998 15.9595C71.9095 15.8358 72.0577 15.6543 72.0565 15.391C72.0565 15.1651 71.8914 14.9643 71.6554 14.9017C71.099 14.7523 70.5327 14.9906 70.2382 15.4974C70.1953 15.5714 70.1514 15.6449 70.0957 15.7397Z" fill="url(#paint7_linear_1775_15391)"></path><path d="M75.0471 24.1473L72.8902 20.4404H68.622L66.4512 24.1856H70.7508L72.8725 27.8749L75.0471 24.1473Z" fill="url(#paint8_linear_1775_15391)"></path><path d="M46.9299 57.7854V44.5374H49.7596V49.8512H54.9096V44.5374H57.7394V57.7854H54.9096V52.0531H49.7596V57.7854H46.9299ZM60.2507 57.7854V48.3225H63.0167V57.7854H60.2507ZM60.0323 45.6293C60.0323 45.2168 60.1688 44.871 60.4418 44.592C60.7208 44.3069 61.1181 44.1643 61.6337 44.1643C62.1493 44.1643 62.5436 44.3039 62.8166 44.5829C63.0956 44.8619 63.2351 45.2107 63.2351 45.6293C63.2351 46.0417 63.0956 46.3905 62.8166 46.6756C62.5436 46.9607 62.1493 47.1033 61.6337 47.1033C61.1181 47.1033 60.7208 46.9607 60.4418 46.6756C60.1688 46.3905 60.0323 46.0417 60.0323 45.6293ZM65.3734 60.4787L66.4743 58.7681C66.6988 58.9925 67.0658 59.2079 67.5753 59.4141C68.0909 59.6264 68.6459 59.7326 69.2404 59.7326C69.9016 59.7326 70.4415 59.5294 70.86 59.1229C71.2786 58.7226 71.4878 58.1039 71.4878 57.2668V56.7754C71.2513 57.1454 70.9085 57.4366 70.4597 57.6489C70.0168 57.8552 69.483 57.9583 68.8582 57.9583C67.6511 57.9583 66.6745 57.5246 65.9284 56.6571C65.1823 55.7836 64.8092 54.6311 64.8092 53.1996V52.9084C64.8092 51.4708 65.1793 50.3182 65.9193 49.4508C66.6593 48.5773 67.639 48.1406 68.8582 48.1406C69.4527 48.1406 69.9895 48.2619 70.4688 48.5045C70.954 48.7411 71.2968 49.0474 71.4969 49.4235H71.5515L71.6061 48.3225H74.2175V57.1394C74.2175 58.6316 73.7686 59.775 72.8709 60.5697C71.9731 61.3704 70.8297 61.7707 69.4406 61.7707C68.5974 61.7707 67.824 61.6464 67.1204 61.3977C66.4167 61.149 65.8344 60.8426 65.3734 60.4787ZM67.6117 53.3087C67.6117 54.0852 67.7785 54.713 68.1121 55.1922C68.4458 55.6714 68.9583 55.911 69.6498 55.911C70.0987 55.911 70.4809 55.7806 70.7963 55.5198C71.1178 55.2589 71.3453 54.9587 71.4787 54.619V51.5254C71.3331 51.1371 71.0996 50.8156 70.7781 50.5609C70.4566 50.3061 70.0654 50.1787 69.6044 50.1787C68.9432 50.1787 68.4458 50.4214 68.1121 50.9066C67.7785 51.3919 67.6117 52.0197 67.6117 52.7901V53.3087ZM76.4922 57.7854V43.9278H79.231V49.5691C79.51 49.1445 79.8861 48.7987 80.3593 48.5318C80.8324 48.2588 81.4178 48.1224 82.1154 48.1224C83.0131 48.1224 83.7501 48.4044 84.3264 48.9686C84.9087 49.5327 85.1999 50.4486 85.1999 51.7164V57.7854H82.452V51.9075C82.452 51.3009 82.3155 50.8702 82.0426 50.6155C81.7757 50.3546 81.4117 50.2242 80.9507 50.2242C80.5382 50.2242 80.1864 50.3395 79.8952 50.57C79.6101 50.8005 79.3917 51.125 79.2401 51.5435V57.7854H76.4922ZM26.2754 76.7854V63.5374H31.3798C32.9024 63.5374 34.0701 63.9135 34.8829 64.6657C35.7018 65.4118 36.1113 66.4733 36.1113 67.8503C36.1113 69.2151 35.7018 70.2797 34.8829 71.044C34.0701 71.8022 32.8994 72.1814 31.3707 72.1814H29.1051V76.7854H26.2754ZM29.1051 70.0977H31.0614C31.8985 70.0977 32.4778 69.8975 32.7993 69.4972C33.1208 69.0968 33.2815 68.5509 33.2815 67.8594C33.2815 67.1739 33.1208 66.6371 32.7993 66.2489C32.4778 65.8546 31.8985 65.6574 31.0614 65.6574H29.1051V70.0977ZM37.094 72.1905V71.8993C37.094 70.4374 37.5368 69.2636 38.4224 68.378C39.3141 67.4863 40.4575 67.0405 41.8527 67.0405C43.2479 67.0405 44.3428 67.459 45.1374 68.2961C45.932 69.1272 46.3293 70.2766 46.3293 71.7446V72.7H38.9137V71.0349H43.6179V70.8438C43.6179 70.3282 43.4632 69.8945 43.1538 69.5427C42.8505 69.1908 42.4138 69.0149 41.8436 69.0149C41.1824 69.0149 40.682 69.2606 40.3423 69.7519C40.0026 70.2372 39.8327 70.8984 39.8327 71.7355V72.3178C39.8327 73.1549 40.0147 73.8192 40.3787 74.3105C40.7487 74.7958 41.2946 75.0384 42.0165 75.0384C42.5139 75.0384 42.9446 74.9171 43.3085 74.6745C43.6725 74.4258 43.9667 74.1407 44.1911 73.8192L46.1656 75.002C45.8623 75.6025 45.3527 76.0969 44.637 76.4851C43.9212 76.8673 43.0628 77.0584 42.062 77.0584C40.5151 77.0584 39.2989 76.6156 38.4133 75.7299C37.5337 74.8382 37.094 73.6584 37.094 72.1905ZM47.9762 76.7854V67.3225H50.6149L50.6695 68.378H50.715C50.9091 68.0201 51.176 67.7138 51.5157 67.459C51.8615 67.1982 52.2497 67.0678 52.6804 67.0678C52.8078 67.0678 52.9382 67.0829 53.0716 67.1133C53.2051 67.1436 53.2991 67.1709 53.3537 67.1952V69.5245C53.2445 69.4941 53.1262 69.4729 52.9988 69.4608C52.8775 69.4426 52.7441 69.4335 52.5985 69.4335C52.186 69.4335 51.813 69.5578 51.4793 69.8065C51.1457 70.0492 50.9 70.3616 50.7423 70.7437V76.7854H47.9762ZM55.3009 76.7854V66.4672C55.3009 65.2237 55.6497 64.2926 56.3472 63.6739C57.0448 63.0551 57.9365 62.7458 59.0223 62.7458C59.2589 62.7458 59.4833 62.7579 59.6956 62.7822C59.914 62.8064 60.1112 62.8428 60.2871 62.8914L60.2052 64.9022C60.0899 64.878 59.9656 64.8567 59.8321 64.8385C59.6987 64.8203 59.5592 64.8112 59.4136 64.8112C58.9768 64.8112 58.6371 64.9568 58.3945 65.248C58.1519 65.5391 58.0305 65.982 58.0305 66.5764V68.105L58.0396 68.287V76.7854H55.3009ZM54.0179 69.3152V67.3225H56.2836H56.6111H59.7411V69.3152H54.0179ZM60.3144 72.1905V71.8993C60.3144 70.4131 60.7693 69.2333 61.6792 68.3598C62.5891 67.4802 63.775 67.0405 65.2369 67.0405C66.7048 67.0405 67.8938 67.4802 68.8037 68.3598C69.7135 69.2333 70.1685 70.4131 70.1685 71.8993V72.1905C70.1685 73.6766 69.7135 74.8595 68.8037 75.739C67.8938 76.6125 66.7048 77.0493 65.2369 77.0493C63.775 77.0493 62.5891 76.6125 61.6792 75.739C60.7693 74.8595 60.3144 73.6766 60.3144 72.1905ZM63.1259 71.7537V72.336C63.1259 73.1974 63.3079 73.8556 63.6719 74.3105C64.0419 74.7654 64.5636 74.9929 65.2369 74.9929C65.9163 74.9929 66.4379 74.7654 66.8019 74.3105C67.1719 73.8556 67.3569 73.1974 67.3569 72.336V71.7537C67.3569 70.8923 67.1689 70.2372 66.7928 69.7883C66.4228 69.3334 65.9041 69.1059 65.2369 69.1059C64.5757 69.1059 64.0571 69.3334 63.681 69.7883C63.3109 70.2372 63.1259 70.8923 63.1259 71.7537ZM71.9428 76.7854V67.3225H74.5815L74.6361 68.378H74.6815C74.8757 68.0201 75.1426 67.7138 75.4823 67.459C75.828 67.1982 76.2162 67.0678 76.6469 67.0678C76.7743 67.0678 76.9047 67.0829 77.0382 67.1133C77.1716 67.1436 77.2656 67.1709 77.3202 67.1952V69.5245C77.211 69.4941 77.0928 69.4729 76.9654 69.4608C76.8441 69.4426 76.7106 69.4335 76.565 69.4335C76.1525 69.4335 75.7795 69.5578 75.4459 69.8065C75.1122 70.0492 74.8666 70.3616 74.7088 70.7437V76.7854H71.9428ZM78.7488 76.7854V67.3225H81.3601L81.4147 68.4326H81.4693C81.7484 68.0141 82.1245 67.6926 82.5976 67.4681C83.0768 67.2437 83.5924 67.1315 84.1444 67.1315C84.8056 67.1315 85.3788 67.271 85.8641 67.55C86.3554 67.823 86.7133 68.2294 86.9378 68.7693H86.9651C87.2926 68.2355 87.7354 67.829 88.2935 67.55C88.8516 67.271 89.446 67.1315 90.0769 67.1315C91.0232 67.1315 91.7875 67.4257 92.3698 68.0141C92.9522 68.6024 93.2433 69.5851 93.2433 70.9621V76.7854H90.4955V70.8711C90.4955 70.313 90.3772 69.9006 90.1406 69.6337C89.9101 69.3668 89.5674 69.2303 89.1124 69.2242C88.7121 69.2242 88.3633 69.3364 88.066 69.5609C87.7749 69.7792 87.5413 70.0856 87.3654 70.4799V76.7854H84.6176V70.8984C84.6176 70.3221 84.4993 69.9006 84.2627 69.6337C84.0261 69.3607 83.6773 69.2242 83.2163 69.2242C82.816 69.2242 82.4702 69.3334 82.179 69.5518C81.8939 69.7701 81.6665 70.0795 81.4966 70.4799V76.7854H78.7488ZM94.9266 72.1905V71.8993C94.9266 70.4374 95.3694 69.2636 96.2551 68.378C97.1468 67.4863 98.2902 67.0405 99.6854 67.0405C101.081 67.0405 102.175 67.459 102.97 68.2961C103.765 69.1272 104.162 70.2766 104.162 71.7446V72.7H96.7464V71.0349H101.451V70.8438C101.451 70.3282 101.296 69.8945 100.986 69.5427C100.683 69.1908 100.246 69.0149 99.6763 69.0149C99.0151 69.0149 98.5146 69.2606 98.1749 69.7519C97.8352 70.2372 97.6654 70.8984 97.6654 71.7355V72.3178C97.6654 73.1549 97.8474 73.8192 98.2113 74.3105C98.5814 74.7958 99.1273 75.0384 99.8491 75.0384C100.347 75.0384 100.777 74.9171 101.141 74.6745C101.505 74.4258 101.799 74.1407 102.024 73.8192L103.998 75.002C103.695 75.6025 103.185 76.0969 102.47 76.4851C101.754 76.8673 100.896 77.0584 99.8946 77.0584C98.3478 77.0584 97.1316 76.6156 96.246 75.7299C95.3664 74.8382 94.9266 73.6584 94.9266 72.1905ZM105.809 76.7854V67.3225H108.448L108.502 68.378H108.548C108.742 68.0201 109.009 67.7138 109.348 67.459C109.694 67.1982 110.082 67.0678 110.513 67.0678C110.64 67.0678 110.771 67.0829 110.904 67.1133C111.038 67.1436 111.132 67.1709 111.186 67.1952V69.5245C111.077 69.4941 110.959 69.4729 110.832 69.4608C110.71 69.4426 110.577 69.4335 110.431 69.4335C110.019 69.4335 109.646 69.5578 109.312 69.8065C108.978 70.0492 108.733 70.3616 108.575 70.7437V76.7854H105.809Z" fill="url(#paint9_linear_1775_15391)"></path></g><defs><filter id="filter0_f_1775_15391" x="-14.6073" y="-7.96158" width="162.578" height="166.49" color-interpolation-filters="sRGB"><feGaussianBlur stdDeviation="16.7607"></feGaussianBlur></filter><filter id="filter1_d_1775_15391" x="44.7212" y="-1.11629" width="43.5771" height="49.5825" color-interpolation-filters="sRGB"><feGaussianBlur stdDeviation="4.19017"></feGaussianBlur></filter><filter id="filter2_i_1775_15391" x="124.506" y="106.385" width="2.71289" height="6.13686" color-interpolation-filters="sRGB"><feGaussianBlur stdDeviation="1.11738"></feGaussianBlur></filter><filter id="filter3_i_1775_15391" x="5.05078" y="106.425" width="3.24805" height="5.25957" color-interpolation-filters="sRGB"><feGaussianBlur stdDeviation="1.11738"></feGaussianBlur></filter><linearGradient id="paint0_linear_1775_15391" x1="-21.4425" y1="-22.1885" x2="140.187" y2="204.926" gradientUnits="userSpaceOnUse"><stop stop-color="#237611"></stop><stop offset="0.443396" stop-color="#56AB45"></stop><stop offset="1" stop-color="#154B09"></stop></linearGradient><linearGradient id="paint1_linear_1775_15391" x1="74.3115" y1="-7.05736" x2="74.5553" y2="58.7664" gradientUnits="userSpaceOnUse"><stop stop-color="#18181A"></stop><stop offset="0.576403" stop-color="#345E25" stop-opacity="0.3"></stop></linearGradient><linearGradient id="paint2_linear_1775_15391" x1="18.8977" y1="80.2552" x2="32.8957" y2="180.625" gradientUnits="userSpaceOnUse"><stop offset="0.0564825" stop-color="#237611"></stop><stop offset="0.515533" stop-color="white"></stop><stop offset="1" stop-color="#154B09"></stop></linearGradient><linearGradient id="paint3_linear_1775_15391" x1="127.349" y1="110.882" x2="125.518" y2="104.967" gradientUnits="userSpaceOnUse"><stop stop-color="#4FA83D"></stop><stop offset="1" stop-color="#247314"></stop></linearGradient><linearGradient id="paint4_linear_1775_15391" x1="8.45415" y1="110.554" x2="7.11672" y2="104.92" gradientUnits="userSpaceOnUse"><stop stop-color="#4FA83D"></stop><stop offset="1" stop-color="#247314"></stop></linearGradient><linearGradient id="paint5_linear_1775_15391" x1="133.315" y1="110.105" x2="131.785" y2="72.118" gradientUnits="userSpaceOnUse"><stop stop-color="#4FA83D"></stop><stop offset="1" stop-color="#247314"></stop></linearGradient><linearGradient id="paint6_linear_1775_15391" x1="50.3868" y1="1.73801" x2="73.6673" y2="47.9691" gradientUnits="userSpaceOnUse"><stop offset="0.298998" stop-color="#D23C24"></stop><stop offset="0.494461" stop-color="#E97462"></stop><stop offset="0.662382" stop-color="#CB351D"></stop></linearGradient><linearGradient id="paint7_linear_1775_15391" x1="67.0119" y1="10.0377" x2="75.0389" y2="24.3231" gradientUnits="userSpaceOnUse"><stop offset="0.298998" stop-color="#D23C24"></stop><stop offset="0.494461" stop-color="#E97462"></stop><stop offset="0.662382" stop-color="#CB351D"></stop></linearGradient><linearGradient id="paint8_linear_1775_15391" x1="61.516" y1="15.5132" x2="69.3022" y2="37.8952" gradientUnits="userSpaceOnUse"><stop offset="0.298998" stop-color="#D23C24"></stop><stop offset="0.494461" stop-color="#E97462"></stop><stop offset="0.662382" stop-color="#CB351D"></stop></linearGradient><linearGradient id="paint9_linear_1775_15391" x1="-53.4957" y1="-18.1512" x2="-40.154" y2="144.791" gradientUnits="userSpaceOnUse"><stop stop-color="#237611"></stop><stop offset="0.543267" stop-color="white"></stop><stop offset="1" stop-color="#154B09"></stop></linearGradient><clipPath id="clip0_1775_15391"><rect width="131.851" height="156.433" fill="white" transform="translate(0.476562 0.418945)"></rect></clipPath></defs></svg>