<svg xmlns="http://www.w3.org/2000/svg" width="133" height="157" viewBox="0 0 133 157" fill="none"><g clip-path="url(#clip0_1775_15410)"><path d="M124.419 127.521V11.3134L67.5801 0.707187C66.5592 0.516686 65.5118 0.517598 64.4912 0.709877L8.21094 11.3134V127.521L65.1807 155.604C66.7722 156.389 68.6417 156.371 70.2177 155.556L124.419 127.521Z" fill="url(#paint0_linear_1775_15410)"></path><path d="M120.788 124.912V14.9448L67.6941 5.16789C66.6908 4.98314 65.6621 4.98314 64.6588 5.1679L11.5645 14.9448V125.007L65.2313 150.638C66.796 151.386 68.6191 151.364 70.1657 150.58L120.788 124.912Z" fill="#1C211A"></path><g opacity="0.2" filter="url(#filter0_f_1775_15410)"><ellipse cx="66.5962" cy="75.2832" rx="47.7681" ry="49.7233" fill="#59A52C"></ellipse></g><g filter="url(#filter1_d_1775_15410)"><path d="M64.7916 5.16693L53.0137 7.32794V30.1908L66.3096 37.8511L79.8308 30.1908V7.38754L67.8271 5.16892C66.8239 4.98348 65.7952 4.98281 64.7916 5.16693Z" fill="url(#paint1_linear_1775_15410)"></path></g><path d="M48.6949 124.956L46.8355 117.228H48.2248L49.4397 122.69C49.4644 122.809 49.4838 122.913 49.4979 123.001C49.5155 123.089 49.5313 123.193 49.5454 123.313H49.6035C49.6176 123.193 49.6299 123.089 49.6405 123.001C49.6546 122.913 49.6775 122.809 49.7091 122.69L51.0192 117.228H52.5616L53.9086 122.679C53.9403 122.802 53.9615 122.91 53.972 123.001C53.9861 123.089 54.0002 123.193 54.0143 123.313H54.0724C54.0865 123.19 54.1006 123.084 54.1147 122.996C54.1287 122.908 54.1481 122.802 54.1728 122.679L55.356 117.228H56.5868L54.7433 124.956H53.2378L51.8696 119.51C51.8415 119.386 51.8168 119.272 51.7957 119.166C51.7746 119.057 51.757 118.943 51.7429 118.823H51.6848C51.6672 118.943 51.6478 119.055 51.6267 119.161C51.609 119.267 51.5862 119.381 51.558 119.504L50.1793 124.95L48.6949 124.956ZM57.6961 124.919V117.228H59.0748V124.919H57.6961ZM60.8339 124.919V117.228H62.3235L65.4559 122.304C65.5193 122.41 65.5792 122.52 65.6355 122.637C65.6919 122.753 65.7412 122.86 65.7834 122.959H65.831C65.8239 122.846 65.8169 122.714 65.8099 122.563C65.8063 122.411 65.8046 122.279 65.8046 122.167V117.228H67.0301V124.919H65.5299L62.3974 119.853C62.3305 119.747 62.2707 119.642 62.2178 119.536C62.165 119.43 62.1192 119.328 62.0805 119.23H62.033C62.04 119.342 62.0453 119.464 62.0488 119.594C62.0558 119.721 62.0594 119.841 62.0594 119.953V124.919H60.8339ZM67.9809 118.284V117.228H74.267V118.284H71.8159V124.919H70.4319V118.284H67.9809ZM75.2653 124.919V117.228H80.4738V118.284H76.644V120.429H79.9825V121.48H76.644V123.862H80.5319V124.919H75.2653ZM81.7627 124.919V117.228H84.5148C85.4198 117.228 86.1206 117.441 86.6172 117.867C87.1137 118.289 87.362 118.863 87.362 119.589C87.362 120.314 87.1137 120.895 86.6172 121.332C86.1206 121.769 85.4198 121.987 84.5148 121.987H83.1414V124.919H81.7627ZM83.1414 120.946H84.4989C85.0483 120.946 85.4322 120.818 85.6505 120.561C85.8688 120.3 85.9798 119.978 85.9833 119.594C85.9833 119.207 85.8741 118.89 85.6558 118.643C85.4374 118.397 85.0518 118.273 84.4989 118.273H83.1414V120.946ZM86.147 124.919L84.2929 121.369L85.7456 121.269L87.7053 124.919H86.147ZM55.2504 137.919V137.01L58.0976 134.057C58.4286 133.712 58.6822 133.401 58.8582 133.122C59.0343 132.844 59.1224 132.55 59.1224 132.24C59.1224 131.927 59.0185 131.664 58.8107 131.453C58.6064 131.242 58.3177 131.136 57.9444 131.136C57.5641 131.136 57.2524 131.258 57.0094 131.501C56.7664 131.744 56.6414 132.09 56.6344 132.541V132.626H55.2398V132.531C55.2398 131.805 55.4934 131.214 56.0005 130.756C56.5076 130.298 57.1556 130.069 57.9444 130.069C58.7473 130.069 59.3759 130.275 59.8302 130.687C60.288 131.096 60.5187 131.594 60.5222 132.182C60.5222 132.679 60.3866 133.126 60.1154 133.524C59.8443 133.922 59.5027 134.33 59.0907 134.749L57.0517 136.82H60.7124V137.919H55.2504ZM61.4783 135.309V132.837C61.4783 132.009 61.709 131.342 62.1703 130.835C62.6316 130.324 63.2902 130.069 64.1459 130.069C64.9911 130.069 65.6461 130.323 66.111 130.83C66.5793 131.337 66.8135 132.006 66.8135 132.837V135.309C66.8135 136.14 66.5793 136.809 66.111 137.317C65.6461 137.824 64.9911 138.077 64.1459 138.077C63.2902 138.077 62.6316 137.824 62.1703 137.317C61.709 136.809 61.4783 136.14 61.4783 135.309ZM62.894 135.394C62.894 135.866 62.9908 136.253 63.1845 136.556C63.3817 136.859 63.7022 137.01 64.1459 137.01C64.5861 137.01 64.9048 136.859 65.102 136.556C65.2992 136.253 65.3978 135.866 65.3978 135.394V132.753C65.3978 132.281 65.2992 131.893 65.102 131.59C64.9048 131.288 64.5861 131.136 64.1459 131.136C63.7022 131.136 63.3817 131.288 63.1845 131.59C62.9908 131.893 62.894 132.281 62.894 132.753V135.394ZM67.6745 137.919V137.01L70.5218 134.057C70.8528 133.712 71.1063 133.401 71.2824 133.122C71.4585 132.844 71.5465 132.55 71.5465 132.24C71.5465 131.927 71.4426 131.664 71.2349 131.453C71.0306 131.242 70.7418 131.136 70.3686 131.136C69.9882 131.136 69.6766 131.258 69.4336 131.501C69.1906 131.744 69.0656 132.09 69.0585 132.541V132.626H67.664V132.531C67.664 131.805 67.9175 131.214 68.4246 130.756C68.9318 130.298 69.5797 130.069 70.3686 130.069C71.1715 130.069 71.8001 130.275 72.2544 130.687C72.7122 131.096 72.9428 131.594 72.9464 132.182C72.9464 132.679 72.8108 133.126 72.5396 133.524C72.2685 133.922 71.9269 134.33 71.5148 134.749L69.4758 136.82H73.1365V137.919H67.6745ZM73.7493 135.837V135.763H75.128V135.832C75.128 136.209 75.2477 136.501 75.4872 136.709C75.7302 136.917 76.0665 137.021 76.4961 137.021C76.9082 137.021 77.2374 136.917 77.4839 136.709C77.7304 136.498 77.8537 136.17 77.8537 135.727C77.8537 135.297 77.7128 134.975 77.4311 134.76C77.1529 134.541 76.7761 134.432 76.3007 134.432H75.5876V133.408H76.2479C76.6775 133.408 77.0103 133.304 77.2462 133.096C77.4822 132.888 77.6001 132.598 77.6001 132.224C77.6001 131.855 77.498 131.58 77.2938 131.4C77.093 131.217 76.8236 131.126 76.4856 131.126C76.1228 131.126 75.8376 131.217 75.6298 131.4C75.422 131.583 75.3182 131.849 75.3182 132.198V132.256H73.9395V132.198C73.9395 131.61 74.1719 131.108 74.6367 130.692C75.1016 130.277 75.7214 130.069 76.4961 130.069C77.2955 130.069 77.9136 130.263 78.3502 130.65C78.7869 131.038 79.0053 131.523 79.0053 132.108C79.0053 132.478 78.9049 132.821 78.7042 133.138C78.507 133.455 78.1971 133.7 77.7745 133.872V133.894C78.2288 134.003 78.5915 134.223 78.8626 134.554C79.1338 134.881 79.2694 135.285 79.2694 135.763C79.2694 136.482 79.0105 137.047 78.4929 137.459C77.9752 137.871 77.3079 138.077 76.4908 138.077C75.6245 138.077 74.9502 137.868 74.4677 137.449C73.9888 137.029 73.7493 136.492 73.7493 135.837Z" fill="url(#paint2_linear_1775_15410)"></path><g filter="url(#filter2_i_1775_15410)"><path d="M124.42 106.656L127.133 106.385L124.42 110.287V106.656Z" fill="url(#paint3_linear_1775_15410)"></path></g><g filter="url(#filter3_i_1775_15410)"><path d="M4.96484 106.425L8.2125 106.656V110.008L4.96484 106.425Z" fill="url(#paint4_linear_1775_15410)"></path></g><path d="M5.20898 85.7404C5.20898 84.8811 5.20898 84.4514 5.43281 84.1533C5.49615 84.0689 5.57111 83.994 5.65547 83.9306C5.95358 83.7068 6.38326 83.7068 7.24262 83.7068H125.529C126.388 83.7068 126.818 83.7068 127.116 83.9306C127.2 83.994 127.275 84.0689 127.338 84.1533C127.562 84.4514 127.562 84.8811 127.562 85.7404V105.596C127.562 106.026 127.562 106.241 127.45 106.39C127.419 106.432 127.381 106.469 127.339 106.501C127.19 106.613 126.975 106.613 126.545 106.613H6.2258C5.79612 106.613 5.58128 106.613 5.43223 106.501C5.39005 106.469 5.35257 106.432 5.3209 106.39C5.20898 106.241 5.20898 106.026 5.20898 105.596V85.7404Z" fill="url(#paint5_linear_1775_15410)"></path><path d="M44.9719 90.3128V98.7349H43.8643V92.4548L41.0651 98.7349H40.2862L37.4748 92.4427V98.7349H36.3672V90.3128H37.5599L40.6756 97.2744L43.7913 90.3128H44.9719ZM46.9353 90.9822C46.7244 90.9822 46.5459 90.9092 46.3998 90.7631C46.2538 90.6171 46.1807 90.4386 46.1807 90.2276C46.1807 90.0166 46.2538 89.8381 46.3998 89.6921C46.5459 89.546 46.7244 89.473 46.9353 89.473C47.1382 89.473 47.3085 89.546 47.4465 89.6921C47.5925 89.8381 47.6656 90.0166 47.6656 90.2276C47.6656 90.4386 47.5925 90.6171 47.4465 90.7631C47.3085 90.9092 47.1382 90.9822 46.9353 90.9822ZM47.4708 92.0654V98.7349H46.3633V92.0654H47.4708ZM48.4578 95.3758C48.4578 94.6942 48.5957 94.0979 48.8716 93.5867C49.1475 93.0674 49.5247 92.6658 50.0035 92.3818C50.4903 92.0978 51.0339 91.9558 51.6343 91.9558C52.1536 91.9558 52.6364 92.0775 53.0826 92.3209C53.5289 92.5562 53.8697 92.8686 54.105 93.2581V89.7286H55.2246V98.7349H54.105V97.4813C53.8859 97.8789 53.5613 98.2075 53.1313 98.4671C52.7013 98.7186 52.1982 98.8444 51.6221 98.8444C51.0298 98.8444 50.4903 98.6984 50.0035 98.4063C49.5247 98.1142 49.1475 97.7044 48.8716 97.177C48.5957 96.6496 48.4578 96.0492 48.4578 95.3758ZM54.105 95.3879C54.105 94.8849 54.0035 94.4467 53.8007 94.0735C53.5978 93.7003 53.322 93.4163 52.9731 93.2216C52.6323 93.0187 52.255 92.9173 51.8412 92.9173C51.4274 92.9173 51.0501 93.0147 50.7093 93.2094C50.3686 93.4041 50.0968 93.6881 49.8939 94.0613C49.6911 94.4346 49.5897 94.8727 49.5897 95.3758C49.5897 95.8869 49.6911 96.3332 49.8939 96.7145C50.0968 97.0878 50.3686 97.3758 50.7093 97.5787C51.0501 97.7734 51.4274 97.8707 51.8412 97.8707C52.255 97.8707 52.6323 97.7734 52.9731 97.5787C53.322 97.3758 53.5978 97.0878 53.8007 96.7145C54.0035 96.3332 54.105 95.891 54.105 95.3879ZM67.9719 90.3128V98.7349H66.8644V92.4548L64.0652 98.7349H63.2863L60.4748 92.4427V98.7349H59.3673V90.3128H60.56L63.6757 97.2744L66.7914 90.3128H67.9719ZM68.9496 95.3758C68.9496 94.6942 69.0875 94.0979 69.3634 93.5867C69.6393 93.0674 70.0165 92.6658 70.4953 92.3818C70.9821 92.0978 71.5216 91.9558 72.1139 91.9558C72.6981 91.9558 73.2052 92.0816 73.6353 92.3331C74.0653 92.5846 74.3858 92.9011 74.5968 93.2824V92.0654H75.7165V98.7349H74.5968V97.4935C74.3777 97.8829 74.0491 98.2075 73.6109 98.4671C73.1809 98.7186 72.6779 98.8444 72.1018 98.8444C71.5095 98.8444 70.974 98.6984 70.4953 98.4063C70.0165 98.1142 69.6393 97.7044 69.3634 97.177C69.0875 96.6496 68.9496 96.0492 68.9496 95.3758ZM74.5968 95.3879C74.5968 94.8849 74.4953 94.4467 74.2925 94.0735C74.0896 93.7003 73.8138 93.4163 73.4649 93.2216C73.1241 93.0187 72.7468 92.9173 72.333 92.9173C71.9192 92.9173 71.5419 93.0147 71.2012 93.2094C70.8604 93.4041 70.5886 93.6881 70.3857 94.0613C70.1829 94.4346 70.0815 94.8727 70.0815 95.3758C70.0815 95.8869 70.1829 96.3332 70.3857 96.7145C70.5886 97.0878 70.8604 97.3758 71.2012 97.5787C71.5419 97.7734 71.9192 97.8707 72.333 97.8707C72.7468 97.8707 73.1241 97.7734 73.4649 97.5787C73.8138 97.3758 74.0896 97.0878 74.2925 96.7145C74.4953 96.3332 74.5968 95.891 74.5968 95.3879ZM78.2088 93.1485C78.4035 92.7672 78.6794 92.4711 79.0364 92.2601C79.4015 92.0491 79.8437 91.9437 80.363 91.9437V93.0877H80.0709C78.8295 93.0877 78.2088 93.7611 78.2088 95.108V98.7349H77.1012V92.0654H78.2088V93.1485ZM84.8788 98.7349L82.2622 95.7896V98.7349H81.1546V89.7286H82.2622V95.0228L84.8302 92.0654H86.3758L83.2358 95.3879L86.388 98.7349H84.8788ZM93.0167 95.1445C93.0167 95.3555 93.0045 95.5786 92.9802 95.8139H87.6495C87.69 96.4711 87.9132 96.9864 88.3188 97.3596C88.7326 97.7247 89.2316 97.9073 89.8158 97.9073C90.2945 97.9073 90.6921 97.7977 91.0085 97.5787C91.3331 97.3515 91.5603 97.0513 91.6901 96.678H92.8828C92.7043 97.319 92.3473 97.8424 91.8118 98.248C91.2763 98.6456 90.611 98.8444 89.8158 98.8444C89.183 98.8444 88.615 98.7024 88.1119 98.4184C87.617 98.1344 87.2275 97.7328 86.9436 97.2135C86.6596 96.6861 86.5176 96.0776 86.5176 95.3879C86.5176 94.6983 86.6555 94.0938 86.9314 93.5745C87.2073 93.0552 87.5927 92.6577 88.0876 92.3818C88.5906 92.0978 89.1667 91.9558 89.8158 91.9558C90.4487 91.9558 91.0085 92.0938 91.4954 92.3696C91.9822 92.6455 92.3554 93.0268 92.6151 93.5137C92.8828 93.9924 93.0167 94.536 93.0167 95.1445ZM91.8727 94.9133C91.8727 94.4914 91.7794 94.1303 91.5927 93.8301C91.4061 93.5218 91.1505 93.2905 90.826 93.1364C90.5096 92.9741 90.1566 92.893 89.7671 92.893C89.2073 92.893 88.7286 93.0715 88.331 93.4285C87.9416 93.7855 87.7184 94.2804 87.6616 94.9133H91.8727ZM95.3427 92.9782V96.9093C95.3427 97.2338 95.4117 97.4651 95.5496 97.603C95.6875 97.7328 95.9269 97.7977 96.2677 97.7977H97.0831V98.7349H96.0851C95.4685 98.7349 95.006 98.5929 94.6977 98.3089C94.3893 98.0249 94.2352 97.5584 94.2352 96.9093V92.9782H93.3711V92.0654H94.2352V90.3858H95.3427V92.0654H97.0831V92.9782H95.3427Z" fill="white"></path><path d="M70.0025 25.3531C70.6373 26.4493 71.2649 27.533 71.8921 28.6155C69.1149 30.7315 64.794 30.9872 61.5953 28.5504C57.9144 25.7441 57.3094 20.9556 59.2801 17.5087C61.5467 13.5439 65.7883 12.6671 68.5193 13.3101C68.4454 13.4697 66.8098 16.8467 66.8098 16.8467C66.8098 16.8467 66.6805 16.8552 66.6073 16.8566C65.8001 16.8906 65.1989 17.0775 64.5545 17.4091C63.8475 17.7762 63.2416 18.3101 62.7898 18.9641C62.338 19.6181 62.054 20.3722 61.9627 21.1606C61.8674 21.9602 61.9785 22.7707 62.2855 23.5156C62.5451 24.1454 62.9122 24.7048 63.4044 25.177C64.1595 25.9021 65.058 26.3511 66.0995 26.4997C67.0858 26.6406 68.0344 26.5011 68.9233 26.0566C69.2567 25.8901 69.5403 25.7063 69.8718 25.4541C69.914 25.4268 69.9516 25.3923 70.0025 25.3531Z" fill="url(#paint6_linear_1775_15410)"></path><path d="M70.0098 15.7397C69.8486 15.5819 69.6993 15.4363 69.5506 15.2898C69.4619 15.2025 69.3765 15.1116 69.2856 15.0263C69.2531 14.9956 69.2148 14.9535 69.2148 14.9535C69.2148 14.9535 69.2458 14.8883 69.259 14.8615C69.4329 14.5142 69.7054 14.2604 70.0287 14.0584C70.3861 13.8334 70.8026 13.7189 71.2254 13.7294C71.7665 13.74 72.2696 13.8741 72.6941 14.2352C73.0074 14.5018 73.1681 14.8399 73.1964 15.2436C73.2436 15.9245 72.9604 16.4461 72.3982 16.81C72.0678 17.0242 71.7115 17.1898 71.3543 17.3858C71.1573 17.4941 70.9888 17.5892 70.7962 17.785C70.6268 17.9816 70.6186 18.1668 70.6186 18.1668L73.178 18.1636V19.298H69.2273C69.2273 19.298 69.2273 19.2205 69.2273 19.1883C69.2122 18.6308 69.2776 18.1063 69.5341 17.6C69.7701 17.1355 70.1367 16.7955 70.5773 16.5337C70.9166 16.3319 71.2738 16.1603 71.6138 15.9595C71.8236 15.8358 71.9718 15.6543 71.9706 15.391C71.9706 15.1651 71.8054 14.9643 71.5695 14.9017C71.0131 14.7523 70.4468 14.9906 70.1523 15.4974C70.1094 15.5714 70.0655 15.6449 70.0098 15.7397Z" fill="url(#paint7_linear_1775_15410)"></path><path d="M74.9612 24.1473L72.8043 20.4404H68.5361L66.3652 24.1856H70.6649L72.7866 27.8749L74.9612 24.1473Z" fill="url(#paint8_linear_1775_15410)"></path><path d="M46.842 57.7854V44.5374H49.6717V49.8512H54.8217V44.5374H57.6515V57.7854H54.8217V52.0531H49.6717V57.7854H46.842ZM60.1628 57.7854V48.3225H62.9289V57.7854H60.1628ZM59.9444 45.6293C59.9444 45.2168 60.0809 44.871 60.3539 44.592C60.6329 44.3069 61.0302 44.1643 61.5458 44.1643C62.0614 44.1643 62.4557 44.3039 62.7287 44.5829C63.0077 44.8619 63.1472 45.2107 63.1472 45.6293C63.1472 46.0417 63.0077 46.3905 62.7287 46.6756C62.4557 46.9607 62.0614 47.1033 61.5458 47.1033C61.0302 47.1033 60.6329 46.9607 60.3539 46.6756C60.0809 46.3905 59.9444 46.0417 59.9444 45.6293ZM65.2855 60.4787L66.3864 58.7681C66.6109 58.9925 66.9779 59.2079 67.4874 59.4141C68.003 59.6264 68.558 59.7326 69.1525 59.7326C69.8137 59.7326 70.3536 59.5294 70.7721 59.1229C71.1907 58.7226 71.3999 58.1039 71.3999 57.2668V56.7754C71.1634 57.1454 70.8206 57.4366 70.3718 57.6489C69.9289 57.8552 69.3951 57.9583 68.7704 57.9583C67.5632 57.9583 66.5866 57.5246 65.8405 56.6571C65.0944 55.7836 64.7213 54.6311 64.7213 53.1996V52.9084C64.7213 51.4708 65.0914 50.3182 65.8314 49.4508C66.5714 48.5773 67.5511 48.1406 68.7704 48.1406C69.3648 48.1406 69.9017 48.2619 70.3809 48.5045C70.8661 48.7411 71.2089 49.0474 71.409 49.4235H71.4636L71.5182 48.3225H74.1296V57.1394C74.1296 58.6316 73.6807 59.775 72.783 60.5697C71.8852 61.3704 70.7418 61.7707 69.3527 61.7707C68.5095 61.7707 67.7361 61.6464 67.0325 61.3977C66.3288 61.149 65.7465 60.8426 65.2855 60.4787ZM67.5238 53.3087C67.5238 54.0852 67.6906 54.713 68.0242 55.1922C68.3579 55.6714 68.8704 55.911 69.562 55.911C70.0108 55.911 70.393 55.7806 70.7084 55.5198C71.0299 55.2589 71.2574 54.9587 71.3908 54.619V51.5254C71.2453 51.1371 71.0117 50.8156 70.6902 50.5609C70.3687 50.3061 69.9775 50.1787 69.5165 50.1787C68.8553 50.1787 68.3579 50.4214 68.0242 50.9066C67.6906 51.3919 67.5238 52.0197 67.5238 52.7901V53.3087ZM76.4043 57.7854V43.9278H79.1431V49.5691C79.4221 49.1445 79.7982 48.7987 80.2714 48.5318C80.7445 48.2588 81.3299 48.1224 82.0275 48.1224C82.9252 48.1224 83.6622 48.4044 84.2385 48.9686C84.8208 49.5327 85.112 50.4486 85.112 51.7164V57.7854H82.3641V51.9075C82.3641 51.3009 82.2276 50.8702 81.9547 50.6155C81.6878 50.3546 81.3238 50.2242 80.8628 50.2242C80.4503 50.2242 80.0985 50.3395 79.8073 50.57C79.5222 50.8005 79.3039 51.125 79.1522 51.5435V57.7854H76.4043ZM26.1875 76.7854V63.5374H31.292C32.8145 63.5374 33.9822 63.9135 34.795 64.6657C35.6139 65.4118 36.0234 66.4733 36.0234 67.8503C36.0234 69.2151 35.6139 70.2797 34.795 71.044C33.9822 71.8022 32.8115 72.1814 31.2829 72.1814H29.0172V76.7854H26.1875ZM29.0172 70.0977H30.9735C31.8106 70.0977 32.3899 69.8975 32.7114 69.4972C33.0329 69.0968 33.1936 68.5509 33.1936 67.8594C33.1936 67.1739 33.0329 66.6371 32.7114 66.2489C32.3899 65.8546 31.8106 65.6574 30.9735 65.6574H29.0172V70.0977ZM37.0061 72.1905V71.8993C37.0061 70.4374 37.4489 69.2636 38.3345 68.378C39.2262 67.4863 40.3696 67.0405 41.7648 67.0405C43.16 67.0405 44.2549 67.459 45.0495 68.2961C45.8441 69.1272 46.2415 70.2766 46.2415 71.7446V72.7H38.8258V71.0349H43.53V70.8438C43.53 70.3282 43.3753 69.8945 43.0659 69.5427C42.7626 69.1908 42.3259 69.0149 41.7557 69.0149C41.0945 69.0149 40.5941 69.2606 40.2544 69.7519C39.9147 70.2372 39.7448 70.8984 39.7448 71.7355V72.3178C39.7448 73.1549 39.9268 73.8192 40.2908 74.3105C40.6608 74.7958 41.2067 75.0384 41.9286 75.0384C42.426 75.0384 42.8567 74.9171 43.2206 74.6745C43.5846 74.4258 43.8788 74.1407 44.1032 73.8192L46.0777 75.002C45.7744 75.6025 45.2648 76.0969 44.5491 76.4851C43.8333 76.8673 42.9749 77.0584 41.9741 77.0584C40.4273 77.0584 39.211 76.6156 38.3254 75.7299C37.4458 74.8382 37.0061 73.6584 37.0061 72.1905ZM47.8884 76.7854V67.3225H50.527L50.5816 68.378H50.6271C50.8212 68.0201 51.0881 67.7138 51.4278 67.459C51.7736 67.1982 52.1618 67.0678 52.5925 67.0678C52.7199 67.0678 52.8503 67.0829 52.9837 67.1133C53.1172 67.1436 53.2112 67.1709 53.2658 67.1952V69.5245C53.1566 69.4941 53.0383 69.4729 52.911 69.4608C52.7896 69.4426 52.6562 69.4335 52.5106 69.4335C52.0981 69.4335 51.7251 69.5578 51.3914 69.8065C51.0578 70.0492 50.8121 70.3616 50.6544 70.7437V76.7854H47.8884ZM55.213 76.7854V66.4672C55.213 65.2237 55.5618 64.2926 56.2594 63.6739C56.9569 63.0551 57.8486 62.7458 58.9344 62.7458C59.171 62.7458 59.3954 62.7579 59.6078 62.7822C59.8261 62.8064 60.0233 62.8428 60.1992 62.8914L60.1173 64.9022C60.002 64.878 59.8777 64.8567 59.7442 64.8385C59.6108 64.8203 59.4713 64.8112 59.3257 64.8112C58.8889 64.8112 58.5492 64.9568 58.3066 65.248C58.064 65.5391 57.9427 65.982 57.9427 66.5764V68.105L57.9518 68.287V76.7854H55.213ZM53.93 69.3152V67.3225H56.1957H56.5232H59.6532V69.3152H53.93ZM60.2265 72.1905V71.8993C60.2265 70.4131 60.6814 69.2333 61.5913 68.3598C62.5012 67.4802 63.6871 67.0405 65.149 67.0405C66.6169 67.0405 67.8059 67.4802 68.7158 68.3598C69.6257 69.2333 70.0806 70.4131 70.0806 71.8993V72.1905C70.0806 73.6766 69.6257 74.8595 68.7158 75.739C67.8059 76.6125 66.6169 77.0493 65.149 77.0493C63.6871 77.0493 62.5012 76.6125 61.5913 75.739C60.6814 74.8595 60.2265 73.6766 60.2265 72.1905ZM63.038 71.7537V72.336C63.038 73.1974 63.22 73.8556 63.584 74.3105C63.954 74.7654 64.4757 74.9929 65.149 74.9929C65.8284 74.9929 66.35 74.7654 66.714 74.3105C67.084 73.8556 67.269 73.1974 67.269 72.336V71.7537C67.269 70.8923 67.081 70.2372 66.7049 69.7883C66.3349 69.3334 65.8162 69.1059 65.149 69.1059C64.4878 69.1059 63.9692 69.3334 63.5931 69.7883C63.2231 70.2372 63.038 70.8923 63.038 71.7537ZM71.8549 76.7854V67.3225H74.4936L74.5482 68.378H74.5937C74.7878 68.0201 75.0547 67.7138 75.3944 67.459C75.7401 67.1982 76.1283 67.0678 76.559 67.0678C76.6864 67.0678 76.8168 67.0829 76.9503 67.1133C77.0837 67.1436 77.1777 67.1709 77.2323 67.1952V69.5245C77.1232 69.4941 77.0049 69.4729 76.8775 69.4608C76.7562 69.4426 76.6227 69.4335 76.4771 69.4335C76.0646 69.4335 75.6916 69.5578 75.358 69.8065C75.0243 70.0492 74.7787 70.3616 74.621 70.7437V76.7854H71.8549ZM78.6609 76.7854V67.3225H81.2723L81.3269 68.4326H81.3814C81.6605 68.0141 82.0366 67.6926 82.5097 67.4681C82.9889 67.2437 83.5045 67.1315 84.0565 67.1315C84.7177 67.1315 85.2909 67.271 85.7762 67.55C86.2676 67.823 86.6254 68.2294 86.8499 68.7693H86.8772C87.2047 68.2355 87.6476 67.829 88.2056 67.55C88.7637 67.271 89.3582 67.1315 89.989 67.1315C90.9353 67.1315 91.6996 67.4257 92.2819 68.0141C92.8643 68.6024 93.1554 69.5851 93.1554 70.9621V76.7854H90.4076V70.8711C90.4076 70.313 90.2893 69.9006 90.0527 69.6337C89.8222 69.3668 89.4795 69.2303 89.0245 69.2242C88.6242 69.2242 88.2754 69.3364 87.9782 69.5609C87.687 69.7792 87.4534 70.0856 87.2775 70.4799V76.7854H84.5297V70.8984C84.5297 70.3221 84.4114 69.9006 84.1748 69.6337C83.9382 69.3607 83.5894 69.2242 83.1284 69.2242C82.7281 69.2242 82.3823 69.3334 82.0912 69.5518C81.8061 69.7701 81.5786 70.0795 81.4087 70.4799V76.7854H78.6609ZM94.8387 72.1905V71.8993C94.8387 70.4374 95.2815 69.2636 96.1672 68.378C97.0589 67.4863 98.2023 67.0405 99.5975 67.0405C100.993 67.0405 102.088 67.459 102.882 68.2961C103.677 69.1272 104.074 70.2766 104.074 71.7446V72.7H96.6585V71.0349H101.363V70.8438C101.363 70.3282 101.208 69.8945 100.899 69.5427C100.595 69.1908 100.159 69.0149 99.5884 69.0149C98.9272 69.0149 98.4267 69.2606 98.087 69.7519C97.7473 70.2372 97.5775 70.8984 97.5775 71.7355V72.3178C97.5775 73.1549 97.7595 73.8192 98.1234 74.3105C98.4935 74.7958 99.0394 75.0384 99.7612 75.0384C100.259 75.0384 100.689 74.9171 101.053 74.6745C101.417 74.4258 101.711 74.1407 101.936 73.8192L103.91 75.002C103.607 75.6025 103.098 76.0969 102.382 76.4851C101.666 76.8673 100.808 77.0584 99.8067 77.0584C98.2599 77.0584 97.0437 76.6156 96.1581 75.7299C95.2785 74.8382 94.8387 73.6584 94.8387 72.1905ZM105.721 76.7854V67.3225H108.36L108.414 68.378H108.46C108.654 68.0201 108.921 67.7138 109.261 67.459C109.606 67.1982 109.994 67.0678 110.425 67.0678C110.553 67.0678 110.683 67.0829 110.816 67.1133C110.95 67.1436 111.044 67.1709 111.098 67.1952V69.5245C110.989 69.4941 110.871 69.4729 110.744 69.4608C110.622 69.4426 110.489 69.4335 110.343 69.4335C109.931 69.4335 109.558 69.5578 109.224 69.8065C108.89 70.0492 108.645 70.3616 108.487 70.7437V76.7854H105.721Z" fill="url(#paint9_linear_1775_15410)"></path></g><defs><filter id="filter0_f_1775_15410" x="-14.6933" y="-7.96158" width="162.578" height="166.49" color-interpolation-filters="sRGB"><feGaussianBlur stdDeviation="16.7607"></feGaussianBlur></filter><filter id="filter1_d_1775_15410" x="44.6333" y="-1.11629" width="43.5771" height="49.5825" color-interpolation-filters="sRGB"><feGaussianBlur stdDeviation="4.19017"></feGaussianBlur></filter><filter id="filter2_i_1775_15410" x="124.42" y="106.385" width="2.71289" height="6.13686" color-interpolation-filters="sRGB"><feGaussianBlur stdDeviation="1.11738"></feGaussianBlur></filter><filter id="filter3_i_1775_15410" x="4.96484" y="106.425" width="3.24805" height="5.25957" color-interpolation-filters="sRGB"><feGaussianBlur stdDeviation="1.11738"></feGaussianBlur></filter><linearGradient id="paint0_linear_1775_15410" x1="-21.5304" y1="-22.1885" x2="140.1" y2="204.926" gradientUnits="userSpaceOnUse"><stop stop-color="#237611"></stop><stop offset="0.443396" stop-color="#56AB45"></stop><stop offset="1" stop-color="#154B09"></stop></linearGradient><linearGradient id="paint1_linear_1775_15410" x1="74.2236" y1="-7.05736" x2="74.4674" y2="58.7664" gradientUnits="userSpaceOnUse"><stop stop-color="#18181A"></stop><stop offset="0.576403" stop-color="#345E25" stop-opacity="0.3"></stop></linearGradient><linearGradient id="paint2_linear_1775_15410" x1="18.8098" y1="80.2552" x2="32.8078" y2="180.625" gradientUnits="userSpaceOnUse"><stop offset="0.0564825" stop-color="#237611"></stop><stop offset="0.515533" stop-color="white"></stop><stop offset="1" stop-color="#154B09"></stop></linearGradient><linearGradient id="paint3_linear_1775_15410" x1="127.263" y1="110.882" x2="125.432" y2="104.967" gradientUnits="userSpaceOnUse"><stop stop-color="#4FA83D"></stop><stop offset="1" stop-color="#247314"></stop></linearGradient><linearGradient id="paint4_linear_1775_15410" x1="8.36821" y1="110.554" x2="7.03078" y2="104.92" gradientUnits="userSpaceOnUse"><stop stop-color="#4FA83D"></stop><stop offset="1" stop-color="#247314"></stop></linearGradient><linearGradient id="paint5_linear_1775_15410" x1="133.428" y1="110.105" x2="131.899" y2="72.118" gradientUnits="userSpaceOnUse"><stop stop-color="#4FA83D"></stop><stop offset="1" stop-color="#247314"></stop></linearGradient><linearGradient id="paint6_linear_1775_15410" x1="50.3009" y1="1.73801" x2="73.5814" y2="47.9691" gradientUnits="userSpaceOnUse"><stop offset="0.298998" stop-color="#D23C24"></stop><stop offset="0.494461" stop-color="#E97462"></stop><stop offset="0.662382" stop-color="#CB351D"></stop></linearGradient><linearGradient id="paint7_linear_1775_15410" x1="66.926" y1="10.0377" x2="74.9529" y2="24.3231" gradientUnits="userSpaceOnUse"><stop offset="0.298998" stop-color="#D23C24"></stop><stop offset="0.494461" stop-color="#E97462"></stop><stop offset="0.662382" stop-color="#CB351D"></stop></linearGradient><linearGradient id="paint8_linear_1775_15410" x1="61.4301" y1="15.5132" x2="69.2163" y2="37.8952" gradientUnits="userSpaceOnUse"><stop offset="0.298998" stop-color="#D23C24"></stop><stop offset="0.494461" stop-color="#E97462"></stop><stop offset="0.662382" stop-color="#CB351D"></stop></linearGradient><linearGradient id="paint9_linear_1775_15410" x1="-52.9334" y1="-9.10745" x2="-32.5383" y2="150.079" gradientUnits="userSpaceOnUse"><stop stop-color="#237611"></stop><stop offset="0.543267" stop-color="white"></stop><stop offset="1" stop-color="#154B09"></stop></linearGradient><clipPath id="clip0_1775_15410"><rect width="131.851" height="156.433" fill="white" transform="translate(0.390625 0.418945)"></rect></clipPath></defs></svg>