<svg xmlns="http://www.w3.org/2000/svg" width="111" height="132" viewBox="0 0 111 132" fill="none"><g clip-path="url(#clip0_1775_15355)"><path d="M103.784 106.883V9.64581L56.2245 0.770975C55.3702 0.611571 54.4938 0.612334 53.6398 0.773226L6.54688 9.64581V106.883L54.2167 130.383C55.5484 131.039 57.1127 131.024 58.4315 130.342L103.784 106.883Z" fill="url(#paint0_linear_1775_15355)"></path><path d="M100.748 104.7V12.6843L56.3204 4.50338C55.4809 4.34878 54.6202 4.34878 53.7806 4.50338L9.35352 12.6843V104.78L54.2596 126.227C55.5689 126.853 57.0944 126.834 58.3885 126.178L100.748 104.7Z" fill="#1C211A"></path><g opacity="0.2" filter="url(#filter0_f_1775_15355)"><ellipse cx="55.4019" cy="63.1734" rx="39.9703" ry="41.6065" fill="#59A52C"></ellipse></g><g filter="url(#filter1_d_1775_15355)"><path d="M53.8006 4.50258L43.9453 6.31081V25.4415L55.0708 31.8513L66.3848 25.4415V6.36069L56.3406 4.50423C55.5011 4.34907 54.6403 4.34851 53.8006 4.50258Z" fill="url(#paint1_linear_1775_15355)"></path></g><path fill-rule="evenodd" clip-rule="evenodd" d="M53.9282 10.7976H55.7283C55.819 10.7976 55.8925 10.8711 55.8925 10.9618V10.9944C55.8925 11.0789 55.8606 11.1604 55.8032 11.2225L50.0935 17.3953C49.9747 17.5238 49.9744 17.722 50.0929 17.8508L54.5608 22.7079C54.6781 22.8354 54.6792 23.0312 54.5633 23.16L53.843 23.9607C53.7189 24.0987 53.5065 24.1099 53.3686 23.9858C53.3608 23.9788 53.3534 23.9715 53.3464 23.9639L47.7043 17.8504C47.5856 17.7218 47.5855 17.5237 47.7041 17.395L53.6811 10.9059C53.7447 10.8369 53.8343 10.7976 53.9282 10.7976Z" fill="url(#paint2_linear_1775_15355)"></path><path fill-rule="evenodd" clip-rule="evenodd" d="M56.1704 25.2412H54.3804C54.2884 25.2412 54.2138 25.1666 54.2138 25.0746V25.0366C54.2138 24.9538 54.2444 24.8738 54.2998 24.8122L60.0134 18.4497C60.1279 18.3221 60.1281 18.1288 60.0136 18.0011L55.5434 13.0118C55.4297 12.8849 55.429 12.6929 55.5419 12.5652L56.2625 11.7499C56.3853 11.6108 56.5976 11.5977 56.7366 11.7206C56.7461 11.729 56.7551 11.7378 56.7635 11.7472L62.4095 18.0011C62.5247 18.1287 62.525 18.3226 62.4103 18.4505L56.4205 25.1296C56.3568 25.2006 56.2658 25.2412 56.1704 25.2412Z" fill="url(#paint3_linear_1775_15355)"></path><path fill-rule="evenodd" clip-rule="evenodd" d="M55.1114 21.2118C56.3593 21.2118 57.3435 19.8341 57.2268 18.3609C57.1749 17.7055 56.7697 16.5322 56.6324 16.741C56.5646 16.8441 56.7185 17.6491 56.668 18.1415C56.5843 18.9601 56.2684 19.4586 56.1071 19.1672C55.9457 18.8757 56.0011 18.3005 55.9619 17.6951C55.9195 17.0386 55.8087 16.3848 55.6711 15.9793C55.6111 15.8024 55.0463 14.2992 54.639 14.1572C54.6126 14.1572 54.596 14.1572 54.5893 14.1572C54.5761 14.1572 54.5388 14.1698 54.516 14.1897C54.4262 14.2681 54.5612 14.7841 54.1874 15.4126C53.942 15.8251 53.4638 16.363 53.2294 16.8912C52.912 17.6063 52.8553 18.3071 52.8717 18.6771C52.9429 20.2914 53.8635 21.2118 55.1114 21.2118Z" fill="url(#paint4_linear_1775_15355)"></path><path d="M27.6566 52.4761V39.2281H30.4863V50.3105H36.2004V52.4761H27.6566ZM37.1649 47.8811V47.59C37.1649 46.1281 37.6077 44.9543 38.4934 44.0687C39.3851 43.177 40.5285 42.7311 41.9237 42.7311C43.3188 42.7311 44.4137 43.1497 45.2084 43.9868C46.003 44.8178 46.4003 45.9673 46.4003 47.4353V48.3907H38.9847V46.7256H43.6888V46.5345C43.6888 46.0189 43.5342 45.5852 43.2248 45.2333C42.9215 44.8815 42.4848 44.7056 41.9146 44.7056C41.2534 44.7056 40.7529 44.9513 40.4132 45.4426C40.0735 45.9279 39.9037 46.5891 39.9037 47.4262V48.0085C39.9037 48.8456 40.0857 49.5098 40.4496 50.0012C40.8197 50.4864 41.3656 50.7291 42.0874 50.7291C42.5848 50.7291 43.0155 50.6078 43.3795 50.3651C43.7434 50.1164 44.0376 49.8313 44.2621 49.5098L46.2365 50.6927C45.9332 51.2932 45.4237 51.7876 44.7079 52.1758C43.9921 52.558 43.1338 52.749 42.1329 52.749C40.5861 52.749 39.3699 52.3062 38.4843 51.4206C37.6047 50.5289 37.1649 49.3491 37.1649 47.8811ZM47.5741 49.6918C47.5741 48.6485 47.9775 47.8599 48.7842 47.3261C49.5971 46.7923 50.6222 46.5254 51.8597 46.5254H53.7522V45.9886C53.7522 45.5639 53.643 45.2212 53.4247 44.9604C53.2063 44.6995 52.8241 44.5691 52.2782 44.5691C51.7323 44.5691 51.3441 44.6783 51.1135 44.8967C50.883 45.109 50.7678 45.3759 50.7678 45.6974V45.843H48.0836V45.6883C48.0836 44.833 48.4809 44.1293 49.2756 43.5773C50.0763 43.0193 51.1166 42.7402 52.3965 42.7402C53.6885 42.7402 54.6925 43.0071 55.4082 43.5409C56.1301 44.0687 56.491 44.8906 56.491 46.0068V50.3469C56.491 50.7291 56.5244 51.0961 56.5911 51.4479C56.6639 51.7937 56.7609 52.0879 56.8823 52.3305V52.4761H54.1799C54.1071 52.3366 54.0404 52.1546 53.9797 51.9301C53.9251 51.7057 53.8887 51.4843 53.8705 51.2659C53.6825 51.6238 53.3276 51.9453 52.8059 52.2304C52.2843 52.5094 51.6322 52.649 50.8497 52.649C49.9155 52.649 49.1361 52.4033 48.5113 51.9119C47.8865 51.4206 47.5741 50.6806 47.5741 49.6918ZM50.3219 49.4552C50.3219 49.8677 50.4402 50.2013 50.6768 50.4561C50.9194 50.7048 51.2986 50.8292 51.8142 50.8292C52.3662 50.8292 52.8272 50.6533 53.1972 50.3014C53.5672 49.9435 53.7522 49.522 53.7522 49.0367V48.1541H52.3055C51.6322 48.1541 51.1317 48.2663 50.8042 48.4908C50.4827 48.7091 50.3219 49.0306 50.3219 49.4552ZM58.3108 47.8902V47.5991C58.3108 46.1857 58.6899 45.0392 59.4482 44.1597C60.2125 43.274 61.2042 42.8312 62.4235 42.8312C63.024 42.8312 63.5427 42.9374 63.9794 43.1497C64.4222 43.362 64.7649 43.641 65.0076 43.9868V38.6184H67.7373V52.4761H65.1259L65.0713 51.3569H65.0349C64.8286 51.733 64.492 52.0454 64.0249 52.2941C63.5639 52.5367 63.0301 52.6581 62.4235 52.6581C61.1496 52.6581 60.1457 52.2152 59.4118 51.3296C58.6778 50.444 58.3108 49.2975 58.3108 47.8902ZM61.1133 47.9994C61.1133 48.7759 61.2801 49.4067 61.6137 49.892C61.9534 50.3712 62.4538 50.6108 63.115 50.6108C63.576 50.6108 63.9642 50.4864 64.2797 50.2377C64.6012 49.989 64.8377 49.6918 64.9894 49.346V46.1341C64.8438 45.7823 64.6163 45.4851 64.307 45.2424C63.9976 44.9937 63.6033 44.8694 63.1241 44.8694C62.4629 44.8694 61.9625 45.112 61.6228 45.5973C61.2831 46.0826 61.1133 46.7104 61.1133 47.4808V47.9994ZM69.5024 47.8811V47.59C69.5024 46.1281 69.9453 44.9543 70.8309 44.0687C71.7226 43.177 72.866 42.7311 74.2612 42.7311C75.6563 42.7311 76.7512 43.1497 77.5459 43.9868C78.3405 44.8178 78.7378 45.9673 78.7378 47.4353V48.3907H71.3222V46.7256H76.0264V46.5345C76.0264 46.0189 75.8717 45.5852 75.5623 45.2333C75.259 44.8815 74.8223 44.7056 74.2521 44.7056C73.5909 44.7056 73.0904 44.9513 72.7508 45.4426C72.4111 45.9279 72.2412 46.5891 72.2412 47.4262V48.0085C72.2412 48.8456 72.4232 49.5098 72.7871 50.0012C73.1572 50.4864 73.7031 50.7291 74.425 50.7291C74.9224 50.7291 75.353 50.6078 75.717 50.3651C76.081 50.1164 76.3752 49.8313 76.5996 49.5098L78.5741 50.6927C78.2708 51.2932 77.7612 51.7876 77.0454 52.1758C76.3297 52.558 75.4713 52.749 74.4704 52.749C72.9236 52.749 71.7074 52.3062 70.8218 51.4206C69.9422 50.5289 69.5024 49.3491 69.5024 47.8811ZM80.3847 52.4761V43.0132H83.0234L83.078 44.0687H83.1235C83.3176 43.7108 83.5845 43.4045 83.9242 43.1497C84.27 42.8889 84.6582 42.7584 85.0889 42.7584C85.2163 42.7584 85.3467 42.7736 85.4801 42.8039C85.6136 42.8343 85.7076 42.8616 85.7622 42.8858V45.2151C85.653 45.1848 85.5347 45.1636 85.4073 45.1515C85.286 45.1333 85.1526 45.1242 85.007 45.1242C84.5945 45.1242 84.2214 45.2485 83.8878 45.4972C83.5542 45.7398 83.3085 46.0522 83.1508 46.4344V52.4761H80.3847Z" fill="url(#paint5_linear_1775_15355)"></path><path d="M45.1145 98.4172V90.7261H50.2543V91.7826H46.4933V94.1544H49.763V95.2055H46.4933V98.4172H45.1145ZM49.6204 98.4172L52.5099 90.6838H53.9414L56.8467 98.4172H55.3782L53.3815 92.8338C53.3357 92.7105 53.297 92.5908 53.2653 92.4746C53.2336 92.3583 53.2036 92.2404 53.1755 92.1206H53.1279C53.1033 92.2404 53.0733 92.3583 53.0381 92.4746C53.0064 92.5908 52.9677 92.7105 52.9219 92.8338L50.9199 98.4172H49.6204ZM51.0308 96.5842L51.3953 95.5331L54.9873 95.5383L55.3518 96.5895L51.0308 96.5842ZM57.6761 98.4172V90.7261H59.0548V97.3608H62.6943V98.4172H57.6761ZM63.7402 98.4172V90.7261H65.1189V97.3608H68.7585V98.4172H63.7402ZM44.5863 111.417V110.509L47.4335 107.556C47.7645 107.211 48.0181 106.899 48.1942 106.621C48.3703 106.343 48.4583 106.049 48.4583 105.739C48.4583 105.425 48.3544 105.163 48.1466 104.952C47.9424 104.74 47.6536 104.635 47.2803 104.635C46.9 104.635 46.5883 104.756 46.3453 104.999C46.1024 105.242 45.9773 105.589 45.9703 106.04V106.124H44.5757V106.029C44.5757 105.304 44.8293 104.712 45.3364 104.254C45.8435 103.797 46.4915 103.568 47.2803 103.568C48.0832 103.568 48.7119 103.774 49.1661 104.186C49.6239 104.594 49.8546 105.092 49.8581 105.681C49.8581 106.177 49.7225 106.624 49.4514 107.022C49.1802 107.42 48.8386 107.829 48.4266 108.248L46.3876 110.318H50.0483V111.417H44.5863ZM50.8142 108.808V106.336C50.8142 105.508 51.0449 104.841 51.5062 104.334C51.9676 103.823 52.6261 103.568 53.4818 103.568C54.327 103.568 54.982 103.821 55.4469 104.328C55.9153 104.835 56.1495 105.504 56.1495 106.336V108.808C56.1495 109.639 55.9153 110.308 55.4469 110.815C54.982 111.322 54.327 111.576 53.4818 111.576C52.6261 111.576 51.9676 111.322 51.5062 110.815C51.0449 110.308 50.8142 109.639 50.8142 108.808ZM52.2299 108.892C52.2299 109.364 52.3268 109.752 52.5205 110.054C52.7177 110.357 53.0381 110.509 53.4818 110.509C53.922 110.509 54.2408 110.357 54.438 110.054C54.6352 109.752 54.7338 109.364 54.7338 108.892V106.251C54.7338 105.779 54.6352 105.392 54.438 105.089C54.2408 104.786 53.922 104.635 53.4818 104.635C53.0381 104.635 52.7177 104.786 52.5205 105.089C52.3268 105.392 52.2299 105.779 52.2299 106.251V108.892ZM57.0105 111.417V110.509L59.8577 107.556C60.1887 107.211 60.4423 106.899 60.6184 106.621C60.7944 106.343 60.8825 106.049 60.8825 105.739C60.8825 105.425 60.7786 105.163 60.5708 104.952C60.3666 104.74 60.0778 104.635 59.7045 104.635C59.3242 104.635 59.0125 104.756 58.7695 104.999C58.5265 105.242 58.4015 105.589 58.3945 106.04V106.124H56.9999V106.029C56.9999 105.304 57.2535 104.712 57.7606 104.254C58.2677 103.797 58.9157 103.568 59.7045 103.568C60.5074 103.568 61.136 103.774 61.5903 104.186C62.0481 104.594 62.2788 105.092 62.2823 105.681C62.2823 106.177 62.1467 106.624 61.8756 107.022C61.6044 107.42 61.2628 107.829 60.8508 108.248L58.8118 110.318H62.4725V111.417H57.0105ZM63.2226 111.417V110.509L66.0698 107.556C66.4008 107.211 66.6544 106.899 66.8304 106.621C67.0065 106.343 67.0946 106.049 67.0946 105.739C67.0946 105.425 66.9907 105.163 66.7829 104.952C66.5786 104.74 66.2899 104.635 65.9166 104.635C65.5363 104.635 65.2246 104.756 64.9816 104.999C64.7386 105.242 64.6136 105.589 64.6066 106.04V106.124H63.212V106.029C63.212 105.304 63.4656 104.712 63.9727 104.254C64.4798 103.797 65.1277 103.568 65.9166 103.568C66.7195 103.568 67.3481 103.774 67.8024 104.186C68.2602 104.594 68.4909 105.092 68.4944 105.681C68.4944 106.177 68.3588 106.624 68.0876 107.022C67.8165 107.42 67.4749 107.829 67.0629 108.248L65.0239 110.318H68.6846V111.417H63.2226Z" fill="url(#paint6_linear_1775_15355)"></path><g filter="url(#filter2_i_1775_15355)"><path d="M103.785 80.9374L106.055 80.7109L103.785 83.9761V80.9374Z" fill="url(#paint7_linear_1775_15355)"></path></g><g filter="url(#filter3_i_1775_15355)"><path d="M3.83008 80.7437L6.54758 80.9372V83.7421L3.83008 80.7437Z" fill="url(#paint8_linear_1775_15355)"></path></g><path d="M4.14062 63.7603C4.14062 63.0412 4.14062 62.6816 4.32792 62.4322C4.38091 62.3616 4.44364 62.2989 4.51422 62.2459C4.76367 62.0586 5.12321 62.0586 5.84228 62.0586H104.819C105.538 62.0586 105.898 62.0586 106.147 62.2459C106.218 62.2989 106.28 62.3616 106.333 62.4322C106.521 62.6816 106.521 63.0412 106.521 63.7603V80.3748C106.521 80.7343 106.521 80.9141 106.427 81.0388C106.4 81.0741 106.369 81.1055 106.334 81.132C106.209 81.2256 106.029 81.2256 105.67 81.2256H4.99145C4.63192 81.2256 4.45215 81.2256 4.32742 81.132C4.29213 81.1055 4.26077 81.0741 4.23427 81.0388C4.14062 80.9141 4.14062 80.7343 4.14062 80.3748V63.7603Z" fill="url(#paint9_linear_1775_15355)"></path><path d="M21.9262 75.4869C21.4285 75.4869 20.9886 75.4003 20.6063 75.2272C20.2313 75.0541 19.9356 74.8125 19.7192 74.5024C19.5029 74.1923 19.3875 73.8461 19.373 73.4638H20.1736C20.2097 73.8317 20.3719 74.1562 20.6604 74.4375C20.9489 74.7115 21.3708 74.8486 21.9262 74.8486C22.4382 74.8486 22.8421 74.7188 23.1378 74.4591C23.4407 74.1923 23.5922 73.8569 23.5922 73.453C23.5922 73.1285 23.5092 72.8688 23.3434 72.6741C23.1775 72.4722 22.9719 72.3243 22.7267 72.2305C22.4815 72.1296 22.1425 72.0214 21.7098 71.906C21.2049 71.769 20.8047 71.6355 20.509 71.5057C20.2133 71.3759 19.9608 71.174 19.7517 70.8999C19.5425 70.6258 19.4379 70.2544 19.4379 69.7856C19.4379 69.3961 19.5389 69.05 19.7409 68.747C19.9428 68.4369 20.2277 68.1953 20.5955 68.0222C20.9633 67.8491 21.3852 67.7626 21.8613 67.7626C22.5608 67.7626 23.1234 67.9357 23.5489 68.2819C23.9816 68.6208 24.2305 69.0608 24.2954 69.6017H23.4732C23.4227 69.2916 23.2532 69.0175 22.9647 68.7795C22.6762 68.5343 22.2868 68.4117 21.7963 68.4117C21.342 68.4117 20.9633 68.5343 20.6604 68.7795C20.3575 69.0175 20.206 69.3457 20.206 69.764C20.206 70.0813 20.289 70.3373 20.4549 70.5321C20.6208 70.7268 20.8263 70.8746 21.0715 70.9756C21.3239 71.0766 21.6629 71.1848 22.0884 71.3002C22.5789 71.4372 22.9755 71.5742 23.2785 71.7113C23.5814 71.8411 23.8374 72.043 24.0466 72.3171C24.2557 72.5912 24.3603 72.959 24.3603 73.4206C24.3603 73.774 24.2665 74.1093 24.079 74.4267C23.8915 74.744 23.6138 75 23.246 75.1948C22.8782 75.3895 22.4382 75.4869 21.9262 75.4869ZM28.7879 75.4869C28.0883 75.4869 27.4536 75.3246 26.8838 75C26.3141 74.6683 25.8633 74.2103 25.5315 73.6261C25.207 73.0347 25.0447 72.3676 25.0447 71.6247C25.0447 70.8819 25.207 70.2183 25.5315 69.6341C25.8633 69.0427 26.3141 68.5848 26.8838 68.2602C27.4536 67.9285 28.0883 67.7626 28.7879 67.7626C29.4947 67.7626 30.1329 67.9285 30.7027 68.2602C31.2725 68.5848 31.7196 69.0427 32.0442 69.6341C32.3687 70.2183 32.531 70.8819 32.531 71.6247C32.531 72.3676 32.3687 73.0347 32.0442 73.6261C31.7196 74.2103 31.2725 74.6683 30.7027 75C30.1329 75.3246 29.4947 75.4869 28.7879 75.4869ZM28.7879 74.8269C29.3504 74.8269 29.8553 74.6971 30.3024 74.4375C30.7496 74.1778 31.103 73.8064 31.3626 73.3232C31.6223 72.8328 31.7521 72.2666 31.7521 71.6247C31.7521 70.9828 31.6223 70.4203 31.3626 69.9371C31.103 69.4538 30.7496 69.0824 30.3024 68.8228C29.8553 68.5631 29.3504 68.4333 28.7879 68.4333C28.2253 68.4333 27.7204 68.5631 27.2733 68.8228C26.8261 69.0824 26.4727 69.4538 26.2131 69.9371C25.9535 70.4203 25.8236 70.9828 25.8236 71.6247C25.8236 72.2666 25.9535 72.8328 26.2131 73.3232C26.4727 73.8064 26.8261 74.1778 27.2733 74.4375C27.7204 74.6971 28.2253 74.8269 28.7879 74.8269ZM34.2088 67.8491V72.6092C34.2088 73.3593 34.3855 73.9146 34.7389 74.2752C35.0995 74.6358 35.5899 74.8161 36.2102 74.8161C36.8304 74.8161 37.3136 74.6394 37.6598 74.286C38.0132 73.9254 38.1899 73.3665 38.1899 72.6092V67.8491H38.9472V72.5984C38.9472 73.5576 38.6912 74.2788 38.1791 74.762C37.6742 75.2453 37.0143 75.4869 36.1993 75.4869C35.3844 75.4869 34.7208 75.2453 34.2088 74.762C33.7039 74.2788 33.4515 73.5576 33.4515 72.5984V67.8491H34.2088ZM44.228 75.4111L42.3564 72.2522H40.9608V75.4111H40.2036V67.8491H42.4754C43.3192 67.8491 43.9575 68.0511 44.3902 68.4549C44.8302 68.8588 45.0502 69.3889 45.0502 70.0452C45.0502 70.5934 44.8915 71.0622 44.5742 71.4516C44.264 71.8339 43.8025 72.0827 43.1894 72.1981L45.1367 75.4111H44.228ZM40.9608 71.6355H42.4862C43.0776 71.6355 43.5212 71.4913 43.8169 71.2028C44.1198 70.9143 44.2712 70.5285 44.2712 70.0452C44.2712 69.5476 44.127 69.1654 43.8385 68.8985C43.55 68.6244 43.0957 68.4874 42.4754 68.4874H40.9608V71.6355ZM45.7741 71.6247C45.7741 70.8819 45.9363 70.2183 46.2609 69.6341C46.5854 69.0427 47.029 68.5848 47.5915 68.2602C48.1541 67.9285 48.7816 67.7626 49.4739 67.7626C50.3178 67.7626 51.039 67.9645 51.6376 68.3684C52.2434 68.7651 52.6834 69.3276 52.9574 70.0561H52.0703C51.854 69.544 51.5222 69.1437 51.075 68.8552C50.6351 68.5667 50.1014 68.4225 49.4739 68.4225C48.9186 68.4225 48.4173 68.5523 47.9702 68.812C47.5302 69.0716 47.1841 69.4466 46.9316 69.9371C46.6792 70.4203 46.553 70.9828 46.553 71.6247C46.553 72.2666 46.6792 72.8292 46.9316 73.3124C47.1841 73.7956 47.5302 74.167 47.9702 74.4267C48.4173 74.6863 48.9186 74.8161 49.4739 74.8161C50.1014 74.8161 50.6351 74.6755 51.075 74.3942C51.5222 74.1057 51.854 73.709 52.0703 73.2042H52.9574C52.6834 73.9254 52.2434 74.4844 51.6376 74.881C51.0318 75.2777 50.3106 75.476 49.4739 75.476C48.7816 75.476 48.1541 75.3138 47.5915 74.9892C47.029 74.6575 46.5854 74.1995 46.2609 73.6153C45.9363 73.0311 45.7741 72.3676 45.7741 71.6247ZM54.791 68.4658V71.2894H57.6578V71.9168H54.791V74.7837H57.9824V75.4111H54.0337V67.8383H57.9824V68.4658H54.791ZM64.8296 67.8599V69.0824H61.6815V71.0189H64.094V72.2197H61.6815V75.4111H60.1669V67.8599H64.8296ZM68.976 75.4869C68.2692 75.4869 67.6201 75.321 67.0287 74.9892C66.4373 74.6575 65.9685 74.1995 65.6223 73.6153C65.2761 73.0239 65.103 72.3568 65.103 71.6139C65.103 70.8783 65.2761 70.2183 65.6223 69.6341C65.9685 69.0427 66.4373 68.5812 67.0287 68.2494C67.6201 67.9176 68.2692 67.7518 68.976 67.7518C69.69 67.7518 70.3391 67.9176 70.9233 68.2494C71.5147 68.5812 71.9799 69.0427 72.3189 69.6341C72.665 70.2183 72.8381 70.8783 72.8381 71.6139C72.8381 72.3568 72.665 73.0239 72.3189 73.6153C71.9799 74.1995 71.5147 74.6575 70.9233 74.9892C70.3319 75.321 69.6828 75.4869 68.976 75.4869ZM68.976 74.1346C69.4304 74.1346 69.8306 74.0336 70.1768 73.8317C70.523 73.6225 70.7935 73.3268 70.9882 72.9446C71.1829 72.5623 71.2803 72.1188 71.2803 71.6139C71.2803 71.109 71.1829 70.6691 70.9882 70.2941C70.7935 69.9118 70.523 69.6197 70.1768 69.4178C69.8306 69.2158 69.4304 69.1149 68.976 69.1149C68.5216 69.1149 68.1177 69.2158 67.7643 69.4178C67.4182 69.6197 67.1477 69.9118 66.953 70.2941C66.7582 70.6691 66.6609 71.109 66.6609 71.6139C66.6609 72.1188 66.7582 72.5623 66.953 72.9446C67.1477 73.3268 67.4182 73.6225 67.7643 73.8317C68.1177 74.0336 68.5216 74.1346 68.976 74.1346ZM77.4268 75.4111L75.7608 72.4685H75.0468V75.4111H73.5322V67.8599H76.3666C76.9508 67.8599 77.4484 67.9645 77.8595 68.1737C78.2706 68.3756 78.5772 68.6533 78.7791 69.0067C78.9882 69.3529 79.0928 69.7423 79.0928 70.1751C79.0928 70.6727 78.9486 71.1235 78.6601 71.5274C78.3716 71.924 77.9425 72.1981 77.3727 72.3495L79.1794 75.4111H77.4268ZM75.0468 71.3326H76.3125C76.7236 71.3326 77.0301 71.2353 77.2321 71.0405C77.434 70.8386 77.535 70.5609 77.535 70.2075C77.535 69.8613 77.434 69.5945 77.2321 69.407C77.0301 69.2122 76.7236 69.1149 76.3125 69.1149H75.0468V71.3326ZM85.2877 70.1318C85.1146 69.8145 84.8766 69.5728 84.5737 69.407C84.2707 69.2411 83.9173 69.1581 83.5135 69.1581C83.0663 69.1581 82.6696 69.2591 82.3234 69.4611C81.9773 69.663 81.7068 69.9515 81.5121 70.3265C81.3173 70.7016 81.22 71.1343 81.22 71.6247C81.22 72.1296 81.3173 72.5695 81.5121 72.9446C81.714 73.3196 81.9917 73.6081 82.3451 73.81C82.6985 74.012 83.1096 74.1129 83.5784 74.1129C84.1554 74.1129 84.6278 73.9615 84.9956 73.6586C85.3634 73.3484 85.605 72.9193 85.7204 72.3712H83.124V71.2136H87.2133V72.5335C87.1124 73.0599 86.896 73.5468 86.5642 73.9939C86.2325 74.4411 85.8033 74.8017 85.2769 75.0758C84.7576 75.3426 84.1734 75.476 83.5243 75.476C82.7958 75.476 82.1359 75.3138 81.5445 74.9892C80.9603 74.6575 80.4988 74.1995 80.1598 73.6153C79.828 73.0311 79.6621 72.3676 79.6621 71.6247C79.6621 70.8819 79.828 70.2183 80.1598 69.6341C80.4988 69.0427 80.9603 68.5848 81.5445 68.2602C82.1359 67.9285 82.7922 67.7626 83.5135 67.7626C84.3645 67.7626 85.1038 67.9717 85.7312 68.39C86.3587 68.8011 86.7914 69.3817 87.0294 70.1318H85.2877ZM89.4157 69.0824V70.9756H91.958V72.1765H89.4157V74.1778H92.2826V75.4111H87.9011V67.8491H92.2826V69.0824H89.4157Z" fill="white"></path></g><defs><filter id="filter0_f_1775_15355" x="-12.6177" y="-6.48241" width="136.04" height="139.312" color-interpolation-filters="sRGB"><feGaussianBlur stdDeviation="14.0247"></feGaussianBlur></filter><filter id="filter1_d_1775_15355" x="36.933" y="-0.754922" width="36.4641" height="41.4885" color-interpolation-filters="sRGB"><feGaussianBlur stdDeviation="3.50616"></feGaussianBlur></filter><filter id="filter2_i_1775_15355" x="103.785" y="80.7109" width="2.26953" height="5.13509" color-interpolation-filters="sRGB"><feGaussianBlur stdDeviation="0.934977"></feGaussianBlur></filter><filter id="filter3_i_1775_15355" x="3.83008" y="80.7437" width="2.7168" height="4.401" color-interpolation-filters="sRGB"><feGaussianBlur stdDeviation="0.934977"></feGaussianBlur></filter><linearGradient id="paint0_linear_1775_15355" x1="-18.3394" y1="-18.3872" x2="116.906" y2="171.652" gradientUnits="userSpaceOnUse"><stop stop-color="#237611"></stop><stop offset="0.443396" stop-color="#56AB45"></stop><stop offset="1" stop-color="#154B09"></stop></linearGradient><linearGradient id="paint1_linear_1775_15355" x1="61.6929" y1="-5.72622" x2="61.8969" y2="49.3524" gradientUnits="userSpaceOnUse"><stop stop-color="#18181A"></stop><stop offset="0.576403" stop-color="#345E25" stop-opacity="0.3"></stop></linearGradient><linearGradient id="paint2_linear_1775_15355" x1="48.0666" y1="13.1679" x2="54.5191" y2="22.0757" gradientUnits="userSpaceOnUse"><stop stop-color="#B7501F"></stop><stop offset="0.543267" stop-color="#F08856"></stop><stop offset="1" stop-color="#BE5522"></stop></linearGradient><linearGradient id="paint3_linear_1775_15355" x1="62.0444" y1="22.8119" x2="55.3835" y2="13.8342" gradientUnits="userSpaceOnUse"><stop stop-color="#B7501F"></stop><stop offset="0.543267" stop-color="#F08856"></stop><stop offset="1" stop-color="#BE5522"></stop></linearGradient><linearGradient id="paint4_linear_1775_15355" x1="53.1073" y1="15.4169" x2="56.5441" y2="20.1272" gradientUnits="userSpaceOnUse"><stop stop-color="#B7501F"></stop><stop offset="0.543267" stop-color="#F08856"></stop><stop offset="1" stop-color="#BE5522"></stop></linearGradient><linearGradient id="paint5_linear_1775_15355" x1="-27.7486" y1="6.50777" x2="-22.8969" y2="88.2372" gradientUnits="userSpaceOnUse"><stop stop-color="#237611"></stop><stop offset="0.543267" stop-color="white"></stop><stop offset="1" stop-color="#154B09"></stop></linearGradient><linearGradient id="paint6_linear_1775_15355" x1="27.7533" y1="53.7537" x2="50.4797" y2="150.751" gradientUnits="userSpaceOnUse"><stop offset="0.0564825" stop-color="#237611"></stop><stop offset="0.515533" stop-color="white"></stop><stop offset="1" stop-color="#154B09"></stop></linearGradient><linearGradient id="paint7_linear_1775_15355" x1="106.164" y1="84.4738" x2="104.632" y2="79.5242" gradientUnits="userSpaceOnUse"><stop stop-color="#4FA83D"></stop><stop offset="1" stop-color="#247314"></stop></linearGradient><linearGradient id="paint8_linear_1775_15355" x1="6.67787" y1="84.1992" x2="5.55877" y2="79.4842" gradientUnits="userSpaceOnUse"><stop stop-color="#4FA83D"></stop><stop offset="1" stop-color="#247314"></stop></linearGradient><linearGradient id="paint9_linear_1775_15355" x1="111.429" y1="84.1474" x2="110.149" y2="52.3616" gradientUnits="userSpaceOnUse"><stop stop-color="#4FA83D"></stop><stop offset="1" stop-color="#247314"></stop></linearGradient><clipPath id="clip0_1775_15355"><rect width="110.327" height="130.897" fill="white" transform="translate(0.00195312 0.529297)"></rect></clipPath></defs></svg>