<svg xmlns="http://www.w3.org/2000/svg" width="172" height="204" viewBox="0 0 172 204" fill="none"><g clip-path="url(#clip0_1775_15429)"><path d="M161.452 165.36V14.1737L87.5049 0.375004C86.1767 0.127161 84.814 0.128348 83.4863 0.378504L10.2656 14.1737V165.36L84.3833 201.897C86.4538 202.917 88.886 202.894 90.9364 201.833L161.452 165.36Z" fill="url(#paint0_linear_1775_15429)"></path><path d="M156.727 161.966V18.8984L87.6517 6.17853C86.3463 5.93816 85.0081 5.93816 83.7027 6.17853L14.627 18.8984V162.089L84.4475 195.436C86.4832 196.408 88.855 196.38 90.8672 195.36L156.727 161.966Z" fill="#1C211A"></path><g opacity="0.2" filter="url(#filter0_f_1775_15429)"><ellipse cx="86.2224" cy="97.3989" rx="62.1462" ry="64.6902" fill="#59A52C"></ellipse></g><g filter="url(#filter1_d_1775_15429)"><path d="M83.7372 6.17728L68.4141 8.98875V38.7333L85.712 48.6995L103.303 38.7333V9.06629L87.6864 6.17986C86.3811 5.93861 85.0428 5.93774 83.7372 6.17728Z" fill="url(#paint1_linear_1775_15429)"></path></g><path d="M46.1636 81.997V67.2558H51.3702V82.4921C51.3702 84.185 51.7002 85.3775 52.3604 86.0696C53.0205 86.7617 53.9202 87.1077 55.0594 87.1077C56.1774 87.1077 57.0665 86.7617 57.7266 86.0696C58.3974 85.3775 58.7328 84.185 58.7328 82.4921V67.2558H63.8754V81.997C63.8754 85.0634 63.0609 87.3207 61.4319 88.7687C59.8028 90.2061 57.6787 90.9248 55.0594 90.9248C52.4083 90.9248 50.2628 90.2061 48.6232 88.7687C46.9835 87.3207 46.1636 85.0634 46.1636 81.997ZM66.7023 85.4308L71.4137 85.4627V85.7502C71.4137 86.4955 71.6586 87.0279 72.1484 87.3473C72.6488 87.6667 73.3249 87.8264 74.1767 87.8264C75.0072 87.8264 75.6301 87.6827 76.0453 87.3952C76.4605 87.1077 76.6682 86.7031 76.6682 86.1814C76.6682 85.6597 76.4233 85.271 75.9335 85.0155C75.4544 84.7493 74.4056 84.4565 72.7872 84.1371C70.8175 83.7538 69.3801 83.1576 68.4751 82.3484C67.5807 81.5285 67.1335 80.4425 67.1335 79.0903C67.1335 77.5251 67.767 76.306 69.034 75.4329C70.3011 74.5599 72.0366 74.1233 74.2406 74.1233C76.4233 74.1233 78.1535 74.5758 79.4311 75.4808C80.7088 76.3859 81.3477 77.6422 81.3477 79.25V79.5055H76.6362V79.218C76.6362 78.5899 76.4286 78.1161 76.0134 77.7966C75.6088 77.4772 74.9965 77.3175 74.1767 77.3175C73.4101 77.3175 72.8511 77.4453 72.4997 77.7008C72.1484 77.9457 71.9727 78.2971 71.9727 78.7549C71.9727 79.1914 72.2176 79.5428 72.7074 79.809C73.1971 80.0645 74.2566 80.352 75.8856 80.6714C77.8979 81.0441 79.3673 81.6243 80.2936 82.4122C81.2199 83.1895 81.6831 84.2649 81.6831 85.6384C81.6831 87.3526 81.0495 88.6675 79.7825 89.5832C78.5155 90.4882 76.6682 90.9407 74.2406 90.9407C71.8556 90.9407 70.0083 90.4829 68.6987 89.5672C67.3997 88.6516 66.7342 87.3473 66.7023 85.6543V85.4308ZM83.6315 82.7796V82.2685C83.6315 79.809 84.3981 77.8392 85.9313 76.3592C87.4645 74.8793 89.4609 74.1393 91.9204 74.1393C94.38 74.1393 96.2912 74.842 97.654 76.2474C99.0169 77.6422 99.6983 79.5747 99.6983 82.0449V83.626H86.7139V80.7992H94.7633V80.5436C94.7633 79.7344 94.5184 79.0583 94.0286 78.5153C93.5495 77.9617 92.8414 77.6848 91.9045 77.6848C90.8397 77.6848 90.0305 78.0735 89.4769 78.8507C88.9339 79.628 88.6624 80.6341 88.6624 81.8692V82.9393C88.6624 84.3128 88.9605 85.3882 89.5567 86.1654C90.153 86.9427 91.0207 87.3313 92.16 87.3313C92.9692 87.3313 93.6613 87.145 94.2362 86.7723C94.8112 86.389 95.269 85.9312 95.6097 85.3988L99.4907 87.1396C98.9796 88.2896 98.1065 89.2159 96.8714 89.9186C95.647 90.6107 94.0978 90.9567 92.2239 90.9567C89.5301 90.9567 87.422 90.2167 85.8994 88.7367C84.3875 87.2568 83.6315 85.271 83.6315 82.7796ZM102.254 90.5095V74.6024H107.205L107.269 76.519H107.316C107.689 75.8801 108.19 75.3371 108.818 74.8899C109.446 74.4427 110.154 74.2191 110.942 74.2191C111.208 74.2191 111.464 74.2458 111.708 74.299C111.964 74.3416 112.145 74.3842 112.251 74.4268V78.4834C112.06 78.4195 111.842 78.3769 111.597 78.3556C111.352 78.3237 111.086 78.3077 110.798 78.3077C110.085 78.3077 109.414 78.526 108.786 78.9625C108.168 79.3884 107.7 79.9474 107.38 80.6395V90.5095H102.254ZM113.561 85.4308L118.273 85.4627V85.7502C118.273 86.4955 118.517 87.0279 119.007 87.3473C119.508 87.6667 120.184 87.8264 121.036 87.8264C121.866 87.8264 122.489 87.6827 122.904 87.3952C123.319 87.1077 123.527 86.7031 123.527 86.1814C123.527 85.6597 123.282 85.271 122.792 85.0155C122.313 84.7493 121.264 84.4565 119.646 84.1371C117.676 83.7538 116.239 83.1576 115.334 82.3484C114.44 81.5285 113.992 80.4425 113.992 79.0903C113.992 77.5251 114.626 76.306 115.893 75.4329C117.16 74.5599 118.895 74.1233 121.099 74.1233C123.282 74.1233 125.012 74.5758 126.29 75.4808C127.568 76.3859 128.206 77.6422 128.206 79.25V79.5055H123.495V79.218C123.495 78.5899 123.287 78.1161 122.872 77.7966C122.468 77.4772 121.855 77.3175 121.036 77.3175C120.269 77.3175 119.71 77.4453 119.359 77.7008C119.007 77.9457 118.832 78.2971 118.832 78.7549C118.832 79.1914 119.076 79.5428 119.566 79.809C120.056 80.0645 121.115 80.352 122.744 80.6714C124.757 81.0441 126.226 81.6243 127.152 82.4122C128.079 83.1895 128.542 84.2649 128.542 85.6384C128.542 87.3526 127.908 88.6675 126.641 89.5832C125.374 90.4882 123.527 90.9407 121.099 90.9407C118.714 90.9407 116.867 90.4829 115.557 89.5672C114.259 88.6516 113.593 87.3473 113.561 85.6543V85.4308ZM30.8475 123.51V100.256H36.07V119.453H45.5887V123.51H30.8475ZM47.0101 115.796V115.269C47.0101 112.798 47.798 110.823 49.3738 109.343C50.9496 107.863 53.0152 107.123 55.5705 107.123C58.1259 107.123 60.1861 107.863 61.7513 109.343C63.3271 110.823 64.115 112.798 64.115 115.269V115.796C64.115 118.276 63.3271 120.257 61.7513 121.737C60.1861 123.206 58.1259 123.941 55.5705 123.941C53.0045 123.941 50.9336 123.206 49.3578 121.737C47.7927 120.257 47.0101 118.276 47.0101 115.796ZM52.1527 115.045V116.003C52.1527 117.355 52.4455 118.404 53.0311 119.149C53.6167 119.895 54.4579 120.267 55.5546 120.267C56.6619 120.267 57.5083 119.895 58.0939 119.149C58.6795 118.404 58.9723 117.355 58.9723 116.003V115.045C58.9723 113.714 58.6742 112.681 58.078 111.947C57.4817 111.201 56.6406 110.829 55.5546 110.829C54.4792 110.829 53.6434 111.201 53.0471 111.947C52.4509 112.681 52.1527 113.714 52.1527 115.045ZM64.5302 107.602H69.5451L72.7074 116.626C72.8245 116.967 72.9203 117.286 72.9948 117.584C73.0694 117.882 73.1279 118.154 73.1705 118.399H73.2504C73.293 118.154 73.3515 117.882 73.4261 117.584C73.5112 117.286 73.6071 116.967 73.7135 116.626L76.9237 107.602H81.4595L75.3745 123.51H70.6631L64.5302 107.602ZM81.9226 115.78V115.269C81.9226 112.809 82.6892 110.839 84.2224 109.359C85.7556 107.879 87.752 107.139 90.2115 107.139C92.6711 107.139 94.5823 107.842 95.9451 109.247C97.308 110.642 97.9894 112.575 97.9894 115.045V116.626H85.005V113.799H93.0544V113.544C93.0544 112.734 92.8095 112.058 92.3197 111.515C91.8406 110.962 91.1325 110.685 90.1956 110.685C89.1308 110.685 88.3216 111.073 87.768 111.851C87.225 112.628 86.9535 113.634 86.9535 114.869V115.939C86.9535 117.313 87.2516 118.388 87.8478 119.165C88.4441 119.943 89.3118 120.331 90.4511 120.331C91.2603 120.331 91.9524 120.145 92.5273 119.772C93.1023 119.389 93.5601 118.931 93.9008 118.399L97.7818 120.14C97.2707 121.29 96.3976 122.216 95.1625 122.919C93.9381 123.611 92.3889 123.957 90.515 123.957C87.8212 123.957 85.7131 123.217 84.1905 121.737C82.6786 120.257 81.9226 118.271 81.9226 115.78ZM108.498 114.997V100.256H113.705V115.492C113.705 117.185 114.035 118.378 114.695 119.07C115.355 119.762 116.255 120.108 117.394 120.108C118.512 120.108 119.401 119.762 120.061 119.07C120.732 118.378 121.067 117.185 121.067 115.492V100.256H126.21V114.997C126.21 118.063 125.396 120.321 123.767 121.769C122.138 123.206 120.013 123.925 117.394 123.925C114.743 123.925 112.598 123.206 110.958 121.769C109.318 120.321 108.498 118.063 108.498 114.997ZM129.037 118.431L133.748 118.463V118.75C133.748 119.495 133.993 120.028 134.483 120.347C134.983 120.667 135.66 120.826 136.511 120.826C137.342 120.826 137.965 120.683 138.38 120.395C138.795 120.108 139.003 119.703 139.003 119.181C139.003 118.66 138.758 118.271 138.268 118.016C137.789 117.749 136.74 117.457 135.122 117.137C133.152 116.754 131.715 116.158 130.81 115.348C129.915 114.529 129.468 113.442 129.468 112.09C129.468 110.525 130.102 109.306 131.369 108.433C132.636 107.56 134.371 107.123 136.575 107.123C138.758 107.123 140.488 107.576 141.766 108.481C143.043 109.386 143.682 110.642 143.682 112.25V112.506H138.971V112.218C138.971 111.59 138.763 111.116 138.348 110.797C137.943 110.477 137.331 110.318 136.511 110.318C135.745 110.318 135.186 110.445 134.834 110.701C134.483 110.946 134.307 111.297 134.307 111.755C134.307 112.191 134.552 112.543 135.042 112.809C135.532 113.065 136.591 113.352 138.22 113.671C140.233 114.044 141.702 114.624 142.628 115.412C143.555 116.189 144.018 117.265 144.018 118.638C144.018 120.353 143.384 121.668 142.117 122.583C140.85 123.488 139.003 123.941 136.575 123.941C134.19 123.941 132.343 123.483 131.033 122.567C129.734 121.652 129.069 120.347 129.037 118.654V118.431Z" fill="url(#paint2_linear_1775_15429)"></path><path d="M89.9346 31.4598C90.6995 32.7806 91.4558 34.0865 92.2115 35.3909C88.865 37.9406 83.6584 38.2488 79.8041 35.3125C75.3686 31.9309 74.6396 26.1609 77.0143 22.0074C79.7455 17.2299 84.8566 16.1734 88.1474 16.9481C88.0584 17.1405 86.0874 21.2097 86.0874 21.2097C86.0874 21.2097 85.9316 21.2199 85.8435 21.2216C84.8708 21.2626 84.1463 21.4879 83.3698 21.8874C82.5179 22.3298 81.7878 22.9731 81.2434 23.7611C80.699 24.5492 80.3568 25.4579 80.2468 26.4079C80.132 27.3713 80.2658 28.348 80.6357 29.2457C80.9485 30.0046 81.3909 30.6786 81.984 31.2476C82.8939 32.1214 83.9766 32.6624 85.2316 32.8415C86.4201 33.0112 87.5631 32.8432 88.6341 32.3075C89.0359 32.1069 89.3776 31.8854 89.7771 31.5815C89.828 31.5486 89.8732 31.5071 89.9346 31.4598Z" fill="url(#paint3_linear_1775_15429)"></path><path d="M89.9423 19.8758C89.7481 19.6857 89.5681 19.5102 89.389 19.3337C89.2821 19.2284 89.1791 19.1189 89.0697 19.0162C89.0304 18.9791 88.9844 18.9285 88.9844 18.9285C88.9844 18.9285 89.0216 18.8498 89.0375 18.8176C89.2471 18.3991 89.5755 18.0932 89.965 17.8499C90.3958 17.5787 90.8976 17.4408 91.4071 17.4534C92.0591 17.4662 92.6653 17.6277 93.1768 18.0629C93.5544 18.3841 93.748 18.7915 93.7821 19.2779C93.839 20.0985 93.4978 20.727 92.8202 21.1655C92.4222 21.4236 91.9928 21.6231 91.5624 21.8593C91.3249 21.9898 91.1219 22.1044 90.8899 22.3404C90.6858 22.5772 90.6758 22.8005 90.6758 22.8005L93.7599 22.7965V24.1635H88.9994C88.9994 24.1635 88.9994 24.0701 88.9994 24.0313C88.9812 23.3596 89.06 22.7275 89.3691 22.1174C89.6534 21.5577 90.0952 21.148 90.6261 20.8325C91.0349 20.5894 91.4654 20.3826 91.8751 20.1407C92.1279 19.9916 92.3064 19.7728 92.305 19.4556C92.305 19.1834 92.106 18.9415 91.8217 18.866C91.1512 18.686 90.4688 18.9732 90.114 19.5838C90.0623 19.6729 90.0094 19.7615 89.9423 19.8758Z" fill="url(#paint4_linear_1775_15429)"></path><path d="M95.9088 30.007L93.3098 25.5403H88.1666L85.5508 30.0531H90.7318L93.2884 34.4987L95.9088 30.007Z" fill="url(#paint5_linear_1775_15429)"></path><path fill-rule="evenodd" clip-rule="evenodd" d="M86.2215 144.645L88.8051 150.147L94.581 151.031L90.4005 155.313L91.3888 161.362L86.2215 158.507L81.0555 161.362L82.0424 155.313L77.8633 151.031L83.6392 150.147L86.2215 144.645Z" fill="url(#paint6_linear_1775_15429)"></path><line x1="96.7617" y1="153.004" x2="142.554" y2="153.004" stroke="#4FA83D" stroke-width="0.726856"></line><line x1="29.8906" y1="153.004" x2="75.6826" y2="153.004" stroke="#4FA83D" stroke-width="0.726856"></line></g><defs><filter id="filter0_f_1775_15429" x="-19.5352" y="-10.9026" width="211.516" height="216.603" color-interpolation-filters="sRGB"><feGaussianBlur stdDeviation="21.8057"></feGaussianBlur></filter><filter id="filter1_d_1775_15429" x="57.5112" y="-1.99737" width="56.6944" height="64.5071" color-interpolation-filters="sRGB"><feGaussianBlur stdDeviation="5.45142"></feGaussianBlur></filter><linearGradient id="paint0_linear_1775_15429" x1="-28.4279" y1="-29.4123" x2="181.853" y2="266.063" gradientUnits="userSpaceOnUse"><stop stop-color="#237611"></stop><stop offset="0.443396" stop-color="#56AB45"></stop><stop offset="1" stop-color="#154B09"></stop></linearGradient><linearGradient id="paint1_linear_1775_15429" x1="96.0082" y1="-9.72657" x2="96.3254" y2="75.9103" gradientUnits="userSpaceOnUse"><stop stop-color="#18181A"></stop><stop offset="0.576403" stop-color="#345E25" stop-opacity="0.3"></stop></linearGradient><linearGradient id="paint2_linear_1775_15429" x1="-38.7353" y1="18.7677" x2="9.3305" y2="230.606" gradientUnits="userSpaceOnUse"><stop stop-color="#237611"></stop><stop offset="0.543267" stop-color="white"></stop><stop offset="1" stop-color="#154B09"></stop></linearGradient><linearGradient id="paint3_linear_1775_15429" x1="66.1945" y1="3.00399" x2="94.2471" y2="58.7117" gradientUnits="userSpaceOnUse"><stop offset="0.298998" stop-color="#D23C24"></stop><stop offset="0.494461" stop-color="#E97462"></stop><stop offset="0.662382" stop-color="#CB351D"></stop></linearGradient><linearGradient id="paint4_linear_1775_15429" x1="86.2264" y1="13.005" x2="95.8987" y2="30.2186" gradientUnits="userSpaceOnUse"><stop offset="0.298998" stop-color="#D23C24"></stop><stop offset="0.494461" stop-color="#E97462"></stop><stop offset="0.662382" stop-color="#CB351D"></stop></linearGradient><linearGradient id="paint5_linear_1775_15429" x1="79.604" y1="19.6031" x2="88.9862" y2="46.573" gradientUnits="userSpaceOnUse"><stop offset="0.298998" stop-color="#D23C24"></stop><stop offset="0.494461" stop-color="#E97462"></stop><stop offset="0.662382" stop-color="#CB351D"></stop></linearGradient><linearGradient id="paint6_linear_1775_15429" x1="75.3734" y1="144.645" x2="87.7973" y2="167.918" gradientUnits="userSpaceOnUse"><stop offset="0.0564825" stop-color="#237611"></stop><stop offset="0.543267" stop-color="#449933"></stop><stop offset="1" stop-color="#154B09"></stop></linearGradient><clipPath id="clip0_1775_15429"><rect width="171.538" height="203.52" fill="white" transform="translate(0.0898438)"></rect></clipPath></defs></svg>