<svg xmlns="http://www.w3.org/2000/svg" width="76.816" height="76.815" viewBox="0 0 76.816 76.815"><g id="Group_6102" data-name="Group 6102" transform="translate(-1463 -4462)"><g id="Group_6055" data-name="Group 6055" transform="translate(-257.125 2257.125)"><path id="Icon_ionic-ios-checkmark-circle" data-name="Icon ionic-ios-checkmark-circle" d="M41.783,3.375A38.408,38.408,0,1,0,80.191,41.783,38.4,38.4,0,0,0,41.783,3.375Zm19.666,27.79L36.76,55.964h-.018A3.335,3.335,0,0,1,34.6,56.98a3.233,3.233,0,0,1-2.16-1.053L22.1,45.587a.736.736,0,0,1,0-1.053l3.287-3.287a.714.714,0,0,1,1.034,0l8.2,8.2L57.146,26.752a.729.729,0,0,1,.517-.222h0a.671.671,0,0,1,.517.222l3.231,3.342A.728.728,0,0,1,61.448,31.165Z" transform="translate(1716.75 2201.5)" fill="#4fa83d"></path><circle id="Ellipse_1458" data-name="Ellipse 1458" cx="27.14" cy="27.14" r="27.14" transform="translate(1733.483 2213.568)" fill="#4fa83d"></circle></g><g id="Group_6052" data-name="Group 6052" transform="translate(2120.326 4461.891)"><path id="Path_46205" data-name="Path 46205" d="M-625.175,315.5h-10.831c-.943,0-1.2-.248-1.159-1.193.2-4.971,2.178-9.005,6.39-11.776a13.635,13.635,0,0,1,15.121.266.612.612,0,0,0,.763.031c1.941-1.08,3.9-2.135,5.838-3.213a1.053,1.053,0,0,1,1.107,0q3.349,1.8,6.709,3.579a.871.871,0,0,1,.545.794c-.01,1.9.1,3.8-.075,5.686a10.194,10.194,0,0,1-6.221,8.712c-.094.045-.19.088-.286.129-1.5.637-1.044.624-2.553-.034a10.623,10.623,0,0,1-3.781-2.8.787.787,0,0,0-.538-.2q-5.514-.017-11.028-.009Zm10.316-1.658c-.076-.16-.114-.24-.153-.32a9.7,9.7,0,0,1-1.07-4.024c-.048-1.569-.037-3.139-.036-4.709a.586.586,0,0,0-.28-.547,11.74,11.74,0,0,0-10.12-1.814,11.682,11.682,0,0,0-8.4,8.1,11.881,11.881,0,0,0-.595,3.315Zm12.537-7.028c0-.534.013-1.305-.011-2.076a.569.569,0,0,0-.244-.412q-2.823-1.533-5.668-3.025a.6.6,0,0,0-.487,0c-1.828.985-3.645,1.992-5.472,2.978a.5.5,0,0,0-.3.519c.013,1.334-.026,2.668.012,4a8.851,8.851,0,0,0,5.181,8.139,1.589,1.589,0,0,0,1.528.032,8.96,8.96,0,0,0,5.155-5.908A15.468,15.468,0,0,0-602.322,306.817Z" transform="translate(0 -261.034)" fill="#fff" stroke="#fff" stroke-width="0.5"></path><path id="Path_46206" data-name="Path 46206" d="M-540.6,28.835a8.578,8.578,0,0,1-8.585,8.581,8.579,8.579,0,0,1-8.578-8.549,8.568,8.568,0,0,1,8.563-8.6A8.576,8.576,0,0,1-540.6,28.835Zm-8.564-6.953a6.964,6.964,0,0,0-6.968,6.915,6.952,6.952,0,0,0,6.913,7.006,6.975,6.975,0,0,0,7-6.933A6.973,6.973,0,0,0-549.159,21.881Z" transform="translate(-74.247)" fill="#fff" stroke="#fff" stroke-width="0.5"></path><path id="Path_46207" data-name="Path 46207" d="M-249.635,414.192l3.3-2.687c.122-.1.24-.2.367-.294a.81.81,0,0,1,1.128.1.792.792,0,0,1-.105,1.152c-.728.616-1.474,1.21-2.214,1.811-.659.536-1.316,1.074-1.98,1.6a.82.82,0,0,1-1.271-.109q-.879-1-1.735-2.023a.806.806,0,0,1,.037-1.187.814.814,0,0,1,1.207.152C-250.483,413.188-250.074,413.677-249.635,414.192Z" transform="translate(-359.758 -365.347)" fill="#fff" stroke="#fff" stroke-width="0.5"></path></g></g></svg>