<svg xmlns="http://www.w3.org/2000/svg" width="34.251" height="33.393" viewBox="0 0 34.251 33.393"><g id="Group_6005" data-name="Group 6005" transform="translate(-4418 660)"><path id="Path_46195" data-name="Path 46195" d="M-444.25,147.941V134.506a1.013,1.013,0,0,0,.061-.144,2.717,2.717,0,0,1,2.324-2.163.669.669,0,0,0,.482-.319,16.515,16.515,0,0,1,10.954-7.1c.606-.112,1.221-.173,1.832-.257h2.087c.547.071,1.1.121,1.641.216a16.643,16.643,0,0,1,11.192,7.183.694.694,0,0,0,.405.251,2.768,2.768,0,0,1,2.358,2.217.53.53,0,0,0,.056.111v13.435a.982.982,0,0,0-.062.143,2.718,2.718,0,0,1-2.324,2.164.637.637,0,0,0-.464.291,16.5,16.5,0,0,1-11,7.128c-.6.108-1.2.17-1.8.253H-428.6c-.547-.071-1.1-.121-1.64-.217a16.656,16.656,0,0,1-11.192-7.182.682.682,0,0,0-.4-.251,2.8,2.8,0,0,1-2.2-1.689A6.746,6.746,0,0,1-444.25,147.941Zm16.663.259h13.727c.688,0,.916-.23.916-.92q0-6.048,0-12.1c0-.714-.221-.936-.932-.936h-27.355c-.712,0-.932.221-.932.935q0,6.032,0,12.064c0,.738.214.953.947.953Zm-4.294-16.056h8.632a.743.743,0,0,0-.029-.168c-.451-1.019-.864-2.057-1.369-3.048a4.994,4.994,0,0,0-1.632-1.873,2.073,2.073,0,0,0-2.571.015,5.586,5.586,0,0,0-1.461,1.6A14.21,14.21,0,0,0-431.881,132.143Zm0,18.154a12.6,12.6,0,0,0,1.828,3.83,6.8,6.8,0,0,0,1.25,1.264,1.958,1.958,0,0,0,2.478.028,5.049,5.049,0,0,0,.915-.824,11.568,11.568,0,0,0,2.034-3.825c.053-.149.094-.3.146-.472Zm8.742-22.993a.435.435,0,0,0,.018.108,16.965,16.965,0,0,1,2.019,4.534c.058.195.16.217.329.216,1.467,0,2.935,0,4.4,0,.07,0,.139-.01.261-.02A14.818,14.818,0,0,0-423.142,127.3Zm7.045,22.983c-1.639,0-3.192,0-4.745,0-.2,0-.221.11-.27.25-.25.717-.473,1.446-.778,2.139-.365.829-.8,1.626-1.221,2.459A14.825,14.825,0,0,0-416.1,150.287Zm-15.825,4.841a17.727,17.727,0,0,1-2.1-4.659.394.394,0,0,0-.31-.174c-1.467-.011-2.934-.008-4.4-.007a2,2,0,0,0-.222.026A14.365,14.365,0,0,0-431.922,155.128Zm-.06-27.779a14.467,14.467,0,0,0-7.013,4.793h4.924A18.892,18.892,0,0,1-431.981,127.348Z" transform="translate(4862.771 -784.527)" fill="#cae2bc"/><g id="Rectangle_7624" data-name="Rectangle 7624" transform="translate(4418 -652.819)" fill="#4fa83d" stroke="#cae2bc" stroke-width="1"><rect width="34.251" height="19.36" rx="2" stroke="none"/><rect x="0.5" y="0.5" width="33.251" height="18.36" rx="1.5" fill="none"/></g><path id="Path_46196" data-name="Path 46196" d="M-292.134,265.6v-3.937c0-.2,0-.391,0-.587a1.028,1.028,0,0,1,1.035-1.034,1.019,1.019,0,0,1,1.046,1.022q.012,3.878,0,7.756a1.022,1.022,0,0,1-.721.983,1.04,1.04,0,0,1-1.2-.428q-1.806-2.371-3.6-4.748l-.319-.418c-.009.169-.02.269-.02.369q0,2.053,0,4.106a1.049,1.049,0,0,1-1.037,1.165A1.047,1.047,0,0,1-298,268.7q0-3.748,0-7.5a1.063,1.063,0,0,1,.725-1.113,1.055,1.055,0,0,1,1.221.454q1.8,2.359,3.584,4.723l.274.359Z" transform="translate(4729.244 -908.38)" fill="#cae2bc"/><path id="Path_46197" data-name="Path 46197" d="M-400.759,264.947q0-1.873,0-3.747a1.04,1.04,0,0,1,1.138-1.161c.967-.006,1.933-.014,2.9,0a3.959,3.959,0,0,1,3.914,3.969,19.758,19.758,0,0,1-.068,2.5,3.9,3.9,0,0,1-3.71,3.325c-1.02.03-2.042.016-3.062.009a1.033,1.033,0,0,1-1.112-1.123C-400.761,267.467-400.759,266.207-400.759,264.947Zm2.106-2.8v5.613c.667,0,1.317.018,1.965,0a1.853,1.853,0,0,0,1.792-1.8q.03-1.009,0-2.019a1.82,1.82,0,0,0-1.568-1.774C-397.183,262.095-397.912,262.146-398.653,262.146Z" transform="translate(4823.063 -908.379)" fill="#cae2bc"/><path id="Path_46198" data-name="Path 46198" d="M-191.279,269.853a15.6,15.6,0,0,1-1.652-.125,2.688,2.688,0,0,1-1.727-1.136,1.044,1.044,0,0,1,.175-1.457,1.028,1.028,0,0,1,1.456.172,1.075,1.075,0,0,0,.932.428c.587-.013,1.174,0,1.76-.005a.891.891,0,0,0,.969-.878.909.909,0,0,0-.987-.9,20.809,20.809,0,0,1-2.438-.072,2.919,2.919,0,0,1-2.435-3.106,2.958,2.958,0,0,1,2.832-2.76c.76-.024,1.522-.03,2.281,0a2.835,2.835,0,0,1,2.458,1.523,1.039,1.039,0,0,1-.36,1.445,1.022,1.022,0,0,1-1.415-.372,1.017,1.017,0,0,0-.972-.526c-.565.014-1.13,0-1.7,0-.648,0-1.056.357-1.047.9.009.526.422.868,1.042.878a19.344,19.344,0,0,1,2.373.069,2.919,2.919,0,0,1,2.445,3.13,2.968,2.968,0,0,1-2.852,2.742c-.38.014-.76,0-1.141,0Z" transform="translate(4635.409 -908.342)" fill="#cae2bc"/></g></svg>