<svg xmlns="http://www.w3.org/2000/svg" width="76.816" height="76.815" viewBox="0 0 76.816 76.815"><g id="Group_6092" data-name="Group 6092" transform="translate(-1463 -5989)"><g id="Group_6027" data-name="Group 6027" transform="translate(-257.125 3784.125)"><path id="Icon_ionic-ios-checkmark-circle" data-name="Icon ionic-ios-checkmark-circle" d="M41.783,3.375A38.408,38.408,0,1,0,80.191,41.783,38.4,38.4,0,0,0,41.783,3.375Zm19.666,27.79L36.76,55.964h-.018A3.335,3.335,0,0,1,34.6,56.98a3.233,3.233,0,0,1-2.16-1.053L22.1,45.587a.736.736,0,0,1,0-1.053l3.287-3.287a.714.714,0,0,1,1.034,0l8.2,8.2L57.146,26.752a.729.729,0,0,1,.517-.222h0a.671.671,0,0,1,.517.222l3.231,3.342A.728.728,0,0,1,61.448,31.165Z" transform="translate(1716.75 2201.5)" fill="#4fa83d"></path><circle id="Ellipse_1458" data-name="Ellipse 1458" cx="27.14" cy="27.14" r="27.14" transform="translate(1733.483 2213.568)" fill="#4fa83d"></circle></g><g id="Group_4566" data-name="Group 4566" transform="translate(1479 6015)"><g id="Group_3553" data-name="Group 3553" transform="translate(4.99 5.003)"><path id="Path_14063" data-name="Path 14063" d="M103.083,132.659l-1.621-1.624,10.975-10.955h6.124l1.61,1.711,5.377,5.364,8.854-8.873,1.624,1.62-10.474,10.5-7.039-7.023-.943-1h-4.184Z" transform="translate(-101.462 -118.282)" fill="#fff"></path></g><ellipse id="Ellipse_505" data-name="Ellipse 505" cx="4.033" cy="4.033" rx="4.033" ry="4.033" transform="translate(14.947 2.012)" fill="#fff"></ellipse><ellipse id="Ellipse_506" data-name="Ellipse 506" cx="4.033" cy="4.033" rx="4.033" ry="4.033" transform="translate(25.045 12.102)" fill="#fff"></ellipse><ellipse id="Ellipse_507" data-name="Ellipse 507" cx="4.033" cy="4.033" rx="4.033" ry="4.033" transform="translate(37.148 0)" fill="#fff"></ellipse><ellipse id="Ellipse_508" data-name="Ellipse 508" cx="4.033" cy="4.033" rx="4.033" ry="4.033" transform="translate(0 23.166) rotate(-76.717)" fill="#fff"></ellipse></g></g></svg>