<svg xmlns="http://www.w3.org/2000/svg" width="35" height="21" viewBox="0 0 35 21" fill="none"><g id="CHILE_3_"><g id="Group"><g id="Group_2"><g id="Clip path group"><mask id="mask0_9372_50748" style="mask-type:luminance" maskUnits="userSpaceOnUse" x="0" y="0" width="35" height="21"><g id="SVGID_00000010281331893844843750000012648683548643718570_"><path id="Vector" d="M34.283 0.711487H0.719971V20.2885H34.283V0.711487Z" fill="white"></path></g></mask><g mask="url(#mask0_9372_50748)"><path id="Vector_2" d="M34.283 0.711487H0.719971V20.2885H34.283V0.711487Z" fill="white"></path></g></g><g id="Clip path group_2"><mask id="mask1_9372_50748" style="mask-type:luminance" maskUnits="userSpaceOnUse" x="0" y="0" width="35" height="21"><g id="SVGID_00000010281331893844843750000012648683548643718570__2"><path id="Vector_3" d="M34.283 0.711487H0.719971V20.2885H34.283V0.711487Z" fill="white"></path></g></mask><g mask="url(#mask1_9372_50748)"><path id="Vector_4" d="M10.509 0.711487H0.719971V20.2885H10.509V0.711487Z" fill="#2530A9"></path></g></g><g id="Clip path group_3"><mask id="mask2_9372_50748" style="mask-type:luminance" maskUnits="userSpaceOnUse" x="0" y="0" width="35" height="21"><g id="SVGID_00000010281331893844843750000012648683548643718570__3"><path id="Vector_5" d="M34.283 0.711487H0.719971V20.2885H34.283V0.711487Z" fill="white"></path></g></mask><g mask="url(#mask2_9372_50748)"><path id="Vector_6" d="M34.283 10.5005H0.719971V20.2895H34.283V10.5005Z" fill="#C22623"></path></g></g><g id="Clip path group_4"><mask id="mask3_9372_50748" style="mask-type:luminance" maskUnits="userSpaceOnUse" x="0" y="0" width="35" height="21"><g id="SVGID_00000010281331893844843750000012648683548643718570__4"><path id="Vector_7" d="M34.283 0.711487H0.719971V20.2885H34.283V0.711487Z" fill="white"></path></g></mask><g mask="url(#mask3_9372_50748)"><path id="Vector_8" d="M5.61783 3.15747L4.86084 5.48647L6.02383 5.86447L5.61783 3.15747Z" fill="white"></path></g></g><g id="Clip path group_5"><mask id="mask4_9372_50748" style="mask-type:luminance" maskUnits="userSpaceOnUse" x="0" y="0" width="35" height="21"><g id="SVGID_00000010281331893844843750000012648683548643718570__5"><path id="Vector_9" d="M34.283 0.711487H0.719971V20.2885H34.283V0.711487Z" fill="white"></path></g></mask><g mask="url(#mask4_9372_50748)"><path id="Vector_10" d="M5.61801 3.15747L6.37201 5.48647L5.20801 5.86447L5.61801 3.15747Z" fill="white"></path></g></g><g id="Clip path group_6"><mask id="mask5_9372_50748" style="mask-type:luminance" maskUnits="userSpaceOnUse" x="0" y="0" width="35" height="21"><g id="SVGID_00000010281331893844843750000012648683548643718570__6"><path id="Vector_11" d="M34.283 0.711487H0.719971V20.2885H34.283V0.711487Z" fill="white"></path></g></mask><g mask="url(#mask5_9372_50748)"><path id="Vector_12" d="M7.94202 4.84851H5.49902V6.07352L7.94202 4.84851Z" fill="white"></path></g></g><g id="Clip path group_7"><mask id="mask6_9372_50748" style="mask-type:luminance" maskUnits="userSpaceOnUse" x="0" y="0" width="35" height="21"><g id="SVGID_00000010281331893844843750000012648683548643718570__7"><path id="Vector_13" d="M34.283 0.711487H0.719971V20.2885H34.283V0.711487Z" fill="white"></path></g></mask><g mask="url(#mask6_9372_50748)"><path id="Vector_14" d="M7.94186 4.84851L5.96185 6.28851L5.24487 5.29651L7.94186 4.84851Z" fill="white"></path></g></g><g id="Clip path group_8"><mask id="mask7_9372_50748" style="mask-type:luminance" maskUnits="userSpaceOnUse" x="0" y="0" width="35" height="21"><g id="SVGID_00000010281331893844843750000012648683548643718570__8"><path id="Vector_15" d="M34.283 0.711487H0.719971V20.2885H34.283V0.711487Z" fill="white"></path></g></mask><g mask="url(#mask7_9372_50748)"><path id="Vector_16" d="M3.28809 4.84851L5.27109 6.28851L5.98709 5.29651L3.28809 4.84851Z" fill="white"></path></g></g><g id="Clip path group_9"><mask id="mask8_9372_50748" style="mask-type:luminance" maskUnits="userSpaceOnUse" x="0" y="0" width="35" height="21"><g id="SVGID_00000010281331893844843750000012648683548643718570__9"><path id="Vector_17" d="M34.283 0.711487H0.719971V20.2885H34.283V0.711487Z" fill="white"></path></g></mask><g mask="url(#mask8_9372_50748)"><path id="Vector_18" d="M3.28809 4.84851H5.73709V6.07352L3.28809 4.84851Z" fill="white"></path></g></g><g id="Clip path group_10"><mask id="mask9_9372_50748" style="mask-type:luminance" maskUnits="userSpaceOnUse" x="0" y="0" width="35" height="21"><g id="SVGID_00000010281331893844843750000012648683548643718570__10"><path id="Vector_19" d="M34.283 0.711487H0.719971V20.2885H34.283V0.711487Z" fill="white"></path></g></mask><g mask="url(#mask9_9372_50748)"><path id="Vector_20" d="M7.05399 7.58446L6.29999 5.25745L5.13599 5.63545L7.05399 7.58446Z" fill="white"></path></g></g><g id="Clip path group_11"><mask id="mask10_9372_50748" style="mask-type:luminance" maskUnits="userSpaceOnUse" x="0" y="0" width="35" height="21"><g id="SVGID_00000010281331893844843750000012648683548643718570__11"><path id="Vector_21" d="M34.283 0.711487H0.719971V20.2885H34.283V0.711487Z" fill="white"></path></g></mask><g mask="url(#mask10_9372_50748)"><path id="Vector_22" d="M7.05399 7.58446L5.073 6.14545L5.79599 5.15845L7.05399 7.58446Z" fill="white"></path></g></g><g id="Clip path group_12"><mask id="mask11_9372_50748" style="mask-type:luminance" maskUnits="userSpaceOnUse" x="0" y="0" width="35" height="21"><g id="SVGID_00000010281331893844843750000012648683548643718570__12"><path id="Vector_23" d="M34.283 0.711487H0.719971V20.2885H34.283V0.711487Z" fill="white"></path></g></mask><g mask="url(#mask11_9372_50748)"><path id="Vector_24" d="M4.17896 7.58446L6.15897 6.14545L5.43695 5.15845L4.17896 7.58446Z" fill="white"></path></g></g><g id="Clip path group_13"><mask id="mask12_9372_50748" style="mask-type:luminance" maskUnits="userSpaceOnUse" x="0" y="0" width="35" height="21"><g id="SVGID_00000010281331893844843750000012648683548643718570__13"><path id="Vector_25" d="M34.283 0.711487H0.719971V20.2885H34.283V0.711487Z" fill="white"></path></g></mask><g mask="url(#mask12_9372_50748)"><path id="Vector_26" d="M4.17896 7.58446L4.93295 5.25745L6.09695 5.63545L4.17896 7.58446Z" fill="white"></path></g></g></g></g></g></svg>