<svg xmlns="http://www.w3.org/2000/svg" width="34" height="21" viewBox="0 0 34 21" fill="none"><g id="KUWAIT_3_"><g id="Group"><g id="Group_2"><g id="Clip path group"><mask id="mask0_9372_55805" style="mask-type:luminance" maskUnits="userSpaceOnUse" x="0" y="0" width="34" height="21"><g id="SVGID_00000146500811406312541510000007572226910100347548_"><path id="Vector" d="M33.845 0.710938H0.282959V20.2889H33.845V0.710938Z" fill="white"></path></g></mask><g mask="url(#mask0_9372_55805)"><path id="Vector_2" d="M33.845 0.710938H0.282959V7.20294H33.845V0.710938Z" fill="#419976"></path></g></g><g id="Clip path group_2"><mask id="mask1_9372_55805" style="mask-type:luminance" maskUnits="userSpaceOnUse" x="0" y="0" width="34" height="21"><g id="SVGID_00000146500811406312541510000007572226910100347548__2"><path id="Vector_3" d="M33.845 0.710938H0.282959V20.2889H33.845V0.710938Z" fill="white"></path></g></mask><g mask="url(#mask1_9372_55805)"><path id="Vector_4" d="M33.845 7.20288H0.282959V13.7299H33.845V7.20288Z" fill="white"></path></g></g><g id="Clip path group_3"><mask id="mask2_9372_55805" style="mask-type:luminance" maskUnits="userSpaceOnUse" x="0" y="0" width="34" height="21"><g id="SVGID_00000146500811406312541510000007572226910100347548__3"><path id="Vector_5" d="M33.845 0.710938H0.282959V20.2889H33.845V0.710938Z" fill="white"></path></g></mask><g mask="url(#mask2_9372_55805)"><path id="Vector_6" d="M33.845 13.73H0.282959V20.257H33.845V13.73Z" fill="#BC0030"></path></g></g><g id="Clip path group_4"><mask id="mask3_9372_55805" style="mask-type:luminance" maskUnits="userSpaceOnUse" x="0" y="0" width="34" height="21"><g id="SVGID_00000146500811406312541510000007572226910100347548__4"><path id="Vector_7" d="M33.845 0.710938H0.282959V20.2889H33.845V0.710938Z" fill="white"></path></g></mask><g mask="url(#mask3_9372_55805)"><path id="Vector_8" d="M0.282959 0.710938V20.2579L10.072 13.7299V7.20294L0.332962 0.710938H0.282959Z" fill="black"></path></g></g></g></g></g></svg>