<svg xmlns="http://www.w3.org/2000/svg" width="116" height="116" viewBox="0 0 116 116"><g id="Group_6030" data-name="Group 6030" transform="translate(-1097 -2750)"><rect id="Rectangle_213" data-name="Rectangle 213" width="116" height="116" rx="58" transform="translate(1213 2866) rotate(180)" fill="#4fa83d"></rect><g id="Group_169" data-name="Group 169" transform="translate(347.244 -5509)"><path id="Path_348" data-name="Path 348" d="M1664.418,556.425a16.35,16.35,0,0,1,9.237,6.92,16.124,16.124,0,0,1,2.668,11.086,16.4,16.4,0,0,1-10.2,13.762,13.207,13.207,0,0,1-5.743,1.232c-.37-.011-.348.2-.348.448,0,1.378-.011,2.755.011,4.132a1.882,1.882,0,0,1-.864,1.9,1.831,1.831,0,0,1-2.07-.325c-2.853-1.971-5.716-3.919-8.585-5.89a1.463,1.463,0,0,0-.9-.28c-2.864-.033-5.733.157-8.585-.089a15.787,15.787,0,0,1-11.438-6.316,16.986,16.986,0,0,1,1.424-22.362,15.9,15.9,0,0,1,10.1-4.781,1.164,1.164,0,0,0,.261-.079h21.746A30.992,30.992,0,0,1,1664.418,556.425Z" transform="translate(-841.008 7748.942)" fill="rgba(255,255,255,0.65)"></path><path id="Path_349" data-name="Path 349" d="M1633.34,525h21.746a2.255,2.255,0,0,0,.261.078,15.922,15.922,0,0,1,10.1,4.782,16.981,16.981,0,0,1,1.413,22.373,15.8,15.8,0,0,1-11.438,6.316c-2.853.258-5.722.067-8.585.09a1.465,1.465,0,0,0-.9.28c-2.858,1.971-5.733,3.919-8.585,5.89a1.811,1.811,0,0,1-2.07.325,1.89,1.89,0,0,1-.864-1.9c.022-1.378,0-2.755.011-4.132,0-.258.022-.459-.348-.448a13.33,13.33,0,0,1-5.744-1.232,16.412,16.412,0,0,1-10.2-13.784,16.14,16.14,0,0,1,2.668-11.086,16.386,16.386,0,0,1,9.238-6.92A33.07,33.07,0,0,1,1633.34,525Z" transform="translate(-838.245 7763)" fill="#fff"></path><ellipse id="Ellipse_64" data-name="Ellipse 64" cx="4.075" cy="4.175" rx="4.075" ry="4.175" transform="translate(789.264 8300.498)" fill="#4fa83d"></ellipse><ellipse id="Ellipse_65" data-name="Ellipse 65" cx="4.075" cy="4.175" rx="4.075" ry="4.175" transform="translate(801.49 8300.498)" fill="#4fa83d"></ellipse><ellipse id="Ellipse_66" data-name="Ellipse 66" cx="4.075" cy="4.175" rx="4.075" ry="4.175" transform="translate(813.717 8300.498)" fill="#4fa83d"></ellipse></g></g></svg>