<svg width="142" height="57" viewBox="0 0 142 57" fill="none" xmlns="http://www.w3.org/2000/svg">
<path d="M25.7239 56.7269C39.9309 56.7269 51.4479 44.2269 51.4479 28.8073C51.4479 13.3877 39.9309 0.887695 25.7239 0.887695C11.517 0.887695 0 13.3877 0 28.8073C0 44.2269 11.517 56.7269 25.7239 56.7269Z" fill="#59A52C"/>
<path d="M38.6894 29.3457C38.9962 31.8922 38.2944 34.986 36.4093 38.4607C31.6296 47.456 19.5706 48.4312 11.5234 43.767L13.4306 34.7238H16.4786C21.3244 41.0062 26.9372 36.6724 27.617 33.9382C28.0993 31.9896 27.0033 30.1066 25.1174 29.3457H23.0773C21.8756 28.9035 20.5732 28.9035 19.3715 29.3457H21.3888C20.1792 29.8144 19.069 30.5427 18.1246 31.4874H15.3606L15.7988 29.3457H13.7586L17.661 10.7129H40.3337L38.5139 19.4948H26.2575L25.7091 22.0891C32.2865 22.0891 36.1457 24.8259 36.6712 29.3475H38.6885L38.6894 29.3457Z" fill="white"/>
<path d="M65.3547 19.3569C64.371 19.3486 63.3953 19.1648 62.4666 18.813C61.5224 18.486 60.6293 18.0055 59.8177 17.3879C59.7569 17.3443 59.7119 17.2792 59.6901 17.2037C59.6684 17.1282 59.6714 17.0468 59.6985 16.9734L60.9161 14.3313C60.933 14.2829 60.9621 14.2407 61 14.2094C61.038 14.1781 61.0833 14.1589 61.1307 14.1542C61.1755 14.1426 61.2219 14.1413 61.2672 14.1503C61.3124 14.1593 61.3554 14.1784 61.3935 14.2064C61.9279 14.7111 62.5318 15.122 63.1831 15.4243C63.7638 15.6952 64.3889 15.8362 65.0209 15.8388C65.6126 15.8821 66.1985 15.6886 66.6677 15.295C66.8568 15.1263 67.007 14.9121 67.1061 14.6692C67.2053 14.4264 67.2508 14.1617 67.239 13.8964C67.2516 13.6102 67.2094 13.3242 67.1148 13.0566C67.0203 12.789 66.8755 12.5456 66.6897 12.342C66.153 11.9867 65.5269 11.8237 64.9001 11.8761C64.4227 11.8761 64.1844 11.8761 63.3961 11.9018C62.6078 11.9275 62.0088 11.954 61.6065 12.0054C61.521 12.0113 61.4364 11.9837 61.3682 11.9275C61.3329 11.8957 61.3041 11.8562 61.2836 11.8117C61.2631 11.7672 61.2513 11.7185 61.2491 11.6688V3.17213C61.2505 3.08337 61.2837 2.99868 61.3415 2.93591C61.3993 2.87313 61.4774 2.83716 61.5592 2.83557H70.0829C70.1647 2.83716 70.2428 2.87313 70.3006 2.93591C70.3584 2.99868 70.3916 3.08337 70.393 3.17213V6.11715C70.3916 6.20591 70.3584 6.29061 70.3006 6.35339C70.2428 6.41617 70.1647 6.45213 70.0829 6.45372H64.7834V8.31905H65.5995C66.6112 8.29206 67.6154 8.51339 68.5373 8.96651C69.3429 9.34179 70.0309 9.96267 70.5179 10.7539C70.9983 11.6213 71.2462 12.617 71.2336 13.6289C71.2558 14.6949 70.9991 15.7458 70.4934 16.6599C70.0032 17.5278 69.2898 18.2212 68.441 18.6545C67.4753 19.1419 66.4194 19.3822 65.3547 19.3569ZM81.1308 19.3569C79.7831 19.3753 78.4557 18.9996 77.288 18.2692C76.1576 17.5373 75.2279 16.4909 74.595 15.2383C73.9367 13.928 73.5995 12.4561 73.6157 10.9638C73.6017 9.48522 73.9474 8.02882 74.6178 6.74158C75.2784 5.5066 76.2244 4.47994 77.3622 3.76291C78.413 3.11677 79.5889 2.74738 80.7952 2.68446C82.0016 2.62154 83.2047 2.86684 84.3077 3.40065C85.279 3.86463 86.1554 4.53398 86.8857 5.3696C86.932 5.43244 86.9573 5.51054 86.9573 5.59103C86.9573 5.67153 86.932 5.74963 86.8857 5.81246L84.6187 7.83279C84.5893 7.87107 84.553 7.90233 84.512 7.92459C84.471 7.94685 84.4262 7.95962 84.3804 7.9621C84.3341 7.96245 84.2883 7.95092 84.2469 7.92845C84.2055 7.90598 84.1696 7.8732 84.1421 7.83279C83.5813 7.06261 82.7739 6.5497 81.8806 6.39609C80.9873 6.24249 80.0734 6.45942 79.3208 7.00376C78.6621 7.49548 78.1388 8.17213 77.8068 8.96147C77.4748 9.75081 77.3465 10.6232 77.4357 11.4855C77.4896 12.3634 77.7911 13.2022 78.2991 13.8879C78.8071 14.5736 79.4971 15.0732 80.2756 15.3189C80.9479 15.5634 81.6711 15.5907 82.3575 15.3976C83.0439 15.2046 83.6638 14.7994 84.1421 14.2312C84.1739 14.1998 84.2119 14.1765 84.2531 14.163C84.2943 14.1495 84.3378 14.1462 84.3804 14.1533C84.4214 14.1483 84.4629 14.1553 84.5006 14.1735C84.5383 14.1917 84.5709 14.2205 84.595 14.2569L86.9102 16.0186C86.9565 16.0814 86.9818 16.1595 86.9818 16.24C86.9818 16.3205 86.9565 16.3986 86.9102 16.4615C86.1481 17.3438 85.2416 18.0646 84.2367 18.5872C83.2667 19.0866 82.2077 19.3494 81.1341 19.3569H81.1308ZM89.1282 19.3569V3.83996C89.1282 3.1925 89.2474 3.06319 89.4383 3.06319H99.8921C99.9313 3.06117 99.9706 3.06764 100.007 3.08223C100.044 3.09682 100.078 3.11924 100.107 3.14817C100.136 3.1771 100.159 3.21198 100.176 3.25076C100.192 3.28955 100.201 3.33146 100.202 3.37407V6.29695C100.201 6.38572 100.168 6.4704 100.11 6.53318C100.052 6.59596 99.9739 6.63193 99.8921 6.63353H92.8282V9.32788H97.2913C97.3731 9.32947 97.4511 9.36545 97.509 9.42822C97.5668 9.491 97.5999 9.57569 97.6014 9.66445V12.5661C97.5999 12.6548 97.5668 12.7395 97.509 12.8023C97.4511 12.8651 97.3731 12.9011 97.2913 12.9026H92.8282V15.6741H99.8692C99.951 15.6756 100.029 15.7116 100.087 15.7744C100.145 15.8372 100.178 15.9219 100.179 16.0106V18.9122C100.178 19.001 100.145 19.0857 100.087 19.1485C100.029 19.2113 99.951 19.2472 99.8692 19.2488H89.4391C89.2482 19.2532 89.129 19.0974 89.129 19.3569H89.1282ZM102.899 19.3569C102.817 19.3553 102.739 19.3193 102.682 19.2565C102.624 19.1938 102.591 19.1091 102.589 19.0203V3.5034C102.591 3.41463 102.624 3.32994 102.682 3.26716C102.739 3.20438 102.817 3.16841 102.899 3.16682H105.716C105.815 3.17116 105.91 3.21755 105.978 3.29613L111.469 12.4943V3.5034C111.47 3.41463 111.503 3.32994 111.561 3.26716C111.619 3.20438 111.697 3.16841 111.779 3.16682H114.717C114.798 3.16841 114.876 3.20438 114.934 3.26716C114.992 3.32994 115.025 3.41463 115.027 3.5034V19.0203C115.025 19.1091 114.992 19.1938 114.934 19.2565C114.876 19.3193 114.798 19.3553 114.717 19.3569H111.898C111.798 19.3525 111.704 19.3061 111.635 19.2276L106.168 10.0834V19.0203C106.166 19.1091 106.133 19.1938 106.075 19.2565C106.017 19.3193 105.939 19.3553 105.858 19.3569H102.899ZM121.515 19.3569C121.476 19.3555 121.437 19.3457 121.402 19.328C121.366 19.3103 121.334 19.285 121.307 19.2537C121.281 19.2224 121.26 19.1856 121.246 19.1455C121.233 19.1055 121.227 19.0629 121.229 19.0203V6.79738H117.961C117.921 6.7994 117.882 6.79293 117.845 6.77834C117.808 6.76375 117.774 6.74134 117.746 6.71241C117.717 6.68348 117.693 6.64861 117.677 6.60982C117.661 6.57104 117.652 6.52911 117.65 6.4865V3.50782C117.652 3.41905 117.685 3.33437 117.743 3.27159C117.801 3.20881 117.879 3.17285 117.961 3.17126H128.2C128.241 3.16991 128.282 3.17769 128.32 3.19412C128.358 3.21056 128.393 3.23531 128.422 3.26683C128.451 3.29836 128.474 3.33599 128.489 3.37744C128.504 3.41889 128.511 3.46325 128.51 3.50782V6.4865C128.511 6.52978 128.503 6.57274 128.487 6.61256C128.472 6.65239 128.448 6.68816 128.419 6.71754C128.39 6.74691 128.355 6.76921 128.317 6.78297C128.279 6.79674 128.239 6.80164 128.2 6.79738H124.927V19.0203C124.926 19.1091 124.893 19.1938 124.835 19.2565C124.777 19.3193 124.699 19.3553 124.617 19.3569H121.515ZM136.313 19.5119C135.153 19.5105 134.003 19.2731 132.924 18.8122C131.864 18.3884 130.885 17.756 130.036 16.9468C129.99 16.8966 129.959 16.8331 129.947 16.764C129.934 16.695 129.94 16.6234 129.964 16.558L130.8 13.4757C130.817 13.4273 130.846 13.3851 130.884 13.3538C130.922 13.3224 130.967 13.3033 131.014 13.2986C131.061 13.285 131.109 13.2851 131.155 13.2988C131.202 13.3125 131.244 13.3393 131.277 13.3765C132.542 14.6714 133.97 15.837 135.765 15.9451C136.253 16.0019 136.745 15.9669 137.221 15.8415C138.63 15.349 138.032 13.7955 136.983 13.3287C136.625 13.1734 136.124 12.9921 135.479 12.7848C134.677 12.5568 133.894 12.2534 133.14 11.8779C132.483 11.5484 131.91 11.0505 131.47 10.4271C130.987 9.6578 130.744 8.74069 130.778 7.81064C130.758 6.87075 131.008 5.94753 131.493 5.16854C131.988 4.3969 132.675 3.7946 133.474 3.43254C134.397 3.02183 135.388 2.81903 136.386 2.83645C137.366 2.83323 138.341 2.99946 139.274 3.32891C140.159 3.62509 141.002 4.05218 141.78 4.59814C141.839 4.64305 141.882 4.70978 141.899 4.78599C141.917 4.86219 141.908 4.94271 141.875 5.01266L141.085 7.90719C141.073 7.95357 141.048 7.99498 141.014 8.02641C140.98 8.05784 140.939 8.07796 140.894 8.08433C140.855 8.09927 140.814 8.10471 140.773 8.10027C140.731 8.09583 140.692 8.08161 140.656 8.05864C139.647 7.20837 138.484 6.59926 137.243 6.27127C136.408 6.14196 135.143 6.19332 134.856 7.28187C134.498 8.68042 136.384 9.04356 137.243 9.32788C138.051 9.57945 138.842 9.89108 139.61 10.2605C140.268 10.6122 140.841 11.1282 141.28 11.7663C141.785 12.5449 142.036 13.4833 141.996 14.434C142.014 15.4137 141.747 16.3746 141.232 17.1798C140.726 17.9666 140.022 18.5783 139.203 18.9415C138.282 19.3264 137.302 19.5199 136.315 19.5119H136.313Z" fill="white"/>
<path d="M73.8035 55.4566C71.2721 55.4912 68.7788 54.7853 66.5855 53.4132C64.4594 52.0395 62.7103 50.0738 61.5193 47.7198C60.2832 45.2584 59.6502 42.4938 59.6807 39.6908C59.6545 36.9132 60.3039 34.1773 61.5634 31.7592C62.8045 29.439 64.5816 27.5102 66.7193 26.1632C68.6931 24.9495 70.9018 24.2556 73.1678 24.1373C75.4337 24.019 77.6936 24.4796 79.7657 25.4821C81.5901 26.3535 83.2363 27.6106 84.6082 29.18C84.6952 29.2971 84.7427 29.4431 84.7427 29.5936C84.7427 29.7441 84.6952 29.8901 84.6082 30.0072L80.3492 33.8025C80.2941 33.8746 80.2259 33.9335 80.1487 33.9754C80.0716 34.0173 79.9873 34.0414 79.9012 34.0461C79.8141 34.0468 79.7281 34.025 79.6502 33.9827C79.5723 33.9404 79.5048 33.8786 79.4531 33.8025C78.3996 32.3554 76.8827 31.3916 75.2043 31.1031C73.5258 30.8146 71.8088 31.2224 70.3948 32.2454C67.7018 34.0461 66.7185 37.3552 66.8531 40.6598C66.9547 42.3091 67.521 43.8847 68.4754 45.173C69.4298 46.4612 70.7261 47.3998 72.1885 47.8615C73.4515 48.3208 74.8101 48.3722 76.0994 48.0094C77.3887 47.6467 78.5532 46.8855 79.4515 45.8182C79.5114 45.759 79.5827 45.7152 79.6602 45.6899C79.7378 45.6647 79.8195 45.6585 79.8995 45.672C79.9766 45.6628 80.0546 45.676 80.1254 45.7102C80.1962 45.7445 80.2574 45.7986 80.3027 45.8669L84.6515 49.1759C84.7385 49.2931 84.786 49.4391 84.786 49.5896C84.786 49.7401 84.7385 49.886 84.6515 50.0032C83.22 51.6595 81.5173 53.0125 79.6302 53.9934C77.8091 54.9363 75.8196 55.4346 73.8019 55.453L73.8035 55.4566ZM89.8539 55.4566C89.7767 55.4592 89.6999 55.4446 89.6281 55.4137C89.5563 55.3828 89.4911 55.3363 89.4366 55.2771C89.382 55.2178 89.3391 55.1471 89.3107 55.0692C89.2823 54.9913 89.2688 54.9079 89.2712 54.8242V25.6743C89.2687 25.5905 89.2821 25.5071 89.3105 25.4291C89.3389 25.3511 89.3817 25.2804 89.4363 25.2211C89.4909 25.1618 89.5561 25.1153 89.628 25.0845C89.6998 25.0537 89.7767 25.0392 89.8539 25.0419H100.032C102.582 24.9928 105.101 25.6643 107.34 26.9905C109.458 28.2282 111.202 30.1045 112.361 32.3934C113.567 34.795 114.185 37.4924 114.156 40.2275C114.198 42.9856 113.564 45.7062 112.318 48.1104C111.137 50.415 109.36 52.2935 107.207 53.5133C104.937 54.8455 102.389 55.5168 99.809 55.4619L89.8539 55.4566ZM96.2192 48.6436H100.165C101.41 48.6639 102.635 48.3102 103.707 47.6215C104.76 46.8914 105.612 45.8659 106.173 44.6535C106.784 43.2901 107.092 41.7897 107.07 40.2736C107.094 38.752 106.77 37.2477 106.129 35.8946C105.548 34.6531 104.664 33.6092 103.573 32.8778C102.457 32.1728 101.188 31.8032 99.8963 31.807H96.2208L96.2192 48.6436ZM119.219 55.4566C119.065 55.4536 118.919 55.386 118.81 55.2681C118.701 55.1501 118.639 54.991 118.636 54.8242V25.6743C118.639 25.5075 118.701 25.3483 118.81 25.2304C118.919 25.1124 119.065 25.0448 119.219 25.0419H124.507C124.693 25.0512 124.869 25.1386 124.997 25.2855L135.309 42.557V25.6743C135.311 25.5075 135.374 25.3483 135.482 25.2304C135.591 25.1124 135.738 25.0448 135.891 25.0419H141.406C141.56 25.0448 141.707 25.1124 141.815 25.2304C141.924 25.3483 141.986 25.5075 141.989 25.6743V54.8224C141.986 54.9892 141.924 55.1484 141.815 55.2663C141.707 55.3843 141.56 55.4518 141.406 55.4548H136.116C135.93 55.4454 135.754 55.3581 135.626 55.2112L125.363 38.0345V54.8224C125.36 54.9892 125.298 55.1484 125.19 55.2663C125.081 55.3843 124.934 55.4518 124.781 55.4548H119.221L119.219 55.4566Z" fill="white"/>
</svg>
