<svg xmlns="http://www.w3.org/2000/svg" width="37" height="37" viewBox="0 0 37 37" fill="none"><path d="M26.6222 13.2239C26.7545 13.3561 26.8595 13.5131 26.9311 13.6858C27.0027 13.8586 27.0396 14.0438 27.0396 14.2308C27.0396 14.4178 27.0027 14.603 26.9311 14.7757C26.8595 14.9485 26.7545 15.1054 26.6222 15.2376L16.6607 25.1991C16.5285 25.3314 16.3716 25.4364 16.1988 25.508C16.026 25.5796 15.8409 25.6165 15.6539 25.6165C15.4668 25.6165 15.2817 25.5796 15.1089 25.508C14.9361 25.4364 14.7792 25.3314 14.647 25.1991L10.3778 20.9299C10.1108 20.6629 9.96075 20.3007 9.96075 19.9231C9.96075 19.5454 10.1108 19.1833 10.3778 18.9162C10.6448 18.6492 11.007 18.4992 11.3846 18.4992C11.7623 18.4992 12.1244 18.6492 12.3914 18.9162L15.6539 22.1804L24.6086 13.2239C24.7407 13.0916 24.8977 12.9867 25.0704 12.915C25.2432 12.8434 25.4284 12.8066 25.6154 12.8066C25.8024 12.8066 25.9876 12.8434 26.1603 12.915C26.3331 12.9867 26.49 13.0916 26.6222 13.2239ZM37 18.5C37 22.159 35.915 25.7357 33.8822 28.778C31.8494 31.8204 28.9601 34.1915 25.5796 35.5918C22.1992 36.992 18.4795 37.3583 14.8908 36.6445C11.3022 35.9307 8.0058 34.1687 5.41853 31.5815C2.83126 28.9942 1.06931 25.6978 0.355481 22.1092C-0.358346 18.5205 0.00801576 14.8008 1.40824 11.4204C2.80846 8.03992 5.17965 5.15062 8.22196 3.11781C11.2643 1.08501 14.8411 0 18.5 0C23.4049 0.00517968 28.1075 1.95594 31.5758 5.42424C35.0441 8.89254 36.9948 13.5951 37 18.5ZM34.1538 18.5C34.1538 15.404 33.2358 12.3774 31.5157 9.80319C29.7956 7.22893 27.3508 5.22253 24.4905 4.03773C21.6301 2.85293 18.4826 2.54293 15.4461 3.14694C12.4095 3.75094 9.6203 5.24183 7.43107 7.43106C5.24184 9.62029 3.75095 12.4095 3.14695 15.4461C2.54294 18.4826 2.85294 21.6301 4.03774 24.4905C5.22254 27.3508 7.22893 29.7956 9.80319 31.5157C12.3775 33.2358 15.404 34.1538 18.5 34.1538C22.6502 34.1491 26.6291 32.4984 29.5637 29.5637C32.4984 26.6291 34.1491 22.6502 34.1538 18.5Z" fill="#59A52C"></path></svg>