<svg xmlns="http://www.w3.org/2000/svg" viewBox="0 0 432 63" width="432" height="63"><defs><clipPath clipPathUnits="userSpaceOnUse" id="cp1"><path d="m-463-2868h960v4334h-960z"/></clipPath><linearGradient id="P" gradientUnits="userSpaceOnUse"/><linearGradient id="g1" x1="20.4" y1="1.3" x2="221.2" y2="32.3" href="#P"><stop stop-color="#4fa83d"/><stop offset="1" stop-color="#28541f" stop-opacity=".1"/></linearGradient></defs><style>.a{fill:url(#g1)}.b{fill:#1b1d20}</style><g clip-path="url(#cp1)"><path fill-rule="evenodd" class="a" d="m10.1 0.6h230c5.1 0 9.3 4.1 9.3 9v36.5c0 5-4.2 9-9.3 9h-230c-5.1 0-9.2-4-9.2-9v-36.5c0-4.9 4.1-9 9.2-9zm0 0.5c-2.3 0-4.5 0.9-6.1 2.5-1.7 1.6-2.6 3.8-2.6 6v36.5c0 2.3 0.9 4.4 2.6 6 1.6 1.6 3.8 2.5 6.1 2.5h230c2.4 0 4.5-0.9 6.2-2.5 1.6-1.6 2.5-3.7 2.5-6v-36.5c0-2.2-0.9-4.4-2.5-6-1.7-1.6-3.8-2.5-6.2-2.5z"/><rect class="b" x="6.9" y="6.5" width="424.5" height="56" rx="9"/></g></svg>