<svg width="716" height="718" viewBox="0 0 716 718" fill="none" xmlns="http://www.w3.org/2000/svg">
<path d="M325.217 713.227C325.196 713.227 325.153 713.227 325.131 713.227L238.415 694.171C238.394 694.171 238.372 694.15 238.329 694.15C238.308 694.15 238.286 694.128 238.265 694.107L103.63 610.824C103.609 610.802 103.588 610.781 103.566 610.76C103.545 610.738 103.545 610.717 103.523 610.695L43.6952 525.631C43.6737 525.61 43.6523 525.567 43.6523 525.546V525.524L8.45935 428.078C8.45935 428.078 8.45935 428.078 8.45935 428.057C8.45935 428.014 8.43789 427.992 8.43789 427.95L5.45508 313.401C5.45508 313.379 5.45508 313.336 5.45508 313.315C5.45508 313.294 5.45508 313.294 5.45508 313.272L25.1974 226.577C25.1974 226.534 25.2189 226.492 25.2404 226.449L59.2959 166.707C59.2959 166.707 59.2959 166.685 59.3174 166.685C59.3174 166.664 59.3389 166.664 59.3389 166.642L116.313 98.9816C116.334 98.9601 116.377 98.9172 116.399 98.8958L197.879 42.4583C197.9 42.4369 197.922 42.4369 197.922 42.4369C197.943 42.4369 197.943 42.4154 197.965 42.4154L246.698 23.3812C246.891 23.2954 247.106 23.3812 247.213 23.5529C247.321 23.7245 247.299 23.9606 247.149 24.0893L227.02 42.5442L264.617 42.7588L278.007 13.4456C278.071 13.3169 278.2 13.2096 278.35 13.1881L340.432 4.79762C340.453 4.79762 340.474 4.77616 340.496 4.79762C340.539 4.79762 340.56 4.79763 340.582 4.81909L434.701 27.158L441.461 14.6474C441.568 14.4542 441.783 14.3684 441.997 14.4542L532.147 50.2909H532.169C532.19 50.3124 532.233 50.3338 532.254 50.3338L614.7 113.509C614.722 113.531 614.743 113.552 614.765 113.574C614.765 113.595 614.786 113.595 614.786 113.617L669.013 188.766C669.013 188.788 669.035 188.788 669.035 188.809C669.035 188.831 669.056 188.852 669.056 188.874L701.695 271.126C701.781 271.32 701.695 271.556 701.502 271.663L687.575 279.152L693.863 309.753L709.743 314.839C709.914 314.903 710.043 315.053 710.043 315.246L710.944 393.036C710.944 393.057 710.944 393.079 710.944 393.1C710.944 393.121 710.944 393.121 710.944 393.143L696.717 465.524C696.695 465.653 696.588 465.782 696.459 465.825C696.331 465.889 696.18 465.868 696.073 465.803L690.193 462.263L670.687 527.262C670.687 527.284 670.687 527.284 670.666 527.305C670.644 527.348 670.623 527.37 670.601 527.412L611.052 608.184C611.031 608.206 611.009 608.249 610.988 608.27C610.988 608.27 610.988 608.27 610.966 608.27L522.426 674.236C522.297 674.343 522.126 674.343 521.976 674.278C521.825 674.193 521.739 674.042 521.739 673.892L522.276 657.884L436.375 705.909C436.268 705.974 436.139 705.974 436.032 705.952L264.059 655.416L325.496 712.54C325.646 712.669 325.668 712.883 325.582 713.055C325.539 713.141 325.389 713.227 325.217 713.227ZM238.952 693.399L323.779 712.046L262.256 654.815L241.677 649.107L238.952 693.399ZM264.531 654.6L435.581 704.858L417.877 634.107L264.531 654.6ZM418.736 634L436.375 704.536L498.95 623.292L418.736 634ZM500.173 623.099L437.813 704.085L522.34 656.832L523.563 619.987L500.173 623.099ZM196.205 636.489L238.157 692.54L240.84 648.871L196.205 636.489ZM106.635 611.661L236.784 692.197L194.832 636.146L106.635 611.661ZM523.177 657.347L522.662 672.991L605.215 611.489L523.177 657.347ZM524.422 619.858L523.199 656.339L608.542 608.614L524.422 619.858ZM242.085 642.412L262.385 653.914L318.071 597.498L244.703 599.944L242.085 642.412ZM319.337 597.433L263.651 653.828L417.663 633.249L407.963 594.494L319.337 597.433ZM241.741 648.249L259.23 653.098L242.042 643.377L241.741 648.249ZM195.368 635.373L240.904 648.013L241.226 642.905L171.42 603.378L195.368 635.373ZM171.377 602.369L241.269 641.94L243.866 599.944L171.377 602.369ZM106.034 610.588L194.016 635.008L169.66 602.455L106.034 610.588ZM408.843 594.472L418.521 633.163L499.701 622.305L524.078 590.652L408.843 594.472ZM524.508 591.489L500.903 622.133L523.585 619.107L524.508 591.489ZM525.388 590.695L524.443 618.978L608.155 607.798L525.388 590.695ZM94.8322 556.811L104.21 609.966L168.566 601.725L94.8322 556.811ZM45.5621 526.79L102.557 607.82L83.4374 549.859L45.5621 526.79ZM526.396 590.03L610.451 607.39L634.335 543.163L526.396 590.03ZM635.43 542.713L612.19 605.18L668.992 528.121L635.43 542.713ZM84.5533 550.545L102.407 604.644L93.8665 556.211L84.5533 550.545ZM249.08 514.966L170.819 601.532L243.887 599.107L249.08 514.966ZM163.437 519.043L170.175 600.974L248.565 514.258L163.437 519.043ZM89.403 523.206L169.317 600.888L162.579 519.086L89.403 523.206ZM94.6391 555.674L166.806 599.622L89.0597 524.043L94.6391 555.674ZM249.981 514.215L244.745 599.064L318.951 596.597L389.895 524.73L249.981 514.215ZM390.624 525.224L320.196 596.554L407.749 593.635L390.624 525.224ZM391.504 525.159L408.629 593.614L523.242 589.815L391.504 525.159ZM392.191 524.558L524.486 589.472L515.709 500.245L392.191 524.558ZM568.713 489.795L525.795 589.343L634.743 542.048L660.923 471.64L568.713 489.795ZM516.546 500.074L525.237 588.485L567.705 490.009L516.546 500.074ZM84.1456 549.279L93.6734 555.073L88.0726 523.249L75.8195 523.958L84.1456 549.279ZM45.4119 525.696L83.0082 548.593L74.8967 524.022L45.4119 525.696ZM661.438 472.778L635.859 541.597L669.829 526.854L661.438 472.778ZM657.962 442.864L662.039 471.039L670.43 525.181L689.464 461.791L657.962 442.864ZM10.0473 430.031L44.3175 524.923L74.6177 523.185L65.841 496.597L10.0473 430.031ZM249.981 513.357L389.83 523.872L262.02 382.006L236.87 398.465L249.981 513.357ZM504.851 389.881L391.955 523.721L515.602 499.387L504.851 389.881ZM358.5 319.452L391.118 523.378L504.486 388.98L358.5 319.452ZM67.3431 498.357L75.519 523.121L87.5361 522.434L67.3431 498.357ZM262.75 381.512L390.217 522.992L357.642 319.431L262.75 381.512ZM156.956 450.954L89.446 522.327L162.493 518.228L156.956 450.954ZM66.6135 496.147L88.4159 522.176L156.42 450.288L46.0557 433.872L66.6135 496.147ZM157.815 450.846L163.351 518.185L248.308 513.4L157.815 450.846ZM158.072 449.988L249.037 512.863L236.055 398.958L158.072 449.988ZM505.667 389.366L516.461 499.215L568.113 489.044L602.34 409.645L505.667 389.366ZM9.87565 428.486L65.1114 494.387L45.1115 433.722L9.87565 428.486ZM603.155 409.945L569.143 488.85L661.138 470.739L657.018 442.284L603.155 409.945ZM690.472 461.383L696.009 464.709L708.434 401.555L690.472 461.383ZM657.79 441.748L689.7 460.911L709.936 393.508L652.082 402.284L657.79 441.748ZM45.7553 432.95L156.184 449.387L105.283 392.885L40.4119 416.748L45.7553 432.95ZM106.163 392.563L156.978 448.958L162.729 371.791L106.163 392.563ZM163.587 371.448L157.858 448.464L229.359 347.263L163.587 371.448ZM230.218 347.542L158.952 448.4L235.969 397.993L230.218 347.542ZM604.185 409.581L656.846 441.19L651.245 402.435L604.185 409.581ZM10.5623 427.714L44.8111 432.821L39.5965 417.048L10.5623 427.714ZM26.9571 378.701L9.5323 427.177L39.3175 416.233L26.9571 378.701ZM6.35636 316.233L9.18896 425.61L26.5064 377.392L6.35636 316.233ZM27.4292 377.392L40.133 415.932L104.66 392.199L45.648 326.706L27.4292 377.392ZM637.468 307.349L603.563 408.808L651.095 401.598L637.468 307.349ZM506.31 388.615L602.211 408.722L574.207 345.89L506.31 388.615ZM574.937 345.439L602.898 408.143L636.868 306.491L574.937 345.439ZM638.284 306.942L651.975 401.469L709.743 392.692L638.284 306.942ZM231.097 347.671L236.784 397.499L261.462 381.362L231.097 347.671ZM46.1844 325.997L105.54 391.877L162.772 370.825L170.776 263.294L46.1844 325.997ZM638.305 305.611L709.786 391.405L693.155 310.375L653.219 297.607L638.305 305.611ZM694.077 310.676L710.064 388.529L709.206 315.525L694.077 310.676ZM359.101 318.787L504.894 388.207L535.688 260.418L359.101 318.787ZM536.396 261.105L505.838 387.885L573.842 345.096L536.396 261.105ZM231.334 346.641L262.17 380.868L355.775 319.624L231.334 346.641ZM6.52803 313.98L27 376.061L44.9398 326.148L6.52803 313.98ZM171.591 263.787L163.652 370.504L229.831 346.169L171.591 263.787ZM172.321 263.337L230.69 345.89L356.225 318.637L172.321 263.337ZM537.126 260.633L574.572 344.645L636.717 305.547L537.126 260.633ZM6.35636 313.036L44.9184 325.246L25.5622 228.68L6.35636 313.036ZM54.1028 234.088L45.9913 325.139L170.046 262.693L54.1028 234.088ZM26.1631 227.2L45.3261 322.886L53.2659 233.895L26.1631 227.2ZM377.363 212.543L358.522 318.079L534.872 259.796L377.363 212.543ZM172.3 262.436L356.547 317.843L255.561 210.483L172.3 262.436ZM256.29 210.032L357.685 317.821L376.526 212.307L292.878 187.2L256.29 210.032ZM654.271 297.049L692.962 309.41L686.824 279.538L654.271 297.049ZM543.306 262.478L637.125 304.796L635.58 291.985L543.306 262.478ZM641.202 293.766L638.305 304.646L652.061 297.242L641.202 293.766ZM636.481 292.242L637.812 303.208L640.408 293.487L636.481 292.242ZM641.417 292.929L653.112 296.663L686.631 278.637L668.606 190.827L641.417 292.929ZM636.352 291.319L640.601 292.671L667.983 189.818L626.717 211.878L636.352 291.319ZM537.383 259.689L635.473 291.041L625.945 212.329L537.383 259.689ZM670.065 193.681L687.425 278.229L700.773 271.041L670.065 193.681ZM88.373 179.303L171.098 261.792L209.939 162.586L88.373 179.303ZM54.1672 233.23L169.853 261.792L87.4074 179.582L56.8496 203.101L54.1672 233.23ZM210.754 162.865L172.128 261.534L254.96 209.861L210.754 162.865ZM377.513 211.706L534.679 258.852L392.942 125.312L377.513 211.706ZM394.101 125.226L535.838 258.766L533.757 157.865L394.101 125.226ZM584.937 169.84L537.34 258.745L625.838 211.406L621.846 178.466L584.937 169.84ZM534.615 158.08L536.675 258.144L584.057 169.646L534.615 158.08ZM26.5708 226.427L53.3303 233.037L55.9269 203.809L26.5708 226.427ZM59.0599 168.809L27.3433 224.453L56.4848 197.736L59.0599 168.809ZM56.3561 199.002L33.2446 220.204L56.0342 202.651L56.3561 199.002ZM293.844 186.599L376.676 211.449L392.062 125.312L293.844 186.599ZM622.726 178.681L626.632 210.977L667.468 189.131L622.726 178.681ZM212.02 162.951L255.711 209.389L291.784 186.878L212.02 162.951ZM57.3002 198.123L56.9569 201.921L86.6134 179.088L80.8194 176.556L57.3002 198.123ZM60.0256 167.522L57.4075 196.857L79.9396 176.191L60.0256 167.522ZM622.619 177.758L667.661 188.294L615.087 115.419L622.619 177.758ZM212.364 162.157L292.749 186.277L390.388 125.355L212.364 162.157ZM116.742 143.638L88.4803 178.423L209.445 161.792L144.381 118.295L116.742 143.638ZM81.5061 175.934L87.2142 178.423L91.4631 166.814L81.5061 175.934ZM585.344 169.046L621.717 177.543L614.164 115.183L585.344 169.046ZM92.8151 165.569L88.7378 176.749L112.407 147.629L92.8151 165.569ZM60.3474 166.728L80.6478 175.569L92.0854 165.076L115.39 101.364L60.3474 166.728ZM534.593 157.2L584.486 168.852L613.713 114.282L533.799 118.123L534.593 157.2ZM116.849 99.8829L93.4588 163.81L116.098 143.059L139.081 114.775L116.849 99.8829ZM254.509 66.9217L211.355 161.47L391.225 124.303L254.509 66.9217ZM145.025 117.694L210.089 161.192L200.239 67.0719L145.025 117.694ZM201.012 66.3638L210.862 160.462L253.715 66.5998L217.385 51.3424L201.012 66.3638ZM395.732 124.733L533.735 156.986L532.941 118.145L395.732 124.733ZM139.81 115.248L120.454 139.089L143.652 117.823L139.81 115.248ZM495.731 70.3122L394.551 123.917L532.92 117.286L532.233 83.8315L495.731 70.3122ZM254.874 66.1492L391.826 123.638L357.019 44.0892L265.153 43.5742L254.874 66.1492ZM426.268 44.5828L393.5 123.509L494.658 69.9045L426.268 44.5828ZM357.964 44.1107L392.642 123.359L425.388 44.4755L357.964 44.1107ZM533.091 84.1534L533.778 117.265L612.318 113.488L533.091 84.1534ZM140.347 114.582L144.295 117.222L200.132 66.0419L197.814 43.8961L140.347 114.582ZM117.386 99.2176L139.617 114.089L195.862 44.8617L117.386 99.2176ZM533.07 83.2306L611.911 112.415L532.405 51.5141L533.07 83.2306ZM496.74 69.7758L532.211 82.9087L531.568 51.3424L496.74 69.7758ZM428.907 44.6472L495.667 69.368L530.43 50.9561L428.907 44.6472ZM218.093 50.7201L254.08 65.8273L264.23 43.5957L226.097 43.3811L218.093 50.7201ZM198.608 43.4669L200.905 65.2908L216.527 50.9776L198.608 43.4669ZM200.282 43.2309L217.213 50.3338L224.81 43.3596L200.282 43.2309ZM426.719 43.66L526.997 49.8832L435.131 28.0807L426.719 43.66ZM435.56 27.3082L526.332 48.8531L442.019 15.334L435.56 27.3082ZM357.577 43.2309L424.015 43.5957L341.311 6.04225L357.577 43.2309ZM344.68 6.62165L425.839 43.4884L434.272 27.8876L344.68 6.62165ZM265.561 42.7373L356.655 43.2309L340.217 5.65599L278.694 13.9821L265.561 42.7373ZM200.368 42.3725L225.754 42.5013L244.874 24.9692L200.368 42.3725Z" fill="#59A52C" fill-opacity="0.5"/>
<path d="M198.113 48.0009C200.981 48.0009 203.306 45.6759 203.306 42.8078C203.306 39.9398 200.981 37.6147 198.113 37.6147C195.244 37.6147 192.919 39.9398 192.919 42.8078C192.919 45.6759 195.244 48.0009 198.113 48.0009Z" fill="#59A52C" fill-opacity="0.5"/>
<path d="M246.841 27.6992C249.021 27.6992 250.789 25.9314 250.789 23.7507C250.789 21.57 249.021 19.8022 246.841 19.8022C244.66 19.8022 242.892 21.57 242.892 23.7507C242.892 25.9314 244.66 27.6992 246.841 27.6992Z" fill="#59A52C" fill-opacity="0.5"/>
<path d="M30.795 226.627C30.795 229.503 28.4774 231.82 25.6019 231.82C22.7264 231.82 20.4088 229.503 20.4088 226.627C20.4088 223.752 22.7264 221.434 25.6019 221.434C28.456 221.434 30.795 223.752 30.795 226.627Z" fill="#59A52C" fill-opacity="0.5"/>
<path d="M11.0268 313.346C11.0268 316.222 8.70925 318.539 5.83373 318.539C2.95821 318.539 0.640625 316.222 0.640625 313.346C0.640625 310.471 2.95821 308.153 5.83373 308.153C8.70925 308.153 11.0268 310.471 11.0268 313.346Z" fill="#59A52C" fill-opacity="0.5"/>
<path d="M109.05 610.443C109.05 613.318 106.733 615.636 103.857 615.636C100.982 615.636 98.6641 613.318 98.6641 610.443C98.6641 607.567 100.982 605.25 103.857 605.25C106.711 605.25 109.05 607.567 109.05 610.443Z" fill="#59A52C" fill-opacity="0.5"/>
<path d="M267.668 654.435C267.668 657.31 265.351 659.628 262.475 659.628C259.6 659.628 257.282 657.31 257.282 654.435C257.282 651.559 259.6 649.241 262.475 649.241C265.329 649.241 267.668 651.581 267.668 654.435Z" fill="#59A52C" fill-opacity="0.5"/>
<path d="M169.83 607.181C172.698 607.181 175.023 604.856 175.023 601.988C175.023 599.119 172.698 596.794 169.83 596.794C166.962 596.794 164.637 599.119 164.637 601.988C164.637 604.856 166.962 607.181 169.83 607.181Z" fill="#59A52C" fill-opacity="0.5"/>
<path d="M524.975 595.379C527.843 595.379 530.168 593.054 530.168 590.186C530.168 587.318 527.843 584.993 524.975 584.993C522.107 584.993 519.782 587.318 519.782 590.186C519.782 593.054 522.107 595.379 524.975 595.379Z" fill="#59A52C" fill-opacity="0.5"/>
<path d="M608.129 409.325C608.129 412.201 605.811 414.518 602.935 414.518C600.06 414.518 597.742 412.201 597.742 409.325C597.742 406.45 600.06 404.132 602.935 404.132C605.811 404.132 608.129 406.471 608.129 409.325Z" fill="#59A52C" fill-opacity="0.5"/>
<path d="M510.383 388.836C510.383 391.712 508.066 394.029 505.19 394.029C502.315 394.029 499.997 391.712 499.997 388.836C499.997 385.961 502.315 383.643 505.19 383.643C508.044 383.643 510.383 385.961 510.383 388.836Z" fill="#59A52C" fill-opacity="0.5"/>
<path d="M524.975 595.379C527.843 595.379 530.168 593.054 530.168 590.186C530.168 587.318 527.843 584.993 524.975 584.993C522.107 584.993 519.782 587.318 519.782 590.186C519.782 593.054 522.107 595.379 524.975 595.379Z" fill="#59A52C" fill-opacity="0.5"/>
<path d="M396.048 524.373C396.048 527.249 393.73 529.566 390.855 529.566C387.979 529.566 385.662 527.249 385.662 524.373C385.662 521.497 387.979 519.18 390.855 519.18C393.73 519.18 396.048 521.519 396.048 524.373Z" fill="#59A52C" fill-opacity="0.5"/>
<path d="M666.801 471.087C666.801 473.963 664.484 476.28 661.608 476.28C658.733 476.28 656.415 473.963 656.415 471.087C656.415 468.212 658.733 465.894 661.608 465.894C664.462 465.894 666.801 468.212 666.801 471.087Z" fill="#59A52C" fill-opacity="0.5"/>
<path d="M642.826 305.489C642.826 308.365 640.509 310.682 637.633 310.682C634.758 310.682 632.44 308.365 632.44 305.489C632.44 302.614 634.758 300.296 637.633 300.296C640.509 300.296 642.826 302.635 642.826 305.489Z" fill="#59A52C" fill-opacity="0.5"/>
<path d="M710.544 398.19C713.412 398.19 715.737 395.865 715.737 392.996C715.737 390.128 713.412 387.803 710.544 387.803C707.676 387.803 705.351 390.128 705.351 392.996C705.351 395.865 707.676 398.19 710.544 398.19Z" fill="#59A52C" fill-opacity="0.5"/>
<path d="M608.129 409.325C608.129 412.201 605.811 414.518 602.935 414.518C600.06 414.518 597.742 412.201 597.742 409.325C597.742 406.45 600.06 404.132 602.935 404.132C605.811 404.132 608.129 406.471 608.129 409.325Z" fill="#59A52C" fill-opacity="0.5"/>
<path d="M700.248 465.404C700.248 467.572 698.488 469.331 696.321 469.331C694.154 469.331 692.394 467.572 692.394 465.404C692.394 463.237 694.154 461.477 696.321 461.477C698.488 461.456 700.248 463.215 700.248 465.404Z" fill="#59A52C" fill-opacity="0.5"/>
<path d="M710.544 398.19C713.412 398.19 715.737 395.865 715.737 392.996C715.737 390.128 713.412 387.803 710.544 387.803C707.676 387.803 705.351 390.128 705.351 392.996C705.351 395.865 707.676 398.19 710.544 398.19Z" fill="#59A52C" fill-opacity="0.5"/>
<path d="M670.291 532.306C673.159 532.306 675.484 529.981 675.484 527.113C675.484 524.245 673.159 521.92 670.291 521.92C667.423 521.92 665.098 524.245 665.098 527.113C665.098 529.981 667.423 532.306 670.291 532.306Z" fill="#59A52C" fill-opacity="0.5"/>
<path d="M666.801 471.087C666.801 473.963 664.484 476.28 661.608 476.28C658.733 476.28 656.415 473.963 656.415 471.087C656.415 468.212 658.733 465.894 661.608 465.894C664.462 465.894 666.801 468.212 666.801 471.087Z" fill="#59A52C" fill-opacity="0.5"/>
<path d="M615.918 607.914C615.918 610.789 613.6 613.107 610.725 613.107C607.849 613.107 605.532 610.789 605.532 607.914C605.532 605.038 607.849 602.721 610.725 602.721C613.6 602.721 615.918 605.038 615.918 607.914Z" fill="#59A52C" fill-opacity="0.5"/>
<path d="M670.293 532.913C673.493 532.913 676.087 530.319 676.087 527.119C676.087 523.919 673.493 521.325 670.293 521.325C667.093 521.325 664.499 523.919 664.499 527.119C664.499 530.319 667.093 532.913 670.293 532.913Z" fill="#59A52C" fill-opacity="0.5"/>
<path d="M524.975 595.379C527.843 595.379 530.168 593.054 530.168 590.186C530.168 587.318 527.843 584.993 524.975 584.993C522.107 584.993 519.782 587.318 519.782 590.186C519.782 593.054 522.107 595.379 524.975 595.379Z" fill="#59A52C" fill-opacity="0.5"/>
<path d="M615.918 607.914C615.918 610.789 613.6 613.107 610.725 613.107C607.849 613.107 605.532 610.789 605.532 607.914C605.532 605.038 607.849 602.721 610.725 602.721C613.6 602.721 615.918 605.038 615.918 607.914Z" fill="#59A52C" fill-opacity="0.5"/>
<path d="M528.41 673.859C528.41 677.292 525.62 680.082 522.187 680.082C518.753 680.082 515.964 677.292 515.964 673.859C515.964 670.425 518.753 667.635 522.187 667.635C525.62 667.657 528.41 670.425 528.41 673.859Z" fill="#59A52C" fill-opacity="0.5"/>
<path d="M524.965 598.085C529.326 598.085 532.862 594.549 532.862 590.188C532.862 585.826 529.326 582.291 524.965 582.291C520.603 582.291 517.068 585.826 517.068 590.188C517.068 594.549 520.603 598.085 524.965 598.085Z" fill="#59A52C" fill-opacity="0.5"/>
<path d="M441.367 705.486C441.367 708.362 439.05 710.679 436.174 710.679C433.299 710.679 430.981 708.362 430.981 705.486C430.981 702.611 433.299 700.293 436.174 700.293C439.05 700.293 441.367 702.632 441.367 705.486Z" fill="#59A52C" fill-opacity="0.5"/>
<path d="M615.918 607.914C615.918 610.789 613.6 613.107 610.725 613.107C607.849 613.107 605.532 610.789 605.532 607.914C605.532 605.038 607.849 602.721 610.725 602.721C613.6 602.721 615.918 605.038 615.918 607.914Z" fill="#59A52C" fill-opacity="0.5"/>
<path d="M267.668 654.435C267.668 657.31 265.351 659.628 262.475 659.628C259.6 659.628 257.282 657.31 257.282 654.435C257.282 651.559 259.6 649.241 262.475 649.241C265.329 649.241 267.668 651.581 267.668 654.435Z" fill="#59A52C" fill-opacity="0.5"/>
<path d="M396.048 524.373C396.048 527.249 393.73 529.566 390.855 529.566C387.979 529.566 385.662 527.249 385.662 524.373C385.662 521.497 387.979 519.18 390.855 519.18C393.73 519.18 396.048 521.519 396.048 524.373Z" fill="#59A52C" fill-opacity="0.5"/>
<path d="M441.367 705.486C441.367 708.362 439.05 710.679 436.174 710.679C433.299 710.679 430.981 708.362 430.981 705.486C430.981 702.611 433.299 700.293 436.174 700.293C439.05 700.293 441.367 702.632 441.367 705.486Z" fill="#59A52C" fill-opacity="0.5"/>
<path d="M271.244 654.431C271.244 659.281 267.317 663.208 262.468 663.208C257.618 663.208 253.691 659.281 253.691 654.431C253.691 649.582 257.618 645.655 262.468 645.655C267.317 645.655 271.244 649.603 271.244 654.431Z" fill="#59A52C" fill-opacity="0.5"/>
<path d="M330.395 712.803C330.395 715.679 328.078 717.997 325.202 717.997C322.327 717.997 320.009 715.679 320.009 712.803C320.009 709.928 322.327 707.61 325.202 707.61C328.078 707.61 330.395 709.928 330.395 712.803Z" fill="#59A52C" fill-opacity="0.5"/>
<path d="M243.693 693.748C243.693 696.623 241.376 698.941 238.5 698.941C235.625 698.941 233.307 696.623 233.307 693.748C233.307 690.872 235.625 688.554 238.5 688.554C241.354 688.554 243.693 690.872 243.693 693.748Z" fill="#59A52C" fill-opacity="0.5"/>
<path d="M254.787 513.768C254.787 516.644 252.47 518.961 249.594 518.961C246.719 518.961 244.401 516.644 244.401 513.768C244.401 510.893 246.719 508.575 249.594 508.575C252.448 508.575 254.787 510.893 254.787 513.768Z" fill="#59A52C" fill-opacity="0.5"/>
<path d="M396.048 524.373C396.048 527.249 393.73 529.566 390.855 529.566C387.979 529.566 385.662 527.249 385.662 524.373C385.662 521.497 387.979 519.18 390.855 519.18C393.73 519.18 396.048 521.519 396.048 524.373Z" fill="#59A52C" fill-opacity="0.5"/>
<path d="M510.383 388.836C510.383 391.712 508.066 394.029 505.19 394.029C502.315 394.029 499.997 391.712 499.997 388.836C499.997 385.961 502.315 383.643 505.19 383.643C508.044 383.643 510.383 385.961 510.383 388.836Z" fill="#59A52C" fill-opacity="0.5"/>
<path d="M642.826 305.489C642.826 308.365 640.509 310.682 637.633 310.682C634.758 310.682 632.44 308.365 632.44 305.489C632.44 302.614 634.758 300.296 637.633 300.296C640.509 300.296 642.826 302.635 642.826 305.489Z" fill="#59A52C" fill-opacity="0.5"/>
<path d="M609.929 409.328C609.929 413.19 606.796 416.302 602.955 416.302C599.092 416.302 595.981 413.169 595.981 409.328C595.981 405.465 599.114 402.354 602.955 402.354C606.796 402.354 609.929 405.465 609.929 409.328Z" fill="#59A52C" fill-opacity="0.5"/>
<path d="M541.465 259.782C541.465 262.658 539.147 264.975 536.271 264.975C533.396 264.975 531.078 262.658 531.078 259.782C531.078 256.907 533.396 254.589 536.271 254.589C539.125 254.589 541.465 256.928 541.465 259.782Z" fill="#59A52C" fill-opacity="0.5"/>
<path d="M513.445 388.833C513.445 393.403 509.732 397.116 505.161 397.116C500.591 397.116 496.878 393.403 496.878 388.833C496.878 384.262 500.591 380.549 505.161 380.549C509.754 380.549 513.445 384.262 513.445 388.833Z" fill="#59A52C" fill-opacity="0.5"/>
<path d="M363.154 318.729C363.154 321.604 360.837 323.922 357.961 323.922C355.086 323.922 352.768 321.604 352.768 318.729C352.768 315.853 355.086 313.536 357.961 313.536C360.815 313.536 363.154 315.853 363.154 318.729Z" fill="#59A52C" fill-opacity="0.5"/>
<path d="M399.003 524.367C399.003 528.873 395.355 532.522 390.849 532.522C386.343 532.522 382.694 528.873 382.694 524.367C382.694 519.861 386.343 516.213 390.849 516.213C395.355 516.213 399.003 519.861 399.003 524.367Z" fill="#59A52C" fill-opacity="0.5"/>
<path d="M230.517 351.58C233.385 351.58 235.71 349.255 235.71 346.387C235.71 343.519 233.385 341.194 230.517 341.194C227.649 341.194 225.324 343.519 225.324 346.387C225.324 349.255 227.649 351.58 230.517 351.58Z" fill="#59A52C" fill-opacity="0.5"/>
<path d="M254.787 513.768C254.787 516.644 252.47 518.961 249.594 518.961C246.719 518.961 244.401 516.644 244.401 513.768C244.401 510.893 246.719 508.575 249.594 508.575C252.448 508.575 254.787 510.893 254.787 513.768Z" fill="#59A52C" fill-opacity="0.5"/>
<path d="M169.83 607.181C172.698 607.181 175.023 604.856 175.023 601.988C175.023 599.119 172.698 596.794 169.83 596.794C166.962 596.794 164.637 599.119 164.637 601.988C164.637 604.856 166.962 607.181 169.83 607.181Z" fill="#59A52C" fill-opacity="0.5"/>
<path d="M244.848 693.743C244.848 697.262 241.994 700.095 238.496 700.095C234.977 700.095 232.144 697.241 232.144 693.743C232.144 690.224 234.998 687.391 238.496 687.391C241.994 687.37 244.848 690.224 244.848 693.743Z" fill="#59A52C" fill-opacity="0.5"/>
<path d="M109.05 610.443C109.05 613.318 106.733 615.636 103.857 615.636C100.982 615.636 98.6641 613.318 98.6641 610.443C98.6641 607.567 100.982 605.25 103.857 605.25C106.711 605.25 109.05 607.567 109.05 610.443Z" fill="#59A52C" fill-opacity="0.5"/>
<path d="M169.83 607.181C172.698 607.181 175.023 604.856 175.023 601.988C175.023 599.119 172.698 596.794 169.83 596.794C166.962 596.794 164.637 599.119 164.637 601.988C164.637 604.856 166.962 607.181 169.83 607.181Z" fill="#59A52C" fill-opacity="0.5"/>
<path d="M162.513 449.996C162.513 452.871 160.195 455.189 157.32 455.189C154.444 455.189 152.127 452.871 152.127 449.996C152.127 447.12 154.444 444.802 157.32 444.802C160.174 444.802 162.513 447.12 162.513 449.996Z" fill="#59A52C" fill-opacity="0.5"/>
<path d="M254.787 513.768C254.787 516.644 252.47 518.961 249.594 518.961C246.719 518.961 244.401 516.644 244.401 513.768C244.401 510.893 246.719 508.575 249.594 508.575C252.448 508.575 254.787 510.893 254.787 513.768Z" fill="#59A52C" fill-opacity="0.5"/>
<path d="M93.5982 522.822C93.5982 525.697 91.2807 528.015 88.4051 528.015C85.5296 528.015 83.212 525.697 83.212 522.822C83.212 519.946 85.5296 517.629 88.4051 517.629C91.2592 517.629 93.5982 519.946 93.5982 522.822Z" fill="#59A52C" fill-opacity="0.5"/>
<path d="M169.83 607.181C172.698 607.181 175.023 604.856 175.023 601.988C175.023 599.119 172.698 596.794 169.83 596.794C166.962 596.794 164.637 599.119 164.637 601.988C164.637 604.856 166.962 607.181 169.83 607.181Z" fill="#59A52C" fill-opacity="0.5"/>
<path d="M49.1976 525.355C49.1976 528.231 46.88 530.548 44.0045 530.548C41.129 530.548 38.8114 528.231 38.8114 525.355C38.8114 522.48 41.129 520.162 44.0045 520.162C46.88 520.162 49.1976 522.48 49.1976 525.355Z" fill="#59A52C" fill-opacity="0.5"/>
<path d="M109.05 610.443C109.05 613.318 106.733 615.636 103.857 615.636C100.982 615.636 98.6641 613.318 98.6641 610.443C98.6641 607.567 100.982 605.25 103.857 605.25C106.711 605.25 109.05 607.567 109.05 610.443Z" fill="#59A52C" fill-opacity="0.5"/>
<path d="M93.5982 522.822C93.5982 525.697 91.2807 528.015 88.4051 528.015C85.5296 528.015 83.212 525.697 83.212 522.822C83.212 519.946 85.5296 517.629 88.4051 517.629C91.2592 517.629 93.5982 519.946 93.5982 522.822Z" fill="#59A52C" fill-opacity="0.5"/>
<path d="M49.1976 525.355C49.1976 528.231 46.88 530.548 44.0045 530.548C41.129 530.548 38.8114 528.231 38.8114 525.355C38.8114 522.48 41.129 520.162 44.0045 520.162C46.88 520.162 49.1976 522.48 49.1976 525.355Z" fill="#59A52C" fill-opacity="0.5"/>
<path d="M14.0111 427.892C14.0111 430.768 11.6935 433.085 8.81798 433.085C5.94246 433.085 3.62488 430.768 3.62488 427.892C3.62488 425.017 5.94246 422.699 8.81798 422.699C11.6935 422.699 14.0111 425.038 14.0111 427.892Z" fill="#59A52C" fill-opacity="0.5"/>
<path d="M95.19 522.821C95.19 526.577 92.1428 529.624 88.3875 529.624C84.6322 529.624 81.585 526.577 81.585 522.821C81.585 519.066 84.6322 516.019 88.3875 516.019C92.1643 516.019 95.19 519.066 95.19 522.821Z" fill="#59A52C" fill-opacity="0.5"/>
<path d="M162.513 449.996C162.513 452.871 160.195 455.189 157.32 455.189C154.444 455.189 152.127 452.871 152.127 449.996C152.127 447.12 154.444 444.802 157.32 444.802C160.174 444.802 162.513 447.12 162.513 449.996Z" fill="#59A52C" fill-opacity="0.5"/>
<path d="M363.154 318.729C363.154 321.604 360.837 323.922 357.961 323.922C355.086 323.922 352.768 321.604 352.768 318.729C352.768 315.853 355.086 313.536 357.961 313.536C360.815 313.536 363.154 315.853 363.154 318.729Z" fill="#59A52C" fill-opacity="0.5"/>
<path d="M541.465 259.782C541.465 262.658 539.147 264.975 536.271 264.975C533.396 264.975 531.078 262.658 531.078 259.782C531.078 256.907 533.396 254.589 536.271 254.589C539.125 254.589 541.465 256.928 541.465 259.782Z" fill="#59A52C" fill-opacity="0.5"/>
<path d="M712.832 315.186C712.832 316.945 711.416 318.362 709.656 318.362C707.897 318.362 706.48 316.945 706.48 315.186C706.48 313.426 707.897 312.01 709.656 312.01C711.416 312.01 712.832 313.426 712.832 315.186Z" fill="#59A52C" fill-opacity="0.5"/>
<path d="M710.544 398.19C713.412 398.19 715.737 395.865 715.737 392.996C715.737 390.128 713.412 387.803 710.544 387.803C707.676 387.803 705.351 390.128 705.351 392.996C705.351 395.865 707.676 398.19 710.544 398.19Z" fill="#59A52C" fill-opacity="0.5"/>
<path d="M673.865 188.983C673.865 191.859 671.548 194.176 668.672 194.176C665.797 194.176 663.479 191.859 663.479 188.983C663.479 186.108 665.797 183.79 668.672 183.79C671.548 183.79 673.865 186.108 673.865 188.983Z" fill="#59A52C" fill-opacity="0.5"/>
<path d="M541.465 259.782C541.465 262.658 539.147 264.975 536.271 264.975C533.396 264.975 531.078 262.658 531.078 259.782C531.078 256.907 533.396 254.589 536.271 254.589C539.125 254.589 541.465 256.928 541.465 259.782Z" fill="#59A52C" fill-opacity="0.5"/>
<path d="M642.826 305.489C642.826 308.365 640.509 310.682 637.633 310.682C634.758 310.682 632.44 308.365 632.44 305.489C632.44 302.614 634.758 300.296 637.633 300.296C640.509 300.296 642.826 302.635 642.826 305.489Z" fill="#59A52C" fill-opacity="0.5"/>
<path d="M706.523 271.238C706.523 274.114 704.206 276.432 701.33 276.432C698.455 276.432 696.137 274.114 696.137 271.238C696.137 268.363 698.455 266.045 701.33 266.045C704.184 266.045 706.523 268.384 706.523 271.238Z" fill="#59A52C" fill-opacity="0.5"/>
<path d="M673.865 188.983C673.865 191.859 671.548 194.176 668.672 194.176C665.797 194.176 663.479 191.859 663.479 188.983C663.479 186.108 665.797 183.79 668.672 183.79C671.548 183.79 673.865 186.108 673.865 188.983Z" fill="#59A52C" fill-opacity="0.5"/>
<path d="M642.826 305.489C642.826 308.365 640.509 310.682 637.633 310.682C634.758 310.682 632.44 308.365 632.44 305.489C632.44 302.614 634.758 300.296 637.633 300.296C640.509 300.296 642.826 302.635 642.826 305.489Z" fill="#59A52C" fill-opacity="0.5"/>
<path d="M397.827 124.456C397.827 127.332 395.509 129.649 392.634 129.649C389.758 129.649 387.44 127.332 387.44 124.456C387.44 121.581 389.758 119.263 392.634 119.263C395.509 119.263 397.827 121.581 397.827 124.456Z" fill="#59A52C" fill-opacity="0.5"/>
<path d="M673.865 188.983C673.865 191.859 671.548 194.176 668.672 194.176C665.797 194.176 663.479 191.859 663.479 188.983C663.479 186.108 665.797 183.79 668.672 183.79C671.548 183.79 673.865 186.108 673.865 188.983Z" fill="#59A52C" fill-opacity="0.5"/>
<path d="M541.465 259.782C541.465 262.658 539.147 264.975 536.271 264.975C533.396 264.975 531.078 262.658 531.078 259.782C531.078 256.907 533.396 254.589 536.271 254.589C539.125 254.589 541.465 256.928 541.465 259.782Z" fill="#59A52C" fill-opacity="0.5"/>
<path d="M537.157 50.6224C537.157 53.4979 534.839 55.8155 531.964 55.8155C529.088 55.8155 526.771 53.4979 526.771 50.6224C526.771 47.7469 529.088 45.4293 531.964 45.4293C534.839 45.4293 537.157 47.7684 537.157 50.6224Z" fill="#59A52C" fill-opacity="0.5"/>
<path d="M618.559 113.815C618.559 116.09 616.714 117.914 614.461 117.914C612.186 117.914 610.362 116.068 610.362 113.815C610.362 111.562 612.208 109.716 614.461 109.716C616.714 109.695 618.559 111.54 618.559 113.815Z" fill="#59A52C" fill-opacity="0.5"/>
<path d="M426.033 49.2443C428.901 49.2443 431.226 46.9193 431.226 44.0513C431.226 41.1832 428.901 38.8582 426.033 38.8582C423.165 38.8582 420.84 41.1832 420.84 44.0513C420.84 46.9193 423.165 49.2443 426.033 49.2443Z" fill="#59A52C" fill-opacity="0.5"/>
<path d="M447.016 14.8036C447.016 17.6791 444.698 19.9967 441.822 19.9967C438.947 19.9967 436.629 17.6791 436.629 14.8036C436.629 11.9281 438.947 9.61047 441.822 9.61047C444.698 9.61047 447.016 11.9281 447.016 14.8036Z" fill="#59A52C" fill-opacity="0.5"/>
<path d="M495.805 73.0189C497.535 73.0189 498.938 71.6162 498.938 69.8859C498.938 68.1556 497.535 66.7529 495.805 66.7529C494.074 66.7529 492.672 68.1556 492.672 69.8859C492.672 71.6162 494.074 73.0189 495.805 73.0189Z" fill="#59A52C" fill-opacity="0.5"/>
<path d="M535.763 83.6246C535.763 85.2985 534.411 86.6289 532.759 86.6289C531.085 86.6289 529.755 85.277 529.755 83.6246C529.755 81.9508 531.107 80.6204 532.759 80.6204C534.411 80.5989 535.763 81.9508 535.763 83.6246Z" fill="#59A52C" fill-opacity="0.5"/>
<path d="M533.703 160.399C535.363 160.399 536.708 159.054 536.708 157.395C536.708 155.736 535.363 154.391 533.703 154.391C532.044 154.391 530.699 155.736 530.699 157.395C530.699 159.054 532.044 160.399 533.703 160.399Z" fill="#59A52C" fill-opacity="0.5"/>
<path d="M533.45 120.399C535.11 120.399 536.455 119.054 536.455 117.395C536.455 115.736 535.11 114.391 533.45 114.391C531.791 114.391 530.446 115.736 530.446 117.395C530.446 119.054 531.791 120.399 533.45 120.399Z" fill="#59A52C" fill-opacity="0.5"/>
<path d="M584.351 172.42C586.01 172.42 587.355 171.075 587.355 169.416C587.355 167.757 586.01 166.412 584.351 166.412C582.691 166.412 581.346 167.757 581.346 169.416C581.346 171.075 582.691 172.42 584.351 172.42Z" fill="#59A52C" fill-opacity="0.5"/>
<path d="M621.999 180.855C623.658 180.855 625.003 179.509 625.003 177.85C625.003 176.191 623.658 174.846 621.999 174.846C620.339 174.846 618.994 176.191 618.994 177.85C618.994 179.509 620.339 180.855 621.999 180.855Z" fill="#59A52C" fill-opacity="0.5"/>
<path d="M629.563 211.625C629.563 213.299 628.212 214.629 626.559 214.629C624.907 214.629 623.555 213.277 623.555 211.625C623.555 209.951 624.907 208.621 626.559 208.621C628.212 208.621 629.563 209.951 629.563 211.625Z" fill="#59A52C" fill-opacity="0.5"/>
<path d="M635.849 294.204C637.508 294.204 638.853 292.859 638.853 291.199C638.853 289.54 637.508 288.195 635.849 288.195C634.19 288.195 632.845 289.54 632.845 291.199C632.845 292.859 634.19 294.204 635.849 294.204Z" fill="#59A52C" fill-opacity="0.5"/>
<path d="M656.388 297.265C656.388 298.938 655.036 300.269 653.383 300.269C651.71 300.269 650.379 298.917 650.379 297.265C650.379 295.612 651.731 294.26 653.383 294.26C655.036 294.26 656.388 295.591 656.388 297.265Z" fill="#59A52C" fill-opacity="0.5"/>
<path d="M574.69 347.852C576.349 347.852 577.694 346.507 577.694 344.848C577.694 343.188 576.349 341.843 574.69 341.843C573.031 341.843 571.686 343.188 571.686 344.848C571.686 346.507 573.031 347.852 574.69 347.852Z" fill="#59A52C" fill-opacity="0.5"/>
<path d="M651.579 405.062C653.239 405.062 654.584 403.717 654.584 402.057C654.584 400.398 653.239 399.053 651.579 399.053C649.92 399.053 648.575 400.398 648.575 402.057C648.575 403.717 649.92 405.062 651.579 405.062Z" fill="#59A52C" fill-opacity="0.5"/>
<path d="M660.316 442.117C660.316 443.79 658.964 445.121 657.312 445.121C655.659 445.121 654.307 443.769 654.307 442.117C654.307 440.464 655.659 439.112 657.312 439.112C658.964 439.112 660.316 440.443 660.316 442.117Z" fill="#59A52C" fill-opacity="0.5"/>
<path d="M568.957 491.97C570.617 491.97 571.962 490.625 571.962 488.966C571.962 487.307 570.617 485.962 568.957 485.962C567.298 485.962 565.953 487.307 565.953 488.966C565.953 490.625 567.298 491.97 568.957 491.97Z" fill="#59A52C" fill-opacity="0.5"/>
<path d="M516.38 503.427C518.039 503.427 519.384 502.082 519.384 500.422C519.384 498.763 518.039 497.418 516.38 497.418C514.721 497.418 513.375 498.763 513.375 500.422C513.375 502.082 514.721 503.427 516.38 503.427Z" fill="#59A52C" fill-opacity="0.5"/>
<path d="M418.39 637.18C420.049 637.18 421.394 635.835 421.394 634.176C421.394 632.517 420.049 631.172 418.39 631.172C416.731 631.172 415.386 632.517 415.386 634.176C415.386 635.835 416.731 637.18 418.39 637.18Z" fill="#59A52C" fill-opacity="0.5"/>
<path d="M408.013 597.117C409.672 597.117 411.017 595.772 411.017 594.113C411.017 592.453 409.672 591.108 408.013 591.108C406.354 591.108 405.009 592.453 405.009 594.113C405.009 595.772 406.354 597.117 408.013 597.117Z" fill="#59A52C" fill-opacity="0.5"/>
<path d="M318.959 600.337C320.618 600.337 321.963 598.992 321.963 597.333C321.963 595.674 320.618 594.329 318.959 594.329C317.3 594.329 315.955 595.674 315.955 597.333C315.955 598.992 317.3 600.337 318.959 600.337Z" fill="#59A52C" fill-opacity="0.5"/>
<path d="M244.003 648.836C244.003 650.51 242.651 651.84 240.999 651.84C239.346 651.84 237.994 650.488 237.994 648.836C237.994 647.162 239.346 645.832 240.999 645.832C242.651 645.832 244.003 647.183 244.003 648.836Z" fill="#59A52C" fill-opacity="0.5"/>
<path d="M195.216 638.963C196.875 638.963 198.22 637.618 198.22 635.959C198.22 634.3 196.875 632.955 195.216 632.955C193.556 632.955 192.211 634.3 192.211 635.959C192.211 637.618 193.556 638.963 195.216 638.963Z" fill="#59A52C" fill-opacity="0.5"/>
<path d="M244.573 602.845C246.232 602.845 247.577 601.5 247.577 599.841C247.577 598.182 246.232 596.837 244.573 596.837C242.914 596.837 241.569 598.182 241.569 599.841C241.569 601.5 242.914 602.845 244.573 602.845Z" fill="#59A52C" fill-opacity="0.5"/>
<path d="M95.4302 558.491C97.0894 558.491 98.4345 557.146 98.4345 555.487C98.4345 553.827 97.0894 552.482 95.4302 552.482C93.771 552.482 92.4259 553.827 92.4259 555.487C92.4259 557.146 93.771 558.491 95.4302 558.491Z" fill="#59A52C" fill-opacity="0.5"/>
<path d="M83.6283 552.784C85.2875 552.784 86.6326 551.439 86.6326 549.78C86.6326 548.121 85.2875 546.775 83.6283 546.775C81.9691 546.775 80.624 548.121 80.624 549.78C80.624 551.439 81.9691 552.784 83.6283 552.784Z" fill="#59A52C" fill-opacity="0.5"/>
<path d="M75.0466 526.664C76.7058 526.664 78.0509 525.319 78.0509 523.659C78.0509 522 76.7058 520.655 75.0466 520.655C73.3874 520.655 72.0424 522 72.0424 523.659C72.0424 525.319 73.3874 526.664 75.0466 526.664Z" fill="#59A52C" fill-opacity="0.5"/>
<path d="M69.1151 497.206C69.1151 498.88 67.7632 500.211 66.1108 500.211C64.437 500.211 63.1066 498.859 63.1066 497.206C63.1066 495.533 64.4585 494.202 66.1108 494.202C67.7632 494.181 69.1151 495.533 69.1151 497.206Z" fill="#59A52C" fill-opacity="0.5"/>
<path d="M45.3563 436.535C47.0155 436.535 48.3606 435.19 48.3606 433.531C48.3606 431.871 47.0155 430.526 45.3563 430.526C43.6971 430.526 42.3521 431.871 42.3521 433.531C42.3521 435.19 43.6971 436.535 45.3563 436.535Z" fill="#59A52C" fill-opacity="0.5"/>
<path d="M39.9949 419.009C41.6541 419.009 42.9992 417.664 42.9992 416.005C42.9992 414.346 41.6541 413 39.9949 413C38.3357 413 36.9906 414.346 36.9906 416.005C36.9906 417.664 38.3357 419.009 39.9949 419.009Z" fill="#59A52C" fill-opacity="0.5"/>
<path d="M165.68 518.665C165.68 520.339 164.328 521.669 162.676 521.669C161.024 521.669 159.672 520.317 159.672 518.665C159.672 516.991 161.024 515.66 162.676 515.66C164.328 515.66 165.68 516.991 165.68 518.665Z" fill="#59A52C" fill-opacity="0.5"/>
<path d="M105.445 395.405C107.104 395.405 108.449 394.06 108.449 392.401C108.449 390.742 107.104 389.397 105.445 389.397C103.786 389.397 102.441 390.742 102.441 392.401C102.441 394.06 103.786 395.405 105.445 395.405Z" fill="#59A52C" fill-opacity="0.5"/>
<path d="M30.489 376.666C30.489 378.34 29.1371 379.671 27.4847 379.671C25.8109 379.671 24.4805 378.319 24.4805 376.666C24.4805 375.014 25.8324 373.662 27.4847 373.662C29.1371 373.662 30.489 374.993 30.489 376.666Z" fill="#59A52C" fill-opacity="0.5"/>
<path d="M54.2752 237.057C55.9344 237.057 57.2794 235.712 57.2794 234.053C57.2794 232.393 55.9344 231.048 54.2752 231.048C52.6159 231.048 51.2709 232.393 51.2709 234.053C51.2709 235.712 52.6159 237.057 54.2752 237.057Z" fill="#59A52C" fill-opacity="0.5"/>
<path d="M117.247 145.765C118.906 145.765 120.251 144.42 120.251 142.761C120.251 141.101 118.906 139.756 117.247 139.756C115.588 139.756 114.243 141.101 114.243 142.761C114.243 144.42 115.588 145.765 117.247 145.765Z" fill="#59A52C" fill-opacity="0.5"/>
<path d="M59.8253 197.85C59.8253 199.524 58.4734 200.855 56.821 200.855C55.1472 200.855 53.8168 199.503 53.8168 197.85C53.8168 196.198 55.1687 194.846 56.821 194.846C58.4734 194.825 59.8253 196.177 59.8253 197.85Z" fill="#59A52C" fill-opacity="0.5"/>
<path d="M144.071 121.086C145.73 121.086 147.075 119.741 147.075 118.082C147.075 116.423 145.73 115.078 144.071 115.078C142.412 115.078 141.067 116.423 141.067 118.082C141.067 119.741 142.412 121.086 144.071 121.086Z" fill="#59A52C" fill-opacity="0.5"/>
<path d="M95.5684 165.661C95.5684 167.335 94.2164 168.665 92.5641 168.665C90.8903 168.665 89.5598 167.313 89.5598 165.661C89.5598 164.008 90.9117 162.657 92.5641 162.657C94.2379 162.635 95.5684 163.987 95.5684 165.661Z" fill="#59A52C" fill-opacity="0.5"/>
<path d="M257.255 66.3725C257.255 68.0463 255.903 69.3768 254.25 69.3768C252.598 69.3768 251.246 68.0249 251.246 66.3725C251.246 64.6987 252.598 63.3682 254.25 63.3682C255.903 63.3682 257.255 64.7202 257.255 66.3725Z" fill="#59A52C" fill-opacity="0.5"/>
<path d="M267.978 42.9752C267.978 44.649 266.626 45.9795 264.973 45.9795C263.321 45.9795 261.969 44.6276 261.969 42.9752C261.969 41.3229 263.321 39.9709 264.973 39.9709C266.626 39.9709 267.978 41.3014 267.978 42.9752Z" fill="#59A52C" fill-opacity="0.5"/>
<path d="M217.395 54.5654C219.054 54.5654 220.399 53.2203 220.399 51.5611C220.399 49.9019 219.054 48.5568 217.395 48.5568C215.736 48.5568 214.391 49.9019 214.391 51.5611C214.391 53.2203 215.736 54.5654 217.395 54.5654Z" fill="#59A52C" fill-opacity="0.5"/>
<path d="M200.931 69.5875C202.59 69.5875 203.935 68.2425 203.935 66.5833C203.935 64.924 202.59 63.579 200.931 63.579C199.272 63.579 197.927 64.924 197.927 66.5833C197.927 68.2425 199.272 69.5875 200.931 69.5875Z" fill="#59A52C" fill-opacity="0.5"/>
<path d="M226.685 45.6212C228.344 45.6212 229.689 44.2762 229.689 42.6169C229.689 40.9577 228.344 39.6127 226.685 39.6127C225.025 39.6127 223.68 40.9577 223.68 42.6169C223.68 44.2762 225.025 45.6212 226.685 45.6212Z" fill="#59A52C" fill-opacity="0.5"/>
<path d="M360.252 43.3461C360.252 45.0199 358.9 46.3504 357.248 46.3504C355.595 46.3504 354.243 44.9985 354.243 43.3461C354.243 41.6723 355.595 40.3419 357.248 40.3419C358.9 40.3419 360.252 41.6723 360.252 43.3461Z" fill="#59A52C" fill-opacity="0.5"/>
<path d="M295.51 187.123C295.51 188.797 294.158 190.127 292.506 190.127C290.853 190.127 289.501 188.776 289.501 187.123C289.501 185.471 290.853 184.119 292.506 184.119C294.158 184.119 295.51 185.449 295.51 187.123Z" fill="#59A52C" fill-opacity="0.5"/>
<path d="M255.658 213.002C257.318 213.002 258.663 211.657 258.663 209.998C258.663 208.339 257.318 206.994 255.658 206.994C253.999 206.994 252.654 208.339 252.654 209.998C252.654 211.657 253.999 213.002 255.658 213.002Z" fill="#59A52C" fill-opacity="0.5"/>
<path d="M379.902 211.798C379.902 213.472 378.55 214.802 376.898 214.802C375.224 214.802 373.894 213.45 373.894 211.798C373.894 210.145 375.245 208.794 376.898 208.794C378.572 208.772 379.902 210.124 379.902 211.798Z" fill="#59A52C" fill-opacity="0.5"/>
<path d="M434.837 30.599C436.496 30.599 437.841 29.2539 437.841 27.5947C437.841 25.9355 436.496 24.5905 434.837 24.5905C433.178 24.5905 431.833 25.9355 431.833 27.5947C431.833 29.2539 433.178 30.599 434.837 30.599Z" fill="#59A52C" fill-opacity="0.5"/>
<path d="M537.157 50.6224C537.157 53.4979 534.839 55.8155 531.964 55.8155C529.088 55.8155 526.771 53.4979 526.771 50.6224C526.771 47.7469 529.088 45.4293 531.964 45.4293C534.839 45.4293 537.157 47.7684 537.157 50.6224Z" fill="#59A52C" fill-opacity="0.5"/>
<path d="M345.654 5.18919C345.654 8.06471 343.336 10.3823 340.461 10.3823C337.585 10.3823 335.268 8.06471 335.268 5.18919C335.268 2.31367 337.585 -0.00390625 340.461 -0.00390625C343.336 -0.00390625 345.654 2.33513 345.654 5.18919Z" fill="#59A52C" fill-opacity="0.5"/>
<path d="M426.033 49.2443C428.901 49.2443 431.226 46.9193 431.226 44.0513C431.226 41.1832 428.901 38.8582 426.033 38.8582C423.165 38.8582 420.84 41.1832 420.84 44.0513C420.84 46.9193 423.165 49.2443 426.033 49.2443Z" fill="#59A52C" fill-opacity="0.5"/>
<path d="M539.841 50.6241C539.841 54.9803 536.322 58.4996 531.966 58.4996C527.609 58.4996 524.09 54.9803 524.09 50.6241C524.09 46.2679 527.609 42.7486 531.966 42.7486C536.322 42.7701 539.841 46.2893 539.841 50.6241Z" fill="#59A52C" fill-opacity="0.5"/>
<path d="M397.827 124.456C397.827 127.332 395.509 129.649 392.634 129.649C389.758 129.649 387.44 127.332 387.44 124.456C387.44 121.581 389.758 119.263 392.634 119.263C395.509 119.263 397.827 121.581 397.827 124.456Z" fill="#59A52C" fill-opacity="0.5"/>
<path d="M548.627 273.084C555.957 266.26 556.367 254.786 549.543 247.457C542.719 240.127 531.245 239.717 523.916 246.541C516.586 253.365 516.176 264.839 523 272.168C529.824 279.498 541.298 279.908 548.627 273.084Z" fill="#59A52C" fill-opacity="0.5"/>
<path d="M210.597 167.268C213.465 167.268 215.79 164.943 215.79 162.075C215.79 159.207 213.465 156.882 210.597 156.882C207.729 156.882 205.404 159.207 205.404 162.075C205.404 164.943 207.729 167.268 210.597 167.268Z" fill="#59A52C" fill-opacity="0.5"/>
<path d="M363.154 318.729C363.154 321.604 360.837 323.922 357.961 323.922C355.086 323.922 352.768 321.604 352.768 318.729C352.768 315.853 355.086 313.536 357.961 313.536C360.815 313.536 363.154 315.853 363.154 318.729Z" fill="#59A52C" fill-opacity="0.5"/>
<path d="M397.827 124.456C397.827 127.332 395.509 129.649 392.634 129.649C389.758 129.649 387.44 127.332 387.44 124.456C387.44 121.581 389.758 119.263 392.634 119.263C395.509 119.263 397.827 121.581 397.827 124.456Z" fill="#59A52C" fill-opacity="0.5"/>
<path d="M176.465 262.572C176.465 265.448 174.147 267.766 171.271 267.766C168.396 267.766 166.078 265.448 166.078 262.572C166.078 259.697 168.396 257.379 171.271 257.379C174.126 257.379 176.465 259.718 176.465 262.572Z" fill="#59A52C" fill-opacity="0.5"/>
<path d="M230.517 351.58C233.385 351.58 235.71 349.255 235.71 346.387C235.71 343.519 233.385 341.194 230.517 341.194C227.649 341.194 225.324 343.519 225.324 346.387C225.324 349.255 227.649 351.58 230.517 351.58Z" fill="#59A52C" fill-opacity="0.5"/>
<path d="M371.898 318.729C371.898 326.433 365.653 332.678 357.949 332.678C350.246 332.678 344.001 326.433 344.001 318.729C344.001 311.026 350.246 304.781 357.949 304.781C365.653 304.781 371.898 311.026 371.898 318.729Z" fill="#59A52C" fill-opacity="0.5"/>
<path d="M176.465 262.572C176.465 265.448 174.147 267.766 171.271 267.766C168.396 267.766 166.078 265.448 166.078 262.572C166.078 259.697 168.396 257.379 171.271 257.379C174.126 257.379 176.465 259.718 176.465 262.572Z" fill="#59A52C" fill-opacity="0.5"/>
<path d="M162.513 449.996C162.513 452.871 160.195 455.189 157.32 455.189C154.444 455.189 152.127 452.871 152.127 449.996C152.127 447.12 154.444 444.802 157.32 444.802C160.174 444.802 162.513 447.12 162.513 449.996Z" fill="#59A52C" fill-opacity="0.5"/>
<path d="M230.513 353.491C234.436 353.491 237.616 350.311 237.616 346.388C237.616 342.465 234.436 339.285 230.513 339.285C226.591 339.285 223.411 342.465 223.411 346.388C223.411 350.311 226.591 353.491 230.513 353.491Z" fill="#59A52C" fill-opacity="0.5"/>
<path d="M14.0111 427.892C14.0111 430.768 11.6935 433.085 8.81798 433.085C5.94246 433.085 3.62488 430.768 3.62488 427.892C3.62488 425.017 5.94246 422.699 8.81798 422.699C11.6935 422.699 14.0111 425.038 14.0111 427.892Z" fill="#59A52C" fill-opacity="0.5"/>
<path d="M172.663 453.617C174.668 445.152 169.431 436.665 160.966 434.66C152.501 432.654 144.013 437.891 142.008 446.356C140.003 454.821 145.24 463.309 153.705 465.314C162.17 467.319 170.658 462.082 172.663 453.617Z" fill="#59A52C" fill-opacity="0.5"/>
<path d="M50.673 325.877C50.673 328.753 48.3554 331.07 45.4798 331.07C42.6043 331.07 40.2867 328.753 40.2867 325.877C40.2867 323.002 42.6043 320.684 45.4798 320.684C48.3339 320.684 50.673 323.023 50.673 325.877Z" fill="#59A52C" fill-opacity="0.5"/>
<path d="M11.0268 313.346C11.0268 316.222 8.70925 318.539 5.83373 318.539C2.95821 318.539 0.640625 316.222 0.640625 313.346C0.640625 310.471 2.95821 308.153 5.83373 308.153C8.70925 308.153 11.0268 310.471 11.0268 313.346Z" fill="#59A52C" fill-opacity="0.5"/>
<path d="M14.0111 427.892C14.0111 430.768 11.6935 433.085 8.81798 433.085C5.94246 433.085 3.62488 430.768 3.62488 427.892C3.62488 425.017 5.94246 422.699 8.81798 422.699C11.6935 422.699 14.0111 425.038 14.0111 427.892Z" fill="#59A52C" fill-opacity="0.5"/>
<path d="M50.673 325.877C50.673 328.753 48.3554 331.07 45.4798 331.07C42.6043 331.07 40.2867 328.753 40.2867 325.877C40.2867 323.002 42.6043 320.684 45.4798 320.684C48.3339 320.684 50.673 323.023 50.673 325.877Z" fill="#59A52C" fill-opacity="0.5"/>
<path d="M176.465 262.572C176.465 265.448 174.147 267.766 171.271 267.766C168.396 267.766 166.078 265.448 166.078 262.572C166.078 259.697 168.396 257.379 171.271 257.379C174.126 257.379 176.465 259.718 176.465 262.572Z" fill="#59A52C" fill-opacity="0.5"/>
<path d="M30.795 226.627C30.795 229.503 28.4774 231.82 25.6019 231.82C22.7264 231.82 20.4088 229.503 20.4088 226.627C20.4088 223.752 22.7264 221.434 25.6019 221.434C28.456 221.434 30.795 223.752 30.795 226.627Z" fill="#59A52C" fill-opacity="0.5"/>
<path d="M50.673 325.877C50.673 328.753 48.3554 331.07 45.4798 331.07C42.6043 331.07 40.2867 328.753 40.2867 325.877C40.2867 323.002 42.6043 320.684 45.4798 320.684C48.3339 320.684 50.673 323.023 50.673 325.877Z" fill="#59A52C" fill-opacity="0.5"/>
<path d="M30.795 226.627C30.795 229.503 28.4774 231.82 25.6019 231.82C22.7264 231.82 20.4088 229.503 20.4088 226.627C20.4088 223.752 22.7264 221.434 25.6019 221.434C28.456 221.434 30.795 223.752 30.795 226.627Z" fill="#59A52C" fill-opacity="0.5"/>
<path d="M87.4441 184.199C90.3121 184.199 92.6372 181.874 92.6372 179.006C92.6372 176.138 90.3121 173.813 87.4441 173.813C84.576 173.813 82.251 176.138 82.251 179.006C82.251 181.874 84.576 184.199 87.4441 184.199Z" fill="#59A52C" fill-opacity="0.5"/>
<path d="M59.6482 171.023C61.9237 171.023 63.7684 169.178 63.7684 166.903C63.7684 164.627 61.9237 162.783 59.6482 162.783C57.3727 162.783 55.5281 164.627 55.5281 166.903C55.5281 169.178 57.3727 171.023 59.6482 171.023Z" fill="#59A52C" fill-opacity="0.5"/>
<path d="M183.048 262.572C183.048 269.075 177.769 274.353 171.267 274.353C164.765 274.353 159.486 269.075 159.486 262.572C159.486 256.07 164.765 250.791 171.267 250.791C177.769 250.791 183.048 256.07 183.048 262.572Z" fill="#59A52C" fill-opacity="0.5"/>
<path d="M210.597 167.268C213.465 167.268 215.79 164.943 215.79 162.075C215.79 159.207 213.465 156.882 210.597 156.882C207.729 156.882 205.404 159.207 205.404 162.075C205.404 164.943 207.729 167.268 210.597 167.268Z" fill="#59A52C" fill-opacity="0.5"/>
<path d="M397.827 124.456C397.827 127.332 395.509 129.649 392.634 129.649C389.758 129.649 387.44 127.332 387.44 124.456C387.44 121.581 389.758 119.263 392.634 119.263C395.509 119.263 397.827 121.581 397.827 124.456Z" fill="#59A52C" fill-opacity="0.5"/>
<path d="M426.029 51.1505C429.952 51.1505 433.132 47.9704 433.132 44.0475C433.132 40.1247 429.952 36.9446 426.029 36.9446C422.107 36.9446 418.926 40.1247 418.926 44.0475C418.926 47.9704 422.107 51.1505 426.029 51.1505Z" fill="#59A52C" fill-opacity="0.5"/>
<path d="M198.113 48.0009C200.981 48.0009 203.306 45.6759 203.306 42.8078C203.306 39.9398 200.981 37.6147 198.113 37.6147C195.244 37.6147 192.919 39.9398 192.919 42.8078C192.919 45.6759 195.244 48.0009 198.113 48.0009Z" fill="#59A52C" fill-opacity="0.5"/>
<path d="M210.597 167.268C213.465 167.268 215.79 164.943 215.79 162.075C215.79 159.207 213.465 156.882 210.597 156.882C207.729 156.882 205.404 159.207 205.404 162.075C205.404 164.943 207.729 167.268 210.597 167.268Z" fill="#59A52C" fill-opacity="0.5"/>
<path d="M116.625 102.805C118.592 102.805 120.187 101.21 120.187 99.2425C120.187 97.2751 118.592 95.6802 116.625 95.6802C114.657 95.6802 113.062 97.2751 113.062 99.2425C113.062 101.21 114.657 102.805 116.625 102.805Z" fill="#59A52C" fill-opacity="0.5"/>
<path d="M198.113 48.0009C200.981 48.0009 203.306 45.6759 203.306 42.8078C203.306 39.9398 200.981 37.6147 198.113 37.6147C195.244 37.6147 192.919 39.9398 192.919 42.8078C192.919 45.6759 195.244 48.0009 198.113 48.0009Z" fill="#59A52C" fill-opacity="0.5"/>
<path d="M210.597 167.268C213.465 167.268 215.79 164.943 215.79 162.075C215.79 159.207 213.465 156.882 210.597 156.882C207.729 156.882 205.404 159.207 205.404 162.075C205.404 164.943 207.729 167.268 210.597 167.268Z" fill="#59A52C" fill-opacity="0.5"/>
<path d="M283.576 13.6065C283.576 16.482 281.258 18.7996 278.382 18.7996C275.507 18.7996 273.189 16.482 273.189 13.6065C273.189 10.731 275.507 8.41339 278.382 8.41339C281.236 8.41339 283.576 10.731 283.576 13.6065Z" fill="#59A52C" fill-opacity="0.5"/>
<path d="M402.101 124.461C402.101 129.675 397.874 133.903 392.659 133.903C387.444 133.903 383.217 129.675 383.217 124.461C383.217 119.246 387.444 115.019 392.659 115.019C397.852 114.997 402.101 119.246 402.101 124.461Z" fill="#59A52C" fill-opacity="0.5"/>
<path d="M345.654 5.18919C345.654 8.06471 343.336 10.3823 340.461 10.3823C337.585 10.3823 335.268 8.06471 335.268 5.18919C335.268 2.31367 337.585 -0.00390625 340.461 -0.00390625C343.336 -0.00390625 345.654 2.33513 345.654 5.18919Z" fill="#59A52C" fill-opacity="0.5"/>
<path d="M198.098 50.2524C202.21 50.2524 205.544 46.9185 205.544 42.806C205.544 38.6936 202.21 35.3597 198.098 35.3597C193.986 35.3597 190.652 38.6936 190.652 42.806C190.652 46.9185 193.986 50.2524 198.098 50.2524Z" fill="#59A52C" fill-opacity="0.5"/>
</svg>
