<svg xmlns="http://www.w3.org/2000/svg" width="86" height="81" viewBox="0 0 86 81"><g id="Group_5552" data-name="Group 5552" transform="translate(-711 -10849)"><rect id="Rectangle_3993" data-name="Rectangle 3993" width="86" height="81" rx="22" transform="translate(711 10849)" fill="#cae2bc" opacity="0.2"></rect><g id="infrared" transform="translate(684 10868)"><path id="Path_21222" data-name="Path 21222" d="M315.237,107.237a1.794,1.794,0,1,0-2.514-.022A1.794,1.794,0,0,0,315.237,107.237Zm0,0" transform="translate(-234.581 -92.517)" fill="#4fa83d"></path><path id="Path_21223" data-name="Path 21223" d="M330.409,3.94A13.391,13.391,0,0,0,320.9,0a.9.9,0,0,0,0,1.794,11.659,11.659,0,0,1,11.659,11.659.9.9,0,0,0,1.794,0,13.4,13.4,0,0,0-3.941-9.512Zm0,0" transform="translate(-241.509 0)" fill="#4fa83d"></path><path id="Path_21224" data-name="Path 21224" d="M320.9,33.794a8.067,8.067,0,0,1,8.071,8.071.9.9,0,1,0,1.794,0A9.86,9.86,0,0,0,320.9,32a.9.9,0,1,0,0,1.794Zm0,0" transform="translate(-241.509 -28.413)" fill="#4fa83d"></path><path id="Path_21225" data-name="Path 21225" d="M320.9,65.794h.024a4.473,4.473,0,0,1,4.46,4.484.9.9,0,1,0,1.794,0A6.27,6.27,0,0,0,320.924,64H320.9a.9.9,0,1,0,0,1.794Zm0,0" transform="translate(-241.509 -56.826)" fill="#4fa83d"></path><path id="Path_21226" data-name="Path 21226" d="M80.25,156.7a17.666,17.666,0,0,0,3.621-10.762,17.936,17.936,0,0,0-35.873,0A17.666,17.666,0,0,0,51.621,156.7Zm-14.315-19.73a8.968,8.968,0,1,1-8.968,8.968A8.968,8.968,0,0,1,65.936,136.968Zm0,0" transform="translate(0 -113.651)" fill="#cae2bc"></path><path id="Path_21227" data-name="Path 21227" d="M151.175,238.349A7.175,7.175,0,1,0,144,231.175,7.174,7.174,0,0,0,151.175,238.349Zm0-12.555a5.381,5.381,0,1,1-5.381,5.381A5.381,5.381,0,0,1,151.175,225.794Zm0,0" transform="translate(-85.239 -198.889)" fill="#4fa83d"></path><path id="Path_21228" data-name="Path 21228" d="M183.175,259.587A3.587,3.587,0,1,1,179.587,256,3.587,3.587,0,0,1,183.175,259.587Zm0,0" transform="translate(-113.652 -227.302)" fill="#4fa83d"></path></g></g></svg>