<svg xmlns="http://www.w3.org/2000/svg" width="20" height="20" viewBox="0 0 20 20" fill="none"><path d="M17.5531 0.406738H1.46757C1.07974 0.406738 0.70779 0.560803 0.433552 0.835041C0.159314 1.10928 0.00524902 1.48123 0.00524902 1.86906V17.9546C0.00524902 18.3424 0.159314 18.7143 0.433552 18.9886C0.70779 19.2628 1.07974 19.4169 1.46757 19.4169H17.5531C17.9409 19.4169 18.3128 19.2628 18.5871 18.9886C18.8613 18.7143 19.0154 18.3424 19.0154 17.9546V1.86906C19.0154 1.48123 18.8613 1.10928 18.5871 0.835041C18.3128 0.560803 17.9409 0.406738 17.5531 0.406738ZM6.58568 14.2988C6.58568 14.4927 6.50865 14.6786 6.37153 14.8158C6.23441 14.9529 6.04844 15.0299 5.85452 15.0299C5.66061 15.0299 5.47463 14.9529 5.33752 14.8158C5.2004 14.6786 5.12336 14.4927 5.12336 14.2988V8.44949C5.12336 8.25557 5.2004 8.0696 5.33752 7.93248C5.47463 7.79536 5.66061 7.71833 5.85452 7.71833C6.04844 7.71833 6.23441 7.79536 6.37153 7.93248C6.50865 8.0696 6.58568 8.25557 6.58568 8.44949V14.2988ZM5.85452 6.98717C5.63761 6.98717 5.42557 6.92285 5.24521 6.80233C5.06485 6.68182 4.92428 6.51054 4.84127 6.31013C4.75826 6.10973 4.73654 5.88921 4.77886 5.67647C4.82118 5.46372 4.92563 5.2683 5.07901 5.11492C5.23239 4.96154 5.42781 4.85708 5.64056 4.81476C5.85331 4.77245 6.07382 4.79417 6.27423 4.87718C6.47463 4.96019 6.64592 5.10076 6.76643 5.28111C6.88694 5.46147 6.95126 5.67352 6.95126 5.89043C6.95126 6.1813 6.83571 6.46026 6.63003 6.66594C6.42436 6.87162 6.1454 6.98717 5.85452 6.98717ZM14.6284 14.2988C14.6284 14.4927 14.5514 14.6786 14.4143 14.8158C14.2772 14.9529 14.0912 15.0299 13.8973 15.0299C13.7034 15.0299 13.5174 14.9529 13.3803 14.8158C13.2431 14.6786 13.1661 14.4927 13.1661 14.2988V11.0085C13.1661 10.5238 12.9735 10.0588 12.6307 9.71602C12.2879 9.37323 11.823 9.18064 11.3382 9.18064C10.8534 9.18064 10.3885 9.37323 10.0457 9.71602C9.7029 10.0588 9.51032 10.5238 9.51032 11.0085V14.2988C9.51032 14.4927 9.43329 14.6786 9.29617 14.8158C9.15905 14.9529 8.97308 15.0299 8.77916 15.0299C8.58524 15.0299 8.39927 14.9529 8.26215 14.8158C8.12503 14.6786 8.048 14.4927 8.048 14.2988V8.44949C8.04891 8.27039 8.11552 8.09786 8.23519 7.96462C8.35486 7.83138 8.51928 7.74669 8.69725 7.72663C8.87521 7.70657 9.05436 7.75252 9.20069 7.85578C9.34702 7.95903 9.45037 8.11241 9.49113 8.2868C9.98574 7.95127 10.5624 7.7568 11.1592 7.72429C11.756 7.69177 12.3504 7.82243 12.8785 8.10224C13.4067 8.38205 13.8486 8.80044 14.1569 9.31247C14.4652 9.82451 14.6282 10.4109 14.6284 11.0085V14.2988Z" fill="#59A52C"></path></svg>