<svg xmlns="http://www.w3.org/2000/svg" width="86" height="81" viewBox="0 0 86 81"><g id="Group_5551" data-name="Group 5551" transform="translate(-142 -10849)"><rect id="Rectangle_3992" data-name="Rectangle 3992" width="86" height="81" rx="22" transform="translate(142 10849)" fill="#cae2bc" opacity="0.2"></rect><g id="Live_1_" transform="translate(165 10870)"><path id="Path_21308" data-name="Path 21308" d="M35.636,242H3.434A3.438,3.438,0,0,0,0,245.434v13.735A3.438,3.438,0,0,0,3.434,262.6h32.2a3.438,3.438,0,0,0,3.434-3.434V245.434A3.438,3.438,0,0,0,35.636,242ZM10.378,258.025H5.8a1.144,1.144,0,0,1-1.145-1.145v-9.157a1.145,1.145,0,0,1,2.289,0v8.012h3.434a1.145,1.145,0,1,1,0,2.289ZM16.1,256.88a1.145,1.145,0,1,1-2.289,0v-9.157a1.145,1.145,0,0,1,2.289,0ZM25.223,248l-2.289,9.157a1.144,1.144,0,0,1-2.22,0L18.425,248a1.144,1.144,0,0,1,2.22-.554l1.179,4.715L23,247.446a1.144,1.144,0,1,1,2.22.554Zm8.047,3.157a1.145,1.145,0,1,1,0,2.289H29.836v2.289H33.27a1.145,1.145,0,1,1,0,2.289H28.692a1.144,1.144,0,0,1-1.145-1.145v-9.157a1.144,1.144,0,0,1,1.145-1.145H33.27a1.145,1.145,0,1,1,0,2.289H29.836v2.289Z" transform="translate(0 -223.534)" fill="#4fa83d"></path><g id="Group_4226" data-name="Group 4226" transform="translate(6.956 0)"><path id="Path_21309" data-name="Path 21309" d="M93.665,15.567a12.646,12.646,0,0,1,0-15.11A1.145,1.145,0,1,1,95.5,1.832a10.342,10.342,0,0,0,0,12.361,1.145,1.145,0,1,1-1.831,1.375Z" transform="translate(-91.16 0)" fill="#cae2bc"></path></g><g id="Group_4227" data-name="Group 4227" transform="translate(27.548 0)"><path id="Path_21310" data-name="Path 21310" d="M361.474,15.8a1.146,1.146,0,0,1-.228-1.6,10.342,10.342,0,0,0,0-12.361A1.145,1.145,0,1,1,363.077.463a12.646,12.646,0,0,1,0,15.11,1.145,1.145,0,0,1-1.6.228Z" transform="translate(-361.017 -0.006)" fill="#cae2bc"></path></g><g id="Group_4228" data-name="Group 4228" transform="translate(11.517 2.29)"><path id="Path_21311" data-name="Path 21311" d="M152.973,41.078a8,8,0,0,1,0-10.684,1.145,1.145,0,1,1,1.706,1.527,5.713,5.713,0,0,0,0,7.63,1.145,1.145,0,1,1-1.706,1.527Z" transform="translate(-150.927 -30.014)" fill="#cae2bc"></path></g><g id="Group_4229" data-name="Group 4229" transform="translate(23.51 2.289)"><path id="Path_21312" data-name="Path 21312" d="M308.474,41.157a1.145,1.145,0,0,1-.089-1.616,5.713,5.713,0,0,0,0-7.63,1.145,1.145,0,0,1,1.706-1.527,8,8,0,0,1,0,10.684,1.145,1.145,0,0,1-1.616.089Z" transform="translate(-308.092 -30.003)" fill="#cae2bc"></path></g><g id="Group_4230" data-name="Group 4230" transform="translate(16.101 4.578)"><path id="Path_21313" data-name="Path 21313" d="M214.434,66.868a3.434,3.434,0,1,1,3.434-3.434A3.438,3.438,0,0,1,214.434,66.868Z" transform="translate(-211 -60)" fill="#cae2bc"></path></g></g></g></svg>