<svg xmlns="http://www.w3.org/2000/svg" width="10" height="13" viewBox="0 0 10 13" fill="none"><path id="Vector" d="M4.96664 0.592712C3.73562 0.594109 2.55543 1.08374 1.68498 1.9542C0.814519 2.82466 0.324883 4.00485 0.323486 5.23586C0.323486 9.20892 4.54453 12.2096 4.72445 12.3351C4.79543 12.3848 4.87998 12.4115 4.96664 12.4115C5.05329 12.4115 5.13785 12.3848 5.20882 12.3351C5.38874 12.2096 9.60979 9.20892 9.60979 5.23586C9.60839 4.00485 9.11875 2.82466 8.2483 1.9542C7.37784 1.08374 6.19765 0.594109 4.96664 0.592712ZM4.96664 3.54744C5.30057 3.54744 5.62701 3.64647 5.90467 3.83199C6.18233 4.01752 6.39874 4.28121 6.52653 4.58973C6.65432 4.89825 6.68776 5.23773 6.62261 5.56525C6.55746 5.89278 6.39666 6.19362 6.16053 6.42975C5.9244 6.66588 5.62355 6.82669 5.29603 6.89184C4.96851 6.95698 4.62902 6.92355 4.32051 6.79576C4.01199 6.66796 3.74829 6.45155 3.56277 6.1739C3.37724 5.89624 3.27822 5.5698 3.27822 5.23586C3.27822 4.78806 3.4561 4.35861 3.77274 4.04197C4.08938 3.72533 4.51884 3.54744 4.96664 3.54744Z" fill="#565656"></path></svg>