<svg xmlns="http://www.w3.org/2000/svg" width="226.209" height="226.209" viewBox="0 0 226.209 226.209"><g id="Group_5095" data-name="Group 5095" transform="translate(-805 -1881)"><g id="Group_5094" data-name="Group 5094" transform="translate(859.103 2115.639) rotate(-109)" opacity="0.6"><g id="Group_5093" data-name="Group 5093" transform="translate(0 0)"><path id="Path_31975" data-name="Path 31975" d="M6.616.559l3.393,14.786L17.195,1.988l4.121.557L18.836,20.9l-3.179-.429.82-6.053L17.886,6.37,10.553,19.784,8.27,19.476,4.772,4.61l-.778,8.125-.818,6.051L0,18.357,2.479,0Z" transform="translate(96.349 0)" fill="#fff"/><path id="Path_31976" data-name="Path 31976" d="M18.011,5.147l-4.6,11.493a6.022,6.022,0,0,1-3.491,3.638A7.182,7.182,0,0,1,4.6,20.007,7.228,7.228,0,0,1,.548,16.551,6.047,6.047,0,0,1,.564,11.48L5.162,0,8.138,1.193,3.531,12.7a3.935,3.935,0,0,0-.18,2.982,3.67,3.67,0,0,0,2.211,1.94Q9.009,19,10.467,15.365L15.035,3.956Z" transform="translate(119.237 4.646)" fill="#fff"/><path id="Path_31977" data-name="Path 31977" d="M4.1,15.146l7.063,4.566L9.767,21.871,0,15.557,10.055,0l2.7,1.748Z" transform="translate(132.659 12.813)" fill="#fff"/><path id="Path_31978" data-name="Path 31978" d="M17.277,11.687l-4.323-3.83L2.391,19.78,0,17.662,10.563,5.74l-4.285-3.8L8,0,19,9.745Z" transform="translate(145.049 19.478)" fill="#fff"/><path id="Path_31979" data-name="Path 31979" d="M2.074,14.427,0,11.982,14.126,0,16.2,2.445Z" transform="translate(152.894 32.846)" fill="#fff"/><path id="Path_31980" data-name="Path 31980" d="M3.8,6.909,0,1.419,2.048,0,5.854,5.488Z" transform="translate(162.016 44.02)" fill="#fff"/><path id="Path_31981" data-name="Path 31981" d="M9.6,16.149a6.678,6.678,0,0,1-5.115.032,7.442,7.442,0,0,1-3.7-3.854A7.222,7.222,0,0,1,.039,8.359,6.885,6.885,0,0,1,1.6,4.721,10.736,10.736,0,0,1,5.234,1.915l1.559-.75A10.826,10.826,0,0,1,11.357,0a7,7,0,0,1,3.93,1.066A7.435,7.435,0,0,1,18,4.216a7.163,7.163,0,0,1,.643,5.169,6.931,6.931,0,0,1-3.293,4l-1.389-2.888a4.58,4.58,0,0,0,2.092-2.3,3.851,3.851,0,0,0-.393-2.856A3.755,3.755,0,0,0,12.882,3.1a7.677,7.677,0,0,0-4.556.914l-1.481.712A8.119,8.119,0,0,0,3.182,7.681,3.563,3.563,0,0,0,3.124,11.2a4.159,4.159,0,0,0,2,2.2,4.444,4.444,0,0,0,3.081-.14Z" transform="translate(163.664 50.437)" fill="#fff"/><path id="Path_31982" data-name="Path 31982" d="M0,4.349,18.006,0l1.285,5.319a8.6,8.6,0,0,1-.04,4.492A7.48,7.48,0,0,1,16.924,13.4a9.873,9.873,0,0,1-4.231,2.1l-.9.216a9.816,9.816,0,0,1-4.748.068A7.374,7.374,0,0,1,3.347,13.6,8.966,8.966,0,0,1,1.253,9.532Zm16.239-.611L3.255,6.875l.491,2.04A4.839,4.839,0,0,0,6.2,12.322a6.9,6.9,0,0,0,4.746.273l1-.24A7.085,7.085,0,0,0,16.114,10a4.637,4.637,0,0,0,.653-4.069Z" transform="translate(168.409 66.76)" fill="#fff"/><path id="Path_31983" data-name="Path 31983" d="M.279,15.044.216,11.827,13.2,3.321.06,3.572,0,.353,18.519,0l.062,3.219L5.548,11.751l13.19-.251.06,3.193Z" transform="translate(171.953 86.42)" fill="#fff"/><path id="Path_31984" data-name="Path 31984" d="M6.608,4.979,0,3.1.882,0,18.7,5.075l-1.942,6.815a7.17,7.17,0,0,1-2.906,4.3,5.44,5.44,0,0,1-4.616.583,5.263,5.263,0,0,1-3.59-2.882A7.513,7.513,0,0,1,5.558,8.66Zm2.5.71-1.06,3.72A3.816,3.816,0,0,0,8.1,12.15a2.975,2.975,0,0,0,2,1.509,3.213,3.213,0,0,0,2.557-.224,3.542,3.542,0,0,0,1.577-2.171l1.082-3.806Z" transform="translate(170.065 110.478)" fill="#fff"/><path id="Path_31985" data-name="Path 31985" d="M5.29,14.964a11.333,11.333,0,0,1-3.764-3.089A7.128,7.128,0,0,1,.017,8.013,7.4,7.4,0,0,1,.951,3.944,7.417,7.417,0,0,1,3.817.928,7.231,7.231,0,0,1,7.868.012a11.009,11.009,0,0,1,4.6,1.361l.92.493a11.243,11.243,0,0,1,3.76,3.109,7.22,7.22,0,0,1,1.517,3.888,7.39,7.39,0,0,1-.928,4.057,7.441,7.441,0,0,1-2.856,3.022,7.128,7.128,0,0,1-4.035.9,11.253,11.253,0,0,1-4.646-1.4Zm2.373-2.379a8.107,8.107,0,0,0,4.71,1.207,3.815,3.815,0,0,0,3.006-2.135,3.8,3.8,0,0,0,.1-3.65,7.942,7.942,0,0,0-3.506-3.245l-.944-.505A8.03,8.03,0,0,0,6.31,3.074a3.831,3.831,0,0,0-3.028,2.12,3.786,3.786,0,0,0-.118,3.67,8.211,8.211,0,0,0,3.648,3.263Z" transform="translate(161.862 127.765)" fill="#fff"/><path id="Path_31986" data-name="Path 31986" d="M5.231,6.9,0,2.449,2.088,0l14.1,12.012-4.6,5.4a7.164,7.164,0,0,1-4.429,2.7,5.43,5.43,0,0,1-4.439-1.385,5.26,5.26,0,0,1-2.07-4.111A7.516,7.516,0,0,1,2.746,9.819ZM7.205,8.588,4.7,11.533A3.794,3.794,0,0,0,3.614,14.05a2.964,2.964,0,0,0,1.191,2.2,3.206,3.206,0,0,0,2.419.86A3.542,3.542,0,0,0,9.56,15.792l2.565-3.012Z" transform="translate(155.909 140.425)" fill="#fff"/><path id="Path_31987" data-name="Path 31987" d="M.071.319,1.9,0A6.364,6.364,0,0,0,3.364,3.417L4.7,4.916,2.68,6.72,1.512,5.412A5.855,5.855,0,0,1,.251,3,6.326,6.326,0,0,1,.071.319Z" transform="translate(155.521 161.851)" fill="#fff"/><path id="Path_31988" data-name="Path 31988" d="M3.493,7.639a2.238,2.238,0,0,0,1.77,1.074,10.373,10.373,0,0,0,3.313-.637,14.894,14.894,0,0,1,3.79-.762A4.754,4.754,0,0,1,16.792,9.32a4.514,4.514,0,0,1,.565,4.079,7.392,7.392,0,0,1-3.1,3.862A8.023,8.023,0,0,1,11,18.612a5.671,5.671,0,0,1-3.109-.341,5.215,5.215,0,0,1-2.357-1.928l2.652-1.8a2.906,2.906,0,0,0,2.028,1.367,3.754,3.754,0,0,0,2.614-.784,3.915,3.915,0,0,0,1.646-1.934,2.24,2.24,0,0,0-.339-2.048,2.026,2.026,0,0,0-1.732-.874,10.783,10.783,0,0,0-3.311.651,14.308,14.308,0,0,1-3.7.742,5.56,5.56,0,0,1-2.648-.475A4.934,4.934,0,0,1,.848,9.47a4.408,4.408,0,0,1-.6-4.045A7.682,7.682,0,0,1,3.457,1.588,9.007,9.007,0,0,1,6.931.124a6.212,6.212,0,0,1,3.323.224,5.136,5.136,0,0,1,2.491,2l-2.662,1.81A2.991,2.991,0,0,0,7.847,2.726a4.565,4.565,0,0,0-2.958.966A3.959,3.959,0,0,0,3.183,5.674,2.194,2.194,0,0,0,3.493,7.639Z" transform="translate(134.613 157.472)" fill="#fff"/><path id="Path_31989" data-name="Path 31989" d="M.6,3.858,0,2.273,6.021,0l.6,1.583Z" transform="translate(121.684 172.055)" fill="#fff"/><path id="Path_31990" data-name="Path 31990" d="M.439,3.307,0,1.67,6.217,0l.439,1.637Z" transform="translate(113.831 174.857)" fill="#fff"/><path id="Path_31991" data-name="Path 31991" d="M.275,2.714,0,1.042,6.354,0l.273,1.672Z" transform="translate(105.758 176.893)" fill="#fff"/><path id="Path_31992" data-name="Path 31992" d="M14.739,20.089l-3.7-14.713-6.907,13.5L0,18.4,2.1,0,5.289.363,4.6,6.432,3.351,14.509,10.408.948l2.289.263L16.5,16l.611-8.137L17.8,1.794l3.185.365-2.1,18.4Z" transform="translate(75.088 170.732)" fill="#fff"/><path id="Path_31993" data-name="Path 31993" d="M0,15.731,4.363,4.146A6.02,6.02,0,0,1,7.779.436,7.184,7.184,0,0,1,13.1.6a7.227,7.227,0,0,1,4.127,3.371,6.038,6.038,0,0,1,.088,5.069L12.954,20.609l-3-1.128,4.367-11.6A3.93,3.93,0,0,0,14.439,4.9,3.659,3.659,0,0,0,12.19,3Q8.712,1.693,7.332,5.361L3,16.861Z" transform="translate(55.37 166.568)" fill="#fff"/><path id="Path_31994" data-name="Path 31994" d="M8.378,6.6,1.221,2.187,2.569,0l9.9,6.1L2.74,21.871,0,20.179Z" transform="translate(47.143 157.542)" fill="#fff"/><path id="Path_31995" data-name="Path 31995" d="M1.682,8.39l4.4,3.742L16.4,0l2.433,2.068L8.514,14.2l4.359,3.71-1.68,1.976L0,10.366Z" transform="translate(28.15 153.032)" fill="#fff"/><path id="Path_31996" data-name="Path 31996" d="M13.874,0,16,2.4,2.123,14.675,0,12.274Z" transform="translate(23.031 145.214)" fill="#fff"/><path id="Path_31997" data-name="Path 31997" d="M2.02,0,5.935,5.412,3.914,6.873,0,1.461Z" transform="translate(23.925 141.738)" fill="#fff"/><path id="Path_31998" data-name="Path 31998" d="M9.108.581A6.691,6.691,0,0,1,14.222.444,7.455,7.455,0,0,1,18,4.223a7.218,7.218,0,0,1,.826,3.952,6.9,6.9,0,0,1-1.485,3.67,10.785,10.785,0,0,1-3.576,2.88l-1.543.782a10.859,10.859,0,0,1-4.54,1.259,7,7,0,0,1-3.95-.988A7.43,7.43,0,0,1,.95,12.685,7.15,7.15,0,0,1,.2,7.532,6.928,6.928,0,0,1,3.411,3.467l1.447,2.86A4.574,4.574,0,0,0,2.814,8.668a3.839,3.839,0,0,0,.451,2.844A3.75,3.75,0,0,0,6.089,13.7a7.671,7.671,0,0,0,4.538-1.006l1.465-.744a8.126,8.126,0,0,0,3.6-3.028A3.568,3.568,0,0,0,15.682,5.4a4.16,4.16,0,0,0-2.048-2.157,4.431,4.431,0,0,0-3.077.2Z" transform="translate(9.083 125.666)" fill="#fff"/><path id="Path_31999" data-name="Path 31999" d="M19.63,11.507,1.716,16.219.325,10.928a8.594,8.594,0,0,1-.05-4.492A7.471,7.471,0,0,1,2.527,2.8,9.851,9.851,0,0,1,6.716.618l.9-.236A9.8,9.8,0,0,1,12.36.219,7.37,7.37,0,0,1,16.1,2.326a8.989,8.989,0,0,1,2.177,4.027Zm-16.223.94,12.92-3.4-.535-2.03A4.837,4.837,0,0,0,13.272,3.66a6.906,6.906,0,0,0-4.75-.176l-1,.263A7.082,7.082,0,0,0,3.405,6.186a4.642,4.642,0,0,0-.569,4.083Z" transform="translate(3.309 110.094)" fill="#fff"/><path id="Path_32000" data-name="Path 32000" d="M18.509,0l.126,3.215L5.822,11.976l13.132-.509.124,3.215L.569,15.4.445,12.184,13.306,3.4.124,3.908,0,.716Z" transform="translate(0 91.329)" fill="#fff"/><path id="Path_32001" data-name="Path 32001" d="M12.09,11.961,18.734,13.7l-.816,3.113L0,12.117,1.8,5.262A7.165,7.165,0,0,1,4.614.905a5.441,5.441,0,0,1,4.6-.681,5.261,5.261,0,0,1,3.65,2.806,7.529,7.529,0,0,1,.2,5.227ZM9.578,11.3l.982-3.742a3.793,3.793,0,0,0-.118-2.74A2.967,2.967,0,0,0,8.414,3.354a3.208,3.208,0,0,0-2.551.279,3.524,3.524,0,0,0-1.531,2.2l-1,3.828Z" transform="translate(1.686 65.53)" fill="#fff"/><path id="Path_32002" data-name="Path 32002" d="M13.273,1.773A11.393,11.393,0,0,1,17.1,4.782a7.136,7.136,0,0,1,1.587,3.832,7.4,7.4,0,0,1-.85,4.087,7.414,7.414,0,0,1-2.806,3.075,7.22,7.22,0,0,1-4.031,1,11.015,11.015,0,0,1-4.624-1.267l-.928-.473A11.3,11.3,0,0,1,1.624,12a7.231,7.231,0,0,1-1.6-3.856A7.38,7.38,0,0,1,.872,4.072,7.462,7.462,0,0,1,3.666.991,7.128,7.128,0,0,1,7.683.005a11.275,11.275,0,0,1,4.672,1.3ZM10.95,4.2A8.106,8.106,0,0,0,6.216,3.092,3.81,3.81,0,0,0,3.253,5.287a3.8,3.8,0,0,0-.028,3.65A7.941,7.941,0,0,0,6.8,12.109l.952.485A8.02,8.02,0,0,0,12.5,13.68,3.823,3.823,0,0,0,15.479,11.5a3.784,3.784,0,0,0,.046-3.67A8.214,8.214,0,0,0,11.81,4.639Z" transform="translate(9.468 48.219)" fill="#fff"/><path id="Path_32003" data-name="Path 32003" d="M11.058,13.237l5.319,4.349-2.038,2.491L0,8.35,4.486,2.865A7.169,7.169,0,0,1,8.859.073a5.437,5.437,0,0,1,4.468,1.3,5.246,5.246,0,0,1,2.151,4.069,7.5,7.5,0,0,1-1.994,4.834ZM9.049,11.593,11.5,8.6a3.808,3.808,0,0,0,1.032-2.539A2.967,2.967,0,0,0,11.3,3.883a3.208,3.208,0,0,0-2.437-.81A3.531,3.531,0,0,0,6.55,4.44L4.047,7.5Z" transform="translate(17.61 32.022)" fill="#fff"/><path id="Path_32004" data-name="Path 32004" d="M4.724,6.348,2.9,6.7A6.377,6.377,0,0,0,1.369,3.317L0,1.846,1.984,0l1.2,1.287A5.82,5.82,0,0,1,4.488,3.674,6.277,6.277,0,0,1,4.724,6.348Z" transform="translate(29.192 23.961)" fill="#fff"/><path id="Path_32005" data-name="Path 32005" d="M14.192,10.919A2.237,2.237,0,0,0,12.4,9.881a10.326,10.326,0,0,0-3.3.705,15,15,0,0,1-3.772.838A4.753,4.753,0,0,1,.864,9.506,4.511,4.511,0,0,1,.217,5.442,7.4,7.4,0,0,1,3.241,1.515,8.042,8.042,0,0,1,6.466.1,5.65,5.65,0,0,1,9.578.379a5.193,5.193,0,0,1,2.4,1.88L9.36,4.115A2.9,2.9,0,0,0,7.3,2.788a3.757,3.757,0,0,0-2.6.838A3.927,3.927,0,0,0,3.1,5.594a2.248,2.248,0,0,0,.381,2.04,2.033,2.033,0,0,0,1.75.84,10.817,10.817,0,0,0,3.3-.72,14.341,14.341,0,0,1,3.68-.818,5.5,5.5,0,0,1,2.656.425A4.869,4.869,0,0,1,16.8,9.035a4.407,4.407,0,0,1,.685,4.031,7.687,7.687,0,0,1-3.135,3.9A9.055,9.055,0,0,1,10.907,18.5a6.206,6.206,0,0,1-3.325-.158,5.119,5.119,0,0,1-2.531-1.948l2.626-1.864A3,3,0,0,0,9.941,15.92a4.574,4.574,0,0,0,2.938-1.026,3.971,3.971,0,0,0,1.666-2.016A2.2,2.2,0,0,0,14.192,10.919Z" transform="translate(37.139 16.1)" fill="#fff"/><path id="Path_32006" data-name="Path 32006" d="M5.945,0l.647,1.565L.647,4.027,0,2.461Z" transform="translate(60.116 16.215)" fill="#fff"/><path id="Path_32007" data-name="Path 32007" d="M6.165,0l.489,1.623L.489,3.481,0,1.86Z" transform="translate(67.877 13.705)" fill="#fff"/><path id="Path_32008" data-name="Path 32008" d="M6.313,0,6.64,1.662.325,2.9,0,1.239Z" transform="translate(75.876 12.014)" fill="#fff"/></g></g><g id="Ellipse_750" data-name="Ellipse 750" transform="translate(810 1887)" fill="none" stroke="#fff" stroke-width="1" opacity="0.3"><circle cx="107.513" cy="107.513" r="107.513" stroke="none"/><circle cx="107.513" cy="107.513" r="107.013" fill="none"/></g><g id="Ellipse_752" data-name="Ellipse 752" transform="translate(805 1881)" fill="none" stroke="#fff" stroke-width="1" opacity="0.3"><circle cx="113.104" cy="113.104" r="113.104" stroke="none"/><circle cx="113.104" cy="113.104" r="112.604" fill="none"/></g><g id="Ellipse_751" data-name="Ellipse 751" transform="translate(850 1925)" fill="none" stroke="#fff" stroke-width="1" opacity="0.6"><ellipse cx="68.5" cy="69" rx="68.5" ry="69" stroke="none"/><ellipse cx="68.5" cy="69" rx="68" ry="68.5" fill="none"/></g></g></svg>