<svg xmlns="http://www.w3.org/2000/svg" width="7" height="15" viewBox="0 0 7 15" fill="none">
<path d="M1.16056 -3.14713e-05C1.30995 -0.00053978 1.45756 0.0324326 1.59254 0.0964613C1.72752 0.16049 1.84644 0.253949 1.94056 0.369969L6.77056 6.36997C6.91764 6.5489 6.99805 6.77334 6.99805 7.00497C6.99805 7.23659 6.91764 7.46104 6.77056 7.63997L1.77056 13.64C1.60082 13.8442 1.35691 13.9726 1.09248 13.997C0.828057 14.0214 0.564775 13.9397 0.360559 13.77C0.156343 13.6002 0.0279183 13.3563 0.00353861 13.0919C-0.0208411 12.8275 0.0608201 12.5642 0.230559 12.36L4.70056 6.99997L0.380559 1.63997C0.258276 1.49318 0.180599 1.31444 0.15672 1.12489C0.13284 0.935346 0.163757 0.742921 0.245813 0.570394C0.327869 0.397866 0.457629 0.252455 0.619739 0.151364C0.781849 0.0502739 0.969525 -0.00226307 1.16056 -3.14713e-05Z" fill="#59A52C"/>
</svg>