<svg width="39" height="11" viewBox="0 0 39 11" fill="none" xmlns="http://www.w3.org/2000/svg">
<g clip-path="url(#clip0_564_11456)">
<path opacity="0.3" d="M0.241083 1.12433C0.167331 1.19794 0.108819 1.28536 0.0688957 1.3816C0.0289727 1.47785 0.00842285 1.58102 0.00842285 1.68521C0.00842285 1.78941 0.0289727 1.89258 0.0688957 1.98883C0.108819 2.08507 0.167331 2.17249 0.241083 2.24609L3.3279 5.33291L0.241083 8.41974C0.0923295 8.56849 0.00875972 8.77025 0.00875972 8.98065C0.00875972 9.191 0.0923295 9.39275 0.241083 9.54153C0.389838 9.69022 0.591592 9.77383 0.801962 9.77383C1.01233 9.77383 1.21409 9.69022 1.36284 9.54153L5.01452 5.88981C5.08828 5.81622 5.14679 5.72879 5.18671 5.63255C5.22663 5.5363 5.24718 5.43313 5.24718 5.32894C5.24718 5.22474 5.22663 5.12157 5.18671 5.02533C5.14679 4.92908 5.08828 4.84166 5.01452 4.76806L1.36284 1.11638C1.06052 0.814061 0.551357 0.814061 0.241083 1.12433Z" fill="#59A52C"/>
<path opacity="0.7" d="M19.3348 1.12433C19.261 1.19794 19.2026 1.28536 19.1626 1.3816C19.1227 1.47785 19.1022 1.58102 19.1022 1.68521C19.1022 1.78941 19.1227 1.89258 19.1626 1.98883C19.2026 2.08507 19.261 2.17249 19.3348 2.24609L22.4216 5.33291L19.3348 8.41974C19.1861 8.56849 19.1025 8.77025 19.1025 8.98065C19.1025 9.191 19.1861 9.39275 19.3348 9.54153C19.4836 9.69022 19.6853 9.77383 19.8957 9.77383C20.1061 9.77383 20.3079 9.69022 20.4566 9.54153L24.1082 5.88981C24.182 5.81622 24.2405 5.72879 24.2805 5.63255C24.3204 5.5363 24.3409 5.43313 24.3409 5.32894C24.3409 5.22474 24.3204 5.12157 24.2805 5.02533C24.2405 4.92908 24.182 4.84166 24.1082 4.76806L20.4566 1.11638C20.1542 0.814061 19.6451 0.814061 19.3348 1.12433Z" fill="#59A52C"/>
<path opacity="0.5" d="M9.78792 1.12433C9.71417 1.19794 9.6557 1.28536 9.61576 1.3816C9.57582 1.47785 9.5553 1.58102 9.5553 1.68521C9.5553 1.78941 9.57582 1.89258 9.61576 1.98883C9.6557 2.08507 9.71417 2.17249 9.78792 2.24609L12.8747 5.33291L9.78792 8.41974C9.63923 8.56849 9.55562 8.77025 9.55562 8.98065C9.55562 9.191 9.63923 9.39275 9.78792 9.54153C9.9367 9.69022 10.1385 9.77383 10.3488 9.77383C10.5592 9.77383 10.761 9.69022 10.9097 9.54153L14.5614 5.88981C14.6351 5.81622 14.6937 5.72879 14.7336 5.63255C14.7735 5.5363 14.7941 5.43313 14.7941 5.32894C14.7941 5.22474 14.7735 5.12157 14.7336 5.02533C14.6937 4.92908 14.6351 4.84166 14.5614 4.76806L10.9097 1.11638C10.6074 0.814061 10.0982 0.814061 9.78792 1.12433Z" fill="#59A52C"/>
<path opacity="0.9" d="M28.8817 1.12433C28.8079 1.19794 28.7494 1.28536 28.7095 1.3816C28.6696 1.47785 28.649 1.58102 28.649 1.68521C28.649 1.78941 28.6696 1.89258 28.7095 1.98883C28.7494 2.08507 28.8079 2.17249 28.8817 2.24609L31.9685 5.33291L28.8817 8.41974C28.733 8.56849 28.6494 8.77025 28.6494 8.98065C28.6494 9.191 28.733 9.39275 28.8817 9.54153C29.0304 9.69022 29.2322 9.77383 29.4426 9.77383C29.653 9.77383 29.8547 9.69022 30.0034 9.54153L33.6551 5.88981C33.7289 5.81622 33.7874 5.72879 33.8274 5.63255C33.8673 5.5363 33.8878 5.43313 33.8878 5.32894C33.8878 5.22474 33.8673 5.12157 33.8274 5.02533C33.7874 4.92908 33.7289 4.84166 33.6551 4.76806L30.0034 1.11638C29.7011 0.814061 29.1919 0.814061 28.8817 1.12433Z" fill="#59A52C"/>
<path opacity="0.4" d="M5.01452 1.12433C4.94077 1.19794 4.88225 1.28536 4.84233 1.3816C4.80241 1.47785 4.78186 1.58102 4.78186 1.68521C4.78186 1.78941 4.80241 1.89258 4.84233 1.98883C4.88225 2.08507 4.94077 2.17249 5.01452 2.24609L8.10131 5.33291L5.01452 8.41974C4.86577 8.56849 4.78219 8.77025 4.78219 8.98065C4.78219 9.191 4.86577 9.39275 5.01452 9.54153C5.16327 9.69022 5.36503 9.77383 5.5754 9.77383C5.78577 9.77383 5.98753 9.69022 6.13628 9.54153L9.78792 5.88981C9.86167 5.81622 9.92023 5.72879 9.96017 5.63255C10.0001 5.5363 10.0206 5.43313 10.0206 5.32894C10.0206 5.22474 10.0001 5.12157 9.96017 5.02533C9.92023 4.92908 9.86167 4.84166 9.78792 4.76806L6.13628 1.11638C5.83396 0.814061 5.32479 0.814061 5.01452 1.12433Z" fill="#59A52C"/>
<path opacity="0.8" d="M24.1082 1.12433C24.0345 1.19794 23.976 1.28536 23.9361 1.3816C23.8961 1.47785 23.8756 1.58102 23.8756 1.68521C23.8756 1.78941 23.8961 1.89258 23.9361 1.98883C23.976 2.08507 24.0345 2.17249 24.1082 2.24609L27.1951 5.33291L24.1082 8.41974C23.9595 8.56849 23.8759 8.77025 23.8759 8.98065C23.8759 9.191 23.9595 9.39275 24.1082 9.54153C24.257 9.69022 24.4588 9.77383 24.6691 9.77383C24.8795 9.77383 25.0813 9.69022 25.23 9.54153L28.8817 5.88981C28.9554 5.81622 29.014 5.72879 29.0539 5.63255C29.0939 5.5363 29.1144 5.43313 29.1144 5.32894C29.1144 5.22474 29.0939 5.12157 29.0539 5.02533C29.014 4.92908 28.9554 4.84166 28.8817 4.76806L25.23 1.11638C24.9277 0.814061 24.4185 0.814061 24.1082 1.12433Z" fill="#59A52C"/>
<path opacity="0.6" d="M14.5614 1.12433C14.4876 1.19794 14.4291 1.28536 14.3892 1.3816C14.3493 1.47785 14.3287 1.58102 14.3287 1.68521C14.3287 1.78941 14.3493 1.89258 14.3892 1.98883C14.4291 2.08507 14.4876 2.17249 14.5614 2.24609L17.6482 5.33291L14.5614 8.41974C14.4127 8.56849 14.3291 8.77025 14.3291 8.98065C14.3291 9.191 14.4127 9.39275 14.5614 9.54153C14.7101 9.69022 14.9119 9.77383 15.1222 9.77383C15.3327 9.77383 15.5344 9.69022 15.6831 9.54153L19.3348 5.88981C19.4085 5.81622 19.4671 5.72879 19.507 5.63255C19.547 5.5363 19.5675 5.43313 19.5675 5.32894C19.5675 5.22474 19.547 5.12157 19.507 5.02533C19.4671 4.92908 19.4085 4.84166 19.3348 4.76806L15.6831 1.11638C15.3808 0.814061 14.8716 0.814061 14.5614 1.12433Z" fill="#59A52C"/>
<path d="M33.6551 1.12433C33.5814 1.19794 33.5229 1.28536 33.4829 1.3816C33.443 1.47785 33.4225 1.58102 33.4225 1.68521C33.4225 1.78941 33.443 1.89258 33.4829 1.98883C33.5229 2.08507 33.5814 2.17249 33.6551 2.24609L36.7419 5.33291L33.6551 8.41974C33.5064 8.56849 33.4228 8.77025 33.4228 8.98065C33.4228 9.191 33.5064 9.39275 33.6551 9.54153C33.8039 9.69022 34.0056 9.77383 34.216 9.77383C34.4264 9.77383 34.6282 9.69022 34.7769 9.54153L38.4285 5.88981C38.5023 5.81622 38.5609 5.72879 38.6008 5.63255C38.6407 5.5363 38.6613 5.43313 38.6613 5.32894C38.6613 5.22474 38.6407 5.12157 38.6008 5.02533C38.5609 4.92908 38.5023 4.84166 38.4285 4.76806L34.7769 1.11638C34.4746 0.814061 33.9654 0.814061 33.6551 1.12433Z" fill="#59A52C"/>
</g>
<defs>
<clipPath id="clip0_564_11456">
<rect width="38.9831" height="9.54688" fill="white" transform="translate(0.00842285 0.890625)"/>
</clipPath>
</defs>
</svg>
