<svg xmlns="http://www.w3.org/2000/svg" width="73.565" height="22.403" viewBox="0 0 73.565 22.403"><g id="Group_4103" data-name="Group 4103" transform="translate(-275 -567.731)"><path id="Icon_ionic-ios-arrow-back" data-name="Icon ionic-ios-arrow-back" d="M20.2,17.392l-8.477-8.47a1.6,1.6,0,0,1,2.268-2.261l9.6,9.6a1.6,1.6,0,0,1,.047,2.208L14,28.13a1.6,1.6,0,0,1-2.268-2.261Z" transform="translate(324.506 561.538)" fill="#4fa83d"/><path id="Icon_ionic-ios-arrow-back-2" data-name="Icon ionic-ios-arrow-back" d="M20.2,17.392l-8.477-8.47a1.6,1.6,0,0,1,2.268-2.261l9.6,9.6a1.6,1.6,0,0,1,.047,2.208L14,28.13a1.6,1.6,0,0,1-2.268-2.261Z" transform="translate(288.767 561.538)" fill="#4fa83d" opacity="0.4"/><path id="Icon_ionic-ios-arrow-back-3" data-name="Icon ionic-ios-arrow-back" d="M20.2,17.392l-8.477-8.47a1.6,1.6,0,0,1,2.268-2.261l9.6,9.6a1.6,1.6,0,0,1,.047,2.208L14,28.13a1.6,1.6,0,0,1-2.268-2.261Z" transform="translate(311.997 561.538)" fill="#4fa83d" opacity="0.8"/><path id="Icon_ionic-ios-arrow-back-4" data-name="Icon ionic-ios-arrow-back" d="M20.2,17.392l-8.477-8.47a1.6,1.6,0,0,1,2.268-2.261l9.6,9.6a1.6,1.6,0,0,1,.047,2.208L14,28.13a1.6,1.6,0,0,1-2.268-2.261Z" transform="translate(276.258 561.538)" fill="#4fa83d" opacity="0.2"/><path id="Icon_ionic-ios-arrow-back-5" data-name="Icon ionic-ios-arrow-back" d="M20.2,17.392l-8.477-8.47a1.6,1.6,0,0,1,2.268-2.261l9.6,9.6a1.6,1.6,0,0,1,.047,2.208L14,28.13a1.6,1.6,0,0,1-2.268-2.261Z" transform="translate(299.489 561.538)" fill="#4fa83d" opacity="0.6"/><path id="Icon_ionic-ios-arrow-back-6" data-name="Icon ionic-ios-arrow-back" d="M20.2,17.392l-8.477-8.47a1.6,1.6,0,0,1,2.268-2.261l9.6,9.6a1.6,1.6,0,0,1,.047,2.208L14,28.13a1.6,1.6,0,0,1-2.268-2.261Z" transform="translate(263.749 561.538)" fill="#4fa83d" opacity="0.1"/></g></svg>