<svg xmlns="http://www.w3.org/2000/svg" width="162.649" height="163.294" viewBox="0 0 162.649 163.294"><g id="Group_5439" data-name="Group 5439" transform="translate(0 0)"><g id="Union_10" data-name="Union 10" transform="translate(0 0)" fill="none"><path d="M81.325,159.9a14.091,14.091,0,0,1-20.9-2.887,14.117,14.117,0,0,1-19.358-8.456,14.145,14.145,0,0,1-16.364-13.4,14.2,14.2,0,0,1-12.532-14.134,14.37,14.37,0,0,1,.36-3.2,14.278,14.278,0,0,1-7.065-20A14.281,14.281,0,0,1,4.026,76.645,14.282,14.282,0,0,1,8.315,55.863a14.272,14.272,0,0,1,9.711-18.847q-.057-.637-.058-1.288A14.183,14.183,0,0,1,32.11,21.5q.159,0,.317,0A14.133,14.133,0,0,1,50.455,10.474,14.1,14.1,0,0,1,70.776,4.751a14.087,14.087,0,0,1,21.1,0,14.1,14.1,0,0,1,20.321,5.723,14.132,14.132,0,0,1,18.029,11.032q.158,0,.317,0a14.183,14.183,0,0,1,14.141,14.225q0,.652-.057,1.288a14.272,14.272,0,0,1,9.71,18.847,14.282,14.282,0,0,1,4.289,20.782,14.281,14.281,0,0,1-1.438,21.173,14.279,14.279,0,0,1-7.065,20,14.341,14.341,0,0,1,.36,3.2,14.2,14.2,0,0,1-12.532,14.134,14.145,14.145,0,0,1-16.365,13.4,14.117,14.117,0,0,1-19.358,8.456,14.091,14.091,0,0,1-20.9,2.887Z" stroke="none"></path><path d="M 90.49358367919922 157.2938842773438 C 93.19934844970703 157.2938842773438 95.72255706787109 155.9396209716797 97.2431640625 153.6712036132812 L 100.1014556884766 149.4072723388672 L 104.75634765625 151.5712432861328 C 105.8217468261719 152.0665435791016 106.9646148681641 152.3176727294922 108.1532135009766 152.3176727294922 C 111.6716156005859 152.3176727294922 114.7782974243164 150.0541229248047 115.8838195800781 146.6850891113281 L 117.4796371459961 141.8220062255859 L 122.5334777832031 142.6313018798828 C 122.9531936645508 142.6985168457031 123.3834838867188 142.7328796386719 123.8217468261719 142.7328796386719 C 128.1855316162109 142.7328796386719 131.7582702636719 139.2881774902344 131.9553985595703 134.8906707763672 L 132.1845855712891 129.7776947021484 L 137.2697448730469 129.1979675292969 C 141.3808441162109 128.7292785644531 144.4810333251953 125.2157745361328 144.4810333251953 121.0252532958984 C 144.4810333251953 120.39306640625 144.4107208251953 119.7655639648438 144.2720336914062 119.1601181030273 L 143.1365814208984 114.2028579711914 L 147.8408203125 112.2704849243164 C 150.9253540039062 111.0034866333008 152.9184265136719 108.010856628418 152.9184265136719 104.6464309692383 C 152.9184265136719 103.2395401000977 152.5815124511719 101.9078521728516 151.9170074462891 100.6883544921875 L 149.4851684570312 96.22532653808594 L 153.4875335693359 93.09269714355469 C 155.4968719482422 91.52001190185547 156.6492767333984 89.14804077148438 156.6492767333984 86.5849609375 C 156.6492767333984 84.41732788085938 155.8218688964844 82.37174987792969 154.3195343017578 80.82506561279297 L 150.7770080566406 77.17796325683594 L 153.7933807373047 73.08498382568359 C 154.8430633544922 71.66064453125 155.3979034423828 69.96466827392578 155.3979034423828 68.18038177490234 C 155.3979034423828 65.24854278564453 153.8326721191406 62.51496124267578 151.3130035400391 61.04640960693359 L 146.9234771728516 58.48798751831055 L 148.7235107421875 53.73688125610352 C 149.0771942138672 52.80338287353516 149.2565002441406 51.81498718261719 149.2565002441406 50.79914474487305 C 149.2565002441406 47.03151321411133 146.7378692626953 43.75325012207031 143.1316375732422 42.8270149230957 L 138.2309875488281 40.80188369750977 L 138.6812438964844 35.72748565673828 C 138.6812438964844 31.19338417053223 135.0307922363281 27.50443458557129 130.3683624267578 27.50443458557129 C 130.3672332763672 27.50443458557129 130.3660736083984 27.50443458557129 130.3649291992188 27.50443458557129 L 125.2386093139648 27.62580299377441 L 124.3200073242188 22.58098793029785 C 123.610954284668 18.68722343444824 120.2437438964844 15.86109256744385 116.3134841918945 15.86109256744385 C 115.505615234375 15.86109256744385 114.7099304199219 15.97911834716797 113.9485626220703 16.21188163757324 L 109.0505065917969 17.70927619934082 L 106.8029556274414 13.10690784454346 C 105.4187469482422 10.27238178253174 102.6177978515625 8.511539459228516 99.49319458007812 8.511539459228516 C 97.93669128417969 8.511539459228516 96.42605590820312 8.954960823059082 95.12464141845703 9.793855667114258 L 90.80339813232422 12.57930278778076 L 87.38858795166016 8.736040115356445 C 85.84366607666016 6.997250080108643 83.63334655761719 6.00001335144043 81.32437896728516 6.00001335144043 C 79.01576995849609 6.00001335144043 76.80595397949219 6.997092247009277 75.26155853271484 8.735592842102051 L 71.84713745117188 12.5791711807251 L 67.52566528320312 9.794198036193848 C 66.22360992431641 8.955065727233887 64.71260833740234 8.511539459228516 63.15605926513672 8.511539459228516 C 60.03147888183594 8.511539459228516 57.2308235168457 10.27219772338867 55.8470344543457 13.10643482208252 L 53.59971618652344 17.70938110351562 L 48.70124435424805 16.21188163757324 C 47.93984985351562 15.97911834716797 47.14398193359375 15.86109256744385 46.33579635620117 15.86109256744385 C 42.40553283691406 15.86109256744385 39.03832244873047 18.68722343444824 38.32926940917969 22.58098793029785 L 37.11563873291016 27.50261878967285 L 32.10953140258789 27.50261878967285 C 27.62029647827148 27.50261878967285 23.96803283691406 31.19227600097656 24.00142860412598 36.47835540771484 L 24.45816421508789 41.55833053588867 L 19.51803398132324 42.82706451416016 C 15.91155910491943 43.75327682495117 13.3927698135376 47.03151321411133 13.3927698135376 50.79914474487305 C 13.3927698135376 51.81498718261719 13.5720853805542 52.80338287353516 13.9257698059082 53.73688125610352 L 15.72579669952393 58.48798751831055 L 11.33627033233643 61.04640960693359 C 8.816612243652344 62.51496124267578 7.251375198364258 65.24854278564453 7.251375198364258 68.18038177490234 C 7.251375198364258 69.96466827392578 7.806217193603516 71.66064453125 8.855901718139648 73.08498382568359 L 11.87226963043213 77.17796325683594 L 8.329743385314941 80.82506561279297 C 6.827401638031006 82.37174987792969 6.000006675720215 84.41732788085938 6.000006675720215 86.5849609375 C 6.000006675720215 89.14804077148438 7.152480602264404 91.51990509033203 9.161901473999023 93.09243774414062 L 13.16555976867676 96.22561645507812 L 10.73221778869629 100.6893539428711 C 10.06777000427246 101.9082489013672 9.730849266052246 103.2395935058594 9.730849266052246 104.6464309692383 C 9.730849266052246 108.0107269287109 11.72400665283203 111.0033798217773 14.80863857269287 112.2705688476562 L 19.51045417785645 114.2021179199219 L 18.37784957885742 119.1574325561523 C 18.23876953125 119.7659378051758 18.16824340820312 120.3943557739258 18.16824340820312 121.0252532958984 C 18.16824340820312 125.2157745361328 21.26861190795898 128.7292785644531 25.37998008728027 129.1979675292969 L 30.46550750732422 129.7776947021484 L 30.69440078735352 134.8910675048828 C 30.8912181854248 139.288330078125 34.46350860595703 142.7328796386719 38.82700729370117 142.7328796386719 C 39.26564025878906 142.7328796386719 39.69600677490234 142.6985473632812 40.11579513549805 142.6313018798828 L 45.16911315917969 141.8220977783203 L 46.76524353027344 146.6845092773438 C 47.87129592895508 150.0538787841797 50.97805786132812 152.3176727294922 54.49605941772461 152.3176727294922 C 55.6846923828125 152.3176727294922 56.82789993286133 152.0664672851562 57.89395523071289 151.5709838867188 L 62.54856109619141 149.4077301025391 L 65.40656280517578 153.6711730957031 C 66.92719268798828 155.9395904541016 69.45024108886719 157.2938842773438 72.15569305419922 157.2938842773438 C 74.62684631347656 157.2938842773438 76.38205718994141 156.233642578125 77.41934967041016 155.3442230224609 L 81.32527160644531 151.9951782226562 L 85.23085021972656 155.3446197509766 C 86.26774597167969 156.2338562011719 88.02245330810547 157.2938842773438 90.49358367919922 157.2938842773438 M 90.49358367919922 163.2938842773438 C 86.99526977539062 163.2938842773438 83.79342651367188 162.0161743164062 81.32487487792969 159.8991241455078 C 78.85581970214844 162.0161743164062 75.65451049804688 163.2938842773438 72.15569305419922 163.2938842773438 C 67.2701416015625 163.2938842773438 62.96319198608398 160.8018035888672 60.42274475097656 157.0120697021484 C 58.62005996704102 157.8498840332031 56.61208724975586 158.3176727294922 54.49605941772461 158.3176727294922 C 48.23569107055664 158.3176727294922 42.92574310302734 154.2257232666016 41.06453323364258 148.5558319091797 C 40.33571624755859 148.6725463867188 39.58855819702148 148.7328796386719 38.82700729370117 148.7328796386719 C 31.23445510864258 148.7328796386719 25.03853225708008 142.7134094238281 24.70040130615234 135.1593627929688 C 17.64824295043945 134.3554382324219 12.16824340820312 128.3339385986328 12.16824340820312 121.0252532958984 C 12.16824340820312 119.9235916137695 12.29319095611572 118.8508529663086 12.52869129180908 117.8205108642578 C 7.367980480194092 115.7004623413086 3.730848789215088 110.6005935668945 3.730848789215088 104.6464309692383 C 3.730848789215088 102.1718063354492 4.359006881713867 99.84480285644531 5.464138507843018 97.81754302978516 C 2.138848781585693 95.21524810791016 6.787751772208139e-06 91.15119934082031 6.787751772208139e-06 86.5849609375 C 6.787751772208139e-06 82.71643829345703 1.534980416297913 79.20896148681641 4.025848865509033 76.64456939697266 C 2.282638311386108 74.2791748046875 1.251375198364258 71.35070037841797 1.251375198364258 68.18038177490234 C 1.251375198364258 62.91843414306641 4.092269897460938 58.32377624511719 8.314953804016113 55.86261749267578 C 7.719007015228271 54.28964614868164 7.392769813537598 52.58303833007812 7.392769813537598 50.79914474487305 C 7.392769813537598 44.16125106811523 11.91242790222168 38.58561706542969 18.02553367614746 37.01564407348633 C 17.98737525939941 36.59125137329102 17.96803283691406 36.1618537902832 17.96803283691406 35.72748565673828 C 17.96803283691406 27.87119674682617 24.29929542541504 21.50261878967285 32.10953140258789 21.50261878967285 C 32.21561050415039 21.50261878967285 32.32121658325195 21.50361824035645 32.42634963989258 21.50611877441406 C 33.63261032104492 14.88167095184326 39.40113830566406 9.861092567443848 46.33579635620117 9.861092567443848 C 47.76863861083984 9.861092567443848 49.15190124511719 10.07553958892822 50.45534896850586 10.47401332855225 C 52.75779724121094 5.758171558380127 57.58037567138672 2.511539697647095 63.15605926513672 2.511539697647095 C 65.96174621582031 2.511539697647095 68.57656097412109 3.333408117294312 70.77590179443359 4.750776767730713 C 73.36542510986328 1.835776567459106 77.13195037841797 1.345664531982038e-05 81.32437896728516 1.345664531982038e-05 C 85.51679992675781 1.345664531982038e-05 89.28385162353516 1.835776567459106 91.87387847900391 4.750776767730713 C 94.07271575927734 3.333408117294312 96.68750762939453 2.511539697647095 99.49319458007812 2.511539697647095 C 105.0693740844727 2.511539697647095 109.8914794921875 5.758171558380127 112.1944274902344 10.47401332855225 C 113.4978485107422 10.07553958892822 114.880615234375 9.861092567443848 116.3134841918945 9.861092567443848 C 123.2481155395508 9.861092567443848 129.0166625976562 14.88167095184326 130.2229309082031 21.50611877441406 C 138.1385040283203 21.31872177124023 144.6812438964844 27.76496696472168 144.6812438964844 35.72748565673828 C 144.6812438964844 36.1618537902832 144.6618957519531 36.59125137329102 144.6242370605469 37.01564407348633 C 150.7368774414062 38.58561706542969 155.2565002441406 44.16125106811523 155.2565002441406 50.79914474487305 C 155.2565002441406 52.58303833007812 154.9302673339844 54.28964614868164 154.3343200683594 55.86261749267578 C 158.5570068359375 58.32377624511719 161.3979034423828 62.91843414306641 161.3979034423828 68.18038177490234 C 161.3979034423828 71.35070037841797 160.3666381835938 74.2791748046875 158.6234283447266 76.64456939697266 C 161.1143035888672 79.20896148681641 162.6492767333984 82.71643829345703 162.6492767333984 86.5849609375 C 162.6492767333984 91.15119934082031 160.5104217529297 95.21524810791016 157.1856384277344 97.81754302978516 C 158.2902679443359 99.84480285644531 158.9184265136719 102.1718063354492 158.9184265136719 104.6464309692383 C 158.9184265136719 110.6005935668945 155.2817993164062 115.7004623413086 150.1205902099609 117.8205108642578 C 150.3565826416016 118.8508529663086 150.4810333251953 119.9235916137695 150.4810333251953 121.0252532958984 C 150.4810333251953 128.3339385986328 145.0010375976562 134.3554382324219 137.9493713378906 135.1593627929688 C 137.6107482910156 142.7134094238281 131.4153289794922 148.7328796386719 123.8217468261719 148.7328796386719 C 123.0607147216797 148.7328796386719 122.3135604858398 148.6725463867188 121.5847473144531 148.5558319091797 C 119.7240295410156 154.2262268066406 114.4135894775391 158.3176727294922 108.1532135009766 158.3176727294922 C 106.0371627807617 158.3176727294922 104.0292205810547 157.8498840332031 102.2270050048828 157.0120697021484 C 99.68658447265625 160.8018035888672 95.37911224365234 163.2938842773438 90.49358367919922 163.2938842773438 Z" stroke="none" fill="#4fa83d"></path></g><text id="_" data-name="%" transform="translate(45.012 114.245)" fill="#4fa83d" font-size="95" font-family="SegoeUI, Segoe UI"><tspan x="0" y="0">%</tspan></text></g></svg>