<svg xmlns="http://www.w3.org/2000/svg" width="86" height="81" viewBox="0 0 86 81"><g id="Group_5553" data-name="Group 5553" transform="translate(-142 -11416)"><rect id="Rectangle_6182" data-name="Rectangle 6182" width="86" height="81" rx="22" transform="translate(142 11416)" fill="#cae2bc" opacity="0.2"></rect><g id="Group_4162" data-name="Group 4162" transform="translate(0 6358)"><g id="satellite" transform="translate(164.998 5078)"><path id="Path_21230" data-name="Path 21230" d="M26.386,20.962,24.3,23.049l-.885-.885,4.972-4.976a1.139,1.139,0,0,0-.166-1.587l-3.4-3.4a1.141,1.141,0,0,0-1.587-.166l-4.972,4.975-.888-.888,2.087-2.087L5.422,0,0,5.419,14.038,19.456l2.087-2.088.888.89-1.508,1.51a1.136,1.136,0,0,0,.166,1.587l1.167,1.166L14.8,24.562l-.913-.913a1.887,1.887,0,0,0-.148.12,2.065,2.065,0,0,0,2.92,2.92,1.428,1.428,0,0,0,.118-.148l-.913-.912L17.9,23.586l1.164,1.167a1.144,1.144,0,0,0,1.59.166l1.509-1.51.885.887-2.087,2.088L35,40.42,40.419,35Z" fill="#cae2bc"></path></g><g id="satellite-2" data-name="satellite" transform="translate(164.998 5078)"><path id="Path_21230-2" data-name="Path 21230" d="M9.04,19.073a8.7,8.7,0,1,0,12.3,12.3,1.826,1.826,0,0,0,.123-.141l.579.581c-.041.046-.077.094-.123.143A9.521,9.521,0,0,1,8.459,18.492c.045-.046.1-.081.141-.123l.58.581C9.135,18.995,9.087,19.028,9.04,19.073ZM23.865,33.9A12.264,12.264,0,0,1,6.521,16.554c.044-.044.092-.082.138-.126l-.581-.58c-.044.043-.092.083-.138.126a13.085,13.085,0,0,0,18.5,18.5l.128-.136-.579-.581C23.947,33.8,23.908,33.853,23.865,33.9ZM12.042,21.81l-.583-.581c-.046.041-.094.077-.141.123A5.482,5.482,0,0,0,19.072,29.1c.044-.043.078-.091.121-.14l-.581-.582c-.042.047-.078.1-.123.143A4.658,4.658,0,0,1,11.9,21.935.9.9,0,0,1,12.042,21.81Z" fill="#4fa83d"></path></g></g></g></svg>