<svg xmlns="http://www.w3.org/2000/svg" width="1394" height="154" viewBox="0 0 1394 154" fill="none"><rect width="1394" height="154" fill="#E6E6E6"/><rect width="1600" height="1029" transform="translate(-103 -41)" fill="black"/><mask id="mask0_0_1" style="mask-type:alpha" maskUnits="userSpaceOnUse" x="0" y="0" width="1394" height="154"><rect width="1394" height="154" rx="18" fill="#111913"/></mask><g mask="url(#mask0_0_1)"><path d="M1660 0H23C11.402 0 2 9.40202 2 21V488C2 499.598 11.402 509 23 509H1660C1671.6 509 1681 499.598 1681 488V21C1681 9.40202 1671.6 0 1660 0Z" fill="#111913"/><g opacity="0.02"><path d="M2 181.501V130.616C3.859 130.606 5.717 130.548 7.575 130.593C21.557 130.929 35.538 131.417 49.521 131.601C64.627 131.801 79.735 131.647 94.842 131.789C104.864 131.782 114.797 133.679 124.111 137.38C146.048 146.286 168.011 155.167 189.699 165.068C212.771 175.643 232.924 191.673 248.418 211.776C257.964 223.968 266.746 237.314 275.294 250.794C283.489 263.717 290.914 277.508 298.719 290.874C310.63 311.274 325.093 327.474 342.868 338.009C355.415 345.45 365.921 356.342 374.387 370.686C384.26 387.31 396.723 399.286 411.367 407.072C420.38 412.027 429.718 416.368 439.316 420.064C445.888 422.483 452.879 423.006 459.716 423.903C462.046 424.208 464.539 423.36 466.856 422.531C471.512 420.867 474.266 416.551 474.433 410.161C474.481 405.203 474.184 400.249 473.545 395.332C472.815 388.932 471.351 382.663 470.878 376.248C469.986 364.141 473.623 357.348 482.484 354.408C486.436 353.206 490.521 352.494 494.647 352.288C508.757 351.232 522.53 354.388 536.132 358.995C563.448 368.257 590.884 376.202 619.187 378.143C645.372 379.943 671.372 379.065 697.199 372.72C722.681 366.459 745.445 353.603 761.718 325.046C762.07 324.479 762.452 323.932 762.863 323.406C768.325 315.829 774.203 308.949 781.209 303.982C791.583 296.629 801.761 288.712 812.381 282.062C843.954 262.218 874.134 240.241 902.711 216.283C911.405 209.022 920.2 201.899 929.283 195.574C936.563 190.471 944.273 186.01 952.326 182.243C963.626 177.009 974.794 178.425 985.226 186.591C990.533 190.746 995.665 195.297 1000.88 199.664C1005.78 203.764 1010.57 208.107 1015.6 211.908C1025.96 219.745 1037.11 222.008 1048.56 217.751C1056.99 214.759 1065.09 210.913 1072.74 206.273C1107.04 184.759 1140.5 161.144 1172.05 132.941C1182.75 123.378 1193.42 113.759 1204.19 104.351C1235.05 77.41 1267.31 54.029 1302.08 37.401C1321.26 28.3581 1339.57 17.5714 1356.78 5.17703C1373.68 -7.32034 1392.48 -17.034 1412.45 -23.596C1435.28 -30.924 1458.16 -38.071 1481.16 -44.369C1507.93 -51.6581 1532.6 -65.1776 1553.15 -83.823C1563.52 -93.123 1573.57 -103.076 1583.71 -112.839C1592.79 -121.583 1601.63 -130.776 1610.89 -139.174C1615.47 -143.43 1620.61 -147.038 1626.18 -149.895C1636.39 -154.945 1643.23 -149.323 1645.53 -135.013C1647.32 -123.251 1645.97 -111.224 1641.62 -100.15C1638.29 -90.9432 1634.16 -82.0432 1629.28 -73.55C1621.87 -61.079 1613.5 -49.634 1605.66 -37.602C1602.07 -32.3551 1598.84 -26.8764 1595.97 -21.202C1590.05 -8.815 1591.1 2.10901 1598.89 12.61C1601.16 15.7195 1603.76 18.575 1606.65 21.127C1610.47 24.4793 1614.53 27.5538 1618.8 30.327C1638.44 42.964 1659.34 48.575 1681 49.788V114.143C1678.8 113.643 1676.6 113.151 1674.4 112.627C1654.57 107.901 1634.81 102.814 1615.42 95.416C1584.11 83.471 1554.24 66.701 1524.96 47.841C1511.36 39.0777 1497.67 30.5444 1483.9 22.241C1458.99 7.26402 1433.46 6.33002 1407.41 16.532C1389.77 23.438 1373.35 34.048 1356.84 44.532C1344.05 52.649 1331.22 60.845 1317.97 67.417C1291.35 80.4212 1265.98 95.8472 1242.19 113.5C1223.49 127.521 1205.04 142.182 1186.79 157.216C1144.5 192.041 1100.01 221.426 1056.24 252.599C1050.22 256.719 1043.83 260.251 1037.14 263.145C1027.14 267.697 1016.75 270.163 1006.32 266.703C999.32 264.38 992.513 260.753 985.832 257.026C977.581 252.421 969.672 246.709 961.399 242.186C946.97 234.298 932.304 234.204 917.72 241.645C912.241 244.372 906.918 247.402 901.776 250.721C882.92 263.25 864.932 277.037 847.932 291.988C833.249 304.655 821.373 320.248 813.064 337.769C802.119 360.79 786.52 375.696 767.684 385.416C745.334 396.949 721.993 401.682 698.341 404.279C680.143 406.264 661.797 406.489 643.556 404.952C622.515 403.202 601.519 400.858 580.771 395.829C564.823 391.964 549.013 387.098 533.114 382.87C527.647 381.416 522.128 379.946 516.491 381.699C510.284 383.63 507.045 388.242 506.809 396.734C506.764 401.956 506.992 407.177 507.492 412.375C508.126 420.552 509.392 428.685 509.563 436.868C509.693 443.282 509.117 449.69 507.846 455.978C506.424 462.898 502.346 466.712 496.813 466.127C493.05 465.768 489.369 464.805 485.913 463.273C478.513 459.886 471.27 455.881 463.958 452.146C440.803 440.321 417.617 428.603 394.499 416.646C377.919 408.073 363.386 395.283 350.899 378.276C342.643 366.776 332.478 356.775 320.844 348.709C311.267 342.221 302.822 334.203 295.845 324.976C285.521 311.286 275.363 297.345 265.527 283.028C242.065 248.879 214.227 223.891 181.152 209.577C168.382 204.051 155.615 198.51 142.794 193.203C129.914 187.87 116.737 184.428 103.223 184.136C83.456 183.71 63.683 183.787 43.917 183.323C29.94 182.999 15.972 182.129 2 181.501Z" fill="#4FA83D"/><path d="M2 -119.32C6.185 -121.405 10.482 -123.159 14.534 -125.634C30.192 -135.2 45.595 -134.541 60.847 -124.128C65.162 -121.183 69.555 -118.4 73.717 -115.101C89.0912 -102.806 106.702 -93.6075 125.576 -88.013C133.394 -85.695 141.115 -82.7679 148.839 -79.92C174.008 -70.64 196.346 -53.951 217.133 -33.183C235.998 -14.335 253.233 7.00903 270.233 28.704C278.462 39.204 286.612 49.8147 294.683 60.536C310.615 81.7187 324.411 104.427 335.867 128.329C341.231 139.429 346.437 150.672 352.1 161.491C356.082 169.135 360.489 176.549 365.3 183.7C374.473 197.268 386.133 202.16 399.658 200.3C410.295 198.84 420.529 195.342 430.73 191.224C438.802 187.818 447.127 185.048 455.63 182.938C470.078 179.607 484.314 183.052 498.171 188.3C516.271 195.156 534.229 202.709 552.13 210.452C574.249 219.945 597.71 225.943 621.671 228.23C641.791 230.26 661.913 230.93 682.024 229.097C747.413 223.143 807.837 197.915 860.924 145.135C885.016 121.184 905.445 92.135 924.566 61.372C937.435 40.665 950.158 19.791 963.247 -0.665955C971.861 -14.129 981.183 -26.804 992.035 -37.0919C997.577 -42.5306 1003.7 -47.3469 1010.29 -51.455C1025.33 -60.4099 1040.12 -58.57 1054.09 -46.931C1058.5 -43.248 1062.51 -38.687 1066.79 -34.716C1072.61 -29.331 1078.31 -23.624 1084.44 -18.953C1096.48 -9.77097 1109.36 -8.45297 1122.15 -15.482C1130.43 -20.0708 1138.2 -25.5286 1145.33 -31.763C1159.77 -44.33 1172.58 -59.699 1184.13 -76.724C1200.09 -100.224 1204.42 -128.202 1200.28 -158.887C1198.02 -175.211 1193.54 -191.15 1186.97 -206.264C1179.93 -222.689 1172.22 -238.602 1165.04 -254.927C1159.09 -268.45 1153.28 -282.099 1147.82 -295.977C1143.74 -306.417 1141.02 -317.341 1139.74 -328.477C1138.09 -342.467 1140.09 -355.147 1147.06 -366.277C1149.63 -370.393 1151.56 -375.232 1153.79 -379.741H1220.95C1222.58 -377.643 1224.32 -375.634 1226.16 -373.721C1232.56 -367.727 1239.4 -362.479 1245.43 -355.896C1257.45 -342.99 1264.81 -326.434 1266.34 -308.862C1266.94 -302.704 1267 -296.443 1267.2 -290.223C1267.72 -273.8 1267.84 -257.364 1270.19 -241.108C1275.83 -202.136 1290.13 -171.108 1316.14 -150.756C1334.39 -136.477 1354.42 -131.674 1375.24 -132.14C1401.42 -132.726 1426.54 -140.39 1450.97 -152.806C1489.7 -172.481 1523.49 -201.268 1549.64 -245.056C1555.9 -255.524 1563.28 -264.85 1570.52 -274.188C1578.7 -284.942 1588.37 -294.485 1599.23 -302.532C1610.73 -310.909 1622.85 -314.016 1635.93 -311.344C1651.49 -308.162 1666.41 -302.15 1681 -294.42V-270.474C1676.88 -272.774 1672.84 -275.43 1668.61 -277.288C1661.79 -280.374 1654.81 -283.102 1647.71 -285.461C1635.37 -289.4 1623.67 -286.346 1612.54 -278.51C1601.88 -270.998 1592.58 -260.991 1583.97 -249.903C1574.83 -238.148 1566.01 -225.949 1557.07 -213.927C1544.38 -196.878 1530.51 -181.79 1515.07 -169.422C1485.58 -145.8 1454.02 -128.732 1420.62 -118.147C1393.43 -109.528 1365.86 -105.675 1337.96 -111.813C1312.86 -117.333 1290.7 -131.157 1271.65 -153.804C1259.17 -168.531 1251.24 -186.558 1248.8 -205.702C1246.53 -222.35 1244.86 -239.169 1243.39 -255.983C1241.93 -272.563 1241.73 -289.376 1239.79 -305.834C1235.9 -338.676 1221.31 -359.491 1197.47 -368.483C1186.49 -372.624 1175.64 -371.758 1165.47 -364.197C1155.4 -356.706 1150.54 -345.237 1151.17 -329.679C1151.61 -318.739 1154.36 -308.741 1157.83 -299.018C1163.12 -284.565 1169.72 -270.626 1177.54 -257.374C1185.98 -242.774 1194.93 -228.699 1203.27 -213.997C1208.89 -204.085 1214.11 -193.718 1218.98 -183.121C1223.61 -173.153 1226.22 -162.367 1226.66 -151.386C1228.09 -114.186 1220.21 -81.128 1200.14 -54.801C1187.96 -39.1093 1175.01 -24.0374 1161.32 -9.64197C1151.61 0.758026 1141.04 9.83002 1130.54 18.835C1123.43 24.8503 1115.24 29.4564 1106.4 32.407C1097.13 35.614 1088.14 34.754 1079.85 28.402C1073.99 23.7321 1068.44 18.6776 1063.25 13.272C1058.34 8.33203 1053.84 2.65503 1049.03 -2.46597C1044.32 -7.47397 1039.09 -11.222 1033.17 -13.153C1024.23 -16.067 1015.76 -13.814 1007.51 -9.22296C997.396 -3.59897 988.462 4.65704 980.533 14.54C968.943 28.985 957.686 43.922 946.552 58.999C934.103 75.857 922.183 93.421 909.616 110.115C885.954 141.548 860.203 169.386 830.293 189.749C780.171 223.873 726.682 241.107 670.804 245.441C652.378 246.725 633.891 246.854 615.449 245.826C600.506 244.955 585.641 243.046 570.963 240.113C551.597 236.443 532.42 231.003 513.055 227.313C490.648 222.858 467.457 224.468 445.88 231.976C432.18 236.735 418.437 241.459 404.547 245.048C385.302 250.021 368.688 242.948 355.759 222.675C351.969 216.974 348.575 211.019 345.599 204.854C338.369 189.154 331.685 173 324.523 157.24C316.975 140.633 309.766 123.652 301.278 107.925C281.467 71.2161 256.578 41.1151 229.988 13.425C209.883 -7.5123 187.587 -22.686 163.102 -32.096C155.756 -34.908 148.413 -37.804 140.971 -40.09C119.607 -46.6945 99.8203 -57.602 82.83 -72.141C78.265 -75.9969 73.425 -79.272 68.706 -82.801C53.074 -94.496 37.038 -96.05 20.265 -87.145C14.429 -84.045 8.103 -82.6049 2 -80.407V-119.32Z" fill="#4FA83D"/><path d="M718.373 -379.732C721.749 -376.207 725.144 -372.712 728.495 -369.143C730.304 -367.3 732.007 -365.356 733.595 -363.32C736.754 -359.086 736.572 -356.341 732.539 -353.434C729.005 -350.894 725.231 -348.705 721.272 -346.898C703.472 -338.742 685.68 -330.498 667.756 -322.834C638.109 -310.153 608.324 -298.051 578.686 -285.34C571.077 -282.077 563.759 -277.566 556.386 -273.377C554.829 -272.627 553.443 -271.564 552.316 -270.254C551.188 -268.944 550.344 -267.415 549.835 -265.763C551.273 -264.763 552.444 -263.445 553.744 -263.156C557.19 -262.259 560.724 -261.74 564.283 -261.607C604.012 -261.619 643.746 -261.287 683.467 -262.078C707.711 -262.56 731.791 -266.85 755.807 -271.265C776.853 -275.135 797.836 -279.665 818.921 -283.08C825.951 -284.096 833.107 -283.815 840.036 -282.251C850.465 -280.051 854.736 -270.77 851.762 -257.225C849.859 -249.307 847.332 -241.552 844.205 -234.033C841.005 -225.882 836.966 -218.324 833.624 -210.262C826.352 -192.723 827.78 -184.085 839.737 -171.809C844.617 -166.798 849.697 -162.133 854.525 -157.037C869.025 -141.737 876.199 -121.303 877.465 -96.989C879.304 -61.672 871.84 -29.409 858.677 0.703033C841.351 40.342 816.411 69.392 786.565 91.221C761.075 109.864 733.776 121.087 704.865 125.021C652.416 132.165 602.281 121.112 555.123 89.221C531.779 73.433 511.599 51.885 494.3 25.439C476.232 -2.18198 465.165 -33.936 460.963 -70.108C460.277 -76.014 459.368 -81.878 458.458 -87.732C455.845 -104.523 448.292 -115.286 435.866 -119.307C428.094 -121.822 420.111 -123.144 412.283 -125.38C407.019 -126.88 401.665 -128.395 396.699 -131.062C387.37 -136.073 383.358 -145.441 384.087 -158.862C384.303 -162.828 384.887 -166.762 385.337 -170.703C385.648 -173.413 386.153 -176.094 386.344 -178.816C386.838 -185.875 384.837 -188.849 379.544 -187.716C374.867 -186.681 370.346 -185.033 366.1 -182.816C350.967 -175.016 335.984 -166.697 320.851 -158.898C313.551 -155.138 306.114 -151.815 298.626 -148.798C280.018 -141.291 262.974 -145.898 248.426 -162.943C238.705 -174.574 229.573 -186.686 221.065 -199.232C207.265 -219.177 194.137 -239.965 180.343 -259.924C167.287 -278.815 153.143 -296.186 137.324 -310.992C114.727 -332.139 89.551 -342.918 62.167 -345.632C43.5454 -347.571 24.7336 -346.524 6.442 -342.532C4.9705 -342.33 3.48413 -342.258 2 -342.316V-352.793C3.284 -353.069 4.576 -353.293 5.851 -353.63C39.418 -362.578 72.579 -360.378 105.251 -346.796C126.551 -337.94 145.395 -322.764 162.639 -304.238C181.677 -283.784 200.172 -262.431 218.933 -241.515C229.826 -229.37 240.933 -217.601 253.306 -208.189C261.948 -201.616 271.024 -196.545 280.858 -194.119C298.198 -189.842 314.658 -194.162 330.423 -203.774C339.573 -209.352 348.539 -215.52 357.386 -221.924C383.196 -240.609 409.902 -256.494 438.033 -267.763C463.551 -277.985 489.057 -288.374 514.843 -297.263C557.235 -311.878 599.858 -325.291 642.363 -339.323C652.49 -342.666 662.569 -346.291 672.598 -350.123C676.059 -351.445 679.898 -352.412 682.489 -357.84C680.926 -359.884 679.563 -362.196 677.837 -363.817C673.414 -367.969 668.799 -371.754 664.331 -375.822C663.208 -377.038 662.19 -378.346 661.287 -379.732H718.373ZM790.184 -250.769C781.21 -249.463 773.425 -248.361 765.645 -247.193C741.566 -243.58 717.53 -239.322 693.4 -236.479C666.1 -233.262 638.716 -231.365 611.375 -228.784C585.906 -226.522 560.701 -221.902 536.085 -214.984C516 -209.23 496.193 -202.115 477.533 -190.384C471.611 -186.704 466.162 -182.313 461.306 -177.31C451.68 -167.274 451.859 -158.542 461.183 -148.165C464.483 -144.497 467.921 -141.055 471.134 -137.265C477.617 -129.613 480.367 -119.922 479.279 -108.439C478.694 -102.263 477.957 -96.105 477.11 -89.983C474.934 -75.456 474.608 -60.7118 476.141 -46.103C478.463 -25.957 484.816 -8.07297 493.474 8.45602C511.931 43.692 536.49 69.332 565.502 86.889C611.587 114.779 659.925 124.117 710.119 114.439C747.061 107.317 780.398 88.63 809.785 57.739C832.34 34.224 849.133 5.79675 858.841 -25.307C866.05 -48.107 870.133 -71.723 867.296 -96.718C865.444 -113.039 860.663 -127.541 850.944 -138.044C845.82 -143.379 840.104 -148.111 833.907 -152.15C827.947 -156.202 821.487 -158.916 815.352 -162.536C810.778 -165.046 806.447 -167.975 802.415 -171.285C795.215 -177.558 793.869 -184.915 797.895 -195.023C800.164 -200.723 803.189 -205.873 805.654 -211.445C808.208 -217.219 811.009 -222.945 812.787 -229.153C815.906 -240.053 812.68 -247.303 804.06 -249.253C799.129 -250.369 794.057 -250.377 790.185 -250.769H790.184Z" fill="#4FA83D"/><path d="M1.99994 -48.979C13.7249 -48.247 24.8559 -53.102 36.2329 -55.587C51.4129 -58.903 65.9549 -56.802 79.8329 -47.73C84.3549 -44.775 88.9439 -41.971 93.3329 -38.685C109.983 -26.1616 128.591 -16.4808 148.403 -10.035C156.725 -7.31799 164.932 -3.935 173.134 -0.605988C204.462 12.117 231.034 35.494 255.2 64.494C280.641 95.03 300.361 131.303 316.758 171.154C323.853 188.397 331.416 205.317 339.173 222.045C344.289 233.079 350.389 243.251 358.051 251.436C373.18 267.598 390.351 273.974 409.402 268.773C420.702 265.687 431.809 261.282 442.994 257.426C466.055 249.475 489.384 248.826 512.924 252.414C549.067 257.927 585.253 262.533 621.715 259.631C641.992 258.017 662.356 257.542 682.535 254.699C737.845 246.906 791.05 228.679 840.484 193.555C864.85 176.243 886.501 153.749 906.709 128.84C925.493 105.686 943.65 81.625 962.409 58.44C970.445 48.4435 979.119 38.9761 988.375 30.097C994.255 24.5947 1000.91 19.9828 1008.13 16.408C1019.95 10.437 1031.3 12.934 1041.34 23.465C1046.33 28.691 1050.91 34.586 1055.85 39.892C1060.93 45.347 1066.04 50.822 1071.46 55.629C1081.26 64.32 1091.97 66.091 1102.98 60.443C1110.27 56.703 1117.68 52.885 1124.32 47.537C1135.9 38.3933 1146.92 28.5651 1157.32 18.105C1174.5 0.540009 1191.09 -18.059 1207.89 -36.282C1218.43 -47.716 1227.02 -61.407 1233.93 -77.013C1236.68 -83.235 1239.39 -89.508 1242.34 -95.558C1244.42 -99.8844 1246.76 -104.076 1249.37 -108.107C1254.28 -115.596 1260.61 -118.815 1267.97 -116.921C1274.05 -115.316 1280.02 -113.348 1285.86 -111.028C1298.56 -106.072 1311.19 -100.888 1324.31 -98.057C1341.38 -94.375 1358.53 -94.104 1375.64 -95.951C1423.34 -101.104 1467.85 -120.951 1510.14 -150.211C1532.17 -165.451 1551.61 -185.511 1569.41 -208.534C1578.52 -220.318 1587.61 -232.203 1597.27 -243.134C1603.82 -250.443 1611.03 -257.137 1618.8 -263.134C1630.66 -272.416 1643.52 -274.045 1656.57 -268.19C1664.84 -264.477 1672.87 -259.768 1681 -255.506V-236.05C1674.64 -240.172 1668.4 -244.687 1661.89 -248.334C1649.44 -255.31 1637.14 -254.004 1625.16 -245.886C1615.61 -239.416 1607.04 -231.029 1599.01 -221.674C1588.18 -209.062 1577.64 -196.002 1566.76 -183.486C1537.96 -150.372 1504.9 -127.434 1469.3 -110.324C1432.21 -92.501 1394.14 -81.009 1354.83 -78.016C1337.18 -76.672 1319.42 -77.949 1301.71 -78.086C1298.35 -78.111 1295 -78.486 1291.65 -78.486C1277.58 -78.471 1265.16 -72.457 1255.28 -58.909C1238.52 -35.923 1219.2 -17.209 1200.04 1.83401C1184.17 17.601 1168.64 33.952 1152.88 49.923C1139.34 63.655 1125.25 76.311 1109.92 86.223C1104.66 89.6501 1099.11 92.5837 1093.31 94.986C1082.94 99.22 1072.84 97.469 1063.86 89.342C1057.25 83.355 1051.18 76.285 1044.96 69.542C1040.62 64.833 1036.59 59.603 1032.16 55.055C1023.57 46.235 1013.91 44.379 1003.55 48.202C994.687 51.6154 986.701 56.9814 980.189 63.902C967.35 77.134 954.789 90.861 942.34 104.752C926.022 122.966 910.13 141.867 893.698 159.891C857.523 199.57 816.125 225.607 771.367 242.837C740.179 254.73 707.994 263.823 675.193 270.006C650.293 274.797 625.378 279.515 600.57 285.066C580.238 289.616 560.145 288.65 539.936 284.091C525.984 280.942 511.967 278.041 497.894 276.18C476.68 273.374 455.88 277.17 435.469 285.339C427.269 288.62 418.956 291.459 410.602 293.948C402.831 296.262 395.024 295.075 387.317 292.74C367.886 286.854 351.573 274.022 339.473 252.745C332.832 241.067 326.806 228.706 321 216.236C312.927 198.883 305.529 180.969 297.473 163.601C284.825 136.332 269.734 111.733 251.791 90.285C226.237 59.737 196.55 39.604 163.641 27.824C141.606 19.938 120.125 10.266 99.5729 -3.06598C86.1194 -12.0252 69.9489 -15.9803 53.8789 -14.242C46.8139 -13.53 39.7629 -12.512 32.6919 -11.965C22.4669 -11.174 12.2279 -10.685 1.99194 -10.065L1.99994 -48.979Z" fill="#4FA83D"/><path d="M1.9999 368.579C42.8099 372.288 83.6559 369.359 124.483 369.608C158.033 369.808 189.832 379.917 220.793 396.308C238.466 405.662 256.267 414.582 274.027 423.636C304.941 439.394 336.842 450.285 369.318 458.449C386.193 462.507 402.387 469.005 417.387 477.737C441.587 492.076 460.909 513.962 475.15 543.867C485.502 565.605 493.691 588.783 501.169 612.467C503.123 618.657 505.114 624.886 507.61 630.696C511.629 640.05 516.545 640.952 521.81 632.916C525.358 627.487 528.219 621.639 530.329 615.506C534.812 602.378 538.848 588.951 542.638 575.43C548.92 553.017 555.016 530.495 564.167 509.812C567.272 502.661 570.967 495.78 575.213 489.241C581.168 480.241 588.982 477.3 597.985 478.72C623.185 482.697 647.945 489.91 672.78 496.592C694.531 502.444 716.38 507.692 738.58 509.114C776.18 511.529 813.139 506.781 848.459 488.194C860.559 481.824 872.309 474.039 883.819 465.894C900.964 453.756 918.212 442.142 936.331 432.664C947.382 426.883 957.944 419.125 968.239 411.135C988.228 395.623 1008.16 379.917 1027.6 363.22C1065.02 331.081 1103.89 302.747 1144.87 279.571C1170.3 265.183 1194.52 247.502 1218.86 230.135C1251.97 206.51 1286.2 186.102 1322.34 172.251C1339.49 165.677 1357.11 161.227 1374.59 156.233C1386.97 152.696 1399.41 149.413 1411.92 146.807C1435.06 141.986 1457.75 145.238 1479.48 156.864C1492.87 163.876 1505.75 171.822 1518.02 180.644C1545.98 201.111 1573.62 222.363 1601.18 243.785C1623.95 261.485 1645.19 282.212 1665.83 304.066C1670.77 309.304 1675.94 314.166 1681.01 319.199V355.118C1678.92 353.118 1676.74 351.267 1674.76 349.1C1662.49 335.682 1650.6 321.586 1637.92 308.9C1624.8 295.77 1611.18 283.448 1597.33 271.736C1577 254.55 1556.23 238.296 1535.72 221.505C1516.45 205.739 1496.91 190.738 1475.94 179.266C1455.63 168.151 1434.58 162.154 1412.63 164.089C1398.51 165.333 1384.46 168.028 1370.4 170.289C1322.5 177.983 1278.24 200.95 1235.87 230.319C1198.61 256.158 1160.72 280.138 1122.2 302.261C1091.59 319.771 1063 342.276 1035.56 367.411C1009.56 391.224 983.557 415.036 957.552 438.845C945.665 449.911 932.539 459.568 918.436 467.622C906.602 474.254 895.262 482.538 883.906 490.601C862.021 506.139 839.241 518.119 814.677 523.527C793.83 528.121 772.397 529.451 751.142 527.471C728.373 525.393 706.076 519.69 683.866 513.062C661.866 506.496 639.849 500.035 617.815 493.678C612.555 492.206 607.206 491.076 601.8 490.297C591.747 488.775 583.287 493.578 577.006 503.856C572.458 511.371 568.509 519.233 565.198 527.369C556.87 547.64 552.611 569.925 548.32 592.133C544.171 613.61 540.194 635.153 533.583 655.602C528.525 671.249 522.348 685.992 513.856 698.841C508.885 706.362 503.466 713.278 496.771 717.921C493.614 720.167 490.053 721.78 486.283 722.674C481.883 723.633 479.076 720.224 478.827 714.256C478.707 710.537 478.947 706.814 479.542 703.141C481.466 690.696 483.83 678.369 485.594 665.887C489.537 637.995 487.008 610.819 479.971 584.22C468.255 539.943 447.911 505.806 415.463 485.852C404.281 478.891 392.095 473.691 379.333 470.432C363.039 466.346 346.55 463.554 330.35 458.926C304.665 451.589 279.08 443.641 253.593 435.081C235.352 428.934 217.444 421.048 199.293 414.402C179.462 407.099 158.502 403.34 137.369 403.295C110.698 403.23 84.0269 404.149 57.3549 404.177C40.0189 404.195 22.6829 403.377 5.3459 402.948C4.2309 402.92 3.1149 402.983 1.9989 403.004L1.9999 368.579Z" fill="#4FA83D"/><path d="M2 211.434C17.654 212.056 33.3 212.889 48.962 213.245C67.794 213.673 86.634 213.536 105.462 213.939C121.622 214.285 137.317 218.592 152.662 225.151C162.962 229.551 173.197 234.204 183.404 238.966C211.837 252.231 236.768 273.101 258.574 300.83C267.221 311.83 275.849 322.917 285.062 333.03C292.723 341.341 300.949 349.113 309.682 356.29C319.363 364.34 328.976 372.443 337.533 382.536C352.337 400.11 370.668 414.377 391.338 424.415C408.481 432.815 425.485 441.722 442.455 450.731C457.483 458.905 471.65 468.57 484.744 479.58C489.494 483.672 494.6 487.333 500 490.518C510.51 496.376 518.351 491.618 522.095 477.218C523.546 471.484 524.399 465.615 524.641 459.705C525.041 450.764 524.667 441.764 524.665 432.789C524.665 427.556 524.476 422.289 524.842 417.094C525.621 406.059 530.063 400.443 538.389 400.235C542.328 400.172 546.254 400.706 550.034 401.818C583.837 411.445 618.532 417.611 653.583 420.218C692.055 423.165 730.406 421.709 768.062 408.925C779.712 405.016 790.831 399.673 801.162 393.02C816.191 383.295 828.943 369.809 839.278 352.265C843.548 345.017 847.678 337.61 852.072 330.505C865.6 308.654 882.632 293.405 902.419 283.554C921.011 274.299 939.779 275.767 958.538 282.532C965.915 285.192 973.215 288.245 980.524 291.232C997.764 298.269 1014.87 297.661 1031.43 288.256C1043.41 281.477 1055.02 274.056 1066.2 266.024C1120.19 227.108 1174.24 188.369 1227.25 147.038C1258.02 122.968 1291.31 102.286 1326.52 85.352C1337.69 79.99 1348.32 72.46 1358.99 65.376C1371.53 57.056 1384.08 48.938 1397.47 43.245C1421.69 32.945 1445.84 32.821 1470.08 43.088C1488.6 50.934 1506.31 61.467 1524.06 71.888C1550 87.125 1575.69 103.25 1602.74 114.733C1622.27 123.024 1642.08 130.151 1661.76 137.839C1668.19 140.351 1674.59 142.995 1681 145.579V171.024C1658.72 157.494 1634.93 149.779 1611.9 139.106C1582.07 125.275 1553.72 106.869 1525.02 89.515C1504.8 77.288 1484.33 65.957 1462.77 58.435C1436.12 49.135 1410.26 52.095 1385.18 66.912C1376.83 71.84 1368.71 77.493 1360.68 83.289C1349.43 91.4005 1337.45 98.451 1324.9 104.35C1288.4 121.55 1253.62 143.931 1219.9 169.097C1166.18 209.194 1112.08 248.369 1057.62 286.624C1047.88 293.434 1037.91 299.662 1027.94 305.847C1009.82 317.087 990.956 320.247 971.191 315.599C956 311.916 940.134 312.056 925.01 316.004C908.41 320.343 893.34 329.143 880.11 343.213C873.401 350.346 866.817 357.748 860.576 365.597C832.108 401.397 797.784 420.181 759.74 428.46C727.34 435.51 694.768 435.951 662.131 432.975C629.755 430.023 597.61 424.352 565.604 417.241C561.795 416.241 557.904 415.583 553.978 415.275C543.924 414.887 538.645 420.626 537.125 434.034C536.038 443.626 535.905 453.407 534.89 463.018C534.034 471.124 533.083 479.363 531.116 487.061C529.54 492.93 527.105 498.533 523.892 503.691C518.986 511.691 512.392 513.384 505.181 509.585C502.709 508.248 500.378 506.663 498.224 504.857C495.449 502.632 492.844 500.204 490.43 497.592C466.679 471.269 439.266 454.109 410.509 440.292C399.109 434.818 387.656 429.562 376.295 423.962C360.989 416.417 346.895 405.885 333.541 393.329C320.589 381.149 307.205 369.794 294.152 357.803C286.167 350.468 278.364 342.764 270.635 334.949C265.435 329.689 260.39 324.12 255.474 318.386C220.948 278.121 179.874 256.246 135.981 242.412C121.181 237.747 106.005 237.701 90.905 237.472C67.223 237.114 43.537 237.23 19.854 236.921C13.901 236.844 7.954 235.921 2.004 235.38L2 211.434Z" fill="#4FA83D"/><path d="M1681 -155.24C1676.72 -164.718 1671.37 -173.676 1665.06 -181.94C1654.65 -195.159 1642.92 -198.183 1630.16 -189.576C1622.25 -184.06 1614.77 -177.962 1607.77 -171.331C1600.71 -164.831 1594.03 -157.579 1587.39 -150.321C1548.51 -107.821 1504.85 -78.282 1455.97 -62.421C1432.98 -54.96 1410.15 -46.611 1387.23 -38.756C1369.82 -32.6466 1353.02 -24.8912 1337.08 -15.595C1325.09 -8.72165 1313.02 -2.12833 1300.85 4.18501C1262.58 24.059 1226.85 50.171 1193.32 81.76C1183.72 90.809 1174.19 100.009 1164.64 109.16C1142.62 130.267 1118.6 149.174 1092.91 165.611C1082.64 172.187 1072.13 177.898 1060.79 180.511C1051.17 182.725 1042.13 180.741 1033.87 174.049C1028.3 169.543 1023.1 164.229 1017.82 159.113C1013.14 154.579 1008.64 149.707 1003.96 145.185C994.325 135.891 983.711 133.84 972.619 139.121C965.598 142.346 958.938 146.305 952.75 150.932C942.418 158.875 932.45 167.681 922.479 176.44C910.637 186.847 899.011 197.691 887.202 208.163C856.261 235.6 822.924 256.463 787.967 272.963C773.387 279.849 758.967 287.363 744.573 294.922C731.674 301.616 720.052 310.526 710.239 321.245C691.448 341.845 669.433 350.378 645.793 353.664C611.377 358.448 577.746 353.229 544.493 341.041C533.243 337.049 521.739 333.813 510.058 331.353C491.908 327.331 473.991 330.305 456.358 336.672C451.77 338.25 447.364 340.314 443.214 342.828C435.82 347.459 431.179 355.207 430.228 366.388C430.186 366.883 430.109 367.372 430.043 367.864C428.611 378.6 425.405 381.257 418.078 376.547C413.545 373.595 409.503 369.951 406.1 365.746C395.078 352.047 381.434 340.686 365.966 332.326C361.653 329.99 357.475 327.199 353.259 324.546C336.909 314.255 323.243 299.532 312.546 280.025C306.704 269.37 301.023 258.556 295.294 247.789C289.458 236.819 283.73 225.743 277.82 214.844C252.903 168.891 220.185 137.417 179.665 120.421C159.759 112.021 139.893 103.453 120.007 94.97C108.85 90.241 96.8902 87.6966 84.7749 87.475C77.8749 87.307 70.9749 87.327 64.0749 87.442C43.3829 87.788 22.6899 89.532 2.00293 87.214V60.274C5.14193 60.734 8.28393 61.624 11.4189 61.583C28.0129 61.368 44.6039 60.916 61.1959 60.553C74.0629 60.27 86.9619 59.586 99.6639 63.108C105.18 64.6872 110.582 66.638 115.834 68.947C135.522 77.419 155.129 86.234 174.834 94.655C199.549 105.219 222.748 119.601 243.043 141.619C257.42 157.415 269.715 174.987 279.63 193.906C288.17 209.942 296.05 226.606 304.449 242.776C311.249 255.871 318.184 268.862 325.443 281.505C330.5 290.4 337.081 298.336 344.886 304.953C362.911 320.138 382.267 330.686 403.486 334.743C411.617 336.297 419.477 334.554 427.267 331.901C437.918 328.273 448.476 324.152 459.146 320.629C479.046 314.059 499.074 314.329 519.03 319.947C535.618 324.614 552.044 330.328 568.651 334.858C595.143 342.084 621.674 341.915 647.879 332.558C655.886 329.862 663.41 325.9 670.164 320.824C695.513 301.024 722.964 288.565 750.809 277.117C769.325 269.505 787.777 261.537 806.016 252.826C838.54 237.292 868.36 214.771 896.426 188.026C911.459 173.703 926.205 158.837 941.358 144.75C950.223 136.443 959.559 128.653 969.32 121.419C974.953 117.283 981.32 114.684 987.553 112.327C995.516 109.317 1003.16 111.661 1009.99 117.678C1014.34 121.506 1018.35 126.028 1022.45 130.329C1028.03 136.17 1033.42 142.346 1039.13 147.929C1049.7 158.271 1061.42 160.979 1074.16 156.729C1083.78 153.353 1092.89 148.709 1101.27 142.92C1123.67 127.842 1144.5 110.568 1163.46 91.355C1182.25 72.493 1201.25 54.067 1221.04 37.044C1270.7 -5.69397 1324.57 -34.331 1382.29 -50.487C1409.1 -57.993 1435.61 -67.087 1461.96 -77.187C1507.26 -94.553 1548.03 -123.04 1584.31 -163.187C1592.36 -172.087 1600.4 -181.037 1608.85 -189.208C1615.45 -195.699 1622.59 -201.62 1630.18 -206.908C1643.08 -215.698 1655.81 -214.392 1667.59 -202.756C1672.22 -198.182 1676.54 -193.056 1681 -188.175L1681 -155.24Z" fill="#4FA83D"/><path d="M1681 277.285C1669.41 266.393 1658.05 255.035 1646.19 244.697C1610.22 213.338 1572.48 186.11 1534.12 160.447C1518.63 150.089 1502.86 140.376 1486.86 131.547C1471.25 122.941 1454.83 118.312 1437.79 118.665C1428.34 118.722 1418.98 120.536 1410.19 124.015C1380.26 136.28 1349.82 146.146 1319.88 158.246C1279.79 174.446 1241.79 197.72 1205.19 224.822C1175.98 246.453 1146.21 266.556 1115.88 285.132C1089.61 301.29 1064.43 320.262 1039.44 339.675C1015.42 358.338 991.142 376.392 965.316 390.332C958.867 393.938 952.186 397.112 945.316 399.832C928.016 406.501 911.706 415.494 896.833 426.564C888.168 432.912 879.542 439.358 870.833 445.583C843.13 465.588 811.108 478.793 777.357 484.13C749.043 488.601 720.166 488.096 692.026 482.636C668.602 478.203 645.273 472.882 621.875 468.182C611.008 465.998 600.09 464.261 589.175 462.496C579.291 460.896 571.593 466.054 566.342 477.138C563.06 484.065 560.233 491.405 557.476 498.743C551.705 514.107 546.254 529.687 540.393 544.989C537.685 552.231 534.533 559.298 530.955 566.152C521.784 583.339 513.775 584.044 502.808 568.631C498.323 562.331 494.408 555.285 490.346 548.466C484.652 538.915 479.286 528.996 473.376 519.695C456.133 492.558 434.164 474.473 409.276 463.069C392.744 455.495 375.754 449.595 358.814 443.754C333.726 434.963 309.841 423.057 287.721 408.314C262.97 392.029 238.144 375.935 213.145 360.346C193.675 348.204 173.538 338.258 152.219 333.638C142.902 331.53 133.416 330.253 123.874 329.822C105.236 329.159 86.5739 329.622 67.9299 329.316C47.2369 328.977 26.5469 328.292 5.85488 327.793C4.56508 327.837 3.27926 327.961 2.00488 328.165V302.728C18.9569 303.554 35.9049 304.748 52.8619 305.111C72.8149 305.538 92.7769 305.322 112.735 305.246C141.188 305.137 168.281 313.817 194.13 329.023C210.318 338.546 226.102 349.39 241.749 360.447C263.178 375.59 284.33 391.434 305.549 407.097C328.077 423.726 352.249 434.523 376.967 443.421C394.439 449.71 411.686 456.852 428.132 467.149C448.68 480.015 466.681 497.34 481.532 520.419C487.003 528.919 492.665 537.219 498.424 545.376C500.665 548.533 503.231 551.447 506.079 554.069C513.614 561.034 520.142 560.507 526.773 551.927C530.292 547.49 533.227 542.619 535.507 537.435C540.82 524.874 545.707 511.972 550.453 499.006C552.988 492.083 554.825 484.706 557.086 477.6C558.251 473.936 559.533 470.318 560.97 466.833C566.077 454.445 574.044 449.575 584.38 451.499C611.516 456.551 638.629 461.833 665.78 466.747C692.98 471.671 720.293 474.847 747.772 472.954C789.282 470.099 828.844 457.26 865.585 430.597C874.106 424.412 882.559 418.049 890.966 411.591C911.159 396.081 932.438 384.491 955.332 378.16C974.445 372.878 992.382 362.934 1009.75 351.27C1023.4 342.097 1036.74 332.07 1050.28 322.604C1073.08 306.673 1095.64 290.061 1118.84 275.238C1149.49 255.654 1179.09 233.516 1208.99 212.073C1246.52 185.153 1285.34 162.182 1326.03 145.059C1329.94 143.414 1333.87 141.826 1337.85 140.517C1355.09 134.844 1371.67 126.657 1388.12 117.798C1397.96 112.362 1408.22 107.744 1418.81 103.99C1436.8 97.854 1454.72 100.718 1472.39 107.436C1487.42 113.227 1501.72 120.753 1515 129.862C1555.73 157.524 1596.49 185.129 1636.84 213.738C1652.11 224.56 1666.31 238.064 1681 250.346L1681 277.285Z" fill="#4FA83D"/><path d="M684.024 174.301C682.318 175.477 680.514 176.506 678.634 177.377C669.02 180.877 659.152 181.662 649.255 181.769C611.055 182.182 574.387 172.6 539.571 151.246C521.443 140.127 503.371 128.838 485.236 117.746C466.675 106.404 447.547 97.4171 427.187 93.994C420.546 92.8989 413.847 92.1907 407.124 91.8731C394.924 91.2591 383.672 86.5851 373.117 78.5901C356.806 66.2361 342.156 50.8141 328.13 34.3421C322.177 27.2625 316.654 19.8325 311.591 12.0921C308.61 7.3707 306.215 2.30369 304.459 -2.99694C300.893 -13.2149 301.85 -23.2219 307.679 -31.4409C311.646 -37.065 316.176 -42.2699 321.199 -46.9749C333.832 -58.7079 348.16 -64.9899 363.232 -68.1509C375.766 -70.7789 388.347 -72.4129 401.093 -70.2969C412.243 -68.4459 421.413 -62.0659 428.206 -50.2279C432.393 -42.9279 436.187 -35.1789 439.74 -27.2939C447.54 -9.99394 455.07 7.56007 464.851 23.0571C507.058 89.9311 559.251 135.369 623.599 154.339C641.064 159.488 658.676 163.745 676.199 168.539C678.837 169.261 681.365 170.7 683.943 171.808C683.971 172.64 683.998 173.471 684.024 174.301ZM511.575 109.528L512.375 107.515C511.405 105.272 510.285 103.098 509.023 101.006C504.952 95.1851 500.849 89.3831 496.531 83.8941C472.768 53.6941 451.739 20.5771 435.072 -17.3409C431.855 -24.4843 428.232 -31.4374 424.219 -38.166C417.414 -49.819 408.524 -57.3209 397.466 -59.2929C375.931 -63.1349 355.493 -57.9819 336.505 -44.0149C331.122 -39.856 326.425 -34.8781 322.586 -29.2629C315.43 -19.1499 314.778 -8.39892 320.158 3.59608C322.559 8.99307 325.541 14.1123 329.052 18.8631C341.941 36.267 357.723 51.3288 375.709 63.3921C385.135 69.7298 396.089 73.4224 407.428 74.0851C415.646 74.6309 423.811 75.7919 431.856 77.5581C451.072 81.7821 469.321 90.4581 487.356 100.058C493.404 103.277 499.598 106.029 505.795 108.708C507.595 109.485 509.641 109.28 511.575 109.528Z" fill="#4FA83D"/><path d="M738.713 -223.336C746.213 -222.628 753.273 -221.987 760.327 -221.268C761.453 -221.111 762.556 -220.813 763.608 -220.38C770.853 -217.68 772.922 -212.948 771.015 -203.09C770.269 -199.235 769.157 -195.511 768.328 -191.683C765.594 -179.076 767.687 -171.571 776.548 -165.816C782.355 -162.239 788.481 -159.208 794.848 -156.761C803.922 -153.01 813.179 -150.05 822.248 -146.288C827.142 -144.24 831.82 -141.709 836.212 -138.731C852.275 -127.892 860.424 -109.925 861.794 -86.2309C863.094 -63.7779 859.135 -42.6679 852.177 -22.4429C841.898 7.74609 824.729 35.1261 802.03 57.5271C772.691 86.7981 739.687 103.916 703.424 109.94C658.017 117.482 614.171 109.089 572.124 85.3591C544.554 69.7981 520.784 46.929 502.461 14.7841C496.612 4.58844 491.916 -6.22688 488.461 -17.4619C481.116 -41.4919 480.927 -65.5029 488.825 -89.3619C491.389 -97.1049 494.213 -104.708 497.147 -112.213C501.833 -124.198 503.615 -136.449 500.456 -149.718C497.701 -161.292 500.69 -170.618 508.24 -176.671C514.269 -181.631 520.789 -185.962 527.699 -189.597C546.078 -198.937 565.308 -203.878 584.715 -207.573C610.015 -212.388 635.462 -215.085 660.954 -217.133C687.005 -219.224 713.054 -221.287 738.713 -223.336ZM677.005 106.743C684.067 105.78 696.551 104.791 708.857 102.266C743.844 95.0851 775.396 76.912 803.063 47.2361C823.016 25.8361 839.125 0.344055 848.563 -31.907C853.092 -47.388 855.763 -63.3659 854.846 -80.1149C853.57 -103.536 845.232 -120.593 829.04 -130.274C825.439 -132.606 821.566 -134.488 817.508 -135.88C804.97 -139.618 792.339 -142.798 779.765 -146.327C767.922 -149.65 756.029 -152.74 744.301 -156.688C734.98 -159.826 727.365 -166.812 722.033 -177.876C718.533 -185.14 713.433 -189.832 707.154 -191.412C700.032 -193.204 692.811 -194.939 685.595 -195.299C656.236 -196.768 627.102 -193.399 598.203 -186.481C587.366 -183.888 576.657 -180.512 566.478 -174.681C558.978 -170.389 552.011 -164.86 547.618 -155.458C540.104 -139.375 530.227 -126.29 519.818 -113.707C512.618 -105.007 505.826 -95.715 500.513 -84.7299C491.975 -67.0779 489.313 -48.0989 493.184 -27.5519C496.679 -8.99194 503.804 6.94205 512.884 21.4041C525.831 42.2091 543.097 59.9897 563.513 73.5421C597.513 96.1861 633.826 105.674 677.008 106.747L677.005 106.743Z" fill="#4FA83D"/><path d="M413.383 48.0491C386.696 51.9011 366.66 38.7171 348.666 18.5961C344.452 13.628 340.968 8.08494 338.318 2.13405C336.336 -1.90904 335.463 -6.40591 335.788 -10.897C336.113 -15.3881 337.624 -19.7124 340.168 -23.428C342.572 -27.2422 345.571 -30.6473 349.051 -33.514C361.851 -43.43 375.674 -47.5309 390.423 -44.3949C401.035 -42.1379 409.566 -34.8049 416.189 -23.7049C425.44 -8.20494 432.353 9.13704 437.857 27.508C438.065 28.201 438.265 28.9031 438.421 29.6191C440.851 40.7611 438.721 45.2281 430.021 47.2441C428.762 47.6321 427.466 47.8898 426.155 48.013C421.125 48.102 416.094 48.0491 413.383 48.0491ZM386.683 15.132C391.483 14.607 396.164 13.449 398.514 7.01204C400.814 0.705044 399.206 -5.15696 396.349 -10.488C390.422 -21.543 378.862 -25.2359 369.836 -19.0369C362.598 -14.0659 361.261 -4.95196 366.795 3.06304C372.113 10.778 378.963 14.303 386.682 15.128L386.683 15.132Z" fill="#4FA83D"/><path d="M693.551 -131.818C718.494 -130.065 743.451 -128.613 768.372 -126.435C781.743 -125.266 795.141 -123.435 808.005 -117.893C812.728 -115.918 817.212 -113.415 821.371 -110.432C833.482 -101.55 839.628 -87.443 840.324 -69.113C841.037 -50.332 836.707 -33.206 830.132 -16.988C821.414 4.44458 808.594 23.9676 792.39 40.484C766.32 67.416 736.846 83.769 704.345 90.492C659.517 99.765 616.322 91.9061 574.858 67.597C554.388 55.631 537.156 38.8402 524.663 18.688C517.135 6.72502 511.347 -6.50598 508.863 -22.032C505.974 -40.092 509.076 -56.108 517.863 -70.232C523.34 -78.921 530.406 -86.4997 538.691 -92.571C555.569 -105.263 573.815 -113.071 592.491 -119.321C623.109 -129.565 654.276 -132.283 685.702 -131.429C688.311 -131.358 690.923 -131.419 693.533 -131.419C693.535 -131.547 693.544 -131.68 693.551 -131.818ZM710.46 -122.674L668.492 -121.094C643.138 -120.211 618.002 -116.077 593.7 -108.794C576.93 -103.739 560.54 -97.121 545.24 -86.358C537.571 -81.1082 530.882 -74.5555 525.475 -66.997C514.475 -51.383 511.728 -33.24 516.468 -12.997C519.886 1.60303 526.389 13.72 534.24 24.603C545.35 40.1243 559.54 53.189 575.924 62.982C616.091 87.051 658.061 94.318 701.556 85.977C730.823 80.365 757.724 66.448 782.004 43.797C799.316 27.8746 813.221 8.60756 822.877 -12.84C828.898 -26.24 833.224 -40.498 834.244 -56.204C835.563 -76.534 830.576 -93.124 817.044 -103.732C812.628 -107.05 807.802 -109.783 802.685 -111.862C792.163 -116.396 781.204 -118.204 770.231 -119.027C749.014 -120.618 727.776 -121.643 710.46 -122.669V-122.674Z" fill="#4FA83D"/><path d="M721.783 -110.714C736.246 -109.714 753.563 -108.748 770.85 -107.214C780.326 -106.423 789.58 -103.915 798.159 -99.814C819.486 -89.546 827.734 -68.126 821.614 -38.914C817.373 -18.669 808.644 -2.025 797.824 12.741C775.988 42.541 749.381 61.296 719.463 72.012C701.932 78.3934 683.349 81.3904 664.7 80.844C632.645 79.817 601.834 71.259 573.147 51.344C559.794 42.076 547.715 30.534 538.102 14.818C533.474 7.45338 529.997 -0.573921 527.79 -8.987C523.258 -26.854 525.544 -42.867 535.1 -56.868C541.368 -66.051 549.125 -72.421 557.444 -77.668C572.209 -86.985 587.859 -92.528 603.781 -96.823C625.537 -102.636 647.82 -106.263 670.297 -107.65C686.497 -108.697 702.699 -109.586 721.783 -110.714ZM715.72 -96.024C707.82 -95.576 695.157 -94.93 682.496 -94.124C659.087 -92.7453 635.868 -89.088 613.169 -83.204C598.153 -79.246 583.384 -74.066 569.453 -65.315C562.509 -61.1088 556.365 -55.7045 551.308 -49.353C540.489 -35.47 538.33 -18.077 545.2 -0.267975C548.18 7.37726 552.332 14.5115 557.509 20.878C567.738 33.5561 580.557 43.9024 595.109 51.224C622.464 65.346 650.779 70.915 680.081 68.142C707.128 65.7084 732.957 55.7663 754.656 39.437C771.578 27.101 785.599 11.2153 795.737 -7.108C801.537 -17.2811 805.466 -28.4119 807.337 -39.972C810.081 -57.831 805.337 -73.114 793.304 -81.665C787.553 -85.6661 781.199 -88.7211 774.483 -90.714C756.735 -96.145 738.583 -95.754 715.722 -96.026L715.72 -96.024Z" fill="#4FA83D"/><path d="M708.764 -88.7009C724.564 -87.4459 740.391 -86.6089 756.15 -84.7389C762.758 -83.9549 769.259 -81.1799 775.729 -78.9059C778.487 -77.7908 781.066 -76.2744 783.381 -74.4059C795.181 -65.6059 799.581 -51.4229 796.12 -33.8899C794.396 -25.488 791.413 -17.3945 787.273 -9.88293C778.915 5.58841 767.434 19.1547 753.558 29.9561C733.058 46.2361 710.831 55.6421 687.163 59.1071C658.763 63.2651 630.987 59.7331 603.995 46.8741C592.064 41.3168 581.218 33.6796 571.964 24.3201C565.64 18.0514 560.488 10.7024 556.752 2.62009C549.133 -14.2189 550.763 -30.5229 561.438 -44.0419C567.486 -51.7009 574.717 -56.8229 582.322 -61.0969C598.24 -70.0439 614.989 -74.8889 631.922 -78.5879C657.348 -84.1469 682.998 -86.4439 708.764 -88.7009ZM665.314 53.7821C672.738 53.0111 680.192 52.5731 687.581 51.4061C709.315 47.9741 729.751 39.1291 748.602 24.1291C759.627 15.4914 768.983 4.91451 776.212 -7.08191C780.964 -14.7277 784.309 -23.1629 786.087 -31.9879C788.822 -46.3519 785.487 -58.5429 776.001 -66.0879C771.641 -69.4663 766.807 -72.1822 761.654 -74.1479C750.687 -78.4829 739.301 -79.7849 727.939 -79.9979C714.905 -80.2399 701.853 -79.7779 688.824 -79.1069C666.33 -77.9849 644.03 -74.3647 622.336 -68.3129C609.552 -64.7339 596.995 -60.0789 585.193 -52.3619C578.783 -48.1709 572.785 -43.1779 568.135 -35.7759C561.572 -25.3309 560.645 -13.8759 565.022 -1.64392C567.642 5.67708 571.363 12.0631 576.222 16.7561C582.536 22.8561 588.987 28.9921 595.945 33.5711C617.748 47.9241 641.127 53.2741 665.314 53.7821Z" fill="#4FA83D"/><path d="M694.888 -53.876C704.482 -54.035 714.581 -53.746 724.382 -50.266C729.029 -48.6792 733.377 -46.3249 737.246 -43.301C744.393 -37.559 745.909 -28.735 742.182 -18.773C739.821 -12.6963 736.205 -7.18552 731.571 -2.60002C721.927 7.3194 709.991 14.7152 696.816 18.936C675.416 26.136 654.036 26.411 632.725 18.316C625.35 15.6821 618.654 11.4379 613.125 5.89199C601.504 -6.01901 601.718 -20.115 613.817 -31.057C623.737 -40.029 635.106 -44.123 646.635 -47.357C662.328 -51.8102 678.576 -54.0053 694.888 -53.876ZM683.716 -38.176C672.756 -37.309 662.029 -35.676 651.74 -30.959C647 -28.8387 642.645 -25.943 638.857 -22.391C633.106 -16.88 633.195 -9.19101 639.123 -4.12001C642.994 -0.793274 647.516 1.68929 652.4 3.16899C666.532 7.30099 680.562 5.76299 694.159 -0.789013C698.459 -2.94467 702.456 -5.65733 706.047 -8.85701C709.97 -12.265 713.88 -16.615 712.873 -23.849C711.917 -30.714 707.331 -33.049 702.938 -34.277C696.603 -36.039 690.13 -36.92 683.715 -38.174L683.716 -38.176Z" fill="#4FA83D"/></g></g></svg>