<svg xmlns="http://www.w3.org/2000/svg" width="165.295" height="165.294" viewBox="0 0 165.295 165.294"><g id="_11-call_center_support" data-name="11-call center support" transform="translate(1 1)"><g id="linear_color" data-name="linear color" transform="translate(0 0)"><path id="Path_32200" data-name="Path 32200" d="M120.639,61.419V51.491a3.888,3.888,0,0,0-3.412-3.859l-8.216-1.015-2.572-6.211,5.09-6.528a3.888,3.888,0,0,0-.317-5.14L95.9,13.428a3.888,3.888,0,0,0-5.14-.317L84.232,18.2l-6.211-2.572L77.006,7.411A3.888,3.888,0,0,0,73.147,4H51.491a3.888,3.888,0,0,0-3.859,3.412l-1.015,8.216L40.407,18.2l-6.528-5.09a3.888,3.888,0,0,0-5.14.317L13.428,28.738a3.888,3.888,0,0,0-.317,5.14l5.09,6.528L15.63,46.618,7.413,47.633A3.888,3.888,0,0,0,4,51.491V73.147a3.888,3.888,0,0,0,3.412,3.859l8.216,1.015L18.2,84.232,13.11,90.76a3.888,3.888,0,0,0,.317,5.14l15.312,15.312a3.888,3.888,0,0,0,5.14.317l6.528-5.09,6.211,2.572,1.015,8.217a3.888,3.888,0,0,0,3.859,3.411h9.928a53.136,53.136,0,1,0,59.22-59.22Zm-66.581,44.39a3.89,3.89,0,0,0-2.371-3.116l-10.4-4.306a3.888,3.888,0,0,0-3.879.526l-5.605,4.37L21.354,92.832l4.37-5.605a3.888,3.888,0,0,0,.526-3.879l-4.306-10.4a3.89,3.89,0,0,0-3.116-2.371l-7.052-.87V54.929l7.054-.871a3.89,3.89,0,0,0,3.116-2.371l4.306-10.4a3.888,3.888,0,0,0-.526-3.879l-4.37-5.605L31.807,21.354l5.605,4.37a3.888,3.888,0,0,0,3.879.526l10.4-4.306a3.89,3.89,0,0,0,2.371-3.116l.87-7.052H69.71l.871,7.054a3.89,3.89,0,0,0,2.371,3.116l10.4,4.306a3.888,3.888,0,0,0,3.879-.526l5.605-4.37,10.452,10.452-4.37,5.605a3.888,3.888,0,0,0-.526,3.879l4.306,10.4a3.89,3.89,0,0,0,3.116,2.371l7.052.87V61.04a52.779,52.779,0,0,0-21.246,5.01A29.581,29.581,0,1,0,66.048,91.622a52.779,52.779,0,0,0-5.008,21.241H54.929ZM72.041,81.8A21.773,21.773,0,1,1,81.8,72.041,53.6,53.6,0,0,0,72.041,81.8Zm42.118,77.715a45.36,45.36,0,1,1,45.36-45.36A45.409,45.409,0,0,1,114.159,159.519Z" transform="translate(-4 -4)" fill="#4fa83d" stroke="#161718" stroke-width="2"></path><path id="Path_32201" data-name="Path 32201" d="M296.687,256.512h-6.48v-3.888a24.624,24.624,0,1,0-49.247,0v3.888h-6.48a6.487,6.487,0,0,0-6.48,6.48V276.6a5.839,5.839,0,0,0,5.832,5.832h7.128v1.3a11.677,11.677,0,0,0,11.664,11.664h18.144a3.888,3.888,0,1,0,0-7.776H252.624a3.892,3.892,0,0,1-3.888-3.888v-31.1a16.848,16.848,0,0,1,33.7,0v25.92a3.888,3.888,0,0,0,3.888,3.888h11.016a5.839,5.839,0,0,0,5.832-5.832V262.992A6.487,6.487,0,0,0,296.687,256.512Zm-60.911,7.776h5.184v10.368h-5.184Zm59.615,10.368h-5.184V264.288h5.184Z" transform="translate(-155.425 -155.425)" fill="#4fa83d" stroke="#161718" stroke-width="2"></path></g></g></svg>