<svg xmlns="http://www.w3.org/2000/svg" width="779" height="71" viewBox="0 0 779 71" fill="none"><line x1="8.5" x2="8.5" y2="42" stroke="#D1D1D1" stroke-width="3"/><line x1="34.5" x2="34.5" y2="24" stroke="#D1D1D1" stroke-width="3"/><line x1="60.5" x2="60.5" y2="24" stroke="#D1D1D1" stroke-width="3"/><line x1="86.5" x2="86.5" y2="24" stroke="#D1D1D1" stroke-width="3"/><line x1="112.5" x2="112.5" y2="24" stroke="#D1D1D1" stroke-width="3"/><line x1="138.5" x2="138.5" y2="24" stroke="#D1D1D1" stroke-width="3"/><line x1="164.5" x2="164.5" y2="24" stroke="#D1D1D1" stroke-width="3"/><line x1="190.5" x2="190.5" y2="24" stroke="#D1D1D1" stroke-width="3"/><line x1="216.5" x2="216.5" y2="24" stroke="#D1D1D1" stroke-width="3"/><line x1="242.5" x2="242.5" y2="24" stroke="#D1D1D1" stroke-width="3"/><line x1="268.5" x2="268.5" y2="42" stroke="#D1D1D1" stroke-width="3"/><line x1="294.5" x2="294.5" y2="24" stroke="#D1D1D1" stroke-width="3"/><line x1="320.5" x2="320.5" y2="24" stroke="#D1D1D1" stroke-width="3"/><line x1="346.5" x2="346.5" y2="24" stroke="#D1D1D1" stroke-width="3"/><line x1="372.5" x2="372.5" y2="24" stroke="#D1D1D1" stroke-width="3"/><line x1="398.5" x2="398.5" y2="24" stroke="#D1D1D1" stroke-width="3"/><line x1="424.5" x2="424.5" y2="24" stroke="#D1D1D1" stroke-width="3"/><line x1="450.5" x2="450.5" y2="24" stroke="#D1D1D1" stroke-width="3"/><line x1="476.5" x2="476.5" y2="24" stroke="#D1D1D1" stroke-width="3"/><line x1="502.5" x2="502.5" y2="42" stroke="#D1D1D1" stroke-width="3"/><line x1="528.5" x2="528.5" y2="24" stroke="#D1D1D1" stroke-width="3"/><line x1="554.5" x2="554.5" y2="24" stroke="#D1D1D1" stroke-width="3"/><line x1="580.5" x2="580.5" y2="24" stroke="#D1D1D1" stroke-width="3"/><line x1="606.5" x2="606.5" y2="24" stroke="#D1D1D1" stroke-width="3"/><line x1="632.5" x2="632.5" y2="24" stroke="#D1D1D1" stroke-width="3"/><line x1="658.5" x2="658.5" y2="24" stroke="#D1D1D1" stroke-width="3"/><line x1="684.5" x2="684.5" y2="24" stroke="#D1D1D1" stroke-width="3"/><line x1="710.5" x2="710.5" y2="24" stroke="#D1D1D1" stroke-width="3"/><line x1="736.5" x2="736.5" y2="24" stroke="#D1D1D1" stroke-width="3"/><line x1="762.5" x2="762.5" y2="42" stroke="#D1D1D1" stroke-width="3"/><path d="M8.32564 54.8808H10.4065V62.9797C10.4065 63.9008 10.2068 64.6722 9.80724 65.2937C9.40771 65.9152 8.8639 66.3841 8.17581 66.7004C7.49328 67.0111 6.73028 67.1665 5.88682 67.1665C5.01562 67.1665 4.23875 67.0111 3.55622 66.7004C2.87368 66.3841 2.33542 65.9152 1.94144 65.2937C1.553 64.6722 1.35879 63.9008 1.35879 62.9797V54.8808H3.43969V62.9797C3.43969 63.5624 3.53957 64.0423 3.73934 64.4197C3.9391 64.7915 4.2221 65.0662 4.58834 65.2437C4.95458 65.4213 5.38741 65.5101 5.88682 65.5101C6.38624 65.5101 6.81629 65.4213 7.17698 65.2437C7.54322 65.0662 7.82622 64.7915 8.02599 64.4197C8.22575 64.0423 8.32564 63.5624 8.32564 62.9797V54.8808ZM14.4685 59.9166V67H12.4625V57.9939H14.3519L14.4685 59.9166ZM14.1105 62.164L13.4613 62.1557C13.4668 61.5175 13.5556 60.9321 13.7277 60.3994C13.9052 59.8667 14.1494 59.4089 14.4601 59.026C14.7764 58.6431 15.1538 58.349 15.5921 58.1437C16.0305 57.9328 16.5188 57.8274 17.0571 57.8274C17.4899 57.8274 17.8811 57.8884 18.2307 58.0105C18.5859 58.127 18.8883 58.3185 19.138 58.5848C19.3933 58.8512 19.5875 59.198 19.7206 59.6253C19.8538 60.047 19.9204 60.5659 19.9204 61.1818V67H17.9061V61.1735C17.9061 60.7407 17.8423 60.3994 17.7147 60.1497C17.5926 59.8944 17.4122 59.7141 17.1736 59.6086C16.9406 59.4977 16.6492 59.4422 16.2996 59.4422C15.9556 59.4422 15.6476 59.5143 15.3757 59.6586C15.1038 59.8029 14.8735 59.9999 14.6849 60.2496C14.5017 60.4993 14.3602 60.7878 14.2604 61.1152C14.1605 61.4426 14.1105 61.7922 14.1105 62.164ZM27.4616 65.1355V54.215H29.4759V67H27.653L27.4616 65.1355ZM21.6018 62.5968V62.422C21.6018 61.7395 21.6822 61.118 21.8432 60.5575C22.0041 59.9915 22.2371 59.506 22.5423 59.1009C22.8475 58.6903 23.2193 58.3768 23.6577 58.1603C24.0961 57.9384 24.59 57.8274 25.1393 57.8274C25.6831 57.8274 26.1603 57.9328 26.571 58.1437C26.9816 58.3546 27.3312 58.657 27.6197 59.051C27.9083 59.4394 28.1386 59.9055 28.3106 60.4493C28.4826 60.9876 28.6047 61.5869 28.6768 62.2472V62.8049C28.6047 63.4486 28.4826 64.0368 28.3106 64.5695C28.1386 65.1022 27.9083 65.5628 27.6197 65.9512C27.3312 66.3397 26.9788 66.6393 26.5626 66.8502C26.152 67.061 25.672 67.1665 25.1227 67.1665C24.5789 67.1665 24.0878 67.0527 23.6494 66.8252C23.2166 66.5977 22.8475 66.2786 22.5423 65.868C22.2371 65.4574 22.0041 64.9746 21.8432 64.4197C21.6822 63.8592 21.6018 63.2516 21.6018 62.5968ZM23.6078 62.422V62.5968C23.6078 63.0074 23.6438 63.3903 23.716 63.7455C23.7937 64.1006 23.913 64.4141 24.0739 64.686C24.2348 64.9524 24.4429 65.1633 24.6982 65.3186C24.959 65.4685 25.2697 65.5434 25.6304 65.5434C26.0854 65.5434 26.46 65.4435 26.7541 65.2437C27.0482 65.044 27.2785 64.7748 27.4449 64.4363C27.617 64.0923 27.7335 63.7094 27.7945 63.2877V61.7811C27.7612 61.4537 27.6919 61.1485 27.5864 60.8655C27.4866 60.5825 27.3506 60.3356 27.1786 60.1247C27.0066 59.9083 26.7929 59.7418 26.5377 59.6253C26.288 59.5032 25.9911 59.4422 25.647 59.4422C25.2808 59.4422 24.9701 59.5199 24.7148 59.6752C24.4595 59.8306 24.2487 60.0442 24.0822 60.3162C23.9213 60.5881 23.802 60.9044 23.7243 61.265C23.6466 61.6257 23.6078 62.0114 23.6078 62.422ZM35.5438 67.1665C34.8779 67.1665 34.2758 67.0583 33.7376 66.8419C33.2049 66.6199 32.7499 66.3119 32.3725 65.9179C32.0007 65.5239 31.715 65.0606 31.5152 64.5279C31.3154 63.9952 31.2155 63.4209 31.2155 62.8049V62.472C31.2155 61.7672 31.3182 61.1291 31.5235 60.5575C31.7288 59.986 32.0146 59.4977 32.3808 59.0926C32.7471 58.682 33.1799 58.3684 33.6793 58.152C34.1787 57.9356 34.7198 57.8274 35.3024 57.8274C35.9461 57.8274 36.5093 57.9356 36.9921 58.152C37.4749 58.3684 37.8744 58.6736 38.1907 59.0676C38.5126 59.456 38.7512 59.9194 38.9065 60.4577C39.0675 60.9959 39.1479 61.5897 39.1479 62.2389V63.0962H32.1894V61.6562H37.1669V61.4981C37.1558 61.1374 37.0837 60.7989 36.9505 60.4826C36.8229 60.1663 36.6259 59.9111 36.3595 59.7169C36.0932 59.5226 35.738 59.4255 35.2941 59.4255C34.9612 59.4255 34.6643 59.4977 34.4035 59.6419C34.1482 59.7807 33.9346 59.9832 33.7626 60.2496C33.5905 60.5159 33.4574 60.8378 33.363 61.2151C33.2742 61.5869 33.2298 62.0058 33.2298 62.472V62.8049C33.2298 63.1989 33.2826 63.5651 33.388 63.9036C33.499 64.2366 33.6599 64.5279 33.8708 64.7776C34.0816 65.0273 34.3369 65.2243 34.6365 65.3686C34.9362 65.5073 35.2775 65.5767 35.6603 65.5767C36.1431 65.5767 36.5732 65.4796 36.9505 65.2853C37.3278 65.0911 37.6552 64.8164 37.9327 64.4613L38.9898 65.4851C38.7956 65.7681 38.5431 66.04 38.2323 66.3008C37.9216 66.5561 37.5415 66.7642 37.092 66.9251C36.6481 67.086 36.132 67.1665 35.5438 67.1665ZM42.7271 59.7085V67H40.7211V57.9939H42.6355L42.7271 59.7085ZM45.4822 57.9356L45.4655 59.8001C45.3435 59.7779 45.2103 59.7612 45.066 59.7501C44.9273 59.739 44.7885 59.7335 44.6498 59.7335C44.3058 59.7335 44.0034 59.7834 43.7425 59.8833C43.4817 59.9777 43.2626 60.1164 43.085 60.2995C42.913 60.4771 42.7798 60.6935 42.6855 60.9487C42.5911 61.204 42.5356 61.4898 42.519 61.8061L42.0612 61.8394C42.0612 61.2734 42.1167 60.749 42.2277 60.2662C42.3386 59.7834 42.5051 59.3589 42.7271 58.9927C42.9546 58.6265 43.2376 58.3407 43.5761 58.1354C43.9201 57.9301 44.3169 57.8274 44.7664 57.8274C44.8884 57.8274 45.0188 57.8385 45.1576 57.8607C45.3018 57.8829 45.41 57.9079 45.4822 57.9356ZM55.6869 52.9414V55.4302H54.4051V52.9414H55.6869ZM55.5288 66.5339V68.7646H54.2553V66.5339H55.5288ZM56.7856 63.8454C56.7856 63.5235 56.719 63.2433 56.5859 63.0047C56.4582 62.7605 56.2474 62.5413 55.9533 62.3471C55.6592 62.1473 55.2652 61.9614 54.7713 61.7894C54.061 61.5397 53.4395 61.2595 52.9068 60.9487C52.3797 60.6324 51.969 60.244 51.6749 59.7834C51.3864 59.3173 51.2421 58.7374 51.2421 58.0438C51.2421 57.3613 51.3975 56.7703 51.7082 56.2709C52.0245 55.7715 52.4629 55.3858 53.0234 55.1139C53.5838 54.842 54.2386 54.706 54.9877 54.706C55.5648 54.706 56.0837 54.7921 56.5442 54.9641C57.0104 55.1361 57.4071 55.3886 57.7345 55.7215C58.0619 56.0545 58.3116 56.4651 58.4836 56.9534C58.6612 57.4362 58.75 57.9911 58.75 58.6181H56.7523C56.7523 58.263 56.7107 57.9467 56.6275 57.6692C56.5498 57.3862 56.4333 57.1476 56.2779 56.9534C56.1225 56.7537 55.9338 56.6011 55.7119 56.4956C55.4955 56.3902 55.2485 56.3375 54.9711 56.3375C54.5771 56.3375 54.2525 56.4124 53.9972 56.5622C53.742 56.7065 53.5533 56.9062 53.4312 57.1615C53.3147 57.4168 53.2564 57.7081 53.2564 58.0355C53.2564 58.3518 53.3175 58.6292 53.4395 58.8678C53.5616 59.1065 53.7697 59.3229 54.0638 59.5171C54.3635 59.7058 54.7741 59.8972 55.2957 60.0914C56.0115 60.3467 56.6303 60.6324 57.1519 60.9487C57.679 61.2595 58.0841 61.6452 58.3671 62.1057C58.6557 62.5607 58.7999 63.1351 58.7999 63.8287C58.7999 64.5445 58.6335 65.1522 58.3005 65.6516C57.9731 66.151 57.5126 66.5311 56.9188 66.7919C56.3306 67.0472 55.6453 67.1748 54.8629 67.1748C54.369 67.1748 53.8779 67.111 53.3896 66.9834C52.9068 66.8502 52.4685 66.6338 52.0745 66.3341C51.6805 66.0345 51.367 65.6377 51.1339 65.1438C50.9008 64.6444 50.7843 64.034 50.7843 63.3126H52.7986C52.7986 63.7455 52.8569 64.1062 52.9734 64.3947C53.09 64.6833 53.2481 64.9108 53.4479 65.0772C53.6476 65.2437 53.8696 65.363 54.1138 65.4352C54.3635 65.5073 54.6132 65.5434 54.8629 65.5434C55.2791 65.5434 55.6286 65.474 55.9117 65.3353C56.2002 65.191 56.4166 64.9912 56.5609 64.736C56.7107 64.4752 56.7856 64.1783 56.7856 63.8454ZM66.0331 54.8392V67H64.0272V57.2198L61.0556 58.2269V56.5705L65.7918 54.8392H66.0331ZM78.144 59.9249V61.906C78.144 62.8548 78.0496 63.665 77.861 64.3364C77.6779 65.0023 77.4115 65.5434 77.0619 65.9596C76.7123 66.3757 76.2934 66.6809 75.8051 66.8751C75.3223 67.0694 74.7812 67.1665 74.182 67.1665C73.7047 67.1665 73.2608 67.1054 72.8502 66.9834C72.4451 66.8613 72.0789 66.6698 71.7515 66.409C71.4241 66.1482 71.1438 65.8125 70.9108 65.4019C70.6833 64.9857 70.5057 64.489 70.3781 63.9119C70.256 63.3348 70.1949 62.6662 70.1949 61.906V59.9249C70.1949 58.9705 70.2893 58.1659 70.4779 57.5111C70.6666 56.8508 70.9357 56.3153 71.2853 55.9046C71.6349 55.4885 72.0511 55.186 72.5339 54.9974C73.0222 54.8087 73.566 54.7144 74.1653 54.7144C74.6481 54.7144 75.092 54.7754 75.4971 54.8975C75.9077 55.014 76.2739 55.1999 76.5958 55.4552C76.9232 55.7104 77.2006 56.0434 77.4282 56.454C77.6612 56.8591 77.8388 57.3502 77.9609 57.9273C78.0829 58.4988 78.144 59.1647 78.144 59.9249ZM76.138 62.189V59.6253C76.138 59.1425 76.1103 58.718 76.0548 58.3518C75.9993 57.98 75.916 57.6665 75.8051 57.4112C75.6996 57.1504 75.5664 56.9395 75.4055 56.7786C75.2446 56.6121 75.0615 56.4928 74.8562 56.4207C74.6508 56.343 74.4206 56.3042 74.1653 56.3042C73.8546 56.3042 73.5771 56.3652 73.3329 56.4873C73.0888 56.6038 72.8835 56.7925 72.717 57.0533C72.5505 57.3141 72.4229 57.6581 72.3341 58.0854C72.2509 58.5072 72.2093 59.0204 72.2093 59.6253V62.189C72.2093 62.6773 72.237 63.1073 72.2925 63.4791C72.348 63.8509 72.4312 64.17 72.5422 64.4363C72.6532 64.6971 72.7864 64.9136 72.9417 65.0856C73.1027 65.252 73.2858 65.3741 73.4911 65.4518C73.702 65.5295 73.9322 65.5683 74.182 65.5683C74.4982 65.5683 74.7785 65.5073 75.0226 65.3852C75.2668 65.2631 75.4721 65.0689 75.6386 64.8026C75.8051 64.5307 75.9299 64.1783 76.0131 63.7455C76.0964 63.3126 76.138 62.7938 76.138 62.189ZM87.8327 59.9249V61.906C87.8327 62.8548 87.7383 63.665 87.5496 64.3364C87.3665 65.0023 87.1002 65.5434 86.7506 65.9596C86.401 66.3757 85.982 66.6809 85.4937 66.8751C85.011 67.0694 84.4699 67.1665 83.8706 67.1665C83.3934 67.1665 82.9495 67.1054 82.5388 66.9834C82.1338 66.8613 81.7675 66.6698 81.4401 66.409C81.1127 66.1482 80.8325 65.8125 80.5994 65.4019C80.3719 64.9857 80.1944 64.489 80.0667 63.9119C79.9447 63.3348 79.8836 62.6662 79.8836 61.906V59.9249C79.8836 58.9705 79.9779 58.1659 80.1666 57.5111C80.3553 56.8508 80.6244 56.3153 80.974 55.9046C81.3236 55.4885 81.7398 55.186 82.2225 54.9974C82.7109 54.8087 83.2547 54.7144 83.854 54.7144C84.3367 54.7144 84.7807 54.7754 85.1857 54.8975C85.5964 55.014 85.9626 55.1999 86.2845 55.4552C86.6119 55.7104 86.8893 56.0434 87.1168 56.454C87.3499 56.8591 87.5275 57.3502 87.6495 57.9273C87.7716 58.4988 87.8327 59.1647 87.8327 59.9249ZM85.8267 62.189V59.6253C85.8267 59.1425 85.7989 58.718 85.7434 58.3518C85.6879 57.98 85.6047 57.6665 85.4937 57.4112C85.3883 57.1504 85.2551 56.9395 85.0942 56.7786C84.9333 56.6121 84.7501 56.4928 84.5448 56.4207C84.3395 56.343 84.1092 56.3042 83.854 56.3042C83.5432 56.3042 83.2658 56.3652 83.0216 56.4873C82.7775 56.6038 82.5721 56.7925 82.4057 57.0533C82.2392 57.3141 82.1116 57.6581 82.0228 58.0854C81.9395 58.5072 81.8979 59.0204 81.8979 59.6253V62.189C81.8979 62.6773 81.9257 63.1073 81.9812 63.4791C82.0367 63.8509 82.1199 64.17 82.2309 64.4363C82.3418 64.6971 82.475 64.9136 82.6304 65.0856C82.7913 65.252 82.9744 65.3741 83.1798 65.4518C83.3906 65.5295 83.6209 65.5683 83.8706 65.5683C84.1869 65.5683 84.4671 65.5073 84.7113 65.3852C84.9555 65.2631 85.1608 65.0689 85.3272 64.8026C85.4937 64.5307 85.6186 64.1783 85.7018 63.7455C85.785 63.3126 85.8267 62.7938 85.8267 62.189Z" fill="black"/><path d="M232.839 52.9414V55.4302H231.557V52.9414H232.839ZM232.68 66.5339V68.7646H231.407V66.5339H232.68ZM233.937 63.8454C233.937 63.5235 233.871 63.2433 233.738 63.0047C233.61 62.7605 233.399 62.5413 233.105 62.3471C232.811 62.1473 232.417 61.9614 231.923 61.7894C231.213 61.5397 230.591 61.2595 230.059 60.9487C229.531 60.6324 229.121 60.244 228.827 59.7834C228.538 59.3173 228.394 58.7374 228.394 58.0438C228.394 57.3613 228.549 56.7703 228.86 56.2709C229.176 55.7715 229.615 55.3858 230.175 55.1139C230.736 54.842 231.39 54.706 232.139 54.706C232.717 54.706 233.235 54.7921 233.696 54.9641C234.162 55.1361 234.559 55.3886 234.886 55.7215C235.214 56.0545 235.463 56.4651 235.635 56.9534C235.813 57.4362 235.902 57.9911 235.902 58.6181H233.904C233.904 58.263 233.862 57.9467 233.779 57.6692C233.702 57.3862 233.585 57.1476 233.43 56.9534C233.274 56.7537 233.086 56.6011 232.864 56.4956C232.647 56.3902 232.4 56.3375 232.123 56.3375C231.729 56.3375 231.404 56.4124 231.149 56.5622C230.894 56.7065 230.705 56.9062 230.583 57.1615C230.466 57.4168 230.408 57.7081 230.408 58.0355C230.408 58.3518 230.469 58.6292 230.591 58.8678C230.713 59.1065 230.921 59.3229 231.216 59.5171C231.515 59.7058 231.926 59.8972 232.447 60.0914C233.163 60.3467 233.782 60.6324 234.304 60.9487C234.831 61.2595 235.236 61.6452 235.519 62.1057C235.807 62.5607 235.952 63.1351 235.952 63.8287C235.952 64.5445 235.785 65.1522 235.452 65.6516C235.125 66.151 234.664 66.5311 234.071 66.7919C233.482 67.0472 232.797 67.1748 232.015 67.1748C231.521 67.1748 231.03 67.111 230.541 66.9834C230.059 66.8502 229.62 66.6338 229.226 66.3341C228.832 66.0345 228.519 65.6377 228.286 65.1438C228.053 64.6444 227.936 64.034 227.936 63.3126H229.95C229.95 63.7455 230.009 64.1062 230.125 64.3947C230.242 64.6833 230.4 64.9108 230.6 65.0772C230.799 65.2437 231.021 65.363 231.265 65.4352C231.515 65.5073 231.765 65.5434 232.015 65.5434C232.431 65.5434 232.78 65.474 233.063 65.3353C233.352 65.191 233.568 64.9912 233.713 64.736C233.862 64.4752 233.937 64.1783 233.937 63.8454ZM243.185 54.8392V67H241.179V57.2198L238.207 58.2269V56.5705L242.943 54.8392H243.185ZM255.296 59.9249V61.906C255.296 62.8548 255.201 63.665 255.013 64.3364C254.83 65.0023 254.563 65.5434 254.214 65.9596C253.864 66.3757 253.445 66.6809 252.957 66.8751C252.474 67.0694 251.933 67.1665 251.334 67.1665C250.856 67.1665 250.413 67.1054 250.002 66.9834C249.597 66.8613 249.231 66.6698 248.903 66.409C248.576 66.1482 248.296 65.8125 248.062 65.4019C247.835 64.9857 247.657 64.489 247.53 63.9119C247.408 63.3348 247.347 62.6662 247.347 61.906V59.9249C247.347 58.9705 247.441 58.1659 247.63 57.5111C247.818 56.8508 248.087 56.3153 248.437 55.9046C248.787 55.4885 249.203 55.186 249.686 54.9974C250.174 54.8087 250.718 54.7144 251.317 54.7144C251.8 54.7144 252.244 54.7754 252.649 54.8975C253.059 55.014 253.426 55.1999 253.748 55.4552C254.075 55.7104 254.352 56.0434 254.58 56.454C254.813 56.8591 254.991 57.3502 255.113 57.9273C255.235 58.4988 255.296 59.1647 255.296 59.9249ZM253.29 62.189V59.6253C253.29 59.1425 253.262 58.718 253.206 58.3518C253.151 57.98 253.068 57.6665 252.957 57.4112C252.851 57.1504 252.718 56.9395 252.557 56.7786C252.396 56.6121 252.213 56.4928 252.008 56.4207C251.803 56.343 251.572 56.3042 251.317 56.3042C251.006 56.3042 250.729 56.3652 250.485 56.4873C250.241 56.6038 250.035 56.7925 249.869 57.0533C249.702 57.3141 249.575 57.6581 249.486 58.0854C249.403 58.5072 249.361 59.0204 249.361 59.6253V62.189C249.361 62.6773 249.389 63.1073 249.444 63.4791C249.5 63.8509 249.583 64.17 249.694 64.4363C249.805 64.6971 249.938 64.9136 250.093 65.0856C250.254 65.252 250.437 65.3741 250.643 65.4518C250.854 65.5295 251.084 65.5683 251.334 65.5683C251.65 65.5683 251.93 65.5073 252.174 65.3852C252.419 65.2631 252.624 65.0689 252.79 64.8026C252.957 64.5307 253.082 64.1783 253.165 63.7455C253.248 63.3126 253.29 62.7938 253.29 62.189ZM264.984 59.9249V61.906C264.984 62.8548 264.89 63.665 264.701 64.3364C264.518 65.0023 264.252 65.5434 263.902 65.9596C263.553 66.3757 263.134 66.6809 262.645 66.8751C262.163 67.0694 261.622 67.1665 261.022 67.1665C260.545 67.1665 260.101 67.1054 259.691 66.9834C259.285 66.8613 258.919 66.6698 258.592 66.409C258.264 66.1482 257.984 65.8125 257.751 65.4019C257.524 64.9857 257.346 64.489 257.218 63.9119C257.096 63.3348 257.035 62.6662 257.035 61.906V59.9249C257.035 58.9705 257.13 58.1659 257.318 57.5111C257.507 56.8508 257.776 56.3153 258.126 55.9046C258.475 55.4885 258.892 55.186 259.374 54.9974C259.863 54.8087 260.406 54.7144 261.006 54.7144C261.488 54.7144 261.932 54.7754 262.337 54.8975C262.748 55.014 263.114 55.1999 263.436 55.4552C263.764 55.7104 264.041 56.0434 264.269 56.454C264.502 56.8591 264.679 57.3502 264.801 57.9273C264.923 58.4988 264.984 59.1647 264.984 59.9249ZM262.978 62.189V59.6253C262.978 59.1425 262.951 58.718 262.895 58.3518C262.84 57.98 262.756 57.6665 262.645 57.4112C262.54 57.1504 262.407 56.9395 262.246 56.7786C262.085 56.6121 261.902 56.4928 261.697 56.4207C261.491 56.343 261.261 56.3042 261.006 56.3042C260.695 56.3042 260.417 56.3652 260.173 56.4873C259.929 56.6038 259.724 56.7925 259.557 57.0533C259.391 57.3141 259.263 57.6581 259.175 58.0854C259.091 58.5072 259.05 59.0204 259.05 59.6253V62.189C259.05 62.6773 259.077 63.1073 259.133 63.4791C259.188 63.8509 259.272 64.17 259.383 64.4363C259.494 64.6971 259.627 64.9136 259.782 65.0856C259.943 65.252 260.126 65.3741 260.331 65.4518C260.542 65.5295 260.773 65.5683 261.022 65.5683C261.339 65.5683 261.619 65.5073 261.863 65.3852C262.107 65.2631 262.312 65.0689 262.479 64.8026C262.645 64.5307 262.77 64.1783 262.854 63.7455C262.937 63.3126 262.978 62.7938 262.978 62.189ZM275.172 61.0237V62.6218H270.769V61.0237H275.172ZM285.877 52.9414V55.4302H284.595V52.9414H285.877ZM285.718 66.5339V68.7646H284.445V66.5339H285.718ZM286.975 63.8454C286.975 63.5235 286.909 63.2433 286.776 63.0047C286.648 62.7605 286.437 62.5413 286.143 62.3471C285.849 62.1473 285.455 61.9614 284.961 61.7894C284.251 61.5397 283.629 61.2595 283.097 60.9487C282.569 60.6324 282.159 60.244 281.865 59.7834C281.576 59.3173 281.432 58.7374 281.432 58.0438C281.432 57.3613 281.587 56.7703 281.898 56.2709C282.214 55.7715 282.653 55.3858 283.213 55.1139C283.774 54.842 284.428 54.706 285.177 54.706C285.755 54.706 286.273 54.7921 286.734 54.9641C287.2 55.1361 287.597 55.3886 287.924 55.7215C288.252 56.0545 288.501 56.4651 288.673 56.9534C288.851 57.4362 288.94 57.9911 288.94 58.6181H286.942C286.942 58.263 286.9 57.9467 286.817 57.6692C286.739 57.3862 286.623 57.1476 286.468 56.9534C286.312 56.7537 286.124 56.6011 285.902 56.4956C285.685 56.3902 285.438 56.3375 285.161 56.3375C284.767 56.3375 284.442 56.4124 284.187 56.5622C283.932 56.7065 283.743 56.9062 283.621 57.1615C283.504 57.4168 283.446 57.7081 283.446 58.0355C283.446 58.3518 283.507 58.6292 283.629 58.8678C283.751 59.1065 283.959 59.3229 284.254 59.5171C284.553 59.7058 284.964 59.8972 285.485 60.0914C286.201 60.3467 286.82 60.6324 287.342 60.9487C287.869 61.2595 288.274 61.6452 288.557 62.1057C288.845 62.5607 288.99 63.1351 288.99 63.8287C288.99 64.5445 288.823 65.1522 288.49 65.6516C288.163 66.151 287.702 66.5311 287.108 66.7919C286.52 67.0472 285.835 67.1748 285.053 67.1748C284.559 67.1748 284.068 67.111 283.579 66.9834C283.097 66.8502 282.658 66.6338 282.264 66.3341C281.87 66.0345 281.557 65.6377 281.324 65.1438C281.091 64.6444 280.974 64.034 280.974 63.3126H282.988C282.988 63.7455 283.047 64.1062 283.163 64.3947C283.28 64.6833 283.438 64.9108 283.638 65.0772C283.837 65.2437 284.059 65.363 284.303 65.4352C284.553 65.5073 284.803 65.5434 285.053 65.5434C285.469 65.5434 285.818 65.474 286.101 65.3353C286.39 65.191 286.606 64.9912 286.751 64.736C286.9 64.4752 286.975 64.1783 286.975 63.8454ZM298.87 65.4019V67H290.746V65.6266L294.691 61.3233C295.124 60.835 295.465 60.4133 295.715 60.0581C295.965 59.703 296.14 59.3839 296.239 59.1009C296.345 58.8124 296.398 58.5321 296.398 58.2602C296.398 57.8773 296.325 57.5416 296.181 57.2531C296.042 56.959 295.837 56.7287 295.565 56.5622C295.293 56.3902 294.963 56.3042 294.575 56.3042C294.125 56.3042 293.748 56.4013 293.443 56.5955C293.138 56.7897 292.907 57.0588 292.752 57.4029C292.597 57.7414 292.519 58.1298 292.519 58.5682H290.513C290.513 57.8635 290.674 57.2198 290.996 56.6371C291.317 56.0489 291.784 55.5828 292.394 55.2388C293.004 54.8892 293.74 54.7144 294.6 54.7144C295.41 54.7144 296.098 54.8503 296.664 55.1222C297.23 55.3941 297.66 55.7798 297.954 56.2792C298.254 56.7786 298.404 57.3696 298.404 58.0521C298.404 58.4295 298.343 58.804 298.221 59.1758C298.098 59.5476 297.924 59.9194 297.696 60.2912C297.474 60.6574 297.211 61.0264 296.905 61.3982C296.6 61.7645 296.264 62.1362 295.898 62.5136L293.276 65.4019H298.87ZM308.334 59.9249V61.906C308.334 62.8548 308.239 63.665 308.051 64.3364C307.868 65.0023 307.601 65.5434 307.252 65.9596C306.902 66.3757 306.483 66.6809 305.995 66.8751C305.512 67.0694 304.971 67.1665 304.372 67.1665C303.894 67.1665 303.451 67.1054 303.04 66.9834C302.635 66.8613 302.269 66.6698 301.941 66.409C301.614 66.1482 301.334 65.8125 301.1 65.4019C300.873 64.9857 300.695 64.489 300.568 63.9119C300.446 63.3348 300.385 62.6662 300.385 61.906V59.9249C300.385 58.9705 300.479 58.1659 300.668 57.5111C300.856 56.8508 301.125 56.3153 301.475 55.9046C301.825 55.4885 302.241 55.186 302.724 54.9974C303.212 54.8087 303.756 54.7144 304.355 54.7144C304.838 54.7144 305.282 54.7754 305.687 54.8975C306.097 55.014 306.464 55.1999 306.785 55.4552C307.113 55.7104 307.39 56.0434 307.618 56.454C307.851 56.8591 308.028 57.3502 308.151 57.9273C308.273 58.4988 308.334 59.1647 308.334 59.9249ZM306.328 62.189V59.6253C306.328 59.1425 306.3 58.718 306.244 58.3518C306.189 57.98 306.106 57.6665 305.995 57.4112C305.889 57.1504 305.756 56.9395 305.595 56.7786C305.434 56.6121 305.251 56.4928 305.046 56.4207C304.841 56.343 304.61 56.3042 304.355 56.3042C304.044 56.3042 303.767 56.3652 303.523 56.4873C303.278 56.6038 303.073 56.7925 302.907 57.0533C302.74 57.3141 302.613 57.6581 302.524 58.0854C302.441 58.5072 302.399 59.0204 302.399 59.6253V62.189C302.399 62.6773 302.427 63.1073 302.482 63.4791C302.538 63.8509 302.621 64.17 302.732 64.4363C302.843 64.6971 302.976 64.9136 303.131 65.0856C303.292 65.252 303.475 65.3741 303.681 65.4518C303.892 65.5295 304.122 65.5683 304.372 65.5683C304.688 65.5683 304.968 65.5073 305.212 65.3852C305.456 65.2631 305.662 65.0689 305.828 64.8026C305.995 64.5307 306.12 64.1783 306.203 63.7455C306.286 63.3126 306.328 62.7938 306.328 62.189ZM318.022 59.9249V61.906C318.022 62.8548 317.928 63.665 317.739 64.3364C317.556 65.0023 317.29 65.5434 316.94 65.9596C316.591 66.3757 316.172 66.6809 315.683 66.8751C315.201 67.0694 314.66 67.1665 314.06 67.1665C313.583 67.1665 313.139 67.1054 312.729 66.9834C312.323 66.8613 311.957 66.6698 311.63 66.409C311.302 66.1482 311.022 65.8125 310.789 65.4019C310.562 64.9857 310.384 64.489 310.256 63.9119C310.134 63.3348 310.073 62.6662 310.073 61.906V59.9249C310.073 58.9705 310.168 58.1659 310.356 57.5111C310.545 56.8508 310.814 56.3153 311.164 55.9046C311.513 55.4885 311.929 55.186 312.412 54.9974C312.901 54.8087 313.444 54.7144 314.044 54.7144C314.526 54.7144 314.97 54.7754 315.375 54.8975C315.786 55.014 316.152 55.1999 316.474 55.4552C316.802 55.7104 317.079 56.0434 317.307 56.454C317.54 56.8591 317.717 57.3502 317.839 57.9273C317.961 58.4988 318.022 59.1647 318.022 59.9249ZM316.016 62.189V59.6253C316.016 59.1425 315.989 58.718 315.933 58.3518C315.878 57.98 315.794 57.6665 315.683 57.4112C315.578 57.1504 315.445 56.9395 315.284 56.7786C315.123 56.6121 314.94 56.4928 314.735 56.4207C314.529 56.343 314.299 56.3042 314.044 56.3042C313.733 56.3042 313.455 56.3652 313.211 56.4873C312.967 56.6038 312.762 56.7925 312.595 57.0533C312.429 57.3141 312.301 57.6581 312.212 58.0854C312.129 58.5072 312.088 59.0204 312.088 59.6253V62.189C312.088 62.6773 312.115 63.1073 312.171 63.4791C312.226 63.8509 312.31 64.17 312.421 64.4363C312.532 64.6971 312.665 64.9136 312.82 65.0856C312.981 65.252 313.164 65.3741 313.369 65.4518C313.58 65.5295 313.811 65.5683 314.06 65.5683C314.377 65.5683 314.657 65.5073 314.901 65.3852C315.145 65.2631 315.35 65.0689 315.517 64.8026C315.683 64.5307 315.808 64.1783 315.892 63.7455C315.975 63.3126 316.016 62.7938 316.016 62.189Z" fill="black"/><path d="M462.839 52.9414V55.4302H461.557V52.9414H462.839ZM462.68 66.5339V68.7646H461.407V66.5339H462.68ZM463.937 63.8454C463.937 63.5235 463.871 63.2433 463.738 63.0047C463.61 62.7605 463.399 62.5413 463.105 62.3471C462.811 62.1473 462.417 61.9614 461.923 61.7894C461.213 61.5397 460.591 61.2595 460.059 60.9487C459.531 60.6324 459.121 60.244 458.827 59.7834C458.538 59.3173 458.394 58.7374 458.394 58.0438C458.394 57.3613 458.549 56.7703 458.86 56.2709C459.176 55.7715 459.615 55.3858 460.175 55.1139C460.736 54.842 461.39 54.706 462.139 54.706C462.717 54.706 463.235 54.7921 463.696 54.9641C464.162 55.1361 464.559 55.3886 464.886 55.7215C465.214 56.0545 465.463 56.4651 465.635 56.9534C465.813 57.4362 465.902 57.9911 465.902 58.6181H463.904C463.904 58.263 463.862 57.9467 463.779 57.6692C463.702 57.3862 463.585 57.1476 463.43 56.9534C463.274 56.7537 463.086 56.6011 462.864 56.4956C462.647 56.3902 462.4 56.3375 462.123 56.3375C461.729 56.3375 461.404 56.4124 461.149 56.5622C460.894 56.7065 460.705 56.9062 460.583 57.1615C460.466 57.4168 460.408 57.7081 460.408 58.0355C460.408 58.3518 460.469 58.6292 460.591 58.8678C460.713 59.1065 460.921 59.3229 461.216 59.5171C461.515 59.7058 461.926 59.8972 462.447 60.0914C463.163 60.3467 463.782 60.6324 464.304 60.9487C464.831 61.2595 465.236 61.6452 465.519 62.1057C465.807 62.5607 465.952 63.1351 465.952 63.8287C465.952 64.5445 465.785 65.1522 465.452 65.6516C465.125 66.151 464.664 66.5311 464.071 66.7919C463.482 67.0472 462.797 67.1748 462.015 67.1748C461.521 67.1748 461.03 67.111 460.541 66.9834C460.059 66.8502 459.62 66.6338 459.226 66.3341C458.832 66.0345 458.519 65.6377 458.286 65.1438C458.053 64.6444 457.936 64.034 457.936 63.3126H459.95C459.95 63.7455 460.009 64.1062 460.125 64.3947C460.242 64.6833 460.4 64.9108 460.6 65.0772C460.799 65.2437 461.021 65.363 461.265 65.4352C461.515 65.5073 461.765 65.5434 462.015 65.5434C462.431 65.5434 462.78 65.474 463.063 65.3353C463.352 65.191 463.568 64.9912 463.713 64.736C463.862 64.4752 463.937 64.1783 463.937 63.8454ZM475.832 65.4019V67H467.708V65.6266L471.653 61.3233C472.086 60.835 472.427 60.4133 472.677 60.0581C472.927 59.703 473.102 59.3839 473.202 59.1009C473.307 58.8124 473.36 58.5321 473.36 58.2602C473.36 57.8773 473.288 57.5416 473.143 57.2531C473.005 56.959 472.799 56.7287 472.527 56.5622C472.255 56.3902 471.925 56.3042 471.537 56.3042C471.087 56.3042 470.71 56.4013 470.405 56.5955C470.1 56.7897 469.869 57.0588 469.714 57.4029C469.559 57.7414 469.481 58.1298 469.481 58.5682H467.475C467.475 57.8635 467.636 57.2198 467.958 56.6371C468.279 56.0489 468.746 55.5828 469.356 55.2388C469.966 54.8892 470.702 54.7144 471.562 54.7144C472.372 54.7144 473.06 54.8503 473.626 55.1222C474.192 55.3941 474.622 55.7798 474.916 56.2792C475.216 56.7786 475.366 57.3696 475.366 58.0521C475.366 58.4295 475.305 58.804 475.183 59.1758C475.06 59.5476 474.886 59.9194 474.658 60.2912C474.436 60.6574 474.173 61.0264 473.867 61.3982C473.562 61.7645 473.226 62.1362 472.86 62.5136L470.238 65.4019H475.832ZM485.296 59.9249V61.906C485.296 62.8548 485.201 63.665 485.013 64.3364C484.83 65.0023 484.563 65.5434 484.214 65.9596C483.864 66.3757 483.445 66.6809 482.957 66.8751C482.474 67.0694 481.933 67.1665 481.334 67.1665C480.856 67.1665 480.413 67.1054 480.002 66.9834C479.597 66.8613 479.231 66.6698 478.903 66.409C478.576 66.1482 478.296 65.8125 478.062 65.4019C477.835 64.9857 477.657 64.489 477.53 63.9119C477.408 63.3348 477.347 62.6662 477.347 61.906V59.9249C477.347 58.9705 477.441 58.1659 477.63 57.5111C477.818 56.8508 478.087 56.3153 478.437 55.9046C478.787 55.4885 479.203 55.186 479.686 54.9974C480.174 54.8087 480.718 54.7144 481.317 54.7144C481.8 54.7144 482.244 54.7754 482.649 54.8975C483.059 55.014 483.426 55.1999 483.748 55.4552C484.075 55.7104 484.352 56.0434 484.58 56.454C484.813 56.8591 484.991 57.3502 485.113 57.9273C485.235 58.4988 485.296 59.1647 485.296 59.9249ZM483.29 62.189V59.6253C483.29 59.1425 483.262 58.718 483.206 58.3518C483.151 57.98 483.068 57.6665 482.957 57.4112C482.851 57.1504 482.718 56.9395 482.557 56.7786C482.396 56.6121 482.213 56.4928 482.008 56.4207C481.803 56.343 481.572 56.3042 481.317 56.3042C481.006 56.3042 480.729 56.3652 480.485 56.4873C480.241 56.6038 480.035 56.7925 479.869 57.0533C479.702 57.3141 479.575 57.6581 479.486 58.0854C479.403 58.5072 479.361 59.0204 479.361 59.6253V62.189C479.361 62.6773 479.389 63.1073 479.444 63.4791C479.5 63.8509 479.583 64.17 479.694 64.4363C479.805 64.6971 479.938 64.9136 480.093 65.0856C480.254 65.252 480.437 65.3741 480.643 65.4518C480.854 65.5295 481.084 65.5683 481.334 65.5683C481.65 65.5683 481.93 65.5073 482.174 65.3852C482.419 65.2631 482.624 65.0689 482.79 64.8026C482.957 64.5307 483.082 64.1783 483.165 63.7455C483.248 63.3126 483.29 62.7938 483.29 62.189ZM494.984 59.9249V61.906C494.984 62.8548 494.89 63.665 494.701 64.3364C494.518 65.0023 494.252 65.5434 493.902 65.9596C493.553 66.3757 493.134 66.6809 492.645 66.8751C492.163 67.0694 491.622 67.1665 491.022 67.1665C490.545 67.1665 490.101 67.1054 489.691 66.9834C489.285 66.8613 488.919 66.6698 488.592 66.409C488.264 66.1482 487.984 65.8125 487.751 65.4019C487.524 64.9857 487.346 64.489 487.218 63.9119C487.096 63.3348 487.035 62.6662 487.035 61.906V59.9249C487.035 58.9705 487.13 58.1659 487.318 57.5111C487.507 56.8508 487.776 56.3153 488.126 55.9046C488.475 55.4885 488.892 55.186 489.374 54.9974C489.863 54.8087 490.406 54.7144 491.006 54.7144C491.488 54.7144 491.932 54.7754 492.337 54.8975C492.748 55.014 493.114 55.1999 493.436 55.4552C493.764 55.7104 494.041 56.0434 494.269 56.454C494.502 56.8591 494.679 57.3502 494.801 57.9273C494.923 58.4988 494.984 59.1647 494.984 59.9249ZM492.978 62.189V59.6253C492.978 59.1425 492.951 58.718 492.895 58.3518C492.84 57.98 492.756 57.6665 492.645 57.4112C492.54 57.1504 492.407 56.9395 492.246 56.7786C492.085 56.6121 491.902 56.4928 491.697 56.4207C491.491 56.343 491.261 56.3042 491.006 56.3042C490.695 56.3042 490.417 56.3652 490.173 56.4873C489.929 56.6038 489.724 56.7925 489.557 57.0533C489.391 57.3141 489.263 57.6581 489.175 58.0854C489.091 58.5072 489.05 59.0204 489.05 59.6253V62.189C489.05 62.6773 489.077 63.1073 489.133 63.4791C489.188 63.8509 489.272 64.17 489.383 64.4363C489.494 64.6971 489.627 64.9136 489.782 65.0856C489.943 65.252 490.126 65.3741 490.331 65.4518C490.542 65.5295 490.773 65.5683 491.022 65.5683C491.339 65.5683 491.619 65.5073 491.863 65.3852C492.107 65.2631 492.312 65.0689 492.479 64.8026C492.645 64.5307 492.77 64.1783 492.854 63.7455C492.937 63.3126 492.978 62.7938 492.978 62.189ZM505.172 61.0237V62.6218H500.769V61.0237H505.172ZM515.877 52.9414V55.4302H514.595V52.9414H515.877ZM515.718 66.5339V68.7646H514.445V66.5339H515.718ZM516.975 63.8454C516.975 63.5235 516.909 63.2433 516.776 63.0047C516.648 62.7605 516.437 62.5413 516.143 62.3471C515.849 62.1473 515.455 61.9614 514.961 61.7894C514.251 61.5397 513.629 61.2595 513.097 60.9487C512.569 60.6324 512.159 60.244 511.865 59.7834C511.576 59.3173 511.432 58.7374 511.432 58.0438C511.432 57.3613 511.587 56.7703 511.898 56.2709C512.214 55.7715 512.653 55.3858 513.213 55.1139C513.774 54.842 514.428 54.706 515.177 54.706C515.755 54.706 516.273 54.7921 516.734 54.9641C517.2 55.1361 517.597 55.3886 517.924 55.7215C518.252 56.0545 518.501 56.4651 518.673 56.9534C518.851 57.4362 518.94 57.9911 518.94 58.6181H516.942C516.942 58.263 516.9 57.9467 516.817 57.6692C516.739 57.3862 516.623 57.1476 516.468 56.9534C516.312 56.7537 516.124 56.6011 515.902 56.4956C515.685 56.3902 515.438 56.3375 515.161 56.3375C514.767 56.3375 514.442 56.4124 514.187 56.5622C513.932 56.7065 513.743 56.9062 513.621 57.1615C513.504 57.4168 513.446 57.7081 513.446 58.0355C513.446 58.3518 513.507 58.6292 513.629 58.8678C513.751 59.1065 513.959 59.3229 514.254 59.5171C514.553 59.7058 514.964 59.8972 515.485 60.0914C516.201 60.3467 516.82 60.6324 517.342 60.9487C517.869 61.2595 518.274 61.6452 518.557 62.1057C518.845 62.5607 518.99 63.1351 518.99 63.8287C518.99 64.5445 518.823 65.1522 518.49 65.6516C518.163 66.151 517.702 66.5311 517.108 66.7919C516.52 67.0472 515.835 67.1748 515.053 67.1748C514.559 67.1748 514.068 67.111 513.579 66.9834C513.097 66.8502 512.658 66.6338 512.264 66.3341C511.87 66.0345 511.557 65.6377 511.324 65.1438C511.091 64.6444 510.974 64.034 510.974 63.3126H512.988C512.988 63.7455 513.047 64.1062 513.163 64.3947C513.28 64.6833 513.438 64.9108 513.638 65.0772C513.837 65.2437 514.059 65.363 514.303 65.4352C514.553 65.5073 514.803 65.5434 515.053 65.5434C515.469 65.5434 515.818 65.474 516.101 65.3353C516.39 65.191 516.606 64.9912 516.751 64.736C516.9 64.4752 516.975 64.1783 516.975 63.8454ZM523.101 60.0331H524.3C524.766 60.0331 525.152 59.9527 525.457 59.7918C525.768 59.6308 525.998 59.4089 526.148 59.1259C526.298 58.8429 526.373 58.5183 526.373 58.152C526.373 57.7691 526.303 57.4417 526.165 57.1698C526.031 56.8924 525.826 56.6787 525.549 56.5289C525.277 56.3791 524.93 56.3042 524.508 56.3042C524.153 56.3042 523.831 56.3763 523.543 56.5206C523.26 56.6593 523.035 56.8591 522.868 57.1199C522.702 57.3751 522.619 57.6803 522.619 58.0355H520.604C520.604 57.3918 520.774 56.8202 521.112 56.3208C521.451 55.8214 521.911 55.4302 522.494 55.1472C523.082 54.8586 523.742 54.7144 524.475 54.7144C525.257 54.7144 525.94 54.8448 526.522 55.1056C527.111 55.3608 527.568 55.7437 527.896 56.2542C528.223 56.7647 528.387 57.3973 528.387 58.152C528.387 58.4961 528.307 58.8456 528.146 59.2008C527.985 59.5559 527.746 59.8805 527.43 60.1746C527.113 60.4632 526.719 60.699 526.248 60.8822C525.776 61.0597 525.23 61.1485 524.608 61.1485H523.101V60.0331ZM523.101 61.598V60.4993H524.608C525.318 60.4993 525.923 60.5825 526.423 60.749C526.928 60.9154 527.338 61.1457 527.655 61.4398C527.971 61.7284 528.201 62.0586 528.345 62.4303C528.495 62.8021 528.57 63.1961 528.57 63.6123C528.57 64.1783 528.467 64.6833 528.262 65.1272C528.062 65.5656 527.777 65.9374 527.405 66.2426C527.033 66.5478 526.597 66.778 526.098 66.9334C525.604 67.0888 525.066 67.1665 524.483 67.1665C523.962 67.1665 523.462 67.0943 522.985 66.9501C522.508 66.8058 522.08 66.5921 521.703 66.3091C521.326 66.0206 521.026 65.6627 520.804 65.2354C520.588 64.8026 520.48 64.3032 520.48 63.7371H522.486C522.486 64.0978 522.569 64.4169 522.735 64.6944C522.907 64.9663 523.146 65.1799 523.451 65.3353C523.762 65.4907 524.117 65.5683 524.517 65.5683C524.938 65.5683 525.302 65.4934 525.607 65.3436C525.912 65.1938 526.145 64.9718 526.306 64.6777C526.473 64.3836 526.556 64.0285 526.556 63.6123C526.556 63.1406 526.464 62.7577 526.281 62.4636C526.098 62.1695 525.837 61.9531 525.499 61.8144C525.16 61.6701 524.761 61.598 524.3 61.598H523.101ZM538.334 59.9249V61.906C538.334 62.8548 538.239 63.665 538.051 64.3364C537.868 65.0023 537.601 65.5434 537.252 65.9596C536.902 66.3757 536.483 66.6809 535.995 66.8751C535.512 67.0694 534.971 67.1665 534.372 67.1665C533.894 67.1665 533.451 67.1054 533.04 66.9834C532.635 66.8613 532.269 66.6698 531.941 66.409C531.614 66.1482 531.334 65.8125 531.1 65.4019C530.873 64.9857 530.695 64.489 530.568 63.9119C530.446 63.3348 530.385 62.6662 530.385 61.906V59.9249C530.385 58.9705 530.479 58.1659 530.668 57.5111C530.856 56.8508 531.125 56.3153 531.475 55.9046C531.825 55.4885 532.241 55.186 532.724 54.9974C533.212 54.8087 533.756 54.7144 534.355 54.7144C534.838 54.7144 535.282 54.7754 535.687 54.8975C536.097 55.014 536.464 55.1999 536.785 55.4552C537.113 55.7104 537.39 56.0434 537.618 56.454C537.851 56.8591 538.028 57.3502 538.151 57.9273C538.273 58.4988 538.334 59.1647 538.334 59.9249ZM536.328 62.189V59.6253C536.328 59.1425 536.3 58.718 536.244 58.3518C536.189 57.98 536.106 57.6665 535.995 57.4112C535.889 57.1504 535.756 56.9395 535.595 56.7786C535.434 56.6121 535.251 56.4928 535.046 56.4207C534.841 56.343 534.61 56.3042 534.355 56.3042C534.044 56.3042 533.767 56.3652 533.523 56.4873C533.278 56.6038 533.073 56.7925 532.907 57.0533C532.74 57.3141 532.613 57.6581 532.524 58.0854C532.441 58.5072 532.399 59.0204 532.399 59.6253V62.189C532.399 62.6773 532.427 63.1073 532.482 63.4791C532.538 63.8509 532.621 64.17 532.732 64.4363C532.843 64.6971 532.976 64.9136 533.131 65.0856C533.292 65.252 533.475 65.3741 533.681 65.4518C533.892 65.5295 534.122 65.5683 534.372 65.5683C534.688 65.5683 534.968 65.5073 535.212 65.3852C535.456 65.2631 535.662 65.0689 535.828 64.8026C535.995 64.5307 536.12 64.1783 536.203 63.7455C536.286 63.3126 536.328 62.7938 536.328 62.189ZM548.022 59.9249V61.906C548.022 62.8548 547.928 63.665 547.739 64.3364C547.556 65.0023 547.29 65.5434 546.94 65.9596C546.591 66.3757 546.172 66.6809 545.683 66.8751C545.201 67.0694 544.66 67.1665 544.06 67.1665C543.583 67.1665 543.139 67.1054 542.729 66.9834C542.323 66.8613 541.957 66.6698 541.63 66.409C541.302 66.1482 541.022 65.8125 540.789 65.4019C540.562 64.9857 540.384 64.489 540.256 63.9119C540.134 63.3348 540.073 62.6662 540.073 61.906V59.9249C540.073 58.9705 540.168 58.1659 540.356 57.5111C540.545 56.8508 540.814 56.3153 541.164 55.9046C541.513 55.4885 541.929 55.186 542.412 54.9974C542.901 54.8087 543.444 54.7144 544.044 54.7144C544.526 54.7144 544.97 54.7754 545.375 54.8975C545.786 55.014 546.152 55.1999 546.474 55.4552C546.802 55.7104 547.079 56.0434 547.307 56.454C547.54 56.8591 547.717 57.3502 547.839 57.9273C547.961 58.4988 548.022 59.1647 548.022 59.9249ZM546.016 62.189V59.6253C546.016 59.1425 545.989 58.718 545.933 58.3518C545.878 57.98 545.794 57.6665 545.683 57.4112C545.578 57.1504 545.445 56.9395 545.284 56.7786C545.123 56.6121 544.94 56.4928 544.735 56.4207C544.529 56.343 544.299 56.3042 544.044 56.3042C543.733 56.3042 543.455 56.3652 543.211 56.4873C542.967 56.6038 542.762 56.7925 542.595 57.0533C542.429 57.3141 542.301 57.6581 542.212 58.0854C542.129 58.5072 542.088 59.0204 542.088 59.6253V62.189C542.088 62.6773 542.115 63.1073 542.171 63.4791C542.226 63.8509 542.31 64.17 542.421 64.4363C542.532 64.6971 542.665 64.9136 542.82 65.0856C542.981 65.252 543.164 65.3741 543.369 65.4518C543.58 65.5295 543.811 65.5683 544.06 65.5683C544.377 65.5683 544.657 65.5073 544.901 65.3852C545.145 65.2631 545.35 65.0689 545.517 64.8026C545.683 64.5307 545.808 64.1783 545.892 63.7455C545.975 63.3126 546.016 62.7938 546.016 62.189Z" fill="black"/><path d="M692.839 52.9414V55.4302H691.557V52.9414H692.839ZM692.68 66.5339V68.7646H691.407V66.5339H692.68ZM693.937 63.8454C693.937 63.5235 693.871 63.2433 693.738 63.0047C693.61 62.7605 693.399 62.5413 693.105 62.3471C692.811 62.1473 692.417 61.9614 691.923 61.7894C691.213 61.5397 690.591 61.2595 690.059 60.9487C689.531 60.6324 689.121 60.244 688.827 59.7834C688.538 59.3173 688.394 58.7374 688.394 58.0438C688.394 57.3613 688.549 56.7703 688.86 56.2709C689.176 55.7715 689.615 55.3858 690.175 55.1139C690.736 54.842 691.39 54.706 692.139 54.706C692.717 54.706 693.235 54.7921 693.696 54.9641C694.162 55.1361 694.559 55.3886 694.886 55.7215C695.214 56.0545 695.463 56.4651 695.635 56.9534C695.813 57.4362 695.902 57.9911 695.902 58.6181H693.904C693.904 58.263 693.862 57.9467 693.779 57.6692C693.702 57.3862 693.585 57.1476 693.43 56.9534C693.274 56.7537 693.086 56.6011 692.864 56.4956C692.647 56.3902 692.4 56.3375 692.123 56.3375C691.729 56.3375 691.404 56.4124 691.149 56.5622C690.894 56.7065 690.705 56.9062 690.583 57.1615C690.466 57.4168 690.408 57.7081 690.408 58.0355C690.408 58.3518 690.469 58.6292 690.591 58.8678C690.713 59.1065 690.921 59.3229 691.216 59.5171C691.515 59.7058 691.926 59.8972 692.447 60.0914C693.163 60.3467 693.782 60.6324 694.304 60.9487C694.831 61.2595 695.236 61.6452 695.519 62.1057C695.807 62.5607 695.952 63.1351 695.952 63.8287C695.952 64.5445 695.785 65.1522 695.452 65.6516C695.125 66.151 694.664 66.5311 694.071 66.7919C693.482 67.0472 692.797 67.1748 692.015 67.1748C691.521 67.1748 691.03 67.111 690.541 66.9834C690.059 66.8502 689.62 66.6338 689.226 66.3341C688.832 66.0345 688.519 65.6377 688.286 65.1438C688.053 64.6444 687.936 64.034 687.936 63.3126H689.95C689.95 63.7455 690.009 64.1062 690.125 64.3947C690.242 64.6833 690.4 64.9108 690.6 65.0772C690.799 65.2437 691.021 65.363 691.265 65.4352C691.515 65.5073 691.765 65.5434 692.015 65.5434C692.431 65.5434 692.78 65.474 693.063 65.3353C693.352 65.191 693.568 64.9912 693.713 64.736C693.862 64.4752 693.937 64.1783 693.937 63.8454ZM706.057 62.6801V64.2782H697.317L697.25 63.0713L702.477 54.8808H704.084L702.344 57.8607L699.339 62.6801H706.057ZM704.542 54.8808V67H702.536V54.8808H704.542ZM715.296 59.9249V61.906C715.296 62.8548 715.201 63.665 715.013 64.3364C714.83 65.0023 714.563 65.5434 714.214 65.9596C713.864 66.3757 713.445 66.6809 712.957 66.8751C712.474 67.0694 711.933 67.1665 711.334 67.1665C710.856 67.1665 710.413 67.1054 710.002 66.9834C709.597 66.8613 709.231 66.6698 708.903 66.409C708.576 66.1482 708.296 65.8125 708.062 65.4019C707.835 64.9857 707.657 64.489 707.53 63.9119C707.408 63.3348 707.347 62.6662 707.347 61.906V59.9249C707.347 58.9705 707.441 58.1659 707.63 57.5111C707.818 56.8508 708.087 56.3153 708.437 55.9046C708.787 55.4885 709.203 55.186 709.686 54.9974C710.174 54.8087 710.718 54.7144 711.317 54.7144C711.8 54.7144 712.244 54.7754 712.649 54.8975C713.059 55.014 713.426 55.1999 713.748 55.4552C714.075 55.7104 714.352 56.0434 714.58 56.454C714.813 56.8591 714.991 57.3502 715.113 57.9273C715.235 58.4988 715.296 59.1647 715.296 59.9249ZM713.29 62.189V59.6253C713.29 59.1425 713.262 58.718 713.206 58.3518C713.151 57.98 713.068 57.6665 712.957 57.4112C712.851 57.1504 712.718 56.9395 712.557 56.7786C712.396 56.6121 712.213 56.4928 712.008 56.4207C711.803 56.343 711.572 56.3042 711.317 56.3042C711.006 56.3042 710.729 56.3652 710.485 56.4873C710.241 56.6038 710.035 56.7925 709.869 57.0533C709.702 57.3141 709.575 57.6581 709.486 58.0854C709.403 58.5072 709.361 59.0204 709.361 59.6253V62.189C709.361 62.6773 709.389 63.1073 709.444 63.4791C709.5 63.8509 709.583 64.17 709.694 64.4363C709.805 64.6971 709.938 64.9136 710.093 65.0856C710.254 65.252 710.437 65.3741 710.643 65.4518C710.854 65.5295 711.084 65.5683 711.334 65.5683C711.65 65.5683 711.93 65.5073 712.174 65.3852C712.419 65.2631 712.624 65.0689 712.79 64.8026C712.957 64.5307 713.082 64.1783 713.165 63.7455C713.248 63.3126 713.29 62.7938 713.29 62.189ZM724.984 59.9249V61.906C724.984 62.8548 724.89 63.665 724.701 64.3364C724.518 65.0023 724.252 65.5434 723.902 65.9596C723.553 66.3757 723.134 66.6809 722.645 66.8751C722.163 67.0694 721.622 67.1665 721.022 67.1665C720.545 67.1665 720.101 67.1054 719.691 66.9834C719.285 66.8613 718.919 66.6698 718.592 66.409C718.264 66.1482 717.984 65.8125 717.751 65.4019C717.524 64.9857 717.346 64.489 717.218 63.9119C717.096 63.3348 717.035 62.6662 717.035 61.906V59.9249C717.035 58.9705 717.13 58.1659 717.318 57.5111C717.507 56.8508 717.776 56.3153 718.126 55.9046C718.475 55.4885 718.892 55.186 719.374 54.9974C719.863 54.8087 720.406 54.7144 721.006 54.7144C721.488 54.7144 721.932 54.7754 722.337 54.8975C722.748 55.014 723.114 55.1999 723.436 55.4552C723.764 55.7104 724.041 56.0434 724.269 56.454C724.502 56.8591 724.679 57.3502 724.801 57.9273C724.923 58.4988 724.984 59.1647 724.984 59.9249ZM722.978 62.189V59.6253C722.978 59.1425 722.951 58.718 722.895 58.3518C722.84 57.98 722.756 57.6665 722.645 57.4112C722.54 57.1504 722.407 56.9395 722.246 56.7786C722.085 56.6121 721.902 56.4928 721.697 56.4207C721.491 56.343 721.261 56.3042 721.006 56.3042C720.695 56.3042 720.417 56.3652 720.173 56.4873C719.929 56.6038 719.724 56.7925 719.557 57.0533C719.391 57.3141 719.263 57.6581 719.175 58.0854C719.091 58.5072 719.05 59.0204 719.05 59.6253V62.189C719.05 62.6773 719.077 63.1073 719.133 63.4791C719.188 63.8509 719.272 64.17 719.383 64.4363C719.494 64.6971 719.627 64.9136 719.782 65.0856C719.943 65.252 720.126 65.3741 720.331 65.4518C720.542 65.5295 720.773 65.5683 721.022 65.5683C721.339 65.5683 721.619 65.5073 721.863 65.3852C722.107 65.2631 722.312 65.0689 722.479 64.8026C722.645 64.5307 722.77 64.1783 722.854 63.7455C722.937 63.3126 722.978 62.7938 722.978 62.189ZM735.172 61.0237V62.6218H730.769V61.0237H735.172ZM745.877 52.9414V55.4302H744.595V52.9414H745.877ZM745.718 66.5339V68.7646H744.445V66.5339H745.718ZM746.975 63.8454C746.975 63.5235 746.909 63.2433 746.776 63.0047C746.648 62.7605 746.437 62.5413 746.143 62.3471C745.849 62.1473 745.455 61.9614 744.961 61.7894C744.251 61.5397 743.629 61.2595 743.097 60.9487C742.569 60.6324 742.159 60.244 741.865 59.7834C741.576 59.3173 741.432 58.7374 741.432 58.0438C741.432 57.3613 741.587 56.7703 741.898 56.2709C742.214 55.7715 742.653 55.3858 743.213 55.1139C743.774 54.842 744.428 54.706 745.177 54.706C745.755 54.706 746.273 54.7921 746.734 54.9641C747.2 55.1361 747.597 55.3886 747.924 55.7215C748.252 56.0545 748.501 56.4651 748.673 56.9534C748.851 57.4362 748.94 57.9911 748.94 58.6181H746.942C746.942 58.263 746.9 57.9467 746.817 57.6692C746.739 57.3862 746.623 57.1476 746.468 56.9534C746.312 56.7537 746.124 56.6011 745.902 56.4956C745.685 56.3902 745.438 56.3375 745.161 56.3375C744.767 56.3375 744.442 56.4124 744.187 56.5622C743.932 56.7065 743.743 56.9062 743.621 57.1615C743.504 57.4168 743.446 57.7081 743.446 58.0355C743.446 58.3518 743.507 58.6292 743.629 58.8678C743.751 59.1065 743.959 59.3229 744.254 59.5171C744.553 59.7058 744.964 59.8972 745.485 60.0914C746.201 60.3467 746.82 60.6324 747.342 60.9487C747.869 61.2595 748.274 61.6452 748.557 62.1057C748.845 62.5607 748.99 63.1351 748.99 63.8287C748.99 64.5445 748.823 65.1522 748.49 65.6516C748.163 66.151 747.702 66.5311 747.108 66.7919C746.52 67.0472 745.835 67.1748 745.053 67.1748C744.559 67.1748 744.068 67.111 743.579 66.9834C743.097 66.8502 742.658 66.6338 742.264 66.3341C741.87 66.0345 741.557 65.6377 741.324 65.1438C741.091 64.6444 740.974 64.034 740.974 63.3126H742.988C742.988 63.7455 743.047 64.1062 743.163 64.3947C743.28 64.6833 743.438 64.9108 743.638 65.0772C743.837 65.2437 744.059 65.363 744.303 65.4352C744.553 65.5073 744.803 65.5434 745.053 65.5434C745.469 65.5434 745.818 65.474 746.101 65.3353C746.39 65.191 746.606 64.9912 746.751 64.736C746.9 64.4752 746.975 64.1783 746.975 63.8454ZM752.852 61.3649L751.254 60.9737L751.911 54.8808H758.445V56.5789H753.576L753.243 59.5504C753.432 59.4394 753.692 59.3312 754.025 59.2258C754.358 59.1148 754.738 59.0593 755.166 59.0593C755.737 59.0593 756.248 59.1536 756.697 59.3423C757.152 59.5254 757.538 59.7945 757.854 60.1497C758.171 60.4993 758.412 60.9265 758.578 61.4315C758.745 61.9309 758.828 62.4942 758.828 63.1212C758.828 63.6817 758.745 64.206 758.578 64.6944C758.417 65.1827 758.173 65.6127 757.846 65.9845C757.519 66.3563 757.105 66.6476 756.606 66.8585C756.112 67.0638 755.526 67.1665 754.849 67.1665C754.344 67.1665 753.859 67.0943 753.393 66.9501C752.932 66.8002 752.519 66.581 752.153 66.2925C751.786 65.9984 751.492 65.6377 751.27 65.2104C751.048 64.7776 750.921 64.281 750.887 63.7205H752.852C752.902 64.1145 753.01 64.4502 753.176 64.7277C753.348 64.9996 753.576 65.2077 753.859 65.3519C754.142 65.4962 754.469 65.5683 754.841 65.5683C755.18 65.5683 755.471 65.5101 755.715 65.3935C755.959 65.2715 756.162 65.0994 756.323 64.8775C756.489 64.65 756.611 64.3836 756.689 64.0784C756.772 63.7732 756.814 63.4347 756.814 63.0629C756.814 62.7078 756.767 62.3832 756.672 62.0891C756.584 61.795 756.448 61.5397 756.264 61.3233C756.087 61.1069 755.862 60.9404 755.59 60.8239C755.318 60.7018 755.005 60.6408 754.65 60.6408C754.172 60.6408 753.806 60.7101 753.551 60.8489C753.301 60.9876 753.068 61.1596 752.852 61.3649ZM768.334 59.9249V61.906C768.334 62.8548 768.239 63.665 768.051 64.3364C767.868 65.0023 767.601 65.5434 767.252 65.9596C766.902 66.3757 766.483 66.6809 765.995 66.8751C765.512 67.0694 764.971 67.1665 764.372 67.1665C763.894 67.1665 763.451 67.1054 763.04 66.9834C762.635 66.8613 762.269 66.6698 761.941 66.409C761.614 66.1482 761.334 65.8125 761.1 65.4019C760.873 64.9857 760.695 64.489 760.568 63.9119C760.446 63.3348 760.385 62.6662 760.385 61.906V59.9249C760.385 58.9705 760.479 58.1659 760.668 57.5111C760.856 56.8508 761.125 56.3153 761.475 55.9046C761.825 55.4885 762.241 55.186 762.724 54.9974C763.212 54.8087 763.756 54.7144 764.355 54.7144C764.838 54.7144 765.282 54.7754 765.687 54.8975C766.097 55.014 766.464 55.1999 766.785 55.4552C767.113 55.7104 767.39 56.0434 767.618 56.454C767.851 56.8591 768.028 57.3502 768.151 57.9273C768.273 58.4988 768.334 59.1647 768.334 59.9249ZM766.328 62.189V59.6253C766.328 59.1425 766.3 58.718 766.244 58.3518C766.189 57.98 766.106 57.6665 765.995 57.4112C765.889 57.1504 765.756 56.9395 765.595 56.7786C765.434 56.6121 765.251 56.4928 765.046 56.4207C764.841 56.343 764.61 56.3042 764.355 56.3042C764.044 56.3042 763.767 56.3652 763.523 56.4873C763.278 56.6038 763.073 56.7925 762.907 57.0533C762.74 57.3141 762.613 57.6581 762.524 58.0854C762.441 58.5072 762.399 59.0204 762.399 59.6253V62.189C762.399 62.6773 762.427 63.1073 762.482 63.4791C762.538 63.8509 762.621 64.17 762.732 64.4363C762.843 64.6971 762.976 64.9136 763.131 65.0856C763.292 65.252 763.475 65.3741 763.681 65.4518C763.892 65.5295 764.122 65.5683 764.372 65.5683C764.688 65.5683 764.968 65.5073 765.212 65.3852C765.456 65.2631 765.662 65.0689 765.828 64.8026C765.995 64.5307 766.12 64.1783 766.203 63.7455C766.286 63.3126 766.328 62.7938 766.328 62.189ZM778.022 59.9249V61.906C778.022 62.8548 777.928 63.665 777.739 64.3364C777.556 65.0023 777.29 65.5434 776.94 65.9596C776.591 66.3757 776.172 66.6809 775.683 66.8751C775.201 67.0694 774.66 67.1665 774.06 67.1665C773.583 67.1665 773.139 67.1054 772.729 66.9834C772.323 66.8613 771.957 66.6698 771.63 66.409C771.302 66.1482 771.022 65.8125 770.789 65.4019C770.562 64.9857 770.384 64.489 770.256 63.9119C770.134 63.3348 770.073 62.6662 770.073 61.906V59.9249C770.073 58.9705 770.168 58.1659 770.356 57.5111C770.545 56.8508 770.814 56.3153 771.164 55.9046C771.513 55.4885 771.929 55.186 772.412 54.9974C772.901 54.8087 773.444 54.7144 774.044 54.7144C774.526 54.7144 774.97 54.7754 775.375 54.8975C775.786 55.014 776.152 55.1999 776.474 55.4552C776.802 55.7104 777.079 56.0434 777.307 56.454C777.54 56.8591 777.717 57.3502 777.839 57.9273C777.961 58.4988 778.022 59.1647 778.022 59.9249ZM776.016 62.189V59.6253C776.016 59.1425 775.989 58.718 775.933 58.3518C775.878 57.98 775.794 57.6665 775.683 57.4112C775.578 57.1504 775.445 56.9395 775.284 56.7786C775.123 56.6121 774.94 56.4928 774.735 56.4207C774.529 56.343 774.299 56.3042 774.044 56.3042C773.733 56.3042 773.455 56.3652 773.211 56.4873C772.967 56.6038 772.762 56.7925 772.595 57.0533C772.429 57.3141 772.301 57.6581 772.212 58.0854C772.129 58.5072 772.088 59.0204 772.088 59.6253V62.189C772.088 62.6773 772.115 63.1073 772.171 63.4791C772.226 63.8509 772.31 64.17 772.421 64.4363C772.532 64.6971 772.665 64.9136 772.82 65.0856C772.981 65.252 773.164 65.3741 773.369 65.4518C773.58 65.5295 773.811 65.5683 774.06 65.5683C774.377 65.5683 774.657 65.5073 774.901 65.3852C775.145 65.2631 775.35 65.0689 775.517 64.8026C775.683 64.5307 775.808 64.1783 775.892 63.7455C775.975 63.3126 776.016 62.7938 776.016 62.189Z" fill="black"/></svg>