<svg xmlns="http://www.w3.org/2000/svg" width="86" height="81" viewBox="0 0 86 81"><g id="Group_5920" data-name="Group 5920" transform="translate(-142 -11115)"><rect id="Rectangle_3997" data-name="Rectangle 3997" width="86" height="81" rx="22" transform="translate(142 11115)" fill="#cae2bc" opacity="0.2"></rect><g id="Group_4794" data-name="Group 4794" transform="translate(71.488 11020.401)"><path id="Path_21337" data-name="Path 21337" d="M323.411,126.358q-4.428-.154-8.857-.239c-1.209,3.965-2.492,7.952-3.809,11.952,4.336-1.32,8.657-2.612,12.95-3.845Q323.6,130.292,323.411,126.358Z" transform="translate(-189.878 -8.415)" fill="#cae2bc"></path><path id="Path_21338" data-name="Path 21338" d="M102.356,125.657q-.186,3.934-.284,7.868c10.338,2.434,20.807,5.182,31.272,7.854q-.012-7.98-.217-15.96-15.385-.3-30.77.239Z" transform="translate(-8.45 -7.713)" fill="#cae2bc"></path><path id="Path_21339" data-name="Path 21339" d="M213.357,142.782a2.016,2.016,0,0,1-2,2.014,1.96,1.96,0,0,1-1.971-1.992,2.037,2.037,0,0,1,2-2.019A1.971,1.971,0,0,1,213.357,142.782Z" transform="translate(-101.754 -21.166)" fill="#4fa83d"></path><path id="Path_21340" data-name="Path 21340" d="M211.863,148.156a1.959,1.959,0,0,1-1.968-1.993,2.048,2.048,0,0,1,.037-.358,2.047,2.047,0,0,0-.544,1.364,1.96,1.96,0,0,0,1.971,1.992,2.012,2.012,0,0,0,1.963-1.656A1.989,1.989,0,0,1,211.863,148.156Z" transform="translate(-101.754 -25.53)" fill="#4fa83d"></path><path id="Path_21341" data-name="Path 21341" d="M334.272,141.553q-3.46-.1-6.919-.154-.966.981-1.942,1.969,1.008,1.011,2.021,2.021,3.484.043,6.969.113-.054-1.975-.128-3.949Z" transform="translate(-202.629 -21.7)" fill="#4fa83d"></path><path id="Path_21342" data-name="Path 21342" d="M254.985,140.688q0,2.007,0,4.015,5.608,0,11.216.068-.033-2-.078-3.99Q260.553,140.687,254.985,140.688Z" transform="translate(-141.397 -21.081)" fill="#4fa83d"></path><path id="Path_21343" data-name="Path 21343" d="M323.746,187.367q-4.492-.082-8.984-.127c-1.277,3.977-2.609,7.974-3.958,11.981,4.355-2.679,8.713-5.342,13.018-7.921Q323.8,189.333,323.746,187.367Z" transform="translate(-189.929 -61.555)" fill="#4fa83d"></path><path id="Path_21344" data-name="Path 21344" d="M101.563,186.995q-.049,1.967-.077,3.934c10.407,2.518,20.9,5.285,31.342,7.91q.027-5.985-.054-11.97Q117.168,186.711,101.563,186.995Z" transform="translate(-7.941 -61.184)" fill="#4fa83d"></path><path id="Path_21345" data-name="Path 21345" d="M301.383,217.8c-1.976,3.646-4,7.32-6.016,11,1.987,3.669,3.943,7.324,5.817,10.944q4.429-.085,8.857-.239.511-10.818.361-21.636Q305.892,217.825,301.383,217.8Z" transform="translate(-176.508 -88.125)" fill="#cae2bc"></path><path id="Path_21346" data-name="Path 21346" d="M101.259,217.664q-.15,10.818.361,21.636,15.385.535,30.77.239.282-10.973.2-21.945-15.665-.087-31.33.07Z" transform="translate(-7.713 -87.919)" fill="#cae2bc"></path><path id="Path_21349" data-name="Path 21349" d="M330.153,278.864l-2.006.007-2.011,1.006,2,.989,2-.012a1.017,1.017,0,0,0,1.011-1A.986.986,0,0,0,330.153,278.864Z" transform="translate(-203.259 -141.216)" fill="#4fa83d"></path><path id="Path_21350" data-name="Path 21350" d="M240.62,278.938a1,1,0,0,0,0,2.007q6.146,0,12.292-.031.008-1,.012-2Q246.772,278.941,240.62,278.938Z" transform="translate(-128.038 -141.265)" fill="#4fa83d"></path><path id="Path_21351" data-name="Path 21351" d="M329.92,309.35l-2,.017-2.01,1.014,1.986.981,2-.022a1.031,1.031,0,0,0,1.014-1.006A.969.969,0,0,0,329.92,309.35Z" transform="translate(-203.062 -167.722)" fill="#4fa83d"></path><path id="Path_21352" data-name="Path 21352" d="M240.669,309.523a1,1,0,0,0,0,2.007q6.122.006,12.245-.055.014-1,.024-2-6.136.048-12.272.043Z" transform="translate(-128.084 -167.835)" fill="#4fa83d"></path><path id="Path_21353" data-name="Path 21353" d="M157.624,268.673a4.924,4.924,0,0,1-4.954,4.978,5.148,5.148,0,0,1-5.059-5.033,4.942,4.942,0,0,1,4.985-4.963A5.033,5.033,0,0,1,157.624,268.673Z" transform="translate(-48.044 -127.993)" fill="#4fa83d"></path><path id="Path_21354" data-name="Path 21354" d="M153.639,284.138a5.1,5.1,0,0,1-5.048-5.021,4.922,4.922,0,0,1,.026-.534,4.825,4.825,0,0,0-1.006,3.014,5.148,5.148,0,0,0,5.059,5.033,4.915,4.915,0,0,0,4.926-4.439,4.916,4.916,0,0,1-3.958,1.948Z" transform="translate(-48.044 -140.972)" fill="#4fa83d"></path><path id="Path_21355" data-name="Path 21355" d="M122.154,144.119a2.088,2.088,0,0,1-2.037,2.021,1.869,1.869,0,0,1-1.932-1.937,2.127,2.127,0,0,1,2.046-2.026A1.867,1.867,0,0,1,122.154,144.119Z" transform="translate(-22.458 -22.375)" fill="#4fa83d"></path><path id="Path_21356" data-name="Path 21356" d="M120.639,149.624a1.863,1.863,0,0,1-1.926-1.936,2.007,2.007,0,0,1,.045-.353,2.079,2.079,0,0,0-.574,1.353,1.869,1.869,0,0,0,1.932,1.937,2.091,2.091,0,0,0,1.995-1.666A2.071,2.071,0,0,1,120.639,149.624Z" transform="translate(-22.458 -26.86)" fill="#4fa83d"></path><path id="Path_21357" data-name="Path 21357" d="M167.756,143.249a2.053,2.053,0,0,1-2.017,2.021,1.916,1.916,0,0,1-1.952-1.968,2.083,2.083,0,0,1,2.023-2.026A1.92,1.92,0,0,1,167.756,143.249Z" transform="translate(-62.107 -21.592)" fill="#4fa83d"></path><path id="Path_21358" data-name="Path 21358" d="M166.251,148.7a1.912,1.912,0,0,1-1.947-1.968,2.03,2.03,0,0,1,.041-.356,2.069,2.069,0,0,0-.559,1.361,1.916,1.916,0,0,0,1.952,1.968,2.052,2.052,0,0,0,1.979-1.664A2.028,2.028,0,0,1,166.251,148.7Z" transform="translate(-62.107 -26.023)" fill="#4fa83d"></path></g></g></svg>