<svg xmlns="http://www.w3.org/2000/svg" width="36" height="37" viewBox="0 0 36 37" fill="none"><rect y="0.9375" width="36" height="36" rx="18" fill="#4FA83D"/><path fill-rule="evenodd" clip-rule="evenodd" d="M15.2503 14.4979C15.0714 14.1001 14.883 14.0922 14.7128 14.0852C14.5736 14.0792 14.4142 14.0796 14.2551 14.0796C14.0959 14.0796 13.8371 14.1394 13.6183 14.3784C13.3993 14.6174 12.7822 15.1952 12.7822 16.3702C12.7822 17.5454 13.6382 18.6809 13.7575 18.8404C13.8769 18.9997 15.4098 21.4881 17.8374 22.4455C19.855 23.2411 20.2655 23.0828 20.7035 23.043C21.1414 23.0032 22.1165 22.4654 22.3156 21.9076C22.5146 21.35 22.5146 20.872 22.4549 20.7721C22.3952 20.6726 22.236 20.6129 21.9971 20.4935C21.7582 20.374 20.584 19.7961 20.3651 19.7165C20.1461 19.6369 19.9869 19.5971 19.8276 19.8362C19.6684 20.0751 19.2109 20.6129 19.0716 20.7721C18.9322 20.9318 18.7929 20.9517 18.554 20.8322C18.3151 20.7124 17.5459 20.4605 16.6334 19.6468C15.9234 19.0138 15.444 18.232 15.3046 17.9929C15.1653 17.754 15.2897 17.6247 15.4095 17.5056C15.5168 17.3986 15.6484 17.2268 15.7678 17.0873C15.887 16.9479 15.9268 16.8483 16.0064 16.6891C16.0861 16.5296 16.0463 16.3901 15.9865 16.2707C15.9268 16.1513 15.4627 14.9701 15.2503 14.4979Z" fill="white"/><path d="M24.4007 11.7399C22.5959 9.93379 20.196 8.93863 17.6391 8.9375C12.3702 8.9375 8.08236 13.224 8.08024 18.4926C8.07962 20.1768 8.51967 21.8207 9.35607 23.2699L8 28.2214L13.0672 26.8927C14.4634 27.6541 16.0353 28.0553 17.635 28.0559H17.6391H17.6391C22.9071 28.0559 27.1956 23.7687 27.1978 18.5003C27.1987 15.9469 26.2053 13.5461 24.4007 11.7399ZM17.6391 26.4421H17.636C16.2101 26.4414 14.8119 26.0585 13.5923 25.3349L13.302 25.1628L10.295 25.9512L11.0978 23.0204L10.9087 22.72C10.1134 21.4554 9.69348 19.9939 9.6941 18.4933C9.69584 14.1141 13.2597 10.5515 17.6421 10.5515C19.7643 10.5524 21.7589 11.3796 23.259 12.8807C24.759 14.3819 25.5845 16.3774 25.5839 18.4997C25.582 22.879 22.018 26.4421 17.6391 26.4421Z" fill="white"/></svg>