<svg width="20" height="20" viewBox="0 0 20 20" fill="none" xmlns="http://www.w3.org/2000/svg">
<path fill-rule="evenodd" clip-rule="evenodd" d="M7.65946 6.21613C7.48057 5.81838 7.29221 5.81042 7.12201 5.80346C6.98279 5.79749 6.82342 5.79786 6.6643 5.79786C6.50506 5.79786 6.24628 5.8577 6.02745 6.0967C5.80848 6.33569 5.19141 6.91345 5.19141 8.08851C5.19141 9.2637 6.04735 10.3992 6.16666 10.5587C6.28609 10.7179 7.81896 13.2064 10.2466 14.1637C12.2642 14.9593 12.6747 14.8011 13.1126 14.7613C13.5506 14.7215 14.5257 14.1836 14.7248 13.6259C14.9238 13.0683 14.9238 12.5903 14.8641 12.4904C14.8044 12.3909 14.6451 12.3312 14.4063 12.2117C14.1674 12.0923 12.9932 11.5144 12.7742 11.4348C12.5553 11.3552 12.396 11.3153 12.2368 11.5545C12.0775 11.7933 11.6201 12.3312 11.4807 12.4904C11.3414 12.65 11.2021 12.6699 10.9632 12.5505C10.7243 12.4307 9.95509 12.1787 9.04254 11.3651C8.33253 10.7321 7.85317 9.95029 7.71383 9.71118C7.57449 9.47231 7.69889 9.34292 7.81871 9.22385C7.92594 9.11686 8.05758 8.94505 8.17701 8.80558C8.29619 8.66611 8.336 8.56658 8.41562 8.40734C8.49525 8.24784 8.45544 8.10839 8.39572 7.98895C8.336 7.86952 7.87183 6.68839 7.65946 6.21613Z" fill="#4FA83D"/>
<path d="M16.8109 3.45763C15.006 1.65156 12.6061 0.656404 10.0493 0.655273C4.78034 0.655273 0.492518 4.94173 0.4904 10.2104C0.489779 11.8946 0.929823 13.5385 1.76623 14.9877L0.410156 19.9392L5.47741 18.6105C6.87355 19.3719 8.44548 19.7731 10.0451 19.7737H10.0492H10.0493C15.3173 19.7737 19.6057 15.4865 19.608 10.2181C19.6089 7.6647 18.6154 5.26383 16.8109 3.45763ZM10.0493 18.1599H10.0462C8.62028 18.1591 7.22202 17.7763 6.00242 17.0526L5.71217 16.8806L2.70516 17.669L3.50798 14.7382L3.31888 14.4378C2.52352 13.1731 2.10364 11.7117 2.10426 10.211C2.106 5.83189 5.66987 2.26926 10.0523 2.26926C12.1745 2.27014 14.169 3.09734 15.6692 4.59849C17.1692 6.09963 17.9946 8.09517 17.994 10.2175C17.9921 14.5968 14.4281 18.1599 10.0493 18.1599Z" fill="#4FA83D"/>
</svg>
