<svg xmlns="http://www.w3.org/2000/svg" width="34" height="21" viewBox="0 0 34 21" fill="none"><g id="Group"><g id="Group_2"><g id="Clip path group"><mask id="mask0_9372_55442" style="mask-type:luminance" maskUnits="userSpaceOnUse" x="0" y="0" width="34" height="21"><g id="SVGID_00000155111416233197402490000007183476236431439022_"><path id="Vector" d="M33.8459 0.710999H0.282959V20.289H33.8459V0.710999Z" fill="white"></path></g></mask><g mask="url(#mask0_9372_55442)"><path id="Vector_2" d="M33.8459 0.710999H0.282959V20.289H33.8459V0.710999Z" fill="white"></path></g></g><g id="Clip path group_2"><mask id="mask1_9372_55442" style="mask-type:luminance" maskUnits="userSpaceOnUse" x="0" y="0" width="34" height="21"><g id="SVGID_00000155111416233197402490000007183476236431439022__2"><path id="Vector_3" d="M33.8459 0.710999H0.282959V20.289H33.8459V0.710999Z" fill="white"></path></g></mask><g mask="url(#mask1_9372_55442)"><path id="Vector_4" d="M33.8459 0.710999H0.282959V7.23801H33.8459V0.710999Z" fill="#F0953E"></path></g></g><g id="Clip path group_3"><mask id="mask2_9372_55442" style="mask-type:luminance" maskUnits="userSpaceOnUse" x="0" y="0" width="34" height="21"><g id="SVGID_00000155111416233197402490000007183476236431439022__3"><path id="Vector_5" d="M33.8459 0.710999H0.282959V20.289H33.8459V0.710999Z" fill="white"></path></g></mask><g mask="url(#mask2_9372_55442)"><path id="Vector_6" d="M33.8459 13.765H0.282959V20.288H33.8459V13.765Z" fill="#3B8916"></path></g></g><g id="Clip path group_4"><mask id="mask3_9372_55442" style="mask-type:luminance" maskUnits="userSpaceOnUse" x="0" y="0" width="34" height="21"><g id="SVGID_00000155111416233197402490000007183476236431439022__4"><path id="Vector_7" d="M33.8459 0.710999H0.282959V20.289H33.8459V0.710999Z" fill="white"></path></g></mask><g mask="url(#mask3_9372_55442)"><g id="Group_3"><g id="Clip path group_5"><mask id="mask4_9372_55442" style="mask-type:luminance" maskUnits="userSpaceOnUse" x="0" y="0" width="34" height="21"><g id="SVGID_00000059269777640460758120000018211146353377130661_"><path id="Vector_8" d="M33.8459 0.710999H0.282959V20.289H33.8459V0.710999Z" fill="white"></path></g></mask><g mask="url(#mask4_9372_55442)"><path id="Vector_9" d="M17.064 7.56604C15.443 7.56604 14.126 8.87903 14.126 10.5C14.126 12.121 15.442 13.438 17.064 13.438C18.686 13.438 20.002 12.122 20.002 10.5C20 8.87903 18.685 7.56604 17.064 7.56604ZM17.062 7.85104L16.988 9.32803L17.0679 10.168L17.142 9.32803L17.0679 7.85104C17.1459 7.85104 17.22 7.85504 17.295 7.86304C17.295 7.86704 17.291 7.86703 17.291 7.87103C17.291 7.94103 17.3459 8.00003 17.4119 8.00003C17.4749 8.00003 17.5249 7.94902 17.5309 7.89102C17.6049 7.90702 17.6759 7.91805 17.7479 7.94205L17.295 9.34802L17.15 10.18L17.4429 9.38303L17.756 7.94205C17.826 7.96505 17.897 7.98502 17.967 8.01202C17.963 8.02402 17.957 8.03902 17.957 8.05502C17.957 8.12102 18.012 8.17603 18.08 8.17603C18.127 8.17603 18.174 8.14505 18.191 8.10205C18.257 8.13305 18.3219 8.16803 18.3879 8.20703L17.585 9.44104L17.23 10.2141L17.72 9.52304L18.394 8.21002C18.455 8.24502 18.517 8.28403 18.58 8.32303C18.562 8.34603 18.553 8.37003 18.553 8.40103C18.553 8.46703 18.608 8.52203 18.676 8.52203C18.715 8.52203 18.75 8.50604 18.772 8.47104C18.831 8.52204 18.885 8.57305 18.936 8.62305L17.842 9.61102L17.301 10.263L17.9509 9.72403L18.941 8.62604C18.992 8.68104 19.0429 8.73104 19.0889 8.79004C19.0599 8.81304 19.046 8.84903 19.046 8.88403C19.046 8.95003 19.101 9.00504 19.165 9.00504C19.194 9.00504 19.2159 8.99703 19.2369 8.98203C19.2819 9.04503 19.321 9.10704 19.356 9.17004L18.043 9.84204L17.3519 10.334L18.1199 9.98203L19.3599 9.17303C19.4009 9.24303 19.434 9.31804 19.467 9.38004C19.426 9.40004 19.3929 9.44604 19.3929 9.49704C19.3929 9.56304 19.448 9.61804 19.512 9.61804C19.531 9.61804 19.545 9.61405 19.559 9.60605C19.583 9.67605 19.6039 9.74305 19.6219 9.81305L18.179 10.118L17.3879 10.411L18.22 10.2701L19.626 9.82104C19.644 9.88404 19.6609 9.96204 19.6749 10.032C19.6139 10.04 19.569 10.087 19.569 10.153C19.569 10.219 19.626 10.274 19.692 10.274C19.696 10.274 19.7 10.274 19.704 10.274C19.712 10.344 19.712 10.422 19.712 10.493L18.239 10.423L17.395 10.497L18.239 10.579L19.712 10.501C19.712 10.579 19.712 10.653 19.704 10.724C19.7 10.724 19.696 10.724 19.692 10.724C19.626 10.724 19.569 10.783 19.569 10.845C19.569 10.907 19.614 10.954 19.673 10.966C19.659 11.04 19.644 11.111 19.626 11.181L19.124 11.021L18.22 10.728L17.3879 10.587L18.179 10.88L19.6219 11.189C19.6049 11.259 19.583 11.334 19.556 11.396C19.552 11.396 19.544 11.392 19.54 11.392C19.528 11.392 19.5209 11.392 19.5129 11.392C19.4449 11.392 19.39 11.443 19.39 11.513C19.39 11.533 19.394 11.544 19.402 11.56C19.408 11.58 19.4199 11.595 19.4349 11.607C19.4389 11.607 19.4409 11.611 19.4449 11.611C19.4489 11.615 19.453 11.619 19.457 11.619C19.459 11.619 19.463 11.623 19.465 11.627C19.434 11.693 19.399 11.76 19.361 11.822L18.1229 11.021H18.121L17.353 10.669H17.3569L17.759 10.95L18.0439 11.153L19.3569 11.825C19.3179 11.891 19.279 11.958 19.236 12.016C19.216 12.004 19.191 11.996 19.166 11.996C19.098 11.996 19.045 12.047 19.045 12.113C19.045 12.152 19.061 12.187 19.09 12.207C19.041 12.262 18.992 12.316 18.942 12.367L17.952 11.273L17.304 10.734L17.843 11.386L18.937 12.374C18.886 12.429 18.8359 12.472 18.7789 12.519C18.7559 12.499 18.7299 12.492 18.7029 12.492C18.6369 12.492 18.582 12.551 18.582 12.613C18.582 12.636 18.586 12.652 18.592 12.668C18.528 12.707 18.461 12.75 18.397 12.793L17.723 11.48L17.233 10.785L17.587 11.555L18.39 12.797C18.326 12.832 18.2609 12.867 18.1949 12.899C18.1769 12.852 18.1339 12.825 18.0859 12.825C18.0179 12.825 17.963 12.884 17.963 12.946C17.963 12.962 17.9669 12.977 17.9709 12.993C17.9009 13.016 17.8319 13.04 17.7599 13.056L17.447 11.611L17.1539 10.826V10.822L17.299 11.654L17.752 13.06C17.68 13.08 17.608 13.099 17.535 13.107C17.525 13.052 17.475 13.005 17.416 13.005C17.346 13.005 17.295 13.06 17.295 13.122C17.295 13.13 17.295 13.134 17.295 13.138C17.221 13.146 17.147 13.15 17.072 13.15L17.1459 11.677L17.0679 10.833L16.9919 11.677L17.066 13.15C16.988 13.15 16.9159 13.146 16.8389 13.138C16.8389 13.134 16.8389 13.13 16.8389 13.122C16.8389 13.059 16.7839 13.005 16.7159 13.005C16.6569 13.005 16.607 13.052 16.597 13.107C16.525 13.095 16.4549 13.08 16.3859 13.06L16.8389 11.654L16.98 10.826L16.687 11.611L16.3779 13.056C16.3079 13.04 16.237 13.017 16.165 12.993C16.171 12.977 16.1749 12.962 16.1749 12.946C16.1749 12.883 16.12 12.825 16.056 12.825C16.005 12.825 15.962 12.856 15.941 12.899C15.876 12.868 15.81 12.833 15.746 12.797L16.549 11.555L16.9009 10.785L16.413 11.476L15.741 12.792C15.677 12.749 15.6119 12.71 15.5519 12.667C15.5659 12.651 15.575 12.628 15.575 12.601C15.575 12.531 15.5199 12.476 15.4559 12.476C15.4149 12.476 15.3819 12.496 15.3619 12.523C15.3029 12.472 15.2489 12.429 15.1979 12.375L16.296 11.387L16.835 10.735L16.1849 11.274L15.1949 12.368C15.1399 12.317 15.092 12.259 15.043 12.208C15.07 12.185 15.09 12.149 15.09 12.11C15.09 12.044 15.0349 11.993 14.9689 11.993C14.9419 11.993 14.916 12.001 14.897 12.013C14.854 11.954 14.815 11.892 14.778 11.825L16.0939 11.149L16.78 10.669L16.012 11.021L14.7739 11.822C14.7369 11.759 14.708 11.697 14.674 11.627C14.721 11.611 14.752 11.568 14.752 11.518C14.752 11.448 14.699 11.393 14.629 11.393C14.612 11.393 14.5939 11.397 14.5779 11.405C14.5549 11.339 14.5309 11.264 14.5099 11.19L15.955 10.881L16.7499 10.588L15.9139 10.729L14.5079 11.182C14.4889 11.112 14.475 11.041 14.459 10.963C14.52 10.955 14.564 10.908 14.564 10.846C14.564 10.78 14.5089 10.725 14.4429 10.725C14.4389 10.725 14.433 10.725 14.429 10.725C14.425 10.655 14.4189 10.58 14.4189 10.502L15.894 10.58L16.736 10.498L15.894 10.424L14.4189 10.494C14.4189 10.424 14.425 10.346 14.429 10.275C14.437 10.275 14.443 10.275 14.45 10.275C14.516 10.275 14.571 10.224 14.571 10.154C14.571 10.088 14.5219 10.0411 14.4579 10.0331C14.4739 9.96305 14.487 9.88502 14.507 9.82202L15.913 10.271L16.749 10.412L15.954 10.119L14.509 9.81003C14.53 9.73603 14.554 9.66503 14.577 9.59903C14.589 9.60303 14.6079 9.60703 14.6219 9.60703C14.6899 9.60703 14.743 9.55202 14.743 9.48602C14.743 9.43502 14.712 9.39204 14.671 9.37704C14.702 9.30704 14.7359 9.24004 14.7729 9.17404L16.0109 9.98303L16.783 10.335L16.0939 9.84305L14.778 9.17105C14.815 9.10805 14.8559 9.04604 14.8989 8.98004C14.9159 9.00004 14.9459 9.00705 14.9709 9.00705C15.0349 9.00705 15.092 8.95205 15.092 8.88605C15.092 8.85105 15.0719 8.81602 15.0469 8.78802C15.0919 8.73302 15.1409 8.68302 15.1929 8.62802L16.183 9.72604L16.835 10.265L16.296 9.61304L15.1979 8.62503C15.2529 8.57403 15.3059 8.52305 15.3619 8.47705C15.3809 8.50405 15.4169 8.52405 15.4559 8.52405C15.5239 8.52405 15.579 8.46905 15.579 8.39905C15.579 8.37205 15.567 8.34804 15.554 8.32504C15.617 8.29004 15.6769 8.24704 15.7419 8.21204L16.4139 9.52502L16.902 10.213L16.5499 9.44302L15.7469 8.20905C15.8109 8.17005 15.8759 8.13503 15.9399 8.10403C15.9599 8.15103 16.003 8.18204 16.053 8.18204C16.121 8.18204 16.174 8.12703 16.174 8.06503C16.174 8.04503 16.17 8.02604 16.166 8.01404C16.234 7.98704 16.309 7.96703 16.379 7.94403L16.692 9.38504L16.9849 10.182L16.842 9.35004L16.389 7.94403C16.459 7.92103 16.5299 7.90904 16.6039 7.89304C16.6119 7.95204 16.663 7.99805 16.723 7.99805C16.791 7.99805 16.8459 7.94305 16.8459 7.87305C16.8459 7.86905 16.8459 7.86502 16.8459 7.86102C16.9139 7.85102 16.988 7.85104 17.062 7.85104Z" fill="#16007E"></path></g></g><g id="Clip path group_6"><mask id="mask5_9372_55442" style="mask-type:luminance" maskUnits="userSpaceOnUse" x="0" y="0" width="34" height="21"><g id="SVGID_00000059269777640460758120000018211146353377130661__2"><path id="Vector_10" d="M33.8459 0.710999H0.282959V20.289H33.8459V0.710999Z" fill="white"></path></g></mask><g mask="url(#mask5_9372_55442)"><path id="Vector_11" d="M17.0679 10.062C17.3099 10.062 17.506 10.261 17.506 10.5C17.506 10.742 17.3109 10.941 17.0679 10.941C16.8219 10.941 16.627 10.742 16.627 10.5C16.627 10.261 16.8219 10.062 17.0679 10.062Z" fill="white"></path></g></g><g id="Clip path group_7"><mask id="mask6_9372_55442" style="mask-type:luminance" maskUnits="userSpaceOnUse" x="0" y="0" width="34" height="21"><g id="SVGID_00000059269777640460758120000018211146353377130661__3"><path id="Vector_12" d="M33.8459 0.710999H0.282959V20.289H33.8459V0.710999Z" fill="white"></path></g></mask><g mask="url(#mask6_9372_55442)"><path id="Vector_13" d="M17.0679 10.164C17.2539 10.164 17.4059 10.312 17.4059 10.5C17.4059 10.691 17.2539 10.844 17.0679 10.844C16.8789 10.844 16.7239 10.692 16.7239 10.5C16.7249 10.312 16.8789 10.164 17.0679 10.164Z" fill="#16007E"></path></g></g></g></g></g></g></g></svg>