<svg xmlns="http://www.w3.org/2000/svg" width="35" height="21" viewBox="0 0 35 21" fill="none"><g id="PAKISTAN_2_"><g id="Group"><g id="Group_2"><g id="Clip path group"><mask id="mask0_9372_33486" style="mask-type:luminance" maskUnits="userSpaceOnUse" x="0" y="0" width="35" height="21"><g id="SVGID_00000056416572653853292200000004635793498827732153_"><path id="Vector" d="M34.3415 0.708984H0.780518V20.291H34.3415V0.708984Z" fill="white"></path></g></mask><g mask="url(#mask0_9372_33486)"><path id="Vector_2" d="M34.3415 0.708984H0.780518V20.291H34.3415V0.708984Z" fill="white"></path></g></g><g id="Clip path group_2"><mask id="mask1_9372_33486" style="mask-type:luminance" maskUnits="userSpaceOnUse" x="0" y="0" width="35" height="21"><g id="SVGID_00000056416572653853292200000004635793498827732153__2"><path id="Vector_3" d="M34.3415 0.708984H0.780518V20.291H34.3415V0.708984Z" fill="white"></path></g></mask><g mask="url(#mask1_9372_33486)"><path id="Vector_4" d="M34.3415 0.708984H9.16748V20.291H34.3415V0.708984Z" fill="#2A680B"></path></g></g><g id="Clip path group_3"><mask id="mask2_9372_33486" style="mask-type:luminance" maskUnits="userSpaceOnUse" x="0" y="0" width="35" height="21"><g id="SVGID_00000056416572653853292200000004635793498827732153__3"><path id="Vector_5" d="M34.3415 0.708984H0.780518V20.291H34.3415V0.708984Z" fill="white"></path></g></mask><g mask="url(#mask2_9372_33486)"><g id="Group_3"><g id="Clip path group_4"><mask id="mask3_9372_33486" style="mask-type:luminance" maskUnits="userSpaceOnUse" x="0" y="0" width="35" height="21"><g id="SVGID_00000170262554825945567280000016128779163180812680_"><path id="Vector_6" d="M34.3415 0.708984H0.780518V20.291H34.3415V0.708984Z" fill="white"></path></g></mask><g mask="url(#mask3_9372_33486)"><path id="Vector_7" d="M21.2255 4.62695C24.4635 4.62695 27.0865 7.25596 27.0865 10.498C27.0865 13.744 24.4635 16.373 21.2255 16.373C17.9875 16.373 15.3625 13.744 15.3625 10.498C15.3625 7.25596 17.9875 4.62695 21.2255 4.62695Z" fill="white"></path></g></g><g id="Clip path group_5"><mask id="mask4_9372_33486" style="mask-type:luminance" maskUnits="userSpaceOnUse" x="0" y="0" width="35" height="21"><g id="SVGID_00000170262554825945567280000016128779163180812680__2"><path id="Vector_8" d="M34.3415 0.708984H0.780518V20.291H34.3415V0.708984Z" fill="white"></path></g></mask><g mask="url(#mask4_9372_33486)"><path id="Vector_9" d="M19.1555 5.13889C21.3745 3.16589 24.7665 3.36589 26.7395 5.59189C28.7125 7.80689 28.5125 11.2129 26.2945 13.1899C24.0755 15.1669 20.6794 14.9629 18.7064 12.7409C16.7374 10.5219 16.9365 7.11489 19.1555 5.13889Z" fill="#2A680B"></path></g></g><g id="Clip path group_6"><mask id="mask5_9372_33486" style="mask-type:luminance" maskUnits="userSpaceOnUse" x="0" y="0" width="35" height="21"><g id="SVGID_00000170262554825945567280000016128779163180812680__3"><path id="Vector_10" d="M34.3415 0.708984H0.780518V20.291H34.3415V0.708984Z" fill="white"></path></g></mask><g mask="url(#mask5_9372_33486)"><path id="Vector_11" d="M25.6044 6.6001L23.8174 7.3811L24.2104 8.27911L25.6044 6.6001Z" fill="white"></path></g></g><g id="Clip path group_7"><mask id="mask6_9372_33486" style="mask-type:luminance" maskUnits="userSpaceOnUse" x="0" y="0" width="35" height="21"><g id="SVGID_00000170262554825945567280000016128779163180812680__4"><path id="Vector_12" d="M34.3415 0.708984H0.780518V20.291H34.3415V0.708984Z" fill="white"></path></g></mask><g mask="url(#mask6_9372_33486)"><path id="Vector_13" d="M25.6044 6.6001L24.6184 8.28711L23.7744 7.79111L25.6044 6.6001Z" fill="white"></path></g></g><g id="Clip path group_8"><mask id="mask7_9372_33486" style="mask-type:luminance" maskUnits="userSpaceOnUse" x="0" y="0" width="35" height="21"><g id="SVGID_00000170262554825945567280000016128779163180812680__5"><path id="Vector_14" d="M34.3415 0.708984H0.780518V20.291H34.3415V0.708984Z" fill="white"></path></g></mask><g mask="url(#mask7_9372_33486)"><path id="Vector_15" d="M25.8336 8.88907L24.5326 7.42407L23.8076 8.07608L25.8336 8.88907Z" fill="white"></path></g></g><g id="Clip path group_9"><mask id="mask8_9372_33486" style="mask-type:luminance" maskUnits="userSpaceOnUse" x="0" y="0" width="35" height="21"><g id="SVGID_00000170262554825945567280000016128779163180812680__6"><path id="Vector_16" d="M34.3415 0.708984H0.780518V20.291H34.3415V0.708984Z" fill="white"></path></g></mask><g mask="url(#mask8_9372_33486)"><path id="Vector_17" d="M25.8334 8.88892L23.9224 8.46692L24.1324 7.51392L25.8334 8.88892Z" fill="white"></path></g></g><g id="Clip path group_10"><mask id="mask9_9372_33486" style="mask-type:luminance" maskUnits="userSpaceOnUse" x="0" y="0" width="35" height="21"><g id="SVGID_00000170262554825945567280000016128779163180812680__7"><path id="Vector_18" d="M34.3415 0.708984H0.780518V20.291H34.3415V0.708984Z" fill="white"></path></g></mask><g mask="url(#mask9_9372_33486)"><path id="Vector_19" d="M23.3645 6.104L23.5575 8.05301L24.5285 7.95901L23.3645 6.104Z" fill="white"></path></g></g><g id="Clip path group_11"><mask id="mask10_9372_33486" style="mask-type:luminance" maskUnits="userSpaceOnUse" x="0" y="0" width="35" height="21"><g id="SVGID_00000170262554825945567280000016128779163180812680__8"><path id="Vector_20" d="M34.3415 0.708984H0.780518V20.291H34.3415V0.708984Z" fill="white"></path></g></mask><g mask="url(#mask10_9372_33486)"><path id="Vector_21" d="M23.3645 6.104L24.6635 7.56802L23.9285 8.21701L23.3645 6.104Z" fill="white"></path></g></g><g id="Clip path group_12"><mask id="mask11_9372_33486" style="mask-type:luminance" maskUnits="userSpaceOnUse" x="0" y="0" width="35" height="21"><g id="SVGID_00000170262554825945567280000016128779163180812680__9"><path id="Vector_22" d="M34.3415 0.708984H0.780518V20.291H34.3415V0.708984Z" fill="white"></path></g></mask><g mask="url(#mask11_9372_33486)"><path id="Vector_23" d="M23.7295 9.81094L24.7165 8.11896L23.8725 7.62695L23.7295 9.81094Z" fill="white"></path></g></g><g id="Clip path group_13"><mask id="mask12_9372_33486" style="mask-type:luminance" maskUnits="userSpaceOnUse" x="0" y="0" width="35" height="21"><g id="SVGID_00000170262554825945567280000016128779163180812680__10"><path id="Vector_24" d="M34.3415 0.708984H0.780518V20.291H34.3415V0.708984Z" fill="white"></path></g></mask><g mask="url(#mask12_9372_33486)"><path id="Vector_25" d="M23.7294 9.81091L23.5344 7.86093L24.5074 7.76392L23.7294 9.81091Z" fill="white"></path></g></g><g id="Clip path group_14"><mask id="mask13_9372_33486" style="mask-type:luminance" maskUnits="userSpaceOnUse" x="0" y="0" width="35" height="21"><g id="SVGID_00000170262554825945567280000016128779163180812680__11"><path id="Vector_26" d="M34.3415 0.708984H0.780518V20.291H34.3415V0.708984Z" fill="white"></path></g></mask><g mask="url(#mask13_9372_33486)"><path id="Vector_27" d="M22.2046 8.09189L24.1126 8.50989L24.3176 7.55688L22.2046 8.09189Z" fill="white"></path></g></g><g id="Clip path group_15"><mask id="mask14_9372_33486" style="mask-type:luminance" maskUnits="userSpaceOnUse" x="0" y="0" width="35" height="21"><g id="SVGID_00000170262554825945567280000016128779163180812680__12"><path id="Vector_28" d="M34.3415 0.708984H0.780518V20.291H34.3415V0.708984Z" fill="white"></path></g></mask><g mask="url(#mask14_9372_33486)"><path id="Vector_29" d="M22.2046 8.09189L23.9916 7.30688L24.3826 8.2049L22.2046 8.09189Z" fill="white"></path></g></g></g></g></g></g></g></g></svg>