<svg xmlns="http://www.w3.org/2000/svg" width="17" height="21" viewBox="0 0 17 21" fill="none"><g id="NEPAL_2_"><g id="Group"><g id="Group_2"><g id="Clip path group"><mask id="mask0_9372_33552" style="mask-type:luminance" maskUnits="userSpaceOnUse" x="0" y="0" width="17" height="21"><g id="SVGID_00000148637909076125484930000012626478087395773617_"><path id="Vector" d="M16.5076 0.708984H0.780518V20.291H16.5076V0.708984Z" fill="white"></path></g></mask><g mask="url(#mask0_9372_33552)"><path id="Vector_2" d="M1.52057 2.05298L13.7645 9.71698H4.32953L14.1595 19.545H1.52057V2.05298ZM0.780518 0.708984V20.291H15.9485L6.12054 10.459H16.3475L0.780518 0.708984Z" fill="#22368F"></path></g></g><g id="Clip path group_2"><mask id="mask1_9372_33552" style="mask-type:luminance" maskUnits="userSpaceOnUse" x="0" y="0" width="17" height="21"><g id="SVGID_00000148637909076125484930000012626478087395773617__2"><path id="Vector_3" d="M16.5076 0.708984H0.780518V20.291H16.5076V0.708984Z" fill="white"></path></g></mask><g mask="url(#mask1_9372_33552)"><path id="Vector_4" d="M1.15161 1.38086V19.9199H15.0516L5.22559 10.0878H15.0516L1.15161 1.38086Z" fill="#BC0030"></path></g></g><g id="Clip path group_3"><mask id="mask2_9372_33552" style="mask-type:luminance" maskUnits="userSpaceOnUse" x="0" y="0" width="17" height="21"><g id="SVGID_00000148637909076125484930000012626478087395773617__3"><path id="Vector_5" d="M16.5076 0.708984H0.780518V20.291H16.5076V0.708984Z" fill="white"></path></g></mask><g mask="url(#mask2_9372_33552)"><g id="Group_3"><g id="Clip path group_4"><mask id="mask3_9372_33552" style="mask-type:luminance" maskUnits="userSpaceOnUse" x="0" y="0" width="17" height="21"><g id="SVGID_00000057839584684419110270000006948111495056772995_"><path id="Vector_6" d="M16.5076 0.708984H0.780518V20.291H16.5076V0.708984Z" fill="white"></path></g></mask><g mask="url(#mask3_9372_33552)"><path id="Vector_7" d="M4.62543 9.59094C6.15643 9.59094 7.39545 8.34895 7.39545 6.82495C7.15345 7.43795 6.71144 7.94998 6.15344 8.28998L5.91742 8.10999L6.38245 7.75793L5.8194 7.61694L6.11444 7.11694L5.53839 7.19495L5.62244 6.62097L5.12042 6.91797L4.97742 6.35498L4.62543 6.81995L4.2774 6.35498L4.1344 6.91797L3.63245 6.62097L3.71442 7.19495L3.13843 7.11694L3.43542 7.61694L2.87042 7.75793L3.33942 8.10999L3.09943 8.28998C2.53943 7.94998 2.09942 7.43795 1.85742 6.82495C1.86042 8.34895 3.09843 9.59094 4.62543 9.59094Z" fill="white"></path></g></g><g id="Clip path group_5"><mask id="mask4_9372_33552" style="mask-type:luminance" maskUnits="userSpaceOnUse" x="0" y="0" width="17" height="21"><g id="SVGID_00000057839584684419110270000006948111495056772995__2"><path id="Vector_8" d="M16.5076 0.708984H0.780518V20.291H16.5076V0.708984Z" fill="white"></path></g></mask><g mask="url(#mask4_9372_33552)"><path id="Vector_9" d="M6.45251 15.4899L7.60052 15.0018L6.45251 14.5128L7.20453 13.5128L5.96155 13.6699L6.11456 12.4279L5.11652 13.1808L4.62555 12.0288L4.13953 13.1808L3.13953 12.4279L3.29254 13.6699L2.05151 13.5128L2.80554 14.5128L1.65356 15.0018L2.80554 15.4899L2.05151 16.4899L3.29254 16.3378L3.13953 17.5798L4.13953 16.8218L4.62555 17.9778L5.11652 16.8218L6.11456 17.5798L5.96155 16.3378L7.20453 16.4899L6.45251 15.4899Z" fill="white"></path></g></g></g></g></g></g></g></g></svg>