<svg xmlns="http://www.w3.org/2000/svg" width="34" height="21" viewBox="0 0 34 21" fill="none"><g id="SINGAPORE_3_"><g id="Group"><g id="Group_2"><g id="Clip path group"><mask id="mask0_9372_55475" style="mask-type:luminance" maskUnits="userSpaceOnUse" x="0" y="0" width="34" height="21"><g id="SVGID_00000183957639532157466360000008934447643963252411_"><path id="Vector" d="M33.8459 0.708984H0.282959V20.291H33.8459V0.708984Z" fill="white"></path></g></mask><g mask="url(#mask0_9372_55475)"><path id="Vector_2" d="M33.8459 0.708984H0.282959V10.502H33.8459V0.708984Z" fill="#DA1841"></path></g></g><g id="Clip path group_2"><mask id="mask1_9372_55475" style="mask-type:luminance" maskUnits="userSpaceOnUse" x="0" y="0" width="34" height="21"><g id="SVGID_00000183957639532157466360000008934447643963252411__2"><path id="Vector_3" d="M33.8459 0.708984H0.282959V20.291H33.8459V0.708984Z" fill="white"></path></g></mask><g mask="url(#mask1_9372_55475)"><path id="Vector_4" d="M33.8459 10.502H0.282959V20.291H33.8459V10.502Z" fill="white"></path></g></g><g id="Clip path group_3"><mask id="mask2_9372_55475" style="mask-type:luminance" maskUnits="userSpaceOnUse" x="0" y="0" width="34" height="21"><g id="SVGID_00000183957639532157466360000008934447643963252411__3"><path id="Vector_5" d="M33.8459 0.708984H0.282959V20.291H33.8459V0.708984Z" fill="white"></path></g></mask><g mask="url(#mask2_9372_55475)"><g id="Group_3"><g id="Clip path group_4"><mask id="mask3_9372_55475" style="mask-type:luminance" maskUnits="userSpaceOnUse" x="0" y="0" width="34" height="21"><g id="SVGID_00000114062369100748434600000010439676938435333555_"><path id="Vector_6" d="M33.8459 0.708984H0.282959V20.291H33.8459V0.708984Z" fill="white"></path></g></mask><g mask="url(#mask3_9372_55475)"><path id="Vector_7" d="M10.3539 5.60394C10.3539 7.63894 8.70694 9.28796 6.67294 9.28796C4.64094 9.28796 2.99097 7.63994 2.99097 5.60394C2.99097 3.57294 4.63994 1.92395 6.67294 1.92395C8.70694 1.92395 10.3539 3.57194 10.3539 5.60394Z" fill="white"></path></g></g><g id="Clip path group_5"><mask id="mask4_9372_55475" style="mask-type:luminance" maskUnits="userSpaceOnUse" x="0" y="0" width="34" height="21"><g id="SVGID_00000114062369100748434600000010439676938435333555__2"><path id="Vector_8" d="M33.8459 0.708984H0.282959V20.291H33.8459V0.708984Z" fill="white"></path></g></mask><g mask="url(#mask4_9372_55475)"><path id="Vector_9" d="M11.511 5.60394C11.511 7.52994 9.95499 9.08395 8.03299 9.08395C6.11299 9.08395 4.55298 7.52894 4.55298 5.60394C4.55298 3.68594 6.11299 2.12695 8.03299 2.12695C9.95599 2.12695 11.511 3.68594 11.511 5.60394Z" fill="#DA1841"></path></g></g><g id="Clip path group_6"><mask id="mask5_9372_55475" style="mask-type:luminance" maskUnits="userSpaceOnUse" x="0" y="0" width="34" height="21"><g id="SVGID_00000114062369100748434600000010439676938435333555__3"><path id="Vector_10" d="M33.8459 0.708984H0.282959V20.291H33.8459V0.708984Z" fill="white"></path></g></mask><g mask="url(#mask5_9372_55475)"><path id="Vector_11" d="M7.12784 5.69299L6.62885 5.31097L6.12683 5.69299L6.32083 5.07599L5.81982 4.69299L6.43884 4.69699L6.62885 4.07599L6.82083 4.69699L7.43784 4.69299L6.93582 5.07599L7.12784 5.69299Z" fill="white"></path></g></g><g id="Clip path group_7"><mask id="mask6_9372_55475" style="mask-type:luminance" maskUnits="userSpaceOnUse" x="0" y="0" width="34" height="21"><g id="SVGID_00000114062369100748434600000010439676938435333555__4"><path id="Vector_12" d="M33.8459 0.708984H0.282959V20.291H33.8459V0.708984Z" fill="white"></path></g></mask><g mask="url(#mask6_9372_55475)"><path id="Vector_13" d="M11.0529 5.69299L10.5519 5.31097L10.0529 5.69299L10.2459 5.07599L9.74292 4.69299L10.3629 4.69699L10.5519 4.07599L10.7429 4.69699L11.3619 4.69299L10.8609 5.07599L11.0529 5.69299Z" fill="white"></path></g></g><g id="Clip path group_8"><mask id="mask7_9372_55475" style="mask-type:luminance" maskUnits="userSpaceOnUse" x="0" y="0" width="34" height="21"><g id="SVGID_00000114062369100748434600000010439676938435333555__5"><path id="Vector_14" d="M33.8459 0.708984H0.282959V20.291H33.8459V0.708984Z" fill="white"></path></g></mask><g mask="url(#mask7_9372_55475)"><path id="Vector_15" d="M9.09094 4.24002L8.59195 3.854L8.09296 4.24002L8.28397 3.61902L7.78296 3.24002H8.40195L8.59195 2.61902L8.78397 3.24002L9.40295 3.23602L8.90097 3.61902L9.09094 4.24002Z" fill="white"></path></g></g><g id="Clip path group_9"><mask id="mask8_9372_55475" style="mask-type:luminance" maskUnits="userSpaceOnUse" x="0" y="0" width="34" height="21"><g id="SVGID_00000114062369100748434600000010439676938435333555__6"><path id="Vector_16" d="M33.8459 0.708984H0.282959V20.291H33.8459V0.708984Z" fill="white"></path></g></mask><g mask="url(#mask8_9372_55475)"><path id="Vector_17" d="M7.86398 8.02499L7.362 7.64297L6.86298 8.02499L7.05499 7.40399L6.55298 7.02499H7.172L7.362 6.40399L7.552 7.02499H8.17099L7.66998 7.40399L7.86398 8.02499Z" fill="white"></path></g></g><g id="Clip path group_10"><mask id="mask9_9372_55475" style="mask-type:luminance" maskUnits="userSpaceOnUse" x="0" y="0" width="34" height="21"><g id="SVGID_00000114062369100748434600000010439676938435333555__7"><path id="Vector_18" d="M33.8459 0.708984H0.282959V20.291H33.8459V0.708984Z" fill="white"></path></g></mask><g mask="url(#mask9_9372_55475)"><path id="Vector_19" d="M10.319 8.02499L9.81702 7.64297L9.31802 8.02499L9.51102 7.40399L9.01001 7.02499H9.62903L9.81702 6.40399L10.008 7.02499H10.626L10.126 7.40399L10.319 8.02499Z" fill="white"></path></g></g></g></g></g></g></g></g></svg>