<svg xmlns="http://www.w3.org/2000/svg" width="24" height="18" viewBox="0 0 24 18" fill="none"><path d="M0 15.2309C0 15.9654 0.280952 16.6698 0.781049 17.1891C1.28115 17.7084 1.95942 18.0002 2.66667 18.0002H21.3333C22.0406 18.0002 22.7189 17.7084 23.219 17.1891C23.719 16.6698 24 15.9654 24 15.2309V11.7694H0V15.2309Z" fill="#138808"></path><path d="M24 6.23077V2.76923C24 2.03479 23.719 1.33042 23.219 0.811089C22.7189 0.291757 22.0406 0 21.3333 0H2.66667C1.95942 0 1.28115 0.291757 0.781049 0.811089C0.280952 1.33042 0 2.03479 0 2.76923L0 6.23077H24Z" fill="#FF9933"></path><path d="M0 6.00055H24V12.0008H0V6.00055Z" fill="#F7F7F7"></path><path d="M12.0007 11.7692C13.4734 11.7692 14.6673 10.5294 14.6673 9.00001C14.6673 7.4706 13.4734 6.23077 12.0007 6.23077C10.5279 6.23077 9.33398 7.4706 9.33398 9.00001C9.33398 10.5294 10.5279 11.7692 12.0007 11.7692Z" fill="#000080"></path><path d="M12 11.3369C13.2426 11.3369 14.25 10.2908 14.25 9.00036C14.25 7.70992 13.2426 6.66382 12 6.66382C10.7574 6.66382 9.75 7.70992 9.75 9.00036C9.75 10.2908 10.7574 11.3369 12 11.3369Z" fill="#F7F7F7"></path><path d="M12.0672 8.13449L12.0005 8.58448L11.9339 8.13449L12.0005 6.78448L12.0672 8.13449ZM11.4485 6.85995L11.7205 8.18156L11.8972 8.59833L11.8492 8.14625L11.4485 6.85995ZM10.9339 7.08148L11.5259 8.28472L11.8005 8.63987L11.6419 8.21549L10.9339 7.08148ZM10.4919 7.43318L11.3639 8.43702L11.7179 8.70633L11.4585 8.33872L10.4919 7.43318ZM10.1532 7.89218L11.2452 8.62741L11.6539 8.79218L11.3119 8.50695L10.1532 7.89218ZM9.93985 8.42664L11.1785 8.84272L11.6139 8.89256L11.2125 8.7091L9.93985 8.42664ZM9.86719 8.99987L11.1672 9.0691L11.6005 8.99987L11.1672 8.93064L9.86719 8.99987ZM9.93985 9.5731L11.2125 9.29064L11.6139 9.10718L11.1785 9.15702L9.93985 9.5731ZM10.1532 10.1076L11.3119 9.49279L11.6539 9.20756L11.2452 9.37233L10.1532 10.1076ZM10.4919 10.5666L11.4585 9.66102L11.7179 9.29341L11.3639 9.56272L10.4919 10.5666ZM10.9339 10.9183L11.6419 9.78425L11.8005 9.35987L11.5259 9.71502L10.9339 10.9183ZM11.4485 11.1398L11.8492 9.85349L11.8972 9.40141L11.7205 9.81818L11.4485 11.1398ZM12.0005 11.2153L12.0672 9.86525L12.0005 9.41525L11.9339 9.86525L12.0005 11.2153ZM12.5525 11.1398L12.2805 9.81818L12.1039 9.40141L12.1519 9.85349L12.5525 11.1398ZM13.0672 10.9183L12.4752 9.71502L12.2005 9.35987L12.3592 9.78425L13.0672 10.9183ZM13.5092 10.5666L12.6372 9.56272L12.2832 9.29341L12.5425 9.66102L13.5092 10.5666ZM13.8479 10.1076L12.7559 9.37233L12.3472 9.20756L12.6892 9.49279L13.8479 10.1076ZM14.0612 9.5731L12.8225 9.15702L12.3872 9.10718L12.7885 9.29064L14.0612 9.5731ZM14.1339 8.99987L12.8339 8.93064L12.4005 8.99987L12.8339 9.0691L14.1339 8.99987ZM14.0612 8.42664L12.7885 8.7091L12.3872 8.89256L12.8225 8.84272L14.0612 8.42664ZM13.8479 7.89218L12.6892 8.50695L12.3472 8.79218L12.7559 8.62741L13.8479 7.89218ZM13.5092 7.43318L12.5425 8.33872L12.2832 8.70633L12.6372 8.43702L13.5092 7.43318ZM13.0672 7.08148L12.3592 8.21549L12.2005 8.63987L12.4752 8.28472L13.0672 7.08148ZM12.5525 6.85995L12.1519 8.14625L12.1039 8.59833L12.2805 8.18156L12.5525 6.85995Z" fill="#6666B3"></path><path d="M11.7056 6.82496C11.7792 6.82496 11.8389 6.76297 11.8389 6.6865C11.8389 6.61003 11.7792 6.54803 11.7056 6.54803C11.632 6.54803 11.5723 6.61003 11.5723 6.6865C11.5723 6.76297 11.632 6.82496 11.7056 6.82496Z" fill="#000080"></path><path d="M11.1392 6.98316C11.2128 6.98316 11.2725 6.92117 11.2725 6.8447C11.2725 6.76823 11.2128 6.70624 11.1392 6.70624C11.0656 6.70624 11.0059 6.76823 11.0059 6.8447C11.0059 6.92117 11.0656 6.98316 11.1392 6.98316Z" fill="#000080"></path><path d="M10.6314 7.28687C10.705 7.28687 10.7647 7.22488 10.7647 7.14841C10.7647 7.07194 10.705 7.00995 10.6314 7.00995C10.5577 7.00995 10.498 7.07194 10.498 7.14841C10.498 7.22488 10.5577 7.28687 10.6314 7.28687Z" fill="#000080"></path><path d="M10.2173 7.71741C10.291 7.71741 10.3507 7.65542 10.3507 7.57895C10.3507 7.50248 10.291 7.44049 10.2173 7.44049C10.1437 7.44049 10.084 7.50248 10.084 7.57895C10.084 7.65542 10.1437 7.71741 10.2173 7.71741Z" fill="#000080"></path><path d="M9.92435 8.24476C9.99799 8.24476 10.0577 8.18277 10.0577 8.1063C10.0577 8.02983 9.99799 7.96783 9.92435 7.96783C9.85071 7.96783 9.79102 8.02983 9.79102 8.1063C9.79102 8.18277 9.85071 8.24476 9.92435 8.24476Z" fill="#000080"></path><path d="M9.77201 8.83344C9.84564 8.83344 9.90534 8.77145 9.90534 8.69498C9.90534 8.61851 9.84564 8.55652 9.77201 8.55652C9.69837 8.55652 9.63867 8.61851 9.63867 8.69498C9.63867 8.77145 9.69837 8.83344 9.77201 8.83344Z" fill="#000080"></path><path d="M9.77201 9.44239C9.84564 9.44239 9.90534 9.3804 9.90534 9.30393C9.90534 9.22746 9.84564 9.16547 9.77201 9.16547C9.69837 9.16547 9.63867 9.22746 9.63867 9.30393C9.63867 9.3804 9.69837 9.44239 9.77201 9.44239Z" fill="#000080"></path><path d="M9.92435 10.0311C9.99799 10.0311 10.0577 9.96914 10.0577 9.89267C10.0577 9.8162 9.99799 9.75421 9.92435 9.75421C9.85071 9.75421 9.79102 9.8162 9.79102 9.89267C9.79102 9.96914 9.85071 10.0311 9.92435 10.0311Z" fill="#000080"></path><path d="M10.2173 10.559C10.291 10.559 10.3507 10.497 10.3507 10.4205C10.3507 10.344 10.291 10.282 10.2173 10.282C10.1437 10.282 10.084 10.344 10.084 10.4205C10.084 10.497 10.1437 10.559 10.2173 10.559Z" fill="#000080"></path><path d="M10.6314 10.9894C10.705 10.9894 10.7647 10.9275 10.7647 10.851C10.7647 10.7745 10.705 10.7125 10.6314 10.7125C10.5577 10.7125 10.498 10.7745 10.498 10.851C10.498 10.9275 10.5577 10.9894 10.6314 10.9894Z" fill="#000080"></path><path d="M11.1392 11.2932C11.2128 11.2932 11.2725 11.2312 11.2725 11.1547C11.2725 11.0782 11.2128 11.0162 11.1392 11.0162C11.0656 11.0162 11.0059 11.0782 11.0059 11.1547C11.0059 11.2312 11.0656 11.2932 11.1392 11.2932Z" fill="#000080"></path><path d="M11.7056 11.4509C11.7792 11.4509 11.8389 11.3889 11.8389 11.3124C11.8389 11.2359 11.7792 11.174 11.7056 11.174C11.632 11.174 11.5723 11.2359 11.5723 11.3124C11.5723 11.3889 11.632 11.4509 11.7056 11.4509Z" fill="#000080"></path><path d="M12.2935 11.4509C12.3671 11.4509 12.4268 11.3889 12.4268 11.3124C12.4268 11.2359 12.3671 11.174 12.2935 11.174C12.2199 11.174 12.1602 11.2359 12.1602 11.3124C12.1602 11.3889 12.2199 11.4509 12.2935 11.4509Z" fill="#000080"></path><path d="M12.8599 11.2932C12.9335 11.2932 12.9932 11.2312 12.9932 11.1547C12.9932 11.0782 12.9335 11.0162 12.8599 11.0162C12.7863 11.0162 12.7266 11.0782 12.7266 11.1547C12.7266 11.2312 12.7863 11.2932 12.8599 11.2932Z" fill="#000080"></path><path d="M13.3677 10.9894C13.4413 10.9894 13.501 10.9275 13.501 10.851C13.501 10.7745 13.4413 10.7125 13.3677 10.7125C13.2941 10.7125 13.2344 10.7745 13.2344 10.851C13.2344 10.9275 13.2941 10.9894 13.3677 10.9894Z" fill="#000080"></path><path d="M13.7818 10.559C13.8554 10.559 13.9151 10.497 13.9151 10.4205C13.9151 10.344 13.8554 10.282 13.7818 10.282C13.7081 10.282 13.6484 10.344 13.6484 10.4205C13.6484 10.497 13.7081 10.559 13.7818 10.559Z" fill="#000080"></path><path d="M14.0747 10.0311C14.1484 10.0311 14.2081 9.96914 14.2081 9.89267C14.2081 9.8162 14.1484 9.75421 14.0747 9.75421C14.0011 9.75421 13.9414 9.8162 13.9414 9.89267C13.9414 9.96914 14.0011 10.0311 14.0747 10.0311Z" fill="#000080"></path><path d="M14.2271 9.44294C14.3007 9.44294 14.3604 9.38095 14.3604 9.30448C14.3604 9.22801 14.3007 9.16602 14.2271 9.16602C14.1534 9.16602 14.0938 9.22801 14.0938 9.30448C14.0938 9.38095 14.1534 9.44294 14.2271 9.44294Z" fill="#000080"></path><path d="M14.2271 8.83344C14.3007 8.83344 14.3604 8.77145 14.3604 8.69498C14.3604 8.61851 14.3007 8.55652 14.2271 8.55652C14.1534 8.55652 14.0938 8.61851 14.0938 8.69498C14.0938 8.77145 14.1534 8.83344 14.2271 8.83344Z" fill="#000080"></path><path d="M14.0747 8.24476C14.1484 8.24476 14.2081 8.18277 14.2081 8.1063C14.2081 8.02983 14.1484 7.96783 14.0747 7.96783C14.0011 7.96783 13.9414 8.02983 13.9414 8.1063C13.9414 8.18277 14.0011 8.24476 14.0747 8.24476Z" fill="#000080"></path><path d="M13.7818 7.71741C13.8554 7.71741 13.9151 7.65542 13.9151 7.57895C13.9151 7.50248 13.8554 7.44049 13.7818 7.44049C13.7081 7.44049 13.6484 7.50248 13.6484 7.57895C13.6484 7.65542 13.7081 7.71741 13.7818 7.71741Z" fill="#000080"></path><path d="M13.3677 7.28687C13.4413 7.28687 13.501 7.22488 13.501 7.14841C13.501 7.07194 13.4413 7.00995 13.3677 7.00995C13.2941 7.00995 13.2344 7.07194 13.2344 7.14841C13.2344 7.22488 13.2941 7.28687 13.3677 7.28687Z" fill="#000080"></path><path d="M12.8599 6.98316C12.9335 6.98316 12.9932 6.92117 12.9932 6.8447C12.9932 6.76823 12.9335 6.70624 12.8599 6.70624C12.7863 6.70624 12.7266 6.76823 12.7266 6.8447C12.7266 6.92117 12.7863 6.98316 12.8599 6.98316Z" fill="#000080"></path><path d="M12.2935 6.82496C12.3671 6.82496 12.4268 6.76297 12.4268 6.6865C12.4268 6.61003 12.3671 6.54803 12.2935 6.54803C12.2199 6.54803 12.1602 6.61003 12.1602 6.6865C12.1602 6.76297 12.2199 6.82496 12.2935 6.82496Z" fill="#000080"></path><path d="M11.9984 9.62268C12.3298 9.62268 12.5984 9.34372 12.5984 8.9996C12.5984 8.65549 12.3298 8.37653 11.9984 8.37653C11.6671 8.37653 11.3984 8.65549 11.3984 8.9996C11.3984 9.34372 11.6671 9.62268 11.9984 9.62268Z" fill="#000080"></path></svg>