<svg xmlns="http://www.w3.org/2000/svg" width="24" height="18" viewBox="0 0 24 18" fill="none"><path d="M23.63 1.38462C23.168 0.560077 22.318 0 21.3333 0H12V1.38462H23.63ZM0 13.8462H24V15.2308H0V13.8462ZM12 8.30769H24V9.69231H12V8.30769ZM12 5.53846H24V6.92308H12V5.53846ZM0 11.0769H24V12.4615H0V11.0769ZM2.66667 18H21.3333C22.318 18 23.168 17.4399 23.63 16.6154H0.37C0.832 17.4399 1.682 18 2.66667 18ZM12 2.76923H24V4.15385H12V2.76923Z" fill="#B22334"></path><path d="M0.0453333 15.701C0.0566667 15.7654 0.0693333 15.8298 0.0846667 15.8928C0.102 15.9627 0.123333 16.0298 0.146 16.0977C0.205333 16.277 0.277333 16.4501 0.368 16.6121L0.37 16.6155H23.63L23.6313 16.6128C23.7208 16.4496 23.7949 16.2778 23.8527 16.0998C23.8966 15.9698 23.9305 15.8365 23.954 15.701C23.9813 15.5487 24 15.3922 24 15.2309H0C0 15.3922 0.0186667 15.548 0.0453333 15.701ZM0 12.4617H24V13.8463H0V12.4617ZM0 9.69246V11.0771H24V9.69246H12H0ZM12 6.92323H24V8.30784H12V6.92323ZM12 4.154H24V5.53861H12V4.154ZM0.37 1.38477L0.368 1.38823L0.37 1.38477ZM0.0853333 2.10753C0.102 2.03692 0.125333 1.96977 0.146667 1.90192C0.123515 1.96956 0.103054 2.03815 0.0853333 2.10753ZM12 2.76938H24C24 2.60807 23.9813 2.45161 23.954 2.29861C23.9307 2.16299 23.8965 2.02962 23.852 1.89984C23.7942 1.7211 23.7199 1.5486 23.63 1.38477H12V2.76938Z" fill="#EEEEEE"></path><path d="M12 0H2.66667C1.95942 0 1.28115 0.291757 0.781049 0.811089C0.280952 1.33042 0 2.03479 0 2.76923L0 9.69231H12V0Z" fill="#3C3B6E"></path><path d="M1.33398 1.88738L1.74598 2.19823L1.58865 2.70015L1.99998 2.39L2.41198 2.70015L2.25465 2.19823L2.66665 1.88738H2.15732L1.99998 1.38477L1.84332 1.88738H1.33398ZM2.66732 3.272L3.07932 3.58284L2.92198 4.08477L3.33332 3.77461L3.74532 4.08477L3.58798 3.58284L3.99998 3.272H3.49065L3.33332 2.76938L3.17665 3.272H2.66732ZM5.33398 3.272L5.74599 3.58284L5.58865 4.08477L5.99998 3.77461L6.41198 4.08477L6.25465 3.58284L6.66665 3.272H6.15732L5.99998 2.76938L5.84332 3.272H5.33398ZM8.00065 3.272L8.41265 3.58284L8.25532 4.08477L8.66665 3.77461L9.07865 4.08477L8.92132 3.58284L9.33332 3.272H8.82399L8.66665 2.76938L8.50998 3.272H8.00065ZM2.66732 6.04123L3.07932 6.35207L2.92198 6.854L3.33332 6.54384L3.74532 6.854L3.58798 6.35207L3.99998 6.04123H3.49065L3.33332 5.53861L3.17665 6.04123H2.66732ZM5.33398 6.04123L5.74599 6.35207L5.58865 6.854L5.99998 6.54384L6.41198 6.854L6.25465 6.35207L6.66665 6.04123H6.15732L5.99998 5.53861L5.84332 6.04123H5.33398ZM8.00065 6.04123L8.41265 6.35207L8.25532 6.854L8.66665 6.54384L9.07865 6.854L8.92132 6.35207L9.33332 6.04123H8.82399L8.66665 5.53861L8.50998 6.04123H8.00065ZM4.00065 1.88738L4.41265 2.19823L4.25532 2.70015L4.66665 2.39L5.07865 2.70015L4.92132 2.19823L5.33332 1.88738H4.82398L4.66665 1.38477L4.50998 1.88738H4.00065ZM6.66732 1.88738L7.07932 2.19823L6.92198 2.70015L7.33332 2.39L7.74532 2.70015L7.58799 2.19823L7.99998 1.88738H7.49065L7.33332 1.38477L7.17665 1.88738H6.66732ZM9.33398 1.88738L9.74599 2.19823L9.58865 2.70015L9.99998 2.39L10.412 2.70015L10.2547 2.19823L10.6667 1.88738H10.1573L9.99998 1.38477L9.84332 1.88738H9.33398ZM1.33398 4.65661L1.74598 4.96746L1.58865 5.46938L1.99998 5.15923L2.41198 5.46938L2.25465 4.96746L2.66665 4.65661H2.15732L1.99998 4.154L1.84332 4.65661H1.33398ZM4.25532 5.46938L4.66665 5.15923L5.07865 5.46938L4.92132 4.96746L5.33332 4.65661H4.82398L4.66665 4.154L4.50998 4.65661H4.00065L4.41265 4.96746L4.25532 5.46938ZM6.66732 4.65661L7.07932 4.96746L6.92198 5.46938L7.33332 5.15923L7.74532 5.46938L7.58799 4.96746L7.99998 4.65661H7.49065L7.33332 4.154L7.17665 4.65661H6.66732ZM9.33398 4.65661L9.74599 4.96746L9.58865 5.46938L9.99998 5.15923L10.412 5.46938L10.2547 4.96746L10.6667 4.65661H10.1573L9.99998 4.154L9.84332 4.65661H9.33398ZM1.33398 7.42584L1.74598 7.73669L1.58865 8.23861L1.99998 7.92846L2.41198 8.23861L2.25465 7.73669L2.66665 7.42584H2.15732L1.99998 6.92323L1.84332 7.42584H1.33398ZM4.25532 8.23861L4.66665 7.92846L5.07865 8.23861L4.92132 7.73669L5.33332 7.42584H4.82398L4.66665 6.92323L4.50998 7.42584H4.00065L4.41265 7.73669L4.25532 8.23861ZM6.66732 7.42584L7.07932 7.73669L6.92198 8.23861L7.33332 7.92846L7.74532 8.23861L7.58799 7.73669L7.99998 7.42584H7.49065L7.33332 6.92323L7.17665 7.42584H6.66732ZM9.33398 7.42584L9.74599 7.73669L9.58865 8.23861L9.99998 7.92846L10.412 8.23861L10.2547 7.73669L10.6667 7.42584H10.1573L9.99998 6.92323L9.84332 7.42584H9.33398Z" fill="white"></path></svg>