<svg xmlns="http://www.w3.org/2000/svg" width="35" height="21" viewBox="0 0 35 21" fill="none"><g id="South Korea" clip-path="url(#clip0_9372_34675)"><g id="Clip path group"><mask id="mask0_9372_34675" style="mask-type:luminance" maskUnits="userSpaceOnUse" x="0" y="0" width="35" height="21"><g id="SVGID_00000029025529691911685840000013039894532322813354_"><path id="Vector" d="M34.3425 0.710938H0.780518V20.2889H34.3425V0.710938Z" fill="white"></path></g></mask><g mask="url(#mask0_9372_34675)"><path id="Vector_2" d="M34.3425 0.710938H0.780518V20.2889H34.3425V0.710938Z" fill="white"></path></g></g><g id="Clip path group_2"><mask id="mask1_9372_34675" style="mask-type:luminance" maskUnits="userSpaceOnUse" x="2" y="-5" width="39" height="36"><g id="SVGID_00000029025529691911685840000013039894532322813354__2"><path id="Vector_3" d="M30.0602 -4.66226L2.11646 13.9277L12.9607 30.2284L40.9044 11.6384L30.0602 -4.66226Z" fill="white"></path></g></mask><g mask="url(#mask1_9372_34675)"><path id="Vector_4" d="M22.9923 3.96166L22.3137 4.41309L23.5561 6.28059L24.2347 5.82916L22.9923 3.96166Z" fill="black"></path></g></g><g id="Clip path group_3"><mask id="mask2_9372_34675" style="mask-type:luminance" maskUnits="userSpaceOnUse" x="1" y="-4" width="39" height="36"><g id="SVGID_00000029025529691911685840000013039894532322813354__3"><path id="Vector_5" d="M29.0676 -3.49581L1.15747 15.1445L12.0311 31.4256L39.9413 12.7853L29.0676 -3.49581Z" fill="white"></path></g></mask><g mask="url(#mask2_9372_34675)"><path id="Vector_6" d="M24.4622 6.15868L23.7844 6.61133L25.0302 8.47662L25.7079 8.02396L24.4622 6.15868Z" fill="black"></path></g></g><g id="Clip path group_4"><mask id="mask3_9372_34675" style="mask-type:luminance" maskUnits="userSpaceOnUse" x="2" y="-4" width="39" height="36"><g id="SVGID_00000029025529691911685840000013039894532322813354__4"><path id="Vector_7" d="M30.1151 -3.63162L2.18481 14.9785L13.0408 31.2713L40.9711 12.6612L30.1151 -3.63162Z" fill="white"></path></g></mask><g mask="url(#mask3_9372_34675)"><path id="Vector_8" d="M24.0134 3.27245L23.3335 3.72546L26.0483 7.79991L26.7282 7.34689L24.0134 3.27245Z" fill="black"></path></g></g><g id="Clip path group_5"><mask id="mask4_9372_34675" style="mask-type:luminance" maskUnits="userSpaceOnUse" x="3" y="-4" width="39" height="36"><g id="SVGID_00000029025529691911685840000013039894532322813354__5"><path id="Vector_9" d="M31.1467 -3.79453L3.2063 14.7988L14.0525 31.0975L41.9929 12.5042L31.1467 -3.79453Z" fill="white"></path></g></mask><g mask="url(#mask4_9372_34675)"><path id="Vector_10" d="M25.0223 2.56942L24.343 3.02148L25.5873 4.89128L26.2666 4.43921L25.0223 2.56942Z" fill="black"></path></g></g><g id="Clip path group_6"><mask id="mask5_9372_34675" style="mask-type:luminance" maskUnits="userSpaceOnUse" x="0" y="0" width="35" height="21"><g id="SVGID_00000029025529691911685840000013039894532322813354__6"><path id="Vector_11" d="M34.3425 0.710938H0.780518V20.2889H34.3425V0.710938Z" fill="white"></path></g></mask><g mask="url(#mask5_9372_34675)"><path id="Vector_12" d="M26.4976 4.78894L27.7406 6.65594L27.0626 7.10895L25.8196 5.24194L26.4976 4.78894Z" fill="black"></path></g></g><g id="Clip path group_7"><mask id="mask6_9372_34675" style="mask-type:luminance" maskUnits="userSpaceOnUse" x="-6" y="-10" width="40" height="36"><g id="SVGID_00000029025529691911685840000013039894532322813354__7"><path id="Vector_13" d="M22.6207 -9.83254L-5.29956 8.79102L5.56427 25.078L33.4845 6.4544L22.6207 -9.83254Z" fill="white"></path></g></mask><g mask="url(#mask6_9372_34675)"><path id="Vector_14" d="M10.0941 12.514L9.41528 12.9668L12.1304 17.0373L12.8093 16.5845L10.0941 12.514Z" fill="black"></path></g></g><g id="Clip path group_8"><mask id="mask7_9372_34675" style="mask-type:luminance" maskUnits="userSpaceOnUse" x="-6" y="-11" width="40" height="36"><g id="SVGID_00000029025529691911685840000013039894532322813354__8"><path id="Vector_15" d="M22.5844 -10.8307L-5.34253 7.78613L5.51739 24.077L33.4443 5.46014L22.5844 -10.8307Z" fill="white"></path></g></mask><g mask="url(#mask7_9372_34675)"><path id="Vector_16" d="M9.09149 13.2374L8.41333 13.6895L9.65587 15.5534L10.334 15.1013L9.09149 13.2374Z" fill="black"></path></g></g><g id="Clip path group_9"><mask id="mask8_9372_34675" style="mask-type:luminance" maskUnits="userSpaceOnUse" x="-7" y="-10" width="40" height="36"><g id="SVGID_00000029025529691911685840000013039894532322813354__9"><path id="Vector_17" d="M21.6101 -9.64792L-6.3269 8.95215L4.52322 25.2489L32.4602 6.64881L21.6101 -9.64792Z" fill="white"></path></g></mask><g mask="url(#mask8_9372_34675)"><path id="Vector_18" d="M10.5516 15.4335L9.87231 15.8857L11.1154 17.7528L11.7946 17.3006L10.5516 15.4335Z" fill="black"></path></g></g><g id="Clip path group_10"><mask id="mask9_9372_34675" style="mask-type:luminance" maskUnits="userSpaceOnUse" x="-7" y="-11" width="40" height="36"><g id="SVGID_00000029025529691911685840000013039894532322813354__10"><path id="Vector_19" d="M21.5258 -10.7072L-6.40112 7.90625L4.45684 24.1971L32.3838 5.58361L21.5258 -10.7072Z" fill="white"></path></g></mask><g mask="url(#mask9_9372_34675)"><path id="Vector_20" d="M8.05132 13.8951L7.37231 14.3477L10.0854 18.4183L10.7644 17.9658L8.05132 13.8951Z" fill="black"></path></g></g><g id="Clip path group_11"><mask id="mask10_9372_34675" style="mask-type:luminance" maskUnits="userSpaceOnUse" x="0" y="-17" width="36" height="40"><g id="SVGID_00000029025529691911685840000013039894532322813354__11"><path id="Vector_21" d="M19.4336 -16.1881L0.823486 11.7422L17.1163 22.5982L35.7264 -5.33212L19.4336 -16.1881Z" fill="white"></path></g></mask><g mask="url(#mask10_9372_34675)"><path id="Vector_22" d="M12.1388 3.92549L9.42505 7.99829L10.1033 8.45021L12.817 4.37741L12.1388 3.92549Z" fill="black"></path></g></g><g id="Clip path group_12"><mask id="mask11_9372_34675" style="mask-type:luminance" maskUnits="userSpaceOnUse" x="0" y="-18" width="36" height="40"><g id="SVGID_00000029025529691911685840000013039894532322813354__12"><path id="Vector_23" d="M19.5449 -17.3356L0.934814 10.5947L17.2276 21.4507L35.8378 -6.47958L19.5449 -17.3356Z" fill="white"></path></g></mask><g mask="url(#mask11_9372_34675)"><path id="Vector_24" d="M11.1203 3.24684L8.40552 7.32129L9.0846 7.77377L11.7994 3.69932L11.1203 3.24684Z" fill="black"></path></g></g><g id="Clip path group_13"><mask id="mask12_9372_34675" style="mask-type:luminance" maskUnits="userSpaceOnUse" x="1" y="-19" width="35" height="40"><g id="SVGID_00000029025529691911685840000013039894532322813354__13"><path id="Vector_25" d="M19.6462 -18.4556L1.04614 9.48145L17.3429 20.3316L35.9429 -7.60544L19.6462 -18.4556Z" fill="white"></path></g></mask><g mask="url(#mask12_9372_34675)"><path id="Vector_26" d="M10.101 2.60079L7.38599 6.67871L8.06523 7.13094L10.7803 3.05303L10.101 2.60079Z" fill="black"></path></g></g><g id="Clip path group_14"><mask id="mask13_9372_34675" style="mask-type:luminance" maskUnits="userSpaceOnUse" x="-2" y="-2" width="36" height="40"><g id="SVGID_00000029025529691911685840000013039894532322813354__14"><path id="Vector_27" d="M16.8101 -1.74751L-1.8269 26.166L14.4561 37.0377L33.0931 9.12415L16.8101 -1.74751Z" fill="white"></path></g></mask><g mask="url(#mask13_9372_34675)"><path id="Vector_28" d="M23.5791 14.7347L22.3352 16.5977L23.013 17.0502L24.2569 15.1872L23.5791 14.7347Z" fill="black"></path></g></g><g id="Clip path group_15"><mask id="mask14_9372_34675" style="mask-type:luminance" maskUnits="userSpaceOnUse" x="0" y="-2" width="36" height="40"><g id="SVGID_00000029025529691911685840000013039894532322813354__15"><path id="Vector_29" d="M19.245 -1.47748L0.651611 26.4629L16.9503 37.3091L35.5437 9.36873L19.245 -1.47748Z" fill="white"></path></g></mask><g mask="url(#mask14_9372_34675)"><path id="Vector_30" d="M25.0209 12.5472L23.7766 14.417L24.4551 14.8685L25.6994 12.9987L25.0209 12.5472Z" fill="black"></path></g></g><g id="Clip path group_16"><mask id="mask15_9372_34675" style="mask-type:luminance" maskUnits="userSpaceOnUse" x="-2" y="-1" width="35" height="40"><g id="SVGID_00000029025529691911685840000013039894532322813354__16"><path id="Vector_31" d="M16.6641 -0.598275L-1.94604 27.332L14.3468 38.188L32.9569 10.2577L16.6641 -0.598275Z" fill="white"></path></g></mask><g mask="url(#mask15_9372_34675)"><path id="Vector_32" d="M24.5809 15.4058L23.3372 17.2725L24.0171 17.7255L25.2608 15.8589L24.5809 15.4058Z" fill="black"></path></g></g><g id="Clip path group_17"><mask id="mask16_9372_34675" style="mask-type:luminance" maskUnits="userSpaceOnUse" x="0" y="0" width="35" height="21"><g id="SVGID_00000029025529691911685840000013039894532322813354__17"><path id="Vector_33" d="M34.3425 0.710938H0.780518V20.2889H34.3425V0.710938Z" fill="white"></path></g></mask><g mask="url(#mask16_9372_34675)"><path id="Vector_34" d="M24.8 15.0779L26.045 13.2148L26.725 13.6678L25.48 15.5309L24.8 15.0779Z" fill="black"></path></g></g><g id="Clip path group_18"><mask id="mask17_9372_34675" style="mask-type:luminance" maskUnits="userSpaceOnUse" x="-3" y="0" width="36" height="40"><g id="SVGID_00000029025529691911685840000013039894532322813354__18"><path id="Vector_35" d="M16.5936 0.540453L-2.05347 28.4473L14.2256 39.3248L32.8727 11.418L16.5936 0.540453Z" fill="white"></path></g></mask><g mask="url(#mask17_9372_34675)"><path id="Vector_36" d="M25.6185 16.0861L24.3723 17.9512L25.0508 18.4045L26.297 16.5395L25.6185 16.0861Z" fill="black"></path></g></g><g id="Clip path group_19"><mask id="mask18_9372_34675" style="mask-type:luminance" maskUnits="userSpaceOnUse" x="0" y="0" width="36" height="40"><g id="SVGID_00000029025529691911685840000013039894532322813354__19"><path id="Vector_37" d="M19.0407 0.800285L0.440674 28.7373L16.7374 39.5874L35.3375 11.6504L19.0407 0.800285Z" fill="white"></path></g></mask><g mask="url(#mask18_9372_34675)"><path id="Vector_38" d="M27.0699 13.8847L25.8274 15.751L26.505 16.2021L27.7475 14.3358L27.0699 13.8847Z" fill="black"></path></g></g><g id="Clip path group_20"><mask id="mask19_9372_34675" style="mask-type:luminance" maskUnits="userSpaceOnUse" x="0" y="0" width="35" height="21"><g id="SVGID_00000029025529691911685840000013039894532322813354__20"><path id="Vector_39" d="M34.3425 0.710938H0.780518V20.2889H34.3425V0.710938Z" fill="white"></path></g></mask><g mask="url(#mask19_9372_34675)"><g id="Group"><g id="Clip path group_21"><mask id="mask20_9372_34675" style="mask-type:luminance" maskUnits="userSpaceOnUse" x="0" y="0" width="35" height="21"><g id="SVGID_00000113336398734657112750000005588947434704064420_"><path id="Vector_40" d="M34.3425 0.710938H0.780518V20.2889H34.3425V0.710938Z" fill="white"></path></g></mask><g mask="url(#mask20_9372_34675)"><path id="Vector_41" d="M13.4888 7.78516C13.4698 7.80816 13.4528 7.83616 13.4368 7.86716C13.4548 7.83616 13.4698 7.80816 13.4888 7.78516Z" fill="#B50037"></path></g></g><g id="Clip path group_22"><mask id="mask21_9372_34675" style="mask-type:luminance" maskUnits="userSpaceOnUse" x="0" y="0" width="35" height="21"><g id="SVGID_00000113336398734657112750000005588947434704064420__2"><path id="Vector_42" d="M34.3425 0.710938H0.780518V20.2889H34.3425V0.710938Z" fill="white"></path></g></mask><g mask="url(#mask21_9372_34675)"><path id="Vector_43" d="M20.2775 6.426C18.0275 4.926 14.9885 5.539 13.4895 7.785C12.7375 8.906 13.0434 10.43 14.1684 11.18C15.2924 11.93 16.8115 11.625 17.5615 10.5C18.3115 9.375 19.8315 9.07401 20.9555 9.82001C22.0815 10.57 22.3844 12.093 21.6334 13.215C23.1314 10.965 22.5255 7.926 20.2775 6.426Z" fill="#B50037"></path></g></g><g id="Clip path group_23"><mask id="mask22_9372_34675" style="mask-type:luminance" maskUnits="userSpaceOnUse" x="0" y="0" width="35" height="21"><g id="SVGID_00000113336398734657112750000005588947434704064420__3"><path id="Vector_44" d="M34.3425 0.710938H0.780518V20.2889H34.3425V0.710938Z" fill="white"></path></g></mask><g mask="url(#mask22_9372_34675)"><path id="Vector_45" d="M13.4901 7.78516C12.7381 8.90616 13.0441 10.4301 14.1691 11.1801C15.2931 11.9301 16.8121 11.6252 17.5621 10.5002C18.3121 9.37515 19.8321 9.07416 20.9561 9.82016C22.0821 10.5702 22.3851 12.0931 21.6341 13.2151C20.1361 15.4691 17.0981 16.0742 14.8481 14.5742C12.5981 13.0742 11.9901 10.0352 13.4901 7.78516Z" fill="#1E3476"></path></g></g></g></g></g></g><defs><clipPath id="clip0_9372_34675"><rect width="33.562" height="19.578" fill="white" transform="translate(0.780518 0.710938)"></rect></clipPath></defs></svg>