<svg xmlns="http://www.w3.org/2000/svg" width="35" height="21" viewBox="0 0 35 21" fill="none"><g id="JAPAN_2_"><g id="Group"><g id="Group_2"><g id="Clip path group"><mask id="mask0_9372_34658" style="mask-type:luminance" maskUnits="userSpaceOnUse" x="0" y="0" width="35" height="21"><g id="SVGID_00000129174320368788197030000007422178013723194762_"><path id="Vector" d="M34.3435 0.710938H0.780518V20.2889H34.3435V0.710938Z" fill="white"></path></g></mask><g mask="url(#mask0_9372_34658)"><path id="Vector_2" d="M34.3435 0.710938H0.780518V20.2889H34.3435V0.710938Z" fill="white"></path></g></g><g id="Clip path group_2"><mask id="mask1_9372_34658" style="mask-type:luminance" maskUnits="userSpaceOnUse" x="0" y="0" width="35" height="21"><g id="SVGID_00000129174320368788197030000007422178013723194762__2"><path id="Vector_3" d="M34.3435 0.710938H0.780518V20.2889H34.3435V0.710938Z" fill="white"></path></g></mask><g mask="url(#mask1_9372_34658)"><g id="Group_3"><g id="Clip path group_3"><mask id="mask2_9372_34658" style="mask-type:luminance" maskUnits="userSpaceOnUse" x="0" y="0" width="35" height="21"><g id="SVGID_00000065772342218867906380000011210474298428502965_"><path id="Vector_4" d="M34.3435 0.710938H0.780518V20.2889H34.3435V0.710938Z" fill="white"></path></g></mask><g mask="url(#mask2_9372_34658)"><path id="Vector_5" d="M17.5635 4.62891C20.8075 4.62891 23.4344 7.25791 23.4344 10.4999C23.4344 13.7419 20.8075 16.3789 17.5635 16.3789C14.3195 16.3789 11.6885 13.7419 11.6885 10.4999C11.6885 7.25791 14.3195 4.62891 17.5635 4.62891Z" fill="#AD0018"></path></g></g></g></g></g></g></g></g></svg>