<svg xmlns="http://www.w3.org/2000/svg" width="26" height="34" viewBox="0 0 26 34" fill="none"><path d="M23.519 10.6885C23.5073 10.5837 23.4663 10.4845 23.4009 10.4024C23.3355 10.3204 23.2483 10.2589 23.1496 10.2253C23.0509 10.1916 22.9448 10.1872 22.8437 10.2125C22.7426 10.2378 22.6507 10.2918 22.5789 10.3681C22.287 10.6808 21.9091 10.8974 21.4942 10.9899C21.0793 11.0824 20.6465 11.0465 20.252 10.8869C19.8574 10.7273 19.5194 10.4513 19.2815 10.0948C19.0437 9.73822 18.9171 9.31752 18.9182 8.88723C18.9178 8.76191 18.8761 8.64032 18.7996 8.54181C18.7231 8.44331 18.6163 8.37356 18.4961 8.34367C18.1629 8.25576 17.8654 8.06408 17.6456 7.79569C17.4258 7.52731 17.2948 7.19576 17.271 6.84788C17.2616 6.71436 17.2047 6.58883 17.1108 6.49454C17.017 6.40025 16.8927 6.3436 16.7608 6.33506C16.4443 6.30988 16.1418 6.19259 15.8897 5.9973C15.6376 5.80201 15.4466 5.53706 15.3397 5.23436C15.2328 4.93165 15.2145 4.6041 15.2872 4.29114C15.3598 3.97819 15.5203 3.69318 15.7492 3.47045C16.1979 3.02013 16.7006 2.62858 17.2455 2.30496C17.3295 2.25449 17.3986 2.18219 17.4457 2.09555C17.4928 2.00892 17.5162 1.9111 17.5134 1.81224C17.5106 1.71338 17.4817 1.61708 17.4298 1.53332C17.3779 1.44956 17.3048 1.38139 17.2181 1.33587C14.7939 0.0657561 12.0098 -0.313711 9.34031 0.262121C6.6708 0.837953 4.28099 2.33346 2.57805 4.49384C0.875107 6.65422 -0.0356078 9.34581 0.00106586 12.11C0.0377395 14.8743 1.01953 17.5401 2.77917 19.6533L9.82237 28.1103C10.0642 28.4005 10.3657 28.6338 10.7058 28.7938C11.0459 28.9538 11.4163 29.0367 11.7913 29.0367C12.1662 29.0367 12.5367 28.9538 12.8768 28.7938C13.2168 28.6338 13.5183 28.4005 13.7602 28.1103L20.8034 19.6533C21.8306 18.4225 22.6007 16.9935 23.0672 15.4526C23.5336 13.9117 23.6866 12.291 23.517 10.6885H23.519ZM11.7918 17.4424C10.7132 17.4428 9.65878 17.1192 8.76182 16.5126C7.86485 15.906 7.16565 15.0435 6.75264 14.0344C6.33963 13.0252 6.23136 11.9147 6.44154 10.8432C6.65172 9.77176 7.17089 8.78748 7.9334 8.01489C8.69591 7.2423 9.6675 6.71609 10.7253 6.50283C11.7831 6.28956 12.8796 6.39882 13.876 6.81678C14.8725 7.23474 15.7243 7.94262 16.3235 8.8509C16.9228 9.75919 17.2426 10.8271 17.2426 11.9195C17.2413 13.3835 16.6667 14.7872 15.6448 15.8226C14.6229 16.858 13.2372 17.4406 11.7918 17.4424ZM23.5513 28.5021C23.5513 32.9171 10.8134 34.6727 3.66349 31.9936C-1.43675 30.0832 -1.35841 26.3179 5.02865 24.5712C5.12912 24.544 5.23516 24.5463 5.33437 24.578C5.43357 24.6096 5.52183 24.6692 5.58881 24.7497L8.98604 28.8285C9.33068 29.2419 9.76025 29.5742 10.2448 29.8021C10.7293 30.03 11.2571 30.1481 11.7913 30.1481C12.3255 30.1481 12.8533 30.03 13.3378 29.8021C13.8223 29.5742 14.2519 29.2419 14.5965 28.8285L17.9918 24.7517C18.0588 24.6712 18.147 24.6116 18.2462 24.5799C18.3454 24.5483 18.4515 24.546 18.5519 24.5732C21.6877 25.4302 23.5513 26.8585 23.5513 28.4991V28.5021ZM21.7621 9.62521C21.6187 9.7704 21.436 9.86927 21.2371 9.9093C21.0382 9.94934 20.8321 9.92875 20.6448 9.85013C20.4574 9.77151 20.2973 9.6384 20.1847 9.46763C20.072 9.29685 20.0119 9.09608 20.0119 8.8907C20.0119 8.68532 20.072 8.48455 20.1847 8.31378C20.2973 8.143 20.4574 8.00989 20.6448 7.93127C20.8321 7.85266 21.0382 7.83207 21.2371 7.8721C21.436 7.91214 21.6187 8.011 21.7621 8.1562C21.8574 8.25264 21.9329 8.36714 21.9845 8.49317C22.0361 8.6192 22.0626 8.75428 22.0626 8.8907C22.0626 9.02712 22.0361 9.1622 21.9845 9.28823C21.9329 9.41426 21.8574 9.52876 21.7621 9.62521ZM22.7777 7.1266C22.5492 6.89486 22.2778 6.71101 21.9791 6.58557C21.6805 6.46014 21.3603 6.39557 21.0369 6.39557C20.7136 6.39557 20.3934 6.46014 20.0947 6.58557C19.796 6.71101 19.5247 6.89486 19.2962 7.1266C19.1924 7.22423 19.0552 7.27728 18.9136 7.27462C18.772 7.27195 18.6368 7.21377 18.5367 7.11231C18.4365 7.01085 18.3791 6.874 18.3764 6.73054C18.3738 6.58707 18.4262 6.44816 18.5226 6.343C18.8526 6.00821 19.2445 5.7426 19.6759 5.56138C20.1074 5.38016 20.5699 5.28688 21.0369 5.28688C21.504 5.28688 21.9665 5.38016 22.3979 5.56138C22.8294 5.7426 23.2213 6.00821 23.5513 6.343C23.6053 6.39372 23.6485 6.45493 23.6786 6.52299C23.7086 6.59104 23.7248 6.66453 23.7262 6.73906C23.7276 6.8136 23.7141 6.88765 23.6865 6.95678C23.659 7.02592 23.618 7.08872 23.566 7.14143C23.5139 7.19415 23.4519 7.23569 23.3836 7.26358C23.3154 7.29146 23.2423 7.30512 23.1687 7.30374C23.0951 7.30235 23.0225 7.28595 22.9554 7.25552C22.8882 7.22508 22.8277 7.18124 22.7777 7.1266ZM24.8078 5.06939C24.3127 4.5677 23.725 4.16971 23.0781 3.89817C22.4311 3.62664 21.7377 3.48688 21.0374 3.48688C20.3371 3.48688 19.6437 3.62664 18.9968 3.89817C18.3499 4.16971 17.7621 4.5677 17.2671 5.06939C17.217 5.12403 17.1566 5.16788 17.0894 5.19831C17.0222 5.22875 16.9496 5.24515 16.876 5.24653C16.8025 5.24792 16.7293 5.23426 16.6611 5.20637C16.5928 5.17848 16.5308 5.13694 16.4788 5.08423C16.4267 5.03151 16.3857 4.96871 16.3582 4.89957C16.3307 4.83044 16.3172 4.75639 16.3185 4.68186C16.3199 4.60732 16.3361 4.53383 16.3661 4.46578C16.3962 4.39773 16.4395 4.33651 16.4934 4.28579C17.09 3.6806 17.7986 3.20047 18.5785 2.87289C19.3585 2.54531 20.1945 2.3767 21.0389 2.3767C21.8832 2.3767 22.7193 2.54531 23.4993 2.87289C24.2792 3.20047 24.9878 3.6806 25.5844 4.28579C25.6807 4.39095 25.7331 4.52986 25.7305 4.67333C25.7279 4.81679 25.6704 4.95364 25.5703 5.0551C25.4701 5.15657 25.335 5.21474 25.1933 5.21741C25.0517 5.22007 24.9145 5.16702 24.8107 5.06939H24.8078Z" fill="#59A52C"></path></svg>