<svg xmlns="http://www.w3.org/2000/svg" width="25" height="27" viewBox="0 0 25 27" fill="none"><path d="M17.0364 17.6085C18.2147 15.8649 18.9526 13.8266 19.1791 11.69L12.5895 9.68945L6 11.69C6.22643 13.8266 6.96437 15.8649 8.14272 17.6085C9.29135 19.3163 10.8194 20.6925 12.5895 21.6134C14.3597 20.6925 15.8877 19.3163 17.0364 17.6085Z" fill="#59A52C"></path><path d="M12.5895 8.00927L19.1791 9.68941V6.97653L12.5895 5.29639L6 6.97653V9.68941L12.5895 8.00927Z" fill="#59A52C"></path><path d="M13.5273 0.275635V3.55272L21.1628 5.80571V10.4234C21.1699 13.4058 20.2684 16.3143 18.5872 18.7331C17.2764 20.6265 15.5393 22.1586 13.5273 23.1958V26.6338C16.6709 25.3599 19.3709 23.1312 21.2744 20.239C23.1779 17.3469 24.1962 13.9259 24.1961 10.4234V3.42238L13.5273 0.275635Z" fill="#4FA83D"></path><path d="M11.6453 23.1956C9.63338 22.1584 7.89631 20.6262 6.58544 18.7326C4.90425 16.3137 4.0028 13.4051 4.00992 10.4225V5.80453L11.6453 3.5529V0.275635L0.976563 3.42479V10.4225C0.976536 13.9252 1.99483 17.3464 3.89829 20.2387C5.80175 23.131 8.50178 25.3599 11.6453 26.6338V23.1956Z" fill="#4FA83D"></path></svg>