<svg xmlns="http://www.w3.org/2000/svg" width="30" height="33" viewBox="0 0 30 33" fill="none"><path d="M24.0641 11.4574V8.61532C23.992 6.26504 22.9916 4.03908 21.2817 2.42492C19.5719 0.810756 17.2921 -0.0600429 14.9416 0.0032211C12.5913 -0.0596069 10.3119 0.811387 8.60243 2.4255C6.89296 4.03962 5.89271 6.26533 5.82068 8.61532V11.4558C4.37787 11.8891 3.11274 12.7751 2.21227 13.9828C1.3118 15.1905 0.823771 16.6559 0.820312 18.1624L0.820313 25.9092C0.82589 27.7702 1.5694 29.5529 2.88775 30.8664C4.20609 32.1799 5.9916 32.9168 7.85258 32.9155H22.0289C23.8899 32.9168 25.6754 32.1799 26.9938 30.8664C28.3121 29.5529 29.0556 27.7702 29.0612 25.9092V18.1624C29.0573 16.6566 28.5695 15.1921 27.6697 13.9848C26.77 12.7775 25.5059 11.8914 24.0641 11.4574ZM14.9416 24.6162C14.4896 24.6136 14.0486 24.4772 13.674 24.2243C13.2995 23.9713 13.0083 23.6131 12.8371 23.1949C12.6659 22.7766 12.6224 22.317 12.7122 21.874C12.8019 21.431 13.0208 21.0246 13.3413 20.7059C13.6618 20.3872 14.0695 20.1706 14.5129 20.0834C14.9564 19.9962 15.4157 20.0422 15.833 20.2158C16.2504 20.3893 16.6069 20.6825 16.8577 21.0585C17.1086 21.4345 17.2424 21.8763 17.2424 22.3282C17.2416 22.6296 17.1814 22.9277 17.0653 23.2058C16.9492 23.4838 16.7795 23.7363 16.5659 23.9487C16.3522 24.1612 16.0988 24.3295 15.8201 24.444C15.5414 24.5585 15.2429 24.617 14.9416 24.6162ZM14.9416 4.8934C15.996 4.83114 17.0324 5.18776 17.8253 5.88567C18.6182 6.58359 19.1035 7.56635 19.1755 8.62018V11.156H10.7044V8.6137C10.7776 7.56027 11.2639 6.57839 12.0575 5.88167C12.851 5.18495 13.8875 4.82977 14.9416 4.8934Z" fill="#4FA83D"></path></svg>