<?xml version="1.0" encoding="UTF-8"?>
<svg xmlns="http://www.w3.org/2000/svg" width="32" height="32" viewBox="0 0 32 32" fill="none">
  <path d="M7.68333 13.9064C7.81514 13.9064 7.96217 13.9266 8.1244 13.9672C8.28663 14.0078 8.44886 14.0635 8.61109 14.1345C8.77332 14.2055 8.93555 14.2714 9.09778 14.3322C9.26001 14.393 9.40703 14.4539 9.53884 14.5147L9.2955 14.5451C9.21438 14.5553 9.1282 14.5603 9.03694 14.5603C8.86457 14.5603 8.70741 14.535 8.56546 14.4843C8.42351 14.4336 8.2917 14.3677 8.17002 14.2866C8.04835 14.2055 7.92668 14.1446 7.80501 14.1041C7.68333 14.0635 7.5718 14.0331 7.4704 14.0128C7.36901 14.0128 7.27776 14.0331 7.19664 14.0737C7.11553 14.1142 7.03441 14.1598 6.95329 14.2105C6.95329 14.17 6.91781 14.1497 6.84683 14.1497C6.91781 14.0787 7.04962 14.023 7.24227 13.9824C7.43492 13.9418 7.58194 13.9165 7.68333 13.9064ZM9.73656 14.5908C10.1523 14.5908 10.5325 14.6617 10.8772 14.8037C10.7353 14.8544 10.5933 14.8949 10.4514 14.9254C10.3094 14.9558 10.1624 14.9761 10.0103 14.9862C9.80754 14.9862 9.62503 14.9659 9.4628 14.9254C9.5135 14.8443 9.56419 14.7936 9.61489 14.7733C9.66559 14.753 9.70614 14.6922 9.73656 14.5908ZM15.7137 0.476708C17.1434 0.476708 18.5173 0.664287 19.8354 1.03945C21.1535 1.4146 22.3905 1.93678 23.5464 2.60598C24.7023 3.27519 25.7568 4.09141 26.7099 5.05465C27.663 6.0179 28.4742 7.06732 29.1434 8.20294C29.8126 9.33855 30.3398 10.5756 30.7251 11.914C31.1104 13.2524 31.298 14.6313 31.2879 16.0508C31.2879 17.4805 31.1003 18.8544 30.7251 20.1725C30.35 21.4906 29.8278 22.7276 29.1586 23.8835C28.4894 25.0394 27.6732 26.0939 26.7099 27.047C25.7467 28.0001 24.6973 28.8113 23.5616 29.4805C22.426 30.1497 21.189 30.6769 19.8506 31.0622C18.5122 31.4475 17.1333 31.6351 15.7137 31.625C14.2841 31.625 12.9102 31.4374 11.5921 31.0622C10.274 30.6871 9.03694 30.1649 7.88105 29.4957C6.72516 28.8265 5.67066 28.0103 4.71755 27.047C3.76445 26.0838 2.9533 25.0344 2.2841 23.8987C1.6149 22.7631 1.08765 21.5261 0.702348 20.1877C0.317051 18.8493 0.129472 17.4704 0.139611 16.0508C0.139611 14.6212 0.32719 13.2473 0.702348 11.9292C1.07751 10.611 1.59969 9.37404 2.26889 8.21815C2.93809 7.06225 3.75431 6.00776 4.71755 5.05465C5.6808 4.10155 6.73023 3.29039 7.86584 2.62119C9.00146 1.95199 10.2385 1.42474 11.5769 1.03945C12.9153 0.654148 14.2942 0.466569 15.7137 0.476708ZM27.3031 8.91777C27.1611 8.6947 27.0192 8.48177 26.8772 8.27898C26.7353 8.0762 26.5883 7.86834 26.4362 7.65541C26.4159 7.74667 26.3905 7.81257 26.3601 7.85313C26.3297 7.89369 26.3094 7.98494 26.2993 8.12689C26.2993 8.21815 26.3348 8.30433 26.4058 8.38545C26.4767 8.46656 26.568 8.54768 26.6795 8.62879C26.7911 8.70991 26.9026 8.77075 27.0141 8.8113C27.1257 8.85186 27.222 8.88735 27.3031 8.91777ZM26.2537 7.42727C26.2537 7.50839 26.2385 7.56416 26.208 7.59457H26.2993C26.3398 7.59457 26.3703 7.59964 26.3905 7.60978L26.2537 7.42727ZM15.7137 29.6782C16.8696 29.6782 18.0002 29.5312 19.1054 29.2371C20.2106 28.9431 21.2549 28.5274 22.2385 27.99C23.222 27.4526 24.1345 26.7935 24.9761 26.0128C25.8177 25.2321 26.5528 24.3601 27.1814 23.3968C27.0496 23.0927 26.9229 22.7834 26.8012 22.4691C26.6795 22.1548 26.6187 21.8303 26.6187 21.4957C26.6187 21.1307 26.6339 20.8366 26.6643 20.6136C26.6947 20.3905 26.7302 20.1928 26.7708 20.0204C26.8113 19.8481 26.8316 19.701 26.8316 19.5794C26.8316 19.4577 26.8164 19.3005 26.786 19.1079C26.7556 18.9152 26.6694 18.7074 26.5274 18.4843C26.3855 18.2612 26.1979 17.9469 25.9647 17.5413C25.9748 17.4704 25.99 17.374 26.0103 17.2524C26.0306 17.1307 26.0509 17.0039 26.0712 16.8721C26.0914 16.7403 26.0965 16.6187 26.0864 16.5071C26.0762 16.3956 26.0509 16.2993 26.0103 16.2181C25.7467 16.1877 25.4729 16.132 25.189 16.0508C24.9051 15.9697 24.6516 15.8481 24.4286 15.6858L24.5198 15.6098C24.388 15.6402 24.2562 15.6808 24.1244 15.7315C23.9926 15.7821 23.8658 15.8379 23.7442 15.8988C23.6225 15.9596 23.4907 16.0001 23.3487 16.0204C23.2068 16.0407 23.0699 16.061 22.9381 16.0813L22.6947 16.0508L22.7404 15.9444C22.5984 15.9849 22.4463 16.0356 22.2841 16.0965C22.1219 16.1573 21.9647 16.1877 21.8126 16.1877C21.7112 16.1877 21.5642 16.1522 21.3715 16.0813C21.1789 16.0103 20.9862 15.9241 20.7936 15.8227C20.6009 15.7213 20.4286 15.6098 20.2765 15.4881C20.1244 15.3664 20.0483 15.2498 20.0483 15.1383L20.0788 15.0927C20.0281 15.0318 19.9622 14.9761 19.881 14.9254C19.7999 14.8747 19.7239 14.824 19.6529 14.7733C19.5819 14.7226 19.516 14.6668 19.4552 14.606C19.3944 14.5451 19.369 14.4742 19.3791 14.393L19.5464 14.2562L19.1966 14.2105L19.075 13.7543C19.0952 13.805 19.1409 13.8252 19.2118 13.8151C19.2828 13.805 19.3386 13.7847 19.3791 13.7543L18.8316 13.4653L19.2118 12.4919C19.0699 11.9647 19.0344 11.5591 19.1054 11.2752C19.1764 10.9913 19.3132 10.7581 19.516 10.5756C19.7188 10.3931 19.9419 10.2105 20.1852 10.028C20.4286 9.84552 20.677 9.59711 20.9305 9.28279L20.8848 9.10028L21.8886 7.88355L22.1168 7.85313C22.4007 7.85313 22.7201 7.84299 23.075 7.82271C23.4298 7.80243 23.7898 7.76694 24.1548 7.71625C24.5198 7.66555 24.8798 7.61485 25.2347 7.56416C25.5895 7.51346 25.914 7.44755 26.208 7.36644C25.8836 6.98114 25.5439 6.61612 25.189 6.27138C24.8341 5.92664 24.4539 5.59711 24.0483 5.28279C23.9368 5.32335 23.7999 5.37911 23.6377 5.45009C23.4755 5.52106 23.3132 5.61232 23.151 5.72385C22.9888 5.83539 22.862 5.95706 22.7708 6.08887C22.6795 6.22068 22.6238 6.35757 22.6035 6.49952L22.6947 6.78849C22.5122 7.08253 22.3094 7.26504 22.0864 7.33602C21.8633 7.40699 21.6352 7.44755 21.402 7.45769C21.1687 7.46783 20.9254 7.46783 20.6719 7.45769C20.4184 7.44755 20.1751 7.49318 19.9419 7.59457L19.6985 7.07746L19.9267 6.19534L19.6681 5.81511L22.2993 4.99382C22.1878 4.70991 22.0052 4.49698 21.7518 4.35503C21.4983 4.21308 21.2194 4.1421 20.9153 4.1421V3.99001L21.767 3.85313C20.824 3.38672 19.8456 3.03184 18.8316 2.78849C17.8177 2.54515 16.7784 2.42348 15.7137 2.42348C14.8316 2.42348 13.9596 2.50966 13.0978 2.68203C12.2359 2.8544 11.4045 3.10282 10.6035 3.42728C9.80247 3.75174 9.0268 4.15731 8.27649 4.64401C7.52617 5.1307 6.84176 5.67823 6.22326 6.28659C6.48688 6.28659 6.68967 6.3525 6.83162 6.48431C6.97357 6.61612 7.10539 6.76314 7.22706 6.92537C7.34873 7.0876 7.47547 7.23462 7.60729 7.36644C7.7391 7.49825 7.91654 7.56923 8.13961 7.57936L8.38295 7.39686L8.35253 7.06225L8.85443 6.34743L8.459 5.22195C8.50969 5.19153 8.58574 5.14084 8.68713 5.06986C8.78853 4.99889 8.87471 4.9634 8.94569 4.9634C9.24987 4.9634 9.48308 4.97861 9.64531 5.00902C9.80754 5.03944 9.94949 5.09521 10.0712 5.17632C10.1928 5.25744 10.2993 5.37404 10.3906 5.52613C10.4818 5.67823 10.6238 5.87087 10.8164 6.10408L11.3639 5.67823C11.4653 5.71878 11.6276 5.78469 11.8506 5.87594C12.0737 5.9672 12.3018 6.07873 12.535 6.21054C12.7682 6.34236 12.966 6.47924 13.1282 6.62119C13.2904 6.76314 13.3766 6.89495 13.3868 7.01663C13.3868 7.16872 13.331 7.29039 13.2194 7.38165C13.1079 7.4729 12.9609 7.54895 12.7784 7.60978C12.5959 7.67062 12.4083 7.71625 12.2156 7.74667C12.023 7.77708 11.8304 7.81764 11.6377 7.86834C11.4451 7.91903 11.298 7.96973 11.1966 8.02043C11.0952 8.07113 11.0344 8.15731 11.0141 8.27898L11.8963 8.56796C11.6935 8.74033 11.4755 8.89749 11.2423 9.03944C11.0091 9.18139 10.7657 9.3132 10.5122 9.43488L10.5731 9.69343L9.17383 10.241V10.6668L9.06736 10.7124L9.14341 10.1801L9.08257 10.1649C9.01159 10.1649 8.97104 10.1801 8.9609 10.2105C8.95076 10.241 8.94569 10.2764 8.94569 10.317C8.94569 10.3576 8.95583 10.3981 8.97611 10.4387C8.99639 10.4792 9.00146 10.5097 8.99132 10.5299L8.7936 10.4235L8.82402 10.4843C8.82402 10.5147 8.83922 10.5604 8.86964 10.6212C8.90006 10.682 8.94062 10.7378 8.99132 10.7885C9.04201 10.8392 9.08257 10.8899 9.11299 10.9406C9.14341 10.9913 9.16369 11.0166 9.17383 11.0166C9.17383 11.047 9.15355 11.0775 9.11299 11.1079C9.07243 11.1383 9.02173 11.1586 8.9609 11.1687C8.90006 11.1789 8.8595 11.1941 8.83922 11.2143C8.81895 11.2346 8.81895 11.2397 8.83922 11.2296C8.98118 11.2296 9.0116 11.2397 8.93048 11.26C8.84936 11.2802 8.72262 11.3309 8.55025 11.4121C8.37788 11.4932 8.22072 11.6098 8.07877 11.7619C7.93682 11.914 7.8557 12.137 7.83542 12.4311C7.83542 12.6034 7.84049 12.7707 7.85063 12.933C7.86077 13.0952 7.8557 13.2625 7.83542 13.4349C7.69347 13.0496 7.48054 12.7555 7.19664 12.5527C6.91274 12.35 6.568 12.2486 6.16242 12.2486L5.50843 12.3094L5.82782 12.5223C5.65545 12.502 5.47801 12.4818 5.2955 12.4615C5.11299 12.4412 4.92541 12.4361 4.73276 12.4463C4.54011 12.4564 4.36774 12.497 4.21565 12.568C4.06356 12.6389 3.91147 12.7454 3.75938 12.8873L3.66813 13.5718C3.66813 13.8962 3.7391 14.1598 3.88105 14.3626C4.02301 14.5654 4.27142 14.6719 4.6263 14.682C4.93048 14.682 5.22959 14.6364 5.52364 14.5451C5.81768 14.4539 6.10665 14.3474 6.39056 14.2257C6.2993 14.4488 6.19791 14.6617 6.08638 14.8645C5.97484 15.0673 5.89373 15.2904 5.84303 15.5337L6.04075 15.625C6.28409 15.4628 6.50716 15.4374 6.70995 15.5489C6.91274 15.6605 7.11046 15.8227 7.3031 16.0356C7.49575 16.2486 7.69347 16.4666 7.89626 16.6896C8.09905 16.9127 8.31705 17.0749 8.55025 17.1763L8.03314 17.4501L6.81641 16.7657C6.82655 16.7859 6.83669 16.8316 6.84683 16.9026C6.85697 16.9735 6.8519 16.9887 6.83162 16.9482L6.28409 16.0204C5.95963 16.0103 5.61489 15.9596 5.24987 15.8683C4.88485 15.7771 4.51477 15.6554 4.13961 15.5033C3.76445 15.3512 3.41464 15.1839 3.09018 15.0014C2.76572 14.8189 2.46661 14.6263 2.19284 14.4235L2.08638 16.0508C2.08638 17.2878 2.25368 18.4944 2.58828 19.6706C2.92288 20.8468 3.39436 21.952 4.00273 22.9862C4.61109 24.0204 5.35634 24.9634 6.23847 25.8151C7.12059 26.6668 8.09905 27.3918 9.17383 27.99C9.12313 27.7771 9.11806 27.5641 9.15862 27.3512C9.19917 27.1383 9.24987 26.9254 9.31071 26.7124C9.37154 26.4995 9.43745 26.2866 9.50843 26.0736C9.5794 25.8607 9.61489 25.6427 9.61489 25.4197C9.61489 25.0952 9.56419 24.7555 9.4628 24.4006C9.36141 24.0458 9.23973 23.6858 9.09778 23.3208C8.95583 22.9558 8.79867 22.5958 8.6263 22.241C8.45393 21.8861 8.31705 21.5515 8.21565 21.2372C8.11426 20.9228 8.03314 20.6288 7.97231 20.355C7.91147 20.0813 7.94189 19.843 8.06356 19.6402L7.83542 19.5337C7.89626 19.3918 7.97738 19.2549 8.07877 19.1231C8.18016 18.9913 8.28663 18.8595 8.39816 18.7276C8.50969 18.5958 8.59588 18.4539 8.65672 18.3018C8.71755 18.1497 8.75304 17.9976 8.76318 17.8455C8.76318 17.7441 8.7429 17.6377 8.70234 17.5261C8.66179 17.4146 8.6263 17.3081 8.59588 17.2067L8.91527 17.2828C9.08764 16.8873 9.32085 16.6187 9.61489 16.4767C9.90893 16.3347 10.279 16.2587 10.7252 16.2486C10.7759 16.2486 10.8823 16.2688 11.0445 16.3094C11.2068 16.35 11.3791 16.4057 11.5617 16.4767C11.7442 16.5477 11.9165 16.6034 12.0788 16.644C12.241 16.6846 12.3627 16.7251 12.4438 16.7657C12.4438 16.8366 12.4843 16.8823 12.5655 16.9026C12.6466 16.9228 12.6922 16.9583 12.7023 17.009L12.6719 17.1307C12.7023 17.1408 12.7733 17.1763 12.8848 17.2372C12.9964 17.298 13.1181 17.374 13.2499 17.4653C13.3817 17.5565 13.4983 17.6377 13.5997 17.7086C13.7011 17.7796 13.772 17.8354 13.8126 17.8759C13.9951 17.8759 14.2435 17.9368 14.5579 18.0584C14.8722 18.1801 15.2169 18.3322 15.5921 18.5147C15.9672 18.6972 16.3373 18.9152 16.7023 19.1687C17.0674 19.4222 17.4121 19.6757 17.7366 19.9292C18.061 20.1827 18.3094 20.4361 18.4818 20.6896C18.6542 20.9431 18.7556 21.1662 18.786 21.3588L18.2689 21.9064C18.3094 22.4235 18.2739 22.8189 18.1624 23.0927C18.0509 23.3664 17.8785 23.5946 17.6453 23.7771C17.4121 23.9596 17.1434 24.1117 16.8392 24.2333C16.535 24.355 16.2055 24.5274 15.8506 24.7505C15.8506 24.9532 15.7999 25.1712 15.6985 25.4044C15.5971 25.6377 15.4704 25.8607 15.3183 26.0736C15.1662 26.2866 14.9837 26.464 14.7708 26.606C14.5579 26.7479 14.3449 26.8189 14.132 26.8189L13.4932 26.3322C13.5135 26.3525 13.5135 26.388 13.4932 26.4387C13.4729 26.4894 13.4476 26.4995 13.4172 26.4691C13.5186 26.6617 13.5439 26.8848 13.4932 27.1383C13.4425 27.3918 13.3563 27.6503 13.2347 27.914C13.113 28.1776 12.9761 28.426 12.824 28.6592C12.6719 28.8924 12.535 29.0901 12.4134 29.2524C12.9609 29.3943 13.5084 29.5008 14.056 29.5717C14.6035 29.6427 15.1561 29.6782 15.7137 29.6782Z" fill="#CAE2BC"></path>
</svg>
