<svg xmlns="http://www.w3.org/2000/svg" width="21" height="21" viewBox="0 0 21 21" fill="none"><path fill-rule="evenodd" clip-rule="evenodd" d="M10.4448 19.8292C15.4153 19.8292 19.4448 15.7997 19.4448 10.8292C19.4448 5.85872 15.4153 1.82922 10.4448 1.82922C5.47432 1.82922 1.44482 5.85872 1.44482 10.8292C1.44482 15.7997 5.47432 19.8292 10.4448 19.8292ZM10.4448 20.8292C15.9678 20.8292 20.4448 16.3522 20.4448 10.8292C20.4448 5.30622 15.9678 0.829224 10.4448 0.829224C4.92182 0.829224 0.444824 5.30622 0.444824 10.8292C0.444824 16.3522 4.92182 20.8292 10.4448 20.8292Z" fill="#4FA83D"></path><path fill-rule="evenodd" clip-rule="evenodd" d="M15.7798 6.95872C15.8782 7.04759 15.9372 7.17188 15.944 7.30427C15.9508 7.43666 15.9047 7.56631 15.8158 7.66472L9.13784 15.0452L5.09984 11.1907C5.00917 11.0981 4.95803 10.9738 4.95722 10.8442C4.95642 10.7145 5.00599 10.5896 5.0955 10.4958C5.18501 10.402 5.30745 10.3467 5.43699 10.3414C5.56653 10.3362 5.69304 10.3815 5.78984 10.4677L9.08484 13.6127L15.0743 6.99422C15.1184 6.94551 15.1717 6.90597 15.231 6.87784C15.2904 6.84972 15.3547 6.83357 15.4203 6.83032C15.4859 6.82707 15.5516 6.83678 15.6134 6.8589C15.6753 6.88102 15.7322 6.91511 15.7808 6.95922L15.7798 6.95872Z" fill="#4FA83D"></path></svg>