<svg xmlns="http://www.w3.org/2000/svg" width="72" height="53" viewBox="0 0 72 53" fill="none"><path d="M51.6828 33.6968H59.1497V32.0922C59.1497 31.4236 58.9077 30.8553 58.4237 30.3873C57.9397 29.9193 57.3521 29.6853 56.6607 29.6853C55.9693 29.6853 55.3816 29.9193 54.8977 30.3873C54.4137 30.8553 54.1717 31.4236 54.1717 32.0922H52.5124C52.5124 30.9824 52.917 30.0362 53.7262 29.2537C54.5354 28.4711 55.5136 28.0802 56.6607 28.0807C57.8084 28.0807 58.7868 28.4719 59.596 29.2545C60.4052 30.037 60.8095 30.9829 60.809 32.0922V33.6968H61.6386C62.0949 33.6968 62.4857 33.8541 62.8109 34.1686C63.1362 34.4831 63.2985 34.8607 63.2979 35.3014V43.3245C63.2979 43.7658 63.1353 44.1436 62.8101 44.4581C62.4849 44.7726 62.0944 44.9296 61.6386 44.9291H51.6828C51.2264 44.9291 50.8357 44.7718 50.5104 44.4573C50.1852 44.1428 50.0229 43.7652 50.0234 43.3245V35.3014C50.0234 34.8602 50.1861 34.4823 50.5113 34.1678C50.8365 33.8533 51.227 33.6963 51.6828 33.6968ZM51.6828 43.3245H61.6386V35.3014H51.6828V43.3245ZM56.6607 40.9176C57.117 40.9176 57.5078 40.7603 57.833 40.4458C58.1582 40.1313 58.3206 39.7537 58.32 39.313C58.32 38.8717 58.1574 38.4938 57.8322 38.1793C57.5069 37.8648 57.1164 37.7078 56.6607 37.7084C56.2044 37.7084 55.8136 37.8656 55.4884 38.1801C55.1632 38.4946 55.0008 38.8722 55.0014 39.313C55.0014 39.7542 55.164 40.1321 55.4892 40.4466C55.8144 40.7611 56.2049 40.9181 56.6607 40.9176Z" fill="#4FA83D"></path><rect x="5.62109" y="20.1437" width="34.0131" height="3.30224" rx="1.65112" transform="rotate(0.343902 5.62109 20.1437)" fill="#4FA83D"></rect><rect x="5.62109" y="26.418" width="34.0131" height="3.30224" rx="1.65112" transform="rotate(0.343902 5.62109 26.418)" fill="#4FA83D"></rect><path fill-rule="evenodd" clip-rule="evenodd" d="M58.3126 2.3183L2.17559 1.98134L2.13595 8.58571L58.273 8.92266L58.3126 2.3183ZM1.98134 34.3427L2.09429 15.5259L58.2313 15.8628L58.1945 21.9996C58.8692 22.0606 59.5302 22.1692 60.174 22.3222L60.2939 2.33019C60.3005 1.23594 59.4188 0.343556 58.3245 0.336988L2.18748 3.64562e-05C1.09323 -0.00653153 0.200847 0.875206 0.194279 1.96945L3.64561e-05 34.3308C-0.00653153 35.4251 0.875206 36.3174 1.96945 36.324L42.8869 36.5696C42.8789 36.3749 42.8749 36.1791 42.8749 35.9825C42.8749 35.5121 42.898 35.0471 42.9432 34.5886L1.98134 34.3427Z" fill="#4FA83D"></path><circle cx="56.6605" cy="36.7602" r="14.0403" stroke="#4FA83D" stroke-width="2.55279"></circle></svg>