<svg xmlns="http://www.w3.org/2000/svg" width="57" height="59" viewBox="0 0 57 59" fill="none"><path fill-rule="evenodd" clip-rule="evenodd" d="M2.48878 56.4123V2.48878H43.9684V30.0727H34.8171C34.725 29.7149 34.4002 29.4505 34.0136 29.4505H5.80748C5.34931 29.4505 4.97789 29.8219 4.97789 30.2801C4.97789 30.7383 5.34931 31.1097 5.80748 31.1097H32.3667L28.7744 34.8429H5.80748C5.34931 34.8429 4.97789 35.2143 4.97789 35.6725C4.97789 36.1306 5.34931 36.5021 5.80748 36.5021H27.1778L23.5309 40.2919C23.4373 40.2553 23.3355 40.2352 23.2289 40.2352H5.80748C5.34931 40.2352 4.97789 40.6066 4.97789 41.0648C4.97789 41.523 5.34931 41.8944 5.80748 41.8944H22.2718C22.219 42.0685 22.1915 42.2509 22.1915 42.4361V45.6277H5.80748C5.34931 45.6277 4.97789 45.9991 4.97789 46.4573C4.97789 46.9155 5.34931 47.2869 5.80748 47.2869H22.1915V56.4123H2.48878ZM46.4572 31.9392H46.4571V32.1467H34.247L24.2655 42.5197V58.901L23.2285 58.9011H2.07398C0.928556 58.9011 0 57.9725 0 56.8271V2.07398C0 0.928556 0.928553 0 2.07398 0H44.3832C45.5286 0 46.4572 0.928553 46.4572 2.07398V31.9392ZM4.97772 6.22194C4.97772 5.76377 5.34914 5.39235 5.80731 5.39235H36.917C37.3752 5.39235 37.7466 5.76377 37.7466 6.22195V8.71072C37.7466 9.16889 37.3752 9.54031 36.917 9.54031H5.80731C5.34914 9.54031 4.97772 9.16889 4.97772 8.71072V6.22194ZM4.97789 14.103C4.97789 13.6449 5.34931 13.2735 5.80748 13.2735H36.9172C37.3754 13.2735 37.7468 13.6449 37.7468 14.103C37.7468 14.5612 37.3754 14.9326 36.9172 14.9326H5.80748C5.34931 14.9326 4.97789 14.5612 4.97789 14.103ZM5.80748 18.6658C5.34931 18.6658 4.97789 19.0372 4.97789 19.4954C4.97789 19.9536 5.34931 20.325 5.80748 20.325H36.9172C37.3754 20.325 37.7468 19.9536 37.7468 19.4954C37.7468 19.0372 37.3754 18.6658 36.9172 18.6658H5.80748ZM4.97789 24.8879C4.97789 24.4297 5.34931 24.0583 5.80748 24.0583H36.9172C37.3754 24.0583 37.7468 24.4297 37.7468 24.8879C37.7468 25.3461 37.3754 25.7175 36.9172 25.7175H5.80748C5.34931 25.7175 4.97789 25.3461 4.97789 24.8879Z" fill="#4FA83D"></path><path fill-rule="evenodd" clip-rule="evenodd" d="M43.2414 36.1552C43.2414 36.8603 42.9028 37.4863 42.3793 37.8795V41.7586L47.5517 41.7586C52.3128 41.7586 56.1724 45.6182 56.1724 50.3793C56.1724 55.1404 52.3128 59 47.5517 59H34.6207C29.8596 59 26 55.1404 26 50.3793C26 45.6182 29.8596 41.7586 34.6207 41.7586L39.7931 41.7586V37.8795C39.2696 37.4863 38.931 36.8603 38.931 36.1552C38.931 34.9649 39.8959 34 41.0862 34C42.2765 34 43.2414 34.9649 43.2414 36.1552ZM34.6207 43.4828H47.5517C51.3606 43.4828 54.4483 46.5704 54.4483 50.3793C54.4483 54.1882 51.3606 57.2759 47.5517 57.2759H34.6207C30.8118 57.2759 27.7241 54.1882 27.7241 50.3793C27.7241 46.5704 30.8118 43.4828 34.6207 43.4828ZM34.6207 45.2069C31.764 45.2069 29.4483 47.5227 29.4483 50.3793C29.4483 53.236 31.764 55.5517 34.6207 55.5517H47.5517C50.4084 55.5517 52.7241 53.236 52.7241 50.3793C52.7241 47.5227 50.4084 45.2069 47.5517 45.2069H34.6207ZM36.3448 52.1034C37.2971 52.1034 38.069 51.3315 38.069 50.3793C38.069 49.4271 37.2971 48.6552 36.3448 48.6552C35.3926 48.6552 34.6207 49.4271 34.6207 50.3793C34.6207 51.3315 35.3926 52.1034 36.3448 52.1034ZM47.5517 50.3793C47.5517 51.3315 46.7798 52.1034 45.8276 52.1034C44.8754 52.1034 44.1035 51.3315 44.1035 50.3793C44.1035 49.4271 44.8754 48.6552 45.8276 48.6552C46.7798 48.6552 47.5517 49.4271 47.5517 50.3793Z" fill="#4FA83D"></path></svg>