<svg xmlns="http://www.w3.org/2000/svg" width="132" height="132" viewBox="0 0 132 132"><g id="_11-call_center_support" data-name="11-call center support" transform="translate(1 1)"><g id="linear_color" data-name="linear color" transform="translate(0 0)"><path id="Path_32200" data-name="Path 32200" d="M96.857,49.712v-7.9a3.1,3.1,0,0,0-2.716-3.072L87.6,37.928l-2.048-4.945,4.052-5.2a3.1,3.1,0,0,0-.252-4.092L77.163,11.506a3.1,3.1,0,0,0-4.092-.252l-5.2,4.051-4.945-2.048-.808-6.541A3.1,3.1,0,0,0,59.049,4H41.808a3.1,3.1,0,0,0-3.072,2.716l-.808,6.541L32.984,15.3l-5.2-4.052a3.1,3.1,0,0,0-4.092.252L11.506,23.694a3.1,3.1,0,0,0-.252,4.092l4.052,5.2-2.048,4.945-6.541.808A3.1,3.1,0,0,0,4,41.808v17.24a3.1,3.1,0,0,0,2.716,3.072l6.541.808L15.3,67.874l-4.052,5.2a3.1,3.1,0,0,0,.252,4.092l12.19,12.19a3.1,3.1,0,0,0,4.092.252l5.2-4.052L37.928,87.6l.808,6.541a3.1,3.1,0,0,0,3.072,2.716h7.9A42.3,42.3,0,1,0,96.857,49.712ZM43.851,85.051a3.1,3.1,0,0,0-1.888-2.48l-8.277-3.428a3.1,3.1,0,0,0-3.088.419l-4.462,3.479L17.815,74.72l3.479-4.462a3.1,3.1,0,0,0,.419-3.088l-3.428-8.277A3.1,3.1,0,0,0,15.8,57l-5.615-.693V44.545l5.616-.694a3.1,3.1,0,0,0,2.48-1.888l3.428-8.277A3.1,3.1,0,0,0,21.3,30.6l-3.479-4.462,8.321-8.321L30.6,21.294a3.1,3.1,0,0,0,3.088.419l8.277-3.428a3.1,3.1,0,0,0,1.888-2.48l.693-5.615H56.312l.694,5.616a3.1,3.1,0,0,0,1.888,2.48l8.277,3.428a3.1,3.1,0,0,0,3.088-.419l4.462-3.479,8.321,8.321L79.563,30.6a3.1,3.1,0,0,0-.419,3.088l3.428,8.277a3.1,3.1,0,0,0,2.48,1.888l5.614.693V49.41A42.018,42.018,0,0,0,73.752,53.4,23.55,23.55,0,1,0,53.4,73.757a42.018,42.018,0,0,0-3.987,16.91H44.545ZM58.168,65.94a17.333,17.333,0,1,1,7.772-7.772,42.671,42.671,0,0,0-7.772,7.772ZM91.7,127.809A36.111,36.111,0,1,1,127.809,91.7,36.151,36.151,0,0,1,91.7,127.809Z" transform="translate(-4 -4)" fill="#4fa83d" stroke="#242528" stroke-width="2"></path><path id="Path_32201" data-name="Path 32201" d="M282.683,250.7h-5.159v-3.1a19.6,19.6,0,1,0-39.206,0v3.1h-5.159A5.165,5.165,0,0,0,228,255.857V266.69a4.648,4.648,0,0,0,4.643,4.643h5.675v1.032a9.3,9.3,0,0,0,9.286,9.286h14.444a3.1,3.1,0,1,0,0-6.191H247.6a3.1,3.1,0,0,1-3.1-3.1V247.6a13.413,13.413,0,0,1,26.825,0v20.635a3.1,3.1,0,0,0,3.1,3.1h8.77a4.648,4.648,0,0,0,4.643-4.643V255.857A5.165,5.165,0,0,0,282.683,250.7Zm-48.492,6.19h4.127v8.254H234.19Zm47.46,8.254h-4.127v-8.254h4.127Z" transform="translate(-170.222 -170.222)" fill="#4fa83d" stroke="#242528" stroke-width="2"></path></g></g></svg>