<svg xmlns="http://www.w3.org/2000/svg" width="86" height="81" viewBox="0 0 86 81"><g id="Group_5997" data-name="Group 5997" transform="translate(-913 -2261.291)"><rect id="Rectangle_7620" data-name="Rectangle 7620" width="86" height="81" rx="22" transform="translate(913 2261.291)" fill="#cae2bc" opacity="0.2"></rect><g id="noun-layer-lock-3938567" transform="translate(853.051 2240.999)"><path id="Path_46254" data-name="Path 46254" d="M84.937,44.363a6.1,6.1,0,0,1,12.132,0,3.763,3.763,0,0,1,1.813,1.755L102,44.4a1.972,1.972,0,0,1,1.9,0l22.661,12.5a1.971,1.971,0,0,1,0,3.451l-5.528,3.05,5.528,3.05a1.97,1.97,0,0,1,0,3.45L103.9,82.4a1.971,1.971,0,0,1-1.9,0L79.336,69.9a1.97,1.97,0,0,1,0-3.45l5.528-3.05-5.528-3.05a1.971,1.971,0,0,1,0-3.451l3.492-1.926a3.761,3.761,0,0,1-.09-.821V47.776a3.749,3.749,0,0,1,2.2-3.413Zm34.058,20.163L103.9,72.852a1.972,1.972,0,0,1-1.9,0L86.9,64.525l-6.616,3.65,22.661,12.5,22.661-12.5-6.616-3.65ZM99.269,48.154v6A3.747,3.747,0,0,1,95.522,57.9H86.485a3.735,3.735,0,0,1-2.733-1.184l-3.464,1.911,22.661,12.5,22.661-12.5-22.661-12.5-3.681,2.031Zm-1.97-.379A1.777,1.777,0,0,0,95.522,46H86.485a1.776,1.776,0,0,0-1.776,1.776v6.376a1.777,1.777,0,0,0,1.776,1.776h9.037A1.777,1.777,0,0,0,97.3,54.152Zm-2.287-3.747a4.134,4.134,0,0,0-8.016,0h8.016Z" transform="translate(0)" fill="#4fa83d" fill-rule="evenodd"></path></g></g></svg>