<svg xmlns="http://www.w3.org/2000/svg" width="86" height="81" viewBox="0 0 86 81"><g id="Group_5999" data-name="Group 5999" transform="translate(-645 -2756.131)"><rect id="Rectangle_7620" data-name="Rectangle 7620" width="86" height="81" rx="22" transform="translate(645 2756.131)" fill="#cae2bc" opacity="0.2"></rect><g id="noun-flow-1360557" transform="translate(666.172 2774.776)"><path id="Path_46255" data-name="Path 46255" d="M98.883,22.364a6.175,6.175,0,0,1,1.268,12.217v4.911a2.374,2.374,0,0,0,2.375,2.375h10.512V34.514a6.175,6.175,0,1,1,2.85.047v7.305h10.7a2.374,2.374,0,0,0,2.375-2.375V34.581a6.175,6.175,0,1,1,2.85-.081v4.992a5.225,5.225,0,0,1-5.225,5.225h-10.7v9.144a6.175,6.175,0,1,1-2.85.048V44.717H102.526A5.225,5.225,0,0,1,97.3,39.492V34.5a6.175,6.175,0,0,1,1.582-12.136Zm19,6.175a3.324,3.324,0,1,0-.974,2.351A3.325,3.325,0,0,0,117.882,28.539Zm15.674,0a3.324,3.324,0,1,0-.974,2.351A3.325,3.325,0,0,0,133.557,28.539ZM111.233,59.888a3.324,3.324,0,1,0,.974-2.351A3.325,3.325,0,0,0,111.233,59.888ZM98.883,31.864a3.324,3.324,0,1,0-2.351-.974A3.325,3.325,0,0,0,98.883,31.864Z" transform="translate(-92.737 -22.356)" fill="#4fa83d"></path></g></g></svg>