<svg xmlns="http://www.w3.org/2000/svg" width="56" height="416" viewBox="0 0 56 416" fill="none"><g opacity="0.24"><mask id="mask0_1572_19064" style="mask-type:alpha" maskUnits="userSpaceOnUse" x="0" y="0" width="57" height="426"><rect x="56.75" y="0.5" width="425" height="56.25" transform="rotate(90 56.75 0.5)" fill="#262626"></rect></mask><g mask="url(#mask0_1572_19064)"><rect x="-181.338" y="40.4939" width="365" height="15" transform="rotate(45 -181.338 40.4939)" fill="white"></rect><rect x="-181.338" y="4.2439" width="365" height="15" transform="rotate(45 -181.338 4.2439)" fill="white"></rect><rect x="-181.336" y="-32" width="365" height="15" transform="rotate(45 -181.336 -32)" fill="white"></rect><rect x="-181.336" y="-67" width="365" height="15" transform="rotate(45 -181.336 -67)" fill="white"></rect><rect x="-181.336" y="-102" width="365" height="15" transform="rotate(45 -181.336 -102)" fill="white"></rect><rect x="-181.336" y="-137" width="365" height="15" transform="rotate(45 -181.336 -137)" fill="white"></rect><rect x="-181.336" y="-172" width="365" height="15" transform="rotate(45 -181.336 -172)" fill="white"></rect><rect x="-181.338" y="-207" width="365" height="15" transform="rotate(45 -181.338 -207)" fill="white"></rect><rect x="-181.338" y="-242" width="365" height="15" transform="rotate(45 -181.338 -242)" fill="white"></rect><rect x="-181.338" y="76.75" width="365" height="15" transform="rotate(45 -181.338 76.75)" fill="white"></rect><rect x="-181.338" y="113.006" width="365" height="15" transform="rotate(45 -181.338 113.006)" fill="white"></rect><rect x="-181.338" y="149.262" width="365" height="15" transform="rotate(45 -181.338 149.262)" fill="white"></rect><rect x="-181.338" y="185.518" width="365" height="15" transform="rotate(45 -181.338 185.518)" fill="white"></rect><rect x="-181.338" y="221.774" width="365" height="15" transform="rotate(45 -181.338 221.774)" fill="white"></rect><rect x="-181.338" y="258.031" width="365" height="15" transform="rotate(45 -181.338 258.031)" fill="white"></rect><rect x="-181.338" y="294.287" width="365" height="15" transform="rotate(45 -181.338 294.287)" fill="white"></rect><rect x="-181.338" y="330.543" width="365" height="15" transform="rotate(45 -181.338 330.543)" fill="white"></rect><rect x="-181.338" y="366.799" width="365" height="15" transform="rotate(45 -181.338 366.799)" fill="white"></rect><rect x="-181.338" y="403.055" width="365" height="15" transform="rotate(45 -181.338 403.055)" fill="white"></rect></g></g></svg>