<svg xmlns="http://www.w3.org/2000/svg" width="75" height="75" viewBox="0 0 75 75" fill="none"><rect width="75" height="75" fill="#323232"></rect><g clip-path="url(#clip0_104_56)"><rect width="1440" height="9463" transform="translate(-89 -2848)" fill="#0D0E10"></rect><g clip-path="url(#clip1_104_56)"><rect width="1438" height="558" transform="translate(-88 -4)" fill="#0D0E10"></rect><g opacity="0.7" filter="url(#filter0_f_104_56)"><path d="M-90.0035 -11.8258L-90.0034 555.926C-90.0034 555.926 173.296 436.436 189.997 250.5C204.628 87.6092 -82.8119 -7.25696 -90.0035 -11.8258L-90.0035 -11.9988C-90.188 -11.9988 -90.1848 -11.941 -90.0035 -11.8258Z" fill="#0D0E10"></path></g></g><rect width="74.8441" height="74.8441" rx="37.422" fill="url(#paint0_linear_104_56)" fill-opacity="0.7"></rect><path d="M19.8828 35.9291V23.9732C19.8828 23.541 20.0545 23.1266 20.3601 22.821C20.6656 22.5154 21.0801 22.3438 21.5122 22.3438H54.1009C54.533 22.3438 54.9475 22.5154 55.253 22.821C55.5586 23.1266 55.7303 23.541 55.7303 23.9732V35.9291C55.7303 53.0382 41.208 58.7004 38.3158 59.6577C37.9872 59.7794 37.6259 59.7794 37.2974 59.6577C34.4051 58.7004 19.8828 53.0382 19.8828 35.9291Z" stroke="#C8C8C8" stroke-width="2.75309" stroke-linecap="round" stroke-linejoin="round"></path><path d="M41.1789 45.3945L38.6637 47.9097L36.1484 45.3945" stroke="#C8C8C8" stroke-width="1.20131" stroke-linecap="round" stroke-linejoin="round"></path><path d="M38.6641 41.5078V47.9067" stroke="#C8C8C8" stroke-width="1.20131" stroke-linecap="round" stroke-linejoin="round"></path><path d="M36.1484 31.9331L38.6637 29.418L41.1789 31.9331" stroke="#C8C8C8" stroke-width="1.20131" stroke-linecap="round" stroke-linejoin="round"></path><path d="M38.6641 35.8169V29.418" stroke="#C8C8C8" stroke-width="1.20131" stroke-linecap="round" stroke-linejoin="round"></path><path d="M31.9371 41.1748L29.4219 38.6597L31.9371 36.1445" stroke="#C8C8C8" stroke-width="1.20131" stroke-linecap="round" stroke-linejoin="round"></path><path d="M35.8211 38.668H29.4219" stroke="#C8C8C8" stroke-width="1.20131" stroke-linecap="round" stroke-linejoin="round"></path><path d="M45.3984 36.1445L47.9137 38.6597L45.3984 41.1748" stroke="#C8C8C8" stroke-width="1.20131" stroke-linecap="round" stroke-linejoin="round"></path><path d="M41.5078 38.668H47.907" stroke="#C8C8C8" stroke-width="1.20131" stroke-linecap="round" stroke-linejoin="round"></path></g><defs><filter id="filter0_f_104_56" x="-121.141" y="-43" width="342.68" height="629.926" color-interpolation-filters="sRGB"><feGaussianBlur stdDeviation="15.5"></feGaussianBlur></filter><linearGradient id="paint0_linear_104_56" x1="30.1016" y1="32.1836" x2="54.6025" y2="74.6836" gradientUnits="userSpaceOnUse"><stop stop-color="#56B743"></stop><stop offset="1" stop-color="#083100"></stop></linearGradient><clipPath id="clip0_104_56"><rect width="1440" height="9463" fill="white" transform="translate(-89 -2848)"></rect></clipPath><clipPath id="clip1_104_56"><rect width="1438" height="558" fill="white" transform="translate(-88 -4)"></rect></clipPath></defs></svg>