<svg xmlns="http://www.w3.org/2000/svg" width="75" height="75" viewBox="0 0 75 75" fill="none"><rect width="75" height="75" fill="#323232"></rect><g clip-path="url(#clip0_104_56)"><rect x="-21" y="-22.8984" width="440.436" height="255.769" rx="16.17" fill="url(#paint0_linear_104_56)"></rect><rect x="0.472656" y="0.515625" width="74" height="74" rx="37" fill="url(#paint1_linear_104_56)" fill-opacity="0.7"></rect><path d="M37.4719 59.1001C40.7831 59.1001 43.4673 56.4159 43.4673 53.1047C43.4673 49.7936 40.7831 47.1094 37.4719 47.1094C34.1608 47.1094 31.4766 49.7936 31.4766 53.1047C31.4766 56.4159 34.1608 59.1001 37.4719 59.1001Z" stroke="#C8C8C8" stroke-width="2.43936" stroke-linecap="round" stroke-linejoin="round"></path><path d="M50.3196 33.4087C53.6307 33.4087 56.315 30.7245 56.315 27.4133C56.315 24.1022 53.6307 21.418 50.3196 21.418C47.0084 21.418 44.3242 24.1022 44.3242 27.4133C44.3242 30.7245 47.0084 33.4087 50.3196 33.4087Z" stroke="#C8C8C8" stroke-width="2.43936" stroke-linecap="round" stroke-linejoin="round"></path><path d="M24.6282 33.4087C27.9393 33.4087 30.6236 30.7245 30.6236 27.4133C30.6236 24.1022 27.9393 21.418 24.6282 21.418C21.317 21.418 18.6328 24.1022 18.6328 27.4133C18.6328 30.7245 21.317 33.4087 24.6282 33.4087Z" stroke="#C8C8C8" stroke-width="2.43936" stroke-linecap="round" stroke-linejoin="round"></path><path d="M24.625 33.4062V35.1192C24.6222 35.7949 24.7532 36.4644 25.0104 37.0891C25.2677 37.7139 25.6461 38.2815 26.1239 38.7593C26.6016 39.237 27.1693 39.6154 27.794 39.8727C28.4188 40.1299 29.0883 40.2609 29.7639 40.2581H45.1806C45.8562 40.2609 46.5258 40.1299 47.1505 39.8727C47.7753 39.6154 48.3429 39.237 48.8207 38.7593C49.2984 38.2815 49.6768 37.7139 49.9341 37.0891C50.1913 36.4644 50.3223 35.7949 50.3195 35.1192V33.4062" stroke="#C8C8C8" stroke-width="2.43936" stroke-linecap="round" stroke-linejoin="round"></path><path d="M37.4727 40.2617V47.1136" stroke="#C8C8C8" stroke-width="2.43936" stroke-linecap="round" stroke-linejoin="round"></path></g><rect x="-20.307" y="-22.2054" width="439.05" height="254.383" rx="15.477" stroke="url(#paint2_linear_104_56)" stroke-width="1.386"></rect><defs><linearGradient id="paint0_linear_104_56" x1="-21" y1="69.9291" x2="478.688" y2="252.621" gradientUnits="userSpaceOnUse"><stop offset="0.39531" stop-color="#161718"></stop><stop offset="1" stop-color="#161718" stop-opacity="0"></stop></linearGradient><linearGradient id="paint1_linear_104_56" x1="-4.26232" y1="-2.97356" x2="50.5525" y2="65.545" gradientUnits="userSpaceOnUse"><stop stop-color="#56B743"></stop><stop offset="1" stop-color="#083100"></stop></linearGradient><linearGradient id="paint2_linear_104_56" x1="-120.74" y1="-85.1126" x2="410.549" y2="232.87" gradientUnits="userSpaceOnUse"><stop stop-color="white" stop-opacity="0.3"></stop><stop stop-color="white" stop-opacity="0.3"></stop><stop offset="0.0001" stop-color="white" stop-opacity="0.5"></stop><stop offset="1" stop-color="white" stop-opacity="0.4"></stop></linearGradient><clipPath id="clip0_104_56"><rect x="-21" y="-22.8984" width="440.436" height="255.769" rx="16.17" fill="white"></rect></clipPath></defs></svg>