<svg xmlns="http://www.w3.org/2000/svg" width="891" height="696" viewBox="0 0 891 696" fill="none"><circle opacity="0.9" cx="445" cy="348" r="250" fill="url(#paint0_radial_2476_16456)"></circle><path d="M305.309 214.899C302.095 189.156 282.783 169.767 278.001 162.4C390.7 56.0001 534.201 102.2 585.949 142.1C587.866 154.725 587.139 170.798 585.95 177.002C564.603 229.773 523.167 205.889 505.117 187.351C502.901 182.161 489.007 162.226 472.803 156.117C438.766 148.22 427.172 186.996 421.845 206.579C414.261 252.491 382.569 265.678 367.672 266.533C339.535 266.086 309.326 247.076 305.309 214.899Z" fill="url(#paint1_linear_2476_16456)"></path><path d="M264.628 392.7C287.588 323.82 218.501 305.2 198.901 305.2C178.5 463 280 538.3 301 553L354.3 538.3C383.073 522.2 367.833 508.2 354.3 499.8C320.773 478.99 235.928 478.8 264.628 392.7Z" fill="url(#paint2_linear_2476_16456)"></path><path d="M642.889 378.241C668.726 381.618 688.186 371.12 694.566 363.75C680.736 562.085 489.002 594.5 497.002 592.5C496.602 573.504 489.93 551.131 486.453 541.168C465.207 463.198 514.174 438.779 542.743 454.565C606.215 489.637 619.048 454 608.302 431.48C587.793 388.502 610.593 374.019 642.889 378.241Z" fill="url(#paint3_linear_2476_16456)"></path><path d="M572.804 253.4C577.147 317.1 660.602 288.766 683.002 271.5C668.002 227.5 656.763 212.8 652.563 208.6C646.496 214.433 628.96 227.5 602.904 227.5C572.803 227.5 572.104 243.133 572.804 253.4Z" fill="url(#paint4_linear_2476_16456)"></path><g opacity="0.8"><path d="M351.075 227.718L364.564 317.087L435.385 378.914M351.075 227.718L238.099 350.811M351.075 227.718L268.451 516.621M351.075 227.718L702.93 570.58M351.075 227.718L414.589 112.494M351.075 227.718L91.9609 173.197M351.075 227.718L208.871 46.7314M435.385 378.914L543.864 370.483M435.385 378.914L550.609 528.425M435.385 378.914L268.451 516.621M435.385 378.914L761.385 194.556L753.516 317.087M435.385 378.914L451.685 656.014M435.385 378.914L414.589 112.494M543.864 370.483L678.199 443.552M543.864 370.483L550.609 528.425M543.864 370.483L414.589 112.494M678.199 443.552L702.93 570.58M678.199 443.552L543.864 46.7314M678.199 443.552L803.54 485.707L702.93 570.58M678.199 443.552L753.516 317.087M702.93 570.58L555.106 532.921M550.609 528.425L451.685 656.014M550.609 528.425L227.982 623.414M451.685 656.014L268.451 516.621M268.451 516.621L543.864 150.152M268.451 516.621L120.626 317.087M268.451 516.621L238.613 353.621M238.099 350.811L109.385 486.269L227.982 623.414M238.099 350.811L238.613 353.621M543.864 150.152L414.589 112.494M543.864 150.152V46.7314M543.864 150.152L753.516 317.087M543.864 150.152L678.199 112.494L753.516 317.087M414.589 112.494L208.871 46.7314M414.589 112.494L91.9609 173.197M414.589 112.494L543.864 46.7314M208.871 46.7314L120.626 317.087M208.871 46.7314L91.9609 173.197M120.626 317.087L91.9609 173.197M227.982 623.414L238.613 353.621" stroke="url(#paint5_linear_2476_16456)"></path><circle cx="754.078" cy="316.525" r="20.2345" fill="url(#paint6_linear_2476_16456)"></circle><circle cx="754.08" cy="316.525" r="17.4862" stroke="url(#paint7_linear_2476_16456)"></circle><path d="M760.822 325.518H747.332V323.805C747.332 322.67 747.776 321.58 748.567 320.777C749.357 319.974 750.43 319.523 751.548 319.523H756.606C757.724 319.523 758.796 319.974 759.587 320.777C760.378 321.58 760.822 322.67 760.822 323.805V325.518ZM754.077 317.81C753.413 317.81 752.755 317.677 752.141 317.419C751.527 317.161 750.97 316.782 750.5 316.305C750.03 315.828 749.658 315.261 749.403 314.638C749.149 314.014 749.018 313.346 749.018 312.671C749.018 311.996 749.149 311.328 749.403 310.705C749.658 310.081 750.03 309.515 750.5 309.037C750.97 308.56 751.527 308.182 752.141 307.923C752.755 307.665 753.413 307.532 754.077 307.532C755.418 307.532 756.705 308.074 757.654 309.037C758.603 310.001 759.135 311.308 759.135 312.671C759.135 314.034 758.603 315.341 757.654 316.305C756.705 317.269 755.418 317.81 754.077 317.81Z" fill="#252525"></path><circle cx="113.317" cy="316.525" r="20.2345" fill="url(#paint8_linear_2476_16456)"></circle><circle cx="113.318" cy="316.525" r="17.4862" stroke="url(#paint9_linear_2476_16456)"></circle><path d="M120.06 325.518H106.57V323.805C106.57 322.67 107.014 321.58 107.805 320.777C108.596 319.974 109.668 319.523 110.786 319.523H115.844C116.962 319.523 118.035 319.974 118.825 320.777C119.616 321.58 120.06 322.67 120.06 323.805V325.518ZM113.315 317.81C112.651 317.81 111.993 317.677 111.379 317.419C110.766 317.161 110.208 316.782 109.738 316.305C109.268 315.828 108.896 315.261 108.642 314.638C108.387 314.014 108.257 313.346 108.257 312.671C108.257 311.996 108.387 311.328 108.642 310.705C108.896 310.081 109.268 309.515 109.738 309.037C110.208 308.56 110.766 308.182 111.379 307.923C111.993 307.665 112.651 307.532 113.315 307.532C114.657 307.532 115.943 308.074 116.892 309.037C117.841 310.001 118.374 311.308 118.374 312.671C118.374 314.034 117.841 315.341 116.892 316.305C115.943 317.269 114.657 317.81 113.315 317.81Z" fill="#252525"></path><circle cx="113.317" cy="485.145" r="20.2345" fill="url(#paint10_linear_2476_16456)"></circle><circle cx="113.318" cy="485.145" r="17.4862" stroke="url(#paint11_linear_2476_16456)"></circle><path d="M120.06 494.139H106.57V492.426C106.57 491.29 107.014 490.201 107.805 489.397C108.596 488.594 109.668 488.143 110.786 488.143H115.844C116.962 488.143 118.035 488.594 118.825 489.397C119.616 490.201 120.06 491.29 120.06 492.426V494.139ZM113.315 486.43C112.651 486.43 111.993 486.297 111.379 486.039C110.766 485.781 110.208 485.402 109.738 484.925C109.268 484.448 108.896 483.881 108.642 483.258C108.387 482.634 108.257 481.966 108.257 481.291C108.257 480.616 108.387 479.948 108.642 479.325C108.896 478.701 109.268 478.135 109.738 477.657C110.208 477.18 110.766 476.802 111.379 476.544C111.993 476.285 112.651 476.152 113.315 476.152C114.657 476.152 115.943 476.694 116.892 477.657C117.841 478.621 118.374 479.928 118.374 481.291C118.374 482.654 117.841 483.961 116.892 484.925C115.943 485.889 114.657 486.43 113.315 486.43Z" fill="#252525"></path><circle cx="225.731" cy="620.041" r="20.2345" fill="url(#paint12_linear_2476_16456)"></circle><circle cx="225.732" cy="620.042" r="17.4862" stroke="url(#paint13_linear_2476_16456)"></circle><path d="M232.474 629.035H218.984V627.322C218.984 626.186 219.429 625.097 220.219 624.294C221.01 623.491 222.082 623.04 223.2 623.04H228.259C229.377 623.04 230.449 623.491 231.239 624.294C232.03 625.097 232.474 626.186 232.474 627.322V629.035ZM225.729 621.327C225.065 621.327 224.407 621.194 223.793 620.935C223.18 620.677 222.622 620.299 222.152 619.822C221.682 619.344 221.31 618.778 221.056 618.154C220.801 617.531 220.671 616.863 220.671 616.188C220.671 615.513 220.801 614.845 221.056 614.221C221.31 613.598 221.682 613.031 222.152 612.554C222.622 612.077 223.18 611.698 223.793 611.44C224.407 611.182 225.065 611.049 225.729 611.049C227.071 611.049 228.358 611.59 229.306 612.554C230.255 613.518 230.788 614.825 230.788 616.188C230.788 617.551 230.255 618.858 229.306 619.822C228.358 620.785 227.071 621.327 225.729 621.327Z" fill="#252525"></path><circle cx="450.559" cy="653.766" r="20.2345" fill="url(#paint14_linear_2476_16456)"></circle><circle cx="450.56" cy="653.766" r="17.4862" stroke="url(#paint15_linear_2476_16456)"></circle><path d="M457.302 662.76H443.812V661.047C443.812 659.911 444.257 658.822 445.047 658.019C445.838 657.215 446.91 656.764 448.028 656.764H453.087C454.205 656.764 455.277 657.215 456.067 658.019C456.858 658.822 457.302 659.911 457.302 661.047V662.76ZM450.557 655.051C449.893 655.051 449.235 654.918 448.621 654.66C448.008 654.402 447.45 654.023 446.98 653.546C446.511 653.069 446.138 652.502 445.884 651.879C445.63 651.255 445.499 650.587 445.499 649.912C445.499 649.238 445.63 648.569 445.884 647.946C446.138 647.322 446.511 646.756 446.98 646.279C447.45 645.801 448.008 645.423 448.621 645.165C449.235 644.906 449.893 644.773 450.557 644.773C451.899 644.773 453.186 645.315 454.134 646.279C455.083 647.242 455.616 648.549 455.616 649.912C455.616 651.275 455.083 652.582 454.134 653.546C453.186 654.51 451.899 655.051 450.557 655.051Z" fill="#252525"></path><g opacity="0.8"><circle cx="438.194" cy="378.351" r="16.8621" fill="url(#paint16_linear_2476_16456)"></circle><circle cx="438.196" cy="378.352" r="14.4885" stroke="url(#paint17_linear_2476_16456)"></circle><path d="M443.816 385.846H432.574V384.418C432.574 383.472 432.944 382.564 433.603 381.895C434.262 381.226 435.155 380.85 436.087 380.85H440.303C441.234 380.85 442.128 381.226 442.787 381.895C443.445 382.564 443.816 383.472 443.816 384.418V385.846ZM438.195 379.422C437.641 379.422 437.093 379.312 436.582 379.096C436.07 378.881 435.606 378.566 435.214 378.168C434.823 377.77 434.512 377.298 434.3 376.779C434.088 376.259 433.979 375.702 433.979 375.14C433.979 374.577 434.088 374.021 434.3 373.501C434.512 372.981 434.823 372.509 435.214 372.112C435.606 371.714 436.07 371.399 436.582 371.183C437.093 370.968 437.641 370.857 438.195 370.857C439.313 370.857 440.385 371.309 441.176 372.112C441.966 372.915 442.41 374.004 442.41 375.14C442.41 376.276 441.966 377.365 441.176 378.168C440.385 378.971 439.313 379.422 438.195 379.422Z" fill="#252525"></path></g><g opacity="0.8"><circle cx="362.878" cy="322.145" r="16.8621" fill="url(#paint18_linear_2476_16456)"></circle><circle cx="362.879" cy="322.146" r="14.4885" stroke="url(#paint19_linear_2476_16456)"></circle><path d="M368.499 329.64H357.258V328.212C357.258 327.266 357.628 326.358 358.287 325.689C358.946 325.02 359.839 324.644 360.771 324.644H364.986C365.918 324.644 366.811 325.02 367.47 325.689C368.129 326.358 368.499 327.266 368.499 328.212V329.64ZM362.879 323.216C362.325 323.216 361.777 323.105 361.265 322.89C360.754 322.675 360.289 322.36 359.898 321.962C359.506 321.564 359.196 321.092 358.984 320.573C358.772 320.053 358.663 319.496 358.663 318.934C358.663 318.371 358.772 317.815 358.984 317.295C359.196 316.775 359.506 316.303 359.898 315.906C360.289 315.508 360.754 315.193 361.265 314.977C361.777 314.762 362.325 314.651 362.879 314.651C363.997 314.651 365.069 315.103 365.859 315.906C366.65 316.709 367.094 317.798 367.094 318.934C367.094 320.07 366.65 321.159 365.859 321.962C365.069 322.765 363.997 323.216 362.879 323.216Z" fill="#252525"></path></g><circle cx="415.71" cy="109.682" r="16.8621" fill="url(#paint20_linear_2476_16456)"></circle><circle cx="415.711" cy="109.683" r="14.4885" stroke="url(#paint21_linear_2476_16456)"></circle><path d="M421.331 117.177H410.09V115.75C410.09 114.803 410.46 113.895 411.119 113.226C411.778 112.557 412.671 112.181 413.603 112.181H417.818C418.75 112.181 419.644 112.557 420.302 113.226C420.961 113.895 421.331 114.803 421.331 115.75V117.177ZM415.711 110.753C415.157 110.753 414.609 110.643 414.097 110.427C413.586 110.212 413.121 109.897 412.73 109.499C412.338 109.101 412.028 108.629 411.816 108.11C411.604 107.59 411.495 107.033 411.495 106.471C411.495 105.909 411.604 105.352 411.816 104.832C412.028 104.313 412.338 103.84 412.73 103.443C413.121 103.045 413.586 102.73 414.097 102.514C414.609 102.299 415.157 102.188 415.711 102.188C416.829 102.188 417.901 102.64 418.691 103.443C419.482 104.246 419.926 105.335 419.926 106.471C419.926 107.607 419.482 108.696 418.691 109.499C417.901 110.302 416.829 110.753 415.711 110.753Z" fill="#252525"></path><g opacity="0.8"><circle cx="348.264" cy="222.096" r="16.8621" fill="url(#paint22_linear_2476_16456)"></circle><circle cx="348.266" cy="222.097" r="14.4885" stroke="url(#paint23_linear_2476_16456)"></circle><path d="M353.886 229.591H342.645V228.164C342.645 227.217 343.015 226.309 343.673 225.64C344.332 224.971 345.226 224.595 346.157 224.595H350.373C351.305 224.595 352.198 224.971 352.857 225.64C353.516 226.309 353.886 227.217 353.886 228.164V229.591ZM348.265 223.167C347.712 223.167 347.163 223.057 346.652 222.841C346.141 222.626 345.676 222.311 345.284 221.913C344.893 221.515 344.582 221.043 344.371 220.524C344.159 220.004 344.05 219.447 344.05 218.885C344.05 218.323 344.159 217.766 344.371 217.246C344.582 216.727 344.893 216.254 345.284 215.857C345.676 215.459 346.141 215.144 346.652 214.929C347.163 214.713 347.712 214.603 348.265 214.603C349.383 214.603 350.455 215.054 351.246 215.857C352.037 216.66 352.481 217.749 352.481 218.885C352.481 220.021 352.037 221.11 351.246 221.913C350.455 222.716 349.383 223.167 348.265 223.167Z" fill="#252525"></path></g><circle cx="550.608" cy="147.903" r="16.8621" fill="url(#paint24_linear_2476_16456)"></circle><circle cx="550.61" cy="147.904" r="14.4885" stroke="url(#paint25_linear_2476_16456)"></circle><path d="M556.23 155.398H544.988V153.97C544.988 153.024 545.358 152.116 546.017 151.447C546.676 150.778 547.57 150.402 548.501 150.402H552.717C553.648 150.402 554.542 150.778 555.201 151.447C555.86 152.116 556.23 153.024 556.23 153.97V155.398ZM550.609 148.974C550.055 148.974 549.507 148.863 548.996 148.648C548.484 148.433 548.02 148.117 547.628 147.72C547.237 147.322 546.926 146.85 546.714 146.33C546.502 145.811 546.393 145.254 546.393 144.692C546.393 144.129 546.502 143.572 546.714 143.053C546.926 142.533 547.237 142.061 547.628 141.663C548.02 141.266 548.484 140.95 548.996 140.735C549.507 140.52 550.055 140.409 550.609 140.409C551.727 140.409 552.799 140.86 553.59 141.663C554.38 142.467 554.824 143.556 554.824 144.692C554.824 145.827 554.38 146.917 553.59 147.72C552.799 148.523 551.727 148.974 550.609 148.974Z" fill="#252525"></path><circle cx="270.698" cy="513.248" r="16.8621" fill="url(#paint26_linear_2476_16456)"></circle><circle cx="270.699" cy="513.248" r="14.4885" stroke="url(#paint27_linear_2476_16456)"></circle><path d="M276.32 520.742H265.078V519.315C265.078 518.368 265.448 517.461 266.107 516.791C266.766 516.122 267.659 515.746 268.591 515.746H272.807C273.738 515.746 274.632 516.122 275.291 516.791C275.949 517.461 276.32 518.368 276.32 519.315V520.742ZM270.699 514.319C270.145 514.319 269.597 514.208 269.086 513.993C268.574 513.778 268.109 513.462 267.718 513.064C267.327 512.667 267.016 512.195 266.804 511.675C266.592 511.156 266.483 510.599 266.483 510.036C266.483 509.474 266.592 508.917 266.804 508.398C267.016 507.878 267.327 507.406 267.718 507.008C268.109 506.611 268.574 506.295 269.086 506.08C269.597 505.865 270.145 505.754 270.699 505.754C271.817 505.754 272.889 506.205 273.68 507.008C274.47 507.811 274.914 508.901 274.914 510.036C274.914 511.172 274.47 512.261 273.68 513.064C272.889 513.868 271.817 514.319 270.699 514.319Z" fill="#252525"></path><circle cx="236.971" cy="346.876" r="16.8621" fill="url(#paint28_linear_2476_16456)"></circle><circle cx="236.973" cy="346.876" r="14.4885" stroke="url(#paint29_linear_2476_16456)"></circle><path d="M242.593 354.37H231.352V352.943C231.352 351.996 231.722 351.089 232.38 350.419C233.039 349.75 233.933 349.374 234.864 349.374H239.08C240.012 349.374 240.905 349.75 241.564 350.419C242.223 351.089 242.593 351.996 242.593 352.943V354.37ZM236.972 347.947C236.419 347.947 235.87 347.836 235.359 347.621C234.848 347.406 234.383 347.09 233.991 346.692C233.6 346.295 233.289 345.823 233.078 345.303C232.866 344.784 232.757 344.227 232.757 343.664C232.757 343.102 232.866 342.545 233.078 342.025C233.289 341.506 233.6 341.034 233.991 340.636C234.383 340.238 234.848 339.923 235.359 339.708C235.87 339.493 236.419 339.382 236.972 339.382C238.09 339.382 239.163 339.833 239.953 340.636C240.744 341.439 241.188 342.528 241.188 343.664C241.188 344.8 240.744 345.889 239.953 346.692C239.163 347.496 238.09 347.947 236.972 347.947Z" fill="#252525"></path><circle cx="544.987" cy="527.862" r="16.8621" fill="url(#paint30_linear_2476_16456)"></circle><circle cx="544.989" cy="527.863" r="14.4885" stroke="url(#paint31_linear_2476_16456)"></circle><path d="M550.609 535.357H539.367V533.929C539.367 532.983 539.737 532.075 540.396 531.406C541.055 530.736 541.948 530.361 542.88 530.361H547.096C548.027 530.361 548.921 530.736 549.58 531.406C550.238 532.075 550.609 532.983 550.609 533.929V535.357ZM544.988 528.933C544.434 528.933 543.886 528.822 543.375 528.607C542.863 528.392 542.399 528.076 542.007 527.679C541.616 527.281 541.305 526.809 541.093 526.289C540.881 525.77 540.772 525.213 540.772 524.651C540.772 524.088 540.881 523.531 541.093 523.012C541.305 522.492 541.616 522.02 542.007 521.622C542.399 521.225 542.863 520.909 543.375 520.694C543.886 520.479 544.434 520.368 544.988 520.368C546.106 520.368 547.178 520.819 547.969 521.622C548.759 522.426 549.203 523.515 549.203 524.651C549.203 525.786 548.759 526.876 547.969 527.679C547.178 528.482 546.106 528.933 544.988 528.933Z" fill="#252525"></path><circle cx="676.51" cy="440.179" r="16.8621" fill="url(#paint32_linear_2476_16456)"></circle><circle cx="676.512" cy="440.18" r="14.4885" stroke="url(#paint33_linear_2476_16456)"></circle><path d="M682.132 447.674H670.891V446.247C670.891 445.3 671.261 444.392 671.92 443.723C672.578 443.054 673.472 442.678 674.404 442.678H678.619C679.551 442.678 680.444 443.054 681.103 443.723C681.762 444.392 682.132 445.3 682.132 446.247V447.674ZM676.511 441.25C675.958 441.25 675.41 441.14 674.898 440.924C674.387 440.709 673.922 440.394 673.53 439.996C673.139 439.598 672.829 439.126 672.617 438.607C672.405 438.087 672.296 437.53 672.296 436.968C672.296 436.406 672.405 435.849 672.617 435.329C672.829 434.81 673.139 434.338 673.53 433.94C673.922 433.542 674.387 433.227 674.898 433.012C675.41 432.796 675.958 432.686 676.511 432.686C677.629 432.686 678.702 433.137 679.492 433.94C680.283 434.743 680.727 435.832 680.727 436.968C680.727 438.104 680.283 439.193 679.492 439.996C678.702 440.799 677.629 441.25 676.511 441.25Z" fill="#252525"></path><g opacity="0.8"><circle cx="544.987" cy="371.607" r="16.8621" fill="url(#paint34_linear_2476_16456)"></circle><circle cx="544.989" cy="371.608" r="14.4885" stroke="url(#paint35_linear_2476_16456)"></circle><path d="M550.609 379.102H539.367V377.674C539.367 376.728 539.737 375.82 540.396 375.151C541.055 374.482 541.948 374.106 542.88 374.106H547.096C548.027 374.106 548.921 374.482 549.58 375.151C550.238 375.82 550.609 376.728 550.609 377.674V379.102ZM544.988 372.678C544.434 372.678 543.886 372.567 543.375 372.352C542.863 372.137 542.399 371.822 542.007 371.424C541.616 371.026 541.305 370.554 541.093 370.035C540.881 369.515 540.772 368.958 540.772 368.396C540.772 367.833 540.881 367.276 541.093 366.757C541.305 366.237 541.616 365.765 542.007 365.368C542.399 364.97 542.863 364.654 543.375 364.439C543.886 364.224 544.434 364.113 544.988 364.113C546.106 364.113 547.178 364.564 547.969 365.368C548.759 366.171 549.203 367.26 549.203 368.396C549.203 369.531 548.759 370.621 547.969 371.424C547.178 372.227 546.106 372.678 544.988 372.678Z" fill="#252525"></path></g><circle cx="701.242" cy="573.951" r="20.2345" fill="url(#paint36_linear_2476_16456)"></circle><circle cx="701.244" cy="573.952" r="17.4862" stroke="url(#paint37_linear_2476_16456)"></circle><path d="M707.986 582.945H694.496V581.232C694.496 580.096 694.94 579.007 695.731 578.204C696.521 577.401 697.594 576.95 698.712 576.95H703.77C704.888 576.95 705.96 577.401 706.751 578.204C707.542 579.007 707.986 580.096 707.986 581.232V582.945ZM701.241 575.237C700.577 575.237 699.919 575.104 699.305 574.846C698.691 574.587 698.134 574.209 697.664 573.732C697.194 573.254 696.822 572.688 696.567 572.064C696.313 571.441 696.182 570.773 696.182 570.098C696.182 569.423 696.313 568.755 696.567 568.131C696.822 567.508 697.194 566.941 697.664 566.464C698.134 565.987 698.691 565.608 699.305 565.35C699.919 565.092 700.577 564.959 701.241 564.959C702.583 564.959 703.869 565.5 704.818 566.464C705.767 567.428 706.3 568.735 706.3 570.098C706.3 571.461 705.767 572.768 704.818 573.732C703.869 574.695 702.583 575.237 701.241 575.237Z" fill="#252525"></path><circle cx="801.289" cy="482.897" r="20.2345" fill="url(#paint38_linear_2476_16456)"></circle><circle cx="801.291" cy="482.897" r="17.4862" stroke="url(#paint39_linear_2476_16456)"></circle><path d="M808.033 491.891H794.543V490.178C794.543 489.042 794.987 487.953 795.778 487.149C796.568 486.346 797.64 485.895 798.758 485.895H803.817C804.935 485.895 806.007 486.346 806.798 487.149C807.588 487.953 808.033 489.042 808.033 490.178V491.891ZM801.288 484.182C800.623 484.182 799.966 484.049 799.352 483.791C798.738 483.533 798.181 483.154 797.711 482.677C797.241 482.2 796.868 481.633 796.614 481.01C796.36 480.386 796.229 479.718 796.229 479.043C796.229 478.368 796.36 477.7 796.614 477.077C796.868 476.453 797.241 475.887 797.711 475.409C798.181 474.932 798.738 474.554 799.352 474.295C799.966 474.037 800.623 473.904 801.288 473.904C802.629 473.904 803.916 474.446 804.865 475.409C805.813 476.373 806.346 477.68 806.346 479.043C806.346 480.406 805.813 481.713 804.865 482.677C803.916 483.641 802.629 484.182 801.288 484.182Z" fill="#252525"></path><circle cx="758.574" cy="193.993" r="20.2345" fill="url(#paint40_linear_2476_16456)"></circle><circle cx="758.576" cy="193.994" r="17.4862" stroke="url(#paint41_linear_2476_16456)"></circle><path d="M765.318 202.987H751.828V201.274C751.828 200.138 752.272 199.049 753.063 198.246C753.853 197.443 754.926 196.992 756.044 196.992H761.102C762.22 196.992 763.293 197.443 764.083 198.246C764.874 199.049 765.318 200.138 765.318 201.274V202.987ZM758.573 195.279C757.909 195.279 757.251 195.146 756.637 194.888C756.023 194.629 755.466 194.251 754.996 193.774C754.526 193.296 754.154 192.73 753.899 192.106C753.645 191.483 753.514 190.815 753.514 190.14C753.514 189.465 753.645 188.797 753.899 188.173C754.154 187.55 754.526 186.983 754.996 186.506C755.466 186.029 756.023 185.65 756.637 185.392C757.251 185.134 757.909 185.001 758.573 185.001C759.915 185.001 761.201 185.542 762.15 186.506C763.099 187.47 763.632 188.777 763.632 190.14C763.632 191.503 763.099 192.81 762.15 193.774C761.201 194.737 759.915 195.279 758.573 195.279Z" fill="#252525"></path><circle cx="678.758" cy="113.055" r="20.2345" fill="url(#paint42_linear_2476_16456)"></circle><circle cx="678.76" cy="113.056" r="17.4862" stroke="url(#paint43_linear_2476_16456)"></circle><path d="M685.501 122.049H672.012V120.336C672.012 119.2 672.456 118.111 673.246 117.308C674.037 116.504 675.109 116.053 676.227 116.053H681.286C682.404 116.053 683.476 116.504 684.267 117.308C685.057 118.111 685.501 119.2 685.501 120.336V122.049ZM678.757 114.34C678.092 114.34 677.434 114.207 676.821 113.949C676.207 113.691 675.649 113.312 675.18 112.835C674.71 112.358 674.337 111.791 674.083 111.168C673.829 110.545 673.698 109.876 673.698 109.201C673.698 108.527 673.829 107.858 674.083 107.235C674.337 106.611 674.71 106.045 675.18 105.568C675.649 105.09 676.207 104.712 676.821 104.454C677.434 104.195 678.092 104.062 678.757 104.062C680.098 104.063 681.385 104.604 682.334 105.568C683.282 106.531 683.815 107.838 683.815 109.201C683.815 110.564 683.282 111.871 682.334 112.835C681.385 113.799 680.098 114.34 678.757 114.34Z" fill="#252525"></path><circle cx="539.367" cy="42.2345" r="20.2345" fill="url(#paint44_linear_2476_16456)"></circle><circle cx="539.369" cy="42.2352" r="17.4862" stroke="url(#paint45_linear_2476_16456)"></circle><path d="M546.111 51.2284H532.621V49.5154C532.621 48.3797 533.065 47.2904 533.856 46.4873C534.646 45.6842 535.719 45.233 536.837 45.233H541.895C543.013 45.233 544.085 45.6842 544.876 46.4873C545.667 47.2904 546.111 48.3797 546.111 49.5154V51.2284ZM539.366 43.52C538.702 43.52 538.044 43.3871 537.43 43.1288C536.816 42.8706 536.259 42.4921 535.789 42.0149C535.319 41.5377 534.947 40.9712 534.692 40.3477C534.438 39.7242 534.307 39.056 534.307 38.3811C534.307 37.7063 534.438 37.038 534.692 36.4145C534.947 35.791 535.319 35.2245 535.789 34.7473C536.259 34.2701 536.816 33.8916 537.43 33.6334C538.044 33.3751 538.702 33.2422 539.366 33.2422C540.708 33.2422 541.994 33.7836 542.943 34.7473C543.892 35.7111 544.425 37.0182 544.425 38.3811C544.425 39.744 543.892 41.0511 542.943 42.0149C541.994 42.9786 540.708 43.52 539.366 43.52Z" fill="#252525"></path><circle cx="213.367" cy="53.4757" r="20.2345" fill="url(#paint46_linear_2476_16456)"></circle><circle cx="213.369" cy="53.4764" r="17.4862" stroke="url(#paint47_linear_2476_16456)"></circle><path d="M220.111 62.4696H206.621V60.7566C206.621 59.6209 207.065 58.5316 207.856 57.7285C208.646 56.9254 209.719 56.4742 210.837 56.4742H215.895C217.013 56.4742 218.085 56.9254 218.876 57.7285C219.667 58.5316 220.111 59.6209 220.111 60.7566V62.4696ZM213.366 54.7612C212.702 54.7612 212.044 54.6283 211.43 54.3701C210.816 54.1118 210.259 53.7333 209.789 53.2561C209.319 52.7789 208.947 52.2124 208.692 51.5889C208.438 50.9654 208.307 50.2972 208.307 49.6223C208.307 48.9475 208.438 48.2792 208.692 47.6557C208.947 47.0323 209.319 46.4657 209.789 45.9886C210.259 45.5114 210.816 45.1328 211.43 44.8746C212.044 44.6163 212.702 44.4834 213.366 44.4834C214.708 44.4834 215.994 45.0248 216.943 45.9886C217.892 46.9523 218.425 48.2594 218.425 49.6223C218.425 50.9852 217.892 52.2923 216.943 53.2561C215.994 54.2198 214.708 54.7612 213.366 54.7612Z" fill="#252525"></path><circle cx="89.711" cy="165.89" r="20.2345" fill="url(#paint48_linear_2476_16456)"></circle><circle cx="89.7128" cy="165.891" r="17.4862" stroke="url(#paint49_linear_2476_16456)"></circle><path d="M96.4545 174.884H82.9648V173.171C82.9648 172.035 83.409 170.946 84.1995 170.143C84.9901 169.339 86.0623 168.888 87.1804 168.888H92.239C93.357 168.888 94.4292 169.339 95.2198 170.143C96.0104 170.946 96.4545 172.035 96.4545 173.171V174.884ZM89.7097 167.175C89.0454 167.175 88.3876 167.042 87.7738 166.784C87.1601 166.526 86.6024 166.147 86.1327 165.67C85.6629 165.193 85.2903 164.626 85.0361 164.003C84.7819 163.379 84.6511 162.711 84.6511 162.036C84.6511 161.362 84.7819 160.693 85.0361 160.07C85.2903 159.446 85.6629 158.88 86.1327 158.403C86.6024 157.925 87.1601 157.547 87.7738 157.289C88.3876 157.03 89.0454 156.897 89.7097 156.897C91.0513 156.897 92.338 157.439 93.2867 158.403C94.2353 159.366 94.7683 160.673 94.7683 162.036C94.7683 163.399 94.2353 164.706 93.2867 165.67C92.338 166.634 91.0513 167.175 89.7097 167.175Z" fill="#252525"></path></g><rect x="323.523" y="304.45" width="247.95" height="93.1" rx="16.15" fill="url(#paint50_linear_2476_16456)"></rect><path d="M393.491 347.382V351.997H375.563V347.382H393.491ZM377.001 333.28V367.05H371.179V333.28H377.001ZM397.968 333.28V367.05H392.169V333.28H397.968ZM418.1 333.28V367.05H412.324V333.28H418.1ZM428.699 333.28V337.919H401.818V333.28H428.699ZM447.416 333.28V367.05H441.641V333.28H447.416ZM458.015 333.28V337.919H431.134V333.28H458.015ZM475.294 354.456H466.504V349.84H475.294C476.825 349.84 478.062 349.593 479.005 349.098C479.949 348.603 480.637 347.923 481.07 347.057C481.518 346.176 481.742 345.171 481.742 344.042C481.742 342.975 481.518 341.978 481.07 341.05C480.637 340.107 479.949 339.349 479.005 338.777C478.062 338.205 476.825 337.919 475.294 337.919H468.29V367.05H462.469V333.28H475.294C477.908 333.28 480.126 333.744 481.951 334.672C483.791 335.584 485.19 336.852 486.149 338.476C487.108 340.084 487.587 341.924 487.587 343.996C487.587 346.176 487.108 348.047 486.149 349.608C485.19 351.17 483.791 352.368 481.951 353.203C480.126 354.038 477.908 354.456 475.294 354.456ZM510.316 347.637H513.656C514.955 347.637 516.03 347.413 516.88 346.964C517.746 346.516 518.388 345.897 518.805 345.109C519.223 344.32 519.431 343.416 519.431 342.395C519.431 341.328 519.238 340.416 518.852 339.658C518.48 338.885 517.908 338.29 517.135 337.873C516.378 337.455 515.411 337.246 514.236 337.246C513.247 337.246 512.35 337.447 511.546 337.849C510.757 338.236 510.131 338.793 509.667 339.519C509.203 340.231 508.971 341.081 508.971 342.071H503.358C503.358 340.277 503.83 338.684 504.773 337.293C505.716 335.901 507 334.811 508.623 334.022C510.262 333.218 512.102 332.816 514.143 332.816C516.323 332.816 518.225 333.18 519.849 333.906C521.488 334.618 522.764 335.685 523.676 337.107C524.588 338.53 525.044 340.292 525.044 342.395C525.044 343.354 524.82 344.328 524.372 345.318C523.923 346.307 523.258 347.212 522.377 348.031C521.496 348.835 520.398 349.492 519.083 350.003C517.769 350.497 516.246 350.745 514.514 350.745H510.316V347.637ZM510.316 351.997V348.936H514.514C516.494 348.936 518.179 349.168 519.571 349.632C520.978 350.095 522.122 350.737 523.003 351.557C523.885 352.361 524.526 353.281 524.928 354.317C525.346 355.353 525.554 356.45 525.554 357.61C525.554 359.187 525.268 360.594 524.696 361.831C524.14 363.053 523.343 364.089 522.307 364.939C521.271 365.79 520.058 366.431 518.666 366.864C517.29 367.297 515.79 367.514 514.167 367.514C512.713 367.514 511.321 367.313 509.992 366.911C508.662 366.509 507.471 365.913 506.42 365.125C505.368 364.321 504.534 363.323 503.915 362.133C503.312 360.927 503.01 359.535 503.01 357.958H508.6C508.6 358.963 508.832 359.852 509.296 360.625C509.775 361.383 510.44 361.978 511.291 362.411C512.156 362.844 513.146 363.061 514.259 363.061C515.434 363.061 516.447 362.852 517.298 362.434C518.148 362.017 518.797 361.398 519.246 360.579C519.71 359.759 519.942 358.77 519.942 357.61C519.942 356.296 519.687 355.229 519.176 354.409C518.666 353.59 517.939 352.987 516.996 352.6C516.053 352.198 514.94 351.997 513.656 351.997H510.316Z" fill="white"></path><defs><radialGradient id="paint0_radial_2476_16456" cx="0" cy="0" r="1" gradientUnits="userSpaceOnUse" gradientTransform="translate(486.049 300.67) rotate(-56.0154) scale(569.019 448.038)"><stop stop-color="#47B132"></stop><stop offset="0.90419"></stop></radialGradient><linearGradient id="paint1_linear_2476_16456" x1="473.795" y1="-4.53291" x2="372.469" y2="428.927" gradientUnits="userSpaceOnUse"><stop stop-color="#5BC446"></stop><stop offset="0.808722" stop-color="#2D741F"></stop></linearGradient><linearGradient id="paint2_linear_2476_16456" x1="292.208" y1="162.088" x2="136.112" y2="742.745" gradientUnits="userSpaceOnUse"><stop stop-color="#5BC446"></stop><stop offset="0.808722" stop-color="#2D741F"></stop></linearGradient><linearGradient id="paint3_linear_2476_16456" x1="598.526" y1="229.28" x2="493.387" y2="785.881" gradientUnits="userSpaceOnUse"><stop stop-color="#5BC446"></stop><stop offset="0.808722" stop-color="#2D741F"></stop></linearGradient><linearGradient id="paint4_linear_2476_16456" x1="636.874" y1="160.895" x2="607.429" y2="364.172" gradientUnits="userSpaceOnUse"><stop stop-color="#5BC446"></stop><stop offset="0.808722" stop-color="#2D741F"></stop></linearGradient><linearGradient id="paint5_linear_2476_16456" x1="465.237" y1="-56.1058" x2="868.428" y2="1493.86" gradientUnits="userSpaceOnUse"><stop stop-color="#7ED54B"></stop><stop offset="1" stop-opacity="0.2"></stop></linearGradient><linearGradient id="paint6_linear_2476_16456" x1="732.158" y1="312.309" x2="774.313" y2="316.525" gradientUnits="userSpaceOnUse"><stop stop-color="#7BDC41"></stop><stop offset="1" stop-color="#5BBD47"></stop></linearGradient><linearGradient id="paint7_linear_2476_16456" x1="776.154" y1="337.782" x2="758.985" y2="320.613" gradientUnits="userSpaceOnUse"><stop stop-color="#449933"></stop><stop offset="1" stop-color="#154B09"></stop></linearGradient><linearGradient id="paint8_linear_2476_16456" x1="91.3958" y1="312.309" x2="133.551" y2="316.525" gradientUnits="userSpaceOnUse"><stop stop-color="#7BDC41"></stop><stop offset="1" stop-color="#5BBD47"></stop></linearGradient><linearGradient id="paint9_linear_2476_16456" x1="135.392" y1="337.782" x2="118.224" y2="320.613" gradientUnits="userSpaceOnUse"><stop stop-color="#449933"></stop><stop offset="1" stop-color="#154B09"></stop></linearGradient><linearGradient id="paint10_linear_2476_16456" x1="91.3958" y1="480.929" x2="133.551" y2="485.145" gradientUnits="userSpaceOnUse"><stop stop-color="#7BDC41"></stop><stop offset="1" stop-color="#5BBD47"></stop></linearGradient><linearGradient id="paint11_linear_2476_16456" x1="135.392" y1="506.402" x2="118.224" y2="489.233" gradientUnits="userSpaceOnUse"><stop stop-color="#449933"></stop><stop offset="1" stop-color="#154B09"></stop></linearGradient><linearGradient id="paint12_linear_2476_16456" x1="203.81" y1="615.826" x2="245.965" y2="620.041" gradientUnits="userSpaceOnUse"><stop stop-color="#7BDC41"></stop><stop offset="1" stop-color="#5BBD47"></stop></linearGradient><linearGradient id="paint13_linear_2476_16456" x1="247.806" y1="641.298" x2="230.638" y2="624.13" gradientUnits="userSpaceOnUse"><stop stop-color="#449933"></stop><stop offset="1" stop-color="#154B09"></stop></linearGradient><linearGradient id="paint14_linear_2476_16456" x1="428.638" y1="649.55" x2="470.793" y2="653.766" gradientUnits="userSpaceOnUse"><stop stop-color="#7BDC41"></stop><stop offset="1" stop-color="#5BBD47"></stop></linearGradient><linearGradient id="paint15_linear_2476_16456" x1="472.634" y1="675.023" x2="455.466" y2="657.854" gradientUnits="userSpaceOnUse"><stop stop-color="#449933"></stop><stop offset="1" stop-color="#154B09"></stop></linearGradient><linearGradient id="paint16_linear_2476_16456" x1="419.927" y1="374.838" x2="455.056" y2="378.351" gradientUnits="userSpaceOnUse"><stop stop-color="#7BDC41"></stop><stop offset="1" stop-color="#5BBD47"></stop></linearGradient><linearGradient id="paint17_linear_2476_16456" x1="456.591" y1="396.065" x2="442.283" y2="381.758" gradientUnits="userSpaceOnUse"><stop stop-color="#449933"></stop><stop offset="1" stop-color="#154B09"></stop></linearGradient><linearGradient id="paint18_linear_2476_16456" x1="344.61" y1="318.632" x2="379.74" y2="322.145" gradientUnits="userSpaceOnUse"><stop stop-color="#7BDC41"></stop><stop offset="1" stop-color="#5BBD47"></stop></linearGradient><linearGradient id="paint19_linear_2476_16456" x1="381.274" y1="339.859" x2="366.967" y2="325.552" gradientUnits="userSpaceOnUse"><stop stop-color="#449933"></stop><stop offset="1" stop-color="#154B09"></stop></linearGradient><linearGradient id="paint20_linear_2476_16456" x1="397.442" y1="106.169" x2="432.572" y2="109.682" gradientUnits="userSpaceOnUse"><stop stop-color="#7BDC41"></stop><stop offset="1" stop-color="#5BBD47"></stop></linearGradient><linearGradient id="paint21_linear_2476_16456" x1="434.106" y1="127.397" x2="419.799" y2="113.089" gradientUnits="userSpaceOnUse"><stop stop-color="#449933"></stop><stop offset="1" stop-color="#154B09"></stop></linearGradient><linearGradient id="paint22_linear_2476_16456" x1="329.997" y1="218.584" x2="365.126" y2="222.096" gradientUnits="userSpaceOnUse"><stop stop-color="#7BDC41"></stop><stop offset="1" stop-color="#5BBD47"></stop></linearGradient><linearGradient id="paint23_linear_2476_16456" x1="366.661" y1="239.811" x2="352.354" y2="225.503" gradientUnits="userSpaceOnUse"><stop stop-color="#449933"></stop><stop offset="1" stop-color="#154B09"></stop></linearGradient><linearGradient id="paint24_linear_2476_16456" x1="532.341" y1="144.39" x2="567.47" y2="147.903" gradientUnits="userSpaceOnUse"><stop stop-color="#7BDC41"></stop><stop offset="1" stop-color="#5BBD47"></stop></linearGradient><linearGradient id="paint25_linear_2476_16456" x1="569.005" y1="165.617" x2="554.697" y2="151.31" gradientUnits="userSpaceOnUse"><stop stop-color="#449933"></stop><stop offset="1" stop-color="#154B09"></stop></linearGradient><linearGradient id="paint26_linear_2476_16456" x1="252.431" y1="509.735" x2="287.56" y2="513.248" gradientUnits="userSpaceOnUse"><stop stop-color="#7BDC41"></stop><stop offset="1" stop-color="#5BBD47"></stop></linearGradient><linearGradient id="paint27_linear_2476_16456" x1="289.094" y1="530.962" x2="274.787" y2="516.655" gradientUnits="userSpaceOnUse"><stop stop-color="#449933"></stop><stop offset="1" stop-color="#154B09"></stop></linearGradient><linearGradient id="paint28_linear_2476_16456" x1="218.704" y1="343.363" x2="253.834" y2="346.876" gradientUnits="userSpaceOnUse"><stop stop-color="#7BDC41"></stop><stop offset="1" stop-color="#5BBD47"></stop></linearGradient><linearGradient id="paint29_linear_2476_16456" x1="255.368" y1="364.59" x2="241.061" y2="350.283" gradientUnits="userSpaceOnUse"><stop stop-color="#449933"></stop><stop offset="1" stop-color="#154B09"></stop></linearGradient><linearGradient id="paint30_linear_2476_16456" x1="526.72" y1="524.349" x2="561.849" y2="527.862" gradientUnits="userSpaceOnUse"><stop stop-color="#7BDC41"></stop><stop offset="1" stop-color="#5BBD47"></stop></linearGradient><linearGradient id="paint31_linear_2476_16456" x1="563.383" y1="545.576" x2="549.076" y2="531.269" gradientUnits="userSpaceOnUse"><stop stop-color="#449933"></stop><stop offset="1" stop-color="#154B09"></stop></linearGradient><linearGradient id="paint32_linear_2476_16456" x1="658.243" y1="436.667" x2="693.373" y2="440.179" gradientUnits="userSpaceOnUse"><stop stop-color="#7BDC41"></stop><stop offset="1" stop-color="#5BBD47"></stop></linearGradient><linearGradient id="paint33_linear_2476_16456" x1="694.907" y1="457.894" x2="680.6" y2="443.586" gradientUnits="userSpaceOnUse"><stop stop-color="#449933"></stop><stop offset="1" stop-color="#154B09"></stop></linearGradient><linearGradient id="paint34_linear_2476_16456" x1="526.72" y1="368.094" x2="561.849" y2="371.607" gradientUnits="userSpaceOnUse"><stop stop-color="#7BDC41"></stop><stop offset="1" stop-color="#5BBD47"></stop></linearGradient><linearGradient id="paint35_linear_2476_16456" x1="563.383" y1="389.321" x2="549.076" y2="375.014" gradientUnits="userSpaceOnUse"><stop stop-color="#449933"></stop><stop offset="1" stop-color="#154B09"></stop></linearGradient><linearGradient id="paint36_linear_2476_16456" x1="679.322" y1="569.736" x2="721.477" y2="573.951" gradientUnits="userSpaceOnUse"><stop stop-color="#7BDC41"></stop><stop offset="1" stop-color="#5BBD47"></stop></linearGradient><linearGradient id="paint37_linear_2476_16456" x1="723.318" y1="595.208" x2="706.149" y2="578.04" gradientUnits="userSpaceOnUse"><stop stop-color="#449933"></stop><stop offset="1" stop-color="#154B09"></stop></linearGradient><linearGradient id="paint38_linear_2476_16456" x1="779.368" y1="478.681" x2="821.524" y2="482.897" gradientUnits="userSpaceOnUse"><stop stop-color="#7BDC41"></stop><stop offset="1" stop-color="#5BBD47"></stop></linearGradient><linearGradient id="paint39_linear_2476_16456" x1="823.365" y1="504.154" x2="806.196" y2="486.985" gradientUnits="userSpaceOnUse"><stop stop-color="#449933"></stop><stop offset="1" stop-color="#154B09"></stop></linearGradient><linearGradient id="paint40_linear_2476_16456" x1="736.654" y1="189.778" x2="778.809" y2="193.993" gradientUnits="userSpaceOnUse"><stop stop-color="#7BDC41"></stop><stop offset="1" stop-color="#5BBD47"></stop></linearGradient><linearGradient id="paint41_linear_2476_16456" x1="780.65" y1="215.25" x2="763.481" y2="198.082" gradientUnits="userSpaceOnUse"><stop stop-color="#449933"></stop><stop offset="1" stop-color="#154B09"></stop></linearGradient><linearGradient id="paint42_linear_2476_16456" x1="656.837" y1="108.839" x2="698.992" y2="113.055" gradientUnits="userSpaceOnUse"><stop stop-color="#7BDC41"></stop><stop offset="1" stop-color="#5BBD47"></stop></linearGradient><linearGradient id="paint43_linear_2476_16456" x1="700.834" y1="134.312" x2="683.665" y2="117.143" gradientUnits="userSpaceOnUse"><stop stop-color="#449933"></stop><stop offset="1" stop-color="#154B09"></stop></linearGradient><linearGradient id="paint44_linear_2476_16456" x1="517.447" y1="38.019" x2="559.602" y2="42.2345" gradientUnits="userSpaceOnUse"><stop stop-color="#7BDC41"></stop><stop offset="1" stop-color="#5BBD47"></stop></linearGradient><linearGradient id="paint45_linear_2476_16456" x1="561.443" y1="63.4917" x2="544.274" y2="46.323" gradientUnits="userSpaceOnUse"><stop stop-color="#449933"></stop><stop offset="1" stop-color="#154B09"></stop></linearGradient><linearGradient id="paint46_linear_2476_16456" x1="191.447" y1="49.2602" x2="233.602" y2="53.4757" gradientUnits="userSpaceOnUse"><stop stop-color="#7BDC41"></stop><stop offset="1" stop-color="#5BBD47"></stop></linearGradient><linearGradient id="paint47_linear_2476_16456" x1="235.443" y1="74.7329" x2="218.274" y2="57.5642" gradientUnits="userSpaceOnUse"><stop stop-color="#449933"></stop><stop offset="1" stop-color="#154B09"></stop></linearGradient><linearGradient id="paint48_linear_2476_16456" x1="67.7904" y1="161.674" x2="109.946" y2="165.89" gradientUnits="userSpaceOnUse"><stop stop-color="#7BDC41"></stop><stop offset="1" stop-color="#5BBD47"></stop></linearGradient><linearGradient id="paint49_linear_2476_16456" x1="111.787" y1="187.147" x2="94.6181" y2="169.978" gradientUnits="userSpaceOnUse"><stop stop-color="#449933"></stop><stop offset="1" stop-color="#154B09"></stop></linearGradient><linearGradient id="paint50_linear_2476_16456" x1="304.998" y1="282" x2="616.998" y2="428" gradientUnits="userSpaceOnUse"><stop stop-color="#0F0F0F"></stop><stop offset="0.484375" stop-color="#353535"></stop><stop offset="1" stop-color="#0F0F0F"></stop></linearGradient></defs></svg>