<svg xmlns="http://www.w3.org/2000/svg" width="1167" height="507" viewBox="0 0 1167 507" fill="none"><g clip-path="url(#clip0_1572_20977)"><rect width="1167" height="507" rx="8" fill="#111111"/><g style="mix-blend-mode:screen" opacity="0.14"><path d="M80.9541 413.709L81.8995 414.035L81.9387 413.921L81.9498 413.801L80.9541 413.709ZM45.6953 516V517H46.4084L46.6407 516.326L45.6953 516ZM24.3779 516L23.442 515.648L22.9331 517H24.3779V516ZM68.7959 397.984V396.984H68.1038L67.86 397.632L68.7959 397.984ZM82.4131 397.984L83.4088 398.077L83.5102 396.984H82.4131V397.984ZM110.458 516L109.513 516.327L109.745 517H110.458V516ZM75.1182 413.709L74.1229 413.806L74.1344 413.924L74.173 414.036L75.1182 413.709ZM73.5781 397.984V396.984H72.4754L72.5829 398.082L73.5781 397.984ZM87.2764 397.984L88.2118 397.631L87.9676 396.984H87.2764V397.984ZM131.856 516V517H133.303L132.792 515.647L131.856 516ZM108.756 472.23H109.756V471.23H108.756V472.23ZM108.756 488.36V489.36H109.756V488.36H108.756ZM44.5605 488.36H43.5605V489.36H44.5605V488.36ZM44.5605 472.23V471.23H43.5605V472.23H44.5605ZM80.0087 413.383L44.7499 515.674L46.6407 516.326L81.8995 414.035L80.0087 413.383ZM45.6953 515H24.3779V517H45.6953V515ZM25.3138 516.352L69.7318 398.337L67.86 397.632L23.442 515.648L25.3138 516.352ZM68.7959 398.984H82.4131V396.984H68.7959V398.984ZM81.4174 397.892L79.9584 413.617L81.9498 413.801L83.4088 398.077L81.4174 397.892ZM111.403 515.673L76.0633 413.382L74.173 414.036L109.513 516.327L111.403 515.673ZM76.1134 413.612L74.5734 397.887L72.5829 398.082L74.1229 413.806L76.1134 413.612ZM73.5781 398.984H87.2764V396.984H73.5781V398.984ZM86.3409 398.338L130.921 516.353L132.792 515.647L88.2118 397.631L86.3409 398.338ZM131.856 515H110.458V517H131.856V515ZM107.756 472.23V488.36H109.756V472.23H107.756ZM108.756 487.36H44.5605V489.36H108.756V487.36ZM45.5605 488.36V472.23H43.5605V488.36H45.5605ZM44.5605 473.23H108.756V471.23H44.5605V473.23ZM165.413 397.984H166.413V396.984H165.413V397.984ZM165.413 516V517H166.413V516H165.413ZM145.068 516H144.068V517H145.068V516ZM145.068 397.984V396.984H144.068V397.984H145.068ZM236.336 397.984L237.101 398.628L238.485 396.984H236.336V397.984ZM188.514 454.804L189.241 455.49L189.26 455.469L189.279 455.448L188.514 454.804ZM161.279 483.659L160.295 483.833L160.641 485.793L162.007 484.346L161.279 483.659ZM157.713 463.477L156.936 462.847L156.649 463.201L156.728 463.651L157.713 463.477ZM177.166 439.484L176.396 438.847L176.389 438.855L177.166 439.484ZM211.533 397.984V396.984H211.063L210.763 397.347L211.533 397.984ZM214.451 516L213.63 516.57L213.928 517H214.451V516ZM175.626 460.072L174.923 459.361L174.325 459.952L174.805 460.643L175.626 460.072ZM189.648 446.212L190.467 445.638L189.787 444.669L188.945 445.501L189.648 446.212ZM238.605 516V517H240.529L239.424 515.426L238.605 516ZM164.413 397.984V516H166.413V397.984H164.413ZM165.413 515H145.068V517H165.413V515ZM146.068 516V397.984H144.068V516H146.068ZM145.068 398.984H165.413V396.984H145.068V398.984ZM235.571 397.34L187.749 454.16L189.279 455.448L237.101 398.628L235.571 397.34ZM187.786 454.117L160.552 482.973L162.007 484.346L189.241 455.49L187.786 454.117ZM162.264 483.485L158.698 463.303L156.728 463.651L160.295 483.833L162.264 483.485ZM158.49 464.106L177.943 440.114L176.389 438.855L156.936 462.847L158.49 464.106ZM177.936 440.122L212.303 398.622L210.763 397.347L176.396 438.847L177.936 440.122ZM211.533 398.984H236.336V396.984H211.533V398.984ZM215.273 515.43L176.447 459.502L174.805 460.643L213.63 516.57L215.273 515.43ZM176.329 460.783L190.351 446.923L188.945 445.501L174.923 459.361L176.329 460.783ZM188.83 446.786L237.787 516.574L239.424 515.426L190.467 445.638L188.83 446.786ZM238.605 515H214.451V517H238.605V515ZM295.911 413.709L296.857 414.035L296.896 413.921L296.907 413.801L295.911 413.709ZM260.652 516V517H261.365L261.598 516.326L260.652 516ZM239.335 516L238.399 515.648L237.89 517H239.335V516ZM283.753 397.984V396.984H283.061L282.817 397.632L283.753 397.984ZM297.37 397.984L298.366 398.077L298.467 396.984H297.37V397.984ZM325.415 516L324.47 516.327L324.703 517H325.415V516ZM290.075 413.709L289.08 413.806L289.091 413.924L289.13 414.036L290.075 413.709ZM288.535 397.984V396.984H287.432L287.54 398.082L288.535 397.984ZM302.233 397.984L303.169 397.631L302.925 396.984H302.233V397.984ZM346.813 516V517H348.26L347.749 515.647L346.813 516ZM323.713 472.23H324.713V471.23H323.713V472.23ZM323.713 488.36V489.36H324.713V488.36H323.713ZM259.518 488.36H258.518V489.36H259.518V488.36ZM259.518 472.23V471.23H258.518V472.23H259.518ZM294.966 413.383L259.707 515.674L261.598 516.326L296.857 414.035L294.966 413.383ZM260.652 515H239.335V517H260.652V515ZM240.271 516.352L284.689 398.337L282.817 397.632L238.399 515.648L240.271 516.352ZM283.753 398.984H297.37V396.984H283.753V398.984ZM296.374 397.892L294.915 413.617L296.907 413.801L298.366 398.077L296.374 397.892ZM326.36 515.673L291.02 413.382L289.13 414.036L324.47 516.327L326.36 515.673ZM291.07 413.612L289.53 397.887L287.54 398.082L289.08 413.806L291.07 413.612ZM288.535 398.984H302.233V396.984H288.535V398.984ZM301.298 398.338L345.878 516.353L347.749 515.647L303.169 397.631L301.298 398.338ZM346.813 515H325.415V517H346.813V515ZM322.713 472.23V488.36H324.713V472.23H322.713ZM323.713 487.36H259.518V489.36H323.713V487.36ZM260.518 488.36V472.23H258.518V488.36H260.518ZM259.518 473.23H323.713V471.23H259.518V473.23ZM368.293 397.984V396.984H366.842L367.359 398.341L368.293 397.984ZM386.449 397.984L387.386 397.633L387.142 396.984H386.449V397.984ZM420.573 489.009L419.637 489.36L420.574 491.861L421.51 489.359L420.573 489.009ZM454.616 397.984V396.984H453.923L453.68 397.634L454.616 397.984ZM472.772 397.984L473.707 398.341L474.225 396.984H472.772V397.984ZM427.706 516V517H428.395L428.64 516.357L427.706 516ZM413.278 516L412.344 516.356L412.589 517H413.278V516ZM360.025 397.984V396.984H359.025V397.984H360.025ZM377.29 397.984L378.289 397.946L378.253 396.984H377.29V397.984ZM380.289 476.77H381.289V476.751L381.288 476.731L380.289 476.77ZM380.289 516V517H381.289V516H380.289ZM360.025 516H359.025V517H360.025V516ZM463.775 397.984V396.984H462.813L462.776 397.946L463.775 397.984ZM481.121 397.984H482.121V396.984H481.121V397.984ZM481.121 516V517H482.121V516H481.121ZM460.776 516H459.776V517H460.776V516ZM460.776 476.77L459.777 476.731L459.776 476.751V476.77H460.776ZM368.293 398.984H386.449V396.984H368.293V398.984ZM385.513 398.335L419.637 489.36L421.51 488.658L387.386 397.633L385.513 398.335ZM421.51 489.359L455.553 398.335L453.68 397.634L419.637 488.658L421.51 489.359ZM454.616 398.984H472.772V396.984H454.616V398.984ZM471.838 397.628L426.772 515.643L428.64 516.357L473.707 398.341L471.838 397.628ZM427.706 515H413.278V517H427.706V515ZM414.213 515.644L369.227 397.628L367.359 398.341L412.344 516.356L414.213 515.644ZM360.025 398.984H377.29V396.984H360.025V398.984ZM376.291 398.022L379.29 476.808L381.288 476.731L378.289 397.946L376.291 398.022ZM379.289 476.77V516H381.289V476.77H379.289ZM380.289 515H360.025V517H380.289V515ZM361.025 516V397.984H359.025V516H361.025ZM463.775 398.984H481.121V396.984H463.775V398.984ZM480.121 397.984V516H482.121V397.984H480.121ZM481.121 515H460.776V517H481.121V515ZM461.776 516V476.77H459.776V516H461.776ZM461.776 476.808L464.775 398.022L462.776 397.946L459.777 476.731L461.776 476.808ZM552.692 413.709L553.638 414.035L553.677 413.921L553.688 413.801L552.692 413.709ZM517.434 516V517H518.147L518.379 516.326L517.434 516ZM496.116 516L495.18 515.648L494.671 517H496.116V516ZM540.534 397.984V396.984H539.842L539.598 397.632L540.534 397.984ZM554.151 397.984L555.147 398.077L555.248 396.984H554.151V397.984ZM582.196 516L581.251 516.327L581.484 517H582.196V516ZM546.856 413.709L545.861 413.806L545.873 413.924L545.911 414.036L546.856 413.709ZM545.316 397.984V396.984H544.214L544.321 398.082L545.316 397.984ZM559.015 397.984L559.95 397.631L559.706 396.984H559.015V397.984ZM603.595 516V517H605.041L604.53 515.647L603.595 516ZM580.494 472.23H581.494V471.23H580.494V472.23ZM580.494 488.36V489.36H581.494V488.36H580.494ZM516.299 488.36H515.299V489.36H516.299V488.36ZM516.299 472.23V471.23H515.299V472.23H516.299ZM551.747 413.383L516.488 515.674L518.379 516.326L553.638 414.035L551.747 413.383ZM517.434 515H496.116V517H517.434V515ZM497.052 516.352L541.47 398.337L539.598 397.632L495.18 515.648L497.052 516.352ZM540.534 398.984H554.151V396.984H540.534V398.984ZM553.156 397.892L551.697 413.617L553.688 413.801L555.147 398.077L553.156 397.892ZM583.141 515.673L547.802 413.382L545.911 414.036L581.251 516.327L583.141 515.673ZM547.852 413.612L546.312 397.887L544.321 398.082L545.861 413.806L547.852 413.612ZM545.316 398.984H559.015V396.984H545.316V398.984ZM558.079 398.338L602.659 516.353L604.53 515.647L559.95 397.631L558.079 398.338ZM603.595 515H582.196V517H603.595V515ZM579.494 472.23V488.36H581.494V472.23H579.494ZM580.494 487.36H516.299V489.36H580.494V487.36ZM517.299 488.36V472.23H515.299V488.36H517.299ZM516.299 473.23H580.494V471.23H516.299V473.23ZM638.529 397.984H639.529V396.984H638.529V397.984ZM638.529 516V517H639.529V516H638.529ZM618.185 516H617.185V517H618.185V516ZM618.185 397.984V396.984H617.185V397.984H618.185ZM637.529 397.984V516H639.529V397.984H637.529ZM638.529 515H618.185V517H638.529V515ZM619.185 516V397.984H617.185V516H619.185ZM618.185 398.984H638.529V396.984H618.185V398.984Z" fill="white"/></g><g style="mix-blend-mode:screen" opacity="0.14"><path d="M730.954 255.709L731.9 256.035L731.939 255.921L731.95 255.801L730.954 255.709ZM695.695 358V359H696.408L696.641 358.326L695.695 358ZM674.378 358L673.442 357.648L672.933 359H674.378V358ZM718.796 239.984V238.984H718.104L717.86 239.632L718.796 239.984ZM732.413 239.984L733.409 240.077L733.51 238.984H732.413V239.984ZM760.458 358L759.513 358.327L759.745 359H760.458V358ZM725.118 255.709L724.123 255.806L724.134 255.924L724.173 256.036L725.118 255.709ZM723.578 239.984V238.984H722.475L722.583 240.082L723.578 239.984ZM737.276 239.984L738.212 239.631L737.968 238.984H737.276V239.984ZM781.856 358V359H783.303L782.792 357.647L781.856 358ZM758.756 314.23H759.756V313.23H758.756V314.23ZM758.756 330.36V331.36H759.756V330.36H758.756ZM694.561 330.36H693.561V331.36H694.561V330.36ZM694.561 314.23V313.23H693.561V314.23H694.561ZM730.009 255.383L694.75 357.674L696.641 358.326L731.9 256.035L730.009 255.383ZM695.695 357H674.378V359H695.695V357ZM675.314 358.352L719.732 240.337L717.86 239.632L673.442 357.648L675.314 358.352ZM718.796 240.984H732.413V238.984H718.796V240.984ZM731.417 239.892L729.958 255.617L731.95 255.801L733.409 240.077L731.417 239.892ZM761.403 357.673L726.063 255.382L724.173 256.036L759.513 358.327L761.403 357.673ZM726.113 255.612L724.573 239.887L722.583 240.082L724.123 255.806L726.113 255.612ZM723.578 240.984H737.276V238.984H723.578V240.984ZM736.341 240.338L780.921 358.353L782.792 357.647L738.212 239.631L736.341 240.338ZM781.856 357H760.458V359H781.856V357ZM757.756 314.23V330.36H759.756V314.23H757.756ZM758.756 329.36H694.561V331.36H758.756V329.36ZM695.561 330.36V314.23H693.561V330.36H695.561ZM694.561 315.23H758.756V313.23H694.561V315.23ZM815.413 239.984H816.413V238.984H815.413V239.984ZM815.413 358V359H816.413V358H815.413ZM795.068 358H794.068V359H795.068V358ZM795.068 239.984V238.984H794.068V239.984H795.068ZM886.336 239.984L887.101 240.628L888.485 238.984H886.336V239.984ZM838.514 296.804L839.241 297.49L839.26 297.469L839.279 297.448L838.514 296.804ZM811.279 325.659L810.295 325.833L810.641 327.793L812.007 326.346L811.279 325.659ZM807.713 305.477L806.936 304.847L806.649 305.201L806.728 305.651L807.713 305.477ZM827.166 281.484L826.396 280.847L826.389 280.855L827.166 281.484ZM861.533 239.984V238.984H861.063L860.763 239.347L861.533 239.984ZM864.451 358L863.63 358.57L863.928 359H864.451V358ZM825.626 302.072L824.923 301.361L824.325 301.952L824.805 302.643L825.626 302.072ZM839.648 288.212L840.467 287.638L839.787 286.669L838.945 287.501L839.648 288.212ZM888.605 358V359H890.529L889.424 357.426L888.605 358ZM814.413 239.984V358H816.413V239.984H814.413ZM815.413 357H795.068V359H815.413V357ZM796.068 358V239.984H794.068V358H796.068ZM795.068 240.984H815.413V238.984H795.068V240.984ZM885.571 239.34L837.749 296.16L839.279 297.448L887.101 240.628L885.571 239.34ZM837.786 296.117L810.552 324.973L812.007 326.346L839.241 297.49L837.786 296.117ZM812.264 325.485L808.698 305.303L806.728 305.651L810.295 325.833L812.264 325.485ZM808.49 306.106L827.943 282.114L826.389 280.855L806.936 304.847L808.49 306.106ZM827.936 282.122L862.303 240.622L860.763 239.347L826.396 280.847L827.936 282.122ZM861.533 240.984H886.336V238.984H861.533V240.984ZM865.273 357.43L826.447 301.502L824.805 302.643L863.63 358.57L865.273 357.43ZM826.329 302.783L840.351 288.923L838.945 287.501L824.923 301.361L826.329 302.783ZM838.83 288.786L887.787 358.574L889.424 357.426L840.467 287.638L838.83 288.786ZM888.605 357H864.451V359H888.605V357ZM945.911 255.709L946.857 256.035L946.896 255.921L946.907 255.801L945.911 255.709ZM910.652 358V359H911.365L911.598 358.326L910.652 358ZM889.335 358L888.399 357.648L887.89 359H889.335V358ZM933.753 239.984V238.984H933.061L932.817 239.632L933.753 239.984ZM947.37 239.984L948.366 240.077L948.467 238.984H947.37V239.984ZM975.415 358L974.47 358.327L974.703 359H975.415V358ZM940.075 255.709L939.08 255.806L939.091 255.924L939.13 256.036L940.075 255.709ZM938.535 239.984V238.984H937.432L937.54 240.082L938.535 239.984ZM952.233 239.984L953.169 239.631L952.925 238.984H952.233V239.984ZM996.813 358V359H998.26L997.749 357.647L996.813 358ZM973.713 314.23H974.713V313.23H973.713V314.23ZM973.713 330.36V331.36H974.713V330.36H973.713ZM909.518 330.36H908.518V331.36H909.518V330.36ZM909.518 314.23V313.23H908.518V314.23H909.518ZM944.966 255.383L909.707 357.674L911.598 358.326L946.857 256.035L944.966 255.383ZM910.652 357H889.335V359H910.652V357ZM890.271 358.352L934.689 240.337L932.817 239.632L888.399 357.648L890.271 358.352ZM933.753 240.984H947.37V238.984H933.753V240.984ZM946.374 239.892L944.915 255.617L946.907 255.801L948.366 240.077L946.374 239.892ZM976.36 357.673L941.02 255.382L939.13 256.036L974.47 358.327L976.36 357.673ZM941.07 255.612L939.53 239.887L937.54 240.082L939.08 255.806L941.07 255.612ZM938.535 240.984H952.233V238.984H938.535V240.984ZM951.298 240.338L995.878 358.353L997.749 357.647L953.169 239.631L951.298 240.338ZM996.813 357H975.415V359H996.813V357ZM972.713 314.23V330.36H974.713V314.23H972.713ZM973.713 329.36H909.518V331.36H973.713V329.36ZM910.518 330.36V314.23H908.518V330.36H910.518ZM909.518 315.23H973.713V313.23H909.518V315.23ZM1018.29 239.984V238.984H1016.84L1017.36 240.341L1018.29 239.984ZM1036.45 239.984L1037.39 239.633L1037.14 238.984H1036.45V239.984ZM1070.57 331.009L1069.64 331.36L1070.57 333.861L1071.51 331.359L1070.57 331.009ZM1104.62 239.984V238.984H1103.92L1103.68 239.634L1104.62 239.984ZM1122.77 239.984L1123.71 240.341L1124.22 238.984H1122.77V239.984ZM1077.71 358V359H1078.39L1078.64 358.357L1077.71 358ZM1063.28 358L1062.34 358.356L1062.59 359H1063.28V358ZM1010.03 239.984V238.984H1009.03V239.984H1010.03ZM1027.29 239.984L1028.29 239.946L1028.25 238.984H1027.29V239.984ZM1030.29 318.77H1031.29V318.751L1031.29 318.731L1030.29 318.77ZM1030.29 358V359H1031.29V358H1030.29ZM1010.03 358H1009.03V359H1010.03V358ZM1113.78 239.984V238.984H1112.81L1112.78 239.946L1113.78 239.984ZM1131.12 239.984H1132.12V238.984H1131.12V239.984ZM1131.12 358V359H1132.12V358H1131.12ZM1110.78 358H1109.78V359H1110.78V358ZM1110.78 318.77L1109.78 318.731L1109.78 318.751V318.77H1110.78ZM1018.29 240.984H1036.45V238.984H1018.29V240.984ZM1035.51 240.335L1069.64 331.36L1071.51 330.658L1037.39 239.633L1035.51 240.335ZM1071.51 331.359L1105.55 240.335L1103.68 239.634L1069.64 330.658L1071.51 331.359ZM1104.62 240.984H1122.77V238.984H1104.62V240.984ZM1121.84 239.628L1076.77 357.643L1078.64 358.357L1123.71 240.341L1121.84 239.628ZM1077.71 357H1063.28V359H1077.71V357ZM1064.21 357.644L1019.23 239.628L1017.36 240.341L1062.34 358.356L1064.21 357.644ZM1010.03 240.984H1027.29V238.984H1010.03V240.984ZM1026.29 240.022L1029.29 318.808L1031.29 318.731L1028.29 239.946L1026.29 240.022ZM1029.29 318.77V358H1031.29V318.77H1029.29ZM1030.29 357H1010.03V359H1030.29V357ZM1011.03 358V239.984H1009.03V358H1011.03ZM1113.78 240.984H1131.12V238.984H1113.78V240.984ZM1130.12 239.984V358H1132.12V239.984H1130.12ZM1131.12 357H1110.78V359H1131.12V357ZM1111.78 358V318.77H1109.78V358H1111.78ZM1111.78 318.808L1114.77 240.022L1112.78 239.946L1109.78 318.731L1111.78 318.808ZM1202.69 255.709L1203.64 256.035L1203.68 255.921L1203.69 255.801L1202.69 255.709ZM1167.43 358V359H1168.15L1168.38 358.326L1167.43 358ZM1146.12 358L1145.18 357.648L1144.67 359H1146.12V358ZM1190.53 239.984V238.984H1189.84L1189.6 239.632L1190.53 239.984ZM1204.15 239.984L1205.15 240.077L1205.25 238.984H1204.15V239.984ZM1232.2 358L1231.25 358.327L1231.48 359H1232.2V358ZM1196.86 255.709L1195.86 255.806L1195.87 255.924L1195.91 256.036L1196.86 255.709ZM1195.32 239.984V238.984H1194.21L1194.32 240.082L1195.32 239.984ZM1209.01 239.984L1209.95 239.631L1209.71 238.984H1209.01V239.984ZM1253.59 358V359H1255.04L1254.53 357.647L1253.59 358ZM1230.49 314.23H1231.49V313.23H1230.49V314.23ZM1230.49 330.36V331.36H1231.49V330.36H1230.49ZM1166.3 330.36H1165.3V331.36H1166.3V330.36ZM1166.3 314.23V313.23H1165.3V314.23H1166.3ZM1201.75 255.383L1166.49 357.674L1168.38 358.326L1203.64 256.035L1201.75 255.383ZM1167.43 357H1146.12V359H1167.43V357ZM1147.05 358.352L1191.47 240.337L1189.6 239.632L1145.18 357.648L1147.05 358.352ZM1190.53 240.984H1204.15V238.984H1190.53V240.984ZM1203.16 239.892L1201.7 255.617L1203.69 255.801L1205.15 240.077L1203.16 239.892ZM1233.14 357.673L1197.8 255.382L1195.91 256.036L1231.25 358.327L1233.14 357.673ZM1197.85 255.612L1196.31 239.887L1194.32 240.082L1195.86 255.806L1197.85 255.612ZM1195.32 240.984H1209.01V238.984H1195.32V240.984ZM1208.08 240.338L1252.66 358.353L1254.53 357.647L1209.95 239.631L1208.08 240.338ZM1253.59 357H1232.2V359H1253.59V357ZM1229.49 314.23V330.36H1231.49V314.23H1229.49ZM1230.49 329.36H1166.3V331.36H1230.49V329.36ZM1167.3 330.36V314.23H1165.3V330.36H1167.3ZM1166.3 315.23H1230.49V313.23H1166.3V315.23ZM1288.53 239.984H1289.53V238.984H1288.53V239.984ZM1288.53 358V359H1289.53V358H1288.53ZM1268.18 358H1267.18V359H1268.18V358ZM1268.18 239.984V238.984H1267.18V239.984H1268.18ZM1287.53 239.984V358H1289.53V239.984H1287.53ZM1288.53 357H1268.18V359H1288.53V357ZM1269.18 358V239.984H1267.18V358H1269.18ZM1268.18 240.984H1288.53V238.984H1268.18V240.984Z" fill="white"/></g><g style="mix-blend-mode:screen" opacity="0.14"><path d="M-24.0459 255.709L-23.1005 256.035L-23.0613 255.921L-23.0502 255.801L-24.0459 255.709ZM-59.3047 358V359H-58.5916L-58.3593 358.326L-59.3047 358ZM-80.6221 358L-81.558 357.648L-82.0669 359H-80.6221V358ZM-36.2041 239.984V238.984H-36.8962L-37.14 239.632L-36.2041 239.984ZM-22.5869 239.984L-21.5912 240.077L-21.4898 238.984H-22.5869V239.984ZM5.45801 358L4.51283 358.327L4.74549 359H5.45801V358ZM-29.8818 255.709L-30.8771 255.806L-30.8656 255.924L-30.827 256.036L-29.8818 255.709ZM-31.4219 239.984V238.984H-32.5246L-32.4171 240.082L-31.4219 239.984ZM-17.7236 239.984L-16.7882 239.631L-17.0324 238.984H-17.7236V239.984ZM26.8564 358V359H28.3032L27.7919 357.647L26.8564 358ZM3.75586 314.23H4.75586V313.23H3.75586V314.23ZM3.75586 330.36V331.36H4.75586V330.36H3.75586ZM-60.4395 330.36H-61.4395V331.36H-60.4395V330.36ZM-60.4395 314.23V313.23H-61.4395V314.23H-60.4395ZM-24.9913 255.383L-60.2501 357.674L-58.3593 358.326L-23.1005 256.035L-24.9913 255.383ZM-59.3047 357H-80.6221V359H-59.3047V357ZM-79.6862 358.352L-35.2682 240.337L-37.14 239.632L-81.558 357.648L-79.6862 358.352ZM-36.2041 240.984H-22.5869V238.984H-36.2041V240.984ZM-23.5826 239.892L-25.0416 255.617L-23.0502 255.801L-21.5912 240.077L-23.5826 239.892ZM6.40319 357.673L-28.9367 255.382L-30.827 256.036L4.51283 358.327L6.40319 357.673ZM-28.8866 255.612L-30.4266 239.887L-32.4171 240.082L-30.8771 255.806L-28.8866 255.612ZM-31.4219 240.984H-17.7236V238.984H-31.4219V240.984ZM-18.6591 240.338L25.921 358.353L27.7919 357.647L-16.7882 239.631L-18.6591 240.338ZM26.8564 357H5.45801V359H26.8564V357ZM2.75586 314.23V330.36H4.75586V314.23H2.75586ZM3.75586 329.36H-60.4395V331.36H3.75586V329.36ZM-59.4395 330.36V314.23H-61.4395V330.36H-59.4395ZM-60.4395 315.23H3.75586V313.23H-60.4395V315.23ZM60.4131 239.984H61.4131V238.984H60.4131V239.984ZM60.4131 358V359H61.4131V358H60.4131ZM40.0684 358H39.0684V359H40.0684V358ZM40.0684 239.984V238.984H39.0684V239.984H40.0684ZM131.336 239.984L132.101 240.628L133.485 238.984H131.336V239.984ZM83.5137 296.804L84.2409 297.49L84.2604 297.469L84.2787 297.448L83.5137 296.804ZM56.2793 325.659L55.2946 325.833L55.6408 327.793L57.0065 326.346L56.2793 325.659ZM52.7129 305.477L51.9361 304.847L51.6487 305.201L51.7281 305.651L52.7129 305.477ZM72.166 281.484L71.3958 280.847L71.3893 280.855L72.166 281.484ZM106.533 239.984V238.984H106.063L105.763 239.347L106.533 239.984ZM109.451 358L108.63 358.57L108.928 359H109.451V358ZM70.626 302.072L69.923 301.361L69.3251 301.952L69.8045 302.643L70.626 302.072ZM84.6484 288.212L85.4671 287.638L84.7873 286.669L83.9454 287.501L84.6484 288.212ZM133.605 358V359H135.529L134.424 357.426L133.605 358ZM59.4131 239.984V358H61.4131V239.984H59.4131ZM60.4131 357H40.0684V359H60.4131V357ZM41.0684 358V239.984H39.0684V358H41.0684ZM40.0684 240.984H60.4131V238.984H40.0684V240.984ZM130.571 239.34L82.7486 296.16L84.2787 297.448L132.101 240.628L130.571 239.34ZM82.7864 296.117L55.5521 324.973L57.0065 326.346L84.2409 297.49L82.7864 296.117ZM57.264 325.485L53.6976 305.303L51.7281 305.651L55.2946 325.833L57.264 325.485ZM53.4896 306.106L72.9428 282.114L71.3893 280.855L51.9361 304.847L53.4896 306.106ZM72.9362 282.122L107.303 240.622L105.763 239.347L71.3958 280.847L72.9362 282.122ZM106.533 240.984H131.336V238.984H106.533V240.984ZM110.273 357.43L71.4474 301.502L69.8045 302.643L108.63 358.57L110.273 357.43ZM71.329 302.783L85.3514 288.923L83.9454 287.501L69.923 301.361L71.329 302.783ZM83.8298 288.786L132.787 358.574L134.424 357.426L85.4671 287.638L83.8298 288.786ZM133.605 357H109.451V359H133.605V357ZM190.911 255.709L191.857 256.035L191.896 255.921L191.907 255.801L190.911 255.709ZM155.652 358V359H156.365L156.598 358.326L155.652 358ZM134.335 358L133.399 357.648L132.89 359H134.335V358ZM178.753 239.984V238.984H178.061L177.817 239.632L178.753 239.984ZM192.37 239.984L193.366 240.077L193.467 238.984H192.37V239.984ZM220.415 358L219.47 358.327L219.703 359H220.415V358ZM185.075 255.709L184.08 255.806L184.091 255.924L184.13 256.036L185.075 255.709ZM183.535 239.984V238.984H182.432L182.54 240.082L183.535 239.984ZM197.233 239.984L198.169 239.631L197.925 238.984H197.233V239.984ZM241.813 358V359H243.26L242.749 357.647L241.813 358ZM218.713 314.23H219.713V313.23H218.713V314.23ZM218.713 330.36V331.36H219.713V330.36H218.713ZM154.518 330.36H153.518V331.36H154.518V330.36ZM154.518 314.23V313.23H153.518V314.23H154.518ZM189.966 255.383L154.707 357.674L156.598 358.326L191.857 256.035L189.966 255.383ZM155.652 357H134.335V359H155.652V357ZM135.271 358.352L179.689 240.337L177.817 239.632L133.399 357.648L135.271 358.352ZM178.753 240.984H192.37V238.984H178.753V240.984ZM191.374 239.892L189.915 255.617L191.907 255.801L193.366 240.077L191.374 239.892ZM221.36 357.673L186.02 255.382L184.13 256.036L219.47 358.327L221.36 357.673ZM186.07 255.612L184.53 239.887L182.54 240.082L184.08 255.806L186.07 255.612ZM183.535 240.984H197.233V238.984H183.535V240.984ZM196.298 240.338L240.878 358.353L242.749 357.647L198.169 239.631L196.298 240.338ZM241.813 357H220.415V359H241.813V357ZM217.713 314.23V330.36H219.713V314.23H217.713ZM218.713 329.36H154.518V331.36H218.713V329.36ZM155.518 330.36V314.23H153.518V330.36H155.518ZM154.518 315.23H218.713V313.23H154.518V315.23ZM263.293 239.984V238.984H261.842L262.359 240.341L263.293 239.984ZM281.449 239.984L282.386 239.633L282.142 238.984H281.449V239.984ZM315.573 331.009L314.637 331.36L315.574 333.861L316.51 331.359L315.573 331.009ZM349.616 239.984V238.984H348.923L348.68 239.634L349.616 239.984ZM367.772 239.984L368.707 240.341L369.225 238.984H367.772V239.984ZM322.706 358V359H323.395L323.64 358.357L322.706 358ZM308.278 358L307.344 358.356L307.589 359H308.278V358ZM255.025 239.984V238.984H254.025V239.984H255.025ZM272.29 239.984L273.289 239.946L273.253 238.984H272.29V239.984ZM275.289 318.77H276.289V318.751L276.288 318.731L275.289 318.77ZM275.289 358V359H276.289V358H275.289ZM255.025 358H254.025V359H255.025V358ZM358.775 239.984V238.984H357.813L357.776 239.946L358.775 239.984ZM376.121 239.984H377.121V238.984H376.121V239.984ZM376.121 358V359H377.121V358H376.121ZM355.776 358H354.776V359H355.776V358ZM355.776 318.77L354.777 318.731L354.776 318.751V318.77H355.776ZM263.293 240.984H281.449V238.984H263.293V240.984ZM280.513 240.335L314.637 331.36L316.51 330.658L282.386 239.633L280.513 240.335ZM316.51 331.359L350.553 240.335L348.68 239.634L314.637 330.658L316.51 331.359ZM349.616 240.984H367.772V238.984H349.616V240.984ZM366.838 239.628L321.772 357.643L323.64 358.357L368.707 240.341L366.838 239.628ZM322.706 357H308.278V359H322.706V357ZM309.213 357.644L264.227 239.628L262.359 240.341L307.344 358.356L309.213 357.644ZM255.025 240.984H272.29V238.984H255.025V240.984ZM271.291 240.022L274.29 318.808L276.288 318.731L273.289 239.946L271.291 240.022ZM274.289 318.77V358H276.289V318.77H274.289ZM275.289 357H255.025V359H275.289V357ZM256.025 358V239.984H254.025V358H256.025ZM358.775 240.984H376.121V238.984H358.775V240.984ZM375.121 239.984V358H377.121V239.984H375.121ZM376.121 357H355.776V359H376.121V357ZM356.776 358V318.77H354.776V358H356.776ZM356.776 318.808L359.775 240.022L357.776 239.946L354.777 318.731L356.776 318.808ZM447.692 255.709L448.638 256.035L448.677 255.921L448.688 255.801L447.692 255.709ZM412.434 358V359H413.147L413.379 358.326L412.434 358ZM391.116 358L390.18 357.648L389.671 359H391.116V358ZM435.534 239.984V238.984H434.842L434.598 239.632L435.534 239.984ZM449.151 239.984L450.147 240.077L450.248 238.984H449.151V239.984ZM477.196 358L476.251 358.327L476.484 359H477.196V358ZM441.856 255.709L440.861 255.806L440.873 255.924L440.911 256.036L441.856 255.709ZM440.316 239.984V238.984H439.214L439.321 240.082L440.316 239.984ZM454.015 239.984L454.95 239.631L454.706 238.984H454.015V239.984ZM498.595 358V359H500.041L499.53 357.647L498.595 358ZM475.494 314.23H476.494V313.23H475.494V314.23ZM475.494 330.36V331.36H476.494V330.36H475.494ZM411.299 330.36H410.299V331.36H411.299V330.36ZM411.299 314.23V313.23H410.299V314.23H411.299ZM446.747 255.383L411.488 357.674L413.379 358.326L448.638 256.035L446.747 255.383ZM412.434 357H391.116V359H412.434V357ZM392.052 358.352L436.47 240.337L434.598 239.632L390.18 357.648L392.052 358.352ZM435.534 240.984H449.151V238.984H435.534V240.984ZM448.156 239.892L446.697 255.617L448.688 255.801L450.147 240.077L448.156 239.892ZM478.141 357.673L442.802 255.382L440.911 256.036L476.251 358.327L478.141 357.673ZM442.852 255.612L441.312 239.887L439.321 240.082L440.861 255.806L442.852 255.612ZM440.316 240.984H454.015V238.984H440.316V240.984ZM453.079 240.338L497.659 358.353L499.53 357.647L454.95 239.631L453.079 240.338ZM498.595 357H477.196V359H498.595V357ZM474.494 314.23V330.36H476.494V314.23H474.494ZM475.494 329.36H411.299V331.36H475.494V329.36ZM412.299 330.36V314.23H410.299V330.36H412.299ZM411.299 315.23H475.494V313.23H411.299V315.23ZM533.529 239.984H534.529V238.984H533.529V239.984ZM533.529 358V359H534.529V358H533.529ZM513.185 358H512.185V359H513.185V358ZM513.185 239.984V238.984H512.185V239.984H513.185ZM532.529 239.984V358H534.529V239.984H532.529ZM533.529 357H513.185V359H533.529V357ZM514.185 358V239.984H512.185V358H514.185ZM513.185 240.984H533.529V238.984H513.185V240.984Z" fill="white"/></g><g style="mix-blend-mode:screen" opacity="0.14"><path d="M29.3805 35.1857L30.6265 35.6152L30.6782 35.4653L30.6928 35.3074L29.3805 35.1857ZM-17.0887 170V171.318H-16.149L-15.8427 170.429L-17.0887 170ZM-45.184 170L-46.4174 169.536L-47.0882 171.318H-45.184V170ZM13.3566 14.4615V13.1435H12.4445L12.1232 13.9972L13.3566 14.4615ZM31.3034 14.4615L32.6157 14.5832L32.7493 13.1435H31.3034V14.4615ZM68.2652 170L67.0195 170.43L67.3261 171.318H68.2652V170ZM21.6891 35.1857L20.3774 35.3142L20.3926 35.469L20.4434 35.6161L21.6891 35.1857ZM19.6594 14.4615V13.1435H18.206L18.3477 14.5899L19.6594 14.4615ZM37.713 14.4615L38.9459 13.9957L38.6239 13.1435H37.713V14.4615ZM96.4672 170V171.318H98.3739L97.7001 169.534L96.4672 170ZM66.0218 112.314H67.3398V110.996H66.0218V112.314ZM66.0218 133.572V134.89H67.3398V133.572H66.0218ZM-18.5843 133.572H-19.9023V134.89H-18.5843V133.572ZM-18.5843 112.314V110.996H-19.9023V112.314H-18.5843ZM28.1345 34.7562L-18.3347 169.571L-15.8427 170.429L30.6265 35.6152L28.1345 34.7562ZM-17.0887 168.682H-45.184V171.318H-17.0887V168.682ZM-43.9505 170.464L14.5901 14.9257L12.1232 13.9972L-46.4174 169.536L-43.9505 170.464ZM13.3566 15.7794H31.3034V13.1435H13.3566V15.7794ZM29.9911 14.3397L28.0682 35.0639L30.6928 35.3074L32.6157 14.5832L29.9911 14.3397ZM69.5109 169.57L22.9348 34.7553L20.4434 35.6161L67.0195 170.43L69.5109 169.57ZM23.0007 35.0572L20.971 14.333L18.3477 14.5899L20.3774 35.3142L23.0007 35.0572ZM19.6594 15.7794H37.713V13.1435H19.6594V15.7794ZM36.48 14.9272L95.2343 170.466L97.7001 169.534L38.9459 13.9957L36.48 14.9272ZM96.4672 168.682H68.2652V171.318H96.4672V168.682ZM64.7039 112.314V133.572H67.3398V112.314H64.7039ZM66.0218 132.254H-18.5843V134.89H66.0218V132.254ZM-17.2664 133.572V112.314H-19.9023V133.572H-17.2664ZM-18.5843 113.632H66.0218V110.996H-18.5843V113.632ZM140.693 14.4615H142.011V13.1435H140.693V14.4615ZM140.693 170V171.318H142.011V170H140.693ZM113.88 170H112.562V171.318H113.88V170ZM113.88 14.4615V13.1435H112.562V14.4615H113.88ZM234.166 14.4615L235.174 15.3101L236.998 13.1435H234.166V14.4615ZM171.139 89.3464L172.097 90.2511L172.123 90.2238L172.147 90.1951L171.139 89.3464ZM135.245 127.376L133.947 127.606L134.404 130.188L136.203 128.281L135.245 127.376ZM130.545 100.777L129.521 99.9468L129.142 100.414L129.247 101.006L130.545 100.777ZM156.183 69.1563L155.168 68.3157L155.159 68.3263L156.183 69.1563ZM201.477 14.4615V13.1435H200.857L200.462 13.6209L201.477 14.4615ZM205.323 170L204.24 170.752L204.633 171.318H205.323V170ZM154.153 96.2901L153.227 95.3528L152.439 96.1316L153.071 97.0417L154.153 96.2901ZM172.634 78.0229L173.713 77.266L172.817 75.9889L171.708 77.0855L172.634 78.0229ZM237.157 170V171.318H239.691L238.236 169.243L237.157 170ZM139.375 14.4615V170H142.011V14.4615H139.375ZM140.693 168.682H113.88V171.318H140.693V168.682ZM115.198 170V14.4615H112.562V170H115.198ZM113.88 15.7794H140.693V13.1435H113.88V15.7794ZM233.157 13.6128L170.13 88.4978L172.147 90.1951L235.174 15.3101L233.157 13.6128ZM170.18 88.4418L134.287 126.472L136.203 128.281L172.097 90.2511L170.18 88.4418ZM136.543 127.147L131.843 100.547L129.247 101.006L133.947 127.606L136.543 127.147ZM131.568 101.607L157.207 69.9864L155.159 68.3263L129.521 99.9468L131.568 101.607ZM157.198 69.9969L202.492 15.3021L200.462 13.6209L155.168 68.3157L157.198 69.9969ZM201.477 15.7794H234.166V13.1435H201.477V15.7794ZM206.405 169.248L155.236 95.5385L153.071 97.0417L204.24 170.752L206.405 169.248ZM155.08 97.2274L173.561 78.9602L171.708 77.0855L153.227 95.3528L155.08 97.2274ZM171.555 78.7798L236.078 170.757L238.236 169.243L173.713 77.266L171.555 78.7798ZM237.157 168.682H205.323V171.318H237.157V168.682ZM312.683 35.1857L313.929 35.6152L313.981 35.4653L313.995 35.3074L312.683 35.1857ZM266.214 170V171.318H267.153L267.46 170.429L266.214 170ZM238.118 170L236.885 169.536L236.214 171.318H238.118V170ZM296.659 14.4615V13.1435H295.747L295.426 13.9972L296.659 14.4615ZM314.606 14.4615L315.918 14.5832L316.052 13.1435H314.606V14.4615ZM351.568 170L350.322 170.43L350.628 171.318H351.568V170ZM304.991 35.1857L303.68 35.3142L303.695 35.469L303.746 35.6161L304.991 35.1857ZM302.962 14.4615V13.1435H301.508L301.65 14.5899L302.962 14.4615ZM321.015 14.4615L322.248 13.9957L321.926 13.1435H321.015V14.4615ZM379.77 170V171.318H381.676L381.002 169.534L379.77 170ZM349.324 112.314H350.642V110.996H349.324V112.314ZM349.324 133.572V134.89H350.642V133.572H349.324ZM264.718 133.572H263.4V134.89H264.718V133.572ZM264.718 112.314V110.996H263.4V112.314H264.718ZM311.437 34.7562L264.968 169.571L267.46 170.429L313.929 35.6152L311.437 34.7562ZM266.214 168.682H238.118V171.318H266.214V168.682ZM239.352 170.464L297.892 14.9257L295.426 13.9972L236.885 169.536L239.352 170.464ZM296.659 15.7794H314.606V13.1435H296.659V15.7794ZM313.293 14.3397L311.371 35.0639L313.995 35.3074L315.918 14.5832L313.293 14.3397ZM352.813 169.57L306.237 34.7553L303.746 35.6161L350.322 170.43L352.813 169.57ZM306.303 35.0572L304.273 14.333L301.65 14.5899L303.68 35.3142L306.303 35.0572ZM302.962 15.7794H321.015V13.1435H302.962V15.7794ZM319.782 14.9272L378.537 170.466L381.002 169.534L322.248 13.9957L319.782 14.9272ZM379.77 168.682H351.568V171.318H379.77V168.682ZM348.006 112.314V133.572H350.642V112.314H348.006ZM349.324 132.254H264.718V134.89H349.324V132.254ZM266.036 133.572V112.314H263.4V133.572H266.036ZM264.718 113.632H349.324V110.996H264.718V113.632ZM408.078 14.4615V13.1435H406.166L406.847 14.9309L408.078 14.4615ZM432.007 14.4615L433.242 13.9988L432.921 13.1435H432.007V14.4615ZM476.981 134.427L475.747 134.89L476.983 138.185L478.216 134.889L476.981 134.427ZM521.848 14.4615V13.1435H520.934L520.614 13.9998L521.848 14.4615ZM545.777 14.4615L547.008 14.9316L547.691 13.1435H545.777V14.4615ZM486.382 170V171.318H487.289L487.613 170.47L486.382 170ZM467.367 170L466.135 170.469L466.459 171.318H467.367V170ZM397.182 14.4615V13.1435H395.864V14.4615H397.182ZM419.936 14.4615L421.253 14.4113L421.205 13.1435H419.936V14.4615ZM423.889 118.296H425.207V118.271L425.206 118.246L423.889 118.296ZM423.889 170V171.318H425.207V170H423.889ZM397.182 170H395.864V171.318H397.182V170ZM533.919 14.4615V13.1435H532.651L532.602 14.4113L533.919 14.4615ZM556.78 14.4615H558.098V13.1435H556.78V14.4615ZM556.78 170V171.318H558.098V170H556.78ZM529.967 170H528.649V171.318H529.967V170ZM529.967 118.296L528.65 118.246L528.649 118.271V118.296H529.967ZM408.078 15.7794H432.007V13.1435H408.078V15.7794ZM430.773 14.9241L475.747 134.89L478.215 133.964L433.242 13.9988L430.773 14.9241ZM478.216 134.889L523.082 14.9231L520.614 13.9998L475.747 133.965L478.216 134.889ZM521.848 15.7794H545.777V13.1435H521.848V15.7794ZM544.546 13.9913L485.151 169.53L487.613 170.47L547.008 14.9316L544.546 13.9913ZM486.382 168.682H467.367V171.318H486.382V168.682ZM468.598 169.531L409.31 13.992L406.847 14.9309L466.135 170.469L468.598 169.531ZM397.182 15.7794H419.936V13.1435H397.182V15.7794ZM418.619 14.5116L422.572 118.346L425.206 118.246L421.253 14.4113L418.619 14.5116ZM422.571 118.296V170H425.207V118.296H422.571ZM423.889 168.682H397.182V171.318H423.889V168.682ZM398.5 170V14.4615H395.864V170H398.5ZM533.919 15.7794H556.78V13.1435H533.919V15.7794ZM555.462 14.4615V170H558.098V14.4615H555.462ZM556.78 168.682H529.967V171.318H556.78V168.682ZM531.285 170V118.296H528.649V170H531.285ZM531.284 118.346L535.236 14.5116L532.602 14.4113L528.65 118.246L531.284 118.346ZM651.107 35.1857L652.353 35.6152L652.405 35.4653L652.42 35.3074L651.107 35.1857ZM604.638 170V171.318H605.578L605.884 170.429L604.638 170ZM576.543 170L575.309 169.536L574.639 171.318H576.543V170ZM635.083 14.4615V13.1435H634.171L633.85 13.9972L635.083 14.4615ZM653.03 14.4615L654.343 14.5832L654.476 13.1435H653.03V14.4615ZM689.992 170L688.746 170.43L689.053 171.318H689.992V170ZM643.416 35.1857L642.104 35.3142L642.119 35.469L642.17 35.6161L643.416 35.1857ZM641.386 14.4615V13.1435H639.933L640.075 14.5899L641.386 14.4615ZM659.44 14.4615L660.673 13.9957L660.351 13.1435H659.44V14.4615ZM718.194 170V171.318H720.101L719.427 169.534L718.194 170ZM687.749 112.314H689.067V110.996H687.749V112.314ZM687.749 133.572V134.89H689.067V133.572H687.749ZM603.143 133.572H601.825V134.89H603.143V133.572ZM603.143 112.314V110.996H601.825V112.314H603.143ZM649.861 34.7562L603.392 169.571L605.884 170.429L652.353 35.6152L649.861 34.7562ZM604.638 168.682H576.543V171.318H604.638V168.682ZM577.776 170.464L636.317 14.9257L633.85 13.9972L575.309 169.536L577.776 170.464ZM635.083 15.7794H653.03V13.1435H635.083V15.7794ZM651.718 14.3397L649.795 35.0639L652.42 35.3074L654.343 14.5832L651.718 14.3397ZM691.238 169.57L644.662 34.7553L642.17 35.6161L688.746 170.43L691.238 169.57ZM644.728 35.0572L642.698 14.333L640.075 14.5899L642.104 35.3142L644.728 35.0572ZM641.386 15.7794H659.44V13.1435H641.386V15.7794ZM658.207 14.9272L716.961 170.466L719.427 169.534L660.673 13.9957L658.207 14.9272ZM718.194 168.682H689.992V171.318H718.194V168.682ZM686.431 112.314V133.572H689.067V112.314H686.431ZM687.749 132.254H603.143V134.89H687.749V132.254ZM604.46 133.572V112.314H601.825V133.572H604.46ZM603.143 113.632H687.749V110.996H603.143V113.632ZM764.236 14.4615H765.554V13.1435H764.236V14.4615ZM764.236 170V171.318H765.554V170H764.236ZM737.423 170H736.105V171.318H737.423V170ZM737.423 14.4615V13.1435H736.105V14.4615H737.423ZM762.918 14.4615V170H765.554V14.4615H762.918ZM764.236 168.682H737.423V171.318H764.236V168.682ZM738.741 170V14.4615H736.105V170H738.741ZM737.423 15.7794H764.236V13.1435H737.423V15.7794Z" fill="white"/></g><g style="mix-blend-mode:screen" opacity="0.14"><path d="M894.954 9.70898L895.9 10.0349L895.939 9.92114L895.95 9.80137L894.954 9.70898ZM859.695 112V113H860.408L860.641 112.326L859.695 112ZM838.378 112L837.442 111.648L836.933 113H838.378V112ZM882.796 -6.01562V-7.01562H882.104L881.86 -6.36787L882.796 -6.01562ZM896.413 -6.01562L897.409 -5.92324L897.51 -7.01562H896.413V-6.01562ZM924.458 112L923.513 112.327L923.745 113H924.458V112ZM889.118 9.70898L888.123 9.80646L888.134 9.92395L888.173 10.0355L889.118 9.70898ZM887.578 -6.01562V-7.01562H886.475L886.583 -5.91815L887.578 -6.01562ZM901.276 -6.01562L902.212 -6.369L901.968 -7.01562H901.276V-6.01562ZM945.856 112V113H947.303L946.792 111.647L945.856 112ZM922.756 68.2305H923.756V67.2305H922.756V68.2305ZM922.756 84.3604V85.3604H923.756V84.3604H922.756ZM858.561 84.3604H857.561V85.3604H858.561V84.3604ZM858.561 68.2305V67.2305H857.561V68.2305H858.561ZM894.009 9.38311L858.75 111.674L860.641 112.326L895.9 10.0349L894.009 9.38311ZM859.695 111H838.378V113H859.695V111ZM839.314 112.352L883.732 -5.66338L881.86 -6.36787L837.442 111.648L839.314 112.352ZM882.796 -5.01562H896.413V-7.01562H882.796V-5.01562ZM895.417 -6.10801L893.958 9.6166L895.95 9.80137L897.409 -5.92324L895.417 -6.10801ZM925.403 111.673L890.063 9.38244L888.173 10.0355L923.513 112.327L925.403 111.673ZM890.113 9.61151L888.573 -6.1131L886.583 -5.91815L888.123 9.80646L890.113 9.61151ZM887.578 -5.01562H901.276V-7.01562H887.578V-5.01562ZM900.341 -5.66225L944.921 112.353L946.792 111.647L902.212 -6.369L900.341 -5.66225ZM945.856 111H924.458V113H945.856V111ZM921.756 68.2305V84.3604H923.756V68.2305H921.756ZM922.756 83.3604H858.561V85.3604H922.756V83.3604ZM859.561 84.3604V68.2305H857.561V84.3604H859.561ZM858.561 69.2305H922.756V67.2305H858.561V69.2305ZM979.413 -6.01562H980.413V-7.01562H979.413V-6.01562ZM979.413 112V113H980.413V112H979.413ZM959.068 112H958.068V113H959.068V112ZM959.068 -6.01562V-7.01562H958.068V-6.01562H959.068ZM1050.34 -6.01562L1051.1 -5.37169L1052.48 -7.01562H1050.34V-6.01562ZM1002.51 50.8037L1003.24 51.4901L1003.26 51.4694L1003.28 51.4476L1002.51 50.8037ZM975.279 79.6592L974.295 79.8332L974.641 81.7926L976.007 80.3456L975.279 79.6592ZM971.713 59.4766L970.936 58.8468L970.649 59.2012L970.728 59.6506L971.713 59.4766ZM991.166 35.4844L990.396 34.8465L990.389 34.8546L991.166 35.4844ZM1025.53 -6.01562V-7.01562H1025.06L1024.76 -6.65344L1025.53 -6.01562ZM1028.45 112L1027.63 112.57L1027.93 113H1028.45V112ZM989.626 56.0723L988.923 55.3611L988.325 55.952L988.805 56.6425L989.626 56.0723ZM1003.65 42.2119L1004.47 41.6376L1003.79 40.6686L1002.95 41.5007L1003.65 42.2119ZM1052.61 112V113H1054.53L1053.42 111.426L1052.61 112ZM978.413 -6.01562V112H980.413V-6.01562H978.413ZM979.413 111H959.068V113H979.413V111ZM960.068 112V-6.01562H958.068V112H960.068ZM959.068 -5.01562H979.413V-7.01562H959.068V-5.01562ZM1049.57 -6.65956L1001.75 50.1598L1003.28 51.4476L1051.1 -5.37169L1049.57 -6.65956ZM1001.79 50.1173L974.552 78.9728L976.007 80.3456L1003.24 51.4901L1001.79 50.1173ZM976.264 79.4852L972.698 59.3026L970.728 59.6506L974.295 79.8332L976.264 79.4852ZM972.49 60.1064L991.943 36.1142L990.389 34.8546L970.936 58.8468L972.49 60.1064ZM991.936 36.1222L1026.3 -5.37781L1024.76 -6.65344L990.396 34.8466L991.936 36.1222ZM1025.53 -5.01562H1050.34V-7.01562H1025.53V-5.01562ZM1029.27 111.43L990.447 55.502L988.805 56.6425L1027.63 112.57L1029.27 111.43ZM990.329 56.7835L1004.35 42.9231L1002.95 41.5007L988.923 55.3611L990.329 56.7835ZM1002.83 42.7862L1051.79 112.574L1053.42 111.426L1004.47 41.6376L1002.83 42.7862ZM1052.61 111H1028.45V113H1052.61V111ZM1109.91 9.70898L1110.86 10.0349L1110.9 9.92114L1110.91 9.80137L1109.91 9.70898ZM1074.65 112V113H1075.37L1075.6 112.326L1074.65 112ZM1053.33 112L1052.4 111.648L1051.89 113H1053.33V112ZM1097.75 -6.01562V-7.01562H1097.06L1096.82 -6.36787L1097.75 -6.01562ZM1111.37 -6.01562L1112.37 -5.92324L1112.47 -7.01562H1111.37V-6.01562ZM1139.42 112L1138.47 112.327L1138.7 113H1139.42V112ZM1104.08 9.70898L1103.08 9.80646L1103.09 9.92395L1103.13 10.0355L1104.08 9.70898ZM1102.54 -6.01562V-7.01562H1101.43L1101.54 -5.91815L1102.54 -6.01562ZM1116.23 -6.01562L1117.17 -6.369L1116.92 -7.01562H1116.23V-6.01562ZM1160.81 112V113H1162.26L1161.75 111.647L1160.81 112ZM1137.71 68.2305H1138.71V67.2305H1137.71V68.2305ZM1137.71 84.3604V85.3604H1138.71V84.3604H1137.71ZM1073.52 84.3604H1072.52V85.3604H1073.52V84.3604ZM1073.52 68.2305V67.2305H1072.52V68.2305H1073.52ZM1108.97 9.38311L1073.71 111.674L1075.6 112.326L1110.86 10.0349L1108.97 9.38311ZM1074.65 111H1053.33V113H1074.65V111ZM1054.27 112.352L1098.69 -5.66338L1096.82 -6.36787L1052.4 111.648L1054.27 112.352ZM1097.75 -5.01562H1111.37V-7.01562H1097.75V-5.01562ZM1110.37 -6.10801L1108.92 9.6166L1110.91 9.80137L1112.37 -5.92324L1110.37 -6.10801ZM1140.36 111.673L1105.02 9.38244L1103.13 10.0355L1138.47 112.327L1140.36 111.673ZM1105.07 9.61151L1103.53 -6.1131L1101.54 -5.91815L1103.08 9.80646L1105.07 9.61151ZM1102.54 -5.01562H1116.23V-7.01562H1102.54V-5.01562ZM1115.3 -5.66225L1159.88 112.353L1161.75 111.647L1117.17 -6.369L1115.3 -5.66225ZM1160.81 111H1139.42V113H1160.81V111ZM1136.71 68.2305V84.3604H1138.71V68.2305H1136.71ZM1137.71 83.3604H1073.52V85.3604H1137.71V83.3604ZM1074.52 84.3604V68.2305H1072.52V84.3604H1074.52ZM1073.52 69.2305H1137.71V67.2305H1073.52V69.2305ZM1182.29 -6.01562V-7.01562H1180.84L1181.36 -5.65944L1182.29 -6.01562ZM1200.45 -6.01562L1201.39 -6.36666L1201.14 -7.01562H1200.45V-6.01562ZM1234.57 85.0088L1233.64 85.3598L1234.57 87.8605L1235.51 85.3591L1234.57 85.0088ZM1268.62 -6.01562V-7.01562H1267.92L1267.68 -6.36592L1268.62 -6.01562ZM1286.77 -6.01562L1287.71 -5.65888L1288.22 -7.01562H1286.77V-6.01562ZM1241.71 112V113H1242.39L1242.64 112.357L1241.71 112ZM1227.28 112L1226.34 112.356L1226.59 113H1227.28V112ZM1174.03 -6.01562V-7.01562H1173.03V-6.01562H1174.03ZM1191.29 -6.01562L1192.29 -6.05367L1192.25 -7.01562H1191.29V-6.01562ZM1194.29 72.7695H1195.29V72.7505L1195.29 72.7315L1194.29 72.7695ZM1194.29 112V113H1195.29V112H1194.29ZM1174.03 112H1173.03V113H1174.03V112ZM1277.78 -6.01562V-7.01562H1276.81L1276.78 -6.05367L1277.78 -6.01562ZM1295.12 -6.01562H1296.12V-7.01562H1295.12V-6.01562ZM1295.12 112V113H1296.12V112H1295.12ZM1274.78 112H1273.78V113H1274.78V112ZM1274.78 72.7695L1273.78 72.7315L1273.78 72.7505V72.7695H1274.78ZM1182.29 -5.01562H1200.45V-7.01562H1182.29V-5.01562ZM1199.51 -5.66459L1233.64 85.3598L1235.51 84.6578L1201.39 -6.36666L1199.51 -5.66459ZM1235.51 85.3591L1269.55 -5.66533L1267.68 -6.36592L1233.64 84.6585L1235.51 85.3591ZM1268.62 -5.01562H1286.77V-7.01562H1268.62V-5.01562ZM1285.84 -6.37237L1240.77 111.643L1242.64 112.357L1287.71 -5.65888L1285.84 -6.37237ZM1241.71 111H1227.28V113H1241.71V111ZM1228.21 111.644L1183.23 -6.37181L1181.36 -5.65944L1226.34 112.356L1228.21 111.644ZM1174.03 -5.01562H1191.29V-7.01562H1174.03V-5.01562ZM1190.29 -5.97758L1193.29 72.8076L1195.29 72.7315L1192.29 -6.05367L1190.29 -5.97758ZM1193.29 72.7695V112H1195.29V72.7695H1193.29ZM1194.29 111H1174.03V113H1194.29V111ZM1175.03 112V-6.01562H1173.03V112H1175.03ZM1277.78 -5.01562H1295.12V-7.01562H1277.78V-5.01562ZM1294.12 -6.01562V112H1296.12V-6.01562H1294.12ZM1295.12 111H1274.78V113H1295.12V111ZM1275.78 112V72.7695H1273.78V112H1275.78ZM1275.78 72.8076L1278.77 -5.97758L1276.78 -6.05367L1273.78 72.7315L1275.78 72.8076ZM1366.69 9.70898L1367.64 10.0349L1367.68 9.92114L1367.69 9.80137L1366.69 9.70898ZM1331.43 112V113H1332.15L1332.38 112.326L1331.43 112ZM1310.12 112L1309.18 111.648L1308.67 113H1310.12V112ZM1354.53 -6.01562V-7.01562H1353.84L1353.6 -6.36787L1354.53 -6.01562ZM1368.15 -6.01562L1369.15 -5.92324L1369.25 -7.01562H1368.15V-6.01562ZM1396.2 112L1395.25 112.327L1395.48 113H1396.2V112ZM1360.86 9.70898L1359.86 9.80646L1359.87 9.92395L1359.91 10.0355L1360.86 9.70898ZM1359.32 -6.01562V-7.01562H1358.21L1358.32 -5.91815L1359.32 -6.01562ZM1373.01 -6.01562L1373.95 -6.369L1373.71 -7.01562H1373.01V-6.01562ZM1417.59 112V113H1419.04L1418.53 111.647L1417.59 112ZM1394.49 68.2305H1395.49V67.2305H1394.49V68.2305ZM1394.49 84.3604V85.3604H1395.49V84.3604H1394.49ZM1330.3 84.3604H1329.3V85.3604H1330.3V84.3604ZM1330.3 68.2305V67.2305H1329.3V68.2305H1330.3ZM1365.75 9.38311L1330.49 111.674L1332.38 112.326L1367.64 10.0349L1365.75 9.38311ZM1331.43 111H1310.12V113H1331.43V111ZM1311.05 112.352L1355.47 -5.66338L1353.6 -6.36787L1309.18 111.648L1311.05 112.352ZM1354.53 -5.01562H1368.15V-7.01562H1354.53V-5.01562ZM1367.16 -6.10801L1365.7 9.6166L1367.69 9.80137L1369.15 -5.92324L1367.16 -6.10801ZM1397.14 111.673L1361.8 9.38244L1359.91 10.0355L1395.25 112.327L1397.14 111.673ZM1361.85 9.61151L1360.31 -6.1131L1358.32 -5.91815L1359.86 9.80646L1361.85 9.61151ZM1359.32 -5.01562H1373.01V-7.01562H1359.32V-5.01562ZM1372.08 -5.66225L1416.66 112.353L1418.53 111.647L1373.95 -6.369L1372.08 -5.66225ZM1417.59 111H1396.2V113H1417.59V111ZM1393.49 68.2305V84.3604H1395.49V68.2305H1393.49ZM1394.49 83.3604H1330.3V85.3604H1394.49V83.3604ZM1331.3 84.3604V68.2305H1329.3V84.3604H1331.3ZM1330.3 69.2305H1394.49V67.2305H1330.3V69.2305ZM1452.53 -6.01562H1453.53V-7.01562H1452.53V-6.01562ZM1452.53 112V113H1453.53V112H1452.53ZM1432.18 112H1431.18V113H1432.18V112ZM1432.18 -6.01562V-7.01562H1431.18V-6.01562H1432.18ZM1451.53 -6.01562V112H1453.53V-6.01562H1451.53ZM1452.53 111H1432.18V113H1452.53V111ZM1433.18 112V-6.01562H1431.18V112H1433.18ZM1432.18 -5.01562H1452.53V-7.01562H1432.18V-5.01562Z" fill="white"/></g><g style="mix-blend-mode:screen" opacity="0.14"><path d="M764.954 450.709L765.9 451.035L765.939 450.921L765.95 450.801L764.954 450.709ZM729.695 553V554H730.408L730.641 553.326L729.695 553ZM708.378 553L707.442 552.648L706.933 554H708.378V553ZM752.796 434.984V433.984H752.104L751.86 434.632L752.796 434.984ZM766.413 434.984L767.409 435.077L767.51 433.984H766.413V434.984ZM794.458 553L793.513 553.327L793.745 554H794.458V553ZM759.118 450.709L758.123 450.806L758.134 450.924L758.173 451.036L759.118 450.709ZM757.578 434.984V433.984H756.475L756.583 435.082L757.578 434.984ZM771.276 434.984L772.212 434.631L771.968 433.984H771.276V434.984ZM815.856 553V554H817.303L816.792 552.647L815.856 553ZM792.756 509.23H793.756V508.23H792.756V509.23ZM792.756 525.36V526.36H793.756V525.36H792.756ZM728.561 525.36H727.561V526.36H728.561V525.36ZM728.561 509.23V508.23H727.561V509.23H728.561ZM764.009 450.383L728.75 552.674L730.641 553.326L765.9 451.035L764.009 450.383ZM729.695 552H708.378V554H729.695V552ZM709.314 553.352L753.732 435.337L751.86 434.632L707.442 552.648L709.314 553.352ZM752.796 435.984H766.413V433.984H752.796V435.984ZM765.417 434.892L763.958 450.617L765.95 450.801L767.409 435.077L765.417 434.892ZM795.403 552.673L760.063 450.382L758.173 451.036L793.513 553.327L795.403 552.673ZM760.113 450.612L758.573 434.887L756.583 435.082L758.123 450.806L760.113 450.612ZM757.578 435.984H771.276V433.984H757.578V435.984ZM770.341 435.338L814.921 553.353L816.792 552.647L772.212 434.631L770.341 435.338ZM815.856 552H794.458V554H815.856V552ZM791.756 509.23V525.36H793.756V509.23H791.756ZM792.756 524.36H728.561V526.36H792.756V524.36ZM729.561 525.36V509.23H727.561V525.36H729.561ZM728.561 510.23H792.756V508.23H728.561V510.23ZM849.413 434.984H850.413V433.984H849.413V434.984ZM849.413 553V554H850.413V553H849.413ZM829.068 553H828.068V554H829.068V553ZM829.068 434.984V433.984H828.068V434.984H829.068ZM920.336 434.984L921.101 435.628L922.485 433.984H920.336V434.984ZM872.514 491.804L873.241 492.49L873.26 492.469L873.279 492.448L872.514 491.804ZM845.279 520.659L844.295 520.833L844.641 522.793L846.007 521.346L845.279 520.659ZM841.713 500.477L840.936 499.847L840.649 500.201L840.728 500.651L841.713 500.477ZM861.166 476.484L860.396 475.847L860.389 475.855L861.166 476.484ZM895.533 434.984V433.984H895.063L894.763 434.347L895.533 434.984ZM898.451 553L897.63 553.57L897.928 554H898.451V553ZM859.626 497.072L858.923 496.361L858.325 496.952L858.805 497.643L859.626 497.072ZM873.648 483.212L874.467 482.638L873.787 481.669L872.945 482.501L873.648 483.212ZM922.605 553V554H924.529L923.424 552.426L922.605 553ZM848.413 434.984V553H850.413V434.984H848.413ZM849.413 552H829.068V554H849.413V552ZM830.068 553V434.984H828.068V553H830.068ZM829.068 435.984H849.413V433.984H829.068V435.984ZM919.571 434.34L871.749 491.16L873.279 492.448L921.101 435.628L919.571 434.34ZM871.786 491.117L844.552 519.973L846.007 521.346L873.241 492.49L871.786 491.117ZM846.264 520.485L842.698 500.303L840.728 500.651L844.295 520.833L846.264 520.485ZM842.49 501.106L861.943 477.114L860.389 475.855L840.936 499.847L842.49 501.106ZM861.936 477.122L896.303 435.622L894.763 434.347L860.396 475.847L861.936 477.122ZM895.533 435.984H920.336V433.984H895.533V435.984ZM899.273 552.43L860.447 496.502L858.805 497.643L897.63 553.57L899.273 552.43ZM860.329 497.783L874.351 483.923L872.945 482.501L858.923 496.361L860.329 497.783ZM872.83 483.786L921.787 553.574L923.424 552.426L874.467 482.638L872.83 483.786ZM922.605 552H898.451V554H922.605V552ZM979.911 450.709L980.857 451.035L980.896 450.921L980.907 450.801L979.911 450.709ZM944.652 553V554H945.365L945.598 553.326L944.652 553ZM923.335 553L922.399 552.648L921.89 554H923.335V553ZM967.753 434.984V433.984H967.061L966.817 434.632L967.753 434.984ZM981.37 434.984L982.366 435.077L982.467 433.984H981.37V434.984ZM1009.42 553L1008.47 553.327L1008.7 554H1009.42V553ZM974.075 450.709L973.08 450.806L973.091 450.924L973.13 451.036L974.075 450.709ZM972.535 434.984V433.984H971.432L971.54 435.082L972.535 434.984ZM986.233 434.984L987.169 434.631L986.925 433.984H986.233V434.984ZM1030.81 553V554H1032.26L1031.75 552.647L1030.81 553ZM1007.71 509.23H1008.71V508.23H1007.71V509.23ZM1007.71 525.36V526.36H1008.71V525.36H1007.71ZM943.518 525.36H942.518V526.36H943.518V525.36ZM943.518 509.23V508.23H942.518V509.23H943.518ZM978.966 450.383L943.707 552.674L945.598 553.326L980.857 451.035L978.966 450.383ZM944.652 552H923.335V554H944.652V552ZM924.271 553.352L968.689 435.337L966.817 434.632L922.399 552.648L924.271 553.352ZM967.753 435.984H981.37V433.984H967.753V435.984ZM980.374 434.892L978.915 450.617L980.907 450.801L982.366 435.077L980.374 434.892ZM1010.36 552.673L975.02 450.382L973.13 451.036L1008.47 553.327L1010.36 552.673ZM975.07 450.612L973.53 434.887L971.54 435.082L973.08 450.806L975.07 450.612ZM972.535 435.984H986.233V433.984H972.535V435.984ZM985.298 435.338L1029.88 553.353L1031.75 552.647L987.169 434.631L985.298 435.338ZM1030.81 552H1009.42V554H1030.81V552ZM1006.71 509.23V525.36H1008.71V509.23H1006.71ZM1007.71 524.36H943.518V526.36H1007.71V524.36ZM944.518 525.36V509.23H942.518V525.36H944.518ZM943.518 510.23H1007.71V508.23H943.518V510.23ZM1052.29 434.984V433.984H1050.84L1051.36 435.341L1052.29 434.984ZM1070.45 434.984L1071.39 434.633L1071.14 433.984H1070.45V434.984ZM1104.57 526.009L1103.64 526.36L1104.57 528.861L1105.51 526.359L1104.57 526.009ZM1138.62 434.984V433.984H1137.92L1137.68 434.634L1138.62 434.984ZM1156.77 434.984L1157.71 435.341L1158.22 433.984H1156.77V434.984ZM1111.71 553V554H1112.39L1112.64 553.357L1111.71 553ZM1097.28 553L1096.34 553.356L1096.59 554H1097.28V553ZM1044.03 434.984V433.984H1043.03V434.984H1044.03ZM1061.29 434.984L1062.29 434.946L1062.25 433.984H1061.29V434.984ZM1064.29 513.77H1065.29V513.751L1065.29 513.731L1064.29 513.77ZM1064.29 553V554H1065.29V553H1064.29ZM1044.03 553H1043.03V554H1044.03V553ZM1147.78 434.984V433.984H1146.81L1146.78 434.946L1147.78 434.984ZM1165.12 434.984H1166.12V433.984H1165.12V434.984ZM1165.12 553V554H1166.12V553H1165.12ZM1144.78 553H1143.78V554H1144.78V553ZM1144.78 513.77L1143.78 513.731L1143.78 513.751V513.77H1144.78ZM1052.29 435.984H1070.45V433.984H1052.29V435.984ZM1069.51 435.335L1103.64 526.36L1105.51 525.658L1071.39 434.633L1069.51 435.335ZM1105.51 526.359L1139.55 435.335L1137.68 434.634L1103.64 525.658L1105.51 526.359ZM1138.62 435.984H1156.77V433.984H1138.62V435.984ZM1155.84 434.628L1110.77 552.643L1112.64 553.357L1157.71 435.341L1155.84 434.628ZM1111.71 552H1097.28V554H1111.71V552ZM1098.21 552.644L1053.23 434.628L1051.36 435.341L1096.34 553.356L1098.21 552.644ZM1044.03 435.984H1061.29V433.984H1044.03V435.984ZM1060.29 435.022L1063.29 513.808L1065.29 513.731L1062.29 434.946L1060.29 435.022ZM1063.29 513.77V553H1065.29V513.77H1063.29ZM1064.29 552H1044.03V554H1064.29V552ZM1045.03 553V434.984H1043.03V553H1045.03ZM1147.78 435.984H1165.12V433.984H1147.78V435.984ZM1164.12 434.984V553H1166.12V434.984H1164.12ZM1165.12 552H1144.78V554H1165.12V552ZM1145.78 553V513.77H1143.78V553H1145.78ZM1145.78 513.808L1148.77 435.022L1146.78 434.946L1143.78 513.731L1145.78 513.808ZM1236.69 450.709L1237.64 451.035L1237.68 450.921L1237.69 450.801L1236.69 450.709ZM1201.43 553V554H1202.15L1202.38 553.326L1201.43 553ZM1180.12 553L1179.18 552.648L1178.67 554H1180.12V553ZM1224.53 434.984V433.984H1223.84L1223.6 434.632L1224.53 434.984ZM1238.15 434.984L1239.15 435.077L1239.25 433.984H1238.15V434.984ZM1266.2 553L1265.25 553.327L1265.48 554H1266.2V553ZM1230.86 450.709L1229.86 450.806L1229.87 450.924L1229.91 451.036L1230.86 450.709ZM1229.32 434.984V433.984H1228.21L1228.32 435.082L1229.32 434.984ZM1243.01 434.984L1243.95 434.631L1243.71 433.984H1243.01V434.984ZM1287.59 553V554H1289.04L1288.53 552.647L1287.59 553ZM1264.49 509.23H1265.49V508.23H1264.49V509.23ZM1264.49 525.36V526.36H1265.49V525.36H1264.49ZM1200.3 525.36H1199.3V526.36H1200.3V525.36ZM1200.3 509.23V508.23H1199.3V509.23H1200.3ZM1235.75 450.383L1200.49 552.674L1202.38 553.326L1237.64 451.035L1235.75 450.383ZM1201.43 552H1180.12V554H1201.43V552ZM1181.05 553.352L1225.47 435.337L1223.6 434.632L1179.18 552.648L1181.05 553.352ZM1224.53 435.984H1238.15V433.984H1224.53V435.984ZM1237.16 434.892L1235.7 450.617L1237.69 450.801L1239.15 435.077L1237.16 434.892ZM1267.14 552.673L1231.8 450.382L1229.91 451.036L1265.25 553.327L1267.14 552.673ZM1231.85 450.612L1230.31 434.887L1228.32 435.082L1229.86 450.806L1231.85 450.612ZM1229.32 435.984H1243.01V433.984H1229.32V435.984ZM1242.08 435.338L1286.66 553.353L1288.53 552.647L1243.95 434.631L1242.08 435.338ZM1287.59 552H1266.2V554H1287.59V552ZM1263.49 509.23V525.36H1265.49V509.23H1263.49ZM1264.49 524.36H1200.3V526.36H1264.49V524.36ZM1201.3 525.36V509.23H1199.3V525.36H1201.3ZM1200.3 510.23H1264.49V508.23H1200.3V510.23ZM1322.53 434.984H1323.53V433.984H1322.53V434.984ZM1322.53 553V554H1323.53V553H1322.53ZM1302.18 553H1301.18V554H1302.18V553ZM1302.18 434.984V433.984H1301.18V434.984H1302.18ZM1321.53 434.984V553H1323.53V434.984H1321.53ZM1322.53 552H1302.18V554H1322.53V552ZM1303.18 553V434.984H1301.18V553H1303.18ZM1302.18 435.984H1322.53V433.984H1302.18V435.984Z" fill="white"/></g></g><defs><clipPath id="clip0_1572_20977"><rect width="1167" height="507" rx="10" fill="white"/></clipPath></defs></svg>