<svg xmlns="http://www.w3.org/2000/svg" width="75" height="75" viewBox="0 0 75 75" fill="none"><rect width="74.8441" height="74.8441" rx="37.422" fill="url(#paint0_linear_1572_19732)" fill-opacity="0.7"></rect><path d="M56.5384 55.3094L46.6795 45.4525C49.537 42.0219 50.9619 37.6217 50.6578 33.1673C50.3536 28.7129 48.3439 24.5472 45.0467 21.5368C41.7494 18.5264 37.4185 16.903 32.9548 17.0045C28.4912 17.1059 24.2385 18.9243 21.0814 22.0814C17.9243 25.2385 16.1059 29.4912 16.0045 33.9548C15.903 38.4185 17.5264 42.7494 20.5368 46.0467C23.5472 49.3439 27.7129 51.3536 32.1673 51.6578C36.6217 51.9619 41.0219 50.537 44.4525 47.6795L54.3094 57.5384C54.4558 57.6847 54.6295 57.8008 54.8208 57.88C55.012 57.9592 55.2169 58 55.4239 58C55.6309 58 55.8358 57.9592 56.0271 57.88C56.2183 57.8008 56.392 57.6847 56.5384 57.5384C56.6847 57.392 56.8008 57.2183 56.88 57.0271C56.9592 56.8358 57 56.6309 57 56.4239C57 56.2169 56.9592 56.012 56.88 55.8208C56.8008 55.6295 56.6847 55.4558 56.5384 55.3094ZM19.194 34.3709C19.194 31.567 20.0254 28.826 21.5832 26.4946C23.141 24.1632 25.3551 22.3461 27.9456 21.2731C30.5361 20.2001 33.3866 19.9193 36.1367 20.4664C38.8867 21.0134 41.4128 22.3636 43.3955 24.3463C45.3782 26.329 46.7284 28.8551 47.2754 31.6051C47.8224 34.3552 47.5417 37.2057 46.4687 39.7962C45.3957 42.3867 43.5786 44.6008 41.2472 46.1586C38.9158 47.7164 36.1748 48.5478 33.3709 48.5478C29.6122 48.5437 26.0087 47.0487 23.3509 44.3909C20.6931 41.7331 19.1981 38.1296 19.194 34.3709Z" fill="#DDDDDD"></path><path d="M25.4512 26.4513V42.2034M25.4512 42.2034H42.7785M25.4512 42.2034L30.1768 35.9026L34.9025 37.4778L36.4777 32.7522L39.6281 34.3274L42.7785 29.6017" stroke="#DDDDDD"></path><circle cx="30.1768" cy="35.9026" r="1.57522" fill="#DDDDDD"></circle><circle cx="34.9033" cy="37.4778" r="1.57522" fill="#DDDDDD"></circle><circle cx="36.4776" cy="32.7521" r="1.57522" fill="#DDDDDD"></circle><circle cx="42.7783" cy="29.6017" r="1.57522" fill="#DDDDDD"></circle><defs><linearGradient id="paint0_linear_1572_19732" x1="30.1016" y1="32.1836" x2="54.6025" y2="74.6836" gradientUnits="userSpaceOnUse"><stop stop-color="#56B743"></stop><stop offset="1" stop-color="#083100"></stop></linearGradient></defs></svg>