<svg xmlns="http://www.w3.org/2000/svg" width="75" height="75" viewBox="0 0 75 75" fill="none"><rect width="74.8441" height="74.8441" rx="37.422" fill="url(#paint0_linear_1572_19600)" fill-opacity="0.7"></rect><path d="M42.6017 45.2315V38.9294C42.6017 38.7237 42.5194 38.5264 42.373 38.381C42.2265 38.2355 42.0279 38.1538 41.8208 38.1538C41.6138 38.1538 41.4152 38.2355 41.2687 38.381C41.1223 38.5264 41.04 38.7237 41.04 38.9294V45.2315C40.3682 45.4024 39.7727 45.7905 39.3475 46.3347C38.9222 46.8789 38.6914 47.5482 38.6914 48.2371C38.6914 48.926 38.9222 49.5954 39.3475 50.1396C39.7727 50.6837 40.3682 51.0719 41.04 51.2428V55.9936C41.04 56.1993 41.1223 56.3966 41.2687 56.542C41.4152 56.6875 41.6138 56.7692 41.8208 56.7692C42.0279 56.7692 42.2265 56.6875 42.373 56.542C42.5194 56.3966 42.6017 56.1993 42.6017 55.9936V51.2428C43.2735 51.0719 43.869 50.6837 44.2942 50.1396C44.7195 49.5954 44.9503 48.926 44.9503 48.2371C44.9503 47.5482 44.7195 46.8789 44.2942 46.3347C43.869 45.7905 43.2735 45.4024 42.6017 45.2315ZM41.8208 49.7884C41.512 49.7884 41.2101 49.6974 40.9532 49.527C40.6964 49.3565 40.4963 49.1143 40.3781 48.8308C40.2599 48.5473 40.2289 48.2354 40.2892 47.9345C40.3495 47.6336 40.4982 47.3572 40.7166 47.1402C40.935 46.9233 41.2133 46.7755 41.5162 46.7157C41.8191 46.6558 42.1331 46.6865 42.4185 46.8039C42.7038 46.9214 42.9477 47.1202 43.1193 47.3753C43.2909 47.6304 43.3825 47.9303 43.3825 48.2371C43.3825 48.6486 43.218 49.0431 42.9251 49.3341C42.6322 49.625 42.235 49.7884 41.8208 49.7884ZM49.6291 40.5777V38.9294C49.6291 38.7237 49.5469 38.5264 49.4004 38.381C49.254 38.2355 49.0554 38.1538 48.8483 38.1538C48.6412 38.1538 48.4426 38.2355 48.2962 38.381C48.1498 38.5264 48.0675 38.7237 48.0675 38.9294V40.5777C47.3956 40.7486 46.8002 41.1367 46.3749 41.6809C45.9497 42.2251 45.7189 42.8944 45.7189 43.5833C45.7189 44.2722 45.9497 44.9415 46.3749 45.4857C46.8002 46.0299 47.3956 46.418 48.0675 46.5889V55.9936C48.0675 56.1993 48.1498 56.3966 48.2962 56.542C48.4426 56.6875 48.6412 56.7692 48.8483 56.7692C49.0554 56.7692 49.254 56.6875 49.4004 56.542C49.5469 56.3966 49.6291 56.1993 49.6291 55.9936V46.5889C50.301 46.418 50.8965 46.0299 51.3217 45.4857C51.7469 44.9415 51.9778 44.2722 51.9778 43.5833C51.9778 42.8944 51.7469 42.2251 51.3217 41.6809C50.8965 41.1367 50.301 40.7486 49.6291 40.5777ZM48.8483 45.1346C48.5394 45.1346 48.2375 45.0436 47.9807 44.8731C47.7239 44.7027 47.5237 44.4604 47.4055 44.1769C47.2873 43.8935 47.2564 43.5816 47.3167 43.2807C47.3769 42.9797 47.5257 42.7033 47.7441 42.4864C47.9625 42.2694 48.2407 42.1217 48.5437 42.0618C48.8466 42.002 49.1606 42.0327 49.4459 42.1501C49.7313 42.2675 49.9752 42.4663 50.1468 42.7215C50.3184 42.9766 50.41 43.2765 50.41 43.5833C50.41 43.9947 50.2454 44.3893 49.9526 44.6802C49.6597 44.9711 49.2625 45.1346 48.8483 45.1346ZM58.9991 51.3397C58.9984 50.6519 58.7681 49.9837 58.3442 49.4398C57.9203 48.8959 57.3268 48.507 56.6566 48.3341V38.9294C56.6566 38.7237 56.5743 38.5264 56.4279 38.381C56.2815 38.2355 56.0829 38.1538 55.8758 38.1538C55.6687 38.1538 55.4701 38.2355 55.3237 38.381C55.1772 38.5264 55.095 38.7237 55.095 38.9294V48.3341C54.4231 48.505 53.8276 48.8931 53.4024 49.4373C52.9772 49.9815 52.7463 50.6508 52.7463 51.3397C52.7463 52.0286 52.9772 52.6979 53.4024 53.2421C53.8276 53.7863 54.4231 54.1744 55.095 54.3453V55.9936C55.095 56.1993 55.1772 56.3966 55.3237 56.542C55.4701 56.6875 55.6687 56.7692 55.8758 56.7692C56.0829 56.7692 56.2815 56.6875 56.4279 56.542C56.5743 56.3966 56.6566 56.1993 56.6566 55.9936V54.3453C57.3268 54.1724 57.9203 53.7835 58.3442 53.2396C58.7681 52.6957 58.9984 52.0275 58.9991 51.3397ZM55.8758 52.891C55.5669 52.891 55.265 52.8 55.0082 52.6296C54.7514 52.4591 54.5512 52.2168 54.433 51.9334C54.3148 51.6499 54.2839 51.338 54.3441 51.0371C54.4044 50.7361 54.5531 50.4597 54.7715 50.2428C54.9899 50.0258 55.2682 49.8781 55.5711 49.8182C55.8741 49.7584 56.188 49.7891 56.4734 49.9065C56.7588 50.0239 57.0027 50.2228 57.1743 50.4779C57.3459 50.733 57.4374 51.0329 57.4374 51.3397C57.4374 51.7511 57.2729 52.1457 56.98 52.4366C56.6872 52.7276 56.29 52.891 55.8758 52.891Z" fill="#DDDDDD"></path><path fill-rule="evenodd" clip-rule="evenodd" d="M29.9909 28.2122C31.3773 27.2898 33.0073 26.7974 34.6747 26.7974C36.91 26.7998 39.053 27.6849 40.6336 29.2588C42.2142 30.8326 43.1031 32.9665 43.1055 35.1922C43.1055 35.1922 43.1055 35.1923 43.1055 35.1923H40.2952C40.2952 35.1923 40.2952 35.1922 40.2952 35.1922C40.2952 34.0853 39.9656 33.0033 39.348 32.0829C38.7304 31.1626 37.8526 30.4453 36.8256 30.0217C35.7986 29.5981 34.6685 29.4873 33.5782 29.7032C32.488 29.9192 31.4865 30.4522 30.7005 31.2349C29.9144 32.0175 29.3791 33.0147 29.1623 34.1003C28.9454 35.186 29.0567 36.3112 29.4821 37.3338C29.9075 38.3565 30.6279 39.2305 31.5522 39.8455C32.4765 40.4604 33.5631 40.7886 34.6747 40.7886C35.4847 40.7886 36.2766 40.6146 37 40.2872V43.2613C35.7131 43.629 34.352 43.6874 33.03 43.4256C31.3946 43.1017 29.8924 42.3022 28.7133 41.1281C27.5343 39.9541 26.7313 38.4583 26.406 36.8299C26.0807 35.2015 26.2477 33.5136 26.8858 31.9796C27.5239 30.4457 28.6045 29.1346 29.9909 28.2122ZM37 48.3376L35.7286 47.6321C35.5184 47.5163 35.282 47.4561 35.0418 47.4572H35.0085H34.3691C34.1178 47.4509 33.8692 47.5113 33.649 47.6321L28.5836 50.4478C26.9756 49.8496 25.4688 49.0103 24.1153 47.9591L24.096 42.3277C24.0951 42.0666 24.0209 41.8109 23.8817 41.5896C23.7728 41.4148 23.6656 41.2399 23.5655 41.0545C23.4414 40.8322 23.2594 40.6473 23.0386 40.5193L18.0153 37.6704C17.7554 36.0331 17.7554 34.3653 18.0153 32.728L23.0246 29.8808C23.2444 29.7563 23.4265 29.575 23.5515 29.3561C23.5613 29.3393 23.5711 29.3223 23.581 29.3053C23.674 29.1456 23.771 28.979 23.8694 28.8209C24.0088 28.6004 24.083 28.3452 24.0837 28.0846L24.11 22.4444C25.4588 21.3898 26.9614 20.5464 28.566 19.9435L33.6209 22.7522C33.8409 22.8737 34.0896 22.9341 34.341 22.9271H34.9804C35.2317 22.9334 35.4802 22.873 35.7005 22.7522L40.7659 19.9365C42.3739 20.5348 43.8807 21.374 45.2342 22.4252L45.2535 28.0567C45.2544 28.3178 45.3286 28.5734 45.4678 28.7947C45.5767 28.9696 45.6838 29.1445 45.784 29.3299C45.9081 29.5522 46.0901 29.737 46.3109 29.865L51.3342 32.714C51.4661 33.5349 51.5327 34.3635 51.534 35.1923H54.3462C54.3456 33.9743 54.2251 32.7564 53.9846 31.5562C53.9454 31.3592 53.8642 31.1729 53.7463 31.0099C53.6284 30.8469 53.4766 30.7112 53.3013 30.6118L48.062 27.6387L48.0409 21.7589C48.0403 21.5564 47.9955 21.3564 47.9097 21.1728C47.8239 20.9893 47.6991 20.8264 47.5439 20.6955C45.6433 19.0948 43.4547 17.868 41.0944 17.0806C40.9085 17.0179 40.7115 16.9947 40.5161 17.0125C40.3207 17.0303 40.1311 17.0886 39.9597 17.1837L34.6747 20.1254L29.3845 17.1785C29.213 17.0828 29.0232 17.0241 28.8275 17.006C28.6317 16.9879 28.4343 17.0109 28.2481 17.0736C25.8895 17.8668 23.7034 19.0982 21.8056 20.7025C21.6506 20.8332 21.526 20.9958 21.4401 21.179C21.3543 21.3623 21.3094 21.5619 21.3085 21.7641L21.2822 27.6492L16.0429 30.6223C15.8676 30.7217 15.7158 30.8574 15.5979 31.0204C15.48 31.1834 15.3988 31.3697 15.3596 31.5667C14.8801 33.966 14.8801 36.4358 15.3596 38.8351C15.3988 39.0321 15.48 39.2185 15.5979 39.3814C15.7158 39.5444 15.8676 39.6802 16.0429 39.7795L21.2822 42.7527L21.3033 48.6325C21.3039 48.835 21.3487 49.0349 21.4345 49.2185C21.5203 49.4021 21.6451 49.5649 21.8003 49.6958C23.7009 51.2966 25.8895 52.5233 28.2498 53.3108C28.4357 53.3734 28.6327 53.3966 28.8281 53.3788C29.0235 53.361 29.2131 53.3027 29.3845 53.2076L34.6747 50.2589L37 51.5542V48.3376Z" fill="#DDDDDD"></path><defs><linearGradient id="paint0_linear_1572_19600" x1="30.1016" y1="32.1836" x2="54.6025" y2="74.6836" gradientUnits="userSpaceOnUse"><stop stop-color="#56B743"></stop><stop offset="1" stop-color="#083100"></stop></linearGradient></defs></svg>