<svg xmlns="http://www.w3.org/2000/svg" width="75" height="75" viewBox="0 0 75 75" fill="none"><rect width="74.8441" height="74.8441" rx="37.422" fill="url(#paint0_linear_1572_19827)" fill-opacity="0.7"></rect><path d="M51.1667 20H22.8333C22.0819 20 21.3612 20.295 20.8299 20.8202C20.2985 21.3453 20 22.0575 20 22.8002V33.0856C20 48.7684 33.4265 53.9715 36.1146 54.8553C36.6887 55.0482 37.3113 55.0482 37.8854 54.8553C40.5771 53.9715 54 48.7684 54 33.0856V22.8002C54 22.0575 53.7015 21.3453 53.1701 20.8202C52.6388 20.295 51.9181 20 51.1667 20ZM51.1667 33.0891C51.1667 46.8135 39.4172 51.3988 37 52.1969C34.6041 51.4076 22.8333 46.8258 22.8333 33.0891V22.8002H51.1667V33.0891Z" fill="#DDDDDD"></path><path d="M44.5 31H41.5V28.6667C41.5 27.429 41.0259 26.242 40.182 25.3668C39.3381 24.4917 38.1935 24 37 24C35.8065 24 34.6619 24.4917 33.818 25.3668C32.9741 26.242 32.5 27.429 32.5 28.6667V31H29.5C29.1022 31 28.7206 31.1639 28.4393 31.4556C28.158 31.7473 28 32.143 28 32.5556V43.4444C28 43.857 28.158 44.2527 28.4393 44.5444C28.7206 44.8361 29.1022 45 29.5 45H44.5C44.8978 45 45.2794 44.8361 45.5607 44.5444C45.842 44.2527 46 43.857 46 43.4444V32.5556C46 32.143 45.842 31.7473 45.5607 31.4556C45.2794 31.1639 44.8978 31 44.5 31ZM29.5 35.6667H44.5V37.2222H29.5V35.6667ZM29.5 38.7778H44.5V40.3333H29.5V38.7778ZM34 28.6667C34 27.8415 34.3161 27.0502 34.8787 26.4668C35.4413 25.8833 36.2044 25.5556 37 25.5556C37.7956 25.5556 38.5587 25.8833 39.1213 26.4668C39.6839 27.0502 40 27.8415 40 28.6667V31H34V28.6667ZM44.5 32.5556V34.1111H29.5V32.5556H44.5ZM44.5 43.4444H29.5V41.8889H44.5V43.4444Z" fill="#DDDDDD"></path><rect x="22" y="34" width="30" height="8" fill="#DDDDDD"></rect><path d="M34.7344 39.0698C34.7344 39.0063 34.7246 38.9494 34.7051 38.8989C34.6872 38.8468 34.653 38.7996 34.6025 38.7573C34.5521 38.7134 34.4813 38.6702 34.3901 38.6279C34.299 38.5856 34.181 38.5417 34.0361 38.4961C33.875 38.444 33.722 38.3854 33.5771 38.3203C33.4339 38.2552 33.307 38.1795 33.1963 38.0933C33.0872 38.0054 33.001 37.9036 32.9375 37.7881C32.8757 37.6725 32.8447 37.5382 32.8447 37.3853C32.8447 37.2371 32.8773 37.1029 32.9424 36.9824C33.0075 36.8604 33.0986 36.7562 33.2158 36.6699C33.333 36.582 33.4714 36.5145 33.6309 36.4673C33.792 36.4201 33.9686 36.3965 34.1606 36.3965C34.4227 36.3965 34.6514 36.4437 34.8467 36.5381C35.042 36.6325 35.1934 36.7619 35.3008 36.9263C35.4098 37.0907 35.4644 37.2786 35.4644 37.4902H34.7368C34.7368 37.3861 34.7148 37.2949 34.6709 37.2168C34.6286 37.137 34.5635 37.0744 34.4756 37.0288C34.3893 36.9832 34.2803 36.9604 34.1484 36.9604C34.0215 36.9604 33.9157 36.98 33.8311 37.019C33.7464 37.0565 33.6829 37.1077 33.6406 37.1729C33.5983 37.2363 33.5771 37.3079 33.5771 37.3877C33.5771 37.4479 33.5918 37.5024 33.6211 37.5513C33.652 37.6001 33.6976 37.6457 33.7578 37.688C33.818 37.7303 33.8921 37.7702 33.98 37.8076C34.0679 37.8451 34.1696 37.8817 34.2852 37.9175C34.4788 37.9761 34.6489 38.042 34.7954 38.1152C34.9435 38.1885 35.0672 38.2707 35.1665 38.3618C35.2658 38.453 35.3407 38.5563 35.3911 38.6719C35.4416 38.7874 35.4668 38.9185 35.4668 39.0649C35.4668 39.2196 35.4367 39.3579 35.3765 39.48C35.3162 39.6021 35.2292 39.7054 35.1152 39.79C35.0013 39.8747 34.8654 39.939 34.7075 39.9829C34.5496 40.0269 34.373 40.0488 34.1777 40.0488C34.002 40.0488 33.8286 40.026 33.6577 39.9805C33.4868 39.9333 33.3314 39.8625 33.1914 39.7681C33.0531 39.6737 32.9424 39.5532 32.8594 39.4067C32.7764 39.2603 32.7349 39.0869 32.7349 38.8867H33.4697C33.4697 38.9974 33.4868 39.091 33.521 39.1675C33.5552 39.244 33.6032 39.3058 33.665 39.353C33.7285 39.4002 33.8034 39.4344 33.8896 39.4556C33.9775 39.4767 34.0736 39.4873 34.1777 39.4873C34.3047 39.4873 34.4089 39.4694 34.4902 39.4336C34.5732 39.3978 34.6343 39.3481 34.6733 39.2847C34.714 39.2212 34.7344 39.1496 34.7344 39.0698ZM37.8154 39.0698C37.8154 39.0063 37.8057 38.9494 37.7861 38.8989C37.7682 38.8468 37.734 38.7996 37.6836 38.7573C37.6331 38.7134 37.5623 38.6702 37.4712 38.6279C37.38 38.5856 37.262 38.5417 37.1172 38.4961C36.9561 38.444 36.8031 38.3854 36.6582 38.3203C36.515 38.2552 36.388 38.1795 36.2773 38.0933C36.1683 38.0054 36.082 37.9036 36.0186 37.7881C35.9567 37.6725 35.9258 37.5382 35.9258 37.3853C35.9258 37.2371 35.9583 37.1029 36.0234 36.9824C36.0885 36.8604 36.1797 36.7562 36.2969 36.6699C36.4141 36.582 36.5524 36.5145 36.7119 36.4673C36.873 36.4201 37.0496 36.3965 37.2417 36.3965C37.5037 36.3965 37.7324 36.4437 37.9277 36.5381C38.123 36.6325 38.2744 36.7619 38.3818 36.9263C38.4909 37.0907 38.5454 37.2786 38.5454 37.4902H37.8179C37.8179 37.3861 37.7959 37.2949 37.752 37.2168C37.7096 37.137 37.6445 37.0744 37.5566 37.0288C37.4704 36.9832 37.3613 36.9604 37.2295 36.9604C37.1025 36.9604 36.9967 36.98 36.9121 37.019C36.8275 37.0565 36.764 37.1077 36.7217 37.1729C36.6794 37.2363 36.6582 37.3079 36.6582 37.3877C36.6582 37.4479 36.6729 37.5024 36.7021 37.5513C36.7331 37.6001 36.7786 37.6457 36.8389 37.688C36.8991 37.7303 36.9731 37.7702 37.061 37.8076C37.1489 37.8451 37.2507 37.8817 37.3662 37.9175C37.5599 37.9761 37.73 38.042 37.8765 38.1152C38.0246 38.1885 38.1483 38.2707 38.2476 38.3618C38.3468 38.453 38.4217 38.5563 38.4722 38.6719C38.5226 38.7874 38.5479 38.9185 38.5479 39.0649C38.5479 39.2196 38.5177 39.3579 38.4575 39.48C38.3973 39.6021 38.3102 39.7054 38.1963 39.79C38.0824 39.8747 37.9465 39.939 37.7886 39.9829C37.6307 40.0269 37.4541 40.0488 37.2588 40.0488C37.083 40.0488 36.9097 40.026 36.7388 39.9805C36.5679 39.9333 36.4124 39.8625 36.2725 39.7681C36.1341 39.6737 36.0234 39.5532 35.9404 39.4067C35.8574 39.2603 35.8159 39.0869 35.8159 38.8867H36.5508C36.5508 38.9974 36.5679 39.091 36.6021 39.1675C36.6362 39.244 36.6842 39.3058 36.7461 39.353C36.8096 39.4002 36.8844 39.4344 36.9707 39.4556C37.0586 39.4767 37.1546 39.4873 37.2588 39.4873C37.3857 39.4873 37.4899 39.4694 37.5713 39.4336C37.6543 39.3978 37.7153 39.3481 37.7544 39.2847C37.7951 39.2212 37.8154 39.1496 37.8154 39.0698ZM41.3311 39.4287V40H39.5415V39.4287H41.3311ZM39.7783 36.4453V40H39.0459V36.4453H39.7783Z" fill="#59A52C"></path><defs><linearGradient id="paint0_linear_1572_19827" x1="30.1016" y1="32.1836" x2="54.6025" y2="74.6836" gradientUnits="userSpaceOnUse"><stop stop-color="#56B743"></stop><stop offset="1" stop-color="#083100"></stop></linearGradient></defs></svg>