<svg xmlns="http://www.w3.org/2000/svg" width="75" height="75" viewBox="0 0 75 75" fill="none"><rect width="74.8441" height="74.8441" rx="37.422" fill="url(#paint0_linear_1572_19662)" fill-opacity="0.7"></rect><path d="M30.676 24.9391L26.3809 29.2343L27.3382 30.1916L31.6333 25.8965L30.676 24.9391Z" fill="#DDDDDD"></path><path d="M32.5961 23.0224L31.6387 23.9797L32.596 24.9371L33.5534 23.9798L32.5961 23.0224Z" fill="#DDDDDD"></path><path d="M43.133 51.3284L38.8379 55.6235L39.7952 56.5808L44.0903 52.2857L43.133 51.3284Z" fill="#DDDDDD"></path><path d="M45.0492 49.4154L44.0918 50.3726L45.049 51.3301L46.0064 50.3729L45.0492 49.4154Z" fill="#DDDDDD"></path><path d="M51.3527 25.6059L50.396 24.6492L48.8797 26.1655L47.3453 17.7717L41.3794 23.7376L41.4696 27.0681L36.8214 28.2956L22.606 42.511C17.3892 47.7278 17.8947 53.8472 18.1383 56.7805C18.1474 56.9249 18.1654 57.0693 18.1744 57.2047L18.2196 57.7824L18.7972 57.8275C18.9326 57.8365 19.068 57.8455 19.2214 57.8636C22.1638 58.1073 28.2832 58.6127 33.491 53.3959L47.7064 39.1805L48.9338 34.5323L52.2643 34.6225L58.2303 28.6566L49.8364 27.1222L51.3527 25.6059ZM29.619 54.7046C25.7109 56.9881 21.7035 56.7083 19.4832 56.5278C19.3027 54.2985 19.0229 50.3001 21.3063 46.392L29.619 54.7046ZM46.4879 38.4855L32.9946 51.9789L26.8932 45.8775L25.9365 46.8342L32.0288 52.9266C31.6136 53.3056 31.1985 53.6486 30.7743 53.9555L22.0555 45.2367C22.4887 44.641 22.9851 44.0543 23.5628 43.4767L37.1734 29.866L42.8686 35.5612L43.8253 34.6045L38.4822 29.2613L41.957 28.3407L47.6612 34.0449L46.4879 38.4855ZM55.4504 29.5231L51.7228 33.2506L48.7082 33.1694L42.8325 27.2937L42.7513 24.2792L46.4789 20.5516L47.7154 27.3298L46.0998 28.9454L47.0565 29.9021L48.6721 28.2865L55.4504 29.5231Z" fill="#DDDDDD"></path><path d="M52.3108 22.7348L51.3535 23.6921L52.3108 24.6494L53.2681 23.6921L52.3108 22.7348Z" fill="#DDDDDD"></path><path d="M58.1252 21.3301L53.8301 25.6252L54.7874 26.5825L59.0825 22.2874L58.1252 21.3301Z" fill="#DDDDDD"></path><path d="M60.0432 19.4127L59.0859 20.37L60.0432 21.3273L61.0005 20.37L60.0432 19.4127Z" fill="#DDDDDD"></path><path d="M53.715 16.9151L49.4199 21.2108L50.3774 22.1681L54.6725 17.8724L53.715 16.9151Z" fill="#DDDDDD"></path><path d="M55.6311 15L54.6738 15.9573L55.6311 16.9146L56.5884 15.9573L55.6311 15Z" fill="#DDDDDD"></path><defs><linearGradient id="paint0_linear_1572_19662" x1="30.1016" y1="32.1836" x2="54.6025" y2="74.6836" gradientUnits="userSpaceOnUse"><stop stop-color="#56B743"></stop><stop offset="1" stop-color="#083100"></stop></linearGradient></defs></svg>