<svg xmlns="http://www.w3.org/2000/svg" width="75" height="75" viewBox="0 0 75 75" fill="none"><rect width="74.8441" height="74.8441" rx="37.422" fill="url(#paint0_linear_1572_19797)" fill-opacity="0.7"></rect><path fill-rule="evenodd" clip-rule="evenodd" d="M26.5605 46.1538C27.2218 47.1849 27.9961 48.1469 28.8733 49.0208C31.2595 51.3983 34.2997 53.0174 37.6095 53.6733C40.9193 54.3293 44.35 53.9926 47.4678 52.706C50.5856 51.4193 53.2504 49.2403 55.1252 46.4447C57.0001 43.6491 58.0008 40.3623 58.0008 37C57.996 32.4928 56.1968 28.1715 52.998 24.9844C49.7992 21.7974 45.4621 20.0048 40.9383 20C39.6054 20 38.2843 20.1555 37.0008 20.4589V23.1607C37.3697 23.0565 37.7436 22.9667 38.1217 22.8918C40.9223 22.3367 43.8252 22.6216 46.4633 23.7103C49.1014 24.7991 51.3562 26.6428 52.9426 29.0083C54.529 31.3739 55.3758 34.155 55.3758 37C55.3714 40.8137 53.8489 44.47 51.1423 47.1667C48.4357 49.8634 44.766 51.3803 40.9383 51.3846C38.0828 51.3846 35.2915 50.541 32.9172 48.9604C31.7404 48.1769 30.6923 47.2299 29.8013 46.1538H26.5605ZM51.0539 37.9247C51.3 37.6794 51.4383 37.3468 51.4383 37C51.4383 36.6532 51.3 36.3206 51.0539 36.0753C50.8077 35.8301 50.4739 35.6923 50.1258 35.6923H42.2508V27.8462C42.2508 27.4993 42.1125 27.1667 41.8663 26.9215C41.6202 26.6762 41.2864 26.5385 40.9383 26.5385C40.5902 26.5385 40.2563 26.6762 40.0102 26.9215C39.7641 27.1667 39.6258 27.4993 39.6258 27.8462V37C39.6258 37.3468 39.7641 37.6794 40.0102 37.9247C40.2563 38.1699 40.5902 38.3077 40.9383 38.3077H50.1258C50.4739 38.3077 50.8077 38.1699 51.0539 37.9247Z" fill="#DDDDDD"></path><path d="M26.5 21C24.4233 21 22.3932 21.6745 20.6665 22.9381C18.9398 24.2017 17.594 25.9978 16.7993 28.0991C16.0045 30.2005 15.7966 32.5128 16.2018 34.7435C16.6069 36.9743 17.6069 39.0234 19.0754 40.6317C20.5438 42.24 22.4148 43.3353 24.4516 43.779C26.4884 44.2228 28.5996 43.995 30.5182 43.1246C32.4368 42.2542 34.0767 40.7802 35.2304 38.8891C36.3842 36.9979 37 34.7745 37 32.5C36.9971 29.451 35.8899 26.5278 33.9214 24.3718C31.9529 22.2159 29.2839 21.0032 26.5 21ZM26.5 42.2308C24.7428 42.2308 23.025 41.6601 21.564 40.5908C20.1029 39.5216 18.9641 38.0019 18.2917 36.2238C17.6192 34.4457 17.4433 32.4892 17.7861 30.6016C18.1289 28.714 18.9751 26.9802 20.2176 25.6193C21.4602 24.2584 23.0433 23.3317 24.7667 22.9562C26.4901 22.5807 28.2765 22.7734 29.9 23.5099C31.5234 24.2464 32.911 25.4937 33.8873 27.0939C34.8635 28.6941 35.3846 30.5754 35.3846 32.5C35.3819 35.0799 34.445 37.5532 32.7794 39.3775C31.1138 41.2017 28.8555 42.2278 26.5 42.2308ZM30.3022 30.9895C30.3773 31.0717 30.4368 31.1693 30.4774 31.2767C30.518 31.3841 30.5389 31.4991 30.5389 31.6154C30.5389 31.7316 30.518 31.8467 30.4774 31.9541C30.4368 32.0615 30.3773 32.1591 30.3022 32.2412C30.2272 32.3234 30.1381 32.3886 30.04 32.4331C29.942 32.4776 29.8369 32.5005 29.7308 32.5005C29.6246 32.5005 29.5196 32.4776 29.4215 32.4331C29.3235 32.3886 29.2344 32.3234 29.1593 32.2412L27.3077 30.2122V36.9231C27.3077 37.1577 27.2226 37.3827 27.0711 37.5486C26.9197 37.7145 26.7142 37.8077 26.5 37.8077C26.2858 37.8077 26.0803 37.7145 25.9289 37.5486C25.7774 37.3827 25.6923 37.1577 25.6923 36.9231V30.2122L23.8407 32.2412C23.6891 32.4072 23.4836 32.5005 23.2692 32.5005C23.0549 32.5005 22.8493 32.4072 22.6978 32.2412C22.5462 32.0753 22.4611 31.8501 22.4611 31.6154C22.4611 31.3806 22.5462 31.1555 22.6978 30.9895L25.9286 27.4511C26.0036 27.3688 26.0927 27.3036 26.1907 27.259C26.2888 27.2145 26.3939 27.1916 26.5 27.1916C26.6061 27.1916 26.7112 27.2145 26.8093 27.259C26.9074 27.3036 26.9964 27.3688 27.0714 27.4511L30.3022 30.9895Z" fill="#DDDDDD"></path><defs><linearGradient id="paint0_linear_1572_19797" x1="30.1016" y1="32.1836" x2="54.6025" y2="74.6836" gradientUnits="userSpaceOnUse"><stop stop-color="#56B743"></stop><stop offset="1" stop-color="#083100"></stop></linearGradient></defs></svg>