<svg xmlns="http://www.w3.org/2000/svg" width="35" height="21" viewBox="0 0 35 21" fill="none"><g id="UNITED_KINGDOM_2_"><g id="Group"><g id="Group_2"><g id="Clip path group"><mask id="mask0_9372_52014" style="mask-type:luminance" maskUnits="userSpaceOnUse" x="0" y="0" width="35" height="21"><g id="SVGID_00000056399665753246532360000003432069340157879714_"><path id="Vector" d="M34.283 0.711487H0.719971V20.2885H34.283V0.711487Z" fill="white"></path></g></mask><g mask="url(#mask0_9372_52014)"><path id="Vector_2" d="M34.283 0.711487H0.719971V20.2885H34.283V0.711487Z" fill="white"></path></g></g><g id="Clip path group_2"><mask id="mask1_9372_52014" style="mask-type:luminance" maskUnits="userSpaceOnUse" x="0" y="0" width="35" height="21"><g id="SVGID_00000056399665753246532360000003432069340157879714__2"><path id="Vector_3" d="M34.283 0.711487H0.719971V20.2885H34.283V0.711487Z" fill="white"></path></g></mask><g mask="url(#mask1_9372_52014)"><path id="Vector_4" d="M23.192 7.79047L34.2821 1.58249V0.711487H33.5181L20.873 7.79047H23.192Z" fill="#BD0034"></path></g></g><g id="Clip path group_3"><mask id="mask2_9372_52014" style="mask-type:luminance" maskUnits="userSpaceOnUse" x="0" y="0" width="35" height="21"><g id="SVGID_00000056399665753246532360000003432069340157879714__3"><path id="Vector_5" d="M34.283 0.711487H0.719971V20.2885H34.283V0.711487Z" fill="white"></path></g></mask><g mask="url(#mask2_9372_52014)"><path id="Vector_6" d="M22.6689 13.6035L34.282 20.1025V18.8035L24.989 13.6035H22.6689Z" fill="#BD0034"></path></g></g><g id="Clip path group_4"><mask id="mask3_9372_52014" style="mask-type:luminance" maskUnits="userSpaceOnUse" x="0" y="0" width="35" height="21"><g id="SVGID_00000056399665753246532360000003432069340157879714__4"><path id="Vector_7" d="M34.283 0.711487H0.719971V20.2885H34.283V0.711487Z" fill="white"></path></g></mask><g mask="url(#mask3_9372_52014)"><path id="Vector_8" d="M0.719971 2.20248L10.654 7.79047H12.976L0.719971 0.902466V2.20248Z" fill="#BD0034"></path></g></g><g id="Clip path group_5"><mask id="mask4_9372_52014" style="mask-type:luminance" maskUnits="userSpaceOnUse" x="0" y="0" width="35" height="21"><g id="SVGID_00000056399665753246532360000003432069340157879714__5"><path id="Vector_9" d="M34.283 0.711487H0.719971V20.2885H34.283V0.711487Z" fill="white"></path></g></mask><g mask="url(#mask4_9372_52014)"><path id="Vector_10" d="M12.449 13.6035L0.719971 20.1755V20.2895H2.83896L14.771 13.6035H12.449Z" fill="#BD0034"></path></g></g><g id="Clip path group_6"><mask id="mask5_9372_52014" style="mask-type:luminance" maskUnits="userSpaceOnUse" x="0" y="0" width="35" height="21"><g id="SVGID_00000056399665753246532360000003432069340157879714__6"><path id="Vector_11" d="M34.283 0.711487H0.719971V20.2885H34.283V0.711487Z" fill="white"></path></g></mask><g mask="url(#mask5_9372_52014)"><path id="Vector_12" d="M31.9849 0.711487H20.2339V7.29248L31.9849 0.711487Z" fill="#1A237B"></path></g></g><g id="Clip path group_7"><mask id="mask6_9372_52014" style="mask-type:luminance" maskUnits="userSpaceOnUse" x="0" y="0" width="35" height="21"><g id="SVGID_00000056399665753246532360000003432069340157879714__7"><path id="Vector_13" d="M34.283 0.711487H0.719971V20.2885H34.283V0.711487Z" fill="white"></path></g></mask><g mask="url(#mask6_9372_52014)"><path id="Vector_14" d="M15.046 0.711487H3.34204L15.046 7.29248V0.711487Z" fill="#1A237B"></path></g></g><g id="Clip path group_8"><mask id="mask7_9372_52014" style="mask-type:luminance" maskUnits="userSpaceOnUse" x="0" y="0" width="35" height="21"><g id="SVGID_00000056399665753246532360000003432069340157879714__8"><path id="Vector_15" d="M34.283 0.711487H0.719971V20.2885H34.283V0.711487Z" fill="white"></path></g></mask><g mask="url(#mask7_9372_52014)"><path id="Vector_16" d="M34.282 7.79047V3.29846L26.311 7.79047H34.282Z" fill="#1A237B"></path></g></g><g id="Clip path group_9"><mask id="mask8_9372_52014" style="mask-type:luminance" maskUnits="userSpaceOnUse" x="0" y="0" width="35" height="21"><g id="SVGID_00000056399665753246532360000003432069340157879714__9"><path id="Vector_17" d="M34.283 0.711487H0.719971V20.2885H34.283V0.711487Z" fill="white"></path></g></mask><g mask="url(#mask8_9372_52014)"><path id="Vector_18" d="M34.282 18.0465V13.6035H26.311L34.282 18.0465Z" fill="#1A237B"></path></g></g><g id="Clip path group_10"><mask id="mask9_9372_52014" style="mask-type:luminance" maskUnits="userSpaceOnUse" x="0" y="0" width="35" height="21"><g id="SVGID_00000056399665753246532360000003432069340157879714__10"><path id="Vector_19" d="M34.283 0.711487H0.719971V20.2885H34.283V0.711487Z" fill="white"></path></g></mask><g mask="url(#mask9_9372_52014)"><path id="Vector_20" d="M4.00586 20.2895H15.0458V14.1025L4.00586 20.2895Z" fill="#1A237B"></path></g></g><g id="Clip path group_11"><mask id="mask10_9372_52014" style="mask-type:luminance" maskUnits="userSpaceOnUse" x="0" y="0" width="35" height="21"><g id="SVGID_00000056399665753246532360000003432069340157879714__11"><path id="Vector_21" d="M34.283 0.711487H0.719971V20.2885H34.283V0.711487Z" fill="white"></path></g></mask><g mask="url(#mask10_9372_52014)"><path id="Vector_22" d="M20.2339 20.2895H31.3099L20.2339 14.1025V20.2895Z" fill="#1A237B"></path></g></g><g id="Clip path group_12"><mask id="mask11_9372_52014" style="mask-type:luminance" maskUnits="userSpaceOnUse" x="0" y="0" width="35" height="21"><g id="SVGID_00000056399665753246532360000003432069340157879714__12"><path id="Vector_23" d="M34.283 0.711487H0.719971V20.2885H34.283V0.711487Z" fill="white"></path></g></mask><g mask="url(#mask11_9372_52014)"><path id="Vector_24" d="M0.719971 13.6035V18.2475L8.96896 13.6035H0.719971Z" fill="#1A237B"></path></g></g><g id="Clip path group_13"><mask id="mask12_9372_52014" style="mask-type:luminance" maskUnits="userSpaceOnUse" x="0" y="0" width="35" height="21"><g id="SVGID_00000056399665753246532360000003432069340157879714__13"><path id="Vector_25" d="M34.283 0.711487H0.719971V20.2885H34.283V0.711487Z" fill="white"></path></g></mask><g mask="url(#mask12_9372_52014)"><path id="Vector_26" d="M0.719971 7.79047H8.96896L0.719971 3.13947V7.79047Z" fill="#1A237B"></path></g></g><g id="Clip path group_14"><mask id="mask13_9372_52014" style="mask-type:luminance" maskUnits="userSpaceOnUse" x="0" y="0" width="35" height="21"><g id="SVGID_00000056399665753246532360000003432069340157879714__14"><path id="Vector_27" d="M34.283 0.711487H0.719971V20.2885H34.283V0.711487Z" fill="white"></path></g></mask><g mask="url(#mask13_9372_52014)"><path id="Vector_28" d="M16.084 0.711487V8.95346H0.719971V12.4435H16.084V20.2895H19.196V12.4435H34.282V8.95346H19.196V0.711487H16.084Z" fill="#BD0034"></path></g></g></g></g></g></svg>