<svg xmlns="http://www.w3.org/2000/svg" width="64" height="64" viewBox="0 0 64 64"><g id="Group_44729" data-name="Group 44729" transform="translate(-303 -2159)"><circle id="Ellipse_2097" data-name="Ellipse 2097" cx="32" cy="32" r="32" transform="translate(303 2159)" fill="#212224"></circle><g id="Group_44713" data-name="Group 44713" transform="translate(-526.112 -1987)"><path id="Vector" d="M20.568,0H41.449V41.383H0V20.5c.1.731.17,1.462.313,2.193A19.354,19.354,0,0,0,24.261,38.016c.261-.065.365-.157.365-.457V32.47a14.225,14.225,0,0,1-4.907.979,14.056,14.056,0,0,1-4.868-.744,13.873,13.873,0,0,1-4.346-2.388A14.165,14.165,0,0,1,25.018,6.29a13.847,13.847,0,0,1,6.591,5.834,14.173,14.173,0,0,1,.979,12.411h5.037a.431.431,0,0,0,.509-.392A19.393,19.393,0,0,0,23.191.339C22.33.209,21.442.131,20.568,0ZM31.139,19.38a10.922,10.922,0,0,0-.183-1.879,11.746,11.746,0,1,0-6.8,12.581c.339-.144.509-.313.47-.7a10.676,10.676,0,0,1,0-1.305,3.459,3.459,0,0,1,3.458-3.458h1.409a.47.47,0,0,0,.522-.326A12.542,12.542,0,0,0,31.1,19.38Zm1.305,17.931.352.326,3.25,3.25a1.057,1.057,0,0,0,1.684,0l3.106-3.106a1.057,1.057,0,0,0,0-1.683l-3.2-3.2a4.345,4.345,0,0,0-.444-.313c.183-.183.261-.287.352-.378l3.25-3.25a1.07,1.07,0,0,0-.77-1.919H28.281a1.083,1.083,0,0,0-1.227,1.305V40.2a1.057,1.057,0,0,0,.666,1.1,1.044,1.044,0,0,0,1.2-.326Z" transform="translate(840.138 4157)" fill="none"></path><path id="Vector-2" data-name="Vector" d="M18.075,0,15.883.313A19.406,19.406,0,0,0,.313,15.883C.2,16.613.1,17.344,0,18.075V0Z" transform="translate(840.112 4157)" fill="none"></path><path id="Vector-3" data-name="Vector" d="M5.351,1.279A14.147,14.147,0,0,1,6.773,2.1a1.188,1.188,0,0,1,.248,1.736,1.2,1.2,0,0,1-1.723.17,2.075,2.075,0,0,0-2.14-.157,1.305,1.305,0,0,0,0,2.362,4.424,4.424,0,0,0,1.175.2A3.837,3.837,0,0,1,7.857,8.64a3.745,3.745,0,0,1-2.506,5.22C5.051,15,4.7,15.348,3.968,15.3s-1.031-.5-1.122-1.305a10.112,10.112,0,0,1-1.305-.744A1.305,1.305,0,0,1,1.2,11.472a1.214,1.214,0,0,1,1.775-.17,2.062,2.062,0,0,0,2.179.1,1.3,1.3,0,0,0-.261-2.388c-.47-.117-.979-.117-1.475-.2a3.759,3.759,0,0,1-.77-7.334.444.444,0,0,0,.261-.313A1.214,1.214,0,0,1,4.15,0,1.2,1.2,0,0,1,5.338,1.214Z" transform="translate(855.368 4168.745)" fill="none"></path><circle id="Ellipse_2070" data-name="Ellipse 2070" cx="7.83" cy="7.83" r="7.83" transform="translate(851.711 4168.746)" fill="#fff"></circle><path id="Vector-4" data-name="Vector" d="M23.526,11.752a12.542,12.542,0,0,1-1.122,4.92.47.47,0,0,1-.522.326H20.472a3.458,3.458,0,0,0-3.458,3.458,10.663,10.663,0,0,0,0,1.305.648.648,0,0,1-.47.7,11.746,11.746,0,1,1,6.8-12.581A6.391,6.391,0,0,1,23.526,11.752ZM12.968,5.4v-.13A1.2,1.2,0,0,0,11.78,4.052a1.214,1.214,0,0,0-1.24,1.175.443.443,0,0,1-.261.313,3.759,3.759,0,0,0,.77,7.334c.5.078,1,.078,1.475.2a1.305,1.305,0,0,1,.261,2.388,2.062,2.062,0,0,1-2.18-.1,1.214,1.214,0,0,0-1.775.17A1.305,1.305,0,0,0,9.17,17.3c.418.287.887.483,1.305.744.091.861.457,1.305,1.122,1.305s1.083-.3,1.383-1.436a3.746,3.746,0,0,0,2.506-5.22,3.837,3.837,0,0,0-3.524-2.232,4.424,4.424,0,0,1-1.175-.2,1.3,1.3,0,0,1,0-2.362,2.075,2.075,0,0,1,2.14.157,1.2,1.2,0,0,0,1.723-.17A1.187,1.187,0,0,0,14.4,6.153a14.148,14.148,0,0,0-1.4-.757Z" transform="translate(847.712 4164.628)" fill="#4fa83d"></path><path id="Vector-5" data-name="Vector" d="M5.481,10.349,1.892,13.938a1.044,1.044,0,0,1-1.2.326,1.057,1.057,0,0,1-.666-1.1V1.318A1.083,1.083,0,0,1,1.253.013H13a1.07,1.07,0,0,1,.77,1.918l-3.25,3.25c-.091.091-.17.2-.352.379a4.346,4.346,0,0,1,.444.313l3.2,3.2a1.057,1.057,0,0,1,0,1.684L10.7,13.86a1.057,1.057,0,0,1-1.683,0l-3.25-3.25Z" transform="translate(867.153 4183.962)" fill="#cae2bc"></path></g></g></svg>