<svg xmlns="http://www.w3.org/2000/svg" xmlns:xlink="http://www.w3.org/1999/xlink" width="1513.97" height="565.692" viewBox="0 0 1513.97 565.692"><defs><linearGradient id="linear-gradient" x1="0.02" y1="0.5" x2="0.992" y2="0.5" gradientUnits="objectBoundingBox"><stop offset="0" stop-opacity="0"/><stop offset="0.182" stop-color="#dbdbdb" stop-opacity="0.302"/><stop offset="0.517" stop-color="#dbdbdb"/><stop offset="0.823" stop-color="#dbdbdb" stop-opacity="0.302"/><stop offset="1" stop-opacity="0"/></linearGradient></defs><g id="Group_44749" data-name="Group 44749" transform="translate(-203 -5757.154)"><path id="Line_1022" data-name="Line 1022" d="M1509.4.535H.566C-.851.535-2-.032-2-.732S-.851-2,.566-2H1509.4c1.417,0,2.566.568,2.566,1.268S1510.821.535,1509.4.535Z" transform="translate(205 5759.154)" fill="url(#linear-gradient)"/><path id="Line_1022-2" data-name="Line 1022" d="M1509.4.535H.566C-.851.535-2-.032-2-.732S-.851-2,.566-2H1509.4c1.417,0,2.566.568,2.566,1.268S1510.821.535,1509.4.535Z" transform="translate(205 6322.311)" fill="url(#linear-gradient)"/></g></svg>