<svg xmlns="http://www.w3.org/2000/svg" width="64" height="64" viewBox="0 0 64 64"><g id="Group_44731" data-name="Group 44731" transform="translate(-768 -2159)"><circle id="Ellipse_2097" data-name="Ellipse 2097" cx="32" cy="32" r="32" transform="translate(768 2159)" fill="#212224"></circle><g id="Group_44714" data-name="Group 44714" transform="translate(297 -1352)"><rect id="Rectangle_5806" data-name="Rectangle 5806" width="39" height="22" rx="2" transform="translate(484 3532)" fill="#cae2bc"></rect><g id="Group_4695" data-name="Group 4695" transform="translate(489 3539)"><path id="Path_24818" data-name="Path 24818" d="M45.164,83.831h1.792V76.775h-3.09v1.44h1.3Z" transform="translate(-43.866 -76.705)" fill="#4fa83d"></path><path id="Path_24819" data-name="Path 24819" d="M80.01,83.56c1.993,0,3.11-1.279,3.11-3.583S82,76.4,80.01,76.4c-2.013,0-3.13,1.278-3.13,3.573S78,83.56,80.01,83.56Zm0-5.848c.886,0,1.278.654,1.278,2.264s-.393,2.275-1.278,2.275c-.906,0-1.288-.664-1.288-2.275S79.1,77.713,80.01,77.713Z" transform="translate(-72.391 -76.384)" fill="#4fa83d"></path><path id="Path_24820" data-name="Path 24820" d="M128.4,81.42c0,1.248,1.127,2.043,2.889,2.043s2.888-.805,2.888-2.074a1.93,1.93,0,0,0-1.258-1.781,1.648,1.648,0,0,0,.886-1.459c0-1.157-.976-1.892-2.526-1.892-1.53,0-2.516.715-2.516,1.842a1.774,1.774,0,0,0,.976,1.509A1.969,1.969,0,0,0,128.4,81.42Zm2.889-3.986c.654,0,1.016.292,1.016.815,0,.5-.362.785-1.016.785s-1.017-.282-1.017-.785C130.273,77.727,130.635,77.435,131.29,77.435Zm0,2.889c.775,0,1.208.332,1.208.916,0,.6-.433.926-1.208.926s-1.2-.332-1.2-.926S130.515,80.323,131.29,80.323Z" transform="translate(-116.907 -76.257)" fill="#4fa83d"></path><path id="Path_24821" data-name="Path 24821" d="M179.573,83.56c1.993,0,3.11-1.279,3.11-3.583s-1.117-3.573-3.11-3.573c-2.013,0-3.13,1.278-3.13,3.573S177.56,83.56,179.573,83.56Zm0-5.848c.886,0,1.278.654,1.278,2.264s-.392,2.275-1.278,2.275c-.906,0-1.288-.664-1.288-2.275S178.668,77.713,179.573,77.713Z" transform="translate(-158.417 -76.384)" fill="#4fa83d"></path><path id="Path_24822" data-name="Path 24822" d="M229.058,104.469h.661a1.288,1.288,0,0,0,1.469-1.349c0-.812-.536-1.271-1.469-1.271h-1.588V105.5h.927v-1.026Zm0-1.891h.615c.406,0,.641.192.641.573s-.235.588-.641.588h-.615Z" transform="translate(-203.077 -98.37)" fill="#4fa83d"></path></g></g></g></svg>