<svg xmlns="http://www.w3.org/2000/svg" width="70" height="58" viewBox="0 0 70 58" fill="none"><rect x="1" y="1" width="51" height="34" rx="1" stroke="#4FA83D" stroke-width="2"></rect><circle cx="52.5" cy="40.5" r="16" fill="black" stroke="#4FA83D" stroke-width="3"></circle><path d="M54.1721 38.4013L49.8558 42.8027L48.6465 41.6265C47.5674 40.5641 47.3628 40.4502 46.6744 40.4502C45.6512 40.4502 45 41.0953 45 42.0818C45 42.7268 45.186 42.9734 47.0279 44.8895C50.0605 48.0008 49.3535 48.2474 55.7907 41.6644C60.7581 36.5991 61 36.3335 61 35.6505C61 34.6261 60.3488 34 59.2884 34C58.507 34 58.4698 34.0379 54.1721 38.4013Z" fill="#4FA83D"></path><path d="M27.8447 6.8998C29.5228 7.21691 30.8177 7.91059 31.9474 9.09315C32.978 10.17 33.6122 11.4252 33.8897 12.9117C34.0416 13.7177 33.9954 15.2702 33.8038 15.9969C33.3876 17.5296 32.5684 18.8575 31.4453 19.8154C31.1612 20.0533 30.9035 20.2713 30.8573 20.2977C30.8044 20.3374 30.8111 20.3638 30.8837 20.3902C31.1149 20.4827 31.9408 20.9385 32.3768 21.216C35.092 22.9601 36.9683 26.1511 37.14 29.3089L37.1797 30.0555H36.0896H34.9996L34.9599 29.375C34.9137 28.5624 34.6824 27.6309 34.3257 26.7919C33.2753 24.3277 31.2207 22.577 28.5847 21.8833C27.7126 21.6587 26.1337 21.5992 25.2022 21.7578C21.9584 22.3259 19.3951 24.625 18.49 27.7762C18.338 28.2915 18.1993 29.1306 18.1993 29.5071C18.1993 30.0819 18.2588 30.0555 17.0564 30.0555H15.9993L16.039 29.3089C16.1513 27.1024 17.0564 24.9024 18.5891 23.1385C19.4347 22.1674 20.4984 21.3283 21.7139 20.6743L22.3548 20.3374L21.8659 19.941C20.7296 19.0425 19.7981 17.5759 19.3753 16.0365C19.2431 15.5543 19.2233 15.3363 19.2233 14.233C19.2233 13.0702 19.2365 12.9315 19.4083 12.3171C19.6131 11.5706 20.0359 10.6457 20.4521 10.0247C21.2911 8.78265 22.7446 7.67937 24.2112 7.17727C25.255 6.82053 26.8141 6.70161 27.8447 6.8998ZM25.4664 9.07994C23.643 9.49615 22.1566 10.8373 21.6082 12.5615C20.6767 15.4882 22.3283 18.5074 25.3013 19.2935C26.0346 19.4851 27.1445 19.4851 27.8712 19.2935C30.2297 18.6659 31.8086 16.651 31.8086 14.2462C31.8086 13.3874 31.6633 12.7135 31.3197 11.9868C30.6393 10.5466 29.2321 9.40366 27.7456 9.09315C27.1379 8.96102 26.0081 8.95441 25.4664 9.07994Z" fill="#4FA83D"></path></svg>