<svg xmlns="http://www.w3.org/2000/svg" width="72" height="53" viewBox="0 0 72 53" fill="none"><rect x="5.62109" y="20.1437" width="34.0131" height="3.30224" rx="1.65112" transform="rotate(0.343902 5.62109 20.1437)" fill="#4FA83D"></rect><rect x="5.62109" y="26.4179" width="34.0131" height="3.30224" rx="1.65112" transform="rotate(0.343902 5.62109 26.4179)" fill="#4FA83D"></rect><path fill-rule="evenodd" clip-rule="evenodd" d="M58.3126 2.3183L2.17559 1.98134L2.13595 8.58573L58.273 8.92268L58.3126 2.3183ZM1.98134 34.3427L2.09429 15.5259L58.2313 15.8629L58.1945 21.9997C58.8692 22.0607 59.5302 22.1694 60.174 22.3224L60.2939 2.33019C60.3005 1.23594 59.4188 0.343556 58.3245 0.336988L2.18748 3.64562e-05C1.09323 -0.00653153 0.200847 0.875206 0.194279 1.96945L3.64561e-05 34.3308C-0.00653153 35.4251 0.875206 36.3174 1.96945 36.324L42.8862 36.5696C42.8782 36.3749 42.8741 36.1791 42.8741 35.9825C42.8741 35.5121 42.8973 35.0471 42.9425 34.5886L1.98134 34.3427Z" fill="#4FA83D"></path><circle cx="56.6605" cy="36.7602" r="14.0403" stroke="#4FA83D" stroke-width="2.55279"></circle><path fill-rule="evenodd" clip-rule="evenodd" d="M58 27.5C58 27.9909 57.7642 28.4268 57.3996 28.7004V31.4H61C64.3137 31.4 67 34.0863 67 37.4C67 40.7137 64.3137 43.4 61 43.4H52C48.6863 43.4 46 40.7137 46 37.4C46 34.0863 48.6863 31.4 52 31.4H55.5996V28.6998C55.2355 28.4261 55 27.9906 55 27.5C55 26.6716 55.6716 26 56.5 26C57.3284 26 58 26.6716 58 27.5ZM61 32.6C63.651 32.6 65.8 34.749 65.8 37.4C65.8 40.051 63.651 42.2 61 42.2H52C49.349 42.2 47.2 40.051 47.2 37.4C47.2 34.749 49.349 32.6 52 32.6H61ZM52.0004 33.8C50.0122 33.8 48.4004 35.4118 48.4004 37.4C48.4004 39.3882 50.0122 41 52.0004 41H61.0004C62.9886 41 64.6004 39.3882 64.6004 37.4C64.6004 35.4118 62.9886 33.8 61.0004 33.8H52.0004ZM53.2 38.6C53.8627 38.6 54.4 38.0628 54.4 37.4C54.4 36.7373 53.8627 36.2 53.2 36.2C52.5373 36.2 52 36.7373 52 37.4C52 38.0628 52.5373 38.6 53.2 38.6ZM60.9996 37.4C60.9996 38.0628 60.4624 38.6 59.7996 38.6C59.1369 38.6 58.5996 38.0628 58.5996 37.4C58.5996 36.7373 59.1369 36.2 59.7996 36.2C60.4624 36.2 60.9996 36.7373 60.9996 37.4Z" fill="#4FA83D"></path></svg>