<svg xmlns="http://www.w3.org/2000/svg" width="1440" height="814" viewBox="0 0 1440 814" fill="none"><g opacity="0.2"><path d="M544.412 316.118C512.01 309.636 477.142 304.758 435.541 300.868C324.807 290.503 239.325 305.413 156.653 319.819C124.984 325.338 92.2363 331.051 59.0664 335.085C1.45045 342.172 -55.4974 343.223 -122.042 329.912C-174.189 319.48 -232.227 300.235 -301.13 268.155L-301.215 268.257C-262.21 286.414 -226.439 300.643 -191.891 311.738C-159.552 322.127 -129.197 329.469 -99.0863 334.18C-71.7169 338.47 -44.9487 340.501 -17.2654 340.397C6.44657 340.308 31.4437 338.61 59.1315 335.209C92.3138 331.177 125.062 325.465 156.731 319.945C239.39 305.536 324.856 290.641 435.553 300.998C502.355 307.245 589.77 319.141 673.652 356.015C727.457 379.664 778.543 410.353 825.515 447.233C880.764 490.626 939.295 528.335 999.492 559.321C1055.42 588.106 1112.56 611.007 1169.31 627.371C1192.53 634.071 1215.43 639.681 1238.09 644.214C1293.36 655.27 1347.25 659.923 1401.35 658.397C1479 656.203 1558.38 641.257 1644.02 612.694L1643.92 612.571C1499.89 660.595 1372.05 670.884 1238.27 644.123C1215.5 639.568 1192.56 633.94 1169.34 627.25C1051.08 593.145 932.226 530.867 825.634 447.154C801.406 428.118 775.923 410.613 749.896 395.12C725.44 380.564 699.826 367.37 673.738 355.905C636.825 339.683 597.245 327.224 552.714 317.821C549.965 317.246 547.202 316.676 544.412 316.118Z" stroke="url(#paint0_linear_129_15231)" stroke-miterlimit="10"/><path d="M505.186 302.98C488.714 299.684 471.265 296.646 452.408 293.777C397.035 285.351 344.147 283.055 285.939 286.555C234.568 289.641 187.177 296.72 136.991 304.219C114.884 307.518 92.0213 310.939 68.9851 313.941C-45.748 329.152 -142.552 323.943 -297.787 252.274L-297.97 252.484C-258.173 270.851 -221.94 285.018 -187.171 295.783C-154.677 305.845 -124.14 312.729 -93.8049 316.829C-66.4953 320.519 -39.3317 321.922 -10.751 321.12C13.1144 320.456 38.4946 318.255 69.1013 314.194C92.1375 311.192 115.001 307.772 137.107 304.473C236.736 289.589 330.844 275.536 452.37 294.034C517.476 303.946 602.257 320.787 680.601 363.388C730.358 390.454 779.156 423.276 825.647 460.954C881.442 506.178 941.937 543.76 1005.47 572.661C1034.77 585.987 1064.65 597.402 1094.29 606.579C1122.71 615.374 1151.08 622.191 1178.63 626.806C1260.22 640.504 1333.21 644.936 1408.3 640.765C1484.37 636.536 1563.32 623.464 1656.74 599.634L1656.56 599.385C1473.86 645.998 1339.86 653.613 1178.65 626.556C1172.41 625.512 1166.16 624.363 1159.9 623.111C1045.15 600.156 927.26 542.981 825.905 460.818C779.393 423.119 730.574 390.275 680.792 363.205C646.845 344.739 609.642 329.9 567.047 317.817C547.544 312.271 527.24 307.391 505.186 302.98Z" stroke="url(#paint1_linear_129_15231)" stroke-miterlimit="10"/><path d="M440.751 280.266C325.245 257.161 225.613 271.609 120.588 286.827C106.992 288.795 92.9332 290.832 78.9187 292.775C-29.4354 308.069 -125.736 313.631 -294.43 236.38L-294.686 236.696C-216.756 272.379 -151.229 292.322 -88.4698 299.456C-31.9263 305.884 19.4161 301.59 79.1248 293.157C93.1393 291.214 107.198 289.177 120.794 287.209C225.742 271.993 325.332 257.562 440.69 280.637C450.087 282.517 459.575 284.645 469.191 287.037C547.062 306.449 622.356 327.451 687.569 370.724C733.021 400.882 778.245 434.881 825.818 474.66C880.39 520.287 943.047 556.819 1012.03 583.223C1068.3 604.764 1127.51 619.234 1188 626.212C1263.48 634.928 1333.44 635.167 1414.84 626.991C1491.22 619.32 1571.93 604.768 1669.52 586.545L1669.28 586.158C1473.93 622.646 1346.17 644.079 1188.02 625.823C1092.37 614.777 951.984 579.554 826.248 474.439C778.651 434.647 733.405 400.635 687.942 370.466C657.933 350.546 623.022 333.686 581.224 318.899C542.964 305.365 503.395 295.166 469.303 286.668C459.674 284.281 450.16 282.148 440.751 280.266Z" stroke="url(#paint2_linear_129_15231)" stroke-miterlimit="10"/><path d="M436.519 267.776C387.879 258.046 338.139 253.431 285.734 253.729C217.81 254.118 150.972 262.556 88.8493 271.63C-36.4961 290.267 -124.611 296.127 -291.074 220.499L-291.417 220.925C-212.412 256.824 -146.233 276.266 -83.1502 282.102C-23.1579 287.66 30.3644 280.879 89.1189 272.145C215.982 253.624 341.809 240.283 486.005 280.078C574.585 304.513 642.786 336.572 694.507 378.083C736.613 411.876 777.513 446.621 825.973 488.392C880.896 535.726 945.644 571.628 1018.41 595.107C1090.17 618.255 1155.34 624.5 1197.4 625.661C1309.41 628.755 1400.05 614.922 1514.82 597.408C1563.76 589.94 1619.22 581.476 1682.23 573.491L1681.98 572.971C1618.95 580.954 1563.48 589.415 1514.54 596.884C1399.83 614.391 1309.21 628.221 1197.3 625.129C1115.6 622.881 958.767 602.069 826.533 488.095C778.061 446.322 737.149 411.574 695.045 377.773C643.213 336.172 574.894 304.055 486.183 279.577C469.726 275.049 453.189 271.111 436.519 267.776Z" stroke="url(#paint3_linear_129_15231)" stroke-width="1.5" stroke-miterlimit="10"/><path d="M417.049 249.279C380.165 241.901 342.391 237.558 303.061 236.116C242.31 233.9 177.417 238.458 98.8071 250.473C-24.1287 269.582 -112.947 283.39 -287.692 204.605L-288.118 205.134C-206.941 241.723 -142.079 260.109 -77.7909 264.737C-16.7181 269.13 39.5615 260.378 99.1666 251.115C263.407 226.019 384.12 232.594 502.84 273.079C587.403 301.926 654.237 339.728 701.478 385.405C737.991 420.705 780.741 461.742 826.171 502.089C881.592 551.303 948.434 586.559 1024.83 606.869C1099 626.59 1164.75 627.648 1206.86 625.07C1283.91 620.353 1348.99 609.007 1417.89 596.994C1493.42 583.826 1579.01 568.903 1694.99 560.402L1694.74 559.754C1578.7 568.262 1493.06 583.183 1417.52 596.357C1348.65 608.359 1283.6 619.704 1206.62 624.417C1138.66 628.574 965.642 624.959 826.896 501.74C781.476 461.404 738.737 420.377 702.237 385.08C654.866 339.283 587.893 301.402 503.15 272.494C474.775 262.829 446.179 255.106 417.049 249.279Z" stroke="url(#paint4_linear_129_15231)" stroke-width="2" stroke-miterlimit="10"/><path d="M401.733 229.699C313.084 211.966 217.487 212.026 108.718 229.325L99.1499 230.871C-28.7576 251.594 -113.264 265.284 -284.356 188.722L-284.869 189.361C-113.33 266.132 -28.6384 252.411 99.5728 231.646L109.141 230.1C267.533 204.899 397.958 216.34 519.575 266.097C601.461 299.598 664.983 342.209 708.363 392.739C749.892 441.1 787.363 480.213 826.28 515.822C882.273 567.051 951.18 601.62 1031.08 618.584C1033.03 618.999 1034.98 619.397 1036.92 619.785C1115.65 635.534 1182.79 629.576 1216.24 624.508C1272.1 616.055 1320.82 604.862 1367.92 594.035C1459.36 573.023 1553.9 551.3 1707.64 547.352L1707.41 546.565C1553.53 550.519 1458.91 572.259 1367.4 593.284C1320.31 604.105 1271.62 615.287 1215.82 623.733C1161.41 631.965 972.614 648.484 827.145 515.416C788.248 479.836 750.809 440.755 709.312 392.426C665.806 341.752 602.114 299.03 520.016 265.436C481.675 249.738 442.431 237.849 401.733 229.699Z" stroke="url(#paint5_linear_129_15231)" stroke-width="2" stroke-miterlimit="10"/><path d="M389.976 209.42C372.713 205.967 355.221 203.209 337.525 201.152C268.91 193.179 195.262 195.542 118.646 208.178C110.409 209.555 102.366 210.92 94.5213 212.257C-30.3938 233.494 -112.913 247.522 -280.99 172.84L-281.576 173.584C-202.297 208.813 -139.407 226.081 -77.6879 229.555C-20.4911 232.781 30.4936 224.112 95.0373 213.145C102.894 211.81 110.925 210.442 119.162 209.065C273.735 183.569 414.099 200.406 536.358 259.087C614.618 296.652 676.492 345.384 715.31 400.038C751.082 450.409 787.443 492.76 826.463 529.523C883.074 582.862 953.987 616.707 1037.29 630.201C1099.27 640.221 1167.95 637.929 1225.72 623.91C1269.08 613.385 1306.92 601.873 1343.52 590.734C1444.18 560.104 1539.24 531.175 1720.37 534.273L1720.19 533.36C1538.8 530.251 1443.61 559.223 1342.83 589.889C1306.26 601.016 1268.44 612.522 1225.11 623.047C1115.85 649.572 946.174 640.873 827.504 529.067C788.549 492.367 752.229 450.068 716.497 399.756C677.558 344.933 615.485 296.041 537.002 258.372C490.541 236.082 441.27 219.681 389.976 209.42Z" stroke="url(#paint6_linear_129_15231)" stroke-width="2" stroke-miterlimit="10"/><path d="M382.231 188.629C373.106 186.803 363.915 185.178 354.658 183.752C282.545 172.659 206.477 173.763 128.579 187.036C115.478 189.29 102.97 191.535 90.8634 193.698C-35.6473 216.362 -111.997 230.047 -277.632 156.954L-278.33 157.812C-200.102 192.328 -138.319 209.093 -77.9711 212.165C-21.9211 215.026 28.1077 206.063 91.4305 194.715C103.539 192.543 116.047 190.299 129.133 188.05C283.427 161.766 430.011 183.912 553.081 252.087C629.025 294.166 687.506 347.853 722.197 407.348C753.453 460.966 787.597 505.413 826.573 543.232C882.992 597.981 957.94 632.071 1043.31 641.811C1135.44 652.324 1208.16 632.39 1235.15 623.326C1271.13 611.239 1302.6 598.972 1333.03 587.112C1443.63 543.998 1530.97 509.946 1733.01 521.216L1732.89 520.169C1640.05 514.994 1565.18 519.09 1497.27 533.074C1435.95 545.702 1385.52 565.363 1332.11 586.179C1301.7 598.033 1270.24 610.294 1234.3 622.372C1144.77 652.434 958.394 669.48 827.763 542.738C788.874 505.003 754.803 460.639 723.592 407.115C688.789 347.41 630.101 293.537 553.901 251.322C500.713 221.832 443.071 200.799 382.231 188.629Z" stroke="url(#paint7_linear_129_15231)" stroke-width="2" stroke-miterlimit="10"/><path d="M377.435 167.485C375.533 167.105 373.63 166.733 371.713 166.366C296.553 152.082 218.094 151.914 138.504 165.872C120.704 169.018 104.101 172.157 88.0441 175.191C-35.8592 198.624 -110.646 212.776 -274.296 141.06L-275.041 142.027C-110.671 214.057 -35.6055 199.86 88.7382 176.344C104.782 173.307 121.386 170.169 139.172 167.028C294.159 139.842 447.102 167.564 569.847 245.066C643.652 291.677 698.728 350.315 729.139 414.647C756.12 471.722 788.045 518.273 826.748 556.942C873.241 603.407 931.648 633.711 1000.05 647.001C1095.65 665.554 1189.07 646.618 1244.63 622.714C1276.21 609.131 1303.83 595.805 1330.52 582.917C1444.41 527.951 1526.7 488.234 1745.71 508.14L1745.66 506.972C1644.57 497.785 1565.59 500.879 1497.12 516.712C1434.48 531.197 1385.78 554.7 1329.39 581.922C1302.69 594.803 1275.1 608.125 1243.55 621.697C1188.27 645.486 1095.31 664.32 1000.25 645.874C999.518 645.728 998.787 645.591 998.059 645.445C930.983 632.027 873.816 602.073 828.103 556.395C789.52 517.835 757.672 471.411 730.756 414.459C700.237 349.901 644.959 291.052 570.88 244.267C512.323 207.268 447.265 181.454 377.435 167.485Z" stroke="url(#paint8_linear_129_15231)" stroke-width="2" stroke-miterlimit="10"/><path d="M375.043 146.092C301.373 131.355 225.222 130.883 148.419 144.716C126.008 148.763 105.635 152.835 85.9311 156.768C-35.573 181.047 -108.917 195.692 -270.942 125.162L-271.76 126.234C-108.933 197.12 -35.2805 182.41 86.7322 158.028C106.423 154.092 126.783 150.026 149.18 145.984C307.876 117.401 463.216 150.086 586.596 238.026C657.375 288.463 710.461 353.777 736.076 421.922C758.858 482.529 788.567 531.167 826.905 570.632C872.772 617.85 930.948 647.767 999.727 659.608C1101.62 677.111 1200.43 650.337 1254.1 622.092C1283.02 606.871 1308.25 592.214 1332.66 578.041C1444.27 513.204 1524.91 466.355 1758.39 495.046L1758.43 493.758C1524.12 464.962 1443.24 511.949 1331.29 576.984C1306.91 591.153 1281.68 605.802 1252.79 621.012C1199.41 649.101 1101.15 675.738 999.889 658.345C931.617 646.606 873.962 616.912 828.423 570.041C790.235 530.726 760.623 482.243 737.898 421.8C712.191 353.407 658.898 287.847 587.85 237.211C528.796 195.119 461.776 165.436 388.653 148.993C384.132 147.97 379.587 147.001 375.043 146.092Z" stroke="url(#paint9_linear_129_15231)" stroke-width="3" stroke-miterlimit="10"/><path d="M375.278 124.59C304.93 110.518 231.602 110.056 158.342 123.575C131.419 128.544 107.54 133.576 84.4643 138.446C-34.8546 163.614 -106.868 178.797 -267.593 109.277L-268.499 110.468C-106.877 180.38 -34.5266 165.119 85.3553 139.834C108.417 134.97 132.284 129.936 159.18 124.97C276.112 103.39 393.24 117.616 497.893 166.085C619.927 222.616 711.544 320.974 742.983 429.213C761.881 494.275 791.223 547.579 830.21 587.651C864.478 622.876 906.253 648.046 954.391 662.465C1006.85 678.192 1066.91 680.882 1128 670.256C1178.56 661.467 1227.97 643.687 1263.55 621.481C1290.9 604.42 1314.63 588.185 1337.59 572.478C1450.28 495.404 1524.73 444.489 1771.06 481.97L1771.18 480.564C1523.81 442.925 1449.09 494.025 1336 571.376C1313.06 587.069 1289.33 603.287 1262.02 620.339C1192.76 663.565 1067.12 694.773 954.946 661.17C852.83 630.576 780.24 550.35 745.035 429.163C713.475 320.499 621.441 221.726 498.854 164.939C459.223 146.572 417.793 133.095 375.278 124.59Z" stroke="url(#paint10_linear_129_15231)" stroke-width="3" stroke-miterlimit="10"/></g><defs><linearGradient id="paint0_linear_129_15231" x1="654.019" y1="527.379" x2="690.436" y2="345.328" gradientUnits="userSpaceOnUse"><stop stop-color="#4FA83D" stop-opacity="0.4"/><stop offset="1" stop-color="#4FA83D" stop-opacity="0.4"/></linearGradient><linearGradient id="paint1_linear_129_15231" x1="659.925" y1="523.343" x2="696.356" y2="341.22" gradientUnits="userSpaceOnUse"><stop stop-color="#4FA83D" stop-opacity="0.4"/><stop offset="1" stop-color="#4FA83D" stop-opacity="0.4"/></linearGradient><linearGradient id="paint2_linear_129_15231" x1="664.911" y1="524.118" x2="703.189" y2="332.763" gradientUnits="userSpaceOnUse"><stop stop-color="#4FA83D" stop-opacity="0.4"/><stop offset="1" stop-color="#4FA83D" stop-opacity="0.4"/></linearGradient><linearGradient id="paint3_linear_129_15231" x1="668.972" y1="529.366" x2="710.342" y2="322.551" gradientUnits="userSpaceOnUse"><stop stop-color="#4FA83D" stop-opacity="0.4"/><stop offset="1" stop-color="#4FA83D" stop-opacity="0.4"/></linearGradient><linearGradient id="paint4_linear_129_15231" x1="672.485" y1="537.502" x2="718.094" y2="309.499" gradientUnits="userSpaceOnUse"><stop stop-color="#4FA83D" stop-opacity="0.4"/><stop offset="1" stop-color="#4FA83D" stop-opacity="0.4"/></linearGradient><linearGradient id="paint5_linear_129_15231" x1="675.55" y1="547.498" x2="726.141" y2="294.592" gradientUnits="userSpaceOnUse"><stop stop-color="#4FA83D" stop-opacity="0.4"/><stop offset="1" stop-color="#4FA83D" stop-opacity="0.4"/></linearGradient><linearGradient id="paint6_linear_129_15231" x1="678.426" y1="558.745" x2="734.517" y2="278.341" gradientUnits="userSpaceOnUse"><stop stop-color="#4FA83D" stop-opacity="0.4"/><stop offset="1" stop-color="#4FA83D" stop-opacity="0.4"/></linearGradient><linearGradient id="paint7_linear_129_15231" x1="681.06" y1="570.881" x2="743.085" y2="260.813" gradientUnits="userSpaceOnUse"><stop stop-color="#4FA83D" stop-opacity="0.4"/><stop offset="1" stop-color="#4FA83D" stop-opacity="0.4"/></linearGradient><linearGradient id="paint8_linear_129_15231" x1="683.602" y1="583.707" x2="751.878" y2="242.388" gradientUnits="userSpaceOnUse"><stop stop-color="#4FA83D" stop-opacity="0.4"/><stop offset="1" stop-color="#4FA83D" stop-opacity="0.4"/></linearGradient><linearGradient id="paint9_linear_129_15231" x1="686.036" y1="596.995" x2="760.797" y2="223.257" gradientUnits="userSpaceOnUse"><stop stop-color="#4FA83D" stop-opacity="0.4"/><stop offset="1" stop-color="#4FA83D" stop-opacity="0.4"/></linearGradient><linearGradient id="paint10_linear_129_15231" x1="688.378" y1="610.67" x2="769.824" y2="203.514" gradientUnits="userSpaceOnUse"><stop stop-color="#4FA83D" stop-opacity="0"/><stop offset="1" stop-color="#4FA83D" stop-opacity="0.4"/></linearGradient></defs></svg>