<svg xmlns="http://www.w3.org/2000/svg" width="1440" height="1028" viewBox="0 0 1440 1028" fill="none"><g clip-path="url(#clip0_1686_15165)"><rect width="1440" height="1028" fill="#101214"></rect><path opacity="0.5" d="M-472.847 -29L-472.847 1051M-276.929 -29L-276.929 1051M-81.0102 -29L-81.0103 1051M114.908 -29L114.908 1051M310.827 -29L310.827 1051M506.745 -29V1051M702.664 -29V1051M898.582 -29V1051M1094.5 -29L1094.5 1051M1290.42 -29V1051M1486.34 -29V1051M1682.26 -29L1682.26 1051M1878.17 -29V1051M-638 119.087H2079M-638 327.946H2079M-638 536.804H2079M-638 745.662H2079M-638 956.677H2079" stroke="#191B1D"></path></g><defs><clipPath id="clip0_1686_15165"><rect width="1440" height="1028" fill="white"></rect></clipPath></defs></svg>