<svg xmlns="http://www.w3.org/2000/svg" width="109" height="76" viewBox="0 0 109 76" fill="none"><path d="M77.7878 16.9652C76.1718 23.3738 80.0313 29.9134 86.3908 31.5419C92.7504 33.1704 99.2399 29.2811 100.856 22.8725C102.472 16.4639 98.6125 9.92429 92.2529 8.29579C85.8934 6.66729 79.4039 10.5565 77.7878 16.9652ZM80.7284 17.3132C82.1575 12.5299 87.164 9.81892 91.9107 11.259C96.6574 12.6991 99.3476 17.7443 97.9186 22.5276C96.4895 27.311 91.4829 30.0219 86.7362 28.5818C81.9895 27.1417 79.2993 22.0966 80.7284 17.3132Z" fill="#161617"></path><path d="M69.5393 16.9812C69.5963 17.2686 69.853 17.3675 70.4867 17.6198C71.6211 18.0732 72.7587 18.5267 73.8772 19.0216C74.0547 19.0982 74.229 19.376 74.2512 19.5772C74.3811 20.7746 74.4381 21.9816 74.5807 23.1791C74.6251 23.5495 74.5902 23.7474 74.2575 23.955C72.9361 24.7916 71.637 25.6665 70.3442 26.5159C70.6674 27.9113 72.2961 31.0502 73.1643 31.9283C74.5363 31.3471 75.9432 30.7756 77.328 30.1465C77.7589 29.9517 77.9807 29.99 78.3388 30.3349C79.1721 31.1364 80.0816 31.8676 80.9973 32.5733C81.368 32.8607 81.5677 33.0842 81.4473 33.5983C81.1336 34.933 80.9023 36.2869 80.6139 37.628C80.5347 37.9889 80.6044 38.2124 80.9561 38.3241C82.6165 38.8414 84.2801 39.3587 85.9405 39.876C86.3492 40.0037 86.4126 39.6653 86.514 39.4226C87.0305 38.1964 87.5533 36.9734 88.0286 35.7281C88.2061 35.2619 88.4469 35.1087 88.9476 35.0927C90.2784 35.0512 91.6061 34.9203 93.0384 34.8181C93.8844 36.1145 94.8192 37.545 95.7824 39.0139C97.7122 38.3688 99.4486 37.4045 101.096 36.1305C100.444 34.553 99.794 32.9724 99.2173 31.5834C100.203 30.3253 101.141 29.179 102.012 27.9847C102.262 27.6399 102.462 27.5824 102.839 27.6654C104.151 27.956 105.469 28.2051 106.781 28.4861C107.066 28.5467 107.272 28.5563 107.418 28.2466C108.153 26.6692 108.746 25.0471 108.983 23.3068C109.037 22.9172 108.898 22.764 108.581 22.633C107.304 22.103 106.036 21.5442 104.759 21.0205C104.449 20.8928 104.319 20.7619 104.29 20.3787C104.192 19.0567 104.04 17.738 103.85 16.4288C103.802 16.0935 103.907 15.9626 104.141 15.8093C105.444 14.9439 106.743 14.069 108.077 13.1749C107.402 11.2623 106.537 9.48368 105.301 7.85198C103.704 8.52254 102.117 9.18671 100.599 9.82534C99.3187 8.75564 98.0798 7.72106 96.7552 6.61304C96.9897 5.43158 97.2717 4.07449 97.5284 2.71102C97.7407 1.59342 97.8991 1.7403 96.7838 1.26772C96.676 1.22301 96.5873 1.13999 96.4891 1.07294C95.4909 0.769588 94.4928 0.469432 93.4978 0.166084C93.2633 0.140539 93.0193 0.150118 92.8007 0.079869C92.2303 -0.10214 91.9071 0.0287787 91.679 0.645055C91.2037 1.9287 90.6492 3.1836 90.0978 4.43851C90.0249 4.60136 89.7873 4.77379 89.6098 4.79614C88.4437 4.94622 87.2587 4.99092 86.1052 5.20167C85.5412 5.30385 85.3036 5.14739 85.0247 4.70354C84.2325 3.44544 83.3928 2.21927 82.4866 0.85261C80.6963 1.80097 78.9503 2.72379 77.1854 3.65619C77.3248 4.01063 77.4008 4.21499 77.4832 4.41935C77.9997 5.66787 78.5035 6.91958 79.0422 8.15852C79.1943 8.50977 79.1183 8.70774 78.8774 8.99512C78.0568 9.97861 77.2994 11.0132 76.4851 12.0031C76.3583 12.1563 76.0478 12.2649 75.8482 12.2298C74.7645 12.0414 73.6903 11.7891 72.6098 11.5784C71.7352 11.4059 71.4088 11.3453 71.1332 11.6359L69.5361 16.9876L69.5393 16.9812ZM77.3755 16.8566C78.1867 13.6411 80.1893 10.9366 83.0189 9.24419C85.8486 7.54863 89.163 7.06647 92.3539 7.88072C95.5448 8.69816 98.2287 10.7162 99.9113 13.5677C101.594 16.4192 102.072 19.7592 101.264 22.9747C100.453 26.1902 98.4505 28.8948 95.6208 30.5872C92.7912 32.2827 89.4767 32.7649 86.2859 31.9506C83.095 31.1332 80.4111 29.1151 78.7317 26.2636C77.0491 23.4122 76.5706 20.0721 77.3787 16.8566H77.3755Z" fill="url(#paint0_radial_1572_16793)"></path><path d="M2.30633 33.5759C2.49012 33.7196 2.69925 33.6462 3.21575 33.461C4.14101 33.1353 5.06944 32.8096 6.0042 32.5158C6.15313 32.4711 6.40346 32.5445 6.5207 32.6563C7.22415 33.3141 7.88958 34.0166 8.59936 34.668C8.818 34.8691 8.90039 35.0096 8.8085 35.3098C8.4441 36.5168 8.11139 37.7366 7.76917 38.9372C8.69443 39.6142 11.3213 40.6583 12.3067 40.7286C12.8359 39.6493 13.3936 38.554 13.9069 37.4396C14.0654 37.0916 14.2206 36.999 14.6199 37.0181C15.5451 37.0628 16.4767 37.0245 17.402 36.967C17.7759 36.9447 18.0136 36.9734 18.21 37.3502C18.717 38.3273 19.281 39.2725 19.807 40.24C19.9465 40.4987 20.1081 40.6008 20.3774 40.4795C21.6576 39.9143 22.9345 39.3459 24.2147 38.7807C24.5284 38.6402 24.3921 38.404 24.3256 38.2028C23.9992 37.1842 23.6792 36.1656 23.318 35.1597C23.1817 34.7829 23.2483 34.5626 23.5461 34.2848C24.3319 33.5536 25.0703 32.7712 25.8878 31.9506C27.0792 32.2891 28.391 32.6627 29.7441 33.0459C30.5806 31.6313 31.132 30.1273 31.4647 28.4797C30.2447 27.8666 29.0248 27.2535 27.9506 26.7139C27.8936 25.427 27.865 24.236 27.77 23.0481C27.7415 22.7033 27.8334 22.566 28.1059 22.4159C29.0533 21.8986 29.9849 21.3494 30.9292 20.8257C31.132 20.7107 31.2651 20.6086 31.1922 20.3435C30.8151 18.996 30.3303 17.6996 29.5666 16.515C29.3955 16.2499 29.2339 16.2308 28.9709 16.3202C27.9189 16.6746 26.8574 17.0067 25.8086 17.3643C25.5551 17.4505 25.4061 17.4378 25.1907 17.2238C24.4429 16.4734 23.6602 15.755 22.8617 15.0557C22.6589 14.8769 22.6525 14.7428 22.7159 14.5256C23.055 13.309 23.3877 12.0893 23.7299 10.8407C22.3198 10.0361 20.8717 9.4166 19.2684 9.07812C18.6473 10.3298 18.0326 11.5752 17.44 12.7662C16.106 12.7949 14.8132 12.8237 13.4285 12.8524C12.9563 12.0094 12.4176 11.0387 11.8631 10.0744C11.4068 9.28249 11.5811 9.28887 10.659 9.59222C10.5703 9.62096 10.4721 9.61777 10.3802 9.63054C9.61652 9.9754 8.85286 10.3203 8.0892 10.6651C7.93394 10.7737 7.79135 10.9078 7.62024 10.9812C7.17979 11.1728 7.04987 11.4219 7.23366 11.9168C7.61707 12.9482 7.93394 14.0051 8.25398 15.0557C8.29517 15.193 8.2413 15.4229 8.14307 15.5315C7.5125 16.2403 6.81856 16.8949 6.22601 17.6357C5.93766 17.9966 5.70951 18.0285 5.31026 17.9072C4.1727 17.5623 3.02246 17.2622 1.76132 16.9141C1.16877 18.4372 0.592068 19.922 0.00585938 21.426C0.275199 21.5665 0.427296 21.6527 0.585731 21.7294C1.54901 22.2147 2.50913 22.7065 3.48192 23.1759C3.7576 23.31 3.81463 23.4696 3.8178 23.7698C3.83364 24.8012 3.91286 25.8325 3.93504 26.8639C3.93821 27.0236 3.80513 27.2535 3.6657 27.3397C2.90839 27.7995 2.12572 28.2146 1.35889 28.6585C0.737828 29.0161 0.509682 29.1534 0.49067 29.4759L2.31267 33.5727L2.30633 33.5759ZM7.00234 29.3482C5.81725 26.9661 5.62396 24.2615 6.45733 21.7357C7.29069 19.2068 9.05249 17.1568 11.4132 15.9625C13.777 14.7683 16.4609 14.5735 18.9673 15.4133C21.4769 16.2531 23.5113 18.0285 24.6963 20.4074C25.8814 22.7895 26.0747 25.4941 25.2414 28.0199C24.408 30.5488 22.6462 32.5988 20.2855 33.7931C17.9217 34.9873 15.2378 35.1821 12.7313 34.3423C10.2217 33.5025 8.18743 31.7271 7.00234 29.3482Z" fill="url(#paint1_radial_1572_16793)"></path><path d="M11.2229 42.8456L9.79066 44.7264C9.77165 44.8477 9.8572 44.9276 10.0727 45.1255C10.4561 45.4768 10.8395 45.8312 11.2102 46.1952C11.2673 46.2527 11.2958 46.39 11.2768 46.473C11.15 46.968 10.9916 47.4565 10.8712 47.9515C10.8332 48.1047 10.7888 48.1782 10.6272 48.2101C9.97761 48.341 9.3312 48.4911 8.69112 48.6348C8.6119 49.2383 8.78935 50.7295 9.00165 51.2117C9.63222 51.1893 10.2755 51.1765 10.9187 51.135C11.1183 51.1223 11.2007 51.1702 11.2926 51.3617C11.5049 51.8056 11.7553 52.2335 12.0151 52.6518C12.1197 52.821 12.164 52.9392 12.0404 53.1276C11.7172 53.6097 11.4225 54.111 11.1088 54.5996C11.0233 54.7305 11.0169 54.8295 11.1405 54.9285C11.7236 55.3851 12.3034 55.8417 12.8865 56.2983C13.0291 56.4101 13.1051 56.2856 13.1812 56.2057C13.5677 55.797 13.9575 55.3915 14.3314 54.97C14.4708 54.8103 14.5881 54.788 14.7909 54.8582C15.3264 55.0434 15.8714 55.1935 16.4544 55.3691C16.597 56.011 16.7555 56.7198 16.9171 57.4511C17.7789 57.4894 18.6123 57.368 19.4552 57.1126C19.433 56.3878 19.4077 55.6629 19.3886 55.0243C19.9685 54.673 20.5104 54.3633 21.0332 54.0184C21.1853 53.9194 21.2708 53.9258 21.4103 54.0184C21.8856 54.3314 22.3736 54.6315 22.852 54.9413C22.9566 55.0083 23.0358 55.0434 23.1404 54.9413C23.6664 54.4272 24.1449 53.8716 24.4998 53.217C24.579 53.0701 24.5473 52.9902 24.4395 52.8881C24.0118 52.4825 23.5935 52.0706 23.1626 51.6683C23.058 51.5693 23.0263 51.499 23.0738 51.3426C23.2323 50.8029 23.3685 50.2569 23.4889 49.7077C23.5206 49.5672 23.5808 49.5321 23.6981 49.5065C24.3445 49.3596 24.9909 49.2096 25.6532 49.0563C25.669 48.1941 25.593 47.3575 25.3458 46.5241C24.6107 46.5465 23.8819 46.572 23.1847 46.5944C22.8362 45.9749 22.5003 45.3778 22.1391 44.736C22.4084 44.3017 22.7221 43.8068 23.0295 43.3054C23.2798 42.8935 23.321 42.9765 22.9503 42.6189C22.9154 42.5838 22.8901 42.5391 22.8615 42.4976C22.5098 42.2262 22.1613 41.9547 21.8095 41.6833C21.7208 41.6386 21.6226 41.6035 21.5465 41.5428C21.3469 41.3832 21.2011 41.3864 21.0174 41.5971C20.6371 42.0346 20.2315 42.4497 19.8259 42.8616C19.7721 42.9159 19.6516 42.9478 19.5788 42.9287C19.094 42.8105 18.6155 42.6508 18.1275 42.5582C17.8867 42.5135 17.817 42.4146 17.7726 42.1974C17.6459 41.5779 17.4938 40.9649 17.3385 40.2847C16.4861 40.3901 15.6559 40.4923 14.8162 40.5945C14.8162 40.7573 14.8162 40.8499 14.8226 40.9425C14.8416 41.5173 14.8542 42.0889 14.8828 42.6636C14.8923 42.8265 14.8321 42.8935 14.6926 42.9702C14.2205 43.2352 13.7642 43.5322 13.2952 43.8004C13.2224 43.8419 13.0829 43.8387 13.0101 43.794C12.6076 43.5545 12.2211 43.2927 11.8218 43.0436C11.5018 42.8424 11.3813 42.769 11.2261 42.8424L11.2229 42.8456ZM14.1793 46.5529C15.4595 44.8701 17.8518 44.554 19.5186 45.844C21.1885 47.134 21.5022 49.5448 20.222 51.2244C18.9419 52.9072 16.5495 53.2233 14.8828 51.9333C13.2129 50.6433 12.8992 48.2325 14.1793 46.5529Z" fill="url(#paint2_radial_1572_16793)"></path><path d="M58.6992 20.2286H53.7212C52.2949 20.2286 51.1387 21.3938 51.1387 22.831V22.8342C51.1387 24.2715 52.2949 25.4367 53.7212 25.4367H58.6992C60.1255 25.4367 61.2817 24.2715 61.2817 22.8342V22.831C61.2817 21.3938 60.1255 20.2286 58.6992 20.2286Z" fill="#5184CE"></path><path d="M50.1057 71.5552L42.2695 75.1954V76.0001H70.1794V75.1954L62.2703 71.5552H50.1057Z" fill="url(#paint3_radial_1572_16793)"></path><path d="M62.2774 55.9503H50.1064V71.5584H62.2774V55.9503Z" fill="url(#paint4_radial_1572_16793)"></path><path d="M93.0195 60.8487V25.6506C93.0195 23.9774 91.6728 22.6235 90.0156 22.6235H22.291C20.6306 22.6235 19.2871 23.9806 19.2871 25.6506V60.8487H93.0195Z" fill="url(#paint5_radial_1572_16793)"></path><g style="mix-blend-mode:multiply" opacity="0.3"><path d="M70.1794 75.1954H42.2695V76.0033H70.1794V75.1954Z" fill="#184655"></path></g><g style="mix-blend-mode:multiply" opacity="0.3"><path d="M62.2711 69.7224H50.1064V71.5552H62.2711V69.7224Z" fill="#184655"></path></g><path d="M19.2842 60.8486V66.4877C19.2842 67.6596 20.0542 68.6112 21.0016 68.6112H91.296C92.2466 68.6112 93.0134 67.6596 93.0134 66.4877V60.8486H19.2842Z" fill="url(#paint6_radial_1572_16793)"></path><path d="M56.9538 21.6112C56.9538 21.9912 56.6465 22.3009 56.2694 22.3009C55.8923 22.3009 55.585 21.9912 55.585 21.6112C55.585 21.2312 55.8923 20.9215 56.2694 20.9215C56.6465 20.9215 56.9538 21.2312 56.9538 21.6112Z" fill="#184655"></path><path d="M91.2924 59.3191V25.7432C91.2924 24.8619 90.5605 24.1498 89.6542 24.1498H22.649C21.7427 24.1498 21.0107 24.8619 21.0107 25.7432V59.3191H91.2924Z" fill="#C9E2BB"></path><path d="M60.3095 45.6525H52.5969C51.4815 51.6939 48.3002 56.3718 42.4951 59.3223H70.4113C64.2641 56.3303 61.2094 51.5981 60.3095 45.6525Z" fill="white"></path><path d="M51.71 42.8936H61.1939V43.0532C61.1939 44.4869 60.0405 45.6492 58.6177 45.6492H54.2861C52.8634 45.6492 51.71 44.4869 51.71 43.0532V42.8936Z" fill="#878583"></path><path d="M49.0607 29.5558C49.0607 29.5558 45.4832 34.3583 42.9419 37.3087C39.5102 41.2938 40.4228 41.8015 43.4964 52.853C51.3199 47.546 47.9833 39.8856 50.7908 38.3433C55.9145 35.527 49.0638 29.5558 49.0638 29.5558H49.0607Z" fill="url(#paint7_radial_1572_16793)"></path><path d="M63.8421 29.5558C63.8421 29.5558 67.4196 34.3583 69.9609 37.3087C73.3926 41.2938 72.48 41.8015 69.4064 52.853C61.5829 47.546 64.9195 39.8856 62.112 38.3433C56.9883 35.527 63.839 29.5558 63.839 29.5558H63.8421Z" fill="url(#paint8_radial_1572_16793)"></path><path d="M66.1814 25.7687C66.1814 16.5118 60.8738 8.25112 58.1266 4.59178C57.309 3.50292 55.6898 3.47737 54.8406 4.54069C52.0427 8.04357 46.7256 15.9274 46.7256 25.3185C46.7256 29.1119 49.3049 39.8888 50.6516 42.6349C50.9748 43.2927 51.6371 43.711 52.3659 43.711H60.7502C61.479 43.711 62.1413 43.2927 62.4645 42.6349C63.8112 39.8888 66.1845 29.5622 66.1845 25.7687H66.1814Z" fill="url(#paint9_radial_1572_16793)"></path><path d="M62.4613 42.6349C63.808 39.8888 66.1814 29.5621 66.1814 25.7687C66.1814 20.1328 64.2136 14.8609 62.0526 10.7769C60.37 9.90196 58.5163 9.4198 56.5707 9.4198C54.416 9.4198 52.3785 10.0105 50.5565 11.0707C48.5096 14.9407 46.7256 19.8773 46.7256 25.3217C46.7256 29.1151 49.3049 39.892 50.6516 42.6381C50.9748 43.2959 51.6371 43.7142 52.3659 43.7142H60.7502C61.479 43.7142 62.1413 43.2959 62.4645 42.6381L62.4613 42.6349Z" fill="url(#paint10_radial_1572_16793)"></path><g style="mix-blend-mode:multiply"><path d="M61.7304 24.7968C63.6126 22.0668 62.9422 18.316 60.2331 16.4193C57.5239 14.5226 53.8019 15.1981 51.9197 17.9282C50.0375 20.6582 50.7079 24.4089 53.417 26.3056C56.1262 28.2024 59.8482 27.5268 61.7304 24.7968Z" fill="#EBD6AC"></path></g><path d="M56.4818 27.3015C59.7806 27.3015 62.4548 24.6066 62.4548 21.2824C62.4548 17.9581 59.7806 15.2633 56.4818 15.2633C53.183 15.2633 50.5088 17.9581 50.5088 21.2824C50.5088 24.6066 53.183 27.3015 56.4818 27.3015Z" fill="#0E2E35"></path><path d="M50.7752 21.3718C50.7752 18.0477 53.4496 15.3527 56.7482 15.3527C57.3566 15.3527 57.9396 15.4453 58.491 15.6146C57.8636 15.3878 57.1855 15.2633 56.4789 15.2633C53.1802 15.2633 50.5059 17.9583 50.5059 21.2824C50.5059 23.9966 52.2867 26.2892 54.7361 27.0396C52.4261 26.2062 50.7752 23.9838 50.7752 21.3718Z" fill="#1F4752"></path><g style="mix-blend-mode:multiply"><path d="M56.5613 26.9789C56.8098 26.9789 57.0112 26.7759 57.0112 26.5254C57.0112 26.275 56.8098 26.072 56.5613 26.072C56.3128 26.072 56.1113 26.275 56.1113 26.5254C56.1113 26.7759 56.3128 26.9789 56.5613 26.9789Z" fill="#D1CFCB"></path></g><g style="mix-blend-mode:multiply"><path d="M56.532 16.6459C56.7805 16.6459 56.9819 16.4429 56.9819 16.1924C56.9819 15.942 56.7805 15.739 56.532 15.739C56.2835 15.739 56.082 15.942 56.082 16.1924C56.082 16.4429 56.2835 16.6459 56.532 16.6459Z" fill="#D1CFCB"></path></g><g style="mix-blend-mode:multiply"><path d="M60.3884 18.3734C60.6369 18.3734 60.8384 18.1704 60.8384 17.92C60.8384 17.6696 60.6369 17.4666 60.3884 17.4666C60.1399 17.4666 59.9385 17.6696 59.9385 17.92C59.9385 18.1704 60.1399 18.3734 60.3884 18.3734Z" fill="#D1CFCB"></path></g><g style="mix-blend-mode:multiply"><path d="M52.8914 25.51C53.1399 25.51 53.3413 25.307 53.3413 25.0566C53.3413 24.8062 53.1399 24.6031 52.8914 24.6031C52.6429 24.6031 52.4414 24.8062 52.4414 25.0566C52.4414 25.307 52.6429 25.51 52.8914 25.51Z" fill="#D1CFCB"></path></g><g style="mix-blend-mode:multiply"><path d="M60.3884 25.3088C60.6369 25.3088 60.8384 25.1058 60.8384 24.8554C60.8384 24.605 60.6369 24.402 60.3884 24.402C60.1399 24.402 59.9385 24.605 59.9385 24.8554C59.9385 25.1058 60.1399 25.3088 60.3884 25.3088Z" fill="#D1CFCB"></path></g><g style="mix-blend-mode:multiply"><path d="M53.1607 17.8465C53.1607 18.0988 52.9579 18.2999 52.7107 18.2999C52.4635 18.2999 52.2607 18.0956 52.2607 17.8465C52.2607 17.5974 52.4635 17.3931 52.7107 17.3931C52.9579 17.3931 53.1607 17.5974 53.1607 17.8465Z" fill="#D1CFCB"></path></g><g style="mix-blend-mode:multiply"><path d="M61.7224 21.8252C61.9709 21.8252 62.1724 21.6222 62.1724 21.3718C62.1724 21.1213 61.9709 20.9183 61.7224 20.9183C61.4739 20.9183 61.2725 21.1213 61.2725 21.3718C61.2725 21.6222 61.4739 21.8252 61.7224 21.8252Z" fill="#D1CFCB"></path></g><g style="mix-blend-mode:multiply"><path d="M51.3132 21.8252C51.5617 21.8252 51.7632 21.6222 51.7632 21.3718C51.7632 21.1213 51.5617 20.9183 51.3132 20.9183C51.0647 20.9183 50.8633 21.1213 50.8633 21.3718C50.8633 21.6222 51.0647 21.8252 51.3132 21.8252Z" fill="#D1CFCB"></path></g><path d="M60.8565 21.4264C60.9364 18.9888 59.0401 16.9475 56.6211 16.867C54.2022 16.7866 52.1765 18.6975 52.0967 21.1351C52.0169 23.5727 53.9131 25.614 56.3321 25.6945C58.751 25.7749 60.7767 23.864 60.8565 21.4264Z" fill="url(#paint11_linear_1572_16793)"></path><g style="mix-blend-mode:multiply"><path d="M52.5995 21.8283C52.5995 19.3888 54.5609 17.4122 56.9818 17.4122C58.1162 17.4122 59.1492 17.8465 59.9255 18.5586C59.1239 17.5304 57.8786 16.8694 56.478 16.8694C54.0571 16.8694 52.0957 18.8459 52.0957 21.2855C52.0957 22.5819 52.6502 23.7474 53.5311 24.5553C52.9449 23.8049 52.5964 22.8597 52.5964 21.8283H52.5995Z" fill="#C1DAE3"></path></g><path d="M56.4812 26.9087C56.7297 26.9087 56.9312 26.7057 56.9312 26.4553C56.9312 26.2048 56.7297 26.0018 56.4812 26.0018C56.2327 26.0018 56.0312 26.2048 56.0312 26.4553C56.0312 26.7057 56.2327 26.9087 56.4812 26.9087Z" fill="#878583"></path><g style="mix-blend-mode:screen"><path d="M56.4818 26.7075C56.3423 26.7075 56.2314 26.5958 56.2314 26.4553C56.2314 26.3148 56.3423 26.203 56.4818 26.203C56.6212 26.203 56.7321 26.3148 56.7321 26.4553C56.7321 26.5958 56.6212 26.7075 56.4818 26.7075Z" fill="#858585"></path></g><path d="M56.4529 16.5757C56.7014 16.5757 56.9028 16.3727 56.9028 16.1223C56.9028 15.8718 56.7014 15.6688 56.4529 15.6688C56.2044 15.6688 56.0029 15.8718 56.0029 16.1223C56.0029 16.3727 56.2044 16.5757 56.4529 16.5757Z" fill="#878583"></path><g style="mix-blend-mode:screen"><path d="M56.4535 16.3745C56.314 16.3745 56.2031 16.2628 56.2031 16.1223C56.2031 15.9818 56.314 15.87 56.4535 15.87C56.5929 15.87 56.7038 15.9818 56.7038 16.1223C56.7038 16.2628 56.5929 16.3745 56.4535 16.3745Z" fill="#858585"></path></g><path d="M60.7531 17.9267C60.7967 17.6802 60.6338 17.4447 60.3892 17.4007C60.1445 17.3567 59.9108 17.5208 59.8671 17.7674C59.8235 18.0139 59.9864 18.2494 60.231 18.2934C60.4757 18.3374 60.7094 18.1732 60.7531 17.9267Z" fill="#878583"></path><g style="mix-blend-mode:screen"><path d="M60.3089 18.1021C60.1695 18.1021 60.0586 17.9903 60.0586 17.8498C60.0586 17.7093 60.1695 17.5975 60.3089 17.5975C60.4483 17.5975 60.5592 17.7093 60.5592 17.8498C60.5592 17.9903 60.4483 18.1021 60.3089 18.1021Z" fill="#858585"></path></g><path d="M53.2622 24.9864C53.2622 25.2386 53.0594 25.4398 52.8123 25.4398C52.5651 25.4398 52.3623 25.2354 52.3623 24.9864C52.3623 24.7373 52.5651 24.533 52.8123 24.533C53.0594 24.533 53.2622 24.7373 53.2622 24.9864Z" fill="#878583"></path><g style="mix-blend-mode:screen"><path d="M52.8118 25.2386C52.6724 25.2386 52.5615 25.1269 52.5615 24.9864C52.5615 24.8459 52.6724 24.7341 52.8118 24.7341C52.9513 24.7341 53.0622 24.8459 53.0622 24.9864C53.0622 25.1269 52.9513 25.2386 52.8118 25.2386Z" fill="#858585"></path></g><path d="M60.754 24.8681C60.7977 24.6215 60.6348 24.386 60.3901 24.342C60.1455 24.298 59.9118 24.4622 59.8681 24.7087C59.8245 24.9552 59.9874 25.1908 60.232 25.2348C60.4767 25.2788 60.7104 25.1146 60.754 24.8681Z" fill="#878583"></path><g style="mix-blend-mode:screen"><path d="M60.3089 25.0375C60.1695 25.0375 60.0586 24.9257 60.0586 24.7852C60.0586 24.6447 60.1695 24.533 60.3089 24.533C60.4483 24.533 60.5592 24.6447 60.5592 24.7852C60.5592 24.9257 60.4483 25.0375 60.3089 25.0375Z" fill="#858585"></path></g><path d="M52.6316 18.2297C52.8801 18.2297 53.0816 18.0267 53.0816 17.7763C53.0816 17.5259 52.8801 17.3229 52.6316 17.3229C52.3831 17.3229 52.1816 17.5259 52.1816 17.7763C52.1816 18.0267 52.3831 18.2297 52.6316 18.2297Z" fill="#878583"></path><g style="mix-blend-mode:screen"><path d="M52.6312 18.0286C52.4918 18.0286 52.3809 17.9168 52.3809 17.7763C52.3809 17.6358 52.4918 17.524 52.6312 17.524C52.7706 17.524 52.8815 17.6358 52.8815 17.7763C52.8815 17.9168 52.7706 18.0286 52.6312 18.0286Z" fill="#858585"></path></g><path d="M61.6404 21.755C61.8889 21.755 62.0903 21.552 62.0903 21.3016C62.0903 21.0511 61.8889 20.8481 61.6404 20.8481C61.3919 20.8481 61.1904 21.0511 61.1904 21.3016C61.1904 21.552 61.3919 21.755 61.6404 21.755Z" fill="#878583"></path><g style="mix-blend-mode:screen"><path d="M61.64 21.5538C61.5006 21.5538 61.3896 21.4421 61.3896 21.3016C61.3896 21.1611 61.5006 21.0493 61.64 21.0493C61.7794 21.0493 61.8903 21.1611 61.8903 21.3016C61.8903 21.4421 61.7794 21.5538 61.64 21.5538Z" fill="#858585"></path></g><path d="M51.2341 21.755C51.4826 21.755 51.6841 21.552 51.6841 21.3016C51.6841 21.0511 51.4826 20.8481 51.2341 20.8481C50.9856 20.8481 50.7842 21.0511 50.7842 21.3016C50.7842 21.552 50.9856 21.755 51.2341 21.755Z" fill="#878583"></path><g style="mix-blend-mode:screen"><path d="M51.2337 21.5538C51.0943 21.5538 50.9834 21.4421 50.9834 21.3016C50.9834 21.1611 51.0943 21.0493 51.2337 21.0493C51.3732 21.0493 51.4841 21.1611 51.4841 21.3016C51.4841 21.4421 51.3732 21.5538 51.2337 21.5538Z" fill="#858585"></path></g><g style="mix-blend-mode:screen"><path d="M59.2129 21.4356C58.7186 23.3611 56.7667 24.517 54.8559 24.0189C54.2666 23.8656 53.7501 23.5718 53.335 23.1855C53.8103 24.0157 54.6056 24.6639 55.6006 24.9225C57.5715 25.4366 59.5805 24.2456 60.0906 22.2594C60.5089 20.6341 59.7928 18.9833 58.4397 18.1562C59.1939 19.0216 59.5234 20.2382 59.2161 21.4356H59.2129Z" fill="#7A7A7A"></path></g><path d="M57.6957 42.2613C57.6957 48.1111 57.119 51.8886 56.4504 52.8561C55.7596 51.8471 55.2051 48.1143 55.2051 42.2613C55.2051 36.4083 56.4504 31.6664 56.4504 31.6664C56.4504 31.6664 57.6957 36.4083 57.6957 42.2613Z" fill="url(#paint12_radial_1572_16793)"></path><g style="mix-blend-mode:screen"><path d="M47.9424 27.3333C47.9424 17.5527 53.6461 9.34314 56.65 5.69657C56.65 5.69338 56.6563 5.69018 56.6595 5.68699C56.9415 5.34852 56.5834 4.86635 56.1683 5.02601C55.8483 5.15054 55.5536 5.3549 55.3191 5.64229C52.5212 9.03979 47.2041 16.6906 47.2041 25.8038C47.2041 29.4344 49.5204 38.4071 50.883 41.2522C49.4539 36.7499 47.9424 30.4307 47.9424 27.3333Z" fill="#592D24"></path></g><path d="M91.2931 59.3191V48.7817C90.9953 48.7306 90.6879 48.7051 90.3774 48.7051C87.3196 48.7051 84.8417 52.1888 84.8417 55.2702C84.8417 55.4682 84.8512 55.6661 84.8733 55.8609C84.8226 55.8609 84.7719 55.8609 84.7212 55.8609C84.2269 55.8609 83.7516 55.9439 83.308 56.094C82.6299 54.143 80.7857 52.7412 78.6183 52.7412C76.1087 52.7412 74.0332 54.6156 73.6974 57.052C73.3995 56.9657 73.089 56.921 72.7658 56.921C71.2448 56.921 69.9551 57.9301 69.5273 59.3223H91.2931V59.3191Z" fill="white"></path><path d="M40.7486 55.9503C39.3226 55.9503 38.0805 56.7486 37.4404 57.9236C36.9493 57.384 36.2427 57.0455 35.4568 57.0455C34.7661 57.0455 34.1387 57.3074 33.6633 57.7384C33.2768 55.3595 31.2298 53.5458 28.7614 53.5458C28.3558 53.5458 27.9629 53.5937 27.5858 53.6863C27.5858 53.6384 27.5858 53.5905 27.5858 53.5458C27.5858 50.1515 24.8575 47.4022 21.4892 47.4022C21.3276 47.4022 21.1692 47.4086 21.0107 47.4214V59.3222H44.4971C44.2817 57.4255 42.6878 55.9535 40.7486 55.9535V55.9503Z" fill="white"></path><defs><radialGradient id="paint0_radial_1572_16793" cx="0" cy="0" r="1" gradientUnits="userSpaceOnUse" gradientTransform="translate(6.21289 -2.28626) scale(167.044 168.333)"><stop stop-color="#4FA83D"></stop><stop offset="0.98"></stop></radialGradient><radialGradient id="paint1_radial_1572_16793" cx="0" cy="0" r="1" gradientUnits="userSpaceOnUse" gradientTransform="translate(6.21334 -2.28627) scale(167.044 168.333)"><stop stop-color="#4FA83D"></stop><stop offset="0.98"></stop></radialGradient><radialGradient id="paint2_radial_1572_16793" cx="0" cy="0" r="1" gradientUnits="userSpaceOnUse" gradientTransform="translate(6.21321 -2.28625) scale(167.044 168.333)"><stop stop-color="#4FA83D"></stop><stop offset="0.98"></stop></radialGradient><radialGradient id="paint3_radial_1572_16793" cx="0" cy="0" r="1" gradientUnits="userSpaceOnUse" gradientTransform="translate(56.2245 73.7777) scale(9.9909 10.068)"><stop stop-color="#4FA83D"></stop><stop offset="0.98"></stop></radialGradient><radialGradient id="paint4_radial_1572_16793" cx="0" cy="0" r="1" gradientUnits="userSpaceOnUse" gradientTransform="translate(56.1935 63.7576) scale(6.96479 7.01853)"><stop stop-color="#4FA83D"></stop><stop offset="0.98"></stop></radialGradient><radialGradient id="paint5_radial_1572_16793" cx="0" cy="0" r="1" gradientUnits="userSpaceOnUse" gradientTransform="translate(12.1987 20.8673) scale(100.254 101.028)"><stop stop-color="#4FA83D"></stop><stop offset="0.98"></stop></radialGradient><radialGradient id="paint6_radial_1572_16793" cx="0" cy="0" r="1" gradientUnits="userSpaceOnUse" gradientTransform="translate(12.199 20.8673) scale(100.254 101.028)"><stop stop-color="#4FA83D"></stop><stop offset="0.98"></stop></radialGradient><radialGradient id="paint7_radial_1572_16793" cx="0" cy="0" r="1" gradientUnits="userSpaceOnUse" gradientTransform="translate(56.374 55.516) scale(98.0553 98.8118)"><stop stop-color="#4FA83D"></stop><stop offset="0.98"></stop></radialGradient><radialGradient id="paint8_radial_1572_16793" cx="0" cy="0" r="1" gradientUnits="userSpaceOnUse" gradientTransform="translate(56.3735 55.516) scale(98.0553 98.8118)"><stop stop-color="#4FA83D"></stop><stop offset="0.98"></stop></radialGradient><radialGradient id="paint9_radial_1572_16793" cx="0" cy="0" r="1" gradientUnits="userSpaceOnUse" gradientTransform="translate(56.3743 55.516) scale(98.0553 98.8118)"><stop stop-color="#4FA83D"></stop><stop offset="0.98"></stop></radialGradient><radialGradient id="paint10_radial_1572_16793" cx="0" cy="0" r="1" gradientUnits="userSpaceOnUse" gradientTransform="translate(56.4535 26.5638) scale(13.8599 13.9668)"><stop stop-color="#4FA83D"></stop><stop offset="0.98"></stop></radialGradient><linearGradient id="paint11_linear_1572_16793" x1="52.0945" y1="21.2855" x2="60.856" y2="21.2855" gradientUnits="userSpaceOnUse"><stop stop-color="#1F90F2"></stop><stop offset="1" stop-color="#A3D6FF"></stop></linearGradient><radialGradient id="paint12_radial_1572_16793" cx="0" cy="0" r="1" gradientUnits="userSpaceOnUse" gradientTransform="translate(56.3743 55.516) scale(98.0553 98.8118)"><stop stop-color="#4FA83D"></stop><stop offset="0.98"></stop></radialGradient></defs></svg>