<svg xmlns="http://www.w3.org/2000/svg" width="1440" height="554" viewBox="0 0 1440 554" fill="none"><g opacity="0.3"><path d="M349.289 211.062C311.792 208.641 271.78 208.051 224.351 209.201C98.1062 212.252 4.35017 236.622 -86.3257 260.178C-121.061 269.202 -156.978 278.539 -193.641 286.313C-257.313 299.892 -321.207 307.593 -398.217 302.621C-458.564 298.725 -526.962 287.052 -609.656 264.323L-609.735 264.431C-562.924 277.294 -520.386 286.763 -479.729 293.365C-441.67 299.548 -406.337 303.036 -371.703 304.025C-340.221 304.932 -309.78 303.738 -278.654 300.385C-251.993 297.514 -224.147 292.945 -193.548 286.424C-156.871 278.651 -120.953 269.315 -86.2181 260.29C4.4434 236.733 98.1842 212.379 224.387 209.324C300.545 207.478 400.804 208.637 501.122 234.213C565.469 250.614 627.895 274.1 686.692 304.018C755.852 339.222 827.787 368.578 900.509 391.279C968.07 412.367 1036.05 427.658 1102.53 436.713C1129.74 440.422 1156.4 443.123 1182.63 444.816C1246.59 448.946 1307.97 447.085 1368.59 439.261C1455.58 428.03 1542.46 404.343 1634.2 366.834L1634.06 366.728C1479.79 429.796 1337.64 454.702 1182.82 444.707C1156.47 443.006 1129.75 440.293 1102.56 436.593C964.007 417.718 820.243 371.842 686.813 303.929C656.484 288.485 624.989 274.658 593.208 262.83C563.346 251.717 532.401 242.048 501.201 234.097C457.056 222.847 410.519 215.526 358.904 211.724C355.719 211.494 352.519 211.271 349.289 211.062Z" stroke="url(#paint0_linear_1572_16751)" stroke-miterlimit="10"></path><path d="M303.04 203.04C283.977 201.81 263.857 200.94 242.181 200.399C178.528 198.809 118.66 202.817 53.7434 213.019C-3.54795 222.02 -55.7187 234.39 -110.965 247.493C-135.301 253.26 -160.469 259.233 -185.899 264.824C-312.512 292.92 -422.254 299.289 -608.46 248.664L-608.632 248.888C-560.896 261.86 -517.848 271.216 -476.996 277.474C-438.816 283.324 -403.353 286.351 -368.564 286.726C-337.246 287.063 -306.462 285.219 -274.439 281.091C-247.699 277.649 -219.502 272.552 -185.727 265.054C-160.297 259.462 -135.129 253.49 -110.793 247.722C-1.11752 221.716 102.48 197.155 242.179 200.65C317.021 202.526 415.116 208.745 510.13 240.475C570.475 260.635 630.67 286.439 689.055 317.181C759.125 354.08 833.249 383.083 909.383 403.388C944.495 412.751 979.96 420.208 1014.79 425.542C1048.18 430.655 1081.19 433.871 1112.93 435.07C1206.93 438.644 1289.75 434.328 1373.55 421.497C1458.45 408.495 1545.15 386.658 1646.4 352.785L1646.15 352.567C1448.15 418.821 1298.63 441.883 1112.91 434.826C1105.73 434.556 1098.5 434.187 1091.26 433.719C958.461 425.146 816.612 384.058 689.324 317.02C630.912 286.26 570.688 260.438 510.315 240.276C469.144 226.521 424.896 216.634 375.026 210.029C352.191 206.991 328.562 204.688 303.04 203.04Z" stroke="url(#paint1_linear_1572_16751)" stroke-miterlimit="10"></path><path d="M226.888 188.793C93.2173 180.163 -16.5315 205.752 -132.224 232.715C-147.2 236.203 -162.687 239.812 -178.139 243.326C-297.563 270.752 -404.999 287.411 -607.248 233.004L-607.485 233.337C-514.054 258.468 -437.119 269.931 -365.366 269.412C-300.718 268.945 -243.654 258.787 -177.846 243.669C-162.394 240.155 -146.907 236.546 -131.93 233.058C-16.3247 206.105 93.3796 180.538 226.879 189.157C237.753 189.859 248.771 190.789 259.975 191.958C350.712 201.461 438.805 212.793 519.155 246.711C575.157 270.349 631.522 297.704 691.464 330.336C760.222 367.766 836.608 395.506 918.478 412.772C985.257 426.859 1054.2 433.805 1123.38 433.403C1209.7 432.909 1288.43 424.92 1378.69 407.5C1463.37 391.155 1551.82 367.689 1658.66 338.713L1658.33 338.368C1444.46 396.382 1304.19 431.988 1123.33 433.028C1013.95 433.652 850.333 416.302 691.911 330.074C631.941 297.432 575.549 270.067 519.533 246.419C482.557 230.805 440.561 218.706 391.153 209.409C345.926 200.901 299.766 195.75 260.042 191.589C248.823 190.428 237.777 189.496 226.888 188.793Z" stroke="url(#paint2_linear_1572_16751)" stroke-miterlimit="10"></path><path d="M220.105 177.288C163.816 173.654 107.115 175.064 48.2097 181.507C-28.1394 189.862 -101.966 205.823 -170.387 221.841C-308.386 254.475 -406.566 270.46 -606.042 217.35L-606.358 217.799C-511.685 243.011 -434.097 253.916 -362.188 252.111C-293.802 250.403 -234.687 237.599 -170 222.303C-30.2751 189.602 109.121 161.999 277.762 183.295C381.356 196.365 463.256 219.157 528.144 252.967C580.968 280.49 632.59 309.07 693.85 343.512C763.28 382.54 841.917 409.43 927.57 423.44C1012.03 437.252 1086.35 435.595 1133.86 431.769C1260.36 421.582 1360.1 397.639 1486.38 367.326C1540.23 354.4 1601.26 339.751 1670.85 324.675L1670.48 324.206C1600.87 339.281 1539.83 353.929 1485.98 366.855C1359.76 397.155 1260.05 421.092 1133.66 431.27C1041.38 438.71 861.595 437.138 694.432 343.161C633.158 308.718 581.522 280.137 528.699 252.606C463.672 218.722 381.63 195.889 277.881 182.792C258.636 180.375 239.397 178.534 220.105 177.288Z" stroke="url(#paint3_linear_1572_16751)" stroke-width="1.5" stroke-miterlimit="10"></path><path d="M195.206 161.806C152.522 159.05 109.326 159.315 64.8482 162.55C-3.85178 167.559 -76.1172 179.563 -162.61 200.344C-297.822 233.15 -395.51 256.853 -604.813 201.683L-605.207 202.241C-507.977 227.86 -432.041 237.906 -358.973 234.799C-289.559 231.845 -227.66 216.823 -162.102 200.919C18.6088 157.508 155.468 149.642 295.561 174.594C395.349 192.376 476.639 220.847 537.159 259.186C583.935 288.814 638.654 323.223 696.276 356.653C766.569 397.429 847.458 423.452 936.679 433.991C1023.31 444.225 1097.44 437.517 1144.4 430.092C1230.31 416.507 1301.69 397.959 1377.27 378.32C1460.1 356.793 1553.98 332.398 1683.08 310.602L1682.69 310.01C1553.53 331.818 1459.6 356.217 1376.74 377.751C1301.2 397.376 1229.86 415.919 1144.02 429.493C1068.24 441.472 873.016 458.327 697.035 356.232C639.426 322.811 584.722 288.411 537.96 258.784C477.274 220.345 395.816 191.815 295.815 173.995C262.334 168.043 228.917 163.982 195.206 161.806Z" stroke="url(#paint4_linear_1572_16751)" stroke-width="2" stroke-miterlimit="10"></path><path d="M174.826 144.787C72.2369 138.164 -35.2972 149.454 -154.863 178.856L-165.378 181.465C-305.922 216.406 -398.778 239.489 -603.613 186.025L-604.087 186.699C-398.716 240.311 -305.656 217.176 -164.777 182.16L-154.262 179.551C19.8527 136.726 168.423 132.394 313.272 165.915C410.799 188.484 489.14 221.964 546.101 265.42C600.628 307.009 649.098 340.188 698.628 369.832C769.891 412.477 852.99 437.597 945.616 444.509C947.872 444.679 950.13 444.833 952.373 444.978C1043.49 450.86 1118.05 437.247 1154.87 428.446C1216.34 413.761 1269.34 397.282 1320.58 381.345C1420.05 350.411 1522.9 318.43 1695.21 296.573L1694.83 295.844C1522.35 317.723 1419.42 349.73 1319.87 380.684C1268.65 396.613 1215.68 413.079 1154.27 427.751C1094.4 442.054 884.67 480.109 699.535 369.339C650.032 339.722 601.604 306.57 547.118 265.007C489.992 221.428 411.442 187.862 313.66 165.228C267.994 154.649 221.926 147.836 174.826 144.787Z" stroke="url(#paint5_linear_1572_16751)" stroke-width="2" stroke-miterlimit="10"></path><path d="M158.321 126.686C138.344 125.396 118.22 124.802 97.9807 124.904C19.5048 125.305 -62.9654 136.229 -147.114 157.372C-156.159 159.663 -164.986 161.92 -173.595 164.126C-310.69 199.209 -401.255 222.383 -602.396 170.373L-602.934 171.156C-508.059 195.692 -434.522 204.894 -364.53 200.981C-299.665 197.361 -243.709 183.04 -172.871 164.918C-164.248 162.713 -155.435 160.455 -146.39 158.164C23.3806 115.504 184.003 115.19 331.016 157.21C425.121 184.11 502.596 223.666 555.091 271.62C603.466 315.817 651.21 352.238 701.042 382.978C773.341 427.578 858.581 451.767 954.476 454.945C1025.81 457.291 1102.7 447.019 1165.43 426.761C1212.52 411.553 1253.22 396.045 1292.59 381.043C1400.88 339.784 1503.16 300.818 1707.42 282.513L1707.07 281.656C1502.51 299.982 1400.1 339.004 1291.68 380.311C1252.34 395.3 1211.65 410.8 1164.6 426.003C1045.98 464.327 853.693 475.905 702.14 382.417C652.39 351.731 604.701 315.354 556.38 271.209C503.722 223.106 425.998 183.421 331.625 156.447C275.758 140.488 217.683 130.518 158.321 126.686Z" stroke="url(#paint6_linear_1572_16751)" stroke-width="2" stroke-miterlimit="10"></path><path d="M146.25 107.611C135.69 106.93 125.088 106.448 114.444 106.165C31.529 103.979 -53.8662 113.977 -139.356 135.884C-153.729 139.589 -167.438 143.215 -180.708 146.716C-319.368 183.358 -403.048 205.478 -601.184 154.707L-601.831 155.613C-508.254 179.587 -436.043 188.437 -367.658 184.298C-304.142 180.461 -249.309 165.971 -179.906 147.627C-166.635 144.118 -152.927 140.491 -138.568 136.793C30.7621 93.4082 199.239 97.4652 348.697 148.512C440.926 180.021 515.384 224.736 564.017 277.827C607.838 325.675 653.426 364.371 703.379 396.131C775.689 442.108 865.508 466.059 963.115 465.386C1068.46 464.663 1147.05 436.965 1175.94 425.085C1214.47 409.243 1247.89 393.759 1280.21 378.787C1397.66 324.366 1490.42 281.384 1719.53 268.474L1719.22 267.482C1613.94 273.418 1530.38 286.151 1456.25 307.567C1389.3 326.905 1335.74 351.723 1279.03 377.998C1246.72 392.963 1213.32 408.439 1174.83 424.268C1078.97 463.673 872.059 501.951 704.638 395.516C654.795 363.827 609.303 325.203 565.549 277.44C516.756 224.161 442.035 179.291 349.496 147.681C284.899 125.594 216.658 112.157 146.25 107.611Z" stroke="url(#paint7_linear_1572_16751)" stroke-width="2" stroke-miterlimit="10"></path><path d="M137.436 87.8625C135.236 87.7204 133.034 87.5864 130.818 87.4596C43.9595 82.5647 -44.331 91.6223 -131.612 114.385C-151.128 119.5 -169.3 124.466 -186.872 129.269C-322.475 166.343 -404.322 188.727 -600.002 139.046L-600.684 140.063C-404.143 189.962 -321.99 167.5 -185.906 130.295C-168.347 125.492 -150.175 120.525 -130.674 115.418C39.2907 71.0856 215.821 79.7529 366.42 139.8C456.974 175.915 528.402 225.788 573 284.029C612.57 335.701 656.002 376.679 705.785 409.287C765.591 448.471 836.19 470.727 915.281 475.461C1025.82 482.055 1127.87 452.882 1186.51 423.387C1219.84 406.625 1248.75 390.575 1276.7 375.054C1395.95 308.859 1482.11 261.027 1731.7 254.422L1731.46 253.304C1616.25 256.356 1527.9 268.609 1453.43 291.866C1385.3 313.144 1334.31 341.45 1275.27 374.233C1247.32 389.745 1218.43 405.789 1185.13 422.536C1126.78 451.889 1025.25 480.908 915.324 474.354C914.481 474.3 913.637 474.253 912.794 474.199C835.17 469.187 766.022 447.122 707.221 408.602C657.59 376.085 614.266 335.219 574.789 283.659C530.032 225.213 458.343 175.161 367.453 138.911C295.604 110.24 218.247 93.0798 137.436 87.8625Z" stroke="url(#paint8_linear_1572_16751)" stroke-width="2" stroke-miterlimit="10"></path><path d="M131.297 67.5912C46.0418 62.087 -39.701 70.5802 -123.868 92.8961C-148.425 99.4185 -170.687 105.725 -192.218 111.819C-324.984 149.424 -405.129 172.113 -598.79 123.38L-599.537 124.506C-404.916 173.488 -324.435 150.699 -191.113 112.935C-169.597 106.84 -147.35 100.541 -122.807 94.0257C51.1038 47.9152 231.133 61.0689 384.131 131.071C471.899 171.218 542.166 227.739 581.986 290.208C617.401 345.767 658.678 389.011 708.179 422.427C767.403 462.408 837.679 484.32 916.964 487.616C1034.42 492.461 1141.25 455.125 1197.07 421.68C1227.14 403.656 1253.16 386.609 1278.33 370.123C1393.42 294.709 1476.56 240.219 1743.86 240.354L1743.7 239.112C1475.45 238.973 1392.05 293.624 1276.62 369.268C1251.48 385.747 1225.46 402.787 1195.42 420.796C1139.9 454.058 1033.67 491.198 916.943 486.383C838.244 483.125 768.589 461.367 709.792 421.681C660.483 388.391 619.341 345.284 584.016 289.877C544.053 227.181 473.513 170.448 385.411 130.141C312.18 96.6351 231.992 75.9875 147.077 68.78C141.825 68.3276 136.556 67.9307 131.297 67.5912Z" stroke="url(#paint9_linear_1572_16751)" stroke-width="3" stroke-miterlimit="10"></path><path d="M128.086 46.8973C46.675 41.6413 -35.8901 49.8132 -116.122 71.4112C-145.607 79.3488 -171.657 86.9898 -196.83 94.3797C-326.995 132.582 -405.555 155.633 -597.59 107.717L-598.417 108.968C-405.309 157.155 -326.383 133.991 -195.603 95.609C-170.445 88.2263 -144.409 80.5844 -114.954 72.653C13.1049 38.178 147.166 38.0854 272.724 72.3619C419.136 112.342 538.084 196.087 590.93 296.396C622.696 356.693 664.312 404.463 714.642 438.386C758.88 468.206 809.94 487.483 866.422 495.682C927.979 504.629 995.97 500.158 1062.99 482.769C1118.44 468.384 1171.15 445.495 1207.6 419.977C1235.61 400.369 1259.69 381.982 1282.98 364.192C1397.3 276.894 1472.83 219.224 1755.99 226.296L1755.91 224.929C1471.54 217.829 1395.74 275.708 1281.01 363.32C1257.73 381.095 1233.66 399.466 1205.69 419.06C1134.75 468.732 998.453 513.48 866.837 494.372C747.02 476.974 652.404 408.416 593.23 296.107C540.18 195.404 420.695 111.309 273.62 71.1481C226.071 58.1561 177.287 50.0738 128.086 46.8973Z" stroke="url(#paint10_linear_1572_16751)" stroke-width="3" stroke-miterlimit="10"></path></g><defs><linearGradient id="paint0_linear_1572_16751" x1="506.708" y1="401.178" x2="518.278" y2="221.972" gradientUnits="userSpaceOnUse"><stop stop-color="#4FA83D" stop-opacity="0.1"></stop><stop offset="1" stop-color="#4FA83D" stop-opacity="0.4"></stop></linearGradient><linearGradient id="paint1_linear_1572_16751" x1="512.699" y1="396.599" x2="524.274" y2="217.323" gradientUnits="userSpaceOnUse"><stop stop-color="#4FA83D" stop-opacity="0.1"></stop><stop offset="1" stop-color="#4FA83D" stop-opacity="0.4"></stop></linearGradient><linearGradient id="paint2_linear_1572_16751" x1="518.436" y1="396.764" x2="530.597" y2="208.401" gradientUnits="userSpaceOnUse"><stop stop-color="#4FA83D" stop-opacity="0.1"></stop><stop offset="1" stop-color="#4FA83D" stop-opacity="0.4"></stop></linearGradient><linearGradient id="paint3_linear_1572_16751" x1="523.847" y1="401.329" x2="536.99" y2="197.747" gradientUnits="userSpaceOnUse"><stop stop-color="#4FA83D" stop-opacity="0.1"></stop><stop offset="1" stop-color="#4FA83D" stop-opacity="0.4"></stop></linearGradient><linearGradient id="paint4_linear_1572_16751" x1="529.104" y1="408.737" x2="543.594" y2="184.298" gradientUnits="userSpaceOnUse"><stop stop-color="#4FA83D" stop-opacity="0.1"></stop><stop offset="1" stop-color="#4FA83D" stop-opacity="0.4"></stop></linearGradient><linearGradient id="paint5_linear_1572_16751" x1="534.178" y1="417.978" x2="550.251" y2="169.025" gradientUnits="userSpaceOnUse"><stop stop-color="#4FA83D" stop-opacity="0.1"></stop><stop offset="1" stop-color="#4FA83D" stop-opacity="0.4"></stop></linearGradient><linearGradient id="paint6_linear_1572_16751" x1="539.226" y1="428.45" x2="557.046" y2="152.428" gradientUnits="userSpaceOnUse"><stop stop-color="#4FA83D" stop-opacity="0.1"></stop><stop offset="1" stop-color="#4FA83D" stop-opacity="0.4"></stop></linearGradient><linearGradient id="paint7_linear_1572_16751" x1="544.147" y1="439.795" x2="563.853" y2="134.572" gradientUnits="userSpaceOnUse"><stop stop-color="#4FA83D" stop-opacity="0.1"></stop><stop offset="1" stop-color="#4FA83D" stop-opacity="0.4"></stop></linearGradient><linearGradient id="paint8_linear_1572_16751" x1="549.073" y1="451.824" x2="570.765" y2="115.839" gradientUnits="userSpaceOnUse"><stop stop-color="#4FA83D" stop-opacity="0.1"></stop><stop offset="1" stop-color="#4FA83D" stop-opacity="0.4"></stop></linearGradient><linearGradient id="paint9_linear_1572_16751" x1="553.964" y1="464.31" x2="577.715" y2="96.4123" gradientUnits="userSpaceOnUse"><stop stop-color="#4FA83D" stop-opacity="0.1"></stop><stop offset="1" stop-color="#4FA83D" stop-opacity="0.4"></stop></linearGradient><linearGradient id="paint10_linear_1572_16751" x1="558.804" y1="477.168" x2="584.679" y2="76.3754" gradientUnits="userSpaceOnUse"><stop stop-color="#4FA83D" stop-opacity="0.06"></stop><stop offset="1" stop-color="#4FA83D" stop-opacity="0.4"></stop></linearGradient></defs></svg>