<svg xmlns="http://www.w3.org/2000/svg" width="62" height="65" viewBox="0 0 62 65" fill="none"><path d="M56.8333 0H5.16667C3.79638 0 2.48222 0.547905 1.51328 1.52318C0.544343 2.49846 0 3.82122 0 5.20047V24.3024C0 53.4316 24.4835 63.0914 29.3854 64.7296C30.432 65.0901 31.568 65.0901 32.6146 64.7296C37.5229 63.0882 62 53.4283 62 24.2992V5.20047C62 3.82122 61.4557 2.49846 60.4867 1.52318C59.5178 0.547905 58.2036 0 56.8333 0ZM5.37979 28.6026H31V5.20047H56.8333V24.3024C56.8344 25.7364 56.7633 27.1694 56.6202 28.5961H31V59.7989C26.886 58.4175 7.6176 50.7891 5.37979 28.6026Z" fill="url(#paint0_radial_1572_16782)"></path><defs><radialGradient id="paint0_radial_1572_16782" cx="0" cy="0" r="1" gradientUnits="userSpaceOnUse" gradientTransform="translate(12.2339 -23.3389) scale(329.216 345.703)"><stop stop-color="#4FA83D"></stop><stop offset="0.98"></stop></radialGradient></defs></svg>