<svg xmlns="http://www.w3.org/2000/svg" width="68" height="68" viewBox="0 0 68 68" fill="none"><path d="M61.8182 21.6341C63.4577 21.6341 65.0301 22.2854 66.1894 23.4448C67.3487 24.6042 68 26.1766 68 27.8162V40.1805C68 41.8201 67.3487 43.3925 66.1894 44.5519C65.0301 45.7112 63.4577 46.3626 61.8182 46.3626H58.5356C57.7821 52.3385 54.8737 57.8341 50.3563 61.8179C45.8389 65.8017 40.023 67.9999 34 68V61.8179C38.9186 61.8179 43.6357 59.8639 47.1136 56.3858C50.5916 52.9077 52.5455 48.1903 52.5455 43.2715V24.7252C52.5455 19.8064 50.5916 15.089 47.1136 11.6109C43.6357 8.13278 38.9186 6.17879 34 6.17879C29.0814 6.17879 24.3643 8.13278 20.8864 11.6109C17.4084 15.089 15.4545 19.8064 15.4545 24.7252V46.3626H6.18182C4.5423 46.3626 2.96993 45.7112 1.81061 44.5519C0.651297 43.3925 0 41.8201 0 40.1805V27.8162C0 26.1766 0.651297 24.6042 1.81061 23.4448C2.96993 22.2854 4.5423 21.6341 6.18182 21.6341H9.46436C10.2186 15.6588 13.1273 10.164 17.6447 6.18088C22.162 2.19775 27.9775 0 34 0C40.0225 0 45.838 2.19775 50.3553 6.18088C54.8727 10.164 57.7814 15.6588 58.5356 21.6341H61.8182ZM20.8945 45.698L24.1709 40.4556C27.1168 42.301 30.5239 43.2771 34 43.2715C37.4761 43.2771 40.8832 42.301 43.8291 40.4556L47.1055 45.698C43.1777 48.1589 38.6349 49.4608 34 49.4536C29.3651 49.4608 24.8223 48.1589 20.8945 45.698Z" fill="url(#paint0_radial_1572_16787)"></path><defs><radialGradient id="paint0_radial_1572_16787" cx="0" cy="0" r="1" gradientUnits="userSpaceOnUse" gradientTransform="translate(13.4178 -24.4161) scale(361.075 361.658)"><stop stop-color="#4FA83D"></stop><stop offset="0.98"></stop></radialGradient></defs></svg>