<svg xmlns="http://www.w3.org/2000/svg" width="305" height="305" viewBox="0 0 305 305"><g id="Color_logo_-_no_background" data-name="Color logo - no background" transform="translate(-0.356 -0.525)"><g id="SvgjsG1207" transform="translate(0 0.169)"><circle id="Ellipse_1494" data-name="Ellipse 1494" cx="152.5" cy="152.5" r="152.5" transform="translate(0.356 0.356)" fill="#59a52c"></circle></g><g id="SvgjsG1208" transform="translate(67.429 54.732)"><path id="Path_32222" data-name="Path 32222" d="M241.378,835.49c1.819,13.9-2.338,30.79-13.511,49.757-28.321,49.108-99.774,54.434-147.453,28.971l11.3-49.368h18.058c28.711,34.3,61.969,10.653,66-4.287,2.858-10.653-3.638-20.916-14.81-25.073H148.878a34.189,34.189,0,0,0-21.956,0h11.952a56.639,56.639,0,0,0-19.358,11.692H103.148l2.6-11.692H93.664l23.125-101.723H251.119l-10.783,47.938H167.713l-3.248,14.161c38.974,0,61.839,14.94,64.957,39.624h11.952Z" transform="translate(-80.413 -733.768)" fill="#fff"></path></g></g></svg>