<svg xmlns="http://www.w3.org/2000/svg" width="555" height="346" viewBox="0 0 555 346" fill="none"><g filter="url(#filter0_b_3227_14188)"><path d="M0.428711 14.9712C0.428711 7.15491 6.76504 0.818604 14.5813 0.818604H540.134C547.95 0.818604 554.286 7.15493 554.286 14.9712V331.029C554.286 338.845 547.95 345.182 540.134 345.182H14.5813C6.76503 345.182 0.428711 338.845 0.428711 331.029V14.9712Z" fill="url(#paint0_linear_3227_14188)" fill-opacity="0.59"></path><path d="M0.664587 14.9712C0.664587 7.28518 6.89531 1.05448 14.5813 1.05448H540.134C547.82 1.05448 554.05 7.2852 554.05 14.9712V331.029C554.05 338.715 547.82 344.946 540.134 344.946H14.5813C6.8953 344.946 0.664587 338.715 0.664587 331.029V14.9712Z" stroke="url(#paint1_linear_3227_14188)" stroke-opacity="0.6" stroke-width="0.471753"></path></g><path d="M1.02148 15.4105C1.02148 7.97079 7.05258 1.9397 14.4923 1.9397H540.815C548.255 1.9397 554.286 7.9708 554.286 15.4105V41.8547H1.02148V15.4105Z" fill="black" fill-opacity="0.33"></path><ellipse cx="23.1221" cy="24.4704" rx="4.57035" ry="4.74369" fill="#59A52C"></ellipse><ellipse cx="39.5747" cy="24.4704" rx="4.57035" ry="4.74369" fill="#59A52C"></ellipse><ellipse cx="56.0288" cy="24.4704" rx="4.57035" ry="4.74369" fill="#59A52C"></ellipse><rect x="15.6675" y="55.1846" width="104.561" height="270.135" rx="2.96648" fill="#141615"></rect><rect x="20.9775" y="74.2489" width="93.5135" height="13.9522" fill="#0D0D0D"></rect><rect x="20.978" y="142.447" width="93.5135" height="13.9522" fill="#0D0D0D"></rect><rect x="20.978" y="210.646" width="93.5135" height="13.9522" fill="#0D0D0D"></rect><rect x="20.9775" y="96.6495" width="93.5135" height="13.9522" fill="#0D0D0D"></rect><rect x="20.978" y="164.848" width="93.5135" height="13.9522" fill="#0D0D0D"></rect><rect x="20.978" y="233.047" width="93.5135" height="13.9522" fill="#0D0D0D"></rect><rect x="20.978" y="278.844" width="93.5135" height="13.9522" fill="#0D0D0D"></rect><rect x="20.9775" y="119.05" width="93.5135" height="14.9488" fill="#0D0D0D"></rect><rect x="20.978" y="187.249" width="93.5135" height="14.9488" fill="#0D0D0D"></rect><rect x="20.978" y="255.447" width="93.5135" height="14.9488" fill="#0D0D0D"></rect><rect x="20.978" y="301.245" width="93.5135" height="14.9488" fill="#0D0D0D"></rect><rect x="140.518" y="55.5737" width="114.642" height="131.913" rx="1.54744" fill="#141615"></rect><path d="M140.518 57.1212C140.518 56.2665 141.21 55.5737 142.065 55.5737H253.612C254.466 55.5737 255.159 56.2665 255.159 57.1212V129.94H140.518V57.1212Z" fill="#0B0B0B"></path><rect x="149.854" y="137.759" width="94.8874" height="7.27808" fill="#0D0D0D"></rect><rect x="149.854" y="148.516" width="66.5294" height="7.27808" fill="#0D0D0D"></rect><rect x="149.854" y="159.273" width="40.1029" height="7.79794" fill="#0D0D0D"></rect><path d="M152.997 175.35L154.94 176.522L154.424 174.312L156.141 172.825L153.881 172.634L152.997 170.549L152.114 172.634L149.854 172.825L151.57 174.312L151.054 176.522L152.997 175.35Z" fill="#CAE2BC"></path><path d="M163.932 175.35L165.875 176.522L165.359 174.312L167.076 172.825L164.816 172.633L163.932 170.549L163.049 172.633L160.789 172.825L162.505 174.312L161.989 176.522L163.932 175.35Z" fill="#CAE2BC"></path><path d="M174.868 175.35L176.811 176.522L176.296 174.312L178.012 172.825L175.752 172.633L174.868 170.549L173.985 172.633L171.725 172.825L173.441 174.312L172.925 176.522L174.868 175.35Z" fill="#CAE2BC"></path><path d="M185.803 175.35L187.746 176.522L187.231 174.312L188.947 172.825L186.687 172.633L185.803 170.549L184.92 172.633L182.66 172.825L184.376 174.312L183.861 176.522L185.803 175.35Z" fill="#CAE2BC"></path><path d="M196.738 175.35L198.681 176.522L198.166 174.312L199.882 172.825L197.622 172.633L196.738 170.549L195.855 172.633L193.595 172.825L195.311 174.312L194.796 176.522L196.738 175.35Z" fill="#CAE2BC"></path><path d="M170.767 89.9102C171.632 87.0015 174.461 82.0159 175.733 80.0067L176.193 81.1416C175.84 81.5746 173.166 86.7648 171.873 89.3058C171.426 89.4603 170.95 89.7731 170.767 89.9102Z" fill="#CAE2BC"></path><path d="M170.767 89.9102C171.632 87.0015 174.461 82.0159 175.733 80.0067L176.193 81.1416C175.84 81.5746 173.166 86.7648 171.873 89.3058C171.426 89.4603 170.95 89.7731 170.767 89.9102Z" fill="black" fill-opacity="0.2"></path><path d="M176.179 81.1457L175.651 80.1835C176.002 79.7679 176.824 79.3138 177.125 79.286L182.713 81.8744C183.172 82.6753 183.256 84.0481 183.255 84.571C183.251 84.1958 182.908 83.6625 182.76 83.4817C182.022 82.9089 178.972 81.4375 177.503 80.7977C176.802 80.6033 176.392 80.9396 176.179 81.1457Z" fill="#CAE2BC"></path><path d="M176.179 81.1457L175.651 80.1835C176.002 79.7679 176.824 79.3138 177.125 79.286L182.713 81.8744C183.172 82.6753 183.256 84.0481 183.255 84.571C183.251 84.1958 182.908 83.6625 182.76 83.4817C182.022 82.9089 178.972 81.4375 177.503 80.7977C176.802 80.6033 176.392 80.9396 176.179 81.1457Z" fill="black" fill-opacity="0.28"></path><path d="M163.902 99.5541C164.803 94.96 167.52 92.2893 168.766 91.5283C168.075 92.2489 167.102 94.2176 166.699 95.094C166.513 95.4974 165.261 99.5501 165.079 100.708C164.868 102.325 165.177 104.432 165.358 105.283C165.455 106.098 166.211 108.094 166.576 108.991C167.038 110.145 168.175 111.604 168.685 112.19C169.561 113.42 171.59 114.795 172.495 115.328C173.224 115.801 175.979 116.832 177.301 117.314C175.651 117.353 174.249 116.664 173.774 116.43L173.76 116.424C169.621 114.777 166.595 110.867 165.599 109.118C163.566 104.821 163.621 100.952 163.902 99.5541Z" fill="#4FA83D"></path><path d="M181.318 94.637C183.852 95.2698 185.26 98.1657 185.416 99.3591C182.004 101.934 179.481 107.186 179.089 109.134C178.575 108.947 177.028 106.968 176.503 106.247C174.281 103.363 175.037 99.4298 175.576 98.0351C176.657 94.5737 180.04 94.277 181.318 94.637Z" fill="black"></path><path d="M180.888 95.8155C183.422 96.4484 184.367 98.9934 184.523 100.187C181.111 102.762 179.473 107.302 179.081 109.25C178.567 109.063 177.389 107.573 176.864 106.851C174.642 103.967 175.165 100.457 175.704 99.0624C176.784 95.6009 179.61 95.4555 180.888 95.8155Z" fill="#1B1A1A"></path><path d="M174.613 88.4343C178.411 87.8615 181.276 88.6298 181.993 89.5143C178.33 88.6821 175.418 89.567 174.438 90.2704C172.23 91.5921 170.989 93.8805 170.645 94.8595C168.173 101.047 170.343 106.924 171.736 109.089C175.067 113.818 178.398 115.79 179.638 116.182C179.814 116.645 180.286 117.614 180.457 118.026C180.195 118.148 178.518 117.683 177.763 117.453C172.31 115.927 169.565 113.433 168.874 112.376C165.558 109.019 164.905 103.78 164.993 101.58C165.23 98.0233 167.059 93.5519 168.603 91.6808C170.259 89.6744 173.3 88.6805 174.613 88.4343Z" fill="#272828"></path><path d="M183.011 89.9745C187.199 91.7475 188.814 95.129 189.097 96.5982L185.15 99.3041C185.311 98.2559 184.132 96.7292 183.522 96.0969C182.565 95.1044 181.163 94.837 180.379 94.7664C178.265 94.5612 176.876 96.0819 176.446 96.868C175.452 98.4485 175.152 100.895 175.126 101.921C175.275 105.493 177.821 108.161 179.076 109.049C178.386 111.749 179.179 114.787 179.638 116.205C176.454 114.956 173.799 111.892 172.836 110.598C170.053 107.31 169.561 103.516 169.571 101.556C169.284 99.0402 170.147 95.965 170.65 94.7545C171.573 92.0901 173.839 90.4558 174.823 89.959C178.086 88.1993 181.642 89.2361 183.011 89.9745Z" fill="#CAE2BC"></path><path d="M183.011 89.9745C187.199 91.7475 188.814 95.129 189.097 96.5982L185.15 99.3041C185.311 98.2559 184.132 96.7292 183.522 96.0969C182.565 95.1044 181.163 94.837 180.379 94.7664C178.265 94.5612 176.876 96.0819 176.446 96.868C175.452 98.4485 175.152 100.895 175.126 101.921C175.275 105.493 177.821 108.161 179.076 109.049C178.386 111.749 179.179 114.787 179.638 116.205C176.454 114.956 173.799 111.892 172.836 110.598C170.053 107.31 169.561 103.516 169.571 101.556C169.284 99.0402 170.147 95.965 170.65 94.7545C171.573 92.0901 173.839 90.4558 174.823 89.959C178.086 88.1993 181.642 89.2361 183.011 89.9745Z" fill="black" fill-opacity="0.41"></path><path d="M175.644 80.1667L178.232 74.987L185.5 78.7393L183.084 83.0294L182.635 81.8499L177.113 79.2948L175.644 80.1667Z" fill="#4FA83D"></path><path d="M178.25 74.9762L177.273 74.1133L175.023 78.0765L172.771 82.6483L173.057 84.7678L175.904 79.7196L178.25 74.9762Z" fill="#CAE2BC"></path><path d="M178.25 74.9762L177.273 74.1133L175.023 78.0765L172.771 82.6483L173.057 84.7678L175.904 79.7196L178.25 74.9762Z" fill="black" fill-opacity="0.14"></path><path d="M186.571 66.4591C189.242 64.4668 192.495 63.2683 193.761 63.0205C198.159 63.4222 200.906 66.3325 201.31 67.6567C195.334 68.4311 189.516 74.4749 186.993 77.7053C186.214 78.6093 185.538 78.6867 185.298 78.6124L178.265 75.0214C181.349 70.1641 185.132 67.2923 186.571 66.4591Z" fill="#1B1A1A"></path><path d="M201.223 67.6372C199.751 64.3161 195.342 63.1912 193.509 63.071C194.533 62.4827 196.949 62.4084 198.104 62.8295C202.37 63.6257 205.086 66.6951 205.755 68.0992C204.598 67.5253 202.148 67.5314 201.223 67.6372Z" fill="black"></path><path d="M212.983 64.7481C207.23 60.1807 203.034 59.2762 202.376 59.1081C207.059 61.4637 209.07 66.1098 209.841 68.8541C210.854 72.4576 210.96 78.024 210.995 82.3213L218.546 86.4313C219.769 81.0425 219.254 75.9749 218.727 74.2013C217.07 68.8617 215.024 66.6589 212.983 64.7481Z" fill="#1B1A1A"></path><path d="M187.757 105.67C190.402 101.583 198.558 99.3741 201.363 99.193L197.541 101.903C196.228 102.379 192.272 104.693 190.52 105.832C186.978 108.491 184.613 113.473 184.4 114.058C182.9 118.098 185.352 121.84 186.765 123.206C184.925 121.925 183.925 119.088 183.655 117.83C183.042 114.928 184.314 110.86 185.167 109.249C185.913 107.638 187.298 106.232 187.757 105.67Z" fill="black"></path><path d="M202.491 98.0311C201.926 99.0956 200.359 99.7239 199.646 99.905L197.137 100.374L194.671 101.09C191.833 102.19 189.347 104.177 187.959 105.524C184.466 109.474 183.565 114.169 183.576 115.791C183.28 119.364 185.554 122.099 186.816 123.236C184.664 122.557 182.824 121.118 182.174 120.484C179.618 117.717 178.89 113.964 178.846 112.434C178.385 108.666 180.408 104.682 181.477 103.16C183.324 100.516 187.091 97.4439 190.338 96.158C195.083 94.2793 199.487 94.8185 201.548 95.6582C203.014 96.0872 202.788 97.4189 202.491 98.0311Z" fill="#272828"></path><path d="M205.538 118.84C208.361 116.081 209.588 111.86 209.896 109.847C209.923 109.669 209.919 109.49 209.91 109.311C209.841 107.942 210.42 105.626 210.739 104.578C211.074 103.658 211.729 102.521 212.212 101.756C212.338 101.555 212.152 101.296 211.924 101.357C211.868 101.372 211.808 101.368 211.755 101.344L206.348 98.9622C205.857 98.7461 205.48 98.3341 205.307 97.8265C205.188 97.4756 205.173 97.0976 205.264 96.7384L206.896 90.3244C207.383 86.7543 205.924 89.8551 205.306 91.7347C204.315 95.2635 203.432 96.9715 202.905 97.6482C202.703 97.9078 202.453 98.1365 202.231 98.379C201.045 99.6736 198.698 100.909 193.015 104.01C188.246 106.276 185.597 110.799 184.512 113.774C183.463 116.65 183.782 119.07 184.457 120.203C186.874 125.036 191.439 124.924 193.61 124.743C199.195 124.172 203.889 120.57 205.538 118.84Z" fill="#4FA83D"></path><ellipse cx="197.466" cy="113.855" rx="8.2386" ry="11.696" transform="rotate(51.2327 197.466 113.855)" fill="#272828"></ellipse><ellipse cx="197.649" cy="114.249" rx="7.46206" ry="10.8841" transform="rotate(51.2327 197.649 114.249)" fill="#4FA83D"></ellipse><path d="M199.721 116.828C198.743 117.614 197.638 118.044 196.645 118.108C195.651 118.172 194.78 117.871 194.248 117.208C193.715 116.546 193.609 115.63 193.887 114.674C194.164 113.718 194.822 112.731 195.8 111.946C196.778 111.16 197.883 110.731 198.876 110.666C199.87 110.602 200.741 110.903 201.273 111.566C201.806 112.229 201.912 113.144 201.634 114.101C201.357 115.057 200.699 116.043 199.721 116.828Z" fill="#CAE2BC"></path><path d="M199.721 116.828C198.743 117.614 197.638 118.044 196.645 118.108C195.651 118.172 194.78 117.871 194.248 117.208C193.715 116.546 193.609 115.63 193.887 114.674C194.164 113.718 194.822 112.731 195.8 111.946C196.778 111.16 197.883 110.731 198.876 110.666C199.87 110.602 200.741 110.903 201.273 111.566C201.806 112.229 201.912 113.144 201.634 114.101C201.357 115.057 200.699 116.043 199.721 116.828Z" fill="black" fill-opacity="0.07"></path><path d="M199.721 116.828C198.743 117.614 197.638 118.044 196.645 118.108C195.651 118.172 194.78 117.871 194.248 117.208C193.715 116.546 193.609 115.63 193.887 114.674C194.164 113.718 194.822 112.731 195.8 111.946C196.778 111.16 197.883 110.731 198.876 110.666C199.87 110.602 200.741 110.903 201.273 111.566C201.806 112.229 201.912 113.144 201.634 114.101C201.357 115.057 200.699 116.043 199.721 116.828Z" stroke="#272828" stroke-width="0.21127"></path><path d="M207.946 94.2257C207.913 94.2599 207.879 94.2954 207.844 94.332C207.461 94.9495 209.982 96.0835 211.611 96.8268C213.92 98.0257 214.765 98.1159 214.952 97.8865L212.269 101.537L211.863 101.389L206.011 98.8106C205.386 98.6487 205.163 97.6318 205.124 97.289C205.251 96.9057 206.952 95.2546 207.844 94.332C207.867 94.2946 207.901 94.2591 207.946 94.2257Z" fill="#6AB75B"></path><path d="M207.903 92.9282L210.916 82.1823L218.509 86.4201L214.946 97.9497C214.495 98.3065 212.977 97.6326 212.588 97.4907C212.276 97.3772 209.568 95.9622 208.253 95.2689C207.519 94.8738 207.714 93.5438 207.903 92.9282Z" fill="#4FA83D"></path><path d="M207.903 92.9282L210.916 82.1823L218.509 86.4201L214.946 97.9497C214.495 98.3065 212.977 97.6326 212.588 97.4907C212.276 97.3772 209.568 95.9622 208.253 95.2689C207.519 94.8738 207.714 93.5438 207.903 92.9282Z" fill="black" fill-opacity="0.2"></path><path d="M211.012 82.2432L208.759 82.2637L205.11 97.3297L207.712 94.5904L211.012 82.2432Z" fill="#CAE2BC"></path><path d="M211.012 82.2432L208.759 82.2637L205.11 97.3297L207.712 94.5904L211.012 82.2432Z" fill="black" fill-opacity="0.14"></path><path d="M177.257 74.1089L178.275 75.0028L182.336 70.1863C186.917 65.0124 193.331 62.7569 195.867 62.637C200.356 62.5139 203.853 65.6221 205.04 67.1917C208.431 70.8036 208.916 78.8335 208.77 82.2999L211.053 82.3421C211.227 77.5221 210.585 72.6965 210.422 71.1338C209.659 67.0722 207.777 63.7624 206.867 62.5875C205.093 60.0928 202.637 59.0735 201.449 58.8605C199.804 58.3047 195.726 58.5158 193.021 59.547C189.148 61.0231 186.588 62.7111 185.19 64.0184C181.452 66.97 178.547 71.8665 177.257 74.1089Z" fill="#272828"></path><path d="M175.932 81.4526C175.769 81.7084 173.131 86.8117 171.833 89.3313C175.877 87.662 179.836 88.4157 181.31 89.0012L183.247 84.5261C183.179 83.7578 182.66 83.2862 182.41 83.1464C182.071 82.936 179.079 81.5194 177.626 80.8373C176.745 80.4481 176.13 81.0854 175.932 81.4526Z" fill="#4FA83D"></path><path d="M175.932 81.4526C175.769 81.7084 173.131 86.8117 171.833 89.3313C175.877 87.662 179.836 88.4157 181.31 89.0012L183.247 84.5261C183.179 83.7578 182.66 83.2862 182.41 83.1464C182.071 82.936 179.079 81.5194 177.626 80.8373C176.745 80.4481 176.13 81.0854 175.932 81.4526Z" fill="black" fill-opacity="0.2"></path><path d="M179.747 86.7258C178.88 87.4227 177.605 87.279 176.901 86.4022C176.197 85.5254 176.332 84.25 177.199 83.5531C178.067 82.8562 179.342 82.9999 180.046 83.8767C180.75 84.7535 180.615 86.0289 179.747 86.7258Z" fill="#CAE2BC" stroke="#77856F" stroke-width="0.21127"></path><rect x="281.816" y="55.2578" width="114.642" height="132.228" rx="1.54744" fill="#141615"></rect><path d="M282.501 56.8052C282.501 55.9506 283.194 55.2578 284.049 55.2578H395.596C396.45 55.2578 397.143 55.9506 397.143 56.8053V129.624H282.501V56.8052Z" fill="#0B0B0B"></path><rect x="290.664" y="136.268" width="94.8874" height="7.27808" fill="#0D0D0D"></rect><rect x="290.664" y="147.025" width="66.5294" height="7.27808" fill="#0D0D0D"></rect><rect x="290.664" y="157.782" width="40.1029" height="7.79794" fill="#0D0D0D"></rect><path d="M293.807 173.859L295.75 175.032L295.234 172.822L296.951 171.335L294.691 171.143L293.807 169.059L292.924 171.143L290.664 171.335L292.38 172.822L291.864 175.032L293.807 173.859Z" fill="#CAE2BC"></path><path d="M304.743 173.859L306.686 175.031L306.17 172.821L307.886 171.334L305.626 171.143L304.743 169.058L303.859 171.143L301.599 171.334L303.316 172.821L302.8 175.031L304.743 173.859Z" fill="#CAE2BC"></path><path d="M315.679 173.859L317.622 175.031L317.106 172.821L318.823 171.334L316.562 171.143L315.679 169.058L314.795 171.143L312.535 171.334L314.252 172.821L313.736 175.031L315.679 173.859Z" fill="#CAE2BC"></path><path d="M326.613 173.859L328.556 175.031L328.041 172.821L329.757 171.334L327.497 171.143L326.613 169.058L325.73 171.143L323.47 171.334L325.186 172.821L324.671 175.031L326.613 173.859Z" fill="#CAE2BC"></path><path d="M337.549 173.859L339.492 175.031L338.976 172.821L340.693 171.334L338.432 171.143L337.549 169.058L336.666 171.143L334.405 171.334L336.122 172.821L335.606 175.031L337.549 173.859Z" fill="#CAE2BC"></path><path d="M351.4 97.4295L350.383 95.6566L353.785 95.6018L355.877 97.4295H351.4Z" fill="#171717"></path><path d="M350.389 95.6575V91.8322H353.778L353.794 95.6878L350.389 95.6575Z" fill="#171717"></path><path fill-rule="evenodd" clip-rule="evenodd" d="M346.459 94.8579C346.341 94.8815 346.219 94.8938 346.094 94.8938C345.061 94.8938 344.223 94.0486 344.223 93.006C344.223 91.9635 345.061 91.1183 346.094 91.1183C347.127 91.1183 347.964 91.9635 347.964 93.006C347.964 93.2707 347.91 93.5226 347.813 93.7512C347.937 93.8118 348.05 93.901 348.143 94.0176L351.245 97.939C351.577 98.3595 351.512 98.9778 351.1 99.3201C350.687 99.6624 350.083 99.599 349.75 99.1785L346.648 95.2571C346.553 95.1366 346.49 94.9998 346.459 94.8579ZM347.123 93.0059C347.123 93.5793 346.662 94.0442 346.094 94.0442C345.526 94.0442 345.065 93.5793 345.065 93.0059C345.065 92.4325 345.526 91.9677 346.094 91.9677C346.662 91.9677 347.123 92.4325 347.123 93.0059Z" fill="#272828"></path><path fill-rule="evenodd" clip-rule="evenodd" d="M346.908 94.7025C346.785 94.7287 346.658 94.7426 346.527 94.7426C345.526 94.7426 344.715 93.9312 344.715 92.9304C344.715 91.9296 345.526 91.1183 346.527 91.1183C347.528 91.1183 348.339 91.9296 348.339 92.9304C348.339 93.2192 348.272 93.4923 348.151 93.7346C348.297 93.7905 348.43 93.8842 348.535 94.0141L351.574 97.7652C351.893 98.1598 351.832 98.7389 351.438 99.0585C351.043 99.3782 350.464 99.3174 350.145 98.9227L347.106 95.1716C346.993 95.0318 346.927 94.8689 346.908 94.7025ZM347.523 92.9302C347.523 93.4807 347.077 93.9269 346.527 93.9269C345.976 93.9269 345.53 93.4807 345.53 92.9302C345.53 92.3798 345.976 91.9336 346.527 91.9336C347.077 91.9336 347.523 92.3798 347.523 92.9302Z" fill="#0D0D0D"></path><path d="M331.281 124.766C321.675 122.038 319.174 115.217 319.002 111.758H333.364C336.105 123.216 346.597 124.603 350.196 124.346C350.196 124.346 344.479 124.987 340.8 125.07C336.392 125.171 331.281 124.766 331.281 124.766Z" fill="#272828"></path><path d="M346.596 76.3405C346.969 71.0844 343.361 66.1423 341.539 64.3749C349.887 60.6287 354.81 66.4382 356.082 69.3844C357.488 71.3545 358.407 74.8426 358.691 76.3405V94.3216H354.662V91.7282H350.387V94.6926H348.17L346.382 93.7089L346.596 76.3405Z" fill="#272828"></path><path d="M340.203 79.2712C339.62 73.9503 334.769 73.5853 332.417 74.0679L332.519 111.772C337.197 112.134 339.329 109.257 339.81 107.773L340.203 79.2712Z" fill="#4FA83D"></path><path d="M346.641 60.8548C335.383 61.1495 331.722 69.6703 331.932 74.014H335.101C335.408 70.1133 338.885 66.2501 340.574 64.932C343.308 63.1506 346.576 63.1915 347.869 63.4347C352.599 63.619 355.957 68.6305 357.045 71.1132C357.843 72.5261 358.346 75.5156 358.498 76.8337V81.7294V94.4018H360.045V108.474C359.868 112.836 358.547 115.891 357.908 116.873C355.079 122.237 348.652 123.022 345.663 122.606C339.991 120.357 336.642 112.823 336.887 110.858C336.534 111.507 334.125 111.857 333.363 111.833C333.246 116.725 338.826 121.269 341.257 122.694C348.153 125.7 353.758 123.946 355.698 122.694C360.649 120.454 362.82 113.41 363.287 110.169V94.4018H361.445V75.9089C359.794 63.5312 350.89 60.6092 346.641 60.8548Z" fill="#0D0D0D"></path><path d="M331.538 61.0131C322.22 62.9316 319.073 70.6958 318.73 74.0932H331.88C332.291 65.1857 340.903 61.4984 345.071 61.0131H331.538Z" fill="#272828"></path><path d="M315.602 74.0226C312.943 73.9621 311.724 75.6596 311.447 76.5159L311.069 109.231C312.399 111.407 315.501 111.85 316.887 111.8H332.3C335.563 110.772 336.329 107.846 336.304 106.511V79.538C336.183 75.6092 333.634 74.224 332.375 74.0226H315.602Z" fill="#9BC493"></path><path d="M350.379 91.2605H354.69V94.2412H355.799H358.386H360.039L360.102 96.6347L358.386 95.6108L355.878 95.5924V97.4316L353.793 95.6108H350.379V91.2605Z" fill="#0D0D0D"></path><rect x="310.695" y="76.3907" width="24.2011" height="33.2249" rx="3.98042" fill="#0D0D0D"></rect><path fill-rule="evenodd" clip-rule="evenodd" d="M313.95 75.6843C311.751 75.6843 309.969 77.4664 309.969 79.6647V106.181C309.969 108.38 311.751 110.162 313.95 110.162H330.19C331.403 110.162 332.49 109.619 333.22 108.762C332.57 109.225 331.775 109.497 330.916 109.497H314.676C312.477 109.497 310.695 107.715 310.695 105.516V80.4237C310.695 78.2254 312.477 76.4433 314.676 76.4433H330.916C331.858 76.4433 332.723 76.7703 333.405 77.317C332.681 76.3272 331.51 75.6843 330.19 75.6843H313.95Z" fill="#272828"></path><ellipse cx="339.299" cy="93.0033" rx="2.43646" ry="3.53675" fill="#333131"></ellipse><ellipse cx="339.823" cy="93.0033" rx="2.43646" ry="3.53675" fill="#0D0D0D"></ellipse><path d="M340.872 93.0032C340.872 93.4798 340.739 93.9005 340.536 94.1951C340.332 94.4908 340.076 94.6397 339.822 94.6397C339.569 94.6397 339.312 94.4908 339.109 94.1951C338.906 93.9005 338.772 93.4798 338.772 93.0032C338.772 92.5265 338.906 92.1059 339.109 91.8112C339.312 91.5155 339.569 91.3667 339.822 91.3667C340.076 91.3667 340.332 91.5155 340.536 91.8112C340.739 92.1059 340.872 92.5265 340.872 93.0032Z" stroke="#333131" stroke-width="0.497553"></path><path d="M345.005 81.2213V76.9319H354.066H357.848V81.2213H354.066H345.005Z" fill="#88CF7A"></path><path d="M357.849 81.2213V76.9319H361.943H363.652V81.2213H361.943H357.849Z" fill="#4FA83D"></path><path fill-rule="evenodd" clip-rule="evenodd" d="M348.083 95.6819H350.398L351.408 97.4265H355.879V95.5925H358.395L360.061 96.6004C360.061 98.6436 360.046 102.094 360.035 104.731L360.035 104.733L360.035 104.735L360.035 104.744C360.028 106.37 360.022 107.685 360.022 108.167C359.986 110.802 359.183 116.704 356.26 119.234C355.006 120.488 351.277 123.3 345.731 122.625C344.663 122.495 344.08 122.001 343.331 121.367L343.331 121.367L343.331 121.367C343.279 121.323 343.226 121.278 343.172 121.233C343.452 120.917 343.866 120.5 344.329 120.035C345.463 118.897 346.886 117.468 347.319 116.508C347.574 116.145 348.083 114.447 348.083 110.566V95.6819ZM356.104 109.446H351.625V111.428H356.104V109.446ZM351.625 104.728H356.104V106.71H351.625V104.728ZM356.045 100.399H351.565V102.38H356.045V100.399Z" fill="#272828"></path><path fill-rule="evenodd" clip-rule="evenodd" d="M360.926 95.2283C360.808 95.2518 360.686 95.2642 360.561 95.2642C359.528 95.2642 358.69 94.419 358.69 93.3764C358.69 92.3338 359.528 91.4886 360.561 91.4886C361.594 91.4886 362.432 92.3338 362.432 93.3764C362.432 93.6411 362.378 93.8931 362.28 94.1218C362.404 94.1824 362.517 94.2716 362.61 94.3882L365.712 98.3096C366.044 98.7301 365.979 99.3484 365.567 99.6907C365.154 100.033 364.55 99.9696 364.217 99.5491L361.115 95.6277C361.02 95.5071 360.957 95.3702 360.926 95.2283ZM361.59 93.3764C361.59 93.9498 361.129 94.4146 360.561 94.4146C359.993 94.4146 359.532 93.9498 359.532 93.3764C359.532 92.803 359.993 92.3381 360.561 92.3381C361.129 92.3381 361.59 92.803 361.59 93.3764Z" fill="#272828"></path><path fill-rule="evenodd" clip-rule="evenodd" d="M361.373 95.0729C361.251 95.099 361.124 95.1128 360.993 95.1128C359.992 95.1128 359.181 94.3015 359.181 93.3007C359.181 92.2998 359.992 91.4885 360.993 91.4885C361.994 91.4885 362.805 92.2998 362.805 93.3007C362.805 93.5897 362.738 93.8628 362.617 94.1053C362.763 94.1612 362.896 94.2548 363.001 94.3845L366.039 98.1356C366.359 98.5303 366.298 99.1093 365.903 99.429C365.509 99.7486 364.93 99.6878 364.61 99.2932L361.572 95.5421C361.459 95.4023 361.393 95.2393 361.373 95.0729ZM361.99 93.3005C361.99 93.851 361.544 94.2972 360.993 94.2972C360.443 94.2972 359.997 93.851 359.997 93.3005C359.997 92.7501 360.443 92.3039 360.993 92.3039C361.544 92.3039 361.99 92.7501 361.99 93.3005Z" fill="#0D0D0D"></path><rect x="350.199" y="92.201" width="2.85081" height="0.802177" fill="#272828"></rect><rect x="350.478" y="93.9569" width="3.29005" height="1.73061" fill="#272828"></rect><rect x="348.063" y="94.6925" width="2.41561" height="0.995106" fill="#0D0D0D"></rect><path d="M318.1 87.1409L317.952 88.1165C317.905 88.4275 317.83 88.7294 317.727 89.0222C317.626 89.3125 317.488 89.5742 317.315 89.8074C317.141 90.0407 316.926 90.2247 316.669 90.3594C316.413 90.4916 316.106 90.5538 315.748 90.546C315.476 90.5408 315.244 90.4903 315.052 90.3944C314.863 90.2985 314.708 90.1715 314.586 90.0135C314.467 89.8528 314.376 89.6701 314.314 89.4654C314.254 89.2581 314.219 89.0404 314.209 88.8123C314.201 88.5817 314.211 88.3511 314.24 88.1204L314.384 87.1409C314.43 86.8325 314.505 86.5332 314.609 86.2429C314.713 85.9527 314.851 85.6923 315.025 85.4616C315.199 85.2284 315.414 85.047 315.67 84.9174C315.929 84.7853 316.237 84.7231 316.592 84.7309C316.864 84.736 317.094 84.7866 317.283 84.8825C317.475 84.9757 317.631 85.1014 317.75 85.2595C317.872 85.4176 317.962 85.599 318.022 85.8037C318.084 86.0084 318.119 86.2248 318.127 86.4529C318.137 86.6809 318.128 86.9102 318.1 87.1409ZM316.84 88.2681L317.031 86.9815C317.041 86.8882 317.052 86.7833 317.062 86.6666C317.075 86.5474 317.077 86.4269 317.07 86.3051C317.065 86.1833 317.044 86.0706 317.008 85.967C316.974 85.8607 316.918 85.7752 316.84 85.7104C316.763 85.643 316.656 85.6055 316.522 85.5977C316.335 85.5899 316.18 85.6301 316.055 85.7182C315.933 85.8037 315.835 85.919 315.76 86.0641C315.687 86.2093 315.631 86.3635 315.593 86.5267C315.554 86.69 315.523 86.8442 315.499 86.9893L315.313 88.272C315.302 88.3653 315.291 88.4716 315.278 88.5908C315.267 88.71 315.265 88.8318 315.27 88.9562C315.278 89.0806 315.298 89.1959 315.332 89.3021C315.366 89.4084 315.422 89.4952 315.499 89.5626C315.577 89.6299 315.683 89.6675 315.818 89.6753C316.005 89.6857 316.16 89.6468 316.284 89.5587C316.409 89.468 316.507 89.3501 316.58 89.2049C316.655 89.0572 316.712 88.9005 316.751 88.7346C316.79 88.5662 316.82 88.4107 316.84 88.2681ZM319.184 89.617H319.243C319.522 89.6222 319.778 89.5885 320.008 89.5159C320.242 89.4434 320.446 89.3345 320.623 89.1894C320.799 89.0443 320.943 88.8655 321.054 88.653C321.165 88.4379 321.242 88.1917 321.283 87.9144L321.431 86.8377C321.444 86.7288 321.449 86.6045 321.447 86.4645C321.444 86.3246 321.425 86.1898 321.388 86.0603C321.355 85.9307 321.295 85.8231 321.209 85.7376C321.127 85.6495 321.007 85.6042 320.852 85.6016C320.709 85.599 320.584 85.634 320.475 85.7065C320.366 85.7765 320.274 85.8698 320.199 85.9864C320.124 86.103 320.064 86.2287 320.02 86.3635C319.976 86.4982 319.949 86.6252 319.938 86.7444C319.925 86.8558 319.924 86.9724 319.935 87.0942C319.945 87.2134 319.972 87.3275 320.016 87.4363C320.06 87.5425 320.124 87.6307 320.207 87.7006C320.292 87.768 320.404 87.803 320.541 87.8056C320.668 87.8082 320.784 87.7874 320.891 87.7434C320.997 87.6967 321.092 87.6332 321.175 87.5529C321.257 87.47 321.326 87.3767 321.381 87.273C321.435 87.1668 321.473 87.0554 321.493 86.9387L321.835 87.1409C321.812 87.3404 321.754 87.5309 321.66 87.7123C321.57 87.8911 321.452 88.0505 321.307 88.1904C321.162 88.3303 320.997 88.4405 320.813 88.5208C320.629 88.6011 320.433 88.64 320.226 88.6374C319.967 88.6322 319.745 88.5765 319.561 88.4703C319.377 88.3614 319.228 88.2176 319.114 88.0388C319.003 87.8574 318.924 87.6566 318.877 87.4363C318.833 87.216 318.821 86.9893 318.842 86.7561C318.866 86.4814 318.933 86.2209 319.044 85.9747C319.158 85.7286 319.307 85.5109 319.491 85.3217C319.675 85.1325 319.889 84.9848 320.133 84.8786C320.379 84.7697 320.645 84.7192 320.93 84.727C321.243 84.7347 321.506 84.8073 321.719 84.9446C321.931 85.0794 322.1 85.2595 322.224 85.485C322.351 85.7078 322.435 85.954 322.477 86.2235C322.521 86.4904 322.529 86.7599 322.5 87.032L322.449 87.4246C322.405 87.7797 322.324 88.1153 322.205 88.4314C322.085 88.745 321.932 89.03 321.746 89.2866C321.562 89.5405 321.344 89.7608 321.093 89.9474C320.842 90.1314 320.558 90.2739 320.242 90.375C319.928 90.476 319.583 90.5266 319.208 90.5266H319.095L319.184 89.617Z" fill="#CAE2BC"></path><path d="M315.481 96.0208L316.017 96.0286C316.191 96.0234 316.348 95.9897 316.487 95.9275C316.63 95.8627 316.745 95.7682 316.833 95.6438C316.922 95.5194 316.976 95.3691 316.997 95.1929C317.015 95.0503 317.002 94.9259 316.958 94.8197C316.916 94.7109 316.848 94.6253 316.752 94.5631C316.656 94.501 316.535 94.4686 316.39 94.466C316.248 94.4634 316.118 94.4906 316.002 94.5476C315.888 94.602 315.792 94.6798 315.714 94.7808C315.636 94.8819 315.584 95.0011 315.558 95.1384L314.462 95.1462C314.483 94.8119 314.589 94.5282 314.781 94.2949C314.975 94.0617 315.218 93.8855 315.508 93.7663C315.798 93.6471 316.1 93.5888 316.414 93.5914C316.735 93.5965 317.028 93.66 317.292 93.7818C317.556 93.901 317.764 94.0786 317.914 94.3144C318.064 94.5476 318.128 94.8365 318.105 95.1812C318.092 95.4196 318.025 95.6295 317.906 95.8109C317.787 95.9897 317.634 96.1387 317.448 96.2579C317.264 96.3771 317.063 96.4678 316.845 96.53C316.63 96.5896 316.415 96.6194 316.2 96.6194L315.387 96.6156L315.481 96.0208ZM315.349 96.8721L315.442 96.2929L316.138 96.2968C316.358 96.302 316.569 96.3331 316.771 96.3901C316.976 96.4471 317.156 96.5326 317.312 96.6467C317.47 96.7581 317.591 96.9032 317.677 97.082C317.762 97.2608 317.799 97.4733 317.786 97.7195C317.768 97.9994 317.695 98.2469 317.568 98.4619C317.444 98.677 317.28 98.8558 317.078 98.9984C316.879 99.1409 316.655 99.2471 316.406 99.3171C316.16 99.3871 315.907 99.4208 315.648 99.4182C315.402 99.413 315.174 99.3728 314.964 99.2977C314.756 99.2199 314.575 99.1111 314.42 98.9712C314.264 98.8312 314.145 98.6615 314.062 98.4619C313.979 98.2624 313.939 98.0357 313.941 97.7817L315.026 97.7856C315.026 97.9307 315.053 98.059 315.108 98.1704C315.162 98.2818 315.241 98.3699 315.345 98.4347C315.451 98.4995 315.579 98.5332 315.729 98.5358C315.898 98.5384 316.052 98.506 316.192 98.4386C316.332 98.3712 316.446 98.2754 316.534 98.151C316.625 98.024 316.681 97.8763 316.701 97.7078C316.725 97.5316 316.71 97.3839 316.659 97.2647C316.609 97.1429 316.528 97.0496 316.414 96.9848C316.3 96.9175 316.157 96.8812 315.986 96.876L315.349 96.8721ZM322.505 96.0092L322.357 96.9848C322.31 97.2958 322.235 97.5977 322.132 97.8905C322.031 98.1808 321.893 98.4425 321.72 98.6757C321.546 98.909 321.331 99.093 321.074 99.2277C320.818 99.3599 320.511 99.4221 320.153 99.4143C319.881 99.4091 319.649 99.3586 319.457 99.2627C319.268 99.1668 319.113 99.0398 318.991 98.8818C318.872 98.7211 318.781 98.5384 318.719 98.3337C318.659 98.1264 318.624 97.9087 318.614 97.6806C318.606 97.45 318.616 97.2194 318.645 96.9887L318.789 96.0092C318.835 95.7008 318.91 95.4015 319.014 95.1112C319.118 94.821 319.256 94.5606 319.43 94.3299C319.604 94.0967 319.819 93.9153 320.075 93.7857C320.334 93.6536 320.642 93.5914 320.997 93.5991C321.269 93.6043 321.499 93.6549 321.688 93.7507C321.88 93.844 322.036 93.9697 322.155 94.1278C322.277 94.2859 322.367 94.4673 322.427 94.672C322.489 94.8767 322.524 95.0931 322.532 95.3211C322.542 95.5492 322.533 95.7785 322.505 96.0092ZM321.245 97.1364L321.436 95.8498C321.446 95.7565 321.457 95.6515 321.467 95.5349C321.48 95.4157 321.482 95.2952 321.475 95.1734C321.469 95.0516 321.449 94.9389 321.412 94.8352C321.379 94.729 321.323 94.6435 321.245 94.5787C321.168 94.5113 321.061 94.4737 320.927 94.466C320.74 94.4582 320.585 94.4984 320.46 94.5865C320.338 94.672 320.24 94.7873 320.165 94.9324C320.092 95.0775 320.036 95.2317 319.998 95.395C319.959 95.5583 319.928 95.7124 319.904 95.8576L319.718 97.1403C319.707 97.2336 319.696 97.3399 319.683 97.4591C319.672 97.5783 319.67 97.7001 319.675 97.8245C319.683 97.9488 319.703 98.0642 319.737 98.1704C319.771 98.2767 319.827 98.3635 319.904 98.4308C319.982 98.4982 320.088 98.5358 320.223 98.5436C320.41 98.5539 320.565 98.5151 320.689 98.427C320.814 98.3363 320.912 98.2183 320.985 98.0732C321.06 97.9255 321.117 97.7687 321.156 97.6029C321.195 97.4344 321.225 97.279 321.245 97.1364Z" fill="#4FA83D"></path><path d="M324.716 91.1235L325.045 89.7346H325.229L325.271 89.9659L324.92 91.3854H324.723L324.716 91.1235ZM324.547 89.7346L324.819 91.1235L324.797 91.3854H324.577L324.211 89.7346H324.547ZM325.56 91.1178L325.828 89.7346H326.165L325.8 91.3854H325.58L325.56 91.1178ZM325.332 89.7346L325.663 91.1291L325.654 91.3854H325.457L325.104 89.9648L325.149 89.7346H325.332ZM327.458 91.1201V91.3854H326.579V91.1201H327.458ZM326.69 89.7346V91.3854H326.35V89.7346H326.69ZM327.343 90.407V90.6654H326.579V90.407H327.343ZM327.456 89.7346V90.0011H326.579V89.7346H327.456ZM328.163 91.3854H327.803L327.806 91.1201H328.163C328.252 91.1201 328.327 91.1 328.388 91.06C328.45 91.0192 328.496 90.9598 328.527 90.882C328.558 90.8041 328.574 90.71 328.574 90.5997V90.5192C328.574 90.4345 328.565 90.3601 328.547 90.2958C328.53 90.2316 328.504 90.1776 328.469 90.1337C328.434 90.0899 328.391 90.057 328.341 90.0351C328.29 90.0124 328.232 90.0011 328.166 90.0011H327.797V89.7346H328.166C328.277 89.7346 328.377 89.7535 328.469 89.7913C328.561 89.8284 328.641 89.8816 328.708 89.9512C328.775 90.0207 328.827 90.1039 328.863 90.2006C328.901 90.2966 328.919 90.4036 328.919 90.5215V90.5997C328.919 90.7168 328.901 90.8238 328.863 90.9205C328.827 91.0173 328.775 91.1004 328.708 91.17C328.642 91.2387 328.562 91.292 328.469 91.3298C328.377 91.3669 328.275 91.3854 328.163 91.3854ZM327.996 89.7346V91.3854H327.656V89.7346H327.996Z" fill="#4FA83D"></path><path d="M324.986 93.8786V92.7346H325.325V93.8786C325.325 93.9889 325.301 94.0838 325.252 94.1632C325.204 94.2418 325.138 94.3022 325.054 94.3446C324.971 94.3869 324.877 94.4081 324.773 94.4081C324.665 94.4081 324.569 94.3899 324.486 94.3536C324.403 94.3174 324.338 94.2618 324.29 94.187C324.242 94.1114 324.219 94.0158 324.219 93.9001H324.56C324.56 93.9606 324.568 94.0086 324.585 94.0441C324.602 94.0796 324.627 94.105 324.658 94.1201C324.69 94.1352 324.728 94.1428 324.773 94.1428C324.816 94.1428 324.853 94.1326 324.885 94.1121C324.917 94.0917 324.941 94.0619 324.959 94.0226C324.977 93.9833 324.986 93.9353 324.986 93.8786ZM326.527 92.7346H326.866V93.8253C326.866 93.9523 326.839 94.0592 326.784 94.1462C326.731 94.2331 326.656 94.2985 326.561 94.3423C326.466 94.3861 326.358 94.4081 326.234 94.4081C326.111 94.4081 326.002 94.3861 325.906 94.3423C325.81 94.2985 325.735 94.2331 325.681 94.1462C325.627 94.0592 325.601 93.9523 325.601 93.8253V92.7346H325.941V93.8253C325.941 93.8994 325.952 93.9598 325.976 94.0067C325.999 94.0536 326.033 94.088 326.077 94.1099C326.121 94.1318 326.174 94.1428 326.234 94.1428C326.296 94.1428 326.349 94.1318 326.392 94.1099C326.436 94.088 326.469 94.0536 326.492 94.0067C326.515 93.9598 326.527 93.8994 326.527 93.8253V92.7346ZM328.489 92.7346V94.3854H328.149L327.486 93.2788V94.3854H327.146V92.7346H327.486L328.15 93.8423V92.7346H328.489ZM330.459 94.1303V94.3854H329.329V94.1677L329.863 93.5952C329.917 93.5354 329.959 93.4829 329.99 93.4376C330.021 93.3915 330.044 93.3503 330.057 93.314C330.072 93.2769 330.079 93.2418 330.079 93.2085C330.079 93.1587 330.071 93.116 330.054 93.0804C330.037 93.0442 330.013 93.0162 329.98 92.9965C329.948 92.9769 329.909 92.9671 329.862 92.9671C329.812 92.9671 329.769 92.9792 329.733 93.0033C329.698 93.0275 329.67 93.0612 329.651 93.1042C329.633 93.1473 329.624 93.1961 329.624 93.2505H329.297C329.297 93.1522 329.32 93.0623 329.367 92.9807C329.414 92.8983 329.48 92.8329 329.565 92.7845C329.651 92.7354 329.752 92.7108 329.869 92.7108C329.985 92.7108 330.082 92.7297 330.162 92.7675C330.242 92.8046 330.302 92.8582 330.343 92.9285C330.385 92.998 330.405 93.0812 330.405 93.1779C330.405 93.2324 330.397 93.2856 330.379 93.3378C330.362 93.3892 330.337 93.4406 330.304 93.492C330.273 93.5426 330.234 93.594 330.189 93.6462C330.143 93.6983 330.093 93.7524 330.038 93.8083L329.751 94.1303H330.459ZM331.819 93.7686V94.0248H330.63L330.614 93.8264L331.302 92.7346H331.562L331.281 93.2051L330.938 93.7686H331.819ZM331.632 92.7346V94.3854H331.306V92.7346H331.632Z" fill="white"></path><path d="M421.432 56.8053C421.432 55.9506 422.125 55.2578 422.98 55.2578H534.526C535.381 55.2578 536.074 55.9506 536.074 56.8053V185.939C536.074 186.794 535.381 187.486 534.526 187.486H422.98C422.125 187.486 421.432 186.794 421.432 185.939V56.8053Z" fill="#141615"></path><path d="M421.432 56.825C421.432 55.9704 422.124 55.2776 422.979 55.2776H534.526C535.38 55.2776 536.073 55.9704 536.073 56.825V129.644H421.432V56.825Z" fill="#0B0B0B"></path><rect x="430.28" y="136.268" width="94.8874" height="7.27808" fill="#0D0D0D"></rect><rect x="430.28" y="147.025" width="66.5294" height="7.27808" fill="#0D0D0D"></rect><rect x="430.28" y="157.782" width="40.1029" height="7.79794" fill="#0D0D0D"></rect><path d="M433.424 173.859L435.367 175.031L434.851 172.821L436.568 171.334L434.307 171.143L433.424 169.058L432.541 171.143L430.28 171.334L431.997 172.821L431.481 175.031L433.424 173.859Z" fill="#CAE2BC"></path><path d="M444.359 173.859L446.302 175.031L445.786 172.821L447.503 171.334L445.242 171.143L444.359 169.058L443.476 171.143L441.215 171.334L442.932 172.821L442.416 175.031L444.359 173.859Z" fill="#CAE2BC"></path><path d="M455.295 173.859L457.238 175.031L456.722 172.821L458.439 171.334L456.178 171.143L455.295 169.058L454.412 171.143L452.151 171.334L453.868 172.821L453.352 175.031L455.295 173.859Z" fill="#CAE2BC"></path><path d="M466.23 173.859L468.173 175.031L467.657 172.821L469.374 171.334L467.113 171.143L466.23 169.058L465.347 171.143L463.086 171.334L464.803 172.821L464.287 175.031L466.23 173.859Z" fill="#CAE2BC"></path><path d="M477.165 173.859L479.108 175.031L478.592 172.821L480.309 171.334L478.049 171.143L477.165 169.058L476.282 171.143L474.021 171.334L475.738 172.821L475.222 175.031L477.165 173.859Z" fill="#CAE2BC"></path><path d="M467.695 69.4285L488.314 77.1007V116.74L467.695 109.388V69.4285Z" fill="#4FA83D"></path><path fill-rule="evenodd" clip-rule="evenodd" d="M469.447 64.7328C467.64 64.006 465.671 65.3366 465.671 67.2846V112.418C465.671 114.409 466.896 116.194 468.753 116.91L487.311 124.062C488.963 124.699 490.739 123.48 490.739 121.71V75.9282C490.739 74.3376 489.772 72.9067 488.297 72.3132L469.447 64.7328ZM488.315 77.1008L467.696 69.4286V109.388L488.315 116.74V77.1008Z" fill="#272828"></path><path d="M466.99 64.9963C466.984 65.0012 466.977 65.006 466.971 65.0108C466.977 65.0058 466.983 65.001 466.99 64.9963C467.494 64.6036 468.534 63.8039 468.81 63.6328C469.21 63.3718 470.352 63.0065 471.725 63.6328C476.651 65.4447 486.635 69.1162 487.159 69.3067C487.63 69.4757 488.661 69.858 489.017 70.0363C490.198 70.5413 492.322 71.5897 492.783 74.0024C492.768 88.8707 492.747 118.755 492.783 119.346C492.783 120.807 492.368 122.474 492.022 122.779C491.337 123.544 490.552 123.669 489.542 123.926C489.727 123.791 490.165 123.353 490.463 122.779C490.582 122.294 490.554 121.951 490.554 121.315V77.5008V75.9526C490.6 75.1763 489.982 72.934 488.458 72.2535C487.282 71.7284 484.654 70.6141 483.547 70.3573C479.816 68.9744 472.195 66.1559 471.562 65.9452C470.334 65.4002 467.717 64.4554 466.99 64.9963Z" fill="#CAE2BC"></path><path d="M466.99 64.9963C466.984 65.0012 466.977 65.006 466.971 65.0108C466.977 65.0058 466.983 65.001 466.99 64.9963C467.494 64.6036 468.534 63.8039 468.81 63.6328C469.21 63.3718 470.352 63.0065 471.725 63.6328C476.651 65.4447 486.635 69.1162 487.159 69.3067C487.63 69.4757 488.661 69.858 489.017 70.0363C490.198 70.5413 492.322 71.5897 492.783 74.0024C492.768 88.8707 492.747 118.755 492.783 119.346C492.783 120.807 492.368 122.474 492.022 122.779C491.337 123.544 490.552 123.669 489.542 123.926C489.727 123.791 490.165 123.353 490.463 122.779C490.582 122.294 490.554 121.951 490.554 121.315V77.5008V75.9526C490.6 75.1763 489.982 72.934 488.458 72.2535C487.282 71.7284 484.654 70.6141 483.547 70.3573C479.816 68.9744 472.195 66.1559 471.562 65.9452C470.334 65.4002 467.717 64.4554 466.99 64.9963Z" fill="black" fill-opacity="0.2"></path><path d="M475.153 114.302C474.815 114.173 474.453 114.422 474.453 114.784V116.735C474.453 116.948 474.584 117.139 474.783 117.216L478.798 118.758C479.136 118.888 479.499 118.639 479.499 118.277V116.326C479.499 116.112 479.367 115.921 479.168 115.845L475.153 114.302Z" fill="#0D0D0D" stroke="#4FA83D" stroke-width="0.343797"></path><rect x="473.824" y="68.9933" width="7.70868" height="1.27228" rx="0.636141" transform="rotate(20.672 473.824 68.9933)" fill="#0D0D0D"></rect><rect x="421.432" y="195.527" width="114.642" height="134.111" rx="1.54744" fill="#141615"></rect><path d="M421.432 197.074C421.432 196.22 422.125 195.527 422.98 195.527H534.526C535.381 195.527 536.074 196.22 536.074 197.074V269.893H421.432V197.074Z" fill="#0B0B0B"></path><rect x="430.312" y="280.723" width="94.8874" height="7.27808" fill="#0D0D0D"></rect><rect x="430.312" y="291.48" width="66.5294" height="7.27808" fill="#0D0D0D"></rect><rect x="430.312" y="302.236" width="40.1029" height="7.79794" fill="#0D0D0D"></rect><path d="M433.456 318.313L435.399 319.486L434.883 317.276L436.6 315.789L434.34 315.597L433.456 313.513L432.573 315.597L430.312 315.789L432.029 317.276L431.513 319.486L433.456 318.313Z" fill="#CAE2BC"></path><path d="M444.391 318.313L446.334 319.486L445.818 317.276L447.535 315.789L445.275 315.597L444.391 313.513L443.508 315.597L441.248 315.789L442.964 317.276L442.448 319.486L444.391 318.313Z" fill="#CAE2BC"></path><path d="M455.327 318.313L457.27 319.486L456.754 317.276L458.471 315.789L456.211 315.597L455.327 313.513L454.444 315.597L452.184 315.789L453.9 317.276L453.384 319.486L455.327 318.313Z" fill="#CAE2BC"></path><path d="M466.262 318.313L468.205 319.486L467.69 317.276L469.406 315.789L467.146 315.597L466.262 313.513L465.379 315.597L463.119 315.789L464.835 317.276L464.32 319.486L466.262 318.313Z" fill="#CAE2BC"></path><path d="M477.197 318.313L479.14 319.486L478.624 317.276L480.341 315.789L478.08 315.597L477.197 313.513L476.314 315.597L474.053 315.789L475.77 317.276L475.254 319.486L477.197 318.313Z" fill="#CAE2BC"></path><path d="M455.239 204.349C454.77 204.562 452.687 205.657 451.702 206.49C452.922 206.129 454.432 206.72 455.049 207.18C455.552 207.431 464.816 212.842 469.386 215.516L489.339 226.993C491.878 228.304 493.769 231.12 494.396 232.365C495.289 234.43 495.398 237.765 495.34 239.175C495.353 239.572 495.196 254.594 495.116 262.056C494.97 262.959 494.201 263.725 493.982 263.96L498.895 261.134C500.354 260.01 500.579 257.732 500.511 256.418V235.083C500.511 232.454 499.846 230.171 499.513 229.358C498.409 226.822 495.832 224.757 494.682 224.041C494.212 223.755 492.192 222.675 491.241 222.17L459.151 203.59C457.554 203.154 456.783 203.59 455.239 204.349Z" fill="#272828"></path><path d="M475.189 206.695C473.585 207.156 473.031 208.324 472.954 208.815C473.673 207.82 474.619 207.483 475.064 207.391C476.311 207.133 476.88 207.101 478.098 207.391C479.549 207.736 481.394 209.438 482.556 210.654C483.565 211.647 485.285 214.403 485.999 216.648C486.207 217.394 486.848 219.983 487.009 221.05L487.816 220.751C487.742 220.069 487.478 218.424 487.355 217.686C486.671 214.786 485.248 212.63 484.565 211.647C483.348 210.099 481.77 208.669 481.078 208.108C478.848 206.302 476.188 206.403 475.189 206.695Z" fill="#CAE2BC"></path><path d="M475.189 206.695C473.585 207.156 473.031 208.324 472.954 208.815C473.673 207.82 474.619 207.483 475.064 207.391C476.311 207.133 476.88 207.101 478.098 207.391C479.549 207.736 481.394 209.438 482.556 210.654C483.565 211.647 485.285 214.403 485.999 216.648C486.207 217.394 486.848 219.983 487.009 221.05L487.816 220.751C487.742 220.069 487.478 218.424 487.355 217.686C486.671 214.786 485.248 212.63 484.565 211.647C483.348 210.099 481.77 208.669 481.078 208.108C478.848 206.302 476.188 206.403 475.189 206.695Z" fill="black" fill-opacity="0.2"></path><path d="M471.487 212.288L473.977 213.597C473.798 209.103 476.498 209.75 477.998 210.054C480.775 210.893 482.518 213.597 483.338 215.161C484.231 216.616 484.744 218.98 484.733 219.981L486.968 221.034C486.865 219.195 485.912 216.272 485.467 215.161C484.395 212.48 481.396 209.032 480.488 208.554C477.998 206.595 475.445 206.893 473.977 207.756C472.164 209.288 471.455 211.416 471.487 212.288Z" fill="#4FA83D"></path><path d="M453.421 205.617C453.271 205.692 452.216 206.243 451.708 206.509C454.832 204.054 456.981 204.322 457.664 204.763C457.994 204.905 459.096 205.529 459.606 205.823L467.285 210.324L480.348 217.856L491.792 224.446C494.148 225.623 495.951 227.702 496.559 228.594C497.971 230.454 498.583 233.324 498.713 234.527L497.349 235.121C497.024 231.982 495.86 229.904 495.319 229.257C494.813 228.21 492.913 226.701 492.026 226.077C491.665 225.824 489.757 224.75 488.848 224.245L473.54 215.385L456.925 205.823C455.667 204.852 454.065 205.281 453.421 205.617Z" fill="#0D0D0D"></path><path d="M453.709 206.383C454.066 206.53 457.371 208.418 458.98 209.344L473.805 218.035C474.697 218.509 484.786 224.32 489.72 227.166C491.94 228.191 493.713 230.961 494.321 232.218C495.005 233.338 495.341 236.261 495.341 237.769C495.341 238.47 495.24 254.18 495.128 261.962C494.957 263.043 494.203 263.804 493.847 264.049C492.139 264.984 489.637 263.66 488.599 262.881L451.042 238.688C449.559 237.361 449.633 234.038 449.855 232.542V209.188C450.337 206.231 452.625 206.086 453.709 206.383Z" fill="#0D0D0D"></path><path d="M500.272 248.721C498.201 246.067 497.286 240.359 497.086 237.837L500.584 235.989C500.584 242.725 502.79 246.271 504.007 247.292C505.281 248.088 506.621 246.111 506.975 244.739C507.825 242.244 506.621 239.098 505.914 237.837C505.064 235.66 501.609 233.1 500.215 232.104C500.053 230.366 498.919 228.349 498.167 227.088C500.397 227.831 504.166 230.315 505.449 231.466C509.059 234.545 510.493 239.297 510.758 241.288C511.449 246.491 508.524 250.005 506.975 251.111C504.055 253.022 501.29 250.314 500.272 248.721Z" fill="#4FA83D"></path><path d="M496.251 235.817C495.598 237.011 496.27 237.75 496.814 237.788L500.953 234.156C500.458 233.57 499.752 233.649 499.461 233.761C497.905 234.364 496.57 235.338 496.251 235.817Z" fill="black"></path><path d="M496.719 237.583C496.402 237.156 496.507 236.55 496.949 236.255L499.976 234.233C500.428 233.931 501.043 234.092 501.29 234.576C501.498 234.983 501.371 235.481 500.994 235.739L497.992 237.796C497.579 238.079 497.017 237.985 496.719 237.583Z" fill="#CAE2BC"></path><path d="M451.921 221.24C451.95 218.116 455.34 216.185 458.042 217.755L485.368 233.632C488.208 235.283 489.969 238.308 490.001 241.593L490.181 259.98C490.213 263.296 486.617 265.38 483.756 263.704L455.678 247.258C453.219 245.818 451.718 243.171 451.744 240.321L451.921 221.24Z" fill="#CAE2BC"></path><path d="M451.921 221.24C451.95 218.116 455.34 216.185 458.042 217.755L485.368 233.632C488.208 235.283 489.969 238.308 490.001 241.593L490.181 259.98C490.213 263.296 486.617 265.38 483.756 263.704L455.678 247.258C453.219 245.818 451.718 243.171 451.744 240.321L451.921 221.24Z" fill="black" fill-opacity="0.2"></path><path d="M451.853 221.207C451.868 218.838 454.424 217.359 456.485 218.525L482.549 233.266C486.14 235.297 488.36 239.103 488.36 243.229V261.547C488.36 263.643 486.087 264.949 484.276 263.893L455.678 247.217C453.218 245.783 451.713 243.143 451.731 240.295L451.853 221.207Z" fill="#4FA83D"></path><path d="M473.274 208.207C471.601 208.117 470.849 208.979 470.612 209.261C472.629 208.399 474.536 208.993 475.214 209.336C478.081 211.121 480.6 214.191 481.618 215.895C482.752 217.308 483.515 221.136 483.755 222.873L484.649 221.936C484.545 221.22 483.835 218.875 483.493 217.792C482.977 215.952 481.564 213.947 480.902 213.053C480.309 212.128 478.31 210.206 477.523 209.695C475.429 208.336 474.125 208.281 473.274 208.207Z" fill="#CAE2BC"></path><path d="M473.274 208.207C471.601 208.117 470.849 208.979 470.612 209.261C472.629 208.399 474.536 208.993 475.214 209.336C478.081 211.121 480.6 214.191 481.618 215.895C482.752 217.308 483.515 221.136 483.755 222.873L484.649 221.936C484.545 221.22 483.835 218.875 483.493 217.792C482.977 215.952 481.564 213.947 480.902 213.053C480.309 212.128 478.31 210.206 477.523 209.695C475.429 208.336 474.125 208.281 473.274 208.207Z" fill="black" fill-opacity="0.2"></path><path d="M468.239 214.087L470.507 215.351C470.43 213.107 471.584 212.141 472.171 211.939C473.343 211.223 474.905 211.729 475.539 212.071C476.036 212.3 477.134 213.223 477.622 213.656C480.97 216.401 481.528 220.156 481.388 221.691L483.765 222.88C483.597 221.39 482.957 218.908 482.602 217.882C481.669 215.191 479.542 212.925 478.496 211.939C478.11 211.425 475.884 209.596 474.755 209.156C472.364 208.226 470.353 209.21 469.762 209.873C468.414 211.377 468.185 213.309 468.239 214.087Z" fill="#4FA83D"></path><path d="M471.468 214.872L470.51 215.326C470.399 212.648 471.972 211.699 472.718 211.632C471.705 212.237 471.463 214.044 471.468 214.872Z" fill="#CAE2BC"></path><path d="M471.468 214.872L470.51 215.326C470.399 212.648 471.972 211.699 472.718 211.632C471.705 212.237 471.463 214.044 471.468 214.872Z" fill="black" fill-opacity="0.2"></path><path d="M451.891 221.041L488.361 241.828V243.615L451.891 222.652L451.891 221.041Z" fill="#CAE2BC"></path><path d="M457.156 225.654L458.348 226.375V248.708L457.156 248.031V225.654Z" fill="#CAE2BC"></path><path d="M481.759 239.846L482.951 240.567V263.093L481.759 262.416V239.846Z" fill="#CAE2BC"></path><path d="M472.545 252.294C472.839 251.693 473.588 251.479 474.156 251.833L479.665 255.275C480.098 255.545 480.292 256.075 480.136 256.56C479.915 257.25 479.105 257.548 478.489 257.167L472.964 253.751C472.471 253.445 472.289 252.815 472.545 252.294Z" fill="#272828"></path><rect x="142.45" y="196.042" width="114.642" height="133.596" rx="1.54744" fill="#141615"></rect><path d="M142.45 197.59C142.45 196.735 143.143 196.042 143.997 196.042H255.544C256.398 196.042 257.091 196.735 257.091 197.59V270.408H142.45V197.59Z" fill="#0B0B0B"></path><rect x="151.106" y="280.698" width="94.8874" height="7.27808" fill="#0D0D0D"></rect><rect x="151.106" y="291.454" width="66.5294" height="7.27808" fill="#0D0D0D"></rect><rect x="151.106" y="302.211" width="40.1029" height="7.79794" fill="#0D0D0D"></rect><path d="M154.25 318.288L156.193 319.461L155.677 317.251L157.394 315.764L155.133 315.572L154.25 313.488L153.367 315.572L151.106 315.764L152.823 317.251L152.307 319.461L154.25 318.288Z" fill="#CAE2BC"></path><path d="M165.185 318.288L167.128 319.461L166.612 317.251L168.329 315.764L166.069 315.572L165.185 313.488L164.302 315.572L162.042 315.764L163.758 317.251L163.242 319.461L165.185 318.288Z" fill="#CAE2BC"></path><path d="M176.121 318.288L178.064 319.461L177.548 317.251L179.265 315.764L177.005 315.572L176.121 313.488L175.238 315.572L172.978 315.764L174.694 317.251L174.178 319.461L176.121 318.288Z" fill="#CAE2BC"></path><path d="M187.056 318.288L188.999 319.461L188.484 317.251L190.2 315.764L187.94 315.572L187.056 313.488L186.173 315.572L183.913 315.764L185.629 317.251L185.113 319.461L187.056 318.288Z" fill="#CAE2BC"></path><path d="M197.991 318.288L199.934 319.461L199.419 317.251L201.135 315.764L198.875 315.572L197.991 313.488L197.108 315.572L194.848 315.764L196.564 317.251L196.049 319.461L197.991 318.288Z" fill="#CAE2BC"></path><g filter="url(#filter1_i_3227_14188)"><path d="M179.489 220.112C181.268 219.466 182.885 220.196 183.472 220.642L185.045 221.636C186.237 222.258 187.71 221.83 188.297 221.538L201.697 216.355C204.144 215.718 204.634 214.109 204.573 213.385C204.891 210.444 207.508 209.398 208.776 209.243C209.707 209.007 214.38 207.952 216.6 207.455C220.875 206.42 223.998 208.722 225.025 210.002C226.376 211.23 229.353 214.311 230.672 215.698C235.477 221.881 238.176 226.94 238.925 228.697C240.564 232.057 240.863 234.071 240.807 234.659C241.084 238.885 238.129 241.177 236.617 241.795C233.146 243.555 229.663 241.787 228.355 240.683C227.71 240.097 225.392 238.251 224.314 237.402C221.385 235.485 218.321 236.013 217.156 236.517C216.178 236.776 199.33 243.363 191.029 246.624C186.775 247.529 185.354 251.767 185.176 253.773C185.142 254.325 184.535 257.273 184.236 258.678C183.341 261.974 180.237 263.468 178.796 263.804C177.433 264.217 175.45 263.842 174.628 263.603C171.699 262.666 170.055 259.541 169.599 258.096C167.743 252.976 167.051 248.61 166.937 247.067C165.646 238.913 166.534 231.887 167.139 229.393C167.441 226.75 171.553 224.264 173.571 223.351C173.853 223.16 177.634 221.112 179.489 220.112Z" fill="#0D0D0D"></path></g><g filter="url(#filter2_i_3227_14188)"><path d="M170.41 238.824C168.196 233.976 170.256 230.262 171.155 229.418C172.517 227.632 174.98 226.474 176.146 226.229C179.539 225.207 182.995 227.663 184.299 229.018C185.024 229.617 186.331 232.354 186.894 233.647C188.187 235.271 189.902 235.067 190.598 234.762C192.44 234.2 193.64 234.168 194.01 234.223C196.399 234.09 198.381 235.784 199.073 236.648C200.975 239.075 200.486 242.003 200.004 243.163C198.599 246.819 195.3 247.369 193.825 247.186C190.425 247.195 188.644 244.964 188.179 243.847C187.376 242.397 186.678 241.934 186.429 241.883C185.138 240.821 182.526 241.702 181.382 242.275C180.904 242.576 180.017 242.852 179.633 242.952C174.408 243.9 171.307 240.595 170.41 238.824Z" fill="black"></path></g><g filter="url(#filter3_di_3227_14188)"><circle cx="194.201" cy="240.959" r="4.79595" transform="rotate(-21.1485 194.201 240.959)" fill="url(#paint2_linear_3227_14188)"></circle></g><g filter="url(#filter4_di_3227_14188)"><path d="M174.121 230.614C173.922 230.099 174.178 229.52 174.693 229.321L176.75 228.525C177.266 228.326 177.845 228.582 178.044 229.097L178.812 231.083C178.922 231.366 178.897 231.684 178.744 231.947L177.994 233.235C177.751 233.653 177.245 233.837 176.79 233.673L175.491 233.204C175.219 233.105 175.003 232.894 174.898 232.624L174.121 230.614Z" fill="url(#paint3_linear_3227_14188)"></path></g><g filter="url(#filter5_di_3227_14188)"><path d="M173.808 238.325C173.293 238.524 172.713 238.268 172.514 237.753L171.718 235.696C171.519 235.18 171.775 234.601 172.29 234.402L174.276 233.634C174.56 233.524 174.877 233.549 175.14 233.702L176.428 234.452C176.846 234.695 177.03 235.201 176.866 235.656L176.397 236.955C176.299 237.227 176.087 237.443 175.817 237.548L173.808 238.325Z" fill="url(#paint4_linear_3227_14188)"></path></g><g filter="url(#filter6_di_3227_14188)"><path d="M181.759 230.739C182.274 230.54 182.853 230.796 183.052 231.311L183.848 233.369C184.047 233.884 183.791 234.463 183.276 234.662L181.29 235.431C181.007 235.54 180.689 235.515 180.426 235.362L179.138 234.613C178.72 234.37 178.536 233.863 178.7 233.409L179.17 232.11C179.268 231.837 179.479 231.621 179.749 231.517L181.759 230.739Z" fill="url(#paint5_linear_3227_14188)"></path></g><g filter="url(#filter7_di_3227_14188)"><path d="M181.502 238.438C181.701 238.953 181.445 239.532 180.93 239.732L178.873 240.527C178.357 240.727 177.778 240.471 177.579 239.956L176.811 237.969C176.701 237.686 176.726 237.368 176.879 237.106L177.629 235.817C177.872 235.4 178.378 235.216 178.833 235.38L180.132 235.849C180.404 235.947 180.62 236.159 180.725 236.429L181.502 238.438Z" fill="url(#paint6_linear_3227_14188)"></path></g><g filter="url(#filter8_i_3227_14188)"><path d="M226.241 217.227C224.616 212.15 220.593 210.79 219.36 210.77C217.151 210.367 214.55 211.167 213.522 211.77C210.325 213.299 209.421 217.44 209.369 219.32C209.236 220.252 210.11 223.155 210.564 224.49C210.701 226.562 209.295 227.565 208.576 227.808C206.834 228.632 205.925 229.416 205.689 229.706C203.832 231.215 203.506 233.802 203.575 234.906C203.802 237.981 206.134 239.818 207.272 240.352C210.771 242.111 213.582 240.297 214.549 239.17C217.07 236.888 216.886 234.039 216.479 232.899C216.097 231.287 216.302 230.474 216.452 230.27C216.691 228.615 219.216 227.509 220.448 227.163C221.004 227.064 221.846 226.671 222.198 226.486C226.701 223.671 226.769 219.14 226.241 217.227Z" fill="black"></path></g><g filter="url(#filter9_di_3227_14188)"><circle cx="4.79595" cy="4.79595" r="4.79595" transform="matrix(-0.932648 0.360787 0.360787 0.932648 212.822 228.614)" fill="url(#paint7_linear_3227_14188)"></circle></g><g filter="url(#filter10_di_3227_14188)"><circle cx="216.652" cy="215.337" r="2.22349" transform="rotate(-21.1485 216.652 215.337)" fill="url(#paint8_linear_3227_14188)"></circle></g><g filter="url(#filter11_di_3227_14188)"><circle cx="221.81" cy="217.623" r="2.22349" transform="rotate(-21.1485 221.81 217.623)" fill="url(#paint9_linear_3227_14188)"></circle></g><g filter="url(#filter12_di_3227_14188)"><circle cx="214.576" cy="220.421" r="2.22349" transform="rotate(-21.1485 214.576 220.421)" fill="url(#paint10_linear_3227_14188)"></circle></g><g filter="url(#filter13_di_3227_14188)"><circle cx="219.463" cy="222.6" r="2.22349" transform="rotate(-21.1485 219.463 222.6)" fill="url(#paint11_linear_3227_14188)"></circle></g><g filter="url(#filter14_f_3227_14188)"><path d="M177.286 254.024C176.018 259.475 173.86 248.803 172.939 242.785C174.546 239.924 178.761 243.806 178.527 244.758C178.339 245.52 177.622 251.252 177.286 254.024Z" fill="#4FA83D"></path></g><g filter="url(#filter15_f_3227_14188)"><path d="M230.556 232.423C235.163 235.602 229.577 226.255 226.208 221.184C223.094 220.149 222.588 225.858 223.403 226.404C224.054 226.841 228.443 230.599 230.556 232.423Z" fill="#4FA83D"></path></g><g filter="url(#filter16_f_3227_14188)"><path d="M202.093 221.475L190.844 225.827C189.348 226.405 189.326 228.513 190.81 229.122L198.772 232.393C199.667 232.761 200.692 232.343 201.075 231.455L204.362 223.832C204.985 222.388 203.56 220.907 202.093 221.475Z" fill="#4FA83D"></path></g><rect x="188.071" y="228.078" width="4.84665" height="2.92942" rx="1.46471" transform="rotate(-21.1485 188.071 228.078)" fill="black"></rect><g filter="url(#filter17_f_3227_14188)"><rect x="188.367" y="228.173" width="4.36976" height="2.53885" rx="1.26942" transform="rotate(-21.1485 188.367 228.173)" fill="url(#paint12_radial_3227_14188)" fill-opacity="0.74"></rect></g><g filter="url(#filter18_df_3227_14188)"><path d="M189.414 228.048C188.922 228.482 189.128 229.081 189.292 229.326C189.573 229.763 189.712 229.347 189.746 229.084C189.803 228.819 190.33 228.67 190.586 228.629C190.881 228.564 191.13 228.253 191.218 228.106C191.411 227.653 191.003 227.528 190.775 227.522C190.411 227.517 189.716 227.871 189.414 228.048Z" fill="#4FA83D"></path></g><rect width="4.84665" height="2.92942" rx="1.46471" transform="matrix(-0.932648 0.360787 0.360787 0.932648 205.661 221.274)" fill="black"></rect><g filter="url(#filter19_f_3227_14188)"><rect width="4.36976" height="2.53885" rx="1.26942" transform="matrix(-0.932648 0.360787 0.360787 0.932648 205.506 221.543)" fill="url(#paint13_radial_3227_14188)" fill-opacity="0.74"></rect></g><g filter="url(#filter20_df_3227_14188)"><path d="M204.647 222.156C205.303 222.145 205.554 222.726 205.597 223.018C205.683 223.531 205.301 223.316 205.099 223.145C204.878 222.987 204.388 223.232 204.171 223.374C203.909 223.524 203.516 223.462 203.352 223.413C202.904 223.207 203.121 222.84 203.286 222.682C203.552 222.433 204.304 222.227 204.647 222.156Z" fill="#4FA83D"></path></g><rect x="281.816" y="196.205" width="114.642" height="133.433" rx="1.54744" fill="#141615"></rect><path d="M281.816 197.753C281.816 196.898 282.509 196.205 283.364 196.205H394.911C395.765 196.205 396.458 196.898 396.458 197.753V270.571H281.816V197.753Z" fill="#0B0B0B"></path><rect x="290.631" y="281.178" width="94.8874" height="7.27808" fill="#0D0D0D"></rect><rect x="290.631" y="291.935" width="66.5294" height="7.27808" fill="#0D0D0D"></rect><rect x="290.631" y="302.692" width="40.1029" height="7.79794" fill="#0D0D0D"></rect><path d="M293.775 318.769L295.717 319.941L295.202 317.731L296.918 316.245L294.658 316.053L293.775 313.969L292.891 316.053L290.631 316.245L292.347 317.731L291.832 319.941L293.775 318.769Z" fill="#CAE2BC"></path><path d="M304.709 318.769L306.652 319.941L306.136 317.731L307.853 316.245L305.592 316.053L304.709 313.969L303.826 316.053L301.565 316.245L303.282 317.731L302.766 319.941L304.709 318.769Z" fill="#CAE2BC"></path><path d="M315.645 318.769L317.588 319.941L317.072 317.731L318.789 316.245L316.529 316.053L315.645 313.969L314.762 316.053L312.501 316.245L314.218 317.731L313.702 319.941L315.645 318.769Z" fill="#CAE2BC"></path><path d="M326.58 318.769L328.523 319.941L328.007 317.731L329.723 316.245L327.463 316.053L326.58 313.969L325.696 316.053L323.436 316.245L325.152 317.731L324.637 319.941L326.58 318.769Z" fill="#CAE2BC"></path><path d="M337.515 318.769L339.458 319.941L338.942 317.731L340.659 316.245L338.399 316.053L337.515 313.969L336.632 316.053L334.372 316.245L336.088 317.731L335.572 319.941L337.515 318.769Z" fill="#CAE2BC"></path><path d="M335.171 228.232L366.311 208.473V240.62H315.411L335.171 228.232Z" fill="#4FA83D"></path><path d="M346.536 221.026L315.394 240.592L315.429 208.445L366.328 208.501L346.536 221.026Z" fill="#CAE2BC"></path><path d="M346.536 221.026L315.394 240.592L315.429 208.445L366.328 208.501L346.536 221.026Z" fill="black" fill-opacity="0.2"></path><path d="M304.739 260.908L313.015 244.092H368.833L376.669 260.908H304.739Z" fill="url(#paint14_linear_3227_14188)"></path><path d="M304.695 262.229V260.864H376.625V262.229H304.695Z" fill="#323333"></path><path d="M311.694 256.462L316.361 245.413H366.764L371.43 256.462H311.694Z" fill="black"></path><path d="M315.524 247.438H367.645" stroke="#525252" stroke-width="0.176082"></path><path d="M314.6 249.551H368.305" stroke="#525252" stroke-width="0.176082"></path><path d="M313.631 251.664H369.449" stroke="#525252" stroke-width="0.176082"></path><path d="M312.663 254.041H370.418" stroke="#525252" stroke-width="0.176082"></path><path d="M318.914 245.413L314.776 256.374" stroke="#525252" stroke-width="0.176082"></path><path d="M321.729 245.325L318.022 256.439" stroke="#525252" stroke-width="0.176082"></path><path d="M324.622 245.325L321.424 256.596" stroke="#525252" stroke-width="0.176082"></path><path d="M327.414 245.481L325.165 254.059" stroke="#525252" stroke-width="0.176082"></path><path d="M330.27 245.429L328.47 254.113" stroke="#525252" stroke-width="0.176082"></path><path d="M333.165 245.413L331.753 254.168" stroke="#525252" stroke-width="0.176082"></path><path d="M335.938 245.325L335.057 254.149" stroke="#525252" stroke-width="0.176082"></path><path d="M338.821 245.407L338.341 254.262" stroke="#525252" stroke-width="0.176082"></path><path d="M341.659 245.325L341.615 254.192" stroke="#525252" stroke-width="0.176082"></path><path d="M344.567 245.327L344.87 254.19" stroke="#525252" stroke-width="0.176082"></path><path d="M347.387 245.325L347.961 254.174" stroke="#525252" stroke-width="0.176082"></path><path d="M350.339 245.325L351.182 254.152" stroke="#525252" stroke-width="0.176082"></path><path d="M353.201 245.422L355.153 256.497" stroke="#525252" stroke-width="0.176082"></path><path d="M355.955 245.413L358.279 256.415" stroke="#525252" stroke-width="0.176082"></path><path d="M358.84 245.413L361.79 256.506" stroke="#525252" stroke-width="0.176082"></path><path d="M361.817 245.413L365.184 256.386" stroke="#525252" stroke-width="0.176082"></path><path d="M364.431 245.325L368.569 256.506" stroke="#525252" stroke-width="0.176082"></path><path fill-rule="evenodd" clip-rule="evenodd" d="M315.181 205.794C314.014 205.794 313.068 206.74 313.068 207.907V244.092H368.886V207.907C368.886 206.74 367.94 205.794 366.773 205.794H315.181ZM366.297 208.4H315.575V240.478H366.297V208.4Z" fill="#272828"></path><defs><filter id="filter0_b_3227_14188" x="-9.00635" y="-8.61646" width="572.728" height="363.233" color-interpolation-filters="sRGB"><feGaussianBlur stdDeviation="4.71753"></feGaussianBlur></filter><filter id="filter1_i_3227_14188" x="166.274" y="207.195" width="74.5513" height="56.7936" color-interpolation-filters="sRGB"><feGaussianBlur stdDeviation="2.70562"></feGaussianBlur></filter><filter id="filter2_i_3227_14188" x="169.419" y="225.986" width="31.021" height="21.2303" color-interpolation-filters="sRGB"><feGaussianBlur stdDeviation="1.02015"></feGaussianBlur></filter><filter id="filter3_di_3227_14188" x="187.009" y="233.767" width="14.3845" height="14.3848" color-interpolation-filters="sRGB"><feGaussianBlur stdDeviation="1.19757"></feGaussianBlur><feGaussianBlur stdDeviation="0.620962"></feGaussianBlur></filter><filter id="filter4_di_3227_14188" x="171.658" y="226.062" width="9.61645" height="10.0653" color-interpolation-filters="sRGB"><feGaussianBlur stdDeviation="1.19757"></feGaussianBlur><feGaussianBlur stdDeviation="0.620962"></feGaussianBlur></filter><filter id="filter5_di_3227_14188" x="169.256" y="231.171" width="10.0652" height="9.61645" color-interpolation-filters="sRGB"><feGaussianBlur stdDeviation="1.19757"></feGaussianBlur><feGaussianBlur stdDeviation="0.620962"></feGaussianBlur></filter><filter id="filter6_di_3227_14188" x="176.245" y="228.277" width="10.0652" height="9.61645" color-interpolation-filters="sRGB"><feGaussianBlur stdDeviation="1.19757"></feGaussianBlur><feGaussianBlur stdDeviation="0.620962"></feGaussianBlur></filter><filter id="filter7_di_3227_14188" x="174.349" y="232.925" width="9.61645" height="10.0653" color-interpolation-filters="sRGB"><feGaussianBlur stdDeviation="1.19757"></feGaussianBlur><feGaussianBlur stdDeviation="0.620962"></feGaussianBlur></filter><filter id="filter8_i_3227_14188" x="203.567" y="210.661" width="22.8984" height="30.4243" color-interpolation-filters="sRGB"><feGaussianBlur stdDeviation="1.02015"></feGaussianBlur></filter><filter id="filter9_di_3227_14188" x="202.887" y="227.625" width="14.385" height="14.3848" color-interpolation-filters="sRGB"><feGaussianBlur stdDeviation="1.19757"></feGaussianBlur><feGaussianBlur stdDeviation="0.620962"></feGaussianBlur></filter><filter id="filter10_di_3227_14188" x="212.033" y="210.718" width="9.23852" height="9.2384" color-interpolation-filters="sRGB"><feGaussianBlur stdDeviation="1.19757"></feGaussianBlur><feGaussianBlur stdDeviation="0.310481"></feGaussianBlur></filter><filter id="filter11_di_3227_14188" x="217.19" y="213.003" width="9.23852" height="9.2384" color-interpolation-filters="sRGB"><feGaussianBlur stdDeviation="1.19757"></feGaussianBlur><feGaussianBlur stdDeviation="0.310481"></feGaussianBlur></filter><filter id="filter12_di_3227_14188" x="209.957" y="215.801" width="9.23852" height="9.2384" color-interpolation-filters="sRGB"><feGaussianBlur stdDeviation="1.19757"></feGaussianBlur><feGaussianBlur stdDeviation="0.310481"></feGaussianBlur></filter><filter id="filter13_di_3227_14188" x="214.844" y="217.981" width="9.23852" height="9.2384" color-interpolation-filters="sRGB"><feGaussianBlur stdDeviation="1.19757"></feGaussianBlur><feGaussianBlur stdDeviation="0.310481"></feGaussianBlur></filter><filter id="filter14_f_3227_14188" x="163.181" y="231.993" width="25.1131" height="33.2928" color-interpolation-filters="sRGB"><feGaussianBlur stdDeviation="4.87898"></feGaussianBlur></filter><filter id="filter15_f_3227_14188" x="213.299" y="211.301" width="28.7611" height="31.5242" color-interpolation-filters="sRGB"><feGaussianBlur stdDeviation="4.87898"></feGaussianBlur></filter><filter id="filter16_f_3227_14188" x="181.371" y="213.012" width="31.48" height="27.8532" color-interpolation-filters="sRGB"><feGaussianBlur stdDeviation="4.16931"></feGaussianBlur></filter><filter id="filter17_f_3227_14188" x="187.852" y="226.082" width="6.02125" height="4.97425" color-interpolation-filters="sRGB"><feGaussianBlur stdDeviation="0.443544"></feGaussianBlur></filter><filter id="filter18_df_3227_14188" x="188.751" y="227.433" width="2.87227" height="2.79289" color-interpolation-filters="sRGB"><feGaussianBlur stdDeviation="0.177418"></feGaussianBlur><feGaussianBlur stdDeviation="0.0443544"></feGaussianBlur></filter><filter id="filter19_f_3227_14188" x="200.916" y="221.028" width="6.02125" height="4.97425" color-interpolation-filters="sRGB"><feGaussianBlur stdDeviation="0.443544"></feGaussianBlur></filter><filter id="filter20_df_3227_14188" x="202.731" y="222.067" width="3.23311" height="2.111" color-interpolation-filters="sRGB"><feGaussianBlur stdDeviation="0.177418"></feGaussianBlur><feGaussianBlur stdDeviation="0.0443544"></feGaussianBlur></filter><linearGradient id="paint0_linear_3227_14188" x1="0.428711" y1="0.818604" x2="581.014" y2="283.02" gradientUnits="userSpaceOnUse"><stop></stop><stop offset="1" stop-color="#2D2D2D"></stop></linearGradient><linearGradient id="paint1_linear_3227_14188" x1="0.428711" y1="0.818604" x2="578.185" y2="285.991" gradientUnits="userSpaceOnUse"><stop stop-color="#525252"></stop><stop offset="1" stop-color="#CFCFCF" stop-opacity="0.35"></stop></linearGradient><linearGradient id="paint2_linear_3227_14188" x1="200.665" y1="244.174" x2="189.936" y2="237.3" gradientUnits="userSpaceOnUse"><stop stop-color="#CAE2BC"></stop><stop offset="1" stop-color="#4FA83D"></stop></linearGradient><linearGradient id="paint3_linear_3227_14188" x1="175.722" y1="228.923" x2="178.775" y2="233.499" gradientUnits="userSpaceOnUse"><stop stop-color="#CAE2BC"></stop><stop offset="1" stop-color="#4FA83D"></stop></linearGradient><linearGradient id="paint4_linear_3227_14188" x1="172.116" y1="236.724" x2="176.284" y2="233.943" gradientUnits="userSpaceOnUse"><stop stop-color="#CAE2BC"></stop><stop offset="1" stop-color="#4FA83D"></stop></linearGradient><linearGradient id="paint5_linear_3227_14188" x1="183.221" y1="232.428" x2="179.372" y2="234.997" gradientUnits="userSpaceOnUse"><stop stop-color="#CAE2BC"></stop><stop offset="1" stop-color="#4FA83D"></stop></linearGradient><linearGradient id="paint6_linear_3227_14188" x1="179.901" y1="240.13" x2="177.37" y2="236.336" gradientUnits="userSpaceOnUse"><stop stop-color="#CAE2BC"></stop><stop offset="1" stop-color="#4FA83D"></stop></linearGradient><linearGradient id="paint7_linear_3227_14188" x1="8.4833" y1="8.84866" x2="1.60963" y2="0.969085" gradientUnits="userSpaceOnUse"><stop stop-color="#CAE2BC"></stop><stop offset="1" stop-color="#4FA83D"></stop></linearGradient><linearGradient id="paint8_linear_3227_14188" x1="216.652" y1="213.114" x2="216.652" y2="217.731" gradientUnits="userSpaceOnUse"><stop stop-color="#CAE2BC"></stop><stop offset="1" stop-color="#4FA83D"></stop></linearGradient><linearGradient id="paint9_linear_3227_14188" x1="224.806" y1="219.113" x2="219.832" y2="215.926" gradientUnits="userSpaceOnUse"><stop stop-color="#CAE2BC"></stop><stop offset="1" stop-color="#4FA83D"></stop></linearGradient><linearGradient id="paint10_linear_3227_14188" x1="212.141" y1="220.208" x2="216.8" y2="220.173" gradientUnits="userSpaceOnUse"><stop stop-color="#CAE2BC"></stop><stop offset="1" stop-color="#4FA83D"></stop></linearGradient><linearGradient id="paint11_linear_3227_14188" x1="219.463" y1="224.823" x2="219.463" y2="220.565" gradientUnits="userSpaceOnUse"><stop stop-color="#CAE2BC"></stop><stop offset="1" stop-color="#4FA83D"></stop></linearGradient><radialGradient id="paint12_radial_3227_14188" cx="0" cy="0" r="1" gradientUnits="userSpaceOnUse" gradientTransform="translate(190.176 229.775) rotate(17.6761) scale(2.41552 4.15749)"><stop stop-color="#4FA83D"></stop><stop offset="1" stop-color="#CAE2BC" stop-opacity="0"></stop></radialGradient><radialGradient id="paint13_radial_3227_14188" cx="0" cy="0" r="1" gradientUnits="userSpaceOnUse" gradientTransform="translate(1.80941 1.60214) rotate(17.6761) scale(2.41552 4.15749)"><stop stop-color="#4FA83D"></stop><stop offset="1" stop-color="#CAE2BC" stop-opacity="0"></stop></radialGradient><linearGradient id="paint14_linear_3227_14188" x1="340.704" y1="244.092" x2="340.704" y2="260.908" gradientUnits="userSpaceOnUse"><stop stop-color="#09090A"></stop><stop offset="1" stop-color="#232324"></stop></linearGradient></defs></svg>