<svg xmlns="http://www.w3.org/2000/svg" width="86" height="81" viewBox="0 0 86 81"><g id="Group_5998" data-name="Group 5998" transform="translate(-12287 18307)"><rect id="Rectangle_7620" data-name="Rectangle 7620" width="86" height="81" rx="22" transform="translate(12287 -18307)" fill="#cae2bc" opacity="0.2"></rect><g id="noun-rocket-4525267" transform="translate(12230.617 -18295.943)"><path id="Path_46246" data-name="Path 46246" d="M145.425,8.524A32.669,32.669,0,0,0,112.67,33.063a.859.859,0,0,0,.124.7,5.858,5.858,0,0,0-.916.746c-2.08,2.08-4.926,11.5-5.246,12.567a.859.859,0,0,0,.223.87.887.887,0,0,0,.87.223c1.066-.32,10.493-3.166,12.574-5.246A6.356,6.356,0,0,0,121.05,42a.881.881,0,0,0,.471.157.816.816,0,0,0,.216-.026,32.544,32.544,0,0,0,14.994-8.517,32.791,32.791,0,0,0,9.551-24.231.878.878,0,0,0-.857-.857Zm-26.37,33.154c-1.171,1.171-6.293,3.062-10.244,4.318,1.256-3.951,3.14-9.073,4.318-10.244a4.227,4.227,0,0,1,.929-.7l5.7,5.7a4.09,4.09,0,0,1-.7.929Zm16.433-9.309a30.753,30.753,0,0,1-13.7,7.929l-.353-.353-6.928-6.928a30.676,30.676,0,0,1,18.435-20.535l9.414,9.414a30.8,30.8,0,0,1-6.869,10.473Zm7.517-12.311-8.23-8.236a31.765,31.765,0,0,1,9.76-1.55A32.045,32.045,0,0,1,143,20.058Z" transform="translate(-25.976 0)" fill="#4fa83d"></path><path id="Path_46247" data-name="Path 46247" d="M108.731,271.028l-1.793,1.793a.873.873,0,0,0,0,1.243.889.889,0,0,0,1.243,0l1.793-1.793a.879.879,0,1,0-1.243-1.243Z" transform="translate(-26.053 -242.035)" fill="#4fa83d"></path><path id="Path_46248" data-name="Path 46248" d="M108.18,331.422l1.793-1.793a.879.879,0,1,0-1.243-1.243l-1.793,1.786a.873.873,0,0,0,0,1.243A.862.862,0,0,0,108.18,331.422Z" transform="translate(-26.052 -294.971)" fill="#4fa83d"></path><path id="Path_46249" data-name="Path 46249" d="M257.641,476.675l-1.793,1.793a.879.879,0,0,0,1.243,1.243l1.793-1.793a.873.873,0,0,0,0-1.243A.884.884,0,0,0,257.641,476.675Z" transform="translate(-163.482 -431.83)" fill="#4fa83d"></path><path id="Path_46250" data-name="Path 46250" d="M316.152,476.618a.873.873,0,0,0-1.243,0l-1.793,1.793a.879.879,0,1,0,1.243,1.243l1.793-1.793A.873.873,0,0,0,316.152,476.618Z" transform="translate(-216.335 -431.774)" fill="#4fa83d"></path><path id="Path_46251" data-name="Path 46251" d="M368.115,365.284a.878.878,0,0,0-.975.779,15.092,15.092,0,0,1-4.35,9.041,14.452,14.452,0,0,1-1.25,1.112,16.444,16.444,0,0,0,1.21-5.953.887.887,0,0,0-.863-.9.9.9,0,0,0-.9.863,14.61,14.61,0,0,1-2.532,8.02.88.88,0,0,0,1.119,1.282,17.408,17.408,0,0,0,4.455-3.192,16.823,16.823,0,0,0,4.861-10.088.883.883,0,0,0-.778-.968Z" transform="translate(-258.282 -329.257)" fill="#4fa83d"></path><path id="Path_46252" data-name="Path 46252" d="M88.716,141.258a.874.874,0,0,0-.9-.863,16.451,16.451,0,0,0-5.953,1.21,15.439,15.439,0,0,1,1.112-1.25A15.025,15.025,0,0,1,92.052,136a.879.879,0,1,0-.19-1.747,16.778,16.778,0,0,0-10.126,4.861,16.992,16.992,0,0,0-3.192,4.455.857.857,0,0,0,.209,1.053.933.933,0,0,0,1.073.065,14.673,14.673,0,0,1,8.02-2.538.874.874,0,0,0,.87-.889Z" transform="translate(0 -116.039)" fill="#4fa83d"></path><path id="Path_46253" data-name="Path 46253" d="M356.79,125.146a5.933,5.933,0,1,0,5.933-5.933A5.933,5.933,0,0,0,356.79,125.146Zm10.107,0a4.174,4.174,0,1,1-4.174-4.174A4.177,4.177,0,0,1,366.9,125.146Z" transform="translate(-256.881 -102.165)" fill="#4fa83d"></path></g></g></svg>