<svg xmlns="http://www.w3.org/2000/svg" width="171" height="102" viewBox="0 0 171 102" fill="none"><path d="M120.213 55.4474C124.805 36 112.762 16.5122 93.3146 11.9201C73.8673 7.32804 54.3794 19.3706 49.7873 38.818C45.1953 58.2654 57.2379 77.7533 76.6853 82.3453C96.1326 86.9374 115.62 74.8948 120.213 55.4474Z" fill="url(#paint0_linear_3_741)"></path><g opacity="0.8"><path d="M104.062 47.1111L73.9777 27.3422C74.0215 57.1488 73.9777 42.5154 73.9777 66.8801L104.062 47.1111Z" fill="white"></path></g><rect width="58" height="31" rx="4" fill="url(#paint1_linear_3_741)"></rect><path d="M18.4078 11.9968L14.4178 21.3418H12.2878L16.3078 12.2368H11.1778V10.4368H18.4078V11.9968ZM20.3256 18.9718C21.2856 18.1718 22.0506 17.5068 22.6206 16.9768C23.1906 16.4368 23.6656 15.8768 24.0456 15.2968C24.4256 14.7168 24.6156 14.1468 24.6156 13.5868C24.6156 13.0768 24.4956 12.6768 24.2556 12.3868C24.0156 12.0968 23.6456 11.9518 23.1456 11.9518C22.6456 11.9518 22.2606 12.1218 21.9906 12.4618C21.7206 12.7918 21.5806 13.2468 21.5706 13.8268H19.5306C19.5706 12.6268 19.9256 11.7168 20.5956 11.0968C21.2756 10.4768 22.1356 10.1668 23.1756 10.1668C24.3156 10.1668 25.1906 10.4718 25.8006 11.0818C26.4106 11.6818 26.7156 12.4768 26.7156 13.4668C26.7156 14.2468 26.5056 14.9918 26.0856 15.7018C25.6656 16.4118 25.1856 17.0318 24.6456 17.5618C24.1056 18.0818 23.4006 18.7118 22.5306 19.4518H26.9556V21.1918H19.5456V19.6318L20.3256 18.9718ZM28.2789 15.7318C28.2789 14.0018 28.5889 12.6468 29.2089 11.6668C29.8389 10.6868 30.8789 10.1968 32.3289 10.1968C33.7789 10.1968 34.8139 10.6868 35.4339 11.6668C36.0639 12.6468 36.3789 14.0018 36.3789 15.7318C36.3789 17.4718 36.0639 18.8368 35.4339 19.8268C34.8139 20.8168 33.7789 21.3118 32.3289 21.3118C30.8789 21.3118 29.8389 20.8168 29.2089 19.8268C28.5889 18.8368 28.2789 17.4718 28.2789 15.7318ZM34.3089 15.7318C34.3089 14.9918 34.2589 14.3718 34.1589 13.8718C34.0689 13.3618 33.8789 12.9468 33.5889 12.6268C33.3089 12.3068 32.8889 12.1468 32.3289 12.1468C31.7689 12.1468 31.3439 12.3068 31.0539 12.6268C30.7739 12.9468 30.5839 13.3618 30.4839 13.8718C30.3939 14.3718 30.3489 14.9918 30.3489 15.7318C30.3489 16.4918 30.3939 17.1318 30.4839 17.6518C30.5739 18.1618 30.7639 18.5768 31.0539 18.8968C31.3439 19.2068 31.7689 19.3618 32.3289 19.3618C32.8889 19.3618 33.3139 19.2068 33.6039 18.8968C33.8939 18.5768 34.0839 18.1618 34.1739 17.6518C34.2639 17.1318 34.3089 16.4918 34.3089 15.7318ZM40.3162 14.2318C40.5862 13.8518 40.9562 13.5368 41.4262 13.2868C41.9062 13.0268 42.4512 12.8968 43.0612 12.8968C43.7712 12.8968 44.4112 13.0718 44.9812 13.4218C45.5612 13.7718 46.0162 14.2718 46.3462 14.9218C46.6862 15.5618 46.8562 16.3068 46.8562 17.1568C46.8562 18.0068 46.6862 18.7618 46.3462 19.4218C46.0162 20.0718 45.5612 20.5768 44.9812 20.9368C44.4112 21.2968 43.7712 21.4768 43.0612 21.4768C42.4512 21.4768 41.9112 21.3518 41.4412 21.1018C40.9812 20.8518 40.6062 20.5368 40.3162 20.1568V25.3018H38.2162V13.0318H40.3162V14.2318ZM44.7112 17.1568C44.7112 16.6568 44.6062 16.2268 44.3962 15.8668C44.1962 15.4968 43.9262 15.2168 43.5862 15.0268C43.2562 14.8368 42.8962 14.7418 42.5062 14.7418C42.1262 14.7418 41.7662 14.8418 41.4262 15.0418C41.0962 15.2318 40.8262 15.5118 40.6162 15.8818C40.4162 16.2518 40.3162 16.6868 40.3162 17.1868C40.3162 17.6868 40.4162 18.1218 40.6162 18.4918C40.8262 18.8618 41.0962 19.1468 41.4262 19.3468C41.7662 19.5368 42.1262 19.6318 42.5062 19.6318C42.8962 19.6318 43.2562 19.5318 43.5862 19.3318C43.9262 19.1318 44.1962 18.8468 44.3962 18.4768C44.6062 18.1068 44.7112 17.6668 44.7112 17.1568Z" fill="white"></path><rect x="104.062" y="2.03906" width="45.4697" height="24.3028" rx="4" fill="url(#paint2_linear_3_741)"></rect><path d="M112.827 11.1713V9.65432H115.661V18.2269H113.967V11.1713H112.827ZM117.217 16.5571V15.2636L121.062 9.76015H122.979V15.1224H124.013V16.5571H122.979V18.2269H121.332V16.5571H117.217ZM121.438 11.5241L119.027 15.1224H121.438V11.5241ZM124.991 16.5571V15.2636L128.836 9.76015H130.753V15.1224H131.788V16.5571H130.753V18.2269H129.107V16.5571H124.991ZM129.213 11.5241L126.802 15.1224H129.213V11.5241ZM134.671 12.653C134.882 12.3551 135.172 12.1081 135.541 11.9121C135.917 11.7083 136.344 11.6064 136.823 11.6064C137.379 11.6064 137.881 11.7436 138.328 12.018C138.782 12.2923 139.139 12.6843 139.398 13.1939C139.664 13.6956 139.798 14.2797 139.798 14.9461C139.798 15.6124 139.664 16.2043 139.398 16.7217C139.139 17.2313 138.782 17.6272 138.328 17.9094C137.881 18.1917 137.379 18.3328 136.823 18.3328C136.344 18.3328 135.921 18.2348 135.553 18.0388C135.192 17.8428 134.898 17.5958 134.671 17.2979V21.3314H133.024V11.7122H134.671V12.653ZM138.116 14.9461C138.116 14.5541 138.034 14.217 137.869 13.9347C137.712 13.6447 137.501 13.4252 137.234 13.2762C136.975 13.1273 136.693 13.0528 136.387 13.0528C136.09 13.0528 135.807 13.1312 135.541 13.288C135.282 13.4369 135.07 13.6564 134.906 13.9465C134.749 14.2366 134.671 14.5776 134.671 14.9696C134.671 15.3616 134.749 15.7026 134.906 15.9926C135.07 16.2827 135.282 16.5061 135.541 16.6629C135.807 16.8119 136.09 16.8864 136.387 16.8864C136.693 16.8864 136.975 16.808 137.234 16.6512C137.501 16.4944 137.712 16.2709 137.869 15.9809C138.034 15.6908 138.116 15.3459 138.116 14.9461Z" fill="white"></path><rect x="12.5303" y="62.8555" width="45.4697" height="24.3028" rx="4" fill="url(#paint3_linear_3_741)"></rect><path d="M20.7265 72.7285C20.7657 71.9446 21.0401 71.3409 21.5496 70.9176C22.067 70.4864 22.7452 70.2708 23.584 70.2708C24.1563 70.2708 24.6463 70.3727 25.0539 70.5766C25.4616 70.7725 25.7673 71.043 25.9712 71.388C26.1828 71.7251 26.2887 72.1092 26.2887 72.5404C26.2887 73.0343 26.1593 73.4537 25.9006 73.7986C25.6498 74.1357 25.3479 74.3631 24.9951 74.4807V74.5277C25.4498 74.6688 25.8026 74.9197 26.0535 75.2803C26.3122 75.6409 26.4416 76.1035 26.4416 76.6679C26.4416 77.1383 26.3318 77.5577 26.1123 77.9262C25.9006 78.2947 25.5831 78.5847 25.1598 78.7964C24.7443 79.0002 24.2425 79.1021 23.6546 79.1021C22.7687 79.1021 22.0475 78.8787 21.4908 78.4318C20.9342 77.985 20.6402 77.3265 20.6089 76.4563H22.2082C22.2238 76.8404 22.3532 77.1501 22.5962 77.3853C22.8471 77.6126 23.1881 77.7263 23.6193 77.7263C24.0191 77.7263 24.3249 77.6165 24.5365 77.397C24.756 77.1697 24.8658 76.8796 24.8658 76.5268C24.8658 76.0564 24.7168 75.7193 24.4189 75.5155C24.121 75.3117 23.6585 75.2098 23.0313 75.2098H22.6903V73.8574H23.0313C24.1445 73.8574 24.7012 73.4851 24.7012 72.7403C24.7012 72.4032 24.5992 72.1406 24.3954 71.9524C24.1994 71.7643 23.9133 71.6702 23.537 71.6702C23.1685 71.6702 22.8824 71.7721 22.6785 71.9759C22.4825 72.1719 22.3689 72.4228 22.3375 72.7285H20.7265ZM28.2599 77.1853C29.0125 76.5582 29.6123 76.0368 30.0591 75.6213C30.506 75.198 30.8784 74.759 31.1763 74.3043C31.4742 73.8496 31.6231 73.4027 31.6231 72.9637C31.6231 72.5639 31.5291 72.2503 31.3409 72.023C31.1528 71.7956 30.8627 71.6819 30.4707 71.6819C30.0787 71.6819 29.7769 71.8152 29.5652 72.0818C29.3536 72.3405 29.2438 72.6972 29.236 73.1519H27.6367C27.6681 72.2111 27.9464 71.4977 28.4716 71.0117C29.0047 70.5256 29.6789 70.2826 30.4942 70.2826C31.3879 70.2826 32.0739 70.5217 32.5521 70.9999C33.0303 71.4703 33.2695 72.0935 33.2695 72.8696C33.2695 73.4811 33.1048 74.0652 32.7756 74.6218C32.4463 75.1784 32.07 75.6645 31.6467 76.08C31.2233 76.4876 30.6706 76.9815 29.9886 77.5616H33.4576V78.9257H27.6485V77.7028L28.2599 77.1853ZM34.495 74.6453C34.495 73.2891 34.738 72.2268 35.2241 71.4585C35.718 70.6902 36.5333 70.3061 37.67 70.3061C38.8068 70.3061 39.6182 70.6902 40.1042 71.4585C40.5981 72.2268 40.8451 73.2891 40.8451 74.6453C40.8451 76.0094 40.5981 77.0795 40.1042 77.8556C39.6182 78.6318 38.8068 79.0198 37.67 79.0198C36.5333 79.0198 35.718 78.6318 35.2241 77.8556C34.738 77.0795 34.495 76.0094 34.495 74.6453ZM39.2223 74.6453C39.2223 74.0652 39.1831 73.5791 39.1047 73.1871C39.0341 72.7873 38.8852 72.462 38.6578 72.2111C38.4383 71.9602 38.1091 71.8348 37.67 71.8348C37.231 71.8348 36.8978 71.9602 36.6705 72.2111C36.451 72.462 36.302 72.7873 36.2236 73.1871C36.1531 73.5791 36.1178 74.0652 36.1178 74.6453C36.1178 75.2411 36.1531 75.7429 36.2236 76.1505C36.2942 76.5503 36.4431 76.8757 36.6705 77.1266C36.8978 77.3696 37.231 77.4911 37.67 77.4911C38.1091 77.4911 38.4422 77.3696 38.6696 77.1266C38.8969 76.8757 39.0459 76.5503 39.1165 76.1505C39.187 75.7429 39.2223 75.2411 39.2223 74.6453ZM43.9317 73.4694C44.1434 73.1715 44.4335 72.9245 44.8019 72.7285C45.1782 72.5247 45.6055 72.4228 46.0837 72.4228C46.6403 72.4228 47.1421 72.56 47.5889 72.8344C48.0436 73.1088 48.4003 73.5007 48.659 74.0103C48.9256 74.512 49.0589 75.0961 49.0589 75.7625C49.0589 76.4288 48.9256 77.0207 48.659 77.5381C48.4003 78.0477 48.0436 78.4436 47.5889 78.7258C47.1421 79.0081 46.6403 79.1492 46.0837 79.1492C45.6055 79.1492 45.1822 79.0512 44.8137 78.8552C44.4531 78.6592 44.1591 78.4122 43.9317 78.1143V82.1478H42.2854V72.5286H43.9317V73.4694ZM47.3773 75.7625C47.3773 75.3705 47.2949 75.0334 47.1303 74.7511C46.9735 74.4611 46.7618 74.2416 46.4953 74.0926C46.2366 73.9437 45.9544 73.8692 45.6486 73.8692C45.3507 73.8692 45.0685 73.9476 44.8019 74.1044C44.5432 74.2533 44.3316 74.4728 44.1669 74.7629C44.0101 75.053 43.9317 75.394 43.9317 75.786C43.9317 76.178 44.0101 76.519 44.1669 76.809C44.3316 77.0991 44.5432 77.3225 44.8019 77.4793C45.0685 77.6283 45.3507 77.7028 45.6486 77.7028C45.9544 77.7028 46.2366 77.6244 46.4953 77.4676C46.7618 77.3108 46.9735 77.0874 47.1303 76.7973C47.2949 76.5072 47.3773 76.1623 47.3773 75.7625Z" fill="white"></path><rect x="104.062" y="70.1592" width="66" height="31" rx="4" fill="url(#paint4_linear_3_741)"></rect><path d="M115.304 82.0068V80.0718H118.919V91.0068H116.759V82.0068H115.304ZM120.994 85.3968C120.994 83.6668 121.304 82.3118 121.924 81.3318C122.554 80.3518 123.594 79.8618 125.044 79.8618C126.494 79.8618 127.529 80.3518 128.149 81.3318C128.779 82.3118 129.094 83.6668 129.094 85.3968C129.094 87.1368 128.779 88.5018 128.149 89.4918C127.529 90.4818 126.494 90.9768 125.044 90.9768C123.594 90.9768 122.554 90.4818 121.924 89.4918C121.304 88.5018 120.994 87.1368 120.994 85.3968ZM127.024 85.3968C127.024 84.6568 126.974 84.0368 126.874 83.5368C126.784 83.0268 126.594 82.6118 126.304 82.2918C126.024 81.9718 125.604 81.8118 125.044 81.8118C124.484 81.8118 124.059 81.9718 123.769 82.2918C123.489 82.6118 123.299 83.0268 123.199 83.5368C123.109 84.0368 123.064 84.6568 123.064 85.3968C123.064 86.1568 123.109 86.7968 123.199 87.3168C123.289 87.8268 123.479 88.2418 123.769 88.5618C124.059 88.8718 124.484 89.0268 125.044 89.0268C125.604 89.0268 126.029 88.8718 126.319 88.5618C126.609 88.2418 126.799 87.8268 126.889 87.3168C126.979 86.7968 127.024 86.1568 127.024 85.3968ZM132.521 85.2168C131.521 84.6968 131.021 83.8918 131.021 82.8018C131.021 82.2618 131.156 81.7718 131.426 81.3318C131.706 80.8818 132.121 80.5268 132.671 80.2668C133.231 79.9968 133.911 79.8618 134.711 79.8618C135.511 79.8618 136.186 79.9968 136.736 80.2668C137.296 80.5268 137.711 80.8818 137.981 81.3318C138.261 81.7718 138.401 82.2618 138.401 82.8018C138.401 83.3518 138.266 83.8368 137.996 84.2568C137.726 84.6668 137.366 84.9868 136.916 85.2168C137.466 85.4568 137.896 85.8068 138.206 86.2668C138.516 86.7268 138.671 87.2718 138.671 87.9018C138.671 88.5818 138.496 89.1768 138.146 89.6868C137.806 90.1868 137.336 90.5718 136.736 90.8418C136.136 91.1118 135.461 91.2468 134.711 91.2468C133.961 91.2468 133.286 91.1118 132.686 90.8418C132.096 90.5718 131.626 90.1868 131.276 89.6868C130.936 89.1768 130.766 88.5818 130.766 87.9018C130.766 87.2718 130.921 86.7268 131.231 86.2668C131.541 85.7968 131.971 85.4468 132.521 85.2168ZM136.361 83.1018C136.361 82.6118 136.211 82.2318 135.911 81.9618C135.621 81.6918 135.221 81.5568 134.711 81.5568C134.211 81.5568 133.811 81.6918 133.511 81.9618C133.221 82.2318 133.076 82.6168 133.076 83.1168C133.076 83.5668 133.226 83.9268 133.526 84.1968C133.836 84.4668 134.231 84.6018 134.711 84.6018C135.191 84.6018 135.586 84.4668 135.896 84.1968C136.206 83.9168 136.361 83.5518 136.361 83.1018ZM134.711 86.1318C134.141 86.1318 133.676 86.2768 133.316 86.5668C132.966 86.8568 132.791 87.2718 132.791 87.8118C132.791 88.3118 132.961 88.7218 133.301 89.0418C133.651 89.3518 134.121 89.5068 134.711 89.5068C135.301 89.5068 135.766 89.3468 136.106 89.0268C136.446 88.7068 136.616 88.3018 136.616 87.8118C136.616 87.2818 136.441 86.8718 136.091 86.5818C135.741 86.2818 135.281 86.1318 134.711 86.1318ZM140.33 85.3968C140.33 83.6668 140.64 82.3118 141.26 81.3318C141.89 80.3518 142.93 79.8618 144.38 79.8618C145.83 79.8618 146.865 80.3518 147.485 81.3318C148.115 82.3118 148.43 83.6668 148.43 85.3968C148.43 87.1368 148.115 88.5018 147.485 89.4918C146.865 90.4818 145.83 90.9768 144.38 90.9768C142.93 90.9768 141.89 90.4818 141.26 89.4918C140.64 88.5018 140.33 87.1368 140.33 85.3968ZM146.36 85.3968C146.36 84.6568 146.31 84.0368 146.21 83.5368C146.12 83.0268 145.93 82.6118 145.64 82.2918C145.36 81.9718 144.94 81.8118 144.38 81.8118C143.82 81.8118 143.395 81.9718 143.105 82.2918C142.825 82.6118 142.635 83.0268 142.535 83.5368C142.445 84.0368 142.4 84.6568 142.4 85.3968C142.4 86.1568 142.445 86.7968 142.535 87.3168C142.625 87.8268 142.815 88.2418 143.105 88.5618C143.395 88.8718 143.82 89.0268 144.38 89.0268C144.94 89.0268 145.365 88.8718 145.655 88.5618C145.945 88.2418 146.135 87.8268 146.225 87.3168C146.315 86.7968 146.36 86.1568 146.36 85.3968ZM152.367 83.8968C152.637 83.5168 153.007 83.2018 153.477 82.9518C153.957 82.6918 154.502 82.5618 155.112 82.5618C155.822 82.5618 156.462 82.7368 157.032 83.0868C157.612 83.4368 158.067 83.9368 158.397 84.5868C158.737 85.2268 158.907 85.9718 158.907 86.8218C158.907 87.6718 158.737 88.4268 158.397 89.0868C158.067 89.7368 157.612 90.2418 157.032 90.6018C156.462 90.9618 155.822 91.1418 155.112 91.1418C154.502 91.1418 153.962 91.0168 153.492 90.7668C153.032 90.5168 152.657 90.2018 152.367 89.8218V94.9668H150.267V82.6968H152.367V83.8968ZM156.762 86.8218C156.762 86.3218 156.657 85.8918 156.447 85.5318C156.247 85.1618 155.977 84.8818 155.637 84.6918C155.307 84.5018 154.947 84.4068 154.557 84.4068C154.177 84.4068 153.817 84.5068 153.477 84.7068C153.147 84.8968 152.877 85.1768 152.667 85.5468C152.467 85.9168 152.367 86.3518 152.367 86.8518C152.367 87.3518 152.467 87.7868 152.667 88.1568C152.877 88.5268 153.147 88.8118 153.477 89.0118C153.817 89.2018 154.177 89.2968 154.557 89.2968C154.947 89.2968 155.307 89.1968 155.637 88.9968C155.977 88.7968 156.247 88.5118 156.447 88.1418C156.657 87.7718 156.762 87.3318 156.762 86.8218Z" fill="white"></path><defs><linearGradient id="paint0_linear_3_741" x1="37.1286" y1="9.08731" x2="106.232" y2="124.661" gradientUnits="userSpaceOnUse"><stop stop-color="#4E9523"></stop><stop offset="0.427083" stop-color="#79BE50"></stop><stop offset="0.9963" stop-color="#316314"></stop></linearGradient><linearGradient id="paint1_linear_3_741" x1="28.9995" y1="1.53529" x2="28.9999" y2="32.4989" gradientUnits="userSpaceOnUse"><stop stop-color="#77D340"></stop><stop offset="1" stop-color="#447E21"></stop></linearGradient><linearGradient id="paint2_linear_3_741" x1="126.796" y1="3.24267" x2="126.796" y2="27.5169" gradientUnits="userSpaceOnUse"><stop stop-color="#77D340"></stop><stop offset="1" stop-color="#447E21"></stop></linearGradient><linearGradient id="paint3_linear_3_741" x1="35.2648" y1="64.0591" x2="35.2651" y2="88.3333" gradientUnits="userSpaceOnUse"><stop stop-color="#77D340"></stop><stop offset="1" stop-color="#447E21"></stop></linearGradient><linearGradient id="paint4_linear_3_741" x1="137.061" y1="71.6945" x2="137.061" y2="102.658" gradientUnits="userSpaceOnUse"><stop stop-color="#77D340"></stop><stop offset="1" stop-color="#447E21"></stop></linearGradient></defs></svg>