<svg width="74" height="47" viewBox="0 0 74 47" fill="none" xmlns="http://www.w3.org/2000/svg">
<path d="M42.5758 6.92598H0.0078125V3.40622C0.0078125 1.52485 1.53231 0 3.41325 0H39.1703C41.0513 0 42.5758 1.52485 42.5758 3.40622V6.92598Z" fill="black"/>
<path d="M0.0078125 6.92578H42.5758V33.0401C42.5758 34.9204 41.0501 36.4464 39.1703 36.4464H3.41325C1.53345 36.4464 0.0078125 34.9204 0.0078125 33.0401V6.92578Z" fill="#4FA83D"/>
<path d="M21.2456 17.9453C15.0477 17.9453 8.84985 17.9419 2.65195 17.9544C2.24557 17.9544 2.11276 17.8749 2.1173 17.4378C2.14114 15.0534 2.13546 12.668 2.12184 10.2825C2.11957 9.92254 2.18768 9.78516 2.59293 9.78516C15.058 9.79651 27.523 9.79651 39.9869 9.78743C40.3456 9.78743 40.4591 9.86804 40.4557 10.2439C40.4387 12.6566 40.4364 15.0693 40.4557 17.4821C40.4591 17.884 40.3218 17.9521 39.9608 17.9521C33.722 17.9419 27.4821 17.9453 21.2434 17.9453H21.2456Z" fill="#161617"/>
<path d="M27.0163 26.8957C27.0163 28.8372 27.0083 30.7776 27.0242 32.7192C27.0276 33.0689 26.9595 33.196 26.5736 33.1938C23.0523 33.1779 19.5311 33.1779 16.0099 33.1938C15.633 33.1949 15.5536 33.0814 15.5547 32.7237C15.5672 28.8417 15.5672 24.9598 15.5547 21.0778C15.5547 20.727 15.6217 20.6032 16.0054 20.6055C19.5266 20.6214 23.0478 20.6214 26.569 20.6055C26.9459 20.6044 27.0276 20.7156 27.0242 21.0733C27.0072 23.0137 27.0163 24.9552 27.0163 26.8968V26.8957Z" fill="#CAE2BC"/>
<path d="M13.5447 26.9104C13.5447 28.8519 13.5334 30.7935 13.5538 32.735C13.5572 33.112 13.4437 33.1915 13.0861 33.1903C9.57851 33.1778 6.07091 33.1778 2.56217 33.1903C2.22049 33.1903 2.11606 33.1006 2.1172 32.7509C2.12855 28.8542 2.12855 24.9575 2.1172 21.0608C2.1172 20.7315 2.18303 20.6043 2.54628 20.6055C6.08226 20.6191 9.61711 20.6168 13.1531 20.6066C13.4641 20.6066 13.5515 20.6929 13.5493 21.004C13.5356 22.9728 13.5424 24.9427 13.5424 26.9115L13.5447 26.9104Z" fill="#CAE2BC"/>
<path d="M29.0303 26.8712C29.0303 24.916 29.0371 22.9608 29.0235 21.0068C29.0212 20.6968 29.1029 20.6083 29.4162 20.6094C32.9647 20.6207 36.5143 20.6207 40.0628 20.6094C40.3886 20.6094 40.451 20.7218 40.451 21.0181C40.4431 24.9421 40.4419 28.8661 40.451 32.7889C40.451 33.1011 40.359 33.1863 40.0514 33.1852C36.503 33.1749 32.9534 33.1738 29.4049 33.1863C29.0734 33.1874 29.0223 33.0682 29.0246 32.7764C29.036 30.8076 29.0303 28.8388 29.0303 26.87V26.8712Z" fill="#161617"/>
<path d="M30.1952 5.26139C26.9225 5.26139 23.6499 5.25572 20.3773 5.26934C20.0265 5.27048 19.9368 5.17169 19.9459 4.82994C19.9698 3.92956 19.9698 3.02691 19.9459 2.1254C19.9368 1.79272 20.0413 1.71211 20.3637 1.71325C24.0665 1.72346 27.7682 1.72006 31.4711 1.72006C34.3135 1.72006 37.157 1.72801 39.9994 1.71097C40.3706 1.7087 40.4682 1.80976 40.4569 2.17422C40.4296 3.06097 40.4308 3.95 40.4569 4.83675C40.4671 5.191 40.3524 5.27048 40.013 5.26934C36.7404 5.25685 33.4678 5.26139 30.1952 5.26139Z" fill="#CADFBD"/>
<path d="M7.8047 3.47842C7.80925 2.38843 8.70828 1.49713 9.79689 1.50395C10.8775 1.50962 11.7868 2.42703 11.7754 3.5034C11.7652 4.58544 10.8458 5.49376 9.77305 5.48355C8.68671 5.47219 7.80016 4.56954 7.8047 3.47955V3.47842Z" fill="#93E080"/>
<path d="M6.0681 3.49904C6.11124 4.49706 5.2928 5.45194 4.09635 5.47238C3.01229 5.49054 2.14617 4.572 2.14844 3.47406C2.15071 2.37385 3.03613 1.48596 4.12019 1.49618C5.21334 1.5064 6.06924 2.38748 6.06696 3.49904H6.0681Z" fill="#4FA83D"/>
<path d="M16.2351 3.48707C16.1681 3.411 16.1182 3.34741 16.0626 3.29064C15.848 3.07492 15.6323 2.86032 15.4167 2.64573C15.2748 2.50494 15.1976 2.33463 15.3463 2.17113C15.5029 1.99742 15.6641 2.08484 15.814 2.21996C16.108 2.48564 16.3475 2.9943 16.6823 2.97727C16.9741 2.96251 17.2454 2.49699 17.5224 2.22904C17.6642 2.09165 17.8232 1.99514 17.9889 2.16432C18.1467 2.32668 18.074 2.49472 17.9333 2.63665C17.7187 2.85238 17.5133 3.07832 17.284 3.27815C17.0967 3.44165 17.1228 3.55406 17.2931 3.7062C17.5099 3.89922 17.7062 4.11381 17.9117 4.31932C18.0627 4.47033 18.1603 4.64291 17.9787 4.82117C17.8073 4.98921 17.6506 4.87454 17.5133 4.73942C17.3078 4.53391 17.0899 4.33976 16.9003 4.12063C16.7402 3.93669 16.6256 3.90149 16.4519 4.11041C16.2669 4.33295 16.0455 4.52483 15.8389 4.7292C15.705 4.86091 15.5551 4.99262 15.3747 4.82912C15.1851 4.65881 15.2702 4.48169 15.4212 4.32841C15.6346 4.11154 15.8526 3.89809 16.066 3.68236C16.1227 3.62559 16.1715 3.56201 16.2362 3.4882L16.2351 3.48707Z" fill="#CADFBD"/>
<path d="M60.7573 43.967C56.9614 43.967 53.1655 43.975 49.3696 43.9568C48.8928 43.9546 48.6567 44.0897 48.4739 44.5518C47.8757 46.0641 46.4432 47.0054 44.8539 47.0077C43.2602 47.0099 41.7959 46.071 41.2192 44.5745C41.0262 44.0738 40.772 43.9523 40.2816 43.9534C32.7715 43.967 25.2613 43.9659 17.7501 43.967C16.5752 43.967 16.2982 43.7048 16.3595 42.5183C16.96 30.9031 22.428 22.4079 32.835 17.2396C37.7536 14.7973 43.0581 14.0389 48.4989 14.8348C59.0319 16.3767 66.4966 22.1014 70.9555 31.7353C72.5685 35.221 73.2269 38.9474 73.3223 42.776C73.3438 43.6173 73.001 43.9557 72.144 43.9568C68.3481 43.9602 64.5521 43.958 60.7562 43.958V43.9659L60.7573 43.967ZM49.9019 42.0811C50.1097 42.1175 50.2221 42.1549 50.3356 42.1549C54.396 42.1595 58.4564 42.1572 62.5157 42.1663C62.8891 42.1663 63.0435 42.03 62.9936 41.6599C62.9005 40.9741 62.8471 40.2815 62.7155 39.6037C60.9015 30.24 52.0916 23.8306 42.6291 24.9819C35.2472 25.88 28.9994 31.3697 27.2126 38.5705C26.9311 39.7047 26.8017 40.8765 26.5895 42.1107C27.0072 42.13 27.2649 42.1515 27.5237 42.1515C31.6863 42.1549 35.8477 42.1402 40.0103 42.1708C40.6812 42.1754 41.0069 41.9937 41.3361 41.3624C41.6858 40.6925 42.3498 40.1827 42.9026 39.6275C43.0843 39.4447 43.3556 39.3562 43.5701 39.2017C46.0004 37.4453 48.4274 35.6854 50.8555 33.9266C51.9793 33.1126 53.1042 32.303 54.228 31.4889C54.6378 31.1926 55.0669 31.1358 55.4585 31.4753C55.8762 31.8386 55.8581 32.2917 55.5924 32.7481C55.5311 32.8537 55.4653 32.957 55.4017 33.0615C53.6945 35.8421 51.9861 38.6215 50.2811 41.4033C50.1585 41.6031 50.0529 41.812 49.9031 42.0811H49.9019ZM64.2854 24.9047C62.7893 26.4057 61.3556 27.8522 59.9105 29.2874C59.6177 29.578 59.8492 29.737 60.0013 29.9504C60.771 31.0257 61.6132 32.06 62.2773 33.1977C63.7439 35.7092 64.5771 38.4387 64.7916 41.3499C64.8518 42.1629 64.862 42.1629 65.7066 42.164C67.3173 42.1652 68.927 42.1652 70.5378 42.1652C71.1772 42.1652 71.4727 41.8522 71.4243 41.2262C71.0962 37.1705 69.9759 33.3567 67.9371 29.8244C66.9257 28.0725 65.7463 26.4477 64.2865 24.9047H64.2854ZM25.3487 24.991C25.275 25.058 25.1921 25.1159 25.1297 25.192C24.5587 25.8846 23.9593 26.5567 23.4269 27.2777C20.3416 31.4515 18.6559 36.1464 18.2654 41.3147C18.203 42.1413 18.2109 42.1436 19.0146 42.1447C20.6265 42.147 22.2384 42.1459 23.8503 42.147C24.8073 42.147 24.8039 42.147 24.8879 41.2035C25.2602 37.0127 26.8369 33.3249 29.5283 30.1037C29.6793 29.9232 29.8235 29.7359 29.9461 29.5814C28.3932 28.0316 26.8937 26.534 25.3465 24.991H25.3487ZM45.8699 16.4516C45.829 16.5788 45.795 16.6344 45.795 16.69C45.7904 18.6679 45.795 20.6469 45.7814 22.6248C45.7791 23.0086 45.988 23.0381 46.2831 23.0597C50.6704 23.3787 54.5299 24.9853 57.8843 27.8238C58.0341 27.951 58.1942 28.0679 58.3486 28.1894C58.3168 28.1315 58.285 28.0736 58.2532 28.0157C59.7709 26.4977 61.2897 24.9808 62.8381 23.4332C58.0614 19.1323 52.4083 16.7423 45.8699 16.4505V16.4516ZM26.7552 23.5331C28.3342 25.0932 29.8541 26.5953 31.4036 28.127C31.4683 28.0793 31.6023 27.9896 31.7237 27.8851C35.1008 24.9967 39.0011 23.3742 43.435 23.0631C43.8232 23.0358 43.9027 22.8735 43.9016 22.5294C43.8902 20.631 43.897 18.7326 43.8925 16.8342C43.8925 16.7196 43.8505 16.606 43.8198 16.4482C37.2655 16.7604 31.6159 19.1425 26.7552 23.5331ZM44.8369 45.1354C46.0107 45.132 46.9494 44.21 46.9472 43.0621C46.9449 41.9063 46.0129 40.9832 44.8449 40.9798C43.6768 40.9764 42.7426 41.8961 42.7369 43.0553C42.7312 44.2078 43.6711 45.1388 44.8369 45.1354ZM46.5385 39.3414C47.1674 39.9114 47.7452 40.4359 48.3604 40.9923C49.3809 39.33 50.3957 37.6746 51.4117 36.0203C51.3697 35.9829 51.3277 35.9443 51.2845 35.9068C49.6976 37.0547 48.1118 38.2026 46.5385 39.3414Z" fill="#4FA83D"/>
<path d="M64.2823 24.9023C65.7421 26.4454 66.9215 28.0713 67.9329 29.8221C69.9716 33.3543 71.092 37.1681 71.4201 41.2238C71.4708 41.849 71.1753 42.162 70.5335 42.1628C68.9228 42.1628 67.3131 42.1628 65.7024 42.1617C64.8589 42.1617 64.8476 42.1617 64.7874 41.3476C64.574 38.4364 63.7397 35.7069 62.2731 33.1954C61.609 32.0577 60.7667 31.0233 59.9971 29.9481C59.845 29.7346 59.6134 29.5757 59.9063 29.285C61.3513 27.8499 62.785 26.4034 64.2812 24.9023H64.2823Z" fill="#CAE2BC"/>
<path d="M25.3542 24.9922C26.9003 26.5352 28.3998 28.0328 29.9538 29.5826C29.8312 29.7371 29.6871 29.9233 29.5361 30.1049C26.8447 33.3261 25.2668 37.0127 24.8956 41.2047C24.8116 42.1471 24.815 42.1482 23.8581 42.1482C22.2462 42.1482 20.6343 42.1482 19.0224 42.1459C18.2198 42.1459 18.2108 42.1414 18.2732 41.3159C18.6637 36.1476 20.3494 31.4538 23.4347 27.2789C23.9671 26.5579 24.5664 25.8858 25.1374 25.1932C25.1998 25.1171 25.2827 25.0592 25.3565 24.9922H25.3542Z" fill="#CADFBD"/>
<path d="M45.8698 16.4492C52.4071 16.7399 58.0613 19.131 62.838 23.432C61.2896 24.9795 59.7719 26.4964 58.2531 28.0145C58.2849 28.0724 58.3167 28.1303 58.3485 28.1882C58.193 28.0667 58.034 27.9498 57.8842 27.8226C54.5298 24.9829 50.6703 23.3775 46.283 23.0584C45.9879 23.0368 45.779 23.0073 45.7813 22.6236C45.7949 20.6457 45.7904 18.6667 45.7949 16.6888C45.7949 16.6332 45.8289 16.5764 45.8698 16.4504V16.4492Z" fill="#CAE2BC"/>
<path d="M26.7578 23.5342C31.6185 19.1435 37.2681 16.7615 43.8225 16.4492C43.8531 16.607 43.8951 16.7217 43.8951 16.8353C43.8996 18.7337 43.8928 20.6321 43.9042 22.5305C43.9065 22.8745 43.8259 23.0368 43.4376 23.0641C39.0026 23.3752 35.1034 24.9977 31.7263 27.8862C31.6049 27.9906 31.4698 28.0792 31.4062 28.128C29.8568 26.5963 28.3357 25.0942 26.7578 23.5342Z" fill="#CAE2BC"/>
<path d="M44.8422 45.1361C43.6764 45.1395 42.7365 44.2084 42.7422 43.056C42.7479 41.8968 43.6821 40.9771 44.8502 40.9805C46.0182 40.9839 46.9502 41.9081 46.9525 43.0628C46.9547 44.2107 46.016 45.1327 44.8422 45.1361Z" fill="#4FA83D"/>
<path d="M46.5312 39.3409C48.1046 38.202 49.6904 37.0541 51.2773 35.9062C51.3193 35.9437 51.3613 35.9823 51.4044 36.0198C50.3896 37.6741 49.3737 39.3295 48.3532 40.9917C47.7379 40.4342 47.1601 39.9108 46.5312 39.3409Z" fill="#4FA83D"/>
</svg>
