<svg xmlns="http://www.w3.org/2000/svg" width="648" height="330" viewBox="0 0 648 330" fill="none">
<path d="M76.8422 286.583L52.8805 262.568L215.176 100.568H305.749L329.549 125.875L409.062 205.254L539.997 74.0366L564.012 97.9982L409.116 253.164L305.022 149.312L291.084 134.512H229.196L76.8422 286.583Z" fill="#59A52C"/>
<path d="M259.749 149.042C292.689 149.042 319.391 122.34 319.391 89.4007C319.391 56.4615 292.689 29.759 259.749 29.759C226.81 29.759 200.108 56.4615 200.108 89.4007C200.108 122.34 226.81 149.042 259.749 149.042Z" fill="#CAE1BC"/>
<path d="M409.091 298.249C442.03 298.249 468.732 271.546 468.732 238.607C468.732 205.668 442.03 178.966 409.091 178.966C376.151 178.966 349.449 205.668 349.449 238.607C349.449 271.546 376.151 298.249 409.091 298.249Z" fill="#CAE1BC"/>
<path d="M588.056 119.283C620.995 119.283 647.698 92.5809 647.698 59.6417C647.698 26.7025 620.995 0 588.056 0C555.117 0 528.414 26.7025 528.414 59.6417C528.414 92.5809 555.117 119.283 588.056 119.283Z" fill="#CAE1BC"/>
<path d="M129.796 271.453C137.364 239.395 117.511 207.272 85.4528 199.703C53.3948 192.135 21.2715 211.988 13.7033 244.046C6.13519 276.104 25.9881 308.227 58.0461 315.796C90.1041 323.364 122.227 303.511 129.796 271.453Z" fill="#CAE1BC"/>
</svg>