<svg xmlns="http://www.w3.org/2000/svg" width="72" height="72" viewBox="0 0 72 72"><g id="Analytics" transform="translate(3664 -7892)"><circle id="Ellipse_2130" data-name="Ellipse 2130" cx="36" cy="36" r="36" transform="translate(-3664 7892)" fill="#17181a"></circle><g id="Group_44522" data-name="Group 44522" transform="translate(-3661.095 7917)"><path id="Path_54900" data-name="Path 54900" d="M54.444,87.9l-1.563-1.567L63.467,75.767h5.908l1.552,1.651L76.115,82.6l8.541-8.559L86.222,75.6l-10.1,10.122-6.79-6.774-.909-.965H64.382Z" transform="translate(-38.126 -69.207)" fill="#59a52c"></path><path id="Path_54901" data-name="Path 54901" d="M204,37.54a3.89,3.89,0,1,0-3.89-3.89A3.89,3.89,0,0,0,204,37.54Z" transform="translate(-175.749 -27.818)" fill="#cae1bc"></path><path id="Path_54902" data-name="Path 54902" d="M353.34,186.746a3.891,3.891,0,1,0-3.89-3.891A3.89,3.89,0,0,0,353.34,186.746Z" transform="translate(-315.349 -167.291)" fill="#cae1bc"></path><path id="Path_54903" data-name="Path 54903" d="M532.3,7.781a3.89,3.89,0,1,0-3.89-3.89A3.891,3.891,0,0,0,532.3,7.781Z" transform="translate(-482.64 0)" fill="#cae1bc"></path><path id="Path_54904" data-name="Path 54904" d="M19.772,202.879a3.891,3.891,0,1,0-4.68,2.893A3.891,3.891,0,0,0,19.772,202.879Z" transform="translate(0 -185.172)" fill="#cae1bc"></path></g></g></svg>