<svg xmlns="http://www.w3.org/2000/svg" width="257.558" height="257.558" viewBox="0 0 257.558 257.558"><g id="world" transform="translate(-852.368 -631.368)" opacity="0.08"><g id="Group_4219" data-name="Group 4219" transform="translate(853.868 632.868)"><g id="Group_4218" data-name="Group 4218" transform="translate(0 0)"><path id="Path_21272" data-name="Path 21272" d="M193.279,66C127.76,66,66,118.041,66,193.279c0,69.689,56.6,127.279,127.279,127.279S320.558,263,320.558,193.279C320.558,123.59,263.953,66,193.279,66ZM79.4,193.279a113.489,113.489,0,0,1,5.03-33.494l44.145-.007a246.952,246.952,0,0,0,0,67H84.427A113.488,113.488,0,0,1,79.4,193.279Zm60.29,0a226.035,226.035,0,0,1,2.466-33.494H186.58v66.989H142.154A226.035,226.035,0,0,1,139.688,193.279Zm102.245-46.892H199.978V80.328C218.413,85.467,234.258,111.443,241.933,146.387ZM186.58,80.328v66.059H144.625C152.3,111.443,168.145,85.467,186.58,80.328Zm0,159.843V306.23c-18.435-5.14-34.28-31.115-41.955-66.058Zm13.4,66.058V240.165l41.955.007C234.258,275.115,218.413,301.09,199.978,306.23Zm0-79.456V159.785H244.4a228.718,228.718,0,0,1,0,66.989Zm58.008-66.989H302.13a114.041,114.041,0,0,1,0,66.989H257.986a246.91,246.91,0,0,0,0-66.989Zm39.067-13.4H255.69c-4.334-21.254-12.711-44.743-26.556-61.2A114.478,114.478,0,0,1,297.052,146.387Zm-139.628-61.2c-13.843,16.456-22.221,39.942-26.556,61.2H89.505A114.482,114.482,0,0,1,157.424,85.186ZM89.506,240.171h41.362c4.334,21.254,12.711,44.743,26.557,61.2A114.478,114.478,0,0,1,89.506,240.171Zm139.629,61.2c13.849-16.463,22.224-39.956,26.556-61.208h41.362A114.472,114.472,0,0,1,229.134,301.372Z" transform="translate(-66 -66)" fill="#fff" stroke="#1b1c1f" stroke-linejoin="round" stroke-width="3"/></g></g></g></svg>