<svg xmlns="http://www.w3.org/2000/svg" width="75" height="75" viewBox="0 0 75 75" fill="none"><rect width="75" height="75" fill="#323232"></rect><g clip-path="url(#clip0_104_56)"><rect width="1440" height="9463" transform="translate(-89 -2848)" fill="#0D0E10"></rect><g clip-path="url(#clip1_104_56)"><rect width="1438" height="558" transform="translate(-88 -4)" fill="#0D0E10"></rect><g opacity="0.7" filter="url(#filter0_f_104_56)"><path d="M-90.0035 -11.8258L-90.0034 555.926C-90.0034 555.926 173.296 436.436 189.997 250.5C204.628 87.6092 -82.8119 -7.25696 -90.0035 -11.8258L-90.0035 -11.9988C-90.188 -11.9988 -90.1848 -11.941 -90.0035 -11.8258Z" fill="#0D0E10"></path></g></g><rect width="74.8441" height="74.8441" rx="37.422" fill="url(#paint0_linear_104_56)" fill-opacity="0.7"></rect><path d="M36.5563 36.5604C45.8813 36.5604 53.4407 32.437 53.4407 27.3505C53.4407 22.264 45.8813 18.1406 36.5563 18.1406C27.2313 18.1406 19.6719 22.264 19.6719 27.3505C19.6719 32.437 27.2313 36.5604 36.5563 36.5604Z" stroke="#C8C8C8" stroke-width="2.00135" stroke-linecap="round" stroke-linejoin="round"></path><path d="M19.6719 27.3516V36.5615C19.6719 41.6461 27.2315 45.7714 36.5563 45.7714C45.8811 45.7714 53.4407 41.6461 53.4407 36.5615V27.3516" stroke="#C8C8C8" stroke-width="2.00135" stroke-linecap="round" stroke-linejoin="round"></path><path d="M19.6719 36.5586V45.7685C19.6719 50.8531 27.2315 54.9784 36.5563 54.9784C45.8811 54.9784 53.4407 50.8531 53.4407 45.7685V36.5586" stroke="#C8C8C8" stroke-width="2.00135" stroke-linecap="round" stroke-linejoin="round"></path><path d="M45.5156 46.4377V41.1159C45.5156 40.9236 45.592 40.7391 45.7281 40.6031C45.8641 40.467 46.0485 40.3906 46.2409 40.3906H60.7462C60.9385 40.3906 61.123 40.467 61.259 40.6031C61.395 40.7391 61.4714 40.9236 61.4714 41.1159V46.4377C61.4714 54.0532 55.0075 56.5736 53.7202 56.9997C53.5739 57.0538 53.4131 57.0538 53.2669 56.9997C51.9795 56.5736 45.5156 54.0532 45.5156 46.4377Z" fill="#C8C8C8"></path></g><defs><filter id="filter0_f_104_56" x="-121.141" y="-43" width="342.68" height="629.926" color-interpolation-filters="sRGB"><feGaussianBlur stdDeviation="15.5"></feGaussianBlur></filter><linearGradient id="paint0_linear_104_56" x1="30.1016" y1="32.1836" x2="54.6025" y2="74.6836" gradientUnits="userSpaceOnUse"><stop stop-color="#56B743"></stop><stop offset="1" stop-color="#083100"></stop></linearGradient><clipPath id="clip0_104_56"><rect width="1440" height="9463" fill="white" transform="translate(-89 -2848)"></rect></clipPath><clipPath id="clip1_104_56"><rect width="1438" height="558" fill="white" transform="translate(-88 -4)"></rect></clipPath></defs></svg>