<svg xmlns="http://www.w3.org/2000/svg" width="75" height="75" viewBox="0 0 75 75" fill="none"><rect width="75" height="75" rx="37.5" fill="url(#paint0_linear_2520_17355)" fill-opacity="0.7"></rect><path d="M57.6387 24.318H56.6501C56.5958 23.7141 56.4376 23.124 56.1826 22.5739L57.039 22.0792C57.15 22.0152 57.231 21.9096 57.2642 21.7858C57.2974 21.662 57.28 21.5301 57.216 21.4191C57.1519 21.3081 57.0464 21.2271 56.9226 21.194C56.7988 21.1608 56.6669 21.1781 56.5559 21.2422L55.6983 21.7374C55.3479 21.2427 54.9163 20.811 54.4216 20.4607L54.9168 19.6031C54.9809 19.4921 54.9982 19.3602 54.965 19.2364C54.9318 19.1126 54.8508 19.0071 54.7398 18.943C54.6288 18.8789 54.4969 18.8616 54.3731 18.8948C54.2494 18.928 54.1438 19.009 54.0797 19.12L53.5851 19.9763C53.035 19.7214 52.4449 19.5632 51.841 19.5089V18.5203C51.841 18.3921 51.7901 18.2692 51.6994 18.1786C51.6088 18.088 51.486 18.0371 51.3578 18.0371C51.2297 18.0371 51.1068 18.088 51.0162 18.1786C50.9256 18.2692 50.8747 18.3921 50.8747 18.5203V19.5089C50.2707 19.5632 49.6807 19.7214 49.1305 19.9763L48.6359 19.12C48.6042 19.065 48.5619 19.0168 48.5116 18.9782C48.4612 18.9396 48.4038 18.9112 48.3425 18.8948C48.2812 18.8783 48.2173 18.8741 48.1543 18.8824C48.0914 18.8907 48.0307 18.9113 47.9758 18.943C47.8648 19.0071 47.7838 19.1126 47.7506 19.2364C47.7174 19.3602 47.7348 19.4921 47.7988 19.6031L48.2941 20.4607C47.7994 20.811 47.3677 21.2427 47.0173 21.7374L46.1598 21.2422C46.0488 21.1781 45.9168 21.1608 45.7931 21.194C45.6693 21.2271 45.5637 21.3081 45.4997 21.4191C45.4356 21.5301 45.4182 21.662 45.4514 21.7858C45.4846 21.9096 45.5656 22.0152 45.6766 22.0792L46.533 22.5739C46.278 23.124 46.1199 23.7141 46.0655 24.318H45.0769C44.9488 24.318 44.8259 24.3689 44.7353 24.4595C44.6447 24.5501 44.5938 24.673 44.5938 24.8012C44.5938 24.9293 44.6447 25.0522 44.7353 25.1428C44.8259 25.2334 44.9488 25.2843 45.0769 25.2843H46.0655C46.1199 25.8883 46.278 26.4783 46.533 27.0285L45.6766 27.5231C45.5844 27.5763 45.5124 27.6583 45.4717 27.7566C45.4309 27.8549 45.4238 27.9639 45.4513 28.0667C45.4788 28.1694 45.5395 28.2602 45.6239 28.325C45.7084 28.3897 45.8118 28.4248 45.9182 28.4248C46.003 28.425 46.0864 28.4027 46.1598 28.3602L47.0173 27.8649C47.3677 28.3596 47.7994 28.7913 48.2941 29.1416L47.7988 29.9992C47.7348 30.1102 47.7174 30.2421 47.7506 30.3659C47.7838 30.4897 47.8648 30.5953 47.9758 30.6593C48.0868 30.7234 48.2187 30.7408 48.3425 30.7076C48.4663 30.6744 48.5718 30.5934 48.6359 30.4824L49.1305 29.626C49.6807 29.881 50.2707 30.0391 50.8747 30.0934V31.0821C50.8747 31.2102 50.9256 31.3331 51.0162 31.4237C51.1068 31.5143 51.2297 31.5652 51.3578 31.5652C51.486 31.5652 51.6088 31.5143 51.6994 31.4237C51.7901 31.3331 51.841 31.2102 51.841 31.0821V30.0934C52.4449 30.0391 53.035 29.881 53.5851 29.626L54.0797 30.4824C54.1438 30.5934 54.2494 30.6744 54.3731 30.7076C54.4969 30.7408 54.6288 30.7234 54.7398 30.6593C54.8508 30.5953 54.9318 30.4897 54.965 30.3659C54.9982 30.2421 54.9809 30.1102 54.9168 29.9992L54.4216 29.1416C54.9163 28.7913 55.3479 28.3596 55.6983 27.8649L56.5559 28.3602C56.6108 28.3919 56.6715 28.4125 56.7344 28.4208C56.7973 28.4291 56.8613 28.4249 56.9226 28.4084C56.9839 28.392 57.0413 28.3636 57.0917 28.325C57.142 28.2864 57.1843 28.2382 57.216 28.1832C57.2801 28.0723 57.2976 27.9404 57.2645 27.8166C57.2314 27.6928 57.1505 27.5873 57.0396 27.5231L56.1832 27.0285C56.438 26.4783 56.596 25.8882 56.6501 25.2843H57.6387C57.7669 25.2843 57.8898 25.2334 57.9804 25.1428C58.071 25.0522 58.1219 24.9293 58.1219 24.8012C58.1219 24.673 58.071 24.5501 57.9804 24.4595C57.8898 24.3689 57.7669 24.318 57.6387 24.318ZM51.3578 20.4528C52.427 20.4541 53.4582 20.8488 54.2551 21.5616C55.0519 22.2745 55.5585 23.2556 55.6784 24.318H51.6368L49.6161 20.8182C50.165 20.577 50.7582 20.4525 51.3578 20.4528ZM47.0095 24.8012C47.0099 24.12 47.1702 23.4485 47.4777 22.8407C47.7852 22.2329 48.2311 21.7058 48.7796 21.302L50.7998 24.8012L48.7796 28.3004C48.2311 27.8965 47.7852 27.3694 47.4777 26.7616C47.1702 26.1538 47.0099 25.4823 47.0095 24.8012ZM51.3578 29.1495C50.7584 29.1508 50.1652 29.0274 49.6161 28.7871L51.6368 25.2843H55.6784C55.5585 26.3467 55.0519 27.3279 54.2551 28.0407C53.4582 28.7536 52.427 29.1482 51.3578 29.1495Z" fill="#DDDDDD"></path><path fill-rule="evenodd" clip-rule="evenodd" d="M44.5018 19.54H20.5445C19.3486 19.54 18.2016 20.0151 17.3559 20.8608C16.5102 21.7065 16.0352 22.8535 16.0352 24.0494V45.0932C16.0352 46.2891 16.5102 47.4361 17.3559 48.2818C18.2016 49.1274 19.3486 49.6025 20.5445 49.6025H34.0727V52.6088H29.5633C29.1646 52.6088 28.7823 52.7672 28.5004 53.049C28.2185 53.3309 28.0602 53.7133 28.0602 54.1119C28.0602 54.5106 28.2185 54.8929 28.5004 55.1748C28.7823 55.4567 29.1646 55.615 29.5633 55.615H41.5883C41.9869 55.615 42.3693 55.4567 42.6512 55.1748C42.933 54.8929 43.0914 54.5106 43.0914 54.1119C43.0914 53.7133 42.933 53.3309 42.6512 53.049C42.3693 52.7672 41.9869 52.6088 41.5883 52.6088H37.0789V49.6025H50.607C51.803 49.6025 52.95 49.1274 53.7956 48.2818C54.6413 47.4361 55.1164 46.2891 55.1164 45.0932V32.9994H52.1102V39.0807H19.0414V24.0494C19.0414 23.6508 19.1998 23.2684 19.4817 22.9865C19.7636 22.7047 20.1459 22.5463 20.5445 22.5463H44.5018V19.54ZM20.5445 46.5963H50.607C51.0057 46.5963 51.388 46.4379 51.6699 46.156C51.9518 45.8741 52.1102 45.4918 52.1102 45.0932V42.0869H19.0414V45.0932C19.0414 45.4918 19.1998 45.8741 19.4817 46.156C19.7636 46.4379 20.1459 46.5963 20.5445 46.5963Z" fill="#DDDDDD"></path><path d="M26.4067 28.6331L23.9897 36H22.0427L25.3447 27.1133H26.5837L26.4067 28.6331ZM28.4148 36L25.9917 28.6331L25.7964 27.1133H27.0476L30.3679 36H28.4148ZM28.3049 32.6919V34.1262H23.6113V32.6919H28.3049ZM34.6526 32.8323H32.3882V31.4041H34.6526C35.0025 31.4041 35.2874 31.3471 35.5071 31.2332C35.7268 31.1152 35.8875 30.9524 35.9893 30.7449C36.091 30.5374 36.1418 30.3034 36.1418 30.043C36.1418 29.7785 36.091 29.5323 35.9893 29.3044C35.8875 29.0766 35.7268 28.8935 35.5071 28.7551C35.2874 28.6168 35.0025 28.5476 34.6526 28.5476H33.0229V36H31.1919V27.1133H34.6526C35.3484 27.1133 35.9445 27.2394 36.4409 27.4917C36.9414 27.7399 37.3239 28.0837 37.5884 28.5232C37.8529 28.9626 37.9851 29.4652 37.9851 30.0308C37.9851 30.6045 37.8529 31.1009 37.5884 31.52C37.3239 31.9391 36.9414 32.2626 36.4409 32.4905C35.9445 32.7183 35.3484 32.8323 34.6526 32.8323ZM41.1956 27.1133V36H39.3706V27.1133H41.1956Z" fill="#DDDDDD"></path><defs><linearGradient id="paint0_linear_2520_17355" x1="30.1643" y1="32.2506" x2="54.7163" y2="74.8392" gradientUnits="userSpaceOnUse"><stop stop-color="#56B743"></stop><stop offset="1" stop-color="#083100"></stop></linearGradient></defs></svg>