<svg xmlns="http://www.w3.org/2000/svg" width="63" height="63" viewBox="0 0 63 63" fill="none"><rect width="62.37" height="62.37" rx="31.185" fill="url(#paint0_linear_2048_15623)" fill-opacity="0.7"></rect><path d="M29.5724 27.3274C29.4306 27.3924 29.2699 27.4667 29.2179 27.4853C28.8398 27.6431 28.6601 27.7081 28.4144 27.7824C28.2584 27.8288 28.0551 27.8938 27.9653 27.9263C27.5872 28.061 26.0793 28.4324 25.9375 28.4277C25.895 28.4277 25.7295 28.4556 25.5736 28.4881C25.4128 28.5252 25.2001 28.5577 25.1009 28.567C24.9969 28.5763 24.6991 28.6134 24.4344 28.6459C23.8719 28.7156 23.9097 28.6552 23.9995 29.3423C24.0279 29.5606 24.0563 29.8298 24.0657 29.9459C24.0894 30.1966 24.1981 30.6934 24.3541 31.2923C24.4202 31.5337 24.4911 31.8169 24.5195 31.919C24.5478 32.0212 24.5857 32.1233 24.614 32.1465C24.6377 32.1744 24.6566 32.2301 24.6566 32.2765C24.6566 32.3183 24.6897 32.4344 24.7322 32.5319C24.7747 32.6294 24.8362 32.7686 24.8693 32.8476C24.9024 32.9218 24.9638 33.0704 25.0111 33.1726C25.2191 33.66 25.7295 34.5979 25.8004 34.6257C25.8194 34.635 25.8383 34.6628 25.8383 34.6907C25.8383 34.7418 26.2542 35.3732 26.3346 35.4475C26.3629 35.4707 26.4575 35.596 26.5473 35.7214C26.7174 35.9721 27.833 37.207 27.9369 37.2674C27.97 37.286 28.178 37.4624 28.3954 37.6574C28.7925 38.0149 29.2085 38.3352 29.6386 38.6184L29.8702 38.7716L30.1113 38.6091C32.158 37.221 33.8123 35.2618 34.7435 33.1261C34.8428 32.894 34.942 32.6665 34.9657 32.6154C34.9893 32.5644 35.0177 32.4808 35.0271 32.4297C35.0366 32.3787 35.0791 32.2626 35.1169 32.1744C35.3958 31.529 35.7645 29.723 35.7645 29.0081V28.7063L35.3296 28.6459C35.0886 28.6134 34.7955 28.581 34.6773 28.5717C34.4788 28.5531 34.2377 28.5113 33.4011 28.3395C32.8812 28.2328 32.0587 28.0285 31.8176 27.9449C31.742 27.917 31.6144 27.8799 31.534 27.8567C31.4584 27.8335 31.2741 27.7731 31.1323 27.7174C30.9904 27.6617 30.8203 27.6013 30.7541 27.5781C30.6879 27.5596 30.4989 27.4806 30.324 27.4017C29.8607 27.1974 29.8513 27.1928 29.5724 27.3274Z" fill="#D9D9D9"></path><path d="M41.9692 43.2158H18.5691C13.7802 42.3343 12.0388 38.257 12.0388 35.5021C11.1681 29.3312 16.5738 26.5029 20.2017 26.1356C27.8203 12.3611 41.9692 22.2787 41.9692 29.4413C49.5878 29.9923 50.6762 36.053 49.5879 38.8079C48.7172 42.3341 44.1459 43.3995 41.9692 43.2158Z" stroke="#D9D9D9" stroke-width="2"></path><defs><linearGradient id="paint0_linear_2048_15623" x1="-3.99082" y1="-2.94082" x2="42.2092" y2="54.8092" gradientUnits="userSpaceOnUse"><stop stop-color="#56B743"></stop><stop offset="1" stop-color="#083100"></stop></linearGradient></defs></svg>