<svg xmlns="http://www.w3.org/2000/svg" width="58" height="52" viewBox="0 0 58 52" fill="none"><path d="M57.3345 8.65561H55.972C55.8972 7.82332 55.6793 7.01019 55.3279 6.25202L56.508 5.57039C56.661 5.48209 56.7726 5.33665 56.8183 5.16605C56.8641 4.99546 56.8402 4.81368 56.7519 4.66071C56.6636 4.50775 56.5181 4.39612 56.3475 4.35039C56.1769 4.30466 55.9952 4.32857 55.8422 4.41686L54.6604 5.09932C54.1776 4.41761 53.5827 3.8227 52.901 3.3399L53.5834 2.15808C53.6717 2.00511 53.6956 1.82333 53.6499 1.65274C53.6042 1.48214 53.4925 1.3367 53.3396 1.24841C53.1866 1.16011 53.0048 1.1362 52.8342 1.18193C52.6636 1.22767 52.5182 1.33929 52.4299 1.49226L51.7483 2.67242C50.9901 2.32102 50.177 2.1031 49.3447 2.02824V0.665816C49.3447 0.489231 49.2745 0.319878 49.1497 0.195013C49.0248 0.0701483 48.8554 0 48.6789 0C48.5023 0 48.3329 0.0701483 48.208 0.195013C48.0832 0.319878 48.013 0.489231 48.013 0.665816V2.02824C47.1807 2.1031 46.3676 2.32102 45.6094 2.67242L44.9278 1.49226C44.8841 1.41652 44.8259 1.35013 44.7565 1.29688C44.6871 1.24364 44.6079 1.20458 44.5235 1.18193C44.439 1.15929 44.3509 1.15351 44.2642 1.16491C44.1775 1.17632 44.0939 1.20469 44.0181 1.24841C43.8652 1.3367 43.7535 1.48214 43.7078 1.65274C43.6621 1.82333 43.686 2.00511 43.7743 2.15808L44.4567 3.3399C43.775 3.8227 43.1801 4.41761 42.6973 5.09932L41.5155 4.41686C41.3625 4.32857 41.1808 4.30466 41.0102 4.35039C40.8396 4.39612 40.6941 4.50775 40.6058 4.66071C40.5175 4.81368 40.4936 4.99546 40.5394 5.16605C40.5851 5.33665 40.6967 5.48209 40.8497 5.57039L42.0298 6.25202C41.6784 7.01019 41.4605 7.82332 41.3857 8.65561H40.0232C39.8467 8.65561 39.6773 8.72576 39.5524 8.85063C39.4276 8.97549 39.3574 9.14484 39.3574 9.32143C39.3574 9.49801 39.4276 9.66737 39.5524 9.79223C39.6773 9.9171 39.8467 9.98724 40.0232 9.98724H41.3857C41.4605 10.8195 41.6784 11.6327 42.0298 12.3908L40.8497 13.0725C40.7227 13.1457 40.6234 13.2588 40.5673 13.3943C40.5111 13.5297 40.5013 13.6799 40.5392 13.8215C40.5771 13.9632 40.6608 14.0883 40.7771 14.1775C40.8934 14.2668 41.036 14.3151 41.1826 14.3151C41.2995 14.3154 41.4144 14.2847 41.5155 14.226L42.6973 13.5435C43.1801 14.2252 43.775 14.8202 44.4567 15.303L43.7743 16.4848C43.686 16.6377 43.6621 16.8195 43.7078 16.9901C43.7535 17.1607 43.8652 17.3062 44.0181 17.3945C44.1711 17.4827 44.3529 17.5067 44.5235 17.4609C44.6941 17.4152 44.8395 17.3036 44.9278 17.1506L45.6094 15.9704C46.3676 16.3218 47.1807 16.5398 48.013 16.6146V17.977C48.013 18.1536 48.0832 18.323 48.208 18.4478C48.3329 18.5727 48.5023 18.6429 48.6789 18.6429C48.8554 18.6429 49.0248 18.5727 49.1497 18.4478C49.2745 18.323 49.3447 18.1536 49.3447 17.977V16.6146C50.177 16.5398 50.9901 16.3218 51.7483 15.9704L52.4299 17.1506C52.5182 17.3036 52.6636 17.4152 52.8342 17.4609C53.0048 17.5067 53.1866 17.4827 53.3396 17.3945C53.4925 17.3062 53.6042 17.1607 53.6499 16.9901C53.6956 16.8195 53.6717 16.6377 53.5834 16.4848L52.901 15.303C53.5827 14.8202 54.1776 14.2252 54.6604 13.5435L55.8422 14.226C55.9179 14.2697 56.0016 14.2981 56.0883 14.3095C56.175 14.3209 56.2631 14.3152 56.3476 14.2925C56.432 14.2699 56.5112 14.2308 56.5806 14.1776C56.65 14.1243 56.7082 14.0579 56.7519 13.9821C56.8403 13.8293 56.8643 13.6476 56.8188 13.477C56.7732 13.3064 56.6617 13.1609 56.5089 13.0725L55.3287 12.3908C55.6798 11.6326 55.8974 10.8195 55.972 9.98724H57.3345C57.511 9.98724 57.6804 9.9171 57.8053 9.79223C57.9301 9.66737 58.0003 9.49801 58.0003 9.32143C58.0003 9.14484 57.9301 8.97549 57.8053 8.85063C57.6804 8.72576 57.511 8.65561 57.3345 8.65561ZM48.6789 3.32908C50.1522 3.33083 51.5734 3.87473 52.6715 4.85708C53.7696 5.83943 54.4678 7.19153 54.6329 8.65561H49.0634L46.2786 3.83261C47.0351 3.50011 47.8525 3.32864 48.6789 3.32908ZM42.6865 9.32143C42.687 8.38276 42.908 7.45734 43.3317 6.61974C43.7555 5.78215 44.37 5.05581 45.1259 4.49925L47.9098 9.32143L45.1259 14.1436C44.37 13.5871 43.7555 12.8607 43.3317 12.0231C42.908 11.1855 42.687 10.2601 42.6865 9.32143ZM48.6789 15.3138C47.8528 15.3155 47.0354 15.1455 46.2786 14.8144L49.0634 9.98724H54.6329C54.4678 11.4513 53.7696 12.8034 52.6715 13.7858C51.5734 14.7681 50.1522 15.312 48.6789 15.3138Z" fill="#4FA83D"></path><path fill-rule="evenodd" clip-rule="evenodd" d="M39.3571 2.07143H6.21429C4.56615 2.07143 2.98553 2.72615 1.82012 3.89155C0.654718 5.05696 0 6.63758 0 8.28572V37.2857C0 38.9338 0.654718 40.5145 1.82012 41.6799C2.98553 42.8453 4.56615 43.5 6.21429 43.5H24.8571V47.6429H18.6429C18.0935 47.6429 17.5666 47.8611 17.1781 48.2496C16.7897 48.638 16.5714 49.1649 16.5714 49.7143C16.5714 50.2637 16.7897 50.7905 17.1781 51.179C17.5666 51.5675 18.0935 51.7857 18.6429 51.7857H35.2143C35.7637 51.7857 36.2905 51.5675 36.679 51.179C37.0675 50.7905 37.2857 50.2637 37.2857 49.7143C37.2857 49.1649 37.0675 48.638 36.679 48.2496C36.2905 47.8611 35.7637 47.6429 35.2143 47.6429H29V43.5H47.6429C49.291 43.5 50.8716 42.8453 52.037 41.6799C53.2024 40.5145 53.8571 38.9338 53.8571 37.2857V20.7143H49.7143V29H4.14286V8.28572C4.14286 7.73634 4.3611 7.20946 4.74956 6.82099C5.13803 6.43253 5.66491 6.21429 6.21429 6.21429H39.3571V2.07143ZM6.21429 39.3571H47.6429C48.1922 39.3571 48.7191 39.1389 49.1076 38.7504C49.496 38.362 49.7143 37.8351 49.7143 37.2857V33.1429H4.14286V37.2857C4.14286 37.8351 4.3611 38.362 4.74956 38.7504C5.13803 39.1389 5.66491 39.3571 6.21429 39.3571Z" fill="#4FA83D"></path><path d="M14.3707 14.1123L11.0329 24.2857H8.34416L12.9041 12.0136H14.6151L14.3707 14.1123ZM17.1437 24.2857L13.7975 14.1123L13.5278 12.0136H15.2557L19.8409 24.2857H17.1437ZM16.992 19.7174V21.6981H10.5103V19.7174H16.992ZM25.7578 19.9112H22.6307V17.9389H25.7578C26.241 17.9389 26.6344 17.8603 26.9378 17.7029C27.2412 17.54 27.4632 17.3152 27.6037 17.0286C27.7441 16.7421 27.8144 16.419 27.8144 16.0593C27.8144 15.6941 27.7441 15.3541 27.6037 15.0395C27.4632 14.7248 27.2412 14.4719 26.9378 14.2809C26.6344 14.0898 26.241 13.9943 25.7578 13.9943H23.5073V24.2857H20.9787V12.0136H25.7578C26.7186 12.0136 27.5418 12.1878 28.2274 12.5362C28.9185 12.8789 29.4467 13.3537 29.812 13.9606C30.1772 14.5675 30.3598 15.2614 30.3598 16.0425C30.3598 16.8348 30.1772 17.5203 29.812 18.0991C29.4467 18.6778 28.9185 19.1246 28.2274 19.4392C27.5418 19.7539 26.7186 19.9112 25.7578 19.9112ZM34.7933 12.0136V24.2857H32.2731V12.0136H34.7933Z" fill="#4FA83D"></path></svg>