<svg xmlns="http://www.w3.org/2000/svg" width="115" height="72" viewBox="0 0 115 72" fill="none"><g id="Group 45088"><g id="Group 45078"><g id="Group 45077"><g id="Group 45038"><path id="Vector 2" d="M87.8815 1.02246H10.2183V53.1386H87.8815V1.02246Z" fill="#CADFBD"></path><g id="Black"><path id="Vector" d="M8.53271 0.000331879V1.74318V28.0311V54.2827H49.0176H89.5024V28.0311V1.74318L89.4153 6.86646e-05H88.9044L87.4691 0.000331879H49.0176H10.566H8.53271ZM54.3913 1.70687C54.5003 2.06997 53.2658 2.17889 49.0539 2.17889C44.0069 2.17889 43.0992 2.03365 43.8253 1.30747C43.9706 1.19854 46.367 1.12592 49.1628 1.16223C52.7937 1.23485 54.2824 1.38009 54.3913 1.70687ZM85.9804 27.2323C86.0167 40.3036 85.9804 51.378 85.8715 51.8137L85.6899 52.6488H49.0539C15.9761 52.6488 12.4178 52.5762 12.2 52.0678C11.9095 51.269 11.9095 3.81281 12.2363 3.52233C12.3452 3.37709 28.9748 3.30448 49.1628 3.34079L85.8715 3.44972L85.9804 27.2323Z" fill="#4FA83D"></path><path id="Vector_2" d="M0.871423 57.0785C1.34344 58.1315 1.99701 59.6201 2.39641 60.3463L3.04998 61.7261H49.0175H95.0214L96.5101 58.5309L97.9988 55.3719L79.4084 55.263C63.1782 55.1904 60.7817 55.263 60.4186 55.735C59.8014 56.5702 37.9432 56.5702 37.6164 55.735C37.4349 55.263 35.0021 55.1904 18.6993 55.1904H0L0.871423 57.0785Z" fill="#4FA83D"></path></g><rect id="Rectangle 1" x="42.9189" y="1.02246" width="12.2626" height="1.53283" fill="white"></rect></g><g id="Group 45044"><path id="Union" fill-rule="evenodd" clip-rule="evenodd" d="M28.3683 2.74756V9.42336L21.3592 14.3557C20.8051 13.9269 20.1099 13.6718 19.3551 13.6718C17.545 13.6718 16.0776 15.1391 16.0776 16.9492C16.0776 18.7593 17.545 20.2266 19.3551 20.2266C21.1652 20.2266 22.6325 18.7593 22.6325 16.9492C22.6325 16.4882 22.5373 16.0493 22.3655 15.6514L29.6592 10.5188L30.007 10.274V9.84867V2.74756H28.3683ZM20.4476 16.9492C20.4476 17.5526 19.9584 18.0417 19.3551 18.0417C18.7517 18.0417 18.2626 17.5526 18.2626 16.9492C18.2626 16.3458 18.7517 15.8567 19.3551 15.8567C19.9584 15.8567 20.4476 16.3458 20.4476 16.9492Z" fill="#4FA83D"></path><path id="Union_2" fill-rule="evenodd" clip-rule="evenodd" d="M67.9705 2.74756V9.41016L75.9422 14.7246C76.5409 14.0772 77.3976 13.6718 78.349 13.6718C80.1591 13.6718 81.6265 15.1391 81.6265 16.9492C81.6265 18.7593 80.1591 20.2266 78.349 20.2266C76.5389 20.2266 75.0716 18.7593 75.0716 16.9492C75.0716 16.6825 75.1034 16.4232 75.1636 16.175L66.6967 10.5304L66.3318 10.2872V9.84867V2.74756H67.9705ZM77.2565 16.9492C77.2565 17.5526 77.7457 18.0417 78.349 18.0417C78.9524 18.0417 79.4415 17.5526 79.4415 16.9492C79.4415 16.3458 78.9524 15.8567 78.349 15.8567C77.7457 15.8567 77.2565 16.3458 77.2565 16.9492Z" fill="#4FA83D"></path><path id="Union_3" fill-rule="evenodd" clip-rule="evenodd" d="M44.755 2.74561V18.7375L39.0385 23.263C38.4565 22.7339 37.6832 22.4113 36.8346 22.4113C35.0245 22.4113 33.5571 23.8787 33.5571 25.6888C33.5571 27.4989 35.0245 28.9662 36.8346 28.9662C38.6446 28.9662 40.112 27.4989 40.112 25.6888C40.112 25.3217 40.0517 24.9687 39.9403 24.6392L46.0829 19.7763L46.3937 19.5302V19.1339V2.74561H44.755ZM37.927 25.6888C37.927 26.2921 37.4379 26.7813 36.8346 26.7813C36.2312 26.7813 35.7421 26.2921 35.7421 25.6888C35.7421 25.0854 36.2312 24.5963 36.8346 24.5963C37.4379 24.5963 37.927 25.0854 37.927 25.6888Z" fill="#4FA83D"></path><path id="Union_4" fill-rule="evenodd" clip-rule="evenodd" d="M36.0155 2.74756V12.435L25.4291 20.1101L25.0907 20.3555V20.7735V26.3385C23.6772 26.7024 22.6328 27.9856 22.6328 29.5126C22.6328 31.3227 24.1002 32.7901 25.9102 32.7901C27.7203 32.7901 29.1877 31.3227 29.1877 29.5126C29.1877 27.9854 28.1431 26.7021 26.7294 26.3384V21.1915L37.3158 13.5164L37.6542 13.271V12.853V2.74756H36.0155ZM27.0027 29.5126C27.0027 30.116 26.5136 30.6051 25.9102 30.6051C25.3069 30.6051 24.8178 30.116 24.8178 29.5126C24.8178 28.9093 25.3069 28.4202 25.9102 28.4202C26.5136 28.4202 27.0027 28.9093 27.0027 29.5126Z" fill="#4FA83D"></path><path id="Union_5" fill-rule="evenodd" clip-rule="evenodd" d="M53.2219 2.47363V21.1825L59.449 25.8527L59.7768 26.0985V26.5082V31.2544C61.1904 31.6182 62.2349 32.9014 62.2349 34.4286C62.2349 36.2387 60.7675 37.706 58.9574 37.706C57.1473 37.706 55.68 36.2387 55.68 34.4286C55.68 32.9014 56.7245 31.6182 58.138 31.2544V26.9179L51.9109 22.2476L51.5832 22.0018V21.5921V2.47363H53.2219ZM57.8649 34.4286C57.8649 35.0319 58.3541 35.5211 58.9574 35.5211C59.5608 35.5211 60.0499 35.0319 60.0499 34.4286C60.0499 33.8252 59.5608 33.3361 58.9574 33.3361C58.3541 33.3361 57.8649 33.8252 57.8649 34.4286Z" fill="#4FA83D"></path><path id="Union_6" fill-rule="evenodd" clip-rule="evenodd" d="M61.9619 2.74756V12.4476L72.0182 20.1221L72.3405 20.3681L72.3405 20.7735L72.3404 26.827C73.8903 27.0872 75.0713 28.4352 75.0713 30.059C75.0713 31.8691 73.6039 33.3365 71.7939 33.3365C69.9838 33.3365 68.5164 31.8691 68.5164 30.059C68.5164 28.6319 69.4286 27.4178 70.7017 26.968L70.7018 21.1789L60.6455 13.5043L60.3232 13.2584V12.853V2.74756H61.9619ZM70.7014 30.059C70.7014 30.6624 71.1905 31.1515 71.7939 31.1515C72.3972 31.1515 72.8863 30.6624 72.8863 30.059C72.8863 29.4557 72.3972 28.9666 71.7939 28.9666C71.1905 28.9666 70.7014 29.4557 70.7014 30.059Z" fill="#4FA83D"></path></g><g id="Group 45037"><g id="Group 45029"><g id="Black_2"><path id="Vector 1" d="M66.2656 20.1833L89.3223 13.9307L113.161 21.3557V40.1137L108.08 56.9177L98.3105 66.6875L89.3223 70.2046L82.2881 68.2507L75.6446 61.998L70.5643 55.7453L66.2656 44.8032V35.4242V20.1833Z" fill="#CADFBD"></path><path id="Vector_3" d="M91.5893 12.9503C92.6652 13.2724 93.8988 13.6356 94.3305 13.7658C95.5229 14.1153 107.036 17.5075 110.497 18.5286C112.169 19.022 113.642 19.4743 113.766 19.5291C113.896 19.5908 114.067 19.7553 114.149 19.8923L114.307 20.1391L114.327 28.4654C114.355 38.4982 114.307 39.766 113.786 42.9252C112.162 52.8277 107.009 61.483 99.4565 66.9997C97.4623 68.4525 95.2351 69.6997 92.864 70.6934C91.699 71.18 89.6636 71.8447 89.3484 71.8447C89.0537 71.8447 87.9573 71.5158 86.7237 71.0566C79.254 68.2743 72.8602 62.4904 68.8923 54.9384C66.4389 50.2647 65.0135 45.4197 64.4858 39.9099C64.3967 38.9299 64.2665 31.7343 64.3282 31.5081C64.4858 30.9325 65.13 30.5624 65.6851 30.7269C66.0277 30.8297 66.343 31.1449 66.4389 31.4739C66.4732 31.6109 66.5075 32.0358 66.5075 32.4127C66.5075 33.7833 66.8021 41.068 67.0968 42.7881C68.2001 49.2505 70.8522 55.0892 74.8749 59.9274C75.6699 60.88 77.6024 62.8536 78.5276 63.6417C81.4401 66.1499 84.9557 68.1578 88.4575 69.316L89.3347 69.6038L90.205 69.316C98.5794 66.5337 105.515 59.8246 109.236 50.9089C110.469 47.9484 111.401 44.4397 111.799 41.2119C112.059 39.1081 112.08 38.3474 112.08 29.7332V21.2972L110.072 20.7079C108.975 20.3858 103.856 18.8781 98.7027 17.3568L89.3347 14.6019L86.4702 15.4448C84.894 15.9108 82.7284 16.5481 81.6525 16.8633C80.5766 17.1786 79.254 17.5692 78.7057 17.7337C78.1575 17.8913 75.2039 18.7616 72.1406 19.6662L66.576 21.3041V26.3753C66.576 29.4934 66.5486 31.5355 66.5075 31.6795C66.4115 32.0153 66.0689 32.3442 65.7125 32.4401C65.4521 32.5155 65.363 32.5087 65.1163 32.4127C64.7394 32.2688 64.4858 32.0016 64.3899 31.6521C64.2871 31.2683 64.2871 20.6256 64.3899 20.2144C64.431 20.0363 64.5544 19.8307 64.6777 19.7073C64.9176 19.4743 64.5406 19.5908 73.7031 16.8908C87.5392 12.8201 89.1154 12.3609 89.369 12.3678C89.5129 12.3678 90.5134 12.6351 91.5893 12.9503Z" fill="#4FA83D"></path></g></g></g></g></g><g id="Group 45045"><path id="Vector_4" d="M77.618 28.535C76.6066 28.7997 75.6993 29.7401 75.496 30.742C75.4251 31.0965 75.4251 45.8603 75.496 46.2147C75.7134 47.2639 76.6775 48.2233 77.7409 48.4501C78.015 48.5068 78.8231 48.521 82.6653 48.521H87.2589V47.3395V46.158H87.1124C86.9186 46.158 86.6256 45.8745 86.5547 45.6145C86.4791 45.3357 86.4886 44.6079 86.5736 44.3527C86.6682 44.0833 86.8761 43.8849 87.0982 43.847C87.2636 43.8187 87.2731 43.8092 87.3534 43.4879C87.4007 43.3036 87.4716 43.0814 87.5141 42.9869L87.585 42.8168L87.3912 42.883C87.24 42.9349 87.1644 42.9349 87.0368 42.8924C86.6729 42.7743 86.5027 42.4104 86.5027 41.7393C86.5027 40.9973 86.706 40.6334 87.1502 40.5956C87.4621 40.5625 87.6701 40.709 87.8166 41.054C87.9111 41.2809 87.9205 41.3754 87.9064 41.8338L87.8874 42.3536L88.067 42.1788C88.2372 42.0039 88.2419 41.9898 88.2608 41.588C88.2939 40.8886 88.5538 40.5531 89.0217 40.5956C89.3147 40.6192 89.499 40.7941 89.6077 41.1344C89.688 41.3848 89.6928 41.3896 89.8534 41.3754L90.0236 41.3612L90.0283 39.4236C90.033 37.3725 90.0519 37.1551 90.2788 36.5596C90.3733 36.3092 90.3733 36.3092 90.2835 36.2099C90.1323 36.0445 90.0377 35.7562 90.0094 35.3545C89.981 34.8914 90.0803 34.5133 90.2882 34.2723C90.6379 33.8753 91.2334 34.0833 91.3752 34.6551C91.4035 34.7685 91.4366 34.863 91.4508 34.863C91.5217 34.863 91.9801 34.4613 91.9943 34.381C92.0085 34.277 92.4196 34.1116 92.6701 34.1069C92.7504 34.1069 92.9206 34.0691 93.0482 34.0265C93.2278 33.9698 93.5491 33.9415 94.3951 33.9226L95.5057 33.8942L95.5198 32.4623C95.534 30.8507 95.5104 30.6617 95.2174 30.0662C94.896 29.4093 94.2627 28.8516 93.5349 28.587L93.19 28.4594L85.5812 28.4499C78.1567 28.4405 77.963 28.4405 77.618 28.535ZM78.7522 30.9311C79.2012 31.2524 79.2579 32.5521 78.842 32.9727C78.4828 33.3318 77.9393 33.1475 77.755 32.6088C77.6794 32.3772 77.6747 31.6352 77.7503 31.38C77.9015 30.8791 78.3789 30.6617 78.7522 30.9311ZM84.0311 30.9169C84.5131 31.2335 84.5462 32.5804 84.0783 33.0105C83.9177 33.1617 83.6341 33.1948 83.4167 33.0908C82.9299 32.8592 82.7929 31.5785 83.1993 31.0587C83.4025 30.8035 83.7617 30.742 84.0311 30.9169ZM87.4763 30.8885C87.6228 30.9547 87.6984 31.0303 87.7835 31.2052C87.8827 31.4084 87.8969 31.5029 87.8969 31.9802C87.8969 32.4386 87.8827 32.5568 87.7929 32.7458C87.5425 33.2846 86.9139 33.2988 86.6351 32.7742C86.5406 32.5946 86.5264 32.5048 86.5264 31.9802C86.5264 31.4604 86.5406 31.3658 86.6303 31.1957C86.7627 30.95 86.9517 30.8224 87.2116 30.8035C87.2494 30.8035 87.3676 30.8413 87.4763 30.8885ZM91.0727 30.9216C91.4414 31.1626 91.5831 32.1456 91.3279 32.7127C91.1862 33.0246 91.0255 33.1381 90.7325 33.1381C90.5292 33.1381 90.4536 33.1144 90.3497 33.0199C89.9291 32.6324 89.8818 31.4934 90.2646 31.0398C90.4631 30.8035 90.8128 30.7515 91.0727 30.9216ZM80.359 31.8621V32.8781H80.5953C80.8174 32.8781 80.8316 32.8876 80.8316 32.9963V33.1144H80.1936H79.5556V32.9963C79.5556 32.8829 79.5698 32.8781 79.8155 32.8781H80.0755V32.0558V31.2288L79.877 31.2146C79.5745 31.191 79.584 31.0728 79.8959 30.9547C80.0329 30.898 80.1936 30.8554 80.2551 30.8507L80.359 30.846V31.8621ZM82.1454 31.8715L82.1549 32.8781H82.3676C82.5613 32.8781 82.5802 32.8876 82.5802 32.9963V33.1144H81.9422H81.3042V32.9963C81.3042 32.8829 81.3184 32.8781 81.5641 32.8781H81.8241V32.0511V31.2241H81.635C81.4743 31.2241 81.446 31.2099 81.446 31.1295C81.446 31.0776 81.4838 31.0208 81.5311 31.0067C81.5736 30.9925 81.6776 30.95 81.7532 30.9169C81.8335 30.8791 81.9469 30.8554 82.0131 30.8602L82.1313 30.8696L82.1454 31.8715ZM85.6521 31.8621V32.8781H85.8884C86.1105 32.8781 86.1247 32.8876 86.1247 32.9963V33.1144H85.4867H84.8487V33.001C84.8487 32.8923 84.8676 32.8829 85.0991 32.8687L85.3449 32.8545L85.3591 32.0369L85.3685 31.2241H85.1559C84.9621 31.2241 84.9385 31.2146 84.9526 31.1248C84.9621 31.0539 85.033 31.0019 85.2031 30.9405C85.3354 30.898 85.4867 30.8554 85.5481 30.8507L85.6521 30.846V31.8621ZM89.1871 31.8715L89.1965 32.8781H89.4092C89.603 32.8781 89.6219 32.8876 89.6219 32.9963V33.1144H88.9839H88.3459V32.9963C88.3459 32.8829 88.36 32.8781 88.6058 32.8781H88.8657V32.0511V31.2241H88.6767C88.516 31.2241 88.4876 31.2099 88.4876 31.1295C88.4876 31.0776 88.5254 31.0208 88.5727 31.0067C88.6152 30.9925 88.7192 30.95 88.7948 30.9169C88.8752 30.8791 88.9886 30.8554 89.0548 30.8602L89.1729 30.8696L89.1871 31.8715ZM92.6937 31.8621V32.8781H92.93C93.1521 32.8781 93.1663 32.8876 93.1663 32.9963V33.1144H92.5283H91.8903V32.9963C91.8903 32.8829 91.9045 32.8781 92.1502 32.8781H92.4102V32.0511V31.2241H92.1928C92.0037 31.2241 91.9801 31.2146 91.9943 31.1248C92.0037 31.0539 92.0746 31.0019 92.2448 30.9405C92.3771 30.898 92.5283 30.8554 92.5898 30.8507L92.6937 30.846V31.8621ZM80.5433 34.1967C80.7655 34.3574 80.8553 34.6598 80.8553 35.2647C80.8553 35.7279 80.8411 35.8129 80.7371 36.0162C80.5906 36.2997 80.3685 36.4368 80.1086 36.4037C79.6832 36.3517 79.4989 36.0587 79.4706 35.3687C79.4469 34.863 79.5036 34.5464 79.6596 34.329C79.8581 34.0549 80.2551 33.9935 80.5433 34.1967ZM84.0405 34.1872C84.3383 34.4046 84.48 35.0048 84.3761 35.605C84.2816 36.1721 84.0264 36.4462 83.6199 36.4084C83.1804 36.3612 82.9252 35.8508 82.9677 35.0993C83.0008 34.5748 83.1851 34.2061 83.4781 34.0927C83.601 34.0407 83.9129 34.0974 84.0405 34.1872ZM78.6104 35.123V36.139H78.8467C79.0688 36.139 79.083 36.1485 79.083 36.2572V36.3753H78.445H77.807V36.2619C77.807 36.1532 77.8259 36.1438 78.0575 36.1296L78.3032 36.1154L78.3174 35.2978L78.3269 34.485H78.1142C77.9204 34.485 77.8968 34.4755 77.911 34.3857C77.9204 34.3148 77.9913 34.2628 78.1615 34.2014C78.2938 34.1589 78.445 34.1163 78.5065 34.1116L78.6104 34.1069V35.123ZM82.1454 35.1324L82.1549 36.139H82.3676C82.5613 36.139 82.5802 36.1485 82.5802 36.2572V36.3753H81.9422H81.3042V36.2572C81.3042 36.1438 81.3184 36.139 81.5641 36.139H81.8241V35.312V34.485H81.635C81.4696 34.485 81.446 34.4708 81.446 34.3763C81.446 34.2959 81.4933 34.2581 81.6728 34.1967C81.7957 34.1541 81.9469 34.1211 82.0131 34.1258L82.1313 34.1305L82.1454 35.1324ZM85.6521 35.123V36.139H85.8884C86.1105 36.139 86.1247 36.1485 86.1247 36.2572V36.3753H85.4867H84.8487V36.2619C84.8487 36.1532 84.8676 36.1438 85.0991 36.1296L85.3449 36.1154L85.3591 35.2978L85.3685 34.485H85.1559C84.9621 34.485 84.9385 34.4755 84.9526 34.3857C84.9621 34.3148 85.033 34.2628 85.2031 34.2014C85.3354 34.1541 85.4867 34.1116 85.5481 34.1116L85.6521 34.1069V35.123ZM87.4101 35.1088L87.4243 36.1154L87.6512 36.1296C87.8496 36.1438 87.8733 36.1532 87.8733 36.2619V36.3753H87.2353H86.5973V36.2572C86.5973 36.1438 86.6114 36.139 86.8572 36.139H87.1171V35.3167V34.4897L86.9186 34.4755C86.7579 34.4661 86.7154 34.4424 86.7154 34.3763C86.7154 34.3148 86.7863 34.2628 86.9517 34.2014C87.084 34.1589 87.2353 34.1163 87.292 34.1116L87.4007 34.1069L87.4101 35.1088ZM89.1871 35.1324L89.1965 36.139H89.4092C89.603 36.139 89.6219 36.1485 89.6219 36.2572V36.3753H88.9839H88.3459V36.2572C88.3459 36.1438 88.36 36.139 88.6058 36.139H88.8657V35.312V34.485H88.6767C88.5113 34.485 88.4876 34.4708 88.4876 34.3763C88.4876 34.2959 88.5349 34.2581 88.7145 34.1967C88.8374 34.1541 88.9886 34.1211 89.0548 34.1258L89.1729 34.1305L89.1871 35.1324ZM80.4866 37.415C80.7324 37.5615 80.8411 37.8404 80.8694 38.365C80.8836 38.691 80.8694 38.8848 80.8174 39.0738C80.619 39.7544 79.9053 39.8773 79.5887 39.2865C79.4989 39.1164 79.4847 39.0219 79.4847 38.502C79.4847 37.9963 79.4989 37.8829 79.584 37.7222C79.7777 37.3536 80.1653 37.2166 80.4866 37.415ZM84.0972 37.4907C84.3052 37.6891 84.3997 37.9869 84.3997 38.4547C84.3997 38.951 84.3146 39.2676 84.1209 39.4708C83.8373 39.7686 83.3978 39.7166 83.1615 39.3621C82.9252 39.003 82.8921 38.1239 83.1095 37.7128C83.3175 37.3063 83.7948 37.1976 84.0972 37.4907ZM87.5283 37.415C87.774 37.5615 87.8874 37.8404 87.9111 38.3461C87.9442 39.0502 87.7788 39.4661 87.4149 39.6221C87.1171 39.7449 86.8288 39.6221 86.6445 39.296C86.5453 39.1211 86.5264 39.0171 86.5122 38.5634C86.4933 38.0767 86.5027 38.0152 86.6114 37.7742C86.8052 37.3489 87.1833 37.2024 87.5283 37.415ZM78.6199 38.3697L78.6341 39.3763L78.8609 39.3905C79.0594 39.4047 79.083 39.4141 79.083 39.5228V39.6362H78.445H77.807V39.5228C77.807 39.4141 77.8259 39.4047 78.0575 39.3905L78.3032 39.3763V38.5493V37.7222H78.1142C77.963 37.7222 77.9252 37.7033 77.9252 37.6324C77.9252 37.5379 78.256 37.382 78.4781 37.3725L78.6104 37.3678L78.6199 38.3697ZM82.1549 38.3839V39.3999H82.3865C82.6038 39.3999 82.6133 39.4047 82.5897 39.5181L82.5708 39.641L81.9469 39.6268C81.3467 39.6126 81.3278 39.6079 81.3137 39.5039C81.2995 39.4047 81.3137 39.3999 81.5641 39.3999H81.8241L81.8146 38.5587L81.8004 37.7222L81.6256 37.7317C81.4696 37.7411 81.446 37.7317 81.446 37.6372C81.446 37.5568 81.4933 37.5143 81.6728 37.4576C81.7957 37.4103 81.9517 37.3772 82.0273 37.3725L82.1549 37.3678V38.3839ZM85.6521 38.3839V39.3999H85.8884C86.1105 39.3999 86.1247 39.4094 86.1247 39.5181V39.6362H85.4867H84.8487V39.5228C84.8487 39.4141 84.8676 39.4047 85.0991 39.3905L85.3449 39.3763V38.5493V37.7222L85.2031 37.7175C84.9668 37.7081 84.9432 37.7033 84.9432 37.6135C84.9432 37.5285 85.2787 37.3867 85.5245 37.3725L85.6521 37.3678V38.3839ZM89.1871 38.3933L89.1965 39.3999H89.4092C89.603 39.3999 89.6219 39.4094 89.6219 39.5181V39.641L88.998 39.6268C88.3884 39.6126 88.3695 39.6079 88.3553 39.5039C88.3411 39.4047 88.3553 39.3999 88.6058 39.3999H88.8657L88.8563 38.5587L88.8421 37.7222L88.7239 37.7175C88.516 37.7128 88.4876 37.6986 88.4876 37.6135C88.4876 37.5237 88.861 37.3678 89.0548 37.382L89.1729 37.3914L89.1871 38.3933ZM80.4866 40.6759C80.5717 40.7232 80.6851 40.8603 80.7466 40.9689C80.8411 41.1485 80.8553 41.2383 80.8553 41.7393C80.8553 42.2308 80.8411 42.33 80.756 42.4954C80.6284 42.7317 80.5103 42.8404 80.3212 42.8971C79.9857 42.9916 79.6643 42.7743 79.5273 42.3631C79.4186 42.0417 79.4516 41.2431 79.5792 40.9831C79.7636 40.6145 80.1653 40.4775 80.4866 40.6759ZM84.0027 40.6618C84.3099 40.8413 84.4895 41.5361 84.3808 42.1126C84.2816 42.6561 84.05 42.9113 83.6577 42.9113C83.412 42.9113 83.2466 42.7884 83.1001 42.4907C82.9961 42.2875 82.9819 42.1977 82.9819 41.7393C82.9819 41.2856 82.9961 41.1911 83.0953 40.9926C83.1568 40.8603 83.2702 40.7232 83.3553 40.6712C83.5396 40.5578 83.8231 40.5578 84.0027 40.6618ZM78.6104 41.6164V42.6088L78.8373 42.623C79.0405 42.6372 79.0594 42.6467 79.0594 42.7554V42.8735L78.4308 42.8877L77.8023 42.9019L77.8165 42.7695C77.8307 42.6467 77.8448 42.6372 78.0811 42.623L78.3269 42.6088V41.7818V40.9595H78.1142C77.9441 40.9595 77.9015 40.9453 77.9015 40.8744C77.9015 40.7894 78.2371 40.6476 78.4828 40.6334L78.6104 40.6287V41.6164ZM82.1549 41.6211V42.6136H82.3676C82.5708 42.6136 82.5802 42.6183 82.5802 42.7554V42.9019L81.9564 42.8877L81.3278 42.8735V42.7554C81.3278 42.6467 81.3467 42.6372 81.5783 42.623L81.8241 42.6088V41.7818V40.9595H81.635C81.2144 40.9595 81.5641 40.6523 82.0037 40.6334L82.1549 40.6287V41.6211ZM85.6521 41.6164V42.6088L85.8789 42.623C86.0821 42.6372 86.101 42.6467 86.101 42.7554V42.8735L85.4725 42.8877L84.8439 42.9019L84.8581 42.7695C84.8723 42.6467 84.8865 42.6372 85.1228 42.623L85.3685 42.6088L85.3591 41.796L85.3449 40.9831L85.1464 40.9689C84.9904 40.9595 84.9432 40.9359 84.9432 40.8744C84.9432 40.7894 85.2835 40.6476 85.5245 40.6334L85.6521 40.6287V41.6164ZM80.5197 43.9416C80.7466 44.1164 80.8458 44.3858 80.8694 44.8631C80.8931 45.4066 80.7985 45.7752 80.5717 46.0021C80.4394 46.1344 80.3827 46.158 80.1936 46.158C79.9195 46.158 79.7352 46.0541 79.6123 45.8319C79.4847 45.5956 79.4564 45.4539 79.4564 44.9954C79.4516 44.2487 79.7021 43.8423 80.1653 43.8423C80.3259 43.8423 80.4299 43.8707 80.5197 43.9416ZM83.9035 44.8867V45.8697L84.1303 45.8839C84.3194 45.8981 84.3524 45.9123 84.3666 46.0021C84.3808 46.1013 84.3666 46.106 83.8184 46.1202C83.1237 46.1391 83.1001 46.1344 83.1001 45.9879C83.1001 45.8839 83.1143 45.8745 83.36 45.8745H83.6199L83.6105 45.0569L83.5963 44.244L83.3978 44.2298C83.0906 44.2062 83.1237 44.0786 83.4687 43.9557C83.9224 43.7903 83.9035 43.7525 83.9035 44.8867ZM78.6104 44.882V45.8745H78.8467C79.0688 45.8745 79.083 45.8839 79.083 45.9926V46.1108H78.445H77.807V45.9926C77.807 45.8792 77.8212 45.8745 78.0669 45.8745H78.3269V45.0474V44.2204H78.1142C77.9393 44.2204 77.9015 44.2062 77.9015 44.1353C77.9015 44.0408 78.2371 43.9038 78.4828 43.8943L78.6104 43.8896V44.882ZM82.1549 44.882V45.8745H82.3676C82.566 45.8745 82.5802 45.8839 82.5802 46.0021V46.1344L81.9375 46.1202C81.3089 46.106 81.2995 46.106 81.3137 46.0021C81.3278 45.9123 81.3609 45.8981 81.5783 45.8839L81.8241 45.8697V45.0427V44.2204H81.635C81.2144 44.2204 81.5641 43.9132 82.0037 43.8943L82.1549 43.8896V44.882ZM85.6521 44.882V45.8745H85.8884C86.1105 45.8745 86.1247 45.8839 86.1247 45.9926V46.1108H85.4867H84.8487V45.9926C84.8487 45.8792 84.8628 45.8745 85.1086 45.8745H85.3685V45.0474V44.2204H85.1559C84.981 44.2204 84.9432 44.2062 84.9432 44.1353C84.9432 44.0408 85.2787 43.9038 85.5245 43.8943L85.6521 43.8896V44.882Z" fill="#4FA83D"></path><path id="Vector_5" d="M78.2795 31.0961C78.0716 31.2001 77.9771 31.4695 77.9771 31.9799C77.9771 32.6982 78.1944 33.0432 78.5442 32.8825C78.7427 32.7928 78.8183 32.5376 78.823 31.9799C78.823 31.427 78.7427 31.1859 78.5347 31.0867C78.3929 31.0253 78.4213 31.0253 78.2795 31.0961Z" fill="#4FA83D"></path><path id="Vector_6" d="M83.5392 31.0915C83.3408 31.186 83.2651 31.4365 83.2651 31.98C83.2699 32.5376 83.3455 32.7928 83.544 32.8826C83.889 33.0433 84.1111 32.703 84.1111 32.0036C84.1158 31.5168 84.0449 31.2663 83.8701 31.1293C83.733 31.0253 83.6905 31.0206 83.5392 31.0915Z" fill="#4FA83D"></path><path id="Vector_7" d="M87.084 31.082C86.8761 31.1671 86.8099 31.3466 86.7957 31.8807C86.7768 32.4572 86.8383 32.6983 87.032 32.8448C87.2022 32.9724 87.3818 32.9157 87.5141 32.6888C87.6275 32.495 87.6748 31.7814 87.5944 31.4742C87.5046 31.1434 87.3109 30.9922 87.084 31.082Z" fill="#4FA83D"></path><path id="Vector_8" d="M90.5812 31.0915C90.3827 31.186 90.3071 31.4365 90.3071 31.98C90.3119 32.5376 90.3875 32.7928 90.586 32.8826C90.931 33.0433 91.1531 32.703 91.1531 32.0036C91.1531 31.7673 91.1294 31.5026 91.0964 31.4081C90.9971 31.1246 90.7844 30.997 90.5812 31.0915Z" fill="#4FA83D"></path><path id="Vector_9" d="M79.9667 34.3901C79.8013 34.5224 79.7446 34.7493 79.7493 35.2644C79.754 35.7559 79.8155 35.978 79.995 36.1103C80.0943 36.186 80.151 36.1954 80.2502 36.1576C80.4629 36.082 80.5669 35.8457 80.5858 35.3589C80.6094 34.8674 80.5433 34.5697 80.3826 34.409C80.2455 34.2719 80.1274 34.2672 79.9667 34.3901Z" fill="#4FA83D"></path><path id="Vector_10" d="M83.5347 34.3424C83.3456 34.418 83.27 34.6874 83.27 35.2404C83.27 35.8264 83.3409 36.0438 83.5678 36.1336C83.6954 36.1903 83.7284 36.1855 83.8371 36.1147C84.0309 35.9918 84.1065 35.746 84.1112 35.264C84.116 34.7772 84.0451 34.5267 83.8702 34.3897C83.7379 34.2857 83.6954 34.281 83.5347 34.3424Z" fill="#4FA83D"></path><path id="Vector_11" d="M79.9667 37.6509C79.8013 37.7833 79.7446 38.0101 79.7446 38.5252C79.7494 39.1916 79.9573 39.5271 80.2881 39.3995C80.4724 39.3287 80.5622 39.0924 80.5858 38.6198C80.6095 38.1283 80.5433 37.8305 80.3826 37.6699C80.2456 37.5328 80.1274 37.5281 79.9667 37.6509Z" fill="#4FA83D"></path><path id="Vector_12" d="M83.4874 37.6278C83.2416 37.8026 83.1613 38.7573 83.3598 39.1732C83.4732 39.4047 83.667 39.4898 83.8371 39.3764C84.0403 39.244 84.1112 39.0078 84.1112 38.4784C84.1112 38.1145 84.0876 37.968 84.0214 37.8404C83.8749 37.5569 83.6953 37.486 83.4874 37.6278Z" fill="#4FA83D"></path><path id="Vector_13" d="M86.9754 37.689C86.8147 37.8545 86.7675 38.0955 86.7958 38.6531C86.8147 39.0926 86.8951 39.3006 87.0794 39.3904C87.2495 39.4707 87.4197 39.3998 87.5236 39.2013C87.6323 38.9981 87.6701 38.3365 87.5945 38.001C87.5 37.5756 87.2259 37.4386 86.9754 37.689Z" fill="#4FA83D"></path><path id="Vector_14" d="M79.9526 40.8982C79.8013 41.0541 79.7446 41.2763 79.7446 41.7536C79.7446 42.1411 79.7635 42.2498 79.8533 42.4247C79.9242 42.5712 79.9904 42.6421 80.0707 42.6515C80.411 42.7035 80.5528 42.4955 80.5858 41.9001C80.6095 41.4275 80.5433 41.0825 80.3968 40.9218C80.2739 40.7989 80.066 40.7848 79.9526 40.8982Z" fill="#4FA83D"></path><path id="Vector_15" d="M83.5112 40.8699C83.1804 41.0636 83.152 42.2971 83.4734 42.5854C83.601 42.7035 83.8467 42.6705 83.9554 42.5192C84.135 42.2782 84.1823 41.489 84.0452 41.1251C83.946 40.8652 83.7144 40.7517 83.5112 40.8699Z" fill="#4FA83D"></path><path id="Vector_16" d="M79.9667 44.1353C79.8155 44.2534 79.7446 44.5275 79.7446 45.0096C79.7446 45.5578 79.8486 45.8508 80.0471 45.9028C80.3968 45.9878 80.5575 45.7515 80.5858 45.0946C80.6095 44.6268 80.548 44.3149 80.4015 44.1683C80.2976 44.0644 80.0849 44.0502 79.9667 44.1353Z" fill="#4FA83D"></path><path id="Vector_17" d="M90.5859 34.3436C90.3543 34.4382 90.2173 35.1423 90.326 35.6764C90.4063 36.0544 90.4819 36.097 90.6284 35.8465C90.6946 35.7331 90.8458 35.5204 90.964 35.3786C91.1814 35.114 91.1814 35.114 91.1388 34.8777C91.0774 34.5563 91.0018 34.4098 90.8647 34.3484C90.7324 34.2869 90.7182 34.2869 90.5859 34.3436Z" fill="#4FA83D"></path><path id="Vector_18" d="M93.3175 34.9573C92.4763 35.1794 91.7059 35.8032 91.3279 36.5641C91.0018 37.2257 90.9923 37.3203 90.9923 39.9762V42.3203L90.2692 42.3392C89.5651 42.3534 89.5415 42.3581 89.2343 42.5093C88.8845 42.6795 88.601 42.963 88.3978 43.3458L88.2749 43.5821V47.741V51.8998L88.4072 52.1692C88.5821 52.5283 88.8893 52.8308 89.2815 53.0198L89.5982 53.1758H95.9073H102.216L102.486 53.0671C102.869 52.9111 103.242 52.5567 103.431 52.1692L103.587 51.8525L103.601 47.8827C103.615 43.4403 103.625 43.5821 103.284 43.0859C103.077 42.7834 102.694 42.4999 102.363 42.4006C102.207 42.3534 101.919 42.3298 101.498 42.3298H100.87V40.0424C100.87 37.3959 100.855 37.2683 100.515 36.5736C100.151 35.841 99.5415 35.307 98.7334 35.014L98.3884 34.8864L96.0254 34.8769C93.8232 34.8675 93.6388 34.8722 93.3175 34.9573ZM98.2892 36.6255C98.7476 36.8288 99.154 37.3675 99.1729 37.7929C99.1729 37.8826 99.1776 38.9413 99.1729 40.1464L99.1682 42.3298L95.9215 42.3203L92.67 42.3061L92.6558 40.0613C92.6464 37.5991 92.6511 37.5235 92.9252 37.1454C93.1095 36.8902 93.3553 36.7059 93.653 36.6019C93.8799 36.5263 94.0736 36.5168 96.0018 36.531C97.8969 36.5405 98.1238 36.5499 98.2892 36.6255ZM96.4933 45.5812C96.8761 45.7891 97.0841 46.1483 97.0888 46.6115C97.0888 46.9045 96.9092 47.292 96.6823 47.4716L96.5217 47.5992V48.7287C96.5217 50.1086 96.5547 50.033 95.9262 50.033C95.5907 50.033 95.4725 50.0141 95.4158 49.9574C95.3496 49.896 95.3402 49.7164 95.3402 48.7523V47.6228L95.1417 47.4432C94.8818 47.2116 94.7731 46.9612 94.7731 46.5925C94.7731 45.6852 95.6852 45.1417 96.4933 45.5812Z" fill="#4FA83D"></path><path id="Vector_19" d="M87.013 40.884C86.8523 41.0022 86.7861 41.2668 86.7861 41.7536C86.7861 42.1411 86.805 42.2498 86.8948 42.4247C86.9657 42.5712 87.0319 42.6421 87.1122 42.6515C87.4525 42.7035 87.5943 42.4955 87.6273 41.9001C87.651 41.4275 87.5848 41.0825 87.4383 40.9218C87.3249 40.8084 87.1359 40.7895 87.013 40.884Z" fill="#4FA83D"></path><path id="Vector_20" d="M88.7382 40.922C88.6815 40.9834 88.6153 41.1157 88.5869 41.2197C88.535 41.4182 88.5161 41.7632 88.5586 41.7632C88.5728 41.7632 88.6862 41.7112 88.8091 41.6498C88.9319 41.5883 89.1115 41.5127 89.2108 41.4844C89.4093 41.4182 89.4187 41.3757 89.31 41.1016C89.1919 40.8038 88.9225 40.7235 88.7382 40.922Z" fill="#4FA83D"></path><path id="Vector_21" d="M87.0083 44.1355C86.857 44.2536 86.7861 44.5277 86.7861 44.9956C86.7861 45.6194 86.9185 45.9219 87.1831 45.9219C87.2493 45.9219 87.2587 45.8037 87.2587 45.0003C87.2587 44.1449 87.254 44.0788 87.1737 44.0788C87.1264 44.0788 87.0508 44.1071 87.0083 44.1355Z" fill="#4FA83D"></path></g></g></svg>