<svg xmlns="http://www.w3.org/2000/svg" width="16" height="16" viewBox="0 0 16 16" fill="none"><path d="M8 0V2.66667H2.66667V8H0C0 12.4267 3.57333 16 8 16C12.4267 16 16 12.4267 16 8C16 3.57333 12.4267 0 8 0Z" fill="#2A5F9E"></path><path d="M8 0C6.74667 0 5.57333 0.293333 4.50667 0.8V2.4H2.4V4.50667H0.8C0.293333 5.57333 0 6.74667 0 8H3.2V4L6.4 8H8V6L5.76 3.2H8V0Z" fill="white"></path><path d="M3.57324 3.19995L7.46658 7.99995H7.99991V6.69328L5.17324 3.19995H3.57324Z" fill="#ED4C5C"></path><path d="M7.9998 0.800049H4.50647C2.90647 1.57338 1.57314 2.90672 0.799805 4.50672V8.00005H2.3998V2.40005H7.9998V0.800049Z" fill="#ED4C5C"></path><path d="M1.59993 8.98672L2.1866 8.26672L1.99993 9.20006L2.93327 9.22672L2.1066 9.65339L2.6666 10.4001L1.83993 10.0267L1.59993 10.9334L1.35993 10.0267L0.533268 10.4001L1.09327 9.65339L0.266602 9.22672L1.19993 9.20006L1.01327 8.26672L1.59993 8.98672ZM13.3333 4.85339L13.8133 4.26672L13.6533 5.01339L14.3999 5.04006L13.7333 5.38672L14.1866 5.97339L13.5199 5.65339L13.3333 6.40006L13.1466 5.65339L12.4799 5.97339L12.9333 5.38672L12.2666 5.04006L13.0133 5.01339L12.8533 4.26672L13.3333 4.85339ZM13.3333 10.1867L13.8133 9.60006L13.6533 10.3467L14.3999 10.3734L13.7333 10.7201L14.1866 11.3067L13.5199 10.9867L13.3333 11.7334L13.1466 10.9867L12.4799 11.3067L12.9333 10.7201L12.2666 10.3734L13.0133 10.3467L12.8533 9.60006L13.3333 10.1867ZM10.6666 6.45339L11.1466 5.86672L10.9866 6.61339L11.7333 6.64006L11.0666 6.98672L11.5199 7.57339L10.8533 7.25339L10.6666 8.00006L10.4799 7.25339L9.81327 7.57339L10.2666 6.98672L9.59993 6.64006L10.3466 6.61339L10.1866 5.86672L10.6666 6.45339Z" fill="white"></path></svg>