<svg xmlns="http://www.w3.org/2000/svg" width="16" height="16" viewBox="0 0 16 16" fill="none"><path d="M6.61333 15.8666L9.06667 14.4L6.4 12.8L9.06667 11.2L6.4 9.59997L9.06667 7.99997L6.4 6.39997L9.06667 4.79997L6.4 3.19997L9.06667 1.59997L6.61333 0.133301C2.85333 0.773301 0 4.0533 0 7.99997C0 11.9466 2.85333 15.2266 6.61333 15.8666Z" fill="#F9F9F9"></path><path d="M8.00039 0C7.52039 0 7.06706 0.0533333 6.61372 0.133333L9.06706 1.6L6.40039 3.2L9.06706 4.8L6.40039 6.4L9.06706 8L6.40039 9.6L9.06706 11.2L6.40039 12.8L9.06706 14.4L6.61372 15.8667C7.06706 15.9467 7.52039 16 8.00039 16C12.4271 16 16.0004 12.4267 16.0004 8C16.0004 3.57333 12.4271 0 8.00039 0Z" fill="#C94747"></path></svg>