<svg xmlns="http://www.w3.org/2000/svg" viewBox="0 0 252 305" width="252" height="305"><defs><clipPath clipPathUnits="userSpaceOnUse" id="cp1"><path d="m-379-3744h1920v9504h-1920z"></path></clipPath></defs><style>.a{fill:#2c2d30}.b{fill:none;stroke:#2c2d30;stroke-width:16}.c{fill:none;stroke:#2c2d30;stroke-linecap:round;stroke-width:13}</style><g clip-path="url(#cp1)"><path class="a" d="m163.6 132.9c0 3-2.4 5.4-5.4 5.4h-26.5c-3 0-5.4-2.4-5.4-5.4v-41.7c0-2.9 2.4-5.3 5.4-5.3 2.9 0 5.3 2.4 5.3 5.3v36.4h21.2c3 0 5.4 2.4 5.4 5.3z"></path><path class="a" d="m182.7 177c-12.9 12.9-30.1 20-48.3 20-18.3 0-35.4-7.1-48.3-20-2.1-2.1-2.1-5.5 0-7.6 2.1-2.1 5.5-2.1 7.6 0 10.8 10.9 25.3 16.9 40.7 16.9 15.4 0 29.8-6 40.7-16.9 22.4-22.4 22.4-59 0-81.4-22.5-22.5-59-22.5-81.4 0-9.7 9.6-15.5 22.3-16.6 35.8l6.8-6.4c2.2-2 5.6-1.9 7.6 0.3 2 2.2 1.9 5.6-0.3 7.6l-16.7 15.5c-1 0.9-2.3 1.4-3.6 1.4-1.5 0-2.9-0.6-4-1.7l-15.5-16.7c-2-2.2-1.9-5.5 0.3-7.6 2.2-2 5.6-1.8 7.6 0.3l6.9 7.5c1.2-16.5 8.1-31.9 19.9-43.6 26.6-26.6 69.9-26.6 96.6 0 26.6 26.6 26.6 69.9 0 96.6z"></path><rect class="b" y=".1" width="252" height="304" rx="35"></rect><path class="c" d="m51.5 244.6h150"></path></g></svg>