<svg width="58" height="58" viewBox="0 0 58 58" fill="none" xmlns="http://www.w3.org/2000/svg">
<circle cx="28.7527" cy="28.8867" r="28.5" fill="#2C2C2C"/>
<path d="M28.5445 38.15C30.1274 38.15 31.4106 36.8668 31.4106 35.2839C31.4106 33.701 30.1274 32.4178 28.5445 32.4178C26.9617 32.4178 25.6785 33.701 25.6785 35.2839C25.6785 36.8668 26.9617 38.15 28.5445 38.15Z" stroke="white" stroke-width="0.980427" stroke-linecap="round" stroke-linejoin="round"/>
<path d="M23.1409 28.8518C23.8524 28.1215 24.7029 27.541 25.6423 27.1446C26.5817 26.7483 27.591 26.5441 28.6106 26.5441C29.6302 26.5441 30.6394 26.7483 31.5788 27.1446C32.5182 27.541 33.3688 28.1215 34.0802 28.8518M18.3933 25.1544C19.7251 23.8148 21.3085 22.7518 23.0526 22.0264C24.7967 21.301 26.667 20.9276 28.5559 20.9276C30.4448 20.9276 32.3151 21.301 34.0591 22.0264C35.8032 22.7518 37.3867 23.8148 38.7184 25.1544" stroke="white" stroke-width="0.980427" stroke-linecap="round" stroke-linejoin="round"/>
<path d="M14.323 21.0846C16.1902 19.2164 18.4071 17.7345 20.8472 16.7234C23.2873 15.7123 25.9027 15.1919 28.544 15.1919C31.1853 15.1919 33.8007 15.7123 36.2408 16.7234C38.6809 17.7345 40.8978 19.2164 42.765 21.0846" stroke="white" stroke-width="0.980427" stroke-linecap="round" stroke-linejoin="round"/>
<path d="M34.8646 43.3218C34.5083 43.3218 34.2032 43.1974 33.9493 42.9487C33.6954 42.7 33.5687 42.4013 33.5691 42.0528V35.7077C33.5691 35.3587 33.696 35.0598 33.95 34.8111C34.2039 34.5624 34.5087 34.4382 34.8646 34.4386H35.5123V33.1696C35.5123 32.2919 35.8282 31.5436 36.4599 30.9247C37.0917 30.3059 37.8553 29.9966 38.7509 29.9971C39.6469 29.9971 40.4108 30.3065 41.0426 30.9254C41.6743 31.5442 41.99 32.2923 41.9896 33.1696V34.4386H42.6373C42.9935 34.4386 43.2986 34.563 43.5525 34.8117C43.8064 35.0605 43.9332 35.3591 43.9328 35.7077V42.0528C43.9328 42.4017 43.8058 42.7006 43.5519 42.9493C43.298 43.1981 42.9931 43.3222 42.6373 43.3218H34.8646ZM34.8646 42.0528H42.6373V35.7077H34.8646V42.0528ZM38.7509 40.1492C39.1072 40.1492 39.4123 40.0249 39.6662 39.7761C39.9201 39.5274 40.0468 39.2288 40.0464 38.8802C40.0464 38.5312 39.9194 38.2324 39.6655 37.9836C39.4116 37.7349 39.1067 37.6108 38.7509 37.6112C38.3947 37.6112 38.0896 37.7356 37.8357 37.9843C37.5818 38.233 37.455 38.5317 37.4555 38.8802C37.4555 39.2292 37.5824 39.528 37.8363 39.7768C38.0902 40.0255 38.3951 40.1497 38.7509 40.1492ZM36.8077 34.4386H40.6941V33.1696C40.6941 32.6409 40.5052 32.1914 40.1273 31.8213C39.7495 31.4512 39.2907 31.2661 38.7509 31.2661C38.2112 31.2661 37.7523 31.4512 37.3745 31.8213C36.9967 32.1914 36.8077 32.6409 36.8077 33.1696V34.4386Z" fill="#4FA83D"/>
</svg>
