<svg xmlns="http://www.w3.org/2000/svg" width="259.824" height="300.127" viewBox="0 0 259.824 300.127"><g id="Group_5975" data-name="Group 5975" transform="translate(-1004.709 -2376)"><g id="noun-servers-573662" transform="translate(1004.709 2376)"><path id="Path_46231" data-name="Path 46231" d="M333.988,112.7H103.434A14.773,14.773,0,0,1,88.8,97.823V52.133a14.773,14.773,0,0,1,14.635-14.879H333.988a14.773,14.773,0,0,1,14.635,14.877V97.825A14.772,14.772,0,0,1,333.988,112.7ZM103.434,48.192a3.831,3.831,0,0,0-3.7,3.942V97.826a3.828,3.828,0,0,0,3.7,3.938H333.988a3.828,3.828,0,0,0,3.7-3.938V52.132a3.828,3.828,0,0,0-3.7-3.938Z" transform="translate(-88.799 -37.254)" fill="#2d2e31"></path><path id="Path_46232" data-name="Path 46232" d="M527.628,100.455a11.406,11.406,0,1,1-11.407-11.389,11.4,11.4,0,0,1,11.407,11.389" transform="translate(-293.425 -62.739)" fill="#2d2e31"></path><path id="Path_46233" data-name="Path 46233" d="M333.988,450.959H103.434A14.775,14.775,0,0,1,88.8,436.079V390.391a14.773,14.773,0,0,1,14.635-14.877H333.988a14.773,14.773,0,0,1,14.635,14.877v45.69A14.774,14.774,0,0,1,333.988,450.959ZM103.434,386.452a3.828,3.828,0,0,0-3.7,3.938v45.69a3.831,3.831,0,0,0,3.7,3.944H333.988a3.831,3.831,0,0,0,3.7-3.944V390.392a3.828,3.828,0,0,0-3.7-3.938Z" transform="translate(-88.799 -203.633)" fill="#2d2e31"></path><path id="Path_46234" data-name="Path 46234" d="M527.628,438.725a11.406,11.406,0,1,1-11.407-11.389,11.4,11.4,0,0,1,11.407,11.389" transform="translate(-293.425 -229.123)" fill="#2d2e31"></path><path id="Path_46235" data-name="Path 46235" d="M333.988,281.829H103.434A14.773,14.773,0,0,1,88.8,266.953V221.261a14.773,14.773,0,0,1,14.635-14.877H333.988a14.773,14.773,0,0,1,14.635,14.877v45.692A14.773,14.773,0,0,1,333.988,281.829ZM103.434,217.322a3.828,3.828,0,0,0-3.7,3.938v45.692a3.828,3.828,0,0,0,3.7,3.938H333.988a3.828,3.828,0,0,0,3.7-3.938V221.26a3.828,3.828,0,0,0-3.7-3.938Z" transform="translate(-88.799 -120.444)" fill="#2d2e31"></path><path id="Path_46236" data-name="Path 46236" d="M527.628,269.6a11.406,11.406,0,1,1-11.407-11.389A11.4,11.4,0,0,1,527.628,269.6" transform="translate(-293.425 -145.933)" fill="#2d2e31"></path></g><g id="Group_5972" data-name="Group 5972" transform="translate(1093.195 2582.11)"><g id="Group_5971" data-name="Group 5971" transform="translate(0 0)"><g id="Group_5974" data-name="Group 5974"><g id="Ellipse_2032" data-name="Ellipse 2032" transform="translate(-11 -11)" fill="#1b1c1f" stroke="#2d2e31" stroke-width="10"><circle cx="52.508" cy="52.508" r="52.508" stroke="none"></circle><circle cx="52.508" cy="52.508" r="47.508" fill="none"></circle></g><g id="noun-server-1033190" transform="translate(18.941 17.473)"><g id="Group_6060" data-name="Group 6060" transform="translate(8)"><path id="Path_46192" data-name="Path 46192" d="M447.837,255.674a2.978,2.978,0,0,0-.377-.612,3.531,3.531,0,0,0-.228-.373c-.013-.013-.03-.015-.043-.03a3.074,3.074,0,0,0-.64-.454,3.168,3.168,0,0,0-.347-.235,3.332,3.332,0,0,0-.465-.108,2.858,2.858,0,0,0-.706-.142c-.022,0-.037-.009-.056-.009a2.939,2.939,0,0,0-.463.093,3,3,0,0,0-.663.134,2.96,2.96,0,0,0-.618.383,2.861,2.861,0,0,0-.362.222l-13.673,12.784a3.087,3.087,0,1,0,4.215,4.51l8.476-7.924v38.541a3.089,3.089,0,0,0,6.177,0l0-45.652a2.9,2.9,0,0,0-.093-.457,2.946,2.946,0,0,0-.131-.672Z" transform="translate(-430.121 -255.745)" fill="#2d2e31"></path><path id="Path_46193" data-name="Path 46193" d="M495.009,271.849l-8.476-7.924v38.541a3.089,3.089,0,1,1-6.177,0V256.81a2.881,2.881,0,0,1,.093-.454,3.144,3.144,0,0,1,.134-.674,2.95,2.95,0,0,1,.377-.607,2.543,2.543,0,0,1,.228-.373c.013-.013.03-.015.043-.028A3.049,3.049,0,0,1,482.2,254c.013-.006.024-.022.041-.028a3.014,3.014,0,0,1,2.363-.013,2.745,2.745,0,0,1,.489.308,2.784,2.784,0,0,1,.463.291l13.673,12.784a3.087,3.087,0,1,1-4.217,4.51Z" transform="translate(-468.511 -255.749)" fill="#2d2e31"></path></g></g></g></g></g></g></svg>