<svg xmlns="http://www.w3.org/2000/svg" width="1169" height="252" viewBox="0 0 1169 252" fill="none"><g clip-path="url(#clip0_50_138)"><rect width="1177" height="252" rx="42" fill="#111913"/><path d="M1288.56 462.17C1295.9 496.43 1292.73 518.456 1281.89 531.438C1271.08 544.389 1252.06 549.034 1225.89 547.009C1199.8 544.99 1167.17 536.374 1129.87 523.531C1092.61 510.697 1050.81 493.688 1006.42 474.956C989.73 467.912 972.67 460.624 955.349 453.224C880.601 421.291 800.988 387.279 725.006 361.813C631.489 330.47 543.028 311.907 475.633 326.353C359.502 351.245 283.97 421.576 231.18 470.732C222.929 478.414 215.234 485.58 208.026 491.973C194.653 503.836 183.083 512.935 172.795 517.879C162.573 522.792 153.937 523.463 146.089 519.002C138.06 514.439 130.403 504.274 122.886 486.315C115.395 468.419 108.176 443.115 100.807 408.739C86.0141 339.722 62.6983 279.009 40.2667 225.924C34.6172 212.554 29.0304 199.681 23.6519 187.289C7.63815 150.393 -6.52939 117.75 -15.0094 88.8938C-26.3307 50.3696 -27.2951 19.2735 -9.47129 -5.74165C8.44123 -30.8814 45.7052 -50.4469 112.434 -64.7497C178.818 -78.9786 281.845 -70.4025 400.197 -45.0671C518.469 -19.7485 651.781 22.2474 778.6 74.6352C905.428 127.026 1025.69 189.78 1117.89 256.584C1210.2 323.465 1273.97 394.112 1288.56 462.17Z" stroke="#121C14" stroke-width="4"/><path d="M1336.04 419.875C1343.35 453.984 1339.16 478.036 1326.27 494.458C1313.34 510.925 1291.29 520.2 1261.81 523.878C1202.81 531.241 1115.63 516.007 1017.85 493.848C981.316 485.569 943.315 476.326 904.808 466.96C840.441 451.305 774.659 435.305 711.96 422.888C611.77 403.045 518.935 392.23 451.67 406.647C342.108 430.131 259.486 495.105 196.412 544.706C182.238 555.852 169.052 566.223 156.768 575.171C139.988 587.395 124.975 596.916 111.443 602.249C97.9329 607.574 86.1299 608.637 75.5877 604.289C65.0132 599.928 55.2862 589.951 46.3321 572.265C37.3818 554.587 29.3174 529.428 21.9554 495.081C12.173 449.442 0.607536 404.03 -10.6495 359.829C-16.3784 337.334 -22.0274 315.153 -27.3208 293.416C-43.0335 228.891 -55.628 168.223 -58.0587 114.414C-60.4895 60.605 -52.7425 13.8974 -28.0089 -22.8793C-3.30605 -59.6103 38.5564 -86.7495 105.029 -100.998C171.421 -115.228 277.883 -107.026 401.394 -82.2544C524.82 -57.4995 664.999 -16.255 798.683 35.3811C932.377 87.0208 1059.5 149.024 1156.85 215.268C1205.52 248.39 1246.7 282.538 1277.53 316.941C1308.37 351.356 1328.77 385.921 1336.04 419.875Z" stroke="#121C14" stroke-width="4"/><path d="M1384.64 393.17C1391.94 427.23 1387.34 452.092 1373.65 469.908C1359.91 487.786 1336.71 498.977 1305.92 504.975C1244.3 516.979 1153.64 507.942 1052.4 492.015C1006.58 484.806 958.674 476.2 910.393 467.527C905.38 466.627 900.364 465.726 895.345 464.825C841.997 455.255 788.42 445.772 736.984 438.18C634.197 423.007 539.66 415.33 472.445 429.737C365.531 452.653 285.235 511.824 223.956 556.982C208.354 568.479 193.985 579.068 180.723 587.919C164.341 598.852 149.74 607.08 136.606 611.217C123.517 615.339 112.059 615.345 101.764 610.075C91.4074 604.772 81.8821 593.956 73.0822 575.685C64.2885 557.427 56.3179 531.93 48.9554 497.581C44.0169 474.541 38.8248 451.233 33.6114 427.831C7.63339 311.216 -18.8712 192.238 -17.148 92.1418C-16.1144 32.096 -4.91589 -20.9022 22.4721 -62.4079C49.8186 -103.851 93.4548 -134.061 159.847 -148.292C226.221 -162.519 332.28 -153.04 455.208 -126.338C578.047 -99.6559 717.446 -55.8406 850.354 -1.63262C983.269 52.5788 1109.62 117.153 1206.38 185.327C1254.77 219.413 1295.71 254.367 1326.38 289.335C1357.05 324.316 1377.36 359.207 1384.64 393.17Z" stroke="#121C14" stroke-width="4"/><path d="M1410.64 358.17C1417.94 392.229 1413.34 417.091 1399.65 434.908C1385.91 452.786 1362.71 463.977 1331.92 469.975C1270.31 481.979 1179.64 472.942 1078.4 457.014C1032.59 449.806 984.678 441.201 936.398 432.528C931.384 431.627 926.366 430.726 921.345 429.825C867.998 420.255 814.42 410.772 762.985 403.179C660.197 388.007 565.66 380.33 498.445 394.736C393.947 417.135 311.981 474.145 247.74 518.826C229.546 531.481 212.773 543.147 197.313 552.757C179.755 563.672 163.966 571.899 149.711 576.031C135.49 580.153 122.954 580.156 111.739 574.835C100.492 569.499 90.2457 558.654 80.9477 540.404C71.6497 522.154 63.3877 496.668 56.0274 462.328C51.0889 439.288 45.8968 415.981 40.6835 392.579C14.7054 275.964 -11.7992 156.986 -10.076 56.8894C-9.04235 -3.15639 2.15613 -56.1546 29.5441 -97.6603C56.8906 -139.103 100.527 -169.314 166.919 -183.544C233.294 -197.771 340.536 -188.277 465.243 -161.55C589.859 -134.843 731.627 -90.9952 866.901 -36.7545C1002.18 17.4897 1130.9 82.0975 1229.44 150.297C1278.71 184.396 1320.39 219.36 1351.58 254.336C1382.77 289.325 1403.36 324.216 1410.64 358.17Z" stroke="#121C14" stroke-width="4"/><path d="M1190.86 426.159C1196.44 452.19 1192.63 468.056 1182.36 476.795C1171.94 485.67 1154.13 487.888 1129.96 484.646C1081.78 478.182 1010.92 450.42 931.613 417.369C918.217 411.787 904.583 406.055 890.784 400.254C823.03 371.77 751.288 341.609 683.972 319.138C603.041 292.122 528.035 276.046 473.829 287.665C386.11 306.467 320.717 355.439 271.319 392.432C260.04 400.88 249.594 408.702 239.907 415.399C226.839 424.432 215.239 431.362 204.847 435.117C194.482 438.863 185.533 439.374 177.587 435.879C169.602 432.368 162.232 424.641 155.427 411.042C148.626 397.451 142.497 378.209 136.884 352.02C125.578 299.272 105.571 252.581 85.3308 211.554C77.8096 196.308 70.2795 181.886 63.1515 168.233C51.0394 145.034 40.0882 124.059 32.3144 105.048C19.9637 74.843 16.0611 50.5293 27.7625 30.964C39.5272 11.2929 67.484 -4.3241 121.045 -15.8045C174.206 -27.1992 264.838 -18.453 371.885 4.55753C478.826 27.5451 601.826 64.694 719.547 109.844C837.277 154.997 949.651 208.123 1035.37 263.041C1078.23 290.502 1114.37 318.375 1141.18 345.882C1168.01 373.414 1185.34 400.429 1190.86 426.159Z" stroke="#121C14" stroke-width="4"/><path d="M1076.86 378.407C1081.01 397.762 1077.25 408.808 1068.34 414.442C1063.75 417.348 1057.56 418.987 1049.81 419.404C1042.07 419.821 1032.9 419.013 1022.46 417.142C980.636 409.643 919.731 385.329 851.934 357.152C843.625 353.699 835.216 350.189 826.728 346.646C766.066 321.327 701.413 294.342 641.257 274.609C572.786 252.148 509.681 238.915 464.75 248.545C393.386 263.842 336.32 301.774 291.71 331.427C280.598 338.813 270.259 345.686 260.665 351.567C248.599 358.963 237.769 364.762 228.054 368.124C218.339 371.485 209.935 372.341 202.613 370.105C195.334 367.882 188.79 362.5 182.984 352.688C177.16 342.844 172.151 328.656 167.955 309.081C159.462 269.454 142.423 233.676 124.505 201.775C116.882 188.204 109.086 175.311 101.718 163.127C100.428 160.992 99.1499 158.879 97.8887 156.788C89.4163 142.742 81.6902 129.696 75.6149 117.598C63.3867 93.2496 58.2353 73.4668 66.2667 57.5138C74.3275 41.5024 96.1084 28.4533 140.419 18.9556C162.301 14.2654 192.839 13.8622 229.712 17.132C266.55 20.3988 309.577 27.3183 356.373 37.1904C449.964 56.9345 558.52 88.4655 662.603 126.103C766.695 163.744 866.241 207.467 941.836 251.575C979.638 273.631 1011.39 295.748 1034.72 317.208C1058.09 338.711 1072.78 359.348 1076.86 378.407Z" stroke="#121C14" stroke-width="4"/><path d="M1025.41 360.045C1026.82 366.642 1026.25 371.279 1024.36 374.45C1022.49 377.577 1019.09 379.692 1013.87 380.702C1003.29 382.752 986.416 380.014 964.602 373.548C921.146 360.666 859.644 333.499 793.369 303.649C787.217 300.879 781.024 298.085 774.802 295.278C714.065 267.878 650.502 239.203 594.209 218.029C563.177 206.356 534.298 196.942 509.277 191.275C484.31 185.621 462.956 183.642 447.081 187.045C415.846 193.739 386.255 209.648 359.149 227.9C340.085 240.736 322.136 254.815 305.692 267.713C298.782 273.134 292.137 278.346 285.787 283.17C275.02 291.348 265.103 298.412 256.099 303.574C247.068 308.752 239.135 311.909 232.315 312.466C225.628 313.013 219.975 311.072 215.227 305.851C210.378 300.519 206.361 291.637 203.455 278.081C197.519 250.385 185.202 225.505 172.092 203.419C165.913 193.009 159.542 183.196 153.575 174.004C153.212 173.445 152.85 172.887 152.49 172.332C146.203 162.643 140.425 153.677 135.796 145.372C131.162 137.058 127.745 129.521 126.12 122.702C124.501 115.909 124.686 109.95 127.103 104.663C129.524 99.3664 134.311 94.4693 142.427 90.0531C150.556 85.6303 161.908 81.7551 177.25 78.4668C192.357 75.2286 216.588 75.4247 247.668 78.5726C278.685 81.714 316.322 87.7715 358.13 96.1348C441.743 112.861 541.931 138.787 639.007 168.966C736.09 199.148 829.997 233.563 901.07 267.253C936.613 284.101 966.377 300.736 987.958 316.533C998.748 324.431 1007.44 332.084 1013.79 339.41C1020.14 346.748 1024.04 353.65 1025.41 360.045Z" stroke="#121C14" stroke-width="4"/></g><defs><clipPath id="clip0_50_138"><rect width="1169" height="252" rx="46" fill="white"/></clipPath></defs></svg>