<svg xmlns="http://www.w3.org/2000/svg" width="130.793" height="130" viewBox="0 0 130.793 130"><g id="Group_5440" data-name="Group 5440" transform="translate(0.397)"><g id="Path_32202" data-name="Path 32202" transform="translate(-0.397)" fill="none"><path d="M65.4,0c36.117,0,65.4,29.1,65.4,65s-29.279,65-65.4,65S0,100.9,0,65,29.279,0,65.4,0Z" stroke="none"></path><path d="M 65.39633941650391 6 C 32.64508819580078 6 6 32.46729278564453 6 65 C 6 97.53269958496094 32.64508819580078 124 65.39633941650391 124 C 98.14759063720703 124 124.7926788330078 97.53269958496094 124.7926788330078 65 C 124.7926788330078 32.46729278564453 98.14759063720703 6 65.39633941650391 6 M 65.39633941650391 0 C 101.5137481689453 0 130.7926788330078 29.10150146484375 130.7926788330078 65 C 130.7926788330078 100.8985214233398 101.5137481689453 130 65.39633941650391 130 C 29.27895355224609 130 0 100.8985214233398 0 65 C 0 29.10150146484375 29.27895355224609 0 65.39633941650391 0 Z" stroke="none" fill="#4fa83d"></path></g><text id="_" data-name="$" transform="translate(45.603 90)" fill="#4fa83d" font-size="71" font-family="SegoeUI, Segoe UI"><tspan x="0" y="0">$</tspan></text></g></svg>