<svg xmlns="http://www.w3.org/2000/svg" width="165" height="164" viewBox="0 0 165 164"><g id="Group_5440" data-name="Group 5440" transform="translate(0.397)"><g id="Path_32202" data-name="Path 32202" transform="translate(-0.397)" fill="none"><path d="M82.5,0C128.063,0,165,36.713,165,82s-36.937,82-82.5,82S0,127.287,0,82,36.937,0,82.5,0Z" stroke="none"></path><path d="M 82.5 6 C 40.31776428222656 6 6 40.09344482421875 6 82 C 6 123.9065551757812 40.31776428222656 158 82.5 158 C 124.6822357177734 158 159 123.9065551757812 159 82 C 159 40.09344482421875 124.6822357177734 6 82.5 6 M 82.5 0 C 128.0635070800781 0 165 36.71265411376953 165 82 C 165 127.2873382568359 128.0635070800781 164 82.5 164 C 36.93649291992188 164 0 127.2873382568359 0 82 C 0 36.71265411376953 36.93649291992188 0 82.5 0 Z" stroke="none" fill="#4fa83d"></path></g><text id="_" data-name="$" transform="translate(57.603 114)" fill="#4fa83d" font-size="91" font-family="SegoeUI, Segoe UI"><tspan x="0" y="0">$</tspan></text></g></svg>