<svg xmlns="http://www.w3.org/2000/svg" width="63" height="63" viewBox="0 0 63 63" fill="none"><rect width="62.32" height="62.32" rx="31.16" fill="url(#paint0_linear_2048_15631)" fill-opacity="0.7"></rect><path d="M32.5126 14.2265C33.1348 14.4128 33.8482 14.6228 34.0979 14.6981C34.7875 14.9003 41.4457 16.8621 43.4471 17.4526C44.4141 17.7379 45.2662 17.9995 45.3376 18.0312C45.4129 18.0669 45.5119 18.162 45.5595 18.2413L45.6507 18.3839L45.6625 23.1992C45.6784 29.0014 45.6507 29.7346 45.3495 31.5616C44.4102 37.2885 41.4298 42.294 37.0624 45.4844C35.9091 46.3246 34.621 47.0459 33.2498 47.6206C32.576 47.9019 31.3989 48.2864 31.2166 48.2864C31.0462 48.2864 30.4121 48.0961 29.6987 47.8306C25.3788 46.2215 21.6811 42.8766 19.3864 38.5091C17.9676 35.8062 17.1433 33.0042 16.8381 29.8178C16.7866 29.2511 16.7113 25.0897 16.7469 24.9589C16.8381 24.626 17.2106 24.412 17.5317 24.5071C17.7298 24.5665 17.9121 24.7488 17.9676 24.9391C17.9874 25.0183 18.0072 25.2641 18.0072 25.482C18.0072 26.2747 18.1777 30.4876 18.3481 31.4823C18.9862 35.2197 20.5199 38.5963 22.8463 41.3943C23.3061 41.9452 24.4237 43.0866 24.9587 43.5424C26.6431 44.9929 28.6762 46.1542 30.7014 46.824L31.2087 46.9904L31.712 46.824C36.5551 45.2149 40.5659 41.3349 42.7179 36.1788C43.4313 34.4666 43.9703 32.4375 44.2001 30.5708C44.3507 29.3541 44.3626 28.9142 44.3626 23.9324V19.0537L43.2014 18.7129C42.5673 18.5266 39.6068 17.6547 36.6264 16.7749L31.2087 15.1817L29.5521 15.6691C28.6405 15.9386 27.3882 16.3072 26.7659 16.4895C26.1437 16.6718 25.3788 16.8977 25.0618 16.9928C24.7447 17.084 23.0366 17.5873 21.265 18.1105L18.0469 19.0577V21.9905C18.0469 23.7937 18.031 24.9748 18.0072 25.058C17.9518 25.2522 17.7536 25.4424 17.5475 25.4979C17.3969 25.5415 17.3454 25.5375 17.2027 25.482C16.9847 25.3988 16.8381 25.2443 16.7826 25.0421C16.7232 24.8202 16.7232 18.6653 16.7826 18.4275C16.8064 18.3245 16.8777 18.2056 16.9491 18.1342C17.0878 17.9995 16.8698 18.0669 22.1686 16.5054C30.1703 14.1512 31.0819 13.8857 31.2285 13.8896C31.3117 13.8896 31.8904 14.0442 32.5126 14.2265Z" fill="#CFCFCF"></path><path d="M30.9381 22.2426C30.5847 22.3253 30.2895 22.5088 30.0859 22.7772C29.6453 23.3632 29.6967 24.1618 30.2089 24.6718C30.3096 24.7702 30.4371 24.8708 30.5199 24.9133L30.6585 24.9872V25.7141V26.4388H31.2289H31.7993V25.7141V24.9872L31.938 24.9133C32.155 24.7993 32.3988 24.5443 32.5106 24.3139C32.911 23.5041 32.5263 22.5736 31.6763 22.2896C31.4571 22.2157 31.1417 22.1956 30.9381 22.2426Z" fill="#C8C8C8"></path><path d="M27.2982 26.4635C24.9182 26.6245 22.9341 28.4252 22.5181 30.8007C22.4555 31.1586 22.4331 31.8318 22.4734 32.192C22.5986 33.3641 23.0907 34.4288 23.887 35.2631C24.4865 35.8917 25.1732 36.3323 25.9896 36.6142C26.1283 36.6611 26.3207 36.717 26.4146 36.7394L26.5891 36.7819L27.7187 36.8803L29.0496 36.8893L31.0627 36.8893L32.3041 36.8893L33.8587 36.8803C35.3149 36.8692 35.429 36.8669 35.6482 36.8244C36.7532 36.6052 37.6367 36.1556 38.395 35.4219C38.8491 34.9813 39.16 34.5563 39.4485 33.9747C39.7259 33.4177 39.8981 32.8295 39.9652 32.192C40.0055 31.8318 39.9831 31.1586 39.9205 30.8007C39.7371 29.7538 39.2606 28.8144 38.5337 28.0628C37.5987 27.0965 36.4333 26.553 35.0957 26.4613C34.702 26.4344 27.6963 26.4367 27.2982 26.4635ZM35.2903 27.7452C36.9299 27.9644 38.2742 29.1946 38.6321 30.8074C38.9229 32.1025 38.5449 33.4513 37.63 34.3975C37.2587 34.78 36.9768 34.9902 36.5272 35.2161C36.1023 35.4309 35.6482 35.5606 35.1673 35.6098C34.995 35.6277 33.7804 35.6322 31.0627 35.6277C27.4614 35.621 27.1908 35.6165 27.0029 35.5807C26.3922 35.4577 25.918 35.2631 25.4259 34.9321C25.0859 34.7017 24.6162 34.2297 24.3903 33.8875C23.7707 32.9503 23.5672 31.8766 23.8065 30.8074C24.1689 29.1812 25.5244 27.9532 27.193 27.7385C27.2736 27.7273 29.0742 27.7183 31.1969 27.7161C34.3889 27.7161 35.0957 27.7206 35.2903 27.7452Z" fill="#C8C8C8"></path><path d="M27.1934 28.6645C26.5716 28.7629 25.9766 29.0671 25.527 29.5145C25.0819 29.9596 24.8 30.4919 24.6748 31.1272C24.6188 31.4001 24.6188 31.9459 24.6748 32.221C24.923 33.4736 25.8513 34.4086 27.1039 34.6658C27.2806 34.7016 27.5781 34.7039 31.2197 34.7039C34.8612 34.7039 35.1587 34.7016 35.3354 34.6658C37.0734 34.3102 38.1493 32.6214 37.7176 30.9259C37.5789 30.3734 37.3217 29.9238 36.9124 29.5145C36.456 29.0604 35.8611 28.7606 35.2236 28.6645C34.9194 28.6175 27.4864 28.6197 27.1934 28.6645ZM28.7972 30.6754C28.9918 30.7268 29.1215 30.8029 29.2647 30.9438C29.8507 31.5298 29.5577 32.5118 28.7435 32.6795C28.3722 32.7578 27.9651 32.599 27.7258 32.2814C27.4148 31.8698 27.4752 31.2502 27.8622 30.9102C28.1217 30.6821 28.4796 30.5904 28.7972 30.6754ZM34.1387 30.6754C34.6062 30.8006 34.9104 31.1921 34.9104 31.673C34.9104 31.9101 34.8478 32.1047 34.7136 32.2814C34.2461 32.901 33.3044 32.8115 32.9666 32.1136C32.687 31.541 33.0069 30.8476 33.6309 30.6776C33.7696 30.6396 34 30.6373 34.1387 30.6754Z" fill="#C8C8C8"></path><defs><linearGradient id="paint0_linear_2048_15631" x1="25.0645" y1="26.7981" x2="45.4656" y2="62.1864" gradientUnits="userSpaceOnUse"><stop stop-color="#56B743"></stop><stop offset="1" stop-color="#083100"></stop></linearGradient></defs></svg>