<svg xmlns="http://www.w3.org/2000/svg" width="75" height="75" viewBox="0 0 75 75" fill="none"><rect width="74.8441" height="74.8441" rx="37.422" fill="url(#paint0_linear_1572_19631)" fill-opacity="0.7"></rect><path d="M47.9231 26.3462H37.7692V21.2692C37.7692 20.9326 37.6355 20.6098 37.3975 20.3717C37.1595 20.1337 36.8366 20 36.5 20C36.1634 20 35.8405 20.1337 35.6025 20.3717C35.3645 20.6098 35.2308 20.9326 35.2308 21.2692V26.3462H25.0769C23.7304 26.3462 22.4391 26.881 21.487 27.8331C20.5349 28.7853 20 30.0766 20 31.4231V49.1923C20 50.5388 20.5349 51.8301 21.487 52.7822C22.4391 53.7343 23.7304 54.2692 25.0769 54.2692H47.9231C49.2696 54.2692 50.5609 53.7343 51.513 52.7822C52.4651 51.8301 53 50.5388 53 49.1923V31.4231C53 30.0766 52.4651 28.7853 51.513 27.8331C50.5609 26.881 49.2696 26.3462 47.9231 26.3462ZM50.4615 49.1923C50.4615 49.8655 50.1941 50.5112 49.718 50.9873C49.242 51.4633 48.5963 51.7308 47.9231 51.7308H25.0769C24.4037 51.7308 23.758 51.4633 23.282 50.9873C22.8059 50.5112 22.5385 49.8655 22.5385 49.1923V31.4231C22.5385 30.7498 22.8059 30.1042 23.282 29.6281C23.758 29.1521 24.4037 28.8846 25.0769 28.8846H47.9231C48.5963 28.8846 49.242 29.1521 49.718 29.6281C50.1941 30.1042 50.4615 30.7498 50.4615 31.4231V49.1923Z" fill="#DDDDDD"></path><rect x="25.0762" y="33.9615" width="22.8462" height="12.6923" rx="1" fill="#DDDDDD"></rect><circle cx="32.0581" cy="39.6731" r="1.90385" fill="#408333"></circle><circle cx="40.9429" cy="39.6731" r="1.90385" fill="#408333"></circle><defs><linearGradient id="paint0_linear_1572_19631" x1="30.1016" y1="32.1836" x2="54.6025" y2="74.6836" gradientUnits="userSpaceOnUse"><stop stop-color="#56B743"></stop><stop offset="1" stop-color="#083100"></stop></linearGradient></defs></svg>