<svg xmlns="http://www.w3.org/2000/svg" width="119" height="53" viewBox="0 0 119 53" fill="none"><path d="M0 44.0625H1.04526V52.5855H0V44.0625Z" fill="#555555"></path><path d="M8.36225 48.6451V52.585H7.39738V48.7255C7.39738 48.243 7.23657 47.841 6.99536 47.5194C6.75414 47.1978 6.35212 47.037 5.86969 47.037C5.38726 47.037 4.98523 47.1978 4.66361 47.5194C4.34199 47.841 4.18117 48.243 4.18117 48.7255V52.585H3.21631V46.3133H4.18117V47.037C4.6636 46.4741 5.30685 46.2329 6.0305 46.2329C6.83455 46.2329 7.39738 46.4741 7.79941 46.8762C8.12103 47.2782 8.36225 47.841 8.36225 48.6451Z" fill="#555555"></path><path d="M13.9101 51.7811V52.5852C13.5081 52.6656 13.106 52.7459 12.8648 52.7459C12.2216 52.7459 11.6587 52.5851 11.3371 52.2635C10.9351 51.9419 10.7743 51.3791 10.7743 50.7358V47.198H9.729V46.3135H10.7743V44.625H11.7391V46.3135H13.6689V47.198H11.7391V50.6554C11.7391 50.977 11.8195 51.2182 11.8999 51.4595C12.0608 51.6203 12.2216 51.7811 12.4628 51.8615C12.704 51.9419 12.9452 51.9419 13.106 51.9419C13.3472 51.8615 13.5885 51.7811 13.9101 51.7811Z" fill="#555555"></path><path d="M20.7444 48.9669C20.7444 49.2081 20.7444 49.4493 20.664 49.6905H15.6789C15.7593 50.3338 16.0005 50.8162 16.4025 51.2182C16.8046 51.6202 17.3674 51.7811 18.0106 51.7811C18.6539 51.7811 19.2971 51.4594 19.86 50.8966L20.4228 51.5398C19.7796 52.2635 18.8951 52.6655 17.9302 52.6655C16.9654 52.6655 16.1613 52.3439 15.5181 51.7006C14.8748 51.0574 14.5532 50.2533 14.5532 49.3689C14.5532 48.404 14.8748 47.6804 15.5181 47.0371C16.1613 46.3939 16.885 46.0723 17.7694 46.0723C18.6539 46.0723 19.2971 46.3135 19.86 46.8763C20.5032 47.5196 20.7444 48.1628 20.7444 48.9669ZM15.7593 48.8865H19.7796C19.7796 48.3236 19.6188 47.9216 19.2167 47.6C18.8951 47.2783 18.4127 47.1175 17.8498 47.1175C17.287 47.1175 16.885 47.2783 16.4829 47.6C16.0809 47.9216 15.8397 48.3236 15.7593 48.8865Z" fill="#555555"></path><path d="M25.4079 46.2329C25.5687 46.2329 25.7296 46.2329 25.8904 46.3133V47.1978H25.4883C24.9255 47.1978 24.5235 47.3586 24.1214 47.6802C23.7194 48.0018 23.5586 48.4843 23.5586 49.0471V52.585H22.5938V46.3133H23.5586V47.1978C23.9606 46.5545 24.6039 46.2329 25.4079 46.2329Z" fill="#555555"></path><path d="M27.1768 42.9365H28.1416V52.6656H27.1768V42.9365Z" fill="#555555"></path><path d="M30.3935 43.4189C30.5543 43.2581 30.7151 43.1777 30.9564 43.1777C31.1976 43.1777 31.3584 43.2581 31.5192 43.4189C31.68 43.5798 31.7604 43.7406 31.7604 43.9014C31.7604 44.1426 31.68 44.3034 31.5192 44.3838C31.3584 44.5446 31.1976 44.625 31.0368 44.625C30.7956 44.625 30.6347 44.5446 30.4739 44.3838C30.3131 44.223 30.2327 44.0622 30.2327 43.9014C30.1523 43.6602 30.2327 43.4993 30.3935 43.4189ZM30.3935 46.3135H31.3584V52.5852H30.3935V46.3135Z" fill="#555555"></path><path d="M38.7553 48.6451V52.585H37.7905V48.7255C37.7905 48.243 37.6296 47.841 37.3884 47.5194C37.1472 47.1978 36.7452 47.037 36.2628 47.037C35.7803 47.037 35.3783 47.1978 35.0567 47.5194C34.7351 47.841 34.5742 48.243 34.5742 48.7255V52.585H33.6094V46.3133H34.5742V47.037C35.0567 46.4741 35.6999 46.2329 36.4236 46.2329C37.2276 46.2329 37.7905 46.4741 38.1925 46.8762C38.5945 47.2782 38.7553 47.841 38.7553 48.6451Z" fill="#555555"></path><path d="M41.8911 52.5855H40.9263V42.8564H41.8911V52.5855ZM45.9114 46.3139L43.1776 49.0476L46.1526 52.5855H44.8661L41.9715 49.0476L44.6249 46.3139H45.9114Z" fill="#555555"></path><path d="M58.6956 43.9014H59.2585V52.5852H57.4896V48.002L55.3186 50.7358H54.7558L52.5848 48.002V52.5852H50.8159V43.9014H51.3788L54.997 48.5649L58.6956 43.9014Z" fill="#555555"></path><path d="M65.1287 46.2329H66.8976V49.8512C66.8976 50.7356 66.6564 51.4593 66.0935 52.0221C65.5307 52.5849 64.807 52.8262 64.003 52.8262C63.1185 52.8262 62.3949 52.5849 61.9125 52.0221C61.3496 51.4593 61.1084 50.7356 61.1084 49.8512V46.2329H62.8773V49.9316C62.8773 50.3336 62.9577 50.5748 63.1989 50.816C63.4402 51.0572 63.6814 51.1376 64.0834 51.1376C64.405 51.1376 64.7266 51.0572 64.9679 50.816C65.2091 50.5748 65.2895 50.2532 65.2895 49.9316V46.2329H65.1287Z" fill="#555555"></path><path d="M68.5054 42.9365H70.2743V52.6656H68.5054V42.9365Z" fill="#555555"></path><path d="M75.2595 51.2182C75.4203 51.2182 75.6616 51.2182 76.0636 51.1378V52.5852C75.6616 52.6656 75.2595 52.7459 74.8575 52.7459C74.0534 52.7459 73.4102 52.5047 72.9278 52.1027C72.4453 51.7007 72.2845 51.1378 72.2845 50.3338V47.6804H71.2393V46.2331H72.2845V44.625H74.0534V46.2331H75.9028V47.6804H74.0534V50.173C74.0534 50.575 74.1338 50.8162 74.2947 50.977C74.5359 51.1379 74.8575 51.2182 75.2595 51.2182Z" fill="#555555"></path><path d="M77.4305 43.0975C77.6717 42.8563 77.9129 42.7759 78.2346 42.7759C78.5562 42.7759 78.7974 42.8563 79.0386 43.0975C79.2798 43.3387 79.3602 43.5799 79.3602 43.9015C79.3602 44.2232 79.2798 44.4644 79.0386 44.7056C78.7974 44.9468 78.5562 45.0272 78.2346 45.0272C77.9129 45.0272 77.6717 44.9468 77.4305 44.7056C77.1893 44.4644 77.1089 44.2232 77.1089 43.9015C77.1089 43.5799 77.2697 43.2583 77.4305 43.0975ZM77.3501 46.2333H79.119V52.6657H77.3501V46.2333Z" fill="#555555"></path><path d="M92.3856 43.9014H92.9484V52.5852H91.1795V48.002L89.0086 50.7358H88.4457L86.2748 48.002V52.5852H84.5059V43.9014H85.0687L88.6869 48.5649L92.3856 43.9014Z" fill="#555555"></path><path d="M100.667 49.0472C100.667 49.3689 100.667 49.6905 100.587 50.0121H96.084C96.1644 50.4142 96.4056 50.7358 96.7273 50.977C97.0489 51.2182 97.4509 51.2986 97.9334 51.2986C98.5766 51.2986 99.1394 51.0574 99.7023 50.6554L100.426 51.8614C99.6219 52.5047 98.8178 52.8263 97.8529 52.8263C96.8881 52.8263 96.084 52.5047 95.3604 51.8614C94.7171 51.2182 94.3955 50.4141 94.3955 49.4493C94.3955 48.4844 94.7171 47.6804 95.3604 47.0371C96.0036 46.3939 96.8077 46.0723 97.6921 46.0723C98.657 46.0723 99.3806 46.3939 99.9435 46.9567C100.346 47.5196 100.667 48.1628 100.667 49.0472ZM96.0036 48.7256H98.8982C98.8982 48.3236 98.7374 48.002 98.4962 47.7608C98.255 47.5196 97.9334 47.4391 97.5313 47.4391C97.1293 47.4391 96.8077 47.5196 96.5665 47.7608C96.3252 48.0824 96.1644 48.3236 96.0036 48.7256Z" fill="#555555"></path><path d="M106.698 46.7963V42.8564H108.467V52.5855H106.859V51.7814C106.376 52.4247 105.733 52.7463 104.768 52.7463C103.884 52.7463 103.08 52.4247 102.517 51.7814C101.954 51.1382 101.632 50.3341 101.632 49.3693C101.632 48.4044 101.954 47.6004 102.517 46.9571C103.08 46.3139 103.803 45.9922 104.688 45.9922C105.572 45.9922 106.215 46.3139 106.698 46.7963ZM103.884 50.6558C104.205 50.9774 104.607 51.1382 105.009 51.1382C105.411 51.1382 105.894 50.9774 106.135 50.7362C106.457 50.4145 106.617 50.0125 106.617 49.4497C106.617 48.8868 106.457 48.4044 106.135 48.1632C105.813 47.8416 105.411 47.6808 105.009 47.6808C104.607 47.6808 104.205 47.8416 103.884 48.1632C103.562 48.4848 103.401 48.8868 103.401 49.4497C103.401 49.9321 103.562 50.3341 103.884 50.6558Z" fill="#555555"></path><path d="M110.236 43.0975C110.477 42.8563 110.718 42.7759 111.04 42.7759C111.361 42.7759 111.603 42.8563 111.844 43.0975C112.085 43.3387 112.165 43.5799 112.165 43.9015C112.165 44.2232 112.085 44.4644 111.844 44.7056C111.603 44.9468 111.361 45.0272 111.04 45.0272C110.718 45.0272 110.477 44.9468 110.236 44.7056C109.994 44.4644 109.914 44.2232 109.914 43.9015C109.914 43.5799 109.994 43.2583 110.236 43.0975ZM110.155 46.2333H111.924V52.6657H110.155V46.2333Z" fill="#555555"></path><path d="M116.266 46.0723C117.15 46.0723 117.794 46.3135 118.276 46.7959C118.759 47.2783 119 47.9216 119 48.806V52.5851H117.392V51.9418C116.909 52.4243 116.266 52.7459 115.542 52.7459C114.819 52.7459 114.256 52.5851 113.854 52.1831C113.452 51.8615 113.291 51.379 113.291 50.8162C113.291 50.2533 113.532 49.7709 113.934 49.4493C114.336 49.1277 114.98 48.9669 115.703 48.9669H117.311V48.6452C117.311 48.3236 117.231 48.002 116.99 47.8412C116.748 47.6804 116.507 47.5196 116.105 47.5196C115.542 47.5196 114.98 47.8412 114.417 48.404L113.532 47.3588C114.175 46.4743 115.14 46.0723 116.266 46.0723ZM117.231 50.1729L115.864 50.0925C115.301 50.0925 114.98 50.3337 114.98 50.7358C114.98 51.2182 115.301 51.4594 115.944 51.4594C116.266 51.4594 116.588 51.379 116.829 51.1378C117.15 50.8966 117.231 50.575 117.231 50.1729Z" fill="#555555"></path><path d="M0 44.0625H1.04526V52.5855H0V44.0625Z" fill="#555555"></path><path d="M8.36225 48.6456V52.5854H7.39738V48.726C7.39738 48.2435 7.23657 47.8415 6.99536 47.5199C6.75414 47.1983 6.35212 47.0375 5.86969 47.0375C5.38726 47.0375 4.98523 47.1983 4.66361 47.5199C4.34199 47.8415 4.18117 48.2435 4.18117 48.726V52.5854H3.21631V46.3138H4.18117V47.0375C4.6636 46.4746 5.30685 46.2334 6.0305 46.2334C6.83455 46.2334 7.39738 46.4746 7.79941 46.8767C8.12103 47.2787 8.36225 47.8415 8.36225 48.6456Z" fill="#555555"></path><path d="M13.9101 51.7811V52.5852C13.5081 52.6656 13.106 52.7459 12.8648 52.7459C12.2216 52.7459 11.6587 52.5851 11.3371 52.2635C10.9351 51.9419 10.7743 51.3791 10.7743 50.7358V47.198H9.729V46.3135H10.7743V44.625H11.7391V46.3135H13.6689V47.198H11.7391V50.6554C11.7391 50.977 11.8195 51.2182 11.8999 51.4595C12.0608 51.6203 12.2216 51.7811 12.4628 51.8615C12.704 51.9419 12.9452 51.9419 13.106 51.9419C13.3472 51.8615 13.5885 51.7811 13.9101 51.7811Z" fill="#555555"></path><path d="M20.7444 48.9674C20.7444 49.2086 20.7444 49.4498 20.664 49.691H15.6789C15.7593 50.3342 16.0005 50.8167 16.4025 51.2187C16.8046 51.6207 17.3674 51.7815 18.0106 51.7815C18.6539 51.7815 19.2971 51.4599 19.86 50.8971L20.4228 51.5403C19.7796 52.264 18.8951 52.666 17.9302 52.666C16.9654 52.666 16.1613 52.3444 15.5181 51.7011C14.8748 51.0579 14.5532 50.2538 14.5532 49.3694C14.5532 48.4045 14.8748 47.6808 15.5181 47.0376C16.1613 46.3944 16.885 46.0728 17.7694 46.0728C18.6539 46.0728 19.2971 46.314 19.86 46.8768C20.5032 47.5201 20.7444 48.1633 20.7444 48.9674ZM15.7593 48.8869H19.7796C19.7796 48.3241 19.6188 47.9221 19.2167 47.6005C18.8951 47.2788 18.4127 47.118 17.8498 47.118C17.287 47.118 16.885 47.2788 16.4829 47.6005C16.0809 47.9221 15.8397 48.3241 15.7593 48.8869Z" fill="#555555"></path><path d="M25.4079 46.2334C25.5687 46.2334 25.7296 46.2334 25.8904 46.3138V47.1983H25.4883C24.9255 47.1983 24.5235 47.3591 24.1214 47.6807C23.7194 48.0023 23.5586 48.4847 23.5586 49.0476V52.5854H22.5938V46.3138H23.5586V47.1983C23.9606 46.555 24.6039 46.2334 25.4079 46.2334Z" fill="#555555"></path><path d="M27.1768 42.9365H28.1416V52.6656H27.1768V42.9365Z" fill="#555555"></path><path d="M30.3935 43.4189C30.5543 43.2581 30.7151 43.1777 30.9564 43.1777C31.1976 43.1777 31.3584 43.2581 31.5192 43.4189C31.68 43.5798 31.7604 43.7406 31.7604 43.9014C31.7604 44.1426 31.68 44.3034 31.5192 44.3838C31.3584 44.5446 31.1976 44.625 31.0368 44.625C30.7956 44.625 30.6347 44.5446 30.4739 44.3838C30.3131 44.223 30.2327 44.0622 30.2327 43.9014C30.1523 43.6602 30.2327 43.4993 30.3935 43.4189ZM30.3935 46.3135H31.3584V52.5852H30.3935V46.3135Z" fill="#555555"></path><path d="M38.7553 48.6456V52.5854H37.7905V48.726C37.7905 48.2435 37.6296 47.8415 37.3884 47.5199C37.1472 47.1983 36.7452 47.0375 36.2628 47.0375C35.7803 47.0375 35.3783 47.1983 35.0567 47.5199C34.7351 47.8415 34.5742 48.2435 34.5742 48.726V52.5854H33.6094V46.3138H34.5742V47.0375C35.0567 46.4746 35.6999 46.2334 36.4236 46.2334C37.2276 46.2334 37.7905 46.4746 38.1925 46.8767C38.5945 47.2787 38.7553 47.8415 38.7553 48.6456Z" fill="#555555"></path><path d="M41.8911 52.5855H40.9263V42.8564H41.8911V52.5855ZM45.9114 46.3139L43.1776 49.0476L46.1526 52.5855H44.8661L41.9715 49.0476L44.6249 46.3139H45.9114Z" fill="#555555"></path><path d="M58.6956 43.9014H59.2585V52.5852H57.4896V48.002L55.3186 50.7358H54.7558L52.5848 48.002V52.5852H50.8159V43.9014H51.3788L54.997 48.5649L58.6956 43.9014Z" fill="#555555"></path><path d="M65.1287 46.2334H66.8976V49.8516C66.8976 50.7361 66.6564 51.4598 66.0935 52.0226C65.5307 52.5854 64.807 52.8266 64.003 52.8266C63.1185 52.8266 62.3949 52.5854 61.9125 52.0226C61.3496 51.4598 61.1084 50.7361 61.1084 49.8516V46.2334H62.8773V49.9321C62.8773 50.3341 62.9577 50.5753 63.1989 50.8165C63.4402 51.0577 63.6814 51.1381 64.0834 51.1381C64.405 51.1381 64.7266 51.0577 64.9679 50.8165C65.2091 50.5753 65.2895 50.2537 65.2895 49.9321V46.2334H65.1287Z" fill="#555555"></path><path d="M68.5054 42.9365H70.2743V52.6656H68.5054V42.9365Z" fill="#555555"></path><path d="M75.2595 51.2182C75.4203 51.2182 75.6616 51.2182 76.0636 51.1378V52.5852C75.6616 52.6656 75.2595 52.7459 74.8575 52.7459C74.0534 52.7459 73.4102 52.5047 72.9278 52.1027C72.4453 51.7007 72.2845 51.1378 72.2845 50.3338V47.6804H71.2393V46.2331H72.2845V44.625H74.0534V46.2331H75.9028V47.6804H74.0534V50.173C74.0534 50.575 74.1338 50.8162 74.2947 50.977C74.5359 51.1379 74.8575 51.2182 75.2595 51.2182Z" fill="#555555"></path><path d="M77.4305 43.0975C77.6717 42.8563 77.9129 42.7759 78.2346 42.7759C78.5562 42.7759 78.7974 42.8563 79.0386 43.0975C79.2798 43.3387 79.3602 43.5799 79.3602 43.9015C79.3602 44.2232 79.2798 44.4644 79.0386 44.7056C78.7974 44.9468 78.5562 45.0272 78.2346 45.0272C77.9129 45.0272 77.6717 44.9468 77.4305 44.7056C77.1893 44.4644 77.1089 44.2232 77.1089 43.9015C77.1089 43.5799 77.2697 43.2583 77.4305 43.0975ZM77.3501 46.2333H79.119V52.6657H77.3501V46.2333Z" fill="#555555"></path><path d="M92.3856 43.9014H92.9484V52.5852H91.1795V48.002L89.0086 50.7358H88.4457L86.2748 48.002V52.5852H84.5059V43.9014H85.0687L88.6869 48.5649L92.3856 43.9014Z" fill="#555555"></path><path d="M100.667 49.0477C100.667 49.3694 100.667 49.691 100.587 50.0126H96.084C96.1644 50.4146 96.4056 50.7363 96.7273 50.9775C97.0489 51.2187 97.4509 51.2991 97.9334 51.2991C98.5766 51.2991 99.1394 51.0579 99.7023 50.6558L100.426 51.8619C99.6219 52.5052 98.8178 52.8268 97.8529 52.8268C96.8881 52.8268 96.084 52.5052 95.3604 51.8619C94.7171 51.2187 94.3955 50.4146 94.3955 49.4498C94.3955 48.4849 94.7171 47.6808 95.3604 47.0376C96.0036 46.3944 96.8077 46.0728 97.6921 46.0728C98.657 46.0728 99.3806 46.3944 99.9435 46.9572C100.346 47.5201 100.667 48.1633 100.667 49.0477ZM96.0036 48.7261H98.8982C98.8982 48.3241 98.7374 48.0025 98.4962 47.7613C98.255 47.5201 97.9334 47.4396 97.5313 47.4396C97.1293 47.4396 96.8077 47.5201 96.5665 47.7613C96.3252 48.0829 96.1644 48.3241 96.0036 48.7261Z" fill="#555555"></path><path d="M106.698 46.7963V42.8564H108.467V52.5855H106.859V51.7814C106.376 52.4247 105.733 52.7463 104.768 52.7463C103.884 52.7463 103.08 52.4247 102.517 51.7814C101.954 51.1382 101.632 50.3341 101.632 49.3693C101.632 48.4044 101.954 47.6004 102.517 46.9571C103.08 46.3139 103.803 45.9922 104.688 45.9922C105.572 45.9922 106.215 46.3139 106.698 46.7963ZM103.884 50.6558C104.205 50.9774 104.607 51.1382 105.009 51.1382C105.411 51.1382 105.894 50.9774 106.135 50.7362C106.457 50.4145 106.617 50.0125 106.617 49.4497C106.617 48.8868 106.457 48.4044 106.135 48.1632C105.813 47.8416 105.411 47.6808 105.009 47.6808C104.607 47.6808 104.205 47.8416 103.884 48.1632C103.562 48.4848 103.401 48.8868 103.401 49.4497C103.401 49.9321 103.562 50.3341 103.884 50.6558Z" fill="#555555"></path><path d="M110.236 43.0975C110.477 42.8563 110.718 42.7759 111.04 42.7759C111.361 42.7759 111.603 42.8563 111.844 43.0975C112.085 43.3387 112.165 43.5799 112.165 43.9015C112.165 44.2232 112.085 44.4644 111.844 44.7056C111.603 44.9468 111.361 45.0272 111.04 45.0272C110.718 45.0272 110.477 44.9468 110.236 44.7056C109.994 44.4644 109.914 44.2232 109.914 43.9015C109.914 43.5799 109.994 43.2583 110.236 43.0975ZM110.155 46.2333H111.924V52.6657H110.155V46.2333Z" fill="#555555"></path><path d="M116.266 46.0728C117.15 46.0728 117.794 46.314 118.276 46.7964C118.759 47.2788 119 47.9221 119 48.8065V52.5856H117.392V51.9423C116.909 52.4248 116.266 52.7464 115.542 52.7464C114.819 52.7464 114.256 52.5856 113.854 52.1836C113.452 51.8619 113.291 51.3795 113.291 50.8167C113.291 50.2538 113.532 49.7714 113.934 49.4498C114.336 49.1281 114.98 48.9674 115.703 48.9674H117.311V48.6457C117.311 48.3241 117.231 48.0025 116.99 47.8417C116.748 47.6808 116.507 47.52 116.105 47.52C115.542 47.52 114.98 47.8417 114.417 48.4045L113.532 47.3592C114.175 46.4748 115.14 46.0728 116.266 46.0728ZM117.231 50.1734L115.864 50.093C115.301 50.093 114.98 50.3342 114.98 50.7363C114.98 51.2187 115.301 51.4599 115.944 51.4599C116.266 51.4599 116.588 51.3795 116.829 51.1383C117.15 50.8971 117.231 50.5755 117.231 50.1734Z" fill="#555555"></path><path d="M44.4644 37.9513L45.7508 16.1615L40.6049 28.6243L38.9164 20.1818L35.861 27.5791H21.79V24.8453H34.0117L39.8812 10.6939L41.5698 19.1365L49.4495 0L47.9218 26.0514L52.4245 17.9304L53.711 24.8453L61.1887 7.63851V24.9257H97.2103V27.6595H58.4549V20.7446L52.5853 34.1723L51.138 25.9709L44.4644 37.9513Z" fill="#555555"></path><path d="M30.4736 23.961L35.4588 12.5435L36.9865 15.1164L33.127 23.961H30.4736Z" fill="#555555"></path><path d="M36.1021 11.0961L38.5946 5.46777L39.4791 9.64884L37.6298 13.8299L36.1021 11.0961Z" fill="#555555"></path></svg>