<svg xmlns="http://www.w3.org/2000/svg" width="16" height="16" viewBox="0 0 16 16" fill="none"><path d="M15.8671 6.61333C15.2271 2.85333 11.9471 0 8.00046 0C4.05379 0 0.773789 2.85333 0.133789 6.61333L8.00046 2.66667L15.8671 6.61333ZM0.133789 9.38667C0.773789 13.1467 4.05379 16 8.00046 16C11.9471 16 15.2271 13.1467 15.8671 9.38667L8.00046 13.3333L0.133789 9.38667Z" fill="#699635"></path><path d="M8 2.66675L0.133333 6.61341C0.0533333 7.06675 0 7.52008 0 8.00008C0 8.48008 0.0533333 8.93342 0.133333 9.38675L8 13.3334L15.8667 9.38675C15.9467 8.93342 16 8.48008 16 8.00008C16 7.52008 15.9467 7.06675 15.8667 6.61341L8 2.66675Z" fill="#FFE62E"></path><path d="M6.4 7.04004C5.54667 7.04004 4.74667 7.22671 4.02667 7.54671C4 7.70671 4 7.84004 4 8.00004C4 10.2134 5.78667 12 8 12C9.49333 12 10.8 11.1734 11.4933 9.97337C10.5067 8.24004 8.58667 7.04004 6.4 7.04004Z" fill="#428BC1"></path><path d="M11.9471 8.64C11.9737 8.42667 12.0004 8.21333 12.0004 8C12.0004 5.78667 10.2137 4 8.00039 4C6.42706 4 5.06706 4.90667 4.40039 6.24C5.04039 6.05333 5.70706 5.94667 6.40039 5.94667C8.66706 5.94667 10.6671 7.01333 11.9471 8.64Z" fill="#428BC1"></path><path d="M6.3997 5.94678C5.70637 5.94678 5.0397 6.05344 4.3997 6.24011C4.21303 6.64011 4.0797 7.06678 4.02637 7.54678C4.74637 7.22678 5.54637 7.04011 6.3997 7.04011C8.58637 7.04011 10.5064 8.21344 11.493 9.94678C11.733 9.54678 11.8664 9.09344 11.9464 8.64011C10.6664 7.01344 8.66637 5.94678 6.3997 5.94678Z" fill="white"></path><path d="M5.33307 8.26673C5.48035 8.26673 5.59974 8.14734 5.59974 8.00007C5.59974 7.85279 5.48035 7.7334 5.33307 7.7334C5.1858 7.7334 5.06641 7.85279 5.06641 8.00007C5.06641 8.14734 5.1858 8.26673 5.33307 8.26673Z" fill="white"></path><path d="M6.40046 9.86659C6.54773 9.86659 6.66712 9.74719 6.66712 9.59992C6.66712 9.45264 6.54773 9.33325 6.40046 9.33325C6.25318 9.33325 6.13379 9.45264 6.13379 9.59992C6.13379 9.74719 6.25318 9.86659 6.40046 9.86659Z" fill="white"></path><path d="M8.00007 9.86659C8.14734 9.86659 8.26673 9.74719 8.26673 9.59992C8.26673 9.45264 8.14734 9.33325 8.00007 9.33325C7.85279 9.33325 7.7334 9.45264 7.7334 9.59992C7.7334 9.74719 7.85279 9.86659 8.00007 9.86659Z" fill="white"></path><path d="M8.00007 10.9332C8.14734 10.9332 8.26673 10.8138 8.26673 10.6666C8.26673 10.5193 8.14734 10.3999 8.00007 10.3999C7.85279 10.3999 7.7334 10.5193 7.7334 10.6666C7.7334 10.8138 7.85279 10.9332 8.00007 10.9332Z" fill="white"></path><path d="M10.1329 9.86659C10.2802 9.86659 10.3995 9.74719 10.3995 9.59992C10.3995 9.45264 10.2802 9.33325 10.1329 9.33325C9.9856 9.33325 9.86621 9.45264 9.86621 9.59992C9.86621 9.74719 9.9856 9.86659 10.1329 9.86659Z" fill="white"></path><path d="M10.1329 10.9332C10.2802 10.9332 10.3995 10.8138 10.3995 10.6666C10.3995 10.5193 10.2802 10.3999 10.1329 10.3999C9.9856 10.3999 9.86621 10.5193 9.86621 10.6666C9.86621 10.8138 9.9856 10.9332 10.1329 10.9332Z" fill="white"></path><path d="M9.06647 10.4C9.21375 10.4 9.33314 10.2806 9.33314 10.1334C9.33314 9.98609 9.21375 9.8667 9.06647 9.8667C8.9192 9.8667 8.7998 9.98609 8.7998 10.1334C8.7998 10.2806 8.9192 10.4 9.06647 10.4Z" fill="white"></path><path d="M5.33307 9.33338C5.48035 9.33338 5.59974 9.21399 5.59974 9.06672C5.59974 8.91944 5.48035 8.80005 5.33307 8.80005C5.1858 8.80005 5.06641 8.91944 5.06641 9.06672C5.06641 9.21399 5.1858 9.33338 5.33307 9.33338Z" fill="white"></path></svg>