<svg xmlns="http://www.w3.org/2000/svg" width="34" height="21" viewBox="0 0 34 21" fill="none"><g id="ARGENTINA_3_"><g id="Group"><g id="Group_2"><g id="Clip path group"><mask id="mask0_9372_29170" style="mask-type:luminance" maskUnits="userSpaceOnUse" x="0" y="0" width="34" height="21"><g id="SVGID_00000012473933159049166170000017986931784094641044_"><path id="Vector" d="M33.7805 0.711914H0.219482V20.2879H33.7805V0.711914Z" fill="white"></path></g></mask><g mask="url(#mask0_9372_29170)"><path id="Vector_2" d="M33.7805 7.23779H0.219482V13.7638H33.7805V7.23779Z" fill="white"></path></g></g><g id="Clip path group_2"><mask id="mask1_9372_29170" style="mask-type:luminance" maskUnits="userSpaceOnUse" x="0" y="0" width="34" height="21"><g id="SVGID_00000012473933159049166170000017986931784094641044__2"><path id="Vector_3" d="M33.7805 0.711914H0.219482V20.2879H33.7805V0.711914Z" fill="white"></path></g></mask><g mask="url(#mask1_9372_29170)"><path id="Vector_4" d="M33.7805 0.711914H0.219482V7.23691H33.7805V0.711914Z" fill="#80A7D8"></path></g></g><g id="Clip path group_3"><mask id="mask2_9372_29170" style="mask-type:luminance" maskUnits="userSpaceOnUse" x="0" y="0" width="34" height="21"><g id="SVGID_00000012473933159049166170000017986931784094641044__3"><path id="Vector_5" d="M33.7805 0.711914H0.219482V20.2879H33.7805V0.711914Z" fill="white"></path></g></mask><g mask="url(#mask2_9372_29170)"><path id="Vector_6" d="M33.7805 13.7639H0.219482V20.2879H33.7805V13.7639Z" fill="#80A7D8"></path></g></g><g id="Clip path group_4"><mask id="mask3_9372_29170" style="mask-type:luminance" maskUnits="userSpaceOnUse" x="0" y="0" width="34" height="21"><g id="SVGID_00000012473933159049166170000017986931784094641044__4"><path id="Vector_7" d="M33.7805 0.711914H0.219482V20.2879H33.7805V0.711914Z" fill="white"></path></g></mask><g mask="url(#mask3_9372_29170)"><g id="Group_3"><g id="Clip path group_5"><mask id="mask4_9372_29170" style="mask-type:luminance" maskUnits="userSpaceOnUse" x="0" y="0" width="34" height="21"><g id="SVGID_00000151534517732836159610000008493432865168197048_"><path id="Vector_8" d="M33.7805 0.711914H0.219482V20.2879H33.7805V0.711914Z" fill="white"></path></g></mask><g mask="url(#mask4_9372_29170)"><path id="Vector_9" d="M16.8655 10.4978L16.9675 13.1698C16.9675 13.1698 16.9674 13.2198 17.0004 13.2198C17.0314 13.2198 17.0314 13.1698 17.0314 13.1698L17.1335 10.4978H16.8655Z" fill="#F1BD51"></path></g></g><g id="Clip path group_6"><mask id="mask5_9372_29170" style="mask-type:luminance" maskUnits="userSpaceOnUse" x="0" y="0" width="34" height="21"><g id="SVGID_00000151534517732836159610000008493432865168197048__2"><path id="Vector_10" d="M33.7805 0.711914H0.219482V20.2879H33.7805V0.711914Z" fill="white"></path></g></mask><g mask="url(#mask5_9372_29170)"><g id="Group_4"><path id="Vector_11" d="M17.0004 13.2268C16.9674 13.2268 16.9594 13.1878 16.9594 13.1688L16.8574 10.4998L16.8754 10.4968L16.9734 13.1688C16.9734 13.1688 16.9734 13.2098 17.0004 13.2098C17.0234 13.2098 17.0234 13.1688 17.0234 13.1688L17.1254 10.4968L17.0434 13.1688C17.0434 13.1878 17.0314 13.2268 17.0004 13.2268Z" fill="#7A361D"></path></g></g></g><g id="Clip path group_7"><mask id="mask6_9372_29170" style="mask-type:luminance" maskUnits="userSpaceOnUse" x="0" y="0" width="34" height="21"><g id="SVGID_00000151534517732836159610000008493432865168197048__3"><path id="Vector_12" d="M33.7805 0.711914H0.219482V20.2879H33.7805V0.711914Z" fill="white"></path></g></mask><g mask="url(#mask6_9372_29170)"><path id="Vector_13" d="M16.9346 10.4978L17.0005 12.3328L17.0656 10.4978H16.9346Z" fill="#7A361D"></path></g></g><g id="Clip path group_8"><mask id="mask7_9372_29170" style="mask-type:luminance" maskUnits="userSpaceOnUse" x="0" y="0" width="34" height="21"><g id="SVGID_00000151534517732836159610000008493432865168197048__4"><path id="Vector_14" d="M33.7805 0.711914H0.219482V20.2879H33.7805V0.711914Z" fill="white"></path></g></mask><g mask="url(#mask7_9372_29170)"><path id="Vector_15" d="M16.7485 11.3618C16.5965 11.6978 16.7235 11.9718 16.5745 12.2648C16.4185 12.5578 16.5135 12.7988 16.5065 12.9348C16.4945 13.0698 16.3875 13.1078 16.4125 13.1388C16.4415 13.1688 16.5565 13.1088 16.6005 12.9278C16.6455 12.7488 16.5395 12.6468 16.7195 12.2868C16.9055 11.9268 16.7605 11.7648 16.9465 11.4428L16.7485 11.3618Z" fill="#F1BD51"></path></g></g><g id="Clip path group_9"><mask id="mask8_9372_29170" style="mask-type:luminance" maskUnits="userSpaceOnUse" x="0" y="0" width="34" height="21"><g id="SVGID_00000151534517732836159610000008493432865168197048__5"><path id="Vector_16" d="M33.7805 0.711914H0.219482V20.2879H33.7805V0.711914Z" fill="white"></path></g></mask><g mask="url(#mask8_9372_29170)"><g id="Group_5"><path id="Vector_17" d="M16.4425 13.1539L16.4055 13.1439C16.3915 13.1239 16.4055 13.1049 16.4265 13.0829C16.4515 13.0539 16.4925 13.0089 16.4945 12.9329C16.4985 12.8969 16.4945 12.8539 16.4885 12.8029C16.4725 12.6659 16.4515 12.4789 16.5665 12.2619C16.6405 12.1159 16.6445 11.9769 16.6505 11.8289C16.6545 11.6819 16.6625 11.5279 16.7425 11.3579L16.7566 11.3639C16.6806 11.5309 16.6725 11.6829 16.6685 11.8299C16.6625 11.9769 16.6545 12.1209 16.5825 12.2679C16.4695 12.4799 16.4926 12.6679 16.5066 12.8029C16.5106 12.8539 16.5145 12.8969 16.5145 12.9349C16.5065 13.0159 16.4656 13.0619 16.4386 13.0939C16.4186 13.1159 16.4135 13.1239 16.4185 13.1329C16.4845 13.1239 16.5616 13.0599 16.5946 12.9259C16.6086 12.8669 16.6085 12.8159 16.6045 12.7599C16.5965 12.6479 16.5945 12.5229 16.7155 12.2829C16.8075 12.1049 16.8175 11.9759 16.8245 11.8519C16.8325 11.7229 16.8445 11.6009 16.9375 11.4379C16.8575 11.6069 16.8496 11.7259 16.8396 11.8519C16.8316 11.9769 16.8206 12.1109 16.7306 12.2899C16.6116 12.5259 16.6155 12.6499 16.6175 12.7579C16.6215 12.8169 16.6216 12.8679 16.6076 12.9319C16.5746 13.0619 16.5025 13.1389 16.4475 13.1529L16.4425 13.1539Z" fill="#7A361D"></path></g></g></g><g id="Clip path group_10"><mask id="mask9_9372_29170" style="mask-type:luminance" maskUnits="userSpaceOnUse" x="0" y="0" width="34" height="21"><g id="SVGID_00000151534517732836159610000008493432865168197048__6"><path id="Vector_18" d="M33.7805 0.711914H0.219482V20.2879H33.7805V0.711914Z" fill="white"></path></g></mask><g mask="url(#mask9_9372_29170)"><path id="Vector_19" d="M16.7935 11.447C16.6725 11.782 16.7975 12.003 16.6375 12.288C16.8155 12.084 16.6985 11.822 16.8505 11.475L16.7935 11.447Z" fill="#7A361D"></path></g></g><g id="Clip path group_11"><mask id="mask10_9372_29170" style="mask-type:luminance" maskUnits="userSpaceOnUse" x="0" y="0" width="34" height="21"><g id="SVGID_00000151534517732836159610000008493432865168197048__7"><path id="Vector_20" d="M33.7805 0.711914H0.219482V20.2879H33.7805V0.711914Z" fill="white"></path></g></mask><g mask="url(#mask10_9372_29170)"><path id="Vector_21" d="M17.1335 10.498L17.0314 7.83098C17.0314 7.83098 17.0314 7.78198 17.0004 7.78198C16.9674 7.78198 16.9675 7.83098 16.9675 7.83098L16.8655 10.498H17.1335Z" fill="#F1BD51"></path></g></g><g id="Clip path group_12"><mask id="mask11_9372_29170" style="mask-type:luminance" maskUnits="userSpaceOnUse" x="0" y="0" width="34" height="21"><g id="SVGID_00000151534517732836159610000008493432865168197048__8"><path id="Vector_22" d="M33.7805 0.711914H0.219482V20.2879H33.7805V0.711914Z" fill="white"></path></g></mask><g mask="url(#mask11_9372_29170)"><g id="Group_6"><path id="Vector_23" d="M17.1255 10.501L17.0235 7.832C17.0235 7.832 17.0235 7.789 17.0005 7.789C16.9735 7.789 16.9735 7.83099 16.9735 7.83099L16.8755 10.501L16.9595 7.83099C16.9595 7.80999 16.9675 7.771 17.0005 7.771C17.0315 7.771 17.0435 7.80899 17.0435 7.83099L17.1455 10.498L17.1255 10.501Z" fill="#7A361D"></path></g></g></g><g id="Clip path group_13"><mask id="mask12_9372_29170" style="mask-type:luminance" maskUnits="userSpaceOnUse" x="0" y="0" width="34" height="21"><g id="SVGID_00000151534517732836159610000008493432865168197048__9"><path id="Vector_24" d="M33.7805 0.711914H0.219482V20.2879H33.7805V0.711914Z" fill="white"></path></g></mask><g mask="url(#mask12_9372_29170)"><path id="Vector_25" d="M17.0656 10.4979L17.0005 8.66895L16.9346 10.4979H17.0656Z" fill="#7A361D"></path></g></g><g id="Clip path group_14"><mask id="mask13_9372_29170" style="mask-type:luminance" maskUnits="userSpaceOnUse" x="0" y="0" width="34" height="21"><g id="SVGID_00000151534517732836159610000008493432865168197048__10"><path id="Vector_26" d="M33.7805 0.711914H0.219482V20.2879H33.7805V0.711914Z" fill="white"></path></g></mask><g mask="url(#mask13_9372_29170)"><path id="Vector_27" d="M17.2524 9.63599C17.4044 9.30199 17.2734 9.02799 17.4264 8.73399C17.5824 8.43999 17.4854 8.19899 17.4924 8.06499C17.5044 7.93099 17.6154 7.893 17.5864 7.861C17.5614 7.831 17.4454 7.893 17.3984 8.07C17.3534 8.249 17.4624 8.35199 17.2774 8.71299C17.0934 9.07099 17.2424 9.23399 17.0564 9.55599L17.2524 9.63599Z" fill="#F1BD51"></path></g></g><g id="Clip path group_15"><mask id="mask14_9372_29170" style="mask-type:luminance" maskUnits="userSpaceOnUse" x="0" y="0" width="34" height="21"><g id="SVGID_00000151534517732836159610000008493432865168197048__11"><path id="Vector_28" d="M33.7805 0.711914H0.219482V20.2879H33.7805V0.711914Z" fill="white"></path></g></mask><g mask="url(#mask14_9372_29170)"><g id="Group_7"><path id="Vector_29" d="M17.2604 9.63994L17.2465 9.63394C17.3205 9.46794 17.3245 9.31694 17.3325 9.16994C17.3365 9.01994 17.3445 8.87793 17.4205 8.72993C17.5275 8.51793 17.5104 8.33494 17.4924 8.19794C17.4924 8.14594 17.4845 8.09994 17.4885 8.06494C17.4925 7.98194 17.5354 7.93594 17.5604 7.90494C17.5814 7.88194 17.5855 7.87294 17.5815 7.86694C17.5165 7.87194 17.4405 7.93695 17.4075 8.07195C17.3895 8.13395 17.3935 8.18494 17.3975 8.23894C17.4015 8.35094 17.4074 8.47494 17.2844 8.71594C17.1944 8.89394 17.1825 9.02394 17.1755 9.14894C17.1655 9.27694 17.1585 9.39694 17.0645 9.55894C17.1405 9.39094 17.1504 9.27194 17.1584 9.14594C17.1684 9.01994 17.1755 8.89095 17.2695 8.70795C17.3905 8.47495 17.3865 8.34994 17.3785 8.23894C17.3785 8.18494 17.3744 8.13095 17.3904 8.06995C17.4254 7.92495 17.5054 7.85694 17.5524 7.84694L17.5565 7.84595L17.5934 7.85693C17.6114 7.87493 17.5934 7.89394 17.5734 7.91594C17.5504 7.94494 17.5055 7.98994 17.5035 8.06494C17.4995 8.10194 17.5035 8.14594 17.5095 8.19594C17.5235 8.33594 17.5465 8.52195 17.4335 8.73795C17.3575 8.88295 17.3535 9.02294 17.3475 9.17094C17.3445 9.31794 17.3364 9.47194 17.2604 9.63994Z" fill="#7A361D"></path></g></g></g><g id="Clip path group_16"><mask id="mask15_9372_29170" style="mask-type:luminance" maskUnits="userSpaceOnUse" x="0" y="0" width="34" height="21"><g id="SVGID_00000151534517732836159610000008493432865168197048__12"><path id="Vector_30" d="M33.7805 0.711914H0.219482V20.2879H33.7805V0.711914Z" fill="white"></path></g></mask><g mask="url(#mask15_9372_29170)"><path id="Vector_31" d="M17.2095 9.5509C17.3325 9.2179 17.2015 8.99491 17.3655 8.71191C17.1875 8.91491 17.3004 9.17691 17.1484 9.52191L17.2095 9.5509Z" fill="#7A361D"></path></g></g><g id="Clip path group_17"><mask id="mask16_9372_29170" style="mask-type:luminance" maskUnits="userSpaceOnUse" x="0" y="0" width="34" height="21"><g id="SVGID_00000151534517732836159610000008493432865168197048__13"><path id="Vector_32" d="M33.7805 0.711914H0.219482V20.2879H33.7805V0.711914Z" fill="white"></path></g></mask><g mask="url(#mask16_9372_29170)"><path id="Vector_33" d="M17.0005 10.366L14.3305 10.465C14.3305 10.465 14.2795 10.465 14.2795 10.498C14.2795 10.534 14.3305 10.534 14.3305 10.534L17.0005 10.634V10.366Z" fill="#F1BD51"></path></g></g><g id="Clip path group_18"><mask id="mask17_9372_29170" style="mask-type:luminance" maskUnits="userSpaceOnUse" x="0" y="0" width="34" height="21"><g id="SVGID_00000151534517732836159610000008493432865168197048__14"><path id="Vector_34" d="M33.7805 0.711914H0.219482V20.2879H33.7805V0.711914Z" fill="white"></path></g></mask><g mask="url(#mask17_9372_29170)"><g id="Group_8"><path id="Vector_35" d="M17.0024 10.6259L14.3304 10.5409C14.3134 10.5409 14.2734 10.5329 14.2734 10.4979C14.2734 10.4679 14.3124 10.4589 14.3304 10.4589L17.0004 10.3579L17.0024 10.3749L14.3304 10.4749C14.3304 10.4749 14.2875 10.4749 14.2875 10.4979C14.2875 10.5249 14.3304 10.5249 14.3304 10.5249L17.0024 10.6259Z" fill="#7A361D"></path></g></g></g><g id="Clip path group_19"><mask id="mask18_9372_29170" style="mask-type:luminance" maskUnits="userSpaceOnUse" x="0" y="0" width="34" height="21"><g id="SVGID_00000151534517732836159610000008493432865168197048__15"><path id="Vector_36" d="M33.7805 0.711914H0.219482V20.2879H33.7805V0.711914Z" fill="white"></path></g></mask><g mask="url(#mask18_9372_29170)"><path id="Vector_37" d="M17.0004 10.4319L15.1685 10.4979L17.0004 10.5659V10.4319Z" fill="#7A361D"></path></g></g><g id="Clip path group_20"><mask id="mask19_9372_29170" style="mask-type:luminance" maskUnits="userSpaceOnUse" x="0" y="0" width="34" height="21"><g id="SVGID_00000151534517732836159610000008493432865168197048__16"><path id="Vector_38" d="M33.7805 0.711914H0.219482V20.2879H33.7805V0.711914Z" fill="white"></path></g></mask><g mask="url(#mask19_9372_29170)"><path id="Vector_39" d="M16.1373 10.2478C15.8033 10.0938 15.5283 10.2248 15.2373 10.0718C14.9403 9.91982 14.7004 10.0148 14.5634 10.0058C14.4304 9.99381 14.3933 9.88381 14.3603 9.91281C14.3313 9.93881 14.3933 10.0548 14.5713 10.0988C14.7513 10.1448 14.8523 10.0378 15.2123 10.2208C15.5713 10.4078 15.7353 10.2598 16.0583 10.4448L16.1373 10.2478Z" fill="#F1BD51"></path></g></g><g id="Clip path group_21"><mask id="mask20_9372_29170" style="mask-type:luminance" maskUnits="userSpaceOnUse" x="0" y="0" width="34" height="21"><g id="SVGID_00000151534517732836159610000008493432865168197048__17"><path id="Vector_40" d="M33.7805 0.711914H0.219482V20.2879H33.7805V0.711914Z" fill="white"></path></g></mask><g mask="url(#mask20_9372_29170)"><g id="Group_9"><path id="Vector_41" d="M16.0615 10.4358C15.8935 10.3608 15.7705 10.3508 15.6475 10.3398C15.5205 10.3308 15.3894 10.3208 15.2084 10.2288C14.9744 10.1088 14.8515 10.1128 14.7415 10.1178C14.6825 10.1218 14.6325 10.1228 14.5715 10.1068C14.4365 10.0738 14.3604 9.9998 14.3484 9.9468L14.3464 9.94079L14.3564 9.9058C14.3794 9.8868 14.3974 9.90579 14.4194 9.92579C14.4444 9.95179 14.4914 9.99178 14.5674 9.99678C14.5984 9.99978 14.6475 9.9938 14.6945 9.9878C14.8335 9.9738 15.0245 9.95179 15.2415 10.0638C15.3875 10.1398 15.5245 10.1468 15.6735 10.1508C15.8225 10.1548 15.9705 10.1618 16.1425 10.2388L16.1384 10.2558C15.9664 10.1788 15.8185 10.1738 15.6735 10.1678C15.5215 10.1618 15.3805 10.1588 15.2325 10.0798C15.0215 9.96979 14.8345 9.98979 14.6995 10.0058C14.6485 10.0118 14.6035 10.0158 14.5645 10.0128C14.4845 10.0068 14.4374 9.96579 14.4084 9.93779C14.3874 9.91979 14.3774 9.91379 14.3694 9.91979C14.3774 9.98479 14.4375 10.0578 14.5765 10.0918C14.6335 10.1058 14.6834 10.1048 14.7424 10.1028C14.8514 10.0978 14.9785 10.0918 15.2175 10.2148C15.3955 10.3068 15.5265 10.3158 15.6495 10.3248C15.7745 10.3348 15.8975 10.3428 16.0615 10.4358Z" fill="#7A361D"></path></g></g></g><g id="Clip path group_22"><mask id="mask21_9372_29170" style="mask-type:luminance" maskUnits="userSpaceOnUse" x="0" y="0" width="34" height="21"><g id="SVGID_00000151534517732836159610000008493432865168197048__18"><path id="Vector_42" d="M33.7805 0.711914H0.219482V20.2879H33.7805V0.711914Z" fill="white"></path></g></mask><g mask="url(#mask21_9372_29170)"><path id="Vector_43" d="M16.0535 10.289C15.7195 10.172 15.4984 10.297 15.2114 10.137C15.4144 10.316 15.6805 10.198 16.0245 10.353L16.0535 10.289Z" fill="#7A361D"></path></g></g><g id="Clip path group_23"><mask id="mask22_9372_29170" style="mask-type:luminance" maskUnits="userSpaceOnUse" x="0" y="0" width="34" height="21"><g id="SVGID_00000151534517732836159610000008493432865168197048__19"><path id="Vector_44" d="M33.7805 0.711914H0.219482V20.2879H33.7805V0.711914Z" fill="white"></path></g></mask><g mask="url(#mask22_9372_29170)"><path id="Vector_45" d="M17.0005 10.633L19.6705 10.533C19.6705 10.533 19.7195 10.533 19.7195 10.497C19.7195 10.464 19.6705 10.464 19.6705 10.464L17.0005 10.365V10.633Z" fill="#F1BD51"></path></g></g><g id="Clip path group_24"><mask id="mask23_9372_29170" style="mask-type:luminance" maskUnits="userSpaceOnUse" x="0" y="0" width="34" height="21"><g id="SVGID_00000151534517732836159610000008493432865168197048__20"><path id="Vector_46" d="M33.7805 0.711914H0.219482V20.2879H33.7805V0.711914Z" fill="white"></path></g></mask><g mask="url(#mask23_9372_29170)"><g id="Group_10"><path id="Vector_47" d="M17.0025 10.643L17.0005 10.625L19.6705 10.524C19.6705 10.524 19.7115 10.524 19.7115 10.497C19.7115 10.474 19.6705 10.474 19.6705 10.474L17.0005 10.374L19.6705 10.458C19.6885 10.458 19.7255 10.467 19.7255 10.497C19.7255 10.532 19.6885 10.54 19.6705 10.54L17.0025 10.643Z" fill="#7A361D"></path></g></g></g><g id="Clip path group_25"><mask id="mask24_9372_29170" style="mask-type:luminance" maskUnits="userSpaceOnUse" x="0" y="0" width="34" height="21"><g id="SVGID_00000151534517732836159610000008493432865168197048__21"><path id="Vector_48" d="M33.7805 0.711914H0.219482V20.2879H33.7805V0.711914Z" fill="white"></path></g></mask><g mask="url(#mask24_9372_29170)"><path id="Vector_49" d="M17.0005 10.5659L18.8325 10.4979L17.0005 10.4319V10.5659Z" fill="#7A361D"></path></g></g><g id="Clip path group_26"><mask id="mask25_9372_29170" style="mask-type:luminance" maskUnits="userSpaceOnUse" x="0" y="0" width="34" height="21"><g id="SVGID_00000151534517732836159610000008493432865168197048__22"><path id="Vector_50" d="M33.7805 0.711914H0.219482V20.2879H33.7805V0.711914Z" fill="white"></path></g></mask><g mask="url(#mask25_9372_29170)"><path id="Vector_51" d="M17.8613 10.7519C18.1993 10.9049 18.4743 10.7729 18.7673 10.9279C19.0583 11.0819 19.3003 10.9849 19.4353 10.9959C19.5683 11.0059 19.6053 11.1149 19.6383 11.0869C19.6693 11.0599 19.6053 10.9439 19.4273 10.8989C19.2493 10.8549 19.1443 10.9619 18.7883 10.7779C18.4273 10.5929 18.2633 10.7409 17.9443 10.5549L17.8613 10.7519Z" fill="#F1BD51"></path></g></g><g id="Clip path group_27"><mask id="mask26_9372_29170" style="mask-type:luminance" maskUnits="userSpaceOnUse" x="0" y="0" width="34" height="21"><g id="SVGID_00000151534517732836159610000008493432865168197048__23"><path id="Vector_52" d="M33.7805 0.711914H0.219482V20.2879H33.7805V0.711914Z" fill="white"></path></g></mask><g mask="url(#mask26_9372_29170)"><g id="Group_11"><path id="Vector_53" d="M19.6274 11.1C19.6134 11.1 19.5984 11.088 19.5844 11.075C19.5554 11.049 19.5124 11.01 19.4364 11.005C19.3994 11.001 19.3564 11.006 19.3054 11.013C19.1644 11.028 18.9794 11.047 18.7644 10.935C18.6164 10.859 18.4794 10.854 18.3284 10.848C18.1804 10.844 18.0274 10.837 17.8574 10.759L17.8654 10.744C18.0314 10.82 18.1794 10.826 18.3284 10.832C18.4784 10.838 18.6194 10.844 18.7714 10.92C18.9824 11.031 19.1664 11.01 19.3004 10.995C19.3554 10.99 19.3984 10.984 19.4354 10.988C19.5154 10.994 19.5624 11.034 19.5934 11.061C19.6184 11.082 19.6264 11.084 19.6304 11.081C19.6264 11.017 19.5624 10.942 19.4274 10.909C19.3664 10.893 19.3164 10.894 19.2614 10.896C19.1484 10.903 19.0254 10.909 18.7844 10.785C18.6044 10.694 18.4774 10.684 18.3544 10.676C18.2254 10.665 18.1044 10.656 17.9404 10.562C18.1064 10.64 18.2254 10.648 18.3544 10.659C18.4774 10.669 18.6084 10.68 18.7924 10.772C19.0244 10.892 19.1474 10.886 19.2614 10.88C19.3164 10.878 19.3684 10.875 19.4314 10.892C19.5724 10.927 19.6404 11.008 19.6524 11.053V11.058L19.6404 11.093C19.6394 11.099 19.6354 11.1 19.6274 11.1Z" fill="#7A361D"></path></g></g></g><g id="Clip path group_28"><mask id="mask27_9372_29170" style="mask-type:luminance" maskUnits="userSpaceOnUse" x="0" y="0" width="34" height="21"><g id="SVGID_00000151534517732836159610000008493432865168197048__24"><path id="Vector_54" d="M33.7805 0.711914H0.219482V20.2879H33.7805V0.711914Z" fill="white"></path></g></mask><g mask="url(#mask27_9372_29170)"><path id="Vector_55" d="M17.9465 10.709C18.2825 10.83 18.5055 10.705 18.7905 10.863C18.5875 10.686 18.3235 10.8029 17.9775 10.6479L17.9465 10.709Z" fill="#7A361D"></path></g></g><g id="Clip path group_29"><mask id="mask28_9372_29170" style="mask-type:luminance" maskUnits="userSpaceOnUse" x="0" y="0" width="34" height="21"><g id="SVGID_00000151534517732836159610000008493432865168197048__25"><path id="Vector_56" d="M33.7805 0.711914H0.219482V20.2879H33.7805V0.711914Z" fill="white"></path></g></mask><g mask="url(#mask28_9372_29170)"><path id="Vector_57" d="M16.9055 10.4048L15.0885 12.3638C15.0885 12.3638 15.0555 12.3988 15.0785 12.4238C15.1005 12.4448 15.1355 12.4098 15.1355 12.4098L17.0945 10.5938L16.9055 10.4048Z" fill="#F1BD51"></path></g></g><g id="Clip path group_30"><mask id="mask29_9372_29170" style="mask-type:luminance" maskUnits="userSpaceOnUse" x="0" y="0" width="34" height="21"><g id="SVGID_00000151534517732836159610000008493432865168197048__26"><path id="Vector_58" d="M33.7805 0.711914H0.219482V20.2879H33.7805V0.711914Z" fill="white"></path></g></mask><g mask="url(#mask29_9372_29170)"><g id="Group_12"><path id="Vector_59" d="M15.0965 12.4399C15.0495 12.4059 15.0715 12.3709 15.0825 12.3569L16.8985 10.3999L16.9125 10.4109L15.0965 12.3689C15.0925 12.3689 15.0675 12.3989 15.0825 12.4159C15.1005 12.4369 15.1335 12.4039 15.1335 12.4039L17.0905 10.5899L15.1435 12.4169C15.1435 12.4169 15.1215 12.4389 15.0965 12.4399Z" fill="#7A361D"></path></g></g></g><g id="Clip path group_31"><mask id="mask30_9372_29170" style="mask-type:luminance" maskUnits="userSpaceOnUse" x="0" y="0" width="34" height="21"><g id="SVGID_00000151534517732836159610000008493432865168197048__27"><path id="Vector_60" d="M33.7805 0.711914H0.219482V20.2879H33.7805V0.711914Z" fill="white"></path></g></mask><g mask="url(#mask30_9372_29170)"><path id="Vector_61" d="M16.9516 10.4519L15.7056 11.7949L17.0496 10.5459L16.9516 10.4519Z" fill="#7A361D"></path></g></g><g id="Clip path group_32"><mask id="mask31_9372_29170" style="mask-type:luminance" maskUnits="userSpaceOnUse" x="0" y="0" width="34" height="21"><g id="SVGID_00000151534517732836159610000008493432865168197048__28"><path id="Vector_62" d="M33.7805 0.711914H0.219482V20.2879H33.7805V0.711914Z" fill="white"></path></g></mask><g mask="url(#mask31_9372_29170)"><path id="Vector_63" d="M16.2115 10.9309C15.8635 11.0589 15.7625 11.3479 15.4515 11.4459C15.1335 11.5469 15.0315 11.7829 14.9295 11.8719C14.8275 11.9599 14.7225 11.9079 14.7185 11.9509C14.7185 11.9909 14.8415 12.0279 15.0015 11.9329C15.1555 11.8399 15.1515 11.6899 15.5365 11.5669C15.9255 11.4429 15.9325 11.2249 16.2925 11.1309L16.2115 10.9309Z" fill="#F1BD51"></path></g></g><g id="Clip path group_33"><mask id="mask32_9372_29170" style="mask-type:luminance" maskUnits="userSpaceOnUse" x="0" y="0" width="34" height="21"><g id="SVGID_00000151534517732836159610000008493432865168197048__29"><path id="Vector_64" d="M33.7805 0.711914H0.219482V20.2879H33.7805V0.711914Z" fill="white"></path></g></mask><g mask="url(#mask32_9372_29170)"><g id="Group_13"><path id="Vector_65" d="M14.8094 12.0018C14.7784 12.0018 14.7504 11.9948 14.7334 11.9848L14.7124 11.9508C14.7124 11.9238 14.7374 11.9228 14.7674 11.9218C14.8064 11.9178 14.8654 11.9138 14.9234 11.8648C14.9524 11.8428 14.9784 11.8078 15.0054 11.7688C15.0934 11.6608 15.2124 11.5108 15.4484 11.4368C15.6044 11.3878 15.7084 11.2938 15.8134 11.1938C15.9224 11.0918 16.0364 10.9888 16.2094 10.9248L16.2154 10.9398C16.0454 11.0028 15.9344 11.1058 15.8244 11.2058C15.7154 11.3078 15.6134 11.4038 15.4514 11.4528C15.2224 11.5248 15.1014 11.6738 15.0194 11.7788C14.9864 11.8198 14.9604 11.8528 14.9334 11.8768C14.8704 11.9308 14.8084 11.9358 14.7654 11.9398C14.7404 11.9398 14.7264 11.9408 14.7264 11.9518C14.7814 11.9928 14.8784 11.9978 14.9944 11.9288C15.0494 11.8968 15.0824 11.8588 15.1214 11.8178C15.1934 11.7378 15.2814 11.6428 15.5374 11.5608C15.7264 11.4988 15.8244 11.4148 15.9184 11.3348C16.0164 11.2498 16.1074 11.1708 16.2934 11.1218C16.1174 11.1858 16.0274 11.2628 15.9304 11.3468C15.8364 11.4288 15.7394 11.5138 15.5414 11.5758C15.2914 11.6568 15.2074 11.7478 15.1334 11.8288C15.0964 11.8698 15.0594 11.9088 15.0044 11.9408C14.9304 11.9848 14.8634 12.0018 14.8094 12.0018Z" fill="#7A361D"></path></g></g></g><g id="Clip path group_34"><mask id="mask33_9372_29170" style="mask-type:luminance" maskUnits="userSpaceOnUse" x="0" y="0" width="34" height="21"><g id="SVGID_00000151534517732836159610000008493432865168197048__30"><path id="Vector_66" d="M33.7805 0.711914H0.219482V20.2879H33.7805V0.711914Z" fill="white"></path></g></mask><g mask="url(#mask33_9372_29170)"><path id="Vector_67" d="M16.1805 11.022C15.8605 11.173 15.7914 11.418 15.4814 11.507C15.7494 11.487 15.8505 11.22 16.2065 11.086L16.1805 11.022Z" fill="#7A361D"></path></g></g><g id="Clip path group_35"><mask id="mask34_9372_29170" style="mask-type:luminance" maskUnits="userSpaceOnUse" x="0" y="0" width="34" height="21"><g id="SVGID_00000151534517732836159610000008493432865168197048__31"><path id="Vector_68" d="M33.7805 0.711914H0.219482V20.2879H33.7805V0.711914Z" fill="white"></path></g></mask><g mask="url(#mask34_9372_29170)"><path id="Vector_69" d="M17.0945 10.5929L18.9105 8.63685C18.9105 8.63685 18.9455 8.60086 18.9245 8.57586C18.8995 8.55286 18.8635 8.58686 18.8635 8.58686L16.9045 10.4039L17.0945 10.5929Z" fill="#F1BD51"></path></g></g><g id="Clip path group_36"><mask id="mask35_9372_29170" style="mask-type:luminance" maskUnits="userSpaceOnUse" x="0" y="0" width="34" height="21"><g id="SVGID_00000151534517732836159610000008493432865168197048__32"><path id="Vector_70" d="M33.7805 0.711914H0.219482V20.2879H33.7805V0.711914Z" fill="white"></path></g></mask><g mask="url(#mask35_9372_29170)"><g id="Group_14"><path id="Vector_71" d="M17.1005 10.5989L17.0905 10.5909L18.9064 8.63088C18.9064 8.63088 18.9314 8.60088 18.9164 8.58188C18.8984 8.56588 18.8694 8.59288 18.8694 8.59288L16.9084 10.4099L18.8594 8.58087C18.8694 8.56787 18.9064 8.54789 18.9274 8.56989C18.9484 8.59389 18.9275 8.62688 18.9155 8.63988L17.1005 10.5989Z" fill="#7A361D"></path></g></g></g><g id="Clip path group_37"><mask id="mask36_9372_29170" style="mask-type:luminance" maskUnits="userSpaceOnUse" x="0" y="0" width="34" height="21"><g id="SVGID_00000151534517732836159610000008493432865168197048__33"><path id="Vector_72" d="M33.7805 0.711914H0.219482V20.2879H33.7805V0.711914Z" fill="white"></path></g></mask><g mask="url(#mask36_9372_29170)"><path id="Vector_73" d="M17.0494 10.5458L18.2974 9.20483L16.9514 10.4518L17.0494 10.5458Z" fill="#7A361D"></path></g></g><g id="Clip path group_38"><mask id="mask37_9372_29170" style="mask-type:luminance" maskUnits="userSpaceOnUse" x="0" y="0" width="34" height="21"><g id="SVGID_00000151534517732836159610000008493432865168197048__34"><path id="Vector_74" d="M33.7805 0.711914H0.219482V20.2879H33.7805V0.711914Z" fill="white"></path></g></mask><g mask="url(#mask37_9372_29170)"><path id="Vector_75" d="M17.7894 10.068C18.1334 9.93904 18.2345 9.65203 18.5515 9.55303C18.8665 9.45403 18.9714 9.21503 19.0734 9.12703C19.1754 9.04003 19.2805 9.09203 19.2805 9.04903C19.2845 9.00803 19.1615 8.97003 19.0015 9.06603C18.8415 9.16103 18.8455 9.30803 18.4625 9.43303C18.0775 9.55703 18.0664 9.77603 17.7104 9.87203L17.7894 10.068Z" fill="#F1BD51"></path></g></g><g id="Clip path group_39"><mask id="mask38_9372_29170" style="mask-type:luminance" maskUnits="userSpaceOnUse" x="0" y="0" width="34" height="21"><g id="SVGID_00000151534517732836159610000008493432865168197048__35"><path id="Vector_76" d="M33.7805 0.711914H0.219482V20.2879H33.7805V0.711914Z" fill="white"></path></g></mask><g mask="url(#mask38_9372_29170)"><g id="Group_15"><path id="Vector_77" d="M17.7894 10.076L17.7855 10.061C17.9575 9.99701 18.0644 9.89301 18.1744 9.79401C18.2814 9.69101 18.3875 9.59501 18.5515 9.54501C18.7765 9.47501 18.8954 9.32902 18.9794 9.22102C19.0124 9.18002 19.0405 9.146 19.0695 9.12C19.1285 9.068 19.1925 9.06401 19.2335 9.06101C19.2625 9.05901 19.2725 9.05701 19.2725 9.04801C19.2215 9.00701 19.1244 9.00101 19.0054 9.07101C18.9544 9.10101 18.9174 9.14101 18.8824 9.18001C18.8064 9.26301 18.7185 9.355 18.4645 9.441C18.2735 9.501 18.1755 9.58302 18.0795 9.66502C17.9815 9.74902 17.8914 9.82901 17.7104 9.87801C17.8844 9.81501 17.9765 9.73601 18.0695 9.65201C18.1635 9.57001 18.2645 9.48701 18.4625 9.42501C18.7125 9.34201 18.7945 9.25001 18.8665 9.17101C18.9075 9.12901 18.9424 9.09101 18.9974 9.05701C19.1144 8.98801 19.2185 8.98701 19.2665 9.01401L19.2894 9.05001C19.2854 9.07301 19.2625 9.07501 19.2325 9.07801C19.1955 9.07901 19.1344 9.08301 19.0804 9.13201C19.0514 9.15601 19.0254 9.19 18.9924 9.23C18.9064 9.34 18.7854 9.48901 18.5544 9.55901C18.3944 9.60801 18.2925 9.70501 18.1835 9.80501C18.0765 9.90701 17.9634 10.011 17.7894 10.076Z" fill="#7A361D"></path></g></g></g><g id="Clip path group_40"><mask id="mask39_9372_29170" style="mask-type:luminance" maskUnits="userSpaceOnUse" x="0" y="0" width="34" height="21"><g id="SVGID_00000151534517732836159610000008493432865168197048__36"><path id="Vector_78" d="M33.7805 0.711914H0.219482V20.2879H33.7805V0.711914Z" fill="white"></path></g></mask><g mask="url(#mask39_9372_29170)"><path id="Vector_79" d="M17.8194 9.9769C18.1414 9.8249 18.2104 9.5789 18.5224 9.4939C18.2554 9.5119 18.1494 9.77889 17.7974 9.91289L17.8194 9.9769Z" fill="#7A361D"></path></g></g><g id="Clip path group_41"><mask id="mask40_9372_29170" style="mask-type:luminance" maskUnits="userSpaceOnUse" x="0" y="0" width="34" height="21"><g id="SVGID_00000151534517732836159610000008493432865168197048__37"><path id="Vector_80" d="M33.7805 0.711914H0.219482V20.2879H33.7805V0.711914Z" fill="white"></path></g></mask><g mask="url(#mask40_9372_29170)"><path id="Vector_81" d="M17.0945 10.4048L15.1355 8.58783C15.1355 8.58783 15.1005 8.55383 15.0785 8.57683C15.0555 8.60083 15.0885 8.63784 15.0885 8.63784L16.9055 10.5938L17.0945 10.4048Z" fill="#F1BD51"></path></g></g><g id="Clip path group_42"><mask id="mask41_9372_29170" style="mask-type:luminance" maskUnits="userSpaceOnUse" x="0" y="0" width="34" height="21"><g id="SVGID_00000151534517732836159610000008493432865168197048__38"><path id="Vector_82" d="M33.7805 0.711914H0.219482V20.2879H33.7805V0.711914Z" fill="white"></path></g></mask><g mask="url(#mask41_9372_29170)"><g id="Group_16"><path id="Vector_83" d="M16.9125 10.591L15.0825 8.64104C15.0705 8.62704 15.0495 8.59504 15.0745 8.57204C15.0965 8.54904 15.1294 8.56904 15.1424 8.58204L17.0994 10.399L17.0895 10.411L15.1324 8.59504C15.1324 8.59504 15.0995 8.56805 15.0815 8.58305C15.0655 8.60205 15.0915 8.63103 15.0955 8.63103L16.9125 10.591Z" fill="#7A361D"></path></g></g></g><g id="Clip path group_43"><mask id="mask42_9372_29170" style="mask-type:luminance" maskUnits="userSpaceOnUse" x="0" y="0" width="34" height="21"><g id="SVGID_00000151534517732836159610000008493432865168197048__39"><path id="Vector_84" d="M33.7805 0.711914H0.219482V20.2879H33.7805V0.711914Z" fill="white"></path></g></mask><g mask="url(#mask42_9372_29170)"><path id="Vector_85" d="M17.0496 10.4518L15.7056 9.20483L16.9516 10.5458L17.0496 10.4518Z" fill="#7A361D"></path></g></g><g id="Clip path group_44"><mask id="mask43_9372_29170" style="mask-type:luminance" maskUnits="userSpaceOnUse" x="0" y="0" width="34" height="21"><g id="SVGID_00000151534517732836159610000008493432865168197048__40"><path id="Vector_86" d="M33.7805 0.711914H0.219482V20.2879H33.7805V0.711914Z" fill="white"></path></g></mask><g mask="url(#mask43_9372_29170)"><path id="Vector_87" d="M16.5675 9.71183C16.4425 9.36483 16.1555 9.26483 16.0535 8.94883C15.9555 8.63083 15.7195 8.52983 15.6295 8.42683C15.5415 8.32483 15.5925 8.22083 15.5495 8.21783C15.5085 8.21483 15.4735 8.34183 15.5635 8.49883C15.6615 8.65583 15.8095 8.65282 15.9345 9.03782C16.0575 9.42182 16.2745 9.43382 16.3725 9.79282L16.5675 9.71183Z" fill="#F1BD51"></path></g></g><g id="Clip path group_45"><mask id="mask44_9372_29170" style="mask-type:luminance" maskUnits="userSpaceOnUse" x="0" y="0" width="34" height="21"><g id="SVGID_00000151534517732836159610000008493432865168197048__41"><path id="Vector_88" d="M33.7805 0.711914H0.219482V20.2879H33.7805V0.711914Z" fill="white"></path></g></mask><g mask="url(#mask44_9372_29170)"><g id="Group_17"><path id="Vector_89" d="M16.3794 9.79099C16.3134 9.61599 16.2384 9.52599 16.1544 9.42899C16.0704 9.33399 15.9884 9.23399 15.9254 9.04199C15.8414 8.78899 15.7514 8.70599 15.6714 8.63199C15.6284 8.59499 15.5874 8.55898 15.5564 8.50398C15.4844 8.37798 15.4904 8.27398 15.5154 8.23398L15.5524 8.20898C15.5734 8.21198 15.5774 8.23698 15.5774 8.26698C15.5814 8.30498 15.5854 8.36498 15.6324 8.42198C15.6554 8.44898 15.6924 8.47798 15.7334 8.50998C15.8414 8.59598 15.9874 8.71298 16.0594 8.94798C16.1104 9.10398 16.2034 9.20599 16.3054 9.31499C16.4034 9.42199 16.5084 9.53599 16.5764 9.70999L16.5584 9.71599C16.4954 9.54599 16.3924 9.43299 16.2904 9.32599C16.1884 9.21699 16.0934 9.11199 16.0424 8.95099C15.9704 8.72499 15.8254 8.60898 15.7204 8.52298C15.6814 8.48998 15.6444 8.46199 15.6184 8.43399C15.5674 8.37099 15.5634 8.30899 15.5594 8.26799C15.5554 8.23999 15.5554 8.22799 15.5454 8.22699C15.5044 8.27799 15.4984 8.37498 15.5674 8.49698C15.6004 8.54998 15.6394 8.58299 15.6804 8.62099C15.7584 8.69599 15.8544 8.78199 15.9384 9.03699C15.9954 9.22599 16.0824 9.32499 16.1614 9.42099C16.2484 9.51499 16.3284 9.60699 16.3794 9.79099Z" fill="#7A361D"></path></g></g></g><g id="Clip path group_46"><mask id="mask45_9372_29170" style="mask-type:luminance" maskUnits="userSpaceOnUse" x="0" y="0" width="34" height="21"><g id="SVGID_00000151534517732836159610000008493432865168197048__42"><path id="Vector_90" d="M33.7805 0.711914H0.219482V20.2879H33.7805V0.711914Z" fill="white"></path></g></mask><g mask="url(#mask45_9372_29170)"><path id="Vector_91" d="M16.4814 9.681C16.3254 9.36 16.0795 9.292 15.9915 8.979C16.0115 9.247 16.2825 9.351 16.4135 9.705L16.4814 9.681Z" fill="#7A361D"></path></g></g><g id="Clip path group_47"><mask id="mask46_9372_29170" style="mask-type:luminance" maskUnits="userSpaceOnUse" x="0" y="0" width="34" height="21"><g id="SVGID_00000151534517732836159610000008493432865168197048__43"><path id="Vector_92" d="M33.7805 0.711914H0.219482V20.2879H33.7805V0.711914Z" fill="white"></path></g></mask><g mask="url(#mask46_9372_29170)"><path id="Vector_93" d="M16.9055 10.5928L18.8645 12.4088C18.8645 12.4088 18.8995 12.4438 18.9255 12.4228C18.9475 12.3978 18.9115 12.3628 18.9115 12.3628L17.0955 10.4038L16.9055 10.5928Z" fill="#F1BD51"></path></g></g><g id="Clip path group_48"><mask id="mask47_9372_29170" style="mask-type:luminance" maskUnits="userSpaceOnUse" x="0" y="0" width="34" height="21"><g id="SVGID_00000151534517732836159610000008493432865168197048__44"><path id="Vector_94" d="M33.7805 0.711914H0.219482V20.2879H33.7805V0.711914Z" fill="white"></path></g></mask><g mask="url(#mask47_9372_29170)"><g id="Group_18"><path id="Vector_95" d="M18.9034 12.4289C18.8744 12.4289 18.8604 12.4149 18.8604 12.4149L16.8994 10.6009L16.9094 10.5889L18.8704 12.4029C18.8704 12.4029 18.8994 12.4349 18.9174 12.4149C18.9334 12.3979 18.9074 12.3679 18.9074 12.3679L17.0914 10.4099L18.9174 12.3559C18.9334 12.3729 18.9504 12.4049 18.9294 12.4259C18.9204 12.4289 18.9144 12.4289 18.9034 12.4289Z" fill="#7A361D"></path></g></g></g><g id="Clip path group_49"><mask id="mask48_9372_29170" style="mask-type:luminance" maskUnits="userSpaceOnUse" x="0" y="0" width="34" height="21"><g id="SVGID_00000151534517732836159610000008493432865168197048__45"><path id="Vector_96" d="M33.7805 0.711914H0.219482V20.2879H33.7805V0.711914Z" fill="white"></path></g></mask><g mask="url(#mask48_9372_29170)"><path id="Vector_97" d="M16.9514 10.5459L18.2974 11.7949L17.0494 10.4519L16.9514 10.5459Z" fill="#7A361D"></path></g></g><g id="Clip path group_50"><mask id="mask49_9372_29170" style="mask-type:luminance" maskUnits="userSpaceOnUse" x="0" y="0" width="34" height="21"><g id="SVGID_00000151534517732836159610000008493432865168197048__46"><path id="Vector_98" d="M33.7805 0.711914H0.219482V20.2879H33.7805V0.711914Z" fill="white"></path></g></mask><g mask="url(#mask49_9372_29170)"><path id="Vector_99" d="M17.4304 11.29C17.5614 11.635 17.8484 11.734 17.9464 12.052C18.0444 12.367 18.2824 12.471 18.3704 12.572C18.4624 12.676 18.4074 12.78 18.4504 12.783C18.4894 12.784 18.5304 12.661 18.4344 12.502C18.3404 12.344 18.1924 12.346 18.0694 11.964C17.9424 11.577 17.7234 11.566 17.6304 11.209L17.4304 11.29Z" fill="#F1BD51"></path></g></g><g id="Clip path group_51"><mask id="mask50_9372_29170" style="mask-type:luminance" maskUnits="userSpaceOnUse" x="0" y="0" width="34" height="21"><g id="SVGID_00000151534517732836159610000008493432865168197048__47"><path id="Vector_100" d="M33.7805 0.711914H0.219482V20.2879H33.7805V0.711914Z" fill="white"></path></g></mask><g mask="url(#mask50_9372_29170)"><g id="Group_19"><path id="Vector_101" d="M18.4494 12.789C18.4244 12.789 18.4244 12.7619 18.4204 12.7319C18.4164 12.6939 18.4124 12.635 18.3654 12.577C18.3404 12.551 18.3084 12.522 18.2674 12.492C18.1584 12.406 18.0094 12.2879 17.9374 12.0529C17.8904 11.8969 17.7924 11.794 17.6914 11.685C17.5934 11.577 17.4884 11.465 17.4214 11.292L17.4374 11.285C17.5034 11.456 17.6034 11.566 17.7044 11.674C17.8064 11.785 17.9054 11.888 17.9524 12.049C18.0244 12.278 18.1734 12.394 18.2764 12.481C18.3174 12.512 18.3544 12.539 18.3764 12.569C18.4294 12.629 18.4334 12.6919 18.4334 12.7319C18.4374 12.7639 18.4414 12.7729 18.4494 12.7729C18.4924 12.7209 18.5004 12.625 18.4284 12.506C18.3954 12.453 18.3604 12.417 18.3194 12.379C18.2354 12.305 18.1454 12.219 18.0614 11.965C18.0014 11.774 17.9164 11.677 17.8324 11.58C17.7504 11.483 17.6704 11.392 17.6234 11.21C17.6844 11.384 17.7604 11.475 17.8484 11.571C17.9264 11.666 18.0144 11.764 18.0774 11.96C18.1574 12.21 18.2514 12.294 18.3294 12.367C18.3704 12.406 18.4114 12.441 18.4424 12.496C18.5124 12.615 18.5144 12.719 18.4854 12.767L18.4494 12.789Z" fill="#7A361D"></path></g></g></g><g id="Clip path group_52"><mask id="mask51_9372_29170" style="mask-type:luminance" maskUnits="userSpaceOnUse" x="0" y="0" width="34" height="21"><g id="SVGID_00000151534517732836159610000008493432865168197048__48"><path id="Vector_102" d="M33.7805 0.711914H0.219482V20.2879H33.7805V0.711914Z" fill="white"></path></g></mask><g mask="url(#mask51_9372_29170)"><path id="Vector_103" d="M17.5225 11.3179C17.6725 11.6389 17.9205 11.7059 18.0085 12.0199C17.9885 11.7499 17.7214 11.6479 17.5864 11.2959L17.5225 11.3179Z" fill="#7A361D"></path></g></g><g id="Clip path group_53"><mask id="mask52_9372_29170" style="mask-type:luminance" maskUnits="userSpaceOnUse" x="0" y="0" width="34" height="21"><g id="SVGID_00000151534517732836159610000008493432865168197048__49"><path id="Vector_104" d="M33.7805 0.711914H0.219482V20.2879H33.7805V0.711914Z" fill="white"></path></g></mask><g mask="url(#mask52_9372_29170)"><path id="Vector_105" d="M16.8755 10.448L15.9475 12.954C15.9475 12.954 15.9295 13 15.9595 13.012C15.9905 13.026 16.0105 12.98 16.0105 12.98L17.1215 10.552L16.8755 10.448Z" fill="#F1BD51"></path></g></g><g id="Clip path group_54"><mask id="mask53_9372_29170" style="mask-type:luminance" maskUnits="userSpaceOnUse" x="0" y="0" width="34" height="21"><g id="SVGID_00000151534517732836159610000008493432865168197048__50"><path id="Vector_106" d="M33.7805 0.711914H0.219482V20.2879H33.7805V0.711914Z" fill="white"></path></g></mask><g mask="url(#mask53_9372_29170)"><g id="Group_20"><path id="Vector_107" d="M15.9815 13.0198C15.9265 13.0058 15.9345 12.9688 15.9425 12.9498L16.8685 10.4448L16.8845 10.4518L15.9565 12.9558C15.9565 12.9558 15.9425 12.9958 15.9625 13.0048L16.0035 12.9748L17.1165 10.5478L16.0165 12.9838C16.0165 12.9838 16.0065 13.0098 15.9815 13.0198Z" fill="#7A361D"></path></g></g></g><g id="Clip path group_55"><mask id="mask54_9372_29170" style="mask-type:luminance" maskUnits="userSpaceOnUse" x="0" y="0" width="34" height="21"><g id="SVGID_00000151534517732836159610000008493432865168197048__51"><path id="Vector_108" d="M33.7805 0.711914H0.219482V20.2879H33.7805V0.711914Z" fill="white"></path></g></mask><g mask="url(#mask54_9372_29170)"><path id="Vector_109" d="M16.9423 10.4739L16.2993 12.1929L17.0613 10.5249L16.9423 10.4739Z" fill="#7A361D"></path></g></g><g id="Clip path group_56"><mask id="mask55_9372_29170" style="mask-type:luminance" maskUnits="userSpaceOnUse" x="0" y="0" width="34" height="21"><g id="SVGID_00000151534517732836159610000008493432865168197048__52"><path id="Vector_110" d="M33.7805 0.711914H0.219482V20.2879H33.7805V0.711914Z" fill="white"></path></g></mask><g mask="url(#mask55_9372_29170)"><path id="Vector_111" d="M16.4385 11.2009C16.1685 11.4519 16.1845 11.7549 15.9305 11.9679C15.6765 12.1809 15.6725 12.4409 15.6105 12.5609C15.5505 12.6809 15.4344 12.6739 15.4484 12.7129C15.4624 12.7519 15.5935 12.7379 15.7025 12.5909C15.8095 12.4439 15.7535 12.3059 16.0615 12.0439C16.3685 11.7829 16.2934 11.5779 16.5864 11.3519L16.4385 11.2009Z" fill="#F1BD51"></path></g></g><g id="Clip path group_57"><mask id="mask56_9372_29170" style="mask-type:luminance" maskUnits="userSpaceOnUse" x="0" y="0" width="34" height="21"><g id="SVGID_00000151534517732836159610000008493432865168197048__53"><path id="Vector_112" d="M33.7805 0.711914H0.219482V20.2879H33.7805V0.711914Z" fill="white"></path></g></mask><g mask="url(#mask56_9372_29170)"><g id="Group_21"><path id="Vector_113" d="M15.4905 12.7388C15.4845 12.7388 15.4804 12.7388 15.4764 12.7378L15.4394 12.7158C15.4294 12.6928 15.4555 12.6808 15.4805 12.6688C15.5155 12.6488 15.5705 12.6238 15.6035 12.5578C15.6215 12.5238 15.6325 12.4808 15.6465 12.4318C15.6835 12.2998 15.7385 12.1188 15.9255 11.9628C16.0485 11.8578 16.1074 11.7288 16.1714 11.5948C16.2304 11.4598 16.2944 11.3218 16.4294 11.1948L16.4415 11.2078C16.3105 11.3318 16.2445 11.4698 16.1835 11.6008C16.1205 11.7398 16.0625 11.8678 15.9335 11.9738C15.7515 12.1278 15.7015 12.3058 15.6605 12.4378C15.6465 12.4898 15.6334 12.5328 15.6174 12.5658C15.5824 12.6378 15.5234 12.6668 15.4864 12.6828C15.4614 12.6968 15.4514 12.7028 15.4554 12.7108C15.5204 12.7308 15.6095 12.6978 15.6935 12.5868C15.7305 12.5368 15.7484 12.4888 15.7654 12.4378C15.8064 12.3328 15.8494 12.2148 16.0524 12.0398C16.2044 11.9108 16.2614 11.7958 16.3204 11.6838C16.3794 11.5698 16.4335 11.4608 16.5825 11.3468C16.4455 11.4708 16.3944 11.5778 16.3364 11.6898C16.2774 11.8038 16.2195 11.9198 16.0635 12.0528C15.8645 12.2238 15.8215 12.3408 15.7825 12.4428C15.7625 12.4958 15.7454 12.5468 15.7084 12.5968C15.6334 12.6958 15.5415 12.7388 15.4905 12.7388Z" fill="#7A361D"></path></g></g></g><g id="Clip path group_58"><mask id="mask57_9372_29170" style="mask-type:luminance" maskUnits="userSpaceOnUse" x="0" y="0" width="34" height="21"><g id="SVGID_00000151534517732836159610000008493432865168197048__54"><path id="Vector_114" d="M33.7805 0.711914H0.219482V20.2879H33.7805V0.711914Z" fill="white"></path></g></mask><g mask="url(#mask57_9372_29170)"><path id="Vector_115" d="M16.4465 11.2959C16.2065 11.5579 16.2394 11.8109 15.9814 12.0119C16.2234 11.8929 16.2154 11.6039 16.4894 11.3469L16.4465 11.2959Z" fill="#7A361D"></path></g></g><g id="Clip path group_59"><mask id="mask58_9372_29170" style="mask-type:luminance" maskUnits="userSpaceOnUse" x="0" y="0" width="34" height="21"><g id="SVGID_00000151534517732836159610000008493432865168197048__55"><path id="Vector_116" d="M33.7805 0.711914H0.219482V20.2879H33.7805V0.711914Z" fill="white"></path></g></mask><g mask="url(#mask58_9372_29170)"><path id="Vector_117" d="M17.1215 10.551L18.0545 8.046C18.0545 8.046 18.0725 8.001 18.0385 7.988C18.0095 7.974 17.9915 8.02 17.9915 8.02L16.8745 10.447L17.1215 10.551Z" fill="#F1BD51"></path></g></g><g id="Clip path group_60"><mask id="mask59_9372_29170" style="mask-type:luminance" maskUnits="userSpaceOnUse" x="0" y="0" width="34" height="21"><g id="SVGID_00000151534517732836159610000008493432865168197048__56"><path id="Vector_118" d="M33.7805 0.711914H0.219482V20.2879H33.7805V0.711914Z" fill="white"></path></g></mask><g mask="url(#mask59_9372_29170)"><g id="Group_22"><path id="Vector_119" d="M17.1335 10.552L17.1155 10.547L18.0435 8.04199C18.0435 8.04199 18.0615 8.00498 18.0395 7.99498L18.0005 8.02298L16.8835 10.451L17.9815 8.01698C17.9815 8.01698 17.9975 7.98898 18.0185 7.97998L18.0655 7.99899C18.0735 8.01999 18.0615 8.04698 18.0615 8.04898L17.1335 10.552Z" fill="#7A361D"></path></g></g></g><g id="Clip path group_61"><mask id="mask60_9372_29170" style="mask-type:luminance" maskUnits="userSpaceOnUse" x="0" y="0" width="34" height="21"><g id="SVGID_00000151534517732836159610000008493432865168197048__57"><path id="Vector_120" d="M33.7805 0.711914H0.219482V20.2879H33.7805V0.711914Z" fill="white"></path></g></mask><g mask="url(#mask60_9372_29170)"><path id="Vector_121" d="M17.0614 10.5249L17.7034 8.80688L16.9424 10.4739L17.0614 10.5249Z" fill="#7A361D"></path></g></g><g id="Clip path group_62"><mask id="mask61_9372_29170" style="mask-type:luminance" maskUnits="userSpaceOnUse" x="0" y="0" width="34" height="21"><g id="SVGID_00000151534517732836159610000008493432865168197048__58"><path id="Vector_122" d="M33.7805 0.711914H0.219482V20.2879H33.7805V0.711914Z" fill="white"></path></g></mask><g mask="url(#mask61_9372_29170)"><path id="Vector_123" d="M17.5656 9.79889C17.8336 9.54689 17.8195 9.24289 18.0735 9.03189C18.3275 8.81989 18.3296 8.5589 18.3876 8.4379C18.4536 8.3179 18.5696 8.3269 18.5556 8.2869C18.5366 8.2469 18.4116 8.26089 18.3016 8.40689C18.1886 8.55489 18.2506 8.69189 17.9426 8.95389C17.6336 9.21589 17.7066 9.4219 17.4136 9.6469L17.5656 9.79889Z" fill="#F1BD51"></path></g></g><g id="Clip path group_63"><mask id="mask62_9372_29170" style="mask-type:luminance" maskUnits="userSpaceOnUse" x="0" y="0" width="34" height="21"><g id="SVGID_00000151534517732836159610000008493432865168197048__59"><path id="Vector_124" d="M33.7805 0.711914H0.219482V20.2879H33.7805V0.711914Z" fill="white"></path></g></mask><g mask="url(#mask62_9372_29170)"><g id="Group_23"><path id="Vector_125" d="M17.5694 9.80588L17.5574 9.79388C17.6924 9.66888 17.7544 9.53187 17.8154 9.39787C17.8764 9.26087 17.9344 9.13288 18.0654 9.02588C18.2514 8.87388 18.3014 8.69288 18.3404 8.56288C18.3564 8.51288 18.3654 8.46887 18.3834 8.43687C18.4204 8.36287 18.4794 8.33489 18.5124 8.31789C18.5354 8.30389 18.5514 8.29789 18.5474 8.28989C18.4794 8.27089 18.3874 8.30388 18.3094 8.41388C18.2684 8.46288 18.2544 8.51388 18.2314 8.56288C18.1964 8.66988 18.1494 8.78888 17.9464 8.96188C17.7974 9.08988 17.7354 9.20388 17.6804 9.31688C17.6234 9.43088 17.5694 9.54088 17.4204 9.65388C17.5534 9.52888 17.6084 9.42188 17.6664 9.30888C17.7214 9.19588 17.7814 9.07887 17.9344 8.94987C18.1374 8.77887 18.1764 8.66188 18.2174 8.55888C18.2384 8.50388 18.2584 8.45388 18.2934 8.40388C18.3734 8.29588 18.4674 8.25088 18.5254 8.26088L18.5604 8.28488C18.5684 8.30688 18.5464 8.31888 18.5214 8.33188C18.4844 8.34888 18.4294 8.37388 18.3984 8.44188C18.3794 8.47388 18.3694 8.51587 18.3554 8.56587C18.3184 8.69987 18.2634 8.88087 18.0764 9.03787C17.9494 9.14287 17.8944 9.26988 17.8284 9.40388C17.7684 9.54088 17.7054 9.67888 17.5694 9.80588Z" fill="#7A361D"></path></g></g></g><g id="Clip path group_64"><mask id="mask63_9372_29170" style="mask-type:luminance" maskUnits="userSpaceOnUse" x="0" y="0" width="34" height="21"><g id="SVGID_00000151534517732836159610000008493432865168197048__60"><path id="Vector_126" d="M33.7805 0.711914H0.219482V20.2879H33.7805V0.711914Z" fill="white"></path></g></mask><g mask="url(#mask63_9372_29170)"><path id="Vector_127" d="M17.5575 9.70479C17.7975 9.44279 17.7645 9.18879 18.0225 8.98779C17.7785 9.10779 17.7865 9.39379 17.5105 9.65379L17.5575 9.70479Z" fill="#7A361D"></path></g></g><g id="Clip path group_65"><mask id="mask64_9372_29170" style="mask-type:luminance" maskUnits="userSpaceOnUse" x="0" y="0" width="34" height="21"><g id="SVGID_00000151534517732836159610000008493432865168197048__61"><path id="Vector_128" d="M33.7805 0.711914H0.219482V20.2879H33.7805V0.711914Z" fill="white"></path></g></mask><g mask="url(#mask64_9372_29170)"><path id="Vector_129" d="M17.0495 10.377L14.5455 9.448C14.5455 9.448 14.5005 9.428 14.4865 9.459C14.4765 9.491 14.5235 9.50999 14.5235 9.50999L16.9495 10.623L17.0495 10.377Z" fill="#F1BD51"></path></g></g><g id="Clip path group_66"><mask id="mask65_9372_29170" style="mask-type:luminance" maskUnits="userSpaceOnUse" x="0" y="0" width="34" height="21"><g id="SVGID_00000151534517732836159610000008493432865168197048__62"><path id="Vector_130" d="M33.7805 0.711914H0.219482V20.2879H33.7805V0.711914Z" fill="white"></path></g></mask><g mask="url(#mask65_9372_29170)"><g id="Group_24"><path id="Vector_131" d="M16.9515 10.6169L14.5195 9.51689C14.5005 9.50689 14.4685 9.48589 14.4785 9.45389C14.4945 9.42589 14.5335 9.43089 14.5485 9.43889L17.0524 10.3669L17.0485 10.3829L14.5444 9.45389C14.5404 9.45389 14.5035 9.43789 14.4935 9.46089C14.4855 9.48589 14.5225 9.50189 14.5225 9.50189L16.9515 10.6169Z" fill="#7A361D"></path></g></g></g><g id="Clip path group_67"><mask id="mask66_9372_29170" style="mask-type:luminance" maskUnits="userSpaceOnUse" x="0" y="0" width="34" height="21"><g id="SVGID_00000151534517732836159610000008493432865168197048__63"><path id="Vector_132" d="M33.7805 0.711914H0.219482V20.2879H33.7805V0.711914Z" fill="white"></path></g></mask><g mask="url(#mask66_9372_29170)"><path id="Vector_133" d="M17.0244 10.4389L15.3054 9.7959L16.9734 10.5619L17.0244 10.4389Z" fill="#7A361D"></path></g></g><g id="Clip path group_68"><mask id="mask67_9372_29170" style="mask-type:luminance" maskUnits="userSpaceOnUse" x="0" y="0" width="34" height="21"><g id="SVGID_00000151534517732836159610000008493432865168197048__64"><path id="Vector_134" d="M33.7805 0.711914H0.219482V20.2879H33.7805V0.711914Z" fill="white"></path></g></mask><g mask="url(#mask67_9372_29170)"><path id="Vector_135" d="M16.2994 9.93681C16.0494 9.66581 15.7444 9.6828 15.5314 9.4278C15.3204 9.1748 15.0624 9.16982 14.9394 9.11082C14.8204 9.04882 14.8284 8.93382 14.7874 8.94682C14.7484 8.95982 14.7584 9.09081 14.9104 9.20081C15.0544 9.31081 15.1934 9.25181 15.4554 9.55781C15.7194 9.86781 15.9224 9.79282 16.1504 10.0848L16.2994 9.93681Z" fill="#F1BD51"></path></g></g><g id="Clip path group_69"><mask id="mask68_9372_29170" style="mask-type:luminance" maskUnits="userSpaceOnUse" x="0" y="0" width="34" height="21"><g id="SVGID_00000151534517732836159610000008493432865168197048__65"><path id="Vector_136" d="M33.7805 0.711914H0.219482V20.2879H33.7805V0.711914Z" fill="white"></path></g></mask><g mask="url(#mask68_9372_29170)"><g id="Group_25"><path id="Vector_137" d="M16.1554 10.0819C16.0284 9.94388 15.9224 9.89188 15.8094 9.83588C15.6944 9.77688 15.5784 9.71888 15.4484 9.56488C15.2784 9.36488 15.1614 9.32188 15.0594 9.28388C15.0044 9.26588 14.9574 9.24588 14.9034 9.20888C14.7964 9.12688 14.7514 9.02988 14.7594 8.97588L14.7844 8.94289C14.8054 8.93289 14.8214 8.95488 14.8334 8.98188C14.8514 9.01688 14.8764 9.07088 14.9444 9.10488C14.9734 9.12088 15.0165 9.13189 15.0635 9.14489C15.1985 9.18389 15.3834 9.23688 15.5384 9.42588C15.6434 9.55088 15.7704 9.60889 15.9054 9.67089C16.0424 9.73189 16.1804 9.79588 16.3074 9.93288L16.2934 9.94489C16.1684 9.81089 16.0314 9.74688 15.9004 9.68488C15.7584 9.62188 15.6334 9.56288 15.5234 9.43688C15.3714 9.25088 15.1895 9.19988 15.0585 9.16288C15.0075 9.14788 14.9684 9.13588 14.9354 9.12088C14.8634 9.08288 14.8335 9.02688 14.8165 8.99088C14.8045 8.96488 14.7985 8.95188 14.7875 8.95688C14.7695 9.02088 14.8014 9.11288 14.9144 9.19588C14.9654 9.23188 15.0124 9.24988 15.0624 9.26888C15.1674 9.30688 15.2874 9.34989 15.4604 9.55489C15.5874 9.70789 15.7045 9.76489 15.8165 9.82189C15.9345 9.87789 16.0414 9.93288 16.1554 10.0819Z" fill="#7A361D"></path></g></g></g><g id="Clip path group_70"><mask id="mask69_9372_29170" style="mask-type:luminance" maskUnits="userSpaceOnUse" x="0" y="0" width="34" height="21"><g id="SVGID_00000151534517732836159610000008493432865168197048__66"><path id="Vector_138" d="M33.7805 0.711914H0.219482V20.2879H33.7805V0.711914Z" fill="white"></path></g></mask><g mask="url(#mask69_9372_29170)"><path id="Vector_139" d="M16.2053 9.94296C15.9413 9.70696 15.6883 9.73496 15.4863 9.48096C15.6053 9.72196 15.8924 9.71296 16.1544 9.98996L16.2053 9.94296Z" fill="#7A361D"></path></g></g><g id="Clip path group_71"><mask id="mask70_9372_29170" style="mask-type:luminance" maskUnits="userSpaceOnUse" x="0" y="0" width="34" height="21"><g id="SVGID_00000151534517732836159610000008493432865168197048__67"><path id="Vector_140" d="M33.7805 0.711914H0.219482V20.2879H33.7805V0.711914Z" fill="white"></path></g></mask><g mask="url(#mask70_9372_29170)"><path id="Vector_141" d="M16.9495 10.623L19.4534 11.552C19.4534 11.552 19.4965 11.572 19.5125 11.54C19.5265 11.509 19.4794 11.491 19.4794 11.491L17.0494 10.377L16.9495 10.623Z" fill="#F1BD51"></path></g></g><g id="Clip path group_72"><mask id="mask71_9372_29170" style="mask-type:luminance" maskUnits="userSpaceOnUse" x="0" y="0" width="34" height="21"><g id="SVGID_00000151534517732836159610000008493432865168197048__68"><path id="Vector_142" d="M33.7805 0.711914H0.219482V20.2879H33.7805V0.711914Z" fill="white"></path></g></mask><g mask="url(#mask71_9372_29170)"><g id="Group_26"><path id="Vector_143" d="M19.4835 11.5658C19.4695 11.5658 19.4625 11.5618 19.4505 11.5588L16.9465 10.6308L16.9525 10.6158L19.4585 11.5438C19.4585 11.5438 19.4935 11.5588 19.5055 11.5358C19.5175 11.5148 19.4765 11.4968 19.4765 11.4968L17.0485 10.3828L19.4845 11.4828C19.5025 11.4918 19.5355 11.5138 19.5215 11.5428C19.5125 11.5598 19.4965 11.5658 19.4835 11.5658Z" fill="#7A361D"></path></g></g></g><g id="Clip path group_73"><mask id="mask72_9372_29170" style="mask-type:luminance" maskUnits="userSpaceOnUse" x="0" y="0" width="34" height="21"><g id="SVGID_00000151534517732836159610000008493432865168197048__69"><path id="Vector_144" d="M33.7805 0.711914H0.219482V20.2879H33.7805V0.711914Z" fill="white"></path></g></mask><g mask="url(#mask72_9372_29170)"><path id="Vector_145" d="M16.9734 10.562L18.6924 11.201L17.0244 10.439L16.9734 10.562Z" fill="#7A361D"></path></g></g><g id="Clip path group_74"><mask id="mask73_9372_29170" style="mask-type:luminance" maskUnits="userSpaceOnUse" x="0" y="0" width="34" height="21"><g id="SVGID_00000151534517732836159610000008493432865168197048__70"><path id="Vector_146" d="M33.7805 0.711914H0.219482V20.2879H33.7805V0.711914Z" fill="white"></path></g></mask><g mask="url(#mask73_9372_29170)"><path id="Vector_147" d="M17.6995 11.0629C17.9535 11.3339 18.2585 11.3168 18.4675 11.5708C18.6805 11.8258 18.9384 11.8288 19.0594 11.8878C19.1824 11.9508 19.1705 12.0658 19.2155 12.0518C19.2505 12.0378 19.2385 11.9068 19.0905 11.7968C18.9425 11.6878 18.8094 11.7488 18.5474 11.4418C18.2814 11.1328 18.0765 11.2068 17.8525 10.9128L17.6995 11.0629Z" fill="#F1BD51"></path></g></g><g id="Clip path group_75"><mask id="mask74_9372_29170" style="mask-type:luminance" maskUnits="userSpaceOnUse" x="0" y="0" width="34" height="21"><g id="SVGID_00000151534517732836159610000008493432865168197048__71"><path id="Vector_148" d="M33.7805 0.711914H0.219482V20.2879H33.7805V0.711914Z" fill="white"></path></g></mask><g mask="url(#mask74_9372_29170)"><g id="Group_27"><path id="Vector_149" d="M19.2075 12.062C19.1885 12.062 19.1785 12.041 19.1665 12.018C19.1485 11.983 19.1235 11.93 19.0595 11.896C19.0265 11.879 18.9835 11.868 18.9325 11.853C18.8015 11.816 18.6165 11.763 18.4635 11.576C18.3595 11.451 18.2275 11.391 18.0945 11.331C17.9595 11.268 17.8195 11.204 17.6965 11.07L17.7065 11.058C17.8295 11.192 17.9685 11.253 18.1035 11.316C18.2405 11.378 18.3675 11.436 18.4765 11.564C18.6285 11.75 18.8105 11.8 18.9395 11.838C18.9905 11.853 19.0315 11.864 19.0645 11.881C19.1365 11.917 19.1665 11.974 19.1835 12.01C19.1975 12.04 19.2015 12.046 19.2125 12.043C19.2305 11.982 19.2005 11.888 19.0875 11.804C19.0365 11.769 18.9895 11.75 18.9355 11.733C18.8315 11.695 18.7145 11.651 18.5375 11.447C18.4125 11.295 18.2955 11.236 18.1815 11.18C18.0705 11.121 17.9605 11.067 17.8495 10.917C17.9725 11.054 18.0785 11.106 18.1935 11.165C18.3065 11.221 18.4215 11.28 18.5525 11.436C18.7225 11.636 18.8375 11.678 18.9435 11.717C18.9985 11.736 19.0455 11.752 19.0955 11.792C19.2165 11.879 19.2475 11.98 19.2395 12.025L19.2185 12.059C19.2155 12.061 19.2115 12.062 19.2075 12.062Z" fill="#7A361D"></path></g></g></g><g id="Clip path group_76"><mask id="mask75_9372_29170" style="mask-type:luminance" maskUnits="userSpaceOnUse" x="0" y="0" width="34" height="21"><g id="SVGID_00000151534517732836159610000008493432865168197048__72"><path id="Vector_150" d="M33.7805 0.711914H0.219482V20.2879H33.7805V0.711914Z" fill="white"></path></g></mask><g mask="url(#mask75_9372_29170)"><path id="Vector_151" d="M17.7974 11.056C18.0574 11.294 18.3114 11.262 18.5124 11.521C18.3914 11.279 18.1064 11.285 17.8484 11.011L17.7974 11.056Z" fill="#7A361D"></path></g></g><g id="Clip path group_77"><mask id="mask76_9372_29170" style="mask-type:luminance" maskUnits="userSpaceOnUse" x="0" y="0" width="34" height="21"><g id="SVGID_00000151534517732836159610000008493432865168197048__73"><path id="Vector_152" d="M33.7805 0.711914H0.219482V20.2879H33.7805V0.711914Z" fill="white"></path></g></mask><g mask="url(#mask76_9372_29170)"><path id="Vector_153" d="M16.9495 10.377L14.5235 11.491C14.5235 11.491 14.4765 11.509 14.4865 11.54C14.5005 11.572 14.5455 11.552 14.5455 11.552L17.0495 10.623L16.9495 10.377Z" fill="#F1BD51"></path></g></g><g id="Clip path group_78"><mask id="mask77_9372_29170" style="mask-type:luminance" maskUnits="userSpaceOnUse" x="0" y="0" width="34" height="21"><g id="SVGID_00000151534517732836159610000008493432865168197048__74"><path id="Vector_154" d="M33.7805 0.711914H0.219482V20.2879H33.7805V0.711914Z" fill="white"></path></g></mask><g mask="url(#mask77_9372_29170)"><g id="Group_28"><path id="Vector_155" d="M14.5204 11.5659C14.5044 11.5659 14.4874 11.5599 14.4794 11.5429C14.4694 11.5149 14.5014 11.4909 14.5204 11.4829L16.9465 10.3689L16.9525 10.3839L14.5245 11.4979C14.5245 11.4979 14.4875 11.5159 14.4955 11.5369C14.5055 11.5599 14.5424 11.5449 14.5464 11.5449L17.0505 10.6169L14.5505 11.5589C14.5415 11.5619 14.5304 11.5659 14.5204 11.5659Z" fill="#7A361D"></path></g></g></g><g id="Clip path group_79"><mask id="mask78_9372_29170" style="mask-type:luminance" maskUnits="userSpaceOnUse" x="0" y="0" width="34" height="21"><g id="SVGID_00000151534517732836159610000008493432865168197048__75"><path id="Vector_156" d="M33.7805 0.711914H0.219482V20.2879H33.7805V0.711914Z" fill="white"></path></g></mask><g mask="url(#mask78_9372_29170)"><path id="Vector_157" d="M16.9734 10.439L15.3054 11.201L17.0244 10.562L16.9734 10.439Z" fill="#7A361D"></path></g></g><g id="Clip path group_80"><mask id="mask79_9372_29170" style="mask-type:luminance" maskUnits="userSpaceOnUse" x="0" y="0" width="34" height="21"><g id="SVGID_00000151534517732836159610000008493432865168197048__76"><path id="Vector_158" d="M33.7805 0.711914H0.219482V20.2879H33.7805V0.711914Z" fill="white"></path></g></mask><g mask="url(#mask79_9372_29170)"><path id="Vector_159" d="M16.1086 10.5968C15.7396 10.5828 15.5366 10.8098 15.2046 10.7808C14.8766 10.7518 14.6906 10.9308 14.5636 10.9738C14.4326 11.0168 14.3566 10.9268 14.3386 10.9668C14.3176 11.0028 14.4226 11.0858 14.6026 11.0588C14.7846 11.0328 14.8426 10.8938 15.2416 10.9248C15.6436 10.9578 15.7396 10.7598 16.1086 10.8098V10.5968Z" fill="#F1BD51"></path></g></g><g id="Clip path group_81"><mask id="mask80_9372_29170" style="mask-type:luminance" maskUnits="userSpaceOnUse" x="0" y="0" width="34" height="21"><g id="SVGID_00000151534517732836159610000008493432865168197048__77"><path id="Vector_160" d="M33.7805 0.711914H0.219482V20.2879H33.7805V0.711914Z" fill="white"></path></g></mask><g mask="url(#mask80_9372_29170)"><g id="Group_29"><path id="Vector_161" d="M14.5334 11.0729C14.4254 11.0729 14.3594 11.0339 14.3384 11.0039L14.3284 10.9629C14.3424 10.9409 14.3634 10.9489 14.3924 10.9589C14.4294 10.9719 14.4864 10.9899 14.5544 10.9679C14.5914 10.9569 14.6304 10.9349 14.6754 10.9099C14.7984 10.8439 14.9604 10.7519 15.2024 10.7719C15.3664 10.7889 15.5014 10.7379 15.6384 10.6859C15.7774 10.6349 15.9174 10.5809 16.1074 10.5889V10.6059C15.9294 10.5979 15.7814 10.6519 15.6424 10.7009C15.5054 10.7539 15.3714 10.8019 15.2034 10.7889C14.9694 10.7679 14.8014 10.8569 14.6824 10.9259C14.6394 10.9489 14.5984 10.9689 14.5634 10.9829C14.4874 11.0059 14.4264 10.9889 14.3894 10.9749C14.3564 10.9629 14.3484 10.9629 14.3464 10.9689C14.3794 11.0299 14.4614 11.0729 14.6024 11.0509C14.6614 11.0419 14.7114 11.0209 14.7584 10.9979C14.8594 10.9499 14.9734 10.8969 15.2404 10.9179C15.4394 10.9359 15.5624 10.8949 15.6834 10.8549C15.8064 10.8149 15.9214 10.7769 16.1074 10.8009C15.9144 10.7909 15.8084 10.8309 15.6874 10.8699C15.5664 10.9099 15.4434 10.9489 15.2404 10.9339C14.9764 10.9129 14.8634 10.9669 14.7654 11.0119C14.7144 11.0349 14.6674 11.0579 14.6054 11.0689C14.5804 11.0699 14.5554 11.0729 14.5334 11.0729Z" fill="#7A361D"></path></g></g></g><g id="Clip path group_82"><mask id="mask81_9372_29170" style="mask-type:luminance" maskUnits="userSpaceOnUse" x="0" y="0" width="34" height="21"><g id="SVGID_00000151534517732836159610000008493432865168197048__78"><path id="Vector_162" d="M33.7805 0.711914H0.219482V20.2879H33.7805V0.711914Z" fill="white"></path></g></mask><g mask="url(#mask81_9372_29170)"><path id="Vector_163" d="M16.0455 10.668C15.6905 10.687 15.5355 10.888 15.2075 10.848C15.4655 10.935 15.6605 10.727 16.0415 10.739L16.0455 10.668Z" fill="#7A361D"></path></g></g><g id="Clip path group_83"><mask id="mask82_9372_29170" style="mask-type:luminance" maskUnits="userSpaceOnUse" x="0" y="0" width="34" height="21"><g id="SVGID_00000151534517732836159610000008493432865168197048__79"><path id="Vector_164" d="M33.7805 0.711914H0.219482V20.2879H33.7805V0.711914Z" fill="white"></path></g></mask><g mask="url(#mask82_9372_29170)"><path id="Vector_165" d="M17.0494 10.6228L19.4794 9.50982C19.4794 9.50982 19.5265 9.49083 19.5125 9.45883C19.4965 9.42883 19.4534 9.44783 19.4534 9.44783L16.9495 10.3768L17.0494 10.6228Z" fill="#F1BD51"></path></g></g><g id="Clip path group_84"><mask id="mask83_9372_29170" style="mask-type:luminance" maskUnits="userSpaceOnUse" x="0" y="0" width="34" height="21"><g id="SVGID_00000151534517732836159610000008493432865168197048__80"><path id="Vector_166" d="M33.7805 0.711914H0.219482V20.2879H33.7805V0.711914Z" fill="white"></path></g></mask><g mask="url(#mask83_9372_29170)"><g id="Group_30"><path id="Vector_167" d="M17.0534 10.6309L17.0474 10.6159L19.4754 9.50186C19.4754 9.50186 19.5164 9.48486 19.5044 9.46086C19.4924 9.43886 19.4574 9.45386 19.4574 9.45386L16.9514 10.3829L19.4494 9.43987C19.4694 9.43087 19.5084 9.42587 19.5194 9.45487C19.5334 9.48587 19.5004 9.50787 19.4824 9.51787L17.0534 10.6309Z" fill="#7A361D"></path></g></g></g><g id="Clip path group_85"><mask id="mask84_9372_29170" style="mask-type:luminance" maskUnits="userSpaceOnUse" x="0" y="0" width="34" height="21"><g id="SVGID_00000151534517732836159610000008493432865168197048__81"><path id="Vector_168" d="M33.7805 0.711914H0.219482V20.2879H33.7805V0.711914Z" fill="white"></path></g></mask><g mask="url(#mask84_9372_29170)"><path id="Vector_169" d="M17.0244 10.5619L18.6924 9.7959L16.9734 10.4389L17.0244 10.5619Z" fill="#7A361D"></path></g></g><g id="Clip path group_86"><mask id="mask85_9372_29170" style="mask-type:luminance" maskUnits="userSpaceOnUse" x="0" y="0" width="34" height="21"><g id="SVGID_00000151534517732836159610000008493432865168197048__82"><path id="Vector_170" d="M33.7805 0.711914H0.219482V20.2879H33.7805V0.711914Z" fill="white"></path></g></mask><g mask="url(#mask85_9372_29170)"><path id="Vector_171" d="M17.8955 10.402C18.2605 10.417 18.4675 10.188 18.7975 10.219C19.1275 10.248 19.3135 10.067 19.4385 10.025C19.5695 9.98499 19.6455 10.071 19.6655 10.033C19.6835 9.997 19.5815 9.91299 19.3955 9.93899C19.2155 9.96799 19.1615 10.105 18.7585 10.073C18.3565 10.041 18.2605 10.237 17.8955 10.188V10.402Z" fill="#F1BD51"></path></g></g><g id="Clip path group_87"><mask id="mask86_9372_29170" style="mask-type:luminance" maskUnits="userSpaceOnUse" x="0" y="0" width="34" height="21"><g id="SVGID_00000151534517732836159610000008493432865168197048__83"><path id="Vector_172" d="M33.7805 0.711914H0.219482V20.2879H33.7805V0.711914Z" fill="white"></path></g></mask><g mask="url(#mask86_9372_29170)"><g id="Group_31"><path id="Vector_173" d="M17.9265 10.4109C17.9165 10.4109 17.9075 10.4109 17.8955 10.4109V10.3939C18.0775 10.3999 18.2175 10.3489 18.3565 10.2969C18.4975 10.2439 18.6315 10.1959 18.7975 10.2109C19.0335 10.2319 19.1995 10.1419 19.3195 10.0739C19.3645 10.0489 19.4035 10.0279 19.4385 10.0159C19.5165 9.99088 19.5735 10.0109 19.6145 10.0249C19.6415 10.0359 19.6535 10.0379 19.6535 10.0289C19.6245 9.97088 19.5385 9.92688 19.3995 9.94588C19.3365 9.95588 19.2905 9.97588 19.2435 10.0009C19.1385 10.0489 19.0265 10.1019 18.7595 10.0799C18.5625 10.0629 18.4355 10.1039 18.3195 10.1439C18.1965 10.1829 18.0795 10.2199 17.8955 10.1969C18.0795 10.2059 18.1925 10.1669 18.3115 10.1269C18.4305 10.0889 18.5555 10.0489 18.7585 10.0639C19.0225 10.0849 19.1355 10.0329 19.2335 9.98788C19.2845 9.96288 19.3355 9.93888 19.3955 9.93088C19.5345 9.90988 19.6315 9.94888 19.6655 9.99588L19.6715 10.0369C19.6615 10.0579 19.6365 10.0509 19.6075 10.0409C19.5705 10.0279 19.5175 10.0089 19.4435 10.0319C19.4125 10.0439 19.3715 10.0629 19.3285 10.0889C19.2055 10.1579 19.0415 10.2479 18.7955 10.2269C18.6335 10.2109 18.5025 10.2619 18.3635 10.3139C18.2315 10.3619 18.0985 10.4109 17.9265 10.4109Z" fill="#7A361D"></path></g></g></g><g id="Clip path group_88"><mask id="mask87_9372_29170" style="mask-type:luminance" maskUnits="userSpaceOnUse" x="0" y="0" width="34" height="21"><g id="SVGID_00000151534517732836159610000008493432865168197048__84"><path id="Vector_174" d="M33.7805 0.711914H0.219482V20.2879H33.7805V0.711914Z" fill="white"></path></g></mask><g mask="url(#mask87_9372_29170)"><path id="Vector_175" d="M17.9575 10.33C18.3115 10.314 18.4675 10.113 18.7895 10.151C18.5355 10.064 18.3365 10.275 17.9595 10.263L17.9575 10.33Z" fill="#7A361D"></path></g></g><g id="Clip path group_89"><mask id="mask88_9372_29170" style="mask-type:luminance" maskUnits="userSpaceOnUse" x="0" y="0" width="34" height="21"><g id="SVGID_00000151534517732836159610000008493432865168197048__85"><path id="Vector_176" d="M33.7805 0.711914H0.219482V20.2879H33.7805V0.711914Z" fill="white"></path></g></mask><g mask="url(#mask88_9372_29170)"><path id="Vector_177" d="M17.1213 10.448L16.0103 8.02098C16.0103 8.02098 15.9903 7.97498 15.9593 7.98898C15.9303 8.00198 15.9473 8.04698 15.9473 8.04698L16.8753 10.552L17.1213 10.448Z" fill="#F1BD51"></path></g></g><g id="Clip path group_90"><mask id="mask89_9372_29170" style="mask-type:luminance" maskUnits="userSpaceOnUse" x="0" y="0" width="34" height="21"><g id="SVGID_00000151534517732836159610000008493432865168197048__86"><path id="Vector_178" d="M33.7805 0.711914H0.219482V20.2879H33.7805V0.711914Z" fill="white"></path></g></mask><g mask="url(#mask89_9372_29170)"><g id="Group_32"><path id="Vector_179" d="M16.8836 10.547L15.9425 8.04898C15.9425 8.04698 15.9305 8.02098 15.9385 7.99998L15.9815 7.97998C16.0065 7.98898 16.0165 8.01698 16.0165 8.01698L17.1295 10.444L17.1155 10.451L15.9805 7.98799L15.9605 7.99498L15.9545 8.04199L16.8836 10.547Z" fill="#7A361D"></path></g></g></g><g id="Clip path group_91"><mask id="mask90_9372_29170" style="mask-type:luminance" maskUnits="userSpaceOnUse" x="0" y="0" width="34" height="21"><g id="SVGID_00000151534517732836159610000008493432865168197048__87"><path id="Vector_180" d="M33.7805 0.711914H0.219482V20.2879H33.7805V0.711914Z" fill="white"></path></g></mask><g mask="url(#mask90_9372_29170)"><path id="Vector_181" d="M17.0613 10.4739L16.2993 8.80688L16.9423 10.5249L17.0613 10.4739Z" fill="#7A361D"></path></g></g><g id="Clip path group_92"><mask id="mask91_9372_29170" style="mask-type:luminance" maskUnits="userSpaceOnUse" x="0" y="0" width="34" height="21"><g id="SVGID_00000151534517732836159610000008493432865168197048__88"><path id="Vector_182" d="M33.7805 0.711914H0.219482V20.2879H33.7805V0.711914Z" fill="white"></path></g></mask><g mask="url(#mask91_9372_29170)"><path id="Vector_183" d="M16.9054 9.60701C16.9194 9.23701 16.6924 9.03402 16.7194 8.70502C16.7484 8.37502 16.5674 8.18801 16.5244 8.06001C16.4854 7.93101 16.5714 7.85702 16.5364 7.83702C16.4954 7.81902 16.4134 7.92002 16.4424 8.10202C16.4694 8.28602 16.6084 8.33802 16.5754 8.74202C16.5444 9.14502 16.7394 9.23802 16.6924 9.60602L16.9054 9.60701Z" fill="#F1BD51"></path></g></g><g id="Clip path group_93"><mask id="mask92_9372_29170" style="mask-type:luminance" maskUnits="userSpaceOnUse" x="0" y="0" width="34" height="21"><g id="SVGID_00000151534517732836159610000008493432865168197048__89"><path id="Vector_184" d="M33.7805 0.711914H0.219482V20.2879H33.7805V0.711914Z" fill="white"></path></g></mask><g mask="url(#mask92_9372_29170)"><g id="Group_33"><path id="Vector_185" d="M16.9126 9.60687H16.8946C16.9006 9.42387 16.8476 9.28288 16.7986 9.14488C16.7456 9.00288 16.6956 8.87187 16.7086 8.70387C16.7306 8.46487 16.6406 8.30288 16.5736 8.18288C16.5486 8.13588 16.5266 8.09688 16.5146 8.06488C16.4936 7.98588 16.5126 7.92688 16.5266 7.88788C16.5346 7.85988 16.5386 7.84888 16.5306 7.84488C16.4676 7.87588 16.4286 7.96288 16.4466 8.09988C16.4586 8.16088 16.4796 8.20788 16.5016 8.25888C16.5486 8.36088 16.6036 8.47388 16.5816 8.74088C16.5656 8.93988 16.6066 9.06288 16.6446 9.18088C16.6836 9.30388 16.7226 9.41787 16.6976 9.60487C16.7056 9.41987 16.6686 9.30688 16.6296 9.18588C16.5906 9.06588 16.5496 8.94188 16.5646 8.73988C16.5856 8.47588 16.5356 8.36388 16.4886 8.26488C16.4656 8.21388 16.4416 8.16588 16.4336 8.10388C16.4126 7.96688 16.4516 7.86988 16.4936 7.83688L16.5386 7.82788C16.5596 7.83888 16.5526 7.86288 16.5426 7.89188C16.5266 7.92888 16.5096 7.98488 16.5306 8.05588C16.5426 8.08988 16.5656 8.12788 16.5896 8.17288C16.6546 8.29288 16.7476 8.45988 16.7266 8.70288C16.7126 8.86588 16.7596 8.99788 16.8146 9.13788C16.8656 9.27788 16.9186 9.42087 16.9126 9.60687Z" fill="#7A361D"></path></g></g></g><g id="Clip path group_94"><mask id="mask93_9372_29170" style="mask-type:luminance" maskUnits="userSpaceOnUse" x="0" y="0" width="34" height="21"><g id="SVGID_00000151534517732836159610000008493432865168197048__90"><path id="Vector_186" d="M33.7805 0.711914H0.219482V20.2879H33.7805V0.711914Z" fill="white"></path></g></mask><g mask="url(#mask93_9372_29170)"><path id="Vector_187" d="M16.8325 9.54495C16.8145 9.18995 16.6155 9.03296 16.6505 8.70996C16.5645 8.96496 16.7734 9.16396 16.7634 9.54196L16.8325 9.54495Z" fill="#7A361D"></path></g></g><g id="Clip path group_95"><mask id="mask94_9372_29170" style="mask-type:luminance" maskUnits="userSpaceOnUse" x="0" y="0" width="34" height="21"><g id="SVGID_00000151534517732836159610000008493432865168197048__91"><path id="Vector_188" d="M33.7805 0.711914H0.219482V20.2879H33.7805V0.711914Z" fill="white"></path></g></mask><g mask="url(#mask94_9372_29170)"><path id="Vector_189" d="M16.8755 10.551L17.9925 12.979C17.9925 12.979 18.0105 13.025 18.0395 13.011C18.0725 12.999 18.0555 12.953 18.0555 12.953L17.1225 10.447L16.8755 10.551Z" fill="#F1BD51"></path></g></g><g id="Clip path group_96"><mask id="mask95_9372_29170" style="mask-type:luminance" maskUnits="userSpaceOnUse" x="0" y="0" width="34" height="21"><g id="SVGID_00000151534517732836159610000008493432865168197048__92"><path id="Vector_190" d="M33.7805 0.711914H0.219482V20.2879H33.7805V0.711914Z" fill="white"></path></g></mask><g mask="url(#mask95_9372_29170)"><g id="Group_34"><path id="Vector_191" d="M18.0435 13.0199C17.9965 13.0099 17.9805 12.9829 17.9805 12.9829L16.8674 10.5539L16.8835 10.5469L18.0004 12.9739C18.0004 12.9739 18.0174 13.0149 18.0394 13.0039C18.0604 12.9949 18.0435 12.9549 18.0435 12.9549L17.1155 10.4509L18.0604 12.9489C18.0694 12.9689 18.0765 13.0059 18.0435 13.0199Z" fill="#7A361D"></path></g></g></g><g id="Clip path group_97"><mask id="mask96_9372_29170" style="mask-type:luminance" maskUnits="userSpaceOnUse" x="0" y="0" width="34" height="21"><g id="SVGID_00000151534517732836159610000008493432865168197048__93"><path id="Vector_192" d="M33.7805 0.711914H0.219482V20.2879H33.7805V0.711914Z" fill="white"></path></g></mask><g mask="url(#mask96_9372_29170)"><path id="Vector_193" d="M16.9424 10.5249L17.7034 12.1929L17.0614 10.4739L16.9424 10.5249Z" fill="#7A361D"></path></g></g><g id="Clip path group_98"><mask id="mask97_9372_29170" style="mask-type:luminance" maskUnits="userSpaceOnUse" x="0" y="0" width="34" height="21"><g id="SVGID_00000151534517732836159610000008493432865168197048__94"><path id="Vector_194" d="M33.7805 0.711914H0.219482V20.2879H33.7805V0.711914Z" fill="white"></path></g></mask><g mask="url(#mask97_9372_29170)"><path id="Vector_195" d="M17.0985 11.3918C17.0825 11.7608 17.3115 11.9648 17.2825 12.2948C17.2535 12.6228 17.4345 12.8088 17.4735 12.9398C17.5185 13.0678 17.4265 13.1428 17.4675 13.1618C17.5045 13.1809 17.5865 13.0769 17.5615 12.8949C17.5325 12.7139 17.3955 12.6598 17.4265 12.2558C17.4595 11.8558 17.2645 11.7598 17.3115 11.3938L17.0985 11.3918Z" fill="#F1BD51"></path></g></g><g id="Clip path group_99"><mask id="mask98_9372_29170" style="mask-type:luminance" maskUnits="userSpaceOnUse" x="0" y="0" width="34" height="21"><g id="SVGID_00000151534517732836159610000008493432865168197048__95"><path id="Vector_196" d="M33.7805 0.711914H0.219482V20.2879H33.7805V0.711914Z" fill="white"></path></g></mask><g mask="url(#mask98_9372_29170)"><g id="Group_35"><path id="Vector_197" d="M17.4635 13.1709C17.4385 13.1589 17.4496 13.1328 17.4596 13.1078C17.4716 13.0698 17.4926 13.0138 17.4676 12.9418C17.4556 12.9068 17.4345 12.8688 17.4085 12.8228C17.3435 12.7028 17.2526 12.5369 17.2696 12.2939C17.2856 12.1309 17.2385 12.0009 17.1875 11.8609C17.1365 11.7209 17.0785 11.5778 17.0855 11.3918L17.1035 11.3929C17.0975 11.5759 17.1506 11.7178 17.2016 11.8548C17.2566 11.9948 17.3035 12.1278 17.2895 12.2948C17.2675 12.5308 17.3575 12.6958 17.4225 12.8158C17.4495 12.8608 17.4715 12.8999 17.4815 12.9359C17.5065 13.0129 17.4895 13.0708 17.4735 13.1118C17.4635 13.1388 17.4635 13.1488 17.4715 13.1548C17.5285 13.1228 17.5735 13.0358 17.5515 12.8958C17.5435 12.8358 17.5225 12.7898 17.4965 12.7388C17.4535 12.6378 17.3986 12.5249 17.4206 12.2569C17.4346 12.0579 17.3955 11.9368 17.3545 11.8168C17.3155 11.6948 17.2785 11.5799 17.3015 11.3929C17.2935 11.5779 17.3325 11.6918 17.3715 11.8118C17.4085 11.9318 17.4535 12.0568 17.4345 12.2578C17.4135 12.5218 17.4675 12.6348 17.5105 12.7338C17.5355 12.7848 17.5575 12.8328 17.5695 12.8958C17.5875 13.0318 17.5475 13.1268 17.5055 13.1628L17.4635 13.1709Z" fill="#7A361D"></path></g></g></g><g id="Clip path group_100"><mask id="mask99_9372_29170" style="mask-type:luminance" maskUnits="userSpaceOnUse" x="0" y="0" width="34" height="21"><g id="SVGID_00000151534517732836159610000008493432865168197048__96"><path id="Vector_198" d="M33.7805 0.711914H0.219482V20.2879H33.7805V0.711914Z" fill="white"></path></g></mask><g mask="url(#mask99_9372_29170)"><path id="Vector_199" d="M17.1685 11.4558C17.1885 11.8098 17.3874 11.9678 17.3484 12.2908C17.4344 12.0338 17.2274 11.8368 17.2394 11.4608L17.1685 11.4558Z" fill="#7A361D"></path></g></g><g id="Clip path group_101"><mask id="mask100_9372_29170" style="mask-type:luminance" maskUnits="userSpaceOnUse" x="0" y="0" width="34" height="21"><g id="SVGID_00000151534517732836159610000008493432865168197048__97"><path id="Vector_200" d="M33.7805 0.711914H0.219482V20.2879H33.7805V0.711914Z" fill="white"></path></g></mask><g mask="url(#mask100_9372_29170)"><path id="Vector_201" d="M17.0004 9.41284C17.6024 9.41284 18.0864 9.89785 18.0864 10.4978C18.0864 11.1008 17.6024 11.5869 17.0004 11.5869C16.3964 11.5869 15.9104 11.1008 15.9104 10.4978C15.9104 9.89785 16.3974 9.41284 17.0004 9.41284Z" fill="#F1BD51"></path></g></g><g id="Clip path group_102"><mask id="mask101_9372_29170" style="mask-type:luminance" maskUnits="userSpaceOnUse" x="0" y="0" width="34" height="21"><g id="SVGID_00000151534517732836159610000008493432865168197048__98"><path id="Vector_202" d="M33.7805 0.711914H0.219482V20.2879H33.7805V0.711914Z" fill="white"></path></g></mask><g mask="url(#mask101_9372_29170)"><g id="Group_36"><path id="Vector_203" d="M17.0005 11.5948C16.3945 11.5948 15.9045 11.1038 15.9045 10.4968C15.9045 9.89483 16.3945 9.40283 17.0005 9.40283C17.6035 9.40283 18.0985 9.89483 18.0985 10.4968C18.0985 11.1038 17.6045 11.5948 17.0005 11.5948ZM17.0005 9.42084C16.4045 9.42084 15.9185 9.90483 15.9185 10.4978C15.9185 11.0958 16.4045 11.5798 17.0005 11.5798C17.5985 11.5798 18.0785 11.0958 18.0785 10.4978C18.0785 9.90483 17.5985 9.42084 17.0005 9.42084Z" fill="#7A361D"></path></g></g></g><g id="Clip path group_103"><mask id="mask102_9372_29170" style="mask-type:luminance" maskUnits="userSpaceOnUse" x="0" y="0" width="34" height="21"><g id="SVGID_00000151534517732836159610000008493432865168197048__99"><path id="Vector_204" d="M33.7805 0.711914H0.219482V20.2879H33.7805V0.711914Z" fill="white"></path></g></mask><g mask="url(#mask102_9372_29170)"><path id="Vector_205" d="M17.6886 10.2648C17.4936 10.0988 17.2525 10.0728 17.1165 10.2008C17.0205 10.3278 17.0285 10.4828 17.1455 10.6428C17.1335 10.6428 17.1166 10.6518 17.1086 10.6568C17.0246 10.4978 17.0105 10.3318 17.0655 10.1818C17.2525 10.0318 17.5046 10.0148 17.6886 10.2648Z" fill="#7A361D"></path></g></g><g id="Clip path group_104"><mask id="mask103_9372_29170" style="mask-type:luminance" maskUnits="userSpaceOnUse" x="0" y="0" width="34" height="21"><g id="SVGID_00000151534517732836159610000008493432865168197048__100"><path id="Vector_206" d="M33.7805 0.711914H0.219482V20.2879H33.7805V0.711914Z" fill="white"></path></g></mask><g mask="url(#mask103_9372_29170)"><path id="Vector_207" d="M17.3874 10.2148C17.2744 10.2148 17.2524 10.2408 17.2014 10.2818C17.1504 10.3248 17.1254 10.3148 17.1154 10.3248C17.1074 10.3318 17.1154 10.3578 17.1334 10.3488C17.1504 10.3388 17.1844 10.3248 17.2344 10.2818C17.2814 10.2408 17.3364 10.2408 17.3864 10.2408C17.5344 10.2408 17.6184 10.3658 17.6364 10.3578C17.6534 10.3488 17.5514 10.2148 17.3874 10.2148Z" fill="#7A361D"></path></g></g><g id="Clip path group_105"><mask id="mask104_9372_29170" style="mask-type:luminance" maskUnits="userSpaceOnUse" x="0" y="0" width="34" height="21"><g id="SVGID_00000151534517732836159610000008493432865168197048__101"><path id="Vector_208" d="M33.7805 0.711914H0.219482V20.2879H33.7805V0.711914Z" fill="white"></path></g></mask><g mask="url(#mask104_9372_29170)"><path id="Vector_209" d="M17.5746 10.3579C17.4716 10.2409 17.2676 10.2319 17.1836 10.3659H17.2166C17.3006 10.2319 17.5036 10.2889 17.5176 10.3489V10.3659L17.5746 10.3579Z" fill="#7A361D"></path></g></g><g id="Clip path group_106"><mask id="mask105_9372_29170" style="mask-type:luminance" maskUnits="userSpaceOnUse" x="0" y="0" width="34" height="21"><g id="SVGID_00000151534517732836159610000008493432865168197048__102"><path id="Vector_210" d="M33.7805 0.711914H0.219482V20.2879H33.7805V0.711914Z" fill="white"></path></g></mask><g mask="url(#mask105_9372_29170)"><path id="Vector_211" d="M17.3694 10.2729C17.4084 10.2729 17.4454 10.308 17.4454 10.349C17.4454 10.39 17.4084 10.424 17.3694 10.424C17.3284 10.424 17.2935 10.39 17.2935 10.349C17.2935 10.308 17.3284 10.2729 17.3694 10.2729Z" fill="#7A361D"></path></g></g><g id="Clip path group_107"><mask id="mask106_9372_29170" style="mask-type:luminance" maskUnits="userSpaceOnUse" x="0" y="0" width="34" height="21"><g id="SVGID_00000151534517732836159610000008493432865168197048__103"><path id="Vector_212" d="M33.7805 0.711914H0.219482V20.2879H33.7805V0.711914Z" fill="white"></path></g></mask><g mask="url(#mask106_9372_29170)"><path id="Vector_213" d="M17.1846 10.3659C17.2686 10.4399 17.4536 10.4499 17.5756 10.3579L17.5186 10.3489C17.4346 10.4399 17.3016 10.4319 17.2176 10.3659V10.3489L17.1846 10.3659Z" fill="#7A361D"></path></g></g><g id="Clip path group_108"><mask id="mask107_9372_29170" style="mask-type:luminance" maskUnits="userSpaceOnUse" x="0" y="0" width="34" height="21"><g id="SVGID_00000151534517732836159610000008493432865168197048__104"><path id="Vector_214" d="M33.7805 0.711914H0.219482V20.2879H33.7805V0.711914Z" fill="white"></path></g></mask><g mask="url(#mask107_9372_29170)"><path id="Vector_215" d="M17.5865 10.3988C17.4455 10.5088 17.3015 10.4978 17.2175 10.4498C17.1335 10.3988 17.1335 10.3838 17.1505 10.3838C17.1665 10.3838 17.1835 10.3998 17.2525 10.4328C17.3195 10.4648 17.4205 10.4648 17.5865 10.3988Z" fill="#7A361D"></path></g></g><g id="Clip path group_109"><mask id="mask108_9372_29170" style="mask-type:luminance" maskUnits="userSpaceOnUse" x="0" y="0" width="34" height="21"><g id="SVGID_00000151534517732836159610000008493432865168197048__105"><path id="Vector_216" d="M33.7805 0.711914H0.219482V20.2879H33.7805V0.711914Z" fill="white"></path></g></mask><g mask="url(#mask108_9372_29170)"><path id="Vector_217" d="M17.1763 10.6519C17.2013 10.6589 17.2173 10.6888 17.2053 10.7148C17.1953 10.7408 17.1663 10.7558 17.1453 10.7448C17.1223 10.7388 17.1123 10.7219 17.1083 10.7009C17.1003 10.7169 17.0653 10.7668 17.0013 10.7668H16.9854L17.0013 10.7919C17.0183 10.7919 17.0653 10.7918 17.1013 10.7668C17.1263 10.8008 17.1694 10.8098 17.2064 10.7878C17.2394 10.7628 17.2513 10.7158 17.2243 10.6808C17.2133 10.6638 17.1963 10.6539 17.1763 10.6519Z" fill="#7A361D"></path></g></g><g id="Clip path group_110"><mask id="mask109_9372_29170" style="mask-type:luminance" maskUnits="userSpaceOnUse" x="0" y="0" width="34" height="21"><g id="SVGID_00000151534517732836159610000008493432865168197048__106"><path id="Vector_218" d="M33.7805 0.711914H0.219482V20.2879H33.7805V0.711914Z" fill="white"></path></g></mask><g mask="url(#mask109_9372_29170)"><path id="Vector_219" d="M17.2744 11.001C17.2024 10.951 17.1673 10.876 17.0833 10.876C17.0653 10.876 17.0323 10.885 17.0013 10.902H16.9854L17.0013 10.925C17.0323 10.925 17.0833 10.884 17.1453 10.917C17.2013 10.951 17.2344 10.984 17.2744 11.001Z" fill="#7A361D"></path></g></g><g id="Clip path group_111"><mask id="mask110_9372_29170" style="mask-type:luminance" maskUnits="userSpaceOnUse" x="0" y="0" width="34" height="21"><g id="SVGID_00000151534517732836159610000008493432865168197048__107"><path id="Vector_220" d="M33.7805 0.711914H0.219482V20.2879H33.7805V0.711914Z" fill="white"></path></g></mask><g mask="url(#mask110_9372_29170)"><path id="Vector_221" d="M17.2524 11.0008C17.0824 10.9508 17.0494 10.9838 17.0004 10.9838H16.9844L17.0004 11.0188C17.0654 11.0188 17.1004 10.9678 17.2524 11.0008Z" fill="#7A361D"></path></g></g><g id="Clip path group_112"><mask id="mask111_9372_29170" style="mask-type:luminance" maskUnits="userSpaceOnUse" x="0" y="0" width="34" height="21"><g id="SVGID_00000151534517732836159610000008493432865168197048__108"><path id="Vector_222" d="M33.7805 0.711914H0.219482V20.2879H33.7805V0.711914Z" fill="white"></path></g></mask><g mask="url(#mask111_9372_29170)"><path id="Vector_223" d="M17.2744 11.0008C17.0944 10.9838 17.1513 11.0938 17.0013 11.0938H16.9854L17.0013 11.1188C17.1843 11.1188 17.1004 11.0188 17.2744 11.0008Z" fill="#7A361D"></path></g></g><g id="Clip path group_113"><mask id="mask112_9372_29170" style="mask-type:luminance" maskUnits="userSpaceOnUse" x="0" y="0" width="34" height="21"><g id="SVGID_00000151534517732836159610000008493432865168197048__109"><path id="Vector_224" d="M33.7805 0.711914H0.219482V20.2879H33.7805V0.711914Z" fill="white"></path></g></mask><g mask="url(#mask112_9372_29170)"><path id="Vector_225" d="M17.1504 11.2679C17.1504 11.1859 17.0824 11.1189 17.0004 11.1189C16.9184 11.1189 16.8484 11.1859 16.8484 11.2679C16.8674 11.1859 16.9524 11.1339 17.0364 11.1559C17.0944 11.1689 17.1374 11.2119 17.1504 11.2679Z" fill="#7A361D"></path></g></g><g id="Clip path group_114"><mask id="mask113_9372_29170" style="mask-type:luminance" maskUnits="userSpaceOnUse" x="0" y="0" width="34" height="21"><g id="SVGID_00000151534517732836159610000008493432865168197048__110"><path id="Vector_226" d="M33.7805 0.711914H0.219482V20.2879H33.7805V0.711914Z" fill="white"></path></g></mask><g mask="url(#mask113_9372_29170)"><path id="Vector_227" d="M16.3135 10.2648C16.5065 10.0988 16.7485 10.0728 16.8835 10.2008C16.9815 10.3278 16.9695 10.4828 16.8585 10.6428C16.8665 10.6428 16.8835 10.6518 16.8915 10.6568C16.9735 10.4978 16.9934 10.3318 16.9344 10.1818C16.7484 10.0318 16.4985 10.0148 16.3135 10.2648Z" fill="#7A361D"></path></g></g><g id="Clip path group_115"><mask id="mask114_9372_29170" style="mask-type:luminance" maskUnits="userSpaceOnUse" x="0" y="0" width="34" height="21"><g id="SVGID_00000151534517732836159610000008493432865168197048__111"><path id="Vector_228" d="M33.7805 0.711914H0.219482V20.2879H33.7805V0.711914Z" fill="white"></path></g></mask><g mask="url(#mask114_9372_29170)"><path id="Vector_229" d="M16.6154 10.2148C16.7224 10.2148 16.7484 10.2408 16.7994 10.2818C16.8484 10.3248 16.8714 10.3148 16.8834 10.3248C16.8914 10.3318 16.8834 10.3578 16.8654 10.3488C16.8474 10.3388 16.8164 10.3248 16.7634 10.2818C16.7144 10.2408 16.6634 10.2408 16.6154 10.2408C16.4654 10.2408 16.3834 10.3658 16.3634 10.3578C16.3464 10.3488 16.4474 10.2148 16.6154 10.2148Z" fill="#7A361D"></path></g></g><g id="Clip path group_116"><mask id="mask115_9372_29170" style="mask-type:luminance" maskUnits="userSpaceOnUse" x="0" y="0" width="34" height="21"><g id="SVGID_00000151534517732836159610000008493432865168197048__112"><path id="Vector_230" d="M33.7805 0.711914H0.219482V20.2879H33.7805V0.711914Z" fill="white"></path></g></mask><g mask="url(#mask115_9372_29170)"><path id="Vector_231" d="M16.4224 10.3579C16.5314 10.2409 16.7314 10.2319 16.8174 10.3659H16.7824C16.6984 10.2319 16.4994 10.2889 16.4854 10.3489V10.3659L16.4224 10.3579Z" fill="#7A361D"></path></g></g><g id="Clip path group_117"><mask id="mask116_9372_29170" style="mask-type:luminance" maskUnits="userSpaceOnUse" x="0" y="0" width="34" height="21"><g id="SVGID_00000151534517732836159610000008493432865168197048__113"><path id="Vector_232" d="M33.7805 0.711914H0.219482V20.2879H33.7805V0.711914Z" fill="white"></path></g></mask><g mask="url(#mask116_9372_29170)"><path id="Vector_233" d="M16.6334 10.2729C16.5904 10.2729 16.5574 10.308 16.5574 10.349C16.5574 10.39 16.5904 10.424 16.6334 10.424C16.6724 10.424 16.7054 10.39 16.7054 10.349C16.7054 10.308 16.6724 10.2729 16.6334 10.2729Z" fill="#7A361D"></path></g></g><g id="Clip path group_118"><mask id="mask117_9372_29170" style="mask-type:luminance" maskUnits="userSpaceOnUse" x="0" y="0" width="34" height="21"><g id="SVGID_00000151534517732836159610000008493432865168197048__114"><path id="Vector_234" d="M33.7805 0.711914H0.219482V20.2879H33.7805V0.711914Z" fill="white"></path></g></mask><g mask="url(#mask117_9372_29170)"><path id="Vector_235" d="M16.8174 10.3659C16.7314 10.4399 16.5494 10.4499 16.4224 10.3579L16.4854 10.3489C16.5654 10.4399 16.6984 10.4319 16.7824 10.3659V10.3489L16.8174 10.3659Z" fill="#7A361D"></path></g></g><g id="Clip path group_119"><mask id="mask118_9372_29170" style="mask-type:luminance" maskUnits="userSpaceOnUse" x="0" y="0" width="34" height="21"><g id="SVGID_00000151534517732836159610000008493432865168197048__115"><path id="Vector_236" d="M33.7805 0.711914H0.219482V20.2879H33.7805V0.711914Z" fill="white"></path></g></mask><g mask="url(#mask118_9372_29170)"><path id="Vector_237" d="M16.4126 10.3988C16.5566 10.5088 16.6976 10.4978 16.7816 10.4498C16.8656 10.3988 16.8656 10.3838 16.8476 10.3838C16.8316 10.3838 16.8166 10.3998 16.7476 10.4328C16.6806 10.4648 16.5826 10.4648 16.4126 10.3988Z" fill="#7A361D"></path></g></g><g id="Clip path group_120"><mask id="mask119_9372_29170" style="mask-type:luminance" maskUnits="userSpaceOnUse" x="0" y="0" width="34" height="21"><g id="SVGID_00000151534517732836159610000008493432865168197048__116"><path id="Vector_238" d="M33.7805 0.711914H0.219482V20.2879H33.7805V0.711914Z" fill="white"></path></g></mask><g mask="url(#mask119_9372_29170)"><path id="Vector_239" d="M16.8244 10.6519C16.7994 10.6589 16.7854 10.6888 16.7974 10.7148C16.8034 10.7408 16.8324 10.7558 16.8584 10.7448C16.8764 10.7388 16.8914 10.7219 16.8914 10.7009C16.8994 10.7169 16.9344 10.7668 17.0004 10.7668H17.0174L17.0004 10.7919C16.9844 10.7919 16.9344 10.7918 16.8984 10.7668C16.8754 10.8008 16.8284 10.8098 16.7964 10.7878C16.7594 10.7628 16.7514 10.7158 16.7734 10.6808C16.7894 10.6638 16.8074 10.6539 16.8244 10.6519Z" fill="#7A361D"></path></g></g><g id="Clip path group_121"><mask id="mask120_9372_29170" style="mask-type:luminance" maskUnits="userSpaceOnUse" x="0" y="0" width="34" height="21"><g id="SVGID_00000151534517732836159610000008493432865168197048__117"><path id="Vector_240" d="M33.7805 0.711914H0.219482V20.2879H33.7805V0.711914Z" fill="white"></path></g></mask><g mask="url(#mask120_9372_29170)"><path id="Vector_241" d="M16.7234 11.001C16.7994 10.951 16.8324 10.876 16.9164 10.876C16.9344 10.876 16.9674 10.885 17.0004 10.902H17.0174L17.0004 10.925C16.9674 10.925 16.9164 10.884 16.8574 10.917C16.7984 10.95 16.7644 10.984 16.7234 11.001Z" fill="#7A361D"></path></g></g><g id="Clip path group_122"><mask id="mask121_9372_29170" style="mask-type:luminance" maskUnits="userSpaceOnUse" x="0" y="0" width="34" height="21"><g id="SVGID_00000151534517732836159610000008493432865168197048__118"><path id="Vector_242" d="M33.7805 0.711914H0.219482V20.2879H33.7805V0.711914Z" fill="white"></path></g></mask><g mask="url(#mask121_9372_29170)"><path id="Vector_243" d="M16.7485 11.0008C16.9165 10.9508 16.9495 10.9838 17.0005 10.9838H17.0175L17.0005 11.0188C16.9345 11.0188 16.8995 10.9678 16.7485 11.0008Z" fill="#7A361D"></path></g></g><g id="Clip path group_123"><mask id="mask122_9372_29170" style="mask-type:luminance" maskUnits="userSpaceOnUse" x="0" y="0" width="34" height="21"><g id="SVGID_00000151534517732836159610000008493432865168197048__119"><path id="Vector_244" d="M33.7805 0.711914H0.219482V20.2879H33.7805V0.711914Z" fill="white"></path></g></mask><g mask="url(#mask122_9372_29170)"><path id="Vector_245" d="M16.7234 11.0008C16.9094 10.9838 16.8484 11.0938 17.0004 11.0938H17.0174L17.0004 11.1188C16.8174 11.1188 16.8994 11.0188 16.7234 11.0008Z" fill="#7A361D"></path></g></g><g id="Clip path group_124"><mask id="mask123_9372_29170" style="mask-type:luminance" maskUnits="userSpaceOnUse" x="0" y="0" width="34" height="21"><g id="SVGID_00000151534517732836159610000008493432865168197048__120"><path id="Vector_246" d="M33.7805 0.711914H0.219482V20.2879H33.7805V0.711914Z" fill="white"></path></g></mask><g mask="url(#mask123_9372_29170)"><path id="Vector_247" d="M16.8484 11.2679C16.8484 11.1859 16.9184 11.1189 17.0004 11.1189C17.0824 11.1189 17.1504 11.1859 17.1504 11.2679C17.1334 11.1859 17.0484 11.1339 16.9624 11.1559C16.9084 11.1689 16.8614 11.2119 16.8484 11.2679Z" fill="#7A361D"></path></g></g></g></g></g></g></g></g></svg>