<svg xmlns="http://www.w3.org/2000/svg" width="44" height="62" viewBox="0 0 44 62" fill="none"><rect x="2.75" y="48.75" width="3.5" height="10.5" stroke="#4FA83D" stroke-width="1.5"></rect><rect x="2.75" y="48.75" width="3.5" height="10.5" stroke="#4FA83D" stroke-width="1.5"></rect><rect x="11.75" y="39.75" width="3.5" height="19.5" stroke="#4FA83D" stroke-width="1.5"></rect><rect x="11.75" y="39.75" width="3.5" height="19.5" stroke="#4FA83D" stroke-width="1.5"></rect><rect x="20.75" y="43.75" width="3.5" height="15.5" stroke="#4FA83D" stroke-width="1.5"></rect><rect x="20.75" y="43.75" width="3.5" height="15.5" stroke="#4FA83D" stroke-width="1.5"></rect><rect x="29.75" y="27.75" width="3.5" height="31.5" stroke="#4FA83D" stroke-width="1.5"></rect><rect x="29.75" y="27.75" width="3.5" height="31.5" stroke="#4FA83D" stroke-width="1.5"></rect><rect x="38.75" y="18.75" width="3.5" height="40.5" stroke="#4FA83D" stroke-width="1.5"></rect><rect x="38.75" y="18.75" width="3.5" height="40.5" stroke="#4FA83D" stroke-width="1.5"></rect><rect x="1" y="60" width="43" height="2" fill="#4FA83D"></rect><path d="M3 30L12.0132 10.5505C12.2697 9.99688 12.9581 9.80012 13.4685 10.1345L26.221 18.4896C26.6599 18.7772 27.246 18.6758 27.5687 18.2621C30.2459 14.8303 31.2221 14.1828 34.5 9.5L39 3.5" stroke="#4FA83D"></path><circle cx="3" cy="30" r="3" fill="#4FA83D"></circle><circle cx="13" cy="10" r="3" fill="#4FA83D"></circle><circle cx="27" cy="18" r="3" fill="#4FA83D"></circle><circle cx="39" cy="3" r="3" fill="#4FA83D"></circle></svg>