<svg width="20" height="20" viewBox="0 0 20 20" fill="none" xmlns="http://www.w3.org/2000/svg">
<path d="M16.8083 0.637939H3.19125C1.78116 0.637939 0.638062 1.78104 0.638062 3.19113V16.8082C0.638062 18.2182 1.78116 19.3613 3.19125 19.3613H16.8083C18.2184 19.3613 19.3615 18.2182 19.3615 16.8082V3.19113C19.3615 1.78104 18.2184 0.637939 16.8083 0.637939Z" fill="#181818"/>
<path d="M16.8085 20H3.19149C2.34533 19.9991 1.53409 19.6626 0.935761 19.0642C0.337436 18.4659 0.000901129 17.6547 0 16.8085V3.19149C0.000901129 2.34533 0.337436 1.53409 0.935761 0.935761C1.53409 0.337436 2.34533 0.000901129 3.19149 0H16.8085C17.6547 0.000901129 18.4659 0.337436 19.0642 0.935761C19.6626 1.53409 19.9991 2.34533 20 3.19149V16.8085C19.9991 17.6547 19.6626 18.4659 19.0642 19.0642C18.4659 19.6626 17.6547 19.9991 16.8085 20ZM3.19149 1.2766C2.6838 1.27716 2.19707 1.47909 1.83808 1.83808C1.47909 2.19707 1.27716 2.6838 1.2766 3.19149V16.8085C1.27716 17.3162 1.47909 17.8029 1.83808 18.1619C2.19707 18.5209 2.6838 18.7228 3.19149 18.7234H16.8085C17.3162 18.7228 17.8029 18.5209 18.1619 18.1619C18.5209 17.8029 18.7228 17.3162 18.7234 16.8085V3.19149C18.7228 2.6838 18.5209 2.19707 18.1619 1.83808C17.8029 1.47909 17.3162 1.27716 16.8085 1.2766H3.19149Z" fill="#4FA83D"/>
<path d="M10.0002 20C9.83095 20 9.6686 19.9328 9.54889 19.813C9.42919 19.6933 9.36194 19.531 9.36194 19.3617V0.638298C9.36194 0.469011 9.42919 0.306657 9.54889 0.186953C9.6686 0.067249 9.83095 0 10.0002 0C10.1695 0 10.3319 0.067249 10.4516 0.186953C10.5713 0.306657 10.6385 0.469011 10.6385 0.638298V19.3617C10.6385 19.531 10.5713 19.6933 10.4516 19.813C10.3319 19.9328 10.1695 20 10.0002 20Z" fill="#59A52C"/>
<path d="M19.3617 10.6387H0.638298C0.469011 10.6387 0.306657 10.5714 0.186953 10.4517C0.067249 10.332 0 10.1696 0 10.0004C0 9.83107 0.067249 9.66872 0.186953 9.54901C0.306657 9.42931 0.469011 9.36206 0.638298 9.36206H19.3617C19.531 9.36206 19.6933 9.42931 19.813 9.54901C19.9328 9.66872 20 9.83107 20 10.0004C20 10.1696 19.9328 10.332 19.813 10.4517C19.6933 10.5714 19.531 10.6387 19.3617 10.6387Z" fill="#4FA83D"/>
<path d="M16.809 5.95897H12.5537C12.3844 5.95897 12.2221 5.89172 12.1024 5.77202C11.9827 5.65231 11.9154 5.48996 11.9154 5.32067C11.9154 5.15138 11.9827 4.98903 12.1024 4.86933C12.2221 4.74962 12.3844 4.68237 12.5537 4.68237H16.809C16.9783 4.68237 17.1407 4.74962 17.2604 4.86933C17.3801 4.98903 17.4473 5.15138 17.4473 5.32067C17.4473 5.48996 17.3801 5.65231 17.2604 5.77202C17.1407 5.89172 16.9783 5.95897 16.809 5.95897Z" fill="#4FA83D"/>
<path d="M15.9577 14.0422H13.4045C13.2352 14.0422 13.0729 13.975 12.9532 13.8553C12.8335 13.7356 12.7662 13.5732 12.7662 13.4039C12.7662 13.2346 12.8335 13.0723 12.9532 12.9526C13.0729 12.8329 13.2352 12.7656 13.4045 12.7656H15.9577C16.127 12.7656 16.2894 12.8329 16.4091 12.9526C16.5288 13.0723 16.596 13.2346 16.596 13.4039C16.596 13.5732 16.5288 13.7356 16.4091 13.8553C16.2894 13.975 16.127 14.0422 15.9577 14.0422Z" fill="#4FA83D"/>
<path d="M15.9577 16.5942H13.4045C13.2352 16.5942 13.0729 16.527 12.9532 16.4073C12.8335 16.2876 12.7662 16.1252 12.7662 15.9559C12.7662 15.7866 12.8335 15.6243 12.9532 15.5046C13.0729 15.3849 13.2352 15.3176 13.4045 15.3176H15.9577C16.127 15.3176 16.2894 15.3849 16.4091 15.5046C16.5288 15.6243 16.596 15.7866 16.596 15.9559C16.596 16.1252 16.5288 16.2876 16.4091 16.4073C16.2894 16.527 16.127 16.5942 15.9577 16.5942Z" fill="#4FA83D"/>
<path d="M7.44696 5.95897H3.19164C3.02236 5.95897 2.86 5.89172 2.7403 5.77202C2.62059 5.65231 2.55334 5.48996 2.55334 5.32067C2.55334 5.15138 2.62059 4.98903 2.7403 4.86933C2.86 4.74962 3.02236 4.68237 3.19164 4.68237H7.44696C7.61625 4.68237 7.7786 4.74962 7.89831 4.86933C8.01801 4.98903 8.08526 5.15138 8.08526 5.32067C8.08526 5.48996 8.01801 5.65231 7.89831 5.77202C7.7786 5.89172 7.61625 5.95897 7.44696 5.95897Z" fill="#4FA83D"/>
<path d="M5.31933 8.08392C5.15004 8.08392 4.98769 8.01667 4.86798 7.89696C4.74828 7.77726 4.68103 7.61491 4.68103 7.44562V3.1903C4.68103 3.02101 4.74828 2.85866 4.86798 2.73895C4.98769 2.61925 5.15004 2.552 5.31933 2.552C5.48862 2.552 5.65097 2.61925 5.77067 2.73895C5.89038 2.85866 5.95763 3.02101 5.95763 3.1903V7.44562C5.95763 7.61491 5.89038 7.77726 5.77067 7.89696C5.65097 8.01667 5.48862 8.08392 5.31933 8.08392Z" fill="#4FA83D"/>
<path d="M6.82384 16.8241C6.73998 16.8241 6.65694 16.8075 6.57947 16.7754C6.502 16.7433 6.43162 16.6962 6.37235 16.6368L3.36172 13.6279C3.2418 13.508 3.17444 13.3454 3.17444 13.1758C3.17444 13.0062 3.2418 12.8436 3.36172 12.7237C3.48163 12.6037 3.64426 12.5364 3.81384 12.5364C3.98342 12.5364 4.14606 12.6037 4.26597 12.7237L7.27661 15.7343C7.36591 15.8235 7.42674 15.9373 7.45141 16.0611C7.47607 16.1849 7.46347 16.3132 7.41518 16.4299C7.3669 16.5465 7.28511 16.6463 7.18016 16.7164C7.0752 16.7866 6.9518 16.8241 6.82555 16.8241H6.82384Z" fill="#4FA83D"/>
<path d="M3.81455 16.8241C3.6883 16.8241 3.5649 16.7866 3.45994 16.7164C3.35499 16.6463 3.2732 16.5465 3.22491 16.4299C3.17663 16.3132 3.16403 16.1849 3.18869 16.0611C3.21336 15.9373 3.27419 15.8235 3.36349 15.7343L6.37243 12.7237C6.49234 12.6037 6.65497 12.5364 6.82455 12.5364C6.99413 12.5364 7.15677 12.6037 7.27668 12.7237C7.39659 12.8436 7.46396 13.0062 7.46396 13.1758C7.46396 13.3454 7.39659 13.508 7.27668 13.6279L4.26604 16.6385C4.14607 16.7578 3.98369 16.8245 3.81455 16.8241Z" fill="#4FA83D"/>
<path d="M0.638298 17.4468C0.469011 17.4468 0.306657 17.3796 0.186953 17.2599C0.067249 17.1402 0 16.9778 0 16.8085V3.19149C0.000901129 2.34533 0.337436 1.53409 0.935761 0.935761C1.53409 0.337436 2.34533 0.000901129 3.19149 0H16.8085C16.9778 0 17.1402 0.067249 17.2599 0.186953C17.3796 0.306657 17.4468 0.469011 17.4468 0.638298C17.4468 0.807585 17.3796 0.969939 17.2599 1.08964C17.1402 1.20935 16.9778 1.2766 16.8085 1.2766H3.19149C2.6838 1.27716 2.19707 1.47909 1.83808 1.83808C1.47909 2.19707 1.27716 2.6838 1.2766 3.19149V16.8085C1.2766 16.9778 1.20935 17.1402 1.08964 17.2599C0.969939 17.3796 0.807585 17.4468 0.638298 17.4468Z" fill="#4FA83D"/>
</svg>
