<svg xmlns="http://www.w3.org/2000/svg" width="16" height="16" viewBox="0 0 16 16" fill="none"><path d="M12.2667 1.22871C11.0401 0.45409 9.5734 0 8.00006 0C6.42673 0 4.96007 0.45409 3.7334 1.22871V14.7713C4.96007 15.5459 6.42673 16 8.00006 16C9.5734 16 11.0401 15.5459 12.2667 14.7713V1.22871Z" fill="#F9F9F9"></path><path d="M12.2667 1.22876V14.7713C14.5067 13.3823 16 10.8181 16 7.98669C16 5.1553 14.5067 2.64445 12.2667 1.22876ZM3.73333 1.22876C1.49333 2.64445 0 5.20873 0 8.0134C0 10.8181 1.49333 13.3823 3.73333 14.798V1.22876ZM10.9067 7.90656C10.8 7.85313 10.7733 7.74629 10.8 7.69287L11.0667 6.73126L10.1333 6.91824C10.1067 6.91824 10 6.91824 9.97333 6.73126L9.89333 6.41073L9.25333 7.15864C9.25333 7.15864 8.82667 7.61273 8.96 6.91824L9.22667 5.44913L8.72 5.71624C8.69333 5.71624 8.58667 5.74295 8.45333 5.47584L8 4.54095L7.52 5.42242C7.38667 5.68953 7.28 5.66282 7.25333 5.66282L6.74667 5.3957L7.01333 6.86482C7.14667 7.55931 6.72 7.10522 6.72 7.10522L6.08 6.35731L6 6.67784C5.94667 6.86482 5.86667 6.86482 5.84 6.86482L4.90667 6.67784L5.17333 7.63944C5.17333 7.71958 5.17333 7.79971 5.06667 7.85313L4.8 8.0134C4.8 8.0134 5.86667 8.86816 6.21333 9.16198C6.29333 9.2154 6.45333 9.37567 6.4 9.56265L6.26667 9.93661L7.73333 9.72292C7.81333 9.72292 7.97333 9.72292 7.94667 9.96332L7.86667 11.4859H8.13333L8.05333 9.96332C8.05333 9.72292 8.21333 9.72292 8.26667 9.72292L9.73333 9.93661L9.6 9.56265C9.54667 9.37567 9.70667 9.2154 9.78667 9.16198C10.1333 8.86816 11.2 8.0134 11.2 8.0134L10.9067 7.90656Z" fill="#ED4C5C"></path></svg>