<svg xmlns="http://www.w3.org/2000/svg" width="24" height="18" viewBox="0 0 24 18" fill="none"><path d="M2.66667 0C1.95942 0 1.28115 0.291757 0.781049 0.811089C0.280952 1.33042 0 2.03479 0 2.76923L0 15.2308C0 15.9652 0.280952 16.6696 0.781049 17.1889C1.28115 17.7082 1.95942 18 2.66667 18H6.66667V0H2.66667ZM21.3333 0H17.3333V18H21.3333C22.0406 18 22.7189 17.7082 23.219 17.1889C23.719 16.6696 24 15.9652 24 15.2308V2.76923C24 2.03479 23.719 1.33042 23.219 0.811089C22.7189 0.291757 22.0406 0 21.3333 0Z" fill="#D52B1E"></path><path d="M6.66699 0H17.3337V18H6.66699V0Z" fill="#EEEEEE"></path><path d="M12.4101 11.8471C13.2088 11.9433 13.9248 12.0299 14.7228 12.1247L14.5194 11.431C14.5045 11.3713 14.5065 11.3084 14.5253 11.2499C14.5441 11.1914 14.5789 11.1398 14.6254 11.1015L16.9448 9.13947L16.4648 8.90478C16.2534 8.82655 16.3114 8.70263 16.3881 8.40493L16.7421 7.06463L15.3948 7.36024C15.2634 7.38101 15.1761 7.29447 15.1561 7.2114L14.9821 6.5807L13.9168 7.8227C13.7654 8.02209 13.4588 8.02209 13.5541 7.5624L14.0094 5.04655L13.3981 5.3754C13.2268 5.47509 13.0554 5.4917 12.9601 5.31378L12.1168 3.67578V3.71663V3.67578L11.2734 5.31378C11.1774 5.4917 11.0061 5.47509 10.8348 5.3754L10.2241 5.04655L10.6794 7.5624C10.7754 8.02209 10.4681 8.02209 10.3168 7.8227L9.25142 6.5814L9.07809 7.21209C9.05809 7.29517 8.97009 7.3817 8.83875 7.36093L7.49142 7.06532L7.84542 8.40563C7.92075 8.70332 7.97942 8.82724 7.76809 8.90547L7.28809 9.14016L9.60742 11.1022C9.69942 11.1762 9.74609 11.3099 9.71275 11.4317L9.50942 12.1254L11.8228 11.8478C11.8934 11.8478 11.9401 11.8886 11.9394 11.9731L11.7968 14.5374H12.4341L12.2921 11.9731C12.2934 11.8879 12.3394 11.8471 12.4101 11.8471Z" fill="#D52B1E"></path></svg>