<svg width="39" height="39" viewBox="0 0 39 39" fill="none" xmlns="http://www.w3.org/2000/svg">
<g clip-path="url(#clip0_1_366)">
<path d="M30.6052 0.637802C29.3348 0.809489 27.8354 1.09563 27.1715 1.26732C26.8281 1.35888 26.4161 1.45045 26.2787 1.48479C25.4317 1.65648 22.7878 2.67515 21.6203 3.28178C20.9221 3.64804 19.4914 4.49503 19.3884 4.62093C19.354 4.65527 19.1823 4.78117 18.9878 4.89563C17.8775 5.59382 15.2107 8.00888 13.8372 9.55406L13.2649 10.195L12.1775 10.2637C10.5064 10.3782 8.16006 10.5727 7.72512 10.63C7.21006 10.7101 6.67211 10.9733 6.26006 11.3511C5.97391 11.6143 3.74199 14.8535 3.60464 15.2083C3.58174 15.2655 3.52452 15.3456 3.49018 15.38C3.36427 15.483 2.13958 17.3715 1.945 17.7492C1.65885 18.3215 1.71608 18.9167 2.09379 19.5348C2.48295 20.13 3.03235 20.4619 3.82211 20.5649C4.10825 20.6107 4.46307 20.6679 4.62331 20.6908C4.78355 20.7251 5.48174 20.8282 6.16849 20.9312C8.07994 21.2173 7.94259 21.1372 7.94259 21.9041C7.94259 23.083 8.06849 23.2432 11.9715 27.1348C14.4667 29.6071 15.6914 30.7517 16.0004 30.8776C16.2408 30.9806 16.7444 31.0607 17.1107 31.0607C17.8546 31.0607 17.8317 31.0378 17.9576 32.148C18.1179 33.636 18.5757 35.9824 18.7703 36.2685C19.1251 36.8179 19.7661 37.127 20.5101 37.127H21.1739L24.207 35.1354C27.3203 33.0751 27.595 32.8691 27.9956 32.2282C28.339 31.6673 28.4076 31.2553 28.6022 28.3824L28.7739 25.7727L30.3305 24.2619C31.8528 22.7968 33.4438 20.9998 34.1076 19.9583C34.2908 19.6721 34.4625 19.4203 34.4968 19.386C34.657 19.2372 35.3209 18.0926 35.6986 17.3258C35.9275 16.8565 36.1564 16.3872 36.2022 16.2842C36.2595 16.1926 36.4311 15.7806 36.5914 15.3685C37.942 11.9348 38.5829 8.18057 38.4799 4.30045C38.4456 2.9384 38.3998 2.52636 38.2167 2.16009C37.9076 1.51913 37.5528 1.15286 36.9233 0.83238C36.4083 0.569127 36.2938 0.55768 33.8673 0.546235C32.4823 0.534789 31.0173 0.569128 30.6052 0.637802ZM36.0878 2.94985C36.2251 3.09864 36.2595 3.4878 36.248 5.17033C36.2137 10.1378 34.9089 14.7047 32.5396 18.23C30.2848 21.5607 27.1028 24.5023 23.6348 26.4709L22.5589 27.0776L17.2366 21.7553L11.9143 16.433L12.1432 15.9866C12.5209 15.2655 12.8414 14.7276 13.1504 14.2697C13.3107 14.0294 13.5739 13.6288 13.7456 13.377C15.0733 11.3739 17.454 8.92455 19.9607 6.99021C20.7962 6.3378 22.6046 5.28479 23.5661 4.88419C23.9438 4.72395 24.4131 4.52937 24.5962 4.44925C25.592 3.99141 28.3848 3.23599 29.6323 3.07575C29.9528 3.04142 30.3649 2.97274 30.548 2.9384C32.0589 2.67515 35.8131 2.67515 36.0878 2.94985ZM10.9643 13.5143C10.1516 14.8191 9.45343 16.2727 8.90403 17.8179C8.58355 18.7336 8.42331 19.0312 8.29741 18.9854C8.21729 18.9511 7.79379 18.8709 7.38174 18.8137C5.5962 18.5619 4.36006 18.3559 4.32572 18.3215C4.29138 18.2872 6.52331 14.8306 7.39319 13.5944C7.94259 12.7932 7.80524 12.839 10.289 12.6788C10.9185 12.6444 11.4564 12.5872 11.4793 12.5643C11.6396 12.4155 11.5251 12.633 10.9643 13.5143ZM20.1896 27.9932C20.1896 28.0733 19.3884 28.3251 18.2667 28.5998C16.8474 28.9432 17.1793 29.1492 13.551 25.5209C11.7655 23.7354 10.2661 22.1788 10.2317 22.0643C10.1402 21.8125 10.3348 20.7709 10.6896 19.5806L10.9643 18.6878L15.5769 23.3004C18.1179 25.8414 20.1896 27.9474 20.1896 27.9932ZM26.439 27.5011C26.4046 27.5468 26.3245 28.3137 26.2673 29.2065C26.2101 30.0878 26.107 30.9119 26.0384 31.0492C25.9697 31.1751 25.2257 31.7245 24.3902 32.2739C23.5661 32.8233 22.3872 33.5902 21.792 33.9794C20.8878 34.5745 20.6932 34.6661 20.636 34.5059C20.5673 34.3456 20.407 33.327 20.0751 31.1179C20.0293 30.7974 19.995 30.5342 20.0179 30.5113C20.0293 30.4998 20.4185 30.3511 20.8878 30.1908C22.536 29.63 24.207 28.8288 25.5119 27.9932C26.4733 27.3751 26.5305 27.3408 26.439 27.5011Z" fill="white"/>
<rect x="7.38861" y="24.426" width="2.41691" height="6.49029" rx="1.20845" transform="rotate(47.0655 7.38861 24.426)" fill="white"/>
<rect x="10.1538" y="27.2402" width="2.41691" height="8.83768" rx="1.20845" transform="rotate(47.0655 10.1538 27.2402)" fill="white"/>
<rect x="13.0181" y="30.7832" width="2.41691" height="4.43594" rx="1.20845" transform="rotate(47.0655 13.0181 30.7832)" fill="white"/>
</g>
<defs>
<clipPath id="clip0_1_366">
<rect width="38" height="38" fill="white" transform="translate(0.5 0.5)"/>
</clipPath>
</defs>
</svg>
