<svg width="63" height="63" viewBox="0 0 63 63" fill="none" xmlns="http://www.w3.org/2000/svg">
<rect y="0.5" width="62.5776" height="62" rx="8.85714" fill="#303432"/>
<path d="M20.648 16.6194C20.5219 16.7443 20.4919 17.0299 20.5879 17.2144C20.618 17.2739 22.0172 18.0533 23.6927 18.9458C25.3742 19.8383 26.7555 20.5761 26.7675 20.588C26.7795 20.594 27.1098 22.724 27.5062 25.3182C28.2929 30.5185 28.2328 30.2686 28.6772 30.2686C28.8814 30.2745 29.1997 30.0663 31.752 28.2635C33.3194 27.1508 34.6646 26.2107 34.7366 26.1572C34.8628 26.0798 34.9829 26.1334 36.9586 27.2103C38.1057 27.841 39.1326 28.3646 39.2347 28.3825C39.3608 28.4003 39.4569 28.3765 39.547 28.2992C39.619 28.2397 40.682 26.7641 41.9011 25.0148C44.2792 21.6292 44.2732 21.6292 44.015 21.3139C43.8588 21.1235 43.5165 21.1235 43.3244 21.3199C43.2463 21.4032 42.2854 22.7538 41.1864 24.3246C40.0874 25.8954 39.1686 27.2044 39.1446 27.2282C39.1206 27.252 37.2469 26.2643 34.9769 25.0267L30.8512 22.7776L38.2558 20.3322C42.3275 18.9875 45.6665 17.8927 45.6785 17.8986C45.6845 17.9046 45.4262 18.2973 45.0899 18.7673C44.4233 19.7193 44.3393 19.9692 44.6215 20.2013C44.8077 20.3619 45.1019 20.3381 45.2821 20.1418C45.3662 20.0525 45.8887 19.3385 46.4351 18.5591C47.5101 17.018 47.5702 16.8871 47.2939 16.6313L47.1558 16.5004H33.9619C20.8462 16.5004 20.7681 16.5004 20.648 16.6194ZM40.8862 17.4881C40.8381 17.5 37.7634 18.0236 34.058 18.6483L27.32 19.7848L25.1701 18.6364C23.987 18.0117 23.0081 17.4821 22.9961 17.4702C22.9841 17.4643 27.0197 17.4583 31.9742 17.4583C36.9226 17.4643 40.9342 17.4762 40.8862 17.4881ZM35.0609 20.3738C32.0042 21.3853 29.4459 22.2421 29.3678 22.2837C29.1877 22.3789 29.1636 22.492 28.8994 24.5209C28.7673 25.5324 28.6532 26.2226 28.6232 26.1572C28.5691 26.0203 27.7764 20.7249 27.8064 20.6951C27.8364 20.6654 40.3397 18.5353 40.4958 18.5353C40.5619 18.5353 38.1177 19.3623 35.0609 20.3738ZM31.9922 24.5031C33.0191 25.0564 33.8478 25.5324 33.8418 25.5562C33.8238 25.6098 29.3498 28.7692 29.3258 28.7454C29.3198 28.7335 29.4699 27.5614 29.6621 26.1393C29.8543 24.7173 30.0104 23.5273 30.0164 23.5035C30.0164 23.4261 29.9864 23.4142 31.9922 24.5031Z" fill="white"/>
<path d="M28.283 30.8629C27.8086 31.0354 27.6945 31.559 28.0968 31.7613C28.2409 31.8387 28.307 31.8387 28.6013 31.7613C28.7934 31.7137 28.9556 31.6721 28.9676 31.6721C28.9856 31.6721 29.0397 31.5888 29.0877 31.4876C29.1658 31.3448 29.1718 31.2675 29.1177 31.1128C29.0156 30.8034 28.7094 30.7082 28.283 30.8629Z" fill="#4FA83D"/>
<path d="M26.466 31.5828C26.0336 31.8029 25.9375 31.916 25.9375 32.2016C25.9375 32.4515 26.1237 32.624 26.3879 32.624C26.6281 32.624 27.3488 32.2551 27.4388 32.0885C27.601 31.7851 27.3668 31.3745 27.0365 31.3745C26.9464 31.3805 26.6882 31.4697 26.466 31.5828Z" fill="#4FA83D"/>
<path d="M25.1187 32.4872C25.0466 32.4991 24.8244 32.6598 24.6202 32.8383C24.2959 33.1298 24.2539 33.1953 24.2539 33.3856C24.2539 33.6415 24.2959 33.7129 24.4761 33.8081C24.7103 33.9271 24.8845 33.8795 25.2208 33.5998C25.6412 33.2488 25.6952 33.1774 25.6952 32.9454C25.6952 32.63 25.437 32.4277 25.1187 32.4872Z" fill="#4FA83D"/>
<path d="M23.5416 34.0103C23.3494 34.1055 22.875 34.8017 22.875 34.9861C22.875 35.3312 23.2113 35.5573 23.5176 35.4086C23.7398 35.3015 24.2562 34.6232 24.2562 34.4328C24.2562 34.2543 23.956 33.933 23.7938 33.933C23.7338 33.933 23.6197 33.9687 23.5416 34.0103Z" fill="#4FA83D"/>
<path d="M24.8179 34.3853C24.4816 34.4627 24.3495 34.9446 24.5957 35.1945C24.6978 35.2957 24.7879 35.3135 25.1002 35.3076C25.5566 35.3016 25.7548 35.1588 25.7548 34.8494C25.7548 34.5519 25.5866 34.3972 25.2383 34.3794C25.0762 34.3675 24.884 34.3734 24.8179 34.3853Z" fill="#4FA83D"/>
<path d="M26.3905 34.5942C26.1924 34.7489 26.1683 35.1178 26.3485 35.2963C26.4866 35.4331 27.3034 35.6295 27.5135 35.5759C27.6697 35.5402 27.8559 35.2784 27.8559 35.0999C27.8559 34.9036 27.5856 34.7072 27.1532 34.5882C26.6127 34.4395 26.5887 34.4395 26.3905 34.5942Z" fill="#4FA83D"/>
<path d="M28.2523 35.4332C28.1983 35.5046 28.1562 35.6593 28.1562 35.7664C28.1562 35.9271 28.2103 36.0163 28.4145 36.2067C28.9249 36.6886 29.1592 36.766 29.4414 36.5458C29.5615 36.4506 29.5975 36.3733 29.5975 36.1948C29.5975 35.9925 29.5555 35.933 29.2312 35.6355C28.9069 35.338 28.8409 35.3023 28.6067 35.3023C28.4025 35.3023 28.3244 35.3321 28.2523 35.4332Z" fill="#4FA83D"/>
<path d="M21.1168 35.5938C20.6905 35.8616 20.6064 36.1055 20.8346 36.3971C20.9247 36.5101 21.0147 36.5518 21.1649 36.5518C21.8495 36.5518 22.2579 35.7842 21.7234 35.5105C21.4892 35.3856 21.4291 35.3975 21.1168 35.5938Z" fill="#4FA83D"/>
<path d="M22.4492 35.7961C22.287 35.8794 21.9748 36.5696 21.9688 36.867C21.9688 37.0931 22.209 37.3252 22.4492 37.3252C22.7134 37.3252 22.8756 37.1288 23.0437 36.6231C23.2059 36.1352 23.1638 35.9091 22.8936 35.7842C22.7074 35.7009 22.6353 35.7009 22.4492 35.7961Z" fill="#4FA83D"/>
<path d="M19.5571 36.8486C19.1968 37.2116 19.1247 37.4198 19.2688 37.6816C19.3469 37.8244 19.6592 37.9315 19.8273 37.8661C20.0195 37.7887 20.578 37.1997 20.59 37.0569C20.626 36.688 20.4639 36.4916 20.1276 36.4916C19.9354 36.4916 19.8573 36.5392 19.5571 36.8486Z" fill="#4FA83D"/>
<path d="M29.6103 36.9498C29.4541 37.0093 29.3641 37.289 29.4181 37.5627C29.4481 37.7114 29.4842 37.9256 29.5022 38.0446C29.5262 38.1577 29.5923 38.3124 29.6643 38.3838C29.9045 38.6456 30.427 38.4849 30.445 38.1398C30.469 37.7055 30.3429 37.17 30.1808 37.0212C30.0607 36.9141 29.7844 36.8784 29.6103 36.9498Z" fill="#4FA83D"/>
<path d="M22.092 37.8186C21.8458 37.9436 21.7857 38.134 21.8458 38.6695C21.8938 39.0681 21.9239 39.1574 22.062 39.2704C22.2602 39.443 22.4463 39.443 22.6565 39.2823C22.7947 39.1752 22.8127 39.1217 22.8127 38.7944C22.8067 38.3601 22.7346 37.9912 22.6205 37.8841C22.4944 37.7651 22.2542 37.7353 22.092 37.8186Z" fill="#4FA83D"/>
<path d="M18.5327 38.1819C18.3526 38.3723 18.0703 38.9435 18.0703 39.1042C18.0703 39.4255 18.3946 39.6337 18.7189 39.5207C18.9351 39.4493 19.3314 38.7888 19.3314 38.4973C19.3314 38.0867 18.815 37.8785 18.5327 38.1819Z" fill="#4FA83D"/>
<path d="M29.6156 39.0029C29.4235 39.0921 29.1172 39.7823 29.1172 40.1215C29.1172 40.4904 29.6457 40.6748 29.9159 40.4011C29.988 40.3297 30.1141 40.0798 30.1982 39.8478C30.3243 39.4789 30.3303 39.4015 30.2642 39.2409C30.2162 39.1278 30.1201 39.0326 30.006 38.9969C29.7898 38.9196 29.7898 38.9196 29.6156 39.0029Z" fill="#4FA83D"/>
<path d="M22.4783 39.9134C22.3942 39.9907 22.3281 40.1276 22.3281 40.2109C22.3281 40.5143 22.7545 41.151 23.0248 41.2521C23.1989 41.3176 23.5112 41.2164 23.5893 41.0736C23.6253 41.0141 23.6493 40.9011 23.6493 40.8237C23.6493 40.6571 23.283 40.0205 23.1028 39.8658C22.9227 39.717 22.6524 39.7349 22.4783 39.9134Z" fill="#4FA83D"/>
<path d="M17.8462 39.8896C17.666 39.9551 17.558 40.1455 17.4438 40.6096C17.3057 41.1867 17.4318 41.4307 17.8762 41.4307C18.1104 41.4307 18.2726 41.2403 18.3927 40.8238C18.5068 40.4251 18.5128 40.1812 18.4167 40.0443C18.3146 39.9134 18.0084 39.8301 17.8462 39.8896Z" fill="#4FA83D"/>
<path d="M28.2243 40.9902C28.0201 41.1389 27.828 41.3115 27.7979 41.371C27.6298 41.6804 27.864 42.085 28.2063 42.085C28.4045 42.085 29.0651 41.6387 29.1732 41.4364C29.2813 41.2401 29.2452 41.0199 29.0891 40.8652C28.8669 40.6391 28.6507 40.6748 28.2243 40.9902Z" fill="#4FA83D"/>
<path d="M23.931 41.3764C23.7389 41.5252 23.7148 41.8941 23.877 42.0607C24.0331 42.2154 24.6817 42.501 24.8739 42.501C25.0721 42.501 25.3363 42.263 25.3363 42.0904C25.3363 41.8108 25.2282 41.6918 24.7658 41.4716C24.2373 41.2158 24.1472 41.2098 23.931 41.3764Z" fill="#4FA83D"/>
<path d="M26.5332 41.6983C26.4852 41.7102 26.3411 41.734 26.215 41.7578C25.7766 41.8292 25.5964 42.2754 25.9027 42.561C26.0408 42.686 26.0828 42.6979 26.5453 42.6622C27.1638 42.6146 27.338 42.5075 27.362 42.1624C27.38 41.9601 27.356 41.9006 27.2179 41.7935C27.0677 41.6804 26.8095 41.6447 26.5332 41.6983Z" fill="#4FA83D"/>
<path d="M17.293 42.0016C17.1189 42.2218 17.1069 43.0726 17.281 43.2809C17.4432 43.4832 17.7975 43.4713 17.9836 43.2511C18.1098 43.1083 18.1278 43.031 18.1278 42.5966C18.1278 42.1623 18.1098 42.0909 17.9897 41.9778C17.7855 41.7874 17.4552 41.7993 17.293 42.0016Z" fill="#4FA83D"/>
<path d="M17.5394 43.87C17.3052 43.9652 17.2632 44.1973 17.3773 44.697C17.4914 45.1909 17.6655 45.417 17.9178 45.417C18.3502 45.417 18.4763 45.1552 18.3382 44.5304C18.194 43.8998 17.9598 43.7034 17.5394 43.87Z" fill="#4FA83D"/>
<path d="M18.0991 45.8631C17.9129 46.0416 17.9069 46.2915 18.0691 46.6069C18.2072 46.8746 18.3393 46.9639 18.6036 46.9639C18.9999 46.9639 19.138 46.5771 18.9098 46.1309C18.6936 45.7084 18.3633 45.5954 18.0991 45.8631Z" fill="#4FA83D"/>
</svg>
