<svg width="32" height="32" viewBox="0 0 32 32" fill="none" xmlns="http://www.w3.org/2000/svg">
<path d="M4.35307 0.887206C4.22696 1.01216 4.19693 1.29775 4.29302 1.4822C4.32305 1.5417 5.7223 2.32115 7.39781 3.21364C9.07932 4.10613 10.4606 4.84393 10.4726 4.85583C10.4846 4.86178 10.8149 6.99186 11.2112 9.58604C11.9979 14.7863 11.9379 14.5364 12.3823 14.5364C12.5865 14.5424 12.9048 14.3341 15.457 12.5313C17.0244 11.4186 18.3697 10.4785 18.4417 10.425C18.5678 10.3476 18.6879 10.4012 20.6637 11.4781C21.8107 12.1088 22.8377 12.6324 22.9398 12.6503C23.0659 12.6681 23.162 12.6443 23.252 12.567C23.3241 12.5075 24.3871 11.0319 25.6062 9.2826C27.9843 5.89707 27.9783 5.89707 27.7201 5.58172C27.5639 5.39132 27.2216 5.39132 27.0294 5.58767C26.9514 5.67097 25.9905 7.02161 24.8915 8.5924C23.7925 10.1632 22.8737 11.4722 22.8497 11.496C22.8257 11.5198 20.952 10.5321 18.6819 9.2945L14.5562 7.04541L21.9609 4.59998C26.0325 3.25529 29.3715 2.1605 29.3835 2.16645C29.3896 2.1724 29.1313 2.56509 28.795 3.03514C28.1284 3.98713 28.0443 4.23703 28.3266 4.46908C28.5128 4.62973 28.807 4.60593 28.9872 4.40958C29.0713 4.32033 29.5937 3.60634 30.1402 2.82689C31.2152 1.28585 31.2752 1.15495 30.999 0.899106L30.8609 0.768207H17.667C4.55125 0.768207 4.47318 0.768207 4.35307 0.887206ZM24.5912 1.7559C24.5432 1.7678 21.4684 2.2914 17.7631 2.91614L11.0251 4.05258L8.87513 2.90424C7.69207 2.2795 6.71319 1.74995 6.70118 1.73805C6.68917 1.7321 10.7248 1.72615 15.6792 1.72615C20.6277 1.7321 24.6393 1.744 24.5912 1.7559ZM18.766 4.64163C15.7093 5.65312 13.151 6.50992 13.0729 6.55157C12.8927 6.64677 12.8687 6.75981 12.6045 8.78875C12.4724 9.80024 12.3583 10.4904 12.3282 10.425C12.2742 10.2881 11.4815 4.99268 11.5115 4.96293C11.5415 4.93318 24.0448 2.80309 24.2009 2.80309C24.267 2.80309 21.8228 3.63014 18.766 4.64163ZM15.6973 8.7709C16.7242 9.32425 17.5529 9.80024 17.5469 9.82404C17.5289 9.87759 13.0549 13.037 13.0309 13.0132C13.0249 13.0013 13.175 11.8292 13.3672 10.4071C13.5593 8.9851 13.7155 7.79511 13.7215 7.77131C13.7215 7.69396 13.6915 7.68206 15.6973 8.7709Z" fill="#4FA83D"/>
<path d="M11.9882 15.1307C11.5138 15.3033 11.3997 15.8268 11.802 16.0291C11.9461 16.1065 12.0122 16.1065 12.3065 16.0291C12.4986 15.9815 12.6608 15.9399 12.6728 15.9399C12.6908 15.9399 12.7449 15.8566 12.7929 15.7554C12.871 15.6126 12.877 15.5353 12.8229 15.3806C12.7208 15.0712 12.4146 14.976 11.9882 15.1307Z" fill="#4FA83D"/>
<path d="M10.1711 15.8506C9.73866 16.0708 9.64258 16.1838 9.64258 16.4694C9.64258 16.7193 9.82875 16.8918 10.093 16.8918C10.3332 16.8918 11.0538 16.5229 11.1439 16.3563C11.3061 16.0529 11.0719 15.6424 10.7416 15.6424C10.6515 15.6483 10.3933 15.7376 10.1711 15.8506Z" fill="#4FA83D"/>
<path d="M8.82376 16.755C8.7517 16.7669 8.5295 16.9276 8.32531 17.1061C8.00102 17.3976 7.95898 17.4631 7.95898 17.6535C7.95898 17.9093 8.00102 17.9807 8.18118 18.0759C8.41539 18.1949 8.58955 18.1473 8.92585 17.8677C9.34623 17.5166 9.40028 17.4452 9.40028 17.2132C9.40028 16.8978 9.14205 16.6955 8.82376 16.755Z" fill="#4FA83D"/>
<path d="M7.24668 18.2782C7.0545 18.3734 6.58008 19.0695 6.58008 19.2539C6.58008 19.599 6.91638 19.8251 7.22266 19.6764C7.44485 19.5693 7.96132 18.891 7.96132 18.7006C7.96132 18.5221 7.66105 18.2008 7.4989 18.2008C7.43885 18.2008 7.32475 18.2365 7.24668 18.2782Z" fill="#4FA83D"/>
<path d="M8.523 18.6532C8.1867 18.7305 8.05458 19.2124 8.3008 19.4623C8.4029 19.5635 8.49298 19.5813 8.80526 19.5754C9.26167 19.5694 9.45985 19.4266 9.45985 19.1172C9.45985 18.8198 9.29169 18.6651 8.94338 18.6472C8.78124 18.6353 8.58906 18.6413 8.523 18.6532Z" fill="#4FA83D"/>
<path d="M10.0956 18.862C9.89744 19.0167 9.87342 19.3856 10.0536 19.5641C10.1917 19.701 11.0084 19.8973 11.2186 19.8438C11.3748 19.8081 11.5609 19.5463 11.5609 19.3678C11.5609 19.1714 11.2907 18.9751 10.8583 18.8561C10.3178 18.7073 10.2938 18.7073 10.0956 18.862Z" fill="#4FA83D"/>
<path d="M11.9574 19.701C11.9034 19.7724 11.8613 19.9271 11.8613 20.0342C11.8613 20.1949 11.9154 20.2841 12.1196 20.4745C12.63 20.9565 12.8642 21.0338 13.1465 20.8137C13.2666 20.7185 13.3026 20.6411 13.3026 20.4626C13.3026 20.2603 13.2606 20.2008 12.9363 19.9033C12.612 19.6058 12.5459 19.5701 12.3117 19.5701C12.1075 19.5701 12.0295 19.5999 11.9574 19.701Z" fill="#4FA83D"/>
<path d="M4.82192 19.8616C4.39553 20.1294 4.31146 20.3733 4.53966 20.6649C4.62974 20.7779 4.71982 20.8196 4.86996 20.8196C5.55457 20.8196 5.96294 20.052 5.42846 19.7783C5.19425 19.6534 5.1342 19.6653 4.82192 19.8616Z" fill="#4FA83D"/>
<path d="M6.15426 20.0639C5.99211 20.1472 5.67983 20.8374 5.67383 21.1349C5.67383 21.361 5.91404 21.593 6.15426 21.593C6.4185 21.593 6.58064 21.3967 6.74879 20.8909C6.91094 20.403 6.8689 20.1769 6.59866 20.052C6.41249 19.9687 6.34043 19.9687 6.15426 20.0639Z" fill="#4FA83D"/>
<path d="M3.26215 21.1164C2.90183 21.4794 2.82976 21.6876 2.97389 21.9494C3.05196 22.0922 3.36424 22.1993 3.53239 22.1339C3.72457 22.0565 4.28307 21.4675 4.29508 21.3247C4.33111 20.9558 4.16897 20.7594 3.83266 20.7594C3.64049 20.7594 3.56242 20.807 3.26215 21.1164Z" fill="#4FA83D"/>
<path d="M13.3151 21.2177C13.159 21.2772 13.0689 21.5568 13.1229 21.8305C13.153 21.9793 13.189 22.1935 13.207 22.3125C13.231 22.4255 13.2971 22.5802 13.3692 22.6516C13.6094 22.9134 14.1318 22.7528 14.1499 22.4077C14.1739 21.9733 14.0478 21.4378 13.8856 21.2891C13.7655 21.182 13.4893 21.1463 13.3151 21.2177Z" fill="#4FA83D"/>
<path d="M5.7971 22.0865C5.55088 22.2114 5.49082 22.4018 5.55088 22.9373C5.59892 23.336 5.62895 23.4252 5.76707 23.5383C5.96525 23.7108 6.15142 23.7108 6.36161 23.5502C6.49973 23.4431 6.51775 23.3895 6.51775 23.0623C6.51174 22.6279 6.43968 22.259 6.32557 22.1519C6.19946 22.0329 5.95925 22.0032 5.7971 22.0865Z" fill="#4FA83D"/>
<path d="M2.23781 22.4498C2.05764 22.6402 1.77539 23.2114 1.77539 23.372C1.77539 23.6933 2.09968 23.9016 2.42397 23.7885C2.64017 23.7171 3.03652 23.0567 3.03652 22.7651C3.03652 22.3546 2.52006 22.1463 2.23781 22.4498Z" fill="#4FA83D"/>
<path d="M13.3207 23.2707C13.1285 23.3599 12.8223 24.0501 12.8223 24.3893C12.8223 24.7582 13.3507 24.9426 13.621 24.6689C13.693 24.5975 13.8192 24.3476 13.9032 24.1156C14.0293 23.7467 14.0354 23.6693 13.9693 23.5087C13.9213 23.3956 13.8252 23.3004 13.7111 23.2647C13.4949 23.1874 13.4949 23.1874 13.3207 23.2707Z" fill="#4FA83D"/>
<path d="M6.18334 24.1812C6.09926 24.2585 6.0332 24.3954 6.0332 24.4787C6.0332 24.7821 6.45959 25.4188 6.72983 25.5199C6.90399 25.5854 7.21627 25.4842 7.29434 25.3414C7.33037 25.2819 7.35439 25.1689 7.35439 25.0915C7.35439 24.9249 6.98806 24.2883 6.8079 24.1336C6.62774 23.9848 6.35749 24.0027 6.18334 24.1812Z" fill="#4FA83D"/>
<path d="M1.55129 24.1574C1.37113 24.2229 1.26303 24.4133 1.14893 24.8774C1.0108 25.4545 1.13692 25.6985 1.58131 25.6985C1.81552 25.6985 1.97767 25.5081 2.09778 25.0916C2.21188 24.6929 2.21789 24.449 2.1218 24.3121C2.01971 24.1812 1.71343 24.0979 1.55129 24.1574Z" fill="#4FA83D"/>
<path d="M11.9294 25.258C11.7252 25.4067 11.533 25.5793 11.503 25.6388C11.3349 25.9482 11.5691 26.3528 11.9114 26.3528C12.1096 26.3528 12.7702 25.9065 12.8783 25.7042C12.9864 25.5079 12.9503 25.2877 12.7942 25.133C12.572 24.9069 12.3558 24.9426 11.9294 25.258Z" fill="#4FA83D"/>
<path d="M7.63611 25.6443C7.44394 25.793 7.41992 26.1619 7.58206 26.3285C7.7382 26.4832 8.38679 26.7688 8.57896 26.7688C8.77714 26.7688 9.04137 26.5308 9.04137 26.3583C9.04137 26.0786 8.93328 25.9596 8.47086 25.7395C7.94239 25.4836 7.85231 25.4777 7.63611 25.6443Z" fill="#4FA83D"/>
<path d="M10.2383 25.9661C10.1903 25.978 10.0462 26.0018 9.92004 26.0256C9.48164 26.097 9.30148 26.5432 9.60776 26.8288C9.74588 26.9538 9.78792 26.9657 10.2503 26.93C10.8689 26.8824 11.043 26.7753 11.0671 26.4302C11.0851 26.2279 11.0611 26.1684 10.9229 26.0613C10.7728 25.9482 10.5146 25.9125 10.2383 25.9661Z" fill="#4FA83D"/>
<path d="M0.998106 26.2695C0.82395 26.4896 0.811939 27.3405 0.986095 27.5487C1.14824 27.751 1.50256 27.7391 1.68873 27.5189C1.81484 27.3762 1.83286 27.2988 1.83286 26.8645C1.83286 26.4301 1.81484 26.3587 1.69473 26.2457C1.49055 26.0553 1.16025 26.0672 0.998106 26.2695Z" fill="#4FA83D"/>
<path d="M1.24451 28.1378C1.0103 28.233 0.968264 28.4651 1.08237 28.9649C1.19647 29.4587 1.37063 29.6848 1.62285 29.6848C2.05524 29.6848 2.18135 29.423 2.04323 28.7983C1.8991 28.1676 1.66489 27.9712 1.24451 28.1378Z" fill="#4FA83D"/>
<path d="M1.80418 30.1309C1.61802 30.3094 1.61201 30.5593 1.77416 30.8747C1.91228 31.1424 2.0444 31.2317 2.30864 31.2317C2.70499 31.2317 2.84312 30.8449 2.61491 30.3987C2.39872 29.9762 2.06842 29.8632 1.80418 30.1309Z" fill="#4FA83D"/>
</svg>
