<svg xmlns="http://www.w3.org/2000/svg" width="56" height="50" viewBox="0 0 56 50" fill="none"><path d="M21.7181 39.6411L20.5007 38.9309C19.1818 38.1193 19.1818 36.1918 20.5007 35.3802L21.7181 34.6701C22.7326 34.0614 23.0369 32.844 22.4282 31.931L21.4137 30.2063C20.805 29.1918 19.5876 28.8875 18.6746 29.4962L17.4572 30.2063C16.1384 31.0179 14.4137 30.0034 14.4137 28.4817V27.0614C14.4137 25.9455 13.5007 25.0324 12.3848 25.0324H10.3558C9.23983 25.0324 8.32679 25.9455 8.32679 27.0614V28.3802C8.32679 29.902 6.60216 30.9165 5.28332 30.1049L4.06593 29.4962C3.05144 28.8875 1.83405 29.2933 1.3268 30.2063L0.312313 31.931C-0.194932 32.9454 0.109415 34.1628 1.02246 34.7715L2.23985 35.4817C3.55868 36.1918 3.55868 38.2208 2.23985 38.9309L1.02246 39.6411C0.0079661 40.2498 -0.296381 41.4672 0.312313 42.3802L1.3268 44.1048C1.9355 45.1193 3.15289 45.4237 4.06593 44.815L5.28332 44.2063C6.60216 43.3947 8.32679 44.4092 8.32679 45.9309V47.3512C8.32679 48.4672 9.23983 49.3802 10.3558 49.3802H12.3848C13.5007 49.3802 14.4137 48.4672 14.4137 47.3512V46.0324C14.4137 44.5106 16.1384 43.4961 17.4572 44.3077L18.6746 45.0179C19.6891 45.6266 20.9065 45.2208 21.4137 44.3077L22.4282 42.5831C22.9355 41.4672 22.6311 40.2498 21.7181 39.6411ZM11.3703 41.2643C9.13839 41.2643 7.3123 39.4382 7.3123 37.2063C7.3123 34.9744 9.13839 33.1483 11.3703 33.1483C13.6021 33.1483 15.4282 34.9744 15.4282 37.2063C15.4282 39.4382 13.6021 41.2643 11.3703 41.2643Z" fill="#4FA83D"></path><path fill-rule="evenodd" clip-rule="evenodd" d="M51.9988 24.1842C51.9988 35.3316 42.9621 44.3683 31.8147 44.3683C30.077 44.3683 28.3906 44.1487 26.7817 43.7358V47.8439C28.4052 48.1875 30.0888 48.3683 31.8147 48.3683C45.1712 48.3683 55.9988 37.5407 55.9988 24.1842C55.9988 10.8276 45.1712 0 31.8147 0C19.908 0 10.011 8.60455 8.00266 19.9347H12.0787C14.0301 10.8278 22.125 4 31.8147 4C42.9621 4 51.9988 13.0368 51.9988 24.1842Z" fill="#4FA83D"></path><path d="M38.8 28.35C38.8 29.2 38.65 29.925 38.35 30.525C38.0667 31.125 37.7 31.625 37.25 32.025C36.7833 32.425 36.2583 32.725 35.675 32.925C35.1083 33.125 34.5333 33.25 33.95 33.3V35.45H31.875V33.325C30.4083 33.225 29.3083 32.7917 28.575 32.025C27.8417 31.2583 27.375 30.2083 27.175 28.875H30.05C30.05 29.5083 30.2 30.025 30.5 30.425C30.8167 30.825 31.275 31.1167 31.875 31.3V24.975C31.4583 24.875 31 24.7417 30.5 24.575C30 24.3917 29.525 24.125 29.075 23.775C28.6417 23.425 28.275 22.9667 27.975 22.4C27.675 21.8333 27.525 21.1083 27.525 20.225C27.525 19.4917 27.6583 18.8583 27.925 18.325C28.2083 17.7917 28.5667 17.3417 29 16.975C29.4167 16.625 29.8833 16.3583 30.4 16.175C30.9167 15.975 31.4083 15.8417 31.875 15.775V13.825H33.95V15.725C34.5333 15.775 35.1 15.9167 35.65 16.15C36.2 16.3833 36.6833 16.6917 37.1 17.075C37.5167 17.4583 37.85 17.9083 38.1 18.425C38.35 18.925 38.475 19.475 38.475 20.075H35.675C35.675 19.4417 35.5083 18.925 35.175 18.525C34.8583 18.125 34.45 17.85 33.95 17.7V23.475C34.3833 23.625 34.875 23.8 35.425 24C35.9917 24.2 36.525 24.475 37.025 24.825C37.525 25.1917 37.9417 25.6583 38.275 26.225C38.625 26.7917 38.8 27.5 38.8 28.35ZM31.875 22.8V17.7C31.4917 17.8333 31.1167 18.0667 30.75 18.4C30.3833 18.7333 30.2 19.3417 30.2 20.225C30.2 20.9417 30.3667 21.5 30.7 21.9C31.0333 22.3 31.425 22.6 31.875 22.8ZM36.025 28.525C36.025 27.775 35.8083 27.1917 35.375 26.775C34.9583 26.3417 34.4833 25.9833 33.95 25.7V31.375C34.4167 31.275 34.875 30.9917 35.325 30.525C35.7917 30.0417 36.025 29.375 36.025 28.525Z" fill="#4FA83D"></path></svg>