<svg xmlns="http://www.w3.org/2000/svg" id="Group_5385" data-name="Group 5385" width="45.286" height="45.286" viewBox="0 0 45.286 45.286"><circle id="Ellipse_1458" data-name="Ellipse 1458" cx="16" cy="16" r="16" transform="translate(7.875 5.125)" fill="#fff"></circle><path id="Icon_ionic-ios-checkmark-circle" data-name="Icon ionic-ios-checkmark-circle" d="M26.018,3.375A22.643,22.643,0,1,0,48.661,26.018,22.64,22.64,0,0,0,26.018,3.375ZM37.612,19.759,23.057,34.379h-.011a1.966,1.966,0,0,1-1.263.6,1.906,1.906,0,0,1-1.274-.621l-6.1-6.1a.434.434,0,0,1,0-.621L16.351,25.7a.421.421,0,0,1,.61,0l4.833,4.833L35.075,17.157a.43.43,0,0,1,.3-.131h0a.4.4,0,0,1,.3.131l1.905,1.97A.429.429,0,0,1,37.612,19.759Z" transform="translate(-3.375 -3.375)" fill="#4fa83d"></path></svg>