<svg xmlns="http://www.w3.org/2000/svg" width="35" height="21" viewBox="0 0 35 21" fill="none"><g id="CHINA_3_"><g id="Group"><g id="Group_2"><g id="Clip path group"><mask id="mask0_9372_55407" style="mask-type:luminance" maskUnits="userSpaceOnUse" x="0" y="0" width="35" height="21"><g id="SVGID_00000081611123262841521810000006509715591677902527_"><path id="Vector" d="M34.283 0.713013H0.719971V20.287H34.283V0.713013Z" fill="white"></path></g></mask><g mask="url(#mask0_9372_55407)"><path id="Vector_2" d="M34.283 0.713013H0.719971V20.287H34.283V0.713013Z" fill="#CB1D23"></path></g></g><g id="Clip path group_2"><mask id="mask1_9372_55407" style="mask-type:luminance" maskUnits="userSpaceOnUse" x="0" y="0" width="35" height="21"><g id="SVGID_00000081611123262841521810000006509715591677902527__2"><path id="Vector_3" d="M34.283 0.713013H0.719971V20.287H34.283V0.713013Z" fill="white"></path></g></mask><g mask="url(#mask1_9372_55407)"><path id="Vector_4" d="M3.94687 7.79898L4.57687 5.84598L2.92188 4.63098L4.97387 4.62698L5.61387 2.67798L6.25187 4.62698L8.30487 4.63498L6.64587 5.84598L7.27287 7.79898L5.61187 6.59198L3.94687 7.79898Z" fill="#F7DE29"></path></g></g><g id="Clip path group_3"><mask id="mask2_9372_55407" style="mask-type:luminance" maskUnits="userSpaceOnUse" x="0" y="0" width="35" height="21"><g id="SVGID_00000081611123262841521810000006509715591677902527__3"><path id="Vector_5" d="M34.283 0.713013H0.719971V20.287H34.283V0.713013Z" fill="white"></path></g></mask><g mask="url(#mask2_9372_55407)"><path id="Vector_6" d="M9.66991 8.85403L10.3639 9.13504L10.8459 8.56104L10.7939 9.30704L11.4869 9.58804L10.7619 9.77203L10.7079 10.51L10.3099 9.88104L9.58691 10.057L10.0639 9.48703L9.66991 8.85403Z" fill="#F7DE29"></path></g></g><g id="Clip path group_4"><mask id="mask3_9372_55407" style="mask-type:luminance" maskUnits="userSpaceOnUse" x="0" y="0" width="35" height="21"><g id="SVGID_00000081611123262841521810000006509715591677902527__4"><path id="Vector_7" d="M34.283 0.713013H0.719971V20.287H34.283V0.713013Z" fill="white"></path></g></mask><g mask="url(#mask3_9372_55407)"><path id="Vector_8" d="M13.4219 5.09995L12.6849 4.97095L12.3329 5.63095L12.2289 4.89294L11.4919 4.75595L12.1629 4.43195L12.0609 3.68994L12.5819 4.22495L13.2529 3.90094L12.9019 4.56094L13.4219 5.09995Z" fill="#F7DE29"></path></g></g><g id="Clip path group_5"><mask id="mask4_9372_55407" style="mask-type:luminance" maskUnits="userSpaceOnUse" x="0" y="0" width="35" height="21"><g id="SVGID_00000081611123262841521810000006509715591677902527__5"><path id="Vector_9" d="M34.283 0.713013H0.719971V20.287H34.283V0.713013Z" fill="white"></path></g></mask><g mask="url(#mask4_9372_55407)"><path id="Vector_10" d="M11.8599 8.44406L12.0879 7.73306L11.4849 7.29108H12.2329L12.4639 6.58105L12.6959 7.29108H13.4439L12.8419 7.73306L13.0679 8.44406L12.4639 8.00607L11.8599 8.44406Z" fill="#F7DE29"></path></g></g><g id="Clip path group_6"><mask id="mask5_9372_55407" style="mask-type:luminance" maskUnits="userSpaceOnUse" x="0" y="0" width="35" height="21"><g id="SVGID_00000081611123262841521810000006509715591677902527__6"><path id="Vector_11" d="M34.283 0.713013H0.719971V20.287H34.283V0.713013Z" fill="white"></path></g></mask><g mask="url(#mask5_9372_55407)"><path id="Vector_12" d="M9.70805 1.95596L10.3851 2.27197L10.8951 1.72498L10.8071 2.46698L11.4811 2.78796L10.7501 2.92798L10.6571 3.66998L10.2931 3.01797L9.56006 3.15497L10.0681 2.60797L9.70805 1.95596Z" fill="#F7DE29"></path></g></g></g></g></g></svg>
