<svg xmlns="http://www.w3.org/2000/svg" width="334.363" height="238.554" viewBox="0 0 334.363 238.554"><g id="Group_4780" data-name="Group 4780" transform="translate(-672.668 -7156.261)" opacity="0.08"><path id="Icon_awesome-cloud-upload-alt" data-name="Icon awesome-cloud-upload-alt" d="M268.265,99.356a47.961,47.961,0,0,0-44.711-65.17,47.66,47.66,0,0,0-26.6,8.084A79.847,79.847,0,0,0,47.9,82.091c0,1.347.05,2.695.1,4.042A71.876,71.876,0,0,0,71.857,225.8H255.49A63.869,63.869,0,0,0,268.265,99.356ZM196.308,130H163.673v55.888a8.008,8.008,0,0,1-7.984,7.984H131.737a8.008,8.008,0,0,1-7.984-7.984V130H91.118a7.969,7.969,0,0,1-5.639-13.623l52.6-52.6a8.012,8.012,0,0,1,11.277,0l52.6,52.6A7.98,7.98,0,0,1,196.308,130Z" transform="translate(680.168 7161.511)" fill="none" stroke="#fff" stroke-width="15"></path></g></svg>