<svg xmlns="http://www.w3.org/2000/svg" width="45" height="45" viewBox="0 0 45 45" fill="none"><circle cx="22.5" cy="22.5" r="22.5" fill="url(#paint0_radial_38_2952)" fill-opacity="0.26"></circle><path d="M23.1316 34C20.7085 34 18.2834 34 15.8602 34C14.3363 34 13.4022 32.7314 13.8547 31.2693C14.431 29.4128 14.9261 27.5369 15.2742 25.6224C15.6417 23.5956 15.5392 21.5921 15.1311 19.5867C14.7965 17.9487 14.3556 16.3397 13.8605 14.7442C13.4022 13.2628 14.3285 12 15.8737 12C20.7201 12 25.5683 12 30.4147 12C31.9425 12 32.8746 13.2667 32.4201 14.7307C31.8419 16.5872 31.3468 18.4611 30.9987 20.3776C30.6313 22.4044 30.7338 24.4079 31.1418 26.4133C31.4764 28.0513 31.9173 29.6603 32.4124 31.2558C32.8727 32.7372 31.9444 34 30.4011 34C27.978 34 25.5529 34 23.1297 34H23.1316ZM23.1258 13.6922C20.7278 13.6922 18.3317 13.6922 15.9337 13.6922C15.4541 13.6922 15.3438 13.8372 15.485 14.2859C16.1097 16.2662 16.6395 18.2697 16.976 20.3216C17.2507 21.9944 17.2797 23.6672 17.0263 25.3458C16.6995 27.5079 16.1425 29.6139 15.4908 31.6967C15.3438 32.1686 15.4463 32.3078 15.9414 32.3078C20.7355 32.3078 25.5297 32.3078 30.3238 32.3078C30.8247 32.3078 30.9291 32.1686 30.7802 31.7006C30.2194 29.9214 29.7436 28.1229 29.3936 26.2896C28.9913 24.1816 28.9623 22.0775 29.351 19.9618C29.7049 18.0299 30.2 16.1366 30.7918 14.2665C30.9233 13.8488 30.8073 13.6941 30.3663 13.6941C27.9509 13.6941 25.5374 13.6941 23.122 13.6941L23.1258 13.6922Z" fill="#4FA83D"></path><path d="M13.8296 23.2456C13.8006 24.5626 13.671 26.102 13.0889 27.5679C12.942 27.9372 12.7621 28.2911 12.5146 28.6025C12.2322 28.9583 11.7449 29.028 11.3794 28.7746C11.0197 28.5271 10.8785 28.0397 11.1202 27.6781C11.6753 26.8465 11.8841 25.9066 12.0079 24.9436C12.2322 23.2166 12.1897 21.4974 11.7642 19.8013C11.6405 19.3043 11.4548 18.8344 11.1647 18.4051C10.8882 17.997 10.9965 17.4807 11.3891 17.2196C11.7797 16.9585 12.2786 17.0649 12.5687 17.4749C13.1199 18.2542 13.379 19.1457 13.5608 20.0663C13.7523 21.0371 13.8296 22.0195 13.8296 23.2475V23.2456Z" fill="#4FA83D"></path><path d="M32.4474 22.679C32.5015 21.2324 32.6408 19.8013 33.1823 18.4379C33.3292 18.0686 33.513 17.7185 33.7566 17.4033C34.0235 17.0571 34.5051 16.9759 34.8686 17.2041C35.2399 17.4381 35.4024 17.9467 35.1587 18.3142C34.6037 19.1457 34.3948 20.0837 34.2691 21.0448C34.0545 22.6906 34.0699 24.3286 34.507 25.9434C34.6694 26.5468 34.9034 27.1231 35.1703 27.6897C35.4101 28.1983 35.1626 28.7398 34.6404 28.8906C34.2478 29.0028 33.8553 28.8249 33.6541 28.4284C33.0701 27.272 32.7143 26.0459 32.5518 24.7618C32.4648 24.0714 32.43 23.3752 32.4455 22.679H32.4474Z" fill="#4FA83D"></path><path d="M23.1082 23.847C21.9904 23.847 20.8726 23.8509 19.7548 23.8451C19.312 23.8432 18.9542 23.5125 18.9117 23.0889C18.8691 22.6693 19.136 22.2844 19.5537 22.1819C19.6543 22.1568 19.7626 22.1568 19.867 22.1568C22.0504 22.1568 24.2337 22.1568 26.4171 22.1568C26.9799 22.1568 27.3647 22.4952 27.3705 22.9922C27.3763 23.5009 26.9896 23.849 26.4113 23.849C25.3109 23.849 24.2105 23.849 23.1102 23.849L23.1082 23.847Z" fill="#4FA83D"></path><path d="M23.1257 19.0471C22.0079 19.0471 20.8901 19.0529 19.7723 19.0452C19.1457 19.0394 18.7415 18.4573 18.9678 17.8984C19.1109 17.5426 19.3932 17.3608 19.7704 17.3588C22.0156 17.353 24.2609 17.353 26.5042 17.3588C27.0051 17.3588 27.3686 17.736 27.3686 18.204C27.3686 18.6836 26.9973 19.0433 26.479 19.0452C25.3613 19.051 24.2435 19.0452 23.1257 19.0452V19.0471Z" fill="#4FA83D"></path><path d="M20.8905 28.355C20.5211 28.355 20.1498 28.3608 19.7804 28.355C19.2795 28.3472 18.9101 27.9914 18.9063 27.5234C18.9024 27.0515 19.2602 26.6764 19.7611 26.6686C20.4998 26.6551 21.2405 26.657 21.9812 26.6686C22.4898 26.6764 22.8708 27.0651 22.8592 27.5331C22.8456 28.003 22.4782 28.3492 21.9734 28.3569C21.6118 28.3627 21.2521 28.3569 20.8905 28.3569V28.355Z" fill="#4FA83D"></path><defs><radialGradient id="paint0_radial_38_2952" cx="0" cy="0" r="1" gradientUnits="userSpaceOnUse" gradientTransform="translate(22.5 22.5) rotate(90.5907) scale(48.5026)"><stop stop-color="#4FA83D"></stop><stop offset="0.46875" stop-color="#22CB00" stop-opacity="0.53125"></stop><stop offset="1" stop-opacity="0"></stop></radialGradient></defs></svg>