<svg xmlns="http://www.w3.org/2000/svg" width="13" height="15" viewBox="0 0 13 15" fill="none"><path d="M3.99437 10.4787C4.04676 10.5193 4.1064 10.5488 4.16988 10.5656C4.23336 10.5824 4.29942 10.5861 4.36431 10.5766C4.42919 10.5671 4.4916 10.5444 4.54799 10.51C4.60437 10.4756 4.65361 10.4301 4.6929 10.376C4.99472 9.96143 5.3861 9.62493 5.83603 9.39316C6.28596 9.1614 6.78209 9.04074 7.28513 9.04074C7.78817 9.04074 8.2843 9.1614 8.73423 9.39316C9.18416 9.62493 9.57553 9.96143 9.87736 10.376C9.91664 10.43 9.96585 10.4754 10.0222 10.5098C10.0785 10.5442 10.1409 10.5668 10.2057 10.5763C10.2705 10.5858 10.3365 10.5821 10.3999 10.5654C10.4633 10.5486 10.5229 10.5192 10.5753 10.4787C10.6276 10.4383 10.6718 10.3876 10.7051 10.3295C10.7385 10.2715 10.7604 10.2073 10.7697 10.1405C10.7789 10.0737 10.7753 10.0058 10.7591 9.94042C10.7428 9.87509 10.7142 9.81369 10.675 9.75974C10.2336 9.15004 9.64492 8.66999 8.96758 8.36732C9.33878 8.01818 9.59884 7.56158 9.71364 7.05746C9.82844 6.55333 9.79262 6.02522 9.61087 5.54244C9.42913 5.05966 9.10995 4.64476 8.69523 4.35221C8.28051 4.05965 7.78962 3.9031 7.287 3.9031C6.78437 3.9031 6.29348 4.05965 5.87876 4.35221C5.46404 4.64476 5.14487 5.05966 4.96312 5.54244C4.78137 6.02522 4.74555 6.55333 4.86035 7.05746C4.97515 7.56158 5.23522 8.01818 5.60641 8.36732C4.92772 8.66942 4.33774 9.14951 3.89529 9.75974C3.81589 9.86862 3.78173 10.0055 3.80031 10.1404C3.81889 10.2752 3.88869 10.3969 3.99437 10.4787ZM5.78961 6.47289C5.78961 6.16816 5.87732 5.87028 6.04165 5.61691C6.20598 5.36354 6.43955 5.16607 6.71282 5.04945C6.98609 4.93284 7.28679 4.90233 7.57689 4.96178C7.86699 5.02123 8.13347 5.16796 8.34262 5.38344C8.55177 5.59891 8.6942 5.87344 8.75191 6.17231C8.80961 6.47118 8.78 6.78096 8.66681 7.06249C8.55361 7.34402 8.36193 7.58464 8.11599 7.75394C7.87006 7.92324 7.58091 8.0136 7.28513 8.0136C6.88849 8.0136 6.5081 7.85127 6.22764 7.56233C5.94717 7.27339 5.78961 6.88151 5.78961 6.47289ZM11.7717 0.823608H2.79857C2.53415 0.823608 2.28056 0.931825 2.09358 1.12445C1.90661 1.31708 1.80156 1.57833 1.80156 1.85075V3.39146H0.804551C0.672339 3.39146 0.545542 3.44557 0.452055 3.54188C0.358567 3.6382 0.306046 3.76882 0.306046 3.90503C0.306046 4.04124 0.358567 4.17187 0.452055 4.26818C0.545542 4.36449 0.672339 4.4186 0.804551 4.4186H1.80156V6.98646H0.804551C0.672339 6.98646 0.545542 7.04056 0.452055 7.13688C0.358567 7.23319 0.306046 7.36382 0.306046 7.50003C0.306046 7.63623 0.358567 7.76686 0.452055 7.86318C0.545542 7.95949 0.672339 8.0136 0.804551 8.0136H1.80156V10.5814H0.804551C0.672339 10.5814 0.545542 10.6356 0.452055 10.7319C0.358567 10.8282 0.306046 10.9588 0.306046 11.095C0.306046 11.2312 0.358567 11.3619 0.452055 11.4582C0.545542 11.5545 0.672339 11.6086 0.804551 11.6086H1.80156V13.1493C1.80156 13.4217 1.90661 13.683 2.09358 13.8756C2.28056 14.0682 2.53415 14.1764 2.79857 14.1764H11.7717C12.0361 14.1764 12.2897 14.0682 12.4767 13.8756C12.6636 13.683 12.7687 13.4217 12.7687 13.1493V1.85075C12.7687 1.57833 12.6636 1.31708 12.4767 1.12445C12.2897 0.931825 12.0361 0.823608 11.7717 0.823608ZM11.7717 13.1493H2.79857V1.85075H11.7717V13.1493Z" fill="white"></path></svg>