<svg xmlns="http://www.w3.org/2000/svg" width="12" height="16" viewBox="0 0 12 16" fill="none"><path d="M11.5 0.510742H3.5C3.36739 0.510742 3.24022 0.57659 3.14645 0.693801C3.05268 0.811011 3 0.969982 3 1.13574V4.26074H0.5C0.367392 4.26074 0.240215 4.32659 0.146447 4.4438C0.0526785 4.56101 0 4.71998 0 4.88574V14.8857C0 15.0515 0.0526785 15.2105 0.146447 15.3277C0.240215 15.4449 0.367392 15.5107 0.5 15.5107H8.5C8.63261 15.5107 8.75979 15.4449 8.85355 15.3277C8.94732 15.2105 9 15.0515 9 14.8857V11.7607H11.5C11.6326 11.7607 11.7598 11.6949 11.8536 11.5777C11.9473 11.4605 12 11.3015 12 11.1357V1.13574C12 0.969982 11.9473 0.811011 11.8536 0.693801C11.7598 0.57659 11.6326 0.510742 11.5 0.510742ZM8 14.2607H1V5.51074H8V14.2607ZM11 10.5107H9V4.88574C9 4.71998 8.94732 4.56101 8.85355 4.4438C8.75979 4.32659 8.63261 4.26074 8.5 4.26074H4V1.76074H11V10.5107Z" fill="#DBDBDB"></path></svg>