<svg xmlns="http://www.w3.org/2000/svg" width="86" height="81" viewBox="0 0 86 81"><g id="Group_5999" data-name="Group 5999" transform="translate(-4419 19405.709)"><rect id="Rectangle_7620" data-name="Rectangle 7620" width="86" height="81" rx="22" transform="translate(4419 -19405.709)" fill="#cae2bc" opacity="0.2"></rect><g id="noun-money-3958436" transform="translate(4276.076 -19419.184)"><path id="Path_46287" data-name="Path 46287" d="M185.923,48.9a.955.955,0,0,1-.956-.956V46.713a4.414,4.414,0,0,1-3.454-4.3.956.956,0,1,1,1.912,0,2.5,2.5,0,1,0,2.5-2.5,4.407,4.407,0,0,1-.956-8.71V29.976a.956.956,0,0,1,1.912,0V31.2a4.415,4.415,0,0,1,3.455,4.3.956.956,0,1,1-1.912,0,2.5,2.5,0,1,0-2.5,2.5,4.407,4.407,0,0,1,.956,8.71v1.228A.955.955,0,0,1,185.923,48.9Zm15.516,19.349c-3.311,3.662-8.22,5.584-14.56,5.764v6.726a.956.956,0,0,1-1.912,0V74.011c-6.341-.18-11.25-2.1-14.56-5.765-5.332-5.894-4.584-14.023-4.549-14.366a.954.954,0,0,1,1.047-.856c10.848,1.086,15.8,6.977,18.065,12.1V51.613a12.7,12.7,0,1,1,1.912,0V65.121c2.265-5.122,7.217-11.014,18.065-12.1a.949.949,0,0,1,1.047.855c.034.343.783,8.472-4.55,14.367Zm-15.516-18.5a10.791,10.791,0,1,0-10.791-10.79A10.8,10.8,0,0,0,185.923,49.75Zm-1.009,22.369c-.312-3.494-2.464-15.105-17.192-17.076-.013,2.224.363,7.8,4.114,11.932,2.934,3.236,7.33,4.964,13.078,5.143Zm15.1-5.142c3.751-4.135,4.126-9.71,4.114-11.932-14.769,1.973-16.893,13.582-17.2,17.074,5.749-.178,10.147-1.906,13.081-5.141Zm2-9.71A.954.954,0,0,0,200.684,57c-2.933,1.955-11.294,11.231-11.648,11.625a.955.955,0,1,0,1.42,1.279c.085-.1,8.553-9.49,11.29-11.313a.955.955,0,0,0,.265-1.326ZM171.16,57a.956.956,0,1,0-1.061,1.59c2.735,1.823,11.2,11.218,11.29,11.313a.956.956,0,0,0,1.421-1.279c-.355-.393-8.716-9.668-11.649-11.623Z" transform="translate(0 0)" fill="#4fa83d"></path></g></g></svg>