<svg xmlns="http://www.w3.org/2000/svg" width="90" height="79" viewBox="0 0 90 79" fill="none"><g clip-path="url(#clip0_284_4427)"><path d="M44.98 51.5829C47.2876 51.5829 49.5951 51.5829 51.9027 51.5829C52.5806 51.5829 52.6398 51.6421 52.6398 52.3052C52.6413 55.1353 52.6413 57.9653 52.6398 60.7953C52.6398 61.4481 52.5569 61.5354 51.9086 61.5354C47.2935 61.5384 42.6784 61.5384 38.0633 61.5354C37.4091 61.5354 37.3247 61.4481 37.3247 60.8042C37.3233 57.9742 37.3233 55.1442 37.3247 52.3141C37.3247 51.6481 37.3914 51.5844 38.0589 51.5829C40.3664 51.5815 42.674 51.5829 44.9815 51.5829H44.98ZM38.2306 60.6103H51.7147V52.5051H38.2306V60.6103Z" fill="#161617"/><path d="M45.0392 64.6822C47.3275 64.6822 49.6173 64.6822 51.9056 64.6822C52.5791 64.6822 52.6398 64.7414 52.6398 65.4075C52.6398 68.2375 52.6413 71.0675 52.6398 73.8976C52.6398 74.5459 52.5554 74.6347 51.9056 74.6347C47.2905 74.6376 42.6755 74.6376 38.0604 74.6347C37.4076 74.6347 37.3247 74.5473 37.3247 73.9005C37.3233 71.0705 37.3233 68.2405 37.3247 65.4104C37.3247 64.7473 37.3914 64.6837 38.0619 64.6837C40.3872 64.6822 42.7139 64.6837 45.0392 64.6837V64.6822ZM38.2513 65.588V73.7096H51.7147V65.588H38.2513Z" fill="#161617"/><path d="M38.2292 32.7481C34.0211 32.7481 29.8131 32.7525 25.6036 32.7451C24.23 32.7422 23.3656 31.8452 23.4648 30.5649C23.5314 29.7079 24.1516 28.99 24.9952 28.8213C25.2469 28.771 25.5074 28.7547 25.7649 28.7547C34.1085 28.7517 42.4506 28.7502 50.7941 28.7532C52.2417 28.7532 53.1283 29.5791 53.078 30.8654C53.041 31.826 52.3039 32.6253 51.3506 32.7244C51.1123 32.7496 50.8711 32.7466 50.6313 32.7466C46.4973 32.7466 42.3617 32.7466 38.2277 32.7466L38.2292 32.7481ZM38.2884 31.86C42.3854 31.86 46.4825 31.86 50.581 31.86C50.8015 31.86 51.025 31.8645 51.2441 31.8393C51.7799 31.7742 52.1529 31.3745 52.1899 30.8476C52.2284 30.2866 51.9072 29.8174 51.364 29.7005C51.1153 29.6472 50.8518 29.6442 50.5943 29.6442C42.381 29.6413 34.1677 29.6413 25.9544 29.6442C25.7146 29.6442 25.4719 29.6428 25.238 29.6842C24.6726 29.7863 24.3366 30.2126 24.3455 30.7795C24.3558 31.4693 24.8176 31.86 25.6643 31.8615C29.8723 31.8659 34.0804 31.863 38.2884 31.863V31.86Z" fill="#161617"/><path d="M38.2321 60.6103V52.505H51.7162V60.6103H38.2321Z" fill="#C9E2BB"/><path d="M38.2513 65.5881H51.7147V73.7096H38.2513V65.5881Z" fill="#C9E2BB"/><path d="M38.2898 31.86C34.0818 31.86 29.8738 31.8615 25.6657 31.8586C24.8191 31.8586 24.3573 31.4678 24.3469 30.7766C24.338 30.2112 24.6755 29.7834 25.2394 29.6813C25.4733 29.6398 25.716 29.6413 25.9558 29.6413C34.1691 29.6398 42.3824 29.6398 50.5957 29.6413C50.8533 29.6413 51.1167 29.6443 51.3654 29.6976C51.9071 29.8145 52.2298 30.2837 52.1913 30.8447C52.1543 31.3701 51.7813 31.7712 51.2455 31.8364C51.0265 31.863 50.803 31.8571 50.5824 31.8571C46.4854 31.8571 42.3884 31.8571 38.2898 31.8571V31.86Z" fill="#C9E2BB"/><path d="M31.9711 54.1732H5.62454V72.379H31.9711V54.1732Z" fill="#C9E2BB"/><path d="M0 29.1588C0.031083 29.0937 0.0740071 29.0315 0.0932489 28.9634C0.596497 27.0422 2.01003 25.9306 3.99638 25.9277C8.6307 25.9203 13.265 25.9247 17.8994 25.9247C29.4208 25.9247 40.9422 25.9588 52.4636 25.8995C55.0139 25.8862 56.7575 27.7542 56.7501 30.186C56.7027 44.949 56.7279 59.7119 56.7264 74.4748C56.7264 76.5515 55.5364 78.0967 53.6211 78.4964C53.2999 78.563 52.9609 78.5689 52.6309 78.5689C36.4559 78.5719 20.2824 78.5719 4.10739 78.5704C1.99671 78.5704 0.633501 77.5165 0.0814078 75.4798C0.0680865 75.4295 0.0281227 75.3851 0 75.3392C0 59.9458 0 44.5523 0 29.1588ZM55.8398 35.6019H0.886605C0.886605 35.8076 0.886605 35.9704 0.886605 36.1347C0.886605 48.935 0.886605 61.7338 0.886605 74.534C0.886605 76.4493 2.124 77.6838 4.04671 77.6838C20.2543 77.6867 36.4633 77.6853 52.6708 77.6823C52.9639 77.6823 53.2659 77.6704 53.5486 77.6024C54.9547 77.2649 55.8369 76.1089 55.8369 74.5962C55.8398 61.7412 55.8383 48.8861 55.8383 36.0311V35.6048L55.8398 35.6019ZM55.8398 34.6383C55.8398 34.0359 55.8398 33.466 55.8398 32.8962C55.8398 31.9341 55.8413 30.972 55.8398 30.0114C55.8354 28.0487 54.6202 26.8158 52.6708 26.8158C36.4633 26.8128 20.2557 26.8158 4.04819 26.8158C3.95642 26.8158 3.86317 26.8158 3.7714 26.8187C2.41263 26.8616 1.2966 27.7675 0.978374 29.0863C0.956171 29.1766 0.917688 29.2669 0.917688 29.3557C0.914727 31.1067 0.914727 32.8592 0.914727 34.6383H55.8398Z" fill="url(#paint0_radial_284_4427)"/><path d="M55.8399 35.6019V36.0282C55.8399 48.8832 55.8399 61.7382 55.8384 74.5933C55.8384 76.1074 54.9562 77.2634 53.5501 77.5994C53.2674 77.6675 52.9655 77.6794 52.6724 77.6794C36.4648 77.6823 20.2558 77.6838 4.04826 77.6808C2.12407 77.6808 0.888157 76.4464 0.888157 74.5311C0.885196 61.7308 0.888157 48.9321 0.888157 36.1318C0.888157 35.9675 0.888157 35.8047 0.888157 35.5989H55.8399V35.6019ZM28.3936 39.246C20.9722 39.246 13.5522 39.246 6.13082 39.246C4.71876 39.246 4.02902 39.9387 4.02606 41.3611C4.02162 43.0263 4.02162 44.69 4.02606 46.3551C4.0305 47.7169 4.74689 48.4332 6.12194 48.4347C20.9456 48.4377 35.7677 48.4377 50.5913 48.4347C51.9812 48.4347 52.6946 47.7095 52.699 46.3063C52.7035 44.6974 52.7005 43.0885 52.699 41.4795C52.699 39.9047 52.0463 39.246 50.4877 39.246C43.1225 39.246 35.7573 39.246 28.3921 39.246H28.3936ZM19.1146 51.5815C14.3708 51.5815 9.62543 51.5815 4.88158 51.5815C4.0897 51.5815 4.02754 51.6422 4.02606 52.4267C4.02606 59.5299 4.02606 66.6331 4.02606 73.7363C4.02606 74.5296 4.13115 74.6347 4.91562 74.6347C14.3856 74.6347 23.857 74.6347 33.3269 74.6347C34.0996 74.6347 34.1603 74.577 34.1603 73.8236C34.1603 66.6834 34.1603 59.5432 34.1603 52.4045C34.1603 51.6303 34.1114 51.583 33.3477 51.583C28.6038 51.583 23.8585 51.583 19.1146 51.583V51.5815ZM44.9816 51.5815C42.674 51.5815 40.3665 51.5815 38.0589 51.5815C37.3914 51.5815 37.3263 51.6466 37.3248 52.3127C37.3233 55.1427 37.3233 57.9728 37.3248 60.8028C37.3248 61.4466 37.4092 61.534 38.0634 61.534C42.6785 61.5369 47.2936 61.5369 51.9086 61.534C52.5569 61.534 52.6398 61.4466 52.6398 60.7939C52.6413 57.9639 52.6413 55.1338 52.6398 52.3038C52.6398 51.6407 52.5791 51.583 51.9027 51.5815C49.5952 51.58 47.2876 51.5815 44.9801 51.5815H44.9816ZM45.0408 64.6808C42.7155 64.6808 40.3887 64.6808 38.0634 64.6808C37.3929 64.6808 37.3278 64.7444 37.3263 65.4075C37.3248 68.2375 37.3248 71.0676 37.3263 73.8976C37.3263 74.5459 37.4092 74.6318 38.0619 74.6318C42.677 74.6347 47.2921 74.6347 51.9072 74.6318C52.5584 74.6318 52.6413 74.5429 52.6413 73.8946C52.6428 71.0646 52.6428 68.2346 52.6413 65.4045C52.6413 64.7385 52.5806 64.6793 51.9072 64.6793C49.6189 64.6778 47.3291 64.6793 45.0408 64.6793V64.6808Z" fill="url(#paint1_radial_284_4427)"/><path d="M55.8399 34.6383H0.9133C0.9133 32.8592 0.9133 31.1067 0.91626 29.3557C0.91626 29.2654 0.954743 29.1751 0.976946 29.0863C1.29666 27.7675 2.41268 26.8602 3.76997 26.8188C3.86174 26.8158 3.95499 26.8158 4.04676 26.8158C20.2543 26.8158 36.4619 26.8158 52.6694 26.8158C54.6188 26.8158 55.834 28.0488 55.8384 30.0114C55.8414 30.9735 55.8384 31.9356 55.8384 32.8962C55.8384 33.4661 55.8384 34.0359 55.8384 34.6383H55.8399ZM38.2291 32.7482C42.3632 32.7482 46.4987 32.7482 50.6327 32.7482C50.8725 32.7482 51.1138 32.7512 51.3521 32.726C52.3053 32.6254 53.0424 31.8261 53.0794 30.8669C53.1283 29.5807 52.2431 28.7548 50.7955 28.7548C42.452 28.7533 34.1099 28.7533 25.7664 28.7563C25.5088 28.7563 25.2483 28.7725 24.9967 28.8229C24.153 28.9916 23.5328 29.7095 23.4662 30.5665C23.3656 31.8468 24.2315 32.7438 25.605 32.7467C29.8131 32.7541 34.0211 32.7497 38.2306 32.7497L38.2291 32.7482ZM3.64564 30.7337C3.63676 31.8616 4.49524 32.7378 5.61719 32.7438C6.72878 32.7497 7.63166 31.8572 7.62722 30.7574C7.62426 29.6947 6.73026 28.7873 5.66159 28.7592C4.56037 28.7311 3.65304 29.6192 3.64416 30.7337H3.64564ZM13.1052 30.7648C13.1082 29.6443 12.226 28.7533 11.1159 28.7577C10.0162 28.7607 9.11328 29.6784 9.12661 30.7781C9.14141 31.872 10.0073 32.7349 11.1011 32.7438C12.229 32.7541 13.1023 31.8912 13.1052 30.7648ZM16.6413 32.7438C17.7692 32.7541 18.6424 31.8912 18.6439 30.7648C18.6469 29.6443 17.7647 28.7533 16.6546 28.7577C15.5741 28.7622 14.6919 29.634 14.6668 30.7234C14.6416 31.829 15.5253 32.7349 16.6398 32.7452L16.6413 32.7438Z" fill="url(#paint2_radial_284_4427)"/><path d="M28.3935 39.2474C35.7587 39.2474 43.1239 39.2474 50.4891 39.2474C52.0477 39.2474 52.6989 39.9061 52.7004 41.481C52.7004 43.0899 52.7034 44.6988 52.7004 46.3077C52.696 47.7109 51.9825 48.4362 50.5927 48.4362C35.7691 48.4376 20.9469 48.4391 6.12332 48.4362C4.74827 48.4362 4.0304 47.7198 4.02744 46.3566C4.023 44.6914 4.023 43.0277 4.02744 41.3626C4.0304 39.9401 4.72163 39.2474 6.1322 39.2474C13.5536 39.2474 20.9736 39.2474 28.395 39.2474H28.3935ZM13.8008 47.5658C13.9888 47.5747 14.1176 47.5866 14.2449 47.5866C26.3731 47.5866 38.5014 47.5866 50.6297 47.5866C51.4749 47.5866 51.8064 47.2624 51.8108 46.4128C51.8197 44.7669 51.8153 43.121 51.8138 41.475C51.8138 40.4108 51.537 40.137 50.4639 40.137C38.4466 40.137 26.4294 40.137 14.4121 40.137H13.8023V47.5673L13.8008 47.5658ZM12.8506 47.5496V40.1814C12.7618 40.1622 12.7099 40.14 12.6581 40.14C10.4068 40.137 8.15555 40.1311 5.90426 40.14C5.25596 40.1429 4.92144 40.5085 4.917 41.216C4.90516 42.9537 4.90516 44.6914 4.917 46.4291C4.92293 47.1988 5.27076 47.5333 6.04931 47.5451C6.89743 47.557 7.74703 47.5481 8.59516 47.5481C9.99389 47.5481 11.3941 47.5481 12.8506 47.5481V47.5496Z" fill="#161617"/><path d="M19.1145 51.583C23.8583 51.583 28.6037 51.583 33.3475 51.583C34.1113 51.583 34.1601 51.6303 34.1601 52.4044C34.1601 59.5446 34.1601 66.6848 34.1601 73.8236C34.1601 74.577 34.1009 74.6347 33.3268 74.6347C23.8568 74.6347 14.3854 74.6347 4.91547 74.6347C4.12952 74.6347 4.02591 74.5296 4.02591 73.7362C4.02591 66.633 4.02591 59.5298 4.02591 52.4266C4.02591 51.6422 4.08956 51.5815 4.88143 51.5815C9.62528 51.5815 14.3706 51.5815 19.1145 51.5815V51.583ZM4.93768 73.6563H33.2424V52.511H4.93768V73.6563Z" fill="#161617"/><path d="M3.64551 30.7337C3.65439 29.6177 4.56172 28.7296 5.66294 28.7592C6.7316 28.7873 7.62413 29.6947 7.62857 30.7574C7.63301 31.8571 6.73012 32.7497 5.61854 32.7437C4.49659 32.7378 3.63663 31.8616 3.64699 30.7337H3.64551ZM5.60818 31.8512C6.22687 31.8571 6.74196 31.3509 6.73752 30.7426C6.73308 30.1535 6.24168 29.6621 5.64518 29.6517C5.02204 29.6414 4.52915 30.1343 4.53359 30.7648C4.53803 31.3805 4.99836 31.8453 5.60818 31.8512Z" fill="#161617"/><path d="M13.1051 30.7634C13.1021 31.8912 12.2303 32.7527 11.1009 32.7423C10.0071 32.732 9.14123 31.8705 9.12643 30.7767C9.11163 29.6769 10.0145 28.7607 11.1157 28.7563C12.2258 28.7533 13.108 29.6429 13.1051 30.7634ZM11.1113 31.8498C11.73 31.8557 12.1962 31.4087 12.214 30.793C12.2318 30.1535 11.7596 29.6547 11.1335 29.6488C10.5104 29.6429 10.0101 30.1476 10.0204 30.7708C10.0293 31.3791 10.5 31.8439 11.1128 31.8498H11.1113Z" fill="#161617"/><path d="M16.6414 32.7438C15.5268 32.7334 14.6432 31.8291 14.6683 30.7219C14.6935 29.634 15.5757 28.7607 16.6562 28.7563C17.7663 28.7519 18.6484 29.6429 18.6455 30.7634C18.6425 31.8912 17.7707 32.7527 16.6428 32.7423L16.6414 32.7438ZM16.6873 31.8513C17.3015 31.8409 17.7544 31.3762 17.7544 30.7575C17.7544 30.124 17.2615 29.6355 16.6354 29.6518C16.0301 29.6681 15.5594 30.1491 15.5579 30.753C15.5564 31.3806 16.0508 31.8616 16.6873 31.8498V31.8513Z" fill="#161617"/><path d="M13.8008 47.5659V40.1356H14.4106C26.4279 40.1356 38.4452 40.1356 50.4624 40.1356C51.5355 40.1356 51.8123 40.4094 51.8123 41.4736C51.8138 43.1195 51.8183 44.7654 51.8094 46.4114C51.8049 47.261 51.4734 47.5851 50.6282 47.5851C38.4999 47.5851 26.3717 47.5851 14.2434 47.5851C14.1146 47.5851 13.9873 47.5733 13.7993 47.5644L13.8008 47.5659Z" fill="#C9E2BB"/><path d="M12.8506 47.5496C11.3941 47.5496 9.99388 47.5496 8.59514 47.5496C7.74702 47.5496 6.89742 47.5585 6.0493 47.5467C5.27075 47.5348 4.92291 47.2003 4.91699 46.4306C4.90515 44.6929 4.90515 42.9553 4.91699 41.2176C4.92143 40.5101 5.25594 40.1445 5.90425 40.1415C8.15554 40.1311 10.4068 40.1385 12.6581 40.1415C12.7099 40.1415 12.7617 40.1637 12.8506 40.1829V47.5511V47.5496ZM8.57442 41.4485C7.45395 41.4588 6.56735 42.3247 6.53923 43.4378C6.50962 44.5745 7.38883 45.6432 8.50189 45.5189C9.40626 45.4182 10.1434 45.3398 10.7073 46.1908C10.7576 46.2663 11.1528 46.2382 11.2254 46.139C11.3216 46.0073 11.3275 45.7216 11.2461 45.5677C11.1306 45.3486 10.9145 45.174 10.7177 45.0082C10.432 44.7655 10.3772 44.542 10.5208 44.1571C11.0167 42.8161 10.0013 41.4337 8.57442 41.4485Z" fill="#161617"/><path d="M4.93781 73.6564V52.511H33.2425V73.6564H4.93781ZM26.949 65.0834C27.8075 64.6304 28.5845 64.2471 29.332 63.8119C29.5555 63.6817 29.6991 63.4108 29.8797 63.2051C29.6562 63.0423 29.4549 62.798 29.2047 62.7314C26.3022 61.9588 23.3937 61.2069 20.4823 60.4712C20.2469 60.412 19.8991 60.4224 19.7407 60.5601C19.6223 60.6622 19.6667 61.0381 19.7348 61.2631C20.6036 64.1435 21.4813 67.0209 22.3813 69.8924C22.4582 70.1395 22.7039 70.332 22.8712 70.551C23.0666 70.3571 23.3256 70.1958 23.4455 69.9634C23.8496 69.1819 24.2033 68.3752 24.5926 67.5419C24.7687 67.7017 24.8916 67.8098 25.0115 67.9238C26.0417 68.9051 27.0689 69.8879 28.1005 70.8678C28.5934 71.3355 28.6926 71.331 29.1766 70.8278C29.523 70.4681 29.8663 70.107 30.2097 69.7443C30.7288 69.1987 30.714 68.6673 30.1653 68.1502C29.11 67.1482 28.0576 66.1417 26.9505 65.0849L26.949 65.0834Z" fill="#C9E2BB"/><path d="M5.60836 31.8512C4.99855 31.8453 4.53822 31.3805 4.53378 30.7648C4.52934 30.1342 5.02223 29.6413 5.64537 29.6517C6.24187 29.6621 6.73327 30.152 6.73771 30.7426C6.74215 31.3509 6.22706 31.8571 5.60836 31.8512Z" fill="white"/><path d="M11.1114 31.8512C10.4986 31.8453 10.0279 31.3805 10.0191 30.7722C10.0102 30.1491 10.5105 29.6443 11.1321 29.6503C11.7597 29.6562 12.2304 30.155 12.2126 30.7944C12.1949 31.4101 11.7286 31.8571 11.1099 31.8512H11.1114Z" fill="white"/><path d="M16.687 31.8512C16.0506 31.863 15.5562 31.382 15.5577 30.7544C15.5592 30.1505 16.0298 29.668 16.6352 29.6532C17.2613 29.6369 17.7542 30.1253 17.7542 30.7588C17.7542 31.3775 17.2998 31.8408 16.687 31.8527V31.8512Z" fill="white"/><path d="M8.57456 41.4485C10.0014 41.4351 11.0168 42.8161 10.5209 44.1571C10.3788 44.542 10.4321 44.7655 10.7178 45.0082C10.9147 45.174 11.1308 45.3486 11.2462 45.5677C11.3276 45.7201 11.3217 46.0073 11.2255 46.139C11.153 46.2382 10.7563 46.2663 10.7074 46.1908C10.1435 45.3398 9.4064 45.4182 8.50203 45.5188C7.38896 45.6432 6.50976 44.5745 6.53936 43.4378C6.56896 42.3247 7.45409 41.4588 8.57456 41.4485ZM8.56419 44.6189C9.21694 44.6248 9.73055 44.1216 9.73055 43.4792C9.73055 42.8576 9.2421 42.3602 8.616 42.3439C7.9529 42.3262 7.44225 42.8028 7.42893 43.4555C7.41412 44.1083 7.90849 44.6145 8.56567 44.6204L8.56419 44.6189Z" fill="#C9E2BB"/><path d="M8.5627 44.6175C7.90552 44.6115 7.41263 44.1053 7.42595 43.4526C7.44075 42.7998 7.94992 42.3232 8.61303 42.341C9.23913 42.3588 9.72609 42.8546 9.72757 43.4763C9.72757 44.1186 9.21396 44.6234 8.56122 44.616L8.5627 44.6175Z" fill="#161617"/><path d="M89.1566 39.3732C88.7554 39.089 88.6148 38.6095 88.3099 38.2557C87.595 37.4283 87.4959 36.5698 87.8141 35.5041C88.2937 33.9011 88.5616 32.2389 88.7244 30.5649C88.8443 29.3305 88.7288 28.1049 88.5912 26.8838C88.3129 24.4031 87.8688 21.9431 87.6202 19.4564C87.5787 19.0479 87.4692 18.6527 87.3034 18.2753C86.9985 17.5811 86.4153 17.2791 85.7078 17.1696C85.3896 17.1208 85.5495 17.3709 85.5658 17.473C85.7108 18.3478 85.7789 19.227 85.7552 20.1136C85.7493 20.3312 85.7315 20.5488 85.7093 20.7649C85.6679 21.1838 85.4118 21.4161 85.0359 21.3865C84.6895 21.3599 84.4512 21.0861 84.4838 20.6879C84.54 19.9952 84.5341 19.304 84.4601 18.6142C84.3224 17.3398 84.1048 16.0802 83.6268 14.8813C83.2967 14.0524 82.3864 13.564 81.5176 13.7061C81.3385 13.7357 81.3296 13.8156 81.3429 13.9666C81.4806 15.4082 81.6138 16.8499 81.744 18.2916C81.7988 18.9043 81.8447 19.5171 81.8876 20.1314C81.9157 20.5281 81.6981 20.8078 81.3518 20.8448C80.9758 20.8848 80.7064 20.6702 80.6665 20.2409C80.5377 18.8629 80.4282 17.4834 80.3068 16.1054C80.2269 15.1862 80.1529 14.2671 80.0537 13.3494C79.9989 12.8506 79.8406 12.3666 79.3122 12.186C78.692 11.9728 78.0688 12.0143 77.5167 12.408C77.2548 12.596 77.2133 12.892 77.2311 13.2028C77.3243 14.9568 77.4131 16.7093 77.499 18.4633C77.5434 19.3721 77.5819 20.2809 77.6129 21.1912C77.6292 21.6633 77.3835 21.9579 77.0016 21.9579C76.6361 21.9579 76.4022 21.6796 76.3829 21.2282C76.2142 17.2584 76.0425 13.2887 75.7554 9.32635C75.637 7.69227 75.5289 6.05375 75.2373 4.43744C75.221 4.35011 75.2033 4.2613 75.1766 4.17693C75.0464 3.74917 74.8406 3.56268 74.518 3.62928C73.9807 3.74177 73.6758 3.86166 73.658 4.35603C73.581 6.57328 73.5707 8.79054 73.5825 11.0078C73.5944 13.2635 73.618 15.5193 73.6713 17.775C73.7231 19.9922 73.5278 22.2065 73.4256 24.4208C73.4138 24.6769 73.4079 24.9344 73.3827 25.189C73.3472 25.5487 73.0793 25.7796 72.7388 25.7618C72.4191 25.7456 72.1675 25.5013 72.1675 25.1565C72.1675 24.7598 72.2001 24.3631 72.2326 23.9664C72.2474 23.7859 72.1986 23.6586 72.0609 23.5342C71.5207 23.0473 71.1418 22.4493 70.828 21.7936C70.0183 20.1018 68.587 19.1826 66.836 18.703C66.5326 18.6202 66.1996 18.632 65.8902 18.7563C65.4284 18.9413 65.2848 19.2936 65.5054 19.7391C65.757 20.2498 66.1167 20.6879 66.4941 21.1038C67.8514 22.5958 68.8091 24.3098 69.4278 26.2236C69.8555 27.5484 70.5305 28.7502 71.2839 29.9122C72.0299 31.0607 72.7388 32.233 73.3279 33.4689C73.8282 34.5198 74.7267 35.1459 75.6488 35.7528C75.9892 35.9778 76.3533 36.1672 76.7086 36.37C77.1023 36.595 77.237 36.9236 77.0623 37.2537C76.8906 37.5793 76.5265 37.6637 76.1343 37.4564C75.375 37.0538 74.6482 36.6039 73.9688 36.074C73.2317 35.4997 72.6293 34.8247 72.2164 33.9707C71.5251 32.5409 70.6859 31.1925 69.8215 29.8633C68.9408 28.509 68.4242 26.9978 67.8588 25.5043C67.4148 24.3291 66.7502 23.29 65.9406 22.3368C65.4847 21.7995 65.0214 21.2681 64.6365 20.6746C64.1792 19.9671 63.9646 19.2211 64.4323 18.4396C64.903 17.6536 65.6593 17.402 66.5326 17.4183C67.0107 17.4272 67.471 17.5367 67.9136 17.7143C69.7771 18.4603 71.2617 19.6237 72.0802 21.5168C72.1275 21.6278 72.1986 21.7285 72.3333 21.8173C72.3718 20.9025 72.4458 19.9878 72.4428 19.0731C72.4339 16.6886 72.3792 14.3055 72.3629 11.921C72.3466 9.39591 72.3348 6.87079 72.4339 4.34567C72.4769 3.23112 72.7359 2.91437 73.9984 2.47181C75.1145 2.07957 76.118 2.73084 76.3829 3.92531C76.5857 4.84004 76.6879 5.76957 76.7678 6.70058C76.8877 8.07859 76.9943 9.45956 77.0919 10.8391C77.1127 11.1262 77.1808 11.1736 77.4531 11.067C78.0348 10.8405 78.6402 10.7887 79.2648 10.8953C80.0892 11.0374 80.6724 11.48 81.0173 12.2289C81.112 12.4332 81.1934 12.5175 81.4376 12.4865C81.898 12.4272 82.3612 12.4909 82.8068 12.6167C83.6623 12.858 84.315 13.3538 84.6865 14.1842C84.9012 14.6637 85.0684 15.1596 85.1942 15.6688C85.2312 15.8182 85.2756 15.8967 85.4621 15.91C87.3612 16.0521 88.4224 16.9639 88.7584 18.8407C88.9849 20.0988 89.0974 21.3777 89.2705 22.6461C89.5162 24.4475 89.7886 26.2444 89.944 28.059C90.0965 29.8159 89.8922 31.5374 89.5755 33.2543C89.3756 34.3363 89.1432 35.4109 88.8605 36.4751C88.8102 36.6646 88.8457 36.817 88.9538 36.9784C89.2306 37.3928 89.497 37.8161 89.7634 38.2365C90.1068 38.7767 90.0565 39.0224 89.5384 39.3717H89.1536L89.1566 39.3732Z" fill="url(#paint3_radial_284_4427)"/><path d="M50.618 34.8351C50.8326 34.5243 51.1272 34.4414 51.5002 34.4429C54.1777 34.4562 56.8553 34.4459 59.5329 34.4562C59.8082 34.4562 59.9088 34.3881 59.9769 34.1054C60.4491 32.1398 62.1587 30.7943 64.1509 30.7914C66.1417 30.7884 67.8542 32.1294 68.3294 34.0995C68.4034 34.4059 68.5233 34.4681 68.8089 34.4562C69.3714 34.4325 69.9368 34.4459 70.4993 34.4503C70.9537 34.4533 71.226 34.6856 71.229 35.0601C71.2319 35.4346 70.9566 35.6744 70.5067 35.6788C69.8924 35.6833 69.2767 35.6847 68.6624 35.6773C68.4863 35.6759 68.4123 35.7114 68.3634 35.9127C67.8942 37.8635 66.5695 39.0299 64.5417 39.3081C64.5136 39.3126 64.4884 39.351 64.4632 39.3732H63.6936C63.6506 39.2563 63.5426 39.3037 63.4641 39.2874C61.645 38.9026 60.4535 37.8354 59.9784 36.0252C59.9059 35.7454 59.8097 35.6744 59.5329 35.6759C56.8553 35.6862 54.1777 35.6759 51.5002 35.6892C51.1257 35.6907 50.8326 35.6063 50.6165 35.2969V34.8351H50.618ZM64.1613 31.9888C62.4606 31.9918 61.087 33.3609 61.0796 35.0601C61.0737 36.7519 62.4591 38.1418 64.1509 38.1403C65.8516 38.1388 67.2296 36.7652 67.2311 35.069C67.2326 33.3713 65.8516 31.9859 64.1613 31.9873V31.9888Z" fill="url(#paint4_radial_284_4427)"/><path d="M50.6179 4.06592C50.8325 3.75361 51.1271 3.67368 51.5016 3.67368C57.2312 3.68404 62.9608 3.6796 68.6904 3.68552C68.9776 3.68552 69.1138 3.66036 69.1863 3.30809C69.6807 0.861411 72.2561 -0.583207 74.6169 0.22495C74.8922 0.319679 75.1453 0.438091 75.2194 0.754841C75.3333 1.24329 74.8612 1.61924 74.3342 1.43571C73.7229 1.22109 73.1161 1.17076 72.4885 1.34838C70.403 1.94191 69.6303 4.42855 71.0172 6.09223C71.4198 6.57624 71.4568 6.92111 71.1312 7.18309C70.8159 7.4362 70.4518 7.32963 70.0596 6.86486C69.6659 6.39862 69.3698 5.87465 69.2396 5.27815C69.1759 4.98953 69.0708 4.90368 68.7674 4.90368C63.0126 4.91552 57.2564 4.9096 51.5016 4.91848C51.1271 4.91848 50.834 4.83707 50.6179 4.52624V4.06444V4.06592Z" fill="url(#paint5_radial_284_4427)"/><path d="M50.6181 18.9133C50.7543 18.8408 50.7262 18.6927 50.7573 18.5803C51.2738 16.6709 52.979 15.3639 54.9505 15.3743C56.9147 15.3846 58.6242 16.7168 59.0801 18.6424C59.1674 19.0139 59.3184 19.0835 59.6588 19.0746C60.504 19.0509 61.3506 19.0643 62.1973 19.0672C62.6502 19.0687 62.924 19.304 62.924 19.68C62.924 20.0545 62.6502 20.2943 62.1988 20.2957C61.3018 20.3002 60.4033 20.3091 59.5064 20.2898C59.2459 20.2839 59.1748 20.3653 59.1186 20.6095C58.6612 22.59 56.9753 23.9591 54.989 23.9887C52.9893 24.0183 51.2901 22.7143 50.7484 20.7472C50.7217 20.648 50.7528 20.5089 50.6181 20.4512V18.9133ZM58.0011 19.677C57.9996 17.9808 56.6127 16.5998 54.9209 16.6072C53.2217 16.6131 51.8526 17.9882 51.8511 19.6889C51.8481 21.3792 53.238 22.7631 54.9327 22.7587C56.6319 22.7528 58.004 21.3748 58.0026 19.6785L58.0011 19.677Z" fill="url(#paint6_radial_284_4427)"/><path d="M83.8843 3.68261C85.6264 3.68261 87.3671 3.68261 89.1092 3.68261C89.2113 3.68261 89.3149 3.67668 89.4171 3.68705C89.756 3.71961 89.9943 3.96679 90.0003 4.2865C90.0077 4.62102 89.7605 4.88004 89.4023 4.91112C89.3135 4.91852 89.2232 4.91408 89.1329 4.91408C85.6116 4.91408 82.0889 4.91408 78.5676 4.91408C78.4522 4.91408 78.3338 4.9274 78.2228 4.90372C77.8942 4.83564 77.6973 4.63138 77.7018 4.29094C77.7062 3.95199 77.9075 3.75069 78.2376 3.69149C78.3501 3.67076 78.467 3.68409 78.5824 3.68409C80.3497 3.68409 82.117 3.68409 83.8843 3.68409V3.68261Z" fill="url(#paint7_radial_284_4427)"/><path d="M64.1614 31.9903C65.8532 31.9873 67.2327 33.3728 67.2312 35.072C67.2297 36.7682 65.8517 38.1418 64.151 38.1432C62.4592 38.1447 61.0738 36.7549 61.0797 35.0631C61.0857 33.3639 62.4607 31.9933 64.1614 31.9918V31.9903Z" fill="white"/><path d="M58.0011 19.6756C58.0026 21.3733 56.6305 22.7513 54.9313 22.7557C53.238 22.7617 51.8482 21.3762 51.8496 19.6859C51.8526 17.9852 53.2217 16.6102 54.9195 16.6043C56.6113 16.5983 57.9982 17.9793 57.9996 19.6741L58.0011 19.6756Z" fill="white"/></g><defs><radialGradient id="paint0_radial_284_4427" cx="0" cy="0" r="1" gradientUnits="userSpaceOnUse" gradientTransform="translate(-4.65209 16.4074) scale(124.314 124.314)"><stop stop-color="#4FA83D"/><stop offset="0.98"/></radialGradient><radialGradient id="paint1_radial_284_4427" cx="0" cy="0" r="1" gradientUnits="userSpaceOnUse" gradientTransform="translate(-1.81754 24.1175) scale(96.4505 96.4505)"><stop stop-color="#4FA83D"/><stop offset="0.98"/></radialGradient><radialGradient id="paint2_radial_284_4427" cx="0" cy="0" r="1" gradientUnits="userSpaceOnUse" gradientTransform="translate(-1.81756 24.1175) scale(96.4505 96.4505)"><stop stop-color="#4FA83D"/><stop offset="0.98"/></radialGradient><radialGradient id="paint3_radial_284_4427" cx="0" cy="0" r="1" gradientUnits="userSpaceOnUse" gradientTransform="translate(56.8717 8.16888) scale(59.2752 59.2752)"><stop stop-color="#4FA83D"/><stop offset="0.98"/></radialGradient><radialGradient id="paint4_radial_284_4427" cx="0" cy="0" r="1" gradientUnits="userSpaceOnUse" gradientTransform="translate(56.8716 8.1689) scale(59.2752 59.2752)"><stop stop-color="#4FA83D"/><stop offset="0.98"/></radialGradient><radialGradient id="paint5_radial_284_4427" cx="0" cy="0" r="1" gradientUnits="userSpaceOnUse" gradientTransform="translate(56.8715 8.16887) scale(59.2752)"><stop stop-color="#4FA83D"/><stop offset="0.98"/></radialGradient><radialGradient id="paint6_radial_284_4427" cx="0" cy="0" r="1" gradientUnits="userSpaceOnUse" gradientTransform="translate(56.8717 8.16894) scale(59.2752 59.2752)"><stop stop-color="#4FA83D"/><stop offset="0.98"/></radialGradient><radialGradient id="paint7_radial_284_4427" cx="0" cy="0" r="1" gradientUnits="userSpaceOnUse" gradientTransform="translate(56.8717 8.16892) scale(59.2752 59.2752)"><stop stop-color="#4FA83D"/><stop offset="0.98"/></radialGradient><clipPath id="clip0_284_4427"><rect width="90" height="78.5718" fill="white"/></clipPath></defs></svg>