<svg xmlns="http://www.w3.org/2000/svg" width="90" height="82" viewBox="0 0 90 82"><g id="Customized_Analytics" data-name="Customized Analytics" transform="translate(-705 -2288)"><rect id="Rectangle_7817" data-name="Rectangle 7817" width="90" height="82" rx="15" transform="translate(705 2288)" fill="#1b1f1a"></rect><g id="Group_44240" data-name="Group 44240" transform="translate(713.905 2317)"><path id="Path_54396" data-name="Path 54396" d="M54.675,89.954l-1.795-1.8L65.035,76.024h6.783l1.782,1.9,5.955,5.945,9.806-9.827,1.8,1.795-11.6,11.62-7.8-7.778L70.72,78.566H66.085Z" transform="translate(-37.732 -68.492)" fill="#4fa83d"></path><path id="Path_54397" data-name="Path 54397" d="M204.575,38.692a4.467,4.467,0,1,0-4.467-4.467A4.467,4.467,0,0,0,204.575,38.692Z" transform="translate(-173.933 -27.53)" fill="#cae1bc"></path><path id="Path_54398" data-name="Path 54398" d="M353.916,187.9a4.467,4.467,0,1,0-4.467-4.467A4.467,4.467,0,0,0,353.916,187.9Z" transform="translate(-312.09 -165.562)" fill="#cae1bc"></path><path id="Path_54399" data-name="Path 54399" d="M532.881,8.933a4.467,4.467,0,1,0-4.466-4.467A4.467,4.467,0,0,0,532.881,8.933Z" transform="translate(-477.652 0)" fill="#cae1bc"></path><path id="Path_54400" data-name="Path 54400" d="M20.909,203.588a4.467,4.467,0,1,0-5.373,3.321A4.467,4.467,0,0,0,20.909,203.588Z" transform="translate(0 -183.259)" fill="#cae1bc"></path></g></g></svg>