<svg width="300" height="235" viewBox="0 0 300 235" fill="none" xmlns="http://www.w3.org/2000/svg">
<rect x="1" y="1" width="298" height="233" rx="9" fill="url(#paint0_linear_84_3547)" stroke="url(#paint1_angular_84_3547)" stroke-width="2"/>
<g clip-path="url(#clip0_84_3547)">
<path d="M143.214 141.375C144.205 141.375 145.203 141.351 146.2 141.311C145.447 136.699 146.08 131.968 148.019 127.717C146.433 127.82 144.827 127.873 143.214 127.873C133.697 127.873 124.723 126.09 117.95 122.851C114.542 121.223 111.875 119.308 110 117.198V126.312C110 134.476 125.211 141.375 143.214 141.375ZM120.477 130.417C120.497 130.317 120.527 130.219 120.566 130.125C120.605 130.031 120.653 129.941 120.709 129.856C120.766 129.77 120.832 129.691 120.905 129.619C121.048 129.474 121.219 129.359 121.406 129.279C121.5 129.24 121.598 129.211 121.698 129.192C121.9 129.151 122.108 129.151 122.309 129.192C122.41 129.211 122.507 129.24 122.602 129.279C122.696 129.318 122.787 129.366 122.872 129.423C122.957 129.481 123.037 129.546 123.109 129.619C123.182 129.691 123.247 129.77 123.303 129.856C123.36 129.941 123.408 130.031 123.447 130.125C123.486 130.219 123.515 130.317 123.536 130.417C123.586 130.668 123.574 130.928 123.499 131.174C123.425 131.419 123.291 131.642 123.109 131.823C123.037 131.896 122.957 131.961 122.872 132.017C122.787 132.074 122.696 132.122 122.602 132.161C122.507 132.2 122.409 132.23 122.309 132.25C122.207 132.271 122.102 132.281 121.997 132.281C121.892 132.281 121.787 132.271 121.684 132.25C121.584 132.229 121.487 132.2 121.392 132.161C121.298 132.122 121.208 132.073 121.123 132.017C120.96 131.904 120.819 131.76 120.709 131.594C120.653 131.508 120.604 131.418 120.566 131.323C120.527 131.229 120.497 131.131 120.477 131.031C120.457 130.931 120.447 130.829 120.447 130.726C120.446 130.623 120.456 130.519 120.477 130.417ZM113.692 127.025C113.711 126.925 113.74 126.827 113.78 126.733C113.819 126.638 113.867 126.547 113.923 126.462C113.981 126.377 114.046 126.298 114.119 126.225C114.191 126.152 114.271 126.087 114.356 126.031C114.441 125.975 114.531 125.926 114.625 125.887C114.719 125.849 114.817 125.819 114.917 125.798C115.169 125.75 115.428 125.763 115.673 125.838C115.918 125.912 116.141 126.045 116.323 126.225C116.396 126.297 116.461 126.377 116.517 126.462C116.574 126.547 116.622 126.638 116.661 126.733C116.701 126.827 116.731 126.925 116.75 127.025C116.771 127.125 116.781 127.227 116.781 127.329C116.781 127.434 116.771 127.539 116.75 127.642C116.731 127.742 116.701 127.84 116.661 127.934C116.622 128.028 116.574 128.118 116.517 128.203C116.461 128.289 116.396 128.368 116.323 128.44C116.253 128.509 116.176 128.571 116.094 128.625C116.009 128.682 115.918 128.73 115.823 128.769C115.729 128.808 115.631 128.837 115.531 128.858C115.428 128.878 115.324 128.888 115.219 128.887C115.114 128.888 115.009 128.878 114.906 128.858C114.81 128.84 114.716 128.815 114.625 128.781C114.436 128.702 114.264 128.587 114.119 128.442C113.975 128.297 113.86 128.125 113.781 127.936C113.741 127.842 113.712 127.744 113.692 127.644C113.671 127.541 113.661 127.436 113.661 127.331C113.661 127.228 113.672 127.126 113.692 127.025Z" fill="#CAE2BC"/>
<path d="M143.214 124.75C145.453 124.75 147.681 124.645 149.848 124.437C152.662 120.199 156.77 116.983 161.559 115.269C166.349 113.555 171.564 113.434 176.428 114.925V100.573C174.561 102.683 171.886 104.598 168.48 106.228C161.705 109.465 152.731 111.25 143.214 111.25C133.697 111.25 124.723 109.465 117.95 106.228C114.542 104.598 111.875 102.687 110 100.573V109.687C110 117.851 125.211 124.75 143.214 124.75ZM120.477 113.453C120.497 113.353 120.527 113.255 120.566 113.161C120.723 112.779 121.025 112.475 121.406 112.315C121.501 112.277 121.599 112.247 121.698 112.226C121.95 112.178 122.209 112.192 122.455 112.267C122.7 112.341 122.923 112.474 123.105 112.654C123.177 112.727 123.242 112.806 123.298 112.892C123.355 112.977 123.403 113.067 123.442 113.161C123.481 113.255 123.511 113.353 123.531 113.453C123.581 113.704 123.568 113.964 123.494 114.209C123.42 114.454 123.287 114.677 123.106 114.858C122.926 115.04 122.703 115.174 122.459 115.249C122.214 115.325 121.955 115.339 121.703 115.29C121.603 115.27 121.505 115.24 121.411 115.201C121.317 115.162 121.227 115.114 121.142 115.058C121.057 115.001 120.977 114.936 120.905 114.864C120.723 114.683 120.59 114.459 120.515 114.214C120.44 113.969 120.427 113.709 120.477 113.458V113.453ZM113.692 110.061C113.712 109.961 113.741 109.863 113.781 109.769C113.82 109.674 113.867 109.583 113.923 109.498C113.981 109.413 114.046 109.333 114.119 109.261C114.337 109.043 114.616 108.894 114.918 108.834C115.221 108.774 115.535 108.805 115.82 108.923C115.915 108.962 116.006 109.01 116.091 109.067C116.262 109.18 116.409 109.327 116.522 109.498C116.578 109.584 116.626 109.674 116.666 109.769C116.705 109.863 116.735 109.961 116.755 110.061C116.775 110.161 116.786 110.263 116.786 110.365C116.786 110.47 116.776 110.575 116.755 110.678C116.734 110.778 116.704 110.876 116.666 110.97C116.626 111.064 116.578 111.154 116.522 111.239C116.466 111.324 116.401 111.404 116.328 111.476C116.256 111.547 116.178 111.61 116.094 111.665C116.009 111.722 115.918 111.77 115.823 111.809C115.729 111.848 115.631 111.878 115.531 111.898C115.428 111.919 115.324 111.929 115.219 111.928C114.804 111.928 114.407 111.763 114.114 111.47C114.041 111.397 113.976 111.318 113.919 111.233C113.865 111.149 113.819 111.061 113.781 110.969C113.742 110.874 113.712 110.776 113.692 110.676C113.671 110.574 113.661 110.469 113.661 110.364C113.661 110.262 113.672 110.161 113.692 110.061Z" fill="#CAE2BC"/>
<path d="M143.214 108.125C161.558 108.125 176.428 101.381 176.428 93.0625C176.428 84.7437 161.558 78 143.214 78C124.87 78 110 84.7437 110 93.0625C110 101.381 124.87 108.125 143.214 108.125Z" fill="#CAE2BC"/>
<path d="M146.922 144.406C145.686 144.467 144.444 144.498 143.214 144.498C133.697 144.498 124.723 142.714 117.95 139.476C114.542 137.844 111.875 135.933 110 133.823V142.937C110 151.101 125.211 158 143.214 158C147.483 158.008 151.743 157.614 155.938 156.822C151.639 153.797 148.468 149.43 146.922 144.406ZM116.755 144.6C116.735 144.7 116.705 144.798 116.666 144.892C116.626 144.986 116.578 145.077 116.522 145.162C116.465 145.248 116.4 145.327 116.328 145.4C116.257 145.472 116.178 145.537 116.094 145.594C116.009 145.65 115.918 145.698 115.823 145.737C115.729 145.776 115.631 145.806 115.531 145.826C115.428 145.847 115.324 145.858 115.219 145.858C114.805 145.857 114.408 145.692 114.114 145.4C114.042 145.327 113.976 145.247 113.919 145.162C113.863 145.077 113.816 144.986 113.777 144.892C113.737 144.798 113.707 144.7 113.688 144.6C113.667 144.5 113.657 144.397 113.656 144.295C113.656 144.19 113.667 144.085 113.688 143.983C113.707 143.882 113.737 143.784 113.777 143.69C113.816 143.596 113.863 143.506 113.919 143.42C113.976 143.335 114.042 143.256 114.114 143.183C114.188 143.114 114.27 143.052 114.356 143C114.441 142.943 114.531 142.895 114.625 142.856C114.719 142.817 114.817 142.788 114.917 142.767C115.119 142.726 115.327 142.726 115.528 142.767C115.628 142.787 115.726 142.817 115.82 142.856C115.916 142.895 116.008 142.943 116.094 143C116.179 143.056 116.259 143.121 116.331 143.194C116.403 143.266 116.468 143.346 116.525 143.431C116.581 143.517 116.629 143.607 116.669 143.701C116.708 143.796 116.738 143.894 116.758 143.994C116.779 144.096 116.789 144.201 116.789 144.306C116.787 144.405 116.776 144.503 116.755 144.6ZM123.541 148C123.52 148.1 123.491 148.198 123.452 148.292C123.413 148.387 123.365 148.477 123.308 148.562C123.195 148.734 123.048 148.88 122.877 148.994C122.791 149.05 122.701 149.098 122.606 149.137C122.512 149.177 122.414 149.207 122.314 149.226C122.211 149.247 122.107 149.258 122.002 149.258C121.897 149.258 121.792 149.247 121.689 149.226C121.589 149.206 121.491 149.177 121.397 149.137C121.303 149.098 121.213 149.05 121.128 148.994C121.043 148.937 120.963 148.872 120.891 148.8C120.818 148.727 120.753 148.648 120.695 148.562C120.639 148.477 120.59 148.387 120.552 148.292C120.512 148.198 120.483 148.1 120.462 148C120.423 147.799 120.423 147.592 120.462 147.39C120.483 147.29 120.512 147.193 120.552 147.098C120.59 147.004 120.639 146.913 120.695 146.828C120.753 146.743 120.818 146.663 120.891 146.59C120.963 146.518 121.043 146.453 121.128 146.397C121.213 146.34 121.303 146.292 121.397 146.253C121.682 146.135 121.997 146.104 122.3 146.164C122.4 146.183 122.498 146.213 122.592 146.253C122.687 146.291 122.778 146.339 122.862 146.397C123.034 146.51 123.181 146.657 123.294 146.828C123.351 146.913 123.399 147.004 123.438 147.098C123.477 147.193 123.506 147.29 123.527 147.39C123.568 147.591 123.568 147.799 123.527 148H123.541Z" fill="#CAE2BC"/>
<path d="M169.51 117.017C164.077 117.023 158.868 119.184 155.026 123.026C151.184 126.867 149.023 132.076 149.018 137.509C149.018 148.808 158.21 158 169.51 158C180.81 158 190 148.808 190 137.509C190 126.211 180.808 117.017 169.51 117.017ZM169.177 148.755C166.194 148.753 163.334 147.567 161.224 145.457C159.115 143.348 157.929 140.488 157.927 137.505V136.753L156.958 137.722C156.665 138.015 156.267 138.179 155.853 138.179C155.438 138.179 155.041 138.014 154.748 137.721C154.455 137.428 154.291 137.03 154.291 136.616C154.291 136.201 154.456 135.804 154.749 135.511L158.3 131.959C158.446 131.814 158.618 131.699 158.808 131.62C158.998 131.542 159.201 131.501 159.407 131.501H159.489C159.767 131.501 160.04 131.576 160.28 131.716C160.52 131.857 160.718 132.059 160.854 132.301L164.063 135.516C164.356 135.809 164.521 136.206 164.521 136.62C164.521 137.035 164.357 137.432 164.064 137.726C163.771 138.019 163.373 138.184 162.959 138.184C162.544 138.184 162.147 138.019 161.854 137.726L161.052 136.925V137.509C161.052 139.664 161.908 141.731 163.432 143.255C164.955 144.778 167.022 145.634 169.177 145.634C169.591 145.634 169.989 145.799 170.282 146.092C170.575 146.385 170.739 146.782 170.739 147.197C170.739 147.611 170.575 148.009 170.282 148.302C169.989 148.595 169.591 148.759 169.177 148.759V148.755ZM180.714 143.053C180.57 143.199 180.398 143.314 180.208 143.393C180.018 143.471 179.815 143.511 179.61 143.511H179.532C179.254 143.511 178.982 143.437 178.742 143.296C178.503 143.156 178.305 142.955 178.169 142.712L174.958 139.501C174.665 139.208 174.501 138.811 174.501 138.396C174.501 137.982 174.666 137.584 174.959 137.291C175.252 136.998 175.65 136.834 176.064 136.834C176.479 136.834 176.876 136.999 177.169 137.292L177.969 138.092V137.509C177.969 135.354 177.113 133.288 175.589 131.764C174.066 130.24 171.999 129.384 169.844 129.384C169.43 129.384 169.032 129.22 168.739 128.927C168.446 128.634 168.282 128.236 168.282 127.822C168.282 127.407 168.446 127.01 168.739 126.717C169.032 126.424 169.43 126.259 169.844 126.259C172.827 126.262 175.687 127.448 177.796 129.557C179.906 131.666 181.092 134.526 181.094 137.509V138.261L182.063 137.292C182.358 137.007 182.752 136.85 183.162 136.854C183.572 136.857 183.964 137.021 184.253 137.311C184.543 137.601 184.707 137.993 184.711 138.402C184.714 138.812 184.557 139.207 184.272 139.501L180.714 143.053Z" fill="#59A52C"/>
</g>
<defs>
<linearGradient id="paint0_linear_84_3547" x1="300" y1="0" x2="113.462" y2="183.83" gradientUnits="userSpaceOnUse">
<stop stop-color="#232324"/>
<stop offset="1" stop-color="#0D0E10"/>
</linearGradient>
<radialGradient id="paint1_angular_84_3547" cx="0" cy="0" r="1" gradientUnits="userSpaceOnUse" gradientTransform="translate(132.5 111.971) rotate(-43.2568) scale(163.396 191.917)">
<stop offset="0.164852" stop-color="#0D0E10"/>
<stop offset="0.317442" stop-color="#121913"/>
<stop offset="0.489152" stop-color="#4FA83D"/>
<stop offset="0.658904" stop-color="#0D0E10"/>
<stop offset="0.828155" stop-color="#0D0E10"/>
<stop offset="1" stop-color="#4FA83D"/>
</radialGradient>
<clipPath id="clip0_84_3547">
<rect width="80" height="80" fill="white" transform="translate(110 78)"/>
</clipPath>
</defs>
</svg>
