<svg xmlns="http://www.w3.org/2000/svg" width="45" height="45" viewBox="0 0 45 45" fill="none"><circle cx="22.5" cy="22.5" r="22.5" fill="url(#paint0_radial_1962_15438)" fill-opacity="0.26"></circle><path d="M11.6348 21.6775V14.1966C11.6348 13.9262 11.7422 13.6668 11.9334 13.4756C12.1246 13.2844 12.3839 13.177 12.6543 13.177H33.0454C33.3158 13.177 33.5751 13.2844 33.7663 13.4756C33.9575 13.6668 34.065 13.9262 34.065 14.1966V21.6775C34.065 32.3828 24.9782 35.9258 23.1685 36.5248C22.9629 36.6009 22.7368 36.6009 22.5312 36.5248C20.7215 35.9258 11.6348 32.3828 11.6348 21.6775Z" stroke="#DDDDDD" stroke-width="2.75309" stroke-linecap="round" stroke-linejoin="round"></path><path d="M24.9601 27.5985L23.3863 29.1723L21.8125 27.5985" stroke="#DDDDDD" stroke-width="1.20131" stroke-linecap="round" stroke-linejoin="round"></path><path d="M23.3887 25.1672V29.1711" stroke="#DDDDDD" stroke-width="1.20131" stroke-linecap="round" stroke-linejoin="round"></path><path d="M21.8125 19.1766L23.3863 17.6029L24.9601 19.1766" stroke="#DDDDDD" stroke-width="1.20131" stroke-linecap="round" stroke-linejoin="round"></path><path d="M23.3887 21.6068V17.6029" stroke="#DDDDDD" stroke-width="1.20131" stroke-linecap="round" stroke-linejoin="round"></path><path d="M19.1793 24.9592L17.6055 23.3855L19.1793 21.8118" stroke="#DDDDDD" stroke-width="1.20131" stroke-linecap="round" stroke-linejoin="round"></path><path d="M21.6095 23.3898H17.6055" stroke="#DDDDDD" stroke-width="1.20131" stroke-linecap="round" stroke-linejoin="round"></path><path d="M27.5977 21.8118L29.1715 23.3855L27.5977 24.9592" stroke="#DDDDDD" stroke-width="1.20131" stroke-linecap="round" stroke-linejoin="round"></path><path d="M25.166 23.3898H29.1701" stroke="#DDDDDD" stroke-width="1.20131" stroke-linecap="round" stroke-linejoin="round"></path><defs><radialGradient id="paint0_radial_1962_15438" cx="0" cy="0" r="1" gradientUnits="userSpaceOnUse" gradientTransform="translate(22.5 22.5) rotate(90.5907) scale(48.5026)"><stop stop-color="#4FA83D"></stop><stop offset="0.46875" stop-color="#22CB00" stop-opacity="0.53125"></stop><stop offset="1" stop-opacity="0"></stop></radialGradient></defs></svg>