<svg xmlns="http://www.w3.org/2000/svg" width="75" height="75" viewBox="0 0 75 75" fill="none"><circle cx="37.5" cy="37.5" r="37.5" fill="url(#paint0_linear_2520_17387)"></circle><path d="M18.1543 49.6256H40.0024C40.8677 49.6256 41.5692 50.3271 41.5691 51.1924V56.3557C41.5691 57.221 40.8677 57.9225 40.0024 57.9225H18.1543C17.289 57.9225 16.5875 57.221 16.5875 56.3557V51.1924C16.5875 50.3271 17.289 49.6256 18.1543 49.6256Z" stroke="white" stroke-width="1.17509"></path><path d="M18.1543 37.3463H40.0024C40.8677 37.3463 41.5692 38.0478 41.5691 38.9131V44.0764C41.5691 44.9417 40.8677 45.6432 40.0024 45.6432H18.1543C17.289 45.6432 16.5875 44.9417 16.5875 44.0764V38.9131C16.5875 38.0478 17.289 37.3463 18.1543 37.3463Z" stroke="white" stroke-width="1.17509"></path><path d="M18.1543 25.0719H40.0024C40.8677 25.0719 41.5692 25.7734 41.5691 26.6387V31.802C41.5691 32.6673 40.8677 33.3688 40.0024 33.3688H18.1543C17.289 33.3688 16.5875 32.6673 16.5875 31.802V26.6387C16.5875 25.7734 17.289 25.0719 18.1543 25.0719Z" stroke="white" stroke-width="1.17509"></path><path d="M39.8457 46.2305H18.3125V49.0386H39.8457V46.2305Z" fill="white"></path><path d="M39.8457 33.9502H18.3125V36.7583H39.8457V33.9502Z" fill="white"></path><path d="M21.0455 31.0431C22.0522 31.0431 22.8683 30.227 22.8683 29.2203C22.8683 28.2136 22.0522 27.3975 21.0455 27.3975C20.0388 27.3975 19.2227 28.2136 19.2227 29.2203C19.2227 30.227 20.0388 31.0431 21.0455 31.0431Z" fill="white"></path><path d="M26.2252 31.0431C27.2319 31.0431 28.048 30.227 28.048 29.2203C28.048 28.2136 27.2319 27.3975 26.2252 27.3975C25.2184 27.3975 24.4023 28.2136 24.4023 29.2203C24.4023 30.227 25.2184 31.0431 26.2252 31.0431Z" fill="white"></path><path d="M21.0455 43.3175C22.0522 43.3175 22.8683 42.5014 22.8683 41.4947C22.8683 40.488 22.0522 39.6719 21.0455 39.6719C20.0388 39.6719 19.2227 40.488 19.2227 41.4947C19.2227 42.5014 20.0388 43.3175 21.0455 43.3175Z" fill="white"></path><path d="M26.2252 43.3175C27.2319 43.3175 28.048 42.5014 28.048 41.4947C28.048 40.488 27.2319 39.6719 26.2252 39.6719C25.2184 39.6719 24.4023 40.488 24.4023 41.4947C24.4023 42.5014 25.2184 43.3175 26.2252 43.3175Z" fill="white"></path><path d="M21.0455 55.5968C22.0522 55.5968 22.8683 54.7807 22.8683 53.774C22.8683 52.7673 22.0522 51.9512 21.0455 51.9512C20.0388 51.9512 19.2227 52.7673 19.2227 53.774C19.2227 54.7807 20.0388 55.5968 21.0455 55.5968Z" fill="white"></path><path d="M26.2252 55.5968C27.2319 55.5968 28.048 54.7807 28.048 53.774C28.048 52.7673 27.2319 51.9512 26.2252 51.9512C25.2184 51.9512 24.4023 52.7673 24.4023 53.774C24.4023 54.7807 25.2184 55.5968 26.2252 55.5968Z" fill="white"></path><path d="M57.5843 19.7973C53.4963 20.2834 50.1324 19.0531 47.3348 16.4927C46.6171 15.8358 45.5408 15.8358 44.8231 16.4927C42.0255 19.0531 38.6616 20.2834 34.5735 19.7973C33.4694 19.6661 32.4998 20.5744 32.5657 21.6844C33.4307 36.2621 42.5377 41.6692 45.2933 42.9787C45.7938 43.2165 46.3641 43.2165 46.8646 42.9787C49.6203 41.6692 58.7272 36.2621 59.5922 21.6844C59.658 20.5744 58.6884 19.6661 57.5843 19.7973Z" fill="white"></path><path d="M46.0744 40.3302C43.494 39.0182 36.4636 34.3967 35.3711 22.604C35.6811 22.6213 35.9884 22.6302 36.2931 22.6302C39.9402 22.6302 43.2205 21.4178 46.0779 19.0195C48.9354 21.4178 52.2165 22.6302 55.8628 22.6302C56.1665 22.6302 56.4739 22.6213 56.7839 22.6045C55.6833 34.3741 48.6174 39.0253 46.0744 40.3302Z" fill="white"></path><defs><linearGradient id="paint0_linear_2520_17387" x1="10.5" y1="13" x2="64.5" y2="66.5" gradientUnits="userSpaceOnUse"><stop stop-color="#4FA83D"></stop><stop offset="1" stop-color="#083100"></stop></linearGradient></defs></svg>