<svg width="31" height="32" viewBox="0 0 31 32" fill="none" xmlns="http://www.w3.org/2000/svg">
<g clip-path="url(#clip0_255_8533)">
<path d="M9.16056 30.116C9.40241 29.8458 9.58622 29.5288 9.70059 29.1847C9.81496 28.8405 9.85746 28.4765 9.82545 28.1153C9.82545 28.1153 6.79356 30.9706 4.54763 31.2148C4.47719 30.4987 4.62379 29.7781 4.96837 29.1464C3.83795 29.3532 2.72286 29.6363 1.63076 29.994C1.99394 28.9057 2.27951 27.793 2.48534 26.6644C1.85525 27.0131 1.13326 27.16 0.416992 27.0852C0.661158 24.8402 3.51649 21.8073 3.51649 21.8073C3.15536 21.777 2.79183 21.8203 2.44792 21.9346C2.10401 22.0489 1.78688 22.2318 1.51574 22.4722C0.809474 18.4939 6.12261 18.4697 6.12261 18.4697L13.157 25.5041C13.1631 25.5152 13.1328 30.8173 9.16056 30.116Z" fill="#4FA83D"/>
<path d="M6.32402 18.6756C5.10422 18.6961 3.93261 19.1552 3.02374 19.9691C2.79536 20.2408 2.64568 20.5698 2.5909 20.9205C3.04221 20.766 3.51752 20.6936 3.99435 20.7066L5.44018 20.7429L4.45141 21.7983C3.29971 23.0093 2.37039 24.4137 1.70605 25.9471C2.04597 25.8709 2.37727 25.7604 2.69483 25.6172L3.80467 25.1409L3.57867 26.3305C3.56656 26.3981 3.35266 27.514 3.07419 28.5573C4.11139 28.2828 5.23435 28.075 5.30094 28.0629L6.4905 27.8369L6.01427 28.9467C5.87382 29.2653 5.76336 29.5964 5.68434 29.9355C7.21532 29.2666 8.61897 28.3378 9.83315 27.1901L10.8885 26.2013L10.9248 27.6472C10.9396 28.1236 10.8692 28.5989 10.717 29.0506C11.0659 28.9958 11.3929 28.8461 11.6624 28.6178C12.4765 27.7067 12.9356 26.5331 12.9559 25.3115L6.32402 18.6756Z" fill="#CAE2BC"/>
<path d="M18.6362 13.0012C17.1851 11.5488 15.3552 10.5331 13.3551 10.0698C11.3549 9.6065 9.26486 9.71421 7.32292 10.3807C5.38098 11.0471 3.66523 12.2455 2.37108 13.8394C1.07693 15.4333 0.256393 17.3586 0.00292969 19.396C0.141017 19.2299 0.287506 19.0709 0.441823 18.9197C2.07239 17.2946 4.28066 16.3821 6.5828 16.3821C8.88494 16.3821 11.0932 17.2946 12.7238 18.9197C14.3489 20.5503 15.2615 22.7586 15.2615 25.0607C15.2615 27.3629 14.3489 29.5711 12.7238 31.2017C12.5714 31.3541 12.407 31.5044 12.2476 31.6406C14.286 31.3876 16.2124 30.5669 17.8069 29.272C19.4015 27.9771 20.6001 26.2602 21.266 24.317C21.9319 22.3738 22.0384 20.2826 21.5732 18.2819C21.1081 16.2811 20.091 14.4514 18.6362 13.0012Z" fill="#4FA83D"/>
<path d="M28.0665 0.640625C26.5759 0.640531 25.0889 0.787541 23.6271 1.07952C19.33 1.9523 15.3828 4.06483 12.273 7.15612C9.16327 10.2474 7.02727 14.182 6.12891 18.4738L13.1754 25.5203C18.2156 24.471 22.7398 21.7159 25.9854 17.7195C29.2309 13.7232 30.9993 8.72997 30.9925 3.58172V0.640625H28.0665Z" fill="#CAE2BC"/>
<path d="M24.2559 7.38244C23.6859 6.81357 22.9845 6.39386 22.2138 6.16038C21.4431 5.9269 20.6267 5.88683 19.8368 6.04373C19.0469 6.20064 18.3078 6.54968 17.6849 7.06001C17.0619 7.57033 16.5742 8.22624 16.2648 8.96978C15.9555 9.71333 15.8341 10.5216 15.9112 11.3232C15.9884 12.1248 16.2619 12.8951 16.7074 13.566C17.1529 14.2368 17.7568 14.7876 18.4657 15.1697C19.1746 15.5518 19.9667 15.7534 20.772 15.7567C21.7429 15.7583 22.6924 15.4719 23.5005 14.9338C24.3086 14.3957 24.939 13.63 25.312 12.7336C25.6849 11.8372 25.7836 10.8503 25.5956 9.89784C25.4077 8.94533 24.9414 8.06996 24.2559 7.38244Z" fill="white"/>
<path d="M20.7893 14.1121C22.592 14.1121 24.0533 12.6508 24.0533 10.8482C24.0533 9.04555 22.592 7.58423 20.7893 7.58423C18.9867 7.58423 17.5254 9.04555 17.5254 10.8482C17.5254 12.6508 18.9867 14.1121 20.7893 14.1121Z" fill="#4FA83D"/>
<path d="M30.5567 8.01706L23.6201 1.07952C25.0818 0.787242 26.5688 0.640229 28.0595 0.640626H30.9946V3.57566C30.9951 5.06693 30.8484 6.55462 30.5567 8.01706Z" fill="#4FA83D"/>
</g>
<defs>
<clipPath id="clip0_255_8533">
<rect width="30.9939" height="31" fill="white" transform="translate(0.00292969 0.640625)"/>
</clipPath>
</defs>
</svg>
