<svg xmlns="http://www.w3.org/2000/svg" width="61" height="58" viewBox="0 0 61 58"><g id="Group_5561" data-name="Group 5561" transform="translate(-1283 -1103)"><rect id="Rectangle_6430" data-name="Rectangle 6430" width="61" height="58" rx="14" transform="translate(1283 1103)" fill="#2c2f32"></rect><g id="startup" transform="translate(1299 1118)"><path id="Path_21327" data-name="Path 21327" d="M14.921,303.047a2.446,2.446,0,0,0,.614-1.847s-2.8,2.636-4.872,2.861a3.31,3.31,0,0,1,.389-1.909,23.468,23.468,0,0,0-3.081.783,22.412,22.412,0,0,0,.789-3.07,3.247,3.247,0,0,1-1.909.389c.225-2.073,2.861-4.872,2.861-4.872a2.472,2.472,0,0,0-1.847.614c-.653-3.672,4.252-3.695,4.252-3.695l6.494,6.494C18.616,298.8,18.588,303.694,14.921,303.047Z" transform="translate(-6.467 -275.837)" fill="#4fa83d"></path><path id="Path_21328" data-name="Path 21328" d="M32.214,295.6a4.686,4.686,0,0,0-3.047,1.194,1.8,1.8,0,0,0-.4.879,3.687,3.687,0,0,1,1.3-.2l1.335.034-.912.974a13.137,13.137,0,0,0-2.535,3.83,4.745,4.745,0,0,0,.912-.3l1.025-.439-.208,1.1c-.011.062-.208,1.093-.462,2.056.958-.254,1.994-.445,2.056-.456l1.1-.208-.439,1.025a5.172,5.172,0,0,0-.3.912,13.364,13.364,0,0,0,3.83-2.535l.974-.912.034,1.335a3.7,3.7,0,0,1-.191,1.3,1.775,1.775,0,0,0,.873-.4,4.7,4.7,0,0,0,1.194-3.053Z" transform="translate(-26.379 -278.951)" fill="#cae2bc"></path><path id="Path_21329" data-name="Path 21329" d="M17.251,152.874a10.12,10.12,0,0,0-17.2,5.9,5.86,5.86,0,0,1,.406-.439,8.031,8.031,0,0,1,11.338,0,8.031,8.031,0,0,1,0,11.338c-.141.141-.293.276-.439.406a10.118,10.118,0,0,0,5.9-17.207Z" transform="translate(-0.05 -141.462)" fill="#4fa83d"></path><path id="Path_21330" data-name="Path 21330" d="M120.6,0a20.916,20.916,0,0,0-4.1.406A20.716,20.716,0,0,0,100.35,16.463l6.505,6.505A20.658,20.658,0,0,0,123.313,2.715V0Z" transform="translate(-94.701)" fill="#cae2bc"></path><path id="Path_21331" data-name="Path 21331" d="M268.077,88.276A4.526,4.526,0,1,0,264.861,96a4.531,4.531,0,0,0,3.216-7.728Z" transform="translate(-245.688 -82.053)" fill="#fff"></path><circle id="Ellipse_644" data-name="Ellipse 644" cx="3.013" cy="3.013" r="3.013" transform="translate(16.176 6.41)" fill="#4fa83d"></circle><path id="Path_21332" data-name="Path 21332" d="M393.554,6.81l-6.4-6.4A20.873,20.873,0,0,1,391.25,0h2.709V2.709A20.917,20.917,0,0,1,393.554,6.81Z" transform="translate(-365.347 0)" fill="#4fa83d"></path></g></g></svg>