<svg width="31" height="30" viewBox="0 0 31 30" fill="none" xmlns="http://www.w3.org/2000/svg">
<g clip-path="url(#clip0_255_8547)">
<path d="M12.1416 19.7064C12.1416 19.7064 12.0075 20.8595 13.3069 22.3086C13.3422 22.3476 13.3848 22.379 13.432 22.4006C13.4793 22.4222 13.5303 22.4336 13.5818 22.4342C13.6335 22.4349 13.6847 22.4247 13.7324 22.4043C13.7801 22.3839 13.8234 22.3537 13.8597 22.3154C15.1438 20.941 15.0461 19.7215 15.0461 19.7215C15.038 19.3236 14.8837 18.944 14.6148 18.6612C14.3459 18.3784 13.983 18.2138 13.6011 18.2014C12.799 18.1972 12.221 18.8336 12.1416 19.7064Z" fill="#4FA83D"/>
<path d="M15.5068 17.23C15.933 17.2931 16.3337 17.4792 16.6636 17.7673C17.163 18.2348 17.594 18.7759 17.9431 19.3734C17.9723 19.4225 18.0145 19.4618 18.0647 19.4866C18.1148 19.5115 18.1707 19.5208 18.2257 19.5135C18.2808 19.5061 18.3327 19.4825 18.3753 19.4453C18.4178 19.4081 18.4491 19.359 18.4656 19.3039C18.9934 17.5608 18.7921 15.4514 16.7601 14.5245C16.5425 15.5128 16.1142 16.4375 15.5068 17.23Z" fill="#4FA83D"/>
<path d="M10.5422 17.7348C10.8752 17.4499 11.2782 17.268 11.7055 17.2097C11.1043 16.4116 10.6844 15.482 10.4776 14.4907C8.43574 15.3962 8.21473 17.5039 8.72519 19.2531C8.74094 19.308 8.77167 19.3571 8.8135 19.3942C8.85534 19.4315 8.90664 19.4554 8.96121 19.4631C9.01631 19.4716 9.0726 19.4634 9.1233 19.4394C9.174 19.4153 9.21696 19.3766 9.24708 19.3278C9.60199 18.7339 10.0382 18.1973 10.5422 17.7348Z" fill="#4FA83D"/>
<path d="M13.9617 7.26656C13.8729 7.19812 13.7654 7.16091 13.6549 7.16035C13.5444 7.15978 13.4366 7.19587 13.3471 7.2634C12.8285 7.65804 12.3678 8.12919 11.9795 8.66205C12.4547 9.05037 13.0406 9.2628 13.6446 9.26573C14.2486 9.26866 14.8364 9.06196 15.315 8.67828C14.932 8.14187 14.4761 7.66632 13.9617 7.26656Z" fill="#4FA83D"/>
<path d="M11.6691 9.12744C11.1451 9.98939 10.8477 10.9796 10.8067 11.9988C10.6672 15.3394 12.229 16.9699 12.229 16.9699L14.9865 16.9843C14.9865 16.9843 16.5641 15.3701 16.4568 12.0284C16.4254 11.0083 16.1373 10.0147 15.6213 9.14706C15.0512 9.59454 14.3559 9.83505 13.642 9.83143C12.9281 9.82791 12.2351 9.5806 11.6691 9.12744ZM14.4288 13.3603C14.2688 13.5252 14.0655 13.637 13.8445 13.6816C13.6235 13.7262 13.3948 13.7015 13.1873 13.6107C12.9797 13.5199 12.8028 13.3671 12.6786 13.1715C12.5545 12.9759 12.4889 12.7464 12.49 12.512C12.4912 12.2776 12.559 12.0488 12.685 11.8545C12.8109 11.6602 12.9895 11.5092 13.1979 11.4205C13.4062 11.332 13.6352 11.3097 13.8557 11.3566C14.0762 11.4034 14.2785 11.5174 14.4368 11.684C14.542 11.7946 14.6252 11.9258 14.6817 12.0698C14.7382 12.2139 14.7669 12.3682 14.7661 12.5238C14.7654 12.6795 14.7352 12.8335 14.6773 12.977C14.6195 13.1205 14.535 13.2507 14.4288 13.3603Z" fill="#4FA83D"/>
<mask id="mask0_255_8547" style="mask-type:luminance" maskUnits="userSpaceOnUse" x="12" y="11" width="3" height="3">
<path d="M13.641 13.7454C14.3203 13.7454 14.8709 13.172 14.8709 12.4645C14.8709 11.7571 14.3203 11.1836 13.641 11.1836C12.9618 11.1836 12.4111 11.7571 12.4111 12.4645C12.4111 13.172 12.9618 13.7454 13.641 13.7454Z" fill="white"/>
</mask>
<g mask="url(#mask0_255_8547)">
<path d="M13.1492 12.4645C13.1492 12.2878 13.304 12.0239 13.6409 12.0239V15.4671C15.3363 15.4671 16.5924 14.0561 16.5924 12.4645H13.1492ZM13.6409 12.0239C13.9778 12.0239 14.1326 12.2878 14.1326 12.4645H10.6895C10.6895 14.0561 11.9455 15.4671 13.6409 15.4671V12.0239ZM14.1326 12.4645C14.1326 12.6412 13.9778 12.9052 13.6409 12.9052V9.46198C11.9455 9.46198 10.6895 10.8729 10.6895 12.4645H14.1326ZM13.6409 12.9052C13.304 12.9052 13.1492 12.6412 13.1492 12.4645H16.5924C16.5924 10.8729 15.3363 9.46198 13.6409 9.46198V12.9052Z" fill="white"/>
</g>
<path fill-rule="evenodd" clip-rule="evenodd" d="M13.6431 27.3253C20.1586 27.3253 25.5587 21.8037 25.5587 14.8438C25.5587 7.88374 20.1586 2.36222 13.6431 2.36222C7.12756 2.36222 1.72745 7.88374 1.72745 14.8438C1.72745 21.8037 7.12756 27.3253 13.6431 27.3253ZM13.6431 29.0469C21.1747 29.0469 27.2803 22.6879 27.2803 14.8438C27.2803 6.99958 21.1747 0.640625 13.6431 0.640625C6.11146 0.640625 0.00585938 6.99958 0.00585938 14.8438C0.00585938 22.6879 6.11146 29.0469 13.6431 29.0469Z" fill="#CAE2BC"/>
<path d="M25.2737 27.2048C28.4332 27.2048 30.9946 24.5372 30.9946 21.2464C30.9946 17.9558 28.4332 15.2881 25.2737 15.2881C22.114 15.2881 19.5527 17.9558 19.5527 21.2464C19.5527 24.5372 22.114 27.2048 25.2737 27.2048Z" fill="#4FA83D"/>
<path d="M22.8896 21.2465H27.6571" stroke="white" stroke-width="0.860795" stroke-linecap="round" stroke-linejoin="round"/>
<path d="M25.0352 18.764V23.7292" stroke="white" stroke-width="0.860795" stroke-linecap="round" stroke-linejoin="round"/>
</g>
<defs>
<clipPath id="clip0_255_8547">
<rect width="30.9886" height="28.4062" fill="white" transform="translate(0.00585938 0.640625)"/>
</clipPath>
</defs>
</svg>
