<svg xmlns="http://www.w3.org/2000/svg" width="72" height="59" viewBox="0 0 72 59" fill="none"><path fill-rule="evenodd" clip-rule="evenodd" d="M2 9.78792V2H58.6575V9.78792H2ZM2 11.5801V43.7689H35.1864C34.9117 42.4967 34.7671 41.1762 34.7671 39.8219C34.7671 29.5403 43.102 21.2055 53.3836 21.2055C55.2154 21.2055 56.9854 21.4701 58.6575 21.9631V11.5801H2ZM60.6575 22.6802V1.37858C60.6575 0.617211 60.0403 0 59.279 0H1.37858C0.617211 0 0 0.617212 0 1.37858V44.3903C0 45.1517 0.61721 45.7689 1.37858 45.7689H35.6157C35.4736 45.2243 35.3556 44.67 35.2627 44.1072C37.1982 52.3231 44.5767 58.4384 53.3836 58.4384C63.6651 58.4384 72 50.1035 72 39.8219C72 32.1214 67.3246 25.5128 60.6575 22.6802ZM53.3836 55.4384C62.0083 55.4384 69 48.4466 69 39.8219C69 36.4453 67.9284 33.3191 66.1066 30.7646L40.7235 48.967C43.5606 52.8876 48.1742 55.4384 53.3836 55.4384ZM64.1296 28.4907L39.2009 46.3673C38.2806 44.3765 37.7671 42.1592 37.7671 39.8219C37.7671 31.1972 44.7588 24.2055 53.3836 24.2055C57.5471 24.2055 61.3301 25.8348 64.1296 28.4907ZM45.9068 6.06573C45.9068 6.90323 45.2278 7.58217 44.3903 7.58217C43.5528 7.58217 42.8739 6.90323 42.8739 6.06573C42.8739 5.22822 43.5528 4.54929 44.3903 4.54929C45.2278 4.54929 45.9068 5.22822 45.9068 6.06573ZM40.6681 6.06574C40.6681 6.90325 39.9892 7.58218 39.1517 7.58218C38.3142 7.58218 37.6352 6.90325 37.6352 6.06574C37.6352 5.22824 38.3142 4.5493 39.1517 4.5493C39.9892 4.5493 40.6681 5.22824 40.6681 6.06574ZM49.6288 7.58217C50.4663 7.58217 51.1453 6.90323 51.1453 6.06573C51.1453 5.22822 50.4663 4.54929 49.6288 4.54929C48.7913 4.54929 48.1124 5.22822 48.1124 6.06573C48.1124 6.90323 48.7913 7.58217 49.6288 7.58217ZM7.43425 19.763V35.4788H30.043V19.763H7.43425ZM7.29639 18.2466C6.53502 18.2466 5.91781 18.8638 5.91781 19.6252V35.6167C5.91781 36.3781 6.53502 36.9953 7.29639 36.9953H30.1808C30.9422 36.9953 31.5594 36.3781 31.5594 35.6167V19.6252C31.5594 18.8638 30.9422 18.2466 30.1808 18.2466H7.29639ZM10.5359 23.4852C10.5359 23.0664 10.8754 22.727 11.2941 22.727H16.3949C16.8136 22.727 17.1531 23.0664 17.1531 23.4852C17.1531 23.9039 16.8136 24.2434 16.3949 24.2434H11.2941C10.8754 24.2434 10.5359 23.9039 10.5359 23.4852ZM11.294 26.8627C10.8753 26.8627 10.5358 27.2021 10.5358 27.6209C10.5358 28.0396 10.8753 28.3791 11.294 28.3791H24.942C25.3607 28.3791 25.7002 28.0396 25.7002 27.6209C25.7002 27.2021 25.3607 26.8627 24.942 26.8627H11.294ZM10.5358 31.7566C10.5358 31.3379 10.8753 30.9984 11.294 30.9984H24.942C25.3607 30.9984 25.7002 31.3379 25.7002 31.7566C25.7002 32.1754 25.3607 32.5148 24.942 32.5148H11.294C10.8753 32.5148 10.5358 32.1754 10.5358 31.7566Z" fill="#4FA83D"></path></svg>