<svg xmlns="http://www.w3.org/2000/svg" width="60.051" height="62.835" viewBox="0 0 60.051 62.835"><g id="Group_6148" data-name="Group 6148" transform="translate(-2068.373 -1675.135)"><g id="noun-rocket-1014857" transform="matrix(0.966, 0.259, -0.259, 0.966, 2078.96, 1665.269)"><path id="Path_46259" data-name="Path 46259" d="M5.875.316C1.988,1.722-.788,6.927.2,10.954a3.766,3.766,0,0,0,5.147,2.782,9.065,9.065,0,0,0,4.781-4.3,9.123,9.123,0,0,0,1.084-6.231A3.774,3.774,0,0,0,5.875.316Z" transform="translate(27.84 20.273)"></path><path id="Path_46260" data-name="Path 46260" d="M14.493.61c.527-.527.93-.849,1.765-.388q9.148,5.1,18.363,10.082c.63.344.886.7.652,1.42-.835,2.585-1.442,5.265-2.482,7.768-3.544,8.545-9.445,15.361-16.173,21.548a1.292,1.292,0,0,1-1.794.169c-2.292-1.3-4.613-2.548-6.926-3.815S3.292,34.824.949,33.616a1.438,1.438,0,0,1-.9-1.823A71.1,71.1,0,0,1,5.9,12.785,44.086,44.086,0,0,1,14.494.608ZM11.337,23.431a4.69,4.69,0,0,0,6.4,3.463,11.277,11.277,0,0,0,5.938-5.345c1.216-2.453,1.984-4.978,1.347-7.746-.761-3.295-3.448-4.752-6.641-3.595-4.825,1.756-8.273,8.222-7.043,13.222Z" transform="translate(15.386 8.762)" fill="#cae2bc"></path><path id="Path_46261" data-name="Path 46261" d="M.2,10.954a3.766,3.766,0,0,0,5.147,2.782,9.065,9.065,0,0,0,4.781-4.3,9.123,9.123,0,0,0,1.084-6.231A3.781,3.781,0,0,0,5.871.316C1.983,1.729-.792,6.927.2,10.954Z" transform="translate(27.845 20.273)"></path><path id="Path_46262" data-name="Path 46262" d="M.2,10.954a3.766,3.766,0,0,0,5.147,2.782,9.065,9.065,0,0,0,4.781-4.3,9.123,9.123,0,0,0,1.084-6.231A3.781,3.781,0,0,0,5.871.316C1.983,1.729-.792,6.927.2,10.954Z" transform="translate(27.845 20.273)" fill="#4fa83d"></path><path id="Path_46263" data-name="Path 46263" d="M13.091,10.067A28.7,28.7,0,0,0,10.667.63,1.329,1.329,0,0,0,9.657,0C7.3.044,3.4,1.435,0,3.215A18.3,18.3,0,0,0,1.435,4.767a19.253,19.253,0,0,0,11.656,5.3Z" transform="translate(38.117 0)" fill="#4fa83d"></path><path id="Path_46264" data-name="Path 46264" d="M0,3.288c6.187,3.39,12.337,6.765,18.721,10.258a38.86,38.86,0,0,0,.22-5.945A23.2,23.2,0,0,1,13.3,6.333,20.6,20.6,0,0,1,10.47,5.052,20.029,20.029,0,0,1,6.128,1.838,19.9,19.9,0,0,1,4.459,0,19.917,19.917,0,0,0,0,3.288Z" transform="translate(32.361 3.924)" fill="#4fa83d"></path><path id="Path_46265" data-name="Path 46265" d="M8.713,0,0,9.555c2.453,3.514,5.015,7.19,7.739,11.1,1.237-2.255,2.335-4.269,3.441-6.275.8-1.457,1.626-2.906,2.379-4.386a1.636,1.636,0,0,0,.2-1.245C12.132,5.821,10.419,2.928,8.713,0Z" transform="translate(33.057 42.049)" fill="#4fa83d"></path><path id="Path_46266" data-name="Path 46266" d="M13.516,12.462C14.665,8.2,15.749,4.2,16.876,0c-.564.007-1.179.007-1.794.029C12.5.132,9.914.2,7.329.366A1.832,1.832,0,0,0,6,1.025C4.005,4.517,2.1,8.054,0,11.882c4.686.206,9.152.4,13.516.579Z" transform="translate(0 28.445)" fill="#4fa83d"></path><path id="Path_46267" data-name="Path 46267" d="M12.774,6.516C8.769,4.32,4.888,2.2.883,0,.561,1.186.231,2.27,0,3.368c-.044.227.234.608.469.739Q4.987,6.634,9.545,9.079a.936.936,0,0,0,.871-.007c.8-.791,1.537-1.648,2.357-2.556Z" transform="translate(15.861 43.813)" fill="#4fa83d"></path></g><g id="noun-rocket-2217243" transform="translate(2068.728 1716.542)"><path id="Path_46256" data-name="Path 46256" d="M192.081,465.243l-4.155,4.1a2.122,2.122,0,0,0,3,3l4.155-4.155a2.161,2.161,0,0,0,0-3,2.107,2.107,0,0,0-3,.058Z" transform="translate(-176.702 -454.019)" fill="#4fa83d"></path><path id="Path_46257" data-name="Path 46257" d="M121.908,414.166a2.161,2.161,0,0,0-3,0l-6.578,6.636a2.122,2.122,0,0,0,3,3l6.578-6.694a1.992,1.992,0,0,0,0-2.943Z" transform="translate(-108.895 -408.251)" fill="#4fa83d"></path><path id="Path_46258" data-name="Path 46258" d="M92.041,365.646a2.122,2.122,0,0,0-3-3L84.885,366.8a2.122,2.122,0,0,0,3,3Z" transform="translate(-84.279 -362.039)" fill="#4fa83d"></path></g></g></svg>