<svg xmlns="http://www.w3.org/2000/svg" width="35" height="21" viewBox="0 0 35 21" fill="none"><g id="BANGLADESH_2_"><g id="Group"><g id="Group_2"><g id="Clip path group"><mask id="mask0_9372_33468" style="mask-type:luminance" maskUnits="userSpaceOnUse" x="0" y="0" width="35" height="21"><g id="SVGID_00000147919179098520069090000018192999466831476380_"><path id="Vector" d="M34.3435 0.712891H0.780518V20.2869H34.3435V0.712891Z" fill="white"></path></g></mask><g mask="url(#mask0_9372_33468)"><path id="Vector_2" d="M34.3435 0.712891H0.780518V20.2869H34.3435V0.712891Z" fill="#2D6B4F"></path></g></g><g id="Clip path group_2"><mask id="mask1_9372_33468" style="mask-type:luminance" maskUnits="userSpaceOnUse" x="0" y="0" width="35" height="21"><g id="SVGID_00000147919179098520069090000018192999466831476380__2"><path id="Vector_3" d="M34.3435 0.712891H0.780518V20.2869H34.3435V0.712891Z" fill="white"></path></g></mask><g mask="url(#mask1_9372_33468)"><g id="Group_3"><g id="Clip path group_3"><mask id="mask2_9372_33468" style="mask-type:luminance" maskUnits="userSpaceOnUse" x="0" y="0" width="35" height="21"><g id="SVGID_00000116199602460045644660000007985416301202067336_"><path id="Vector_4" d="M34.3435 0.712891H0.780518V20.2869H34.3435V0.712891Z" fill="white"></path></g></mask><g mask="url(#mask2_9372_33468)"><path id="Vector_5" d="M15.8854 3.78784C19.5924 3.78784 22.5974 6.79184 22.5974 10.4988C22.5974 14.2098 19.5924 17.2139 15.8854 17.2139C12.1764 17.2139 9.17139 14.2098 9.17139 10.4988C9.17139 6.79084 12.1764 3.78784 15.8854 3.78784Z" fill="#E01748"></path></g></g></g></g></g></g></g></g></svg>