<svg xmlns="http://www.w3.org/2000/svg" width="76.816" height="76.816" viewBox="0 0 76.816 76.816"><g id="Group_6057" data-name="Group 6057" transform="translate(-1463 -3836)"><g id="Group_5467" data-name="Group 5467" transform="translate(-257.125 1631.125)"><path id="Icon_ionic-ios-checkmark-circle" data-name="Icon ionic-ios-checkmark-circle" d="M41.783,3.375A38.408,38.408,0,1,0,80.191,41.783,38.4,38.4,0,0,0,41.783,3.375Zm19.666,27.79L36.76,55.964h-.018A3.335,3.335,0,0,1,34.6,56.98a3.233,3.233,0,0,1-2.16-1.053L22.1,45.587a.736.736,0,0,1,0-1.053l3.287-3.287a.714.714,0,0,1,1.034,0l8.2,8.2L57.146,26.752a.729.729,0,0,1,.517-.222h0a.671.671,0,0,1,.517.222l3.231,3.342A.728.728,0,0,1,61.448,31.165Z" transform="translate(1716.75 2201.5)" fill="#4fa83d"></path><circle id="Ellipse_1458" data-name="Ellipse 1458" cx="27.14" cy="27.14" r="27.14" transform="translate(1733.483 2213.568)" fill="#4fa83d"></circle></g><path id="Icon_feather-shield" data-name="Icon feather-shield" d="M20.365,38.912S34.73,31.73,34.73,20.956V8.387L20.365,3,6,8.387V20.956C6,31.73,20.365,38.912,20.365,38.912Z" transform="translate(1481.5 3853.5)" fill="none" stroke="#fff" stroke-linecap="round" stroke-linejoin="round" stroke-width="3"></path></g></svg>