<svg xmlns="http://www.w3.org/2000/svg" width="286.604" height="307.464" viewBox="0 0 286.604 307.464"><g transform="translate(0 5)" opacity="0.08"><path id="Path_32233" data-name="Path 32233" d="M305.306,0H148.86A20.861,20.861,0,0,0,128,20.86v20.86H263.587a20.861,20.861,0,0,1,20.86,20.86V260.745h20.86a20.861,20.861,0,0,0,20.86-20.86V20.86A20.861,20.861,0,0,0,305.306,0Zm0,0" transform="translate(-44.562)" fill="none" stroke="#707070" stroke-width="10"></path><path id="Path_32225" data-name="Path 32225" d="M241.306,64H84.86A20.861,20.861,0,0,0,64,84.86V272.6H215.232a5.215,5.215,0,0,1,5.215,5.215v26.074a20.86,20.86,0,1,0,41.719,0V84.86A20.861,20.861,0,0,0,241.306,64Zm0,0" transform="translate(-22.281 -22.281)" fill="#fff"></path><path id="Path_32226" data-name="Path 32226" d="M152.653,256.951a62.579,62.579,0,0,1-62.579-62.579V64H84.86A20.861,20.861,0,0,0,64,84.86V272.6H215.232a5.215,5.215,0,0,1,5.215,5.215v26.074a20.86,20.86,0,1,0,41.719,0V256.951Zm0,0" transform="translate(-22.281 -22.281)" fill="#fff"></path><path id="Path_32227" data-name="Path 32227" d="M248.653,146.43H165.215a5.215,5.215,0,0,1,0-10.43h83.438a5.215,5.215,0,0,1,0,10.43Zm0,0" transform="translate(-55.702 -47.347)"></path><path id="Path_32228" data-name="Path 32228" d="M234.728,194.43H125.215a5.215,5.215,0,0,1,0-10.43H234.728a5.215,5.215,0,0,1,0,10.43Zm0,0" transform="translate(-41.777 -64.057)"></path><path id="Path_32229" data-name="Path 32229" d="M234.728,242.43H125.215a5.215,5.215,0,0,1,0-10.43H234.728a5.215,5.215,0,0,1,0,10.43Zm0,0" transform="translate(-41.777 -80.768)"></path><path id="Path_32230" data-name="Path 32230" d="M234.728,290.43H125.215a5.215,5.215,0,0,1,0-10.43H234.728a5.215,5.215,0,0,1,0,10.43Zm0,0" transform="translate(-41.777 -97.479)"></path><path id="Path_32231" data-name="Path 32231" d="M213.868,338.43H125.215a5.215,5.215,0,1,1,0-10.43h88.653a5.215,5.215,0,1,1,0,10.43Zm0,0" transform="translate(-41.777 -114.189)"></path><path id="Path_32232" data-name="Path 32232" d="M198.166,415.289V389.215A5.215,5.215,0,0,0,192.951,384H5.215A5.215,5.215,0,0,0,0,389.215v26.074a20.861,20.861,0,0,0,20.86,20.86H219.026A20.861,20.861,0,0,1,198.166,415.289Zm0,0" transform="translate(0 -133.685)" fill="#fff"></path></g></svg>