<svg xmlns="http://www.w3.org/2000/svg" width="34" height="21" viewBox="0 0 34 21" fill="none"><g id="QATAR_2_"><g id="Group"><g id="Group_2"><g id="Clip path group"><mask id="mask0_9372_55827" style="mask-type:luminance" maskUnits="userSpaceOnUse" x="0" y="0" width="34" height="21"><g id="SVGID_00000006702814203689765990000003080894349301765780_"><path id="Vector" d="M33.8439 0.710938H0.282959V20.2889H33.8439V0.710938Z" fill="white"></path></g></mask><g mask="url(#mask0_9372_55827)"><path id="Vector_2" d="M10.2849 0.710938L13.8509 1.80093L10.2849 2.88693L13.8509 3.97693L10.2849 5.06293L13.8509 6.15195L10.2849 7.23795L13.8509 8.32394L10.2849 9.41394L13.8509 10.4999L10.2849 11.5899L13.8509 12.6759L10.2849 13.7659L13.8509 14.8519L10.2849 15.9419L13.8509 17.0269L10.2849 18.1129L13.8509 19.2029L10.2849 20.2889H33.8429V0.710938H10.2849Z" fill="#681840"></path></g></g><g id="Clip path group_2"><mask id="mask1_9372_55827" style="mask-type:luminance" maskUnits="userSpaceOnUse" x="0" y="0" width="34" height="21"><g id="SVGID_00000006702814203689765990000003080894349301765780__2"><path id="Vector_3" d="M33.8439 0.710938H0.282959V20.2889H33.8439V0.710938Z" fill="white"></path></g></mask><g mask="url(#mask1_9372_55827)"><path id="Vector_4" d="M0.282959 0.710938V20.2889H10.2849L13.851 19.2029L10.2849 18.1129L13.851 17.0269L10.2849 15.9419L13.851 14.8519L10.2849 13.7659L13.851 12.6759L10.2849 11.5899L13.851 10.4999L10.2849 9.41394L13.851 8.32394L10.2849 7.23795L13.851 6.15195L10.2849 5.06293L13.851 3.97693L10.2849 2.88693L13.851 1.80093L10.2849 0.710938H0.282959Z" fill="white"></path></g></g></g></g></g></svg>