<svg xmlns="http://www.w3.org/2000/svg" width="171" height="97" viewBox="0 0 171 97" fill="none"><g id="Group 45293"><g id="Background_complete"><path id="Vector" d="M102.596 10.0475C101.672 11.4547 101.051 12.9999 100.72 14.5938L98.1807 14.8328V19.7493L100.72 19.9887C101.05 21.5822 101.672 23.1278 102.596 24.535L100.975 26.4938L104.451 29.9704L106.41 28.3489C107.817 29.2725 109.362 29.8942 110.956 30.2251L111.195 32.764L116.111 32.7636L116.351 30.2251C117.945 29.8942 119.49 29.2725 120.897 28.3489L122.856 29.9704L126.332 26.4938L124.711 24.5354C125.635 23.1282 126.256 21.583 126.587 19.9891L129.125 19.7497L129.126 14.8332L126.587 14.5938C126.256 13.0004 125.634 11.4547 124.711 10.0479L126.332 8.08952L122.856 4.61297L120.897 6.23439C119.49 5.31047 117.944 4.68871 116.351 4.35819L116.111 1.81934L111.195 1.81974L110.956 4.3586C109.362 4.68952 107.817 5.31087 106.41 6.23479L104.451 4.61337L100.975 8.08992L102.596 10.0475ZM119.298 11.6463C122.415 14.7635 122.416 19.8186 119.298 22.9363C116.18 26.0539 111.125 26.0535 108.008 22.9363C104.89 19.8186 104.89 14.7644 108.008 11.6463C111.126 8.52859 116.18 8.52859 119.298 11.6463Z" fill="#F0F0F0"></path><path id="Vector_2" d="M157.327 23.086C156.879 23.7681 156.578 24.5175 156.417 25.2907L155.187 25.4066V27.7907L156.418 27.9065C156.578 28.6794 156.88 29.4287 157.328 30.1112L156.541 31.0611L158.227 32.7469L159.177 31.9607C159.86 32.4087 160.609 32.71 161.382 32.8704L161.498 34.1018H163.882L163.998 32.8708C164.77 32.7104 165.52 32.4091 166.202 31.9611L167.152 32.7473L168.838 31.0615L168.052 30.1116C168.5 29.4291 168.801 28.6798 168.961 27.9069L170.192 27.7911V25.407L168.961 25.2911C168.801 24.5183 168.5 23.7689 168.052 23.0868L168.838 22.137L167.152 20.4512L166.202 21.2374C165.52 20.7894 164.77 20.488 163.998 20.3276L163.882 19.0967H161.498L161.382 20.3276C160.609 20.488 159.86 20.7894 159.178 21.2374L158.228 20.4512L156.542 22.137L157.327 23.086ZM165.426 23.8613C166.938 25.3729 166.938 27.8243 165.426 29.336C163.914 30.8476 161.463 30.8476 159.952 29.336C158.44 27.8243 158.44 25.3733 159.952 23.8613C161.464 22.3496 163.915 22.3492 165.426 23.8613Z" fill="#E0E0E0"></path></g><g id="Screens"><g id="Group"><g id="Group 45294"><g id="Group_2"><path id="Vector_3" d="M43.7869 76.7549C43.3713 77.3876 43.0923 78.0822 42.9432 78.7992L41.8018 78.9065V81.1173L42.9436 81.225C43.0922 81.9415 43.3717 82.6366 43.7873 83.2693L43.0582 84.1499L44.6213 85.713L45.5019 84.9839C46.1346 85.399 46.8297 85.6785 47.5462 85.8276L47.6539 86.9694H49.8647L49.9724 85.828C50.689 85.6789 51.384 85.3999 52.0167 84.9843L52.8973 85.7134L54.4604 84.1503L53.7313 83.2697C54.1465 82.637 54.426 81.9423 54.5746 81.2254L55.7161 81.1177V78.9069L54.5746 78.7992C54.426 78.0826 54.1465 77.3876 53.7309 76.7553L54.46 75.8747L52.8969 74.3116L52.0163 75.0407C51.3836 74.6251 50.6886 74.3456 49.972 74.197L49.8643 73.0555H47.6535L47.5458 74.197C46.8292 74.3456 46.1342 74.6251 45.5015 75.0407L44.6209 74.3116L43.0578 75.8747L43.7869 76.7549ZM50.7931 77.9777C51.9163 79.1009 51.9167 80.9228 50.7931 82.046C49.6695 83.1697 47.848 83.1692 46.7243 82.046C45.6007 80.9224 45.6007 79.1009 46.7243 77.9773C47.848 76.8541 49.6695 76.8541 50.7931 77.9777Z" fill="#407BFF"></path><path id="Vector_4" d="M43.7869 76.7549C43.3713 77.3876 43.0923 78.0822 42.9432 78.7992L41.8018 78.9065V81.1173L42.9436 81.225C43.0922 81.9415 43.3717 82.6366 43.7873 83.2693L43.0582 84.1499L44.6213 85.713L45.5019 84.9839C46.1346 85.399 46.8297 85.6785 47.5462 85.8276L47.6539 86.9694H49.8647L49.9724 85.828C50.689 85.6789 51.384 85.3999 52.0167 84.9843L52.8973 85.7134L54.4604 84.1503L53.7313 83.2697C54.1465 82.637 54.426 81.9423 54.5746 81.2254L55.7161 81.1177V78.9069L54.5746 78.7992C54.426 78.0826 54.1465 77.3876 53.7309 76.7553L54.46 75.8747L52.8969 74.3116L52.0163 75.0407C51.3836 74.6251 50.6886 74.3456 49.972 74.197L49.8643 73.0555H47.6535L47.5458 74.197C46.8292 74.3456 46.1342 74.6251 45.5015 75.0407L44.6209 74.3116L43.0578 75.8747L43.7869 76.7549ZM50.7931 77.9777C51.9163 79.1009 51.9167 80.9228 50.7931 82.046C49.6695 83.1697 47.848 83.1692 46.7243 82.046C45.6007 80.9224 45.6007 79.1009 46.7243 77.9773C47.848 76.8541 49.6695 76.8541 50.7931 77.9777Z" fill="url(#paint0_linear_1_2292)"></path></g><g id="Group_3"><path id="Vector_5" d="M109.048 49.7023C108.664 50.2884 108.405 50.932 108.267 51.5959L107.21 51.6955V53.7431L108.268 53.8427C108.405 54.5062 108.664 55.1502 109.049 55.7359L108.374 56.5517L109.822 57.9997L110.637 57.3245C111.224 57.7093 111.867 57.9682 112.531 58.1059L112.63 59.1635H114.678L114.778 58.1063C115.441 57.9686 116.085 57.7097 116.671 57.3249L117.487 58.0002L118.935 56.5521L118.26 55.7363C118.645 55.1502 118.903 54.5066 119.041 53.8431L120.098 53.7435V51.6959L119.041 51.5963C118.903 50.9328 118.645 50.2892 118.26 49.7031L118.935 48.8873L117.487 47.4397L116.671 48.1149C116.085 47.7301 115.441 47.4713 114.778 47.3335L114.678 46.2764H112.631L112.531 47.3335C111.867 47.4713 111.224 47.7301 110.638 48.1149L109.822 47.4397L108.374 48.8877L109.048 49.7023ZM115.538 50.8348C116.578 51.8754 116.578 53.5624 115.538 54.603C114.497 55.6436 112.81 55.6436 111.769 54.603C110.729 53.5624 110.729 51.8754 111.769 50.8344C112.81 49.7942 114.497 49.7942 115.538 50.8348Z" fill="#407BFF"></path><path id="Vector_6" d="M109.048 49.7023C108.664 50.2884 108.405 50.932 108.267 51.5959L107.21 51.6955V53.7431L108.268 53.8427C108.405 54.5062 108.664 55.1502 109.049 55.7359L108.374 56.5517L109.822 57.9997L110.637 57.3245C111.224 57.7093 111.867 57.9682 112.531 58.1059L112.63 59.1635H114.678L114.778 58.1063C115.441 57.9686 116.085 57.7097 116.671 57.3249L117.487 58.0002L118.935 56.5521L118.26 55.7363C118.645 55.1502 118.903 54.5066 119.041 53.8431L120.098 53.7435V51.6959L119.041 51.5963C118.903 50.9328 118.645 50.2892 118.26 49.7031L118.935 48.8873L117.487 47.4397L116.671 48.1149C116.085 47.7301 115.441 47.4713 114.778 47.3335L114.678 46.2764H112.631L112.531 47.3335C111.867 47.4713 111.224 47.7301 110.638 48.1149L109.822 47.4397L108.374 48.8877L109.048 49.7023ZM115.538 50.8348C116.578 51.8754 116.578 53.5624 115.538 54.603C114.497 55.6436 112.81 55.6436 111.769 54.603C110.729 53.5624 110.729 51.8754 111.769 50.8344C112.81 49.7942 114.497 49.7942 115.538 50.8348Z" fill="url(#paint1_linear_1_2292)"></path></g><g id="Group_4"><path id="Vector_7" d="M106.514 38.37C106.265 38.7487 106.098 39.1647 106.009 39.5936L105.325 39.658V40.9813L106.009 41.0457C106.098 41.4747 106.265 41.8907 106.513 42.2694L106.077 42.7964L107.013 43.732L107.54 43.2958C107.918 43.5445 108.334 43.7118 108.763 43.8009L108.828 44.4842H110.151L110.215 43.8009C110.644 43.7118 111.06 43.5445 111.439 43.2958L111.966 43.732L112.902 42.7964L112.465 42.2694C112.714 41.8907 112.881 41.4747 112.97 41.0457L113.654 40.9813V39.658L112.97 39.5936C112.881 39.1647 112.714 38.7487 112.465 38.37L112.901 37.843L111.966 36.9073L111.439 37.3436C111.06 37.0949 110.644 36.9276 110.215 36.8385L110.151 36.1552H108.827L108.763 36.8385C108.334 36.9276 107.918 37.0949 107.54 37.3436L107.013 36.9073L106.077 37.843L106.514 38.37ZM110.707 39.1019C111.38 39.7743 111.38 40.8647 110.707 41.5371C110.035 42.2094 108.944 42.2094 108.272 41.5371C107.6 40.8647 107.6 39.7743 108.272 39.1019C108.944 38.4295 110.035 38.4295 110.707 39.1019Z" fill="url(#paint2_linear_1_2292)"></path><path id="Vector_8" d="M106.514 38.37C106.265 38.7487 106.098 39.1647 106.009 39.5936L105.325 39.658V40.9813L106.009 41.0457C106.098 41.4747 106.265 41.8907 106.513 42.2694L106.077 42.7964L107.013 43.732L107.54 43.2958C107.918 43.5445 108.334 43.7118 108.763 43.8009L108.828 44.4842H110.151L110.215 43.8009C110.644 43.7118 111.06 43.5445 111.439 43.2958L111.966 43.732L112.902 42.7964L112.465 42.2694C112.714 41.8907 112.881 41.4747 112.97 41.0457L113.654 40.9813V39.658L112.97 39.5936C112.881 39.1647 112.714 38.7487 112.465 38.37L112.901 37.843L111.966 36.9073L111.439 37.3436C111.06 37.0949 110.644 36.9276 110.215 36.8385L110.151 36.1552H108.827L108.763 36.8385C108.334 36.9276 107.918 37.0949 107.54 37.3436L107.013 36.9073L106.077 37.843L106.514 38.37ZM110.707 39.1019C111.38 39.7743 111.38 40.8647 110.707 41.5371C110.035 42.2094 108.944 42.2094 108.272 41.5371C107.6 40.8647 107.6 39.7743 108.272 39.1019C108.944 38.4295 110.035 38.4295 110.707 39.1019Z" fill="url(#paint3_linear_1_2292)"></path></g><g id="Group_5"><path id="Vector_9" d="M51.1621 90.0219C50.9134 90.4006 50.7461 90.8166 50.657 91.2455L49.9736 91.3099V92.6332L50.657 92.6976C50.7461 93.1266 50.9134 93.5426 51.1621 93.9213L50.7258 94.4483L51.6615 95.3839L52.1885 94.9477C52.5672 95.1964 52.9832 95.3637 53.4121 95.4524L53.4765 96.1357H54.7998L54.8642 95.4524C55.2932 95.3633 55.7092 95.196 56.0879 94.9473L56.6148 95.3835L57.5505 94.4479L57.1143 93.9209C57.363 93.5422 57.5303 93.1262 57.619 92.6972L58.3023 92.6328V91.3095L57.619 91.2451C57.5299 90.8162 57.3626 90.4002 57.1139 90.0215L57.5501 89.4945L56.6144 88.5588L56.0875 88.9951C55.7087 88.7464 55.2928 88.5791 54.8638 88.49L54.7994 87.8066H53.4761L53.4117 88.49C52.9828 88.5791 52.5668 88.7464 52.188 88.9946L51.6611 88.5584L50.7254 89.4941L51.1621 90.0219ZM55.3555 90.7538C56.0279 91.4262 56.0279 92.5166 55.3555 93.189C54.6832 93.8613 53.5928 93.8613 52.9204 93.189C52.248 92.5166 52.248 91.4262 52.9204 90.7538C53.5928 90.081 54.6828 90.081 55.3555 90.7538Z" fill="#407BFF"></path><path id="Vector_10" d="M51.1621 90.0219C50.9134 90.4006 50.7461 90.8166 50.657 91.2455L49.9736 91.3099V92.6332L50.657 92.6976C50.7461 93.1266 50.9134 93.5426 51.1621 93.9213L50.7258 94.4483L51.6615 95.3839L52.1885 94.9477C52.5672 95.1964 52.9832 95.3637 53.4121 95.4524L53.4765 96.1357H54.7998L54.8642 95.4524C55.2932 95.3633 55.7092 95.196 56.0879 94.9473L56.6148 95.3835L57.5505 94.4479L57.1143 93.9209C57.363 93.5422 57.5303 93.1262 57.619 92.6972L58.3023 92.6328V91.3095L57.619 91.2451C57.5299 90.8162 57.3626 90.4002 57.1139 90.0215L57.5501 89.4945L56.6144 88.5588L56.0875 88.9951C55.7087 88.7464 55.2928 88.5791 54.8638 88.49L54.7994 87.8066H53.4761L53.4117 88.49C52.9828 88.5791 52.5668 88.7464 52.188 88.9946L51.6611 88.5584L50.7254 89.4941L51.1621 90.0219ZM55.3555 90.7538C56.0279 91.4262 56.0279 92.5166 55.3555 93.189C54.6832 93.8613 53.5928 93.8613 52.9204 93.189C52.248 92.5166 52.248 91.4262 52.9204 90.7538C53.5928 90.081 54.6828 90.081 55.3555 90.7538Z" fill="url(#paint4_linear_1_2292)"></path></g><g id="Group_6"><g id="Group_7"><path id="Vector_11" d="M60.2718 51.8305C58.4766 54.5642 57.27 57.5665 56.6264 60.6639L51.6936 61.1281L51.6932 70.6804L56.6268 71.1454C57.2692 74.2416 58.4766 77.2442 60.2718 79.9783L57.1213 83.7838L63.8759 90.5384L67.6814 87.3879C70.4151 89.1827 73.4177 90.3902 76.5143 91.033L76.9789 95.9661L86.5312 95.9657L86.9962 91.0338C90.0933 90.3906 93.0955 89.1831 95.8292 87.3883L99.6346 90.5388L106.389 83.7842L103.239 79.9787C105.034 77.245 106.241 74.2424 106.883 71.1458L111.816 70.6808L111.817 61.1285L106.884 60.6635C106.241 57.5673 105.033 54.5646 103.238 51.8309L106.389 48.0255L99.6342 41.2709L95.8288 44.4213C93.0947 42.6262 90.092 41.4183 86.9958 40.7755L86.5308 35.8428L76.9785 35.8432L76.5139 40.7755C73.4173 41.4183 70.4147 42.6253 67.6814 44.4205L63.8759 41.27L57.1209 48.0251L60.2718 51.8305ZM92.7229 54.9365C98.7796 60.9932 98.78 70.8145 92.7229 76.8716C86.6653 82.9291 76.8441 82.9283 70.7873 76.8716C64.7298 70.814 64.7302 60.994 70.7877 54.9361C76.8449 48.8797 86.6653 48.8789 92.7229 54.9365Z" fill="url(#paint5_linear_1_2292)"></path></g><g id="Group_8"><path id="Vector_12" d="M77.1846 67.2684H73.7397L73.0827 68.8582H71.3231L74.6304 61.4385H76.3263L79.6441 68.8582H77.842L77.1846 67.2684ZM76.6439 65.9649L75.4672 63.1239L74.2905 65.9649H76.6439Z" fill="#89F34A"></path><path id="Vector_13" d="M85.3407 61.7666C85.8247 61.9857 86.1973 62.2968 86.4594 62.6994C86.7207 63.102 86.8515 63.5792 86.8515 64.1304C86.8515 64.6748 86.7207 65.15 86.4594 65.5562C86.1978 65.9625 85.8251 66.2736 85.3407 66.4891C84.857 66.7045 84.2859 66.8123 83.6289 66.8123H82.1343V68.8582H80.4169V61.4385H83.6289C84.2863 61.4381 84.857 61.5478 85.3407 61.7666ZM84.7104 65.0795C84.979 64.8567 85.113 64.5408 85.113 64.1309C85.113 63.7141 84.979 63.3941 84.7104 63.1717C84.4419 62.9489 84.0494 62.8375 83.5341 62.8375H82.1347V65.4132H83.5341C84.0494 65.4132 84.4419 65.3019 84.7104 65.0795Z" fill="#89F34A"></path><path id="Vector_14" d="M88.0692 61.4385H89.7862V68.8582H88.0692V61.4385Z" fill="#89F34A"></path></g><g id="Group_9"><path id="Vector_15" d="M67.6781 67.8699C67.5756 67.8699 67.4873 67.7922 67.4768 67.6881C67.0454 63.4541 68.2788 59.4011 70.9497 56.2754C71.0222 56.1899 71.1506 56.1802 71.2353 56.2531C71.3203 56.3256 71.3304 56.4536 71.2575 56.5386C68.6595 59.5794 67.4598 63.5246 67.8798 67.6472C67.8912 67.7585 67.8102 67.8578 67.6988 67.8691C67.6919 67.8695 67.6846 67.8699 67.6781 67.8699Z" fill="#89F34A"></path></g><g id="Group_10"><path id="Vector_16" d="M68.3617 71.0694C68.2743 71.0694 68.1932 71.0119 68.1673 70.924C68.0017 70.359 67.8656 69.781 67.7627 69.205C67.7428 69.0952 67.8161 68.9899 67.9263 68.9701C68.0373 68.951 68.1414 69.0239 68.1612 69.1337C68.2617 69.6951 68.3946 70.2593 68.5562 70.8098C68.5878 70.9171 68.5262 71.0297 68.4189 71.0609C68.3994 71.0666 68.3804 71.0694 68.3617 71.0694Z" fill="#89F34A"></path></g></g><path id="Vector_17" d="M31.4434 44.7461V65.0241H48.7593" stroke="#89F34A" stroke-miterlimit="10" stroke-linecap="round" stroke-linejoin="round"></path><path id="Vector_18" d="M31.445 45.7845C32.0181 45.7845 32.4827 45.3199 32.4827 44.7467C32.4827 44.1736 32.0181 43.709 31.445 43.709C30.8718 43.709 30.4072 44.1736 30.4072 44.7467C30.4072 45.3199 30.8718 45.7845 31.445 45.7845Z" fill="#89F34A"></path><path id="Vector_19" d="M137.109 82.0882C137.682 82.0882 138.147 81.6236 138.147 81.0504C138.147 80.4773 137.682 80.0127 137.109 80.0127C136.536 80.0127 136.071 80.4773 136.071 81.0504C136.071 81.6236 136.536 82.0882 137.109 82.0882Z" fill="#89F34A"></path><path id="Vector_20" d="M137.109 80.8971V88.9377H111.748V77.8369H107.945" stroke="#89F34A" stroke-miterlimit="10"></path></g><g id="Group_11"><path id="Vector_21" d="M165.847 77.0973H124.854C123.75 77.0973 122.854 76.2022 122.854 75.098V41.2629C122.854 40.1587 123.75 39.2635 124.854 39.2635H165.847C166.951 39.2635 167.847 40.1587 167.847 41.2629V75.098C167.847 76.2022 166.951 77.0973 165.847 77.0973Z" fill="#407BFF"></path><path id="Vector_22" d="M165.847 77.0973H124.854C123.75 77.0973 122.854 76.2022 122.854 75.098V41.2629C122.854 40.1587 123.75 39.2635 124.854 39.2635H165.847C166.951 39.2635 167.847 40.1587 167.847 41.2629V75.098C167.847 76.2022 166.951 77.0973 165.847 77.0973Z" fill="url(#paint6_linear_1_2292)"></path><path id="Vector_23" d="M167.847 45.861H122.854V41.1377C122.854 40.1028 123.694 39.2635 124.729 39.2635H166.006C167.022 39.2635 167.847 40.0878 167.847 41.1049V45.861H167.847Z" fill="url(#paint7_radial_1_2292)"></path></g><g id="Group_12"><path id="Vector_24" opacity="0.5" d="M165.306 43.0435C165.306 43.839 164.661 44.4838 163.866 44.4838C163.07 44.4838 162.426 43.839 162.426 43.0435C162.426 42.2479 163.071 41.6035 163.866 41.6035C164.661 41.6035 165.306 42.2479 165.306 43.0435Z" fill="white"></path><path id="Vector_25" opacity="0.5" d="M161.214 43.0435C161.214 43.839 160.569 44.4838 159.774 44.4838C158.979 44.4838 158.334 43.839 158.334 43.0435C158.334 42.2479 158.979 41.6035 159.774 41.6035C160.569 41.6035 161.214 42.2479 161.214 43.0435Z" fill="white"></path><path id="Vector_26" opacity="0.5" d="M157.12 43.0435C157.12 43.839 156.475 44.4838 155.68 44.4838C154.885 44.4838 154.24 43.839 154.24 43.0435C154.24 42.2479 154.885 41.6035 155.68 41.6035C156.475 41.6035 157.12 42.2479 157.12 43.0435Z" fill="white"></path></g><path id="Vector_27" opacity="0.6" d="M156.057 51.3761H132.979V52.7188H156.057V51.3761Z" fill="white"></path><path id="Vector_28" opacity="0.6" d="M149.852 54.2812H133.339V55.624H149.852V54.2812Z" fill="#263238"></path><path id="Vector_29" d="M162.294 51.3761H157.754V52.7188H162.294V51.3761Z" fill="#246916"></path><path id="Vector_30" d="M131.378 51.3761H126.838V52.7188H131.378V51.3761Z" fill="#246916"></path><path id="Vector_31" d="M156.057 57.5089H132.979V58.8517H156.057V57.5089Z" fill="#246916"></path><path id="Vector_32" opacity="0.6" d="M162.294 57.5089H157.754V58.8517H162.294V57.5089Z" fill="white"></path><path id="Vector_33" d="M131.378 57.5089H126.838V58.8517H131.378V57.5089Z" fill="#246916"></path><path id="Vector_34" d="M156.057 70.2949H132.979V71.6377H156.057V70.2949Z" fill="#246916"></path><path id="Vector_35" opacity="0.6" d="M162.294 70.2949H157.754V71.6377H162.294V70.2949Z" fill="white"></path><path id="Vector_36" d="M156.057 60.7422H132.979V62.0849H156.057V60.7422Z" fill="#246916"></path><path id="Vector_37" opacity="0.6" d="M162.294 60.7422H157.754V62.0849H162.294V60.7422Z" fill="#263238"></path><path id="Vector_38" opacity="0.6" d="M131.378 60.7422H126.838V62.0849H131.378V60.7422Z" fill="#263238"></path><path id="Vector_39" d="M162.629 54.334H151.66V55.6767H162.629V54.334Z" fill="#246916"></path><path id="Vector_40" opacity="0.6" d="M149.492 63.5625H132.979V64.9052H149.492V63.5625Z" fill="white"></path><path id="Vector_41" d="M162.269 63.6151H151.3V64.9578H162.269V63.6151Z" fill="#246916"></path><path id="Vector_42" opacity="0.6" d="M141.236 66.4814H132.979V67.8242H141.236V66.4814Z" fill="#263238"></path></g><g id="Group_13"><g id="Group_14"><path id="Vector_43" d="M43.8019 38.3724H2.80792C1.70376 38.3724 0.808594 37.4773 0.808594 36.3731V2.5384C0.808594 1.43423 1.70376 0.539062 2.80792 0.539062H43.8015C44.9057 0.539062 45.8008 1.43423 45.8008 2.5384V36.3735C45.8012 37.4777 44.9061 38.3724 43.8019 38.3724Z" fill="#407BFF"></path><path id="Vector_44" d="M43.8019 38.3724H2.80792C1.70376 38.3724 0.808594 37.4773 0.808594 36.3731V2.5384C0.808594 1.43423 1.70376 0.539062 2.80792 0.539062H43.8015C44.9057 0.539062 45.8008 1.43423 45.8008 2.5384V36.3735C45.8012 37.4777 44.9061 38.3724 43.8019 38.3724Z" fill="url(#paint8_linear_1_2292)"></path><path id="Vector_45" d="M45.8012 7.13613H0.808594V2.41323C0.808594 1.37833 1.64786 0.539062 2.68276 0.539062H43.9599C44.9765 0.539062 45.8012 1.36334 45.8012 2.38042V7.13613Z" fill="url(#paint9_radial_1_2292)"></path></g><g id="Group_15"><path id="Vector_46" opacity="0.5" d="M43.2617 4.31886C43.2617 5.11438 42.6169 5.75882 41.8218 5.75882C41.0263 5.75882 40.3818 5.11398 40.3818 4.31886C40.3818 3.52334 41.0267 2.87891 41.8218 2.87891C42.6169 2.87891 43.2617 3.52334 43.2617 4.31886Z" fill="white"></path><path id="Vector_47" opacity="0.5" d="M39.169 4.3188C39.169 5.11432 38.5242 5.75876 37.7291 5.75876C36.9336 5.75876 36.2891 5.11392 36.2891 4.3188C36.2891 3.52328 36.934 2.87885 37.7291 2.87885C38.5242 2.87885 39.169 3.52328 39.169 4.3188Z" fill="white"></path><path id="Vector_48" opacity="0.5" d="M35.0752 4.31886C35.0752 5.11438 34.4304 5.75882 33.6353 5.75882C32.8397 5.75882 32.1953 5.11398 32.1953 4.31886C32.1953 3.52334 32.8402 2.87891 33.6353 2.87891C34.4308 2.87891 35.0752 3.52334 35.0752 4.31886Z" fill="white"></path></g><path id="Vector_49" d="M37.4853 21.6292C35.9911 19.6287 32.9346 18.6513 30.8972 20.0953C30.3953 17.2295 28.3198 14.6907 25.6112 13.6294C22.9023 12.5682 19.655 13.0211 17.3397 14.7834C15.0248 16.5454 13.723 19.5553 14.0248 22.449C12.0599 22.0014 9.89608 22.4745 8.61733 24.5071C6.95986 27.1427 9.10825 29.7545 9.10825 29.7545L20.653 29.8205V25.5894H19.1774C18.9157 25.5894 18.7817 25.2755 18.9627 25.0863L20.6619 23.3126L22.6284 21.2602C22.7455 21.1379 22.9407 21.1379 23.0578 21.2602L25.0243 23.3126L26.7235 25.0863C26.9046 25.2755 26.7705 25.5894 26.5088 25.5894H25.0332V29.8456L37.3196 29.9161C39.0711 27.9038 38.9791 23.6302 37.4853 21.6292Z" fill="white"></path></g></g></g><defs><linearGradient id="paint0_linear_1_2292" x1="69.1156" y1="20.6848" x2="46.847" y2="101.004" gradientUnits="userSpaceOnUse"><stop stop-color="#77D340"></stop><stop offset="1" stop-color="#447E21"></stop></linearGradient><linearGradient id="paint1_linear_1_2292" x1="115.374" y1="52.7199" x2="111.881" y2="72.1619" gradientUnits="userSpaceOnUse"><stop stop-color="#77D340"></stop><stop offset="1" stop-color="#447E21"></stop></linearGradient><linearGradient id="paint2_linear_1_2292" x1="121.674" y1="4.80524" x2="108.342" y2="52.8849" gradientUnits="userSpaceOnUse"><stop stop-color="#77D340"></stop><stop offset="1" stop-color="#447E21"></stop></linearGradient><linearGradient id="paint3_linear_1_2292" x1="121.674" y1="4.80524" x2="108.342" y2="52.8849" gradientUnits="userSpaceOnUse"><stop stop-color="#77D340"></stop><stop offset="1" stop-color="#447E21"></stop></linearGradient><linearGradient id="paint4_linear_1_2292" x1="55.2493" y1="91.9712" x2="52.9912" y2="104.537" gradientUnits="userSpaceOnUse"><stop stop-color="#77D340"></stop><stop offset="1" stop-color="#447E21"></stop></linearGradient><linearGradient id="paint5_linear_1_2292" x1="103.379" y1="19.9297" x2="23.117" y2="97.8769" gradientUnits="userSpaceOnUse"><stop stop-color="#4E9523"></stop><stop offset="0.427083" stop-color="#60A538"></stop><stop offset="0.9963" stop-color="#316314"></stop></linearGradient><linearGradient id="paint6_linear_1_2292" x1="145.35" y1="41.1373" x2="145.351" y2="78.9266" gradientUnits="userSpaceOnUse"><stop stop-color="#77D340"></stop><stop offset="1" stop-color="#447E21"></stop></linearGradient><radialGradient id="paint7_radial_1_2292" cx="0" cy="0" r="1" gradientUnits="userSpaceOnUse" gradientTransform="translate(123.53 36.3703) scale(78.9129 43.4041)"><stop stop-color="#4FA83D"></stop><stop offset="0.98"></stop></radialGradient><linearGradient id="paint8_linear_1_2292" x1="23.3044" y1="2.41278" x2="23.305" y2="40.2017" gradientUnits="userSpaceOnUse"><stop stop-color="#77D340"></stop><stop offset="1" stop-color="#447E21"></stop></linearGradient><radialGradient id="paint9_radial_1_2292" cx="0" cy="0" r="1" gradientUnits="userSpaceOnUse" gradientTransform="translate(1.48407 -2.354) scale(78.9129 43.4014)"><stop stop-color="#4FA83D"></stop><stop offset="0.98"></stop></radialGradient></defs></svg>