<svg xmlns="http://www.w3.org/2000/svg" width="34" height="36" viewBox="0 0 34 36" fill="none"><path d="M26.4007 4.92798H7.92064C7.59711 4.92798 7.27676 4.9917 6.97786 5.11551C6.67896 5.23932 6.40737 5.42079 6.17861 5.64955C5.94984 5.87832 5.76837 6.14991 5.64456 6.44881C5.52075 6.74771 5.45703 7.06806 5.45703 7.39159V29.5671H23.3202C23.4836 29.5671 23.6402 29.632 23.7557 29.7475C23.8712 29.863 23.9361 30.0196 23.9361 30.183V33.2625C23.9361 33.916 24.1957 34.5428 24.6578 35.0049C25.1199 35.467 25.7467 35.7266 26.4002 35.7266C27.0537 35.7266 27.6805 35.467 28.1426 35.0049C28.6047 34.5428 28.8643 33.916 28.8643 33.2625V7.39159C28.8643 7.06806 28.8006 6.74771 28.6768 6.44881C28.553 6.14991 28.3715 5.87832 28.1427 5.64955C27.914 5.42079 27.6424 5.23932 27.3435 5.11551C27.0446 4.9917 26.7242 4.92798 26.4007 4.92798Z" fill="#4FA83D"></path><path d="M23.3229 11.7032H13.4675C13.3041 11.7032 13.1475 11.6383 13.032 11.5228C12.9165 11.4073 12.8516 11.2507 12.8516 11.0873C12.8516 10.924 12.9165 10.7673 13.032 10.6518C13.1475 10.5363 13.3041 10.4714 13.4675 10.4714H23.3229C23.4862 10.4714 23.6429 10.5363 23.7584 10.6518C23.8739 10.7673 23.9388 10.924 23.9388 11.0873C23.9388 11.2507 23.8739 11.4073 23.7584 11.5228C23.6429 11.6383 23.4862 11.7032 23.3229 11.7032Z" fill="#CAE2BC"></path><path d="M23.3214 15.3995H10.3854C10.2221 15.3995 10.0654 15.3346 9.94992 15.2191C9.83442 15.1036 9.76953 14.947 9.76953 14.7836C9.76953 14.6203 9.83442 14.4636 9.94992 14.3481C10.0654 14.2326 10.2221 14.1677 10.3854 14.1677H23.3214C23.4847 14.1677 23.6414 14.2326 23.7569 14.3481C23.8724 14.4636 23.9373 14.6203 23.9373 14.7836C23.9373 14.947 23.8724 15.1036 23.7569 15.2191C23.6414 15.3346 23.4847 15.3995 23.3214 15.3995Z" fill="#CAE2BC"></path><path d="M23.3214 19.0948H10.3854C10.2221 19.0948 10.0654 19.0299 9.94992 18.9144C9.83442 18.7989 9.76953 18.6423 9.76953 18.4789C9.76953 18.3156 9.83442 18.1589 9.94992 18.0434C10.0654 17.9279 10.2221 17.863 10.3854 17.863H23.3214C23.4847 17.863 23.6414 17.9279 23.7569 18.0434C23.8724 18.1589 23.9373 18.3156 23.9373 18.4789C23.9373 18.6423 23.8724 18.7989 23.7569 18.9144C23.6414 19.0299 23.4847 19.0948 23.3214 19.0948Z" fill="#CAE2BC"></path><path d="M23.3214 22.7914H10.3854C10.2221 22.7914 10.0654 22.7265 9.94992 22.611C9.83442 22.4955 9.76953 22.3388 9.76953 22.1755C9.76953 22.0121 9.83442 21.8555 9.94992 21.74C10.0654 21.6245 10.2221 21.5596 10.3854 21.5596H23.3214C23.4847 21.5596 23.6414 21.6245 23.7569 21.74C23.8724 21.8555 23.9373 22.0121 23.9373 22.1755C23.9373 22.3388 23.8724 22.4955 23.7569 22.611C23.6414 22.7265 23.4847 22.7914 23.3214 22.7914Z" fill="#CAE2BC"></path><path d="M20.8568 26.4864H10.3854C10.3046 26.4864 10.2245 26.4705 10.1497 26.4396C10.075 26.4086 10.0071 26.3633 9.94992 26.3061C9.89273 26.2489 9.84737 26.181 9.81642 26.1062C9.78546 26.0315 9.76953 25.9514 9.76953 25.8705C9.76953 25.7896 9.78546 25.7096 9.81642 25.6348C9.84737 25.5601 9.89273 25.4922 9.94992 25.435C10.0071 25.3778 10.075 25.3325 10.1497 25.3015C10.2245 25.2706 10.3046 25.2546 10.3854 25.2546H20.8568C20.9377 25.2546 21.0178 25.2706 21.0925 25.3015C21.1672 25.3325 21.2351 25.3778 21.2923 25.435C21.3495 25.4922 21.3948 25.5601 21.4258 25.6348C21.4567 25.7096 21.4727 25.7896 21.4727 25.8705C21.4727 25.9514 21.4567 26.0315 21.4258 26.1062C21.3948 26.181 21.3495 26.2489 21.2923 26.3061C21.2351 26.3633 21.1672 26.4086 21.0925 26.4396C21.0178 26.4705 20.9377 26.4864 20.8568 26.4864Z" fill="#CAE2BC"></path><path d="M23.9346 33.2628V30.1833C23.9346 30.0199 23.8697 29.8633 23.7542 29.7478C23.6387 29.6323 23.4821 29.5674 23.3187 29.5674H1.14325C0.979899 29.5674 0.823242 29.6323 0.707738 29.7478C0.592233 29.8633 0.527344 30.0199 0.527344 30.1833L0.527344 33.2628C0.527344 33.5863 0.591067 33.9067 0.714875 34.2056C0.838683 34.5045 1.02015 34.7761 1.24892 35.0049C1.47769 35.2336 1.74927 35.4151 2.04817 35.5389C2.34707 35.6627 2.66743 35.7264 2.99096 35.7264H26.3982C26.0747 35.7264 25.7544 35.6627 25.4555 35.5389C25.1566 35.4151 24.885 35.2336 24.6562 35.0049C24.4274 34.7761 24.246 34.5045 24.1222 34.2056C23.9984 33.9067 23.9346 33.5863 23.9346 33.2628Z" fill="#4FA83D"></path><path d="M31.3265 0H12.8464C12.193 0 11.5664 0.259558 11.1044 0.721576C10.6424 1.18359 10.3828 1.81022 10.3828 2.46361V4.92821H26.3983C27.0517 4.92821 27.6783 5.18777 28.1403 5.64979C28.6023 6.11181 28.8619 6.73844 28.8619 7.39183V30.7991H31.3255C31.9789 30.7991 32.6055 30.5396 33.0675 30.0775C33.5296 29.6155 33.7891 28.9889 33.7891 28.3355V2.46361C33.7891 1.81039 33.5297 1.18391 33.0679 0.721925C32.6061 0.259936 31.9797 0.000262127 31.3265 0V0Z" fill="#59A52C"></path></svg>