<svg xmlns="http://www.w3.org/2000/svg" width="14" height="14" viewBox="0 0 14 14" fill="none"><circle cx="6.50684" cy="6.59515" r="6.50684" fill="#67BD34"></circle><path d="M9.86754 3.79449H3.14594C3.07166 3.79449 3.00043 3.824 2.9479 3.87652C2.89538 3.92905 2.86588 4.00028 2.86588 4.07456V8.83569C2.86588 8.98425 2.92489 9.12672 3.02993 9.23177C3.13498 9.33681 3.27745 9.39583 3.42601 9.39583H9.58748C9.73603 9.39583 9.8785 9.33681 9.98355 9.23177C10.0886 9.12672 10.1476 8.98425 10.1476 8.83569V4.07456C10.1476 4.00028 10.1181 3.92905 10.0656 3.87652C10.0131 3.824 9.94182 3.79449 9.86754 3.79449ZM5.48135 6.59516L3.42601 8.47896V4.71136L5.48135 6.59516ZM5.89585 6.975L6.31595 7.36184C6.36762 7.40928 6.4352 7.43559 6.50534 7.43559C6.57548 7.43559 6.64307 7.40928 6.69474 7.36184L7.11484 6.975L9.14532 8.83569H3.86606L5.89585 6.975ZM7.53214 6.59516L9.58748 4.71101V8.47931L7.53214 6.59516Z" fill="white"></path></svg>