<svg xmlns="http://www.w3.org/2000/svg" width="76.816" height="76.815" viewBox="0 0 76.816 76.815"><g id="Group_6093" data-name="Group 6093" transform="translate(-1463 -5581)"><g id="Group_6024" data-name="Group 6024" transform="translate(-257.125 3376.125)"><path id="Icon_ionic-ios-checkmark-circle" data-name="Icon ionic-ios-checkmark-circle" d="M41.783,3.375A38.408,38.408,0,1,0,80.191,41.783,38.4,38.4,0,0,0,41.783,3.375Zm19.666,27.79L36.76,55.964h-.018A3.335,3.335,0,0,1,34.6,56.98a3.233,3.233,0,0,1-2.16-1.053L22.1,45.587a.736.736,0,0,1,0-1.053l3.287-3.287a.714.714,0,0,1,1.034,0l8.2,8.2L57.146,26.752a.729.729,0,0,1,.517-.222h0a.671.671,0,0,1,.517.222l3.231,3.342A.728.728,0,0,1,61.448,31.165Z" transform="translate(1716.75 2201.5)" fill="#4fa83d"></path><circle id="Ellipse_1458" data-name="Ellipse 1458" cx="27.14" cy="27.14" r="27.14" transform="translate(1733.483 2213.568)" fill="#4fa83d"></circle></g><path id="Path_31868" data-name="Path 31868" d="M34.744,133.294l-.451.009a10.886,10.886,0,0,0-3.733.818s-2.674.419-7.317,6.24l-.312.376c-3.762-4.961-7.177-6.386-7.72-6.589l-.2-.079A10.952,10.952,0,1,0,10.951,155.2l.451-.009a10.886,10.886,0,0,0,3.733-.818s2.725-.427,7.45-6.408l-.019.026.107.131c4.4,5.223,7.886,6.251,7.886,6.251a10.952,10.952,0,1,0,4.184-21.075ZM16.5,148.115c-1.531,1.606-3.274,2.845-5.593,2.845a6.716,6.716,0,0,1,0-13.431,7.9,7.9,0,0,1,5.228,2.461,50.449,50.449,0,0,1,4.05,4.066S17.765,146.785,16.5,148.115Zm18.294,2.845a7.9,7.9,0,0,1-5.228-2.461,50.447,50.447,0,0,1-4.05-4.066s2.415-2.73,3.682-4.06c1.531-1.606,3.274-2.845,5.593-2.845a6.716,6.716,0,0,1,0,13.431Z" transform="translate(1478.5 5475.207)" fill="#fff" stroke="#4fa83d" stroke-width="1"></path></g></svg>