<svg xmlns="http://www.w3.org/2000/svg" width="76.816" height="76.815" viewBox="0 0 76.816 76.815"><g id="Group_44365" data-name="Group 44365" transform="translate(-1463 -5271)"><path id="Icon_ionic-ios-checkmark-circle" data-name="Icon ionic-ios-checkmark-circle" d="M41.783,3.375A38.408,38.408,0,1,0,80.191,41.783,38.4,38.4,0,0,0,41.783,3.375Zm19.666,27.79L36.76,55.964h-.018A3.335,3.335,0,0,1,34.6,56.98a3.233,3.233,0,0,1-2.16-1.053L22.1,45.587a.736.736,0,0,1,0-1.053l3.287-3.287a.714.714,0,0,1,1.034,0l8.2,8.2L57.146,26.752a.729.729,0,0,1,.517-.222h0a.671.671,0,0,1,.517.222l3.231,3.342A.728.728,0,0,1,61.448,31.165Z" transform="translate(1459.625 5267.625)" fill="#4fa83d"></path><circle id="Ellipse_1458" data-name="Ellipse 1458" cx="27.14" cy="27.14" r="27.14" transform="translate(1476.215 5279.348)" fill="#4fa83d"></circle><g id="Group_44364" data-name="Group 44364"><path id="Icon_weather-stars" data-name="Icon weather-stars" d="M12.145,13.485a8.136,8.136,0,0,0,5.683-2.6,8.1,8.1,0,0,0,2.337-5.806A8.1,8.1,0,0,0,22.5,10.882a8.216,8.216,0,0,0,5.7,2.6,8.2,8.2,0,0,0-4.054,1.257A8.507,8.507,0,0,0,21.226,17.8a8.324,8.324,0,0,0-1.062,4.125A8.144,8.144,0,0,0,17.827,16.1,8.083,8.083,0,0,0,12.145,13.485Z" transform="translate(1480.893 5295.905)" fill="#fff"></path><path id="Path_54745" data-name="Path 54745" d="M132,60.45c5.5-7.131,19.627-17.116,32.131,0" transform="translate(1353 5244)" fill="none" stroke="#fff" stroke-linecap="round" stroke-width="3"></path><path id="Path_54746" data-name="Path 54746" d="M164.131,61c-5.5,7.131-19.626,17.116-32.131,0" transform="translate(1353 5252.9)" fill="none" stroke="#fff" stroke-linecap="round" stroke-width="3"></path></g></g></svg>