<svg xmlns="http://www.w3.org/2000/svg" width="20" height="20" viewBox="0 0 20 20" fill="none"><path d="M19.036 9.94293C19.033 12.266 18.1806 14.5078 16.6395 16.2461C15.0984 17.9844 12.9748 19.0991 10.6688 19.3804C10.6174 19.3862 10.5654 19.381 10.5162 19.3653C10.467 19.3495 10.4217 19.3235 10.3832 19.289C10.3448 19.2544 10.3141 19.2121 10.2933 19.1649C10.2724 19.1176 10.2617 19.0665 10.2621 19.0148V12.1364H12.4555C12.5558 12.1366 12.655 12.1162 12.747 12.0765C12.839 12.0368 12.9219 11.9785 12.9905 11.9054C13.059 11.8323 13.1118 11.7459 13.1456 11.6515C13.1793 11.5571 13.1933 11.4568 13.1867 11.3568C13.1706 11.1688 13.0838 10.9939 12.9439 10.8672C12.804 10.7406 12.6214 10.6716 12.4327 10.6741H10.2621V8.48062C10.2621 8.09279 10.4161 7.72084 10.6904 7.4466C10.9646 7.17237 11.3366 7.0183 11.7244 7.0183H13.1867C13.2869 7.01852 13.3861 6.99813 13.4782 6.95839C13.5702 6.91866 13.6531 6.86043 13.7216 6.78732C13.7902 6.71421 13.843 6.62778 13.8767 6.5334C13.9105 6.43902 13.9245 6.33871 13.9179 6.2387C13.9017 6.05037 13.8147 5.87517 13.6744 5.74847C13.5341 5.62176 13.351 5.55298 13.162 5.55598H11.7244C10.9487 5.55598 10.2048 5.86411 9.65635 6.41259C9.10788 6.96106 8.79975 7.70496 8.79975 8.48062V10.6741H6.60627C6.50604 10.6739 6.40683 10.6943 6.31481 10.734C6.22279 10.7737 6.13992 10.832 6.07135 10.9051C6.00279 10.9782 5.94998 11.0646 5.91622 11.159C5.88246 11.2534 5.86847 11.3537 5.87511 11.4537C5.89128 11.642 5.97828 11.8172 6.11856 11.9439C6.25883 12.0706 6.44194 12.1394 6.63095 12.1364H8.79975V19.0166C8.80006 19.0682 8.78945 19.1193 8.76862 19.1665C8.74779 19.2137 8.7172 19.2559 8.67887 19.2904C8.64054 19.325 8.59534 19.351 8.54623 19.3668C8.49713 19.3826 8.44523 19.3879 8.39395 19.3822C6.02624 19.0939 3.85306 17.9271 2.30456 16.1129C0.756068 14.2987 -0.054879 11.9692 0.032235 9.58558C0.215025 4.65026 4.21264 0.638025 9.15162 0.446096C10.4303 0.396566 11.7059 0.605444 12.902 1.06024C14.0981 1.51503 15.1902 2.2064 16.1129 3.09298C17.0357 3.97956 17.7702 5.04315 18.2724 6.22012C18.7747 7.3971 19.0344 8.66328 19.036 9.94293Z" fill="#59A52C"></path></svg>