<svg xmlns="http://www.w3.org/2000/svg" width="109" height="76" viewBox="0 0 109 76" fill="none"><g clip-path="url(#clip0_284_4318)"><path d="M77.7883 16.9652C76.1723 23.3738 80.0318 29.9134 86.3914 31.5419C92.7509 33.1704 99.2404 29.2811 100.856 22.8725C102.472 16.4639 98.613 9.92429 92.2534 8.29579C85.8939 6.66729 79.4044 10.5565 77.7883 16.9652ZM80.7289 17.3132C82.158 12.5299 87.1645 9.81892 91.9112 11.259C96.6579 12.6991 99.3482 17.7443 97.9191 22.5276C96.49 27.311 91.4835 30.0219 86.7367 28.5818C81.99 27.1417 79.2998 22.0966 80.7289 17.3132Z" fill="#161617"/><path d="M69.5402 16.9811C69.5973 17.2685 69.8539 17.3675 70.4877 17.6197C71.6221 18.0732 72.7596 18.5266 73.8782 19.0215C74.0556 19.0982 74.2299 19.376 74.2521 19.5771C74.382 20.7746 74.439 21.9816 74.5816 23.179C74.626 23.5494 74.5911 23.7474 74.2584 23.9549C72.9371 24.7915 71.6379 25.6665 70.3451 26.5158C70.6683 27.9112 72.297 31.0501 73.1652 31.9282C74.5373 31.3471 75.9442 30.7755 77.3289 30.1464C77.7598 29.9517 77.9816 29.99 78.3397 30.3348C79.1731 31.1363 80.0825 31.8675 80.9982 32.5732C81.369 32.8606 81.5686 33.0841 81.4482 33.5982C81.1345 34.933 80.9032 36.2869 80.6148 37.628C80.5356 37.9888 80.6053 38.2123 80.957 38.3241C82.6174 38.8414 84.281 39.3587 85.9414 39.8759C86.3502 40.0037 86.4135 39.6652 86.5149 39.4225C87.0314 38.1964 87.5543 36.9734 88.0296 35.7281C88.207 35.2619 88.4478 35.1086 88.9485 35.0926C90.2793 35.0511 91.607 34.9202 93.0393 34.818C93.8853 36.1144 94.8201 37.545 95.7834 39.0138C97.7131 38.3688 99.4495 37.4045 101.097 36.1304C100.445 34.553 99.7949 32.9724 99.2182 31.5834C100.204 30.3253 101.142 29.1789 102.013 27.9847C102.263 27.6398 102.463 27.5823 102.84 27.6654C104.152 27.9559 105.47 28.205 106.782 28.486C107.067 28.5467 107.273 28.5563 107.419 28.2465C108.154 26.6691 108.747 25.047 108.984 23.3067C109.038 22.9172 108.899 22.7639 108.582 22.633C107.305 22.1029 106.037 21.5441 104.76 21.0204C104.45 20.8927 104.32 20.7618 104.291 20.3786C104.193 19.0567 104.041 17.7379 103.851 16.4287C103.803 16.0934 103.908 15.9625 104.142 15.8092C105.445 14.9439 106.744 14.069 108.078 13.1749C107.403 11.2622 106.538 9.48361 105.302 7.85192C103.705 8.52248 102.118 9.18665 100.6 9.82528C99.3196 8.75558 98.0807 7.721 96.7562 6.61298C96.9906 5.43152 97.2727 4.07443 97.5293 2.71096C97.7416 1.59336 97.9001 1.74024 96.7847 1.26766C96.6769 1.22295 96.5882 1.13993 96.49 1.07288C95.4918 0.769527 94.4937 0.469371 93.4987 0.166023C93.2643 0.140478 93.0203 0.150057 92.8016 0.079808C92.2313 -0.102201 91.908 0.0287177 91.6799 0.644994C91.2046 1.92864 90.6501 3.18354 90.0987 4.43845C90.0258 4.6013 89.7882 4.77373 89.6107 4.79608C88.4447 4.94616 87.2596 4.99086 86.1062 5.20161C85.5421 5.30379 85.3045 5.14733 85.0256 4.70348C84.2335 3.44538 83.3938 2.21921 82.4875 0.852549C80.6972 1.80091 78.9512 2.72373 77.1863 3.65613C77.3257 4.01057 77.4018 4.21493 77.4841 4.41929C78.0006 5.66781 78.5045 6.91952 79.0431 8.15846C79.1952 8.50971 79.1192 8.70768 78.8784 8.99506C78.0577 9.97855 77.3004 11.0131 76.486 12.003C76.3593 12.1563 76.0487 12.2648 75.8491 12.2297C74.7654 12.0413 73.6912 11.7891 72.6107 11.5783C71.7361 11.4059 71.4098 11.3452 71.1341 11.6358L69.537 16.9875L69.5402 16.9811ZM77.3764 16.8566C78.1876 13.6411 80.1902 10.9365 83.0199 9.24413C85.8495 7.54857 89.164 7.0664 92.3548 7.88066C95.5457 8.6981 98.2296 10.7162 99.9122 13.5676C101.595 16.4191 102.073 19.7591 101.265 22.9746C100.454 26.1901 98.4514 28.8947 95.6218 30.5871C92.7921 32.2827 89.4777 32.7648 86.2868 31.9506C83.0959 31.1331 80.412 29.1151 78.7326 26.2636C77.05 23.4121 76.5716 20.0721 77.3796 16.8566H77.3764Z" fill="url(#paint0_radial_284_4318)"/><path d="M2.30682 33.5759C2.49061 33.7196 2.69974 33.6461 3.21624 33.4609C4.1415 33.1352 5.06993 32.8095 6.00469 32.5157C6.15362 32.471 6.40395 32.5445 6.52119 32.6562C7.22464 33.314 7.89006 34.0165 8.59985 34.6679C8.81849 34.8691 8.90088 35.0096 8.80899 35.3097C8.44459 36.5167 8.11187 37.7365 7.76965 38.9371C8.69491 39.6141 11.3218 40.6583 12.3072 40.7285C12.8364 39.6492 13.3941 38.554 13.9074 37.4396C14.0659 37.0915 14.2211 36.9989 14.6204 37.0181C15.5456 37.0628 16.4772 37.0245 17.4025 36.967C17.7764 36.9446 18.0141 36.9734 18.2105 37.3502C18.7175 38.3273 19.2815 39.2724 19.8075 40.2399C19.947 40.4986 20.1086 40.6008 20.3779 40.4794C21.6581 39.9142 22.935 39.3459 24.2152 38.7807C24.5289 38.6402 24.3926 38.4039 24.3261 38.2027C23.9997 37.1841 23.6797 36.1655 23.3184 35.1597C23.1822 34.7829 23.2487 34.5625 23.5466 34.2847C24.3324 33.5535 25.0707 32.7712 25.8883 31.9505C27.0797 32.289 28.3915 32.6626 29.7446 33.0458C30.5811 31.6312 31.1325 30.1273 31.4652 28.4796C30.2452 27.8665 29.0253 27.2534 27.9511 26.7138C27.894 25.427 27.8655 24.2359 27.7705 23.0481C27.742 22.7032 27.8338 22.5659 28.1063 22.4158C29.0538 21.8985 29.9854 21.3493 30.9297 20.8256C31.1325 20.7107 31.2655 20.6085 31.1927 20.3435C30.8156 18.996 30.3308 17.6996 29.5671 16.5149C29.396 16.2499 29.2344 16.2307 28.9714 16.3201C27.9194 16.6746 26.8579 17.0066 25.809 17.3643C25.5555 17.4505 25.4066 17.4377 25.1912 17.2238C24.4433 16.4734 23.6607 15.7549 22.8622 15.0556C22.6594 14.8768 22.653 14.7427 22.7164 14.5256C23.0555 13.309 23.3882 12.0892 23.7304 10.8407C22.3203 10.036 20.8722 9.41654 19.2689 9.07806C18.6478 10.3298 18.0331 11.5751 17.4405 12.7661C16.1065 12.7949 14.8137 12.8236 13.4289 12.8524C12.9568 12.0094 12.4181 11.0387 11.8636 10.0743C11.4073 9.28242 11.5816 9.28881 10.6595 9.59216C10.5708 9.6209 10.4726 9.61771 10.3807 9.63048C9.617 9.97534 8.85335 10.3202 8.08969 10.6651C7.93443 10.7736 7.79184 10.9077 7.62073 10.9812C7.18028 11.1728 7.05036 11.4218 7.23414 11.9168C7.61756 12.9482 7.93443 14.0051 8.25447 15.0556C8.29566 15.1929 8.24179 15.4228 8.14356 15.5314C7.51299 16.2403 6.81905 16.8949 6.2265 17.6357C5.93815 17.9965 5.71 18.0284 5.31075 17.9071C4.17318 17.5622 3.02295 17.2621 1.76181 16.914C1.16926 18.4372 0.592557 19.922 0.00634766 21.4259C0.275687 21.5664 0.427784 21.6527 0.586219 21.7293C1.5495 22.2147 2.50962 22.7064 3.48241 23.1758C3.75808 23.3099 3.81512 23.4696 3.81829 23.7697C3.83413 24.8011 3.91335 25.8325 3.93553 26.8639C3.9387 27.0235 3.80561 27.2534 3.66619 27.3397C2.90887 27.7995 2.12621 28.2146 1.35938 28.6584C0.738317 29.0161 0.51017 29.1534 0.491158 29.4759L2.31316 33.5727L2.30682 33.5759ZM7.00283 29.3481C5.81774 26.9661 5.62445 24.2615 6.45781 21.7357C7.29118 19.2067 9.05298 17.1567 11.4137 15.9625C13.7775 14.7682 16.4614 14.5735 18.9678 15.4133C21.4774 16.2531 23.5117 18.0284 24.6968 20.4073C25.8819 22.7894 26.0752 25.494 25.2419 28.0198C24.4085 30.5488 22.6467 32.5988 20.286 33.793C17.9222 34.9872 15.2383 35.182 12.7318 34.3422C10.2222 33.5024 8.18792 31.727 7.00283 29.3481Z" fill="url(#paint1_radial_284_4318)"/><path d="M11.2235 42.8456L9.79127 44.7263C9.77226 44.8477 9.85781 44.9275 10.0733 45.1255C10.4567 45.4767 10.8401 45.8312 11.2108 46.1952C11.2679 46.2527 11.2964 46.39 11.2774 46.473C11.1506 46.9679 10.9922 47.4565 10.8718 47.9514C10.8338 48.1047 10.7894 48.1781 10.6278 48.21C9.97822 48.341 9.33181 48.491 8.69173 48.6347C8.61251 49.2382 8.78996 50.7294 9.00226 51.2116C9.63284 51.1893 10.2761 51.1765 10.9193 51.135C11.119 51.1222 11.2013 51.1701 11.2932 51.3617C11.5055 51.8055 11.7559 52.2334 12.0157 52.6517C12.1203 52.8209 12.1646 52.9391 12.041 53.1275C11.7178 53.6097 11.4231 54.111 11.1094 54.5995C11.0239 54.7304 11.0176 54.8294 11.1411 54.9284C11.7242 55.385 12.304 55.8417 12.8871 56.2983C13.0297 56.41 13.1057 56.2855 13.1818 56.2057C13.5684 55.797 13.9581 55.3914 14.332 54.9699C14.4714 54.8103 14.5887 54.7879 14.7915 54.8582C15.327 55.0434 15.872 55.1935 16.455 55.3691C16.5976 56.0109 16.7561 56.7198 16.9177 57.451C17.7796 57.4893 18.6129 57.368 19.4558 57.1125C19.4336 56.3877 19.4083 55.6628 19.3893 55.0242C19.9691 54.673 20.511 54.3632 21.0338 54.0184C21.1859 53.9194 21.2715 53.9258 21.4109 54.0184C21.8862 54.3313 22.3742 54.6315 22.8526 54.9412C22.9572 55.0083 23.0364 55.0434 23.141 54.9412C23.667 54.4271 24.1455 53.8715 24.5004 53.2169C24.5796 53.07 24.5479 52.9902 24.4402 52.888C24.0124 52.4825 23.5941 52.0706 23.1632 51.6682C23.0586 51.5692 23.0269 51.499 23.0744 51.3425C23.2329 50.8029 23.3691 50.2569 23.4895 49.7076C23.5212 49.5671 23.5814 49.532 23.6987 49.5065C24.3451 49.3596 24.9915 49.2095 25.6538 49.0562C25.6696 48.1941 25.5936 47.3575 25.3464 46.5241C24.6113 46.5464 23.8825 46.572 23.1854 46.5943C22.8368 45.9748 22.5009 45.3777 22.1397 44.7359C22.409 44.3016 22.7227 43.8067 23.0301 43.3054C23.2804 42.8935 23.3216 42.9765 22.9509 42.6189C22.916 42.5837 22.8907 42.539 22.8621 42.4975C22.5104 42.2261 22.1619 41.9547 21.8101 41.6833C21.7214 41.6386 21.6232 41.6034 21.5471 41.5428C21.3475 41.3831 21.2017 41.3863 21.018 41.5971C20.6377 42.0345 20.2321 42.4496 19.8265 42.8615C19.7727 42.9158 19.6523 42.9477 19.5794 42.9286C19.0946 42.8104 18.6161 42.6508 18.1281 42.5582C17.8873 42.5135 17.8176 42.4145 17.7732 42.1974C17.6465 41.5779 17.4944 40.9648 17.3391 40.2847C16.4867 40.39 15.6565 40.4922 14.8168 40.5944C14.8168 40.7573 14.8168 40.8499 14.8232 40.9425C14.8422 41.5172 14.8548 42.0888 14.8834 42.6636C14.8929 42.8264 14.8327 42.8935 14.6932 42.9701C14.2211 43.2351 13.7648 43.5321 13.2958 43.8003C13.223 43.8418 13.0835 43.8386 13.0107 43.7939C12.6082 43.5544 12.2217 43.2926 11.8224 43.0435C11.5024 42.8424 11.382 42.7689 11.2267 42.8424L11.2235 42.8456ZM14.1799 46.5528C15.4601 44.87 17.8524 44.5539 19.5192 45.8439C21.1891 47.134 21.5028 49.5448 20.2226 51.2244C18.9425 52.9072 16.5501 53.2233 14.8834 51.9333C13.2135 50.6432 12.8998 48.2324 14.1799 46.5528Z" fill="url(#paint2_radial_284_4318)"/><path d="M58.7001 20.2285H53.7221C52.2958 20.2285 51.1396 21.3937 51.1396 22.8309V22.8341C51.1396 24.2714 52.2958 25.4365 53.7221 25.4365H58.7001C60.1264 25.4365 61.2826 24.2714 61.2826 22.8341V22.8309C61.2826 21.3937 60.1264 20.2285 58.7001 20.2285Z" fill="#5184CE"/><path d="M50.1066 71.5551L42.2704 75.1953V76H70.1803V75.1953L62.2712 71.5551H50.1066Z" fill="url(#paint3_radial_284_4318)"/><path d="M62.2776 55.9502H50.1066V71.5583H62.2776V55.9502Z" fill="url(#paint4_radial_284_4318)"/><path d="M93.0203 60.8485V25.6505C93.0203 23.9772 91.6736 22.6234 90.0163 22.6234H22.2918C20.6314 22.6234 19.2879 23.9804 19.2879 25.6505V60.8485H93.0203Z" fill="url(#paint5_radial_284_4318)"/><g style="mix-blend-mode:multiply" opacity="0.3"><path d="M70.1803 75.1953H42.2704V76.0032H70.1803V75.1953Z" fill="#184655"/></g><g style="mix-blend-mode:multiply" opacity="0.3"><path d="M62.2713 69.7222H50.1066V71.5551H62.2713V69.7222Z" fill="#184655"/></g><path d="M19.2847 60.8485V66.4876C19.2847 67.6595 20.0547 68.611 21.0021 68.611H91.2965C92.2471 68.611 93.0139 67.6595 93.0139 66.4876V60.8485H19.2847Z" fill="url(#paint6_radial_284_4318)"/><path d="M56.9542 21.6112C56.9542 21.9912 56.6468 22.3009 56.2697 22.3009C55.8927 22.3009 55.5853 21.9912 55.5853 21.6112C55.5853 21.2312 55.8927 20.9214 56.2697 20.9214C56.6468 20.9214 56.9542 21.2312 56.9542 21.6112Z" fill="#184655"/><path d="M91.2933 59.319V25.7431C91.2933 24.8618 90.5614 24.1497 89.6551 24.1497H22.6498C21.7436 24.1497 21.0116 24.8618 21.0116 25.7431V59.319H91.2933Z" fill="#C9E2BB"/><path d="M60.3098 45.6523H52.5972C51.4818 51.6938 48.3004 56.3717 42.4954 59.3222H70.4116C64.2643 56.3302 61.2097 51.598 60.3098 45.6523Z" fill="white"/><path d="M51.71 42.8935H61.1939V43.0532C61.1939 44.4869 60.0405 45.6492 58.6178 45.6492H54.2861C52.8634 45.6492 51.71 44.4869 51.71 43.0532V42.8935Z" fill="#878583"/><path d="M49.061 29.5557C49.061 29.5557 45.4835 34.3582 42.9422 37.3087C39.5105 41.2937 40.4231 41.8014 43.4967 52.8529C51.3202 47.5459 47.9836 39.8855 50.7911 38.3433C55.9148 35.5269 49.0641 29.5557 49.0641 29.5557H49.061Z" fill="url(#paint7_radial_284_4318)"/><path d="M63.8429 29.5557C63.8429 29.5557 67.4204 34.3582 69.9617 37.3087C73.3934 41.2937 72.4808 41.8014 69.4072 52.8529C61.5837 47.5459 64.9203 39.8855 62.1128 38.3433C56.989 35.5269 63.8398 29.5557 63.8398 29.5557H63.8429Z" fill="url(#paint8_radial_284_4318)"/><path d="M66.1814 25.7686C66.1814 16.5117 60.8738 8.25106 58.1266 4.59172C57.3091 3.50286 55.6899 3.47731 54.8406 4.54063C52.0427 8.04351 46.7256 15.9274 46.7256 25.3184C46.7256 29.1119 49.3049 39.8887 50.6516 42.6348C50.9748 43.2926 51.6371 43.7109 52.3659 43.7109H60.7503C61.4791 43.7109 62.1413 43.2926 62.4645 42.6348C63.8112 39.8887 66.1846 29.5621 66.1846 25.7686H66.1814Z" fill="url(#paint9_radial_284_4318)"/><path d="M62.4614 42.6348C63.8081 39.8887 66.1814 29.5621 66.1814 25.7686C66.1814 20.1327 64.2137 14.8609 62.0526 10.7768C60.37 9.9019 58.5163 9.41974 56.5708 9.41974C54.416 9.41974 52.3786 10.0105 50.5566 11.0706C48.5096 14.9407 46.7256 19.8773 46.7256 25.3216C46.7256 29.115 49.3049 39.8919 50.6516 42.638C50.9748 43.2958 51.6371 43.7141 52.3659 43.7141H60.7503C61.4791 43.7141 62.1413 43.2958 62.4645 42.638L62.4614 42.6348Z" fill="url(#paint10_radial_284_4318)"/><g style="mix-blend-mode:multiply"><path d="M61.7308 24.7967C63.6129 22.0666 62.9426 18.3159 60.2335 16.4192C57.5243 14.5225 53.8023 15.198 51.9201 17.9281C50.0379 20.6581 50.7083 24.4088 53.4174 26.3055C56.1266 28.2022 59.8486 27.5267 61.7308 24.7967Z" fill="#EBD6AC"/></g><path d="M56.4821 27.3013C59.7809 27.3013 62.4551 24.6065 62.4551 21.2823C62.4551 17.958 59.7809 15.2632 56.4821 15.2632C53.1833 15.2632 50.5091 17.958 50.5091 21.2823C50.5091 24.6065 53.1833 27.3013 56.4821 27.3013Z" fill="#0E2E35"/><path d="M50.7752 21.3717C50.7752 18.0476 53.4496 15.3526 56.7482 15.3526C57.3566 15.3526 57.9397 15.4452 58.491 15.6144C57.8636 15.3877 57.1855 15.2632 56.4789 15.2632C53.1803 15.2632 50.5059 17.9582 50.5059 21.2823C50.5059 23.9964 52.2867 26.2891 54.7361 27.0395C52.4261 26.2061 50.7752 23.9837 50.7752 21.3717Z" fill="#1F4752"/><g style="mix-blend-mode:multiply"><path d="M56.5613 26.9788C56.8098 26.9788 57.0112 26.7758 57.0112 26.5254C57.0112 26.275 56.8098 26.072 56.5613 26.072C56.3128 26.072 56.1113 26.275 56.1113 26.5254C56.1113 26.7758 56.3128 26.9788 56.5613 26.9788Z" fill="#D1CFCB"/></g><g style="mix-blend-mode:multiply"><path d="M56.5327 16.6458C56.7813 16.6458 56.9827 16.4428 56.9827 16.1924C56.9827 15.942 56.7813 15.739 56.5327 15.739C56.2842 15.739 56.0828 15.942 56.0828 16.1924C56.0828 16.4428 56.2842 16.6458 56.5327 16.6458Z" fill="#D1CFCB"/></g><g style="mix-blend-mode:multiply"><path d="M60.3891 18.3733C60.6376 18.3733 60.839 18.1703 60.839 17.9199C60.839 17.6695 60.6376 17.4665 60.3891 17.4665C60.1406 17.4665 59.9391 17.6695 59.9391 17.9199C59.9391 18.1703 60.1406 18.3733 60.3891 18.3733Z" fill="#D1CFCB"/></g><g style="mix-blend-mode:multiply"><path d="M52.8919 25.51C53.1404 25.51 53.3419 25.307 53.3419 25.0566C53.3419 24.8062 53.1404 24.6031 52.8919 24.6031C52.6434 24.6031 52.442 24.8062 52.442 25.0566C52.442 25.307 52.6434 25.51 52.8919 25.51Z" fill="#D1CFCB"/></g><g style="mix-blend-mode:multiply"><path d="M60.3891 25.3088C60.6376 25.3088 60.839 25.1058 60.839 24.8554C60.839 24.605 60.6376 24.402 60.3891 24.402C60.1406 24.402 59.9391 24.605 59.9391 24.8554C59.9391 25.1058 60.1406 25.3088 60.3891 25.3088Z" fill="#D1CFCB"/></g><g style="mix-blend-mode:multiply"><path d="M53.1613 17.8464C53.1613 18.0987 52.9585 18.2999 52.7113 18.2999C52.4642 18.2999 52.2614 18.0955 52.2614 17.8464C52.2614 17.5974 52.4642 17.393 52.7113 17.393C52.9585 17.393 53.1613 17.5974 53.1613 17.8464Z" fill="#D1CFCB"/></g><g style="mix-blend-mode:multiply"><path d="M61.7231 21.8251C61.9716 21.8251 62.173 21.6221 62.173 21.3717C62.173 21.1213 61.9716 20.9183 61.7231 20.9183C61.4746 20.9183 61.2731 21.1213 61.2731 21.3717C61.2731 21.6221 61.4746 21.8251 61.7231 21.8251Z" fill="#D1CFCB"/></g><g style="mix-blend-mode:multiply"><path d="M51.3139 21.8251C51.5624 21.8251 51.7639 21.6221 51.7639 21.3717C51.7639 21.1213 51.5624 20.9183 51.3139 20.9183C51.0654 20.9183 50.864 21.1213 50.864 21.3717C50.864 21.6221 51.0654 21.8251 51.3139 21.8251Z" fill="#D1CFCB"/></g><path d="M60.8565 21.4263C60.9363 18.9887 59.04 16.9474 56.6211 16.867C54.2021 16.7865 52.1764 18.6974 52.0966 21.1351C52.0168 23.5727 53.913 25.614 56.332 25.6944C58.751 25.7749 60.7766 23.864 60.8565 21.4263Z" fill="url(#paint11_linear_284_4318)"/><g style="mix-blend-mode:multiply"><path d="M52.6004 21.8283C52.6004 19.3887 54.5618 17.4122 56.9827 17.4122C58.1171 17.4122 59.1501 17.8464 59.9264 18.5585C59.1248 17.5303 57.8795 16.8693 56.4789 16.8693C54.058 16.8693 52.0966 18.8459 52.0966 21.2854C52.0966 22.5819 52.6511 23.7474 53.532 24.5552C52.9458 23.8048 52.5972 22.8597 52.5972 21.8283H52.6004Z" fill="#C1DAE3"/></g><path d="M56.4821 26.9086C56.7306 26.9086 56.932 26.7056 56.932 26.4551C56.932 26.2047 56.7306 26.0017 56.4821 26.0017C56.2336 26.0017 56.0321 26.2047 56.0321 26.4551C56.0321 26.7056 56.2336 26.9086 56.4821 26.9086Z" fill="#878583"/><g style="mix-blend-mode:screen"><path d="M56.482 26.7074C56.3426 26.7074 56.2317 26.5956 56.2317 26.4551C56.2317 26.3146 56.3426 26.2029 56.482 26.2029C56.6215 26.2029 56.7324 26.3146 56.7324 26.4551C56.7324 26.5956 56.6215 26.7074 56.482 26.7074Z" fill="#858585"/></g><path d="M56.4535 16.5756C56.702 16.5756 56.9035 16.3725 56.9035 16.1221C56.9035 15.8717 56.702 15.6687 56.4535 15.6687C56.205 15.6687 56.0036 15.8717 56.0036 16.1221C56.0036 16.3725 56.205 16.5756 56.4535 16.5756Z" fill="#878583"/><g style="mix-blend-mode:screen"><path d="M56.4535 16.3744C56.3141 16.3744 56.2032 16.2626 56.2032 16.1221C56.2032 15.9816 56.3141 15.8699 56.4535 15.8699C56.5929 15.8699 56.7038 15.9816 56.7038 16.1221C56.7038 16.2626 56.5929 16.3744 56.4535 16.3744Z" fill="#858585"/></g><path d="M60.7539 17.9266C60.7975 17.6801 60.6346 17.4446 60.39 17.4006C60.1454 17.3566 59.9116 17.5207 59.868 17.7673C59.8243 18.0138 59.9872 18.2493 60.2319 18.2933C60.4765 18.3373 60.7102 18.1731 60.7539 17.9266Z" fill="#878583"/><g style="mix-blend-mode:screen"><path d="M60.3098 18.1019C60.1704 18.1019 60.0595 17.9901 60.0595 17.8496C60.0595 17.7091 60.1704 17.5974 60.3098 17.5974C60.4493 17.5974 60.5602 17.7091 60.5602 17.8496C60.5602 17.9901 60.4493 18.1019 60.3098 18.1019Z" fill="#858585"/></g><path d="M53.2626 24.9863C53.2626 25.2385 53.0598 25.4397 52.8127 25.4397C52.5655 25.4397 52.3627 25.2353 52.3627 24.9863C52.3627 24.7372 52.5655 24.5328 52.8127 24.5328C53.0598 24.5328 53.2626 24.7372 53.2626 24.9863Z" fill="#878583"/><g style="mix-blend-mode:screen"><path d="M52.8127 25.2385C52.6733 25.2385 52.5624 25.1268 52.5624 24.9863C52.5624 24.8458 52.6733 24.734 52.8127 24.734C52.9521 24.734 53.063 24.8458 53.063 24.9863C53.063 25.1268 52.9521 25.2385 52.8127 25.2385Z" fill="#858585"/></g><path d="M60.7545 24.8679C60.7981 24.6214 60.6352 24.3859 60.3906 24.3419C60.1459 24.2979 59.9122 24.4621 59.8686 24.7086C59.8249 24.9551 59.9878 25.1906 60.2324 25.2346C60.4771 25.2786 60.7108 25.1145 60.7545 24.8679Z" fill="#878583"/><g style="mix-blend-mode:screen"><path d="M60.3098 25.0374C60.1704 25.0374 60.0595 24.9256 60.0595 24.7851C60.0595 24.6446 60.1704 24.5328 60.3098 24.5328C60.4493 24.5328 60.5602 24.6446 60.5602 24.7851C60.5602 24.9256 60.4493 25.0374 60.3098 25.0374Z" fill="#858585"/></g><path d="M52.6321 18.2296C52.8806 18.2296 53.082 18.0266 53.082 17.7762C53.082 17.5258 52.8806 17.3228 52.6321 17.3228C52.3836 17.3228 52.1821 17.5258 52.1821 17.7762C52.1821 18.0266 52.3836 18.2296 52.6321 18.2296Z" fill="#878583"/><g style="mix-blend-mode:screen"><path d="M52.6321 18.0284C52.4927 18.0284 52.3817 17.9167 52.3817 17.7762C52.3817 17.6357 52.4927 17.5239 52.6321 17.5239C52.7715 17.5239 52.8824 17.6357 52.8824 17.7762C52.8824 17.9167 52.7715 18.0284 52.6321 18.0284Z" fill="#858585"/></g><path d="M61.6407 21.7548C61.8892 21.7548 62.0906 21.5518 62.0906 21.3014C62.0906 21.051 61.8892 20.848 61.6407 20.848C61.3922 20.848 61.1907 21.051 61.1907 21.3014C61.1907 21.5518 61.3922 21.7548 61.6407 21.7548Z" fill="#878583"/><g style="mix-blend-mode:screen"><path d="M61.6407 21.5537C61.5013 21.5537 61.3904 21.4419 61.3904 21.3014C61.3904 21.1609 61.5013 21.0491 61.6407 21.0491C61.7801 21.0491 61.891 21.1609 61.891 21.3014C61.891 21.4419 61.7801 21.5537 61.6407 21.5537Z" fill="#858585"/></g><path d="M51.2347 21.7548C51.4832 21.7548 51.6846 21.5518 51.6846 21.3014C51.6846 21.051 51.4832 20.848 51.2347 20.848C50.9862 20.848 50.7847 21.051 50.7847 21.3014C50.7847 21.5518 50.9862 21.7548 51.2347 21.7548Z" fill="#878583"/><g style="mix-blend-mode:screen"><path d="M51.2347 21.5537C51.0953 21.5537 50.9843 21.4419 50.9843 21.3014C50.9843 21.1609 51.0953 21.0491 51.2347 21.0491C51.3741 21.0491 51.485 21.1609 51.485 21.3014C51.485 21.4419 51.3741 21.5537 51.2347 21.5537Z" fill="#858585"/></g><g style="mix-blend-mode:screen"><path d="M59.2135 21.4355C58.7192 23.361 56.7672 24.5169 54.8565 24.0188C54.2671 23.8655 53.7506 23.5718 53.3355 23.1854C53.8108 24.0156 54.6062 24.6638 55.6012 24.9225C57.5721 25.4366 59.581 24.2455 60.0912 22.2594C60.5095 20.6341 59.7933 18.9832 58.4403 18.1562C59.1945 19.0215 59.524 20.2381 59.2166 21.4355H59.2135Z" fill="#7A7A7A"/></g><path d="M57.6956 42.2612C57.6956 48.1111 57.1189 51.8886 56.4503 52.8561C55.7596 51.847 55.205 48.1143 55.205 42.2612C55.205 36.4082 56.4503 31.6664 56.4503 31.6664C56.4503 31.6664 57.6956 36.4082 57.6956 42.2612Z" fill="url(#paint12_radial_284_4318)"/><g style="mix-blend-mode:screen"><path d="M47.9424 27.3333C47.9424 17.5527 53.6461 9.34314 56.65 5.69657C56.65 5.69338 56.6563 5.69018 56.6595 5.68699C56.9415 5.34852 56.5834 4.86635 56.1683 5.02601C55.8483 5.15054 55.5536 5.3549 55.3191 5.64229C52.5212 9.03979 47.2041 16.6906 47.2041 25.8038C47.2041 29.4344 49.5204 38.4071 50.883 41.2522C49.4539 36.7499 47.9424 30.4307 47.9424 27.3333Z" fill="#592D24"/></g><path d="M91.2933 59.319V48.7817C90.9955 48.7306 90.6881 48.705 90.3776 48.705C87.3198 48.705 84.8419 52.1887 84.8419 55.2701C84.8419 55.4681 84.8514 55.6661 84.8736 55.8609C84.8229 55.8609 84.7722 55.8609 84.7215 55.8609C84.2271 55.8609 83.7518 55.9439 83.3082 56.0939C82.6301 54.1429 80.7859 52.7411 78.6186 52.7411C76.1089 52.7411 74.0334 54.6155 73.6976 57.0519C73.3997 56.9657 73.0892 56.921 72.766 56.921C71.245 56.921 69.9553 57.93 69.5276 59.3222H91.2933V59.319Z" fill="white"/><path d="M40.7494 55.9502C39.3235 55.9502 38.0814 56.7485 37.4413 57.9236C36.9502 57.3839 36.2436 57.0455 35.4577 57.0455C34.7669 57.0455 34.1395 57.3073 33.6642 57.7384C33.2777 55.3595 31.2307 53.5458 28.7623 53.5458C28.3567 53.5458 27.9637 53.5937 27.5867 53.6863C27.5867 53.6384 27.5867 53.5905 27.5867 53.5458C27.5867 50.1515 24.8584 47.4022 21.4901 47.4022C21.3285 47.4022 21.1701 47.4085 21.0116 47.4213V59.3222H44.498C44.2825 57.4254 42.6887 55.9534 40.7494 55.9534V55.9502Z" fill="white"/></g><defs><radialGradient id="paint0_radial_284_4318" cx="0" cy="0" r="1" gradientUnits="userSpaceOnUse" gradientTransform="translate(6.21381 -2.28632) scale(167.044 168.333)"><stop stop-color="#4FA83D"/><stop offset="0.98"/></radialGradient><radialGradient id="paint1_radial_284_4318" cx="0" cy="0" r="1" gradientUnits="userSpaceOnUse" gradientTransform="translate(6.21383 -2.28634) scale(167.044 168.333)"><stop stop-color="#4FA83D"/><stop offset="0.98"/></radialGradient><radialGradient id="paint2_radial_284_4318" cx="0" cy="0" r="1" gradientUnits="userSpaceOnUse" gradientTransform="translate(6.21382 -2.28631) scale(167.044 168.333)"><stop stop-color="#4FA83D"/><stop offset="0.98"/></radialGradient><radialGradient id="paint3_radial_284_4318" cx="0" cy="0" r="1" gradientUnits="userSpaceOnUse" gradientTransform="translate(56.2254 73.7775) scale(9.9909 10.068)"><stop stop-color="#4FA83D"/><stop offset="0.98"/></radialGradient><radialGradient id="paint4_radial_284_4318" cx="0" cy="0" r="1" gradientUnits="userSpaceOnUse" gradientTransform="translate(56.1937 63.7574) scale(6.96479 7.01853)"><stop stop-color="#4FA83D"/><stop offset="0.98"/></radialGradient><radialGradient id="paint5_radial_284_4318" cx="0" cy="0" r="1" gradientUnits="userSpaceOnUse" gradientTransform="translate(12.1995 20.8671) scale(100.254 101.028)"><stop stop-color="#4FA83D"/><stop offset="0.98"/></radialGradient><radialGradient id="paint6_radial_284_4318" cx="0" cy="0" r="1" gradientUnits="userSpaceOnUse" gradientTransform="translate(12.1995 20.8672) scale(100.254 101.028)"><stop stop-color="#4FA83D"/><stop offset="0.98"/></radialGradient><radialGradient id="paint7_radial_284_4318" cx="0" cy="0" r="1" gradientUnits="userSpaceOnUse" gradientTransform="translate(56.3743 55.516) scale(98.0553 98.8118)"><stop stop-color="#4FA83D"/><stop offset="0.98"/></radialGradient><radialGradient id="paint8_radial_284_4318" cx="0" cy="0" r="1" gradientUnits="userSpaceOnUse" gradientTransform="translate(56.3743 55.516) scale(98.0553 98.8118)"><stop stop-color="#4FA83D"/><stop offset="0.98"/></radialGradient><radialGradient id="paint9_radial_284_4318" cx="0" cy="0" r="1" gradientUnits="userSpaceOnUse" gradientTransform="translate(56.3743 55.516) scale(98.0553 98.8118)"><stop stop-color="#4FA83D"/><stop offset="0.98"/></radialGradient><radialGradient id="paint10_radial_284_4318" cx="0" cy="0" r="1" gradientUnits="userSpaceOnUse" gradientTransform="translate(56.4535 26.5637) scale(13.8599 13.9668)"><stop stop-color="#4FA83D"/><stop offset="0.98"/></radialGradient><linearGradient id="paint11_linear_284_4318" x1="52.0945" y1="21.2855" x2="60.8559" y2="21.2855" gradientUnits="userSpaceOnUse"><stop stop-color="#1F90F2"/><stop offset="1" stop-color="#A3D6FF"/></linearGradient><radialGradient id="paint12_radial_284_4318" cx="0" cy="0" r="1" gradientUnits="userSpaceOnUse" gradientTransform="translate(56.3743 55.516) scale(98.0553 98.8118)"><stop stop-color="#4FA83D"/><stop offset="0.98"/></radialGradient><clipPath id="clip0_284_4318"><rect width="109" height="76" fill="white"/></clipPath></defs></svg>