<svg xmlns="http://www.w3.org/2000/svg" width="104" height="135" viewBox="0 0 104 135" fill="none"><path d="M8.96094 99.4793L52.6631 121.721L94.7056 99.4793V12.5039H8.96094V99.4793Z" fill="white"></path><path d="M95.593 12.8359L8.07812 101.029L53.4398 123.492L95.593 101.914V12.8359Z" fill="#F2F3F2"></path><path d="M6.08594 41.4958V101.361L7.63487 102.135L51.337 124.377L52.6647 125.041L53.9923 124.377L96.1455 102.135L97.6945 101.361V9.62695H6.08594V41.4958ZM8.96253 99.7007V12.504H94.8178V99.7007L52.6647 121.943L8.96253 99.7007Z" fill="#DCDEDC"></path><path d="M51.8908 13.9425C52.3334 13.9425 52.7759 13.9425 53.2185 14.0532L51.8908 16.5983C49.8993 16.4876 48.1291 18.0368 48.0185 20.0286C47.9078 22.0204 49.4568 23.7909 51.4483 23.9015H51.8908C52.7759 23.9015 53.661 23.5696 54.3248 23.0163L55.7632 25.4507C54.6568 26.2253 53.3291 26.6679 51.8908 26.6679C48.3504 26.7786 45.3632 24.1229 45.2525 20.5819C45.1419 17.0409 47.7972 14.0532 51.3376 13.9425H51.8908ZM56.427 19.3647L58.0866 22.1311L56.427 24.7868L54.878 22.1311H51.6695L53.3291 19.3647H56.427ZM53.7717 18.3688C53.7717 17.9261 53.8823 17.4835 54.1036 17.1515C54.3249 16.8196 54.7674 16.4876 55.0993 16.2663L55.3206 16.1556C55.7631 15.9343 55.8738 15.8237 55.8738 15.6024C55.8738 15.3811 55.5419 15.1597 55.3206 15.1597C54.878 15.1597 54.5461 15.3811 54.3248 15.8237L53.7717 15.2704C53.8823 15.0491 54.1036 14.8278 54.3248 14.6065C54.6568 14.3851 54.9887 14.3851 55.3206 14.3851C55.6525 14.3851 56.0951 14.4958 56.3163 14.7171C56.5376 14.9384 56.7589 15.2704 56.7589 15.6024C56.7589 16.1556 56.427 16.5983 55.7632 16.8196L55.4312 17.0409C55.0993 17.2622 54.878 17.3729 54.7674 17.7048H56.7589V18.4794L53.7717 18.3688ZM51.8908 32.2007L62.4014 26.2253V9.62695H41.2695V26.1147L51.8908 32.2007Z" fill="#FF492C"></path><path d="M99.7946 71.373H3.98183L0.441406 79.1189L3.98183 86.8649H99.7946L103.224 79.1189L99.7946 71.373Z" fill="#2690CE"></path><path d="M15.621 64.1801C15.5842 64.1801 15.5547 64.1654 15.5325 64.1359C15.503 64.1137 15.4883 64.0842 15.4883 64.0473V56.567C15.4883 56.5301 15.503 56.5006 15.5325 56.4785C15.5547 56.449 15.5842 56.4342 15.621 56.4342H16.9155C16.9524 56.4342 16.9856 56.449 17.0151 56.4785C17.0372 56.5006 17.0483 56.5301 17.0483 56.567V64.0473C17.0483 64.0842 17.0372 64.1137 17.0151 64.1359C16.9856 64.1654 16.9524 64.1801 16.9155 64.1801H15.621ZM24.6049 58.4039C25.1802 58.4039 25.6301 58.5773 25.9547 58.924C26.2792 59.2707 26.4415 59.7576 26.4415 60.3846V64.0473C26.4415 64.0842 26.4267 64.1137 26.3972 64.1359C26.3751 64.1654 26.3456 64.1801 26.3087 64.1801H25.0142C24.9774 64.1801 24.9442 64.1654 24.9147 64.1359C24.8925 64.1137 24.8815 64.0842 24.8815 64.0473V60.7277C24.8815 60.4252 24.804 60.1855 24.6491 60.0084C24.4942 59.8314 24.2877 59.7428 24.0296 59.7428C23.7714 59.7428 23.5612 59.8314 23.3989 60.0084C23.2366 60.1855 23.1555 60.4215 23.1555 60.7166V64.0473C23.1555 64.0842 23.1408 64.1137 23.1113 64.1359C23.0891 64.1654 23.0596 64.1801 23.0227 64.1801H21.7393C21.7025 64.1801 21.6693 64.1654 21.6398 64.1359C21.6176 64.1137 21.6066 64.0842 21.6066 64.0473V60.7277C21.6066 60.4326 21.5254 60.1928 21.3632 60.0084C21.2009 59.8314 20.9907 59.7428 20.7325 59.7428C20.4965 59.7428 20.2974 59.8129 20.1351 59.9531C19.9802 60.0932 19.888 60.2887 19.8585 60.5396V64.0473C19.8585 64.0842 19.8474 64.1137 19.8253 64.1359C19.7958 64.1654 19.7626 64.1801 19.7257 64.1801H18.4313C18.3944 64.1801 18.3649 64.1654 18.3427 64.1359C18.3132 64.1137 18.2985 64.0842 18.2985 64.0473V58.6252C18.2985 58.5883 18.3132 58.5551 18.3427 58.5256C18.3649 58.5035 18.3944 58.4924 18.4313 58.4924H19.7257C19.7626 58.4924 19.7958 58.5035 19.8253 58.5256C19.8474 58.5551 19.8585 58.5883 19.8585 58.6252V59.0568C19.8585 59.0789 19.8659 59.0937 19.8806 59.101C19.8954 59.1084 19.9101 59.101 19.9249 59.0789C20.2273 58.6289 20.6957 58.4039 21.33 58.4039C21.6988 58.4039 22.0196 58.4814 22.2925 58.6363C22.5728 58.7912 22.7867 59.0125 22.9342 59.3002C22.9564 59.3445 22.9822 59.3445 23.0117 59.3002C23.174 58.9978 23.3915 58.7727 23.6645 58.6252C23.9447 58.4777 24.2582 58.4039 24.6049 58.4039ZM32.6151 60.0195C32.7479 60.3957 32.8142 60.8383 32.8142 61.3473C32.8142 61.8564 32.7442 62.3174 32.604 62.7305C32.4344 63.2027 32.1688 63.5789 31.8074 63.8592C31.4386 64.1322 30.985 64.2687 30.4466 64.2687C29.9155 64.2687 29.5025 64.0842 29.2074 63.7154C29.1927 63.6932 29.1779 63.6859 29.1632 63.6932C29.1484 63.7006 29.141 63.7154 29.141 63.7375V66.1055C29.141 66.1424 29.13 66.1719 29.1079 66.1941C29.0784 66.2236 29.0452 66.2383 29.0083 66.2383H27.7138C27.6769 66.2383 27.6474 66.2236 27.6253 66.1941C27.5958 66.1719 27.581 66.1424 27.581 66.1055V58.6252C27.581 58.5883 27.5958 58.5551 27.6253 58.5256C27.6474 58.5035 27.6769 58.4924 27.7138 58.4924H29.0083C29.0452 58.4924 29.0784 58.5035 29.1079 58.5256C29.13 58.5551 29.141 58.5883 29.141 58.6252V58.9904C29.141 59.0125 29.1484 59.0236 29.1632 59.0236C29.1779 59.0309 29.1927 59.0273 29.2074 59.0125C29.5172 58.6068 29.945 58.4039 30.4908 58.4039C30.9998 58.4039 31.4423 58.5477 31.8185 58.8355C32.1873 59.1158 32.4528 59.5105 32.6151 60.0195ZM30.9223 62.4982C31.1067 62.2105 31.1989 61.8195 31.1989 61.3252C31.1989 60.8605 31.1215 60.4916 30.9666 60.2186C30.7969 59.9014 30.524 59.7428 30.1479 59.7428C29.8086 59.7428 29.5541 59.9014 29.3845 60.2186C29.2296 60.4842 29.1521 60.8568 29.1521 61.3363C29.1521 61.8305 29.2332 62.2141 29.3955 62.4871C29.5652 62.7822 29.8159 62.9297 30.1479 62.9297C30.4798 62.9297 30.7379 62.7859 30.9223 62.4982ZM33.9538 64.1801C33.9169 64.1801 33.8837 64.1654 33.8542 64.1359C33.8321 64.1137 33.821 64.0842 33.821 64.0473V56.567C33.821 56.5301 33.8321 56.5006 33.8542 56.4785C33.8837 56.449 33.9169 56.4342 33.9538 56.4342H35.2483C35.2852 56.4342 35.3147 56.449 35.3368 56.4785C35.3663 56.5006 35.381 56.5301 35.381 56.567V64.0473C35.381 64.0842 35.3663 64.1137 35.3368 64.1359C35.3147 64.1654 35.2852 64.1801 35.2483 64.1801H33.9538ZM41.5547 60.7498C41.5989 61.0301 41.6137 61.3437 41.5989 61.6904C41.5915 61.7789 41.5436 61.8232 41.4551 61.8232H38.0364C37.9921 61.8232 37.9774 61.8416 37.9921 61.8785C38.0142 62.026 38.0548 62.1736 38.1138 62.3211C38.3056 62.7342 38.6965 62.9408 39.2866 62.9408C39.7586 62.9334 40.1311 62.7416 40.404 62.3654C40.4335 62.3211 40.4667 62.299 40.5036 62.299C40.5257 62.299 40.5515 62.3137 40.581 62.3432L41.3776 63.1289C41.4145 63.1658 41.433 63.199 41.433 63.2285C41.433 63.2432 41.4182 63.2728 41.3887 63.317C41.1453 63.6195 40.8318 63.8555 40.4483 64.0252C40.0647 64.1875 39.6443 64.2687 39.187 64.2687C38.5527 64.2687 38.0179 64.1248 37.5828 63.8371C37.1402 63.5494 36.823 63.1473 36.6313 62.6309C36.4764 62.2621 36.3989 61.7789 36.3989 61.1814C36.3989 60.7756 36.4542 60.4178 36.5649 60.108C36.7345 59.5842 37.0296 59.1674 37.45 58.8576C37.8778 58.5477 38.383 58.3928 38.9657 58.3928C39.7033 58.3928 40.2971 58.6068 40.747 59.0346C41.1896 59.4625 41.4588 60.0342 41.5547 60.7498ZM38.9768 59.7428C38.5121 59.7428 38.206 59.9605 38.0585 60.3957C38.029 60.4916 38.0032 60.6096 37.981 60.7498C37.981 60.7867 37.9995 60.8051 38.0364 60.8051H39.9504C39.9947 60.8051 40.0094 60.7867 39.9947 60.7498C39.9578 60.5359 39.9393 60.4326 39.9393 60.44C39.873 60.2187 39.7586 60.0453 39.5964 59.9199C39.4267 59.8019 39.2202 59.7428 38.9768 59.7428ZM48.8679 58.4039C49.4432 58.4039 49.8931 58.5773 50.2176 58.924C50.5422 59.2707 50.7045 59.7576 50.7045 60.3846V64.0473C50.7045 64.0842 50.6934 64.1137 50.6713 64.1359C50.6418 64.1654 50.6086 64.1801 50.5717 64.1801H49.2772C49.2403 64.1801 49.2108 64.1654 49.1887 64.1359C49.1592 64.1137 49.1445 64.0842 49.1445 64.0473V60.7277C49.1445 60.4252 49.067 60.1855 48.9121 60.0084C48.7572 59.8314 48.5507 59.7428 48.2925 59.7428C48.0344 59.7428 47.8242 59.8314 47.6619 60.0084C47.4996 60.1855 47.4185 60.4215 47.4185 60.7166V64.0473C47.4185 64.0842 47.4074 64.1137 47.3853 64.1359C47.3558 64.1654 47.3226 64.1801 47.2857 64.1801H46.0023C45.9654 64.1801 45.9359 64.1654 45.9138 64.1359C45.8843 64.1137 45.8696 64.0842 45.8696 64.0473V60.7277C45.8696 60.4326 45.7884 60.1928 45.6262 60.0084C45.4639 59.8314 45.2537 59.7428 44.9955 59.7428C44.7595 59.7428 44.564 59.8129 44.4091 59.9531C44.2469 60.0932 44.151 60.2887 44.1215 60.5396V64.0473C44.1215 64.0842 44.1104 64.1137 44.0883 64.1359C44.0588 64.1654 44.0256 64.1801 43.9887 64.1801H42.6942C42.6574 64.1801 42.6279 64.1654 42.6057 64.1359C42.5762 64.1137 42.5615 64.0842 42.5615 64.0473V58.6252C42.5615 58.5883 42.5762 58.5551 42.6057 58.5256C42.6279 58.5035 42.6574 58.4924 42.6942 58.4924H43.9887C44.0256 58.4924 44.0588 58.5035 44.0883 58.5256C44.1104 58.5551 44.1215 58.5883 44.1215 58.6252V59.0568C44.1215 59.0789 44.1289 59.0937 44.1436 59.101C44.1584 59.1084 44.1731 59.101 44.1879 59.0789C44.4903 58.6289 44.9586 58.4039 45.593 58.4039C45.9618 58.4039 46.2863 58.4814 46.5666 58.6363C46.8395 58.7912 47.0497 59.0125 47.1972 59.3002C47.2193 59.3445 47.2452 59.3445 47.2747 59.3002C47.4369 58.9978 47.6582 58.7727 47.9385 58.6252C48.2114 58.4777 48.5212 58.4039 48.8679 58.4039ZM56.8006 60.7498C56.8449 61.0301 56.8596 61.3437 56.8449 61.6904C56.8375 61.7789 56.7896 61.8232 56.701 61.8232H53.2823C53.2381 61.8232 53.2233 61.8416 53.2381 61.8785C53.2602 62.026 53.3008 62.1736 53.3598 62.3211C53.5515 62.7342 53.9425 62.9408 54.5325 62.9408C55.0046 62.9334 55.3771 62.7416 55.65 62.3654C55.6795 62.3211 55.7127 62.299 55.7496 62.299C55.7717 62.299 55.7975 62.3137 55.827 62.3432L56.6236 63.1289C56.6605 63.1658 56.6789 63.199 56.6789 63.2285C56.6789 63.2432 56.6642 63.2728 56.6347 63.317C56.3913 63.6195 56.0778 63.8555 55.6942 64.0252C55.3107 64.1875 54.8903 64.2687 54.433 64.2687C53.7986 64.2687 53.2639 64.1248 52.8287 63.8371C52.3862 63.5494 52.069 63.1473 51.8772 62.6309C51.7223 62.2621 51.6449 61.7789 51.6449 61.1814C51.6449 60.7756 51.7002 60.4178 51.8108 60.108C51.9805 59.5842 52.2792 59.1674 52.707 58.8576C53.1274 58.5477 53.629 58.3928 54.2117 58.3928C54.9493 58.3928 55.543 58.6068 55.993 59.0346C56.4355 59.4625 56.7047 60.0342 56.8006 60.7498ZM54.2227 59.7428C53.7581 59.7428 53.452 59.9605 53.3045 60.3957C53.2749 60.4916 53.2491 60.6096 53.227 60.7498C53.227 60.7867 53.2454 60.8051 53.2823 60.8051H55.1964C55.2406 60.8051 55.2554 60.7867 55.2406 60.7498C55.2037 60.5359 55.1853 60.4326 55.1853 60.44C55.1189 60.2187 55.0046 60.0453 54.8423 59.9199C54.6727 59.8019 54.4662 59.7428 54.2227 59.7428ZM60.7725 58.4039C61.3626 58.4039 61.8384 58.5846 62.1998 58.9461C62.5612 59.3076 62.7419 59.7982 62.7419 60.4178V64.0473C62.7419 64.0842 62.7308 64.1137 62.7087 64.1359C62.6792 64.1654 62.646 64.1801 62.6091 64.1801H61.3147C61.2778 64.1801 61.2483 64.1654 61.2262 64.1359C61.1967 64.1137 61.1819 64.0842 61.1819 64.0473V60.7387C61.1819 60.4437 61.1008 60.2039 60.9385 60.0195C60.7688 59.835 60.5476 59.7428 60.2747 59.7428C60.0018 59.7428 59.7842 59.835 59.6219 60.0195C59.4523 60.2039 59.3674 60.4437 59.3674 60.7387V64.0473C59.3674 64.0842 59.3564 64.1137 59.3342 64.1359C59.3047 64.1654 59.2715 64.1801 59.2347 64.1801H57.9402C57.9033 64.1801 57.8738 64.1654 57.8517 64.1359C57.8222 64.1137 57.8074 64.0842 57.8074 64.0473V58.6252C57.8074 58.5883 57.8222 58.5551 57.8517 58.5256C57.8738 58.5035 57.9033 58.4924 57.9402 58.4924H59.2347C59.2715 58.4924 59.3047 58.5035 59.3342 58.5256C59.3564 58.5551 59.3674 58.5883 59.3674 58.6252V59.0125C59.3674 59.0346 59.3748 59.0494 59.3896 59.0568C59.4043 59.0641 59.4154 59.0605 59.4227 59.0457C59.7252 58.6178 60.1751 58.4039 60.7725 58.4039ZM67.1232 59.61C67.1232 59.6469 67.1121 59.6801 67.09 59.7096C67.0605 59.7318 67.0273 59.7428 66.9904 59.7428H65.9283C65.8914 59.7428 65.873 59.7613 65.873 59.7982V62.1441C65.873 62.3875 65.9246 62.5682 66.0279 62.6863C66.1237 62.8043 66.2823 62.8633 66.5036 62.8633H66.8687C66.9056 62.8633 66.9388 62.8744 66.9683 62.8965C66.9904 62.926 67.0015 62.9592 67.0015 62.9961V64.0473C67.0015 64.1285 66.9572 64.1764 66.8687 64.1912C66.5589 64.2059 66.3376 64.2133 66.2049 64.2133C65.5927 64.2133 65.1354 64.1137 64.833 63.9146C64.5305 63.708 64.3757 63.3244 64.3683 62.7637V59.7982C64.3683 59.7613 64.3498 59.7428 64.313 59.7428H63.6823C63.6454 59.7428 63.6159 59.7318 63.5938 59.7096C63.5643 59.6801 63.5496 59.6469 63.5496 59.61V58.6252C63.5496 58.5883 63.5643 58.5551 63.5938 58.5256C63.6159 58.5035 63.6454 58.4924 63.6823 58.4924H64.313C64.3498 58.4924 64.3683 58.474 64.3683 58.4371V57.1203C64.3683 57.0834 64.383 57.0539 64.4125 57.0318C64.4347 57.0023 64.4642 56.9875 64.501 56.9875H65.7402C65.7771 56.9875 65.8103 57.0023 65.8398 57.0318C65.8619 57.0539 65.873 57.0834 65.873 57.1203V58.4371C65.873 58.474 65.8914 58.4924 65.9283 58.4924H66.9904C67.0273 58.4924 67.0605 58.5035 67.09 58.5256C67.1121 58.5551 67.1232 58.5883 67.1232 58.6252V59.61ZM70.3317 58.4039C70.8111 58.4039 71.2389 58.485 71.6151 58.6473C71.9913 58.817 72.2826 59.0457 72.4891 59.3334C72.703 59.6211 72.81 59.942 72.81 60.2961V64.0473C72.81 64.0842 72.7952 64.1137 72.7657 64.1359C72.7436 64.1654 72.7141 64.1801 72.6772 64.1801H71.3827C71.3459 64.1801 71.3164 64.1654 71.2942 64.1359C71.2647 64.1137 71.25 64.0842 71.25 64.0473V63.6822C71.25 63.66 71.2426 63.6453 71.2279 63.6379C71.2131 63.6305 71.1984 63.6379 71.1836 63.66C70.8738 64.0658 70.3759 64.2687 69.69 64.2687C69.1147 64.2687 68.65 64.1285 68.2959 63.8482C67.9419 63.5678 67.7649 63.1547 67.7649 62.6088C67.7649 62.0408 67.964 61.5982 68.3623 61.2809C68.7606 60.9711 69.3286 60.8162 70.0662 60.8162H71.1947C71.2315 60.8162 71.25 60.7978 71.25 60.7609V60.5174C71.25 60.274 71.1762 60.0822 71.0287 59.942C70.8812 59.8092 70.6599 59.7428 70.3649 59.7428C70.1362 59.7428 69.9481 59.7834 69.8006 59.8646C69.6457 59.9457 69.5462 60.06 69.5019 60.2076C69.4798 60.2887 69.4318 60.3256 69.3581 60.3182L68.0193 60.1412C67.9308 60.1264 67.8903 60.0932 67.8976 60.0416C67.9271 59.7318 68.0488 59.4514 68.2627 59.2006C68.484 58.9498 68.7717 58.7543 69.1257 58.6141C69.4871 58.474 69.8891 58.4039 70.3317 58.4039ZM70.1104 63.1068C70.4276 63.1068 70.6968 63.0219 70.9181 62.8523C71.1393 62.6826 71.25 62.465 71.25 62.1994V61.801C71.25 61.7641 71.2315 61.7457 71.1947 61.7457H70.3981C70.0662 61.7457 69.8043 61.8084 69.6125 61.9338C69.4281 62.0592 69.3359 62.2363 69.3359 62.465C69.3359 62.6641 69.406 62.8191 69.5462 62.9297C69.6863 63.0477 69.8744 63.1068 70.1104 63.1068ZM77.0474 59.61C77.0474 59.6469 77.0364 59.6801 77.0142 59.7096C76.9847 59.7318 76.9515 59.7428 76.9147 59.7428H75.8525C75.8157 59.7428 75.7972 59.7613 75.7972 59.7982V62.1441C75.7972 62.3875 75.8488 62.5682 75.9521 62.6863C76.048 62.8043 76.2066 62.8633 76.4279 62.8633H76.793C76.8298 62.8633 76.863 62.8744 76.8925 62.8965C76.9147 62.926 76.9257 62.9592 76.9257 62.9961V64.0473C76.9257 64.1285 76.8815 64.1764 76.793 64.1912C76.4832 64.2059 76.2619 64.2133 76.1291 64.2133C75.5169 64.2133 75.0596 64.1137 74.7572 63.9146C74.4548 63.708 74.2999 63.3244 74.2925 62.7637V59.7982C74.2925 59.7613 74.2741 59.7428 74.2372 59.7428H73.6066C73.5697 59.7428 73.5365 59.7318 73.507 59.7096C73.4849 59.6801 73.4738 59.6469 73.4738 59.61V58.6252C73.4738 58.5883 73.4849 58.5551 73.507 58.5256C73.5365 58.5035 73.5697 58.4924 73.6066 58.4924H74.2372C74.2741 58.4924 74.2925 58.474 74.2925 58.4371V57.1203C74.2925 57.0834 74.3073 57.0539 74.3368 57.0318C74.3589 57.0023 74.3884 56.9875 74.4253 56.9875H75.6645C75.7013 56.9875 75.7345 57.0023 75.764 57.0318C75.7862 57.0539 75.7972 57.0834 75.7972 57.1203V58.4371C75.7972 58.474 75.8157 58.4924 75.8525 58.4924H76.9147C76.9515 58.4924 76.9847 58.5035 77.0142 58.5256C77.0364 58.5551 77.0474 58.5883 77.0474 58.6252V59.61ZM78.8287 57.8506C78.5779 57.8506 78.3714 57.7658 78.2091 57.5961C78.0395 57.4338 77.9547 57.2273 77.9547 56.9764C77.9547 56.7182 78.0358 56.508 78.1981 56.3457C78.3603 56.1834 78.5706 56.1023 78.8287 56.1023C79.0869 56.1023 79.2971 56.1834 79.4593 56.3457C79.6216 56.508 79.7027 56.7182 79.7027 56.9764C79.7027 57.2273 79.6179 57.4338 79.4483 57.5961C79.286 57.7658 79.0795 57.8506 78.8287 57.8506ZM78.1649 64.1801C78.128 64.1801 78.0948 64.1654 78.0653 64.1359C78.0432 64.1137 78.0321 64.0842 78.0321 64.0473V58.6141C78.0321 58.5773 78.0432 58.5441 78.0653 58.5146C78.0948 58.4924 78.128 58.4814 78.1649 58.4814H79.4593C79.4962 58.4814 79.5294 58.4924 79.5589 58.5146C79.581 58.5441 79.5921 58.5773 79.5921 58.6141V64.0473C79.5921 64.0842 79.581 64.1137 79.5589 64.1359C79.5294 64.1654 79.4962 64.1801 79.4593 64.1801H78.1649ZM83.3206 64.2687C82.701 64.2687 82.17 64.1064 81.7274 63.7818C81.2849 63.4572 80.9825 63.0146 80.8202 62.4539C80.7169 62.1072 80.6653 61.7309 80.6653 61.3252C80.6653 60.89 80.7169 60.499 80.8202 60.1523C80.9898 59.6064 81.2959 59.1785 81.7385 58.8687C82.181 58.5588 82.7121 58.4039 83.3317 58.4039C83.9365 58.4039 84.4528 58.5588 84.8806 58.8687C85.3084 59.1711 85.6108 59.5953 85.7878 60.1412C85.9059 60.51 85.9649 60.8973 85.9649 61.3031C85.9649 61.7014 85.9132 62.074 85.81 62.4207C85.6477 62.9961 85.3453 63.4498 84.9027 63.7818C84.4676 64.1064 83.9402 64.2687 83.3206 64.2687ZM83.3206 62.9297C83.564 62.9297 83.7705 62.8559 83.9402 62.7084C84.1098 62.5609 84.2315 62.358 84.3053 62.0998C84.3643 61.8637 84.3938 61.6055 84.3938 61.3252C84.3938 61.0154 84.3643 60.7535 84.3053 60.5396C84.2242 60.2887 84.0988 60.0932 83.9291 59.9531C83.7595 59.8129 83.553 59.7428 83.3096 59.7428C83.0588 59.7428 82.8486 59.8129 82.6789 59.9531C82.5166 60.0932 82.3986 60.2887 82.3249 60.5396C82.2659 60.7166 82.2364 60.9785 82.2364 61.3252C82.2364 61.6572 82.2622 61.9154 82.3138 62.0998C82.3876 62.358 82.5093 62.5609 82.6789 62.7084C82.8559 62.8559 83.0698 62.9297 83.3206 62.9297ZM89.9368 58.4039C90.5269 58.4039 91.0026 58.5846 91.364 58.9461C91.7254 59.3076 91.9062 59.7982 91.9062 60.4178V64.0473C91.9062 64.0842 91.8914 64.1137 91.8619 64.1359C91.8398 64.1654 91.8103 64.1801 91.7734 64.1801H90.4789C90.442 64.1801 90.4089 64.1654 90.3793 64.1359C90.3572 64.1137 90.3462 64.0842 90.3462 64.0473V60.7387C90.3462 60.4437 90.2613 60.2039 90.0917 60.0195C89.9294 59.835 89.7118 59.7428 89.4389 59.7428C89.166 59.7428 88.9447 59.835 88.7751 60.0195C88.6128 60.2039 88.5317 60.4437 88.5317 60.7387V64.0473C88.5317 64.0842 88.5169 64.1137 88.4874 64.1359C88.4653 64.1654 88.4358 64.1801 88.3989 64.1801H87.1044C87.0676 64.1801 87.0344 64.1654 87.0049 64.1359C86.9827 64.1137 86.9717 64.0842 86.9717 64.0473V58.6252C86.9717 58.5883 86.9827 58.5551 87.0049 58.5256C87.0344 58.5035 87.0676 58.4924 87.1044 58.4924H88.3989C88.4358 58.4924 88.4653 58.5035 88.4874 58.5256C88.5169 58.5551 88.5317 58.5883 88.5317 58.6252V59.0125C88.5317 59.0346 88.5391 59.0494 88.5538 59.0568C88.5686 59.0641 88.5796 59.0605 88.587 59.0457C88.8894 58.6178 89.3393 58.4039 89.9368 58.4039ZM41.1453 46.5748C41.1453 46.6117 41.1306 46.6412 41.101 46.6633C41.0789 46.6928 41.0494 46.7076 41.0125 46.7076H37.3947C37.3578 46.7076 37.3393 46.726 37.3393 46.7629V48.4781C37.3393 48.515 37.3578 48.5334 37.3947 48.5334H39.7734C39.8103 48.5334 39.8398 48.5445 39.8619 48.5666C39.8914 48.5961 39.9062 48.6293 39.9062 48.6662V49.7396C39.9062 49.7764 39.8914 49.8096 39.8619 49.8391C39.8398 49.8613 39.8103 49.8723 39.7734 49.8723H37.3947C37.3578 49.8723 37.3393 49.8908 37.3393 49.9277V52.9818C37.3393 53.0187 37.3283 53.0482 37.3062 53.0703C37.2766 53.0998 37.2435 53.1146 37.2066 53.1146H35.9121C35.8752 53.1146 35.8457 53.0998 35.8236 53.0703C35.7941 53.0482 35.7793 53.0187 35.7793 52.9818V45.5014C35.7793 45.4646 35.7941 45.435 35.8236 45.4129C35.8457 45.3834 35.8752 45.3687 35.9121 45.3687H41.0125C41.0494 45.3687 41.0789 45.3834 41.101 45.4129C41.1306 45.435 41.1453 45.4646 41.1453 45.5014V46.5748ZM43.6015 47.3383C44.0809 47.3383 44.5087 47.4195 44.8849 47.5818C45.261 47.7514 45.5561 47.9801 45.77 48.2678C45.9765 48.5555 46.0798 48.8764 46.0798 49.2305V52.9818C46.0798 53.0187 46.0687 53.0482 46.0466 53.0703C46.0171 53.0998 45.9839 53.1146 45.947 53.1146H44.6525C44.6157 53.1146 44.5825 53.0998 44.553 53.0703C44.5308 53.0482 44.5198 53.0187 44.5198 52.9818V52.6166C44.5198 52.5945 44.5124 52.5797 44.4976 52.5723C44.4829 52.565 44.4681 52.5723 44.4534 52.5945C44.1436 53.0002 43.6457 53.2031 42.9598 53.2031C42.3845 53.2031 41.9198 53.0629 41.5657 52.7826C41.2117 52.5023 41.0347 52.0891 41.0347 51.5432C41.0347 50.9752 41.2338 50.5326 41.6321 50.2154C42.0304 49.9055 42.5984 49.7506 43.3359 49.7506H44.4644C44.5013 49.7506 44.5198 49.7322 44.5198 49.6953V49.4518C44.5198 49.2084 44.446 49.0166 44.2985 48.8764C44.151 48.7437 43.9297 48.6773 43.6347 48.6773C43.406 48.6773 43.2179 48.7178 43.0704 48.799C42.9155 48.8801 42.8159 48.9945 42.7717 49.142C42.7496 49.2232 42.7016 49.26 42.6279 49.2527L41.2891 49.0756C41.2006 49.0609 41.1601 49.0277 41.1674 48.976C41.1969 48.6662 41.3223 48.3859 41.5436 48.135C41.7575 47.8842 42.0452 47.6887 42.4066 47.5486C42.7606 47.4084 43.1589 47.3383 43.6015 47.3383ZM43.3802 52.0412C43.6974 52.0412 43.9666 51.9564 44.1879 51.7867C44.4091 51.617 44.5198 51.3994 44.5198 51.1338V50.7355C44.5198 50.6986 44.5013 50.6801 44.4644 50.6801H43.6679C43.3359 50.6801 43.0778 50.7428 42.8934 50.8682C42.7016 50.9937 42.6057 51.1707 42.6057 51.3994C42.6057 51.5986 42.6758 51.7535 42.8159 51.8641C42.9561 51.9822 43.1442 52.0412 43.3802 52.0412ZM49.4432 53.192C48.949 53.192 48.5175 53.1219 48.1487 52.9818C47.7799 52.8416 47.4959 52.6461 47.2968 52.3953C47.0903 52.1445 46.987 51.8605 46.987 51.5432V51.4326C46.987 51.3957 47.0018 51.3662 47.0313 51.3441C47.0534 51.3146 47.0829 51.2998 47.1198 51.2998H48.3479C48.3847 51.2998 48.4142 51.3146 48.4364 51.3441C48.4659 51.3662 48.4806 51.3957 48.4806 51.4326V51.4437C48.4806 51.6059 48.5728 51.7424 48.7572 51.8531C48.9342 51.9711 49.1592 52.0301 49.4321 52.0301C49.6829 52.0301 49.8857 51.9822 50.0406 51.8863C50.1955 51.783 50.273 51.6576 50.273 51.51C50.273 51.3773 50.2066 51.2777 50.0738 51.2113C49.941 51.1449 49.7235 51.0748 49.421 51.001C49.0744 50.9125 48.8015 50.8277 48.6023 50.7465C48.1303 50.5842 47.7541 50.385 47.4738 50.149C47.1935 49.9129 47.0534 49.5736 47.0534 49.1309C47.0534 48.585 47.2673 48.1498 47.6951 47.8252C48.1155 47.508 48.6761 47.3494 49.3768 47.3494C49.8489 47.3494 50.2619 47.4268 50.6159 47.5818C50.97 47.7293 51.2466 47.9396 51.4457 48.2125C51.6375 48.4855 51.7334 48.7953 51.7334 49.142C51.7334 49.1789 51.7223 49.2121 51.7002 49.2416C51.6707 49.2637 51.6375 49.2748 51.6006 49.2748H50.4168C50.3799 49.2748 50.3504 49.2637 50.3283 49.2416C50.2988 49.2121 50.284 49.1789 50.284 49.142C50.284 48.9797 50.2029 48.8432 50.0406 48.7326C49.871 48.6219 49.6497 48.5666 49.3768 48.5666C49.1334 48.5666 48.9342 48.6109 48.7793 48.6994C48.6245 48.7879 48.547 48.9096 48.547 49.0646C48.547 49.2121 48.6245 49.3228 48.7793 49.3965C48.9269 49.4703 49.1776 49.5477 49.5317 49.6289L49.8083 49.7064C49.9115 49.7285 50.0222 49.758 50.1402 49.7949C50.6639 49.9498 51.0769 50.149 51.3793 50.3924C51.6818 50.6359 51.833 50.99 51.833 51.4547C51.833 52.0006 51.6191 52.4248 51.1913 52.7273C50.7561 53.0371 50.1734 53.192 49.4432 53.192ZM55.9819 48.5445C55.9819 48.5814 55.9708 48.6146 55.9487 48.6441C55.9192 48.6662 55.886 48.6773 55.8491 48.6773H54.787C54.7501 48.6773 54.7317 48.6957 54.7317 48.7326V51.0785C54.7317 51.3219 54.7833 51.5027 54.8866 51.6207C54.9825 51.7387 55.141 51.7978 55.3623 51.7978H55.7274C55.7643 51.7978 55.7975 51.8088 55.827 51.8309C55.8491 51.8605 55.8602 51.8937 55.8602 51.9305V52.9818C55.8602 53.0629 55.8159 53.1109 55.7274 53.1256C55.4176 53.1404 55.1964 53.1477 55.0636 53.1477C54.4514 53.1477 53.9941 53.0482 53.6917 52.849C53.3893 52.6424 53.2344 52.2588 53.227 51.6982V48.7326C53.227 48.6957 53.2086 48.6773 53.1717 48.6773H52.541C52.5042 48.6773 52.4747 48.6662 52.4525 48.6441C52.423 48.6146 52.4083 48.5814 52.4083 48.5445V47.5596C52.4083 47.5228 52.423 47.4896 52.4525 47.46C52.4747 47.4379 52.5042 47.4268 52.541 47.4268H53.1717C53.2086 47.4268 53.227 47.4084 53.227 47.3715V46.0547C53.227 46.0178 53.2381 45.9883 53.2602 45.9662C53.2897 45.9367 53.3229 45.9219 53.3598 45.9219H54.5989C54.6358 45.9219 54.669 45.9367 54.6985 45.9662C54.7206 45.9883 54.7317 46.0178 54.7317 46.0547V47.3715C54.7317 47.4084 54.7501 47.4268 54.787 47.4268H55.8491C55.886 47.4268 55.9192 47.4379 55.9487 47.46C55.9708 47.4896 55.9819 47.5228 55.9819 47.5596V48.5445ZM61.8789 49.6842C61.9232 49.9646 61.9379 50.2781 61.9232 50.6248C61.9158 50.7133 61.8679 50.7576 61.7793 50.7576H58.3606C58.3164 50.7576 58.3016 50.776 58.3164 50.8129C58.3385 50.9605 58.3791 51.108 58.4381 51.2555C58.6298 51.6687 59.0208 51.8752 59.6108 51.8752C60.0829 51.8678 60.4554 51.676 60.7283 51.2998C60.7578 51.2555 60.791 51.2334 60.8279 51.2334C60.85 51.2334 60.8758 51.2482 60.9053 51.2777L61.7019 52.0633C61.7388 52.1002 61.7572 52.1334 61.7572 52.1629C61.7572 52.1777 61.7425 52.2072 61.713 52.2514C61.4696 52.5539 61.1561 52.79 60.7725 52.9596C60.389 53.1219 59.9686 53.2031 59.5113 53.2031C58.8769 53.2031 58.3422 53.0592 57.907 52.7715C57.4645 52.4838 57.1473 52.0818 56.9555 51.5654C56.8006 51.1965 56.7232 50.7133 56.7232 50.1158C56.7232 49.71 56.7785 49.3523 56.8891 49.0424C57.0588 48.5187 57.3538 48.1018 57.7742 47.792C58.202 47.4822 58.7073 47.3273 59.29 47.3273C60.0276 47.3273 60.6176 47.5412 61.0602 47.9691C61.5101 48.3969 61.783 48.9687 61.8789 49.6842ZM59.301 48.6773C58.8364 48.6773 58.5303 48.8949 58.3827 49.3301C58.3532 49.426 58.3274 49.5441 58.3053 49.6842C58.3053 49.7211 58.3237 49.7396 58.3606 49.7396H60.2747C60.3189 49.7396 60.3337 49.7211 60.3189 49.6842C60.282 49.4703 60.2636 49.367 60.2636 49.3744C60.1972 49.1531 60.0792 48.9797 59.9096 48.8543C59.7473 48.7363 59.5444 48.6773 59.301 48.6773ZM65.0764 53.192C64.5822 53.192 64.1507 53.1219 63.7819 52.9818C63.4131 52.8416 63.1254 52.6461 62.9189 52.3953C62.7198 52.1445 62.6202 51.8605 62.6202 51.5432V51.4326C62.6202 51.3957 62.6349 51.3662 62.6645 51.3441C62.6866 51.3146 62.7161 51.2998 62.753 51.2998H63.981C64.0179 51.2998 64.0474 51.3146 64.0696 51.3441C64.0991 51.3662 64.1138 51.3957 64.1138 51.4326V51.4437C64.1138 51.6059 64.2023 51.7424 64.3793 51.8531C64.5637 51.9711 64.7924 52.0301 65.0653 52.0301C65.3161 52.0301 65.5189 51.9822 65.6738 51.8863C65.8287 51.783 65.9062 51.6576 65.9062 51.51C65.9062 51.3773 65.8398 51.2777 65.707 51.2113C65.5742 51.1449 65.3566 51.0748 65.0542 51.001C64.7076 50.9125 64.4347 50.8277 64.2355 50.7465C63.7635 50.5842 63.3873 50.385 63.107 50.149C62.8267 49.9129 62.6866 49.5736 62.6866 49.1309C62.6866 48.585 62.8968 48.1498 63.3172 47.8252C63.745 47.508 64.3093 47.3494 65.01 47.3494C65.482 47.3494 65.8951 47.4268 66.2491 47.5818C66.6032 47.7293 66.8761 47.9396 67.0679 48.2125C67.267 48.4855 67.3666 48.7953 67.3666 49.142C67.3666 49.1789 67.3555 49.2121 67.3334 49.2416C67.3039 49.2637 67.2707 49.2748 67.2338 49.2748H66.05C66.0131 49.2748 65.9799 49.2637 65.9504 49.2416C65.9283 49.2121 65.9172 49.1789 65.9172 49.142C65.9172 48.9797 65.8361 48.8432 65.6738 48.7326C65.5042 48.6219 65.2829 48.5666 65.01 48.5666C64.7666 48.5666 64.5674 48.6109 64.4125 48.6994C64.2576 48.7879 64.1802 48.9096 64.1802 49.0646C64.1802 49.2121 64.254 49.3228 64.4015 49.3965C64.5564 49.4703 64.8108 49.5477 65.1649 49.6289L65.4415 49.7064C65.5447 49.7285 65.6554 49.758 65.7734 49.7949C66.2971 49.9498 66.7101 50.149 67.0125 50.3924C67.3149 50.6359 67.4662 50.99 67.4662 51.4547C67.4662 52.0006 67.2486 52.4248 66.8134 52.7273C66.3856 53.0371 65.8066 53.192 65.0764 53.192ZM71.6151 48.5445C71.6151 48.5814 71.6003 48.6146 71.5708 48.6441C71.5487 48.6662 71.5192 48.6773 71.4823 48.6773H70.4202C70.3833 48.6773 70.3649 48.6957 70.3649 48.7326V51.0785C70.3649 51.3219 70.4128 51.5027 70.5087 51.6207C70.612 51.7387 70.7742 51.7978 70.9955 51.7978H71.3606C71.3975 51.7978 71.427 51.8088 71.4491 51.8309C71.4786 51.8605 71.4934 51.8937 71.4934 51.9305V52.9818C71.4934 53.0629 71.4491 53.1109 71.3606 53.1256C71.0508 53.1404 70.8296 53.1477 70.6968 53.1477C70.0846 53.1477 69.6273 53.0482 69.3249 52.849C69.0225 52.6424 68.8676 52.2588 68.8602 51.6982V48.7326C68.8602 48.6957 68.8418 48.6773 68.8049 48.6773H68.1742C68.1374 48.6773 68.1042 48.6662 68.0747 48.6441C68.0525 48.6146 68.0415 48.5814 68.0415 48.5445V47.5596C68.0415 47.5228 68.0525 47.4896 68.0747 47.46C68.1042 47.4379 68.1374 47.4268 68.1742 47.4268H68.8049C68.8418 47.4268 68.8602 47.4084 68.8602 47.3715V46.0547C68.8602 46.0178 68.8713 45.9883 68.8934 45.9662C68.9229 45.9367 68.9561 45.9219 68.993 45.9219H70.2321C70.269 45.9219 70.2985 45.9367 70.3206 45.9662C70.3501 45.9883 70.3649 46.0178 70.3649 46.0547V47.3715C70.3649 47.4084 70.3833 47.4268 70.4202 47.4268H71.4823C71.5192 47.4268 71.5487 47.4379 71.5708 47.46C71.6003 47.4896 71.6151 47.5228 71.6151 47.5596V48.5445Z" fill="#252530"></path><path d="M18.6989 83.523C18.1236 83.523 17.622 83.4308 17.1942 83.2464C16.7664 83.062 16.4345 82.8038 16.1984 82.4718C15.9698 82.1398 15.8555 81.7488 15.8555 81.2988V81.0222C15.8555 80.9853 15.8702 80.9521 15.8997 80.9226C15.9219 80.9005 15.9514 80.8894 15.9882 80.8894H16.9729C17.0098 80.8894 17.043 80.9005 17.0725 80.9226C17.0946 80.9521 17.1057 80.9853 17.1057 81.0222V81.2324C17.1057 81.5718 17.2569 81.8521 17.5593 82.0734C17.8617 82.3021 18.2748 82.4165 18.7984 82.4165C19.2484 82.4165 19.5877 82.3206 19.8163 82.1288C20.045 81.937 20.1593 81.6898 20.1593 81.3874C20.1593 81.1808 20.0966 81.0038 19.9712 80.8562C19.8458 80.7161 19.6688 80.587 19.4401 80.4689C19.2041 80.3509 18.8538 80.2033 18.3891 80.0263C17.8654 79.8345 17.4413 79.6538 17.1167 79.4841C16.7922 79.3144 16.523 79.082 16.3091 78.7869C16.0878 78.4992 15.9772 78.1378 15.9772 77.7025C15.9772 77.0533 16.2132 76.5406 16.6853 76.1644C17.1573 75.7882 17.788 75.6001 18.5772 75.6001C19.1304 75.6001 19.6209 75.696 20.0487 75.8878C20.4691 76.0796 20.7973 76.3488 21.0333 76.6956C21.2694 77.0349 21.3874 77.4296 21.3874 77.8796V78.0677C21.3874 78.1046 21.3726 78.1378 21.3431 78.1673C21.321 78.1894 21.2915 78.2005 21.2546 78.2005H20.2589C20.222 78.2005 20.1925 78.1894 20.1704 78.1673C20.1409 78.1378 20.1261 78.1046 20.1261 78.0677V77.946C20.1261 77.5993 19.986 77.3079 19.7057 77.0718C19.418 76.8283 19.0234 76.7066 18.5219 76.7066C18.1162 76.7066 17.8027 76.7915 17.5814 76.9611C17.3528 77.1308 17.2384 77.3706 17.2384 77.6804C17.2384 77.9017 17.2975 78.0824 17.4155 78.2226C17.5335 78.3628 17.7105 78.4882 17.9465 78.5988C18.1826 78.7169 18.5477 78.8644 19.0419 79.0415C19.5655 79.2406 19.986 79.4214 20.3031 79.5837C20.6129 79.746 20.8821 79.971 21.1108 80.2587C21.3321 80.5538 21.4427 80.9189 21.4427 81.3542C21.4427 82.0181 21.1956 82.5456 20.7014 82.9365C20.2146 83.3275 19.5471 83.523 18.6989 83.523ZM28.6674 77.6915C29.2353 77.6915 29.6816 77.8611 30.0061 78.2005C30.3233 78.5472 30.4819 79.0267 30.4819 79.639V83.3017C30.4819 83.3386 30.4708 83.3681 30.4487 83.3902C30.4192 83.4197 30.386 83.4345 30.3491 83.4345H29.3423C29.3054 83.4345 29.2759 83.4197 29.2538 83.3902C29.2243 83.3681 29.2095 83.3386 29.2095 83.3017V79.9046C29.2095 79.5652 29.121 79.296 28.944 79.0968C28.7596 78.8976 28.5162 78.798 28.2138 78.798C27.9114 78.798 27.6643 78.8976 27.4725 79.0968C27.2807 79.296 27.1848 79.5615 27.1848 79.8935V83.3017C27.1848 83.3386 27.1738 83.3681 27.1516 83.3902C27.1221 83.4197 27.0889 83.4345 27.0521 83.4345H26.0453C26.0084 83.4345 25.9752 83.4197 25.9457 83.3902C25.9236 83.3681 25.9125 83.3386 25.9125 83.3017V79.9046C25.9125 79.5652 25.8203 79.296 25.6359 79.0968C25.4515 78.8976 25.2081 78.798 24.9057 78.798C24.6254 78.798 24.3931 78.8792 24.2087 79.0415C24.0316 79.2038 23.9284 79.4251 23.8989 79.7054V83.3017C23.8989 83.3386 23.8878 83.3681 23.8657 83.3902C23.8362 83.4197 23.803 83.4345 23.7661 83.4345H22.7482C22.7114 83.4345 22.6819 83.4197 22.6597 83.3902C22.6302 83.3681 22.6155 83.3386 22.6155 83.3017V77.9128C22.6155 77.8759 22.6302 77.8427 22.6597 77.8132C22.6819 77.7911 22.7114 77.78 22.7482 77.78H23.7661C23.803 77.78 23.8362 77.7911 23.8657 77.8132C23.8878 77.8427 23.8989 77.8759 23.8989 77.9128V78.2779C23.8989 78.3001 23.9062 78.3148 23.921 78.3222C23.9358 78.3296 23.9505 78.3222 23.9653 78.3001C24.1275 78.0935 24.3267 77.9423 24.5627 77.8464C24.8061 77.7431 25.0753 77.6915 25.3704 77.6915C25.7318 77.6915 26.0489 77.7652 26.3219 77.9128C26.5948 78.0603 26.805 78.2742 26.9525 78.5546C26.9746 78.5841 27.0004 78.5841 27.0299 78.5546C27.1922 78.2595 27.4172 78.0419 27.7048 77.9017C27.9925 77.7615 28.3133 77.6915 28.6674 77.6915ZM33.9448 77.6915C34.4095 77.6915 34.8189 77.7726 35.1729 77.9349C35.527 78.0972 35.7999 78.3185 35.9916 78.5988C36.1834 78.8865 36.2793 79.2111 36.2793 79.5726V83.3017C36.2793 83.3386 36.2682 83.3681 36.2461 83.3902C36.2166 83.4197 36.1834 83.4345 36.1465 83.4345H35.1287C35.0918 83.4345 35.0623 83.4197 35.0401 83.3902C35.0106 83.3681 34.9959 83.3386 34.9959 83.3017V82.9476C34.9959 82.9255 34.9885 82.9107 34.9738 82.9033C34.959 82.9033 34.9443 82.9107 34.9295 82.9255C34.5681 83.3238 34.0444 83.523 33.3584 83.523C32.8053 83.523 32.3516 83.3829 31.9976 83.1025C31.6362 82.8222 31.4555 82.4054 31.4555 81.8521C31.4555 81.2767 31.6583 80.8267 32.064 80.5021C32.4623 80.1849 33.0265 80.0263 33.7567 80.0263H34.9406C34.9775 80.0263 34.9959 80.0079 34.9959 79.971V79.7054C34.9959 79.4177 34.9111 79.1927 34.7414 79.0304C34.5718 78.8755 34.3173 78.798 33.978 78.798C33.6977 78.798 33.4728 78.8497 33.3031 78.9529C33.1261 79.0488 33.0155 79.1853 32.9712 79.3624C32.9491 79.4509 32.8975 79.4878 32.8163 79.473L31.7431 79.3402C31.7062 79.3329 31.6767 79.3218 31.6546 79.307C31.6251 79.2849 31.614 79.2591 31.6214 79.2296C31.6804 78.7796 31.9238 78.4107 32.3516 78.123C32.7721 77.8353 33.3031 77.6915 33.9448 77.6915ZM33.6793 82.505C34.0407 82.505 34.3505 82.4091 34.6087 82.2173C34.8668 82.0255 34.9959 81.782 34.9959 81.487V80.9669C34.9959 80.93 34.9775 80.9115 34.9406 80.9115H34.0112C33.6203 80.9115 33.3142 80.9853 33.0929 81.1329C32.8643 81.2804 32.7499 81.4906 32.7499 81.7636C32.7499 81.9997 32.8384 82.1804 33.0155 82.3058C33.1851 82.4386 33.4064 82.505 33.6793 82.505ZM37.6955 83.4345C37.6586 83.4345 37.6291 83.4197 37.607 83.3902C37.5775 83.3681 37.5627 83.3386 37.5627 83.3017V75.8214C37.5627 75.7845 37.5775 75.755 37.607 75.7329C37.6291 75.7033 37.6586 75.6886 37.6955 75.6886H38.7133C38.7502 75.6886 38.7834 75.7033 38.8129 75.7329C38.835 75.755 38.8461 75.7845 38.8461 75.8214V83.3017C38.8461 83.3386 38.835 83.3681 38.8129 83.3902C38.7834 83.4197 38.7502 83.4345 38.7133 83.4345H37.6955ZM40.3397 83.4345C40.3028 83.4345 40.2733 83.4197 40.2512 83.3902C40.2217 83.3681 40.207 83.3386 40.207 83.3017V75.8214C40.207 75.7845 40.2217 75.755 40.2512 75.7329C40.2733 75.7033 40.3028 75.6886 40.3397 75.6886H41.3576C41.3945 75.6886 41.4277 75.7033 41.4572 75.7329C41.4793 75.755 41.4904 75.7845 41.4904 75.8214V83.3017C41.4904 83.3386 41.4793 83.3681 41.4572 83.3902C41.4277 83.4197 41.3945 83.4345 41.3576 83.4345H40.3397ZM49.5116 79.3956C49.4674 79.4177 49.4674 79.4398 49.5116 79.462C50.264 79.816 50.6401 80.4247 50.6401 81.2878C50.6401 81.9886 50.4078 82.5234 49.9431 82.8923C49.4711 83.2538 48.8589 83.4345 48.1065 83.4345H45.3184C45.2816 83.4345 45.2521 83.4197 45.2299 83.3902C45.2004 83.3681 45.1857 83.3386 45.1857 83.3017V75.8214C45.1857 75.7845 45.2004 75.755 45.2299 75.7329C45.2521 75.7033 45.2816 75.6886 45.3184 75.6886H48.018C48.822 75.6886 49.4416 75.862 49.8767 76.2087C50.3119 76.5554 50.5295 77.0792 50.5295 77.78C50.5295 78.5546 50.1902 79.0931 49.5116 79.3956ZM46.5244 76.7952C46.4875 76.7952 46.4691 76.8136 46.4691 76.8505V78.8976C46.4691 78.9345 46.4875 78.9529 46.5244 78.9529H48.018C48.4089 78.9529 48.7187 78.8607 48.9474 78.6763C49.1687 78.4845 49.2793 78.2226 49.2793 77.8906C49.2793 77.5513 49.1687 77.282 48.9474 77.0829C48.7187 76.8911 48.4089 76.7952 48.018 76.7952H46.5244ZM48.1065 82.3169C48.4901 82.3169 48.7962 82.2136 49.0248 82.007C49.2461 81.8005 49.3567 81.5201 49.3567 81.166C49.3567 80.8046 49.2424 80.5242 49.0138 80.3251C48.7851 80.1185 48.4753 80.0152 48.0844 80.0152H46.5244C46.4875 80.0152 46.4691 80.0337 46.4691 80.0706V82.2615C46.4691 82.2984 46.4875 82.3169 46.5244 82.3169H48.1065ZM55.1874 77.9128C55.1874 77.8759 55.1984 77.8427 55.2206 77.8132C55.2501 77.7911 55.2833 77.78 55.3201 77.78H56.327C56.3638 77.78 56.397 77.7911 56.4265 77.8132C56.4487 77.8427 56.4597 77.8759 56.4597 77.9128V83.3017C56.4597 83.3386 56.4487 83.3681 56.4265 83.3902C56.397 83.4197 56.3638 83.4345 56.327 83.4345H55.3201C55.2833 83.4345 55.2501 83.4197 55.2206 83.3902C55.1984 83.3681 55.1874 83.3386 55.1874 83.3017V82.9476C55.1874 82.9255 55.18 82.9107 55.1653 82.9033C55.1505 82.896 55.1357 82.9033 55.121 82.9255C54.8186 83.3165 54.365 83.512 53.7602 83.512C53.1996 83.512 52.7312 83.3497 52.355 83.0251C51.9715 82.7005 51.7797 82.2394 51.7797 81.6419V77.9128C51.7797 77.8759 51.7908 77.8427 51.8129 77.8132C51.8424 77.7911 51.8756 77.78 51.9125 77.78H52.9304C52.9672 77.78 53.0004 77.7911 53.0299 77.8132C53.0521 77.8427 53.0631 77.8759 53.0631 77.9128V81.2767C53.0631 81.6234 53.1553 81.9001 53.3397 82.1066C53.5167 82.3132 53.7675 82.4165 54.0921 82.4165C54.424 82.4165 54.6895 82.3132 54.8887 82.1066C55.0878 81.9001 55.1874 81.6234 55.1874 81.2767V77.9128ZM59.9338 83.5009C59.4691 83.5009 59.0597 83.4308 58.7057 83.2906C58.359 83.1579 58.0898 82.9697 57.898 82.7263C57.7062 82.4902 57.6104 82.2247 57.6104 81.9296V81.83C57.6104 81.7931 57.6214 81.7599 57.6436 81.7304C57.6731 81.7083 57.7062 81.6972 57.7431 81.6972H58.7167C58.7536 81.6972 58.7831 81.7083 58.8053 81.7304C58.8348 81.7599 58.8495 81.7931 58.8495 81.83V81.8521C58.8495 82.0365 58.9491 82.1988 59.1482 82.339C59.3548 82.4718 59.6129 82.5382 59.9227 82.5382C60.2177 82.5382 60.4575 82.4792 60.6419 82.3611C60.8263 82.2357 60.9184 82.0808 60.9184 81.8964C60.9184 81.7267 60.841 81.5976 60.6861 81.5091C60.5386 81.4279 60.2952 81.3394 59.9559 81.2435L59.5355 81.1107C59.1593 81.0001 58.8421 80.882 58.584 80.7566C58.3258 80.6312 58.1082 80.4579 57.9312 80.2365C57.7542 80.0226 57.6657 79.746 57.6657 79.4066C57.6657 78.8902 57.8685 78.4808 58.2742 78.1783C58.6799 77.8685 59.2146 77.7136 59.8784 77.7136C60.3284 77.7136 60.723 77.7837 61.0623 77.9238C61.4016 78.0714 61.6634 78.2706 61.8478 78.5214C62.0322 78.7796 62.1244 79.071 62.1244 79.3956C62.1244 79.4324 62.1096 79.4656 62.0801 79.4951C62.058 79.5173 62.0285 79.5283 61.9916 79.5283H61.0512C61.0143 79.5283 60.9811 79.5173 60.9516 79.4951C60.9295 79.4656 60.9184 79.4324 60.9184 79.3956C60.9184 79.2038 60.8226 79.0451 60.6308 78.9197C60.4464 78.787 60.1919 78.7206 59.8674 78.7206C59.5797 78.7206 59.3437 78.7722 59.1593 78.8755C58.9823 78.9861 58.8938 79.1374 58.8938 79.3292C58.8938 79.5062 58.9786 79.639 59.1482 79.7275C59.3253 79.8234 59.6166 79.9267 60.0223 80.0374L60.2657 80.1038C60.6566 80.2218 60.9848 80.3398 61.2504 80.4579C61.5159 80.5833 61.7409 80.7529 61.9253 80.9669C62.1097 81.1882 62.2019 81.4722 62.2019 81.8189C62.2019 82.3427 61.9953 82.7521 61.5823 83.0472C61.1692 83.3497 60.6197 83.5009 59.9338 83.5009ZM64.0163 77.0054C63.7877 77.0054 63.5996 76.9316 63.4521 76.7841C63.3045 76.6365 63.2308 76.4484 63.2308 76.2197C63.2308 75.991 63.3045 75.8029 63.4521 75.6554C63.5996 75.5079 63.7877 75.4341 64.0163 75.4341C64.245 75.4341 64.4331 75.5079 64.5806 75.6554C64.7281 75.8029 64.8018 75.991 64.8018 76.2197C64.8018 76.4484 64.7281 76.6365 64.5806 76.7841C64.4331 76.9316 64.245 77.0054 64.0163 77.0054ZM63.4853 83.4345C63.4484 83.4345 63.4152 83.4197 63.3857 83.3902C63.3636 83.3681 63.3525 83.3386 63.3525 83.3017V77.9017C63.3525 77.8648 63.3636 77.8353 63.3857 77.8132C63.4152 77.7837 63.4484 77.7689 63.4853 77.7689H64.5031C64.54 77.7689 64.5695 77.7837 64.5916 77.8132C64.6211 77.8353 64.6359 77.8648 64.6359 77.9017V83.3017C64.6359 83.3386 64.6211 83.3681 64.5916 83.3902C64.5695 83.4197 64.54 83.4345 64.5031 83.4345H63.4853ZM68.818 77.6915C69.4155 77.6915 69.8912 77.8685 70.2453 78.2226C70.6067 78.5767 70.7874 79.0599 70.7874 79.6722V83.3017C70.7874 83.3386 70.7726 83.3681 70.7431 83.3902C70.721 83.4197 70.6915 83.4345 70.6546 83.4345H69.6367C69.5999 83.4345 69.5667 83.4197 69.5372 83.3902C69.515 83.3681 69.504 83.3386 69.504 83.3017V79.9378C69.504 79.5984 69.4081 79.3218 69.2163 79.1079C69.0246 78.9013 68.7701 78.798 68.4529 78.798C68.1358 78.798 67.8776 78.9013 67.6784 79.1079C67.4867 79.3144 67.3908 79.5874 67.3908 79.9267V83.3017C67.3908 83.3386 67.376 83.3681 67.3465 83.3902C67.3244 83.4197 67.2949 83.4345 67.258 83.4345H66.2402C66.2033 83.4345 66.1701 83.4197 66.1406 83.3902C66.1184 83.3681 66.1074 83.3386 66.1074 83.3017V77.9128C66.1074 77.8759 66.1184 77.8427 66.1406 77.8132C66.1701 77.7911 66.2033 77.78 66.2402 77.78H67.258C67.2949 77.78 67.3244 77.7911 67.3465 77.8132C67.376 77.8427 67.3908 77.8759 67.3908 77.9128V78.2669C67.3908 78.289 67.3982 78.3038 67.4129 78.3111C67.4277 78.3185 67.4387 78.3111 67.4461 78.289C67.7485 77.8906 68.2058 77.6915 68.818 77.6915ZM76.8504 79.971C76.8799 80.1554 76.8946 80.362 76.8946 80.5906L76.8835 80.9337C76.8835 81.0222 76.8393 81.0665 76.7508 81.0665H73.2878C73.2509 81.0665 73.2325 81.0849 73.2325 81.1218C73.2546 81.3652 73.2878 81.5312 73.3321 81.6197C73.5091 82.1509 73.9406 82.4201 74.6265 82.4275C75.1281 82.4275 75.5264 82.221 75.8214 81.8079C75.8509 81.7636 75.8878 81.7415 75.9321 81.7415C75.9616 81.7415 75.9874 81.7525 76.0095 81.7747L76.6955 82.339C76.7618 82.3906 76.7729 82.4497 76.7287 82.5161C76.5 82.8406 76.1939 83.0915 75.8104 83.2685C75.4342 83.4456 75.0138 83.5341 74.5491 83.5341C73.9738 83.5341 73.4833 83.405 73.0776 83.1468C72.6793 82.8886 72.388 82.5271 72.2036 82.0624C72.0339 81.664 71.9491 81.1107 71.9491 80.4025C71.9491 79.9747 71.9933 79.6279 72.0819 79.3624C72.2294 78.846 72.506 78.4365 72.9116 78.1341C73.3247 77.839 73.8189 77.6915 74.3942 77.6915C75.8472 77.6915 76.666 78.4513 76.8504 79.971ZM74.3942 78.798C74.1213 78.798 73.8926 78.8681 73.7082 79.0083C73.5312 79.1411 73.4058 79.3292 73.3321 79.5726C73.2878 79.698 73.2583 79.8603 73.2435 80.0595C73.2288 80.0964 73.2435 80.1148 73.2878 80.1148H75.5338C75.5706 80.1148 75.5891 80.0964 75.5891 80.0595C75.5743 79.8751 75.5522 79.7349 75.5227 79.639C75.4563 79.3734 75.3236 79.1669 75.1244 79.0193C74.9326 78.8718 74.6892 78.798 74.3942 78.798ZM80.081 83.5009C79.6163 83.5009 79.207 83.4308 78.8529 83.2906C78.5062 83.1579 78.237 82.9697 78.0453 82.7263C77.8535 82.4902 77.7576 82.2247 77.7576 81.9296V81.83C77.7576 81.7931 77.7687 81.7599 77.7908 81.7304C77.8203 81.7083 77.8535 81.6972 77.8904 81.6972H78.864C78.9009 81.6972 78.9304 81.7083 78.9525 81.7304C78.982 81.7599 78.9967 81.7931 78.9967 81.83V81.8521C78.9967 82.0365 79.0963 82.1988 79.2955 82.339C79.502 82.4718 79.7602 82.5382 80.0699 82.5382C80.365 82.5382 80.6047 82.4792 80.7891 82.3611C80.9735 82.2357 81.0657 82.0808 81.0657 81.8964C81.0657 81.7267 80.9882 81.5976 80.8333 81.5091C80.6858 81.4279 80.4424 81.3394 80.1031 81.2435L79.6827 81.1107C79.3065 81.0001 78.9894 80.882 78.7312 80.7566C78.4731 80.6312 78.2555 80.4579 78.0784 80.2365C77.9014 80.0226 77.8129 79.746 77.8129 79.4066C77.8129 78.8902 78.0157 78.4808 78.4214 78.1783C78.8271 77.8685 79.3619 77.7136 80.0257 77.7136C80.4756 77.7136 80.8702 77.7837 81.2095 77.9238C81.5488 78.0714 81.8106 78.2706 81.995 78.5214C82.1794 78.7796 82.2716 79.071 82.2716 79.3956C82.2716 79.4324 82.2569 79.4656 82.2274 79.4951C82.2053 79.5173 82.1758 79.5283 82.1389 79.5283H81.1984C81.1616 79.5283 81.1284 79.5173 81.0989 79.4951C81.0767 79.4656 81.0657 79.4324 81.0657 79.3956C81.0657 79.2038 80.9698 79.0451 80.778 78.9197C80.5936 78.787 80.3392 78.7206 80.0146 78.7206C79.727 78.7206 79.4909 78.7722 79.3065 78.8755C79.1295 78.9861 79.041 79.1374 79.041 79.3292C79.041 79.5062 79.1258 79.639 79.2955 79.7275C79.4725 79.8234 79.7638 79.9267 80.1695 80.0374L80.4129 80.1038C80.8038 80.2218 81.1321 80.3398 81.3976 80.4579C81.6631 80.5833 81.8881 80.7529 82.0725 80.9669C82.2569 81.1882 82.3491 81.4722 82.3491 81.8189C82.3491 82.3427 82.1426 82.7521 81.7295 83.0472C81.3165 83.3497 80.767 83.5009 80.081 83.5009ZM85.4248 83.5009C84.9601 83.5009 84.5508 83.4308 84.1967 83.2906C83.8501 83.1579 83.5809 82.9697 83.3891 82.7263C83.1973 82.4902 83.1014 82.2247 83.1014 81.9296V81.83C83.1014 81.7931 83.1125 81.7599 83.1346 81.7304C83.1641 81.7083 83.1973 81.6972 83.2342 81.6972H84.2078C84.2447 81.6972 84.2742 81.7083 84.2963 81.7304C84.3258 81.7599 84.3406 81.7931 84.3406 81.83V81.8521C84.3406 82.0365 84.4401 82.1988 84.6393 82.339C84.8458 82.4718 85.104 82.5382 85.4138 82.5382C85.7088 82.5382 85.9485 82.4792 86.1329 82.3611C86.3173 82.2357 86.4095 82.0808 86.4095 81.8964C86.4095 81.7267 86.3321 81.5976 86.1772 81.5091C86.0296 81.4279 85.7862 81.3394 85.447 81.2435L85.0265 81.1107C84.6504 81.0001 84.3332 80.882 84.075 80.7566C83.8169 80.6312 83.5993 80.4579 83.4223 80.2365C83.2453 80.0226 83.1567 79.746 83.1567 79.4066C83.1567 78.8902 83.3596 78.4808 83.7653 78.1783C84.1709 77.8685 84.7057 77.7136 85.3695 77.7136C85.8194 77.7136 86.2141 77.7837 86.5533 77.9238C86.8926 78.0714 87.1545 78.2706 87.3389 78.5214C87.5233 78.7796 87.6155 79.071 87.6155 79.3956C87.6155 79.4324 87.6007 79.4656 87.5712 79.4951C87.5491 79.5173 87.5196 79.5283 87.4827 79.5283H86.5423C86.5054 79.5283 86.4722 79.5173 86.4427 79.4951C86.4206 79.4656 86.4095 79.4324 86.4095 79.3956C86.4095 79.2038 86.3136 79.0451 86.1218 78.9197C85.9374 78.787 85.683 78.7206 85.3584 78.7206C85.0708 78.7206 84.8348 78.7722 84.6504 78.8755C84.4733 78.9861 84.3848 79.1374 84.3848 79.3292C84.3848 79.5062 84.4697 79.639 84.6393 79.7275C84.8163 79.8234 85.1077 79.9267 85.5133 80.0374L85.7567 80.1038C86.1477 80.2218 86.4759 80.3398 86.7414 80.4579C87.007 80.5833 87.2319 80.7529 87.4163 80.9669C87.6007 81.1882 87.6929 81.4722 87.6929 81.8189C87.6929 82.3427 87.4864 82.7521 87.0733 83.0472C86.6603 83.3497 86.1108 83.5009 85.4248 83.5009Z" fill="white"></path><path d="M34.4758 99.0369C34.3947 99.0369 34.3431 99 34.3209 98.9263L32.3626 91.4349L32.3516 91.3906C32.3516 91.3242 32.3921 91.291 32.4733 91.291H33.8452C33.9189 91.291 33.9669 91.3279 33.989 91.4017L35.0401 95.9054C35.0474 95.9349 35.0585 95.9496 35.0733 95.9496C35.088 95.9496 35.0991 95.9349 35.1065 95.9054L36.1243 91.4127C36.1465 91.3316 36.1944 91.291 36.2682 91.291H37.6069C37.688 91.291 37.7396 91.3279 37.7618 91.4017L38.8682 95.9054C38.8755 95.9275 38.8866 95.9422 38.9014 95.9496C38.9161 95.9496 38.9272 95.9349 38.9345 95.9054L39.9524 91.4127C39.9745 91.3316 40.0225 91.291 40.0962 91.291H41.4018C41.505 91.291 41.5456 91.339 41.5235 91.4349L39.709 98.9263C39.6869 99 39.6353 99.0369 39.5541 99.0369H38.2375C38.1638 99.0369 38.1158 99 38.0937 98.9263L36.9652 94.1349C36.9578 94.1054 36.9467 94.0906 36.932 94.0906C36.9172 94.0906 36.9062 94.1054 36.8988 94.1349L35.8477 98.9152C35.833 98.9963 35.785 99.0369 35.7039 99.0369H34.4758ZM42.5967 99.0369C42.5598 99.0369 42.5266 99.0222 42.4971 98.9927C42.475 98.9705 42.4639 98.941 42.4639 98.9041V91.4238C42.4639 91.3869 42.475 91.3574 42.4971 91.3353C42.5266 91.3058 42.5598 91.291 42.5967 91.291H43.8911C43.928 91.291 43.9575 91.3058 43.9796 91.3353C44.0092 91.3574 44.0239 91.3869 44.0239 91.4238V98.9041C44.0239 98.941 44.0092 98.9705 43.9796 98.9927C43.9575 99.0222 43.928 99.0369 43.8911 99.0369H42.5967ZM49.8214 91.4238C49.8214 91.3869 49.8324 91.3574 49.8545 91.3353C49.884 91.3058 49.9172 91.291 49.9541 91.291H51.2486C51.2855 91.291 51.315 91.3058 51.3371 91.3353C51.3666 91.3574 51.3813 91.3869 51.3813 91.4238V98.9041C51.3813 98.941 51.3666 98.9705 51.3371 98.9927C51.315 99.0222 51.2855 99.0369 51.2486 99.0369H49.9984C49.9246 99.0369 49.873 99.0074 49.8435 98.9484L46.9779 94.2123C46.9632 94.1902 46.9484 94.1828 46.9337 94.1902C46.9189 94.1902 46.9116 94.205 46.9116 94.2345L46.9337 98.9041C46.9337 98.941 46.9189 98.9705 46.8894 98.9927C46.8673 99.0222 46.8378 99.0369 46.8009 99.0369H45.5065C45.4696 99.0369 45.4364 99.0222 45.4069 98.9927C45.3848 98.9705 45.3737 98.941 45.3737 98.9041V91.4238C45.3737 91.3869 45.3848 91.3574 45.4069 91.3353C45.4364 91.3058 45.4696 91.291 45.5065 91.291H46.7567C46.8304 91.291 46.8821 91.3205 46.9116 91.3795L49.766 96.0935C49.7808 96.1156 49.7955 96.123 49.8103 96.1156C49.825 96.1156 49.8324 96.1009 49.8324 96.0713L49.8214 91.4238ZM58.075 91.291C58.1119 91.291 58.1414 91.3058 58.1635 91.3353C58.193 91.3574 58.2077 91.3869 58.2077 91.4238V92.5082C58.2077 92.5451 58.193 92.5746 58.1635 92.5968C58.1414 92.6263 58.1119 92.641 58.075 92.641H56.0945C56.0577 92.641 56.0392 92.6595 56.0392 92.6963V98.9041C56.0392 98.941 56.0245 98.9705 55.995 98.9927C55.9728 99.0222 55.9433 99.0369 55.9065 99.0369H54.612C54.5751 99.0369 54.5419 99.0222 54.5124 98.9927C54.4903 98.9705 54.4792 98.941 54.4792 98.9041V92.6963C54.4792 92.6595 54.4608 92.641 54.4239 92.641H52.4988C52.4619 92.641 52.4287 92.6263 52.3992 92.5968C52.3771 92.5746 52.366 92.5451 52.366 92.5082V91.4238C52.366 91.3869 52.3771 91.3574 52.3992 91.3353C52.4287 91.3058 52.4619 91.291 52.4988 91.291H58.075ZM64.5805 92.4972C64.5805 92.534 64.5694 92.5636 64.5473 92.5857C64.5178 92.6152 64.4846 92.6299 64.4477 92.6299H60.8188C60.7819 92.6299 60.7635 92.6484 60.7635 92.6853V94.4004C60.7635 94.4373 60.7819 94.4558 60.8188 94.4558H63.1975C63.2344 94.4558 63.2639 94.4668 63.286 94.489C63.3155 94.5185 63.3303 94.5517 63.3303 94.5886V95.6619C63.3303 95.6988 63.3155 95.732 63.286 95.7615C63.2639 95.7836 63.2344 95.7947 63.1975 95.7947H60.8188C60.7819 95.7947 60.7635 95.8131 60.7635 95.85V97.6427C60.7635 97.6795 60.7819 97.698 60.8188 97.698H64.4477C64.4846 97.698 64.5178 97.709 64.5473 97.7312C64.5694 97.7607 64.5805 97.7939 64.5805 97.8308V98.9041C64.5805 98.941 64.5694 98.9705 64.5473 98.9927C64.5178 99.0222 64.4846 99.0369 64.4477 99.0369H59.3362C59.2994 99.0369 59.2662 99.0222 59.2367 98.9927C59.2145 98.9705 59.2035 98.941 59.2035 98.9041V91.4238C59.2035 91.3869 59.2145 91.3574 59.2367 91.3353C59.2662 91.3058 59.2994 91.291 59.3362 91.291H64.4477C64.4846 91.291 64.5178 91.3058 64.5473 91.3353C64.5694 91.3574 64.5805 91.3869 64.5805 91.4238V92.4972ZM69.9133 99.0369C69.8395 99.0369 69.7879 99.0037 69.7584 98.9373L68.3754 95.8722C68.3606 95.8427 68.3385 95.8279 68.309 95.8279H67.2801C67.2432 95.8279 67.2248 95.8463 67.2248 95.8832V98.9041C67.2248 98.941 67.21 98.9705 67.1805 98.9927C67.1584 99.0222 67.1289 99.0369 67.092 99.0369H65.7975C65.7606 99.0369 65.7275 99.0222 65.6979 98.9927C65.6758 98.9705 65.6648 98.941 65.6648 98.9041V91.4238C65.6648 91.3869 65.6758 91.3574 65.6979 91.3353C65.7275 91.3058 65.7606 91.291 65.7975 91.291H68.9618C69.4338 91.291 69.8469 91.3869 70.2009 91.5787C70.5623 91.7705 70.8389 92.0435 71.0307 92.3976C71.2299 92.7517 71.3294 93.1611 71.3294 93.6259C71.3294 94.1275 71.204 94.5554 70.9533 94.9095C70.7025 95.2709 70.3521 95.5254 69.9022 95.673C69.8653 95.6877 69.8543 95.7136 69.869 95.7504L71.3737 98.882C71.3885 98.9115 71.3958 98.9336 71.3958 98.9484C71.3958 99.0074 71.3553 99.0369 71.2741 99.0369H69.9133ZM67.2801 92.6299C67.2432 92.6299 67.2248 92.6484 67.2248 92.6853V94.5775C67.2248 94.6144 67.2432 94.6328 67.2801 94.6328H68.7294C69.0392 94.6328 69.29 94.5406 69.4818 94.3562C69.6809 94.1717 69.7805 93.932 69.7805 93.6369C69.7805 93.3418 69.6809 93.0984 69.4818 92.9066C69.29 92.7222 69.0392 92.6299 68.7294 92.6299H67.2801ZM42.1099 108.033C42.0951 108.048 42.0914 108.063 42.0988 108.077C42.1062 108.092 42.1209 108.1 42.1431 108.1H45.1414C45.1782 108.1 45.2114 108.111 45.2409 108.133C45.2631 108.162 45.2741 108.196 45.2741 108.232V109.306C45.2741 109.343 45.2631 109.372 45.2409 109.394C45.2114 109.424 45.1782 109.439 45.1414 109.439H40.1626C40.1257 109.439 40.0926 109.424 40.0631 109.394C40.0409 109.372 40.0299 109.343 40.0299 109.306V108.288C40.0299 108.221 40.052 108.166 40.0962 108.122C40.4577 107.768 40.8265 107.384 41.2026 106.971C41.5788 106.55 41.8148 106.289 41.9107 106.185C42.1172 105.942 42.3275 105.709 42.5414 105.488C43.2126 104.743 43.5482 104.19 43.5482 103.828C43.5482 103.57 43.456 103.356 43.2716 103.187C43.0872 103.024 42.8474 102.943 42.5524 102.943C42.2574 102.943 42.0177 103.024 41.8333 103.187C41.6489 103.356 41.5567 103.577 41.5567 103.85V104.127C41.5567 104.164 41.5419 104.197 41.5124 104.227C41.4903 104.249 41.4608 104.26 41.4239 104.26H40.1184C40.0815 104.26 40.052 104.249 40.0299 104.227C40.0004 104.197 39.9856 104.164 39.9856 104.127V103.607C40.0077 103.209 40.1331 102.855 40.3618 102.545C40.5904 102.242 40.8928 102.01 41.269 101.848C41.6526 101.685 42.0804 101.604 42.5524 101.604C43.0761 101.604 43.5334 101.7 43.9243 101.892C44.3079 102.091 44.6066 102.357 44.8205 102.689C45.027 103.021 45.1303 103.389 45.1303 103.795C45.1303 104.105 45.0528 104.422 44.8979 104.747C44.7431 105.071 44.5107 105.422 44.2009 105.798C43.9723 106.086 43.7252 106.37 43.4596 106.65C43.1941 106.93 42.7995 107.336 42.2758 107.867L42.1099 108.033ZM48.8699 109.56C48.0585 109.56 47.4168 109.332 46.9448 108.874C46.4727 108.424 46.2367 107.808 46.2367 107.026V104.105C46.2367 103.338 46.4727 102.729 46.9448 102.279C47.4168 101.829 48.0585 101.604 48.8699 101.604C49.6812 101.604 50.3266 101.829 50.806 102.279C51.2781 102.729 51.5141 103.338 51.5141 104.105V107.026C51.5141 107.808 51.2781 108.424 50.806 108.874C50.3266 109.332 49.6812 109.56 48.8699 109.56ZM48.8699 108.221C49.2018 108.221 49.4673 108.118 49.6665 107.912C49.8582 107.712 49.9541 107.443 49.9541 107.104V104.061C49.9541 103.721 49.8582 103.452 49.6665 103.253C49.4673 103.046 49.2018 102.943 48.8699 102.943C48.5453 102.943 48.2872 103.046 48.0954 103.253C47.8962 103.452 47.7967 103.721 47.7967 104.061V107.104C47.7967 107.443 47.8962 107.712 48.0954 107.912C48.2872 108.118 48.5453 108.221 48.8699 108.221ZM54.612 108.033C54.5972 108.048 54.5935 108.063 54.6009 108.077C54.6083 108.092 54.6231 108.1 54.6452 108.1H57.6435C57.6804 108.1 57.7135 108.111 57.7431 108.133C57.7652 108.162 57.7762 108.196 57.7762 108.232V109.306C57.7762 109.343 57.7652 109.372 57.7431 109.394C57.7135 109.424 57.6804 109.439 57.6435 109.439H52.6648C52.6279 109.439 52.5984 109.424 52.5762 109.394C52.5467 109.372 52.532 109.343 52.532 109.306V108.288C52.532 108.221 52.5541 108.166 52.5984 108.122C52.9598 107.768 53.3286 107.384 53.7048 106.971C54.0809 106.55 54.317 106.289 54.4128 106.185C54.6194 105.942 54.8296 105.709 55.0435 105.488C55.7147 104.743 56.0503 104.19 56.0503 103.828C56.0503 103.57 55.9581 103.356 55.7737 103.187C55.5893 103.024 55.3496 102.943 55.0545 102.943C54.7595 102.943 54.5198 103.024 54.3354 103.187C54.151 103.356 54.0588 103.577 54.0588 103.85V104.127C54.0588 104.164 54.0477 104.197 54.0256 104.227C53.9961 104.249 53.9629 104.26 53.926 104.26H52.6205C52.5836 104.26 52.5541 104.249 52.532 104.227C52.5025 104.197 52.4877 104.164 52.4877 104.127V103.607C52.5099 103.209 52.6353 102.855 52.8639 102.545C53.0926 102.242 53.3987 102.01 53.7822 101.848C54.1584 101.685 54.5825 101.604 55.0545 101.604C55.5782 101.604 56.0355 101.7 56.4265 101.892C56.81 102.091 57.1087 102.357 57.3226 102.689C57.5292 103.021 57.6324 103.389 57.6324 103.795C57.6324 104.105 57.555 104.422 57.4001 104.747C57.2452 105.071 57.0128 105.422 56.7031 105.798C56.4744 106.086 56.2273 106.37 55.9618 106.65C55.6962 106.93 55.3016 107.336 54.7779 107.867L54.612 108.033ZM63.3524 105.743C63.4999 106.082 63.5737 106.473 63.5737 106.916C63.5737 107.314 63.5073 107.683 63.3745 108.022C63.1975 108.494 62.9025 108.863 62.4894 109.129C62.069 109.394 61.5748 109.527 61.0069 109.527C60.4463 109.527 59.9558 109.387 59.5354 109.107C59.1076 108.826 58.8015 108.446 58.6171 107.967C58.5138 107.679 58.4548 107.369 58.4401 107.037C58.4401 106.949 58.4843 106.905 58.5728 106.905H59.8784C59.9669 106.905 60.0111 106.949 60.0111 107.037C60.0406 107.281 60.0812 107.462 60.1328 107.58C60.1992 107.771 60.3099 107.919 60.4648 108.022C60.6123 108.133 60.7893 108.188 60.9958 108.188C61.4089 108.188 61.6928 108.007 61.8477 107.646C61.951 107.425 62.0026 107.166 62.0026 106.871C62.0026 106.525 61.9473 106.241 61.8367 106.019C61.667 105.673 61.3831 105.499 60.9848 105.499C60.9036 105.499 60.8188 105.521 60.7303 105.566C60.6418 105.617 60.5348 105.687 60.4094 105.776C60.3799 105.798 60.3504 105.809 60.3209 105.809C60.2767 105.809 60.2435 105.787 60.2214 105.743L59.5686 104.824C59.5538 104.802 59.5465 104.776 59.5465 104.747C59.5465 104.702 59.5612 104.666 59.5907 104.636L61.3499 103.098C61.3646 103.083 61.372 103.068 61.372 103.054C61.3646 103.039 61.3499 103.032 61.3277 103.032H58.7277C58.6909 103.032 58.6614 103.017 58.6392 102.987C58.6097 102.965 58.595 102.936 58.595 102.899V101.825C58.595 101.789 58.6097 101.759 58.6392 101.737C58.6614 101.707 58.6909 101.693 58.7277 101.693H63.3414C63.3782 101.693 63.4114 101.707 63.4409 101.737C63.4631 101.759 63.4741 101.789 63.4741 101.825V103.043C63.4741 103.102 63.4483 103.157 63.3967 103.209L61.9473 104.537C61.9326 104.551 61.9289 104.566 61.9362 104.581C61.9362 104.596 61.951 104.603 61.9805 104.603C62.6222 104.728 63.0795 105.108 63.3524 105.743Z" fill="#252530"></path></svg>