<svg xmlns="http://www.w3.org/2000/svg" width="35" height="35" viewBox="0 0 35 35" fill="none"><path d="M17.5 0C14.0388 0 10.6554 1.02636 7.77753 2.94928C4.89967 4.87221 2.65665 7.60533 1.33212 10.803C0.00758243 14.0007 -0.338976 17.5194 0.336265 20.9141C1.01151 24.3087 2.67822 27.4269 5.12564 29.8744C7.57306 32.3218 10.6913 33.9885 14.0859 34.6637C17.4806 35.339 20.9993 34.9924 24.197 33.6679C27.3947 32.3434 30.1278 30.1003 32.0507 27.2225C33.9736 24.3446 35 20.9612 35 17.5C34.9951 12.8602 33.1498 8.41187 29.869 5.13104C26.5881 1.85022 22.1398 0.00489969 17.5 0ZM13.0627 24.2308H21.9373C21.0337 27.3168 19.5192 30.0983 17.5 32.2892C15.4808 30.0983 13.9663 27.3168 13.0627 24.2308ZM12.4519 21.5385C12.0055 18.8647 12.0055 16.1353 12.4519 13.4615H22.5481C22.9945 16.1353 22.9945 18.8647 22.5481 21.5385H12.4519ZM2.69231 17.5C2.69114 16.1344 2.87973 14.7752 3.25265 13.4615H9.72428C9.32268 16.1389 9.32268 18.8611 9.72428 21.5385H3.25265C2.87973 20.2248 2.69114 18.8656 2.69231 17.5ZM21.9373 10.7692H13.0627C13.9663 7.68317 15.4808 4.90168 17.5 2.71082C19.5192 4.90168 21.0337 7.68317 21.9373 10.7692ZM25.2757 13.4615H31.7474C32.4945 16.102 32.4945 18.898 31.7474 21.5385H25.2757C25.6773 18.8611 25.6773 16.1389 25.2757 13.4615ZM30.6873 10.7692H24.7255C24.0385 8.066 22.8848 5.50349 21.3163 3.19711C23.3202 3.73561 25.1891 4.68751 26.803 5.99161C28.4169 7.29571 29.74 8.92313 30.6873 10.7692ZM13.6837 3.19711C12.1152 5.50349 10.9615 8.066 10.2745 10.7692H4.31275C5.25998 8.92313 6.58308 7.29571 8.19698 5.99161C9.81087 4.68751 11.6798 3.73561 13.6837 3.19711ZM4.31275 24.2308H10.2745C10.9615 26.934 12.1152 29.4965 13.6837 31.8029C11.6798 31.2644 9.81087 30.3125 8.19698 29.0084C6.58308 27.7043 5.25998 26.0769 4.31275 24.2308ZM21.3163 31.8029C22.8848 29.4965 24.0385 26.934 24.7255 24.2308H30.6873C29.74 26.0769 28.4169 27.7043 26.803 29.0084C25.1891 30.3125 23.3202 31.2644 21.3163 31.8029Z" fill="white"/></svg>