<svg xmlns="http://www.w3.org/2000/svg" width="34" height="21" viewBox="0 0 34 21" fill="none"><g id="GERMANY_2_"><g id="Group"><g id="Group_2"><g id="Clip path group"><mask id="mask0_9372_56737" style="mask-type:luminance" maskUnits="userSpaceOnUse" x="0" y="0" width="34" height="21"><g id="SVGID_00000135668709428766767390000006023584811776771739_"><path id="Vector" d="M33.564 0.710938H0V20.2889H33.564V0.710938Z" fill="white"></path></g></mask><g mask="url(#mask0_9372_56737)"><path id="Vector_2" d="M33.564 0.710938H0V7.23395H33.564V0.710938Z" fill="black"></path></g></g><g id="Clip path group_2"><mask id="mask1_9372_56737" style="mask-type:luminance" maskUnits="userSpaceOnUse" x="0" y="0" width="34" height="21"><g id="SVGID_00000135668709428766767390000006023584811776771739__2"><path id="Vector_3" d="M33.564 0.710938H0V20.2889H33.564V0.710938Z" fill="white"></path></g></mask><g mask="url(#mask1_9372_56737)"><path id="Vector_4" d="M33.564 7.23389H0V13.7609H33.564V7.23389Z" fill="#E1001F"></path></g></g><g id="Clip path group_3"><mask id="mask2_9372_56737" style="mask-type:luminance" maskUnits="userSpaceOnUse" x="0" y="0" width="34" height="21"><g id="SVGID_00000135668709428766767390000006023584811776771739__3"><path id="Vector_5" d="M33.564 0.710938H0V20.2889H33.564V0.710938Z" fill="white"></path></g></mask><g mask="url(#mask2_9372_56737)"><path id="Vector_6" d="M33.564 13.761H0V20.288H33.564V13.761Z" fill="#F6D928"></path></g></g><g id="Clip path group_4"><mask id="mask3_9372_56737" style="mask-type:luminance" maskUnits="userSpaceOnUse" x="0" y="0" width="34" height="21"><g id="SVGID_00000135668709428766767390000006023584811776771739__4"><path id="Vector_7" d="M33.564 0.710938H0V20.2889H33.564V0.710938Z" fill="white"></path></g></mask><g mask="url(#mask3_9372_56737)"><g id="Group_3"><g id="Clip path group_5"><mask id="mask4_9372_56737" style="mask-type:luminance" maskUnits="userSpaceOnUse" x="0" y="0" width="34" height="21"><g id="SVGID_00000153679188644278612020000015675038462459891607_"><path id="Vector_8" d="M33.564 0.710938H0V20.2889H33.564V0.710938Z" fill="white"></path></g></mask><g mask="url(#mask4_9372_56737)"><path id="Vector_9" d="M12.136 5.34399V13.18C12.136 16.116 16.077 15.762 16.781 16.934C17.485 15.762 21.428 16.116 21.428 13.18V5.34399H12.136Z" fill="#F6D728"></path></g></g><g id="Clip path group_6"><mask id="mask5_9372_56737" style="mask-type:luminance" maskUnits="userSpaceOnUse" x="0" y="0" width="34" height="21"><g id="SVGID_00000153679188644278612020000015675038462459891607__2"><path id="Vector_10" d="M33.564 0.710938H0V20.2889H33.564V0.710938Z" fill="white"></path></g></mask><g mask="url(#mask5_9372_56737)"><g id="Group_4"><path id="Vector_11" d="M16.7809 16.9919L16.757 16.9489C16.507 16.5349 15.8449 16.3159 15.0779 16.0599C13.7559 15.6219 12.106 15.0739 12.106 13.1789V5.31592H21.4569V13.1789C21.4569 15.0739 19.8099 15.6219 18.4839 16.0599C17.7169 16.3159 17.0549 16.5349 16.8059 16.9489L16.7809 16.9919ZM12.1639 5.37292V13.1799C12.1639 15.0319 13.7239 15.5509 15.0989 16.0059C15.8509 16.2579 16.505 16.4729 16.782 16.8809C17.058 16.4729 17.713 16.2579 18.468 16.0059C19.84 15.5509 21.3999 15.0309 21.3999 13.1799V5.37292H12.1639Z" fill="black"></path></g></g></g><g id="Clip path group_7"><mask id="mask6_9372_56737" style="mask-type:luminance" maskUnits="userSpaceOnUse" x="0" y="0" width="34" height="21"><g id="SVGID_00000153679188644278612020000015675038462459891607__3"><path id="Vector_12" d="M33.564 0.710938H0V20.2889H33.564V0.710938Z" fill="white"></path></g></mask><g mask="url(#mask6_9372_56737)"><path id="Vector_13" d="M16.476 6.47198C16.523 6.70198 16.43 7.26499 16.312 7.45599C16.195 7.64199 15.889 7.99297 15.867 8.34497C15.749 10.109 16.407 12.663 16.781 14.493C17.157 12.663 17.813 10.108 17.696 8.34497C17.581 6.58697 17.344 6.11597 17.344 6.11597L16.476 6.47198Z" fill="black"></path></g></g><g id="Clip path group_8"><mask id="mask7_9372_56737" style="mask-type:luminance" maskUnits="userSpaceOnUse" x="0" y="0" width="34" height="21"><g id="SVGID_00000153679188644278612020000015675038462459891607__4"><path id="Vector_14" d="M33.564 0.710938H0V20.2889H33.564V0.710938Z" fill="white"></path></g></mask><g mask="url(#mask7_9372_56737)"><path id="Vector_15" d="M16.5691 6.72992C16.1321 6.69692 15.7651 6.60892 15.4661 6.47192C15.5911 6.62592 15.8751 6.75091 16.3121 6.84491L16.5691 6.72992Z" fill="#CA001C"></path></g></g><g id="Clip path group_9"><mask id="mask8_9372_56737" style="mask-type:luminance" maskUnits="userSpaceOnUse" x="0" y="0" width="34" height="21"><g id="SVGID_00000153679188644278612020000015675038462459891607__5"><path id="Vector_16" d="M33.564 0.710938H0V20.2889H33.564V0.710938Z" fill="white"></path></g></mask><g mask="url(#mask8_9372_56737)"><g id="Group_5"><path id="Vector_17" d="M16.3161 6.83197C15.8701 6.76597 15.5831 6.63898 15.4561 6.47998C15.7691 6.59498 16.1381 6.68298 16.5711 6.71198L16.5691 6.74298C16.1311 6.70998 15.7591 6.62399 15.4621 6.48099C15.6011 6.61299 15.8831 6.73997 16.3161 6.83197Z" fill="black"></path></g></g></g><g id="Clip path group_10"><mask id="mask9_9372_56737" style="mask-type:luminance" maskUnits="userSpaceOnUse" x="0" y="0" width="34" height="21"><g id="SVGID_00000153679188644278612020000015675038462459891607__6"><path id="Vector_18" d="M33.564 0.710938H0V20.2889H33.564V0.710938Z" fill="white"></path></g></mask><g mask="url(#mask9_9372_56737)"><path id="Vector_19" d="M16.4301 5.76494C15.7261 5.41294 15.3021 5.81395 15.7721 6.44695C15.8201 6.32995 16.2641 6.16394 16.4761 6.72994C16.3681 6.78994 16.1081 6.79793 15.7031 6.75093C15.9131 6.91293 16.5481 6.93894 16.6631 6.86794C16.7811 6.79794 16.4531 6.21193 16.4531 6.21193L16.4301 5.76494Z" fill="#CA001C"></path></g></g><g id="Clip path group_11"><mask id="mask10_9372_56737" style="mask-type:luminance" maskUnits="userSpaceOnUse" x="0" y="0" width="34" height="21"><g id="SVGID_00000153679188644278612020000015675038462459891607__7"><path id="Vector_20" d="M33.564 0.710938H0V20.2889H33.564V0.710938Z" fill="white"></path></g></mask><g mask="url(#mask10_9372_56737)"><g id="Group_6"><path id="Vector_21" d="M16.396 6.91994C16.156 6.91994 15.835 6.87295 15.693 6.76195C16.107 6.78395 16.364 6.77796 16.469 6.71496C16.336 6.40096 16.135 6.34794 16.027 6.34594C16.027 6.34594 16.027 6.34594 16.025 6.34594C15.898 6.34594 15.804 6.40693 15.786 6.45293C15.548 6.16993 15.502 5.90193 15.633 5.74593C15.778 5.57393 16.084 5.57593 16.436 5.75393L16.423 5.77895C16.09 5.61295 15.788 5.60494 15.656 5.76494C15.533 5.90994 15.581 6.16293 15.784 6.43493C15.782 6.37793 15.902 6.31594 16.029 6.31594C16.144 6.31794 16.359 6.37094 16.491 6.72194C16.371 6.80394 16.114 6.81194 15.701 6.76494C15.915 6.89794 16.543 6.92494 16.656 6.85494C16.733 6.80794 16.563 6.44295 16.44 6.21795C16.521 6.30395 16.795 6.80795 16.672 6.88195C16.63 6.90595 16.524 6.91994 16.396 6.91994Z" fill="black"></path></g></g></g><g id="Clip path group_12"><mask id="mask11_9372_56737" style="mask-type:luminance" maskUnits="userSpaceOnUse" x="0" y="0" width="34" height="21"><g id="SVGID_00000153679188644278612020000015675038462459891607__8"><path id="Vector_22" d="M33.564 0.710938H0V20.2889H33.564V0.710938Z" fill="white"></path></g></mask><g mask="url(#mask11_9372_56737)"><path id="Vector_23" d="M17.299 6.25799C17.417 6.23499 17.604 6.16398 17.744 6.02798C17.485 6.02798 17.015 5.88299 16.827 5.79199C16.64 5.69599 16.312 5.48697 16.312 5.88397C16.312 6.28397 16.735 6.58898 16.663 6.91498L17.299 6.25799Z" fill="black"></path></g></g><g id="Clip path group_13"><mask id="mask12_9372_56737" style="mask-type:luminance" maskUnits="userSpaceOnUse" x="0" y="0" width="34" height="21"><g id="SVGID_00000153679188644278612020000015675038462459891607__9"><path id="Vector_24" d="M33.564 0.710938H0V20.2889H33.564V0.710938Z" fill="white"></path></g></mask><g mask="url(#mask12_9372_56737)"><path id="Vector_25" d="M16.7129 5.99988C16.7129 5.99988 16.4769 5.8829 16.4309 5.8379C16.3849 5.7909 16.3129 6.09589 16.5239 6.18989C16.5539 6.10889 16.6169 6.04888 16.7129 5.99988Z" fill="#F0F7FF"></path></g></g><g id="Clip path group_14"><mask id="mask13_9372_56737" style="mask-type:luminance" maskUnits="userSpaceOnUse" x="0" y="0" width="34" height="21"><g id="SVGID_00000153679188644278612020000015675038462459891607__10"><path id="Vector_26" d="M33.564 0.710938H0V20.2889H33.564V0.710938Z" fill="white"></path></g></mask><g mask="url(#mask13_9372_56737)"><path id="Vector_27" d="M16.5479 5.85889C16.4369 5.89189 16.4139 5.97588 16.4769 6.11688C16.4939 6.00988 16.5699 5.93888 16.7129 5.90588L16.5479 5.85889Z" fill="black"></path></g></g><g id="Clip path group_15"><mask id="mask14_9372_56737" style="mask-type:luminance" maskUnits="userSpaceOnUse" x="0" y="0" width="34" height="21"><g id="SVGID_00000153679188644278612020000015675038462459891607__11"><path id="Vector_28" d="M33.564 0.710938H0V20.2889H33.564V0.710938Z" fill="white"></path></g></mask><g mask="url(#mask14_9372_56737)"><path id="Vector_29" d="M17.813 9.05103V11.821L20.957 14.401V7.52502C20.957 6.99402 20.849 6.63402 20.63 6.44702V7.879L17.813 9.05103Z" fill="black"></path></g></g><g id="Clip path group_16"><mask id="mask15_9372_56737" style="mask-type:luminance" maskUnits="userSpaceOnUse" x="0" y="0" width="34" height="21"><g id="SVGID_00000153679188644278612020000015675038462459891607__12"><path id="Vector_30" d="M33.564 0.710938H0V20.2889H33.564V0.710938Z" fill="white"></path></g></mask><g mask="url(#mask15_9372_56737)"><g id="Group_7"><path id="Vector_31" d="M18.4449 14.096H18.356V8.22998H18.4449V14.096Z" fill="#F6D728"></path></g></g></g><g id="Clip path group_17"><mask id="mask16_9372_56737" style="mask-type:luminance" maskUnits="userSpaceOnUse" x="0" y="0" width="34" height="21"><g id="SVGID_00000153679188644278612020000015675038462459891607__13"><path id="Vector_32" d="M33.564 0.710938H0V20.2889H33.564V0.710938Z" fill="white"></path></g></mask><g mask="url(#mask16_9372_56737)"><g id="Group_8"><path id="Vector_33" d="M19.1029 14.096H19.0139V8.22998H19.1029V14.096Z" fill="#F6D728"></path></g></g></g><g id="Clip path group_18"><mask id="mask17_9372_56737" style="mask-type:luminance" maskUnits="userSpaceOnUse" x="0" y="0" width="34" height="21"><g id="SVGID_00000153679188644278612020000015675038462459891607__14"><path id="Vector_34" d="M33.564 0.710938H0V20.2889H33.564V0.710938Z" fill="white"></path></g></mask><g mask="url(#mask17_9372_56737)"><g id="Group_9"><path id="Vector_35" d="M19.7599 14.096H19.6709V8.22998H19.7599V14.096Z" fill="#F6D728"></path></g></g></g><g id="Clip path group_19"><mask id="mask18_9372_56737" style="mask-type:luminance" maskUnits="userSpaceOnUse" x="0" y="0" width="34" height="21"><g id="SVGID_00000153679188644278612020000015675038462459891607__15"><path id="Vector_36" d="M33.564 0.710938H0V20.2889H33.564V0.710938Z" fill="white"></path></g></mask><g mask="url(#mask18_9372_56737)"><g id="Group_10"><path id="Vector_37" d="M20.4161 14.096H20.3281V8.22998H20.4161V14.096Z" fill="#F6D728"></path></g></g></g><g id="Clip path group_20"><mask id="mask19_9372_56737" style="mask-type:luminance" maskUnits="userSpaceOnUse" x="0" y="0" width="34" height="21"><g id="SVGID_00000153679188644278612020000015675038462459891607__16"><path id="Vector_38" d="M33.564 0.710938H0V20.2889H33.564V0.710938Z" fill="white"></path></g></mask><g mask="url(#mask19_9372_56737)"><path id="Vector_39" d="M17.2031 9.56799C19.3151 9.56799 20.2071 8.88597 20.6541 8.37097V6.47299C20.8851 6.40699 21.0121 6.23497 21.0291 5.95297C20.3711 6.49397 19.3391 5.22598 18.7281 6.54098C19.0581 7.19698 19.7141 7.12898 19.9491 6.75198C20.4191 7.14998 20.0431 8.65196 17.2031 8.62896V9.56799Z" fill="black"></path></g></g><g id="Clip path group_21"><mask id="mask20_9372_56737" style="mask-type:luminance" maskUnits="userSpaceOnUse" x="0" y="0" width="34" height="21"><g id="SVGID_00000153679188644278612020000015675038462459891607__17"><path id="Vector_40" d="M33.564 0.710938H0V20.2889H33.564V0.710938Z" fill="white"></path></g></mask><g mask="url(#mask20_9372_56737)"><path id="Vector_41" d="M17.9771 14.1639C17.8131 14.3769 17.9541 14.566 18.0951 14.637C18.0461 14.494 18.0721 14.364 18.1661 14.239L17.9771 14.1639Z" fill="#CA001C"></path></g></g><g id="Clip path group_22"><mask id="mask21_9372_56737" style="mask-type:luminance" maskUnits="userSpaceOnUse" x="0" y="0" width="34" height="21"><g id="SVGID_00000153679188644278612020000015675038462459891607__18"><path id="Vector_42" d="M33.564 0.710938H0V20.2889H33.564V0.710938Z" fill="white"></path></g></mask><g mask="url(#mask21_9372_56737)"><g id="Group_11"><path id="Vector_43" d="M18.1089 14.633C18.0129 14.612 17.9209 14.5309 17.8959 14.4179C17.8759 14.3339 17.9009 14.242 17.9649 14.158L17.9869 14.176C17.9259 14.254 17.9059 14.3339 17.9229 14.4139C17.9479 14.5139 18.0299 14.5899 18.1019 14.6209C18.0329 14.4939 18.0579 14.357 18.1539 14.226C18.0859 14.367 18.0649 14.494 18.1089 14.633Z" fill="black"></path></g></g></g><g id="Clip path group_23"><mask id="mask22_9372_56737" style="mask-type:luminance" maskUnits="userSpaceOnUse" x="0" y="0" width="34" height="21"><g id="SVGID_00000153679188644278612020000015675038462459891607__19"><path id="Vector_44" d="M33.564 0.710938H0V20.2889H33.564V0.710938Z" fill="white"></path></g></mask><g mask="url(#mask22_9372_56737)"><path id="Vector_45" d="M18.8 14.965C18.815 15.059 18.7679 15.1759 18.6589 15.3189C18.9409 15.2469 19.0579 15.151 18.9639 14.989L18.8 14.965Z" fill="#CA001C"></path></g></g><g id="Clip path group_24"><mask id="mask23_9372_56737" style="mask-type:luminance" maskUnits="userSpaceOnUse" x="0" y="0" width="34" height="21"><g id="SVGID_00000153679188644278612020000015675038462459891607__20"><path id="Vector_46" d="M33.564 0.710938H0V20.2889H33.564V0.710938Z" fill="white"></path></g></mask><g mask="url(#mask23_9372_56737)"><g id="Group_12"><path id="Vector_47" d="M18.6631 15.3299C18.7541 15.1719 18.8001 15.0569 18.7841 14.9669L18.8141 14.9629C18.8301 15.0609 18.7821 15.1839 18.6691 15.3239C18.8421 15.2539 18.9421 15.2009 18.9701 15.1329C18.9891 15.0939 18.9811 15.0489 18.9501 14.9959C19.0121 15.0429 19.0181 15.0979 19.0001 15.1439C18.9661 15.2219 18.8581 15.2809 18.6631 15.3299Z" fill="black"></path></g></g></g><g id="Clip path group_25"><mask id="mask24_9372_56737" style="mask-type:luminance" maskUnits="userSpaceOnUse" x="0" y="0" width="34" height="21"><g id="SVGID_00000153679188644278612020000015675038462459891607__21"><path id="Vector_48" d="M33.564 0.710938H0V20.2889H33.564V0.710938Z" fill="white"></path></g></mask><g mask="url(#mask24_9372_56737)"><path id="Vector_49" d="M19.7371 14.6109C19.7851 14.7219 19.7931 14.8469 19.7621 14.9879C19.9731 14.7989 20.0421 14.5429 19.8781 14.4939L19.7371 14.6109Z" fill="#CA001C"></path></g></g><g id="Clip path group_26"><mask id="mask25_9372_56737" style="mask-type:luminance" maskUnits="userSpaceOnUse" x="0" y="0" width="34" height="21"><g id="SVGID_00000153679188644278612020000015675038462459891607__22"><path id="Vector_50" d="M33.564 0.710938H0V20.2889H33.564V0.710938Z" fill="white"></path></g></mask><g mask="url(#mask25_9372_56737)"><g id="Group_13"><path id="Vector_51" d="M19.7719 14.9979C19.7769 14.8479 19.7699 14.7229 19.7219 14.6169L19.7509 14.6069C19.7989 14.7179 19.8069 14.8469 19.7739 14.9919C19.8879 14.8529 19.9729 14.6909 19.9499 14.5899C19.9409 14.5469 19.9149 14.5199 19.8739 14.5099C19.9349 14.4939 19.9669 14.5309 19.9789 14.5819C20.0069 14.6949 19.9199 14.8649 19.7719 14.9979Z" fill="black"></path></g></g></g><g id="Clip path group_27"><mask id="mask26_9372_56737" style="mask-type:luminance" maskUnits="userSpaceOnUse" x="0" y="0" width="34" height="21"><g id="SVGID_00000153679188644278612020000015675038462459891607__23"><path id="Vector_52" d="M33.564 0.710938H0V20.2889H33.564V0.710938Z" fill="white"></path></g></mask><g mask="url(#mask26_9372_56737)"><path id="Vector_53" d="M19.7149 13.7669C19.7929 13.7849 19.8699 13.8589 19.9489 14.0009C19.9729 13.7429 19.9259 13.6029 19.6909 13.5559L19.7149 13.7669Z" fill="#CA001C"></path></g></g><g id="Clip path group_28"><mask id="mask27_9372_56737" style="mask-type:luminance" maskUnits="userSpaceOnUse" x="0" y="0" width="34" height="21"><g id="SVGID_00000153679188644278612020000015675038462459891607__24"><path id="Vector_54" d="M33.564 0.710938H0V20.2889H33.564V0.710938Z" fill="white"></path></g></mask><g mask="url(#mask27_9372_56737)"><g id="Group_14"><path id="Vector_55" d="M19.963 14.0039C19.861 13.8749 19.785 13.7969 19.711 13.7809L19.717 13.7539C19.8 13.7699 19.883 13.852 19.963 13.994C19.961 13.724 19.895 13.6109 19.688 13.5699C19.949 13.5919 19.986 13.7559 19.963 14.0039Z" fill="black"></path></g></g></g><g id="Clip path group_29"><mask id="mask28_9372_56737" style="mask-type:luminance" maskUnits="userSpaceOnUse" x="0" y="0" width="34" height="21"><g id="SVGID_00000153679188644278612020000015675038462459891607__25"><path id="Vector_56" d="M33.564 0.710938H0V20.2889H33.564V0.710938Z" fill="white"></path></g></mask><g mask="url(#mask28_9372_56737)"><path id="Vector_57" d="M17.6489 12.994L18.7539 14.002C18.7539 14.002 18.3309 14.0959 18.1669 14.0959C18.0009 14.0959 17.8609 14.143 17.9079 14.192C17.9549 14.239 18.0469 14.2389 18.0959 14.3069C18.1419 14.3769 18.2129 14.473 18.3059 14.377C18.4009 14.285 18.7289 14.1909 18.7289 14.1909C18.7289 14.1909 18.7289 14.7299 18.7059 14.7979C18.6839 14.8699 18.6119 15.0089 18.6599 15.0089C18.7059 15.0089 18.7059 14.9869 18.8949 15.0089C19.0809 15.0339 19.0589 15.0809 19.0109 14.7979C18.9639 14.5189 18.9879 14.214 18.9879 14.214C18.9879 14.214 19.4099 14.493 19.5509 14.683C19.6919 14.871 19.6689 14.73 19.7379 14.658C19.8099 14.59 19.9019 14.5659 19.9739 14.5429C20.0429 14.5199 19.7859 14.447 19.7149 14.4C19.6439 14.353 19.1059 14.0479 19.1059 14.0479C19.1059 14.0479 19.4099 13.954 19.5979 13.929C19.7859 13.908 19.7859 13.908 19.7629 13.814C19.7379 13.72 19.7629 13.625 19.7629 13.58C19.7629 13.535 19.7379 13.486 19.6199 13.58C19.5039 13.674 18.9639 13.908 18.9639 13.908L18.0469 12.689L17.6489 12.994Z" fill="#CA001C"></path></g></g><g id="Clip path group_30"><mask id="mask29_9372_56737" style="mask-type:luminance" maskUnits="userSpaceOnUse" x="0" y="0" width="34" height="21"><g id="SVGID_00000153679188644278612020000015675038462459891607__26"><path id="Vector_58" d="M33.564 0.710938H0V20.2889H33.564V0.710938Z" fill="white"></path></g></mask><g mask="url(#mask29_9372_56737)"><g id="Group_15"><path id="Vector_59" d="M19.0169 15.0429C19.0029 15.0429 18.9869 15.041 18.9629 15.037L18.8919 15.0269C18.7579 15.0099 18.7209 15.017 18.6939 15.019L18.6329 15.0129C18.6169 14.9899 18.6369 14.9369 18.6689 14.8549L18.6909 14.796C18.7109 14.741 18.7139 14.3429 18.7139 14.1909C18.6989 14.2139 18.4029 14.302 18.3159 14.39C18.2869 14.417 18.2549 14.435 18.2179 14.429C18.1619 14.425 18.1219 14.3699 18.0819 14.3159C18.0599 14.2789 18.0179 14.2609 17.9799 14.2459C17.9479 14.2339 17.9179 14.223 17.8959 14.201L17.8889 14.193L17.8849 14.158C17.9059 14.107 18.0439 14.0819 18.1649 14.0819C18.3249 14.0819 18.7419 13.9879 18.7479 13.9879L17.6389 13.0039L17.6589 12.982L18.7609 13.99C18.7379 14.019 18.3269 14.111 18.1649 14.111C18.0239 14.111 17.9219 14.1459 17.9119 14.1679C17.9339 14.1969 17.9599 14.209 17.9899 14.219C18.0289 14.237 18.0759 14.254 18.1059 14.299C18.1389 14.35 18.1769 14.3969 18.2199 14.4009C18.2449 14.4049 18.2699 14.393 18.2929 14.368C18.3889 14.27 18.7079 14.1799 18.7229 14.1769C18.7399 14.2139 18.7399 14.734 18.7169 14.808L18.6939 14.8669C18.6779 14.9059 18.6479 14.986 18.6569 14.998C18.7159 14.99 18.7569 14.982 18.8919 14.998L18.9659 15.012C18.9909 15.016 19.0179 15.022 19.0239 15.016C19.0309 15.008 19.0239 14.9649 19.0139 14.9109L18.9929 14.8059C18.9469 14.5269 18.9679 14.2179 18.9699 14.2159C19.0099 14.2159 19.4169 14.491 19.5609 14.675C19.6139 14.749 19.6259 14.759 19.6499 14.765C19.6589 14.765 19.6699 14.745 19.6779 14.722C19.6909 14.701 19.7029 14.6729 19.7239 14.6519C19.7879 14.5889 19.8719 14.56 19.9389 14.541C19.9609 14.527 19.8869 14.496 19.8379 14.477C19.7859 14.456 19.7319 14.4359 19.7049 14.4179C19.6329 14.3709 19.0949 14.0659 19.0949 14.0659C19.1009 14.0389 19.4069 13.945 19.5929 13.921C19.6889 13.909 19.7409 13.901 19.7529 13.886C19.7599 13.878 19.7529 13.8549 19.7439 13.8199C19.7269 13.7519 19.7339 13.683 19.7399 13.632C19.7419 13.61 19.7439 13.5949 19.7439 13.5829C19.7209 13.5399 19.6969 13.5379 19.6279 13.5949C19.5099 13.6909 18.9889 13.913 18.9659 13.925L18.0329 12.7L18.9709 13.9009C18.9689 13.8889 19.4939 13.663 19.6079 13.571C19.6689 13.522 19.7129 13.5049 19.7439 13.5179C19.7569 13.5259 19.7719 13.5399 19.7719 13.5829C19.7719 13.5949 19.7699 13.612 19.7689 13.636C19.7629 13.683 19.7559 13.7489 19.7719 13.8159C19.7819 13.8569 19.7899 13.882 19.7759 13.904C19.7579 13.929 19.7129 13.933 19.5949 13.947C19.4239 13.97 19.1519 14.0519 19.1109 14.0659C19.1669 14.0699 19.6529 14.347 19.7189 14.394C19.7439 14.408 19.7979 14.431 19.8479 14.451C19.9589 14.496 19.9959 14.5109 19.9959 14.5349L19.9449 14.5699C19.8789 14.5899 19.8029 14.6129 19.7439 14.6719C19.7259 14.6919 19.7149 14.7169 19.7059 14.7379C19.6889 14.7649 19.6769 14.793 19.6519 14.795C19.6229 14.797 19.5889 14.7679 19.5339 14.6949C19.4039 14.5189 19.0219 14.263 18.9789 14.232C18.9939 14.263 18.9769 14.547 19.0219 14.8L19.0399 14.9049C19.0569 14.9869 19.0609 15.0199 19.0439 15.0359C19.0409 15.0409 19.0289 15.0429 19.0169 15.0429Z" fill="black"></path></g></g></g><g id="Clip path group_31"><mask id="mask30_9372_56737" style="mask-type:luminance" maskUnits="userSpaceOnUse" x="0" y="0" width="34" height="21"><g id="SVGID_00000153679188644278612020000015675038462459891607__27"><path id="Vector_60" d="M33.564 0.710938H0V20.2889H33.564V0.710938Z" fill="white"></path></g></mask><g mask="url(#mask30_9372_56737)"><path id="Vector_61" d="M16.781 16.0429L17.275 15.4549C17.839 15.8009 18.252 15.7049 18.517 15.1759C17.672 15.3189 17.275 14.5489 17.321 12.8769L17.955 13.8589V12.9469L18.728 13.0409L16.687 10.8589L16.781 16.0429Z" fill="black"></path></g></g><g id="Clip path group_32"><mask id="mask31_9372_56737" style="mask-type:luminance" maskUnits="userSpaceOnUse" x="0" y="0" width="34" height="21"><g id="SVGID_00000153679188644278612020000015675038462459891607__28"><path id="Vector_62" d="M33.564 0.710938H0V20.2889H33.564V0.710938Z" fill="white"></path></g></mask><g mask="url(#mask31_9372_56737)"><path id="Vector_63" d="M15.7489 9.05103V11.821L12.606 14.401V7.52502C12.606 6.99402 12.7159 6.63402 12.9339 6.44702V7.879L15.7489 9.05103Z" fill="black"></path></g></g><g id="Clip path group_33"><mask id="mask32_9372_56737" style="mask-type:luminance" maskUnits="userSpaceOnUse" x="0" y="0" width="34" height="21"><g id="SVGID_00000153679188644278612020000015675038462459891607__29"><path id="Vector_64" d="M33.564 0.710938H0V20.2889H33.564V0.710938Z" fill="white"></path></g></mask><g mask="url(#mask32_9372_56737)"><g id="Group_16"><path id="Vector_65" d="M15.2071 14.096H15.1191V8.22998H15.2071V14.096Z" fill="#F6D728"></path></g></g></g><g id="Clip path group_34"><mask id="mask33_9372_56737" style="mask-type:luminance" maskUnits="userSpaceOnUse" x="0" y="0" width="34" height="21"><g id="SVGID_00000153679188644278612020000015675038462459891607__30"><path id="Vector_66" d="M33.564 0.710938H0V20.2889H33.564V0.710938Z" fill="white"></path></g></mask><g mask="url(#mask33_9372_56737)"><g id="Group_17"><path id="Vector_67" d="M14.5489 14.096H14.4619V8.22998H14.5489V14.096Z" fill="#F6D728"></path></g></g></g><g id="Clip path group_35"><mask id="mask34_9372_56737" style="mask-type:luminance" maskUnits="userSpaceOnUse" x="0" y="0" width="34" height="21"><g id="SVGID_00000153679188644278612020000015675038462459891607__31"><path id="Vector_68" d="M33.564 0.710938H0V20.2889H33.564V0.710938Z" fill="white"></path></g></mask><g mask="url(#mask34_9372_56737)"><g id="Group_18"><path id="Vector_69" d="M13.8919 14.096H13.804V8.22998H13.8919V14.096Z" fill="#F6D728"></path></g></g></g><g id="Clip path group_36"><mask id="mask35_9372_56737" style="mask-type:luminance" maskUnits="userSpaceOnUse" x="0" y="0" width="34" height="21"><g id="SVGID_00000153679188644278612020000015675038462459891607__32"><path id="Vector_70" d="M33.564 0.710938H0V20.2889H33.564V0.710938Z" fill="white"></path></g></mask><g mask="url(#mask35_9372_56737)"><g id="Group_19"><path id="Vector_71" d="M13.236 14.096H13.146V8.22998H13.236V14.096Z" fill="#F6D728"></path></g></g></g><g id="Clip path group_37"><mask id="mask36_9372_56737" style="mask-type:luminance" maskUnits="userSpaceOnUse" x="0" y="0" width="34" height="21"><g id="SVGID_00000153679188644278612020000015675038462459891607__33"><path id="Vector_72" d="M33.564 0.710938H0V20.2889H33.564V0.710938Z" fill="white"></path></g></mask><g mask="url(#mask36_9372_56737)"><path id="Vector_73" d="M16.3601 9.56799C14.2471 9.56799 13.3561 8.88597 12.9101 8.37097V6.47299C12.6751 6.40699 12.5511 6.23497 12.5361 5.95297C13.1921 6.49397 14.2241 5.22598 14.8341 6.54098C14.5071 7.19698 13.8491 7.12898 13.6141 6.75198C13.1461 7.14998 13.5201 8.65196 16.3601 8.62896V9.56799Z" fill="black"></path></g></g><g id="Clip path group_38"><mask id="mask37_9372_56737" style="mask-type:luminance" maskUnits="userSpaceOnUse" x="0" y="0" width="34" height="21"><g id="SVGID_00000153679188644278612020000015675038462459891607__34"><path id="Vector_74" d="M33.564 0.710938H0V20.2889H33.564V0.710938Z" fill="white"></path></g></mask><g mask="url(#mask37_9372_56737)"><path id="Vector_75" d="M15.5849 14.1639C15.7489 14.3769 15.6099 14.566 15.4669 14.637C15.5159 14.494 15.4899 14.364 15.3989 14.239L15.5849 14.1639Z" fill="#CA001C"></path></g></g><g id="Clip path group_39"><mask id="mask38_9372_56737" style="mask-type:luminance" maskUnits="userSpaceOnUse" x="0" y="0" width="34" height="21"><g id="SVGID_00000153679188644278612020000015675038462459891607__35"><path id="Vector_76" d="M33.564 0.710938H0V20.2889H33.564V0.710938Z" fill="white"></path></g></mask><g mask="url(#mask38_9372_56737)"><g id="Group_20"><path id="Vector_77" d="M15.474 14.6479C15.499 14.4939 15.478 14.3669 15.385 14.2459C15.504 14.3569 15.528 14.494 15.481 14.641C15.531 14.59 15.615 14.5139 15.638 14.4139C15.656 14.3339 15.634 14.254 15.572 14.176L15.595 14.158C15.661 14.242 15.686 14.3339 15.666 14.4179C15.642 14.5309 15.552 14.6109 15.474 14.6479Z" fill="black"></path></g></g></g><g id="Clip path group_40"><mask id="mask39_9372_56737" style="mask-type:luminance" maskUnits="userSpaceOnUse" x="0" y="0" width="34" height="21"><g id="SVGID_00000153679188644278612020000015675038462459891607__36"><path id="Vector_78" d="M33.564 0.710938H0V20.2889H33.564V0.710938Z" fill="white"></path></g></mask><g mask="url(#mask39_9372_56737)"><path id="Vector_79" d="M14.762 14.965C14.747 15.059 14.794 15.1759 14.903 15.3189C14.622 15.2469 14.507 15.151 14.598 14.989L14.762 14.965Z" fill="#CA001C"></path></g></g><g id="Clip path group_41"><mask id="mask40_9372_56737" style="mask-type:luminance" maskUnits="userSpaceOnUse" x="0" y="0" width="34" height="21"><g id="SVGID_00000153679188644278612020000015675038462459891607__37"><path id="Vector_80" d="M33.564 0.710938H0V20.2889H33.564V0.710938Z" fill="white"></path></g></mask><g mask="url(#mask40_9372_56737)"><g id="Group_21"><path id="Vector_81" d="M14.9181 15.3059C14.7041 15.2809 14.5971 15.2219 14.5651 15.1439C14.5441 15.0969 14.5501 15.0419 14.5861 14.9799C14.5811 15.0479 14.5731 15.0929 14.5901 15.1319C14.6211 15.1999 14.7231 15.2529 14.9071 15.2999C14.7811 15.1829 14.7331 15.0599 14.7481 14.9619L14.779 14.9659C14.762 15.0559 14.8081 15.1719 14.9181 15.3059Z" fill="black"></path></g></g></g><g id="Clip path group_42"><mask id="mask41_9372_56737" style="mask-type:luminance" maskUnits="userSpaceOnUse" x="0" y="0" width="34" height="21"><g id="SVGID_00000153679188644278612020000015675038462459891607__38"><path id="Vector_82" d="M33.564 0.710938H0V20.2889H33.564V0.710938Z" fill="white"></path></g></mask><g mask="url(#mask41_9372_56737)"><path id="Vector_83" d="M13.8249 14.6109C13.7779 14.7219 13.7709 14.8469 13.8019 14.9879C13.5899 14.7989 13.5199 14.5429 13.6839 14.4939L13.8249 14.6109Z" fill="#CA001C"></path></g></g><g id="Clip path group_43"><mask id="mask42_9372_56737" style="mask-type:luminance" maskUnits="userSpaceOnUse" x="0" y="0" width="34" height="21"><g id="SVGID_00000153679188644278612020000015675038462459891607__39"><path id="Vector_84" d="M33.564 0.710938H0V20.2889H33.564V0.710938Z" fill="white"></path></g></mask><g mask="url(#mask42_9372_56737)"><g id="Group_22"><path id="Vector_85" d="M13.8151 14.984C13.6431 14.865 13.557 14.695 13.585 14.582C13.595 14.531 13.6291 14.494 13.6811 14.48C13.6491 14.519 13.6221 14.546 13.6141 14.589C13.5901 14.691 13.6751 14.853 13.8131 14.976C13.7561 14.847 13.7641 14.718 13.8131 14.607L13.84 14.617C13.793 14.722 13.7861 14.847 13.8151 14.984Z" fill="black"></path></g></g></g><g id="Clip path group_44"><mask id="mask43_9372_56737" style="mask-type:luminance" maskUnits="userSpaceOnUse" x="0" y="0" width="34" height="21"><g id="SVGID_00000153679188644278612020000015675038462459891607__40"><path id="Vector_86" d="M33.564 0.710938H0V20.2889H33.564V0.710938Z" fill="white"></path></g></mask><g mask="url(#mask43_9372_56737)"><path id="Vector_87" d="M13.8481 13.7669C13.7711 13.7849 13.6911 13.8589 13.6141 14.0009C13.5911 13.7429 13.6381 13.6029 13.8731 13.5559L13.8481 13.7669Z" fill="#CA001C"></path></g></g><g id="Clip path group_45"><mask id="mask44_9372_56737" style="mask-type:luminance" maskUnits="userSpaceOnUse" x="0" y="0" width="34" height="21"><g id="SVGID_00000153679188644278612020000015675038462459891607__41"><path id="Vector_88" d="M33.564 0.710938H0V20.2889H33.564V0.710938Z" fill="white"></path></g></mask><g mask="url(#mask44_9372_56737)"><g id="Group_23"><path id="Vector_89" d="M13.6271 14.01C13.5771 13.756 13.6141 13.592 13.8691 13.541C13.6681 13.611 13.6031 13.725 13.6291 14C13.6831 13.85 13.7631 13.77 13.8451 13.754L13.852 13.781C13.778 13.797 13.7031 13.875 13.6271 14.01Z" fill="black"></path></g></g></g><g id="Clip path group_46"><mask id="mask45_9372_56737" style="mask-type:luminance" maskUnits="userSpaceOnUse" x="0" y="0" width="34" height="21"><g id="SVGID_00000153679188644278612020000015675038462459891607__42"><path id="Vector_90" d="M33.564 0.710938H0V20.2889H33.564V0.710938Z" fill="white"></path></g></mask><g mask="url(#mask45_9372_56737)"><path id="Vector_91" d="M15.913 12.994L14.811 14.002C14.811 14.002 15.234 14.0959 15.399 14.0959C15.562 14.0959 15.704 14.143 15.657 14.192C15.611 14.239 15.516 14.2389 15.468 14.3069C15.422 14.3769 15.353 14.473 15.258 14.377C15.163 14.285 14.835 14.1909 14.835 14.1909C14.835 14.1909 14.835 14.7299 14.858 14.7979C14.881 14.8699 14.953 15.0089 14.904 15.0089C14.858 15.0089 14.858 14.9869 14.672 15.0089C14.483 15.0339 14.508 15.0809 14.554 14.7979C14.6 14.5189 14.577 14.214 14.577 14.214C14.577 14.214 14.155 14.493 14.016 14.683C13.874 14.871 13.898 14.73 13.827 14.658C13.758 14.59 13.663 14.5659 13.593 14.5429C13.523 14.5199 13.781 14.447 13.851 14.4C13.921 14.353 14.46 14.0479 14.46 14.0479C14.46 14.0479 14.155 13.954 13.969 13.929C13.78 13.908 13.78 13.908 13.805 13.814C13.828 13.72 13.805 13.625 13.805 13.58C13.805 13.535 13.828 13.486 13.945 13.58C14.063 13.674 14.601 13.908 14.601 13.908L15.518 12.689L15.913 12.994Z" fill="#CA001C"></path></g></g><g id="Clip path group_47"><mask id="mask46_9372_56737" style="mask-type:luminance" maskUnits="userSpaceOnUse" x="0" y="0" width="34" height="21"><g id="SVGID_00000153679188644278612020000015675038462459891607__43"><path id="Vector_92" d="M33.564 0.710938H0V20.2889H33.564V0.710938Z" fill="white"></path></g></mask><g mask="url(#mask46_9372_56737)"><g id="Group_24"><path id="Vector_93" d="M14.545 15.043C14.533 15.043 14.524 15.041 14.516 15.033C14.499 15.017 14.505 14.984 14.521 14.902L14.539 14.797C14.583 14.535 14.566 14.248 14.562 14.215C14.547 14.252 14.157 14.516 14.025 14.692C13.97 14.764 13.936 14.794 13.908 14.792C13.883 14.79 13.87 14.763 13.856 14.735C13.845 14.713 13.834 14.688 13.815 14.67C13.756 14.61 13.681 14.586 13.615 14.567L13.565 14.532C13.563 14.509 13.6 14.493 13.712 14.448C13.764 14.428 13.816 14.405 13.842 14.391C13.907 14.344 14.379 14.078 14.445 14.041C14.396 14.041 14.133 13.967 13.967 13.943C13.849 13.929 13.806 13.925 13.786 13.9C13.773 13.879 13.779 13.853 13.79 13.812C13.806 13.746 13.799 13.679 13.793 13.632C13.791 13.609 13.79 13.591 13.79 13.579C13.79 13.536 13.806 13.522 13.817 13.514C13.848 13.5 13.892 13.518 13.954 13.567C14.068 13.659 14.6 13.891 14.608 13.893L15.505 12.678L14.612 13.916C14.572 13.908 14.052 13.686 13.934 13.59C13.866 13.533 13.838 13.535 13.83 13.539C13.815 13.59 13.819 13.605 13.819 13.627C13.826 13.678 13.834 13.746 13.815 13.815C13.806 13.85 13.802 13.874 13.808 13.881C13.819 13.897 13.873 13.904 13.967 13.916C14.153 13.939 14.459 14.033 14.462 14.033C14.466 14.06 13.926 14.365 13.857 14.412C13.828 14.43 13.773 14.449 13.721 14.471C13.673 14.491 13.599 14.522 13.592 14.534C13.687 14.555 13.771 14.585 13.835 14.647C13.856 14.668 13.87 14.696 13.881 14.717C13.89 14.74 13.902 14.76 13.91 14.76C13.926 14.754 13.945 14.744 14.001 14.67C14.142 14.486 14.55 14.211 14.568 14.199C14.589 14.213 14.612 14.521 14.566 14.801L14.547 14.906C14.536 14.961 14.527 15.004 14.534 15.011C14.538 15.017 14.567 15.011 14.594 15.007L14.667 14.993C14.804 14.977 14.844 14.985 14.871 14.989C14.91 14.981 14.881 14.899 14.864 14.862L14.842 14.803C14.819 14.729 14.819 14.209 14.819 14.188C14.852 14.176 15.171 14.266 15.266 14.364C15.29 14.389 15.318 14.401 15.338 14.397C15.382 14.393 15.421 14.346 15.452 14.295C15.483 14.25 15.529 14.232 15.57 14.215C15.599 14.205 15.626 14.194 15.643 14.176C15.638 14.143 15.537 14.108 15.396 14.108C15.231 14.108 14.823 14.016 14.805 14.012L15.902 12.979L15.922 13.001L14.822 14.009C14.86 13.995 15.243 14.079 15.397 14.079C15.515 14.079 15.655 14.104 15.674 14.155L15.678 14.161L15.664 14.198C15.642 14.219 15.613 14.231 15.581 14.243C15.542 14.259 15.503 14.276 15.477 14.313C15.44 14.368 15.398 14.422 15.341 14.426C15.308 14.432 15.276 14.414 15.243 14.387C15.152 14.295 14.83 14.202 14.828 14.202C14.846 14.337 14.85 14.739 14.869 14.794L14.89 14.851C14.923 14.935 14.942 14.988 14.925 15.011L14.865 15.017C14.839 15.015 14.8 15.007 14.669 15.025L14.596 15.035C14.575 15.041 14.559 15.043 14.545 15.043Z" fill="black"></path></g></g></g><g id="Clip path group_48"><mask id="mask47_9372_56737" style="mask-type:luminance" maskUnits="userSpaceOnUse" x="0" y="0" width="34" height="21"><g id="SVGID_00000153679188644278612020000015675038462459891607__44"><path id="Vector_94" d="M33.564 0.710938H0V20.2889H33.564V0.710938Z" fill="white"></path></g></mask><g mask="url(#mask47_9372_56737)"><path id="Vector_95" d="M16.781 16.0429L16.289 15.4549C15.726 15.8009 15.312 15.7049 15.047 15.1759C15.89 15.3189 16.289 14.5489 16.241 12.8769L15.61 13.8589V12.9469L14.834 13.0409L16.875 10.8589L16.781 16.0429Z" fill="black"></path></g></g></g></g></g></g></g></g></svg>