<svg width="58" height="59" viewBox="0 0 58 59" fill="none" xmlns="http://www.w3.org/2000/svg">
<circle cx="28.9341" cy="29.7908" r="28.8064" fill="#2C2C2C"/>
<g clip-path="url(#clip0_1_824)">
<mask id="mask0_1_824" style="mask-type:luminance" maskUnits="userSpaceOnUse" x="34" y="34" width="13" height="14">
<path d="M46.957 47.0869H34.3606V34.4905H46.957V47.0869Z" fill="white"/>
</mask>
<g mask="url(#mask0_1_824)">
<path fill-rule="evenodd" clip-rule="evenodd" d="M42.6015 46.2503C42.1866 46.6652 41.5394 46.6652 41.1245 46.2503L36.7682 41.8941C36.3533 41.4792 36.3533 40.8319 36.7682 40.417L37.3455 39.8397C38.1278 39.0574 39.4574 39.0574 40.2397 39.8397L43.1788 42.7789C43.9611 43.5612 43.9611 44.8907 43.1788 45.673L42.6015 46.2503ZM41.863 45.5044L42.4366 44.9308C42.809 44.5584 42.809 43.8935 42.4366 43.5211L39.4974 40.582C39.125 40.2096 38.4602 40.2096 38.0878 40.582L37.5142 41.1556L41.863 45.5044Z" fill="#4FA83D"/>
<path fill-rule="evenodd" clip-rule="evenodd" d="M38.7133 46.9394C38.5048 46.738 38.4992 46.4057 38.7007 46.1973L40.2227 44.6227C40.4242 44.4143 40.7565 44.4087 40.9649 44.6101C41.1733 44.8116 41.1789 45.1439 40.9775 45.3523L39.4554 46.9268C39.2539 47.1353 38.9217 47.1409 38.7133 46.9394Z" fill="#4FA83D"/>
<path fill-rule="evenodd" clip-rule="evenodd" d="M36.0841 44.3082C35.8792 44.1032 35.8792 43.7709 36.0841 43.5659L37.6587 41.9914C37.8636 41.7864 38.196 41.7864 38.4009 41.9914C38.6059 42.1964 38.6059 42.5287 38.4009 42.7336L36.8264 44.3082C36.6214 44.5132 36.2891 44.5132 36.0841 44.3082Z" fill="#4FA83D"/>
<path fill-rule="evenodd" clip-rule="evenodd" d="M42.7494 43.941C42.5444 43.736 42.5444 43.4037 42.7494 43.1987L43.5366 42.4115C44.1714 41.7767 44.1714 40.7969 43.5366 40.1621L42.8543 39.4798C42.2195 38.845 41.2397 38.845 40.6049 39.4798L39.8701 40.2146C39.6652 40.4195 39.3329 40.4195 39.1279 40.2146C38.9229 40.0096 38.9229 39.6773 39.1279 39.4723L39.8627 38.7375C40.9074 37.6928 42.5519 37.6928 43.5966 38.7375L44.2789 39.4198C45.3236 40.4645 45.3236 42.109 44.2789 43.1537L43.4916 43.941C43.2866 44.146 42.9543 44.146 42.7494 43.941Z" fill="#4FA83D"/>
<path fill-rule="evenodd" clip-rule="evenodd" d="M43.1707 39.8473C42.9658 39.6423 42.9658 39.31 43.1707 39.105L43.853 38.4227C44.1637 38.1121 44.3291 37.6734 44.3291 37.2193C44.3291 36.7586 44.1447 36.3605 43.8523 36.0172C43.5115 35.7288 43.0651 35.5398 42.6496 35.5398H36.4564C36.1665 35.5398 35.9315 35.3048 35.9315 35.0149C35.9315 34.725 36.1665 34.4901 36.4564 34.4901H42.6496C43.3781 34.4901 44.074 34.8159 44.5698 35.2497C44.5873 35.2651 44.6038 35.2816 44.6192 35.2991C45.0482 35.7894 45.3788 36.4324 45.3788 37.2193C45.3788 37.9198 45.1244 38.6359 44.5953 39.165L43.913 39.8473C43.708 40.0522 43.3757 40.0522 43.1707 39.8473Z" fill="#4FA83D"/>
</g>
</g>
<path d="M35.849 16.3838C33.0031 13.5468 29.2197 11.9844 25.1955 11.9844C21.1712 11.9844 17.3878 13.5468 14.5419 16.3838C11.6954 19.2216 10.1277 22.9949 10.1277 27.0084C10.1277 31.022 11.6954 34.7952 14.5419 37.633C17.3878 40.47 21.1712 42.0324 25.1955 42.0324C29.2197 42.0324 33.0031 40.47 35.849 37.633C38.6955 34.7952 40.2632 31.022 40.2632 27.0084C40.2632 22.9949 38.6955 19.2216 35.849 16.3838ZM36.9573 20.8031C36.89 20.9944 36.8062 21.1834 36.7061 21.3678C36.1584 22.3771 35.7176 23.3279 35.3585 24.2745L35.2653 24.5202L35.172 24.2745C34.8129 23.3279 34.3721 22.3771 33.8244 21.3678C33.4877 20.7474 33.1688 19.7756 33.5614 18.6692C33.8258 17.9243 34.1848 17.6704 34.5426 17.5763C34.5624 17.5958 34.5826 17.6147 34.6022 17.6343C35.5541 18.5832 36.3435 19.6507 36.9573 20.8031ZM25.1955 13.7501C28.0807 13.7501 30.8256 14.6595 33.1008 16.3422C32.5724 16.7312 32.1698 17.3111 31.8974 18.0787C31.2874 19.7979 31.7646 21.2742 32.2725 22.21C32.782 23.1489 33.1904 24.029 33.5212 24.9007L34.3549 27.0985C34.0141 29.0653 33.3647 31.2661 32.8359 32.8837L28.517 20.5609C28.9602 20.5138 29.3056 20.1389 29.3056 19.6832C29.3056 19.1956 28.9103 18.8003 28.4227 18.8003H22.1109C21.6233 18.8003 21.228 19.1956 21.228 19.6832C21.228 20.1708 21.6233 20.5661 22.1109 20.5661H23.0692L25.2637 26.973L22.3581 33.2168L17.9243 20.5661H18.4167C18.9043 20.5661 19.2996 20.1708 19.2996 19.6832C19.2996 19.1956 18.9043 18.8003 18.4167 18.8003H14.7477C15.0696 18.395 15.4163 18.0054 15.7885 17.6343C18.3011 15.1296 21.6418 13.7501 25.1955 13.7501ZM24.9357 20.5661H26.6478L31.8828 35.5029L30.8108 37.7192L24.9357 20.5661ZM16.0532 20.5661L21.2908 35.5103L20.202 37.8501L14.2944 20.5661H16.0532ZM11.8934 27.0084C11.8934 25.2398 12.2386 23.524 12.8971 21.9374L18.5598 38.5049C17.5591 37.929 16.6274 37.2188 15.7885 36.3824C13.2767 33.8784 11.8934 30.5493 11.8934 27.0084ZM21.2935 39.6898L26.0894 29.3839L29.5668 39.5367C28.1797 40.0163 26.707 40.2667 25.1955 40.2667C23.8534 40.2667 22.5417 40.0696 21.2935 39.6898ZM34.6023 36.3825C33.9925 36.9905 33.3335 37.5315 32.6349 38.0032L33.632 35.9416C33.6423 35.9204 33.651 35.8987 33.6595 35.877C33.6601 35.8754 33.6613 35.8742 33.6619 35.8726C33.7365 35.6777 35.4818 31.0898 36.1218 27.2403L37.0094 24.9008C37.2508 24.2644 37.5342 23.6233 37.8676 22.9585C38.2817 24.2506 38.4975 25.6129 38.4975 27.0084C38.4975 30.5493 37.1142 33.8784 34.6023 36.3825Z" fill="white"/>
<defs>
<clipPath id="clip0_1_824">
<rect width="12.5964" height="12.5964" fill="white" transform="matrix(-1 0 0 -1 46.957 47.0869)"/>
</clipPath>
</defs>
</svg>
