<svg xmlns="http://www.w3.org/2000/svg" width="34" height="21" viewBox="0 0 34 21" fill="none"><g id="UAE_2_"><g id="Group"><g id="Group_2"><g id="Clip path group"><mask id="mask0_9372_55733" style="mask-type:luminance" maskUnits="userSpaceOnUse" x="0" y="0" width="34" height="21"><g id="SVGID_00000130630321141259289510000017000893297814981015_"><path id="Vector" d="M33.8459 0.708984H0.282959V20.291H33.8459V0.708984Z" fill="white"></path></g></mask><g mask="url(#mask0_9372_55733)"><path id="Vector_2" d="M10.0699 0.708984H0.282959V20.291H10.0699V0.708984Z" fill="#BC0030"></path></g></g><g id="Clip path group_2"><mask id="mask1_9372_55733" style="mask-type:luminance" maskUnits="userSpaceOnUse" x="0" y="0" width="34" height="21"><g id="SVGID_00000130630321141259289510000017000893297814981015__2"><path id="Vector_3" d="M33.8459 0.708984H0.282959V20.291H33.8459V0.708984Z" fill="white"></path></g></mask><g mask="url(#mask1_9372_55733)"><path id="Vector_4" d="M33.8448 0.708984H10.0698V7.23596H33.8448V0.708984Z" fill="#3F9B13"></path></g></g><g id="Clip path group_3"><mask id="mask2_9372_55733" style="mask-type:luminance" maskUnits="userSpaceOnUse" x="0" y="0" width="34" height="21"><g id="SVGID_00000130630321141259289510000017000893297814981015__3"><path id="Vector_5" d="M33.8459 0.708984H0.282959V20.291H33.8459V0.708984Z" fill="white"></path></g></mask><g mask="url(#mask2_9372_55733)"><path id="Vector_6" d="M33.8448 7.23694H10.0698V13.7639H33.8448V7.23694Z" fill="white"></path></g></g><g id="Clip path group_4"><mask id="mask3_9372_55733" style="mask-type:luminance" maskUnits="userSpaceOnUse" x="0" y="0" width="34" height="21"><g id="SVGID_00000130630321141259289510000017000893297814981015__4"><path id="Vector_7" d="M33.8459 0.708984H0.282959V20.291H33.8459V0.708984Z" fill="white"></path></g></mask><g mask="url(#mask3_9372_55733)"><path id="Vector_8" d="M33.8448 13.7639H10.0698V20.2909H33.8448V13.7639Z" fill="black"></path></g></g></g></g></g></svg>