<svg xmlns="http://www.w3.org/2000/svg" width="16" height="16" viewBox="0 0 16 16" fill="none"><path d="M7.99979 0C4.50646 0 1.54646 2.24 0.453125 5.33333H15.5465C14.4531 2.24 11.4931 0 7.99979 0Z" fill="#3E4347"></path><path d="M7.99979 16.0001C11.4931 16.0001 14.4531 13.7867 15.5465 10.6667H0.453125C1.54646 13.7867 4.50646 16.0001 7.99979 16.0001Z" fill="#FFE62E"></path><path d="M0.453333 5.33325C0.16 6.15992 0 7.06659 0 7.99992C0 8.93325 0.16 9.83992 0.453333 10.6666H15.5467C15.84 9.83992 16 8.93325 16 7.99992C16 7.06659 15.84 6.15992 15.5467 5.33325H0.453333Z" fill="#ED4C5C"></path></svg>