<svg xmlns="http://www.w3.org/2000/svg" width="76.816" height="76.816" viewBox="0 0 76.816 76.816"><g id="Group_5641" data-name="Group 5641" transform="translate(-1463 -1865)"><g id="Group_5467" data-name="Group 5467" transform="translate(-257.125 -339.875)"><path id="Icon_ionic-ios-checkmark-circle" data-name="Icon ionic-ios-checkmark-circle" d="M41.783,3.375A38.408,38.408,0,1,0,80.191,41.783,38.4,38.4,0,0,0,41.783,3.375Zm19.666,27.79L36.76,55.964h-.018A3.335,3.335,0,0,1,34.6,56.98a3.233,3.233,0,0,1-2.16-1.053L22.1,45.587a.736.736,0,0,1,0-1.053l3.287-3.287a.714.714,0,0,1,1.034,0l8.2,8.2L57.146,26.752a.729.729,0,0,1,.517-.222h0a.671.671,0,0,1,.517.222l3.231,3.342A.728.728,0,0,1,61.448,31.165Z" transform="translate(1716.75 2201.5)" fill="#4fa83d"></path><circle id="Ellipse_1458" data-name="Ellipse 1458" cx="27.14" cy="27.14" r="27.14" transform="translate(1733.483 2213.568)" fill="#4fa83d"></circle></g><g id="Group_5455" data-name="Group 5455" transform="translate(1474 1894)"><g id="Group_5453" data-name="Group 5453" transform="translate(0 0)"><path id="Path_32205" data-name="Path 32205" d="M152.207,161.365c-5.181-1.82-7.318,3.124-7.318,3.124s-2.137-4.944-7.318-3.124c-5.357,1.882-7.318,13.144,7.318,18.875C159.526,174.509,157.565,163.247,152.207,161.365Z" transform="translate(-133.593 -160.963)" fill="#fff"></path></g><g id="Group_5454" data-name="Group 5454" transform="translate(32.907 0)"><path id="Path_32206" data-name="Path 32206" d="M297.366,161.365c-5.181-1.82-7.318,3.124-7.318,3.124s-2.137-4.944-7.318-3.124c-5.358,1.882-7.319,13.144,7.318,18.875C304.684,174.509,302.724,163.247,297.366,161.365Z" transform="translate(-278.751 -160.963)" fill="#fff"></path></g></g></g></svg>