<svg xmlns="http://www.w3.org/2000/svg" width="72" height="72" viewBox="0 0 72 72"><g id="High-definition" transform="translate(3664 -6946)"><circle id="Ellipse_2128" data-name="Ellipse 2128" cx="36" cy="36" r="36" transform="translate(-3664 6946)" fill="#17181a"></circle><g id="Group_44523" data-name="Group 44523" transform="translate(-102.5 100.824)"><path id="HD_-_Outline" data-name="HD - Outline" d="M2.457-11.7a1.4,1.4,0,0,1,1.013.417,1.4,1.4,0,0,1,.417,1.013v5.762h7.893V-10.27a1.384,1.384,0,0,1,.443-1.027,1.445,1.445,0,0,1,1.011-.4,1.413,1.413,0,0,1,1.025.406,1.413,1.413,0,0,1,.406,1.025l0,14.712a1.475,1.475,0,0,1-.453.988,1.427,1.427,0,0,1-1,.391,1.424,1.424,0,0,1-1.43-1.43v-6.13H3.888l0,6.185a1.5,1.5,0,0,1-.438.958,1.4,1.4,0,0,1-1.013.417A1.387,1.387,0,0,1,1,4.391V-10.27a1.391,1.391,0,0,1,.432-1.039A1.456,1.456,0,0,1,2.457-11.7ZM2.452-3.071v-7.192H2.44V4.38a.053.053,0,0,0,.011-.026Zm10.777,7.43V-10.264h-.007l0,0V4.385h.006A.131.131,0,0,0,13.229,4.358ZM19.186-11.7h5.86a6.881,6.881,0,0,1,4.133,1.228,7.34,7.34,0,0,1,2.5,3.228,11.323,11.323,0,0,1,.8,4.3,11.425,11.425,0,0,1-.8,4.364,7.2,7.2,0,0,1-2.5,3.2,6.976,6.976,0,0,1-4.127,1.2h-5.86a1.386,1.386,0,0,1-1.407-1.407V-10.293a1.385,1.385,0,0,1,.406-1A1.385,1.385,0,0,1,19.186-11.7Zm.04,1.436h-.011V4.385h.011ZM29.37,2.5A6.1,6.1,0,0,0,30.345.878a10,10,0,0,0,.693-3.817A9.9,9.9,0,0,0,30.344-6.7a5.925,5.925,0,0,0-2.009-2.609,4.567,4.567,0,0,0-.687-.411,4.943,4.943,0,0,1,.685.424,5.983,5.983,0,0,1,2.048,2.734A10.134,10.134,0,0,1,31-2.939a8.718,8.718,0,0,1-1.495,5.262Q29.441,2.415,29.37,2.5Zm-4.554.526A4.057,4.057,0,0,0,28.35,1.473a7.332,7.332,0,0,0,1.217-4.413,8.709,8.709,0,0,0-.527-3.11,4.509,4.509,0,0,0-1.56-2.091,4.389,4.389,0,0,0-2.664-.767H20.663V3.03Z" transform="translate(-3542.504 6880.875)" fill="#cae2bc" stroke="#cae2bc" stroke-width="1"></path><line id="Line_1037" data-name="Line 1037" x2="31.597" transform="translate(-3541.5 6893.878)" fill="none" stroke="#4fa83d" stroke-linecap="round" stroke-width="3"></line></g></g></svg>