<svg xmlns="http://www.w3.org/2000/svg" width="105" height="119" viewBox="0 0 105 119" fill="none"><g clip-path="url(#clip0_256_13)"><path d="M53.4164 115.643L7.40625 92.5706V15.5838C11.1108 15.1432 14.6154 13.6564 17.5136 11.2957C20.4119 8.93499 22.5853 5.79707 23.7818 2.24561H81.1297C82.3386 5.83728 84.545 9.00609 87.4884 11.3776C90.4318 13.7492 93.989 15.2243 97.7398 15.6288V92.5706L53.4164 115.643Z" fill="white"></path><path d="M7.82031 92.5707L53.3278 115.643L97.182 92.5482V15.6288C93.5361 15.1254 90.0769 13.6999 87.1288 11.4858L7.82031 92.5707Z" fill="#F7F8F7"></path><path d="M99.4157 13.473H99.2705C95.3625 13.466 91.5716 12.1311 88.5136 9.68525C85.4557 7.23937 83.3102 3.82615 82.4258 0L22.3413 0C21.4568 3.80933 19.3236 7.20908 16.2847 9.65269C13.2457 12.0963 9.47756 13.4418 5.58594 13.473V94.5578L7.17211 95.3662L52.0093 118.315L53.3498 119L54.679 118.293L97.8631 95.3437L99.4157 94.5241V15.7185V13.473ZM53.3274 115.643L7.81998 92.5705V15.5837C11.4983 15.1311 14.9728 13.637 17.8385 11.2754C20.7042 8.91383 22.843 5.78217 24.0056 2.24549H80.7391C81.9156 5.82551 84.0909 8.99028 87.006 11.363C89.9211 13.7357 93.4531 15.2163 97.1817 15.6286V92.5705L53.3274 115.643Z" fill="#E9E9EA"></path><mask id="mask0_256_13" style="mask-type:luminance" maskUnits="userSpaceOnUse" x="0" y="63" width="105" height="18"><path d="M101.414 63.9854H3.58564L0 72.406L3.58564 80.8266H101.414L105 72.406L101.414 63.9854Z" fill="white"></path></mask><g mask="url(#mask0_256_13)"><path d="M-5.58594 58.3716H110.584V86.4403H-5.58594V58.3716Z" fill="#9132A2"></path></g><mask id="mask1_256_13" style="mask-type:luminance" maskUnits="userSpaceOnUse" x="41" y="0" width="23" height="24"><path d="M52.4983 23.5777L63.6686 17.2903V0H41.3281V17.2903L52.4983 23.5777ZM54.7324 8.82479C54.7147 8.35995 54.8311 7.89989 55.0675 7.49995C55.3729 7.08647 55.7813 6.76118 56.2515 6.55685L56.5196 6.44457C56.9776 6.22002 57.0893 6.02915 57.0893 5.8046C57.0893 5.58005 56.8436 5.34428 56.4526 5.34428C56.2171 5.32674 55.9821 5.38466 55.7815 5.50973C55.5808 5.6348 55.4247 5.82057 55.3356 6.04038L54.7324 5.44532C54.8826 5.15193 55.1158 4.90974 55.4026 4.74922C55.7045 4.57408 56.0482 4.48482 56.3967 4.49099C56.8183 4.47711 57.2331 4.59906 57.5808 4.83904C57.7392 4.94385 57.8685 5.08748 57.9565 5.25641C58.0444 5.42534 58.0881 5.614 58.0834 5.8046C58.0834 6.4558 57.7037 6.84876 56.9664 7.20804L56.5531 7.39891C56.1287 7.61223 55.9164 7.79187 55.8494 8.11746H58.0834V8.98198H54.7324V8.82479ZM57.5249 10.1047L59.2005 12.9116L57.5249 15.7185L55.8494 12.9004H52.4983L54.1739 10.1047H57.5249ZM52.8223 4.49099C53.2873 4.49023 53.7512 4.53536 54.2074 4.62572L52.8223 7.36522C51.7813 7.34415 50.7745 7.73893 50.0227 8.46298C49.271 9.18703 48.8356 10.1812 48.8122 11.2275C48.8385 12.2718 49.2752 13.2631 50.0266 13.9847C50.7781 14.7064 51.7832 15.0996 52.8223 15.0785C53.7785 15.0842 54.7067 14.7547 55.4473 14.1466L56.9664 16.6616C55.7495 17.5104 54.3035 17.9649 52.8223 17.964C51.0029 18.0032 49.2422 17.3164 47.9254 16.0539C46.6086 14.7914 45.8431 13.056 45.7962 11.2275C45.8431 9.39897 46.6086 7.66359 47.9254 6.40108C49.2422 5.13858 51.0029 4.45178 52.8223 4.49099Z" fill="white"></path></mask><g mask="url(#mask1_256_13)"><path d="M35.7422 -5.625H69.2528V29.1802H35.7422V-5.625Z" fill="#9132A2"></path></g><path d="M19.3245 46.6953C20.0617 46.6953 20.7096 46.845 21.2681 47.1444C21.8266 47.4438 22.2585 47.8742 22.5639 48.4356C22.8692 48.9895 23.0218 49.6257 23.0218 50.3442C23.0218 51.0553 22.8655 51.6803 22.5527 52.2192C22.2325 52.7507 21.7857 53.1661 21.2123 53.4655C20.6389 53.7649 19.9761 53.9146 19.224 53.9146H16.8447C16.7926 53.9146 16.7665 53.9445 16.7665 54.0044V58.2933C16.7665 58.3532 16.7442 58.4018 16.6995 58.4393C16.6623 58.4767 16.6139 58.4954 16.5543 58.4954H14.5995C14.5399 58.4954 14.4915 58.4767 14.4543 58.4393C14.4171 58.4018 14.3984 58.3532 14.3984 58.2933V46.8974C14.3984 46.8375 14.4171 46.7889 14.4543 46.7515C14.4915 46.714 14.5399 46.6953 14.5995 46.6953H19.3245ZM18.9671 52.0171C19.4883 52.0171 19.9016 51.8674 20.2069 51.568C20.5197 51.2686 20.6761 50.8794 20.6761 50.4004C20.6761 49.8989 20.5197 49.4984 20.2069 49.199C19.9016 48.8922 19.4883 48.7387 18.9671 48.7387H16.8447C16.7926 48.7387 16.7665 48.7687 16.7665 48.8285V51.9273C16.7665 51.9872 16.7926 52.0171 16.8447 52.0171H18.9671ZM31.4777 53.2746C31.5373 53.7013 31.5559 54.1766 31.5335 54.7005C31.5261 54.8427 31.4554 54.9138 31.3213 54.9138H26.1495C26.0825 54.9138 26.0564 54.94 26.0713 54.9924C26.1085 55.217 26.1718 55.4415 26.2612 55.6661C26.5516 56.2948 27.1437 56.6092 28.0373 56.6092C28.7522 56.6017 29.3144 56.3098 29.724 55.7334C29.7761 55.6661 29.8282 55.6324 29.8804 55.6324C29.9101 55.6324 29.9474 55.6548 29.9921 55.6997L31.1984 56.8899C31.258 56.9497 31.2878 57.0021 31.2878 57.047C31.2878 57.0695 31.2655 57.1144 31.2208 57.1818C30.8484 57.6458 30.3756 58.0014 29.8022 58.2484C29.2139 58.5029 28.5734 58.6301 27.8809 58.6301C26.9277 58.6301 26.116 58.4131 25.4458 57.9789C24.783 57.5373 24.3064 56.9235 24.016 56.1376C23.7777 55.5762 23.6585 54.8427 23.6585 53.937C23.6585 53.3158 23.7442 52.7694 23.9155 52.2978C24.1761 51.5044 24.6266 50.8719 25.2671 50.4004C25.9075 49.9288 26.6671 49.693 27.5458 49.693C28.6628 49.693 29.5601 50.0186 30.2378 50.6698C30.9155 51.321 31.3288 52.1893 31.4777 53.2746ZM27.5681 51.7477C26.8607 51.7477 26.3952 52.077 26.1718 52.7357C26.1272 52.8854 26.0899 53.065 26.0601 53.2746C26.0601 53.327 26.0899 53.3532 26.1495 53.3532H29.0426C29.1096 53.3532 29.1319 53.327 29.1096 53.2746C29.05 52.9528 29.0202 52.7956 29.0202 52.8031C28.9234 52.4662 28.7484 52.2043 28.4952 52.0171C28.2495 51.8375 27.9405 51.7477 27.5681 51.7477ZM37.2862 49.7267C37.6883 49.7267 38.0085 49.8053 38.2468 49.9625C38.3288 50.0074 38.3585 50.0898 38.3362 50.2095L37.9899 52.1294C37.9825 52.2641 37.9043 52.3053 37.7554 52.2529C37.5841 52.193 37.3905 52.1631 37.1745 52.1631C37.0851 52.1631 36.9585 52.1743 36.7947 52.1968C36.4 52.2342 36.0612 52.3839 35.7782 52.6459C35.5027 52.9078 35.3649 53.2596 35.3649 53.7013V58.2933C35.3649 58.3532 35.3426 58.4018 35.2979 58.4393C35.2607 58.4767 35.216 58.4954 35.1639 58.4954H33.1979C33.1458 58.4954 33.0974 58.4767 33.0527 58.4393C33.0155 58.4018 32.9968 58.3532 32.9968 58.2933V50.0411C32.9968 49.9887 33.0155 49.9401 33.0527 49.8951C33.0974 49.8577 33.1458 49.839 33.1979 49.839H35.1639C35.216 49.839 35.2607 49.8577 35.2979 49.8951C35.3426 49.9401 35.3649 49.9887 35.3649 50.0411V50.6811C35.3649 50.711 35.3761 50.7335 35.3984 50.7484C35.4133 50.7634 35.4282 50.7559 35.4431 50.726C35.9048 50.0598 36.5192 49.7267 37.2862 49.7267ZM44.424 49.8278C44.4835 49.8278 44.5319 49.8465 44.5692 49.8839C44.6064 49.9213 44.625 49.97 44.625 50.0299V51.6242C44.625 51.6841 44.6064 51.7327 44.5692 51.7701C44.5319 51.8076 44.4835 51.8263 44.424 51.8263H42.8043C42.7447 51.8263 42.7149 51.8525 42.7149 51.9049V58.2933C42.7149 58.3532 42.6963 58.4018 42.6591 58.4393C42.6218 58.4767 42.5734 58.4954 42.5139 58.4954H40.5591C40.4995 58.4954 40.4511 58.4767 40.4139 58.4393C40.3766 58.4018 40.358 58.3532 40.358 58.2933V51.9049C40.358 51.8525 40.3282 51.8263 40.2687 51.8263H39.2857C39.2261 51.8263 39.1777 51.8076 39.1405 51.7701C39.1032 51.7327 39.0846 51.6841 39.0846 51.6242V50.0299C39.0846 49.97 39.1032 49.9213 39.1405 49.8839C39.1777 49.8465 39.2261 49.8278 39.2857 49.8278H40.2687C40.3282 49.8278 40.358 49.7978 40.358 49.738V49.3675C40.358 48.6713 40.4623 48.1287 40.6708 47.7395C40.8867 47.3577 41.2293 47.0845 41.6984 46.9199C42.175 46.7552 42.8341 46.6841 43.6756 46.7065H44.3123C44.3644 46.7065 44.4091 46.7253 44.4463 46.7627C44.491 46.8076 44.5133 46.8562 44.5133 46.9086V48.2672C44.5133 48.327 44.491 48.3757 44.4463 48.4131C44.4091 48.458 44.3644 48.4805 44.3123 48.4805H43.7538C43.3665 48.488 43.0947 48.5666 42.9383 48.7163C42.7894 48.8734 42.7149 49.1541 42.7149 49.5583V49.738C42.7149 49.7978 42.7447 49.8278 42.8043 49.8278H44.424ZM49.283 58.6301C48.3447 58.6301 47.5405 58.3831 46.8702 57.8891C46.2 57.3951 45.7421 56.7214 45.4963 55.8682C45.3399 55.3442 45.2617 54.7716 45.2617 54.1504C45.2617 53.4917 45.3399 52.8966 45.4963 52.3652C45.757 51.5344 46.2224 50.8832 46.8926 50.4116C47.5628 49.9401 48.3671 49.7043 49.3054 49.7043C50.2139 49.7043 50.9958 49.9363 51.6511 50.4004C52.2915 50.8719 52.7458 51.5231 53.0139 52.354C53.2 52.9153 53.2931 53.5029 53.2931 54.1167C53.2931 54.723 53.2149 55.2918 53.0585 55.8232C52.8128 56.699 52.3548 57.3839 51.6846 57.8779C51.0218 58.3794 50.2213 58.6301 49.283 58.6301ZM49.283 56.5979C49.6479 56.5979 49.9607 56.4857 50.2213 56.2611C50.4819 56.0366 50.6681 55.7259 50.7798 55.3292C50.8617 54.97 50.9027 54.577 50.9027 54.1504C50.9027 53.6788 50.8617 53.2821 50.7798 52.9602C50.6532 52.5785 50.4633 52.2791 50.2101 52.062C49.9495 51.8525 49.633 51.7477 49.2607 51.7477C48.8883 51.7477 48.5756 51.8525 48.3224 52.062C48.0692 52.2791 47.8867 52.5785 47.775 52.9602C47.6857 53.2222 47.641 53.6189 47.641 54.1504C47.641 54.6593 47.6819 55.0523 47.7639 55.3292C47.8756 55.7259 48.0617 56.0366 48.3224 56.2611C48.583 56.4857 48.9032 56.5979 49.283 56.5979ZM59.1016 49.7267C59.5038 49.7267 59.824 49.8053 60.0623 49.9625C60.1516 50.0074 60.1814 50.0898 60.1516 50.2095L59.8054 52.1294C59.7979 52.2641 59.7197 52.3053 59.5708 52.2529C59.3995 52.193 59.2059 52.1631 58.9899 52.1631C58.9006 52.1631 58.7777 52.1743 58.6213 52.1968C58.2192 52.2342 57.8766 52.3839 57.5937 52.6459C57.3181 52.9078 57.1804 53.2596 57.1804 53.7013V58.2933C57.1804 58.3532 57.158 58.4018 57.1133 58.4393C57.0761 58.4767 57.0277 58.4954 56.9681 58.4954H55.0133C54.9612 58.4954 54.9128 58.4767 54.8681 58.4393C54.8309 58.4018 54.8123 58.3532 54.8123 58.2933V50.0411C54.8123 49.9887 54.8309 49.9401 54.8681 49.8951C54.9128 49.8577 54.9612 49.839 55.0133 49.839H56.9681C57.0277 49.839 57.0761 49.8577 57.1133 49.8951C57.158 49.9401 57.1804 49.9887 57.1804 50.0411V50.6811C57.1804 50.711 57.1878 50.7335 57.2027 50.7484C57.2325 50.7634 57.2511 50.7559 57.2585 50.726C57.7202 50.0598 58.3346 49.7267 59.1016 49.7267ZM70.7745 49.7043C71.6458 49.7043 72.3272 49.9663 72.8187 50.4902C73.3101 51.0216 73.5559 51.7664 73.5559 52.7245V58.2933C73.5559 58.3532 73.5373 58.4018 73.5 58.4393C73.4628 58.4767 73.4181 58.4954 73.366 58.4954H71.4C71.3479 58.4954 71.2995 58.4767 71.2548 58.4393C71.2176 58.4018 71.199 58.3532 71.199 58.2933V53.2409C71.199 52.7843 71.0835 52.4213 70.8527 52.1519C70.6144 51.8824 70.2979 51.7477 69.9032 51.7477C69.516 51.7477 69.1995 51.8824 68.9538 52.1519C68.708 52.4213 68.5851 52.7806 68.5851 53.2297V58.2933C68.5851 58.3532 68.5665 58.4018 68.5293 58.4393C68.4846 58.4767 68.4362 58.4954 68.3841 58.4954H66.4405C66.3809 58.4954 66.3325 58.4767 66.2952 58.4393C66.258 58.4018 66.2394 58.3532 66.2394 58.2933V53.2409C66.2394 52.7918 66.1165 52.4288 65.8708 52.1519C65.625 51.8824 65.3048 51.7477 64.9101 51.7477C64.5601 51.7477 64.2623 51.8525 64.0165 52.062C63.7782 52.2791 63.6367 52.5785 63.5921 52.9602V58.2933C63.5921 58.3532 63.5734 58.4018 63.5362 58.4393C63.4915 58.4767 63.4431 58.4954 63.391 58.4954H61.4362C61.3766 58.4954 61.3282 58.4767 61.291 58.4393C61.2538 58.4018 61.2351 58.3532 61.2351 58.2933V50.0411C61.2351 49.9887 61.2538 49.9401 61.291 49.8951C61.3282 49.8577 61.3766 49.839 61.4362 49.839H63.391C63.4431 49.839 63.4915 49.8577 63.5362 49.8951C63.5734 49.9401 63.5921 49.9887 63.5921 50.0411V50.7035C63.5921 50.7335 63.6032 50.7559 63.6256 50.7709C63.6479 50.7784 63.6702 50.7634 63.6926 50.726C64.1543 50.0448 64.8655 49.7043 65.8261 49.7043C66.3846 49.7043 66.8724 49.824 67.2894 50.0636C67.7064 50.2956 68.0266 50.6324 68.25 51.074C68.2798 51.1414 68.3208 51.1414 68.3729 51.074C68.6112 50.61 68.9426 50.2656 69.3671 50.0411C69.7841 49.8166 70.2532 49.7043 70.7745 49.7043ZM82.7937 53.2746C82.8607 53.7013 82.883 54.1766 82.8607 54.7005C82.8458 54.8427 82.7713 54.9138 82.6373 54.9138H77.4655C77.3984 54.9138 77.3761 54.94 77.3984 54.9924C77.4282 55.217 77.4878 55.4415 77.5772 55.6661C77.8676 56.2948 78.4596 56.6092 79.3532 56.6092C80.0681 56.6017 80.6341 56.3098 81.0511 55.7334C81.0958 55.6661 81.1442 55.6324 81.1963 55.6324C81.2335 55.6324 81.2745 55.6548 81.3192 55.6997L82.5256 56.8899C82.5777 56.9497 82.6038 57.0021 82.6038 57.047C82.6038 57.0695 82.5814 57.1144 82.5367 57.1818C82.1718 57.6458 81.699 58.0014 81.1181 58.2484C80.5373 58.5029 79.9006 58.6301 79.208 58.6301C78.2474 58.6301 77.4357 58.4131 76.7729 57.9789C76.1027 57.5373 75.6224 56.9235 75.332 56.1376C75.1011 55.5762 74.9857 54.8427 74.9857 53.937C74.9857 53.3158 75.0676 52.7694 75.2314 52.2978C75.4921 51.5044 75.9426 50.8719 76.583 50.4004C77.2234 49.9288 77.9867 49.693 78.8729 49.693C79.9899 49.693 80.8873 50.0186 81.5649 50.6698C82.2426 51.321 82.6522 52.1893 82.7937 53.2746ZM78.8841 51.7477C78.1841 51.7477 77.7224 52.077 77.499 52.7357C77.4543 52.8854 77.4133 53.065 77.3761 53.2746C77.3761 53.327 77.4059 53.3532 77.4655 53.3532H80.3585C80.4256 53.3532 80.4479 53.327 80.4256 53.2746C80.3734 52.9528 80.3474 52.7956 80.3474 52.8031C80.2431 52.4662 80.0681 52.2043 79.8224 52.0171C79.5692 51.8375 79.2564 51.7477 78.8841 51.7477ZM88.6022 49.7267C89.0043 49.7267 89.3245 49.8053 89.5628 49.9625C89.6522 50.0074 89.6857 50.0898 89.6633 50.2095L89.3171 52.1294C89.3022 52.2641 89.2203 52.3053 89.0713 52.2529C88.9075 52.193 88.7139 52.1631 88.4905 52.1631C88.4011 52.1631 88.2782 52.1743 88.1218 52.1968C87.7197 52.2342 87.3772 52.3839 87.0942 52.6459C86.8187 52.9078 86.6809 53.2596 86.6809 53.7013V58.2933C86.6809 58.3532 86.6623 58.4018 86.625 58.4393C86.5804 58.4767 86.532 58.4954 86.4798 58.4954H84.5139C84.4617 58.4954 84.4171 58.4767 84.3798 58.4393C84.3351 58.4018 84.3128 58.3532 84.3128 58.2933V50.0411C84.3128 49.9887 84.3351 49.9401 84.3798 49.8951C84.4171 49.8577 84.4617 49.839 84.5139 49.839H86.4798C86.532 49.839 86.5804 49.8577 86.625 49.8951C86.6623 49.9401 86.6809 49.9887 86.6809 50.0411V50.6811C86.6809 50.711 86.6921 50.7335 86.7144 50.7484C86.7367 50.7634 86.7554 50.7559 86.7702 50.726C87.2245 50.0598 87.8351 49.7267 88.6022 49.7267Z" fill="#252530"></path><path d="M42.5137 30.0672C42.5137 30.0148 42.5323 29.9661 42.5695 29.9212C42.6068 29.8838 42.6514 29.8651 42.7036 29.8651H44.6695C44.7217 29.8651 44.7701 29.8838 44.8147 29.9212C44.852 29.9661 44.8706 30.0148 44.8706 30.0672V41.4519C44.8706 41.5117 44.852 41.5604 44.8147 41.5978C44.7701 41.6352 44.7217 41.6539 44.6695 41.6539H42.7036C42.6514 41.6539 42.6068 41.6352 42.5695 41.5978C42.5323 41.5604 42.5137 41.5117 42.5137 41.4519V36.8037C42.5137 36.7513 42.4839 36.7251 42.4243 36.7251H38.7158C38.6637 36.7251 38.6376 36.7513 38.6376 36.8037V41.4519C38.6376 41.5117 38.619 41.5604 38.5818 41.5978C38.5371 41.6352 38.4887 41.6539 38.4366 41.6539H36.4706C36.4185 41.6539 36.3738 41.6352 36.3366 41.5978C36.2919 41.5604 36.2695 41.5117 36.2695 41.4519V30.0672C36.2695 30.0148 36.2919 29.9661 36.3366 29.9212C36.3738 29.8838 36.4185 29.8651 36.4706 29.8651H38.4366C38.4887 29.8651 38.5371 29.8838 38.5818 29.9212C38.619 29.9661 38.6376 30.0148 38.6376 30.0672V34.5919C38.6376 34.6517 38.6637 34.6817 38.7158 34.6817H42.4243C42.4839 34.6817 42.5137 34.6517 42.5137 34.5919V30.0672ZM47.9201 32.0208C47.5403 32.0208 47.2238 31.8935 46.9706 31.639C46.7174 31.392 46.5908 31.0777 46.5908 30.6959C46.5908 30.2992 46.7137 29.9774 46.9594 29.7304C47.2052 29.4834 47.5254 29.3599 47.9201 29.3599C48.3147 29.3599 48.635 29.4834 48.8807 29.7304C49.1264 29.9774 49.2493 30.2992 49.2493 30.6959C49.2493 31.0777 49.1227 31.392 48.8695 31.639C48.6163 31.8935 48.2999 32.0208 47.9201 32.0208ZM46.9147 41.6539C46.8626 41.6539 46.8142 41.6352 46.7695 41.5978C46.7323 41.5604 46.7137 41.5117 46.7137 41.4519V33.1884C46.7137 33.1286 46.7323 33.0799 46.7695 33.0425C46.8142 33.005 46.8626 32.9863 46.9147 32.9863H48.8807C48.9328 32.9863 48.9775 33.005 49.0147 33.0425C49.0594 33.0799 49.0818 33.1286 49.0818 33.1884V41.4519C49.0818 41.5117 49.0594 41.5604 49.0147 41.5978C48.9775 41.6352 48.9328 41.6539 48.8807 41.6539H46.9147ZM56.1749 33.1997C56.1749 33.1473 56.1972 33.0986 56.2419 33.0537C56.2791 33.0163 56.3238 32.9976 56.3759 32.9976H58.3419C58.394 32.9976 58.4424 33.0163 58.4871 33.0537C58.5243 33.0986 58.5429 33.1473 58.5429 33.1997V40.8793C58.5429 42.3463 58.1222 43.3942 57.2807 44.0229C56.4392 44.6592 55.352 44.9773 54.019 44.9773C53.6243 44.9773 53.1887 44.9473 52.7121 44.8875C52.6004 44.8725 52.5445 44.8014 52.5445 44.6741L52.6116 42.9339C52.6116 42.7842 52.6897 42.7206 52.8461 42.743C53.2483 42.8104 53.6169 42.8441 53.952 42.8441C54.6669 42.8441 55.2179 42.6906 55.6052 42.3837C55.985 42.0619 56.1749 41.5566 56.1749 40.868C56.1749 40.8306 56.1637 40.8081 56.1413 40.8007C56.119 40.7932 56.0967 40.8044 56.0743 40.8343C55.6499 41.2909 55.0318 41.5192 54.2201 41.5192C53.4903 41.5192 52.8238 41.3433 52.2206 40.9915C51.61 40.6397 51.1743 40.0709 50.9137 39.285C50.7499 38.7685 50.6679 38.0986 50.6679 37.2752C50.6679 36.3995 50.7685 35.6884 50.9695 35.142C51.2004 34.4534 51.5951 33.9032 52.1536 33.4916C52.7121 33.0724 53.3637 32.8628 54.1084 32.8628C54.9647 32.8628 55.6201 33.1211 56.0743 33.6375C56.0967 33.66 56.119 33.6675 56.1413 33.66C56.1637 33.6525 56.1749 33.6338 56.1749 33.6038V33.1997ZM56.0408 38.6338C56.1302 38.3044 56.1749 37.8441 56.1749 37.2528C56.1749 36.9085 56.1637 36.6428 56.1413 36.4556C56.119 36.261 56.0818 36.0776 56.0296 35.9055C55.9254 35.6061 55.7578 35.3628 55.527 35.1757C55.2961 34.9961 55.0057 34.9062 54.6557 34.9062C54.3206 34.9062 54.0376 34.9961 53.8068 35.1757C53.5685 35.3628 53.3935 35.6061 53.2818 35.9055C53.1254 36.2423 53.0472 36.6989 53.0472 37.2752C53.0472 37.904 53.1142 38.3531 53.2483 38.6225C53.3451 38.9294 53.5201 39.1727 53.7733 39.3523C54.0264 39.5394 54.3243 39.633 54.6669 39.633C55.0243 39.633 55.3222 39.5394 55.5605 39.3523C55.7913 39.1727 55.9514 38.9332 56.0408 38.6338ZM64.7312 32.8628C65.6249 32.8628 66.3435 33.1398 66.8871 33.6937C67.4307 34.2401 67.7025 34.9848 67.7025 35.9279V41.4519C67.7025 41.5117 67.6839 41.5604 67.6467 41.5978C67.6094 41.6352 67.5647 41.6539 67.5126 41.6539H65.5467C65.4945 41.6539 65.4461 41.6352 65.4014 41.5978C65.3642 41.5604 65.3456 41.5117 65.3456 41.4519V36.4107C65.3456 35.9691 65.219 35.6061 64.9658 35.3217C64.7201 35.0447 64.3887 34.9062 63.9717 34.9062C63.5621 34.9062 63.2307 35.0447 62.9775 35.3217C62.7243 35.6061 62.5977 35.9691 62.5977 36.4107V41.4519C62.5977 41.5117 62.5791 41.5604 62.5419 41.5978C62.5046 41.6352 62.4562 41.6539 62.3967 41.6539H60.4419C60.3823 41.6539 60.3339 41.6352 60.2967 41.5978C60.2594 41.5604 60.2408 41.5117 60.2408 41.4519V30.0672C60.2408 30.0148 60.2594 29.9661 60.2967 29.9212C60.3339 29.8838 60.3823 29.8651 60.4419 29.8651H62.3967C62.4562 29.8651 62.5046 29.8838 62.5419 29.9212C62.5791 29.9661 62.5977 30.0148 62.5977 30.0672V33.7947C62.5977 33.8247 62.6089 33.8471 62.6312 33.8621C62.6536 33.8696 62.6685 33.8621 62.6759 33.8396C63.1376 33.1884 63.8227 32.8628 64.7312 32.8628Z" fill="#252530"></path><path d="M29.1111 76.6839C29.0366 76.6839 28.9882 76.6464 28.9659 76.5716L28.5973 75.3703C28.5824 75.3403 28.5638 75.3253 28.5414 75.3253H25.5925C25.5702 75.3253 25.5515 75.3403 25.5366 75.3703L25.168 76.5716C25.1457 76.6464 25.0973 76.6839 25.0228 76.6839H23.9058C23.8611 76.6839 23.8276 76.6689 23.8053 76.639C23.7829 76.6165 23.7792 76.5791 23.7941 76.5267L26.218 68.9369C26.2404 68.8621 26.2888 68.8246 26.3632 68.8246H27.7595C27.834 68.8246 27.8824 68.8621 27.9047 68.9369L30.3398 76.5267C30.3473 76.5417 30.351 76.5604 30.351 76.5828C30.351 76.6502 30.3101 76.6839 30.2281 76.6839H29.1111ZM25.8829 74.2363C25.8755 74.2812 25.8904 74.3036 25.9276 74.3036H28.1952C28.2398 74.3036 28.2547 74.2812 28.2398 74.2363L27.0893 70.4751C27.0819 70.4451 27.0707 70.4302 27.0558 70.4302C27.0409 70.4302 27.0297 70.4451 27.0223 70.4751L25.8829 74.2363ZM33.501 76.7512C33.0319 76.7512 32.6223 76.6801 32.2723 76.5379C31.9148 76.4032 31.6393 76.2123 31.4457 75.9653C31.2521 75.7258 31.1553 75.4563 31.1553 75.1569V75.0559C31.1553 75.0185 31.1702 74.9848 31.1999 74.9548C31.2223 74.9324 31.2521 74.9212 31.2893 74.9212H32.2723C32.3095 74.9212 32.343 74.9324 32.3728 74.9548C32.3952 74.9848 32.4063 75.0185 32.4063 75.0559V75.0783C32.4063 75.2655 32.5069 75.4301 32.7079 75.5724C32.9164 75.7071 33.1771 75.7744 33.4898 75.7744C33.7877 75.7744 34.0297 75.7146 34.2159 75.5948C34.4021 75.4676 34.4952 75.3104 34.4952 75.1233C34.4952 74.9511 34.4207 74.8201 34.2718 74.7303C34.1154 74.648 33.8659 74.5581 33.5233 74.4608L33.0989 74.3261C32.7191 74.2138 32.3989 74.0941 32.1382 73.9668C31.8776 73.8396 31.6579 73.6637 31.4792 73.4391C31.3005 73.2221 31.2111 72.9414 31.2111 72.5971C31.2111 72.0731 31.4159 71.6577 31.8255 71.3508C32.2351 71.0365 32.7749 70.8793 33.4452 70.8793C33.8994 70.8793 34.2978 70.9504 34.6404 71.0926C34.9829 71.2423 35.2473 71.4444 35.4335 71.6989C35.6196 71.9608 35.7127 72.2565 35.7127 72.5858C35.7127 72.6233 35.7015 72.6569 35.6792 72.6869C35.6494 72.7093 35.6159 72.7206 35.5787 72.7206H34.6292C34.592 72.7206 34.5622 72.7093 34.5398 72.6869C34.5101 72.6569 34.4952 72.6233 34.4952 72.5858C34.4952 72.3912 34.4021 72.2303 34.2159 72.1031C34.0223 71.9683 33.7616 71.901 33.434 71.901C33.1436 71.901 32.9053 71.9534 32.7191 72.0582C32.5404 72.1704 32.451 72.3239 32.451 72.5185C32.451 72.6981 32.5366 72.8328 32.7079 72.9227C32.8866 73.02 33.1808 73.1248 33.5904 73.237L33.8361 73.3044C34.2308 73.4242 34.5622 73.5439 34.8303 73.6637C35.0983 73.7909 35.3255 73.9631 35.5116 74.1801C35.6978 74.4047 35.7909 74.6929 35.7909 75.0447C35.7909 75.5761 35.5824 75.9915 35.1654 76.2909C34.7483 76.5978 34.1936 76.7512 33.501 76.7512ZM37.6228 70.1607C37.392 70.1607 37.2021 70.0859 37.0531 69.9362C36.9042 69.7865 36.8297 69.5956 36.8297 69.3636C36.8297 69.1315 36.9042 68.9407 37.0531 68.791C37.2021 68.6413 37.392 68.5664 37.6228 68.5664C37.8537 68.5664 38.0436 68.6413 38.1925 68.791C38.3414 68.9407 38.4159 69.1315 38.4159 69.3636C38.4159 69.5956 38.3414 69.7865 38.1925 69.9362C38.0436 70.0859 37.8537 70.1607 37.6228 70.1607ZM37.0866 76.6839C37.0494 76.6839 37.0196 76.6689 36.9973 76.639C36.9675 76.6165 36.9526 76.5866 36.9526 76.5491V71.0701C36.9526 71.0327 36.9675 71.0028 36.9973 70.9803C37.0196 70.9504 37.0494 70.9354 37.0866 70.9354H38.1143C38.1515 70.9354 38.1813 70.9504 38.2037 70.9803C38.2335 71.0028 38.2483 71.0327 38.2483 71.0701V76.5491C38.2483 76.5866 38.2335 76.6165 38.2037 76.639C38.1813 76.6689 38.1515 76.6839 38.1143 76.6839H37.0866ZM41.9122 70.8568C42.3813 70.8568 42.7946 70.9391 43.1521 71.1038C43.5095 71.2685 43.785 71.493 43.9787 71.7775C44.1723 72.0694 44.2691 72.3987 44.2691 72.7655V76.5491C44.2691 76.5866 44.2579 76.6165 44.2356 76.639C44.2058 76.6689 44.1723 76.6839 44.1351 76.6839H43.1074C43.0702 76.6839 43.0404 76.6689 43.018 76.639C42.9882 76.6165 42.9733 76.5866 42.9733 76.5491V76.1899C42.9733 76.1674 42.9659 76.1524 42.951 76.145C42.9361 76.145 42.9212 76.1524 42.9063 76.1674C42.5414 76.5716 42.0127 76.7737 41.3202 76.7737C40.7616 76.7737 40.3037 76.6315 39.9462 76.347C39.5813 76.0626 39.3989 75.6397 39.3989 75.0783C39.3989 74.4945 39.6037 74.0379 40.0132 73.7086C40.4154 73.3867 40.9851 73.2258 41.7223 73.2258H42.9175C42.9547 73.2258 42.9733 73.2071 42.9733 73.1697V72.9002C42.9733 72.6083 42.8877 72.38 42.7164 72.2153C42.5452 72.0582 42.2882 71.9796 41.9457 71.9796C41.6627 71.9796 41.4356 72.032 41.2643 72.1367C41.0856 72.234 40.9739 72.3725 40.9292 72.5522C40.9069 72.642 40.8547 72.6794 40.7728 72.6644L39.6893 72.5297C39.6521 72.5222 39.6223 72.511 39.5999 72.496C39.5702 72.4736 39.559 72.4474 39.5664 72.4174C39.626 71.9608 39.8718 71.5866 40.3037 71.2947C40.7281 71.0028 41.2643 70.8568 41.9122 70.8568ZM41.6441 75.7408C42.009 75.7408 42.3218 75.6435 42.5824 75.4488C42.843 75.2542 42.9733 75.0072 42.9733 74.7078V74.1801C42.9733 74.1427 42.9547 74.124 42.9175 74.124H41.9792C41.5845 74.124 41.2755 74.1989 41.0521 74.3486C40.8212 74.4983 40.7058 74.7116 40.7058 74.9885C40.7058 75.228 40.7952 75.4114 40.9739 75.5387C41.1452 75.6734 41.3686 75.7408 41.6441 75.7408ZM51.0606 68.8134C51.5297 68.8134 51.943 68.9107 52.3005 69.1053C52.6579 69.2999 52.9335 69.5731 53.1271 69.9249C53.3281 70.2842 53.4287 70.6959 53.4287 71.16C53.4287 71.6165 53.3281 72.0207 53.1271 72.3725C52.926 72.7243 52.6393 72.9938 52.267 73.1809C51.9021 73.3755 51.4776 73.4728 50.9936 73.4728H49.2063C49.1691 73.4728 49.1505 73.4915 49.1505 73.5289V76.5491C49.1505 76.5866 49.1393 76.6165 49.117 76.639C49.0872 76.6689 49.0537 76.6839 49.0164 76.6839H47.9888C47.9515 76.6839 47.918 76.6689 47.8882 76.639C47.8659 76.6165 47.8547 76.5866 47.8547 76.5491V68.9481C47.8547 68.9107 47.8659 68.877 47.8882 68.8471C47.918 68.8246 47.9515 68.8134 47.9888 68.8134H51.0606ZM50.8707 72.4174C51.2505 72.4174 51.5558 72.3052 51.7866 72.0806C52.0175 71.8561 52.1329 71.5604 52.1329 71.1936C52.1329 70.8194 52.0175 70.5162 51.7866 70.2842C51.5558 70.0522 51.2505 69.9362 50.8707 69.9362H49.2063C49.1691 69.9362 49.1505 69.9549 49.1505 69.9923V72.3613C49.1505 72.3987 49.1691 72.4174 49.2063 72.4174H50.8707ZM56.5563 70.8568C57.0255 70.8568 57.4388 70.9391 57.7962 71.1038C58.1537 71.2685 58.4292 71.493 58.6228 71.7775C58.8164 72.0694 58.9132 72.3987 58.9132 72.7655V76.5491C58.9132 76.5866 58.8983 76.6165 58.8686 76.639C58.8462 76.6689 58.8164 76.6839 58.7792 76.6839H57.7515C57.7143 76.6839 57.6845 76.6689 57.6622 76.639C57.6324 76.6165 57.6175 76.5866 57.6175 76.5491V76.1899C57.6175 76.1674 57.6101 76.1524 57.5952 76.145C57.5803 76.145 57.5654 76.1524 57.5505 76.1674C57.1856 76.5716 56.6569 76.7737 55.9643 76.7737C55.4058 76.7737 54.9478 76.6315 54.5904 76.347C54.2255 76.0626 54.043 75.6397 54.043 75.0783C54.043 74.4945 54.2441 74.0379 54.6462 73.7086C55.0558 73.3867 55.6292 73.2258 56.3664 73.2258H57.5616C57.5989 73.2258 57.6175 73.2071 57.6175 73.1697V72.9002C57.6175 72.6083 57.5319 72.38 57.3606 72.2153C57.1893 72.0582 56.9324 71.9796 56.5898 71.9796C56.3069 71.9796 56.076 72.032 55.8973 72.1367C55.726 72.234 55.618 72.3725 55.5733 72.5522C55.551 72.642 55.4989 72.6794 55.417 72.6644L54.3335 72.5297C54.2962 72.5222 54.2664 72.511 54.2441 72.496C54.2143 72.4736 54.2031 72.4474 54.2106 72.4174C54.2702 71.9608 54.5159 71.5866 54.9478 71.2947C55.3723 71.0028 55.9085 70.8568 56.5563 70.8568ZM56.2882 75.7408C56.6531 75.7408 56.9659 75.6435 57.2265 75.4488C57.4872 75.2542 57.6175 75.0072 57.6175 74.7078V74.1801C57.6175 74.1427 57.5989 74.124 57.5616 74.124H56.6233C56.2287 74.124 55.9196 74.1989 55.6962 74.3486C55.4654 74.4983 55.3499 74.7116 55.3499 74.9885C55.3499 75.228 55.4393 75.4114 55.618 75.5387C55.7893 75.6734 56.0127 75.7408 56.2882 75.7408ZM62.5882 76.7737C62.0148 76.7737 61.5196 76.624 61.1026 76.3246C60.6856 76.0327 60.3952 75.636 60.2313 75.1345C60.1122 74.7977 60.0526 74.3486 60.0526 73.7872C60.0526 73.2483 60.1122 72.8066 60.2313 72.4623C60.3877 71.9683 60.6744 71.5791 61.0914 71.2947C61.5159 71.0028 62.0148 70.8568 62.5882 70.8568C63.1691 70.8568 63.6755 71.0028 64.1074 71.2947C64.5393 71.5866 64.826 71.9534 64.9675 72.395C65.0047 72.5147 65.0308 72.6345 65.0457 72.7543V72.7767C65.0457 72.8516 65.0047 72.8965 64.9228 72.9114L63.9175 73.0574H63.8952C63.8281 73.0574 63.7835 73.02 63.7611 72.9451C63.7611 72.9077 63.7574 72.8778 63.75 72.8553C63.7351 72.7954 63.7202 72.743 63.7053 72.6981C63.6382 72.4885 63.5042 72.3164 63.3031 72.1817C63.1021 72.0469 62.8638 71.9796 62.5882 71.9796C62.3053 71.9796 62.0632 72.0507 61.8622 72.1929C61.6686 72.3426 61.5382 72.5447 61.4712 72.7992C61.3968 73.0387 61.3595 73.3718 61.3595 73.7984C61.3595 74.2101 61.393 74.5432 61.4601 74.7977C61.5345 75.0596 61.6686 75.2655 61.8622 75.4152C62.0558 75.5724 62.2978 75.6509 62.5882 75.6509C62.8712 75.6509 63.117 75.5798 63.3255 75.4376C63.5265 75.2879 63.6569 75.0896 63.7164 74.8426C63.7239 74.8276 63.7276 74.8089 63.7276 74.7864C63.7351 74.7789 63.7388 74.7677 63.7388 74.7527C63.7611 74.6629 63.8132 74.6255 63.8952 74.6405L64.9005 74.7977C64.9377 74.8051 64.9712 74.8201 65.001 74.8426C65.0234 74.8725 65.0308 74.9099 65.0234 74.9548C65.001 75.0746 64.9824 75.1607 64.9675 75.2131C64.826 75.6921 64.5393 76.0738 64.1074 76.3583C63.6755 76.6352 63.1691 76.7737 62.5882 76.7737ZM66.8776 70.1607C66.6468 70.1607 66.4569 70.0859 66.3079 69.9362C66.159 69.7865 66.0845 69.5956 66.0845 69.3636C66.0845 69.1315 66.159 68.9407 66.3079 68.791C66.4569 68.6413 66.6468 68.5664 66.8776 68.5664C67.1085 68.5664 67.2984 68.6413 67.4473 68.791C67.5962 68.9407 67.6707 69.1315 67.6707 69.3636C67.6707 69.5956 67.5962 69.7865 67.4473 69.9362C67.2984 70.0859 67.1085 70.1607 66.8776 70.1607ZM66.3414 76.6839C66.3042 76.6839 66.2744 76.6689 66.2521 76.639C66.2223 76.6165 66.2074 76.5866 66.2074 76.5491V71.0701C66.2074 71.0327 66.2223 71.0028 66.2521 70.9803C66.2744 70.9504 66.3042 70.9354 66.3414 70.9354H67.3691C67.4063 70.9354 67.4398 70.9504 67.4696 70.9803C67.492 71.0028 67.5031 71.0327 67.5031 71.0701V76.5491C67.5031 76.5866 67.492 76.6165 67.4696 76.639C67.4398 76.6689 67.4063 76.6839 67.3691 76.6839H66.3414ZM71.9601 70.9354C71.9973 70.9354 72.0308 70.9504 72.0606 70.9803C72.0829 71.0028 72.0941 71.0327 72.0941 71.0701V71.9571C72.0941 71.9945 72.0829 72.0245 72.0606 72.0469C72.0308 72.0769 71.9973 72.0918 71.9601 72.0918H70.8542C70.817 72.0918 70.7984 72.1105 70.7984 72.148V76.5491C70.7984 76.5866 70.7835 76.6165 70.7537 76.639C70.7313 76.6689 70.7015 76.6839 70.6643 76.6839H69.6366C69.5994 76.6839 69.5696 76.6689 69.5473 76.639C69.5175 76.6165 69.5026 76.5866 69.5026 76.5491V72.148C69.5026 72.1105 69.484 72.0918 69.4468 72.0918H68.7542C68.717 72.0918 68.6872 72.0769 68.6648 72.0469C68.6351 72.0245 68.6202 71.9945 68.6202 71.9571V71.0701C68.6202 71.0327 68.6351 71.0028 68.6648 70.9803C68.6872 70.9504 68.717 70.9354 68.7542 70.9354H69.4468C69.484 70.9354 69.5026 70.9167 69.5026 70.8793V70.6772C69.5026 70.1906 69.5659 69.8127 69.6925 69.5432C69.8191 69.2812 70.0276 69.0941 70.318 68.9818C70.6085 68.8695 71.018 68.8172 71.5468 68.8246H71.9377C71.9749 68.8246 72.0047 68.8396 72.0271 68.8695C72.0569 68.892 72.0718 68.9219 72.0718 68.9594V69.7453C72.0718 69.7827 72.0569 69.8164 72.0271 69.8463C72.0047 69.8688 71.9749 69.88 71.9377 69.88H71.6473C71.3271 69.88 71.1037 69.9436 70.9771 70.0709C70.8579 70.1981 70.7984 70.4302 70.7984 70.767V70.8793C70.7984 70.9167 70.817 70.9354 70.8542 70.9354H71.9601ZM73.926 70.1607C73.6952 70.1607 73.5053 70.0859 73.3563 69.9362C73.2074 69.7865 73.1329 69.5956 73.1329 69.3636C73.1329 69.1315 73.2074 68.9407 73.3563 68.791C73.5053 68.6413 73.6952 68.5664 73.926 68.5664C74.1569 68.5664 74.3468 68.6413 74.4957 68.791C74.6446 68.9407 74.7191 69.1315 74.7191 69.3636C74.7191 69.5956 74.6446 69.7865 74.4957 69.9362C74.3468 70.0859 74.1569 70.1607 73.926 70.1607ZM73.3898 76.6839C73.3526 76.6839 73.3228 76.6689 73.3005 76.639C73.2707 76.6165 73.2558 76.5866 73.2558 76.5491V71.0701C73.2558 71.0327 73.2707 71.0028 73.3005 70.9803C73.3228 70.9504 73.3526 70.9354 73.3898 70.9354H74.4175C74.4547 70.9354 74.4845 70.9504 74.5069 70.9803C74.5366 71.0028 74.5515 71.0327 74.5515 71.0701V76.5491C74.5515 76.5866 74.5366 76.6165 74.5069 76.639C74.4845 76.6689 74.4547 76.6839 74.4175 76.6839H73.3898ZM78.4164 76.7737C77.843 76.7737 77.3478 76.624 76.9308 76.3246C76.5138 76.0327 76.2234 75.636 76.0595 75.1345C75.9404 74.7977 75.8808 74.3486 75.8808 73.7872C75.8808 73.2483 75.9404 72.8066 76.0595 72.4623C76.2159 71.9683 76.5026 71.5791 76.9196 71.2947C77.3441 71.0028 77.843 70.8568 78.4164 70.8568C78.9973 70.8568 79.5037 71.0028 79.9356 71.2947C80.3675 71.5866 80.6542 71.9534 80.7957 72.395C80.8329 72.5147 80.859 72.6345 80.8739 72.7543V72.7767C80.8739 72.8516 80.8329 72.8965 80.751 72.9114L79.7457 73.0574H79.7234C79.6563 73.0574 79.6116 73.02 79.5893 72.9451C79.5893 72.9077 79.5856 72.8778 79.5781 72.8553C79.5632 72.7954 79.5484 72.743 79.5335 72.6981C79.4664 72.4885 79.3324 72.3164 79.1313 72.1817C78.9303 72.0469 78.692 71.9796 78.4164 71.9796C78.1335 71.9796 77.8914 72.0507 77.6904 72.1929C77.4968 72.3426 77.3664 72.5447 77.2994 72.7992C77.2249 73.0387 77.1877 73.3718 77.1877 73.7984C77.1877 74.2101 77.2212 74.5432 77.2882 74.7977C77.3627 75.0596 77.4968 75.2655 77.6904 75.4152C77.884 75.5724 78.126 75.6509 78.4164 75.6509C78.6994 75.6509 78.9414 75.5798 79.1425 75.4376C79.351 75.2879 79.4851 75.0896 79.5446 74.8426C79.5521 74.8276 79.5558 74.8089 79.5558 74.7864C79.5632 74.7789 79.567 74.7677 79.567 74.7527C79.5893 74.6629 79.6414 74.6255 79.7234 74.6405L80.7287 74.7977C80.7659 74.8051 80.7957 74.8201 80.818 74.8426C80.8478 74.8725 80.859 74.9099 80.8515 74.9548C80.8292 75.0746 80.8106 75.1607 80.7957 75.2131C80.6542 75.6921 80.3675 76.0738 79.9356 76.3583C79.5037 76.6352 78.9973 76.7737 78.4164 76.7737Z" fill="white"></path><path d="M34.8048 92.5145C34.7229 92.5145 34.6708 92.4771 34.6485 92.4022L32.6713 84.8012L32.6602 84.7563C32.6602 84.689 32.7011 84.6553 32.783 84.6553H34.1681C34.2426 84.6553 34.291 84.6927 34.3133 84.7675L35.3745 89.3371C35.382 89.3671 35.3931 89.382 35.408 89.382C35.4229 89.382 35.4341 89.3671 35.4415 89.3371L36.4692 84.7788C36.4915 84.6964 36.5399 84.6553 36.6144 84.6553H37.966C38.0479 84.6553 38.1001 84.6927 38.1224 84.7675L39.2394 89.3371C39.2469 89.3596 39.258 89.3746 39.2729 89.382C39.2878 89.382 39.299 89.3671 39.3064 89.3371L40.3341 84.7788C40.3564 84.6964 40.4048 84.6553 40.4793 84.6553H41.7974C41.9016 84.6553 41.9426 84.7039 41.9203 84.8012L40.0883 92.4022C40.066 92.4771 40.0139 92.5145 39.932 92.5145H38.6027C38.5282 92.5145 38.4798 92.4771 38.4575 92.4022L37.3181 87.5407C37.3107 87.5108 37.2995 87.4958 37.2846 87.4958C37.2697 87.4958 37.2586 87.5108 37.2511 87.5407L36.1899 92.391C36.1751 92.4733 36.1266 92.5145 36.0447 92.5145H34.8048ZM43.0038 92.5145C42.9665 92.5145 42.933 92.4995 42.9032 92.4696C42.8809 92.4471 42.8697 92.4172 42.8697 92.3798V84.79C42.8697 84.7526 42.8809 84.7226 42.9032 84.7002C42.933 84.6702 42.9665 84.6553 43.0038 84.6553H44.3107C44.3479 84.6553 44.3777 84.6702 44.4001 84.7002C44.4298 84.7226 44.4447 84.7526 44.4447 84.79V92.3798C44.4447 92.4172 44.4298 92.4471 44.4001 92.4696C44.3777 92.4995 44.3479 92.5145 44.3107 92.5145H43.0038ZM50.2979 84.79C50.2979 84.7526 50.3091 84.7226 50.3314 84.7002C50.3612 84.6702 50.3947 84.6553 50.432 84.6553H51.7389C51.7761 84.6553 51.8059 84.6702 51.8282 84.7002C51.858 84.7226 51.8729 84.7526 51.8729 84.79V92.3798C51.8729 92.4172 51.858 92.4471 51.8282 92.4696C51.8059 92.4995 51.7761 92.5145 51.7389 92.5145H50.4766C50.4022 92.5145 50.35 92.4846 50.3203 92.4247L47.4272 87.6193C47.4123 87.5969 47.3974 87.5894 47.3825 87.5969C47.3676 87.5969 47.3602 87.6118 47.3602 87.6418L47.3825 92.3798C47.3825 92.4172 47.3676 92.4471 47.3378 92.4696C47.3155 92.4995 47.2857 92.5145 47.2485 92.5145H45.9415C45.9043 92.5145 45.8708 92.4995 45.841 92.4696C45.8187 92.4471 45.8075 92.4172 45.8075 92.3798V84.79C45.8075 84.7526 45.8187 84.7226 45.841 84.7002C45.8708 84.6702 45.9043 84.6553 45.9415 84.6553H47.2038C47.2782 84.6553 47.3304 84.6852 47.3602 84.7451L50.2421 89.528C50.257 89.5505 50.2719 89.5579 50.2868 89.5505C50.3016 89.5505 50.3091 89.5355 50.3091 89.5055L50.2979 84.79ZM58.6309 84.6553C58.6681 84.6553 58.6979 84.6702 58.7203 84.7002C58.7501 84.7226 58.7649 84.7526 58.7649 84.79V85.8903C58.7649 85.9277 58.7501 85.9577 58.7203 85.9801C58.6979 86.0101 58.6681 86.025 58.6309 86.025H56.6314C56.5942 86.025 56.5756 86.0437 56.5756 86.0812V92.3798C56.5756 92.4172 56.5607 92.4471 56.5309 92.4696C56.5086 92.4995 56.4788 92.5145 56.4415 92.5145H55.1346C55.0974 92.5145 55.0639 92.4995 55.0341 92.4696C55.0118 92.4471 55.0006 92.4172 55.0006 92.3798V86.0812C55.0006 86.0437 54.982 86.025 54.9447 86.025H53.0011C52.9639 86.025 52.9304 86.0101 52.9006 85.9801C52.8782 85.9577 52.8671 85.9277 52.8671 85.8903V84.79C52.8671 84.7526 52.8782 84.7226 52.9006 84.7002C52.9304 84.6702 52.9639 84.6553 53.0011 84.6553H58.6309ZM65.199 85.8791C65.199 85.9165 65.1878 85.9464 65.1655 85.9689C65.1357 85.9988 65.1022 86.0138 65.0649 86.0138H61.4011C61.3639 86.0138 61.3453 86.0325 61.3453 86.0699V87.8102C61.3453 87.8476 61.3639 87.8663 61.4011 87.8663H63.8027C63.8399 87.8663 63.8697 87.8776 63.8921 87.9C63.9219 87.93 63.9368 87.9636 63.9368 88.0011V89.0901C63.9368 89.1276 63.9219 89.1612 63.8921 89.1912C63.8697 89.2136 63.8399 89.2249 63.8027 89.2249H61.4011C61.3639 89.2249 61.3453 89.2436 61.3453 89.281V91.0998C61.3453 91.1373 61.3639 91.156 61.4011 91.156H65.0649C65.1022 91.156 65.1357 91.1672 65.1655 91.1897C65.1878 91.2196 65.199 91.2533 65.199 91.2907V92.3798C65.199 92.4172 65.1878 92.4471 65.1655 92.4696C65.1357 92.4995 65.1022 92.5145 65.0649 92.5145H59.9043C59.8671 92.5145 59.8336 92.4995 59.8038 92.4696C59.7814 92.4471 59.7703 92.4172 59.7703 92.3798V84.79C59.7703 84.7526 59.7814 84.7226 59.8038 84.7002C59.8336 84.6702 59.8671 84.6553 59.9043 84.6553H65.0649C65.1022 84.6553 65.1357 84.6702 65.1655 84.7002C65.1878 84.7226 65.199 84.7526 65.199 84.79V85.8791ZM70.583 92.5145C70.5086 92.5145 70.4564 92.4808 70.4266 92.4135L69.0304 89.3034C69.0155 89.2735 68.9931 89.2585 68.9633 89.2585H67.9245C67.8873 89.2585 67.8687 89.2773 67.8687 89.3147V92.3798C67.8687 92.4172 67.8538 92.4471 67.824 92.4696C67.8016 92.4995 67.7719 92.5145 67.7346 92.5145H66.4277C66.3905 92.5145 66.357 92.4995 66.3272 92.4696C66.3048 92.4471 66.2937 92.4172 66.2937 92.3798V84.79C66.2937 84.7526 66.3048 84.7226 66.3272 84.7002C66.357 84.6702 66.3905 84.6553 66.4277 84.6553H69.6224C70.099 84.6553 70.516 84.7526 70.8735 84.9472C71.2383 85.1418 71.5176 85.4187 71.7112 85.778C71.9123 86.1373 72.0128 86.5527 72.0128 87.0243C72.0128 87.5332 71.8862 87.9674 71.633 88.3267C71.3798 88.6934 71.0261 88.9517 70.5719 89.1014C70.5346 89.1163 70.5235 89.1425 70.5383 89.1799L72.0575 92.3573C72.0724 92.3873 72.0798 92.4097 72.0798 92.4247C72.0798 92.4846 72.0389 92.5145 71.957 92.5145H70.583ZM67.9245 86.0138C67.8873 86.0138 67.8687 86.0325 67.8687 86.0699V87.9898C67.8687 88.0273 67.8873 88.046 67.9245 88.046H69.3878C69.7006 88.046 69.9538 87.9524 70.1474 87.7653C70.3485 87.5782 70.449 87.3349 70.449 87.0355C70.449 86.7361 70.3485 86.4891 70.1474 86.2945C69.9538 86.1074 69.7006 86.0138 69.3878 86.0138H67.9245Z" fill="#252530"></path><path d="M42.5158 101.642C42.5009 101.657 42.4972 101.672 42.5046 101.687C42.5121 101.702 42.5269 101.71 42.5493 101.71H45.5764C45.6136 101.71 45.6472 101.721 45.6769 101.743C45.6993 101.773 45.7105 101.807 45.7105 101.844V102.933C45.7105 102.971 45.6993 103.001 45.6769 103.023C45.6472 103.053 45.6136 103.068 45.5764 103.068H40.5498C40.5126 103.068 40.4791 103.053 40.4493 103.023C40.4269 103.001 40.4158 102.971 40.4158 102.933V101.901C40.4158 101.833 40.4381 101.777 40.4828 101.732C40.8477 101.373 41.22 100.984 41.5998 100.564C41.9796 100.138 42.2179 99.8721 42.3147 99.7673C42.5232 99.5203 42.7355 99.2845 42.9514 99.06C43.6291 98.304 43.9679 97.7426 43.9679 97.3759C43.9679 97.1139 43.8748 96.8968 43.6886 96.7247C43.5025 96.56 43.2605 96.4777 42.9626 96.4777C42.6647 96.4777 42.4227 96.56 42.2365 96.7247C42.0503 96.8968 41.9573 97.1214 41.9573 97.3983V97.679C41.9573 97.7164 41.9424 97.7501 41.9126 97.7801C41.8902 97.8025 41.8605 97.8137 41.8232 97.8137H40.5051C40.4679 97.8137 40.4381 97.8025 40.4158 97.7801C40.386 97.7501 40.3711 97.7164 40.3711 97.679V97.1513C40.3934 96.7471 40.52 96.3878 40.7509 96.0735C40.9817 95.7666 41.2871 95.5308 41.6668 95.3661C42.0541 95.2015 42.486 95.1191 42.9626 95.1191C43.4913 95.1191 43.953 95.2164 44.3477 95.4111C44.7349 95.6131 45.0365 95.8826 45.2525 96.2194C45.461 96.5563 45.5652 96.9305 45.5652 97.3422C45.5652 97.6566 45.4871 97.9784 45.3307 98.3077C45.1743 98.6371 44.9397 98.9926 44.6269 99.3744C44.3961 99.6663 44.1466 99.9544 43.8785 100.239C43.6105 100.523 43.2121 100.935 42.6833 101.474L42.5158 101.642ZM49.3408 103.192C48.5216 103.192 47.8738 102.96 47.3972 102.496C46.9206 102.039 46.6823 101.414 46.6823 100.621V97.6565C46.6823 96.8781 46.9206 96.2606 47.3972 95.804C47.8738 95.3474 48.5216 95.1191 49.3408 95.1191C50.1599 95.1191 50.8115 95.3474 51.2956 95.804C51.7722 96.2606 52.0105 96.8781 52.0105 97.6565V100.621C52.0105 101.414 51.7722 102.039 51.2956 102.496C50.8115 102.96 50.1599 103.192 49.3408 103.192ZM49.3408 101.833C49.6759 101.833 49.944 101.728 50.145 101.519C50.3386 101.317 50.4355 101.044 50.4355 100.699V97.6116C50.4355 97.2673 50.3386 96.9941 50.145 96.792C49.944 96.5825 49.6759 96.4777 49.3408 96.4777C49.0131 96.4777 48.7525 96.5825 48.5589 96.792C48.3578 96.9941 48.2573 97.2673 48.2573 97.6116V100.699C48.2573 101.044 48.3578 101.317 48.5589 101.519C48.7525 101.728 49.0131 101.833 49.3408 101.833ZM55.1381 101.642C55.1232 101.657 55.1195 101.672 55.1269 101.687C55.1344 101.702 55.1493 101.71 55.1716 101.71H58.1988C58.236 101.71 58.2695 101.721 58.2993 101.743C58.3216 101.773 58.3328 101.807 58.3328 101.844V102.933C58.3328 102.971 58.3216 103.001 58.2993 103.023C58.2695 103.053 58.236 103.068 58.1988 103.068H53.1722C53.1349 103.068 53.1051 103.053 53.0828 103.023C53.053 103.001 53.0381 102.971 53.0381 102.933V101.901C53.0381 101.833 53.0605 101.777 53.1051 101.732C53.47 101.373 53.8424 100.984 54.2222 100.564C54.6019 100.138 54.8402 99.8721 54.9371 99.7673C55.1456 99.5203 55.3578 99.2845 55.5738 99.06C56.2514 98.304 56.5902 97.7426 56.5902 97.3759C56.5902 97.1139 56.4972 96.8968 56.311 96.7247C56.1248 96.56 55.8828 96.4777 55.5849 96.4777C55.2871 96.4777 55.045 96.56 54.8589 96.7247C54.6727 96.8968 54.5796 97.1214 54.5796 97.3983V97.679C54.5796 97.7164 54.5684 97.7501 54.5461 97.7801C54.5163 97.8025 54.4828 97.8137 54.4456 97.8137H53.1275C53.0902 97.8137 53.0605 97.8025 53.0381 97.7801C53.0083 97.7501 52.9934 97.7164 52.9934 97.679V97.1513C53.0158 96.7471 53.1424 96.3878 53.3732 96.0735C53.6041 95.7666 53.9131 95.5308 54.3004 95.3661C54.6801 95.2015 55.1083 95.1191 55.5849 95.1191C56.1136 95.1191 56.5753 95.2164 56.97 95.4111C57.3573 95.6131 57.6589 95.8826 57.8748 96.2194C58.0833 96.5563 58.1876 96.9305 58.1876 97.3422C58.1876 97.6566 58.1094 97.9784 57.953 98.3077C57.7966 98.6371 57.5621 98.9926 57.2493 99.3744C57.0184 99.6663 56.769 99.9544 56.5009 100.239C56.2328 100.523 55.8344 100.935 55.3057 101.474L55.1381 101.642ZM63.9626 99.3182C64.1115 99.6625 64.186 100.059 64.186 100.508C64.186 100.913 64.119 101.287 63.9849 101.631C63.8062 102.11 63.5083 102.484 63.0913 102.754C62.6668 103.023 62.1679 103.158 61.5945 103.158C61.0285 103.158 60.5333 103.016 60.1089 102.731C59.6769 102.447 59.3679 102.061 59.1817 101.575C59.0775 101.283 59.0179 100.969 59.003 100.632C59.003 100.542 59.0477 100.497 59.1371 100.497H60.4551C60.5445 100.497 60.5892 100.542 60.5892 100.632C60.619 100.879 60.6599 101.062 60.7121 101.182C60.7791 101.377 60.8908 101.526 61.0472 101.631C61.1961 101.743 61.3748 101.799 61.5833 101.799C62.0003 101.799 62.2871 101.616 62.4434 101.249C62.5477 101.025 62.5998 100.763 62.5998 100.463C62.5998 100.112 62.544 99.8235 62.4323 99.5989C62.261 99.2471 61.9743 99.0712 61.5722 99.0712C61.4902 99.0712 61.4046 99.0937 61.3152 99.1386C61.2259 99.191 61.1179 99.2621 60.9913 99.3519C60.9615 99.3744 60.9317 99.3856 60.9019 99.3856C60.8573 99.3856 60.8238 99.3631 60.8014 99.3182L60.1424 98.3863C60.1275 98.3639 60.12 98.3377 60.12 98.3077C60.12 98.2628 60.1349 98.2254 60.1647 98.1955L61.9408 96.6348C61.9557 96.6199 61.9631 96.6049 61.9631 96.5899C61.9557 96.575 61.9408 96.5675 61.9184 96.5675H59.2934C59.2562 96.5675 59.2264 96.5525 59.2041 96.5226C59.1743 96.5001 59.1594 96.4702 59.1594 96.4328V95.3437C59.1594 95.3063 59.1743 95.2763 59.2041 95.2539C59.2264 95.2239 59.2562 95.209 59.2934 95.209H63.9514C63.9886 95.209 64.0222 95.2239 64.0519 95.2539C64.0743 95.2763 64.0855 95.3063 64.0855 95.3437V96.5787C64.0855 96.6386 64.0594 96.6947 64.0073 96.7471L62.544 98.0944C62.5291 98.1094 62.5254 98.1244 62.5328 98.1393C62.5328 98.1543 62.5477 98.1618 62.5775 98.1618C63.2254 98.289 63.6871 98.6745 63.9626 99.3182Z" fill="#252530"></path></g><defs><clipPath id="clip0_256_13"><rect width="105" height="119" fill="white"></rect></clipPath></defs></svg>