<svg xmlns="http://www.w3.org/2000/svg" width="107" height="120" viewBox="0 0 107 120" fill="none"><g clip-path="url(#clip0_256_5)"><path d="M8.97656 93.4231L54.4224 116.549L98.1425 93.4231V2.9917H8.97656V93.4231Z" fill="white"></path><path d="M99.0614 3.33691L8.05469 95.0339L55.2264 118.389L99.0614 95.9543V3.33691Z" fill="#F2F3F2"></path><path d="M5.98438 33.1352V95.3787L7.59511 96.1841L53.041 119.31L54.4216 120L55.8022 119.31L99.6373 96.1841L101.248 95.3787V0H5.98438V33.1352ZM8.97574 93.6529V2.99137H98.2567V93.6529L54.4216 116.779L8.97574 93.6529Z" fill="#DCDEDC"></path><path d="M53.6167 4.48706C54.0769 4.48706 54.5371 4.48706 54.9973 4.60211L53.6167 7.24832C51.5457 7.13327 49.7049 8.74401 49.5898 10.815C49.4748 12.8859 51.0855 14.7267 53.1565 14.8418H53.6167C54.5371 14.8418 55.4575 14.4966 56.1478 13.9214L57.6435 16.4525C56.493 17.2579 55.1124 17.7181 53.6167 17.7181C49.935 17.8332 46.8286 15.0719 46.7135 11.3902C46.5985 7.70853 49.3597 4.60211 53.0414 4.48706H53.6167ZM58.3338 10.1246L60.0596 13.001L58.3338 15.7622L56.7231 13.001H53.3866L55.1124 10.1246H58.3338ZM55.5726 9.08917C55.5726 8.62895 55.6876 8.16874 55.9177 7.82359C56.1478 7.47843 56.6081 7.13327 56.9532 6.90316L57.1833 6.78811C57.6435 6.55801 57.7586 6.44295 57.7586 6.21285C57.7586 5.98274 57.4134 5.75264 57.1833 5.75264C56.7231 5.75264 56.3779 5.98274 56.1478 6.44295L55.5726 5.86769C55.6876 5.63758 55.9177 5.40748 56.1478 5.17737C56.493 4.94727 56.8382 4.94727 57.1833 4.94727C57.5285 4.94727 57.9887 5.06232 58.2188 5.29243C58.4489 5.52253 58.679 5.86769 58.679 6.21285C58.679 6.78811 58.3338 7.24832 57.6435 7.47843L57.2984 7.70853C56.9532 7.93864 56.7231 8.05369 56.6081 8.39885H58.679V9.20422L55.5726 9.08917ZM53.6167 23.4708L64.5467 17.2579V0H42.5716V17.1429L53.6167 23.4708ZM103.434 64.1994H3.79887L0.117188 72.2531L3.79887 80.3068H103.434L107.001 72.2531L103.434 64.1994Z" fill="#FF492C"></path><path d="M19.5583 46.9306C20.3176 46.9306 20.9849 47.084 21.5602 47.3908C22.1354 47.6976 22.5803 48.1387 22.8948 48.7139C23.2093 49.2815 23.3665 49.9335 23.3665 50.6698C23.3665 51.3985 23.2054 52.0389 22.8833 52.5912C22.5535 53.1358 22.0932 53.5615 21.5026 53.8683C20.912 54.1751 20.2294 54.3285 19.4547 54.3285H17.0041C16.9504 54.3285 16.9235 54.3592 16.9235 54.4205V58.8156C16.9235 58.8769 16.9005 58.9268 16.8545 58.9651C16.8162 59.0035 16.7663 59.0226 16.7049 59.0226H14.6915C14.6302 59.0226 14.5803 59.0035 14.542 58.9651C14.5036 58.9268 14.4844 58.8769 14.4844 58.8156V47.1377C14.4844 47.0763 14.5036 47.0265 14.542 46.9881C14.5803 46.9498 14.6302 46.9306 14.6915 46.9306H19.5583ZM19.1901 52.3841C19.727 52.3841 20.1527 52.2307 20.4672 51.9239C20.7893 51.6171 20.9504 51.2182 20.9504 50.7273C20.9504 50.2134 20.7893 49.8031 20.4672 49.4963C20.1527 49.1818 19.727 49.0246 19.1901 49.0246H17.0041C16.9504 49.0246 16.9235 49.0552 16.9235 49.1166V52.2921C16.9235 52.3534 16.9504 52.3841 17.0041 52.3841H19.1901ZM32.076 53.6727C32.1374 54.1099 32.1565 54.5969 32.1335 55.1339C32.1258 55.2796 32.053 55.3525 31.9149 55.3525H26.588C26.5189 55.3525 26.4921 55.3793 26.5074 55.433C26.5458 55.6631 26.611 55.8932 26.703 56.1233C27.0022 56.7676 27.6119 57.0898 28.5324 57.0898C29.2687 57.0821 29.8478 56.783 30.2697 56.1923C30.3234 56.1233 30.377 56.0888 30.4307 56.0888C30.4614 56.0888 30.4998 56.1118 30.5458 56.1578L31.7884 57.3774C31.8497 57.4388 31.8804 57.4924 31.8804 57.5385C31.8804 57.5615 31.8574 57.6075 31.8114 57.6765C31.4279 58.1521 30.9408 58.5164 30.3502 58.7695C29.7443 59.0303 29.0846 59.1607 28.3713 59.1607C27.3895 59.1607 26.5535 58.9383 25.8631 58.4934C25.1805 58.0409 24.6896 57.4119 24.3905 56.6065C24.145 56.0313 24.0223 55.2796 24.0223 54.3515C24.0223 53.7149 24.1105 53.155 24.2869 52.6717C24.5554 51.8587 25.0194 51.2106 25.6791 50.7273C26.3387 50.2441 27.1211 50.0025 28.0261 50.0025C29.1767 50.0025 30.1009 50.3362 30.7989 51.0035C31.4969 51.6708 31.9226 52.5605 32.076 53.6727ZM28.0491 52.108C27.3205 52.108 26.8411 52.4455 26.611 53.1204C26.565 53.2738 26.5266 53.4579 26.4959 53.6727C26.4959 53.7264 26.5266 53.7532 26.588 53.7532H29.5678C29.6369 53.7532 29.6599 53.7264 29.6369 53.6727C29.5755 53.3429 29.5448 53.1818 29.5448 53.1895C29.4451 52.8443 29.2649 52.5759 29.0041 52.3841C28.751 52.2 28.4327 52.108 28.0491 52.108ZM38.0587 50.037C38.4729 50.037 38.8027 50.1176 39.0482 50.2786C39.1326 50.3247 39.1632 50.409 39.1402 50.5318L38.7836 52.4992C38.7759 52.6372 38.6954 52.6794 38.542 52.6257C38.3655 52.5644 38.1661 52.5337 37.9437 52.5337C37.8516 52.5337 37.7212 52.5452 37.5525 52.5682C37.146 52.6065 36.797 52.7599 36.5055 53.0284C36.2217 53.2969 36.0798 53.6574 36.0798 54.1099V58.8156C36.0798 58.8769 36.0568 58.9268 36.0108 58.9651C35.9724 59.0035 35.9264 59.0226 35.8727 59.0226H33.8478C33.7941 59.0226 33.7443 59.0035 33.6982 58.9651C33.6599 58.9268 33.6407 58.8769 33.6407 58.8156V50.3592C33.6407 50.3055 33.6599 50.2556 33.6982 50.2096C33.7443 50.1713 33.7941 50.1521 33.8478 50.1521H35.8727C35.9264 50.1521 35.9724 50.1713 36.0108 50.2096C36.0568 50.2556 36.0798 50.3055 36.0798 50.3592V51.015C36.0798 51.0457 36.0913 51.0687 36.1143 51.084C36.1297 51.0993 36.145 51.0917 36.1604 51.061C36.6359 50.3784 37.2687 50.037 38.0587 50.037ZM45.4106 50.1406C45.472 50.1406 45.5218 50.1598 45.5602 50.1981C45.5985 50.2365 45.6177 50.2863 45.6177 50.3477V51.9814C45.6177 52.0428 45.5985 52.0926 45.5602 52.131C45.5218 52.1693 45.472 52.1885 45.4106 52.1885H43.7423C43.681 52.1885 43.6503 52.2154 43.6503 52.2691V58.8156C43.6503 58.8769 43.6311 58.9268 43.5928 58.9651C43.5544 59.0035 43.5046 59.0226 43.4432 59.0226H41.4298C41.3684 59.0226 41.3186 59.0035 41.2802 58.9651C41.2419 58.9268 41.2227 58.8769 41.2227 58.8156V52.2691C41.2227 52.2154 41.192 52.1885 41.1306 52.1885H40.1182C40.0568 52.1885 40.007 52.1693 39.9686 52.131C39.9303 52.0926 39.9111 52.0428 39.9111 51.9814V50.3477C39.9111 50.2863 39.9303 50.2365 39.9686 50.1981C40.007 50.1598 40.0568 50.1406 40.1182 50.1406H41.1306C41.192 50.1406 41.2227 50.1099 41.2227 50.0485V49.6689C41.2227 48.9555 41.3301 48.3994 41.5448 48.0006C41.7673 47.6094 42.1201 47.3295 42.6033 47.1607C43.0942 46.992 43.773 46.9191 44.6397 46.9421H45.2955C45.3492 46.9421 45.3953 46.9613 45.4336 46.9996C45.4796 47.0457 45.5026 47.0955 45.5026 47.1492V48.5413C45.5026 48.6027 45.4796 48.6526 45.4336 48.6909C45.3953 48.7369 45.3492 48.7599 45.2955 48.7599H44.7203C44.3214 48.7676 44.0415 48.8481 43.8804 49.0016C43.727 49.1626 43.6503 49.4503 43.6503 49.8644V50.0485C43.6503 50.1099 43.681 50.1406 43.7423 50.1406H45.4106ZM50.4154 59.1607C49.449 59.1607 48.6206 58.9076 47.9303 58.4014C47.2399 57.8951 46.7682 57.2048 46.5151 56.3304C46.354 55.7935 46.2735 55.2067 46.2735 54.5701C46.2735 53.8951 46.354 53.2854 46.5151 52.7408C46.7836 51.8894 47.2629 51.2221 47.9533 50.7388C48.6436 50.2556 49.472 50.014 50.4384 50.014C51.3742 50.014 52.1795 50.2518 52.8545 50.7273C53.5141 51.2106 53.982 51.8779 54.2582 52.7293C54.4499 53.3045 54.5458 53.9066 54.5458 54.5356C54.5458 55.1569 54.4653 55.7398 54.3042 56.2844C54.0511 57.1818 53.5793 57.8836 52.889 58.3899C52.2064 58.9038 51.3818 59.1607 50.4154 59.1607ZM50.4154 57.0783C50.7912 57.0783 51.1134 56.9632 51.3818 56.7331C51.6503 56.503 51.842 56.1847 51.9571 55.7782C52.0415 55.41 52.0837 55.0073 52.0837 54.5701C52.0837 54.0869 52.0415 53.6804 51.9571 53.3505C51.8267 52.9594 51.6311 52.6526 51.3703 52.4301C51.1019 52.2154 50.7759 52.108 50.3924 52.108C50.0089 52.108 49.6867 52.2154 49.4259 52.4301C49.1652 52.6526 48.9772 52.9594 48.8622 53.3505C48.7701 53.619 48.7241 54.0255 48.7241 54.5701C48.7241 55.0917 48.7663 55.4944 48.8507 55.7782C48.9657 56.1847 49.1575 56.503 49.4259 56.7331C49.6944 56.9632 50.0242 57.0783 50.4154 57.0783ZM60.5285 50.037C60.9427 50.037 61.2725 50.1176 61.518 50.2786C61.61 50.3247 61.6407 50.409 61.61 50.5318L61.2534 52.4992C61.2457 52.6372 61.1652 52.6794 61.0118 52.6257C60.8353 52.5644 60.6359 52.5337 60.4135 52.5337C60.3214 52.5337 60.1949 52.5452 60.0338 52.5682C59.6196 52.6065 59.2668 52.7599 58.9753 53.0284C58.6915 53.2969 58.5496 53.6574 58.5496 54.1099V58.8156C58.5496 58.8769 58.5266 58.9268 58.4806 58.9651C58.4422 59.0035 58.3924 59.0226 58.331 59.0226H56.3176C56.2639 59.0226 56.2141 59.0035 56.168 58.9651C56.1297 58.9268 56.1105 58.8769 56.1105 58.8156V50.3592C56.1105 50.3055 56.1297 50.2556 56.168 50.2096C56.2141 50.1713 56.2639 50.1521 56.3176 50.1521H58.331C58.3924 50.1521 58.4422 50.1713 58.4806 50.2096C58.5266 50.2556 58.5496 50.3055 58.5496 50.3592V51.015C58.5496 51.0457 58.5573 51.0687 58.5726 51.084C58.6033 51.0993 58.6225 51.0917 58.6302 51.061C59.1057 50.3784 59.7385 50.037 60.5285 50.037ZM72.5515 50.014C73.449 50.014 74.1508 50.2825 74.657 50.8194C75.1632 51.364 75.4163 52.1272 75.4163 53.1089V58.8156C75.4163 58.8769 75.3972 58.9268 75.3588 58.9651C75.3205 59.0035 75.2745 59.0226 75.2208 59.0226H73.1958C73.1421 59.0226 73.0923 59.0035 73.0463 58.9651C73.0079 58.9268 72.9887 58.8769 72.9887 58.8156V53.6382C72.9887 53.1703 72.8699 52.7983 72.6321 52.5222C72.3866 52.246 72.0606 52.108 71.6541 52.108C71.2553 52.108 70.9293 52.246 70.6762 52.5222C70.4231 52.7983 70.2965 53.1665 70.2965 53.6267V58.8156C70.2965 58.8769 70.2773 58.9268 70.239 58.9651C70.193 59.0035 70.1431 59.0226 70.0894 59.0226H68.0875C68.0261 59.0226 67.9763 59.0035 67.9379 58.9651C67.8996 58.9268 67.8804 58.8769 67.8804 58.8156V53.6382C67.8804 53.178 67.7538 52.806 67.5007 52.5222C67.2476 52.246 66.9178 52.108 66.5113 52.108C66.1508 52.108 65.844 52.2154 65.5909 52.4301C65.3454 52.6526 65.1997 52.9594 65.1536 53.3505V58.8156C65.1536 58.8769 65.1345 58.9268 65.0961 58.9651C65.0501 59.0035 65.0002 59.0226 64.9466 59.0226H62.9331C62.8718 59.0226 62.8219 59.0035 62.7836 58.9651C62.7452 58.9268 62.726 58.8769 62.726 58.8156V50.3592C62.726 50.3055 62.7452 50.2556 62.7836 50.2096C62.8219 50.1713 62.8718 50.1521 62.9331 50.1521H64.9466C65.0002 50.1521 65.0501 50.1713 65.0961 50.2096C65.1345 50.2556 65.1536 50.3055 65.1536 50.3592V51.038C65.1536 51.0687 65.1652 51.0917 65.1882 51.107C65.2112 51.1147 65.2342 51.0993 65.2572 51.061C65.7327 50.363 66.4652 50.014 67.4547 50.014C68.03 50.014 68.5324 50.1367 68.9619 50.3822C69.3914 50.62 69.7212 50.9651 69.9513 51.4177C69.982 51.4867 70.0242 51.4867 70.0779 51.4177C70.3233 50.9421 70.6647 50.5893 71.1019 50.3592C71.5314 50.1291 72.0146 50.014 72.5515 50.014ZM84.9312 53.6727C85.0002 54.1099 85.0233 54.5969 85.0002 55.1339C84.9849 55.2796 84.9082 55.3525 84.7701 55.3525H79.4432C79.3742 55.3525 79.3512 55.3793 79.3742 55.433C79.4048 55.6631 79.4662 55.8932 79.5582 56.1233C79.8574 56.7676 80.4672 57.0898 81.3876 57.0898C82.1239 57.0821 82.7069 56.783 83.1364 56.1923C83.1824 56.1233 83.2323 56.0888 83.286 56.0888C83.3243 56.0888 83.3665 56.1118 83.4125 56.1578L84.6551 57.3774C84.7088 57.4388 84.7356 57.4924 84.7356 57.5385C84.7356 57.5615 84.7126 57.6075 84.6666 57.6765C84.2908 58.1521 83.8037 58.5164 83.2054 58.7695C82.6071 59.0303 81.9514 59.1607 81.238 59.1607C80.2486 59.1607 79.4125 58.9383 78.7299 58.4934C78.0396 58.0409 77.5448 57.4119 77.2457 56.6065C77.0079 56.0313 76.889 55.2796 76.889 54.3515C76.889 53.7149 76.9734 53.155 77.1421 52.6717C77.4106 51.8587 77.8746 51.2106 78.5343 50.7273C79.1939 50.2441 79.9801 50.0025 80.8929 50.0025C82.0434 50.0025 82.9676 50.3362 83.6656 51.0035C84.3636 51.6708 84.7855 52.5605 84.9312 53.6727ZM80.9044 52.108C80.1834 52.108 79.7078 52.4455 79.4777 53.1204C79.4317 53.2738 79.3895 53.4579 79.3512 53.6727C79.3512 53.7264 79.3818 53.7532 79.4432 53.7532H82.4231C82.4921 53.7532 82.5151 53.7264 82.4921 53.6727C82.4384 53.3429 82.4116 53.1818 82.4116 53.1895C82.3042 52.8443 82.1239 52.5759 81.8708 52.3841C81.61 52.2 81.2879 52.108 80.9044 52.108ZM90.914 50.037C91.3281 50.037 91.658 50.1176 91.9034 50.2786C91.9954 50.3247 92.03 50.409 92.007 50.5318L91.6503 52.4992C91.6349 52.6372 91.5506 52.6794 91.3972 52.6257C91.2284 52.5644 91.029 52.5337 90.7989 52.5337C90.7069 52.5337 90.5803 52.5452 90.4192 52.5682C90.005 52.6065 89.6522 52.7599 89.3607 53.0284C89.0769 53.2969 88.935 53.6574 88.935 54.1099V58.8156C88.935 58.8769 88.9159 58.9268 88.8775 58.9651C88.8315 59.0035 88.7816 59.0226 88.7279 59.0226H86.703C86.6493 59.0226 86.6033 59.0035 86.565 58.9651C86.5189 58.9268 86.4959 58.8769 86.4959 58.8156V50.3592C86.4959 50.3055 86.5189 50.2556 86.565 50.2096C86.6033 50.1713 86.6493 50.1521 86.703 50.1521H88.7279C88.7816 50.1521 88.8315 50.1713 88.8775 50.2096C88.9159 50.2556 88.935 50.3055 88.935 50.3592V51.015C88.935 51.0457 88.9465 51.0687 88.9696 51.084C88.9926 51.0993 89.0117 51.0917 89.0271 51.061C89.495 50.3784 90.1239 50.037 90.914 50.037ZM43.4432 29.8913C43.4432 29.8376 43.4624 29.7877 43.5007 29.7417C43.5391 29.7034 43.5851 29.6842 43.6388 29.6842H45.6637C45.7174 29.6842 45.7673 29.7034 45.8133 29.7417C45.8516 29.7877 45.8708 29.8376 45.8708 29.8913V41.5576C45.8708 41.619 45.8516 41.6689 45.8133 41.7072C45.7673 41.7456 45.7174 41.7647 45.6637 41.7647H43.6388C43.5851 41.7647 43.5391 41.7456 43.5007 41.7072C43.4624 41.6689 43.4432 41.619 43.4432 41.5576V36.7945C43.4432 36.7408 43.4125 36.7139 43.3512 36.7139H39.5314C39.4777 36.7139 39.4509 36.7408 39.4509 36.7945V41.5576C39.4509 41.619 39.4317 41.6689 39.3933 41.7072C39.3473 41.7456 39.2975 41.7647 39.2438 41.7647H37.2188C37.1652 41.7647 37.1191 41.7456 37.0808 41.7072C37.0348 41.6689 37.0118 41.619 37.0118 41.5576V29.8913C37.0118 29.8376 37.0348 29.7877 37.0808 29.7417C37.1191 29.7034 37.1652 29.6842 37.2188 29.6842H39.2438C39.2975 29.6842 39.3473 29.7034 39.3933 29.7417C39.4317 29.7877 39.4509 29.8376 39.4509 29.8913V34.5279C39.4509 34.5893 39.4777 34.62 39.5314 34.62H43.3512C43.4125 34.62 43.4432 34.5893 43.4432 34.5279V29.8913ZM49.0118 31.8932C48.6206 31.8932 48.2946 31.7628 48.0338 31.502C47.773 31.2489 47.6426 30.9268 47.6426 30.5356C47.6426 30.1291 47.7692 29.7993 48.0223 29.5461C48.2754 29.293 48.6052 29.1665 49.0118 29.1665C49.4183 29.1665 49.7481 29.293 50.0012 29.5461C50.2543 29.7993 50.3809 30.1291 50.3809 30.5356C50.3809 30.9268 50.2505 31.2489 49.9897 31.502C49.7289 31.7628 49.4029 31.8932 49.0118 31.8932ZM47.9763 41.7647C47.9226 41.7647 47.8727 41.7456 47.8267 41.7072C47.7884 41.6689 47.7692 41.619 47.7692 41.5576V33.0898C47.7692 33.0284 47.7884 32.9785 47.8267 32.9402C47.8727 32.9018 47.9226 32.8827 47.9763 32.8827H50.0012C50.0549 32.8827 50.1009 32.9018 50.1393 32.9402C50.1853 32.9785 50.2083 33.0284 50.2083 33.0898V41.5576C50.2083 41.619 50.1853 41.6689 50.1393 41.7072C50.1009 41.7456 50.0549 41.7647 50.0012 41.7647H47.9763ZM57.5141 33.1013C57.5141 33.0476 57.5372 32.9977 57.5832 32.9517C57.6215 32.9133 57.6676 32.8942 57.7212 32.8942H59.7462C59.7999 32.8942 59.8497 32.9133 59.8957 32.9517C59.9341 32.9977 59.9533 33.0476 59.9533 33.1013V40.9709C59.9533 42.4742 59.5199 43.5481 58.6532 44.1923C57.7864 44.8443 56.6666 45.1703 55.2936 45.1703C54.8871 45.1703 54.4384 45.1396 53.9475 45.0783C53.8325 45.0629 53.7749 44.99 53.7749 44.8597L53.844 43.0763C53.844 42.9229 53.9245 42.8577 54.0856 42.8807C54.4998 42.9498 54.8794 42.9843 55.2246 42.9843C55.9609 42.9843 56.5285 42.8271 56.9274 42.5126C57.3186 42.1828 57.5141 41.665 57.5141 40.9594C57.5141 40.921 57.5026 40.898 57.4796 40.8903C57.4566 40.8827 57.4336 40.8942 57.4106 40.9249C56.9734 41.3927 56.3368 41.6267 55.5007 41.6267C54.749 41.6267 54.0626 41.4464 53.4413 41.0859C52.8123 40.7254 52.3636 40.1425 52.0952 39.3371C51.9264 38.8079 51.842 38.1214 51.842 37.2777C51.842 36.3803 51.9456 35.6516 52.1527 35.0917C52.3905 34.386 52.797 33.8223 53.3722 33.4004C53.9475 32.9709 54.6187 32.7561 55.3857 32.7561C56.2677 32.7561 56.9427 33.0207 57.4106 33.55C57.4336 33.573 57.4566 33.5807 57.4796 33.573C57.5026 33.5653 57.5141 33.5461 57.5141 33.5155V33.1013ZM57.3761 38.6698C57.4681 38.3323 57.5141 37.8606 57.5141 37.2547C57.5141 36.9018 57.5026 36.6295 57.4796 36.4378C57.4566 36.2384 57.4183 36.0505 57.3646 35.874C57.2572 35.5672 57.0846 35.3179 56.8468 35.1262C56.6091 34.9421 56.3099 34.8501 55.9494 34.8501C55.6043 34.8501 55.3128 34.9421 55.075 35.1262C54.8296 35.3179 54.6493 35.5672 54.5343 35.874C54.3732 36.2192 54.2927 36.6871 54.2927 37.2777C54.2927 37.922 54.3617 38.3822 54.4998 38.6583C54.5995 38.9728 54.7797 39.2221 55.0405 39.4062C55.3013 39.5979 55.6081 39.6938 55.9609 39.6938C56.3291 39.6938 56.6359 39.5979 56.8814 39.4062C57.1191 39.2221 57.284 38.9766 57.3761 38.6698ZM66.3272 32.7561C67.2476 32.7561 67.9878 33.0399 68.5477 33.6075C69.1076 34.1674 69.3876 34.9306 69.3876 35.897V41.5576C69.3876 41.619 69.3684 41.6689 69.3301 41.7072C69.2917 41.7456 69.2457 41.7647 69.192 41.7647H67.1671C67.1134 41.7647 67.0635 41.7456 67.0175 41.7072C66.9792 41.6689 66.96 41.619 66.96 41.5576V36.3918C66.96 35.9392 66.8296 35.5672 66.5688 35.2758C66.3157 34.992 65.9744 34.8501 65.5448 34.8501C65.123 34.8501 64.7816 34.992 64.5209 35.2758C64.2601 35.5672 64.1297 35.9392 64.1297 36.3918V41.5576C64.1297 41.619 64.1105 41.6689 64.0722 41.7072C64.0338 41.7456 63.9839 41.7647 63.9226 41.7647H61.9092C61.8478 41.7647 61.7979 41.7456 61.7596 41.7072C61.7212 41.6689 61.7021 41.619 61.7021 41.5576V29.8913C61.7021 29.8376 61.7212 29.7877 61.7596 29.7417C61.7979 29.7034 61.8478 29.6842 61.9092 29.6842H63.9226C63.9839 29.6842 64.0338 29.7034 64.0722 29.7417C64.1105 29.7877 64.1297 29.8376 64.1297 29.8913V33.711C64.1297 33.7417 64.1412 33.7647 64.1642 33.7801C64.1872 33.7877 64.2025 33.7801 64.2102 33.7571C64.6858 33.0898 65.3914 32.7561 66.3272 32.7561Z" fill="#252530"></path><path d="M34.6991 76.8325C34.1008 76.8325 33.5792 76.7366 33.1343 76.5448C32.6895 76.3531 32.3443 76.0846 32.0989 75.7395C31.8611 75.3943 31.7422 74.9878 31.7422 74.5199V74.2323C31.7422 74.1939 31.7575 74.1594 31.7882 74.1287C31.8112 74.1057 31.8419 74.0942 31.8803 74.0942H32.9042C32.9426 74.0942 32.9771 74.1057 33.0078 74.1287C33.0308 74.1594 33.0423 74.1939 33.0423 74.2323V74.4509C33.0423 74.8037 33.1995 75.0952 33.514 75.3253C33.8285 75.563 34.258 75.6819 34.8026 75.6819C35.2705 75.6819 35.6233 75.5822 35.8611 75.3828C36.0989 75.1834 36.2177 74.9264 36.2177 74.6119C36.2177 74.3972 36.1526 74.2131 36.0222 74.0597C35.8918 73.914 35.7077 73.7797 35.4699 73.657C35.2245 73.5343 34.8601 73.3809 34.3769 73.1968C33.8323 72.9974 33.3913 72.8094 33.0538 72.633C32.7163 72.4566 32.4363 72.215 32.2139 71.9082C31.9838 71.6091 31.8688 71.2332 31.8688 70.7807C31.8688 70.1057 32.1142 69.5726 32.6051 69.1815C33.096 68.7903 33.7518 68.5947 34.5725 68.5947C35.1478 68.5947 35.6578 68.6944 36.1027 68.8938C36.5399 69.0932 36.8812 69.3732 37.1267 69.7337C37.3721 70.0865 37.4948 70.4969 37.4948 70.9648V71.1604C37.4948 71.1987 37.4795 71.2332 37.4488 71.2639C37.4258 71.2869 37.3951 71.2984 37.3568 71.2984H36.3213C36.2829 71.2984 36.2523 71.2869 36.2293 71.2639C36.1986 71.2332 36.1832 71.1987 36.1832 71.1604V71.0338C36.1832 70.6733 36.0375 70.3703 35.746 70.1249C35.4469 69.8718 35.0365 69.7452 34.515 69.7452C34.0931 69.7452 33.7671 69.8334 33.537 70.0098C33.2992 70.1862 33.1804 70.4355 33.1804 70.7577C33.1804 70.9878 33.2417 71.1757 33.3644 71.3214C33.4872 71.4672 33.6712 71.5976 33.9167 71.7126C34.1621 71.8353 34.5418 71.9887 35.0557 72.1728C35.6003 72.3799 36.0375 72.5678 36.3673 72.7366C36.6895 72.9053 36.9694 73.1393 37.2072 73.4384C37.4373 73.7452 37.5524 74.1249 37.5524 74.5774C37.5524 75.2677 37.2954 75.8162 36.7815 76.2227C36.2753 76.6292 35.5811 76.8325 34.6991 76.8325ZM41.7173 76.8325C41.1497 76.8325 40.6473 76.7212 40.2101 76.4988C39.7729 76.2764 39.4354 75.9619 39.1976 75.5554C38.9522 75.1412 38.8294 74.6656 38.8294 74.1287V68.8248C38.8294 68.7864 38.8448 68.7558 38.8755 68.7327C38.8985 68.7021 38.9292 68.6867 38.9675 68.6867H40.026C40.0643 68.6867 40.0989 68.7021 40.1295 68.7327C40.1526 68.7558 40.1641 68.7864 40.1641 68.8248V74.1517C40.1641 74.6043 40.306 74.9724 40.5898 75.2562C40.8736 75.54 41.2494 75.6819 41.7173 75.6819C42.1852 75.6819 42.561 75.54 42.8448 75.2562C43.1286 74.9724 43.2705 74.6043 43.2705 74.1517V68.8248C43.2705 68.7864 43.2858 68.7558 43.3165 68.7327C43.3395 68.7021 43.3702 68.6867 43.4085 68.6867H44.467C44.5054 68.6867 44.5399 68.7021 44.5706 68.7327C44.5936 68.7558 44.6051 68.7864 44.6051 68.8248V74.1287C44.6051 74.6656 44.4862 75.1412 44.2484 75.5554C44.0107 75.9619 43.6732 76.2764 43.236 76.4988C42.7988 76.7212 42.2925 76.8325 41.7173 76.8325ZM51.4047 68.7788C51.4431 68.7174 51.4967 68.6867 51.5658 68.6867H52.6243C52.6626 68.6867 52.6971 68.7021 52.7278 68.7327C52.7508 68.7558 52.7623 68.7864 52.7623 68.8248V76.6024C52.7623 76.6407 52.7508 76.6714 52.7278 76.6944C52.6971 76.7251 52.6626 76.7404 52.6243 76.7404H51.5658C51.5274 76.7404 51.4929 76.7251 51.4622 76.6944C51.4392 76.6714 51.4277 76.6407 51.4277 76.6024V71.1143C51.4277 71.0913 51.4162 71.076 51.3932 71.0683C51.3779 71.0606 51.3664 71.0683 51.3587 71.0913L49.9205 73.3003C49.8822 73.3617 49.8285 73.3924 49.7595 73.3924H49.2302C49.1612 73.3924 49.1075 73.3617 49.0691 73.3003L47.6195 71.1028C47.6118 71.0798 47.5965 71.0722 47.5735 71.0798C47.5581 71.0875 47.5504 71.1028 47.5504 71.1258V76.6024C47.5504 76.6407 47.5389 76.6714 47.5159 76.6944C47.4852 76.7251 47.4507 76.7404 47.4124 76.7404H46.3539C46.3155 76.7404 46.2849 76.7251 46.2618 76.6944C46.2312 76.6714 46.2158 76.6407 46.2158 76.6024V68.8248C46.2158 68.7864 46.2312 68.7558 46.2618 68.7327C46.2849 68.7021 46.3155 68.6867 46.3539 68.6867H47.4124C47.4814 68.6867 47.5351 68.7174 47.5735 68.7788L49.4488 71.6206C49.4642 71.6359 49.4795 71.6436 49.4948 71.6436C49.5102 71.6436 49.5217 71.6359 49.5293 71.6206L51.4047 68.7788ZM59.631 68.7788C59.6693 68.7174 59.723 68.6867 59.7921 68.6867H60.8505C60.8889 68.6867 60.9196 68.7021 60.9426 68.7327C60.9733 68.7558 60.9886 68.7864 60.9886 68.8248V76.6024C60.9886 76.6407 60.9733 76.6714 60.9426 76.6944C60.9196 76.7251 60.8889 76.7404 60.8505 76.7404H59.7921C59.7537 76.7404 59.723 76.7251 59.7 76.6944C59.6693 76.6714 59.654 76.6407 59.654 76.6024V71.1143C59.654 71.0913 59.6463 71.076 59.631 71.0683C59.608 71.0606 59.5926 71.0683 59.585 71.0913L58.1468 73.3003C58.1084 73.3617 58.0548 73.3924 57.9857 73.3924H57.4565C57.3875 73.3924 57.3338 73.3617 57.2954 73.3003L55.8457 71.1028C55.8381 71.0798 55.8266 71.0722 55.8112 71.0798C55.7882 71.0875 55.7767 71.1028 55.7767 71.1258V76.6024C55.7767 76.6407 55.7652 76.6714 55.7422 76.6944C55.7115 76.7251 55.677 76.7404 55.6386 76.7404H54.5802C54.5418 76.7404 54.5111 76.7251 54.4881 76.6944C54.4574 76.6714 54.4421 76.6407 54.4421 76.6024V68.8248C54.4421 68.7864 54.4574 68.7558 54.4881 68.7327C54.5111 68.7021 54.5418 68.6867 54.5802 68.6867H55.6386C55.7077 68.6867 55.7614 68.7174 55.7997 68.7788L57.6751 71.6206C57.6904 71.6359 57.7058 71.6436 57.7211 71.6436C57.7364 71.6436 57.7479 71.6359 57.7556 71.6206L59.631 68.7788ZM68.1219 69.6992C68.1219 69.7375 68.1104 69.7682 68.0874 69.7912C68.0567 69.8219 68.0222 69.8373 67.9838 69.8373H64.0605C64.0222 69.8373 64.003 69.8564 64.003 69.8948V72.0463C64.003 72.0846 64.0222 72.1038 64.0605 72.1038H66.6952C66.7336 72.1038 66.7681 72.1153 66.7988 72.1383C66.8218 72.169 66.8333 72.2035 66.8333 72.2419V73.1163C66.8333 73.1546 66.8218 73.1891 66.7988 73.2198C66.7681 73.2428 66.7336 73.2543 66.6952 73.2543H64.0605C64.0222 73.2543 64.003 73.2735 64.003 73.3118V75.5324C64.003 75.5707 64.0222 75.5899 64.0605 75.5899H67.9838C68.0222 75.5899 68.0567 75.6052 68.0874 75.6359C68.1104 75.6589 68.1219 75.6896 68.1219 75.7279V76.6024C68.1219 76.6407 68.1104 76.6714 68.0874 76.6944C68.0567 76.7251 68.0222 76.7404 67.9838 76.7404H62.8064C62.7681 76.7404 62.7374 76.7251 62.7144 76.6944C62.6837 76.6714 62.6684 76.6407 62.6684 76.6024V68.8248C62.6684 68.7864 62.6837 68.7558 62.7144 68.7327C62.7374 68.7021 62.7681 68.6867 62.8064 68.6867H67.9838C68.0222 68.6867 68.0567 68.7021 68.0874 68.7327C68.1104 68.7558 68.1219 68.7864 68.1219 68.8248V69.6992ZM74.0011 76.7404C73.9244 76.7404 73.8707 76.7059 73.84 76.6369L72.3213 73.3234C72.306 73.2927 72.2829 73.2773 72.2523 73.2773H70.8716C70.8333 73.2773 70.8141 73.2965 70.8141 73.3349V76.6024C70.8141 76.6407 70.7988 76.6714 70.7681 76.6944C70.7451 76.7251 70.7144 76.7404 70.676 76.7404H69.6176C69.5792 76.7404 69.5485 76.7251 69.5255 76.6944C69.4948 76.6714 69.4795 76.6407 69.4795 76.6024V68.8248C69.4795 68.7864 69.4948 68.7558 69.5255 68.7327C69.5485 68.7021 69.5792 68.6867 69.6176 68.6867H72.7815C73.2494 68.6867 73.6636 68.7826 74.0241 68.9744C74.3846 69.1738 74.6645 69.4499 74.864 69.8027C75.0634 70.1632 75.1631 70.5736 75.1631 71.0338C75.1631 71.563 75.025 72.0117 74.7489 72.3799C74.4804 72.7558 74.1046 73.0165 73.6214 73.1623C73.606 73.1623 73.5945 73.1699 73.5869 73.1853C73.5792 73.2006 73.5792 73.216 73.5869 73.2313L75.2091 76.5793C75.2245 76.61 75.2321 76.633 75.2321 76.6484C75.2321 76.7097 75.1899 76.7404 75.1056 76.7404H74.0011ZM70.8716 69.8373C70.8333 69.8373 70.8141 69.8564 70.8141 69.8948V72.1843C70.8141 72.2227 70.8333 72.2419 70.8716 72.2419H72.5974C72.9656 72.2419 73.2609 72.1306 73.4833 71.9082C73.7134 71.6934 73.8285 71.4058 73.8285 71.0453C73.8285 70.6848 73.7134 70.3933 73.4833 70.1709C73.2609 69.9485 72.9656 69.8373 72.5974 69.8373H70.8716Z" fill="white"></path><path d="M38.5107 97.5187C38.4877 97.5417 38.4801 97.5647 38.4877 97.5878C38.5031 97.6108 38.5261 97.6223 38.5568 97.6223H43.0783C43.132 97.6223 43.1781 97.6414 43.2164 97.6798C43.2624 97.7181 43.2854 97.7642 43.2854 97.8179V99.4401C43.2854 99.4938 43.2624 99.5398 43.2164 99.5782C43.1781 99.6165 43.132 99.6357 43.0783 99.6357H35.5769C35.5155 99.6357 35.4657 99.6165 35.4273 99.5782C35.389 99.5398 35.3698 99.4938 35.3698 99.4401V97.8984C35.3698 97.7987 35.4043 97.7143 35.4734 97.6453C36.0179 97.116 36.574 96.5369 37.1416 95.908C37.7092 95.279 38.0659 94.8879 38.2116 94.7345C38.5184 94.3663 38.8329 94.0135 39.155 93.676C40.1675 92.5561 40.6737 91.7239 40.6737 91.1793C40.6737 90.7881 40.5357 90.466 40.2595 90.2129C39.9834 89.9674 39.6229 89.8447 39.178 89.8447C38.7332 89.8447 38.3727 89.9674 38.0966 90.2129C37.8128 90.466 37.6709 90.7997 37.6709 91.2138V91.628C37.6709 91.6817 37.6517 91.7277 37.6133 91.7661C37.575 91.8044 37.529 91.8236 37.4753 91.8236H35.5079C35.4542 91.8236 35.4082 91.8044 35.3698 91.7661C35.3238 91.7277 35.3008 91.6817 35.3008 91.628V90.8457C35.3391 90.2474 35.5309 89.7143 35.876 89.2464C36.2212 88.7862 36.6776 88.4334 37.2452 88.1879C37.8204 87.9425 38.4647 87.8198 39.178 87.8198C39.9681 87.8198 40.6546 87.9693 41.2375 88.2685C41.8204 88.56 42.2691 88.955 42.5836 89.4535C42.9058 89.9598 43.0668 90.5159 43.0668 91.1218C43.0668 91.5897 42.9479 92.0691 42.7102 92.56C42.4801 93.0508 42.1311 93.5801 41.6632 94.1477C41.318 94.5772 40.946 95.0067 40.5472 95.4363C40.1483 95.8581 39.5539 96.4679 38.7639 97.2656L38.5107 97.5187ZM48.7044 99.8198C47.4772 99.8198 46.5107 99.4785 45.8051 98.7958C45.0918 98.1132 44.7351 97.1812 44.7351 96V91.5935C44.7351 90.4353 45.0918 89.5187 45.8051 88.8437C46.5107 88.1611 47.4772 87.8198 48.7044 87.8198C49.924 87.8198 50.8943 88.1611 51.6153 88.8437C52.3286 89.5187 52.6852 90.4353 52.6852 91.5935V96C52.6852 97.1812 52.3286 98.1132 51.6153 98.7958C50.8943 99.4785 49.924 99.8198 48.7044 99.8198ZM48.7044 97.8064C49.203 97.8064 49.598 97.653 49.8895 97.3461C50.1886 97.0393 50.3382 96.629 50.3382 96.1151V91.5245C50.3382 91.0182 50.1886 90.6117 49.8895 90.3049C49.598 89.9981 49.203 89.8447 48.7044 89.8447C48.2135 89.8447 47.8223 89.9981 47.5309 90.3049C47.2317 90.6117 47.0822 91.0182 47.0822 91.5245V96.1151C47.0822 96.629 47.2317 97.0393 47.5309 97.3461C47.8223 97.653 48.2135 97.8064 48.7044 97.8064ZM57.3564 97.5187C57.3334 97.5417 57.3295 97.5647 57.3449 97.5878C57.3525 97.6108 57.3756 97.6223 57.4139 97.6223H61.9355C61.9892 97.6223 62.0352 97.6414 62.0735 97.6798C62.1119 97.7181 62.1311 97.7642 62.1311 97.8179V99.4401C62.1311 99.4938 62.1119 99.5398 62.0735 99.5782C62.0352 99.6165 61.9892 99.6357 61.9355 99.6357H54.4225C54.3688 99.6357 54.3228 99.6165 54.2845 99.5782C54.2461 99.5398 54.2269 99.4938 54.2269 99.4401V97.8984C54.2269 97.7987 54.2576 97.7143 54.319 97.6453C54.8712 97.116 55.4273 96.5369 55.9873 95.908C56.5548 95.279 56.9115 94.8879 57.0572 94.7345C57.3717 94.3663 57.69 94.0135 58.0122 93.676C59.0246 92.5561 59.5309 91.7239 59.5309 91.1793C59.5309 90.7881 59.3928 90.466 59.1167 90.2129C58.8329 89.9674 58.4686 89.8447 58.0237 89.8447C57.5788 89.8447 57.2183 89.9674 56.9422 90.2129C56.6661 90.466 56.528 90.7997 56.528 91.2138V91.628C56.528 91.6817 56.5088 91.7277 56.4705 91.7661C56.4321 91.8044 56.3823 91.8236 56.3209 91.8236H54.3535C54.2998 91.8236 54.2538 91.8044 54.2154 91.7661C54.1771 91.7277 54.1579 91.6817 54.1579 91.628V90.8457C54.1886 90.2474 54.3765 89.7143 54.7217 89.2464C55.0668 88.7862 55.527 88.4334 56.1023 88.1879C56.6776 87.9425 57.318 87.8198 58.0237 87.8198C58.8137 87.8198 59.5002 87.9693 60.0831 88.2685C60.6737 88.56 61.1263 88.955 61.4408 89.4535C61.7552 89.9598 61.9125 90.5159 61.9125 91.1218C61.9125 91.5897 61.7974 92.0691 61.5673 92.56C61.3295 93.0508 60.9767 93.5801 60.5088 94.1477C60.1637 94.5772 59.7917 95.0067 59.3928 95.4363C58.994 95.8581 58.3995 96.4679 57.6095 97.2656L57.3564 97.5187ZM66.6987 97.5187C66.6757 97.5417 66.6718 97.5647 66.6872 97.5878C66.6948 97.6108 66.7178 97.6223 66.7562 97.6223H71.2778C71.3315 97.6223 71.3775 97.6414 71.4158 97.6798C71.4542 97.7181 71.4734 97.7642 71.4734 97.8179V99.4401C71.4734 99.4938 71.4542 99.5398 71.4158 99.5782C71.3775 99.6165 71.3315 99.6357 71.2778 99.6357H63.7648C63.7111 99.6357 63.6651 99.6165 63.6268 99.5782C63.5884 99.5398 63.5692 99.4938 63.5692 99.4401V97.8984C63.5692 97.7987 63.5999 97.7143 63.6613 97.6453C64.2135 97.116 64.7696 96.5369 65.3295 95.908C65.8971 95.279 66.2538 94.8879 66.3995 94.7345C66.714 94.3663 67.0323 94.0135 67.3545 93.676C68.3669 92.5561 68.8732 91.7239 68.8732 91.1793C68.8732 90.7881 68.7351 90.466 68.459 90.2129C68.1752 89.9674 67.8108 89.8447 67.366 89.8447C66.9211 89.8447 66.5606 89.9674 66.2845 90.2129C66.0083 90.466 65.8703 90.7997 65.8703 91.2138V91.628C65.8703 91.6817 65.8511 91.7277 65.8128 91.7661C65.7744 91.8044 65.7246 91.8236 65.6632 91.8236H63.6958C63.6421 91.8236 63.5961 91.8044 63.5577 91.7661C63.5194 91.7277 63.5002 91.6817 63.5002 91.628V90.8457C63.5309 90.2474 63.7188 89.7143 64.064 89.2464C64.4091 88.7862 64.8693 88.4334 65.4446 88.1879C66.0199 87.9425 66.6603 87.8198 67.366 87.8198C68.156 87.8198 68.8425 87.9693 69.4254 88.2685C70.016 88.56 70.4686 88.955 70.783 89.4535C71.0975 89.9598 71.2548 90.5159 71.2548 91.1218C71.2548 91.5897 71.1397 92.0691 70.9096 92.56C70.6718 93.0508 70.319 93.5801 69.8511 94.1477C69.5059 94.5772 69.1339 95.0067 68.7351 95.4363C68.3362 95.8581 67.7418 96.4679 66.9518 97.2656L66.6987 97.5187Z" fill="#252530"></path></g><defs><clipPath id="clip0_256_5"><rect width="107" height="120" fill="white"></rect></clipPath></defs></svg>