<svg xmlns="http://www.w3.org/2000/svg" width="106" height="120" viewBox="0 0 106 120" fill="none"><g clip-path="url(#clip0_1695_15068)"><path d="M8.88281 93.4099L53.8742 116.305L97.1572 93.4099V3.88281H8.88281V93.4099Z" fill="white"></path><path d="M98.0733 4.22266L7.97656 95.0027L54.6766 118.124L98.0733 95.9139V4.22266Z" fill="#F2F3F2"></path><path d="M5.92969 33.7218V95.3429L7.52431 96.1402L52.5158 119.035L53.8826 119.718L55.2494 119.035L98.6462 96.1402L100.241 95.3429V0.917969H5.92969V33.7218ZM8.89115 93.6343V3.87943H97.2794V93.6343L53.8826 116.529L8.89115 93.6343Z" fill="#DCDEDC"></path><path d="M53.0818 5.36016C53.5374 5.36016 53.993 5.36016 54.4486 5.47406L53.0818 8.09381C51.0315 7.97991 49.2091 9.57454 49.0952 11.6248C48.9813 13.675 50.5759 15.4974 52.6262 15.6114H53.0818C53.993 15.6114 54.9042 15.2696 55.5876 14.7002L57.0683 17.2059C55.9293 18.0033 54.5626 18.4589 53.0818 18.4589C49.4369 18.5728 46.3616 15.8392 46.2476 12.1943C46.1338 8.54941 48.8674 5.47406 52.5123 5.36016H53.0818ZM57.7517 10.9413L59.4603 13.789L57.7517 16.5225L56.1571 13.789H52.854L54.5625 10.9413H57.7517ZM55.0182 9.91625C55.0182 9.46063 55.132 9.00502 55.3598 8.66332C55.5876 8.32161 56.0433 7.97991 56.3849 7.7521L56.6127 7.6382C57.0683 7.4104 57.1823 7.29649 57.1823 7.06869C57.1823 6.84088 56.8405 6.61308 56.6127 6.61308C56.1571 6.61308 55.8154 6.84088 55.5876 7.29649L55.0182 6.72698C55.132 6.49917 55.3598 6.27137 55.5876 6.04357C55.9293 5.81577 56.2711 5.81577 56.6127 5.81577C56.9545 5.81577 57.4101 5.92967 57.6379 6.15747C57.8657 6.38527 58.0935 6.72698 58.0935 7.06869C58.0935 7.6382 57.7517 8.09381 57.0683 8.32161L56.7267 8.54941C56.3849 8.77722 56.1571 8.89112 56.0433 9.23283H58.0935V10.0301L55.0182 9.91625ZM53.0818 24.1541L63.9025 18.0033V0.917969H42.1471V17.8894L53.0818 24.1541ZM102.401 64.4754H3.76206L0.117188 72.4485L3.76206 80.4217H102.401L105.933 72.4485L102.401 64.4754Z" fill="#FF492C"></path><path d="M19.3669 47.3833C20.1186 47.3833 20.7793 47.5352 21.3488 47.8389C21.9183 48.1427 22.3587 48.5794 22.6701 49.1488C22.9814 49.7107 23.137 50.3562 23.137 51.0851C23.137 51.8066 22.9776 52.4406 22.6587 52.9873C22.3322 53.5265 21.8765 53.9479 21.2918 54.2517C20.7071 54.5554 20.0313 54.7073 19.2644 54.7073H16.8383C16.7851 54.7073 16.7585 54.7376 16.7585 54.7983V59.1495C16.7585 59.2102 16.7357 59.2596 16.6902 59.2975C16.6522 59.3355 16.6028 59.3544 16.542 59.3544H14.5488C14.4881 59.3544 14.4387 59.3355 14.4008 59.2975C14.3628 59.2596 14.3438 59.2102 14.3438 59.1495V47.5884C14.3438 47.5276 14.3628 47.4783 14.4008 47.4403C14.4387 47.4023 14.4881 47.3833 14.5488 47.3833H19.3669ZM19.0024 52.7823C19.5339 52.7823 19.9554 52.6304 20.2667 52.3267C20.5856 52.023 20.7451 51.6281 20.7451 51.1421C20.7451 50.6333 20.5856 50.2271 20.2667 49.9234C19.9554 49.612 19.5339 49.4564 19.0024 49.4564H16.8383C16.7851 49.4564 16.7585 49.4867 16.7585 49.5475V52.6912C16.7585 52.7519 16.7851 52.7823 16.8383 52.7823H19.0024ZM31.7595 54.058C31.8202 54.4908 31.8392 54.973 31.8164 55.5046C31.8088 55.6488 31.7367 55.721 31.6 55.721H26.3263C26.2579 55.721 26.2314 55.7475 26.2465 55.8007C26.2846 56.0285 26.3491 56.2563 26.4402 56.4841C26.7364 57.122 27.34 57.4409 28.2513 57.4409C28.9802 57.4333 29.5535 57.1372 29.9712 56.5524C30.0244 56.4841 30.0774 56.45 30.1306 56.45C30.161 56.45 30.199 56.4727 30.2446 56.5183L31.4747 57.7257C31.5354 57.7865 31.5658 57.8395 31.5658 57.8852C31.5658 57.9079 31.543 57.9535 31.4975 58.0218C31.1178 58.4926 30.6356 58.8533 30.0509 59.1038C29.4511 59.362 28.798 59.4911 28.0918 59.4911C27.1198 59.4911 26.2922 59.271 25.6087 58.8305C24.9329 58.3825 24.4469 57.7598 24.1508 56.9625C23.9078 56.393 23.7863 55.6488 23.7863 54.73C23.7863 54.0998 23.8736 53.5455 24.0482 53.067C24.3141 52.2622 24.7734 51.6205 25.4265 51.1421C26.0795 50.6637 26.8541 50.4245 27.7501 50.4245C28.8891 50.4245 29.8041 50.7549 30.4951 51.4155C31.1861 52.0761 31.6076 52.9569 31.7595 54.058ZM27.7728 52.509C27.0515 52.509 26.5769 52.8431 26.3491 53.5112C26.3036 53.6631 26.2655 53.8454 26.2352 54.058C26.2352 54.1112 26.2655 54.1377 26.3263 54.1377H29.2763C29.3447 54.1377 29.3675 54.1112 29.3447 54.058C29.284 53.7315 29.2536 53.572 29.2536 53.5796C29.1549 53.2379 28.9765 52.9722 28.7183 52.7823C28.4677 52.6 28.1526 52.509 27.7728 52.509ZM37.6823 50.4587C38.0924 50.4587 38.4189 50.5385 38.6619 50.6979C38.7455 50.7435 38.7758 50.827 38.753 50.9485L38.4 52.8962C38.3924 53.0329 38.3127 53.0746 38.1608 53.0215C37.9861 52.9608 37.7887 52.9304 37.5685 52.9304C37.4773 52.9304 37.3482 52.9418 37.1812 52.9646C36.7788 53.0025 36.4333 53.1543 36.1447 53.4202C35.8637 53.686 35.7232 54.0429 35.7232 54.4908V59.1495C35.7232 59.2102 35.7005 59.2596 35.6549 59.2975C35.6169 59.3355 35.5714 59.3544 35.5182 59.3544H33.5135C33.4604 59.3544 33.4111 59.3355 33.3654 59.2975C33.3275 59.2596 33.3085 59.2102 33.3085 59.1495V50.7776C33.3085 50.7245 33.3275 50.6751 33.3654 50.6295C33.4111 50.5916 33.4604 50.5726 33.5135 50.5726H35.5182C35.5714 50.5726 35.6169 50.5916 35.6549 50.6295C35.7005 50.6751 35.7232 50.7245 35.7232 50.7776V51.4269C35.7232 51.4573 35.7346 51.4801 35.7574 51.4952C35.7726 51.5103 35.7878 51.5028 35.803 51.4724C36.2738 50.7967 36.9002 50.4587 37.6823 50.4587ZM44.9607 50.5612C45.0215 50.5612 45.0708 50.5802 45.1088 50.6182C45.1468 50.6562 45.1658 50.7055 45.1658 50.7663V52.3836C45.1658 52.4444 45.1468 52.4937 45.1088 52.5317C45.0708 52.5696 45.0215 52.5887 44.9607 52.5887H43.3091C43.2484 52.5887 43.218 52.6153 43.218 52.6685V59.1495C43.218 59.2102 43.199 59.2596 43.1611 59.2975C43.1231 59.3355 43.0738 59.3544 43.013 59.3544H41.0197C40.9589 59.3544 40.9096 59.3355 40.8716 59.2975C40.8337 59.2596 40.8147 59.2102 40.8147 59.1495V52.6685C40.8147 52.6153 40.7843 52.5887 40.7235 52.5887H39.7212C39.6605 52.5887 39.6112 52.5696 39.5731 52.5317C39.5352 52.4937 39.5162 52.4444 39.5162 52.3836V50.7663C39.5162 50.7055 39.5352 50.6562 39.5731 50.6182C39.6112 50.5802 39.6605 50.5612 39.7212 50.5612H40.7235C40.7843 50.5612 40.8147 50.5308 40.8147 50.4701V50.0943C40.8147 49.388 40.921 48.8374 41.1336 48.4426C41.3539 48.0553 41.7031 47.7782 42.1815 47.6111C42.6675 47.4441 43.3395 47.3719 44.1975 47.3947H44.8468C44.8999 47.3947 44.9456 47.4137 44.9835 47.4516C45.029 47.4973 45.0518 47.5466 45.0518 47.5997V48.9779C45.0518 49.0387 45.029 49.0881 44.9835 49.126C44.9456 49.1716 44.8999 49.1943 44.8468 49.1943H44.2773C43.8824 49.202 43.6053 49.2817 43.4458 49.4336C43.294 49.593 43.218 49.8778 43.218 50.2878V50.4701C43.218 50.5308 43.2484 50.5612 43.3091 50.5612H44.9607ZM49.9155 59.4911C48.9588 59.4911 48.1386 59.2406 47.4552 58.7394C46.7717 58.2382 46.3048 57.5548 46.0542 56.6891C45.8947 56.1576 45.815 55.5767 45.815 54.9464C45.815 54.2782 45.8947 53.6746 46.0542 53.1354C46.32 52.2925 46.7945 51.6319 47.478 51.1535C48.1614 50.6751 48.9815 50.4359 49.9383 50.4359C50.8647 50.4359 51.662 50.6713 52.3302 51.1421C52.9832 51.6205 53.4464 52.2812 53.7199 53.124C53.9097 53.6935 54.0046 54.2896 54.0046 54.9123C54.0046 55.5274 53.9249 56.1044 53.7654 56.6436C53.5148 57.532 53.0478 58.2268 52.3644 58.728C51.6886 59.2368 50.8722 59.4911 49.9155 59.4911ZM49.9155 57.4296C50.2875 57.4296 50.6065 57.3156 50.8722 57.0878C51.138 56.86 51.3278 56.5449 51.4418 56.1425C51.5253 55.7779 51.5671 55.3793 51.5671 54.9464C51.5671 54.4681 51.5253 54.0656 51.4418 53.739C51.3127 53.3518 51.119 53.0481 50.8608 52.8278C50.5951 52.6153 50.2724 52.509 49.8927 52.509C49.5131 52.509 49.1941 52.6153 48.9359 52.8278C48.6778 53.0481 48.4917 53.3518 48.3778 53.739C48.2866 54.0049 48.2411 54.4073 48.2411 54.9464C48.2411 55.4628 48.2829 55.8615 48.3664 56.1425C48.4803 56.5449 48.6702 56.86 48.9359 57.0878C49.2017 57.3156 49.5282 57.4296 49.9155 57.4296ZM59.9275 50.4587C60.3375 50.4587 60.664 50.5385 60.9071 50.6979C60.9982 50.7435 61.0286 50.827 60.9982 50.9485L60.6451 52.8962C60.6375 53.0329 60.5578 53.0746 60.4059 53.0215C60.2312 52.9608 60.0338 52.9304 59.8136 52.9304C59.7224 52.9304 59.5972 52.9418 59.4377 52.9646C59.0277 53.0025 58.6784 53.1543 58.3898 53.4202C58.1088 53.686 57.9684 54.0429 57.9684 54.4908V59.1495C57.9684 59.2102 57.9456 59.2596 57.9 59.2975C57.862 59.3355 57.8127 59.3544 57.7519 59.3544H55.7587C55.7055 59.3544 55.6562 59.3355 55.6106 59.2975C55.5727 59.2596 55.5536 59.2102 55.5536 59.1495V50.7776C55.5536 50.7245 55.5727 50.6751 55.6106 50.6295C55.6562 50.5916 55.7055 50.5726 55.7587 50.5726H57.7519C57.8127 50.5726 57.862 50.5916 57.9 50.6295C57.9456 50.6751 57.9684 50.7245 57.9684 50.7776V51.4269C57.9684 51.4573 57.976 51.4801 57.9911 51.4952C58.0215 51.5103 58.0405 51.5028 58.0482 51.4724C58.5189 50.7967 59.1454 50.4587 59.9275 50.4587ZM71.8303 50.4359C72.7188 50.4359 73.4136 50.7017 73.9147 51.2332C74.4158 51.7724 74.6664 52.528 74.6664 53.4999V59.1495C74.6664 59.2102 74.6475 59.2596 74.6095 59.2975C74.5716 59.3355 74.526 59.3544 74.4729 59.3544H72.4681C72.415 59.3544 72.3657 59.3355 72.3201 59.2975C72.2821 59.2596 72.2631 59.2102 72.2631 59.1495V54.0239C72.2631 53.5606 72.1455 53.1924 71.9101 52.919C71.667 52.6456 71.3443 52.509 70.9418 52.509C70.547 52.509 70.2243 52.6456 69.9737 52.919C69.7231 53.1924 69.5978 53.5569 69.5978 54.0125V59.1495C69.5978 59.2102 69.5788 59.2596 69.5409 59.2975C69.4953 59.3355 69.4459 59.3544 69.3928 59.3544H67.4109C67.3501 59.3544 67.3008 59.3355 67.2628 59.2975C67.2249 59.2596 67.2059 59.2102 67.2059 59.1495V54.0239C67.2059 53.5683 67.0805 53.2 66.83 52.919C66.5794 52.6456 66.2529 52.509 65.8505 52.509C65.4936 52.509 65.1898 52.6153 64.9393 52.8278C64.6962 53.0481 64.552 53.3518 64.5063 53.739V59.1495C64.5063 59.2102 64.4874 59.2596 64.4494 59.2975C64.4039 59.3355 64.3545 59.3544 64.3014 59.3544H62.308C62.2473 59.3544 62.1979 59.3355 62.16 59.2975C62.122 59.2596 62.103 59.2102 62.103 59.1495V50.7776C62.103 50.7245 62.122 50.6751 62.16 50.6295C62.1979 50.5916 62.2473 50.5726 62.308 50.5726H64.3014C64.3545 50.5726 64.4039 50.5916 64.4494 50.6295C64.4874 50.6751 64.5063 50.7245 64.5063 50.7776V51.4497C64.5063 51.4801 64.5178 51.5028 64.5406 51.518C64.5634 51.5256 64.5861 51.5103 64.6089 51.4724C65.0796 50.7814 65.8048 50.4359 66.7844 50.4359C67.354 50.4359 67.8513 50.5574 68.2766 50.8004C68.7018 51.0358 69.0283 51.3775 69.2561 51.8256C69.2865 51.8939 69.3282 51.8939 69.3814 51.8256C69.6243 51.3547 69.9623 51.0054 70.3952 50.7776C70.8204 50.5499 71.2987 50.4359 71.8303 50.4359ZM84.0862 54.058C84.1545 54.4908 84.1774 54.973 84.1545 55.5046C84.1393 55.6488 84.0634 55.721 83.9267 55.721H78.6531C78.5847 55.721 78.562 55.7475 78.5847 55.8007C78.615 56.0285 78.6758 56.2563 78.7669 56.4841C79.0631 57.122 79.6668 57.4409 80.578 57.4409C81.307 57.4333 81.8841 57.1372 82.3093 56.5524C82.3549 56.4841 82.4043 56.45 82.4574 56.45C82.4954 56.45 82.5371 56.4727 82.5827 56.5183L83.8128 57.7257C83.866 57.7865 83.8925 57.8395 83.8925 57.8852C83.8925 57.9079 83.8698 57.9535 83.8242 58.0218C83.4522 58.4926 82.97 58.8533 82.3776 59.1038C81.7853 59.362 81.1362 59.4911 80.4299 59.4911C79.4504 59.4911 78.6227 59.271 77.9469 58.8305C77.2635 58.3825 76.7736 57.7598 76.4775 56.9625C76.2421 56.393 76.1244 55.6488 76.1244 54.73C76.1244 54.0998 76.2079 53.5455 76.375 53.067C76.6408 52.2622 77.1001 51.6205 77.7532 51.1421C78.4062 50.6637 79.1846 50.4245 80.0883 50.4245C81.2273 50.4245 82.1422 50.7549 82.8332 51.4155C83.5243 52.0761 83.9419 52.9569 84.0862 54.058ZM80.0997 52.509C79.3859 52.509 78.915 52.8431 78.6872 53.5112C78.6417 53.6631 78.5999 53.8454 78.562 54.058C78.562 54.1112 78.5923 54.1377 78.6531 54.1377H81.6032C81.6715 54.1377 81.6942 54.1112 81.6715 54.058C81.6183 53.7315 81.5918 53.572 81.5918 53.5796C81.4855 53.2379 81.307 52.9722 81.0564 52.7823C80.7982 52.6 80.4793 52.509 80.0997 52.509ZM90.0092 50.4587C90.4191 50.4587 90.7457 50.5385 90.9887 50.6979C91.0798 50.7435 91.114 50.827 91.0912 50.9485L90.7381 52.8962C90.7229 53.0329 90.6394 53.0746 90.4875 53.0215C90.3204 52.9608 90.123 52.9304 89.8952 52.9304C89.8041 52.9304 89.6788 52.9418 89.5193 52.9646C89.1093 53.0025 88.76 53.1543 88.4714 53.4202C88.1904 53.686 88.0499 54.0429 88.0499 54.4908V59.1495C88.0499 59.2102 88.031 59.2596 87.993 59.2975C87.9475 59.3355 87.8981 59.3544 87.8449 59.3544H85.8403C85.7871 59.3544 85.7416 59.3355 85.7037 59.2975C85.658 59.2596 85.6352 59.2102 85.6352 59.1495V50.7776C85.6352 50.7245 85.658 50.6751 85.7037 50.6295C85.7416 50.5916 85.7871 50.5726 85.8403 50.5726H87.8449C87.8981 50.5726 87.9475 50.5916 87.993 50.6295C88.031 50.6751 88.0499 50.7245 88.0499 50.7776V51.4269C88.0499 51.4573 88.0613 51.4801 88.0842 51.4952C88.107 51.5103 88.1259 51.5028 88.1411 51.4724C88.6044 50.7967 89.227 50.4587 90.0092 50.4587ZM43.013 30.5144C43.013 30.4613 43.032 30.4119 43.0699 30.3663C43.1079 30.3284 43.1535 30.3094 43.2066 30.3094H45.2113C45.2645 30.3094 45.3139 30.3284 45.3594 30.3663C45.3973 30.4119 45.4163 30.4613 45.4163 30.5144V42.0641C45.4163 42.1249 45.3973 42.1743 45.3594 42.2122C45.3139 42.2502 45.2645 42.2691 45.2113 42.2691H43.2066C43.1535 42.2691 43.1079 42.2502 43.0699 42.2122C43.032 42.1743 43.013 42.1249 43.013 42.0641V37.3486C43.013 37.2954 42.9826 37.2688 42.9219 37.2688H39.1403C39.0872 37.2688 39.0606 37.2954 39.0606 37.3486V42.0641C39.0606 42.1249 39.0416 42.1743 39.0036 42.2122C38.9581 42.2502 38.9088 42.2691 38.8556 42.2691H36.8508C36.7978 42.2691 36.7521 42.2502 36.7142 42.2122C36.6687 42.1743 36.6459 42.1249 36.6459 42.0641V30.5144C36.6459 30.4613 36.6687 30.4119 36.7142 30.3663C36.7521 30.3284 36.7978 30.3094 36.8508 30.3094H38.8556C38.9088 30.3094 38.9581 30.3284 39.0036 30.3663C39.0416 30.4119 39.0606 30.4613 39.0606 30.5144V35.1047C39.0606 35.1654 39.0872 35.1958 39.1403 35.1958H42.9219C42.9826 35.1958 43.013 35.1654 43.013 35.1047V30.5144ZM48.5259 32.4963C48.1386 32.4963 47.8159 32.3672 47.5577 32.109C47.2995 31.8585 47.1704 31.5396 47.1704 31.1523C47.1704 30.7498 47.2957 30.4233 47.5463 30.1727C47.7969 29.9221 48.1234 29.7969 48.5259 29.7969C48.9284 29.7969 49.2549 29.9221 49.5054 30.1727C49.756 30.4233 49.8813 30.7498 49.8813 31.1523C49.8813 31.5396 49.7522 31.8585 49.494 32.109C49.2359 32.3672 48.9131 32.4963 48.5259 32.4963ZM47.5008 42.2691C47.4476 42.2691 47.3982 42.2502 47.3527 42.2122C47.3148 42.1743 47.2957 42.1249 47.2957 42.0641V33.6809C47.2957 33.6202 47.3148 33.5708 47.3527 33.5328C47.3982 33.4948 47.4476 33.4759 47.5008 33.4759H49.5054C49.5586 33.4759 49.6041 33.4948 49.6422 33.5328C49.6877 33.5708 49.7105 33.6202 49.7105 33.6809V42.0641C49.7105 42.1249 49.6877 42.1743 49.6422 42.2122C49.6041 42.2502 49.5586 42.2691 49.5054 42.2691H47.5008ZM56.9432 33.6923C56.9432 33.6392 56.9661 33.5898 57.0116 33.5442C57.0495 33.5062 57.0952 33.4873 57.1482 33.4873H59.153C59.2062 33.4873 59.2555 33.5062 59.301 33.5442C59.339 33.5898 59.358 33.6392 59.358 33.6923V41.4832C59.358 42.9715 58.929 44.0347 58.0709 44.6724C57.2128 45.3179 56.1042 45.6406 54.7449 45.6406C54.3425 45.6406 53.8983 45.6102 53.4123 45.5496C53.2984 45.5343 53.2414 45.4621 53.2414 45.3331L53.3098 43.5676C53.3098 43.4157 53.3895 43.3512 53.549 43.3739C53.9591 43.4423 54.3349 43.4765 54.6766 43.4765C55.4055 43.4765 55.9675 43.3209 56.3624 43.0095C56.7497 42.683 56.9432 42.1704 56.9432 41.4718C56.9432 41.4338 56.9318 41.4111 56.9091 41.4034C56.8863 41.3959 56.8635 41.4073 56.8407 41.4377C56.4079 41.9008 55.7777 42.1325 54.9499 42.1325C54.2058 42.1325 53.5262 41.954 52.9111 41.5971C52.2884 41.2402 51.8442 40.6631 51.5785 39.8658C51.4114 39.3419 51.3278 38.6622 51.3278 37.827C51.3278 36.9385 51.4304 36.2171 51.6354 35.6628C51.8708 34.9642 52.2733 34.4061 52.8427 33.9884C53.4123 33.5632 54.0768 33.3506 54.8361 33.3506C55.7093 33.3506 56.3775 33.6125 56.8407 34.1365C56.8635 34.1593 56.8863 34.1669 56.9091 34.1593C56.9318 34.1517 56.9432 34.1327 56.9432 34.1024V33.6923ZM56.8066 39.2051C56.8977 38.871 56.9432 38.404 56.9432 37.8042C56.9432 37.4548 56.9318 37.1852 56.9091 36.9955C56.8863 36.7981 56.8484 36.612 56.7952 36.4373C56.6889 36.1336 56.518 35.8868 56.2826 35.697C56.0473 35.5147 55.7511 35.4236 55.3942 35.4236C55.0525 35.4236 54.7639 35.5147 54.5285 35.697C54.2856 35.8868 54.1071 36.1336 53.9932 36.4373C53.8337 36.779 53.754 37.2423 53.754 37.827C53.754 38.4648 53.8223 38.9204 53.9591 39.1938C54.0578 39.5051 54.2362 39.7519 54.4943 39.9342C54.7525 40.124 55.0563 40.2189 55.4055 40.2189C55.7701 40.2189 56.0738 40.124 56.3168 39.9342C56.5522 39.7519 56.7154 39.5089 56.8066 39.2051ZM65.6682 33.3506C66.5794 33.3506 67.3122 33.6315 67.8665 34.1935C68.4208 34.7478 68.698 35.5033 68.698 36.4601V42.0641C68.698 42.1249 68.679 42.1743 68.6411 42.2122C68.6031 42.2502 68.5575 42.2691 68.5044 42.2691H66.4997C66.4465 42.2691 66.3971 42.2502 66.3516 42.2122C66.3137 42.1743 66.2947 42.1249 66.2947 42.0641V36.9499C66.2947 36.5018 66.1656 36.1336 65.9074 35.8451C65.6568 35.5641 65.3189 35.4236 64.8936 35.4236C64.476 35.4236 64.138 35.5641 63.88 35.8451C63.6218 36.1336 63.4927 36.5018 63.4927 36.9499V42.0641C63.4927 42.1249 63.4737 42.1743 63.4357 42.2122C63.3977 42.2502 63.3483 42.2691 63.2876 42.2691H61.2944C61.2336 42.2691 61.1842 42.2502 61.1463 42.2122C61.1082 42.1743 61.0893 42.1249 61.0893 42.0641V30.5144C61.0893 30.4613 61.1082 30.4119 61.1463 30.3663C61.1842 30.3284 61.2336 30.3094 61.2944 30.3094H63.2876C63.3483 30.3094 63.3977 30.3284 63.4357 30.3663C63.4737 30.4119 63.4927 30.4613 63.4927 30.5144V34.2959C63.4927 34.3263 63.5041 34.3491 63.5268 34.3643C63.5496 34.3719 63.5647 34.3643 63.5724 34.3416C64.0432 33.6809 64.7418 33.3506 65.6682 33.3506Z" fill="#252530"></path><path d="M34.357 76.9835C33.7647 76.9835 33.2483 76.8886 32.8079 76.6987C32.3675 76.5089 32.0258 76.2431 31.7828 75.9015C31.5474 75.5597 31.4297 75.1573 31.4297 74.6941V74.4094C31.4297 74.3713 31.4448 74.3372 31.4752 74.3068C31.498 74.284 31.5284 74.2726 31.5664 74.2726H32.5801C32.6181 74.2726 32.6522 74.284 32.6826 74.3068C32.7054 74.3372 32.7168 74.3713 32.7168 74.4094V74.6258C32.7168 74.975 32.8724 75.2636 33.1838 75.4914C33.4951 75.7267 33.9203 75.8445 34.4595 75.8445C34.9227 75.8445 35.272 75.7458 35.5074 75.5483C35.7428 75.3509 35.8604 75.0965 35.8604 74.7852C35.8604 74.5726 35.796 74.3903 35.6669 74.2385C35.5378 74.0942 35.3555 73.9613 35.1201 73.8398C34.8772 73.7183 34.5164 73.5665 34.038 73.3842C33.4989 73.1868 33.0623 73.0007 32.7282 72.826C32.394 72.6514 32.1168 72.4122 31.8967 72.1085C31.6689 71.8124 31.555 71.4402 31.555 70.9923C31.555 70.324 31.798 69.7962 32.284 69.4091C32.77 69.0218 33.4192 68.8281 34.2317 68.8281C34.8012 68.8281 35.3061 68.9268 35.7466 69.1242C36.1794 69.3216 36.5173 69.5988 36.7603 69.9557C37.0033 70.305 37.1248 70.7113 37.1248 71.1745V71.3682C37.1248 71.4061 37.1096 71.4402 37.0792 71.4706C37.0565 71.4934 37.0261 71.5048 36.9882 71.5048H35.963C35.925 71.5048 35.8947 71.4934 35.8719 71.4706C35.8415 71.4402 35.8263 71.4061 35.8263 71.3682V71.2428C35.8263 70.8859 35.682 70.586 35.3935 70.343C35.0973 70.0925 34.691 69.9671 34.1748 69.9671C33.7571 69.9671 33.4343 70.0544 33.2065 70.2291C32.9711 70.4037 32.8535 70.6505 32.8535 70.9695C32.8535 71.1973 32.9142 71.3833 33.0357 71.5276C33.1572 71.6719 33.3394 71.801 33.5824 71.9149C33.8254 72.0363 34.2013 72.1882 34.7101 72.3704C35.2492 72.5755 35.682 72.7615 36.0085 72.9286C36.3275 73.0956 36.6046 73.3273 36.84 73.6234C37.0678 73.9271 37.1818 74.303 37.1818 74.751C37.1818 75.4344 36.9274 75.9774 36.4186 76.3799C35.9175 76.7823 35.2302 76.9835 34.357 76.9835ZM41.3051 76.9835C40.7431 76.9835 40.2457 76.8734 39.8129 76.6532C39.3801 76.433 39.046 76.1217 38.8105 75.7192C38.5676 75.3092 38.446 74.8383 38.446 74.3068V69.0559C38.446 69.0179 38.4613 68.9876 38.4917 68.9647C38.5144 68.9345 38.5448 68.9192 38.5827 68.9192H39.6307C39.6686 68.9192 39.7028 68.9345 39.7331 68.9647C39.756 68.9876 39.7674 69.0179 39.7674 69.0559V74.3296C39.7674 74.7776 39.9079 75.142 40.1888 75.423C40.4698 75.704 40.8418 75.8445 41.3051 75.8445C41.7683 75.8445 42.1403 75.704 42.4213 75.423C42.7022 75.142 42.8427 74.7776 42.8427 74.3296V69.0559C42.8427 69.0179 42.8579 68.9876 42.8883 68.9647C42.911 68.9345 42.9414 68.9192 42.9793 68.9192H44.0273C44.0653 68.9192 44.0994 68.9345 44.1298 68.9647C44.1526 68.9876 44.164 69.0179 44.164 69.0559V74.3068C44.164 74.8383 44.0463 75.3092 43.8108 75.7192C43.5755 76.1217 43.2414 76.433 42.8086 76.6532C42.3757 76.8734 41.8745 76.9835 41.3051 76.9835ZM50.8956 69.0104C50.9336 68.9496 50.9867 68.9192 51.0551 68.9192H52.103C52.1409 68.9192 52.1751 68.9345 52.2055 68.9647C52.2282 68.9876 52.2396 69.0179 52.2396 69.0559V76.7558C52.2396 76.7937 52.2282 76.8241 52.2055 76.8468C52.1751 76.8772 52.1409 76.8924 52.103 76.8924H51.0551C51.0171 76.8924 50.9829 76.8772 50.9525 76.8468C50.9297 76.8241 50.9184 76.7937 50.9184 76.7558V71.3225C50.9184 71.2998 50.907 71.2846 50.8842 71.277C50.8691 71.2694 50.8577 71.277 50.8501 71.2998L49.4262 73.4867C49.3883 73.5475 49.3351 73.5778 49.2668 73.5778H48.7428C48.6745 73.5778 48.6214 73.5475 48.5833 73.4867L47.1482 71.3111C47.1406 71.2884 47.1255 71.2808 47.1027 71.2884C47.0875 71.296 47.0798 71.3111 47.0798 71.3339V76.7558C47.0798 76.7937 47.0684 76.8241 47.0457 76.8468C47.0153 76.8772 46.9811 76.8924 46.9432 76.8924H45.8953C45.8573 76.8924 45.827 76.8772 45.8041 76.8468C45.7738 76.8241 45.7586 76.7937 45.7586 76.7558V69.0559C45.7586 69.0179 45.7738 68.9876 45.8041 68.9647C45.827 68.9345 45.8573 68.9192 45.8953 68.9192H46.9432C47.0115 68.9192 47.0647 68.9496 47.1027 69.0104L48.9592 71.8238C48.9745 71.8389 48.9896 71.8465 49.0048 71.8465C49.02 71.8465 49.0314 71.8389 49.0389 71.8238L50.8956 69.0104ZM59.0396 69.0104C59.0776 68.9496 59.1307 68.9192 59.1991 68.9192H60.2469C60.285 68.9192 60.3154 68.9345 60.3381 68.9647C60.3685 68.9876 60.3837 69.0179 60.3837 69.0559V76.7558C60.3837 76.7937 60.3685 76.8241 60.3381 76.8468C60.3154 76.8772 60.285 76.8924 60.2469 76.8924H59.1991C59.1611 76.8924 59.1307 76.8772 59.1079 76.8468C59.0776 76.8241 59.0624 76.7937 59.0624 76.7558V71.3225C59.0624 71.2998 59.0548 71.2846 59.0396 71.277C59.0169 71.2694 59.0016 71.277 58.9941 71.2998L57.5703 73.4867C57.5323 73.5475 57.4792 73.5778 57.4108 73.5778H56.8869C56.8186 73.5778 56.7654 73.5475 56.7274 73.4867L55.2922 71.3111C55.2847 71.2884 55.2733 71.2808 55.258 71.2884C55.2353 71.296 55.2239 71.3111 55.2239 71.3339V76.7558C55.2239 76.7937 55.2125 76.8241 55.1897 76.8468C55.1593 76.8772 55.1252 76.8924 55.0872 76.8924H54.0393C54.0013 76.8924 53.9709 76.8772 53.9482 76.8468C53.9178 76.8241 53.9026 76.7937 53.9026 76.7558V69.0559C53.9026 69.0179 53.9178 68.9876 53.9482 68.9647C53.9709 68.9345 54.0013 68.9192 54.0393 68.9192H55.0872C55.1556 68.9192 55.2087 68.9496 55.2466 69.0104L57.1033 71.8238C57.1184 71.8389 57.1337 71.8465 57.1488 71.8465C57.164 71.8465 57.1754 71.8389 57.183 71.8238L59.0396 69.0104ZM67.4456 69.9216C67.4456 69.9595 67.4343 69.9899 67.4115 70.0127C67.3811 70.0431 67.3469 70.0583 67.3089 70.0583H63.4249C63.3869 70.0583 63.3679 70.0772 63.3679 70.1152V72.2452C63.3679 72.2831 63.3869 72.3021 63.4249 72.3021H66.0332C66.0712 72.3021 66.1054 72.3135 66.1358 72.3363C66.1585 72.3667 66.1699 72.4008 66.1699 72.4389V73.3045C66.1699 73.3424 66.1585 73.3766 66.1358 73.407C66.1054 73.4297 66.0712 73.4411 66.0332 73.4411H63.4249C63.3869 73.4411 63.3679 73.4601 63.3679 73.4981V75.6965C63.3679 75.7344 63.3869 75.7534 63.4249 75.7534H67.3089C67.3469 75.7534 67.3811 75.7685 67.4115 75.7989C67.4343 75.8217 67.4456 75.8521 67.4456 75.89V76.7558C67.4456 76.7937 67.4343 76.8241 67.4115 76.8468C67.3811 76.8772 67.3469 76.8924 67.3089 76.8924H62.1833C62.1454 76.8924 62.115 76.8772 62.0922 76.8468C62.0618 76.8241 62.0467 76.7937 62.0467 76.7558V69.0559C62.0467 69.0179 62.0618 68.9876 62.0922 68.9647C62.115 68.9345 62.1454 68.9192 62.1833 68.9192H67.3089C67.3469 68.9192 67.3811 68.9345 67.4115 68.9647C67.4343 68.9876 67.4456 69.0179 67.4456 69.0559V69.9216ZM73.2661 76.8924C73.1901 76.8924 73.137 76.8582 73.1066 76.7899L71.6031 73.5095C71.5879 73.4791 71.565 73.4639 71.5347 73.4639H70.1678C70.1299 73.4639 70.1109 73.4829 70.1109 73.5209V76.7558C70.1109 76.7937 70.0958 76.8241 70.0654 76.8468C70.0426 76.8772 70.0122 76.8924 69.9742 76.8924H68.9264C68.8884 76.8924 68.858 76.8772 68.8352 76.8468C68.8048 76.8241 68.7897 76.7937 68.7897 76.7558V69.0559C68.7897 69.0179 68.8048 68.9876 68.8352 68.9647C68.858 68.9345 68.8884 68.9192 68.9264 68.9192H72.0587C72.5219 68.9192 72.9319 69.0141 73.2888 69.204C73.6457 69.4014 73.9228 69.6748 74.1203 70.024C74.3177 70.3809 74.4164 70.7872 74.4164 71.2428C74.4164 71.7667 74.2797 72.211 74.0064 72.5755C73.7406 72.9476 73.3685 73.2057 72.8902 73.3501C72.8749 73.3501 72.8635 73.3576 72.856 73.3728C72.8484 73.388 72.8484 73.4032 72.856 73.4184L74.462 76.7329C74.4772 76.7633 74.4848 76.786 74.4848 76.8013C74.4848 76.862 74.443 76.8924 74.3595 76.8924H73.2661ZM70.1678 70.0583C70.1299 70.0583 70.1109 70.0772 70.1109 70.1152V72.3818C70.1109 72.4198 70.1299 72.4389 70.1678 72.4389H71.8764C72.2409 72.4389 72.5333 72.3287 72.7534 72.1085C72.9812 71.8958 73.0952 71.6111 73.0952 71.2542C73.0952 70.8973 72.9812 70.6087 72.7534 70.3886C72.5333 70.1684 72.2409 70.0583 71.8764 70.0583H70.1678Z" fill="white"></path><path d="M38.1231 97.4613C38.1003 97.4841 38.0928 97.5068 38.1003 97.5297C38.1156 97.5525 38.1384 97.5638 38.1688 97.5638H42.645C42.6982 97.5638 42.7439 97.5828 42.7818 97.6208C42.8273 97.6587 42.8501 97.7043 42.8501 97.7575V99.3635C42.8501 99.4166 42.8273 99.4622 42.7818 99.5002C42.7439 99.5381 42.6982 99.5571 42.645 99.5571H35.2187C35.1579 99.5571 35.1086 99.5381 35.0705 99.5002C35.0326 99.4622 35.0136 99.4166 35.0136 99.3635V97.8372C35.0136 97.7385 35.0478 97.6549 35.1162 97.5866C35.6552 97.0626 36.2058 96.4893 36.7677 95.8667C37.3296 95.244 37.6828 94.8568 37.827 94.7049C38.1307 94.3404 38.4421 93.9911 38.761 93.657C39.7634 92.5483 40.2645 91.7244 40.2645 91.1853C40.2645 90.798 40.1279 90.4791 39.8544 90.2285C39.5811 89.9855 39.2242 89.864 38.7837 89.864C38.3434 89.864 37.9865 89.9855 37.7132 90.2285C37.4322 90.4791 37.2917 90.8095 37.2917 91.2194V91.6295C37.2917 91.6827 37.2727 91.7282 37.2347 91.7662C37.1968 91.8041 37.1512 91.8231 37.0981 91.8231H35.1503C35.0972 91.8231 35.0516 91.8041 35.0136 91.7662C34.9681 91.7282 34.9453 91.6827 34.9453 91.6295V90.855C34.9832 90.2627 35.1731 89.7349 35.5148 89.2717C35.8565 88.8161 36.3083 88.4668 36.8703 88.2238C37.4397 87.9808 38.0776 87.8594 38.7837 87.8594C39.5659 87.8594 40.2456 88.0074 40.8227 88.3036C41.3997 88.5922 41.8439 88.9832 42.1553 89.4767C42.4743 89.978 42.6337 90.5285 42.6337 91.1283C42.6337 91.5916 42.516 92.0662 42.2806 92.5522C42.0528 93.0381 41.7073 93.5621 41.2441 94.124C40.9023 94.5492 40.5341 94.9744 40.1393 95.3997C39.7443 95.8173 39.1559 96.421 38.3738 97.2107L38.1231 97.4613ZM48.2149 99.7394C47 99.7394 46.0431 99.4015 45.3446 98.7256C44.6384 98.0498 44.2853 97.1272 44.2853 95.9578V91.5953C44.2853 90.4487 44.6384 89.5413 45.3446 88.873C46.0431 88.1973 47 87.8594 48.2149 87.8594C49.4223 87.8594 50.3829 88.1973 51.0967 88.873C51.8029 89.5413 52.1559 90.4487 52.1559 91.5953V95.9578C52.1559 97.1272 51.8029 98.0498 51.0967 98.7256C50.3829 99.4015 49.4223 99.7394 48.2149 99.7394ZM48.2149 97.7461C48.7085 97.7461 49.0996 97.5942 49.3881 97.2904C49.6843 96.9867 49.8324 96.5805 49.8324 96.0717V91.527C49.8324 91.0258 49.6843 90.6234 49.3881 90.3196C49.0996 90.0159 48.7085 89.864 48.2149 89.864C47.7289 89.864 47.3416 90.0159 47.0531 90.3196C46.7569 90.6234 46.6089 91.0258 46.6089 91.527V96.0717C46.6089 96.5805 46.7569 96.9867 47.0531 97.2904C47.3416 97.5942 47.7289 97.7461 48.2149 97.7461ZM56.7804 97.4613C56.7576 97.4841 56.7538 97.5068 56.769 97.5297C56.7765 97.5525 56.7994 97.5638 56.8373 97.5638H61.3137C61.3669 97.5638 61.4124 97.5828 61.4503 97.6208C61.4883 97.6587 61.5073 97.7043 61.5073 97.7575V99.3635C61.5073 99.4166 61.4883 99.4622 61.4503 99.5002C61.4124 99.5381 61.3669 99.5571 61.3137 99.5571H53.8758C53.8227 99.5571 53.7771 99.5381 53.7392 99.5002C53.7012 99.4622 53.6822 99.4166 53.6822 99.3635V97.8372C53.6822 97.7385 53.7126 97.6549 53.7734 97.5866C54.32 97.0626 54.8706 96.4893 55.425 95.8667C55.9868 95.244 56.3399 94.8568 56.4842 94.7049C56.7955 94.3404 57.1107 93.9911 57.4296 93.657C58.4319 92.5483 58.9332 91.7244 58.9332 91.1853C58.9332 90.798 58.7964 90.4791 58.5231 90.2285C58.2421 89.9855 57.8815 89.864 57.441 89.864C57.0006 89.864 56.6437 89.9855 56.3703 90.2285C56.097 90.4791 55.9603 90.8095 55.9603 91.2194V91.6295C55.9603 91.6827 55.9413 91.7282 55.9033 91.7662C55.8653 91.8041 55.816 91.8231 55.7552 91.8231H53.8075C53.7544 91.8231 53.7088 91.8041 53.6708 91.7662C53.6329 91.7282 53.6139 91.6827 53.6139 91.6295V90.855C53.6443 90.2627 53.8303 89.7349 54.172 89.2717C54.5137 88.8161 54.9693 88.4668 55.5388 88.2238C56.1084 87.9808 56.7424 87.8594 57.441 87.8594C58.2231 87.8594 58.9028 88.0074 59.4798 88.3036C60.0645 88.5922 60.5126 88.9832 60.824 89.4767C61.1352 89.978 61.2909 90.5285 61.2909 91.1283C61.2909 91.5916 61.177 92.0662 60.9492 92.5522C60.7138 93.0381 60.3645 93.5621 59.9013 94.124C59.5596 94.5492 59.1913 94.9744 58.7964 95.3997C58.4016 95.8173 57.8131 96.421 57.031 97.2107L56.7804 97.4613ZM66.0293 97.4613C66.0065 97.4841 66.0027 97.5068 66.0179 97.5297C66.0254 97.5525 66.0482 97.5638 66.0862 97.5638H70.5626C70.6158 97.5638 70.6613 97.5828 70.6992 97.6208C70.7372 97.6587 70.7562 97.7043 70.7562 97.7575V99.3635C70.7562 99.4166 70.7372 99.4622 70.6992 99.5002C70.6613 99.5381 70.6158 99.5571 70.5626 99.5571H63.1247C63.0716 99.5571 63.026 99.5381 62.9881 99.5002C62.9501 99.4622 62.9311 99.4166 62.9311 99.3635V97.8372C62.9311 97.7385 62.9615 97.6549 63.0223 97.5866C63.5689 97.0626 64.1195 96.4893 64.6738 95.8667C65.2357 95.244 65.5888 94.8568 65.7331 94.7049C66.0444 94.3404 66.3595 93.9911 66.6785 93.657C67.6808 92.5483 68.182 91.7244 68.182 91.1853C68.182 90.798 68.0453 90.4791 67.772 90.2285C67.491 89.9855 67.1303 89.864 66.6899 89.864C66.2495 89.864 65.8926 89.9855 65.6192 90.2285C65.3458 90.4791 65.2092 90.8095 65.2092 91.2194V91.6295C65.2092 91.6827 65.1902 91.7282 65.1522 91.7662C65.1142 91.8041 65.0649 91.8231 65.0041 91.8231H63.0564C63.0032 91.8231 62.9577 91.8041 62.9197 91.7662C62.8818 91.7282 62.8628 91.6827 62.8628 91.6295V90.855C62.8932 90.2627 63.0792 89.7349 63.4209 89.2717C63.7626 88.8161 64.2182 88.4668 64.7877 88.2238C65.3573 87.9808 65.9913 87.8594 66.6899 87.8594C67.472 87.8594 68.1516 88.0074 68.7287 88.3036C69.3134 88.5922 69.7615 88.9832 70.0727 89.4767C70.3841 89.978 70.5398 90.5285 70.5398 91.1283C70.5398 91.5916 70.4259 92.0662 70.1981 92.5522C69.9627 93.0381 69.6134 93.5621 69.1502 94.124C68.8084 94.5492 68.4401 94.9744 68.0453 95.3997C67.6504 95.8173 67.062 96.421 66.2799 97.2107L66.0293 97.4613Z" fill="#252530"></path></g><defs><clipPath id="clip0_1695_15068"><rect width="105.93" height="118.8" fill="white" transform="translate(0 0.917969)"></rect></clipPath></defs></svg>