<svg xmlns="http://www.w3.org/2000/svg" width="105" height="119" viewBox="0 0 105 119" fill="none"><path d="M53.2454 115.404L7.69531 92.5624V16.3455C11.3629 15.9093 14.8324 14.4373 17.7016 12.1002C20.5709 9.76312 22.7226 6.65657 23.9071 3.14062H80.6816C81.8784 6.69638 84.0628 9.8335 86.9768 12.1813C89.8907 14.5291 93.4124 15.9895 97.1256 16.3899V92.5624L53.2454 115.404Z" fill="white"></path><path d="M8.10156 92.563L53.154 115.405L96.5698 92.5408V16.3906C92.9603 15.8923 89.5357 14.481 86.6171 12.2891L8.10156 92.563Z" fill="#F7F8F7"></path><path d="M98.7822 14.2562H98.6385C94.7695 14.2493 91.0166 12.9278 87.9892 10.5064C84.9618 8.08495 82.8378 4.70586 81.9622 0.917969L22.4784 0.917969C21.6028 4.68921 19.4909 8.05495 16.4824 10.4741C13.4738 12.8933 9.74333 14.2254 5.89062 14.2562V94.5302L7.46094 95.3305L51.8499 118.05L53.1769 118.728L54.4928 118.028L97.2451 95.3082L98.7822 94.4968V16.4792V14.2562ZM53.1548 115.405L8.10233 92.5628V16.3459C11.7438 15.8978 15.1836 14.4186 18.0207 12.0806C20.8577 9.74266 22.9751 6.64232 24.1261 3.14101H80.2924C81.4571 6.68523 83.6106 9.81835 86.4966 12.1673C89.3825 14.5163 92.8793 15.9821 96.5705 16.3903V92.5628L53.1548 115.405Z" fill="#E9E9EA"></path><mask id="mask0_1695_15077" style="mask-type:luminance" maskUnits="userSpaceOnUse" x="0" y="64" width="105" height="17"><path d="M100.76 64.2656H3.90916L0.359375 72.602L3.90916 80.9384H100.76L104.31 72.602L100.76 64.2656Z" fill="white"></path></mask><g mask="url(#mask0_1695_15077)"><path d="M-5.17188 58.7031H109.837V86.4911H-5.17188V58.7031Z" fill="#9132A2"></path></g><mask id="mask1_1695_15077" style="mask-type:luminance" maskUnits="userSpaceOnUse" x="41" y="0" width="23" height="25"><path d="M52.332 24.2599L63.3905 18.0354V0.917969H41.2734V18.0354L52.332 24.2599ZM54.5437 9.65452C54.5262 9.19432 54.6414 8.73886 54.8754 8.34292C55.1778 7.93358 55.5821 7.61154 56.0476 7.40925L56.313 7.29809C56.7664 7.07579 56.877 6.88683 56.877 6.66453C56.877 6.44222 56.6337 6.2088 56.2467 6.2088C56.0135 6.19144 55.7809 6.24878 55.5823 6.3726C55.3836 6.49642 55.229 6.68034 55.1408 6.89795L54.5437 6.30884C54.6924 6.01838 54.9232 5.77861 55.2072 5.6197C55.5061 5.44631 55.8463 5.35794 56.1914 5.36405C56.6087 5.3503 57.0194 5.47104 57.3636 5.70862C57.5205 5.81238 57.6485 5.95458 57.7355 6.12182C57.8226 6.28906 57.8659 6.47583 57.8612 6.66453C57.8612 7.30921 57.4852 7.69824 56.7554 8.05393L56.3462 8.24289C55.926 8.45407 55.7159 8.63192 55.6495 8.95426H57.8612V9.81013H54.5437V9.65452ZM57.3083 10.9216L58.9671 13.7004L57.3083 16.4792L55.6495 13.6893H52.332L53.9907 10.9216H57.3083ZM52.6527 5.36405C53.113 5.3633 53.5723 5.40797 54.0239 5.49743L52.6527 8.20954C51.6221 8.18867 50.6254 8.57951 49.8811 9.29632C49.1369 10.0131 48.7059 10.9974 48.6827 12.0332C48.7087 13.067 49.141 14.0484 49.8849 14.7628C50.6289 15.4773 51.624 15.8666 52.6527 15.8457C53.5993 15.8513 54.5183 15.5251 55.2514 14.9231L56.7554 17.4129C55.5507 18.2533 54.1191 18.7032 52.6527 18.7023C50.8515 18.7411 49.1084 18.0612 47.8048 16.8113C46.5012 15.5614 45.7432 13.8434 45.6968 12.0332C45.7432 10.223 46.5012 8.50492 47.8048 7.25504C49.1084 6.00516 50.8515 5.32523 52.6527 5.36405Z" fill="white"></path></mask><g mask="url(#mask1_1695_15077)"><path d="M35.7422 -4.64844H68.9178V29.8087H35.7422V-4.64844Z" fill="#9132A2"></path></g><path d="M19.494 47.1484C20.2239 47.1484 20.8653 47.2966 21.4182 47.593C21.9711 47.8895 22.3987 48.3155 22.701 48.8713C23.0032 49.4196 23.1544 50.0495 23.1544 50.7609C23.1544 51.4648 22.9996 52.0836 22.6899 52.6171C22.3729 53.1432 21.9306 53.5545 21.3629 53.8509C20.7952 54.1473 20.1391 54.2955 19.3945 54.2955H17.039C16.9874 54.2955 16.9616 54.3252 16.9616 54.3844V58.6304C16.9616 58.6897 16.9395 58.7379 16.8952 58.7749C16.8584 58.812 16.8105 58.8305 16.7515 58.8305H14.8162C14.7573 58.8305 14.7093 58.812 14.6725 58.7749C14.6356 58.7379 14.6172 58.6897 14.6172 58.6304V47.3485C14.6172 47.2892 14.6356 47.2411 14.6725 47.204C14.7093 47.167 14.7573 47.1484 14.8162 47.1484H19.494ZM19.1401 52.417C19.6562 52.417 20.0654 52.2688 20.3676 51.9724C20.6773 51.676 20.8321 51.2907 20.8321 50.8165C20.8321 50.32 20.6773 49.9235 20.3676 49.6271C20.0654 49.3233 19.6562 49.1714 19.1401 49.1714H17.039C16.9874 49.1714 16.9616 49.201 16.9616 49.2603V52.3281C16.9616 52.3874 16.9874 52.417 17.039 52.417H19.1401ZM31.5257 53.6619C31.5847 54.0843 31.6031 54.5549 31.581 55.0736C31.5736 55.2144 31.5036 55.2848 31.3709 55.2848H26.2508C26.1844 55.2848 26.1586 55.3107 26.1733 55.3626C26.2102 55.5849 26.2729 55.8072 26.3613 56.0295C26.6489 56.6519 27.235 56.9632 28.1196 56.9632C28.8274 56.9557 29.384 56.6668 29.7895 56.0962C29.8411 56.0295 29.8927 55.9961 29.9443 55.9961C29.9738 55.9961 30.0107 56.0184 30.0549 56.0628L31.2492 57.241C31.3082 57.3003 31.3377 57.3522 31.3377 57.3967C31.3377 57.4189 31.3156 57.4633 31.2713 57.53C30.9027 57.9895 30.4346 58.3414 29.8669 58.586C29.2845 58.8379 28.6505 58.9639 27.9648 58.9639C27.0212 58.9639 26.2176 58.749 25.5541 58.3192C24.8979 57.882 24.4261 57.2744 24.1386 56.4963C23.9027 55.9406 23.7847 55.2144 23.7847 54.3177C23.7847 53.7027 23.8695 53.1618 24.0391 52.6949C24.2971 51.9094 24.7431 51.2833 25.3771 50.8165C26.0112 50.3496 26.7631 50.1162 27.6331 50.1162C28.7389 50.1162 29.6273 50.4385 30.2982 51.0832C30.9691 51.7279 31.3782 52.5875 31.5257 53.6619ZM27.6552 52.1503C26.9548 52.1503 26.494 52.4763 26.2729 53.1284C26.2286 53.2766 26.1918 53.4545 26.1623 53.6619C26.1623 53.7138 26.1918 53.7398 26.2508 53.7398H29.1149C29.1813 53.7398 29.2034 53.7138 29.1813 53.6619C29.1223 53.3433 29.0928 53.1877 29.0928 53.1951C28.997 52.8617 28.8237 52.6023 28.573 52.417C28.3298 52.2392 28.0238 52.1503 27.6552 52.1503ZM37.2761 50.1495C37.6742 50.1495 37.9912 50.2273 38.2271 50.383C38.3082 50.4274 38.3377 50.5089 38.3156 50.6275L37.9728 52.5282C37.9654 52.6616 37.888 52.7023 37.7406 52.6505C37.571 52.5912 37.3793 52.5615 37.1655 52.5615C37.0771 52.5615 36.9517 52.5727 36.7895 52.5949C36.3988 52.6319 36.0634 52.7801 35.7832 53.0395C35.5104 53.2988 35.374 53.6471 35.374 54.0843V58.6304C35.374 58.6897 35.3519 58.7379 35.3077 58.7749C35.2708 58.812 35.2266 58.8305 35.175 58.8305H33.2287C33.1771 58.8305 33.1292 58.812 33.0849 58.7749C33.0481 58.7379 33.0296 58.6897 33.0296 58.6304V50.4608C33.0296 50.4089 33.0481 50.3607 33.0849 50.3163C33.1292 50.2792 33.1771 50.2607 33.2287 50.2607H35.175C35.2266 50.2607 35.2708 50.2792 35.3077 50.3163C35.3519 50.3607 35.374 50.4089 35.374 50.4608V51.0943C35.374 51.124 35.3851 51.1462 35.4072 51.161C35.422 51.1758 35.4367 51.1684 35.4515 51.1388C35.9085 50.4793 36.5168 50.1495 37.2761 50.1495ZM44.3425 50.2496C44.4015 50.2496 44.4494 50.2681 44.4863 50.3052C44.5231 50.3422 44.5416 50.3904 44.5416 50.4497V52.028C44.5416 52.0873 44.5231 52.1355 44.4863 52.1725C44.4494 52.2096 44.4015 52.2281 44.3425 52.2281H42.739C42.68 52.2281 42.6506 52.254 42.6506 52.3059V58.6304C42.6506 58.6897 42.6321 58.7379 42.5953 58.7749C42.5584 58.812 42.5105 58.8305 42.4515 58.8305H40.5163C40.4573 58.8305 40.4094 58.812 40.3725 58.7749C40.3356 58.7379 40.3172 58.6897 40.3172 58.6304V52.3059C40.3172 52.254 40.2877 52.2281 40.2287 52.2281H39.2556C39.1966 52.2281 39.1487 52.2096 39.1118 52.1725C39.075 52.1355 39.0565 52.0873 39.0565 52.028V50.4497C39.0565 50.3904 39.075 50.3422 39.1118 50.3052C39.1487 50.2681 39.1966 50.2496 39.2556 50.2496H40.2287C40.2877 50.2496 40.3172 50.2199 40.3172 50.1607V49.7939C40.3172 49.1047 40.4204 48.5675 40.6268 48.1822C40.8406 47.8042 41.1798 47.5338 41.6442 47.3707C42.1161 47.2077 42.7685 47.1373 43.6016 47.1596H44.2319C44.2835 47.1596 44.3278 47.1781 44.3646 47.2151C44.4089 47.2596 44.431 47.3078 44.431 47.3596V48.7046C44.431 48.7638 44.4089 48.812 44.3646 48.8491C44.3278 48.8935 44.2835 48.9158 44.2319 48.9158H43.679C43.2956 48.9232 43.0265 49.001 42.8717 49.1492C42.7243 49.3048 42.6506 49.5827 42.6506 49.9828V50.1607C42.6506 50.2199 42.68 50.2496 42.739 50.2496H44.3425ZM49.153 58.9639C48.2241 58.9639 47.4278 58.7194 46.7643 58.2303C46.1008 57.7412 45.6474 57.0743 45.4041 56.2296C45.2493 55.7108 45.1719 55.144 45.1719 54.5289C45.1719 53.8768 45.2493 53.2877 45.4041 52.7616C45.6622 51.9391 46.1229 51.2944 46.7864 50.8276C47.45 50.3607 48.2462 50.1273 49.1751 50.1273C50.0745 50.1273 50.8486 50.357 51.4974 50.8165C52.1314 51.2833 52.5811 51.928 52.8465 52.7505C53.0308 53.3063 53.123 53.888 53.123 54.4956C53.123 55.0958 53.0456 55.659 52.8908 56.1851C52.6475 57.0521 52.1941 57.7301 51.5306 58.2192C50.8744 58.7157 50.0819 58.9639 49.153 58.9639ZM49.153 56.952C49.5142 56.952 49.8239 56.8409 50.0819 56.6186C50.3399 56.3963 50.5242 56.0888 50.6348 55.696C50.7159 55.3403 50.7565 54.9513 50.7565 54.5289C50.7565 54.0621 50.7159 53.6694 50.6348 53.3507C50.5095 52.9728 50.3215 52.6764 50.0708 52.4615C49.8128 52.254 49.4995 52.1503 49.1308 52.1503C48.7622 52.1503 48.4526 52.254 48.2019 52.4615C47.9513 52.6764 47.7707 52.9728 47.6601 53.3507C47.5716 53.6101 47.5274 54.0028 47.5274 54.5289C47.5274 55.0328 47.5679 55.4219 47.649 55.696C47.7596 56.0888 47.9439 56.3963 48.2019 56.6186C48.46 56.8409 48.777 56.952 49.153 56.952ZM58.8734 50.1495C59.2715 50.1495 59.5885 50.2273 59.8244 50.383C59.9129 50.4274 59.9424 50.5089 59.9129 50.6275L59.5701 52.5282C59.5627 52.6616 59.4853 52.7023 59.3379 52.6505C59.1683 52.5912 58.9766 52.5615 58.7628 52.5615C58.6744 52.5615 58.5527 52.5727 58.3979 52.5949C57.9998 52.6319 57.6607 52.7801 57.3805 53.0395C57.1077 53.2988 56.9713 53.6471 56.9713 54.0843V58.6304C56.9713 58.6897 56.9492 58.7379 56.905 58.7749C56.8681 58.812 56.8202 58.8305 56.7612 58.8305H54.826C54.7744 58.8305 54.7265 58.812 54.6822 58.7749C54.6454 58.7379 54.6269 58.6897 54.6269 58.6304V50.4608C54.6269 50.4089 54.6454 50.3607 54.6822 50.3163C54.7265 50.2792 54.7744 50.2607 54.826 50.2607H56.7612C56.8202 50.2607 56.8681 50.2792 56.905 50.3163C56.9492 50.3607 56.9713 50.4089 56.9713 50.4608V51.0943C56.9713 51.124 56.9787 51.1462 56.9935 51.161C57.023 51.1758 57.0414 51.1684 57.0488 51.1388C57.5058 50.4793 58.1141 50.1495 58.8734 50.1495ZM70.4296 50.1273C71.2921 50.1273 71.9667 50.3867 72.4533 50.9054C72.9399 51.4315 73.1831 52.1688 73.1831 53.1173V58.6304C73.1831 58.6897 73.1647 58.7379 73.1279 58.7749C73.091 58.812 73.0468 58.8305 72.9952 58.8305H71.0489C70.9972 58.8305 70.9493 58.812 70.9051 58.7749C70.8682 58.7379 70.8498 58.6897 70.8498 58.6304V53.6286C70.8498 53.1766 70.7355 52.8172 70.507 52.5504C70.2711 52.2837 69.9577 52.1503 69.567 52.1503C69.1836 52.1503 68.8703 52.2837 68.627 52.5504C68.3837 52.8172 68.2621 53.1729 68.2621 53.6175V58.6304C68.2621 58.6897 68.2437 58.7379 68.2068 58.7749C68.1626 58.812 68.1147 58.8305 68.063 58.8305H66.1389C66.0799 58.8305 66.032 58.812 65.9951 58.7749C65.9582 58.7379 65.9398 58.6897 65.9398 58.6304V53.6286C65.9398 53.184 65.8182 52.8246 65.5749 52.5504C65.3316 52.2837 65.0146 52.1503 64.6238 52.1503C64.2773 52.1503 63.9825 52.254 63.7392 52.4615C63.5032 52.6764 63.3632 52.9728 63.3189 53.3507V58.6304C63.3189 58.6897 63.3005 58.7379 63.2637 58.7749C63.2194 58.812 63.1715 58.8305 63.1199 58.8305H61.1846C61.1257 58.8305 61.0777 58.812 61.0409 58.7749C61.004 58.7379 60.9856 58.6897 60.9856 58.6304V50.4608C60.9856 50.4089 61.004 50.3607 61.0409 50.3163C61.0777 50.2792 61.1257 50.2607 61.1846 50.2607H63.1199C63.1715 50.2607 63.2194 50.2792 63.2637 50.3163C63.3005 50.3607 63.3189 50.4089 63.3189 50.4608V51.1166C63.3189 51.1462 63.33 51.1684 63.3521 51.1833C63.3742 51.1907 63.3964 51.1758 63.4185 51.1388C63.8756 50.4645 64.5796 50.1273 65.5306 50.1273C66.0836 50.1273 66.5665 50.2459 66.9793 50.483C67.3922 50.7127 67.7092 51.0462 67.9303 51.4834C67.9598 51.5501 68.0004 51.5501 68.052 51.4834C68.2879 51.0239 68.616 50.6831 69.0362 50.4608C69.4491 50.2385 69.9135 50.1273 70.4296 50.1273ZM82.3285 53.6619C82.3949 54.0843 82.417 54.5549 82.3949 55.0736C82.3802 55.2144 82.3064 55.2848 82.1737 55.2848H77.0536C76.9873 55.2848 76.9652 55.3107 76.9873 55.3626C77.0168 55.5849 77.0758 55.8072 77.1642 56.0295C77.4517 56.6519 78.0378 56.9632 78.9225 56.9632C79.6303 56.9557 80.1906 56.6668 80.6034 56.0962C80.6477 56.0295 80.6956 55.9961 80.7472 55.9961C80.784 55.9961 80.8246 56.0184 80.8688 56.0628L82.0631 57.241C82.1148 57.3003 82.1406 57.3522 82.1406 57.3967C82.1406 57.4189 82.1184 57.4633 82.0742 57.53C81.713 57.9895 81.2448 58.3414 80.6698 58.586C80.0947 58.8379 79.4644 58.9639 78.7788 58.9639C77.8277 58.9639 77.0241 58.749 76.368 58.3192C75.7045 57.882 75.229 57.2744 74.9415 56.4963C74.7129 55.9406 74.5986 55.2144 74.5986 54.3177C74.5986 53.7027 74.6797 53.1618 74.8419 52.6949C75.1 51.9094 75.546 51.2833 76.18 50.8165C76.814 50.3496 77.5697 50.1162 78.447 50.1162C79.5529 50.1162 80.4412 50.4385 81.1121 51.0832C81.783 51.7279 82.1885 52.5875 82.3285 53.6619ZM78.4581 52.1503C77.7651 52.1503 77.308 52.4763 77.0868 53.1284C77.0426 53.2766 77.002 53.4545 76.9652 53.6619C76.9652 53.7138 76.9947 53.7398 77.0536 53.7398H79.9178C79.9841 53.7398 80.0063 53.7138 79.9841 53.6619C79.9325 53.3433 79.9067 53.1877 79.9067 53.1951C79.8035 52.8617 79.6303 52.6023 79.387 52.417C79.1363 52.2392 78.8267 52.1503 78.4581 52.1503ZM88.079 50.1495C88.4771 50.1495 88.7941 50.2273 89.03 50.383C89.1185 50.4274 89.1517 50.5089 89.1295 50.6275L88.7867 52.5282C88.772 52.6616 88.6909 52.7023 88.5434 52.6505C88.3813 52.5912 88.1896 52.5615 87.9684 52.5615C87.8799 52.5615 87.7583 52.5727 87.6035 52.5949C87.2054 52.6319 86.8662 52.7801 86.5861 53.0395C86.3133 53.2988 86.1769 53.6471 86.1769 54.0843V58.6304C86.1769 58.6897 86.1585 58.7379 86.1216 58.7749C86.0774 58.812 86.0295 58.8305 85.9779 58.8305H84.0316C83.98 58.8305 83.9357 58.812 83.8989 58.7749C83.8546 58.7379 83.8325 58.6897 83.8325 58.6304V50.4608C83.8325 50.4089 83.8546 50.3607 83.8989 50.3163C83.9357 50.2792 83.98 50.2607 84.0316 50.2607H85.9779C86.0295 50.2607 86.0774 50.2792 86.1216 50.3163C86.1585 50.3607 86.1769 50.4089 86.1769 50.4608V51.0943C86.1769 51.124 86.188 51.1462 86.2101 51.161C86.2322 51.1758 86.2506 51.1684 86.2654 51.1388C86.7151 50.4793 87.3196 50.1495 88.079 50.1495Z" fill="#252530"></path><path d="M42.4552 30.6807C42.4552 30.6289 42.4736 30.5807 42.5104 30.5362C42.5473 30.4992 42.5915 30.4807 42.6431 30.4807H44.5895C44.6411 30.4807 44.689 30.4992 44.7332 30.5362C44.7701 30.5807 44.7885 30.6289 44.7885 30.6807V41.9515C44.7885 42.0108 44.7701 42.059 44.7332 42.096C44.689 42.1331 44.6411 42.1516 44.5895 42.1516H42.6431C42.5915 42.1516 42.5473 42.1331 42.5104 42.096C42.4736 42.059 42.4552 42.0108 42.4552 41.9515V37.3498C42.4552 37.298 42.4257 37.272 42.3667 37.272H38.6953C38.6436 37.272 38.6178 37.298 38.6178 37.3498V41.9515C38.6178 42.0108 38.5994 42.059 38.5626 42.096C38.5183 42.1331 38.4704 42.1516 38.4188 42.1516H36.4725C36.4209 42.1516 36.3767 42.1331 36.3398 42.096C36.2956 42.059 36.2734 42.0108 36.2734 41.9515V30.6807C36.2734 30.6289 36.2956 30.5807 36.3398 30.5362C36.3767 30.4992 36.4209 30.4807 36.4725 30.4807H38.4188C38.4704 30.4807 38.5183 30.4992 38.5626 30.5362C38.5994 30.5807 38.6178 30.6289 38.6178 30.6807V35.1602C38.6178 35.2194 38.6436 35.2491 38.6953 35.2491H42.3667C42.4257 35.2491 42.4552 35.2194 42.4552 35.1602V30.6807ZM47.8075 32.6148C47.4315 32.6148 47.1182 32.4888 46.8675 32.2369C46.6168 31.9923 46.4915 31.6811 46.4915 31.3032C46.4915 30.9104 46.6132 30.5918 46.8564 30.3473C47.0997 30.1027 47.4167 29.9805 47.8075 29.9805C48.1982 29.9805 48.5152 30.1027 48.7585 30.3473C49.0018 30.5918 49.1234 30.9104 49.1234 31.3032C49.1234 31.6811 48.9981 31.9923 48.7475 32.2369C48.4968 32.4888 48.1835 32.6148 47.8075 32.6148ZM46.8122 42.1516C46.7606 42.1516 46.7127 42.1331 46.6685 42.096C46.6316 42.059 46.6132 42.0108 46.6132 41.9515V33.7708C46.6132 33.7115 46.6316 33.6633 46.6685 33.6263C46.7127 33.5892 46.7606 33.5707 46.8122 33.5707H48.7585C48.8101 33.5707 48.8544 33.5892 48.8912 33.6263C48.9355 33.6633 48.9576 33.7115 48.9576 33.7708V41.9515C48.9576 42.0108 48.9355 42.059 48.8912 42.096C48.8544 42.1331 48.8101 42.1516 48.7585 42.1516H46.8122ZM55.9797 33.7819C55.9797 33.73 56.0019 33.6818 56.0461 33.6374C56.0829 33.6003 56.1272 33.5818 56.1788 33.5818H58.1251C58.1767 33.5818 58.2246 33.6003 58.2688 33.6374C58.3057 33.6818 58.3241 33.73 58.3241 33.7819V41.3847C58.3241 42.837 57.9076 43.8745 57.0745 44.4969C56.2415 45.1268 55.1651 45.4417 53.8454 45.4417C53.4547 45.4417 53.0234 45.4121 52.5516 45.3528C52.441 45.338 52.3857 45.2676 52.3857 45.1416L52.4521 43.4187C52.4521 43.2705 52.5295 43.2076 52.6843 43.2298C53.0824 43.2965 53.4473 43.3298 53.7791 43.3298C54.4868 43.3298 55.0324 43.1779 55.4157 42.8741C55.7917 42.5555 55.9797 42.0553 55.9797 41.3735C55.9797 41.3365 55.9687 41.3143 55.9466 41.3069C55.9244 41.2994 55.9023 41.3106 55.8802 41.3402C55.46 41.7922 54.8481 42.0182 54.0445 42.0182C53.322 42.0182 52.6622 41.8441 52.065 41.4958C51.4605 41.1475 51.0292 40.5844 50.7712 39.8063C50.609 39.295 50.5279 38.6318 50.5279 37.8167C50.5279 36.9497 50.6274 36.2457 50.8265 35.7048C51.055 35.0231 51.4457 34.4784 51.9987 34.0709C52.5516 33.6559 53.1967 33.4484 53.9339 33.4484C54.7817 33.4484 55.4305 33.7041 55.8802 34.2154C55.9023 34.2376 55.9244 34.245 55.9466 34.2376C55.9687 34.2302 55.9797 34.2117 55.9797 34.182V33.7819ZM55.847 39.1616C55.9355 38.8356 55.9797 38.3799 55.9797 37.7945C55.9797 37.4536 55.9687 37.1905 55.9466 37.0053C55.9244 36.8126 55.8876 36.6311 55.836 36.4606C55.7328 36.1642 55.5669 35.9234 55.3383 35.7381C55.1098 35.5603 54.8223 35.4714 54.4758 35.4714C54.144 35.4714 53.8639 35.5603 53.6353 35.7381C53.3994 35.9234 53.2262 36.1642 53.1156 36.4606C52.9608 36.7941 52.8833 37.2461 52.8833 37.8167C52.8833 38.4391 52.9497 38.8837 53.0824 39.1505C53.1782 39.4543 53.3515 39.6952 53.6021 39.873C53.8528 40.0582 54.1477 40.1509 54.4868 40.1509C54.8407 40.1509 55.1356 40.0582 55.3715 39.873C55.6001 39.6952 55.7586 39.458 55.847 39.1616ZM64.4506 33.4484C65.3352 33.4484 66.0467 33.7226 66.5849 34.2709C67.123 34.8119 67.3921 35.5492 67.3921 36.4829V41.9515C67.3921 42.0108 67.3737 42.059 67.3368 42.096C67.3 42.1331 67.2557 42.1516 67.2041 42.1516H65.2578C65.2062 42.1516 65.1583 42.1331 65.1141 42.096C65.0772 42.059 65.0588 42.0108 65.0588 41.9515V36.9608C65.0588 36.5236 64.9335 36.1642 64.6828 35.8826C64.4395 35.6085 64.1114 35.4714 63.6986 35.4714C63.2931 35.4714 62.965 35.6085 62.7144 35.8826C62.4637 36.1642 62.3384 36.5236 62.3384 36.9608V41.9515C62.3384 42.0108 62.32 42.059 62.2831 42.096C62.2462 42.1331 62.1983 42.1516 62.1393 42.1516H60.2041C60.1451 42.1516 60.0972 42.1331 60.0603 42.096C60.0235 42.059 60.005 42.0108 60.005 41.9515V30.6807C60.005 30.6289 60.0235 30.5807 60.0603 30.5362C60.0972 30.4992 60.1451 30.4807 60.2041 30.4807H62.1393C62.1983 30.4807 62.2462 30.4992 62.2831 30.5362C62.32 30.5807 62.3384 30.6289 62.3384 30.6807V34.371C62.3384 34.4006 62.3494 34.4228 62.3716 34.4377C62.3937 34.4451 62.4084 34.4377 62.4158 34.4154C62.8729 33.7708 63.5511 33.4484 64.4506 33.4484Z" fill="#252530"></path><path d="M29.179 76.8371C29.1052 76.8371 29.0573 76.8 29.0352 76.7259L28.6703 75.5366C28.6555 75.507 28.6371 75.4921 28.615 75.4921H25.6955C25.6734 75.4921 25.655 75.507 25.6402 75.5366L25.2753 76.7259C25.2532 76.8 25.2053 76.8371 25.1315 76.8371H24.0257C23.9814 76.8371 23.9483 76.8223 23.9262 76.7926C23.904 76.7704 23.9004 76.7333 23.9151 76.6815L26.3148 69.1676C26.3369 69.0935 26.3848 69.0564 26.4586 69.0564H27.8409C27.9146 69.0564 27.9625 69.0935 27.9846 69.1676L30.3954 76.6815C30.4028 76.6963 30.4065 76.7148 30.4065 76.737C30.4065 76.8037 30.3659 76.8371 30.2848 76.8371H29.179ZM25.983 74.414C25.9757 74.4584 25.9904 74.4806 26.0273 74.4806H28.2722C28.3164 74.4806 28.3311 74.4584 28.3164 74.414L27.1774 70.6904C27.17 70.6607 27.1589 70.6459 27.1442 70.6459C27.1294 70.6459 27.1184 70.6607 27.111 70.6904L25.983 74.414ZM33.525 76.9038C33.0605 76.9038 32.655 76.8334 32.3085 76.6926C31.9546 76.5592 31.6819 76.3702 31.4902 76.1257C31.2985 75.8886 31.2027 75.6218 31.2027 75.3254V75.2254C31.2027 75.1883 31.2174 75.155 31.2469 75.1253C31.269 75.1031 31.2985 75.092 31.3354 75.092H32.3085C32.3454 75.092 32.3786 75.1031 32.408 75.1253C32.4302 75.155 32.4412 75.1883 32.4412 75.2254V75.2476C32.4412 75.4329 32.5407 75.5959 32.7398 75.7367C32.9462 75.87 33.2043 75.9367 33.5139 75.9367C33.8088 75.9367 34.0484 75.8775 34.2327 75.7589C34.417 75.6329 34.5092 75.4773 34.5092 75.2921C34.5092 75.1216 34.4354 74.9919 34.288 74.903C34.1332 74.8215 33.8862 74.7326 33.5471 74.6363L33.1269 74.5029C32.7509 74.3917 32.4338 74.2732 32.1758 74.1472C31.9178 74.0212 31.7003 73.8471 31.5234 73.6248C31.3464 73.4099 31.258 73.132 31.258 72.7911C31.258 72.2724 31.4607 71.8612 31.8662 71.5574C32.2717 71.2461 32.8062 71.0905 33.4697 71.0905C33.9194 71.0905 34.3138 71.1609 34.6529 71.3017C34.9921 71.4499 35.2538 71.65 35.4381 71.9019C35.6224 72.1613 35.7145 72.454 35.7145 72.78C35.7145 72.8171 35.7035 72.8504 35.6814 72.8801C35.6519 72.9023 35.6187 72.9134 35.5818 72.9134H34.6419C34.605 72.9134 34.5755 72.9023 34.5534 72.8801C34.5239 72.8504 34.5092 72.8171 34.5092 72.78C34.5092 72.5874 34.417 72.428 34.2327 72.3021C34.041 72.1687 33.783 72.102 33.4586 72.102C33.1711 72.102 32.9352 72.1539 32.7509 72.2576C32.5739 72.3688 32.4855 72.5207 32.4855 72.7133C32.4855 72.8912 32.5702 73.0246 32.7398 73.1135C32.9167 73.2098 33.2079 73.3136 33.6134 73.4247L33.8567 73.4914C34.2474 73.61 34.5755 73.7285 34.8409 73.8471C35.1063 73.9731 35.3312 74.1435 35.5155 74.3584C35.6998 74.5807 35.792 74.866 35.792 75.2143C35.792 75.7404 35.5855 76.1516 35.1727 76.448C34.7598 76.7519 34.2106 76.9038 33.525 76.9038ZM37.6056 70.3791C37.377 70.3791 37.189 70.305 37.0416 70.1568C36.8941 70.0086 36.8204 69.8197 36.8204 69.59C36.8204 69.3602 36.8941 69.1713 37.0416 69.0231C37.189 68.8749 37.377 68.8008 37.6056 68.8008C37.8341 68.8008 38.0221 68.8749 38.1695 69.0231C38.317 69.1713 38.3907 69.3602 38.3907 69.59C38.3907 69.8197 38.317 70.0086 38.1695 70.1568C38.0221 70.305 37.8341 70.3791 37.6056 70.3791ZM37.0747 76.8371C37.0379 76.8371 37.0084 76.8223 36.9863 76.7926C36.9568 76.7704 36.942 76.7407 36.942 76.7037V71.2795C36.942 71.2424 36.9568 71.2128 36.9863 71.1905C37.0084 71.1609 37.0379 71.1461 37.0747 71.1461H38.0921C38.129 71.1461 38.1585 71.1609 38.1806 71.1905C38.2101 71.2128 38.2248 71.2424 38.2248 71.2795V76.7037C38.2248 76.7407 38.2101 76.7704 38.1806 76.7926C38.1585 76.8223 38.129 76.8371 38.0921 76.8371H37.0747ZM41.852 71.0683C42.3165 71.0683 42.7257 71.1498 43.0795 71.3128C43.4334 71.4758 43.7062 71.6981 43.8979 71.9797C44.0895 72.2687 44.1854 72.5948 44.1854 72.9579V76.7037C44.1854 76.7407 44.1743 76.7704 44.1522 76.7926C44.1227 76.8223 44.0895 76.8371 44.0527 76.8371H43.0353C42.9984 76.8371 42.9689 76.8223 42.9468 76.7926C42.9173 76.7704 42.9026 76.7407 42.9026 76.7037V76.348C42.9026 76.3258 42.8952 76.311 42.8805 76.3035C42.8657 76.3035 42.851 76.311 42.8362 76.3258C42.475 76.7259 41.9516 76.926 41.2659 76.926C40.713 76.926 40.2596 76.7852 39.9057 76.5036C39.5445 76.222 39.3639 75.8034 39.3639 75.2476C39.3639 74.6696 39.5666 74.2176 39.9721 73.8915C40.3702 73.5729 40.9342 73.4136 41.664 73.4136H42.8473C42.8842 73.4136 42.9026 73.3951 42.9026 73.358V73.0912C42.9026 72.8023 42.8178 72.5762 42.6482 72.4132C42.4787 72.2576 42.2243 72.1798 41.8852 72.1798C41.6051 72.1798 41.3802 72.2317 41.2106 72.3354C41.0337 72.4317 40.9231 72.5688 40.8789 72.7467C40.8568 72.8356 40.8052 72.8726 40.7241 72.8578L39.6514 72.7244C39.6145 72.717 39.585 72.7059 39.5629 72.6911C39.5334 72.6689 39.5224 72.6429 39.5297 72.6133C39.5887 72.1613 39.832 71.7908 40.2596 71.5018C40.6798 71.2128 41.2106 71.0683 41.852 71.0683ZM41.5866 75.9034C41.9479 75.9034 42.2575 75.8071 42.5155 75.6144C42.7736 75.4217 42.9026 75.1772 42.9026 74.8808V74.3584C42.9026 74.3213 42.8842 74.3028 42.8473 74.3028H41.9184C41.5276 74.3028 41.2217 74.3769 41.0005 74.5251C40.772 74.6733 40.6577 74.8845 40.6577 75.1587C40.6577 75.3958 40.7462 75.5773 40.9231 75.7033C41.0927 75.8367 41.3138 75.9034 41.5866 75.9034ZM50.909 69.0453C51.3734 69.0453 51.7826 69.1416 52.1365 69.3343C52.4903 69.527 52.7631 69.7974 52.9548 70.1457C53.1538 70.5014 53.2534 70.909 53.2534 71.3684C53.2534 71.8204 53.1538 72.2206 52.9548 72.5688C52.7557 72.9171 52.4719 73.1839 52.1033 73.3691C51.742 73.5618 51.3218 73.6581 50.8426 73.6581H49.0732C49.0364 73.6581 49.018 73.6766 49.018 73.7137V76.7037C49.018 76.7407 49.0069 76.7704 48.9848 76.7926C48.9553 76.8223 48.9221 76.8371 48.8853 76.8371H47.8679C47.831 76.8371 47.7978 76.8223 47.7683 76.7926C47.7462 76.7704 47.7352 76.7407 47.7352 76.7037V69.1787C47.7352 69.1416 47.7462 69.1083 47.7683 69.0787C47.7978 69.0564 47.831 69.0453 47.8679 69.0453H50.909ZM50.721 72.6133C51.097 72.6133 51.3992 72.5021 51.6278 72.2798C51.8563 72.0575 51.9706 71.7648 51.9706 71.4017C51.9706 71.0312 51.8563 70.7311 51.6278 70.5014C51.3992 70.2717 51.097 70.1568 50.721 70.1568H49.0732C49.0364 70.1568 49.018 70.1754 49.018 70.2124V72.5577C49.018 72.5948 49.0364 72.6133 49.0732 72.6133H50.721ZM56.3498 71.0683C56.8142 71.0683 57.2234 71.1498 57.5773 71.3128C57.9311 71.4758 58.2039 71.6981 58.3956 71.9797C58.5873 72.2687 58.6831 72.5948 58.6831 72.9579V76.7037C58.6831 76.7407 58.6684 76.7704 58.6389 76.7926C58.6168 76.8223 58.5873 76.8371 58.5504 76.8371H57.533C57.4962 76.8371 57.4667 76.8223 57.4446 76.7926C57.4151 76.7704 57.4003 76.7407 57.4003 76.7037V76.348C57.4003 76.3258 57.3929 76.311 57.3782 76.3035C57.3635 76.3035 57.3487 76.311 57.334 76.3258C56.9727 76.7259 56.4493 76.926 55.7637 76.926C55.2107 76.926 54.7573 76.7852 54.4035 76.5036C54.0422 76.222 53.8616 75.8034 53.8616 75.2476C53.8616 74.6696 54.0606 74.2176 54.4587 73.8915C54.8642 73.5729 55.4319 73.4136 56.1618 73.4136H57.345C57.3819 73.4136 57.4003 73.3951 57.4003 73.358V73.0912C57.4003 72.8023 57.3155 72.5762 57.146 72.4132C56.9764 72.2576 56.7221 72.1798 56.3829 72.1798C56.1028 72.1798 55.8742 72.2317 55.6973 72.3354C55.5277 72.4317 55.4208 72.5688 55.3766 72.7467C55.3545 72.8356 55.3029 72.8726 55.2218 72.8578L54.1491 72.7244C54.1122 72.717 54.0828 72.7059 54.0606 72.6911C54.0312 72.6689 54.0201 72.6429 54.0275 72.6133C54.0864 72.1613 54.3297 71.7908 54.7573 71.5018C55.1776 71.2128 55.7084 71.0683 56.3498 71.0683ZM56.0844 75.9034C56.4456 75.9034 56.7552 75.8071 57.0133 75.6144C57.2713 75.4217 57.4003 75.1772 57.4003 74.8808V74.3584C57.4003 74.3213 57.3819 74.3028 57.345 74.3028H56.4161C56.0254 74.3028 55.7194 74.3769 55.4983 74.5251C55.2697 74.6733 55.1554 74.8845 55.1554 75.1587C55.1554 75.3958 55.2439 75.5773 55.4208 75.7033C55.5904 75.8367 55.8116 75.9034 56.0844 75.9034ZM62.3214 76.926C61.7537 76.926 61.2634 76.7778 60.8506 76.4814C60.4377 76.1924 60.1502 75.7997 59.988 75.3032C59.8701 74.9697 59.8111 74.5251 59.8111 73.9693C59.8111 73.4358 59.8701 72.9986 59.988 72.6578C60.1428 72.1687 60.4267 71.7834 60.8395 71.5018C61.2597 71.2128 61.7537 71.0683 62.3214 71.0683C62.8964 71.0683 63.3977 71.2128 63.8253 71.5018C64.2529 71.7908 64.5368 72.1539 64.6768 72.5911C64.7137 72.7096 64.7395 72.8282 64.7542 72.9468V72.969C64.7542 73.0431 64.7137 73.0875 64.6326 73.1024L63.6373 73.2469H63.6152C63.5489 73.2469 63.5046 73.2098 63.4825 73.1357C63.4825 73.0987 63.4788 73.069 63.4715 73.0468C63.4567 72.9875 63.442 72.9356 63.4272 72.8912C63.3609 72.6837 63.2282 72.5133 63.0291 72.3799C62.8301 72.2465 62.5941 72.1798 62.3214 72.1798C62.0412 72.1798 61.8016 72.2502 61.6026 72.391C61.4109 72.5392 61.2819 72.7393 61.2155 72.9912C61.1418 73.2283 61.1049 73.5581 61.1049 73.9805C61.1049 74.388 61.1381 74.7178 61.2045 74.9697C61.2782 75.2291 61.4109 75.4329 61.6026 75.5811C61.7942 75.7367 62.0338 75.8145 62.3214 75.8145C62.6015 75.8145 62.8448 75.7441 63.0512 75.6033C63.2503 75.4551 63.3793 75.2587 63.4383 75.0142C63.4456 74.9994 63.4493 74.9808 63.4493 74.9586C63.4567 74.9512 63.4604 74.9401 63.4604 74.9253C63.4825 74.8363 63.5341 74.7993 63.6152 74.8141L64.6105 74.9697C64.6473 74.9771 64.6805 74.9919 64.71 75.0142C64.7321 75.0438 64.7395 75.0809 64.7321 75.1253C64.71 75.2439 64.6916 75.3291 64.6768 75.381C64.5368 75.8552 64.2529 76.2331 63.8253 76.5147C63.3977 76.7889 62.8964 76.926 62.3214 76.926ZM66.5678 70.3791C66.3393 70.3791 66.1513 70.305 66.0039 70.1568C65.8564 70.0086 65.7827 69.8197 65.7827 69.59C65.7827 69.3602 65.8564 69.1713 66.0039 69.0231C66.1513 68.8749 66.3393 68.8008 66.5678 68.8008C66.7964 68.8008 66.9844 68.8749 67.1318 69.0231C67.2793 69.1713 67.353 69.3602 67.353 69.59C67.353 69.8197 67.2793 70.0086 67.1318 70.1568C66.9844 70.305 66.7964 70.3791 66.5678 70.3791ZM66.037 76.8371C66.0002 76.8371 65.9707 76.8223 65.9486 76.7926C65.9191 76.7704 65.9043 76.7407 65.9043 76.7037V71.2795C65.9043 71.2424 65.9191 71.2128 65.9486 71.1905C65.9707 71.1609 66.0002 71.1461 66.037 71.1461H67.0544C67.0913 71.1461 67.1245 71.1609 67.1539 71.1905C67.1761 71.2128 67.1871 71.2424 67.1871 71.2795V76.7037C67.1871 76.7407 67.1761 76.7704 67.1539 76.7926C67.1245 76.8223 67.0913 76.8371 67.0544 76.8371H66.037ZM71.5995 71.1461C71.6363 71.1461 71.6695 71.1609 71.699 71.1905C71.7211 71.2128 71.7322 71.2424 71.7322 71.2795V72.1576C71.7322 72.1946 71.7211 72.2243 71.699 72.2465C71.6695 72.2761 71.6363 72.291 71.5995 72.291H70.5047C70.4678 72.291 70.4494 72.3095 70.4494 72.3465V76.7037C70.4494 76.7407 70.4346 76.7704 70.4051 76.7926C70.383 76.8223 70.3535 76.8371 70.3167 76.8371H69.2993C69.2624 76.8371 69.2329 76.8223 69.2108 76.7926C69.1813 76.7704 69.1666 76.7407 69.1666 76.7037V72.3465C69.1666 72.3095 69.1482 72.291 69.1113 72.291H68.4257C68.3888 72.291 68.3593 72.2761 68.3372 72.2465C68.3077 72.2243 68.293 72.1946 68.293 72.1576V71.2795C68.293 71.2424 68.3077 71.2128 68.3372 71.1905C68.3593 71.1609 68.3888 71.1461 68.4257 71.1461H69.1113C69.1482 71.1461 69.1666 71.1276 69.1666 71.0905V70.8904C69.1666 70.4088 69.2293 70.0346 69.3546 69.7678C69.4799 69.5084 69.6863 69.3232 69.9739 69.212C70.2614 69.1009 70.6669 69.049 71.1903 69.0564H71.5774C71.6142 69.0564 71.6437 69.0713 71.6658 69.1009C71.6953 69.1231 71.7101 69.1528 71.7101 69.1898V69.9679C71.7101 70.0049 71.6953 70.0383 71.6658 70.0679C71.6437 70.0901 71.6142 70.1013 71.5774 70.1013H71.2898C70.9728 70.1013 70.7516 70.1642 70.6263 70.2902C70.5084 70.4162 70.4494 70.6459 70.4494 70.9794V71.0905C70.4494 71.1276 70.4678 71.1461 70.5047 71.1461H71.5995ZM73.5458 70.3791C73.3172 70.3791 73.1292 70.305 72.9818 70.1568C72.8343 70.0086 72.7606 69.8197 72.7606 69.59C72.7606 69.3602 72.8343 69.1713 72.9818 69.0231C73.1292 68.8749 73.3172 68.8008 73.5458 68.8008C73.7743 68.8008 73.9623 68.8749 74.1098 69.0231C74.2572 69.1713 74.3309 69.3602 74.3309 69.59C74.3309 69.8197 74.2572 70.0086 74.1098 70.1568C73.9623 70.305 73.7743 70.3791 73.5458 70.3791ZM73.015 76.8371C72.9781 76.8371 72.9486 76.8223 72.9265 76.7926C72.897 76.7704 72.8823 76.7407 72.8823 76.7037V71.2795C72.8823 71.2424 72.897 71.2128 72.9265 71.1905C72.9486 71.1609 72.9781 71.1461 73.015 71.1461H74.0323C74.0692 71.1461 74.0987 71.1609 74.1208 71.1905C74.1503 71.2128 74.165 71.2424 74.165 71.2795V76.7037C74.165 76.7407 74.1503 76.7704 74.1208 76.7926C74.0987 76.8223 74.0692 76.8371 74.0323 76.8371H73.015ZM77.9913 76.926C77.4236 76.926 76.9334 76.7778 76.5205 76.4814C76.1077 76.1924 75.8201 75.7997 75.6579 75.3032C75.54 74.9697 75.481 74.5251 75.481 73.9693C75.481 73.4358 75.54 72.9986 75.6579 72.6578C75.8128 72.1687 76.0966 71.7834 76.5095 71.5018C76.9297 71.2128 77.4236 71.0683 77.9913 71.0683C78.5663 71.0683 79.0677 71.2128 79.4953 71.5018C79.9229 71.7908 80.2067 72.1539 80.3468 72.5911C80.3836 72.7096 80.4094 72.8282 80.4242 72.9468V72.969C80.4242 73.0431 80.3836 73.0875 80.3025 73.1024L79.3073 73.2469H79.2851C79.2188 73.2469 79.1746 73.2098 79.1524 73.1357C79.1524 73.0987 79.1488 73.069 79.1414 73.0468C79.1266 72.9875 79.1119 72.9356 79.0971 72.8912C79.0308 72.6837 78.8981 72.5133 78.699 72.3799C78.5 72.2465 78.2641 72.1798 77.9913 72.1798C77.7111 72.1798 77.4715 72.2502 77.2725 72.391C77.0808 72.5392 76.9518 72.7393 76.8854 72.9912C76.8117 73.2283 76.7749 73.5581 76.7749 73.9805C76.7749 74.388 76.808 74.7178 76.8744 74.9697C76.9481 75.2291 77.0808 75.4329 77.2725 75.5811C77.4642 75.7367 77.7038 75.8145 77.9913 75.8145C78.2714 75.8145 78.511 75.7441 78.7101 75.6033C78.9165 75.4551 79.0492 75.2587 79.1082 75.0142C79.1156 74.9994 79.1193 74.9808 79.1193 74.9586C79.1266 74.9512 79.1303 74.9401 79.1303 74.9253C79.1524 74.8363 79.2041 74.7993 79.2851 74.8141L80.2804 74.9697C80.3173 74.9771 80.3468 74.9919 80.3689 75.0142C80.3984 75.0438 80.4094 75.0809 80.4021 75.1253C80.3799 75.2439 80.3615 75.3291 80.3468 75.381C80.2067 75.8552 79.9229 76.2331 79.4953 76.5147C79.0677 76.7889 78.5663 76.926 77.9913 76.926Z" fill="white"></path><path d="M34.8185 92.5072C34.7375 92.5072 34.6858 92.4702 34.6637 92.3961L32.7064 84.8711L32.6953 84.8266C32.6953 84.7599 32.7359 84.7266 32.817 84.7266H34.1882C34.2619 84.7266 34.3099 84.7636 34.332 84.8377L35.3825 89.3616C35.3899 89.3912 35.401 89.4061 35.4157 89.4061C35.4305 89.4061 35.4415 89.3912 35.4489 89.3616L36.4663 84.8488C36.4884 84.7673 36.5363 84.7266 36.61 84.7266H37.9481C38.0292 84.7266 38.0808 84.7636 38.1029 84.8377L39.2088 89.3616C39.2162 89.3838 39.2272 89.3987 39.242 89.4061C39.2567 89.4061 39.2678 89.3912 39.2751 89.3616L40.2925 84.8488C40.3146 84.7673 40.3626 84.7266 40.4363 84.7266H41.7412C41.8444 84.7266 41.8849 84.7747 41.8628 84.8711L40.0492 92.3961C40.0271 92.4702 39.9755 92.5072 39.8944 92.5072H38.5784C38.5047 92.5072 38.4568 92.4702 38.4347 92.3961L37.3067 87.5832C37.2993 87.5535 37.2883 87.5387 37.2735 87.5387C37.2588 87.5387 37.2477 87.5535 37.2404 87.5832L36.1898 92.3849C36.1751 92.4664 36.1271 92.5072 36.046 92.5072H34.8185ZM42.9355 92.5072C42.8986 92.5072 42.8655 92.4924 42.836 92.4627C42.8139 92.4405 42.8028 92.4109 42.8028 92.3738V84.8599C42.8028 84.8229 42.8139 84.7933 42.836 84.771C42.8655 84.7414 42.8986 84.7266 42.9355 84.7266H44.2294C44.2662 84.7266 44.2957 84.7414 44.3178 84.771C44.3473 84.7933 44.3621 84.8229 44.3621 84.8599V92.3738C44.3621 92.4109 44.3473 92.4405 44.3178 92.4627C44.2957 92.4924 44.2662 92.5072 44.2294 92.5072H42.9355ZM50.1567 84.8599C50.1567 84.8229 50.1678 84.7933 50.1899 84.771C50.2194 84.7414 50.2526 84.7266 50.2894 84.7266H51.5833C51.6201 84.7266 51.6496 84.7414 51.6717 84.771C51.7012 84.7933 51.716 84.8229 51.716 84.8599V92.3738C51.716 92.4109 51.7012 92.4405 51.6717 92.4627C51.6496 92.4924 51.6201 92.5072 51.5833 92.5072H50.3337C50.2599 92.5072 50.2083 92.4776 50.1788 92.4183L47.3147 87.661C47.2999 87.6387 47.2852 87.6313 47.2705 87.6387C47.2557 87.6387 47.2483 87.6536 47.2483 87.6832L47.2705 92.3738C47.2705 92.4109 47.2557 92.4405 47.2262 92.4627C47.2041 92.4924 47.1746 92.5072 47.1377 92.5072H45.8439C45.807 92.5072 45.7739 92.4924 45.7444 92.4627C45.7223 92.4405 45.7112 92.4109 45.7112 92.3738V84.8599C45.7112 84.8229 45.7223 84.7933 45.7444 84.771C45.7739 84.7414 45.807 84.7266 45.8439 84.7266H47.0935C47.1672 84.7266 47.2188 84.7562 47.2483 84.8155L50.1014 89.5506C50.1162 89.5728 50.1309 89.5802 50.1457 89.5728C50.1604 89.5728 50.1678 89.558 50.1678 89.5283L50.1567 84.8599ZM58.4064 84.7266C58.4433 84.7266 58.4727 84.7414 58.4949 84.771C58.5243 84.7933 58.5391 84.8229 58.5391 84.8599V85.9492C58.5391 85.9863 58.5243 86.0159 58.4949 86.0382C58.4727 86.0678 58.4433 86.0826 58.4064 86.0826H56.4269C56.3901 86.0826 56.3716 86.1011 56.3716 86.1382V92.3738C56.3716 92.4109 56.3569 92.4405 56.3274 92.4627C56.3053 92.4924 56.2758 92.5072 56.2389 92.5072H54.9451C54.9082 92.5072 54.875 92.4924 54.8455 92.4627C54.8234 92.4405 54.8124 92.4109 54.8124 92.3738V86.1382C54.8124 86.1011 54.7939 86.0826 54.7571 86.0826H52.8329C52.796 86.0826 52.7629 86.0678 52.7334 86.0382C52.7112 86.0159 52.7002 85.9863 52.7002 85.9492V84.8599C52.7002 84.8229 52.7112 84.7933 52.7334 84.771C52.7629 84.7414 52.796 84.7266 52.8329 84.7266H58.4064ZM64.9088 85.9381C64.9088 85.9752 64.8977 86.0048 64.8756 86.027C64.8461 86.0567 64.813 86.0715 64.7761 86.0715H61.1489C61.112 86.0715 61.0936 86.09 61.0936 86.1271V87.8499C61.0936 87.887 61.112 87.9055 61.1489 87.9055H63.5265C63.5633 87.9055 63.5928 87.9166 63.615 87.9389C63.6444 87.9685 63.6592 88.0018 63.6592 88.0389V89.1171C63.6592 89.1541 63.6444 89.1875 63.615 89.2171C63.5928 89.2393 63.5633 89.2504 63.5265 89.2504H61.1489C61.112 89.2504 61.0936 89.269 61.0936 89.306V91.1067C61.0936 91.1437 61.112 91.1623 61.1489 91.1623H64.7761C64.813 91.1623 64.8461 91.1734 64.8756 91.1956C64.8977 91.2252 64.9088 91.2586 64.9088 91.2956V92.3738C64.9088 92.4109 64.8977 92.4405 64.8756 92.4627C64.8461 92.4924 64.813 92.5072 64.7761 92.5072H59.6671C59.6302 92.5072 59.597 92.4924 59.5675 92.4627C59.5454 92.4405 59.5344 92.4109 59.5344 92.3738V84.8599C59.5344 84.8229 59.5454 84.7933 59.5675 84.771C59.597 84.7414 59.6302 84.7266 59.6671 84.7266H64.7761C64.813 84.7266 64.8461 84.7414 64.8756 84.771C64.8977 84.7933 64.9088 84.8229 64.9088 84.8599V85.9381ZM70.239 92.5072C70.1653 92.5072 70.1137 92.4739 70.0842 92.4072L68.7019 89.3283C68.6871 89.2986 68.665 89.2838 68.6355 89.2838H67.6071C67.5702 89.2838 67.5518 89.3023 67.5518 89.3394V92.3738C67.5518 92.4109 67.537 92.4405 67.5076 92.4627C67.4854 92.4924 67.4559 92.5072 67.4191 92.5072H66.1252C66.0884 92.5072 66.0552 92.4924 66.0257 92.4627C66.0036 92.4405 65.9925 92.4109 65.9925 92.3738V84.8599C65.9925 84.8229 66.0036 84.7933 66.0257 84.771C66.0552 84.7414 66.0884 84.7266 66.1252 84.7266H69.288C69.7598 84.7266 70.1727 84.8229 70.5265 85.0156C70.8878 85.2082 71.1642 85.4824 71.3559 85.8381C71.555 86.1938 71.6545 86.605 71.6545 87.0719C71.6545 87.5758 71.5292 88.0055 71.2785 88.3612C71.0279 88.7243 70.6777 88.98 70.228 89.1282C70.1911 89.143 70.18 89.1689 70.1948 89.206L71.6987 92.3516C71.7135 92.3812 71.7209 92.4035 71.7209 92.4183C71.7209 92.4776 71.6803 92.5072 71.5992 92.5072H70.239ZM67.6071 86.0715C67.5702 86.0715 67.5518 86.09 67.5518 86.1271V88.0278C67.5518 88.0648 67.5702 88.0834 67.6071 88.0834H69.0557C69.3654 88.0834 69.616 87.9907 69.8077 87.8055C70.0068 87.6202 70.1063 87.3794 70.1063 87.083C70.1063 86.7866 70.0068 86.542 69.8077 86.3494C69.616 86.1641 69.3654 86.0715 69.0557 86.0715H67.6071Z" fill="#252530"></path><path d="M42.4514 101.548C42.4366 101.563 42.4329 101.577 42.4403 101.592C42.4477 101.607 42.4624 101.614 42.4845 101.614H45.4814C45.5183 101.614 45.5514 101.626 45.5809 101.648C45.603 101.677 45.6141 101.711 45.6141 101.748V102.826C45.6141 102.863 45.603 102.893 45.5809 102.915C45.5514 102.945 45.5183 102.959 45.4814 102.959H40.5051C40.4682 102.959 40.435 102.945 40.4055 102.915C40.3834 102.893 40.3724 102.863 40.3724 102.826V101.803C40.3724 101.737 40.3945 101.681 40.4387 101.637C40.8 101.281 41.1686 100.896 41.5446 100.481C41.9206 100.058 42.1565 99.7953 42.2523 99.6915C42.4587 99.447 42.6688 99.2136 42.8826 98.9913C43.5535 98.2429 43.889 97.6871 43.889 97.324C43.889 97.0646 43.7968 96.8498 43.6125 96.6793C43.4282 96.5163 43.1886 96.4348 42.8937 96.4348C42.5988 96.4348 42.3592 96.5163 42.1749 96.6793C41.9906 96.8498 41.8984 97.0721 41.8984 97.3462V97.6241C41.8984 97.6612 41.8837 97.6945 41.8542 97.7241C41.8321 97.7464 41.8026 97.7575 41.7657 97.7575H40.4608C40.424 97.7575 40.3945 97.7464 40.3724 97.7241C40.3429 97.6945 40.3281 97.6612 40.3281 97.6241V97.1017C40.3502 96.7015 40.4756 96.3459 40.7041 96.0346C40.9327 95.7308 41.2349 95.4974 41.6109 95.3344C41.9943 95.1714 42.4219 95.0898 42.8937 95.0898C43.4171 95.0898 43.8742 95.1862 44.265 95.3788C44.6483 95.5789 44.9469 95.8457 45.1607 96.1791C45.3671 96.5126 45.4703 96.8831 45.4703 97.2907C45.4703 97.6019 45.3929 97.9205 45.2381 98.2466C45.0833 98.5726 44.8511 98.9246 44.5414 99.3025C44.3129 99.5915 44.0659 99.8768 43.8005 100.158C43.5351 100.44 43.1407 100.848 42.6172 101.381L42.4514 101.548ZM49.2081 103.082C48.3972 103.082 47.7558 102.852 47.2839 102.393C46.8121 101.941 46.5762 101.322 46.5762 100.536V97.6019C46.5762 96.8312 46.8121 96.2199 47.2839 95.7679C47.7558 95.3159 48.3972 95.0898 49.2081 95.0898C50.0191 95.0898 50.6642 95.3159 51.1434 95.7679C51.6152 96.2199 51.8511 96.8312 51.8511 97.6019V100.536C51.8511 101.322 51.6152 101.941 51.1434 102.393C50.6642 102.852 50.0191 103.082 49.2081 103.082ZM49.2081 101.737C49.5399 101.737 49.8053 101.633 50.0043 101.426C50.196 101.225 50.2919 100.955 50.2919 100.614V97.5574C50.2919 97.2166 50.196 96.9461 50.0043 96.746C49.8053 96.5385 49.5399 96.4348 49.2081 96.4348C48.8837 96.4348 48.6257 96.5385 48.434 96.746C48.235 96.9461 48.1354 97.2166 48.1354 97.5574V100.614C48.1354 100.955 48.235 101.225 48.434 101.426C48.6257 101.633 48.8837 101.737 49.2081 101.737ZM54.9475 101.548C54.9328 101.563 54.9291 101.577 54.9364 101.592C54.9438 101.607 54.9586 101.614 54.9807 101.614H57.9775C58.0144 101.614 58.0476 101.626 58.0771 101.648C58.0992 101.677 58.1102 101.711 58.1102 101.748V102.826C58.1102 102.863 58.0992 102.893 58.0771 102.915C58.0476 102.945 58.0144 102.959 57.9775 102.959H53.0012C52.9643 102.959 52.9348 102.945 52.9127 102.915C52.8832 102.893 52.8685 102.863 52.8685 102.826V101.803C52.8685 101.737 52.8906 101.681 52.9348 101.637C53.2961 101.281 53.6647 100.896 54.0407 100.481C54.4167 100.058 54.6526 99.7953 54.7484 99.6915C54.9549 99.447 55.165 99.2136 55.3788 98.9913C56.0497 98.2429 56.3851 97.6871 56.3851 97.324C56.3851 97.0646 56.293 96.8498 56.1086 96.6793C55.9243 96.5163 55.6847 96.4348 55.3898 96.4348C55.0949 96.4348 54.8553 96.5163 54.671 96.6793C54.4867 96.8498 54.3946 97.0721 54.3946 97.3462V97.6241C54.3946 97.6612 54.3835 97.6945 54.3614 97.7241C54.3319 97.7464 54.2987 97.7575 54.2619 97.7575H52.957C52.9201 97.7575 52.8906 97.7464 52.8685 97.7241C52.839 97.6945 52.8243 97.6612 52.8243 97.6241V97.1017C52.8464 96.7015 52.9717 96.3459 53.2003 96.0346C53.4288 95.7308 53.7347 95.4974 54.1181 95.3344C54.4941 95.1714 54.918 95.0898 55.3898 95.0898C55.9133 95.0898 56.3704 95.1862 56.7611 95.3788C57.1445 95.5789 57.443 95.8457 57.6568 96.1791C57.8633 96.5126 57.9665 96.8831 57.9665 97.2907C57.9665 97.6019 57.8891 97.9205 57.7342 98.2466C57.5794 98.5726 57.3472 98.9246 57.0376 99.3025C56.809 99.5915 56.562 99.8768 56.2966 100.158C56.0312 100.44 55.6368 100.848 55.1134 101.381L54.9475 101.548ZM63.6837 99.2469C63.8312 99.5878 63.9049 99.9805 63.9049 100.425C63.9049 100.825 63.8386 101.196 63.7059 101.537C63.5289 102.011 63.234 102.381 62.8212 102.648C62.4009 102.915 61.907 103.048 61.3393 103.048C60.779 103.048 60.2888 102.908 59.8685 102.626C59.4409 102.344 59.135 101.963 58.9507 101.481C58.8475 101.192 58.7885 100.881 58.7737 100.547C58.7737 100.458 58.818 100.414 58.9064 100.414H60.2114C60.2998 100.414 60.3441 100.458 60.3441 100.547C60.3735 100.792 60.4141 100.973 60.4657 101.092C60.5321 101.285 60.6426 101.433 60.7975 101.537C60.9449 101.648 61.1218 101.703 61.3283 101.703C61.7411 101.703 62.025 101.522 62.1798 101.159C62.283 100.936 62.3346 100.677 62.3346 100.381C62.3346 100.032 62.2793 99.7471 62.1687 99.5248C61.9992 99.1765 61.7153 99.0024 61.3172 99.0024C61.2361 99.0024 61.1513 99.0246 61.0629 99.0691C60.9744 99.121 60.8675 99.1914 60.7422 99.2803C60.7127 99.3025 60.6832 99.3136 60.6537 99.3136C60.6095 99.3136 60.5763 99.2914 60.5542 99.2469L59.9017 98.3244C59.887 98.3021 59.8796 98.2762 59.8796 98.2466C59.8796 98.2021 59.8943 98.165 59.9238 98.1354L61.6821 96.5904C61.6969 96.5756 61.7043 96.5608 61.7043 96.5459C61.6969 96.5311 61.6821 96.5237 61.66 96.5237H59.0613C59.0244 96.5237 58.9949 96.5089 58.9728 96.4792C58.9433 96.457 58.9286 96.4274 58.9286 96.3903V95.3121C58.9286 95.2751 58.9433 95.2455 58.9728 95.2232C58.9949 95.1936 59.0244 95.1788 59.0613 95.1788H63.6727C63.7095 95.1788 63.7427 95.1936 63.7722 95.2232C63.7943 95.2455 63.8054 95.2751 63.8054 95.3121V96.5348C63.8054 96.5941 63.7796 96.6497 63.728 96.7015L62.2793 98.0354C62.2646 98.0502 62.2609 98.065 62.2682 98.0798C62.2682 98.0947 62.283 98.1021 62.3125 98.1021C62.9539 98.228 63.411 98.6097 63.6837 99.2469Z" fill="#252530"></path></svg>