<svg xmlns="http://www.w3.org/2000/svg" width="103" height="134" viewBox="0 0 103 134" fill="none"><path d="M8.875 98.7428L52.1569 120.82L93.7952 98.7428V12.4116H8.875V98.7428Z" fill="white"></path><path d="M94.6734 12.7412L8 100.281L52.9255 122.577L94.6734 101.159V12.7412Z" fill="#F2F3F2"></path><path d="M6.02734 41.1884V100.61L7.56139 101.379L50.8433 123.456L52.1582 124.115L53.4731 123.456L95.221 101.379L96.755 100.61V9.55566H6.02734V41.1884ZM8.87628 98.9622V12.4114H93.9061V98.9622L52.1582 121.039L8.87628 98.9622Z" fill="#DCDEDC"></path><path d="M51.3896 13.8393C51.8279 13.8393 52.2662 13.8393 52.7045 13.9491L51.3896 16.4753C49.4173 16.3655 47.6641 17.9032 47.5545 19.8803C47.445 21.8573 48.979 23.6147 50.9513 23.7245H51.3896C52.2662 23.7245 53.1428 23.395 53.8003 22.8458L55.2247 25.2622C54.129 26.0311 52.8141 26.4704 51.3896 26.4704C47.8832 26.5803 44.9247 23.9442 44.8152 20.4294C44.7056 16.9147 47.3354 13.9491 50.8418 13.8393H51.3896ZM55.8822 19.2212L57.5258 21.9671L55.8822 24.6032L54.3481 21.9671H51.1705L52.8141 19.2212H55.8822ZM53.2524 18.2327C53.2524 17.7934 53.362 17.354 53.5811 17.0245C53.8003 16.695 54.2386 16.3655 54.5673 16.1458L54.7864 16.036C55.2247 15.8163 55.3343 15.7065 55.3343 15.4868C55.3343 15.2671 55.0056 15.0475 54.7864 15.0475C54.3481 15.0475 54.0194 15.2671 53.8003 15.7065L53.2524 15.1573C53.362 14.9376 53.5811 14.718 53.8003 14.4983C54.129 14.2786 54.4577 14.2786 54.7864 14.2786C55.1152 14.2786 55.5535 14.3885 55.7726 14.6081C55.9918 14.8278 56.2109 15.1573 56.2109 15.4868C56.2109 16.036 55.8822 16.4753 55.2247 16.695L54.896 16.9147C54.5673 17.1344 54.3481 17.2442 54.2386 17.5737H56.2109V18.3426L53.2524 18.2327ZM51.3896 31.9622L61.7992 26.0311V9.55566H40.8705V25.9212L51.3896 31.9622ZM98.8354 70.8442H3.94388L0.4375 78.5327L3.94388 86.2212H98.8354L102.232 78.5327L98.8354 70.8442Z" fill="#FF492C"></path><path d="M18.9572 54.3581C19.6804 54.3581 20.316 54.5046 20.8638 54.7974C21.4117 55.0903 21.8354 55.5114 22.1349 56.0606C22.4344 56.6024 22.5841 57.2248 22.5841 57.9278C22.5841 58.6234 22.4307 59.2348 22.1239 59.762C21.8098 60.2819 21.3715 60.6883 20.809 60.9812C20.2466 61.2741 19.5964 61.4206 18.8586 61.4206H16.5247C16.4735 61.4206 16.448 61.4499 16.448 61.5084V65.7042C16.448 65.7627 16.4261 65.8103 16.3822 65.847C16.3457 65.8836 16.2982 65.9019 16.2398 65.9019H14.3222C14.2638 65.9019 14.2163 65.8836 14.1798 65.847C14.1433 65.8103 14.125 65.7627 14.125 65.7042V54.5558C14.125 54.4972 14.1433 54.4496 14.1798 54.413C14.2163 54.3764 14.2638 54.3581 14.3222 54.3581H18.9572ZM18.6066 59.5643C19.1179 59.5643 19.5234 59.4179 19.8229 59.125C20.1297 58.8321 20.2831 58.4513 20.2831 57.9827C20.2831 57.4921 20.1297 57.1003 19.8229 56.8074C19.5234 56.5072 19.1179 56.3571 18.6066 56.3571H16.5247C16.4735 56.3571 16.448 56.3864 16.448 56.445V59.4765C16.448 59.535 16.4735 59.5643 16.5247 59.5643H18.6066ZM30.8789 60.7945C30.9374 61.2119 30.9556 61.6768 30.9337 62.1894C30.9264 62.3285 30.857 62.3981 30.7255 62.3981H25.6522C25.5865 62.3981 25.5609 62.4237 25.5755 62.475C25.6121 62.6947 25.6741 62.9143 25.7618 63.134C26.0467 63.7491 26.6274 64.0566 27.504 64.0566C28.2053 64.0493 28.7568 63.7637 29.1586 63.1999C29.2098 63.134 29.2609 63.1011 29.312 63.1011C29.3412 63.1011 29.3778 63.123 29.4216 63.167L30.605 64.3312C30.6634 64.3898 30.6927 64.4411 30.6927 64.485C30.6927 64.507 30.6707 64.5509 30.6269 64.6168C30.2617 65.0708 29.7978 65.4186 29.2353 65.6602C28.6582 65.9092 28.03 66.0337 27.3506 66.0337C26.4156 66.0337 25.6194 65.8213 24.9619 65.3966C24.3118 64.9646 23.8443 64.3642 23.5594 63.5953C23.3256 63.0461 23.2087 62.3285 23.2087 61.4425C23.2087 60.8348 23.2927 60.3002 23.4607 59.8389C23.7164 59.0627 24.1584 58.444 24.7866 57.9827C25.4148 57.5214 26.1599 57.2907 27.0219 57.2907C28.1177 57.2907 28.9979 57.6092 29.6627 58.2463C30.3274 58.8833 30.7328 59.7327 30.8789 60.7945ZM27.0438 59.3007C26.3499 59.3007 25.8933 59.6229 25.6741 60.2673C25.6303 60.4137 25.5938 60.5895 25.5646 60.7945C25.5646 60.8458 25.5938 60.8714 25.6522 60.8714H28.4902C28.556 60.8714 28.5779 60.8458 28.556 60.7945C28.4975 60.4796 28.4683 60.3259 28.4683 60.3332C28.3733 60.0037 28.2017 59.7474 27.9533 59.5643C27.7122 59.3886 27.4091 59.3007 27.0438 59.3007ZM36.5768 57.3237C36.9713 57.3237 37.2854 57.4006 37.5192 57.5543C37.5995 57.5983 37.6287 57.6788 37.6068 57.796L37.2671 59.6742C37.2598 59.806 37.1831 59.8462 37.037 59.795C36.869 59.7364 36.6791 59.7071 36.4672 59.7071C36.3796 59.7071 36.2554 59.7181 36.0947 59.7401C35.7075 59.7767 35.3751 59.9231 35.0976 60.1794C34.8273 60.4357 34.6921 60.7799 34.6921 61.2119V65.7042C34.6921 65.7627 34.6702 65.8103 34.6264 65.847C34.5899 65.8836 34.546 65.9019 34.4949 65.9019H32.5664C32.5152 65.9019 32.4678 65.8836 32.4239 65.847C32.3874 65.8103 32.3692 65.7627 32.3692 65.7042V57.6312C32.3692 57.58 32.3874 57.5324 32.4239 57.4884C32.4678 57.4518 32.5152 57.4335 32.5664 57.4335H34.4949C34.546 57.4335 34.5899 57.4518 34.6264 57.4884C34.6702 57.5324 34.6921 57.58 34.6921 57.6312V58.2573C34.6921 58.2866 34.7031 58.3085 34.725 58.3232C34.7396 58.3378 34.7542 58.3305 34.7688 58.3012C35.2217 57.6495 35.8244 57.3237 36.5768 57.3237ZM43.5786 57.4225C43.6371 57.4225 43.6845 57.4408 43.7211 57.4774C43.7576 57.5141 43.7759 57.5617 43.7759 57.6202V59.1799C43.7759 59.2385 43.7576 59.2861 43.7211 59.3227C43.6845 59.3593 43.6371 59.3776 43.5786 59.3776H41.9898C41.9313 59.3776 41.9021 59.4032 41.9021 59.4545V65.7042C41.9021 65.7627 41.8839 65.8103 41.8473 65.847C41.8108 65.8836 41.7633 65.9019 41.7049 65.9019H39.7873C39.7289 65.9019 39.6814 65.8836 39.6449 65.847C39.6084 65.8103 39.5901 65.7627 39.5901 65.7042V59.4545C39.5901 59.4032 39.5609 59.3776 39.5024 59.3776H38.5382C38.4798 59.3776 38.4323 59.3593 38.3957 59.3227C38.3592 59.2861 38.341 59.2385 38.341 59.1799V57.6202C38.341 57.5617 38.3592 57.5141 38.3957 57.4774C38.4323 57.4408 38.4798 57.4225 38.5382 57.4225H39.5024C39.5609 57.4225 39.5901 57.3932 39.5901 57.3347V56.9722C39.5901 56.2912 39.6924 55.7603 39.8969 55.3796C40.1088 55.0061 40.4448 54.7389 40.905 54.5778C41.3725 54.4167 42.019 54.3471 42.8445 54.3691H43.469C43.5202 54.3691 43.564 54.3874 43.6005 54.424C43.6444 54.4679 43.6663 54.5155 43.6663 54.5668V55.8958C43.6663 55.9544 43.6444 56.002 43.6005 56.0386C43.564 56.0825 43.5202 56.1045 43.469 56.1045H42.9212C42.5413 56.1118 42.2747 56.1887 42.1213 56.3352C41.9752 56.4889 41.9021 56.7635 41.9021 57.1589V57.3347C41.9021 57.3932 41.9313 57.4225 41.9898 57.4225H43.5786ZM48.3451 66.0337C47.4247 66.0337 46.6357 65.792 45.9783 65.3088C45.3209 64.8255 44.8716 64.1665 44.6305 63.3317C44.4771 62.8191 44.4004 62.259 44.4004 61.6512C44.4004 61.0068 44.4771 60.4247 44.6305 59.9048C44.8862 59.092 45.3428 58.455 46.0002 57.9937C46.6577 57.5324 47.4466 57.3017 48.367 57.3017C49.2582 57.3017 50.0253 57.5287 50.6681 57.9827C51.2963 58.444 51.7419 59.0811 52.0049 59.8938C52.1875 60.443 52.2788 61.0178 52.2788 61.6183C52.2788 62.2114 52.2021 62.7679 52.0487 63.2878C51.8077 64.1445 51.3584 64.8145 50.701 65.2978C50.0508 65.7884 49.2655 66.0337 48.3451 66.0337ZM48.3451 64.0456C48.7031 64.0456 49.0099 63.9358 49.2655 63.7161C49.5212 63.4965 49.7038 63.1926 49.8134 62.8045C49.8938 62.453 49.9339 62.0686 49.9339 61.6512C49.9339 61.1899 49.8938 60.8018 49.8134 60.487C49.6892 60.1135 49.5029 59.8206 49.2546 59.6083C48.9989 59.4032 48.6884 59.3007 48.3232 59.3007C47.9579 59.3007 47.6511 59.4032 47.4028 59.6083C47.1544 59.8206 46.9754 60.1135 46.8659 60.487C46.7782 60.7432 46.7344 61.1313 46.7344 61.6512C46.7344 62.1491 46.7745 62.5336 46.8549 62.8045C46.9645 63.1926 47.1471 63.4965 47.4028 63.7161C47.6584 63.9358 47.9726 64.0456 48.3451 64.0456ZM57.9767 57.3237C58.3712 57.3237 58.6853 57.4006 58.919 57.5543C59.0067 57.5983 59.0359 57.6788 59.0067 57.796L58.667 59.6742C58.6597 59.806 58.583 59.8462 58.4369 59.795C58.2689 59.7364 58.079 59.7071 57.8671 59.7071C57.7795 59.7071 57.6589 59.7181 57.5055 59.7401C57.1111 59.7767 56.775 59.9231 56.4975 60.1794C56.2272 60.4357 56.092 60.7799 56.092 61.2119V65.7042C56.092 65.7627 56.0701 65.8103 56.0263 65.847C55.9898 65.8836 55.9423 65.9019 55.8838 65.9019H53.9663C53.9151 65.9019 53.8677 65.8836 53.8238 65.847C53.7873 65.8103 53.769 65.7627 53.769 65.7042V57.6312C53.769 57.58 53.7873 57.5324 53.8238 57.4884C53.8677 57.4518 53.9151 57.4335 53.9663 57.4335H55.8838C55.9423 57.4335 55.9898 57.4518 56.0263 57.4884C56.0701 57.5324 56.092 57.58 56.092 57.6312V58.2573C56.092 58.2866 56.0993 58.3085 56.1139 58.3232C56.1432 58.3378 56.1614 58.3305 56.1687 58.3012C56.6216 57.6495 57.2243 57.3237 57.9767 57.3237ZM69.4272 57.3017C70.2819 57.3017 70.9503 57.558 71.4325 58.0706C71.9146 58.5905 72.1556 59.319 72.1556 60.2563V65.7042C72.1556 65.7627 72.1374 65.8103 72.1009 65.847C72.0643 65.8836 72.0205 65.9019 71.9694 65.9019H70.0409C69.9897 65.9019 69.9422 65.8836 69.8984 65.847C69.8619 65.8103 69.8436 65.7627 69.8436 65.7042V60.7615C69.8436 60.3149 69.7304 59.9597 69.5039 59.6961C69.2702 59.4325 68.9597 59.3007 68.5726 59.3007C68.1927 59.3007 67.8822 59.4325 67.6412 59.6961C67.4001 59.9597 67.2796 60.3112 67.2796 60.7506V65.7042C67.2796 65.7627 67.2613 65.8103 67.2248 65.847C67.181 65.8836 67.1335 65.9019 67.0823 65.9019H65.1757C65.1173 65.9019 65.0698 65.8836 65.0333 65.847C64.9968 65.8103 64.9785 65.7627 64.9785 65.7042V60.7615C64.9785 60.3222 64.858 59.9671 64.6169 59.6961C64.3759 59.4325 64.0617 59.3007 63.6746 59.3007C63.3312 59.3007 63.039 59.4032 62.798 59.6083C62.5642 59.8206 62.4254 60.1135 62.3816 60.487V65.7042C62.3816 65.7627 62.3633 65.8103 62.3268 65.847C62.283 65.8836 62.2355 65.9019 62.1844 65.9019H60.2668C60.2084 65.9019 60.1609 65.8836 60.1244 65.847C60.0878 65.8103 60.0696 65.7627 60.0696 65.7042V57.6312C60.0696 57.58 60.0878 57.5324 60.1244 57.4884C60.1609 57.4518 60.2084 57.4335 60.2668 57.4335H62.1844C62.2355 57.4335 62.283 57.4518 62.3268 57.4884C62.3633 57.5324 62.3816 57.58 62.3816 57.6312V58.2793C62.3816 58.3085 62.3926 58.3305 62.4145 58.3452C62.4364 58.3525 62.4583 58.3378 62.4802 58.3012C62.9331 57.6349 63.6307 57.3017 64.5731 57.3017C65.121 57.3017 65.5994 57.4189 66.0085 57.6532C66.4176 57.8802 66.7317 58.2097 66.9509 58.6417C66.9801 58.7076 67.0202 58.7076 67.0714 58.6417C67.3051 58.1877 67.6302 57.8509 68.0466 57.6312C68.4557 57.4115 68.9159 57.3017 69.4272 57.3017ZM81.2175 60.7945C81.2832 61.2119 81.3051 61.6768 81.2832 62.1894C81.2686 62.3285 81.1955 62.3981 81.064 62.3981H75.9907C75.925 62.3981 75.9031 62.4237 75.925 62.475C75.9542 62.6947 76.0127 62.9143 76.1003 63.134C76.3852 63.7491 76.966 64.0566 77.8426 64.0566C78.5438 64.0493 79.099 63.7637 79.5081 63.1999C79.5519 63.134 79.5994 63.1011 79.6505 63.1011C79.6871 63.1011 79.7272 63.123 79.7711 63.167L80.9545 64.3312C81.0056 64.3898 81.0312 64.4411 81.0312 64.485C81.0312 64.507 81.0093 64.5509 80.9654 64.6168C80.6075 65.0708 80.1436 65.4186 79.5738 65.6602C79.0041 65.9092 78.3795 66.0337 77.7001 66.0337C76.7578 66.0337 75.9615 65.8213 75.3114 65.3966C74.6539 64.9646 74.1828 64.3642 73.8979 63.5953C73.6714 63.0461 73.5582 62.3285 73.5582 61.4425C73.5582 60.8348 73.6385 60.3002 73.7993 59.8389C74.0549 59.0627 74.4969 58.444 75.1251 57.9827C75.7533 57.5214 76.5021 57.2907 77.3714 57.2907C78.4671 57.2907 79.3474 57.6092 80.0121 58.2463C80.6769 58.8833 81.0787 59.7327 81.2175 60.7945ZM77.3823 59.3007C76.6957 59.3007 76.2428 59.6229 76.0236 60.2673C75.9798 60.4137 75.9396 60.5895 75.9031 60.7945C75.9031 60.8458 75.9323 60.8714 75.9907 60.8714H78.8287C78.8945 60.8714 78.9164 60.8458 78.8945 60.7945C78.8433 60.4796 78.8178 60.3259 78.8178 60.3332C78.7155 60.0037 78.5438 59.7474 78.3028 59.5643C78.0544 59.3886 77.7476 59.3007 77.3823 59.3007ZM86.9153 57.3237C87.3098 57.3237 87.6239 57.4006 87.8577 57.5543C87.9453 57.5983 87.9782 57.6788 87.9563 57.796L87.6166 59.6742C87.602 59.806 87.5216 59.8462 87.3755 59.795C87.2148 59.7364 87.0249 59.7071 86.8057 59.7071C86.7181 59.7071 86.5976 59.7181 86.4442 59.7401C86.0497 59.7767 85.7137 59.9231 85.4361 60.1794C85.1658 60.4357 85.0306 60.7799 85.0306 61.2119V65.7042C85.0306 65.7627 85.0124 65.8103 84.9759 65.847C84.932 65.8836 84.8845 65.9019 84.8334 65.9019H82.9049C82.8538 65.9019 82.8099 65.8836 82.7734 65.847C82.7296 65.8103 82.7077 65.7627 82.7077 65.7042V57.6312C82.7077 57.58 82.7296 57.5324 82.7734 57.4884C82.8099 57.4518 82.8538 57.4335 82.9049 57.4335H84.8334C84.8845 57.4335 84.932 57.4518 84.9759 57.4884C85.0124 57.5324 85.0306 57.58 85.0306 57.6312V58.2573C85.0306 58.2866 85.0416 58.3085 85.0635 58.3232C85.0854 58.3378 85.1037 58.3305 85.1183 58.3012C85.5639 57.6495 86.1629 57.3237 86.9153 57.3237ZM41.7049 38.0914C41.7049 38.0401 41.7232 37.9925 41.7597 37.9486C41.7962 37.912 41.84 37.8937 41.8912 37.8937H43.8197C43.8708 37.8937 43.9183 37.912 43.9621 37.9486C43.9987 37.9925 44.0169 38.0401 44.0169 38.0914V49.2288C44.0169 49.2873 43.9987 49.3349 43.9621 49.3715C43.9183 49.4082 43.8708 49.4265 43.8197 49.4265H41.8912C41.84 49.4265 41.7962 49.4082 41.7597 49.3715C41.7232 49.3349 41.7049 49.2873 41.7049 49.2288V44.6815C41.7049 44.6303 41.6757 44.6047 41.6172 44.6047H37.9794C37.9282 44.6047 37.9027 44.6303 37.9027 44.6815V49.2288C37.9027 49.2873 37.8844 49.3349 37.8479 49.3715C37.804 49.4082 37.7566 49.4265 37.7054 49.4265H35.7769C35.7258 49.4265 35.682 49.4082 35.6454 49.3715C35.6016 49.3349 35.5797 49.2873 35.5797 49.2288V38.0914C35.5797 38.0401 35.6016 37.9925 35.6454 37.9486C35.682 37.912 35.7258 37.8937 35.7769 37.8937H37.7054C37.7566 37.8937 37.804 37.912 37.8479 37.9486C37.8844 37.9925 37.9027 38.0401 37.9027 38.0914V42.5178C37.9027 42.5764 37.9282 42.6056 37.9794 42.6056H41.6172C41.6757 42.6056 41.7049 42.5764 41.7049 42.5178V38.0914ZM47.0083 40.0025C46.6357 40.0025 46.3253 39.8781 46.0769 39.6291C45.8285 39.3874 45.7044 39.0799 45.7044 38.7065C45.7044 38.3184 45.8249 38.0035 46.066 37.7619C46.307 37.5202 46.6211 37.3994 47.0083 37.3994C47.3955 37.3994 47.7096 37.5202 47.9506 37.7619C48.1917 38.0035 48.3122 38.3184 48.3122 38.7065C48.3122 39.0799 48.1881 39.3874 47.9397 39.6291C47.6913 39.8781 47.3809 40.0025 47.0083 40.0025ZM46.0221 49.4265C45.971 49.4265 45.9235 49.4082 45.8797 49.3715C45.8432 49.3349 45.8249 49.2873 45.8249 49.2288V41.1448C45.8249 41.0862 45.8432 41.0387 45.8797 41.002C45.9235 40.9654 45.971 40.9471 46.0221 40.9471H47.9506C48.0018 40.9471 48.0456 40.9654 48.0821 41.002C48.126 41.0387 48.1479 41.0862 48.1479 41.1448V49.2288C48.1479 49.2873 48.126 49.3349 48.0821 49.3715C48.0456 49.4082 48.0018 49.4265 47.9506 49.4265H46.0221ZM55.1059 41.1558C55.1059 41.1046 55.1278 41.057 55.1716 41.013C55.2081 40.9764 55.252 40.9581 55.3031 40.9581H57.2316C57.2827 40.9581 57.3302 40.9764 57.374 41.013C57.4106 41.057 57.4288 41.1046 57.4288 41.1558V48.6686C57.4288 50.1038 57.0161 51.1289 56.1906 51.744C55.3652 52.3664 54.2987 52.6776 52.9911 52.6776C52.6039 52.6776 52.1766 52.6483 51.709 52.5897C51.5995 52.5751 51.5447 52.5055 51.5447 52.3811L51.6104 50.6786C51.6104 50.5321 51.6871 50.4699 51.8405 50.4919C52.235 50.5578 52.5966 50.5907 52.9253 50.5907C53.6266 50.5907 54.1672 50.4406 54.547 50.1404C54.9196 49.8255 55.1059 49.3313 55.1059 48.6576C55.1059 48.621 55.0949 48.599 55.073 48.5917C55.0511 48.5844 55.0292 48.5954 55.0072 48.6247C54.5909 49.0713 53.9845 49.2947 53.1883 49.2947C52.4724 49.2947 51.8186 49.1226 51.2269 48.7784C50.6279 48.4343 50.2006 47.8778 49.9449 47.1089C49.7842 46.6037 49.7038 45.9483 49.7038 45.1429C49.7038 44.2861 49.8025 43.5905 49.9997 43.056C50.2261 42.3823 50.6133 41.8441 51.1612 41.4414C51.709 41.0313 52.3482 40.8263 53.0787 40.8263C53.9188 40.8263 54.5616 41.0789 55.0072 41.5842C55.0292 41.6061 55.0511 41.6135 55.073 41.6061C55.0949 41.5988 55.1059 41.5805 55.1059 41.5512V41.1558ZM54.9744 46.4719C55.062 46.1497 55.1059 45.6994 55.1059 45.1209C55.1059 44.7841 55.0949 44.5241 55.073 44.3411C55.0511 44.1507 55.0145 43.9713 54.9634 43.8029C54.8611 43.51 54.6968 43.272 54.4703 43.0889C54.2439 42.9132 53.959 42.8253 53.6156 42.8253C53.2869 42.8253 53.0093 42.9132 52.7829 43.0889C52.5491 43.272 52.3774 43.51 52.2679 43.8029C52.1145 44.1324 52.0378 44.579 52.0378 45.1429C52.0378 45.7579 52.1035 46.1973 52.235 46.4609C52.33 46.7611 52.5016 46.9991 52.75 47.1748C52.9984 47.3579 53.2906 47.4494 53.6266 47.4494C53.9772 47.4494 54.2694 47.3579 54.5032 47.1748C54.7296 46.9991 54.8867 46.7648 54.9744 46.4719ZM63.4993 40.8263C64.3759 40.8263 65.0808 41.0972 65.614 41.6391C66.1473 42.1736 66.4139 42.9022 66.4139 43.8248V49.2288C66.4139 49.2873 66.3957 49.3349 66.3592 49.3715C66.3226 49.4082 66.2788 49.4265 66.2277 49.4265H64.2992C64.248 49.4265 64.2005 49.4082 64.1567 49.3715C64.1202 49.3349 64.1019 49.2873 64.1019 49.2288V44.2971C64.1019 43.8651 63.9777 43.51 63.7294 43.2317C63.4883 42.9608 63.1632 42.8253 62.7542 42.8253C62.3524 42.8253 62.0273 42.9608 61.7789 43.2317C61.5306 43.51 61.4064 43.8651 61.4064 44.2971V49.2288C61.4064 49.2873 61.3881 49.3349 61.3516 49.3715C61.3151 49.4082 61.2676 49.4265 61.2092 49.4265H59.2916C59.2332 49.4265 59.1857 49.4082 59.1492 49.3715C59.1126 49.3349 59.0944 49.2873 59.0944 49.2288V38.0914C59.0944 38.0401 59.1126 37.9925 59.1492 37.9486C59.1857 37.912 59.2332 37.8937 59.2916 37.8937H61.2092C61.2676 37.8937 61.3151 37.912 61.3516 37.9486C61.3881 37.9925 61.4064 38.0401 61.4064 38.0914V41.7379C61.4064 41.7672 61.4173 41.7892 61.4393 41.8038C61.4612 41.8112 61.4758 41.8038 61.4831 41.7819C61.936 41.1448 62.6081 40.8263 63.4993 40.8263Z" fill="#252530"></path><path d="M29.6176 75.2155C29.6541 75.1569 29.7052 75.1276 29.771 75.1276H30.7791C30.8156 75.1276 30.8448 75.1423 30.8667 75.1716C30.896 75.1935 30.9106 75.2228 30.9106 75.2594V82.6843C30.9106 82.721 30.896 82.7502 30.8667 82.7722C30.8448 82.8015 30.8156 82.8162 30.7791 82.8162H29.771C29.7345 82.8162 29.7016 82.8015 29.6724 82.7722C29.6505 82.7502 29.6395 82.721 29.6395 82.6843V77.4452C29.6395 77.4232 29.6322 77.4086 29.6176 77.4012C29.5957 77.3939 29.5811 77.4012 29.5738 77.4232L28.2041 79.5321C28.1676 79.5906 28.1164 79.6199 28.0507 79.6199H27.5466C27.4809 79.6199 27.4298 79.5906 27.3932 79.5321L26.0126 77.4342C26.0053 77.4122 25.9943 77.4049 25.9797 77.4122C25.9578 77.4195 25.9468 77.4342 25.9468 77.4561V82.6843C25.9468 82.721 25.9322 82.7502 25.903 82.7722C25.8811 82.8015 25.8519 82.8162 25.8154 82.8162H24.8073C24.7707 82.8162 24.7415 82.8015 24.7196 82.7722C24.6904 82.7502 24.6758 82.721 24.6758 82.6843V75.2594C24.6758 75.2228 24.6904 75.1935 24.7196 75.1716C24.7415 75.1423 24.7707 75.1276 24.8073 75.1276H25.8154C25.8811 75.1276 25.9322 75.1569 25.9688 75.2155L27.7548 77.9284C27.7694 77.9431 27.784 77.9504 27.7987 77.9504C27.8133 77.9504 27.8242 77.9431 27.8315 77.9284L29.6176 75.2155ZM33.113 76.4347C32.8866 76.4347 32.7003 76.3614 32.5542 76.215C32.4081 76.0686 32.335 75.8818 32.335 75.6548C32.335 75.4278 32.4081 75.2411 32.5542 75.0947C32.7003 74.9482 32.8866 74.875 33.113 74.875C33.3395 74.875 33.5257 74.9482 33.6718 75.0947C33.8179 75.2411 33.891 75.4278 33.891 75.6548C33.891 75.8818 33.8179 76.0686 33.6718 76.215C33.5257 76.3614 33.3395 76.4347 33.113 76.4347ZM32.5871 82.8162C32.5505 82.8162 32.5213 82.8015 32.4994 82.7722C32.4702 82.7502 32.4556 82.721 32.4556 82.6843V77.3243C32.4556 77.2877 32.4702 77.2584 32.4994 77.2365C32.5213 77.2072 32.5505 77.1925 32.5871 77.1925H33.5951C33.6317 77.1925 33.6645 77.2072 33.6938 77.2365C33.7157 77.2584 33.7266 77.2877 33.7266 77.3243V82.6843C33.7266 82.721 33.7157 82.7502 33.6938 82.7722C33.6645 82.8015 33.6317 82.8162 33.5951 82.8162H32.5871ZM38.6575 75.2594C38.6575 75.2228 38.6721 75.1935 38.7013 75.1716C38.7232 75.1423 38.7524 75.1276 38.789 75.1276H39.7971C39.8336 75.1276 39.8665 75.1423 39.8957 75.1716C39.9176 75.1935 39.9285 75.2228 39.9285 75.2594V82.6843C39.9285 82.721 39.9176 82.7502 39.8957 82.7722C39.8665 82.8015 39.8336 82.8162 39.7971 82.8162H38.789C38.7524 82.8162 38.7232 82.8015 38.7013 82.7722C38.6721 82.7502 38.6575 82.721 38.6575 82.6843V82.3548C38.6575 82.3329 38.6502 82.3182 38.6356 82.3109C38.621 82.3036 38.6063 82.3109 38.5917 82.3329C38.2703 82.7136 37.8503 82.904 37.3316 82.904C36.813 82.904 36.3747 82.7686 36.0167 82.4976C35.6588 82.2267 35.3995 81.8496 35.2388 81.3663C35.1073 80.9563 35.0415 80.4986 35.0415 79.9934C35.0415 79.4735 35.1036 79.0268 35.2278 78.6534C35.3885 78.1701 35.6478 77.793 36.0058 77.5221C36.3637 77.2511 36.813 77.1157 37.3535 77.1157C37.8576 77.1157 38.2703 77.2987 38.5917 77.6648C38.6063 77.6795 38.621 77.6868 38.6356 77.6868C38.6502 77.6795 38.6575 77.6648 38.6575 77.6429V75.2594ZM38.3945 81.2784C38.5625 80.9782 38.6465 80.5535 38.6465 80.0043C38.6465 79.4332 38.5552 78.9975 38.3726 78.6973C38.1754 78.3751 37.8978 78.214 37.5398 78.214C37.1673 78.214 36.8751 78.3678 36.6632 78.6753C36.4441 78.9975 36.3345 79.4442 36.3345 80.0153C36.3345 80.5279 36.4222 80.9489 36.5975 81.2784C36.802 81.6299 37.1125 81.8057 37.5289 81.8057C37.9014 81.8057 38.19 81.6299 38.3945 81.2784ZM41.112 80.0593C41.0754 80.0593 41.0462 80.0483 41.0243 80.0263C40.9951 79.997 40.9805 79.9641 40.9805 79.9275V79.0927C40.9805 79.0561 40.9951 79.0231 41.0243 78.9939C41.0462 78.9719 41.0754 78.9609 41.112 78.9609H44.5635C44.6001 78.9609 44.6293 78.9719 44.6512 78.9939C44.6804 79.0231 44.695 79.0561 44.695 79.0927V79.9275C44.695 79.9641 44.6804 79.997 44.6512 80.0263C44.6293 80.0483 44.6001 80.0593 44.5635 80.0593H41.112ZM50.7983 75.2155C50.8349 75.1569 50.886 75.1276 50.9517 75.1276H51.9598C51.9963 75.1276 52.0292 75.1423 52.0584 75.1716C52.0804 75.1935 52.0913 75.2228 52.0913 75.2594V82.6843C52.0913 82.721 52.0804 82.7502 52.0584 82.7722C52.0292 82.8015 51.9963 82.8162 51.9598 82.8162H50.9517C50.9152 82.8162 50.886 82.8015 50.8641 82.7722C50.8349 82.7502 50.8203 82.721 50.8203 82.6843V77.4452C50.8203 77.4232 50.8129 77.4086 50.7983 77.4012C50.7764 77.3939 50.7618 77.4012 50.7545 77.4232L49.3848 79.5321C49.3483 79.5906 49.2972 79.6199 49.2314 79.6199H48.7274C48.6616 79.6199 48.6105 79.5906 48.574 79.5321L47.1933 77.4342C47.186 77.4122 47.1751 77.4049 47.1605 77.4122C47.1385 77.4195 47.1276 77.4342 47.1276 77.4561V82.6843C47.1276 82.721 47.1166 82.7502 47.0947 82.7722C47.0655 82.8015 47.0326 82.8162 46.9961 82.8162H45.988C45.9515 82.8162 45.9223 82.8015 45.9004 82.7722C45.8711 82.7502 45.8565 82.721 45.8565 82.6843V75.2594C45.8565 75.2228 45.8711 75.1935 45.9004 75.1716C45.9223 75.1423 45.9515 75.1276 45.988 75.1276H46.9961C47.0618 75.1276 47.113 75.1569 47.1495 75.2155L48.9356 77.9284C48.9502 77.9431 48.9648 77.9504 48.9794 77.9504C48.994 77.9504 49.005 77.9431 49.0123 77.9284L50.7983 75.2155ZM55.7073 77.1157C56.1675 77.1157 56.5729 77.1962 56.9235 77.3573C57.2742 77.5184 57.5445 77.7381 57.7344 78.0163C57.9243 78.3019 58.0193 78.6241 58.0193 78.9829V82.6843C58.0193 82.721 58.0083 82.7502 57.9864 82.7722C57.9572 82.8015 57.9243 82.8162 57.8878 82.8162H56.8797C56.8432 82.8162 56.814 82.8015 56.7921 82.7722C56.7628 82.7502 56.7482 82.721 56.7482 82.6843V82.3329C56.7482 82.3109 56.7409 82.2963 56.7263 82.2889C56.7117 82.2889 56.6971 82.2963 56.6825 82.3109C56.3245 82.7063 55.8059 82.904 55.1265 82.904C54.5787 82.904 54.1294 82.7649 53.7788 82.4866C53.4208 82.2084 53.2418 81.7947 53.2418 81.2455C53.2418 80.6743 53.4427 80.2277 53.8445 79.9055C54.239 79.5906 54.7978 79.4332 55.521 79.4332H56.6934C56.73 79.4332 56.7482 79.4149 56.7482 79.3783V79.1147C56.7482 78.8291 56.6642 78.6058 56.4962 78.4447C56.3282 78.2909 56.0762 78.214 55.7401 78.214C55.4626 78.214 55.2398 78.2653 55.0717 78.3678C54.8964 78.463 54.7868 78.5984 54.743 78.7742C54.7211 78.8621 54.67 78.8987 54.5896 78.884L53.5267 78.7522C53.4902 78.7449 53.461 78.7339 53.4391 78.7193C53.4099 78.6973 53.3989 78.6717 53.4062 78.6424C53.4646 78.1957 53.7057 77.8296 54.1294 77.544C54.5458 77.2584 55.0717 77.1157 55.7073 77.1157ZM55.4443 81.8935C55.8022 81.8935 56.109 81.7983 56.3647 81.608C56.6204 81.4176 56.7482 81.1759 56.7482 80.883V80.3668C56.7482 80.3302 56.73 80.3119 56.6934 80.3119H55.773C55.3859 80.3119 55.0827 80.3851 54.8635 80.5316C54.6371 80.678 54.5239 80.8867 54.5239 81.1576C54.5239 81.3919 54.6115 81.5713 54.7868 81.6958C54.9549 81.8276 55.174 81.8935 55.4443 81.8935ZM61.8982 77.1376C62.132 77.1376 62.3365 77.1852 62.5118 77.2804C62.5703 77.3097 62.5922 77.3646 62.5776 77.4452L62.3913 78.4337C62.384 78.5216 62.3329 78.5472 62.2379 78.5106C62.1283 78.474 62.0005 78.4557 61.8544 78.4557C61.7594 78.4557 61.6864 78.4593 61.6353 78.4666C61.3284 78.4813 61.0728 78.5875 60.8682 78.7852C60.6637 78.9902 60.5614 79.2538 60.5614 79.576V82.6843C60.5614 82.721 60.5505 82.7502 60.5285 82.7722C60.4993 82.8015 60.4665 82.8162 60.4299 82.8162H59.4218C59.3853 82.8162 59.3561 82.8015 59.3342 82.7722C59.305 82.7502 59.2904 82.721 59.2904 82.6843V77.3353C59.2904 77.2987 59.305 77.2658 59.3342 77.2365C59.3561 77.2145 59.3853 77.2035 59.4218 77.2035H60.4299C60.4665 77.2035 60.4993 77.2145 60.5285 77.2365C60.5505 77.2658 60.5614 77.2987 60.5614 77.3353V77.8296C60.5614 77.8589 60.5687 77.8735 60.5833 77.8735C60.5906 77.8809 60.6016 77.8735 60.6162 77.8516C60.923 77.3756 61.3504 77.1376 61.8982 77.1376ZM63.5418 82.8162C63.5053 82.8162 63.4761 82.8015 63.4542 82.7722C63.425 82.7502 63.4104 82.721 63.4104 82.6843V75.2594C63.4104 75.2228 63.425 75.1935 63.4542 75.1716C63.4761 75.1423 63.5053 75.1276 63.5418 75.1276H64.5499C64.5865 75.1276 64.6157 75.1423 64.6376 75.1716C64.6668 75.1935 64.6814 75.2228 64.6814 75.2594V79.2245C64.6814 79.2465 64.6887 79.2611 64.7033 79.2684C64.7179 79.2758 64.7326 79.2684 64.7472 79.2465L66.5223 77.2804C66.5734 77.2292 66.6282 77.2035 66.6866 77.2035H67.8481C67.9212 77.2035 67.9577 77.2292 67.9577 77.2804C67.9577 77.3024 67.9467 77.3317 67.9248 77.3683L66.5332 79.0378C66.5113 79.0598 66.5077 79.0854 66.5223 79.1147L68.1659 82.6624C68.1805 82.6917 68.1878 82.7136 68.1878 82.7283C68.1878 82.7869 68.1476 82.8162 68.0673 82.8162H67.0044C66.9314 82.8162 66.8802 82.7832 66.851 82.7173L65.6566 79.9275C65.6493 79.9128 65.6347 79.9018 65.6128 79.8945C65.5982 79.8945 65.5872 79.9018 65.5799 79.9165L64.7033 80.927C64.6887 80.9563 64.6814 80.9819 64.6814 81.0039V82.6843C64.6814 82.721 64.6668 82.7502 64.6376 82.7722C64.6157 82.8015 64.5865 82.8162 64.5499 82.8162H63.5418ZM73.4583 79.3783C73.4876 79.5613 73.5022 79.7664 73.5022 79.9934L73.4912 80.3339C73.4912 80.4217 73.4474 80.4657 73.3597 80.4657H69.93C69.8935 80.4657 69.8753 80.484 69.8753 80.5206C69.8972 80.7622 69.93 80.927 69.9739 81.0148C70.1492 81.5421 70.5765 81.8093 71.2559 81.8166C71.7526 81.8166 72.1471 81.6116 72.4393 81.2016C72.4685 81.1576 72.505 81.1357 72.5489 81.1357C72.5781 81.1357 72.6037 81.1466 72.6256 81.1686L73.3049 81.7288C73.3707 81.78 73.3816 81.8386 73.3378 81.9045C73.1114 82.2267 72.8082 82.4757 72.4283 82.6514C72.0558 82.8271 71.6394 82.915 71.1792 82.915C70.6094 82.915 70.1236 82.7869 69.7218 82.5306C69.3274 82.2743 69.0388 81.9155 68.8562 81.4542C68.6882 81.0588 68.6042 80.5096 68.6042 79.8066C68.6042 79.3819 68.648 79.0378 68.7357 78.7742C68.8818 78.2616 69.1594 77.8552 69.5684 77.555C69.9702 77.2621 70.456 77.1157 71.0258 77.1157C72.4649 77.1157 73.2757 77.8699 73.4583 79.3783ZM71.0258 78.214C70.7555 78.214 70.529 78.2836 70.3464 78.4227C70.1711 78.5545 70.0469 78.7412 69.9739 78.9829C69.93 79.1074 69.9008 79.2684 69.8862 79.4661C69.8716 79.5028 69.8862 79.5211 69.93 79.5211H72.1544C72.1909 79.5211 72.2092 79.5028 72.2092 79.4661C72.1946 79.2831 72.1727 79.144 72.1434 79.0488C72.0777 78.7852 71.9499 78.5801 71.7599 78.4337C71.5627 78.2872 71.318 78.214 71.0258 78.214ZM77.5235 78.1042C77.5235 78.1408 77.5126 78.1701 77.4907 78.1921C77.4615 78.2213 77.4286 78.236 77.3921 78.236H76.2744C76.2379 78.236 76.2196 78.2543 76.2196 78.2909V80.938C76.2196 81.2162 76.2817 81.4176 76.4059 81.542C76.5228 81.6665 76.7127 81.7288 76.9757 81.7288H77.3044C77.3409 81.7288 77.3701 81.7398 77.3921 81.7617C77.4213 81.791 77.4359 81.824 77.4359 81.8606V82.6843C77.4359 82.7649 77.3921 82.8125 77.3044 82.8271L76.7346 82.8381C76.1575 82.8381 75.7265 82.7393 75.4416 82.5416C75.1567 82.3439 75.0106 81.9704 75.0033 81.4212V78.2909C75.0033 78.2543 74.9851 78.236 74.9486 78.236H74.324C74.2875 78.236 74.2582 78.2213 74.2363 78.1921C74.2071 78.1701 74.1925 78.1408 74.1925 78.1042V77.3353C74.1925 77.2987 74.2071 77.2658 74.2363 77.2365C74.2582 77.2145 74.2875 77.2035 74.324 77.2035H74.9486C74.9851 77.2035 75.0033 77.1852 75.0033 77.1486V75.8635C75.0033 75.8269 75.0179 75.794 75.0472 75.7647C75.0691 75.7427 75.0983 75.7317 75.1348 75.7317H76.0881C76.1246 75.7317 76.1539 75.7427 76.1758 75.7647C76.205 75.794 76.2196 75.8269 76.2196 75.8635V77.1486C76.2196 77.1852 76.2379 77.2035 76.2744 77.2035H77.3921C77.4286 77.2035 77.4615 77.2145 77.4907 77.2365C77.5126 77.2658 77.5235 77.2987 77.5235 77.3353V78.1042Z" fill="white"></path><path d="M34.1429 98.3033C34.0625 98.3033 34.0114 98.2667 33.9895 98.1934L32.05 90.7575L32.0391 90.7136C32.0391 90.6477 32.0792 90.6147 32.1596 90.6147H33.5183C33.5914 90.6147 33.6388 90.6514 33.6608 90.7246L34.7017 95.1949C34.709 95.2242 34.72 95.2388 34.7346 95.2388C34.7492 95.2388 34.7602 95.2242 34.7675 95.1949L35.7756 90.7356C35.7975 90.655 35.8449 90.6147 35.918 90.6147H37.2439C37.3242 90.6147 37.3753 90.6514 37.3973 90.7246L38.493 95.1949C38.5003 95.2169 38.5113 95.2315 38.5259 95.2388C38.5405 95.2388 38.5514 95.2242 38.5587 95.1949L39.5668 90.7356C39.5887 90.655 39.6362 90.6147 39.7093 90.6147H41.0023C41.1045 90.6147 41.1447 90.6623 41.1228 90.7575L39.3258 98.1934C39.3038 98.2667 39.2527 98.3033 39.1724 98.3033H37.8684C37.7954 98.3033 37.7479 98.2667 37.726 98.1934L36.6083 93.4375C36.601 93.4082 36.5901 93.3936 36.5754 93.3936C36.5608 93.3936 36.5499 93.4082 36.5426 93.4375L35.5016 98.1825C35.487 98.263 35.4395 98.3033 35.3592 98.3033H34.1429ZM42.1857 98.3033C42.1491 98.3033 42.1163 98.2886 42.087 98.2593C42.0651 98.2374 42.0542 98.2081 42.0542 98.1715V90.7466C42.0542 90.7099 42.0651 90.6806 42.087 90.6587C42.1163 90.6294 42.1491 90.6147 42.1857 90.6147H43.4677C43.5042 90.6147 43.5334 90.6294 43.5553 90.6587C43.5846 90.6806 43.5992 90.7099 43.5992 90.7466V98.1715C43.5992 98.2081 43.5846 98.2374 43.5553 98.2593C43.5334 98.2886 43.5042 98.3033 43.4677 98.3033H42.1857ZM49.3409 90.7466C49.3409 90.7099 49.3518 90.6806 49.3737 90.6587C49.403 90.6294 49.4358 90.6147 49.4724 90.6147H50.7544C50.7909 90.6147 50.8201 90.6294 50.842 90.6587C50.8713 90.6806 50.8859 90.7099 50.8859 90.7466V98.1715C50.8859 98.2081 50.8713 98.2374 50.842 98.2593C50.8201 98.2886 50.7909 98.3033 50.7544 98.3033H49.5162C49.4431 98.3033 49.392 98.274 49.3628 98.2154L46.5248 93.5144C46.5102 93.4925 46.4956 93.4851 46.481 93.4925C46.4664 93.4925 46.4591 93.5071 46.4591 93.5364L46.481 98.1715C46.481 98.2081 46.4664 98.2374 46.4372 98.2593C46.4152 98.2886 46.386 98.3033 46.3495 98.3033H45.0675C45.0309 98.3033 44.9981 98.2886 44.9689 98.2593C44.9469 98.2374 44.936 98.2081 44.936 98.1715V90.7466C44.936 90.7099 44.9469 90.6806 44.9689 90.6587C44.9981 90.6294 45.0309 90.6147 45.0675 90.6147H46.3057C46.3787 90.6147 46.4298 90.644 46.4591 90.7026L49.2861 95.3816C49.3007 95.4036 49.3153 95.4109 49.3299 95.4036C49.3445 95.4036 49.3518 95.389 49.3518 95.3597L49.3409 90.7466ZM57.5151 90.6147C57.5517 90.6147 57.5809 90.6294 57.6028 90.6587C57.632 90.6806 57.6466 90.7099 57.6466 90.7466V91.8229C57.6466 91.8596 57.632 91.8888 57.6028 91.9108C57.5809 91.9401 57.5517 91.9547 57.5151 91.9547H55.5537C55.5172 91.9547 55.499 91.973 55.499 92.0097V98.1715C55.499 98.2081 55.4843 98.2374 55.4551 98.2593C55.4332 98.2886 55.404 98.3033 55.3675 98.3033H54.0854C54.0489 98.3033 54.0161 98.2886 53.9868 98.2593C53.9649 98.2374 53.954 98.2081 53.954 98.1715V92.0097C53.954 91.973 53.9357 91.9547 53.8992 91.9547H51.9926C51.9561 91.9547 51.9232 91.9401 51.894 91.9108C51.872 91.8888 51.8611 91.8596 51.8611 91.8229V90.7466C51.8611 90.7099 51.872 90.6806 51.894 90.6587C51.9232 90.6294 51.9561 90.6147 51.9926 90.6147H57.5151ZM63.9581 91.812C63.9581 91.8486 63.9471 91.8779 63.9252 91.8998C63.896 91.9291 63.8631 91.9438 63.8266 91.9438H60.2326C60.1961 91.9438 60.1778 91.9621 60.1778 91.9987V93.7011C60.1778 93.7377 60.1961 93.7561 60.2326 93.7561H62.5884C62.6249 93.7561 62.6542 93.767 62.6761 93.789C62.7053 93.8183 62.7199 93.8513 62.7199 93.8879V94.9533C62.7199 94.9899 62.7053 95.0228 62.6761 95.0521C62.6542 95.0741 62.6249 95.0851 62.5884 95.0851H60.2326C60.1961 95.0851 60.1778 95.1034 60.1778 95.14V96.9193C60.1778 96.9559 60.1961 96.9743 60.2326 96.9743H63.8266C63.8631 96.9743 63.896 96.9852 63.9252 97.0072C63.9471 97.0365 63.9581 97.0694 63.9581 97.1061V98.1715C63.9581 98.2081 63.9471 98.2374 63.9252 98.2593C63.896 98.2886 63.8631 98.3033 63.8266 98.3033H58.7643C58.7278 98.3033 58.6949 98.2886 58.6657 98.2593C58.6437 98.2374 58.6328 98.2081 58.6328 98.1715V90.7466C58.6328 90.7099 58.6437 90.6806 58.6657 90.6587C58.6949 90.6294 58.7278 90.6147 58.7643 90.6147H63.8266C63.8631 90.6147 63.896 90.6294 63.9252 90.6587C63.9471 90.6806 63.9581 90.7099 63.9581 90.7466V91.812ZM69.2396 98.3033C69.1665 98.3033 69.1154 98.2703 69.0862 98.2044L67.7165 95.162C67.7019 95.1327 67.68 95.118 67.6508 95.118H66.6317C66.5952 95.118 66.5769 95.1363 66.5769 95.1729V98.1715C66.5769 98.2081 66.5623 98.2374 66.5331 98.2593C66.5112 98.2886 66.482 98.3033 66.4454 98.3033H65.1634C65.1269 98.3033 65.094 98.2886 65.0648 98.2593C65.0429 98.2374 65.0319 98.2081 65.0319 98.1715V90.7466C65.0319 90.7099 65.0429 90.6806 65.0648 90.6587C65.094 90.6294 65.1269 90.6147 65.1634 90.6147H68.2973C68.7648 90.6147 69.1739 90.7099 69.5245 90.9003C69.8824 91.0907 70.1564 91.3616 70.3463 91.7131C70.5435 92.0646 70.6422 92.471 70.6422 92.9323C70.6422 93.4302 70.518 93.8549 70.2696 94.2064C70.0212 94.5652 69.6742 94.8178 69.2286 94.9643C69.1921 94.9789 69.1812 95.0045 69.1958 95.0411L70.686 98.1495C70.7006 98.1788 70.7079 98.2008 70.7079 98.2154C70.7079 98.274 70.6677 98.3033 70.5874 98.3033H69.2396ZM66.6317 91.9438C66.5952 91.9438 66.5769 91.9621 66.5769 91.9987V93.8769C66.5769 93.9135 66.5952 93.9318 66.6317 93.9318H68.0671C68.374 93.9318 68.6223 93.8403 68.8123 93.6572C69.0095 93.4741 69.1081 93.2362 69.1081 92.9433C69.1081 92.6504 69.0095 92.4087 68.8123 92.2184C68.6223 92.0353 68.374 91.9438 68.0671 91.9438H66.6317ZM41.7035 107.233C41.6889 107.248 41.6853 107.262 41.6926 107.277C41.6999 107.292 41.7145 107.299 41.7364 107.299H44.7059C44.7424 107.299 44.7753 107.31 44.8045 107.332C44.8264 107.361 44.8374 107.394 44.8374 107.431V108.496C44.8374 108.533 44.8264 108.562 44.8045 108.584C44.7753 108.613 44.7424 108.628 44.7059 108.628H39.775C39.7385 108.628 39.7056 108.613 39.6764 108.584C39.6545 108.562 39.6435 108.533 39.6435 108.496V107.486C39.6435 107.42 39.6654 107.365 39.7093 107.321C40.0672 106.969 40.4325 106.589 40.805 106.179C41.1776 105.761 41.4113 105.501 41.5063 105.399C41.7108 105.157 41.919 104.926 42.1309 104.707C42.7956 103.967 43.128 103.418 43.128 103.059C43.128 102.803 43.0367 102.591 42.8541 102.422C42.6714 102.261 42.434 102.18 42.1418 102.18C41.8496 102.18 41.6122 102.261 41.4296 102.422C41.247 102.591 41.1557 102.81 41.1557 103.081V103.356C41.1557 103.392 41.141 103.425 41.1118 103.455C41.0899 103.477 41.0607 103.488 41.0242 103.488H39.7312C39.6947 103.488 39.6654 103.477 39.6435 103.455C39.6143 103.425 39.5997 103.392 39.5997 103.356V102.839C39.6216 102.444 39.7458 102.093 39.9723 101.785C40.1987 101.485 40.4982 101.254 40.8708 101.093C41.2506 100.932 41.6743 100.851 42.1418 100.851C42.6605 100.851 43.1134 100.947 43.5006 101.137C43.8804 101.335 44.1763 101.598 44.3881 101.928C44.5926 102.257 44.6949 102.623 44.6949 103.026C44.6949 103.334 44.6182 103.649 44.4648 103.971C44.3114 104.293 44.0813 104.641 43.7745 105.014C43.548 105.3 43.3033 105.582 43.0403 105.86C42.7774 106.138 42.3865 106.541 41.8679 107.068L41.7035 107.233ZM48.3985 108.749C47.595 108.749 46.9595 108.522 46.4919 108.068C46.0244 107.621 45.7907 107.01 45.7907 106.233V103.334C45.7907 102.572 46.0244 101.968 46.4919 101.521C46.9595 101.075 47.595 100.851 48.3985 100.851C49.2021 100.851 49.8413 101.075 50.3161 101.521C50.7836 101.968 51.0174 102.572 51.0174 103.334V106.233C51.0174 107.01 50.7836 107.621 50.3161 108.068C49.8413 108.522 49.2021 108.749 48.3985 108.749ZM48.3985 107.42C48.7273 107.42 48.9902 107.317 49.1875 107.112C49.3774 106.914 49.4724 106.647 49.4724 106.31V103.29C49.4724 102.953 49.3774 102.686 49.1875 102.488C48.9902 102.283 48.7273 102.18 48.3985 102.18C48.0771 102.18 47.8214 102.283 47.6315 102.488C47.4343 102.686 47.3357 102.953 47.3357 103.29V106.31C47.3357 106.647 47.4343 106.914 47.6315 107.112C47.8214 107.317 48.0771 107.42 48.3985 107.42ZM54.0854 107.233C54.0708 107.248 54.0672 107.262 54.0745 107.277C54.0818 107.292 54.0964 107.299 54.1183 107.299H57.0878C57.1243 107.299 57.1572 107.31 57.1864 107.332C57.2083 107.361 57.2193 107.394 57.2193 107.431V108.496C57.2193 108.533 57.2083 108.562 57.1864 108.584C57.1572 108.613 57.1243 108.628 57.0878 108.628H52.1569C52.1204 108.628 52.0912 108.613 52.0693 108.584C52.0401 108.562 52.0254 108.533 52.0254 108.496V107.486C52.0254 107.42 52.0474 107.365 52.0912 107.321C52.4491 106.969 52.8144 106.589 53.1869 106.179C53.5595 105.761 53.7932 105.501 53.8882 105.399C54.0928 105.157 54.3009 104.926 54.5128 104.707C55.1775 103.967 55.5099 103.418 55.5099 103.059C55.5099 102.803 55.4186 102.591 55.236 102.422C55.0534 102.261 54.8159 102.18 54.5237 102.18C54.2315 102.18 53.9941 102.261 53.8115 102.422C53.6289 102.591 53.5376 102.81 53.5376 103.081V103.356C53.5376 103.392 53.5266 103.425 53.5047 103.455C53.4755 103.477 53.4426 103.488 53.4061 103.488H52.1131C52.0766 103.488 52.0474 103.477 52.0254 103.455C51.9962 103.425 51.9816 103.392 51.9816 103.356V102.839C52.0035 102.444 52.1277 102.093 52.3542 101.785C52.5806 101.485 52.8838 101.254 53.2636 101.093C53.6362 100.932 54.0562 100.851 54.5237 100.851C55.0424 100.851 55.4953 100.947 55.8825 101.137C56.2623 101.335 56.5582 101.598 56.77 101.928C56.9746 102.257 57.0768 102.623 57.0768 103.026C57.0768 103.334 57.0001 103.649 56.8467 103.971C56.6933 104.293 56.4632 104.641 56.1564 105.014C55.93 105.3 55.6852 105.582 55.4223 105.86C55.1593 106.138 54.7685 106.541 54.2498 107.068L54.0854 107.233ZM62.7418 104.959C62.8879 105.296 62.961 105.684 62.961 106.124C62.961 106.519 62.8952 106.885 62.7637 107.222C62.5884 107.691 62.2962 108.057 61.8871 108.32C61.4708 108.584 60.9813 108.716 60.4188 108.716C59.8637 108.716 59.3779 108.577 58.9615 108.298C58.5378 108.02 58.2347 107.643 58.052 107.167C57.9498 106.881 57.8913 106.574 57.8767 106.244C57.8767 106.157 57.9206 106.113 58.0082 106.113H59.3012C59.3888 106.113 59.4327 106.157 59.4327 106.244C59.4619 106.486 59.5021 106.665 59.5532 106.783C59.619 106.973 59.7285 107.119 59.8819 107.222C60.028 107.332 60.2034 107.387 60.4079 107.387C60.817 107.387 61.0982 107.207 61.2516 106.849C61.3539 106.629 61.405 106.373 61.405 106.08C61.405 105.736 61.3502 105.454 61.2407 105.234C61.0726 104.89 60.7914 104.718 60.3969 104.718C60.3166 104.718 60.2326 104.74 60.1449 104.784C60.0573 104.835 59.9513 104.904 59.8271 104.992C59.7979 105.014 59.7687 105.025 59.7395 105.025C59.6957 105.025 59.6628 105.003 59.6409 104.959L58.9944 104.048C58.9798 104.026 58.9725 104 58.9725 103.971C58.9725 103.927 58.9871 103.89 59.0163 103.861L60.7585 102.334C60.7731 102.32 60.7804 102.305 60.7804 102.29C60.7731 102.276 60.7585 102.268 60.7366 102.268H58.1616C58.1251 102.268 58.0959 102.254 58.074 102.224C58.0447 102.202 58.0301 102.173 58.0301 102.137V101.071C58.0301 101.035 58.0447 101.005 58.074 100.983C58.0959 100.954 58.1251 100.939 58.1616 100.939H62.7309C62.7674 100.939 62.8003 100.954 62.8295 100.983C62.8514 101.005 62.8624 101.035 62.8624 101.071V102.279C62.8624 102.338 62.8368 102.393 62.7857 102.444L61.3502 103.762C61.3356 103.777 61.332 103.791 61.3393 103.806C61.3393 103.821 61.3539 103.828 61.3831 103.828C62.0186 103.953 62.4715 104.33 62.7418 104.959Z" fill="#252530"></path></svg>