<svg xmlns="http://www.w3.org/2000/svg" width="328.466" height="344.873" viewBox="0 0 328.466 344.873"><g id="Group_4189" data-name="Group 4189" transform="translate(333.689 185.121) rotate(135)"><g id="Group_4184" data-name="Group 4184" transform="translate(6.317 1.069)"><g id="Group_4183" data-name="Group 4183"><path id="Path_21234" data-name="Path 21234" d="M2.089,249.841C58.55,268.228,120.9,239.833,162.55,197.969c20.525-20.631,36.8-49.053,32.4-80.582-1.906-13.648-7.657-26.854-17.744-35.544-6.138-5.289-14.706-9.593-22.347-5.493-11.633,6.242-5.644,20.807,4.84,23.6,19.5,5.189,30.352-25.022,33.831-40.511,4.08-18.164,3.717-37,2.113-55.49-.456-5.267,7.156-5.256,7.586,0,1.806,22.134,1.7,45.059-5.012,66.312-4.873,15.426-13.84,33.074-29.668,37.138-11.567,2.969-26.006-5.277-27.584-18.869-1.661-14.3,12.09-23.249,23.808-21.583,32.683,4.648,42.43,51.32,36.093,80.176-8.816,40.143-43.573,69.377-75.292,88.146-37.824,22.379-82.564,33-124.391,18.142-2.069-.736-1.209-4.255.9-3.567Z" transform="translate(0 0)" fill="#4fa83d"></path></g></g><g id="Group_4186" data-name="Group 4186" transform="translate(187.111 0)"><g id="Group_4185" data-name="Group 4185"><path id="Path_21235" data-name="Path 21235" d="M1.911,24.085C7.455,26,12.96,8.141,14.1,5.268,15.078,2.809,16.176-.14,19.443.005c3.489.154,5.577,4.961,7.174,7.321,3.951,5.836,8.085,11.589,11.769,17.6,1.8,2.931-2.564,5.284-4.513,2.638-3.4-4.614-6.486-9.472-9.674-14.233-.7-1.05-3.669-6.981-5.118-6.688-.318.064-1.6,4.629-1.7,4.872C15.008,17.162,9.8,27.083,2.986,28.108a2,2,0,0,1-2.137-.87l-.634-.947a1.516,1.516,0,0,1,1.7-2.206Z" fill="#4fa83d"></path></g></g><g id="Group_4188" data-name="Group 4188" transform="translate(0 248.808)"><g id="Group_4187" data-name="Group 4187" transform="translate(0 0)"><path id="Path_21236" data-name="Path 21236" d="M5.573,10.688a2.867,2.867,0,0,1-1.92-4.931,1.358,1.358,0,0,1,1.321-.349,5.726,5.726,0,0,1,3.914,4.657A1.54,1.54,0,0,1,8.2,11.747C4.255,13.532,1.2,9.3.341,5.856-.085,4.152-.057,2.189,1.4.98,3.122-.446,5.346.291,6.868,1.62c2.784,2.429,5.252,7.737,1.55,10.513C4.805,14.843.654,10.588.087,7.072-.51,3.364,2.013-.181,5.938.007c3.524.17,6.56,3.457,4.981,7-1.679,3.766-6.966,4.406-9.1.707a5.4,5.4,0,0,1-.19-5.125C2.638.718,4.839-.053,6.553,1.412A22.158,22.158,0,0,1,9.232,4.63,5.594,5.594,0,0,1,10.74,7.707a3.846,3.846,0,0,1-3.015,3.856A4.9,4.9,0,0,1,2.581,9.98C.969,7.989.987,5.317,1.186,2.894c.076-.919.789-1.956,1.85-1.85a7.906,7.906,0,0,1,7.232,8.612c-.117.922-.768,1.989-1.876,1.875A5.1,5.1,0,0,1,4.964,3.18c1.542-1.867,4.188.806,2.658,2.659A1.4,1.4,0,0,0,8.393,7.78L6.518,9.656A4.217,4.217,0,0,0,3.036,4.744l1.851-1.85c-.117,1.328-.654,5.165,1.459,5.2.844.014.733-.125.487-.662a15.832,15.832,0,0,0-2.38-3.016q-.381-.359.285-.048a1.145,1.145,0,0,0-.092.579c.16.461.1.9.478,1.3a1.493,1.493,0,0,0,2.287-.215c1.2-1.425-.477-2.579-1.852-2.545C3.69,3.536,3.144,5.5,3.6,7.058A3.566,3.566,0,0,0,5.324,9.3c1.166.529,1.646-.441,1.518-1.5A6.576,6.576,0,0,0,5.195,4.8c-.568-.667-1.9-1.936-1.752-.3.138,1.506,1.664,5.313,3.613,4.516L5.961,10.461A3.138,3.138,0,0,0,3.928,7.889l1.645-.212q-.434.232,0,.559a1.227,1.227,0,0,1,0,2.452Z" fill="#4fa83d"></path></g></g></g></svg>