<svg xmlns="http://www.w3.org/2000/svg" width="66" height="66" viewBox="0 0 66 66"><g id="HTML5_Compatibility" data-name="HTML5 Compatibility" transform="translate(-4169 -4413)"><circle id="Ellipse_2069" data-name="Ellipse 2069" cx="33" cy="33" r="33" transform="translate(4169 4413)" fill="#fff" opacity="0.085"></circle><g id="Group_44277" data-name="Group 44277" transform="translate(540.923 -38.112)"><path id="Path_54394" data-name="Path 54394" d="M169.75,51h24.124c.466.16.794.43.758.971q-.1,1.454-.215,2.907c-.106,1.361-.218,2.734-.324,4.1-.085,1.073-.171,2.147-.249,3.22q-.16,2.051-.326,4.1c-.084,1.073-.171,2.147-.247,3.22q-.16,2.065-.328,4.13c-.063.816-.135,1.633-.184,2.45a1.076,1.076,0,0,1-.874,1.053c-1.825.558-3.641,1.141-5.462,1.716l-4.552,1.448h-.114l-.488-.151L176.98,78.8q-2.647-.837-5.292-1.669a.979.979,0,0,1-.8-.92c-.031-.476-.072-.951-.109-1.425-.126-1.575-.256-3.152-.381-4.727-.106-1.349-.2-2.7-.307-4.047-.125-1.575-.258-3.152-.381-4.727-.106-1.349-.2-2.7-.307-4.047-.128-1.672-.266-3.343-.389-5.013C168.954,51.458,169.055,51.311,169.75,51Zm4.738,16.645v.162q.181,2.409.36,4.817c.014.189.121.231.268.277l6.5,2.041a.687.687,0,0,0,.384,0l6.5-2.041c.143-.044.261-.083.272-.274.029-.543.075-1.084.118-1.624q.121-1.582.244-3.164.188-2.337.377-4.673a1.392,1.392,0,0,0-.021-.216H178.05c-.283,0-.362-.1-.369-.356s-.056-.548-.085-.823l-.239-2.235h12.085c.259,0,.362-.046.376-.34.043-.828.121-1.653.2-2.478.038-.4.046-.4-.357-.4h-15.7c-.111,0-.224.012-.367.022.02.242.039.458.056.68.1,1.349.2,2.7.307,4.048.125,1.585.266,3.171.372,4.763.02.3.111.356.387.354q5.442-.014,10.884,0h.353c-.1,1.281-.195,2.516-.278,3.742a.288.288,0,0,1-.07.2.291.291,0,0,1-.191.1c-1.1.287-2.193.594-3.291.885a.8.8,0,0,1-.391,0c-1.118-.293-2.229-.6-3.347-.891-.2-.051-.232-.143-.231-.318v-2c0-.216-.067-.276-.278-.272-.683.012-1.379,0-2.067,0Z" transform="translate(3479.077 4419.112)" fill="#4fa83d"></path><path id="Path_54395" data-name="Path 54395" d="M200.9,98.344h1.322c.685,0,1.382.009,2.074,0,.212,0,.284.056.279.273-.012.67,0,1.339,0,2.01,0,.171.034.268.231.319,1.122.29,2.237.6,3.359.894a.8.8,0,0,0,.392,0c1.1-.292,2.2-.6,3.3-.887a.29.29,0,0,0,.262-.3c.084-1.239.182-2.477.279-3.753H201.127c-.278,0-.368-.058-.389-.355-.106-1.594-.248-3.184-.373-4.777-.106-1.353-.205-2.708-.308-4.061-.017-.217-.036-.433-.057-.682.144-.01.257-.022.368-.022h15.757c.4,0,.4,0,.358.4-.075.827-.154,1.655-.2,2.486-.014.29-.117.341-.377.341q-5.878-.01-11.756,0h-.37l.24,2.242c.029.276.079.551.086.826s.086.358.37.357q5.546-.013,11.093,0h.389a1.422,1.422,0,0,1,.021.217q-.187,2.344-.379,4.687-.127,1.587-.245,3.173c-.043.543-.089,1.085-.118,1.629-.01.191-.128.23-.272.275l-6.522,2.047a.688.688,0,0,1-.385,0l-6.522-2.047c-.147-.046-.255-.089-.269-.278q-.171-2.416-.361-4.832A1.12,1.12,0,0,1,200.9,98.344Z" transform="translate(3452.644 4388.416)" fill="#cae2bc"></path></g></g></svg>