<svg xmlns="http://www.w3.org/2000/svg" width="226.32" height="116.187" viewBox="0 0 226.32 116.187"><g id="Group_5424" data-name="Group 5424" transform="translate(-1197.788 -2185.769)"><g id="Group_3419" data-name="Group 3419" transform="translate(1197.788 2185.769)"><rect id="Rectangle_3537" data-name="Rectangle 3537" width="195.464" height="77.612" rx="13" transform="translate(0 0)" fill="#cae2bc"/><g id="Group_3416" data-name="Group 3416" transform="translate(21.023 20.604)"><path id="Path_14017" data-name="Path 14017" d="M415.478,695.731V659.326h7.35v14.328h14.4V659.326h7.35v36.405h-7.35V679.813h-14.4v15.919Z" transform="translate(-415.478 -659.326)" fill="#59a52c"/><path id="Path_14018" data-name="Path 14018" d="M456.055,695.731V665.484h-10.8v-6.158h28.93v6.158H463.405v30.247Z" transform="translate(-402.259 -659.326)" fill="#59a52c"/><path id="Path_14019" data-name="Path 14019" d="M483.732,695.731V665.484h-10.8v-6.158h28.929v6.158H491.083v30.247Z" transform="translate(-389.971 -659.326)" fill="#59a52c"/><path id="Path_14020" data-name="Path 14020" d="M502.414,695.731V659.326h11.8a42.645,42.645,0,0,1,8.74.547,9.538,9.538,0,0,1,5.24,3.563,11.305,11.305,0,0,1,2.11,7.089,11.891,11.891,0,0,1-1.216,5.637,9.983,9.983,0,0,1-3.091,3.588,10.65,10.65,0,0,1-3.812,1.726,41.926,41.926,0,0,1-7.624.521h-4.793v13.734Zm7.35-30.247v10.33h4.023a19.051,19.051,0,0,0,5.81-.57,4.834,4.834,0,0,0,2.3-1.788,4.9,4.9,0,0,0,.832-2.831,4.7,4.7,0,0,0-1.167-3.278,5.083,5.083,0,0,0-2.956-1.614,35.448,35.448,0,0,0-5.289-.248Z" transform="translate(-376.882 -659.326)" fill="#59a52c"/></g></g><path id="Path_14051" data-name="Path 14051" d="M32.977,0A32.272,32.272,0,0,1,65.544,32.56,33.28,33.28,0,0,1,32.568,65.544,32.272,32.272,0,0,1,0,32.985,33.28,33.28,0,0,1,32.977,0Z" transform="translate(1348.336 2290.883) rotate(-80.783)" fill="#59a52c" stroke="#fff" stroke-width="1"/><g id="Group_3563" data-name="Group 3563" transform="translate(1369.843 2247.691)"><path id="Path_14041" data-name="Path 14041" d="M22.556,19.445C15.064,19.445,7,17.5,7,13.222S15.064,7,22.556,7s15.556,1.948,15.556,6.222S30.048,19.445,22.556,19.445Zm0-9.334c-8.167,0-12.445,2.312-12.445,3.111s4.278,3.111,12.445,3.111S35,14.022,35,13.222,30.723,10.111,22.556,10.111Z" transform="translate(-7 -7)" fill="#fff"/><path id="Path_14042" data-name="Path 14042" d="M22.556,34.945C15.064,34.945,7,33,7,28.723V10.056a1.556,1.556,0,0,1,3.111,0V28.723c0,.8,4.278,3.111,12.445,3.111S35,29.523,35,28.723V10.056a1.556,1.556,0,0,1,3.111,0V28.723C38.112,33,30.048,34.945,22.556,34.945Z" transform="translate(-7 -3.832)" fill="#fff"/><path id="Path_14043" data-name="Path 14043" d="M22.556,19.278C15.064,19.278,7,17.33,7,13.056a1.556,1.556,0,0,1,3.111,0c0,.8,4.278,3.111,12.445,3.111S35,13.855,35,13.056a1.556,1.556,0,0,1,3.111,0C38.112,17.33,30.048,19.278,22.556,19.278Z" transform="translate(-7 2.501)" fill="#fff"/></g></g></svg>