<svg xmlns="http://www.w3.org/2000/svg" width="38" height="25" viewBox="0 0 38 25" fill="none"><path d="M4.12896 10.5597L7.36437 8.78304L10.2826 8.27669L11.552 5.73909L15.0425 2.94758C15.0425 2.94758 18.5325 2.12292 18.8501 1.99561C19.9173 2.05915 20.9783 2.20768 22.0219 2.43977L24.558 3.96246L26.909 5.73909L27.5412 7.64228L28.7478 9.48256V11.3228H31.921L33.4441 12.4014L34.4564 13.7338L35.2808 15.7643L35.6615 18.4293L34.4564 20.7766L33.4441 22.0454L31.921 22.9337L29.1928 23.6318H14.4081L8.95241 23.2513L6.60497 22.363L4.51113 20.7766L3.05025 19L2.22656 16.4624V14.178L3.05025 12.4014L4.12896 10.5597Z" fill="#59A52C"></path><path d="M30.2442 9.64448C29.7874 7.33393 28.6239 5.22241 26.9147 3.60194C25.2055 1.98148 23.035 0.93215 20.7034 0.599076C18.3718 0.266002 15.9943 0.665642 13.8998 1.74273C11.8052 2.81982 10.0971 4.52114 9.01163 6.61137C6.69701 6.86187 4.56655 7.99038 3.05901 9.76451C1.55146 11.5386 0.781586 13.8233 0.90795 16.148C1.03431 18.4727 2.04731 20.6604 3.73827 22.2607C5.42924 23.861 7.66944 24.7519 9.99757 24.75H29.7132C31.6759 24.755 33.5637 23.9966 34.9775 22.6351C36.3913 21.2736 37.2203 19.4158 37.2892 17.4542C37.3582 15.4927 36.6617 13.5812 35.347 12.1238C34.0323 10.6664 32.2024 9.77732 30.2442 9.64448ZM29.7132 21.7169H9.99395C8.38499 21.7169 6.84196 21.0778 5.70425 19.9401C4.56654 18.8023 3.92738 17.2593 3.92738 15.6503C3.92738 14.0413 4.56654 12.4983 5.70425 11.3606C6.84196 10.2229 8.38499 9.58373 9.99395 9.58373H11.0711C11.6195 7.64641 12.8504 5.9729 14.5364 4.8722C16.2224 3.7715 18.2496 3.31791 20.2439 3.59517C22.2382 3.87242 24.0648 4.8618 25.3866 6.38066C26.7084 7.89951 27.4361 9.84528 27.4353 11.8587V12.6197H29.7103C30.907 12.6348 32.0496 13.1208 32.8905 13.9724C33.7314 14.824 34.203 15.9726 34.203 17.1694C34.203 18.3662 33.7314 19.5148 32.8905 20.3664C32.0496 21.218 30.907 21.704 29.7103 21.7191L29.7132 21.7169Z" fill="#59A52C"></path><path d="M25.7635 14.218H11.8023C11.4113 14.218 11.0364 14.0627 10.7599 13.7862C10.4835 13.5097 10.3281 13.1348 10.3281 12.7438V12.7438C10.3281 12.3528 10.4835 11.9778 10.7599 11.7013C11.0364 11.4248 11.4113 11.2695 11.8023 11.2695H25.7635C26.1545 11.2695 26.5295 11.4248 26.806 11.7013C27.0824 11.9778 27.2378 12.3528 27.2378 12.7438C27.2378 12.9374 27.1998 13.1291 27.1257 13.308C27.0517 13.487 26.9431 13.6495 26.8062 13.7864C26.6693 13.9233 26.5067 14.0319 26.3278 14.106C26.1489 14.18 25.9572 14.2181 25.7635 14.218V14.218Z" fill="#CAE2BC"></path><path d="M25.7635 18.9238H11.8023C11.4113 18.9238 11.0364 18.7685 10.7599 18.492C10.4835 18.2155 10.3281 17.8406 10.3281 17.4496V17.4496C10.3281 17.0586 10.4835 16.6836 10.7599 16.4071C11.0364 16.1306 11.4113 15.9753 11.8023 15.9753H25.7635C25.9572 15.9752 26.1489 16.0133 26.3278 16.0874C26.5067 16.1614 26.6693 16.27 26.8062 16.4069C26.9431 16.5438 27.0517 16.7064 27.1257 16.8853C27.1998 17.0642 27.2378 17.256 27.2378 17.4496C27.2378 17.8406 27.0824 18.2155 26.806 18.492C26.5295 18.7685 26.1545 18.9238 25.7635 18.9238Z" fill="#CAE2BC"></path><path d="M13.1779 12.744C13.1779 12.9586 13.1143 13.1684 12.9951 13.3468C12.8758 13.5253 12.7064 13.6643 12.5081 13.7465C12.3099 13.8286 12.0917 13.8501 11.8812 13.8082C11.6707 13.7663 11.4774 13.663 11.3256 13.5112C11.1739 13.3595 11.0705 13.1662 11.0287 12.9557C10.9868 12.7452 11.0083 12.527 11.0904 12.3288C11.1726 12.1305 11.3116 11.961 11.49 11.8418C11.6685 11.7226 11.8783 11.6589 12.0929 11.6589C12.3807 11.6589 12.6567 11.7732 12.8601 11.9767C13.0636 12.1802 13.1779 12.4562 13.1779 12.744V12.744Z" fill="white"></path><path d="M13.1779 17.4486C13.1779 17.6632 13.1143 17.873 12.9951 18.0514C12.8758 18.2298 12.7064 18.3689 12.5081 18.451C12.3099 18.5332 12.0917 18.5547 11.8812 18.5128C11.6707 18.4709 11.4774 18.3676 11.3256 18.2159C11.1739 18.0641 11.0705 17.8708 11.0287 17.6603C10.9868 17.4498 11.0083 17.2316 11.0904 17.0333C11.1726 16.8351 11.3116 16.6656 11.49 16.5464C11.6685 16.4272 11.8783 16.3635 12.0929 16.3635C12.3807 16.3635 12.6567 16.4778 12.8601 16.6813C13.0636 16.8848 13.1779 17.1608 13.1779 17.4486V17.4486Z" fill="white"></path></svg>