<svg xmlns="http://www.w3.org/2000/svg" width="577" height="397" viewBox="0 0 577 397" fill="none"><g filter="url(#filter0_b_3176_22886)"><path d="M0.361816 14.201C0.361816 6.35801 6.71983 0 14.5628 0H562.161C570.004 0 576.362 6.35802 576.362 14.201V382.261C576.362 390.104 570.004 396.462 562.161 396.462H14.5629C6.71987 396.462 0.361816 390.104 0.361816 382.261V14.201Z" fill="url(#paint0_linear_3176_22886)"></path><path d="M0.5985 14.201C0.5985 6.48873 6.85055 0.236684 14.5628 0.236684H562.161C569.873 0.236684 576.125 6.48873 576.125 14.201V382.261C576.125 389.973 569.873 396.225 562.161 396.225H14.5629C6.85059 396.225 0.5985 389.973 0.5985 382.261V14.201Z" stroke="url(#paint1_linear_3176_22886)" stroke-opacity="0.6" stroke-width="0.473368"></path></g><path d="M0.361816 14.201C0.361816 6.35802 6.71983 0 14.5628 0H562.161C570.004 0 576.362 6.35802 576.362 14.201V46.7258H0.361816V14.201Z" fill="black" fill-opacity="0.33"></path><circle cx="28.3155" cy="25.3658" r="4.58599" fill="#59A52C"></circle><circle cx="44.8252" cy="25.3658" r="4.58599" fill="#59A52C"></circle><circle cx="61.335" cy="25.3658" r="4.58599" fill="#59A52C"></circle><rect x="272.87" y="114.882" width="285.346" height="256.022" rx="2.97663" fill="#141615"></rect><rect x="76.7881" y="114.882" width="186.395" height="229.159" rx="4.64621" fill="#141615"></rect><path d="M206.017 238.518L203.258 233.713L212.479 233.564L218.149 238.518H206.017Z" fill="#171717"></path><path d="M203.277 233.715V223.347H212.464L212.507 233.797L203.277 233.715Z" fill="#171717"></path><path fill-rule="evenodd" clip-rule="evenodd" d="M192.625 231.548C192.306 231.611 191.975 231.645 191.637 231.645C188.836 231.645 186.566 229.354 186.566 226.528C186.566 223.702 188.836 221.411 191.637 221.411C194.437 221.411 196.707 223.702 196.707 226.528C196.707 227.246 196.561 227.929 196.296 228.548C196.633 228.713 196.939 228.954 197.189 229.27L205.597 239.899C206.499 241.039 206.323 242.715 205.204 243.643C204.085 244.571 202.448 244.399 201.546 243.259L193.138 232.63C192.88 232.303 192.71 231.932 192.625 231.548ZM194.426 226.528C194.426 228.082 193.177 229.342 191.637 229.342C190.097 229.342 188.848 228.082 188.848 226.528C188.848 224.974 190.097 223.714 191.637 223.714C193.177 223.714 194.426 224.974 194.426 226.528Z" fill="#272828"></path><path fill-rule="evenodd" clip-rule="evenodd" d="M193.839 231.126C193.506 231.197 193.161 231.235 192.808 231.235C190.095 231.235 187.896 229.036 187.896 226.323C187.896 223.61 190.095 221.411 192.808 221.411C195.52 221.411 197.719 223.61 197.719 226.323C197.719 227.106 197.536 227.846 197.21 228.503C197.605 228.655 197.966 228.909 198.251 229.261L206.486 239.428C207.352 240.497 207.187 242.067 206.118 242.933C205.048 243.8 203.479 243.635 202.612 242.565L194.377 232.398C194.07 232.019 193.893 231.577 193.839 231.126ZM195.51 226.323C195.51 227.815 194.3 229.024 192.808 229.024C191.316 229.024 190.107 227.815 190.107 226.323C190.107 224.831 191.316 223.622 192.808 223.622C194.3 223.622 195.51 224.831 195.51 226.323Z" fill="#0D0D0D"></path><path d="M151.483 312.613C125.448 305.219 118.667 286.731 118.203 277.355H157.129C164.558 308.413 192.997 312.173 202.753 311.476C202.753 311.476 187.257 313.212 177.284 313.439C165.337 313.71 151.483 312.613 151.483 312.613Z" fill="#272828"></path><path d="M192.996 181.357C194.005 167.11 184.225 153.715 179.287 148.924C201.915 138.77 215.259 154.517 218.707 162.502C222.517 167.842 225.009 177.297 225.778 181.357V230.094H214.858V223.065H203.271V231.1H197.262L192.415 228.434L192.996 181.357Z" fill="#272828"></path><path d="M175.666 189.301C174.086 174.878 160.938 173.889 154.561 175.197L154.84 277.393C167.52 278.375 173.297 270.576 174.6 266.553L175.666 189.301Z" fill="#4FA83D"></path><path d="M193.118 139.383C162.604 140.182 152.682 163.278 153.25 175.051H161.839C162.671 164.478 172.095 154.007 176.674 150.434C184.083 145.606 192.942 145.717 196.446 146.376C209.266 146.876 218.368 160.459 221.317 167.189C223.481 171.018 224.844 179.121 225.255 182.694V195.964V230.312H229.449V268.454C228.969 280.277 225.388 288.558 223.657 291.22C215.989 305.758 198.57 307.885 190.467 306.758C175.094 300.663 166.015 280.242 166.681 274.916C165.722 276.674 159.193 277.625 157.129 277.558C156.81 290.818 171.935 303.136 178.525 306.997C197.217 315.144 212.408 310.391 217.666 306.997C231.086 300.926 236.971 281.834 238.235 273.048V230.312H233.243V180.187C228.77 146.638 204.634 138.718 193.118 139.383Z" fill="#0D0D0D"></path><path d="M152.18 139.812C126.922 145.012 118.393 166.057 117.465 175.266H153.107C154.222 151.122 177.562 141.128 188.86 139.812H152.18Z" fill="#272828"></path><path d="M108.987 175.074C101.779 174.91 98.475 179.511 97.7242 181.832L96.7002 270.505C100.304 276.403 108.714 277.604 112.469 277.468H154.246C163.092 274.683 165.168 266.75 165.099 263.133V190.023C164.772 179.374 157.863 175.62 154.45 175.074H108.987Z" fill="#9BC493"></path><path d="M203.25 221.797H214.933V229.876H217.941H224.951H229.432L229.602 236.364L224.951 233.589L218.155 233.539V238.524L212.503 233.589H203.25V221.797Z" fill="#0D0D0D"></path><rect x="95.686" y="181.493" width="65.5966" height="90.0555" rx="10.7889" fill="#0D0D0D"></rect><path fill-rule="evenodd" clip-rule="evenodd" d="M104.508 179.579C98.5491 179.579 93.7188 184.409 93.7188 190.367V262.24C93.7188 268.199 98.5491 273.029 104.508 273.029H148.527C151.816 273.029 154.762 271.557 156.741 269.235C154.978 270.489 152.822 271.227 150.494 271.227H106.475C100.517 271.227 95.6862 266.396 95.6862 260.438V192.425C95.6862 186.466 100.517 181.636 106.475 181.636H150.494C153.047 181.636 155.393 182.523 157.24 184.005C155.278 181.321 152.106 179.579 148.527 179.579H104.508Z" fill="#272828"></path><ellipse cx="173.215" cy="226.521" rx="6.60398" ry="9.5863" fill="#333131"></ellipse><ellipse cx="174.635" cy="226.521" rx="6.60398" ry="9.5863" fill="#0D0D0D"></ellipse><path d="M177.481 226.521C177.481 227.813 177.119 228.953 176.569 229.752C176.017 230.554 175.322 230.957 174.635 230.957C173.948 230.957 173.253 230.554 172.701 229.752C172.151 228.953 171.789 227.813 171.789 226.521C171.789 225.229 172.151 224.089 172.701 223.291C173.253 222.489 173.948 222.086 174.635 222.086C175.322 222.086 176.017 222.489 176.569 223.291C177.119 224.089 177.481 225.229 177.481 226.521Z" stroke="#333131" stroke-width="1.34861"></path><path d="M188.685 194.586V182.96H213.243H223.495V194.586H213.243H188.685Z" fill="#88CF7A"></path><path d="M223.496 194.586V182.96H234.592H239.225V194.586H234.592H223.496Z" fill="#4FA83D"></path><path fill-rule="evenodd" clip-rule="evenodd" d="M197.025 233.781H203.301L206.039 238.51H218.156V233.539H224.978L229.492 236.271C229.492 241.809 229.452 251.162 229.421 258.311L229.421 258.313V258.313V258.314L229.421 258.315C229.402 262.735 229.387 266.311 229.387 267.621C229.289 274.764 227.111 290.762 219.191 297.619C215.792 301.018 205.683 308.639 190.651 306.811C187.757 306.459 186.176 305.119 184.147 303.401H184.147L184.143 303.398L184.142 303.396C184.002 303.278 183.86 303.158 183.716 303.036C184.473 302.179 185.597 301.051 186.851 299.791L186.851 299.791L186.851 299.791C189.924 296.706 193.781 292.833 194.956 290.23C195.646 289.245 197.025 284.645 197.025 274.123V233.781ZM218.767 271.089H206.625V276.46H218.767V271.089ZM206.625 258.301H218.767V263.672H206.625V258.301ZM218.606 246.567H206.463V251.938H218.606V246.567Z" fill="#272828"></path><path fill-rule="evenodd" clip-rule="evenodd" d="M231.837 232.552C231.518 232.616 231.187 232.649 230.849 232.649C228.048 232.649 225.778 230.359 225.778 227.533C225.778 224.707 228.048 222.416 230.849 222.416C233.649 222.416 235.919 224.707 235.919 227.533C235.919 228.25 235.772 228.933 235.508 229.553C235.845 229.718 236.151 229.959 236.401 230.275L244.809 240.904C245.711 242.044 245.535 243.72 244.416 244.648C243.298 245.576 241.66 245.404 240.758 244.264L232.35 233.635C232.092 233.308 231.922 232.937 231.837 232.552ZM233.637 227.533C233.637 229.087 232.389 230.347 230.849 230.347C229.309 230.347 228.06 229.087 228.06 227.533C228.06 225.979 229.309 224.719 230.849 224.719C232.389 224.719 233.637 225.979 233.637 227.533Z" fill="#272828"></path><path fill-rule="evenodd" clip-rule="evenodd" d="M233.05 232.131C232.718 232.202 232.373 232.24 232.02 232.24C229.307 232.24 227.108 230.04 227.108 227.328C227.108 224.615 229.307 222.416 232.02 222.416C234.732 222.416 236.931 224.615 236.931 227.328C236.931 228.111 236.748 228.851 236.422 229.508C236.816 229.66 237.177 229.914 237.462 230.266L245.697 240.433C246.564 241.503 246.399 243.072 245.329 243.938C244.26 244.805 242.69 244.64 241.824 243.57L233.589 233.403C233.282 233.024 233.104 232.582 233.05 232.131ZM234.721 227.328C234.721 228.82 233.511 230.029 232.019 230.029C230.527 230.029 229.318 228.82 229.318 227.328C229.318 225.836 230.527 224.626 232.019 224.626C233.511 224.626 234.721 225.836 234.721 227.328Z" fill="#0D0D0D"></path><rect x="202.761" y="224.347" width="7.72705" height="2.17428" fill="#272828"></rect><rect x="203.518" y="229.106" width="8.91762" height="4.69079" fill="#272828"></rect><rect x="196.97" y="231.1" width="6.54746" height="2.69721" fill="#0D0D0D"></rect><path d="M115.754 211.658L115.354 214.302C115.228 215.145 115.024 215.963 114.743 216.757C114.469 217.544 114.097 218.253 113.626 218.885C113.156 219.518 112.573 220.016 111.877 220.382C111.182 220.74 110.349 220.908 109.38 220.887C108.643 220.873 108.014 220.736 107.494 220.476C106.981 220.216 106.56 219.872 106.23 219.444C105.907 219.008 105.661 218.513 105.492 217.958C105.331 217.396 105.236 216.806 105.208 216.188C105.187 215.563 105.215 214.938 105.292 214.313L105.682 211.658C105.808 210.822 106.012 210.011 106.293 209.224C106.574 208.437 106.95 207.731 107.42 207.106C107.891 206.474 108.474 205.982 109.169 205.631C109.872 205.273 110.704 205.104 111.666 205.125C112.404 205.139 113.029 205.276 113.542 205.536C114.062 205.789 114.483 206.13 114.806 206.558C115.136 206.987 115.382 207.478 115.544 208.033C115.712 208.588 115.807 209.175 115.828 209.793C115.856 210.411 115.832 211.033 115.754 211.658ZM112.341 214.713L112.857 211.226C112.885 210.973 112.913 210.688 112.941 210.372C112.976 210.049 112.983 209.723 112.962 209.392C112.948 209.062 112.892 208.757 112.794 208.476C112.703 208.188 112.552 207.956 112.341 207.78C112.13 207.598 111.842 207.496 111.477 207.475C110.971 207.454 110.55 207.563 110.213 207.802C109.882 208.033 109.615 208.346 109.412 208.739C109.215 209.133 109.064 209.551 108.959 209.993C108.853 210.436 108.769 210.853 108.706 211.247L108.2 214.724C108.172 214.977 108.14 215.265 108.105 215.588C108.077 215.911 108.07 216.241 108.084 216.578C108.105 216.915 108.162 217.228 108.253 217.516C108.344 217.804 108.495 218.039 108.706 218.222C108.917 218.404 109.205 218.506 109.57 218.527C110.076 218.555 110.497 218.45 110.834 218.211C111.171 217.965 111.438 217.646 111.635 217.252C111.839 216.852 111.993 216.427 112.098 215.977C112.204 215.521 112.285 215.099 112.341 214.713ZM118.694 218.369H118.852C119.611 218.383 120.302 218.292 120.928 218.095C121.56 217.899 122.115 217.604 122.592 217.21C123.07 216.817 123.46 216.332 123.762 215.756C124.064 215.173 124.271 214.506 124.383 213.754L124.784 210.836C124.819 210.541 124.833 210.204 124.826 209.824C124.819 209.445 124.766 209.08 124.668 208.729C124.577 208.378 124.415 208.086 124.183 207.854C123.958 207.615 123.635 207.492 123.214 207.485C122.828 207.478 122.487 207.573 122.192 207.77C121.897 207.96 121.648 208.212 121.444 208.529C121.24 208.845 121.079 209.185 120.959 209.551C120.84 209.916 120.766 210.26 120.738 210.583C120.703 210.885 120.699 211.201 120.727 211.531C120.756 211.854 120.829 212.163 120.949 212.458C121.068 212.746 121.24 212.985 121.465 213.175C121.697 213.358 121.999 213.452 122.371 213.459C122.715 213.466 123.031 213.41 123.319 213.291C123.607 213.164 123.864 212.992 124.088 212.775C124.313 212.55 124.499 212.297 124.647 212.016C124.794 211.728 124.896 211.426 124.952 211.11L125.88 211.658C125.816 212.199 125.658 212.715 125.405 213.206C125.16 213.691 124.84 214.123 124.447 214.502C124.053 214.882 123.607 215.18 123.109 215.398C122.61 215.616 122.08 215.721 121.518 215.714C120.815 215.7 120.215 215.549 119.716 215.261C119.217 214.966 118.813 214.576 118.504 214.092C118.202 213.6 117.988 213.055 117.862 212.458C117.742 211.861 117.711 211.247 117.767 210.615C117.83 209.87 118.013 209.164 118.315 208.497C118.624 207.83 119.028 207.24 119.526 206.727C120.025 206.214 120.605 205.814 121.265 205.526C121.932 205.231 122.652 205.094 123.425 205.115C124.275 205.136 124.987 205.333 125.563 205.705C126.139 206.07 126.596 206.558 126.933 207.169C127.277 207.773 127.506 208.441 127.618 209.171C127.737 209.895 127.758 210.625 127.681 211.363L127.544 212.427C127.425 213.389 127.204 214.299 126.88 215.156C126.557 216.006 126.143 216.778 125.637 217.474C125.139 218.162 124.548 218.759 123.867 219.265C123.186 219.763 122.417 220.15 121.56 220.424C120.71 220.698 119.776 220.835 118.757 220.835H118.452L118.694 218.369Z" fill="#CAE2BC"></path><path d="M108.656 235.727L110.11 235.748C110.58 235.734 111.005 235.643 111.384 235.474C111.771 235.298 112.083 235.042 112.322 234.705C112.561 234.368 112.709 233.96 112.765 233.483C112.814 233.096 112.779 232.759 112.659 232.471C112.547 232.176 112.361 231.944 112.101 231.776C111.841 231.607 111.514 231.52 111.121 231.513C110.735 231.505 110.384 231.579 110.067 231.734C109.758 231.881 109.499 232.092 109.288 232.366C109.077 232.64 108.937 232.963 108.866 233.335L105.895 233.356C105.951 232.45 106.239 231.681 106.759 231.049C107.286 230.417 107.943 229.939 108.729 229.616C109.516 229.293 110.334 229.135 111.184 229.142C112.055 229.156 112.849 229.328 113.565 229.658C114.282 229.981 114.844 230.462 115.251 231.102C115.659 231.734 115.831 232.517 115.767 233.451C115.732 234.097 115.553 234.666 115.23 235.158C114.907 235.643 114.493 236.047 113.987 236.37C113.488 236.693 112.944 236.939 112.354 237.107C111.771 237.269 111.188 237.349 110.605 237.349L108.403 237.339L108.656 235.727ZM108.297 238.034L108.55 236.464L110.436 236.475C111.033 236.489 111.606 236.573 112.154 236.728C112.709 236.882 113.197 237.114 113.618 237.423C114.047 237.725 114.377 238.119 114.608 238.603C114.84 239.088 114.939 239.664 114.904 240.331C114.854 241.09 114.658 241.761 114.313 242.344C113.976 242.927 113.534 243.411 112.986 243.797C112.445 244.184 111.838 244.472 111.163 244.661C110.496 244.851 109.811 244.942 109.109 244.935C108.441 244.921 107.823 244.812 107.254 244.609C106.692 244.398 106.201 244.103 105.779 243.724C105.358 243.344 105.035 242.884 104.81 242.344C104.585 241.803 104.476 241.188 104.483 240.5L107.423 240.51C107.423 240.904 107.497 241.251 107.644 241.553C107.792 241.855 108.006 242.094 108.287 242.27C108.575 242.445 108.923 242.537 109.33 242.544C109.787 242.551 110.204 242.463 110.584 242.28C110.963 242.098 111.272 241.838 111.511 241.501C111.757 241.156 111.908 240.756 111.964 240.3C112.027 239.822 111.989 239.422 111.848 239.098C111.715 238.768 111.493 238.515 111.184 238.34C110.875 238.157 110.489 238.059 110.025 238.045L108.297 238.034ZM127.694 235.695L127.294 238.34C127.167 239.183 126.964 240.001 126.683 240.795C126.409 241.581 126.037 242.291 125.566 242.923C125.095 243.555 124.512 244.054 123.817 244.419C123.122 244.777 122.289 244.946 121.32 244.925C120.582 244.911 119.954 244.774 119.434 244.514C118.921 244.254 118.5 243.91 118.17 243.481C117.847 243.046 117.601 242.551 117.432 241.996C117.271 241.434 117.176 240.844 117.148 240.226C117.127 239.601 117.155 238.976 117.232 238.35L117.622 235.695C117.748 234.859 117.952 234.048 118.233 233.261C118.514 232.475 118.89 231.769 119.36 231.144C119.831 230.512 120.414 230.02 121.109 229.669C121.812 229.31 122.644 229.142 123.606 229.163C124.344 229.177 124.969 229.314 125.482 229.574C126.001 229.827 126.423 230.167 126.746 230.596C127.076 231.024 127.322 231.516 127.483 232.071C127.652 232.626 127.747 233.212 127.768 233.83C127.796 234.449 127.771 235.07 127.694 235.695ZM124.281 238.751L124.797 235.263C124.825 235.01 124.853 234.726 124.881 234.41C124.916 234.087 124.923 233.76 124.902 233.43C124.888 233.1 124.832 232.794 124.734 232.513C124.642 232.225 124.491 231.994 124.281 231.818C124.07 231.635 123.782 231.534 123.417 231.513C122.911 231.491 122.489 231.6 122.152 231.839C121.822 232.071 121.555 232.383 121.352 232.777C121.155 233.17 121.004 233.588 120.898 234.031C120.793 234.473 120.709 234.891 120.646 235.284L120.14 238.761C120.112 239.014 120.08 239.302 120.045 239.625C120.017 239.948 120.01 240.278 120.024 240.616C120.045 240.953 120.101 241.265 120.193 241.553C120.284 241.841 120.435 242.077 120.646 242.259C120.856 242.442 121.144 242.544 121.51 242.565C122.015 242.593 122.437 242.488 122.774 242.249C123.111 242.003 123.378 241.683 123.575 241.29C123.778 240.89 123.933 240.465 124.038 240.015C124.144 239.559 124.224 239.137 124.281 238.751Z" fill="#4FA83D"></path><path d="M133.691 222.005L134.582 218.241H135.08L135.193 218.868L134.244 222.715H133.709L133.691 222.005ZM133.233 218.241L133.97 222.005L133.909 222.715H133.313L132.32 218.241H133.233ZM135.977 221.99L136.705 218.241H137.618L136.628 222.715H136.032L135.977 221.99ZM135.359 218.241L136.256 222.021L136.232 222.715H135.697L134.741 218.865L134.864 218.241H135.359ZM141.121 221.996V222.715H138.739V221.996H141.121ZM139.041 218.241V222.715H138.119V218.241H139.041ZM140.811 220.063V220.764H138.739V220.063H140.811ZM141.118 218.241V218.963H138.739V218.241H141.118ZM143.032 222.715H142.058L142.064 221.996H143.032C143.274 221.996 143.478 221.942 143.644 221.833C143.81 221.723 143.935 221.562 144.019 221.351C144.105 221.14 144.148 220.885 144.148 220.586V220.367C144.148 220.138 144.123 219.936 144.074 219.762C144.027 219.588 143.956 219.441 143.862 219.322C143.768 219.204 143.652 219.115 143.515 219.055C143.378 218.994 143.22 218.963 143.042 218.963H142.04V218.241H143.042C143.341 218.241 143.614 218.292 143.862 218.394C144.112 218.495 144.328 218.639 144.511 218.828C144.693 219.016 144.833 219.242 144.932 219.504C145.032 219.764 145.082 220.054 145.082 220.373V220.586C145.082 220.903 145.032 221.193 144.932 221.455C144.833 221.717 144.693 221.943 144.511 222.131C144.33 222.318 144.114 222.462 143.862 222.565C143.612 222.665 143.336 222.715 143.032 222.715ZM142.581 218.241V222.715H141.659V218.241H142.581Z" fill="#4FA83D"></path><path d="M134.422 228.341V225.241H135.341V228.341C135.341 228.641 135.275 228.898 135.144 229.113C135.013 229.326 134.834 229.49 134.606 229.604C134.381 229.719 134.127 229.777 133.844 229.777C133.551 229.777 133.292 229.727 133.067 229.629C132.841 229.531 132.664 229.38 132.535 229.177C132.406 228.972 132.341 228.713 132.341 228.4H133.266C133.266 228.564 133.289 228.694 133.334 228.79C133.381 228.886 133.448 228.955 133.534 228.996C133.62 229.037 133.723 229.057 133.844 229.057C133.961 229.057 134.062 229.03 134.148 228.974C134.234 228.919 134.301 228.838 134.348 228.732C134.397 228.625 134.422 228.495 134.422 228.341ZM138.598 225.241H139.517V228.197C139.517 228.541 139.443 228.831 139.296 229.067C139.15 229.302 138.948 229.479 138.69 229.598C138.434 229.717 138.139 229.777 137.805 229.777C137.471 229.777 137.174 229.717 136.914 229.598C136.656 229.479 136.453 229.302 136.306 229.067C136.16 228.831 136.087 228.541 136.087 228.197V225.241H137.009V228.197C137.009 228.398 137.041 228.562 137.105 228.689C137.168 228.816 137.259 228.909 137.378 228.968C137.499 229.028 137.641 229.057 137.805 229.057C137.973 229.057 138.116 229.028 138.232 228.968C138.351 228.909 138.441 228.816 138.503 228.689C138.566 228.562 138.598 228.398 138.598 228.197V225.241ZM143.917 225.241V229.715H142.996L141.198 226.716V229.715H140.276V225.241H141.198L142.999 228.243V225.241H143.917ZM149.255 229.024V229.715H146.195V229.125L147.642 227.573C147.787 227.411 147.902 227.269 147.986 227.146C148.07 227.021 148.131 226.909 148.167 226.811C148.206 226.711 148.226 226.615 148.226 226.525C148.226 226.39 148.203 226.274 148.158 226.178C148.113 226.08 148.047 226.004 147.958 225.951C147.872 225.897 147.766 225.871 147.639 225.871C147.504 225.871 147.387 225.904 147.289 225.969C147.192 226.035 147.118 226.126 147.067 226.243C147.018 226.359 146.994 226.492 146.994 226.639H146.105C146.105 226.373 146.169 226.129 146.296 225.908C146.423 225.684 146.602 225.507 146.834 225.376C147.065 225.243 147.34 225.176 147.657 225.176C147.971 225.176 148.235 225.227 148.45 225.33C148.667 225.43 148.831 225.576 148.942 225.766C149.054 225.955 149.111 226.18 149.111 226.442C149.111 226.59 149.087 226.734 149.04 226.876C148.993 227.015 148.925 227.154 148.837 227.294C148.751 227.431 148.647 227.57 148.524 227.711C148.401 227.853 148.265 227.999 148.115 228.151L147.338 229.024H149.255ZM152.943 228.043V228.738H149.719L149.676 228.2L151.542 225.241H152.245L151.483 226.516L150.555 228.043H152.943ZM152.436 225.241V229.715H151.551V225.241H152.436Z" fill="white"></path><path d="M146.53 250.814C146.722 250.814 146.906 250.89 147.041 251.025C147.177 251.161 147.253 251.345 147.253 251.537V252.26C147.253 252.452 147.177 252.636 147.041 252.771C146.906 252.907 146.722 252.983 146.53 252.983C146.338 252.983 146.154 252.907 146.019 252.771C145.883 252.636 145.807 252.452 145.807 252.26V251.537C145.807 251.345 145.883 251.161 146.019 251.025C146.154 250.89 146.338 250.814 146.53 250.814ZM151.133 249.331L151.644 249.842C151.776 249.979 151.849 250.161 151.847 250.351C151.845 250.541 151.769 250.722 151.635 250.856C151.501 250.99 151.32 251.066 151.13 251.068C150.94 251.07 150.758 250.997 150.621 250.865L150.11 250.354C149.978 250.217 149.905 250.035 149.907 249.845C149.909 249.655 149.985 249.474 150.119 249.34C150.253 249.206 150.434 249.13 150.624 249.128C150.813 249.126 150.996 249.199 151.133 249.331ZM141.927 249.331C142.057 249.201 142.232 249.126 142.416 249.12C142.599 249.115 142.778 249.179 142.916 249.301C143.054 249.422 143.14 249.592 143.158 249.775C143.175 249.958 143.122 250.14 143.01 250.286L142.95 250.354L142.439 250.865C142.308 250.995 142.134 251.07 141.95 251.076C141.766 251.081 141.588 251.017 141.45 250.895C141.312 250.774 141.225 250.604 141.208 250.421C141.191 250.238 141.243 250.056 141.356 249.91L141.416 249.842L141.927 249.331ZM146.53 241.412C147.681 241.412 148.785 241.869 149.598 242.682C150.412 243.496 150.869 244.6 150.869 245.751C150.869 246.902 150.412 248.006 149.598 248.819C148.785 249.633 147.681 250.09 146.53 250.09C145.379 250.09 144.275 249.633 143.461 248.819C142.648 248.006 142.19 246.902 142.19 245.751C142.19 244.6 142.648 243.496 143.461 242.682C144.275 241.869 145.379 241.412 146.53 241.412ZM140.744 245.028C140.928 245.028 141.106 245.098 141.24 245.225C141.374 245.352 141.454 245.525 141.465 245.709C141.476 245.893 141.416 246.074 141.298 246.215C141.18 246.356 141.012 246.447 140.829 246.469L140.744 246.474H140.021C139.836 246.474 139.659 246.403 139.525 246.277C139.391 246.15 139.31 245.977 139.3 245.793C139.289 245.609 139.349 245.428 139.467 245.287C139.585 245.145 139.753 245.055 139.936 245.033L140.021 245.028H140.744ZM153.039 245.028C153.231 245.028 153.415 245.104 153.55 245.24C153.686 245.375 153.762 245.559 153.762 245.751C153.762 245.943 153.686 246.127 153.55 246.262C153.415 246.398 153.231 246.474 153.039 246.474H152.316C152.124 246.474 151.94 246.398 151.804 246.262C151.669 246.127 151.593 245.943 151.593 245.751C151.593 245.559 151.669 245.375 151.804 245.24C151.94 245.104 152.124 245.028 152.316 245.028H153.039ZM141.416 240.637C141.54 240.512 141.706 240.438 141.882 240.427C142.058 240.415 142.231 240.469 142.371 240.577L142.439 240.637L142.95 241.148C143.08 241.278 143.155 241.453 143.161 241.637C143.166 241.82 143.102 241.999 142.98 242.137C142.859 242.275 142.689 242.361 142.506 242.379C142.323 242.396 142.141 242.343 141.995 242.231L141.927 242.171L141.416 241.66C141.28 241.524 141.204 241.34 141.204 241.148C141.204 240.956 141.28 240.773 141.416 240.637ZM151.644 240.637C151.78 240.773 151.856 240.956 151.856 241.148C151.856 241.34 151.78 241.524 151.644 241.66L151.133 242.171C151.066 242.24 150.986 242.295 150.898 242.333C150.81 242.371 150.715 242.391 150.619 242.392C150.523 242.393 150.427 242.374 150.339 242.338C150.25 242.301 150.169 242.248 150.101 242.18C150.033 242.112 149.979 242.031 149.943 241.942C149.907 241.853 149.888 241.758 149.889 241.662C149.89 241.566 149.91 241.471 149.948 241.383C149.986 241.295 150.041 241.215 150.11 241.148L150.621 240.637C150.757 240.501 150.941 240.425 151.133 240.425C151.324 240.425 151.508 240.501 151.644 240.637ZM146.53 238.519C146.722 238.519 146.906 238.595 147.041 238.73C147.177 238.866 147.253 239.05 147.253 239.242V239.965C147.253 240.157 147.177 240.341 147.041 240.476C146.906 240.612 146.722 240.688 146.53 240.688C146.338 240.688 146.154 240.612 146.019 240.476C145.883 240.341 145.807 240.157 145.807 239.965V239.242C145.807 239.05 145.883 238.866 146.019 238.73C146.154 238.595 146.338 238.519 146.53 238.519Z" fill="#4FA83D"></path><path d="M146.638 248.021C146.386 246.744 145.698 245.594 144.693 244.767C143.687 243.94 142.425 243.489 141.123 243.489C138.955 243.489 137.072 244.72 136.134 246.52C135.031 246.639 134.011 247.162 133.27 247.987C132.529 248.813 132.12 249.883 132.12 250.992C132.12 253.476 134.138 255.494 136.621 255.494H146.375C148.446 255.494 150.127 253.813 150.127 251.742C150.127 249.762 148.589 248.156 146.638 248.021Z" fill="#CAE2BC"></path><rect x="18.5073" y="113.051" width="40.7983" height="40.8311" rx="5" fill="#141615"></rect><rect x="18.5073" y="168.882" width="40.7983" height="40.8311" rx="5" fill="#141615"></rect><rect x="18.5073" y="224.713" width="40.7983" height="40.8311" rx="5" fill="#141615"></rect><rect x="18.5073" y="280.544" width="40.7983" height="40.8311" rx="5" fill="#141615"></rect><rect x="288.127" y="131.006" width="254.59" height="14" fill="#0D0D0D"></rect><rect x="288.127" y="152.006" width="254.59" height="14" fill="#0D0D0D"></rect><rect x="288.127" y="173.006" width="254.59" height="15" fill="#0D0D0D"></rect><rect x="288.127" y="216.006" width="253.657" height="15" fill="#0D0D0D"></rect><rect x="288.127" y="195.006" width="253.657" height="14" fill="#0D0D0D"></rect><rect x="288.127" y="238.006" width="253.657" height="14" fill="#0D0D0D"></rect><path d="M293.42 271.862L296.691 273.836L295.823 270.115L298.712 267.611L294.907 267.289L293.42 263.78L291.932 267.289L288.127 267.611L291.017 270.115L290.149 273.836L293.42 271.862Z" fill="#CAE2BC"></path><path d="M311.83 271.862L315.101 273.836L314.233 270.115L317.123 267.611L313.318 267.289L311.83 263.78L310.343 267.289L306.538 267.611L309.427 270.115L308.559 273.836L311.83 271.862Z" fill="#CAE2BC"></path><path d="M330.242 271.862L333.513 273.836L332.645 270.115L335.535 267.611L331.73 267.289L330.242 263.78L328.755 267.289L324.95 267.611L327.84 270.115L326.972 273.836L330.242 271.862Z" fill="#CAE2BC"></path><path d="M348.652 271.862L351.923 273.836L351.055 270.115L353.945 267.611L350.139 267.289L348.652 263.78L347.165 267.289L343.359 267.611L346.249 270.115L345.381 273.836L348.652 271.862Z" fill="#CAE2BC"></path><path d="M367.062 271.862L370.333 273.836L369.465 270.115L372.355 267.611L368.55 267.289L367.062 263.78L365.575 267.289L361.77 267.611L364.659 270.115L363.791 273.836L367.062 271.862Z" fill="#CAE2BC"></path><rect x="288.127" y="297.492" width="131.248" height="23.1174" rx="11.5587" fill="#4FA83D" fill-opacity="0.41"></rect><path d="M327.44 306.087L324.892 313.482H323.351L326.562 304.951H327.546L327.44 306.087ZM329.573 313.482L327.019 306.087L326.907 304.951H327.897L331.12 313.482H329.573ZM329.45 310.318V311.484H324.81V310.318H329.45ZM335.802 312.169V304.482H337.22V313.482H335.937L335.802 312.169ZM331.677 310.382V310.259C331.677 309.779 331.733 309.341 331.847 308.947C331.96 308.548 332.124 308.207 332.339 307.921C332.554 307.632 332.815 307.412 333.124 307.259C333.433 307.103 333.78 307.025 334.167 307.025C334.55 307.025 334.886 307.099 335.175 307.248C335.464 307.396 335.71 307.609 335.913 307.886C336.116 308.16 336.278 308.488 336.399 308.871C336.521 309.25 336.606 309.671 336.657 310.136V310.529C336.606 310.982 336.521 311.396 336.399 311.771C336.278 312.146 336.116 312.47 335.913 312.744C335.71 313.017 335.462 313.228 335.169 313.376C334.88 313.525 334.542 313.599 334.155 313.599C333.772 313.599 333.427 313.519 333.118 313.359C332.813 313.199 332.554 312.974 332.339 312.685C332.124 312.396 331.96 312.056 331.847 311.666C331.733 311.271 331.677 310.843 331.677 310.382ZM333.089 310.259V310.382C333.089 310.671 333.114 310.941 333.165 311.191C333.22 311.441 333.304 311.662 333.417 311.853C333.53 312.041 333.677 312.189 333.856 312.298C334.04 312.404 334.259 312.457 334.513 312.457C334.833 312.457 335.097 312.386 335.304 312.246C335.511 312.105 335.673 311.916 335.79 311.677C335.911 311.435 335.993 311.166 336.036 310.869V309.808C336.013 309.578 335.964 309.363 335.89 309.164C335.819 308.964 335.724 308.791 335.603 308.642C335.481 308.49 335.331 308.373 335.151 308.291C334.976 308.205 334.767 308.162 334.524 308.162C334.267 308.162 334.048 308.216 333.868 308.326C333.688 308.435 333.54 308.585 333.423 308.777C333.31 308.968 333.226 309.191 333.171 309.445C333.116 309.699 333.089 309.97 333.089 310.259ZM342.563 312.169V304.482H343.981V313.482H342.698L342.563 312.169ZM338.438 310.382V310.259C338.438 309.779 338.495 309.341 338.608 308.947C338.722 308.548 338.886 308.207 339.101 307.921C339.315 307.632 339.577 307.412 339.886 307.259C340.194 307.103 340.542 307.025 340.929 307.025C341.312 307.025 341.647 307.099 341.937 307.248C342.226 307.396 342.472 307.609 342.675 307.886C342.878 308.16 343.04 308.488 343.161 308.871C343.282 309.25 343.368 309.671 343.419 310.136V310.529C343.368 310.982 343.282 311.396 343.161 311.771C343.04 312.146 342.878 312.47 342.675 312.744C342.472 313.017 342.224 313.228 341.931 313.376C341.642 313.525 341.304 313.599 340.917 313.599C340.534 313.599 340.188 313.519 339.88 313.359C339.575 313.199 339.315 312.974 339.101 312.685C338.886 312.396 338.722 312.056 338.608 311.666C338.495 311.271 338.438 310.843 338.438 310.382ZM339.851 310.259V310.382C339.851 310.671 339.876 310.941 339.927 311.191C339.981 311.441 340.065 311.662 340.179 311.853C340.292 312.041 340.438 312.189 340.618 312.298C340.802 312.404 341.021 312.457 341.274 312.457C341.595 312.457 341.858 312.386 342.065 312.246C342.272 312.105 342.435 311.916 342.552 311.677C342.673 311.435 342.755 311.166 342.798 310.869V309.808C342.774 309.578 342.726 309.363 342.651 309.164C342.581 308.964 342.485 308.791 342.364 308.642C342.243 308.49 342.093 308.373 341.913 308.291C341.737 308.205 341.528 308.162 341.286 308.162C341.028 308.162 340.81 308.216 340.63 308.326C340.45 308.435 340.302 308.585 340.185 308.777C340.071 308.968 339.987 309.191 339.933 309.445C339.878 309.699 339.851 309.97 339.851 310.259ZM351.353 307.142V308.173H347.778V307.142H351.353ZM348.81 305.589H350.222V311.73C350.222 311.925 350.249 312.076 350.304 312.181C350.362 312.283 350.442 312.351 350.544 312.386C350.646 312.421 350.765 312.439 350.901 312.439C350.999 312.439 351.093 312.433 351.183 312.421C351.272 312.41 351.345 312.398 351.399 312.386L351.405 313.464C351.288 313.5 351.151 313.531 350.995 313.558C350.843 313.585 350.667 313.599 350.468 313.599C350.144 313.599 349.856 313.542 349.606 313.429C349.356 313.312 349.161 313.123 349.021 312.861C348.88 312.599 348.81 312.251 348.81 311.818V305.589ZM352.032 310.382V310.248C352.032 309.791 352.099 309.367 352.231 308.976C352.364 308.582 352.556 308.24 352.806 307.951C353.06 307.658 353.368 307.431 353.731 307.271C354.099 307.107 354.513 307.025 354.974 307.025C355.438 307.025 355.853 307.107 356.216 307.271C356.583 307.431 356.894 307.658 357.147 307.951C357.401 308.24 357.595 308.582 357.728 308.976C357.86 309.367 357.927 309.791 357.927 310.248V310.382C357.927 310.839 357.86 311.263 357.728 311.654C357.595 312.044 357.401 312.386 357.147 312.679C356.894 312.968 356.585 313.195 356.222 313.359C355.858 313.519 355.446 313.599 354.985 313.599C354.521 313.599 354.104 313.519 353.737 313.359C353.374 313.195 353.065 312.968 352.812 312.679C352.558 312.386 352.364 312.044 352.231 311.654C352.099 311.263 352.032 310.839 352.032 310.382ZM353.444 310.248V310.382C353.444 310.667 353.474 310.937 353.532 311.191C353.591 311.445 353.683 311.667 353.808 311.859C353.933 312.05 354.093 312.201 354.288 312.31C354.483 312.419 354.716 312.474 354.985 312.474C355.247 312.474 355.474 312.419 355.665 312.31C355.86 312.201 356.021 312.05 356.146 311.859C356.271 311.667 356.362 311.445 356.421 311.191C356.483 310.937 356.515 310.667 356.515 310.382V310.248C356.515 309.966 356.483 309.701 356.421 309.451C356.362 309.197 356.269 308.972 356.14 308.777C356.015 308.582 355.854 308.429 355.659 308.32C355.468 308.207 355.239 308.15 354.974 308.15C354.708 308.15 354.478 308.207 354.282 308.32C354.091 308.429 353.933 308.582 353.808 308.777C353.683 308.972 353.591 309.197 353.532 309.451C353.474 309.701 353.444 309.966 353.444 310.248ZM367.278 310.705H368.743C368.696 311.263 368.54 311.761 368.274 312.199C368.009 312.632 367.636 312.974 367.155 313.224C366.675 313.474 366.091 313.599 365.403 313.599C364.876 313.599 364.401 313.505 363.979 313.318C363.558 313.126 363.196 312.857 362.896 312.509C362.595 312.158 362.364 311.734 362.204 311.238C362.048 310.742 361.97 310.187 361.97 309.574V308.865C361.97 308.251 362.05 307.697 362.21 307.201C362.374 306.705 362.608 306.281 362.913 305.929C363.218 305.574 363.583 305.302 364.009 305.115C364.438 304.927 364.921 304.833 365.456 304.833C366.136 304.833 366.71 304.958 367.179 305.208C367.647 305.458 368.011 305.804 368.269 306.246C368.53 306.687 368.69 307.193 368.749 307.763H367.284C367.245 307.396 367.159 307.082 367.026 306.82C366.897 306.558 366.706 306.359 366.452 306.222C366.198 306.082 365.866 306.011 365.456 306.011C365.12 306.011 364.827 306.074 364.577 306.199C364.327 306.324 364.118 306.507 363.95 306.75C363.782 306.992 363.655 307.291 363.569 307.646C363.487 307.998 363.446 308.4 363.446 308.853V309.574C363.446 310.003 363.483 310.394 363.558 310.746C363.636 311.093 363.753 311.392 363.909 311.642C364.069 311.892 364.272 312.085 364.519 312.222C364.765 312.359 365.06 312.427 365.403 312.427C365.821 312.427 366.159 312.361 366.417 312.228C366.679 312.095 366.876 311.902 367.009 311.648C367.146 311.39 367.235 311.076 367.278 310.705ZM373.513 312.21V309.187C373.513 308.96 373.472 308.765 373.39 308.601C373.308 308.437 373.183 308.31 373.015 308.22C372.851 308.13 372.644 308.085 372.394 308.085C372.163 308.085 371.964 308.125 371.796 308.203C371.628 308.281 371.497 308.386 371.403 308.519C371.31 308.652 371.263 308.802 371.263 308.97H369.856C369.856 308.72 369.917 308.478 370.038 308.244C370.159 308.009 370.335 307.8 370.565 307.617C370.796 307.433 371.071 307.289 371.392 307.183C371.712 307.078 372.071 307.025 372.47 307.025C372.946 307.025 373.368 307.105 373.735 307.265C374.106 307.425 374.397 307.667 374.608 307.992C374.823 308.312 374.931 308.714 374.931 309.199V312.017C374.931 312.306 374.95 312.566 374.989 312.796C375.032 313.023 375.093 313.22 375.171 313.388V313.482H373.724C373.657 313.33 373.604 313.136 373.565 312.902C373.53 312.664 373.513 312.433 373.513 312.21ZM373.718 309.626L373.729 310.5H372.716C372.454 310.5 372.224 310.525 372.024 310.576C371.825 310.623 371.659 310.693 371.526 310.787C371.394 310.88 371.294 310.994 371.228 311.126C371.161 311.259 371.128 311.41 371.128 311.578C371.128 311.746 371.167 311.9 371.245 312.041C371.323 312.177 371.437 312.285 371.585 312.363C371.737 312.441 371.921 312.48 372.136 312.48C372.425 312.48 372.677 312.421 372.892 312.304C373.11 312.183 373.282 312.037 373.407 311.865C373.532 311.689 373.599 311.523 373.606 311.367L374.063 311.994C374.017 312.154 373.937 312.326 373.823 312.509C373.71 312.693 373.562 312.869 373.378 313.037C373.198 313.201 372.981 313.335 372.728 313.441C372.478 313.546 372.188 313.599 371.86 313.599C371.446 313.599 371.077 313.517 370.753 313.353C370.429 313.185 370.175 312.96 369.991 312.679C369.808 312.394 369.716 312.072 369.716 311.712C369.716 311.376 369.778 311.08 369.903 310.822C370.032 310.56 370.22 310.341 370.466 310.166C370.716 309.99 371.021 309.857 371.38 309.767C371.739 309.673 372.149 309.626 372.61 309.626H373.718ZM377.825 308.349V313.482H376.413V307.142H377.761L377.825 308.349ZM379.765 307.101L379.753 308.414C379.667 308.398 379.573 308.386 379.472 308.378C379.374 308.371 379.276 308.367 379.179 308.367C378.937 308.367 378.724 308.402 378.54 308.472C378.356 308.539 378.202 308.636 378.077 308.765C377.956 308.89 377.862 309.042 377.796 309.222C377.729 309.402 377.69 309.603 377.679 309.826L377.356 309.849C377.356 309.451 377.396 309.082 377.474 308.742C377.552 308.402 377.669 308.103 377.825 307.845C377.985 307.587 378.185 307.386 378.423 307.242C378.665 307.097 378.944 307.025 379.261 307.025C379.347 307.025 379.438 307.033 379.536 307.048C379.638 307.064 379.714 307.082 379.765 307.101ZM383.849 307.142V308.173H380.274V307.142H383.849ZM381.306 305.589H382.718V311.73C382.718 311.925 382.745 312.076 382.8 312.181C382.858 312.283 382.938 312.351 383.04 312.386C383.142 312.421 383.261 312.439 383.397 312.439C383.495 312.439 383.589 312.433 383.679 312.421C383.769 312.41 383.841 312.398 383.896 312.386L383.901 313.464C383.784 313.5 383.647 313.531 383.491 313.558C383.339 313.585 383.163 313.599 382.964 313.599C382.64 313.599 382.353 313.542 382.103 313.429C381.853 313.312 381.657 313.123 381.517 312.861C381.376 312.599 381.306 312.251 381.306 311.818V305.589Z" fill="white"></path><rect x="288.127" y="328.61" width="131.248" height="22.3903" rx="11.1951" fill="#0D0D0D"></rect><path d="M333.817 340.186H331.644L331.632 339.114H333.53C333.851 339.114 334.122 339.067 334.345 338.973C334.571 338.875 334.743 338.737 334.86 338.557C334.978 338.373 335.036 338.153 335.036 337.895C335.036 337.61 334.981 337.377 334.872 337.198C334.763 337.018 334.595 336.887 334.368 336.805C334.146 336.723 333.86 336.682 333.513 336.682H332.089V344.041H330.618V335.51H333.513C333.981 335.51 334.399 335.555 334.767 335.645C335.138 335.735 335.452 335.875 335.71 336.067C335.972 336.254 336.169 336.492 336.302 336.781C336.438 337.071 336.507 337.414 336.507 337.813C336.507 338.164 336.423 338.487 336.255 338.78C336.087 339.069 335.839 339.305 335.511 339.489C335.183 339.672 334.774 339.781 334.286 339.817L333.817 340.186ZM333.753 344.041H331.181L331.843 342.875H333.753C334.085 342.875 334.362 342.821 334.585 342.711C334.808 342.598 334.974 342.444 335.083 342.248C335.196 342.049 335.253 341.817 335.253 341.551C335.253 341.274 335.204 341.033 335.106 340.83C335.009 340.623 334.854 340.465 334.644 340.356C334.433 340.242 334.157 340.186 333.817 340.186H332.165L332.177 339.114H334.327L334.661 339.518C335.13 339.533 335.515 339.637 335.815 339.828C336.12 340.02 336.347 340.268 336.495 340.573C336.644 340.877 336.718 341.205 336.718 341.557C336.718 342.1 336.599 342.555 336.36 342.922C336.126 343.289 335.788 343.569 335.347 343.76C334.905 343.948 334.374 344.041 333.753 344.041ZM341.874 342.547V337.701H343.292V344.041H341.956L341.874 342.547ZM342.073 341.229L342.548 341.217C342.548 341.643 342.501 342.035 342.407 342.395C342.313 342.75 342.169 343.061 341.974 343.326C341.778 343.588 341.528 343.793 341.224 343.942C340.919 344.086 340.554 344.158 340.128 344.158C339.819 344.158 339.536 344.114 339.278 344.024C339.021 343.934 338.798 343.795 338.61 343.608C338.427 343.42 338.284 343.176 338.183 342.875C338.081 342.574 338.03 342.215 338.03 341.797V337.701H339.442V341.809C339.442 342.039 339.47 342.233 339.524 342.389C339.579 342.541 339.653 342.664 339.747 342.758C339.841 342.852 339.95 342.918 340.075 342.957C340.2 342.996 340.333 343.016 340.474 343.016C340.876 343.016 341.192 342.938 341.423 342.781C341.657 342.621 341.823 342.406 341.921 342.137C342.022 341.867 342.073 341.565 342.073 341.229ZM346.579 343.35L348.302 337.701H349.813L347.271 345.008C347.212 345.164 347.136 345.334 347.042 345.518C346.948 345.701 346.825 345.875 346.673 346.039C346.524 346.207 346.339 346.342 346.116 346.444C345.894 346.549 345.624 346.602 345.308 346.602C345.183 346.602 345.062 346.59 344.944 346.567C344.831 346.547 344.724 346.526 344.622 346.502L344.616 345.424C344.655 345.428 344.702 345.432 344.757 345.436C344.815 345.44 344.862 345.442 344.897 345.442C345.132 345.442 345.327 345.412 345.483 345.354C345.64 345.299 345.767 345.209 345.864 345.084C345.966 344.959 346.052 344.791 346.122 344.58L346.579 343.35ZM345.606 337.701L347.112 342.448L347.364 343.936L346.386 344.188L344.083 337.701H345.606ZM360.519 335.51V344.041H359.048L355.222 337.93V344.041H353.751V335.51H355.222L359.06 341.633V335.51H360.519ZM361.86 340.942V340.807C361.86 340.35 361.927 339.926 362.06 339.535C362.192 339.141 362.384 338.799 362.634 338.51C362.888 338.217 363.196 337.99 363.56 337.83C363.927 337.666 364.341 337.584 364.802 337.584C365.267 337.584 365.681 337.666 366.044 337.83C366.411 337.99 366.722 338.217 366.976 338.51C367.229 338.799 367.423 339.141 367.556 339.535C367.688 339.926 367.755 340.35 367.755 340.807V340.942C367.755 341.399 367.688 341.823 367.556 342.213C367.423 342.604 367.229 342.946 366.976 343.239C366.722 343.528 366.413 343.754 366.05 343.918C365.687 344.078 365.274 344.158 364.813 344.158C364.349 344.158 363.933 344.078 363.565 343.918C363.202 343.754 362.894 343.528 362.64 343.239C362.386 342.946 362.192 342.604 362.06 342.213C361.927 341.823 361.86 341.399 361.86 340.942ZM363.272 340.807V340.942C363.272 341.227 363.302 341.496 363.36 341.75C363.419 342.004 363.511 342.227 363.636 342.418C363.761 342.61 363.921 342.76 364.116 342.869C364.312 342.979 364.544 343.033 364.813 343.033C365.075 343.033 365.302 342.979 365.493 342.869C365.688 342.76 365.849 342.61 365.974 342.418C366.099 342.227 366.19 342.004 366.249 341.75C366.312 341.496 366.343 341.227 366.343 340.942V340.807C366.343 340.526 366.312 340.26 366.249 340.01C366.19 339.756 366.097 339.531 365.968 339.336C365.843 339.141 365.683 338.989 365.487 338.879C365.296 338.766 365.067 338.709 364.802 338.709C364.536 338.709 364.306 338.766 364.11 338.879C363.919 338.989 363.761 339.141 363.636 339.336C363.511 339.531 363.419 339.756 363.36 340.01C363.302 340.26 363.272 340.526 363.272 340.807ZM370.661 342.635L372.126 337.701H373.028L372.782 339.178L371.306 344.041H370.497L370.661 342.635ZM369.8 337.701L370.942 342.658L371.036 344.041H370.134L368.417 337.701H369.8ZM374.399 342.6L375.507 337.701H376.884L375.173 344.041H374.271L374.399 342.6ZM373.181 337.701L374.628 342.576L374.81 344.041H374.001L372.507 339.172L372.261 337.701H373.181Z" fill="#4FA83D"></path><g filter="url(#filter1_b_3176_22886)"><rect x="137.04" y="62.3408" width="302.175" height="20.8767" rx="3" fill="url(#paint2_linear_3176_22886)"></rect><rect x="137.276" y="62.5775" width="301.701" height="20.4033" rx="2.76332" stroke="url(#paint3_linear_3176_22886)" stroke-opacity="0.6" stroke-width="0.473368"></rect></g><rect x="18.5073" y="62.3408" width="62.5078" height="21.5935" rx="1" fill="#141615"></rect><path d="M417.846 62.8315H436.717C437.821 62.8315 438.717 63.727 438.717 64.8315V80.7432C438.717 81.8477 437.821 82.7432 436.717 82.7432H417.846V62.8315Z" fill="#4FA83D" fill-opacity="0.41"></path><path d="M558.038 68.3851C557.946 68.2522 557.823 68.1435 557.68 68.0685C557.537 67.9934 557.377 67.9542 557.216 67.9541H543.549L542.395 65.1841C542.244 64.8193 541.987 64.5077 541.659 64.2887C541.33 64.0697 540.944 63.9533 540.549 63.9541H538.216V65.9541H540.549L545.293 77.3391C545.369 77.5213 545.497 77.6769 545.661 77.7863C545.825 77.8957 546.018 77.9541 546.216 77.9541H554.216C554.633 77.9541 555.006 77.6951 555.153 77.3061L558.153 69.3061C558.21 69.1547 558.229 68.9919 558.209 68.8315C558.189 68.6711 558.13 68.5179 558.038 68.3851Z" fill="#274B1F"></path><path d="M546.716 81.9541C547.544 81.9541 548.216 81.2825 548.216 80.4541C548.216 79.6257 547.544 78.9541 546.716 78.9541C545.887 78.9541 545.216 79.6257 545.216 80.4541C545.216 81.2825 545.887 81.9541 546.716 81.9541Z" fill="#274B1F"></path><path d="M553.716 81.9541C554.544 81.9541 555.216 81.2825 555.216 80.4541C555.216 79.6257 554.544 78.9541 553.716 78.9541C552.887 78.9541 552.216 79.6257 552.216 80.4541C552.216 81.2825 552.887 81.9541 553.716 81.9541Z" fill="#274B1F"></path><path d="M508.012 81.954L506.562 80.634C501.412 75.964 498.012 72.874 498.012 69.104C498.012 66.014 500.432 63.604 503.512 63.604C505.252 63.604 506.922 64.414 508.012 65.684C509.102 64.414 510.772 63.604 512.512 63.604C515.592 63.604 518.012 66.014 518.012 69.104C518.012 72.874 514.612 75.964 509.462 80.634L508.012 81.954Z" fill="#274B1F"></path><path d="M433.549 77.2734L430.745 74.4694C431.419 73.6604 431.755 72.6228 431.683 71.5724C431.612 70.522 431.138 69.5397 430.36 68.8298C429.583 68.12 428.561 67.7372 427.509 67.7611C426.456 67.785 425.453 68.2138 424.709 68.9582C423.965 69.7027 423.536 70.7055 423.512 71.7581C423.488 72.8107 423.871 73.8319 424.581 74.6094C425.29 75.3869 426.273 75.8608 427.323 75.9325C428.374 76.0042 429.411 75.6682 430.22 74.9944L433.024 77.7985L433.549 77.2734ZM424.267 71.8576C424.267 71.1967 424.463 70.5506 424.83 70.0011C425.197 69.4515 425.719 69.0232 426.33 68.7703C426.94 68.5173 427.612 68.4512 428.26 68.5801C428.909 68.709 429.504 69.0273 429.971 69.4947C430.439 69.962 430.757 70.5574 430.886 71.2057C431.015 71.8539 430.949 72.5258 430.696 73.1364C430.443 73.7471 430.014 74.269 429.465 74.6362C428.915 75.0034 428.269 75.1993 427.608 75.1993C426.722 75.1984 425.873 74.846 425.246 74.2195C424.62 73.593 424.268 72.7436 424.267 71.8576Z" fill="#4FA83D"></path><defs><filter id="filter0_b_3176_22886" x="-9.10553" y="-9.46735" width="594.935" height="415.397" color-interpolation-filters="sRGB"><feGaussianBlur stdDeviation="4.73368"></feGaussianBlur></filter><filter id="filter1_b_3176_22886" x="127.572" y="52.8735" width="321.11" height="39.8114" color-interpolation-filters="sRGB"><feGaussianBlur stdDeviation="4.73368"></feGaussianBlur></filter><linearGradient id="paint0_linear_3176_22886" x1="0.361816" y1="0" x2="626.166" y2="274.771" gradientUnits="userSpaceOnUse"><stop></stop><stop offset="1" stop-color="#2D2D2D" stop-opacity="0.54"></stop></linearGradient><linearGradient id="paint1_linear_3176_22886" x1="0.361816" y1="0" x2="623.687" y2="277.918" gradientUnits="userSpaceOnUse"><stop stop-color="#525252"></stop><stop offset="1" stop-color="#CFCFCF" stop-opacity="0.35"></stop></linearGradient><linearGradient id="paint2_linear_3176_22886" x1="137.04" y1="62.3408" x2="156.488" y2="147.416" gradientUnits="userSpaceOnUse"><stop></stop><stop offset="1" stop-color="#2D2D2D" stop-opacity="0.54"></stop></linearGradient><linearGradient id="paint3_linear_3176_22886" x1="137.04" y1="62.3408" x2="155.949" y2="146.335" gradientUnits="userSpaceOnUse"><stop stop-color="#525252"></stop><stop offset="1" stop-color="#CFCFCF" stop-opacity="0.35"></stop></linearGradient></defs></svg>