<svg xmlns="http://www.w3.org/2000/svg" width="72" height="64" viewBox="0 0 72 64" fill="none"><path d="M2.36618 17.7178H69.6813V55.1321C69.6813 58.406 67.0227 61.0646 63.7487 61.0646H8.61493C5.16588 61.0646 2.36618 58.2649 2.36618 54.8159V17.7178Z" fill="url(#paint0_radial_284_4410)"/><path d="M41.7235 53.388H41.6759C40.4826 52.193 39.291 50.998 38.0977 49.803C38.0977 49.7877 38.0977 49.7707 38.0977 49.7554C38.1929 49.7384 38.2337 49.6534 38.2932 49.5939C40.0032 47.8821 41.715 46.1721 43.4183 44.4535C43.5628 44.3073 43.6325 44.3192 43.7634 44.4603C44.0727 44.7917 44.4059 45.1011 44.7187 45.4292C44.8241 45.5414 44.8819 45.5414 44.9907 45.4292C45.6179 44.7833 46.2503 44.1441 46.8877 43.51C46.9914 43.4081 47.0033 43.3486 46.9098 43.2279C45.2678 41.1336 44.6847 38.7657 45.1199 36.1445C45.193 35.7059 45.3018 35.2741 45.4683 34.8424C46.4186 35.7926 47.3467 36.7207 48.2765 37.6472C48.3496 37.7203 48.3513 37.7985 48.3513 37.8851C48.3513 38.1894 48.3802 38.4903 48.4482 38.7861C48.9616 40.9925 50.2977 42.4612 52.4939 42.9882C54.7123 43.5202 56.5753 42.8012 58.0355 41.0401C58.1188 40.9398 58.1358 40.8769 58.0287 40.7715C57.0173 39.7686 56.011 38.7606 55.0081 37.7475C54.8959 37.6353 54.8415 37.6455 54.7378 37.7509C54.0901 38.4087 53.4289 39.0547 52.788 39.7176C52.635 39.8774 52.5636 39.8502 52.4242 39.7091C49.7469 37.0182 47.0628 34.3324 44.3804 31.6449C44.3243 31.5888 44.2801 31.5106 44.173 31.4953C44.173 32.0614 44.1679 32.6104 44.1764 33.1595C44.1781 33.3057 44.1543 33.3686 43.9877 33.3618C43.6223 33.3482 43.2568 33.3499 42.8913 33.3618C42.7349 33.3669 42.689 33.3244 42.6924 33.1646C42.7026 32.6308 42.6975 32.0971 42.6958 31.5633C42.6924 30.6794 42.6873 29.7954 42.6839 28.9115H47.1206C47.124 29.3569 47.1206 29.8022 47.1359 30.2476C47.141 30.3938 47.0713 30.3955 46.9659 30.3938C46.5376 30.3904 46.1075 30.3938 45.6774 30.3938C45.5397 30.3938 45.4037 30.3938 45.2219 30.3938C47.6578 32.8348 50.0529 35.2333 52.448 37.6302C52.465 37.6472 52.4854 37.6625 52.4973 37.6812C52.5874 37.8087 52.6537 37.7509 52.7387 37.6659C53.4 36.9995 54.068 36.34 54.7242 35.6668C54.8534 35.5342 54.9146 35.5478 55.0353 35.6719C56.2388 36.8873 57.4491 38.0959 58.6577 39.3079C58.7172 39.3674 58.7801 39.4252 58.8464 39.4881C58.8702 39.4558 58.8889 39.4388 58.8957 39.4184C59.2016 38.4648 59.2611 37.4942 59.0266 36.5219C58.1018 32.692 53.7433 31.072 50.5561 33.372C50.4133 33.4757 50.3521 33.4383 50.2484 33.3346C49.5548 32.6325 48.8613 31.9305 48.1558 31.242C48.0182 31.1077 48.0454 31.0533 48.1762 30.9463C49.4172 29.9365 50.8213 29.2991 52.4004 29.0458C52.6758 29.0016 52.9631 29.0203 53.2283 28.9132H54.1819C54.1938 28.9659 54.238 28.9574 54.2754 28.9591C55.2341 29.0101 56.1555 29.2294 57.0496 29.5795C60.2165 30.8222 62.4671 34.0553 62.5283 37.4602C62.5708 39.789 61.8603 41.8578 60.2913 43.5763C58.0984 45.9766 55.3582 46.8962 52.154 46.3709C50.6751 46.1279 49.3662 45.487 48.2051 44.5402C48.1184 44.4688 48.064 44.4178 47.9553 44.53C47.3127 45.1912 46.6617 45.8474 46.0089 46.4984C45.9171 46.5902 45.929 46.6395 46.0157 46.7228C46.3523 47.0509 46.6719 47.3943 47.0169 47.7138C47.1682 47.8532 47.1478 47.9229 47.0118 48.0589C45.2984 49.7656 43.5917 51.4791 41.885 53.1942C41.8272 53.252 41.7371 53.2894 41.7286 53.3897L41.7235 53.388Z" fill="#161617"/><path d="M19.8048 35.1368C19.7282 34.4198 19.4053 33.8616 18.8361 33.4621C18.2724 33.0625 17.539 32.8627 16.6359 32.8627C16.001 32.8627 15.4565 32.9585 15.0022 33.1501C14.5479 33.3416 14.2004 33.6016 13.9596 33.93C13.7188 34.2584 13.5956 34.6333 13.5901 35.0547C13.5901 35.405 13.6695 35.7088 13.8282 35.966C13.9924 36.2232 14.2141 36.4421 14.4932 36.6228C14.7723 36.7979 15.0816 36.9457 15.4209 37.0661C15.7602 37.1865 16.1023 37.2877 16.4471 37.3698L18.0233 37.7639C18.6582 37.9117 19.2685 38.1114 19.8541 38.3632C20.4452 38.615 20.9733 38.9324 21.4386 39.3155C21.9092 39.6986 22.2814 40.1611 22.5551 40.7029C22.8287 41.2448 22.9655 41.8797 22.9655 42.6076C22.9655 43.5927 22.7138 44.4602 22.2103 45.21C21.7067 45.9544 20.9788 46.5373 20.0265 46.9587C19.0796 47.3746 17.933 47.5826 16.5867 47.5826C15.2786 47.5826 14.1429 47.3801 13.1797 46.9751C12.2219 46.5701 11.4721 45.979 10.9302 45.2018C10.3939 44.4247 10.1038 43.4778 10.06 42.3613H13.0565C13.1003 42.9469 13.2809 43.434 13.5983 43.8226C13.9158 44.2112 14.329 44.5013 14.838 44.6928C15.3525 44.8844 15.9271 44.9802 16.562 44.9802C17.2243 44.9802 17.8044 44.8817 18.3025 44.6846C18.806 44.4821 19.2001 44.203 19.4847 43.8472C19.7693 43.486 19.9143 43.0646 19.9198 42.583C19.9143 42.1451 19.7857 41.7839 19.5339 41.4993C19.2822 41.2092 18.9291 40.9684 18.4749 40.7768C18.0261 40.5798 17.5007 40.4047 16.8986 40.2514L14.9858 39.7588C13.6011 39.4031 12.5065 38.864 11.7019 38.1415C10.9029 37.4136 10.5033 36.4476 10.5033 35.2435C10.5033 34.2529 10.7715 33.3854 11.3079 32.6411C11.8497 31.8967 12.5858 31.3193 13.5163 30.9089C14.4467 30.4929 15.5002 30.2849 16.677 30.2849C17.8701 30.2849 18.9155 30.4929 19.813 30.9089C20.7161 31.3193 21.4249 31.8913 21.9393 32.6247C22.4538 33.3526 22.7193 34.19 22.7357 35.1368H19.8048Z" fill="#161617"/><path d="M25.1167 47.3281V30.5148H36.052V33.068H28.1625V37.6325H35.4855V40.1857H28.1625V44.7749H36.1176V47.3281H25.1167Z" fill="#161617"/><path d="M0.000128222 56.8269V6.58193C0.301006 6.33884 0.25001 5.95807 0.348603 5.64189C1.44332 2.17584 4.5048 0.00169988 8.34823 0C26.7817 0 45.2152 0 63.6486 0C63.9053 0 64.1637 0.00339975 64.4204 0.0186987C67.7997 0.222684 70.6351 2.43592 71.6483 5.63679C71.7621 5.99887 71.7179 6.41364 71.9984 6.72132V56.8269C71.6942 57.0955 71.7401 57.4967 71.6296 57.8366C70.5008 61.2942 67.4887 63.4156 63.6605 63.4173C45.2186 63.419 26.7783 63.4173 8.33633 63.4173C8.12554 63.4173 7.91476 63.4156 7.70397 63.4071C4.16993 63.2796 1.15944 60.8573 0.25681 57.4304C0.202414 57.2247 0.24831 56.9561 -0.00157166 56.8252L0.000128222 56.8269ZM36.0001 19.0131C25.0342 19.0131 14.0666 19.0182 3.1007 18.9995C2.53295 18.9995 2.36806 19.1083 2.36806 19.7084C2.38846 31.4715 2.38166 43.2347 2.38506 54.9995C2.38506 58.6985 4.73259 61.0358 8.44342 61.0358C26.814 61.0358 45.1846 61.0358 63.5568 61.0358C67.2677 61.0358 69.6152 58.6968 69.6152 54.9995C69.6169 43.2364 69.6101 31.4732 69.6322 19.7084C69.6322 19.1066 69.469 18.9978 68.8996 18.9995C57.9336 19.0182 46.966 19.0131 36.0001 19.0131ZM35.9984 16.6435C46.966 16.6435 57.9336 16.6384 68.9013 16.6571C69.486 16.6571 69.639 16.516 69.6322 15.933C69.5982 13.4069 69.622 10.8809 69.6169 8.3549C69.6101 4.75456 67.2405 2.37983 63.6333 2.37813C45.2135 2.37473 26.7936 2.37473 8.37372 2.37813C4.76488 2.37813 2.39356 4.75116 2.38676 8.3498C2.38166 10.852 2.40885 13.3559 2.36976 15.8582C2.35956 16.4939 2.52105 16.6588 3.167 16.6588C14.1108 16.6367 25.0546 16.6435 36.0001 16.6435H35.9984Z" fill="url(#paint1_radial_284_4410)"/><path d="M35.9982 16.6435C25.0543 16.6435 14.1105 16.6367 3.16503 16.6588C2.51908 16.6588 2.35759 16.4939 2.36779 15.8581C2.40688 13.3559 2.37969 10.8537 2.38479 8.34977C2.39158 4.75113 4.76291 2.3798 8.37175 2.3781C26.7916 2.3747 45.2115 2.3747 63.6314 2.3781C67.2385 2.3781 69.6081 4.75283 69.6149 8.35487C69.62 10.8809 69.5962 13.4069 69.6302 15.9329C69.6387 16.516 69.484 16.6571 68.8993 16.6571C57.9317 16.6384 46.9641 16.6435 35.9965 16.6435H35.9982ZM5.0094 9.44449C4.9397 11.486 6.56818 13.208 8.65733 13.2964C10.6598 13.3814 12.4481 11.6832 12.5093 9.63658C12.5704 7.60012 10.9437 5.89005 8.84772 5.78975C6.83846 5.69286 5.07909 7.36724 5.0094 9.44449ZM16.5669 9.61108C16.5839 11.6798 18.2718 13.3372 20.344 13.3219C22.4042 13.3066 24.0718 11.6067 24.0565 9.54138C24.0395 7.47603 22.3464 5.82035 20.2743 5.84075C18.1936 5.86285 16.5499 7.53383 16.5669 9.61108ZM31.8709 13.3474C33.943 13.3457 35.6123 11.6764 35.6123 9.60938C35.6123 7.54573 33.9294 5.86795 31.8624 5.86965C29.797 5.86965 28.1158 7.55423 28.1175 9.61618C28.1175 11.6815 29.797 13.3491 31.8709 13.3474Z" fill="url(#paint2_radial_284_4410)"/><path d="M5.0093 9.44449C5.0807 7.36894 6.83837 5.69456 8.84763 5.78976C10.9436 5.89005 12.5704 7.60013 12.5092 9.63658C12.448 11.6832 10.6597 13.3831 8.65724 13.2964C6.56979 13.2063 4.93961 11.486 5.0093 9.44449ZM8.76093 10.9183C9.49018 10.9132 10.1378 10.2451 10.1208 9.51419C10.1055 8.80874 9.47658 8.17808 8.77623 8.16278C8.04188 8.14749 7.39253 8.78664 7.38743 9.53289C7.38233 10.2774 8.02319 10.9234 8.76093 10.9183Z" fill="#C9E2BB"/><path d="M16.5671 9.61112C16.5501 7.53387 18.1939 5.86289 20.2745 5.84079C22.3467 5.8187 24.0415 7.47608 24.0568 9.54143C24.0738 11.6068 22.4045 13.3067 20.3442 13.322C18.2721 13.3373 16.5841 11.6799 16.5671 9.61112ZM18.9503 9.59072C18.9571 10.3506 19.5827 10.9557 20.3425 10.937C21.0701 10.92 21.665 10.32 21.6735 9.59412C21.682 8.83938 21.065 8.21552 20.3102 8.21552C19.5521 8.21552 18.9435 8.83088 18.9503 9.59072Z" fill="#C9E2BB"/><path d="M31.8728 13.3492C29.799 13.3509 28.1212 11.6833 28.1195 9.61793C28.1195 7.55428 29.799 5.8731 31.8643 5.8714C33.9314 5.8714 35.6125 7.54748 35.6142 9.61113C35.6142 11.6799 33.945 13.3475 31.8728 13.3492ZM31.8337 8.25293C31.1011 8.26993 30.5061 8.87848 30.5061 9.61283C30.5061 10.3778 31.1334 10.9829 31.9051 10.9642C32.6429 10.9472 33.231 10.3472 33.231 9.61283C33.231 8.85298 32.597 8.23423 31.8337 8.25293Z" fill="#C9E2BB"/><path d="M8.76088 10.9183C8.02313 10.9234 7.38227 10.2775 7.38737 9.53291C7.39247 8.78666 8.04183 8.14751 8.77617 8.16281C9.47822 8.1781 10.1055 8.80876 10.1208 9.51421C10.1361 10.2452 9.49012 10.9132 8.76088 10.9183Z" fill="#FCFCFC"/><path d="M18.9499 9.59236C18.9431 8.83252 19.5517 8.21716 20.3098 8.21716C21.0646 8.21716 21.6816 8.84102 21.6731 9.59576C21.6646 10.3216 21.0697 10.9217 20.3421 10.9387C19.5823 10.9574 18.9567 10.3522 18.9499 9.59236Z" fill="#FCFCFC"/><path d="M31.8335 8.25291C32.5967 8.23591 33.2308 8.85466 33.2308 9.61281C33.2308 10.3472 32.6426 10.9472 31.9049 10.9642C31.1331 10.9829 30.5059 10.3761 30.5059 9.61281C30.5059 8.87846 31.1008 8.2682 31.8335 8.25291Z" fill="#FCFCFC"/><defs><radialGradient id="paint0_radial_284_4410" cx="0" cy="0" r="1" gradientUnits="userSpaceOnUse" gradientTransform="translate(75.925 -2.37988) scale(125.602 125.602)"><stop stop-color="#4FA83D"/><stop offset="0.98"/></radialGradient><radialGradient id="paint1_radial_284_4410" cx="0" cy="0" r="1" gradientUnits="userSpaceOnUse" gradientTransform="translate(-4.28016 -1.33781) scale(113.72 113.72)"><stop stop-color="#4FA83D"/><stop offset="0.98"/></radialGradient><radialGradient id="paint2_radial_284_4410" cx="0" cy="0" r="1" gradientUnits="userSpaceOnUse" gradientTransform="translate(75.9249 -2.37986) scale(125.602 125.602)"><stop stop-color="#4FA83D"/><stop offset="0.98"/></radialGradient></defs></svg>