<svg xmlns="http://www.w3.org/2000/svg" width="66" height="66" viewBox="0 0 66 66"><g id="In-depth_Analytics" data-name="In-depth Analytics" transform="translate(-4168.807 -4255.582)"><circle id="Ellipse_2069" data-name="Ellipse 2069" cx="33" cy="33" r="33" transform="translate(4168.807 4255.582)" fill="#fff" opacity="0.085"></circle><g id="Group_44274" data-name="Group 44274" transform="translate(4168.712 4278.582)"><path id="Path_54396" data-name="Path 54396" d="M54.444,87.9l-1.563-1.567L63.467,75.767h5.908l1.552,1.651L76.115,82.6l8.541-8.559L86.222,75.6l-10.1,10.122-6.79-6.774-.909-.965H64.382Z" transform="translate(-38.126 -69.207)" fill="#59a52c"></path><path id="Path_54397" data-name="Path 54397" d="M204,37.54a3.89,3.89,0,1,0-3.89-3.89A3.89,3.89,0,0,0,204,37.54Z" transform="translate(-175.749 -27.818)" fill="#cae1bc"></path><path id="Path_54398" data-name="Path 54398" d="M353.34,186.746a3.891,3.891,0,1,0-3.89-3.891A3.89,3.89,0,0,0,353.34,186.746Z" transform="translate(-315.349 -167.291)" fill="#cae1bc"></path><path id="Path_54399" data-name="Path 54399" d="M532.3,7.781a3.89,3.89,0,1,0-3.89-3.89A3.891,3.891,0,0,0,532.3,7.781Z" transform="translate(-482.64 0)" fill="#c4d8ab"></path><path id="Path_54400" data-name="Path 54400" d="M19.772,202.879a3.891,3.891,0,1,0-4.68,2.893A3.891,3.891,0,0,0,19.772,202.879Z" transform="translate(0 -185.172)" fill="#cae1bc"></path></g></g></svg>