<svg width="16" height="16" viewBox="0 0 16 16" fill="none" xmlns="http://www.w3.org/2000/svg">
<path d="M8.1 3.9209C5.85 3.9209 4.05703 5.74902 4.05703 7.96387C4.05703 10.2139 5.85 12.0068 8.1 12.0068C10.3148 12.0068 12.143 10.2139 12.143 7.96387C12.143 5.74902 10.3148 3.9209 8.1 3.9209ZM8.1 10.6006C6.65859 10.6006 5.46328 9.44043 5.46328 7.96387C5.46328 6.52246 6.62344 5.3623 8.1 5.3623C9.54141 5.3623 10.7016 6.52246 10.7016 7.96387C10.7016 9.44043 9.54141 10.6006 8.1 10.6006ZM13.2328 3.78027C13.2328 3.25293 12.8109 2.83105 12.2836 2.83105C11.7562 2.83105 11.3344 3.25293 11.3344 3.78027C11.3344 4.30762 11.7562 4.72949 12.2836 4.72949C12.8109 4.72949 13.2328 4.30762 13.2328 3.78027ZM15.9047 4.72949C15.8344 3.46387 15.5531 2.33887 14.6391 1.4248C13.725 0.510742 12.6 0.229492 11.3344 0.15918C10.0336 0.0888672 6.13125 0.0888672 4.83047 0.15918C3.56484 0.229492 2.475 0.510742 1.52578 1.4248C0.611719 2.33887 0.330469 3.46387 0.260156 4.72949C0.189844 6.03027 0.189844 9.93262 0.260156 11.2334C0.330469 12.499 0.611719 13.5889 1.52578 14.5381C2.475 15.4521 3.56484 15.7334 4.83047 15.8037C6.13125 15.874 10.0336 15.874 11.3344 15.8037C12.6 15.7334 13.725 15.4521 14.6391 14.5381C15.5531 13.5889 15.8344 12.499 15.9047 11.2334C15.975 9.93262 15.975 6.03027 15.9047 4.72949ZM14.2172 12.6045C13.9711 13.3076 13.4086 13.835 12.7406 14.1162C11.6859 14.5381 9.225 14.4326 8.1 14.4326C6.93984 14.4326 4.47891 14.5381 3.45937 14.1162C2.75625 13.835 2.22891 13.3076 1.94766 12.6045C1.52578 11.585 1.63125 9.12402 1.63125 7.96387C1.63125 6.83887 1.52578 4.37793 1.94766 3.32324C2.22891 2.65527 2.75625 2.12793 3.45937 1.84668C4.47891 1.4248 6.93984 1.53027 8.1 1.53027C9.225 1.53027 11.6859 1.4248 12.7406 1.84668C13.4086 2.09277 13.9359 2.65527 14.2172 3.32324C14.6391 4.37793 14.5336 6.83887 14.5336 7.96387C14.5336 9.12402 14.6391 11.585 14.2172 12.6045Z" fill="white"/>
</svg>
