<svg xmlns="http://www.w3.org/2000/svg" width="20" height="20" viewBox="0 0 20 20" fill="none"><path d="M14.8766 0.406738H6.10273C4.74577 0.40819 3.4448 0.947884 2.48528 1.9074C1.52577 2.86692 0.986071 4.16789 0.984619 5.52485V14.2988C0.986071 15.6557 1.52577 16.9567 2.48528 17.9162C3.4448 18.8757 4.74577 19.4154 6.10273 19.4169H14.8766C16.2336 19.4154 17.5346 18.8757 18.4941 17.9162C19.4536 16.9567 19.9933 15.6557 19.9948 14.2988V5.52485C19.9933 4.16789 19.4536 2.86692 18.4941 1.9074C17.5346 0.947884 16.2336 0.40819 14.8766 0.406738ZM10.4897 14.2988C9.62203 14.2988 8.77386 14.0415 8.05243 13.5594C7.331 13.0774 6.76871 12.3922 6.43667 11.5906C6.10463 10.789 6.01776 9.90694 6.18703 9.05595C6.3563 8.20497 6.77412 7.42329 7.38764 6.80976C8.00117 6.19623 8.78285 5.77842 9.63384 5.60914C10.4848 5.43987 11.3669 5.52675 12.1685 5.85879C12.9701 6.19083 13.6553 6.75311 14.1373 7.47454C14.6194 8.19597 14.8766 9.04415 14.8766 9.9118C14.8754 11.0749 14.4129 12.1901 13.5904 13.0125C12.7679 13.835 11.6528 14.2975 10.4897 14.2988ZM15.9734 5.52485C15.7565 5.52485 15.5444 5.46053 15.3641 5.34002C15.1837 5.21951 15.0431 5.04822 14.9601 4.84782C14.8771 4.64741 14.8554 4.4269 14.8977 4.21415C14.94 4.0014 15.0445 3.80598 15.1979 3.6526C15.3513 3.49922 15.5467 3.39477 15.7594 3.35245C15.9722 3.31013 16.1927 3.33185 16.3931 3.41486C16.5935 3.49787 16.7648 3.63844 16.8853 3.8188C17.0058 3.99915 17.0701 4.2112 17.0701 4.42811C17.0701 4.71899 16.9546 4.99794 16.7489 5.20362C16.5432 5.4093 16.2643 5.52485 15.9734 5.52485ZM13.4143 9.9118C13.4143 10.4902 13.2428 11.0557 12.9214 11.5366C12.6001 12.0176 12.1433 12.3925 11.6089 12.6138C11.0745 12.8352 10.4864 12.8931 9.91912 12.7802C9.3518 12.6674 8.83068 12.3888 8.42166 11.9798C8.01264 11.5708 7.7341 11.0497 7.62125 10.4824C7.5084 9.91505 7.56632 9.327 7.78768 8.79259C8.00904 8.25819 8.38389 7.80142 8.86485 7.48006C9.3458 7.1587 9.91125 6.98717 10.4897 6.98717C11.2654 6.98717 12.0092 7.2953 12.5577 7.84377C13.1062 8.39225 13.4143 9.13614 13.4143 9.9118Z" fill="#59A52C"></path></svg>
