<svg xmlns="http://www.w3.org/2000/svg" width="116" height="116" viewBox="0 0 116 116"><g id="Group_6032" data-name="Group 6032" transform="translate(-1408 -3124)"><rect id="Rectangle_212" data-name="Rectangle 212" width="116" height="116" rx="58" transform="translate(1524 3240) rotate(180)" fill="#4fa83d"></rect><g id="Group_6015" data-name="Group 6015" transform="translate(2179.186 3003.625)"><path id="Path_42743" data-name="Path 42743" d="M-712.194,147.375c.117.072.232.149.352.216a1.841,1.841,0,0,1,.959,2.013,1.928,1.928,0,0,1-1.818,1.47,38.92,38.92,0,0,0-5.726.64c-11.505,2.85-18.888,10.045-21.429,21.623-2.132,9.71.843,18.168,7.718,25.275a24.868,24.868,0,0,0,5.325,4.134,7.538,7.538,0,0,1,.008-1.024,1.841,1.841,0,0,1,1.494-1.523,1.752,1.752,0,0,1,1.885.871c.829,1.69,1.638,3.393,2.374,5.125a1.746,1.746,0,0,1-1.166,2.308c-1.526.594-3.063,1.157-4.6,1.735a2.736,2.736,0,0,0-.268.135h-.861a1.817,1.817,0,0,0-.206-.12,1.764,1.764,0,0,1-1.2-1.756,1.779,1.779,0,0,1,1.252-1.72c.122-.047.239-.108.427-.193-.2-.131-.337-.215-.469-.3-1.226-.816-2.511-1.556-3.666-2.462a31.405,31.405,0,0,1-11.776-18.986c-.276-1.357-.408-2.743-.607-4.115v-3.814a3.606,3.606,0,0,0,.1-.476,30.621,30.621,0,0,1,6.818-17.149,31.053,31.053,0,0,1,19.216-11.427c1.124-.2,2.264-.322,3.4-.479Z" fill="#c2e1bc"></path><path id="Path_42744" data-name="Path 42744" d="M-562.1,210.375c-.1-.062-.2-.129-.3-.185a1.86,1.86,0,0,1-1.014-2.044,1.934,1.934,0,0,1,1.818-1.47,55.478,55.478,0,0,0,5.791-.632,27.942,27.942,0,0,0,21.548-22.125,28.111,28.111,0,0,0-12.429-28.478c-.271-.175-.548-.338-.86-.53a6.171,6.171,0,0,1-.017,1.329,1.668,1.668,0,0,1-1.526,1.316,1.639,1.639,0,0,1-1.768-.864c-.84-1.684-1.643-3.39-2.382-5.12a1.753,1.753,0,0,1,1.085-2.3c1.437-.642,2.883-1.265,4.325-1.9h.861c1.128.587,1.5,1.167,1.374,2.126a1.976,1.976,0,0,1-1.264,1.523c.2.119.351.214.507.3a31.41,31.41,0,0,1,15.643,21.583c.282,1.355.4,2.744.6,4.118v3.814c-.035.157-.082.313-.1.472-.165,1.2-.269,2.4-.5,3.585a31.571,31.571,0,0,1-25.477,24.995c-1.144.2-2.3.322-3.453.48Z" transform="translate(-151.076)" fill="#c2e1bc"></path><path id="Path_42745" data-name="Path 42745" d="M-657.3,207.078c.577,1.456,1.1,2.807,1.658,4.145a.648.648,0,0,0,.474.317c.736.034,1.476.009,2.214.016a1.857,1.857,0,0,1,1.984,2.009q.01,3.537,0,7.073a1.857,1.857,0,0,1-2,1.989c-.718.006-1.436-.022-2.152.017a.708.708,0,0,0-.519.337c-.554,1.318-1.07,2.651-1.661,4.142.481.458,1.083,1.007,1.658,1.582a1.846,1.846,0,0,1,.009,2.866q-2.469,2.489-4.958,4.958a1.854,1.854,0,0,1-2.868,0c-.555-.546-1.106-1.1-1.66-1.645-.014-.014-.036-.019.021.01-1.438.563-2.827,1.1-4.2,1.662-.125.052-.224.313-.23.481-.026.675-.006,1.353-.012,2.029a1.858,1.858,0,0,1-1.983,2.011q-3.567.012-7.135,0a1.85,1.85,0,0,1-1.954-1.976c-.007-.7.019-1.4-.016-2.09a.652.652,0,0,0-.311-.481c-1.337-.557-2.689-1.081-4.153-1.66-.484.5-1.041,1.1-1.621,1.677a1.845,1.845,0,0,1-2.822,0q-2.509-2.492-5-5a1.842,1.842,0,0,1,0-2.821c.576-.581,1.172-1.142,1.675-1.63-.575-1.454-1.1-2.806-1.656-4.144a.649.649,0,0,0-.476-.316c-.716-.035-1.434-.012-2.152-.016a1.866,1.866,0,0,1-2.043-2.012q-.009-3.536,0-7.073a1.856,1.856,0,0,1,2.005-1.987c.717-.006,1.436.022,2.152-.017a.706.706,0,0,0,.518-.338c.554-1.317,1.07-2.651,1.651-4.115-.484-.471-1.075-1.031-1.648-1.608a1.846,1.846,0,0,1-.006-2.865q2.472-2.486,4.958-4.958a1.853,1.853,0,0,1,2.867-.006c.5.488.973,1,1.491,1.465a.647.647,0,0,0,.559.093q1.849-.739,3.67-1.547a.716.716,0,0,0,.346-.515c.041-.695.01-1.393.018-2.09A1.843,1.843,0,0,1-678.7,193.1q3.629-.018,7.258,0a1.835,1.835,0,0,1,1.9,1.908c.013.717-.017,1.436.018,2.152a.65.65,0,0,0,.307.482c1.339.556,2.691,1.078,4.166,1.66.476-.494,1.033-1.093,1.612-1.669a1.842,1.842,0,0,1,2.822-.01q2.512,2.49,5,5a1.843,1.843,0,0,1,.006,2.823C-656.194,206.032-656.793,206.59-657.3,207.078ZM-675.1,230.012a12.943,12.943,0,0,0,12.939-12.885,12.94,12.94,0,0,0-12.87-12.953A12.941,12.941,0,0,0-688,217.088,12.944,12.944,0,0,0-675.1,230.012Z" transform="translate(-37.602 -38.218)" fill="#fff"></path></g></g></svg>