<svg xmlns="http://www.w3.org/2000/svg" width="34" height="21" viewBox="0 0 34 21" fill="none"><g id="TURKEY_2_"><g id="Group"><g id="Group_2"><g id="Clip path group"><mask id="mask0_9372_55657" style="mask-type:luminance" maskUnits="userSpaceOnUse" x="0" y="0" width="34" height="21"><g id="SVGID_00000178201943115259673320000000077161886034352303_"><path id="Vector" d="M33.846 0.708984H0.282959V20.291H33.846V0.708984Z" fill="white"></path></g></mask><g mask="url(#mask0_9372_55657)"><path id="Vector_2" d="M33.846 0.708984H0.282959V20.291H33.846V0.708984Z" fill="#D00027"></path></g></g><g id="Clip path group_2"><mask id="mask1_9372_55657" style="mask-type:luminance" maskUnits="userSpaceOnUse" x="0" y="0" width="34" height="21"><g id="SVGID_00000178201943115259673320000000077161886034352303__2"><path id="Vector_3" d="M33.846 0.708984H0.282959V20.291H33.846V0.708984Z" fill="white"></path></g></mask><g mask="url(#mask1_9372_55657)"><g id="Group_3"><g id="Clip path group_3"><mask id="mask2_9372_55657" style="mask-type:luminance" maskUnits="userSpaceOnUse" x="0" y="0" width="34" height="21"><g id="SVGID_00000048494732468886146680000014577863921072417158_"><path id="Vector_4" d="M33.846 0.708984H0.282959V20.291H33.846V0.708984Z" fill="white"></path></g></mask><g mask="url(#mask2_9372_55657)"><path id="Vector_5" d="M10.072 5.604C12.775 5.604 14.968 7.79502 14.968 10.499C14.968 13.202 12.775 15.394 10.072 15.394C7.36996 15.394 5.17896 13.203 5.17896 10.499C5.17896 7.79502 7.36996 5.604 10.072 5.604Z" fill="white"></path></g></g><g id="Clip path group_4"><mask id="mask3_9372_55657" style="mask-type:luminance" maskUnits="userSpaceOnUse" x="0" y="0" width="34" height="21"><g id="SVGID_00000048494732468886146680000014577863921072417158__2"><path id="Vector_6" d="M33.846 0.708984H0.282959V20.291H33.846V0.708984Z" fill="white"></path></g></mask><g mask="url(#mask3_9372_55657)"><path id="Vector_7" d="M11.2949 6.57996C13.4599 6.57996 15.2109 8.33796 15.2109 10.498C15.2109 12.662 13.4599 14.416 11.2949 14.416C9.13291 14.416 7.37891 12.662 7.37891 10.498C7.37891 8.33796 9.13291 6.57996 11.2949 6.57996Z" fill="#D00027"></path></g></g><g id="Clip path group_5"><mask id="mask4_9372_55657" style="mask-type:luminance" maskUnits="userSpaceOnUse" x="0" y="0" width="34" height="21"><g id="SVGID_00000048494732468886146680000014577863921072417158__3"><path id="Vector_8" d="M33.846 0.708984H0.282959V20.291H33.846V0.708984Z" fill="white"></path></g></mask><g mask="url(#mask4_9372_55657)"><path id="Vector_9" d="M14.209 10.498L16.534 11.256L16.912 10.088L14.209 10.498Z" fill="white"></path></g></g><g id="Clip path group_6"><mask id="mask5_9372_55657" style="mask-type:luminance" maskUnits="userSpaceOnUse" x="0" y="0" width="34" height="21"><g id="SVGID_00000048494732468886146680000014577863921072417158__4"><path id="Vector_10" d="M33.846 0.708984H0.282959V20.291H33.846V0.708984Z" fill="white"></path></g></mask><g mask="url(#mask5_9372_55657)"><path id="Vector_11" d="M14.209 10.498L16.534 9.74402L16.912 10.908L14.209 10.498Z" fill="white"></path></g></g><g id="Clip path group_7"><mask id="mask6_9372_55657" style="mask-type:luminance" maskUnits="userSpaceOnUse" x="0" y="0" width="34" height="21"><g id="SVGID_00000048494732468886146680000014577863921072417158__5"><path id="Vector_12" d="M33.846 0.708984H0.282959V20.291H33.846V0.708984Z" fill="white"></path></g></mask><g mask="url(#mask6_9372_55657)"><path id="Vector_13" d="M15.8989 8.16998V10.619H17.1219L15.8989 8.16998Z" fill="white"></path></g></g><g id="Clip path group_8"><mask id="mask7_9372_55657" style="mask-type:luminance" maskUnits="userSpaceOnUse" x="0" y="0" width="34" height="21"><g id="SVGID_00000048494732468886146680000014577863921072417158__6"><path id="Vector_14" d="M33.846 0.708984H0.282959V20.291H33.846V0.708984Z" fill="white"></path></g></mask><g mask="url(#mask7_9372_55657)"><path id="Vector_15" d="M15.8989 8.16998L17.3359 10.15L16.3489 10.869L15.8989 8.16998Z" fill="white"></path></g></g><g id="Clip path group_9"><mask id="mask8_9372_55657" style="mask-type:luminance" maskUnits="userSpaceOnUse" x="0" y="0" width="34" height="21"><g id="SVGID_00000048494732468886146680000014577863921072417158__7"><path id="Vector_16" d="M33.846 0.708984H0.282959V20.291H33.846V0.708984Z" fill="white"></path></g></mask><g mask="url(#mask8_9372_55657)"><path id="Vector_17" d="M15.8989 12.83L17.3359 10.8459L16.3489 10.127L15.8989 12.83Z" fill="white"></path></g></g><g id="Clip path group_10"><mask id="mask9_9372_55657" style="mask-type:luminance" maskUnits="userSpaceOnUse" x="0" y="0" width="34" height="21"><g id="SVGID_00000048494732468886146680000014577863921072417158__8"><path id="Vector_18" d="M33.846 0.708984H0.282959V20.291H33.846V0.708984Z" fill="white"></path></g></mask><g mask="url(#mask9_9372_55657)"><path id="Vector_19" d="M15.8989 12.83V10.377H17.1219L15.8989 12.83Z" fill="white"></path></g></g><g id="Clip path group_11"><mask id="mask10_9372_55657" style="mask-type:luminance" maskUnits="userSpaceOnUse" x="0" y="0" width="34" height="21"><g id="SVGID_00000048494732468886146680000014577863921072417158__9"><path id="Vector_20" d="M33.846 0.708984H0.282959V20.291H33.846V0.708984Z" fill="white"></path></g></mask><g mask="url(#mask10_9372_55657)"><path id="Vector_21" d="M18.6341 9.06494L16.3101 9.81494L16.6881 10.9789L18.6341 9.06494Z" fill="white"></path></g></g><g id="Clip path group_12"><mask id="mask11_9372_55657" style="mask-type:luminance" maskUnits="userSpaceOnUse" x="0" y="0" width="34" height="21"><g id="SVGID_00000048494732468886146680000014577863921072417158__10"><path id="Vector_22" d="M33.846 0.708984H0.282959V20.291H33.846V0.708984Z" fill="white"></path></g></mask><g mask="url(#mask11_9372_55657)"><path id="Vector_23" d="M18.6341 9.06494L17.1971 11.041L16.2051 10.322L18.6341 9.06494Z" fill="white"></path></g></g><g id="Clip path group_13"><mask id="mask12_9372_55657" style="mask-type:luminance" maskUnits="userSpaceOnUse" x="0" y="0" width="34" height="21"><g id="SVGID_00000048494732468886146680000014577863921072417158__11"><path id="Vector_24" d="M33.846 0.708984H0.282959V20.291H33.846V0.708984Z" fill="white"></path></g></mask><g mask="url(#mask12_9372_55657)"><path id="Vector_25" d="M18.6341 11.94L17.1971 9.95898L16.2051 10.678L18.6341 11.94Z" fill="white"></path></g></g><g id="Clip path group_14"><mask id="mask13_9372_55657" style="mask-type:luminance" maskUnits="userSpaceOnUse" x="0" y="0" width="34" height="21"><g id="SVGID_00000048494732468886146680000014577863921072417158__12"><path id="Vector_26" d="M33.846 0.708984H0.282959V20.291H33.846V0.708984Z" fill="white"></path></g></mask><g mask="url(#mask13_9372_55657)"><path id="Vector_27" d="M18.6341 11.9399L16.3101 11.1819L16.6881 10.0179L18.6341 11.9399Z" fill="white"></path></g></g></g></g></g></g></g></g></svg>