<svg xmlns="http://www.w3.org/2000/svg" width="35" height="21" viewBox="0 0 35 21" fill="none"><g id="MALAYSIA_3_"><g id="Group"><g id="Group_2"><g id="Clip path group"><mask id="mask0_9372_33578" style="mask-type:luminance" maskUnits="userSpaceOnUse" x="0" y="0" width="35" height="21"><g id="SVGID_00000008141191049211477800000017148629945704099230_"><path id="Vector" d="M34.3425 0.710938H0.780518V20.2889H34.3425V0.710938Z" fill="white"></path></g></mask><g mask="url(#mask0_9372_33578)"><path id="Vector_2" d="M34.3425 0.710938H0.780518V2.10895H34.3425V0.710938Z" fill="#D80031"></path></g></g><g id="Clip path group_2"><mask id="mask1_9372_33578" style="mask-type:luminance" maskUnits="userSpaceOnUse" x="0" y="0" width="35" height="21"><g id="SVGID_00000008141191049211477800000017148629945704099230__2"><path id="Vector_3" d="M34.3425 0.710938H0.780518V20.2889H34.3425V0.710938Z" fill="white"></path></g></mask><g mask="url(#mask1_9372_33578)"><path id="Vector_4" d="M34.3425 2.10889H0.780518V3.5069H34.3425V2.10889Z" fill="white"></path></g></g><g id="Clip path group_3"><mask id="mask2_9372_33578" style="mask-type:luminance" maskUnits="userSpaceOnUse" x="0" y="0" width="35" height="21"><g id="SVGID_00000008141191049211477800000017148629945704099230__3"><path id="Vector_5" d="M34.3425 0.710938H0.780518V20.2889H34.3425V0.710938Z" fill="white"></path></g></mask><g mask="url(#mask2_9372_33578)"><path id="Vector_6" d="M34.3425 3.50781H0.780518V4.90582H34.3425V3.50781Z" fill="#D80031"></path></g></g><g id="Clip path group_4"><mask id="mask3_9372_33578" style="mask-type:luminance" maskUnits="userSpaceOnUse" x="0" y="0" width="35" height="21"><g id="SVGID_00000008141191049211477800000017148629945704099230__4"><path id="Vector_7" d="M34.3425 0.710938H0.780518V20.2889H34.3425V0.710938Z" fill="white"></path></g></mask><g mask="url(#mask3_9372_33578)"><path id="Vector_8" d="M34.3425 4.90601H0.780518V6.30402H34.3425V4.90601Z" fill="white"></path></g></g><g id="Clip path group_5"><mask id="mask4_9372_33578" style="mask-type:luminance" maskUnits="userSpaceOnUse" x="0" y="0" width="35" height="21"><g id="SVGID_00000008141191049211477800000017148629945704099230__5"><path id="Vector_9" d="M34.3425 0.710938H0.780518V20.2889H34.3425V0.710938Z" fill="white"></path></g></mask><g mask="url(#mask4_9372_33578)"><path id="Vector_10" d="M34.3425 6.30396H0.780518V7.70193H34.3425V6.30396Z" fill="#D80031"></path></g></g><g id="Clip path group_6"><mask id="mask5_9372_33578" style="mask-type:luminance" maskUnits="userSpaceOnUse" x="0" y="0" width="35" height="21"><g id="SVGID_00000008141191049211477800000017148629945704099230__6"><path id="Vector_11" d="M34.3425 0.710938H0.780518V20.2889H34.3425V0.710938Z" fill="white"></path></g></mask><g mask="url(#mask5_9372_33578)"><path id="Vector_12" d="M34.3425 7.70288H0.780518V9.10089H34.3425V7.70288Z" fill="white"></path></g></g><g id="Clip path group_7"><mask id="mask6_9372_33578" style="mask-type:luminance" maskUnits="userSpaceOnUse" x="0" y="0" width="35" height="21"><g id="SVGID_00000008141191049211477800000017148629945704099230__7"><path id="Vector_13" d="M34.3425 0.710938H0.780518V20.2889H34.3425V0.710938Z" fill="white"></path></g></mask><g mask="url(#mask6_9372_33578)"><path id="Vector_14" d="M34.3425 9.10107H0.780518V10.4991H34.3425V9.10107Z" fill="#D80031"></path></g></g><g id="Clip path group_8"><mask id="mask7_9372_33578" style="mask-type:luminance" maskUnits="userSpaceOnUse" x="0" y="0" width="35" height="21"><g id="SVGID_00000008141191049211477800000017148629945704099230__8"><path id="Vector_15" d="M34.3425 0.710938H0.780518V20.2889H34.3425V0.710938Z" fill="white"></path></g></mask><g mask="url(#mask7_9372_33578)"><path id="Vector_16" d="M34.3425 10.5H0.780518V11.898H34.3425V10.5Z" fill="white"></path></g></g><g id="Clip path group_9"><mask id="mask8_9372_33578" style="mask-type:luminance" maskUnits="userSpaceOnUse" x="0" y="0" width="35" height="21"><g id="SVGID_00000008141191049211477800000017148629945704099230__9"><path id="Vector_17" d="M34.3425 0.710938H0.780518V20.2889H34.3425V0.710938Z" fill="white"></path></g></mask><g mask="url(#mask8_9372_33578)"><path id="Vector_18" d="M34.3425 11.8979H0.780518V13.296H34.3425V11.8979Z" fill="#D80031"></path></g></g><g id="Clip path group_10"><mask id="mask9_9372_33578" style="mask-type:luminance" maskUnits="userSpaceOnUse" x="0" y="0" width="35" height="21"><g id="SVGID_00000008141191049211477800000017148629945704099230__10"><path id="Vector_19" d="M34.3425 0.710938H0.780518V20.2889H34.3425V0.710938Z" fill="white"></path></g></mask><g mask="url(#mask9_9372_33578)"><path id="Vector_20" d="M34.3425 13.2969H0.780518V14.6949H34.3425V13.2969Z" fill="white"></path></g></g><g id="Clip path group_11"><mask id="mask10_9372_33578" style="mask-type:luminance" maskUnits="userSpaceOnUse" x="0" y="0" width="35" height="21"><g id="SVGID_00000008141191049211477800000017148629945704099230__11"><path id="Vector_21" d="M34.3425 0.710938H0.780518V20.2889H34.3425V0.710938Z" fill="white"></path></g></mask><g mask="url(#mask10_9372_33578)"><path id="Vector_22" d="M34.3425 14.6948H0.780518V16.0928H34.3425V14.6948Z" fill="#D80031"></path></g></g><g id="Clip path group_12"><mask id="mask11_9372_33578" style="mask-type:luminance" maskUnits="userSpaceOnUse" x="0" y="0" width="35" height="21"><g id="SVGID_00000008141191049211477800000017148629945704099230__12"><path id="Vector_23" d="M34.3425 0.710938H0.780518V20.2889H34.3425V0.710938Z" fill="white"></path></g></mask><g mask="url(#mask11_9372_33578)"><path id="Vector_24" d="M34.3425 16.094H0.780518V17.492H34.3425V16.094Z" fill="white"></path></g></g><g id="Clip path group_13"><mask id="mask12_9372_33578" style="mask-type:luminance" maskUnits="userSpaceOnUse" x="0" y="0" width="35" height="21"><g id="SVGID_00000008141191049211477800000017148629945704099230__13"><path id="Vector_25" d="M34.3425 0.710938H0.780518V20.2889H34.3425V0.710938Z" fill="white"></path></g></mask><g mask="url(#mask12_9372_33578)"><path id="Vector_26" d="M34.3425 17.4919H0.780518V18.89H34.3425V17.4919Z" fill="#D80031"></path></g></g><g id="Clip path group_14"><mask id="mask13_9372_33578" style="mask-type:luminance" maskUnits="userSpaceOnUse" x="0" y="0" width="35" height="21"><g id="SVGID_00000008141191049211477800000017148629945704099230__14"><path id="Vector_27" d="M34.3425 0.710938H0.780518V20.2889H34.3425V0.710938Z" fill="white"></path></g></mask><g mask="url(#mask13_9372_33578)"><path id="Vector_28" d="M34.3425 18.8899H0.780518V20.2879H34.3425V18.8899Z" fill="white"></path></g></g><g id="Clip path group_15"><mask id="mask14_9372_33578" style="mask-type:luminance" maskUnits="userSpaceOnUse" x="0" y="0" width="35" height="21"><g id="SVGID_00000008141191049211477800000017148629945704099230__15"><path id="Vector_29" d="M34.3425 0.710938H0.780518V20.2889H34.3425V0.710938Z" fill="white"></path></g></mask><g mask="url(#mask14_9372_33578)"><path id="Vector_30" d="M20.3575 0.710938H0.780518V11.899H20.3575V0.710938Z" fill="#2530A9"></path></g></g><g id="Clip path group_16"><mask id="mask15_9372_33578" style="mask-type:luminance" maskUnits="userSpaceOnUse" x="0" y="0" width="35" height="21"><g id="SVGID_00000008141191049211477800000017148629945704099230__16"><path id="Vector_31" d="M34.3425 0.710938H0.780518V20.2889H34.3425V0.710938Z" fill="white"></path></g></mask><g mask="url(#mask15_9372_33578)"><g id="Group_3"><g id="Clip path group_17"><mask id="mask16_9372_33578" style="mask-type:luminance" maskUnits="userSpaceOnUse" x="0" y="0" width="35" height="21"><g id="SVGID_00000047765564524340500590000006216936796987959221_"><path id="Vector_32" d="M34.3425 0.710938H0.780518V20.2889H34.3425V0.710938Z" fill="white"></path></g></mask><g mask="url(#mask16_9372_33578)"><path id="Vector_33" d="M6.02349 6.30389C6.02349 4.27689 7.66949 2.6319 9.69449 2.6319C10.3985 2.6319 11.0545 2.8309 11.6155 3.1749C10.8715 2.5109 9.89249 2.10889 8.82149 2.10889C6.50549 2.10889 4.62549 3.98789 4.62549 6.30389C4.62549 8.62389 6.50549 10.4989 8.82149 10.4989C9.89249 10.4989 10.8715 10.0929 11.6155 9.43289C11.0545 9.77689 10.3985 9.97589 9.69449 9.97589C7.66849 9.97589 6.02349 8.33189 6.02349 6.30389Z" fill="#F5D028"></path></g></g><g id="Clip path group_18"><mask id="mask17_9372_33578" style="mask-type:luminance" maskUnits="userSpaceOnUse" x="0" y="0" width="35" height="21"><g id="SVGID_00000047765564524340500590000006216936796987959221__2"><path id="Vector_34" d="M34.3425 0.710938H0.780518V20.2889H34.3425V0.710938Z" fill="white"></path></g></mask><g mask="url(#mask17_9372_33578)"><path id="Vector_35" d="M14.4144 6.30386L16.4234 5.52686L14.2774 5.69885L15.7494 4.12485L13.8884 5.21085L14.5314 3.15585L13.3254 4.94086L13.0164 2.80786L12.7924 4.33585L12.7294 4.77686L12.7044 4.94086L11.4984 3.15585L12.1444 5.21085L10.2834 4.12485L11.7554 5.69885L9.6084 5.52686L11.6184 6.30386L9.6084 7.08185L11.7554 6.90985L10.2834 8.48785L12.1444 7.39786L11.4984 9.45285L12.7044 7.66785L12.7294 7.83585L12.7924 8.27286L13.0164 9.80386L13.3254 7.66785L14.5314 9.45285L13.8884 7.39786L15.7494 8.48785L14.2774 6.90985L16.4234 7.08185L14.4144 6.30386Z" fill="#F5D028"></path></g></g></g></g></g></g></g></g></svg>