<svg xmlns="http://www.w3.org/2000/svg" width="45" height="45" viewBox="0 0 45 45" fill="none"><circle cx="22.5" cy="22.5" r="22.5" fill="url(#paint0_radial_1962_15441)" fill-opacity="0.26"></circle><path d="M27.5293 29.7666V26.0421C27.5293 25.9075 27.5828 25.7784 27.678 25.6832C27.7732 25.588 27.9023 25.5345 28.0369 25.5345H38.1887C38.3233 25.5345 38.4524 25.588 38.5476 25.6832C38.6428 25.7784 38.6963 25.9075 38.6963 26.0421V29.7666C38.6963 35.0962 34.1724 36.8601 33.2714 37.1583C33.1691 37.1962 33.0565 37.1962 32.9542 37.1583C32.0532 36.8601 27.5293 35.0962 27.5293 29.7666Z" fill="#DDDDDD"></path><path d="M11.3555 28.4586L21.4234 34.3317L31.4913 28.4586" stroke="#DDDDDD" stroke-width="2.5614" stroke-linecap="round" stroke-linejoin="round"></path><path d="M11.3555 23.4258L21.4234 29.2989L31.4913 23.4258" stroke="#DDDDDD" stroke-width="2.5614" stroke-linecap="round" stroke-linejoin="round"></path><path d="M11.3555 18.3883L21.4234 24.2614L31.4913 18.3883L21.4234 12.5151L11.3555 18.3883Z" stroke="#DDDDDD" stroke-width="2.5614" stroke-linecap="round" stroke-linejoin="round"></path><defs><radialGradient id="paint0_radial_1962_15441" cx="0" cy="0" r="1" gradientUnits="userSpaceOnUse" gradientTransform="translate(22.5 22.5) rotate(90.5907) scale(48.5026)"><stop stop-color="#4FA83D"></stop><stop offset="0.46875" stop-color="#22CB00" stop-opacity="0.53125"></stop><stop offset="1" stop-opacity="0"></stop></radialGradient></defs></svg>