<svg xmlns="http://www.w3.org/2000/svg" width="114" height="71" viewBox="0 0 114 71" fill="none"><path d="M103.145 1.83643H21.4883V56.6326H103.145V1.83643Z" fill="#CAE2BC"></path><path d="M19.7158 0.76305V2.59552V30.2353V57.8369H62.2826H104.849V30.2353V2.59552L104.758 0.762768H104.221L102.712 0.76305H62.2826H21.8537H19.7158ZM67.9327 2.55735C68.0473 2.93911 66.7493 3.05364 62.3208 3.05364C57.0143 3.05364 56.0598 2.90093 56.8234 2.1374C56.9761 2.02287 59.4957 1.94652 62.4353 1.9847C66.253 2.06105 67.8182 2.21376 67.9327 2.55735ZM101.146 29.3954C101.184 43.139 101.146 54.7828 101.032 55.2409L100.841 56.119H62.3208C27.542 56.119 23.8007 56.0426 23.5716 55.5081C23.2662 54.6683 23.2662 4.77158 23.6098 4.46617C23.7244 4.31346 41.2092 4.23711 62.4353 4.27528L101.032 4.38982L101.146 29.3954Z" fill="#4FA83D"></path><path d="M11.6609 60.776C12.1572 61.8831 12.8443 63.4484 13.2643 64.2119L13.9515 65.6626H62.2829H110.653L112.218 62.3031L113.783 58.9817L94.2366 58.8672C77.1717 58.7908 74.6521 58.8672 74.2703 59.3635C73.6213 60.2415 50.6391 60.2415 50.2955 59.3635C50.1046 58.8672 47.5468 58.7908 30.4055 58.7908H10.7446L11.6609 60.776Z" fill="#4FA83D"></path><rect x="55.8706" y="1.83643" width="12.8932" height="1.61165" fill="white"></rect><path d="M1.71143 24.8032L21.9187 19.3232L42.8109 25.8307V42.2705L38.3585 56.9978L29.7961 65.5602L21.9187 68.6427L15.7538 66.9302L9.93133 61.4502L5.47888 55.9703L1.71143 46.3804V38.1605V24.8032Z" fill="#4FA83D"></path><path d="M23.906 18.4631C24.849 18.7453 25.93 19.0637 26.3084 19.1778C27.3535 19.4841 37.4437 22.4571 40.4767 23.352C41.9422 23.7844 43.2335 24.1808 43.3416 24.2289C43.4557 24.2829 43.6059 24.4271 43.6779 24.5472L43.8161 24.7634L43.8341 32.0608C43.8581 40.8536 43.8161 41.9648 43.3596 44.7335C41.9362 53.4123 37.4196 60.9979 30.801 65.8328C29.0532 67.1061 27.1012 68.1992 25.0231 69.0701C24.0021 69.4965 22.2183 70.0791 21.942 70.0791C21.6838 70.0791 20.7228 69.7908 19.6417 69.3884C13.0951 66.9499 7.49145 61.8808 4.01395 55.2622C1.86378 51.166 0.614517 46.9198 0.152054 42.0909C0.0739746 41.232 -0.0401382 34.9257 0.013916 34.7275C0.152054 34.223 0.716625 33.8986 1.20312 34.0428C1.50342 34.1329 1.7797 34.4091 1.86378 34.6974C1.89381 34.8176 1.92384 35.1899 1.92384 35.5203C1.92384 36.7215 2.1821 43.1059 2.44036 44.6134C3.40734 50.2771 5.73168 55.3943 9.25723 59.6346C9.95393 60.4694 11.6476 62.1992 12.4585 62.8899C15.011 65.0881 18.0921 66.8478 21.1612 67.8629L21.93 68.1151L22.6928 67.8629C30.0322 65.4244 36.1103 59.5445 39.3716 51.7306C40.4527 49.136 41.2695 46.0609 41.6179 43.232C41.8461 41.3882 41.8641 40.7215 41.8641 33.1719V25.7784L40.1043 25.2619C39.1434 24.9796 34.6568 23.6583 30.1403 22.325L21.93 19.9105L19.4195 20.6493C18.0381 21.0577 16.1402 21.6162 15.1972 21.8925C14.2543 22.1688 13.0951 22.5111 12.6146 22.6553C12.1341 22.7934 9.54552 23.5562 6.86082 24.349L1.9839 25.7844V30.2289C1.9839 32.9617 1.95988 34.7515 1.92384 34.8776C1.83976 35.1719 1.53945 35.4602 1.22713 35.5443C0.998905 35.6104 0.92083 35.6043 0.704613 35.5203C0.374279 35.3941 0.152054 35.1599 0.0679665 34.8536C-0.0221214 34.5173 -0.0221214 25.1898 0.0679665 24.8295C0.104004 24.6733 0.212112 24.4931 0.320221 24.385C0.530434 24.1808 0.200104 24.2829 8.2302 21.9165C20.3564 18.349 21.7378 17.9465 21.96 17.9526C22.0862 17.9526 22.9631 18.1868 23.906 18.4631Z" fill="#CAE2BC"></path><path d="M20.4044 37.4552V38.4443H17.3059V37.4552H20.4044ZM17.7159 32.2895V38.4443H16.4477V32.2895H17.7159ZM25.1854 32.2895V32.9447L22.8055 38.4443H21.5204L23.9003 33.2406H20.8356V32.2895H25.1854ZM13.5013 49.4443H12.1613L12.1698 48.4552H13.5013C13.8339 48.4552 14.1143 48.3805 14.3426 48.2311C14.5708 48.0789 14.7427 47.8577 14.8583 47.5674C14.9767 47.2772 15.0358 46.9263 15.0358 46.5149V46.2147C15.0358 45.8991 15.002 45.6215 14.9344 45.382C14.8696 45.1424 14.7723 44.9409 14.6427 44.7775C14.5131 44.614 14.3538 44.4914 14.165 44.4097C13.9762 44.3252 13.7592 44.2829 13.514 44.2829H12.1359V43.2895H13.514C13.9255 43.2895 14.3017 43.3599 14.6427 43.5008C14.9865 43.6389 15.2838 43.8376 15.5346 44.0969C15.7855 44.3562 15.9785 44.6661 16.1138 45.0269C16.2519 45.3848 16.3209 45.7835 16.3209 46.2232V46.5149C16.3209 46.9517 16.2519 47.3504 16.1138 47.7112C15.9785 48.0719 15.7855 48.3819 15.5346 48.6412C15.2866 48.8976 14.9893 49.0963 14.6427 49.2372C14.2989 49.3753 13.9184 49.4443 13.5013 49.4443ZM12.8799 43.2895V49.4443H11.6118V43.2895H12.8799ZM19.132 49.4443H17.792L17.8004 48.4552H19.132C19.4646 48.4552 19.745 48.3805 19.9732 48.2311C20.2015 48.0789 20.3734 47.8577 20.489 47.5674C20.6073 47.2772 20.6665 46.9263 20.6665 46.5149V46.2147C20.6665 45.8991 20.6327 45.6215 20.5651 45.382C20.5002 45.1424 20.403 44.9409 20.2734 44.7775C20.1437 44.614 19.9845 44.4914 19.7957 44.4097C19.6069 44.3252 19.3899 44.2829 19.1447 44.2829H17.7666V43.2895H19.1447C19.5562 43.2895 19.9324 43.3599 20.2734 43.5008C20.6172 43.6389 20.9145 43.8376 21.1653 44.0969C21.4161 44.3562 21.6092 44.6661 21.7445 45.0269C21.8825 45.3848 21.9516 45.7835 21.9516 46.2232V46.5149C21.9516 46.9517 21.8825 47.3504 21.7445 47.7112C21.6092 48.0719 21.4161 48.3819 21.1653 48.6412C20.9173 48.8976 20.62 49.0963 20.2734 49.2372C19.9296 49.3753 19.5491 49.4443 19.132 49.4443ZM18.5106 43.2895V49.4443H17.2425V43.2895H18.5106ZM22.6026 47.2039V47.1151C22.6026 46.7798 22.6505 46.4712 22.7463 46.1894C22.8421 45.9047 22.9816 45.6581 23.1648 45.4496C23.348 45.2411 23.5734 45.079 23.8412 44.9635C24.1089 44.8451 24.4161 44.7859 24.7627 44.7859C25.1093 44.7859 25.4179 44.8451 25.6885 44.9635C25.959 45.079 26.1859 45.2411 26.3691 45.4496C26.5551 45.6581 26.696 45.9047 26.7918 46.1894C26.8876 46.4712 26.9355 46.7798 26.9355 47.1151V47.2039C26.9355 47.5364 26.8876 47.845 26.7918 48.1297C26.696 48.4115 26.5551 48.6581 26.3691 48.8694C26.1859 49.078 25.9604 49.24 25.6927 49.3556C25.425 49.4711 25.1178 49.5289 24.7712 49.5289C24.4245 49.5289 24.1159 49.4711 23.8454 49.3556C23.5777 49.24 23.3508 49.078 23.1648 48.8694C22.9816 48.6581 22.8421 48.4115 22.7463 48.1297C22.6505 47.845 22.6026 47.5364 22.6026 47.2039ZM23.82 47.1151V47.2039C23.82 47.3955 23.8369 47.5745 23.8708 47.7408C23.9046 47.907 23.9581 48.0536 24.0314 48.1804C24.1075 48.3044 24.2061 48.4016 24.3273 48.4721C24.4485 48.5425 24.5964 48.5778 24.7712 48.5778C24.9403 48.5778 25.0854 48.5425 25.2066 48.4721C25.3277 48.4016 25.425 48.3044 25.4982 48.1804C25.5715 48.0536 25.6251 47.907 25.6589 47.7408C25.6955 47.5745 25.7138 47.3955 25.7138 47.2039V47.1151C25.7138 46.9291 25.6955 46.7544 25.6589 46.591C25.6251 46.4247 25.5701 46.2781 25.494 46.1513C25.4207 46.0217 25.3235 45.9202 25.2023 45.847C25.0812 45.7737 24.9346 45.737 24.7627 45.737C24.5908 45.737 24.4443 45.7737 24.3231 45.847C24.2047 45.9202 24.1075 46.0217 24.0314 46.1513C23.9581 46.2781 23.9046 46.4247 23.8708 46.591C23.8369 46.7544 23.82 46.9291 23.82 47.1151ZM30.9641 47.8338C30.9641 47.7239 30.9472 47.6252 30.9133 47.5379C30.8823 47.4477 30.8232 47.3659 30.7358 47.2927C30.6484 47.2166 30.5258 47.1419 30.368 47.0686C30.2102 46.9954 30.0059 46.9193 29.7551 46.8404C29.4761 46.7502 29.2112 46.6487 28.9604 46.536C28.7124 46.4233 28.4925 46.2922 28.3009 46.1429C28.1121 45.9907 27.9627 45.8145 27.8528 45.6145C27.7457 45.4144 27.6922 45.1819 27.6922 44.917C27.6922 44.6605 27.7485 44.428 27.8613 44.2195C27.974 44.0081 28.1318 43.8277 28.3347 43.6784C28.5376 43.5262 28.7772 43.4093 29.0534 43.3275C29.3324 43.2458 29.6381 43.2049 29.9707 43.2049C30.4244 43.2049 30.8203 43.2867 31.1585 43.4501C31.4967 43.6136 31.7588 43.8376 31.9448 44.1222C32.1336 44.4069 32.228 44.7324 32.228 45.0987H30.9683C30.9683 44.9184 30.9302 44.7606 30.8542 44.6253C30.7809 44.4872 30.6682 44.3787 30.516 44.2998C30.3666 44.2209 30.1778 44.1814 29.9495 44.1814C29.7297 44.1814 29.5465 44.2152 29.4 44.2829C29.2534 44.3477 29.1435 44.4365 29.0703 44.5492C28.997 44.6591 28.9604 44.7831 28.9604 44.9212C28.9604 45.0255 28.9857 45.1199 29.0364 45.2044C29.09 45.289 29.1689 45.3679 29.2732 45.4411C29.3774 45.5144 29.5057 45.5835 29.6578 45.6483C29.81 45.7131 29.9862 45.7765 30.1863 45.8385C30.5216 45.94 30.8161 46.0541 31.0697 46.1809C31.3262 46.3077 31.5404 46.45 31.7123 46.6079C31.8842 46.7657 32.0138 46.9446 32.1012 47.1447C32.1886 47.3448 32.2322 47.5717 32.2322 47.8253C32.2322 48.093 32.1801 48.3326 32.0758 48.5439C31.9716 48.7553 31.8208 48.9342 31.6235 49.0808C31.4262 49.2273 31.1909 49.3387 30.9176 49.4147C30.6442 49.4908 30.3384 49.5289 30.0003 49.5289C29.6959 49.5289 29.3958 49.4894 29.0999 49.4105C28.8039 49.3288 28.5348 49.2062 28.2925 49.0427C28.0529 48.8793 27.8613 48.6708 27.7175 48.4171C27.5738 48.1635 27.502 47.8633 27.502 47.5167H28.7744C28.7744 47.7084 28.8039 47.8704 28.8631 48.0028C28.9223 48.1353 29.0054 48.2424 29.1125 48.3241C29.2224 48.4058 29.3521 48.465 29.5014 48.5017C29.6536 48.5383 29.8199 48.5566 30.0003 48.5566C30.2201 48.5566 30.4004 48.5256 30.5413 48.4636C30.6851 48.4016 30.7907 48.3157 30.8584 48.2058C30.9288 48.0958 30.9641 47.9718 30.9641 47.8338Z" fill="white"></path><rect x="53.3418" y="10.6567" width="16.6858" height="3.12976" fill="#4FA83D"></rect><rect x="51.1255" y="16.2607" width="21.2448" height="3.12976" fill="#4FA83D"></rect><rect x="48.1699" y="21.8643" width="27.2627" height="3.12976" fill="#4FA83D"></rect><rect x="45.2144" y="27.4673" width="33.6452" height="3.12976" fill="#4FA83D"></rect><rect x="40.7812" y="33.0708" width="42.853" height="2.95538" fill="#4FA83D"></rect><rect x="37.8262" y="38.5" width="48.025" height="2.95538" fill="#4FA83D"></rect><rect width="56.8882" height="3.12976" transform="matrix(0.999999 0.0010451 -0.00102656 1 33.3965 43.9292)" fill="#4FA83D"></rect></svg>