<svg xmlns="http://www.w3.org/2000/svg" width="125" height="126" viewBox="0 0 125 126" fill="none"><g clip-path="url(#clip0_402_40170)"><path d="M124.84 62.8261L62.4198 0.40625L-2.76208e-06 62.8261L62.4198 125.246L124.84 62.8261Z" fill="#C7BAAF"></path><path d="M121.504 62.8266L62.4198 3.74219L3.33541 62.8266L62.4198 121.911L121.504 62.8266Z" fill="#F06A2B"></path><path d="M117.692 62.8252L62.4198 7.55273L7.1473 62.8252L62.4198 118.098L117.692 62.8252Z" fill="url(#paint0_linear_402_40170)"></path><path fill-rule="evenodd" clip-rule="evenodd" d="M40.599 81.9434L41.5883 84.0505L43.8001 84.3888L42.1993 86.0286L42.5777 88.345L40.599 87.2516L38.6208 88.345L38.9987 86.0286L37.3984 84.3888L39.6102 84.0505L40.599 81.9434Z" fill="#FFCB00"></path><path fill-rule="evenodd" clip-rule="evenodd" d="M84.3998 81.9434L85.3891 84.0505L87.6008 84.3888L86 86.0286L86.3785 88.345L84.3998 87.2516L82.4216 88.345L82.7995 86.0286L81.1992 84.3888L83.4109 84.0505L84.3998 81.9434Z" fill="#FFCB00"></path><path fill-rule="evenodd" clip-rule="evenodd" d="M60.945 17.252H63.456C63.5788 17.252 63.6783 17.3515 63.6783 17.4742V17.5638C63.6783 17.6491 63.646 17.7312 63.5879 17.7935L55.6948 26.2642C55.5744 26.3934 55.5742 26.5935 55.6941 26.7229L61.9342 33.4566C62.0529 33.5848 62.054 33.7824 61.9367 33.9119L60.7929 35.174C60.6679 35.3119 60.4548 35.3224 60.317 35.1974C60.3098 35.191 60.303 35.1842 60.2965 35.1772L52.4359 26.7225C52.3157 26.5933 52.3156 26.3932 52.4357 26.2639L60.6981 17.3597C60.7618 17.291 60.8513 17.252 60.945 17.252Z" fill="#F06A2A"></path><path fill-rule="evenodd" clip-rule="evenodd" d="M64.0442 36.793H61.5441C61.4202 36.793 61.3199 36.6926 61.3199 36.5688V36.475C61.3199 36.3911 61.3512 36.3102 61.4076 36.2481L69.299 27.5803C69.416 27.4518 69.4161 27.2555 69.2993 27.1269L63.0657 20.2644C62.9496 20.1366 62.949 19.9417 63.0642 19.8131L64.2057 18.5391C64.3299 18.4005 64.5429 18.3888 64.6815 18.513C64.6898 18.5204 64.6977 18.5282 64.7052 18.5364L72.5679 27.127C72.6854 27.2554 72.6857 27.4523 72.5686 27.5811L64.2935 36.6827C64.2297 36.7529 64.1392 36.793 64.0442 36.793Z" fill="#F06A2A"></path><path fill-rule="evenodd" clip-rule="evenodd" d="M62.9136 31.4027C64.5502 31.4027 65.8412 29.5603 65.6881 27.5903C65.62 26.7138 65.0886 25.1448 64.9084 25.4239C64.8195 25.5618 65.0213 26.6383 64.9552 27.2969C64.8453 28.3916 64.4311 29.0583 64.2195 28.6685C64.0078 28.2788 64.0805 27.5096 64.0291 26.6999C63.9734 25.822 63.8281 24.9477 63.6476 24.4054C63.5689 24.1689 62.8282 22.1585 62.294 21.9688C62.2593 21.9688 62.2376 21.9688 62.2287 21.9688C62.2115 21.9688 62.1625 21.9855 62.1326 22.0122C62.0149 22.117 62.1919 22.8071 61.7016 23.6475C61.3797 24.1992 60.7526 24.9185 60.4451 25.6248C60.0289 26.5811 59.9546 27.5183 59.976 28.0131C60.0693 30.1719 61.2769 31.4027 62.9136 31.4027Z" fill="#F06A2A"></path><path fill-rule="evenodd" clip-rule="evenodd" d="M22.6913 50.6094H102.151L114.556 62.9072L102.151 75.2051H22.6913L10.4453 62.9072L22.6913 50.6094Z" fill="url(#paint1_linear_402_40170)"></path><path d="M47.0686 86.373L48.1936 86.2637C48.2613 86.6413 48.398 86.9186 48.6038 87.0957C48.8121 87.2728 49.092 87.3613 49.4436 87.3613C49.816 87.3613 50.0959 87.2832 50.2834 87.127C50.4736 86.9681 50.5686 86.7832 50.5686 86.5723C50.5686 86.4368 50.5282 86.3223 50.4475 86.2285C50.3694 86.1322 50.2314 86.0488 50.0334 85.9785C49.898 85.9316 49.5894 85.8483 49.1077 85.7285C48.4879 85.5749 48.053 85.3861 47.803 85.1621C47.4514 84.847 47.2756 84.4629 47.2756 84.0098C47.2756 83.7181 47.3577 83.446 47.5217 83.1934C47.6884 82.9382 47.9267 82.7441 48.2366 82.6113C48.5491 82.4785 48.9254 82.4121 49.3655 82.4121C50.0842 82.4121 50.6246 82.5697 50.9866 82.8848C51.3512 83.1999 51.5426 83.6204 51.5608 84.1465L50.4045 84.1973C50.3551 83.903 50.2483 83.6921 50.0842 83.5645C49.9228 83.4342 49.6793 83.3691 49.3538 83.3691C49.0178 83.3691 48.7548 83.4382 48.5647 83.5762C48.4423 83.6647 48.3811 83.7832 48.3811 83.9316C48.3811 84.0671 48.4384 84.1829 48.553 84.2793C48.6988 84.4017 49.053 84.5293 49.6155 84.6621C50.178 84.7949 50.5933 84.9329 50.8616 85.0762C51.1324 85.2168 51.3433 85.4108 51.4944 85.6582C51.648 85.903 51.7249 86.2064 51.7249 86.5684C51.7249 86.8965 51.6337 87.2038 51.4514 87.4902C51.2691 87.7767 51.0113 87.9902 50.678 88.1309C50.3446 88.2689 49.9293 88.3379 49.4319 88.3379C48.7079 88.3379 48.1519 88.1712 47.7639 87.8379C47.3759 87.502 47.1441 87.0137 47.0686 86.373ZM55.4202 88.2363V87.6152C55.2691 87.8366 55.0699 88.0111 54.8225 88.1387C54.5777 88.2663 54.3186 88.3301 54.0452 88.3301C53.7665 88.3301 53.5165 88.2689 53.2952 88.1465C53.0738 88.0241 52.9137 87.8522 52.8147 87.6309C52.7157 87.4095 52.6663 87.1035 52.6663 86.7129V84.0879H53.7639V85.9941C53.7639 86.5775 53.7834 86.9355 53.8225 87.0684C53.8642 87.1986 53.9384 87.3027 54.0452 87.3809C54.1519 87.4564 54.2874 87.4941 54.4514 87.4941C54.6389 87.4941 54.8069 87.4434 54.9553 87.3418C55.1038 87.2376 55.2053 87.11 55.26 86.959C55.3147 86.8053 55.342 86.4316 55.342 85.8379V84.0879H56.4397V88.2363H55.4202ZM57.4983 84.0879H58.51V84.6543C58.872 84.2142 59.303 83.9941 59.803 83.9941C60.0686 83.9941 60.2991 84.0488 60.4944 84.1582C60.6897 84.2676 60.8499 84.4329 60.9749 84.6543C61.1571 84.4329 61.3538 84.2676 61.5647 84.1582C61.7756 84.0488 62.0009 83.9941 62.2405 83.9941C62.5452 83.9941 62.803 84.0566 63.0139 84.1816C63.2249 84.304 63.3824 84.485 63.4866 84.7246C63.5621 84.9017 63.5999 85.1882 63.5999 85.584V88.2363H62.5022V85.8652C62.5022 85.4538 62.4644 85.1882 62.3889 85.0684C62.2874 84.9121 62.1311 84.834 61.9202 84.834C61.7665 84.834 61.622 84.8809 61.4866 84.9746C61.3512 85.0684 61.2535 85.2064 61.1936 85.3887C61.1337 85.5684 61.1038 85.8535 61.1038 86.2441V88.2363H60.0061V85.9629C60.0061 85.5592 59.9866 85.2988 59.9475 85.1816C59.9084 85.0645 59.8472 84.9772 59.7639 84.9199C59.6832 84.8626 59.5725 84.834 59.4319 84.834C59.2626 84.834 59.1103 84.8796 58.9749 84.9707C58.8394 85.0618 58.7418 85.1934 58.6819 85.3652C58.6246 85.5371 58.5959 85.8223 58.5959 86.2207V88.2363H57.4983V84.0879ZM64.6155 84.0879H65.6272V84.6543C65.9892 84.2142 66.4202 83.9941 66.9202 83.9941C67.1858 83.9941 67.4163 84.0488 67.6116 84.1582C67.8069 84.2676 67.967 84.4329 68.092 84.6543C68.2743 84.4329 68.4709 84.2676 68.6819 84.1582C68.8928 84.0488 69.1181 83.9941 69.3577 83.9941C69.6624 83.9941 69.9202 84.0566 70.1311 84.1816C70.342 84.304 70.4996 84.485 70.6038 84.7246C70.6793 84.9017 70.717 85.1882 70.717 85.584V88.2363H69.6194V85.8652C69.6194 85.4538 69.5816 85.1882 69.5061 85.0684C69.4045 84.9121 69.2483 84.834 69.0374 84.834C68.8837 84.834 68.7392 84.8809 68.6038 84.9746C68.4683 85.0684 68.3707 85.2064 68.3108 85.3887C68.2509 85.5684 68.2209 85.8535 68.2209 86.2441V88.2363H67.1233V85.9629C67.1233 85.5592 67.1038 85.2988 67.0647 85.1816C67.0256 85.0645 66.9644 84.9772 66.8811 84.9199C66.8004 84.8626 66.6897 84.834 66.5491 84.834C66.3798 84.834 66.2275 84.8796 66.092 84.9707C65.9566 85.0618 65.859 85.1934 65.7991 85.3652C65.7418 85.5371 65.7131 85.8223 65.7131 86.2207V88.2363H64.6155V84.0879ZM74.217 86.916L75.3108 87.0996C75.1702 87.5007 74.9475 87.8066 74.6428 88.0176C74.3407 88.2259 73.9618 88.3301 73.5061 88.3301C72.7847 88.3301 72.2509 88.0944 71.9045 87.623C71.6311 87.2454 71.4944 86.7689 71.4944 86.1934C71.4944 85.5059 71.6741 84.9681 72.0334 84.5801C72.3928 84.1895 72.8472 83.9941 73.3967 83.9941C74.0139 83.9941 74.5009 84.1986 74.8577 84.6074C75.2144 85.0137 75.385 85.6374 75.3694 86.4785H72.6194C72.6272 86.804 72.7157 87.0579 72.885 87.2402C73.0543 87.4199 73.2652 87.5098 73.5178 87.5098C73.6897 87.5098 73.8342 87.4629 73.9514 87.3691C74.0686 87.2754 74.1571 87.1243 74.217 86.916ZM74.2795 85.8066C74.2717 85.4889 74.1897 85.248 74.0334 85.084C73.8772 84.9173 73.6871 84.834 73.4631 84.834C73.2236 84.834 73.0256 84.9212 72.8694 85.0957C72.7131 85.2702 72.6363 85.5072 72.6389 85.8066H74.2795ZM77.3186 88.2363H76.2209V84.0879H77.2405V84.6777C77.415 84.3991 77.5712 84.2155 77.7092 84.127C77.8499 84.0384 78.0087 83.9941 78.1858 83.9941C78.4358 83.9941 78.6767 84.0632 78.9084 84.2012L78.5686 85.1582C78.3837 85.0384 78.2118 84.9785 78.053 84.9785C77.8993 84.9785 77.7691 85.0215 77.6624 85.1074C77.5556 85.1908 77.4709 85.3431 77.4084 85.5645C77.3486 85.7858 77.3186 86.2493 77.3186 86.9551V88.2363Z" fill="white"></path><path d="M57.0781 97.5444V98.6914H52.7495C52.7964 98.2578 52.937 97.8477 53.1714 97.4609C53.4058 97.0713 53.8687 96.5557 54.5601 95.9141C55.1167 95.3955 55.458 95.0439 55.584 94.8594C55.7539 94.6045 55.8389 94.3525 55.8389 94.1035C55.8389 93.8281 55.7642 93.6172 55.6147 93.4707C55.4683 93.3213 55.2646 93.2466 55.0039 93.2466C54.7461 93.2466 54.541 93.3242 54.3887 93.4795C54.2363 93.6348 54.1484 93.8926 54.125 94.2529L52.8945 94.1299C52.9678 93.4502 53.1978 92.9624 53.5845 92.6665C53.9712 92.3706 54.4546 92.2227 55.0347 92.2227C55.6704 92.2227 56.1699 92.394 56.5332 92.7368C56.8965 93.0796 57.0781 93.5059 57.0781 94.0156C57.0781 94.3057 57.0254 94.5825 56.9199 94.8462C56.8174 95.1069 56.6533 95.3809 56.4277 95.668C56.2783 95.8584 56.0088 96.1323 55.6191 96.4897C55.2295 96.8472 54.9819 97.0845 54.8765 97.2017C54.7739 97.3188 54.6904 97.4331 54.626 97.5444H57.0781ZM60.0049 92.2227C60.6289 92.2227 61.1167 92.4453 61.4683 92.8906C61.8872 93.418 62.0967 94.2925 62.0967 95.5142C62.0967 96.7329 61.8857 97.6089 61.4639 98.1421C61.1152 98.5815 60.6289 98.8013 60.0049 98.8013C59.3779 98.8013 58.8726 98.561 58.4888 98.0806C58.105 97.5972 57.9131 96.7373 57.9131 95.501C57.9131 94.2881 58.124 93.415 58.5459 92.8818C58.8945 92.4424 59.3809 92.2227 60.0049 92.2227ZM60.0049 93.2466C59.8555 93.2466 59.7222 93.2949 59.605 93.3916C59.4878 93.4854 59.397 93.6553 59.3325 93.9014C59.2476 94.2207 59.2051 94.7583 59.2051 95.5142C59.2051 96.27 59.2432 96.79 59.3193 97.0742C59.3955 97.3555 59.4907 97.543 59.605 97.6367C59.7222 97.7305 59.8555 97.7773 60.0049 97.7773C60.1543 97.7773 60.2876 97.7305 60.4048 97.6367C60.522 97.54 60.6128 97.3687 60.6772 97.1226C60.7622 96.8062 60.8047 96.27 60.8047 95.5142C60.8047 94.7583 60.7666 94.2397 60.6904 93.9585C60.6143 93.6743 60.5176 93.4854 60.4004 93.3916C60.2861 93.2949 60.1543 93.2466 60.0049 93.2466ZM67.0977 97.5444V98.6914H62.769C62.8159 98.2578 62.9565 97.8477 63.1909 97.4609C63.4253 97.0713 63.8882 96.5557 64.5796 95.9141C65.1362 95.3955 65.4775 95.0439 65.6035 94.8594C65.7734 94.6045 65.8584 94.3525 65.8584 94.1035C65.8584 93.8281 65.7837 93.6172 65.6343 93.4707C65.4878 93.3213 65.2842 93.2466 65.0234 93.2466C64.7656 93.2466 64.5605 93.3242 64.4082 93.4795C64.2559 93.6348 64.168 93.8926 64.1445 94.2529L62.9141 94.1299C62.9873 93.4502 63.2173 92.9624 63.604 92.6665C63.9907 92.3706 64.4741 92.2227 65.0542 92.2227C65.6899 92.2227 66.1895 92.394 66.5527 92.7368C66.916 93.0796 67.0977 93.5059 67.0977 94.0156C67.0977 94.3057 67.0449 94.5825 66.9395 94.8462C66.8369 95.1069 66.6729 95.3809 66.4473 95.668C66.2979 95.8584 66.0283 96.1323 65.6387 96.4897C65.249 96.8472 65.0015 97.0845 64.896 97.2017C64.7935 97.3188 64.71 97.4331 64.6455 97.5444H67.0977ZM72.1074 97.5444V98.6914H67.7788C67.8257 98.2578 67.9663 97.8477 68.2007 97.4609C68.4351 97.0713 68.8979 96.5557 69.5894 95.9141C70.146 95.3955 70.4873 95.0439 70.6133 94.8594C70.7832 94.6045 70.8682 94.3525 70.8682 94.1035C70.8682 93.8281 70.7935 93.6172 70.644 93.4707C70.4976 93.3213 70.2939 93.2466 70.0332 93.2466C69.7754 93.2466 69.5703 93.3242 69.418 93.4795C69.2656 93.6348 69.1777 93.8926 69.1543 94.2529L67.9238 94.1299C67.9971 93.4502 68.2271 92.9624 68.6138 92.6665C69.0005 92.3706 69.4839 92.2227 70.064 92.2227C70.6997 92.2227 71.1992 92.394 71.5625 92.7368C71.9258 93.0796 72.1074 93.5059 72.1074 94.0156C72.1074 94.3057 72.0547 94.5825 71.9492 94.8462C71.8467 95.1069 71.6826 95.3809 71.457 95.668C71.3076 95.8584 71.0381 96.1323 70.6484 96.4897C70.2588 96.8472 70.0112 97.0845 69.9058 97.2017C69.8032 97.3188 69.7197 97.4331 69.6553 97.5444H72.1074Z" fill="white"></path><path d="M20.1358 66.3145V58.4997H17.3448V56.9085H24.8196V58.4997H22.035V66.3145H20.1358ZM24.6463 62.8113C24.6463 62.2124 24.7939 61.6328 25.089 61.0725C25.3842 60.5122 25.8012 60.0844 26.3402 59.7893C26.8834 59.4941 27.4887 59.3466 28.1559 59.3466C29.1868 59.3466 30.0316 59.6824 30.6903 60.3539C31.349 61.0212 31.6784 61.866 31.6784 62.8883C31.6784 63.9191 31.3447 64.7746 30.6775 65.4547C30.0145 66.1305 29.1782 66.4684 28.1688 66.4684C27.5443 66.4684 26.9476 66.3273 26.3787 66.045C25.8141 65.7627 25.3842 65.3499 25.089 64.8067C24.7939 64.2592 24.6463 63.594 24.6463 62.8113ZM26.4942 62.9075C26.4942 63.5833 26.6546 64.1009 26.9754 64.4602C27.2962 64.8195 27.6918 64.9992 28.1623 64.9992C28.6329 64.9992 29.0264 64.8195 29.3429 64.4602C29.6637 64.1009 29.8241 63.5791 29.8241 62.8947C29.8241 62.2274 29.6637 61.7141 29.3429 61.3548C29.0264 60.9955 28.6329 60.8159 28.1623 60.8159C27.6918 60.8159 27.2962 60.9955 26.9754 61.3548C26.6546 61.7141 26.4942 62.2317 26.4942 62.9075ZM33.045 59.5006H34.726V60.5015C34.9442 60.1593 35.2393 59.8812 35.6114 59.6674C35.9836 59.4535 36.3963 59.3466 36.8497 59.3466C37.6411 59.3466 38.3126 59.6567 38.8644 60.2769C39.4162 60.8971 39.6921 61.7612 39.6921 62.869C39.6921 64.0068 39.414 64.8922 38.858 65.5253C38.3019 66.1541 37.6282 66.4684 36.8369 66.4684C36.4605 66.4684 36.1183 66.3936 35.8103 66.2439C35.5066 66.0942 35.1858 65.8375 34.8479 65.4739V68.9066H33.045V59.5006ZM34.8287 62.792C34.8287 63.5577 34.9805 64.1244 35.2842 64.4923C35.5879 64.8559 35.9579 65.0377 36.3942 65.0377C36.8134 65.0377 37.162 64.8708 37.44 64.5372C37.718 64.1993 37.8571 63.6475 37.8571 62.8818C37.8571 62.1675 37.7138 61.6371 37.4272 61.2907C37.1406 60.9442 36.7856 60.7709 36.3621 60.7709C35.9215 60.7709 35.5558 60.942 35.265 61.2842C34.9741 61.6221 34.8287 62.1247 34.8287 62.792ZM44.7993 66.3145V56.9085H47.8469C49.0018 56.9085 49.7546 56.9555 50.1054 57.0496C50.6443 57.1908 51.0956 57.4987 51.4592 57.9735C51.8228 58.444 52.0045 59.0536 52.0045 59.8021C52.0045 60.3796 51.8998 60.8651 51.6902 61.2586C51.4806 61.6521 51.2132 61.9622 50.8881 62.1889C50.5673 62.4113 50.2401 62.5589 49.9065 62.6316C49.4531 62.7214 48.7965 62.7664 47.9367 62.7664H46.6984V66.3145H44.7993ZM46.6984 58.4997V61.1687H47.7378C48.4864 61.1687 48.9868 61.1196 49.2392 61.0212C49.4916 60.9228 49.6883 60.7688 49.8295 60.5592C49.9749 60.3496 50.0476 60.1058 50.0476 59.8278C50.0476 59.4856 49.9471 59.2033 49.7461 58.9809C49.545 58.7584 49.2905 58.6194 48.9826 58.5638C48.7559 58.521 48.3003 58.4997 47.6159 58.4997H46.6984ZM57.4967 64.1458L59.2932 64.4474C59.0622 65.1061 58.6965 65.6087 58.1961 65.9552C57.6999 66.2973 57.0775 66.4684 56.329 66.4684C55.1442 66.4684 54.2673 66.0813 53.6984 65.3071C53.2493 64.6869 53.0247 63.9041 53.0247 62.9588C53.0247 61.8296 53.3198 60.9463 53.9101 60.309C54.5004 59.6674 55.2468 59.3466 56.1493 59.3466C57.1631 59.3466 57.963 59.6824 58.549 60.3539C59.135 61.0212 59.4151 62.0456 59.3895 63.4272H54.8725C54.8854 63.9619 55.0308 64.3789 55.3088 64.6783C55.5869 64.9735 55.9333 65.1211 56.3482 65.1211C56.6305 65.1211 56.8679 65.0441 57.0604 64.8901C57.2529 64.7361 57.3983 64.488 57.4967 64.1458ZM57.5994 62.3236C57.5865 61.8018 57.4518 61.4061 57.1952 61.1367C56.9385 60.8629 56.6263 60.726 56.2584 60.726C55.8649 60.726 55.5398 60.8693 55.2832 61.1559C55.0265 61.4425 54.9003 61.8317 54.9046 62.3236H57.5994ZM62.5911 66.3145H60.7882V59.5006H62.4628V60.4694C62.7494 60.0117 63.006 59.7102 63.2327 59.5647C63.4637 59.4193 63.7246 59.3466 64.0155 59.3466C64.4261 59.3466 64.8218 59.4599 65.2025 59.6866L64.6443 61.2586C64.3406 61.0618 64.0583 60.9634 63.7973 60.9634C63.545 60.9634 63.3311 61.034 63.1557 61.1752C62.9803 61.312 62.8413 61.5623 62.7387 61.9258C62.6403 62.2894 62.5911 63.0508 62.5911 64.21V66.3145ZM65.196 59.5006H66.1969V58.9873C66.1969 58.4141 66.2568 57.9864 66.3766 57.7041C66.5006 57.4217 66.7252 57.1929 67.0503 57.0175C67.3796 56.8379 67.7946 56.7481 68.295 56.7481C68.8083 56.7481 69.3109 56.8251 69.8028 56.979L69.559 58.2366C69.2724 58.1682 68.9965 58.1339 68.7313 58.1339C68.4704 58.1339 68.2822 58.196 68.1667 58.32C68.0555 58.4398 67.9999 58.6729 67.9999 59.0194V59.5006H69.3472V60.9185H67.9999V66.3145H66.1969V60.9185H65.196V59.5006ZM69.9439 62.8113C69.9439 62.2124 70.0915 61.6328 70.3867 61.0725C70.6818 60.5122 71.0988 60.0844 71.6378 59.7893C72.181 59.4941 72.7863 59.3466 73.4536 59.3466C74.4844 59.3466 75.3292 59.6824 75.9879 60.3539C76.6466 61.0212 76.976 61.866 76.976 62.8883C76.976 63.9191 76.6423 64.7746 75.9751 65.4547C75.3121 66.1305 74.4758 66.4684 73.4664 66.4684C72.8419 66.4684 72.2452 66.3273 71.6763 66.045C71.1117 65.7627 70.6818 65.3499 70.3867 64.8067C70.0915 64.2592 69.9439 63.594 69.9439 62.8113ZM71.7918 62.9075C71.7918 63.5833 71.9522 64.1009 72.273 64.4602C72.5938 64.8195 72.9895 64.9992 73.46 64.9992C73.9305 64.9992 74.324 64.8195 74.6405 64.4602C74.9613 64.1009 75.1217 63.5791 75.1217 62.8947C75.1217 62.2274 74.9613 61.7141 74.6405 61.3548C74.324 60.9955 73.9305 60.8159 73.46 60.8159C72.9895 60.8159 72.5938 60.9955 72.273 61.3548C71.9522 61.7141 71.7918 62.2317 71.7918 62.9075ZM80.1199 66.3145H78.3169V59.5006H79.9915V60.4694C80.2781 60.0117 80.5348 59.7102 80.7615 59.5647C80.9925 59.4193 81.2534 59.3466 81.5442 59.3466C81.9549 59.3466 82.3505 59.4599 82.7312 59.6866L82.173 61.2586C81.8693 61.0618 81.587 60.9634 81.3261 60.9634C81.0737 60.9634 80.8599 61.034 80.6845 61.1752C80.5091 61.312 80.3701 61.5623 80.2674 61.9258C80.1691 62.2894 80.1199 63.0508 80.1199 64.21V66.3145ZM83.3792 59.5006H85.041V60.4309C85.6356 59.708 86.3435 59.3466 87.1647 59.3466C87.601 59.3466 87.9796 59.4364 88.3004 59.6161C88.6212 59.7957 88.8843 60.0673 89.0896 60.4309C89.389 60.0673 89.7119 59.7957 90.0584 59.6161C90.4049 59.4364 90.7749 59.3466 91.1684 59.3466C91.6688 59.3466 92.0923 59.4492 92.4388 59.6545C92.7852 59.8556 93.044 60.1529 93.2151 60.5464C93.3392 60.8372 93.4012 61.3078 93.4012 61.9579V66.3145H91.5983V62.4199C91.5983 61.7441 91.5362 61.3078 91.4122 61.111C91.2454 60.8544 90.9887 60.726 90.6423 60.726C90.3899 60.726 90.1525 60.803 89.9301 60.957C89.7077 61.111 89.5472 61.3377 89.4489 61.6371C89.3505 61.9323 89.3013 62.4006 89.3013 63.0422V66.3145H87.4984V62.5803C87.4984 61.9173 87.4663 61.4896 87.4021 61.2971C87.338 61.1046 87.2375 60.9613 87.1006 60.8672C86.968 60.7731 86.7862 60.726 86.5552 60.726C86.2772 60.726 86.027 60.8009 85.8045 60.9506C85.5821 61.1003 85.4217 61.3163 85.3233 61.5986C85.2292 61.8809 85.1822 62.3493 85.1822 63.0037V66.3145H83.3792V59.5006ZM99.15 64.1458L100.947 64.4474C100.716 65.1061 100.35 65.6087 99.8494 65.9552C99.3532 66.2973 98.7308 66.4684 97.9823 66.4684C96.7974 66.4684 95.9206 66.0813 95.3517 65.3071C94.9025 64.6869 94.678 63.9041 94.678 62.9588C94.678 61.8296 94.9731 60.9463 95.5634 60.309C96.1537 59.6674 96.9001 59.3466 97.8026 59.3466C98.8164 59.3466 99.6162 59.6824 100.202 60.3539C100.788 61.0212 101.068 62.0456 101.043 63.4272H96.5258C96.5387 63.9619 96.6841 64.3789 96.9621 64.6783C97.2401 64.9735 97.5866 65.1211 98.0015 65.1211C98.2838 65.1211 98.5212 65.0441 98.7137 64.8901C98.9062 64.7361 99.0516 64.488 99.15 64.1458ZM99.2527 62.3236C99.2398 61.8018 99.1051 61.4061 98.8484 61.1367C98.5918 60.8629 98.2796 60.726 97.9117 60.726C97.5182 60.726 97.1931 60.8693 96.9365 61.1559C96.6798 61.4425 96.5536 61.8317 96.5579 62.3236H99.2527ZM104.244 66.3145H102.441V59.5006H104.116V60.4694C104.403 60.0117 104.659 59.7102 104.886 59.5647C105.117 59.4193 105.378 59.3466 105.669 59.3466C106.079 59.3466 106.475 59.4599 106.856 59.6866L106.298 61.2586C105.994 61.0618 105.712 60.9634 105.451 60.9634C105.198 60.9634 104.984 61.034 104.809 61.1752C104.634 61.312 104.495 61.5623 104.392 61.9258C104.294 62.2894 104.244 63.0508 104.244 64.21V66.3145Z" fill="black"></path><path fill-rule="evenodd" clip-rule="evenodd" d="M34.4247 41.7294C34.4006 41.7807 34.3663 41.807 34.3078 41.807C34.2735 41.807 34.2265 41.7807 34.1681 41.7168C34.1108 41.653 34.0283 41.5904 33.9355 41.5265C33.8301 41.4489 33.7133 41.3863 33.562 41.335C33.4108 41.2711 33.2241 41.2448 33.0029 41.2448C32.7807 41.2448 32.5951 41.2849 32.4198 41.3475C32.2571 41.4113 32.1174 41.5127 32.0005 41.6279C31.8836 41.7431 31.8023 41.8821 31.7439 42.0349C31.6854 42.1876 31.6511 42.3541 31.6511 42.5194C31.6511 42.7485 31.698 42.9276 31.7782 43.0803C31.8607 43.2193 31.9776 43.347 32.1288 43.4497C32.2686 43.5511 32.4313 43.64 32.618 43.7038C32.8047 43.7815 32.9915 43.8441 33.1782 43.9079C33.3638 43.9718 33.5506 44.0482 33.7373 44.137C33.9241 44.2134 34.0753 44.3286 34.2265 44.4425C34.3777 44.5577 34.4831 44.7243 34.5759 44.9008C34.6584 45.0798 34.7042 45.309 34.7042 45.5769C34.7042 45.8574 34.6584 46.1115 34.5759 46.3532C34.4946 46.5961 34.3663 46.8127 34.2036 46.9905C34.0409 47.1695 33.8301 47.3085 33.5975 47.4237C33.3524 47.5251 33.0843 47.5764 32.7807 47.5764C32.3854 47.5764 32.036 47.5001 31.7553 47.3473C31.4643 47.1946 31.2192 46.9767 30.998 46.7113L31.1149 46.5059C31.1493 46.4546 31.1848 46.4433 31.2306 46.4433C31.2547 46.4433 31.289 46.4546 31.3246 46.4947C31.3589 46.5322 31.4174 46.5836 31.4643 46.6336C31.5228 46.685 31.5926 46.7488 31.674 46.8127C31.7553 46.8753 31.8481 46.9391 31.9535 46.9905C32.0589 47.0418 32.1758 47.0919 32.3156 47.1295C32.4553 47.1695 32.6065 47.1808 32.7807 47.1808C33.0259 47.1808 33.2355 47.1432 33.4223 47.0668C33.609 46.9905 33.7717 46.8753 33.9 46.7488C34.0283 46.6211 34.1337 46.4433 34.2036 46.2643C34.2735 46.074 34.3078 45.8699 34.3078 45.6658C34.3078 45.4367 34.2609 45.2464 34.1807 45.0936C34.0982 44.9396 33.9813 44.8119 33.8301 44.7105C33.6903 44.6091 33.5277 44.5202 33.3409 44.4563C33.1542 44.3925 32.9686 44.3148 32.7807 44.2522C32.5951 44.1884 32.4084 44.1108 32.2216 44.0356C32.036 43.958 31.8836 43.8566 31.7324 43.7301C31.5926 43.6024 31.4758 43.4497 31.383 43.2581C31.3005 43.0665 31.2547 42.8387 31.2547 42.5444C31.2547 42.3291 31.289 42.1125 31.3704 41.9084C31.4529 41.7031 31.5583 41.5265 31.7084 41.36C31.8607 41.2072 32.036 41.0795 32.2571 40.9781C32.4782 40.8892 32.7234 40.8379 33.0029 40.8379C33.318 40.8379 33.5975 40.8892 33.853 41.0044C34.0982 41.1184 34.3308 41.2849 34.5416 41.5002L34.4247 41.7294Z" fill="white"></path><path fill-rule="evenodd" clip-rule="evenodd" d="M41.3615 44.2065C41.3615 43.7514 41.2987 43.3335 41.173 42.9666C41.0485 42.5997 40.8723 42.2963 40.6469 42.0438C40.4214 41.7901 40.1454 41.5998 39.8201 41.4618C39.4935 41.3225 39.1424 41.259 38.7542 41.259C38.3648 41.259 38.0149 41.3225 37.6884 41.4618C37.3618 41.5998 37.0871 41.7901 36.8616 42.0438C36.6361 42.2963 36.4476 42.5997 36.3219 42.9666C36.1962 43.3335 36.1333 43.7389 36.1333 44.2065C36.1333 44.6617 36.1962 45.0796 36.3219 45.4465C36.4476 45.8134 36.6225 46.1168 36.8616 46.3705C37.0871 46.623 37.3618 46.8133 37.6884 46.9526C38.0149 47.0906 38.3648 47.1553 38.7542 47.1553C39.1424 47.1553 39.5058 47.0906 39.8201 46.9526C40.1454 46.8257 40.4214 46.623 40.6469 46.3705C40.8723 46.1168 41.0485 45.8134 41.173 45.4465C41.2987 45.0796 41.3615 44.6754 41.3615 44.2065ZM41.7798 44.2072C41.7798 44.7139 41.7063 45.1696 41.5594 45.588C41.4124 46.0063 41.204 46.36 40.9354 46.6526C40.6656 46.9427 40.3476 47.1718 39.979 47.3361C39.6117 47.5017 39.1949 47.5764 38.742 47.5764C38.3 47.5764 37.8844 47.5017 37.5158 47.3361C37.1485 47.1718 36.8305 46.9564 36.5594 46.6526C36.2908 46.36 36.0825 46.0063 35.9355 45.588C35.7886 45.1696 35.7151 44.7139 35.7151 44.2072C35.7151 43.7016 35.7886 43.2447 35.9355 42.8276C36.0825 42.4092 36.2908 42.0544 36.5594 41.763C36.8305 41.4717 37.1485 41.2426 37.5158 41.0782C37.8844 40.9138 38.3 40.8379 38.742 40.8379C39.1949 40.8379 39.6117 40.9138 39.979 41.0782C40.3476 41.2426 40.6656 41.4592 40.9354 41.763C41.204 42.0544 41.4124 42.4092 41.5594 42.8276C41.7063 43.2447 41.7798 43.7016 41.7798 44.2072Z" fill="white"></path><path fill-rule="evenodd" clip-rule="evenodd" d="M45.4978 47.1538C45.7967 47.1538 46.0602 47.102 46.3002 46.986C46.5391 46.8699 46.7309 46.716 46.8979 46.5242C47.0662 46.3324 47.185 46.0877 47.2686 45.8316C47.3533 45.5616 47.4004 45.2802 47.4004 44.9585V40.8379H47.8439V44.9585C47.8439 45.3307 47.7839 45.6638 47.6769 45.9855C47.5686 46.3059 47.4121 46.5759 47.2097 46.8194C47.0062 47.0503 46.7544 47.2434 46.4673 47.372C46.1802 47.4995 45.8449 47.5764 45.486 47.5764C45.1272 47.5764 44.7907 47.5121 44.5036 47.372C44.2165 47.2307 43.9659 47.0503 43.7611 46.8194C43.5588 46.5886 43.4023 46.3059 43.2952 45.9855C43.187 45.6638 43.127 45.3181 43.127 44.9585V40.8379H43.5823V44.9459C43.5823 45.2537 43.6305 45.5489 43.7141 45.8177C43.7976 46.0877 43.9294 46.3186 44.0847 46.5116C44.253 46.7046 44.4436 46.8585 44.6836 46.9734C44.9224 47.1021 45.1989 47.1538 45.4978 47.1538Z" fill="white"></path><path fill-rule="evenodd" clip-rule="evenodd" d="M50.4564 44.1612H50.5756H50.8643C51.1673 44.1612 51.4444 44.1229 51.6813 44.0578C51.9183 43.9787 52.1293 43.8881 52.2873 43.7464C52.4582 43.615 52.5773 43.4465 52.6693 43.2653C52.7612 43.0828 52.8013 42.862 52.8013 42.6297C52.8013 42.1486 52.6434 41.7976 52.3274 41.5641C52.0115 41.3305 51.5492 41.2131 50.9303 41.2131H49.6795V44.1612V44.5249V47.5764H49.1914V40.8379H50.9303C51.7215 40.8379 52.3145 40.9936 52.6952 41.2922C53.0914 41.5896 53.2752 42.0312 53.2752 42.6157C53.2752 42.876 53.2351 43.1096 53.1445 43.3176C53.0512 43.5244 52.9192 43.7196 52.7482 43.8753C52.5773 44.031 52.3792 44.174 52.1423 44.2646C51.9053 44.3692 51.6282 44.4343 51.3395 44.4726C51.4185 44.5249 51.4832 44.59 51.5492 44.6666L53.9084 47.5764H53.4733C53.4202 47.5764 53.3814 47.5624 53.3413 47.5496C53.3024 47.5381 53.2623 47.4973 53.2351 47.459L51.0495 44.7317C50.9964 44.6666 50.9303 44.6156 50.8785 44.59C50.8125 44.5632 50.4292 44.5517 50.2985 44.5517C50.2985 44.1995 50.3503 44.1612 50.4564 44.1612Z" fill="white"></path><path fill-rule="evenodd" clip-rule="evenodd" d="M58.7154 46.3964C58.7398 46.3964 58.7745 46.4101 58.7861 46.4338L58.9621 46.6371C58.8336 46.7781 58.7039 46.9166 58.5498 47.0313C58.397 47.1461 58.2325 47.2471 58.0553 47.3232C57.8793 47.3993 57.6778 47.4617 57.4786 47.5141C57.2667 47.5652 57.0304 47.5764 56.7837 47.5764C56.3587 47.5764 55.9696 47.5003 55.6164 47.3357C55.2632 47.171 54.9563 46.954 54.7096 46.6496C54.4618 46.359 54.2614 46.0034 54.1201 45.5843C53.9788 45.1664 53.9082 44.7086 53.9082 44.2009C53.9082 43.7069 53.9788 43.2491 54.1317 42.8313C54.2742 42.4121 54.4861 42.0691 54.7443 41.7647C55.0038 41.4728 55.3222 41.2433 55.687 41.0786C56.053 40.914 56.4653 40.8379 56.9007 40.8379C57.1242 40.8379 57.3246 40.8504 57.5133 40.889C57.7021 40.9265 57.8677 40.9776 58.0322 41.0412C58.1966 41.1048 58.3379 41.1934 58.4792 41.2944C58.6205 41.3955 58.7629 41.5102 58.8915 41.6375L58.7629 41.8408C58.7398 41.8782 58.7039 41.892 58.6564 41.892C58.6332 41.892 58.5973 41.8782 58.5626 41.8408C58.5267 41.8021 58.4676 41.7647 58.4085 41.7136C58.3506 41.6624 58.2673 41.6125 58.185 41.5614C58.1028 41.4978 57.9963 41.4466 57.8677 41.4092C57.7496 41.3581 57.6071 41.3206 57.4427 41.282C57.2898 41.2433 57.1011 41.2308 56.9007 41.2308C56.5232 41.2308 56.1815 41.2944 55.8758 41.4342C55.5701 41.5739 55.2991 41.7647 55.0744 42.0304C54.8509 42.2849 54.6737 42.6017 54.544 42.9573C54.4154 43.3128 54.3564 43.7306 54.3564 44.1872C54.3564 44.6575 54.4154 45.0641 54.544 45.4321C54.6737 45.7989 54.8393 46.1045 55.0628 46.359C55.2875 46.6122 55.5457 46.8018 55.8411 46.9415C56.1352 47.0825 56.4653 47.1461 56.8069 47.1461C57.0304 47.1461 57.2192 47.1324 57.3952 47.0949C57.5724 47.0687 57.7264 47.0188 57.8677 46.954C58.009 46.8904 58.1503 46.8155 58.2673 46.7269C58.397 46.6371 58.5151 46.5361 58.6332 46.4101C58.6448 46.3964 58.6564 46.3839 58.668 46.3839C58.6795 46.4101 58.7039 46.3964 58.7154 46.3964Z" fill="white"></path><path fill-rule="evenodd" clip-rule="evenodd" d="M64.0177 40.8379V41.2407H60.4691V43.9732H63.4197V44.3632H60.4691V47.1737H64.0177V47.5764H59.9746V40.8379H64.0177Z" fill="white"></path><path fill-rule="evenodd" clip-rule="evenodd" d="M69.4074 40.8379V41.8421H66.3254V43.8329H68.9227V44.8359H66.3254V47.5764H65.0273V40.8516H69.4074V40.8379Z" fill="white"></path><path fill-rule="evenodd" clip-rule="evenodd" d="M75.5571 44.2072C75.5571 43.8479 75.5067 43.5252 75.406 43.2414C75.3065 42.9564 75.1702 42.7092 74.9946 42.5095C74.8189 42.311 74.5942 42.1624 74.3326 42.0515C74.0697 41.9407 73.7823 41.8908 73.4581 41.8908C73.1326 41.8908 72.8452 41.9407 72.5836 42.0515C72.3207 42.1624 72.1082 42.311 71.9203 42.5095C71.7336 42.7092 71.5961 42.9564 71.4954 43.2414C71.3959 43.5252 71.3455 43.8479 71.3455 44.2072C71.3455 44.5664 71.3959 44.8892 71.4954 45.1741C71.5961 45.4579 71.7336 45.7064 71.9203 45.9049C72.1082 46.1034 72.3207 46.252 72.5836 46.364C72.8452 46.4748 73.1326 46.5235 73.4581 46.5235C73.7823 46.5235 74.0697 46.4748 74.3326 46.364C74.5942 46.252 74.8067 46.1034 74.9946 45.9049C75.1702 45.7064 75.3065 45.4579 75.406 45.1741C75.5067 44.8892 75.5571 44.5664 75.5571 44.2072ZM76.8206 44.2072C76.8206 44.6923 76.7455 45.1408 76.5829 45.5502C76.4204 45.9608 76.1951 46.3201 75.8935 46.6195C75.6066 46.9177 75.2434 47.1536 74.8297 47.3284C74.416 47.5019 73.953 47.5764 73.4519 47.5764C72.9508 47.5764 72.4866 47.4909 72.0729 47.3284C71.6605 47.1536 71.3096 46.9312 71.0092 46.6195C70.7075 46.3201 70.4822 45.9608 70.3197 45.5502C70.1571 45.1408 70.082 44.6923 70.082 44.2072C70.082 43.7232 70.1571 43.2747 70.3197 42.8641C70.4822 42.4535 70.7075 42.0942 71.0092 41.7948C71.3096 41.4966 71.6605 41.2607 72.0729 41.086C72.4866 40.9124 72.9508 40.8379 73.4519 40.8379C73.953 40.8379 74.416 40.9247 74.8297 41.0994C75.2434 41.2742 75.593 41.51 75.8935 41.8082C76.1816 42.1064 76.4204 42.4669 76.5829 42.8775C76.7332 43.2747 76.8206 43.7232 76.8206 44.2072Z" fill="white"></path><path fill-rule="evenodd" clip-rule="evenodd" d="M79.0701 44.0415H79.3328C79.5494 44.0415 79.7324 44.0153 79.8918 43.9528C80.0523 43.889 80.178 43.8128 80.2813 43.7103C80.3835 43.6091 80.4632 43.4828 80.5092 43.3416C80.5552 43.2028 80.5889 43.0366 80.5889 42.8716C80.5889 42.5278 80.4868 42.2616 80.2813 42.0841C80.0759 41.9054 79.7672 41.8041 79.3552 41.8041H78.6256V44.0415V44.9453V47.5764H77.494V40.8379H79.344C79.7548 40.8379 80.1096 40.8891 80.4059 40.9779C80.7034 41.0654 80.9425 41.2054 81.1266 41.3704C81.3085 41.5366 81.4566 41.7529 81.5375 41.9829C81.6284 42.2228 81.6744 42.4778 81.6744 42.7691C81.6744 42.9991 81.6396 43.2153 81.5824 43.4191C81.5262 43.6216 81.4342 43.8003 81.3197 43.9653C81.2052 44.1303 81.0682 44.2715 80.8976 44.3978C80.7259 44.5253 80.5429 44.6265 80.3262 44.6915C80.4632 44.779 80.5889 44.9065 80.6922 45.0715L82.211 47.5639H81.1951C81.0918 47.5639 81.011 47.5389 80.9425 47.5014C80.874 47.4627 80.8179 47.4002 80.7719 47.3102L79.5045 45.149C79.4697 45.0978 79.4012 44.9828 79.3328 44.9703H78.9331V44.1565C78.9444 44.0415 79.0701 44.0415 79.0701 44.0415Z" fill="white"></path><path fill-rule="evenodd" clip-rule="evenodd" d="M85.9122 46.6213C86.1805 46.6213 86.4236 46.5957 86.6189 46.5456C86.8141 46.4969 87.0093 46.4224 87.1914 46.3358V44.8464H86.3877C86.3146 44.8464 86.2535 44.8208 86.2044 44.7842C86.1565 44.7341 86.1314 44.6854 86.1314 44.6231V43.9278H88.2766V46.8823C88.1185 47.0055 87.9472 47.1043 87.7639 47.1922C87.5819 47.2788 87.3986 47.3544 87.1914 47.4154C86.9854 47.4776 86.7782 47.5142 86.5458 47.5398C86.3146 47.5642 86.0703 47.5764 85.8032 47.5764C85.3277 47.5764 84.9013 47.4898 84.4988 47.3288C84.0964 47.1666 83.755 46.9311 83.4747 46.6335C83.1825 46.3358 82.9633 45.976 82.7932 45.5661C82.6339 45.1574 82.5488 44.6975 82.5488 44.2133C82.5488 43.7168 82.6219 43.2703 82.7812 42.8482C82.9393 42.4384 83.1585 42.0785 83.4508 41.7808C83.743 41.4832 84.0964 41.2478 84.5108 41.0867C84.9252 40.9245 85.3888 40.8379 85.9002 40.8379C86.4236 40.8379 86.8872 40.9123 87.2645 41.0733C87.6549 41.2356 87.9724 41.4466 88.2395 41.6942L87.8861 42.2529C87.813 42.3652 87.728 42.4274 87.6178 42.4274C87.5448 42.4274 87.4717 42.4018 87.3986 42.3517C87.3016 42.2895 87.2046 42.2395 87.1064 42.1773C87.0093 42.1163 86.8992 42.0675 86.7782 42.0285C86.656 41.9919 86.5218 41.9553 86.3757 41.9297C86.2296 41.9053 86.0463 41.8931 85.8511 41.8931C85.5349 41.8931 85.2414 41.9419 84.9863 42.0541C84.73 42.1663 84.5108 42.3151 84.3287 42.5262C84.1455 42.725 84.0113 42.9727 83.9143 43.2581C83.8161 43.5436 83.767 43.8656 83.767 44.2133C83.767 44.5987 83.8161 44.933 83.9263 45.2306C84.0365 45.5283 84.1826 45.7771 84.3647 45.976C84.5479 46.1748 84.7791 46.3358 85.0354 46.4468C85.2905 46.5591 85.6079 46.6213 85.9122 46.6213Z" fill="white"></path><path fill-rule="evenodd" clip-rule="evenodd" d="M92.7094 44.8688H90.598V46.5718H93.6672V47.5764H89.2871V40.8379H93.6672V41.8437H90.5851V43.9154H93.0111V44.6526C93.0111 44.6526 92.9982 44.8688 92.7094 44.8688Z" fill="white"></path></g><defs><linearGradient id="paint0_linear_402_40170" x1="2826.04" y1="2771.18" x2="-2701.21" y2="8298.43" gradientUnits="userSpaceOnUse"><stop stop-color="#1E1E1E"></stop><stop offset="1" stop-color="#0D0D0D"></stop></linearGradient><linearGradient id="paint1_linear_402_40170" x1="20628.5" y1="1021.22" x2="9492.11" y2="5137.82" gradientUnits="userSpaceOnUse"><stop stop-color="#FFCB00"></stop><stop offset="1" stop-color="#F06A2B"></stop></linearGradient><clipPath id="clip0_402_40170"><rect width="125" height="125" fill="white" transform="translate(0 0.40625)"></rect></clipPath></defs></svg>