<svg width="16" height="16" viewBox="0 0 16 16" fill="none" xmlns="http://www.w3.org/2000/svg">
<path d="M3.74062 15.7139V5.20215H0.471094V15.7139H3.74062ZM2.08828 3.7959C3.14297 3.7959 3.98672 2.91699 3.98672 1.8623C3.98672 0.842773 3.14297 -0.000976562 2.08828 -0.000976562C1.06875 -0.000976562 0.225 0.842773 0.225 1.8623C0.225 2.91699 1.06875 3.7959 2.08828 3.7959ZM15.9398 15.7139H15.975V9.94824C15.975 7.13574 15.3422 4.95605 12.0375 4.95605C10.4555 4.95605 9.40078 5.83496 8.94375 6.64355H8.90859V5.20215H5.77969V15.7139H9.04922V10.5107C9.04922 9.13965 9.29531 7.83887 10.9828 7.83887C12.6703 7.83887 12.7055 9.38574 12.7055 10.6162V15.7139H15.9398Z" fill="white"/>
</svg>
