<svg xmlns="http://www.w3.org/2000/svg" width="38.014" height="27.899" viewBox="0 0 38.014 27.899"><g id="Group_5927" data-name="Group 5927" transform="translate(5152 -10157)"><path id="Path_13797" data-name="Path 13797" d="M213.925,91.735a3.853,3.853,0,1,1,0-5.443A3.862,3.862,0,0,1,213.925,91.735Zm0,0" transform="translate(-5344.187 10081.937)" fill="#59a52c"/><path id="Path_13798" data-name="Path 13798" d="M293.637,62.606a1.833,1.833,0,0,1-1.295-3.13,7.659,7.659,0,0,0,0-10.846,1.833,1.833,0,1,1,2.589-2.595,11.324,11.324,0,0,1,0,16.036A1.826,1.826,0,0,1,293.637,62.606Zm0,0" transform="translate(-5418.63 10116.897)" fill="#cae2bc"/><path id="Path_13799" data-name="Path 13799" d="M328.59,27.9a1.833,1.833,0,0,1-1.295-3.13,15.278,15.278,0,0,0,0-21.639,1.833,1.833,0,0,1,2.59-2.595,18.946,18.946,0,0,1,0,26.829,1.827,1.827,0,0,1-1.295.535Zm0,0" transform="translate(-5449.438 10156.997)" fill="#cae2bc"/><path id="Path_13800" data-name="Path 13800" d="M138.024,62.6a1.828,1.828,0,0,1-1.295-.536,11.324,11.324,0,0,1,0-16.036,1.833,1.833,0,0,1,2.589,2.595,7.659,7.659,0,0,0,0,10.846,1.833,1.833,0,0,1-1.295,3.13Zm0,0" transform="translate(-5279.017 10116.898)" fill="#cae2bc"/><path id="Path_13801" data-name="Path 13801" d="M86.428,27.9a1.826,1.826,0,0,1-1.295-.536,18.946,18.946,0,0,1,0-26.829,1.833,1.833,0,0,1,2.589,2.595,15.279,15.279,0,0,0,0,21.639,1.833,1.833,0,0,1-1.295,3.13Zm0,0" transform="translate(-5231.566 10156.999)" fill="#cae2bc"/></g></svg>