<svg xmlns="http://www.w3.org/2000/svg" width="335.726" height="246.936" viewBox="0 0 335.726 246.936"><g id="Group_5922" data-name="Group 5922" transform="translate(-1248 -1708)"><g id="Group_5513" data-name="Group 5513" transform="translate(151.434 3027)" opacity="0.08"><path id="Path_13798" data-name="Path 13798" d="M307.9,195.682a16.093,16.093,0,0,1-11.369-27.48,67.238,67.238,0,0,0,0-95.221A16.091,16.091,0,1,1,319.261,50.2a99.416,99.416,0,0,1,0,140.778A16.03,16.03,0,0,1,307.9,195.682Zm0,0" transform="translate(1026.763 -1316.122)" fill="#fff" stroke="#0e0f11" stroke-width="2"></path><path id="Path_13799" data-name="Path 13799" d="M342.849,244.935a16.091,16.091,0,0,1-11.369-27.48,134.131,134.131,0,0,0,0-189.971A16.091,16.091,0,0,1,354.214,4.706a166.326,166.326,0,0,1,0,235.532,16.044,16.044,0,0,1-11.365,4.7Zm0,0" transform="translate(1028.207 -1317.999)" fill="#fff" stroke="#0e0f11" stroke-width="2"></path><path id="Path_13800" data-name="Path 13800" d="M173.98,195.682a16.046,16.046,0,0,1-11.369-4.7,99.417,99.417,0,0,1,0-140.778,16.091,16.091,0,0,1,22.733,22.778,67.237,67.237,0,0,0,0,95.221,16.093,16.093,0,0,1-11.365,27.48Zm0,0" transform="translate(1020.224 -1316.123)" fill="#fff" stroke="#0e0f11" stroke-width="2"></path><path id="Path_13801" data-name="Path 13801" d="M139.807,244.935a16.032,16.032,0,0,1-11.369-4.7,166.326,166.326,0,0,1,0-235.532A16.091,16.091,0,0,1,151.171,27.48a134.136,134.136,0,0,0,0,189.975,16.091,16.091,0,0,1-11.365,27.48Zm0,0" transform="translate(1018 -1318.001)" fill="#fff" stroke="#0e0f11" stroke-width="2"></path></g><path id="Icon_material-schedule" data-name="Icon material-schedule" d="M52.036,3A49.085,49.085,0,1,0,101.17,52.085,49.061,49.061,0,0,0,52.036,3Zm.049,88.353A39.268,39.268,0,1,1,91.353,52.085,39.257,39.257,0,0,1,52.085,91.353Zm2.454-63.81H47.176V56.993l25.77,15.462,3.681-6.037L54.539,53.312Z" transform="translate(1363.778 1779.383)" fill="#fff" opacity="0.08"></path></g></svg>