<svg xmlns="http://www.w3.org/2000/svg" width="100" height="106" viewBox="0 0 100 106" fill="none"><g id="Group"><g id="Group_2"><g id="Group_3"><g id="Group_4"><g id="Group_5"><path id="Vector" d="M89.2169 49.5035C89.2169 60.2143 84.9025 69.9354 77.9179 77.017C77.5573 76.994 77.1916 76.9812 76.8233 76.9812H23.1774C22.8091 76.9812 22.4434 76.994 22.0803 77.017C15.0958 69.9354 10.7813 60.2143 10.7813 49.5035C10.7813 27.8799 28.3743 10.287 50.0005 10.287C71.624 10.287 89.2169 27.8799 89.2169 49.5035Z" fill="url(#paint0_linear_1_1404)"></path></g></g><g id="Group_6"><g id="Group_7"><path id="Vector_2" d="M50.0019 0.0593262C22.6904 0.0593262 0.552734 22.197 0.552734 49.5085C0.552734 61.567 4.8698 72.6179 12.0435 81.1984C13.3375 80.0552 14.8082 79.1089 16.4066 78.4056C9.71619 70.641 5.66766 60.539 5.66766 49.5059C5.66766 25.0615 25.5547 5.17436 50.0017 5.17436C74.4462 5.17436 94.3333 25.0615 94.3333 49.5059C94.3333 60.539 90.2848 70.641 83.5944 78.4056C85.1953 79.1089 86.666 80.0552 87.96 81.1958C95.1338 72.6155 99.4482 61.5645 99.4482 49.5086C99.4483 22.197 77.3107 0.0593262 50.0019 0.0593262Z" fill="url(#paint1_linear_1_1404)"></path></g></g><g id="Group_8"><g id="Group_9"><path id="Vector_3" d="M89.2169 49.5035C89.2169 60.2143 84.9025 69.9354 77.9179 77.017C77.5573 76.994 77.1916 76.9812 76.8233 76.9812H23.1774C22.8091 76.9812 22.4434 76.994 22.0803 77.017C15.0958 69.9354 10.7813 60.2143 10.7813 49.5035C10.7813 27.8799 28.3743 10.287 50.0005 10.287C71.624 10.287 89.2169 27.8799 89.2169 49.5035Z" fill="url(#paint2_linear_1_1404)"></path></g></g><g id="Group_10"><g id="Group_11"><path id="Vector_4" d="M89.2169 49.5035C89.2169 60.2143 84.9025 69.9354 77.9179 77.017C77.5573 76.994 77.1916 76.9812 76.8233 76.9812H23.1774C22.8091 76.9812 22.4434 76.994 22.0803 77.017C15.0958 69.9354 10.7813 60.2143 10.7813 49.5035C10.7813 27.8799 28.3743 10.287 50.0005 10.287C71.624 10.287 89.2169 27.8799 89.2169 49.5035Z" fill="url(#paint3_linear_1_1404)"></path></g></g></g><g id="Group_12"><g id="Group_13"><path id="Vector_5" d="M76.8233 105.582H23.1776C16.6932 105.582 11.4367 100.325 11.4367 93.841C11.4367 87.3567 16.6933 82.1001 23.1776 82.1001H76.8233C83.3076 82.1001 88.5643 87.3567 88.5643 93.841C88.5643 100.325 83.3076 105.582 76.8233 105.582Z" fill="url(#paint4_linear_1_1404)"></path></g></g></g><g id="Group_14"><g id="Group_15"><path id="Vector_6" d="M66.0977 48.808C66.6244 49.1121 66.6244 49.8723 66.0977 50.1764L54.3717 56.9464L42.6458 63.7163C42.1191 64.0204 41.4608 63.6403 41.4608 63.0322V49.4923V35.9523C41.4608 35.3441 42.1191 34.9639 42.6458 35.268L54.3717 42.038L66.0977 48.808Z" fill="white"></path></g></g><g id="Group_16"><g id="Group_17"><g id="Group_18"><g id="Group_19"><path id="Vector_7" d="M29.9266 87.0203H32.4855V98.5432H39.3914L39.0835 100.664H29.9266V87.0203Z" fill="white"></path></g></g><g id="Group_20"><g id="Group_21"><path id="Vector_8" d="M43.7882 87.0203V100.664H41.2294V87.0203H43.7882Z" fill="white"></path></g></g><g id="Group_22"><g id="Group_23"><path id="Vector_9" d="M50.4755 100.664L45.6091 87.0203H48.3576L50.515 93.4937C51.1599 95.4327 51.7099 97.1876 52.0196 98.5314H52.0591C52.3412 97.3119 52.9562 95.4939 53.6288 93.545L55.8848 87.0203H58.5029L53.4945 100.664H50.4755Z" fill="white"></path></g></g><g id="Group_24"><g id="Group_25"><path id="Vector_10" d="M69.4104 94.6103H62.7964V98.5432H70.0812L69.7712 100.664H60.3065V87.0203H69.7101V89.1407H62.7963V92.4899H69.4103L69.4104 94.6103Z" fill="white"></path></g></g></g><g id="Group_26"><g id="Group_27"><g id="Group_28"><path id="Vector_11" d="M76.1676 95.9658C77.3401 95.9658 78.2907 95.0153 78.2907 93.8428C78.2907 92.6702 77.3401 91.7197 76.1676 91.7197C74.9951 91.7197 74.0446 92.6702 74.0446 93.8428C74.0446 95.0153 74.9951 95.9658 76.1676 95.9658Z" fill="white"></path></g></g><g id="Group_29"><g id="Group_30"><path id="Vector_12" d="M23.8396 95.9657C25.0121 95.9657 25.9627 95.0152 25.9627 93.8427C25.9627 92.6701 25.0121 91.7196 23.8396 91.7196C22.6671 91.7196 21.7166 92.6701 21.7166 93.8427C21.7166 95.0152 22.6671 95.9657 23.8396 95.9657Z" fill="white"></path></g></g></g></g></g><defs><linearGradient id="paint0_linear_1_1404" x1="4.77543" y1="94.7258" x2="85.2067" y2="14.2945" gradientUnits="userSpaceOnUse"><stop offset="0.07" stop-color="#FFD347"></stop><stop offset="0.3388" stop-color="#F9874A"></stop><stop offset="0.55" stop-color="#F54F4C"></stop><stop offset="0.6151" stop-color="#E5485C"></stop><stop offset="0.8757" stop-color="#AA2D98"></stop><stop offset="1" stop-color="#9323B0"></stop></linearGradient><linearGradient id="paint1_linear_1_1404" x1="-50.9213" y1="97.2141" x2="116.556" y2="-5.25998" gradientUnits="userSpaceOnUse"><stop offset="0.336625" stop-color="#77D340"></stop><stop offset="0.885147" stop-color="#447E21"></stop></linearGradient><linearGradient id="paint2_linear_1_1404" x1="4.77543" y1="94.7258" x2="85.2067" y2="14.2945" gradientUnits="userSpaceOnUse"><stop offset="0.07" stop-color="#FFD347"></stop><stop offset="0.3388" stop-color="#F9874A"></stop><stop offset="0.55" stop-color="#F54F4C"></stop><stop offset="0.6151" stop-color="#E5485C"></stop><stop offset="0.8757" stop-color="#AA2D98"></stop><stop offset="1" stop-color="#9323B0"></stop></linearGradient><linearGradient id="paint3_linear_1_1404" x1="-30.0436" y1="90.1885" x2="105.366" y2="10.287" gradientUnits="userSpaceOnUse"><stop offset="0.336625" stop-color="#77D340"></stop><stop offset="0.885147" stop-color="#447E21"></stop></linearGradient><linearGradient id="paint4_linear_1_1404" x1="-28.7074" y1="110.217" x2="19.5643" y2="30.6227" gradientUnits="userSpaceOnUse"><stop offset="0.336625" stop-color="#77D340"></stop><stop offset="0.885147" stop-color="#447E21"></stop></linearGradient></defs></svg>