<svg xmlns="http://www.w3.org/2000/svg" width="86" height="81" viewBox="0 0 86 81"><g id="Group_6000" data-name="Group 6000" transform="translate(-1190 -2756.131)"><rect id="Rectangle_7620" data-name="Rectangle 7620" width="86" height="81" rx="22" transform="translate(1190 2756.131)" fill="#cae2bc" opacity="0.2"></rect><g id="Group_5995" data-name="Group 5995" transform="translate(0 -6.951)"><path id="Path_46256" data-name="Path 46256" d="M284.233,402.886a1.344,1.344,0,0,0-1.894,0l-10.7,10.7a1.339,1.339,0,0,0,.947,2.285h21.456a1.339,1.339,0,0,0,.7-2.482Zm-8.419,10.31,7.472-7.472,7.472,7.472Z" transform="translate(949.715 2407.844)" fill="#4fa83d"></path><path id="Path_46259" data-name="Path 46259" d="M215.018,367.5h-56.18a1.338,1.338,0,0,0,0,2.675h56.18a1.338,1.338,0,1,0,0-2.675Z" transform="translate(1046.072 2437.488)" fill="#4fa83d"></path><g id="noun-content-2928891_1_" data-name="noun-content-2928891 (1)" transform="translate(1206.572 2772.818)"><path id="Path_46264" data-name="Path 46264" d="M129.921,313.041h14a1.12,1.12,0,0,0,1.12-1.12v-14a1.12,1.12,0,0,0-1.12-1.12h-14a1.12,1.12,0,0,0-1.12,1.12v14A1.12,1.12,0,0,0,129.921,313.041Zm1.12-14H142.8V310.8H131.041Z" transform="translate(-128.801 -286.172)" fill="#4fa83d"></path></g><g id="noun-content-2928891_1_2" data-name="noun-content-2928891 (1)" transform="translate(1242.191 2772.818)"><path id="Path_46264-2" data-name="Path 46264" d="M129.921,313.041h14a1.12,1.12,0,0,0,1.12-1.12v-14a1.12,1.12,0,0,0-1.12-1.12h-14a1.12,1.12,0,0,0-1.12,1.12v14A1.12,1.12,0,0,0,129.921,313.041Zm1.12-14H142.8V310.8H131.041Z" transform="translate(-128.801 -286.172)" fill="#4fa83d"></path></g></g></g></svg>