<svg xmlns="http://www.w3.org/2000/svg" width="45" height="45" viewBox="0 0 45 45" fill="none"><circle cx="22.5" cy="22.5" r="22.5" fill="url(#paint0_radial_38_2956)" fill-opacity="0.26"></circle><path d="M30.2025 25.2123C30.0687 25.323 29.9292 25.4369 29.7921 25.5526C28.8424 26.3536 27.8895 27.1513 26.9497 27.963C26.8465 28.0522 26.7639 28.2265 26.7623 28.3627C26.7309 30.3974 25.2156 32.1275 23.2576 32.3447C21.17 32.5759 19.3021 31.2893 18.8578 29.2496C18.5118 27.6616 18.9718 26.2859 20.2369 25.2627C21.5193 24.2247 22.9636 24.0835 24.4699 24.7565C24.6937 24.8564 24.8646 24.863 25.0867 24.7647C26.0909 24.3196 27.1041 23.8927 28.1133 23.4584C28.2396 23.4039 28.3643 23.3444 28.5187 23.2742C27.792 22.6276 27.01 22.1189 26.1504 21.7292C22.2683 19.9694 17.8099 21.057 15.008 24.4468C13.8263 25.8771 13.0715 27.5105 12.7074 29.3272C12.6644 29.5411 12.5893 29.7162 12.363 29.7781C12.0756 29.8574 11.7998 29.6212 11.856 29.2835C12.0162 28.309 12.1285 27.3156 12.4084 26.3734C13.434 22.9133 15.4762 20.2138 18.6299 18.421C22.7993 16.0502 28.0645 16.4887 31.8144 19.5003C32.333 19.9165 32.8169 20.379 33.286 20.8513C33.4834 21.0504 33.6254 21.1164 33.8913 20.9892C34.2406 20.8224 34.5627 21.0528 34.5106 21.4038C34.4966 21.4963 34.4355 21.5871 34.3785 21.6656C34.3265 21.7366 34.2497 21.7903 34.2026 21.834C34.6254 22.5376 35.0738 23.209 35.4479 23.92C36.3621 25.6591 36.8633 27.5212 36.9954 29.4825C37.0285 29.9713 36.8955 30.1059 36.419 30.1059C35.1473 30.1068 33.8748 30.1068 32.6031 30.1059C32.1993 30.1059 32.0911 30.0168 32.0176 29.613C31.7451 28.115 31.219 26.7169 30.3883 25.4378C30.3495 25.3783 30.3107 25.3197 30.2694 25.2619C30.2587 25.247 30.2397 25.2388 30.2033 25.2115L30.2025 25.2123ZM14.5976 23.5632C15.0336 23.1635 15.4481 22.7358 15.9098 22.3683C18.198 20.5441 20.7926 19.7563 23.7093 20.142C25.7903 20.417 27.5971 21.3006 29.1537 22.7019C29.328 22.8588 29.4585 22.8927 29.6806 22.7928C30.5906 22.384 31.5114 22 32.428 21.6061C32.5155 21.5681 32.6014 21.526 32.7269 21.4674C29.8747 18.5812 26.5145 17.2402 22.5177 17.9388C19.0197 18.5499 16.4548 20.583 14.5984 23.5632H14.5976ZM31.4263 23.0512C31.4115 23.0314 31.3966 23.0116 31.3817 22.9918C31.2909 23.0281 31.1992 23.062 31.1092 23.1008C29.1273 23.9505 27.1438 24.7945 25.1677 25.6574C24.8398 25.8003 24.5855 25.7821 24.2659 25.612C23.1131 24.9993 21.9628 25.0521 20.9033 25.8218C19.8859 26.56 19.4532 27.6038 19.6464 28.845C19.9165 30.5775 21.4128 31.6824 23.1536 31.4974C24.7729 31.3248 25.9869 29.8433 25.8927 28.1331C25.877 27.8482 25.9687 27.6616 26.1809 27.4832C27.5583 26.3296 28.9283 25.1669 30.3008 24.0067C30.6765 23.6887 31.0514 23.37 31.4263 23.0521V23.0512ZM30.8755 24.6359C31.8499 26.0472 32.4842 27.5832 32.8153 29.2422H36.1242C35.8773 26.7202 35.0268 24.4559 33.5015 22.4179C32.6138 23.1677 31.7533 23.8944 30.8763 24.6359H30.8755Z" fill="#4FA83D"></path><path d="M9.00184 28.5807C9.18599 26.8878 9.61953 25.2123 10.3239 23.6111C11.6741 20.5408 13.7163 18.0502 16.5661 16.2657C19.5604 14.3911 22.8222 13.6818 26.3269 14.1302C29.6342 14.553 32.4542 15.9907 34.8498 18.2922C35.1339 18.5647 35.1653 18.7802 34.9539 18.9908C34.7499 19.1948 34.5327 19.1683 34.2503 18.8958C32.3403 17.0527 30.1131 15.7669 27.5152 15.2054C23.0576 14.2409 19.0368 15.2442 15.5157 18.1188C12.3793 20.6795 10.584 24.0397 9.92755 28.0241C9.88956 28.2528 9.87635 28.4865 9.84332 28.7161C9.80038 29.015 9.6187 29.1653 9.3528 29.1306C9.10011 29.0976 8.98367 28.9325 9.00184 28.5798V28.5807Z" fill="#4FA83D"></path><path d="M22.7592 29.38C22.2002 29.3833 21.7286 28.9184 21.732 28.3668C21.7353 27.7962 22.182 27.3568 22.7568 27.3577C23.3133 27.3577 23.7551 27.792 23.7675 28.3503C23.7799 28.906 23.3183 29.3767 22.7584 29.38H22.7592Z" fill="#4FA83D"></path><defs><radialGradient id="paint0_radial_38_2956" cx="0" cy="0" r="1" gradientUnits="userSpaceOnUse" gradientTransform="translate(22.5 22.5) rotate(90.5907) scale(48.5026)"><stop stop-color="#4FA83D"></stop><stop offset="0.46875" stop-color="#22CB00" stop-opacity="0.53125"></stop><stop offset="1" stop-opacity="0"></stop></radialGradient></defs></svg>