<svg xmlns="http://www.w3.org/2000/svg" width="90" height="82" viewBox="0 0 90 82"><g id="Maintain_Engagement" data-name="Maintain Engagement" transform="translate(-1545 -2288)"><rect id="Rectangle_7821" data-name="Rectangle 7821" width="90" height="82" rx="15" transform="translate(1545 2288)" fill="#1b1f1a"></rect><g id="Group_44453" data-name="Group 44453" transform="translate(-7978 271.316)"><rect id="Rectangle_3239" data-name="Rectangle 3239" width="45.513" height="13.129" rx="6.564" transform="translate(9545 2060.489)" fill="#cae2bc"></rect><path id="Path_54410" data-name="Path 54410" d="M6.127,0l6.127,11.378H0Z" transform="translate(9573.676 2071.867) rotate(180)" fill="#4fa83d"></path><path id="Icon_awesome-eye" data-name="Icon awesome-eye" d="M18.239,10.152A10.218,10.218,0,0,0,9.175,4.5,10.22,10.22,0,0,0,.111,10.152a1.031,1.031,0,0,0,0,.93,10.218,10.218,0,0,0,9.064,5.652,10.22,10.22,0,0,0,9.064-5.652A1.031,1.031,0,0,0,18.239,10.152ZM9.175,15.2a4.588,4.588,0,1,1,4.588-4.588A4.588,4.588,0,0,1,9.175,15.2Zm0-7.646a3.036,3.036,0,0,0-.806.121A1.524,1.524,0,0,1,6.238,9.81,3.051,3.051,0,1,0,9.175,7.558Z" transform="translate(9559.001 2035.785)" fill="#4fa83d"></path></g></g></svg>