<svg xmlns="http://www.w3.org/2000/svg" width="35" height="21" viewBox="0 0 35 21" fill="none"><g id="PHILIPPINES_3_"><g id="Group"><g id="Group_2"><g id="Clip path group"><mask id="mask0_9372_34566" style="mask-type:luminance" maskUnits="userSpaceOnUse" x="0" y="0" width="35" height="21"><g id="SVGID_00000129179549651735180710000005311115222399639171_"><path id="Vector" d="M34.3445 0.710938H0.780518V20.2889H34.3445V0.710938Z" fill="white"></path></g></mask><g mask="url(#mask0_9372_34566)"><path id="Vector_2" d="M34.3445 0.710938H0.780518V10.4999H34.3445V0.710938Z" fill="#2534A4"></path></g></g><g id="Clip path group_2"><mask id="mask1_9372_34566" style="mask-type:luminance" maskUnits="userSpaceOnUse" x="0" y="0" width="35" height="21"><g id="SVGID_00000129179549651735180710000005311115222399639171__2"><path id="Vector_3" d="M34.3445 0.710938H0.780518V20.2889H34.3445V0.710938Z" fill="white"></path></g></mask><g mask="url(#mask1_9372_34566)"><path id="Vector_4" d="M34.3445 10.5H0.780518V20.289H34.3445V10.5Z" fill="#BC0030"></path></g></g><g id="Clip path group_3"><mask id="mask2_9372_34566" style="mask-type:luminance" maskUnits="userSpaceOnUse" x="0" y="0" width="35" height="21"><g id="SVGID_00000129179549651735180710000005311115222399639171__3"><path id="Vector_5" d="M34.3445 0.710938H0.780518V20.2889H34.3445V0.710938Z" fill="white"></path></g></mask><g mask="url(#mask2_9372_34566)"><path id="Vector_6" d="M0.780518 0.710938V20.2889L17.8215 10.4999L0.780518 0.710938Z" fill="white"></path></g></g><g id="Clip path group_4"><mask id="mask3_9372_34566" style="mask-type:luminance" maskUnits="userSpaceOnUse" x="0" y="0" width="35" height="21"><g id="SVGID_00000129179549651735180710000005311115222399639171__4"><path id="Vector_7" d="M34.3445 0.710938H0.780518V20.2889H34.3445V0.710938Z" fill="white"></path></g></mask><g mask="url(#mask3_9372_34566)"><path id="Vector_8" d="M3.08356 18.4059L2.32758 17.9649L1.67657 18.5549L1.86255 17.6989L1.10059 17.2659L1.97357 17.1759L2.15155 16.3199L2.50354 17.1209L3.37457 17.0239L2.71954 17.6099L3.08356 18.4059Z" fill="#F3D02F"></path></g></g><g id="Clip path group_5"><mask id="mask4_9372_34566" style="mask-type:luminance" maskUnits="userSpaceOnUse" x="0" y="0" width="35" height="21"><g id="SVGID_00000129179549651735180710000005311115222399639171__5"><path id="Vector_9" d="M34.3445 0.710938H0.780518V20.2889H34.3445V0.710938Z" fill="white"></path></g></mask><g mask="url(#mask4_9372_34566)"><path id="Vector_10" d="M5.38062 8.73087L4.74164 7.63287L4.37262 7.58987L5.24762 8.83188L5.38062 8.73087ZM4.88263 9.23087L3.54462 8.19989L3.49365 7.59787L4.03662 7.57788L5.14563 8.93689L4.88263 9.23087ZM4.67865 9.46887L3.57361 8.84387L3.52863 8.48087L4.77863 9.33289L4.67865 9.46887Z" fill="#F3D02F"></path></g></g><g id="Clip path group_6"><mask id="mask5_9372_34566" style="mask-type:luminance" maskUnits="userSpaceOnUse" x="0" y="0" width="35" height="21"><g id="SVGID_00000129179549651735180710000005311115222399639171__6"><path id="Vector_11" d="M34.3445 0.710938H0.780518V20.2889H34.3445V0.710938Z" fill="white"></path></g></mask><g mask="url(#mask5_9372_34566)"><path id="Vector_12" d="M6.95636 8.50394L7.29041 7.28094L7.0614 6.99194L6.79041 8.48395L6.95636 8.50394ZM6.25336 8.50394L6.04639 6.82394L6.44336 6.36694L6.83539 6.74194L6.64636 8.48395L6.25336 8.50394ZM5.94037 8.52393L5.61035 7.30093L5.83936 7.00793L6.10736 8.50394L5.94037 8.52393Z" fill="#F3D02F"></path></g></g><g id="Clip path group_7"><mask id="mask6_9372_34566" style="mask-type:luminance" maskUnits="userSpaceOnUse" x="0" y="0" width="35" height="21"><g id="SVGID_00000129179549651735180710000005311115222399639171__7"><path id="Vector_13" d="M34.3445 0.710938H0.780518V20.2889H34.3445V0.710938Z" fill="white"></path></g></mask><g mask="url(#mask6_9372_34566)"><path id="Vector_14" d="M8.2356 9.49197L9.34662 8.87897L9.39764 8.51596L8.13562 9.35596L8.2356 9.49197ZM7.74762 8.98096L8.81561 7.66797L9.41565 7.63696L9.41962 8.17996L8.03662 9.25397L7.74762 8.98096ZM7.5166 8.77396L8.16663 7.68796L8.53363 7.64896L7.64661 8.87598L7.5166 8.77396Z" fill="#F3D02F"></path></g></g><g id="Clip path group_8"><mask id="mask7_9372_34566" style="mask-type:luminance" maskUnits="userSpaceOnUse" x="0" y="0" width="35" height="21"><g id="SVGID_00000129179549651735180710000005311115222399639171__8"><path id="Vector_15" d="M34.3445 0.710938H0.780518V20.2889H34.3445V0.710938Z" fill="white"></path></g></mask><g mask="url(#mask7_9372_34566)"><path id="Vector_16" d="M8.43256 11.0239L9.65759 11.3599L9.94458 11.1299L8.45459 10.8569L8.43256 11.0239ZM8.43457 10.3199L10.1166 10.1129L10.5716 10.5079L10.1966 10.9029L8.45459 10.7119L8.43457 10.3199ZM8.41357 10.0079L9.63855 9.6759L9.92755 9.90289L8.43555 10.1759L8.41357 10.0079Z" fill="#F3D02F"></path></g></g><g id="Clip path group_9"><mask id="mask8_9372_34566" style="mask-type:luminance" maskUnits="userSpaceOnUse" x="0" y="0" width="35" height="21"><g id="SVGID_00000129179549651735180710000005311115222399639171__9"><path id="Vector_17" d="M34.3445 0.710938H0.780518V20.2889H34.3445V0.710938Z" fill="white"></path></g></mask><g mask="url(#mask8_9372_34566)"><path id="Vector_18" d="M7.50146 12.27L8.14545 13.36L8.51044 13.403L7.63147 12.165L7.50146 12.27ZM7.99744 11.766L9.34143 12.793L9.39044 13.391L8.84943 13.414L7.73444 12.059L7.99744 11.766ZM8.19843 11.527L9.30145 12.144L9.35242 12.511L8.09644 11.663L8.19843 11.527Z" fill="#F3D02F"></path></g></g><g id="Clip path group_10"><mask id="mask9_9372_34566" style="mask-type:luminance" maskUnits="userSpaceOnUse" x="0" y="0" width="35" height="21"><g id="SVGID_00000129179549651735180710000005311115222399639171__10"><path id="Vector_19" d="M34.3445 0.710938H0.780518V20.2889H34.3445V0.710938Z" fill="white"></path></g></mask><g mask="url(#mask9_9372_34566)"><path id="Vector_20" d="M5.92847 12.4999L5.60645 13.7269L5.83643 14.0159L6.09442 12.5199L5.92847 12.4999ZM6.63446 12.4959L6.85144 14.1759L6.46246 14.6369L6.06445 14.2619L6.24042 12.5199L6.63446 12.4959ZM6.94647 12.4769L7.28247 13.7L7.05743 13.9889L6.78046 12.4969L6.94647 12.4769Z" fill="#F3D02F"></path></g></g><g id="Clip path group_11"><mask id="mask10_9372_34566" style="mask-type:luminance" maskUnits="userSpaceOnUse" x="0" y="0" width="35" height="21"><g id="SVGID_00000129179549651735180710000005311115222399639171__11"><path id="Vector_21" d="M34.3445 0.710938H0.780518V20.2889H34.3445V0.710938Z" fill="white"></path></g></mask><g mask="url(#mask10_9372_34566)"><path id="Vector_22" d="M4.6535 11.5389L3.55353 12.1679L3.50653 12.5349L4.75452 11.6719L4.6535 11.5389ZM5.15149 12.0429L4.10248 13.3709L3.50452 13.4139L3.48853 12.8709L4.85748 11.7769L5.15149 12.0429ZM5.38452 12.2459L4.75153 13.3479L4.38452 13.3869L5.25348 12.1449L5.38452 12.2459Z" fill="#F3D02F"></path></g></g><g id="Clip path group_12"><mask id="mask11_9372_34566" style="mask-type:luminance" maskUnits="userSpaceOnUse" x="0" y="0" width="35" height="21"><g id="SVGID_00000129179549651735180710000005311115222399639171__12"><path id="Vector_23" d="M34.3445 0.710938H0.780518V20.2889H34.3445V0.710938Z" fill="white"></path></g></mask><g mask="url(#mask11_9372_34566)"><path id="Vector_24" d="M4.43646 9.99588L3.21143 9.67188L2.92047 9.89886L4.41644 10.1609L4.43646 9.99588ZM4.44043 10.6989L2.76245 10.9179L2.30347 10.5269L2.67444 10.1289L4.41644 10.3049L4.44043 10.6989ZM4.46246 11.0119L3.23944 11.3479L2.94843 11.1209L4.44043 10.8439L4.46246 11.0119Z" fill="#F3D02F"></path></g></g><g id="Clip path group_13"><mask id="mask12_9372_34566" style="mask-type:luminance" maskUnits="userSpaceOnUse" x="0" y="0" width="35" height="21"><g id="SVGID_00000129179549651735180710000005311115222399639171__13"><path id="Vector_25" d="M34.3445 0.710938H0.780518V20.2889H34.3445V0.710938Z" fill="white"></path></g></mask><g mask="url(#mask12_9372_34566)"><g id="Group_3"><g id="Clip path group_14"><mask id="mask13_9372_34566" style="mask-type:luminance" maskUnits="userSpaceOnUse" x="0" y="0" width="35" height="21"><g id="SVGID_00000004528079098547593730000010532559200101641892_"><path id="Vector_26" d="M34.3445 0.710938H0.780518V20.2889H34.3445V0.710938Z" fill="white"></path></g></mask><g mask="url(#mask13_9372_34566)"><path id="Vector_27" d="M6.43658 8.43799C7.57558 8.43799 8.50159 9.36001 8.50159 10.501C8.50159 11.642 7.57558 12.571 6.43658 12.571C5.29558 12.571 4.37256 11.641 4.37256 10.501C4.37256 9.36001 5.29658 8.43799 6.43658 8.43799Z" fill="#F3D02F"></path></g></g><g id="Clip path group_15"><mask id="mask14_9372_34566" style="mask-type:luminance" maskUnits="userSpaceOnUse" x="0" y="0" width="35" height="21"><g id="SVGID_00000004528079098547593730000010532559200101641892__2"><path id="Vector_28" d="M34.3445 0.710938H0.780518V20.2889H34.3445V0.710938Z" fill="white"></path></g></mask><g mask="url(#mask14_9372_34566)"><path id="Vector_29" d="M13.5425 11.2109L14.0615 10.5039L13.5405 9.79688L14.3725 10.0699L14.8845 9.35986L14.8805 10.2349L15.7165 10.4999L14.8805 10.7659L14.8855 11.6449L14.3765 10.9339L13.5425 11.2109Z" fill="#F3D02F"></path></g></g><g id="Clip path group_16"><mask id="mask15_9372_34566" style="mask-type:luminance" maskUnits="userSpaceOnUse" x="0" y="0" width="35" height="21"><g id="SVGID_00000004528079098547593730000010532559200101641892__3"><path id="Vector_30" d="M34.3445 0.710938H0.780518V20.2889H34.3445V0.710938Z" fill="white"></path></g></mask><g mask="url(#mask15_9372_34566)"><path id="Vector_31" d="M3.08356 2.37897L2.32758 2.81998L1.67657 2.23096L1.86255 3.08997L1.10059 3.52396L1.97357 3.60995L2.15155 4.46896L2.50354 3.66797L3.37457 3.76196L2.71954 3.17996L3.08356 2.37897Z" fill="#F3D02F"></path></g></g></g></g></g></g></g></g></svg>