<svg width="53" height="50" viewBox="0 0 53 50" fill="none" xmlns="http://www.w3.org/2000/svg">
<g filter="url(#filter0_i_108_1021)">
<rect width="53" height="50" rx="8" fill="#313432"/>
</g>
<path d="M17.3535 17.8119L22.8627 17.1559L26.9741 20.1081L35.608 20.3541L35.7519 23.3474L35.8958 26.3406L34.7857 32.5731H17.3535V17.8119Z" fill="#4FA83D"/>
<path d="M25.1431 25.9308C25.0414 25.8291 24.8765 25.8291 24.7748 25.9308L23.1175 27.5882C23.0158 27.6899 23.0158 27.8548 23.1175 27.9565C23.2192 28.0582 23.3841 28.0582 23.4858 27.9565L24.959 26.4833L26.4322 27.9565C26.5339 28.0582 26.6988 28.0582 26.8005 27.9565C26.9022 27.8548 26.9022 27.6899 26.8005 27.5882L25.1431 25.9308ZM25.2194 29.289V26.115H24.6986V29.289H25.2194Z" fill="#CAE2BC"/>
<path d="M30.1909 29.473C30.2926 29.5747 30.4574 29.5747 30.5591 29.473L32.2165 27.8156C32.3182 27.7139 32.3182 27.5491 32.2165 27.4474C32.1148 27.3456 31.9499 27.3456 31.8482 27.4474L30.375 28.9205L28.9018 27.4474C28.8001 27.3456 28.6352 27.3456 28.5335 27.4474C28.4318 27.5491 28.4318 27.7139 28.5335 27.8156L30.1909 29.473ZM30.1146 26.1148V29.2888H30.6354V26.1148H30.1146Z" fill="#CAE2BC"/>
<path d="M18.1339 33.3935C17.5679 33.3935 17.0252 33.1687 16.625 32.7685C16.2248 32.3683 16 31.8255 16 31.2596V18.4563C16 17.8903 16.2248 17.3476 16.625 16.9474C17.0252 16.5472 17.5679 16.3224 18.1339 16.3224H23.113C23.2175 16.3222 23.3207 16.3451 23.4154 16.3893C23.51 16.4336 23.5938 16.4982 23.6607 16.5785L25.8159 19.1676H34.4937C34.6823 19.1676 34.8633 19.2425 34.9966 19.3759C35.13 19.5093 35.205 19.6902 35.205 19.8789C35.205 20.0675 35.13 20.2484 34.9966 20.3818C34.8633 20.5152 34.6823 20.5902 34.4937 20.5902H25.4816C25.3783 20.5893 25.2764 20.5659 25.1831 20.5217C25.0897 20.4775 25.0071 20.4135 24.941 20.3341L22.7786 17.745H18.1339C17.9452 17.745 17.7643 17.8199 17.6309 17.9533C17.4975 18.0867 17.4226 18.2676 17.4226 18.4563V31.2596C17.4226 31.4482 17.4975 31.6292 17.6309 31.7626C17.7643 31.896 17.9452 31.9709 18.1339 31.9709C18.3225 31.9709 18.5035 32.0458 18.6368 32.1792C18.7702 32.3126 18.8452 32.4935 18.8452 32.6822C18.8452 32.8708 18.7702 33.0518 18.6368 33.1851C18.5035 33.3185 18.3225 33.3935 18.1339 33.3935Z" fill="#CAE2BC"/>
<path d="M33.3409 33.3927H18.1334C18.026 33.3951 17.9195 33.3731 17.8217 33.3284C17.724 33.2838 17.6377 33.2175 17.5693 33.1347C17.5008 33.0519 17.452 32.9546 17.4265 32.8502C17.4011 32.7459 17.3996 32.6371 17.4221 32.532L19.556 22.5739C19.5907 22.4121 19.6808 22.2675 19.8106 22.1649C19.9404 22.0624 20.1019 22.0083 20.2673 22.012H36.6271C36.7345 22.0096 36.8411 22.0315 36.9388 22.0762C37.0365 22.1209 37.1229 22.1871 37.1913 22.2699C37.2598 22.3528 37.3086 22.45 37.334 22.5544C37.3595 22.6588 37.361 22.7676 37.3384 22.8726L35.4322 31.7069C35.3295 32.185 35.0657 32.6133 34.6851 32.9201C34.3044 33.227 33.8299 33.3938 33.3409 33.3927ZM19.0155 31.9701H33.3409C33.5064 31.9738 33.6679 31.9197 33.7977 31.8171C33.9275 31.7146 34.0175 31.5699 34.0522 31.4082L35.7451 23.4345H20.8079L19.0155 31.9701Z" fill="#CAE2BC"/>
<path d="M34.541 19.812L36.7286 22.6767" stroke="#CAE2BC" stroke-width="1.25004" stroke-linecap="round"/>
<defs>
<filter id="filter0_i_108_1021" x="0" y="0" width="55" height="54" filterUnits="userSpaceOnUse" color-interpolation-filters="sRGB">
<feFlood flood-opacity="0" result="BackgroundImageFix"/>
<feBlend mode="normal" in="SourceGraphic" in2="BackgroundImageFix" result="shape"/>
<feColorMatrix in="SourceAlpha" type="matrix" values="0 0 0 0 0 0 0 0 0 0 0 0 0 0 0 0 0 0 127 0" result="hardAlpha"/>
<feOffset dx="2" dy="4"/>
<feGaussianBlur stdDeviation="3.5"/>
<feComposite in2="hardAlpha" operator="arithmetic" k2="-1" k3="1"/>
<feColorMatrix type="matrix" values="0 0 0 0 0 0 0 0 0 0 0 0 0 0 0 0 0 0 0.25 0"/>
<feBlend mode="normal" in2="shape" result="effect1_innerShadow_108_1021"/>
</filter>
</defs>
</svg>
