<svg width="53" height="47" viewBox="0 0 53 47" fill="none" xmlns="http://www.w3.org/2000/svg">
<path d="M50.3203 2.6875H1.52314C0.682126 2.6875 0 3.3696 0 4.21058V38.6759C0 39.5174 0.682126 40.199 1.52314 40.199H20.2516L19.3434 46.2203H32.9221L32.1641 40.199H50.3203C51.1614 40.199 51.8435 39.5169 51.8435 38.6759V4.21058C51.8435 3.36912 51.1614 2.6875 50.3203 2.6875Z" fill="#4FA83D"/>
<path d="M26.6225 36.572C27.2864 37.5205 26.2476 38.5598 25.2986 37.8959C25.2674 37.8738 25.239 37.8455 25.217 37.8143C24.555 36.8658 25.5928 35.8285 26.5409 36.4904C26.5721 36.512 26.6009 36.5408 26.6225 36.572Z" fill="white"/>
<path d="M50.4796 33.8942H1.35938V4.46952C1.35938 4.21223 1.56771 4.00391 1.82501 4.00391H50.0145C50.2718 4.00391 50.4801 4.21223 50.4801 4.46952V33.8942H50.4796Z" fill="#161617"/>
<path d="M35.061 40.1982C35.061 40.215 30.9702 40.2285 25.9255 40.2285C20.8809 40.2285 16.7891 40.215 16.7891 40.1982C16.7891 40.1814 20.8789 40.168 25.9255 40.168C30.9721 40.168 35.061 40.1814 35.061 40.1982Z" fill="white"/>
<path d="M9.86962 6.36328H6.28906V7.11882H9.86962V6.36328Z" fill="#4FA83D"/>
<path d="M8.0791 9.74609H6.28906V10.5016H8.0791V9.74609Z" fill="#FF5A52"/>
<path d="M10.1535 11.4453H7.63281V12.2009H10.1535V11.4453Z" fill="#4FA83D"/>
<path d="M12.0236 11.4453H10.5547V12.2009H12.0236V11.4453Z" fill="#4FA83D"/>
<path d="M25.1927 11.4453H22.1719V12.2009H25.1927V11.4453Z" fill="#B8EFA8"/>
<path d="M34.0251 13.1055H28.9219V13.861H34.0251V13.1055Z" fill="#FF5A52"/>
<path d="M41.8959 11.4453H39.4453V12.2009H41.8959V11.4453Z" fill="#FF5A52"/>
<path d="M47.576 11.4453H42.6484V12.2009H47.576V11.4453Z" fill="#FF5A52"/>
<path d="M10.1535 13.1055H7.63281V13.861H10.1535V13.1055Z" fill="#4FA83D"/>
<path d="M8.60659 14.7617H6.08594V15.5173H8.60659V14.7617Z" fill="#FF5A52"/>
<path d="M8.60721 16.4141H7.42969V17.1696H8.60721V16.4141Z" fill="#B8EFA8"/>
<path d="M12.9275 19.8984H11.75V20.654H12.9275V19.8984Z" fill="#4FA83D"/>
<path d="M30.2539 26.1992H27.9531V26.9548H30.2539V26.1992Z" fill="#B8EFA8"/>
<path d="M43.1141 26.1992H37.4766V26.9548H43.1141V26.1992Z" fill="#B8EFA8"/>
<path d="M21.5899 24.5469H19.2891V25.3024H21.5899V24.5469Z" fill="white"/>
<path d="M13.2539 23.125H10.9531V23.8805H13.2539V23.125Z" fill="#4FA83D"/>
<path d="M27.4796 26.1992H23.8516V26.9548H27.4796V26.1992Z" fill="#4FA83D"/>
<path d="M9.3407 18.1016H7.42969V18.8571H9.3407V18.1016Z" fill="#4FA83D"/>
<path d="M10.9752 19.9297H7.42969V20.6852H10.9752V19.9297Z" fill="#4FA83D"/>
<path d="M12.6169 21.3281H7.42969V22.0837H12.6169V21.3281Z" fill="#4FA83D"/>
<path d="M22.0154 21.3281H16.8281V22.0837H22.0154V21.3281Z" fill="#4FA83D"/>
<path d="M18.1971 24.5469H10.9141V25.3024H18.1971V24.5469Z" fill="#4FA83D"/>
<path d="M23.2327 26.1992H10.9141V26.9548H23.2327V26.1992Z" fill="#4FA83D"/>
<path d="M19.4983 27.8516H7.17969V28.6071H19.4983V27.8516Z" fill="#4FA83D"/>
<path d="M16.2839 21.3281H13.1719V22.0837H16.2839V21.3281Z" fill="#4FA83D"/>
<path d="M12.2891 16.4141H9.07812V17.1696H12.2891V16.4141Z" fill="#4FA83D"/>
<path d="M12.9844 18.1016H9.77344V18.8571H12.9844V18.1016Z" fill="#4FA83D"/>
<path d="M25.4315 18.1016H16.9297V18.8571H25.4315V18.1016Z" fill="#4FA83D"/>
<path d="M35.4836 18.1016H25.6641V18.8571H35.4836V18.1016Z" fill="#4FA83D"/>
<path d="M16.1731 18.1016H13.5156V18.8571H16.1731V18.1016Z" fill="#4FA83D"/>
<path d="M16.936 16.4141H12.7266V17.1696H16.936V16.4141Z" fill="#4FA83D"/>
<path d="M19.7415 16.4141H17.3984V17.1696H19.7415V16.4141Z" fill="white"/>
<path d="M13.1829 13.1055H10.5547V13.861H13.1829V13.1055Z" fill="#4FA83D"/>
<path d="M27.9445 13.1055H14.9688V13.861H27.9445V13.1055Z" fill="#FF5A52"/>
<path d="M42.5103 18.1016H36.375V18.8571H42.5103V18.1016Z" fill="#4FA83D"/>
<path d="M36.9951 26.1992H30.8594V26.9548H36.9951V26.1992Z" fill="#B8EFA8"/>
<path d="M38.4854 11.4453H25.7031V12.2009H38.4854V11.4453Z" fill="#FF5A52"/>
<path d="M21.3794 11.4453H12.4844V12.2009H21.3794V11.4453Z" fill="#4FA83D"/>
<path d="M12.2779 7.96484H6.28906V8.72038H12.2779V7.96484Z" fill="#4FA83D"/>
<path d="M21.0754 7.96484H12.875V8.72038H21.0754V7.96484Z" fill="#4FA83D"/>
<path d="M13.066 6.36328H10.4297V7.11882H13.066V6.36328Z" fill="white"/>
<path d="M4.98157 6.36328H4.25V7.11882H4.98157V6.36328Z" fill="#B8EFA8"/>
<path d="M4.98157 8.01562H4.25V8.77116H4.98157V8.01562Z" fill="#B8EFA8"/>
<path d="M4.98157 9.67188H4.25V10.4274H4.98157V9.67188Z" fill="#B8EFA8"/>
<path d="M4.98157 11.3203H4.25V12.0759H4.98157V11.3203Z" fill="#B8EFA8"/>
<path d="M4.98157 12.9766H4.25V13.7321H4.98157V12.9766Z" fill="#B8EFA8"/>
<path d="M4.98157 14.6292H4.25V15.3847H4.98157V14.6292Z" fill="#B8EFA8"/>
<path d="M4.98157 16.2812H4.25V17.0368H4.98157V16.2812Z" fill="#B8EFA8"/>
<path d="M4.98157 17.9336H4.25V18.6891H4.98157V17.9336Z" fill="#B8EFA8"/>
<path d="M4.98157 19.5859H4.25V20.3415H4.98157V19.5859Z" fill="#B8EFA8"/>
<path d="M12.6385 31.4219H11.4609V32.1774H12.6385V31.4219Z" fill="white"/>
<path d="M10.7486 31.4219H7.20312V32.1774H10.7486V31.4219Z" fill="#FF5A52"/>
<path d="M4.98157 31.3438H4.25V32.0993H4.98157V31.3438Z" fill="#B8EFA8"/>
<path d="M4.98157 21.2383H4.25V21.9938H4.98157V21.2383Z" fill="#B8EFA8"/>
<path d="M4.98157 22.8906H4.25V23.6462H4.98157V22.8906Z" fill="#B8EFA8"/>
<path d="M4.98157 24.5469H4.25V25.3024H4.98157V24.5469Z" fill="#B8EFA8"/>
<path d="M4.98157 26.1992H4.25V26.9548H4.98157V26.1992Z" fill="#B8EFA8"/>
<path d="M4.98157 27.8516H4.25V28.6071H4.98157V27.8516Z" fill="#B8EFA8"/>
<path d="M10.7708 29.5938H7.17969V30.3493H10.7708V29.5938Z" fill="#4FA83D"/>
<path d="M19.5845 29.5938H11.4609V30.3493H19.5845V29.5938Z" fill="#4FA83D"/>
<path d="M4.98157 29.5898H4.25V30.3454H4.98157V29.5898Z" fill="#B8EFA8"/>
<path d="M24.7145 7.96094H22.0781V8.71648H24.7145V7.96094Z" fill="white"/>
<path d="M39.2684 16.9792C38.3554 18.4821 36.9815 19.7229 35.2433 20.4622C33.1028 21.3727 30.7358 21.3953 28.5781 20.5255C26.4203 19.6557 24.7306 17.9978 23.82 15.8574C21.9402 11.4389 24.0057 6.31429 28.4249 4.43408C30.5654 3.5235 32.9329 3.50094 35.0902 4.37072C37.2479 5.2405 38.9376 6.89798 39.8483 9.03884C40.9888 11.7197 40.6768 14.6607 39.2684 16.9787V16.9792ZM24.8981 8.2209C23.5838 10.3838 23.2929 13.1276 24.3567 15.6294C25.2063 17.6267 26.7832 19.1733 28.796 19.985C30.8092 20.7967 33.0179 20.7756 35.0148 19.926C37.0122 19.0764 38.5594 17.5 39.3706 15.4868C40.1824 13.4741 40.1612 11.2651 39.3116 9.26828C38.4619 7.27095 36.8855 5.72435 34.8722 4.91265C32.859 4.10095 30.6504 4.12207 28.6534 4.97169C27.0319 5.66147 25.7502 6.81926 24.8981 8.22137V8.2209Z" fill="#FF735D"/>
<path d="M39.2684 16.9792C38.3554 18.4821 36.9815 19.7229 35.2433 20.4622C33.1028 21.3727 30.7358 21.3953 28.5781 20.5255C26.4203 19.6557 24.7306 17.9978 23.82 15.8574C21.9402 11.4389 24.0057 6.31429 28.4249 4.43408C30.5654 3.5235 32.9329 3.50094 35.0902 4.37072C37.2479 5.2405 38.9376 6.89798 39.8483 9.03884C40.9888 11.7197 40.6768 14.6607 39.2684 16.9787V16.9792ZM24.8981 8.2209C23.5838 10.3838 23.2929 13.1276 24.3567 15.6294C25.2063 17.6267 26.7832 19.1733 28.796 19.985C30.8092 20.7967 33.0179 20.7756 35.0148 19.926C37.0122 19.0764 38.5594 17.5 39.3706 15.4868C40.1824 13.4741 40.1612 11.2651 39.3116 9.26828C38.4619 7.27095 36.8855 5.72435 34.8722 4.91265C32.859 4.10095 30.6504 4.12207 28.6534 4.97169C27.0319 5.66147 25.7502 6.81926 24.8981 8.22137V8.2209Z" fill="#2C631F"/>
<path d="M38.9168 16.5964C38.0038 18.0993 36.6299 19.3401 34.8917 20.0793C32.7513 20.9899 30.3842 21.0125 28.2265 20.1427C26.0687 19.2729 24.379 17.615 23.4684 15.4746C21.5886 11.0561 23.6542 5.93148 28.0734 4.05127C30.2138 3.14069 32.5813 3.11813 34.7386 3.98791C36.8964 4.85769 38.5861 6.51517 39.4967 8.65602C40.6372 11.3369 40.3252 14.2779 38.9168 16.5959V16.5964ZM24.5461 7.83808C23.2318 10.001 22.9409 12.7448 24.0046 15.2466C24.8543 17.2439 26.4312 18.7905 28.4439 19.6022C30.4572 20.4139 32.6658 20.3928 34.6628 19.5432C36.6602 18.6936 38.2073 17.1172 39.0186 15.104C39.8303 13.0913 39.8092 10.8823 38.9595 8.88547C38.1099 6.88814 36.5335 5.34154 34.5202 4.52984C32.5069 3.71814 30.2983 3.73926 28.3014 4.58888C26.6798 5.27866 25.3981 6.43645 24.5461 7.83856V7.83808Z" fill="#4FA83D"/>
<path d="M51.5819 0.586602L51.9237 1.11797C52.229 1.59175 51.855 2.35545 51.1854 2.66457L39.8182 9.62379L38.7578 8.07287L49.8384 0.314435C50.5536 -0.228458 51.1892 -0.0234933 51.5819 0.586602Z" fill="#4FA83D"/>
<path d="M31.8449 4.82764C31.8449 4.831 31.7949 4.83244 31.7013 4.83196C31.6077 4.8358 31.47 4.82044 31.2923 4.83532C30.9376 4.84348 30.4244 4.90637 29.8138 5.07629C29.5081 5.15981 29.1826 5.28125 28.8394 5.42622C28.5024 5.58462 28.1438 5.75887 27.7929 5.98831C27.4391 6.212 27.0815 6.47024 26.7412 6.77265C26.3994 7.07314 26.0638 7.40723 25.7653 7.78692C25.4648 8.16469 25.2113 8.56406 25.003 8.96871C24.7989 9.37576 24.6434 9.78809 24.5215 10.1879C24.2911 10.9929 24.2104 11.7513 24.2267 12.3845C24.2412 13.0181 24.3247 13.5279 24.4087 13.8725C24.4423 14.0472 24.4893 14.1773 24.51 14.269C24.534 14.3597 24.545 14.4077 24.5421 14.4087C24.5393 14.4096 24.522 14.3636 24.4922 14.2748C24.4658 14.185 24.4125 14.0559 24.3736 13.8816C24.2781 13.5379 24.184 13.0258 24.161 12.3864C24.1355 11.7475 24.2104 10.9804 24.4389 10.1644C24.5599 9.75881 24.7154 9.34072 24.9214 8.92791C25.1311 8.5175 25.3875 8.11189 25.6923 7.72932C25.9947 7.34483 26.3346 7.00738 26.6812 6.70449C27.0263 6.3992 27.3887 6.14 27.7473 5.91583C28.103 5.6859 28.4674 5.51214 28.8087 5.35566C29.1562 5.21213 29.4865 5.09261 29.7966 5.01293C30.4153 4.84972 30.9347 4.79644 31.2914 4.79932C31.47 4.78972 31.6082 4.81132 31.7023 4.81324C31.7959 4.81948 31.8449 4.82476 31.8449 4.82764Z" fill="white"/>
<path d="M38.6352 14.136C38.6141 14.1292 38.7744 13.7366 38.8877 13.0689C38.9007 12.9849 38.9141 12.8975 38.928 12.8068C38.9415 12.7156 38.9443 12.6191 38.9539 12.5207C38.9765 12.3229 38.9727 12.1103 38.9755 11.8871C38.9631 11.4407 38.9117 10.9511 38.797 10.4485C38.6755 9.94737 38.5037 9.4856 38.3155 9.08047C38.2133 8.88174 38.1221 8.69022 38.0136 8.52317C37.9612 8.43869 37.9156 8.35421 37.8628 8.27837C37.81 8.20349 37.7587 8.131 37.7102 8.0614C37.3113 7.51419 36.9925 7.23482 37.0084 7.21898C37.0127 7.21418 37.0909 7.28426 37.2292 7.41627C37.2998 7.48107 37.3828 7.56267 37.4697 7.66683C37.558 7.77003 37.6655 7.8814 37.763 8.02204C37.8139 8.09116 37.8672 8.16316 37.9224 8.23805C37.9771 8.31341 38.0251 8.39837 38.0793 8.48285C38.1917 8.65038 38.2872 8.84286 38.3923 9.04303C38.5872 9.45104 38.7643 9.91857 38.8872 10.4269C39.0039 10.9367 39.0533 11.434 39.061 11.8857C39.0557 12.1117 39.0567 12.3268 39.0303 12.527C39.0192 12.6268 39.014 12.7242 38.9986 12.8159C38.9823 12.9076 38.9669 12.9954 38.952 13.0804C38.9275 13.2498 38.881 13.3977 38.8479 13.5292C38.8167 13.6612 38.7787 13.7716 38.7442 13.8609C38.6789 14.0404 38.6405 14.1379 38.6342 14.136H38.6352Z" fill="white"/>
<path d="M33.2529 7.96972C33.2702 7.98892 32.0979 9.0867 30.6348 10.4216C29.1712 11.757 27.9711 12.8241 27.9533 12.8049C27.936 12.7857 29.1083 11.6879 30.5719 10.3525C32.035 9.01758 33.2356 7.95052 33.2529 7.96924V7.96972Z" fill="white"/>
<path d="M35.4817 9.38281C35.4836 9.38521 35.4548 9.41257 35.3982 9.46297C35.3334 9.51866 35.2503 9.59018 35.1476 9.6785C34.9191 9.8705 34.6042 10.136 34.2187 10.4609C33.4334 11.1205 32.3519 12.0344 31.1681 13.0573C29.9844 14.0807 28.9225 15.0182 28.1559 15.6993C27.7786 16.0334 27.4704 16.307 27.2472 16.5047C27.145 16.5936 27.0624 16.6651 26.9976 16.7212C26.94 16.7697 26.9083 16.7942 26.9064 16.7918C26.904 16.7894 26.9314 16.7601 26.9851 16.7073C27.0466 16.6483 27.1253 16.572 27.2227 16.4779C27.4301 16.2801 27.734 15.9969 28.1118 15.6503C28.8673 14.9567 29.9224 14.0106 31.1072 12.9867C32.2914 11.9638 33.3806 11.0571 34.177 10.4105C34.5749 10.087 34.8989 9.82778 35.125 9.65114C35.2321 9.56858 35.319 9.50138 35.3866 9.44905C35.4471 9.40393 35.4798 9.38089 35.4817 9.38377V9.38281Z" fill="white"/>
<g opacity="0.3">
<path d="M24.6094 16.1412L36.5636 5.82812C36.5636 5.82812 37.7459 6.73199 38.2466 7.54129L26.0135 18.0708C26.0135 18.0708 25.0908 17.2534 24.6094 16.1407V16.1412Z" fill="white"/>
</g>
<g opacity="0.3">
<path d="M27.3125 19.0257L38.9629 8.87916C38.9629 8.87916 39.0195 8.78316 39.1789 9.51326L27.8775 19.341C27.8775 19.341 27.6044 19.2791 27.313 19.0257H27.3125Z" fill="white"/>
</g>
</svg>
