<svg width="79" height="63" viewBox="0 0 79 63" fill="none" xmlns="http://www.w3.org/2000/svg">
<g clip-path="url(#clip0_98_5966)">
<path d="M45.8401 22.7188H1.40216C0.636568 22.7188 0.015625 23.3397 0.015625 24.1052V55.4919C0.015625 56.2575 0.636568 56.8784 1.40216 56.8784H18.4587L17.6313 62.3609H29.9973L29.3075 56.8784H45.8419C46.6075 56.8784 47.2284 56.2575 47.2284 55.4919V24.107C47.2284 23.3414 46.6075 22.7205 45.8419 22.7205L45.8401 22.7188Z" fill="#4FA83D"/>
<path d="M24.2665 53.5774C24.8715 54.4418 23.9242 55.3873 23.0616 54.7823C23.0334 54.7628 23.0069 54.7364 22.9875 54.7082C22.3842 53.8438 23.3298 52.9001 24.1924 53.5034C24.2206 53.5228 24.2471 53.5492 24.2665 53.5774Z" fill="white"/>
<path d="M45.9904 51.136H1.25781V25.6251C1.25781 24.6796 2.02341 23.9141 2.96893 23.9141H44.2793C45.2248 23.9141 45.9904 24.6796 45.9904 25.6251V51.1342V51.136Z" fill="#161617"/>
<path d="M31.9449 56.8798C31.9449 56.8957 28.2192 56.908 23.6257 56.908C19.0321 56.908 15.3047 56.8957 15.3047 56.8798C15.3047 56.8639 19.0286 56.8516 23.6257 56.8516C28.2228 56.8516 31.9449 56.8639 31.9449 56.8798Z" fill="white"/>
<path d="M8.99432 26.0703H5.73438V26.7583H8.99432V26.0703Z" fill="#4FA83D"/>
<path d="M7.36435 29.1484H5.73438V29.8364H7.36435V29.1484Z" fill="#FF5A52"/>
<path d="M9.25595 30.7031H6.96094V31.3911H9.25595V30.7031Z" fill="#4FA83D"/>
<path d="M10.9621 30.7031H9.625V31.3911H10.9621V30.7031Z" fill="#4FA83D"/>
<path d="M22.9533 30.7031H20.2031V31.3911H22.9533V30.7031Z" fill="#B8EFA8"/>
<path d="M30.9902 32.2109H26.3438V32.8989H30.9902V32.2109Z" fill="#FF5A52"/>
<path d="M38.1612 30.7031H35.9297V31.3911H38.1612V30.7031Z" fill="#FF5A52"/>
<path d="M43.3393 30.7031H38.8516V31.3911H43.3393V30.7031Z" fill="#FF5A52"/>
<path d="M9.25595 32.2109H6.96094V32.8989H9.25595V32.2109Z" fill="#4FA83D"/>
<path d="M7.84971 33.7188H5.55469V34.4067H7.84971V33.7188Z" fill="#FF5A52"/>
<path d="M7.84597 35.2266H6.77344V35.9145H7.84597V35.2266Z" fill="#B8EFA8"/>
<path d="M11.7835 38.3984H10.7109V39.0864H11.7835V38.3984Z" fill="#4FA83D"/>
<path d="M27.5644 44.1328H25.4688V44.8208H27.5644V44.1328Z" fill="#B8EFA8"/>
<path d="M39.274 44.1328H34.1406V44.8208H39.274V44.1328Z" fill="#B8EFA8"/>
<path d="M19.6738 42.625H17.5781V43.313H19.6738V42.625Z" fill="white"/>
<path d="M12.0801 41.3359H9.98438V42.0239H12.0801V41.3359Z" fill="#4FA83D"/>
<path d="M25.0228 44.1328H21.7188V44.8208H25.0228V44.1328Z" fill="#4FA83D"/>
<path d="M8.51455 36.7578H6.77344V37.4458H8.51455V36.7578Z" fill="#4FA83D"/>
<path d="M10.0016 38.4258H6.77344V39.1137H10.0016V38.4258Z" fill="#4FA83D"/>
<path d="M11.4975 39.7031H6.77344V40.3911H11.4975V39.7031Z" fill="#4FA83D"/>
<path d="M20.0522 39.7031H15.3281V40.3911H20.0522V39.7031Z" fill="#4FA83D"/>
<path d="M16.5703 42.625H9.9375V43.313H16.5703V42.625Z" fill="#4FA83D"/>
<path d="M21.155 44.1328H9.9375V44.8208H21.155V44.1328Z" fill="#4FA83D"/>
<path d="M17.7722 45.6406H6.55469V46.3286H17.7722V45.6406Z" fill="#4FA83D"/>
<path d="M14.8409 39.7031H12.0078V40.3911H14.8409V39.7031Z" fill="#4FA83D"/>
<path d="M11.206 35.2266H8.28125V35.9145H11.206V35.2266Z" fill="#4FA83D"/>
<path d="M11.8467 36.7578H8.92188V37.4458H11.8467V36.7578Z" fill="#4FA83D"/>
<path d="M23.1799 36.7578H15.4375V37.4458H23.1799V36.7578Z" fill="#4FA83D"/>
<path d="M32.3169 36.7578H23.375V37.4458H32.3169V36.7578Z" fill="#4FA83D"/>
<path d="M14.7406 36.7578H12.3203V37.4458H14.7406V36.7578Z" fill="#4FA83D"/>
<path d="M15.427 35.2266H11.5938V35.9145H15.427V35.2266Z" fill="#4FA83D"/>
<path d="M17.9861 35.2266H15.8516V35.9145H17.9861V35.2266Z" fill="white"/>
<path d="M12.0188 32.2109H9.625V32.8989H12.0188V32.2109Z" fill="#4FA83D"/>
<path d="M25.4658 32.2109H13.6484V32.8989H25.4658V32.2109Z" fill="#FF5A52"/>
<path d="M38.7273 36.7578H33.1406V37.4458H38.7273V36.7578Z" fill="#4FA83D"/>
<path d="M33.7039 44.1328H28.1172V44.8208H33.7039V44.1328Z" fill="#B8EFA8"/>
<path d="M35.0628 30.7031H23.4219V31.3911H35.0628V30.7031Z" fill="#FF5A52"/>
<path d="M19.4833 30.7031H11.3828V31.3911H19.4833V30.7031Z" fill="#4FA83D"/>
<path d="M11.1888 27.5273H5.73438V28.2153H11.1888V27.5273Z" fill="#4FA83D"/>
<path d="M19.2094 27.5273H11.7422V28.2153H19.2094V27.5273Z" fill="#4FA83D"/>
<path d="M11.9087 26.0703H9.50781V26.7583H11.9087V26.0703Z" fill="white"/>
<path d="M4.54962 26.0703H3.88281V26.7583H4.54962V26.0703Z" fill="#B8EFA8"/>
<path d="M4.54962 27.5742H3.88281V28.2622H4.54962V27.5742Z" fill="#B8EFA8"/>
<path d="M4.54962 29.082H3.88281V29.77H4.54962V29.082Z" fill="#B8EFA8"/>
<path d="M4.54962 30.5859H3.88281V31.2739H4.54962V30.5859Z" fill="#B8EFA8"/>
<path d="M4.54962 32.0938H3.88281V32.7817H4.54962V32.0938Z" fill="#B8EFA8"/>
<path d="M4.54962 33.5977H3.88281V34.2856H4.54962V33.5977Z" fill="#B8EFA8"/>
<path d="M4.54962 35.1016H3.88281V35.7895H4.54962V35.1016Z" fill="#B8EFA8"/>
<path d="M4.54962 36.6091H3.88281V37.2971H4.54962V36.6091Z" fill="#B8EFA8"/>
<path d="M4.54962 38.1133H3.88281V38.8012H4.54962V38.1133Z" fill="#B8EFA8"/>
<path d="M11.5257 48.8945H10.4531V49.5825H11.5257V48.8945Z" fill="white"/>
<path d="M9.79851 48.8945H6.57031V49.5825H9.79851V48.8945Z" fill="#FF5A52"/>
<path d="M4.54962 48.8125H3.88281V49.5005H4.54962V48.8125Z" fill="#B8EFA8"/>
<path d="M4.54962 39.6172H3.88281V40.3051H4.54962V39.6172Z" fill="#B8EFA8"/>
<path d="M4.54962 41.125H3.88281V41.813H4.54962V41.125Z" fill="#B8EFA8"/>
<path d="M4.54962 42.6292H3.88281V43.3171H4.54962V42.6292Z" fill="#B8EFA8"/>
<path d="M4.54962 44.1328H3.88281V44.8208H4.54962V44.1328Z" fill="#B8EFA8"/>
<path d="M4.54962 45.6406H3.88281V46.3286H4.54962V45.6406Z" fill="#B8EFA8"/>
<path d="M9.82522 47.2266H6.55469V47.9145H9.82522V47.2266Z" fill="#4FA83D"/>
<path d="M17.8515 47.2266H10.4531V47.9145H17.8515V47.2266Z" fill="#4FA83D"/>
<path d="M4.54962 47.2266H3.88281V47.9145H4.54962V47.2266Z" fill="#B8EFA8"/>
<path d="M22.518 27.5234H20.1172V28.2114H22.518V27.5234Z" fill="white"/>
<path d="M68.5651 3.17578H43.638C42.2461 3.17578 41.1172 4.32439 41.1172 5.74433V57.0549C41.1172 58.472 42.2461 59.6235 43.638 59.6235H68.5637C69.9569 59.6235 71.0873 58.472 71.0873 57.0549V5.74433C71.0873 4.32439 69.9569 3.17578 68.5637 3.17578H68.5651ZM69.5127 55.4691C69.5127 56.8201 68.5018 57.9125 67.2533 57.9125H44.954C43.7041 57.9125 42.6918 56.8201 42.6918 55.4691V7.68867C42.6918 4.93735 43.7027 4.8038 44.954 4.8038H49.4206C49.6807 4.8038 49.893 5.09903 49.893 5.46456V5.62202C49.893 6.4782 50.3626 6.48102 50.939 6.48102H61.2697C61.8504 6.48102 62.3157 6.4782 62.3157 5.62202V5.46456C62.3157 5.09903 62.5252 4.8038 62.7895 4.8038H67.2576C68.5046 4.8038 69.5169 5.16933 69.5169 7.68867V55.4691H69.5127Z" fill="#1C630E"/>
<path d="M57.5074 5.41116H54.69C54.5944 5.41116 54.5156 5.33384 54.5156 5.23683C54.5156 5.14123 54.593 5.0625 54.69 5.0625H57.5074C57.603 5.0625 57.6818 5.13982 57.6818 5.23683C57.6818 5.33243 57.6044 5.41116 57.5074 5.41116Z" fill="white"/>
<path d="M69.5162 7.68956V55.47C69.5162 56.821 68.5053 57.9134 67.2568 57.9134H44.9574C43.7076 57.9134 42.6953 56.821 42.6953 55.47V7.68956C42.6953 4.93825 43.7062 4.80469 44.9574 4.80469H49.4241C49.6842 4.80469 49.8965 5.09992 49.8965 5.46545V5.62291C49.8965 6.4791 50.366 6.48191 50.9425 6.48191H61.2732C61.8539 6.48191 62.3192 6.4791 62.3192 5.62291V5.46545C62.3192 5.09992 62.5287 4.80469 62.793 4.80469H67.2611C68.5081 4.80469 69.5204 5.17022 69.5204 7.68956H69.5162Z" fill="#C9E2BB"/>
<path d="M69.5148 7.68956V11.2549H42.6953V7.68956C42.6953 4.93825 43.7062 4.80469 44.9574 4.80469H49.4255C49.6856 4.80469 49.8979 5.09992 49.8979 5.46545V5.62291C49.8979 6.4791 50.3674 6.48191 50.9425 6.48191H61.2732C61.8539 6.48191 62.3206 6.4791 62.3206 5.62291V5.46545C62.3206 5.09992 62.5301 4.80469 62.7944 4.80469H67.2611C68.5081 4.80469 69.5204 5.17022 69.5204 7.68956H69.5148Z" fill="#47943A"/>
<path d="M45.2383 9.51586L44.4453 8.77356L45.2383 8.03125L45.3606 8.162L44.7082 8.77356L45.3606 9.38512L45.2383 9.51586Z" fill="white"/>
<path d="M67.0957 9.58161H66.5375V9.38338C66.5375 9.37213 66.5305 9.36229 66.5207 9.35667C66.4996 9.34542 66.4799 9.33418 66.4602 9.32152C66.4504 9.3159 66.4377 9.31449 66.4279 9.32012L66.2563 9.41853L65.9766 8.9349L66.1481 8.83509C66.1579 8.82946 66.1621 8.81822 66.1621 8.80697C66.1621 8.79572 66.1621 8.78447 66.1621 8.77182C66.1621 8.75917 66.1621 8.74933 66.1621 8.73667C66.1621 8.72402 66.1579 8.71418 66.1481 8.70856L65.9766 8.61014L66.2563 8.12652L66.4279 8.22634C66.4377 8.23196 66.4504 8.23056 66.4602 8.22493C66.4799 8.21228 66.4996 8.20103 66.5207 8.18979C66.5305 8.18416 66.5375 8.17432 66.5375 8.16307V7.96484H67.0957V8.16307C67.0957 8.17432 67.1027 8.18416 67.1126 8.18979C67.1336 8.20103 67.1533 8.21228 67.173 8.22493C67.1828 8.23196 67.1955 8.23196 67.2053 8.22634L67.3769 8.12652L67.6566 8.61014L67.4851 8.70856C67.4753 8.71418 67.4711 8.72543 67.4711 8.73667C67.4711 8.74792 67.4711 8.75917 67.4711 8.77042C67.4711 8.78166 67.4711 8.79291 67.4711 8.80556C67.4711 8.81822 67.4753 8.82806 67.4851 8.83368L67.6566 8.9335L67.3769 9.41712L67.2053 9.31871C67.1955 9.31309 67.1828 9.31449 67.173 9.32012C67.1533 9.33277 67.1336 9.34402 67.1126 9.35526C67.1013 9.36089 67.0957 9.37073 67.0957 9.38198V9.58021V9.58161ZM66.6767 9.44243H66.9579V9.38338C66.9579 9.32012 66.993 9.26248 67.0507 9.23295C67.0676 9.22452 67.083 9.21608 67.0985 9.20483C67.1519 9.16969 67.2208 9.16688 67.2756 9.19921L67.3263 9.22873L67.4668 8.98552L67.4148 8.95599C67.36 8.92366 67.3291 8.86461 67.3319 8.79994V8.77323V8.74652C67.3291 8.68185 67.36 8.62139 67.4148 8.59046L67.4668 8.56094L67.3263 8.31772L67.2756 8.34724C67.2208 8.37958 67.1519 8.37677 67.0985 8.34162C67.083 8.33178 67.0676 8.32194 67.0507 8.3135C66.993 8.28398 66.9579 8.22634 66.9579 8.16307V8.10403H66.6767V8.16307C66.6767 8.22634 66.6416 8.28398 66.5839 8.3135C66.5671 8.32194 66.5516 8.33037 66.5361 8.34162C66.4827 8.37677 66.4138 8.37958 66.359 8.34724L66.3084 8.31772L66.1678 8.56094L66.2184 8.59046C66.2732 8.62139 66.3056 8.68185 66.3027 8.74652V8.77323V8.80135C66.3056 8.86602 66.2746 8.92647 66.2198 8.9574L66.1678 8.98692L66.3084 9.23014L66.359 9.20062C66.4138 9.16969 66.4813 9.17109 66.5361 9.20624C66.5516 9.21608 66.5671 9.22592 66.5839 9.23436C66.6416 9.26388 66.6767 9.32152 66.6767 9.38479V9.44383V9.44243ZM66.8173 9.18656C66.5895 9.18656 66.404 9.00098 66.404 8.77323C66.404 8.54547 66.5895 8.3599 66.8173 8.3599C67.0451 8.3599 67.2307 8.54547 67.2307 8.77323C67.2307 9.00098 67.0451 9.18656 66.8173 9.18656ZM66.8173 8.49908C66.6655 8.49908 66.5432 8.62139 66.5432 8.77323C66.5432 8.92506 66.6655 9.04738 66.8173 9.04738C66.9691 9.04738 67.0915 8.92506 67.0915 8.77323C67.0915 8.62139 66.9677 8.49908 66.8173 8.49908Z" fill="white"/>
<path d="M48.6534 5.87932C48.6393 5.89338 48.6253 5.90744 48.6098 5.9215C48.6014 5.92993 48.5929 5.93837 48.5859 5.9454C48.4706 5.83293 48.3314 5.77248 48.1697 5.77248C48.0081 5.77248 47.8703 5.83293 47.7536 5.9454C47.7465 5.93696 47.7381 5.92853 47.7297 5.9215C47.7156 5.90744 47.7016 5.89338 47.6875 5.87932C47.6875 5.87932 47.6903 5.87651 47.6903 5.87511C47.7086 5.85964 47.7269 5.84277 47.7451 5.82731C47.7845 5.79497 47.8267 5.76966 47.8717 5.74717C47.9251 5.72046 47.9813 5.70218 48.039 5.69093C48.0671 5.68531 48.0952 5.68391 48.1219 5.67969C48.1318 5.67969 48.1936 5.67969 48.195 5.67969C48.2147 5.68109 48.233 5.6825 48.2527 5.6839C48.3047 5.68953 48.3567 5.70218 48.4059 5.72046C48.4425 5.73311 48.4762 5.74998 48.51 5.76966C48.5451 5.78935 48.5789 5.81325 48.6084 5.83855C48.6238 5.85121 48.6393 5.86526 48.6534 5.87932Z" fill="white"/>
<path d="M47.897 6.08309C47.8745 6.0606 47.852 6.0381 47.8281 6.01561C47.9055 5.93969 47.9982 5.89048 48.1051 5.87643C48.2668 5.85393 48.4046 5.90314 48.5227 6.0142C48.5002 6.0367 48.4763 6.05919 48.4538 6.08168C48.3764 6.00717 48.2836 5.9664 48.1754 5.9664C48.0671 5.9664 47.9743 6.00717 47.8956 6.08168L47.897 6.08309Z" fill="white"/>
<path d="M48.3749 6.15058C48.3524 6.17308 48.3299 6.19557 48.3074 6.21806C48.2681 6.18011 48.2203 6.15902 48.164 6.15902C48.1078 6.15902 48.06 6.18011 48.0206 6.21806C47.9981 6.19557 47.9756 6.17308 47.9531 6.15058C48.0614 6.03811 48.2554 6.02827 48.3749 6.15058Z" fill="white"/>
<path d="M48.2253 6.28061C48.2253 6.31435 48.1972 6.34247 48.1634 6.34247C48.1297 6.34247 48.1016 6.31435 48.1016 6.28061C48.1016 6.24687 48.1297 6.21875 48.1634 6.21875C48.1972 6.21875 48.2253 6.24687 48.2253 6.28061Z" fill="white"/>
<path d="M44.4375 6.00527C44.4375 5.90685 44.5176 5.82812 44.6146 5.82812C44.7117 5.82812 44.7918 5.90826 44.7918 6.00527C44.7918 6.10227 44.7117 6.18241 44.6146 6.18241C44.5176 6.18241 44.4375 6.10227 44.4375 6.00527Z" fill="white"/>
<path d="M45.0078 6.00527C45.0078 5.90685 45.088 5.82812 45.185 5.82812C45.282 5.82812 45.3621 5.90826 45.3621 6.00527C45.3621 6.10227 45.282 6.18241 45.185 6.18241C45.088 6.18241 45.0078 6.10227 45.0078 6.00527Z" fill="white"/>
<path d="M45.7318 6.18241C45.8297 6.18241 45.909 6.1031 45.909 6.00527C45.909 5.90743 45.8297 5.82812 45.7318 5.82812C45.634 5.82812 45.5547 5.90743 45.5547 6.00527C45.5547 6.1031 45.634 6.18241 45.7318 6.18241Z" fill="white"/>
<path d="M46.1172 6.00527C46.1172 5.90685 46.1973 5.82812 46.2943 5.82812C46.3913 5.82812 46.4715 5.90826 46.4715 6.00527C46.4715 6.10227 46.3913 6.18241 46.2943 6.18241C46.1973 6.18241 46.1172 6.10227 46.1172 6.00527Z" fill="white"/>
<path d="M46.6719 6.00527C46.6719 5.90685 46.752 5.82812 46.849 5.82812C46.946 5.82812 47.0262 5.90826 47.0262 6.00527C47.0262 6.10227 46.946 6.18241 46.849 6.18241C46.752 6.18241 46.6719 6.10227 46.6719 6.00527Z" fill="white"/>
<path d="M67.4894 6.39295H66.0469V5.72656H67.4894V6.39295ZM66.1158 6.32406H67.4191V5.79686H66.1158V6.32406Z" fill="white"/>
<path d="M67.0962 5.83984H66.1641V6.2827H67.0962V5.83984Z" fill="white"/>
<path d="M67.6215 5.88281H67.4922V6.24131H67.6215V5.88281Z" fill="white"/>
<path d="M46.7664 54.9923H46.5626V55.9286H46.1816V55.452H45.5067V55.9286H45.1257V54.9923H44.9219L45.8442 54.0391L46.7664 54.9923Z" fill="#A8AFA6"/>
<path d="M67.2853 54.0391H65.0625V54.3568H67.2853V54.0391Z" fill="#A8AFA6"/>
<path d="M67.2853 54.8242H65.0625V55.142H67.2853V54.8242Z" fill="#A8AFA6"/>
<path d="M67.2853 55.6133H65.0625V55.931H67.2853V55.6133Z" fill="#A8AFA6"/>
<path d="M42.702 28.1289L69.5312 28.1289V11.2583L42.702 11.2583V28.1289Z" fill="#47943A"/>
<path opacity="0.6" d="M42.702 28.1289L69.5312 28.1289V11.2583L42.702 11.2583V28.1289Z" fill="white"/>
<path d="M54.6016 24.4908H69.5212L62.0614 15.4102L54.6016 24.4908Z" fill="#47943A"/>
<path opacity="0.1" d="M54.6016 24.4908H69.5212L62.0614 15.4102L54.6016 24.4908Z" fill="black"/>
<path d="M48.7578 24.503H61.0751L54.9172 18.5898L48.7578 24.503Z" fill="#47943A"/>
<path d="M69.5246 24.4922H42.6953V28.1264H69.5246V24.4922Z" fill="#47943A"/>
<path d="M47.7346 17.9573C48.7875 17.9573 49.641 17.1038 49.641 16.0509C49.641 14.998 48.7875 14.1445 47.7346 14.1445C46.6817 14.1445 45.8281 14.998 45.8281 16.0509C45.8281 17.1038 46.6817 17.9573 47.7346 17.9573Z" fill="#47943A"/>
<path d="M67.1357 30.1172H45.0781V32.7504H67.1357V30.1172Z" fill="#47943A"/>
<path d="M67.1435 33.707H45.0859V34.597H67.1435V33.707Z" fill="#616E5E"/>
<path d="M67.1435 35.5469H45.0859V36.4368H67.1435V35.5469Z" fill="#616E5E"/>
<path d="M67.1435 37.3906H45.0859V38.2806H67.1435V37.3906Z" fill="#616E5E"/>
<path d="M60.1996 39.2383H45.0859V40.1282H60.1996V39.2383Z" fill="#616E5E"/>
<path d="M63.8972 44.5742H45.0859V45.2504H63.8972V44.5742Z" fill="#22301F"/>
<path d="M67.1435 45.9766H45.0859V46.6528H67.1435V45.9766Z" fill="#616E5E"/>
<path d="M67.1435 47.375H45.0859V48.0512H67.1435V47.375Z" fill="#616E5E"/>
<path d="M67.1435 48.7734H45.0859V49.4497H67.1435V48.7734Z" fill="#616E5E"/>
<path d="M67.1435 50.1797H45.0859V50.8559H67.1435V50.1797Z" fill="#616E5E"/>
<path d="M57.1558 51.5781H45.0859V52.2544H57.1558V51.5781Z" fill="#616E5E"/>
<path d="M67.1357 41.8945H45.0781V43.8839H67.1357V41.8945Z" fill="#47943A"/>
<path d="M34.8565 8.68787C34.8219 8.60082 34.7841 8.51704 34.7542 8.42736C34.6504 8.12155 34.7599 7.7768 35.0153 7.58857C35.2676 7.40361 35.6107 7.43008 35.7492 7.70448C36.0296 8.25455 36.2901 8.82163 36.5299 9.39863C36.6457 9.67325 36.5188 10.0091 36.2505 10.2013C35.7822 10.536 35.3053 10.8584 34.8258 11.173C34.5132 11.3773 34.207 11.3136 34.0505 11.0368C33.8879 10.7465 33.9719 10.3942 34.2666 10.1182C34.2958 10.0914 34.3226 10.0659 34.407 9.98868C34.1183 9.96298 33.8809 9.93679 33.643 9.9216C33.3954 9.90716 33.1482 9.88171 32.8983 9.89771C28.5522 10.1564 25.2232 12.5128 22.9439 16.9751C22.6092 17.6314 22.3988 18.3577 22.137 19.0554C22.0184 19.3698 21.823 19.5542 21.5586 19.5736C21.308 19.5916 21.0798 19.4281 21.0398 19.1579C21.0189 19.0202 21.036 18.8524 21.0784 18.7122C22.3362 14.6721 24.7006 11.7224 28.1439 9.88592C30.2721 8.75017 32.4546 8.38414 34.6541 8.71312C34.6974 8.71853 34.7414 8.72199 34.7869 8.72155C34.8023 8.72075 34.8197 8.70505 34.8525 8.68855L34.8565 8.68787Z" fill="#C9E2BB"/>
</g>
<defs>
<clipPath id="clip0_98_5966">
<rect width="78.3234" height="62.0922" fill="white"/>
</clipPath>
</defs>
</svg>
