<svg width="25" height="22" viewBox="0 0 25 22" fill="none" xmlns="http://www.w3.org/2000/svg">
<path d="M24.667 8.82472V9.64372C24.6503 9.67957 24.6376 9.71712 24.629 9.75572C24.4914 10.7017 24.0092 11.5635 23.275 12.1757C22.5408 12.7879 21.6063 13.1073 20.651 13.0727C15.137 13.0427 9.62301 13.0637 4.10901 13.0607C3.83649 13.0652 3.56403 13.0488 3.29401 13.0117C2.56932 12.9398 1.88316 12.651 1.32513 12.183C0.767111 11.7151 0.363169 11.0898 0.166016 10.3887C0.0930156 10.1617 0.055 9.92472 0 9.68872V8.77373C0.0186459 8.73116 0.0333799 8.68697 0.0440063 8.64172C0.138071 7.88295 0.468938 7.17315 0.989563 6.6132C1.51019 6.05326 2.1941 5.67168 2.94403 5.52272C3.25303 5.45372 3.57302 5.43073 3.88702 5.38573C3.90602 5.28573 3.924 5.18573 3.94 5.09273C4.14319 3.84803 4.73145 2.69834 5.62207 1.80539C6.51269 0.91244 7.66087 0.321172 8.90503 0.11473C10.1187 -0.125853 11.377 0.0139564 12.5083 0.515075C13.6396 1.01619 14.5887 1.85419 15.226 2.91472C15.2564 2.9774 15.3056 3.02904 15.3667 3.06239C15.4278 3.09574 15.4979 3.10914 15.567 3.10072C16.4328 3.05276 17.2959 3.23473 18.0687 3.62814C18.8414 4.02155 19.4964 4.6124 19.967 5.34073C19.9949 5.39113 20.0391 5.43056 20.0923 5.45254C20.1456 5.47453 20.2047 5.47777 20.26 5.46173C21.1977 5.31649 22.1558 5.52539 22.9479 6.04777C23.74 6.57016 24.3093 7.36863 24.545 8.28772C24.592 8.46172 24.627 8.64172 24.667 8.82472Z" fill="#CAE2BC"/>
<path d="M16.1303 19.2747H14.4693C14.4693 19.8017 14.4753 20.3138 14.4693 20.8258C14.4827 21.0004 14.4293 21.1737 14.3197 21.3103C14.2102 21.447 14.0527 21.5369 13.8793 21.5618C13.7887 21.5804 13.6954 21.5809 13.6046 21.5632C13.5138 21.5456 13.4274 21.5101 13.3504 21.4589C13.2735 21.4077 13.2074 21.3417 13.156 21.2648C13.1047 21.1878 13.0691 21.1015 13.0513 21.0108C13.0347 20.9322 13.026 20.8521 13.0253 20.7718C13.0253 19.5198 13.0123 18.2717 13.0253 17.0167C13.0176 16.4733 13.2051 15.9451 13.5538 15.5282C13.9024 15.1113 14.3891 14.8333 14.9253 14.7447C15.2448 14.6874 15.5729 14.7001 15.8871 14.7818C16.2012 14.8635 16.4939 15.0123 16.745 15.218C16.9961 15.4236 17.1996 15.6813 17.3416 15.9732C17.4836 16.2651 17.5605 16.5842 17.5673 16.9087C17.6083 18.2157 17.5843 19.5248 17.5763 20.8318C17.581 20.9288 17.5657 21.0257 17.5315 21.1166C17.4973 21.2075 17.4449 21.2904 17.3774 21.3603C17.31 21.4301 17.2289 21.4855 17.1393 21.5229C17.0497 21.5603 16.9534 21.579 16.8563 21.5778C16.7575 21.5799 16.6594 21.5613 16.5682 21.5232C16.477 21.4851 16.3949 21.4283 16.3269 21.3565C16.259 21.2848 16.2069 21.1995 16.1739 21.1064C16.1409 21.0133 16.1277 20.9143 16.1353 20.8158C16.1263 20.3108 16.1303 19.8067 16.1303 19.2747ZM16.1233 17.8128C16.1233 17.4868 16.1433 17.1977 16.1233 16.9127C16.1077 16.7059 16.0143 16.5127 15.862 16.3719C15.7097 16.2311 15.5097 16.1532 15.3023 16.1538C15.0952 16.1543 14.896 16.2331 14.7446 16.3744C14.5932 16.5158 14.501 16.7092 14.4863 16.9158C14.4697 17.1638 14.4697 17.4127 14.4863 17.6608C14.4863 17.7128 14.5683 17.8047 14.6143 17.8057C15.0983 17.8167 15.5983 17.8128 16.1233 17.8128Z" fill="#59A52C"/>
<path d="M10.1664 19.2716H8.51849C8.51849 19.3566 8.51849 19.4416 8.51849 19.5256C8.51849 19.9586 8.52649 20.3925 8.51849 20.8255C8.52292 20.9243 8.50695 21.0229 8.47162 21.1152C8.43628 21.2075 8.38228 21.2916 8.31305 21.3621C8.24381 21.4327 8.16084 21.4882 8.06921 21.5253C7.97758 21.5623 7.87926 21.5801 7.78045 21.5776C7.68362 21.5779 7.58782 21.5581 7.49902 21.5195C7.41022 21.4808 7.33037 21.4242 7.26458 21.3532C7.19879 21.2821 7.14845 21.1982 7.11676 21.1067C7.08506 21.0152 7.07269 20.9181 7.08044 20.8216C7.08044 19.5296 7.06644 18.2376 7.08044 16.9456C7.08572 16.3484 7.3273 15.7775 7.75232 15.358C8.17733 14.9384 8.75121 14.7042 9.34845 14.7066C9.94963 14.7087 10.5255 14.949 10.9498 15.3748C11.3742 15.8007 11.6125 16.3774 11.6125 16.9786C11.6215 18.2546 11.6125 19.5306 11.6125 20.8066C11.6205 20.9052 11.608 21.0044 11.5756 21.0978C11.5432 21.1913 11.4916 21.277 11.4243 21.3494C11.3569 21.4219 11.2751 21.4795 11.1843 21.5186C11.0934 21.5577 10.9954 21.5774 10.8965 21.5766C10.7976 21.5784 10.6994 21.5598 10.6082 21.5218C10.5169 21.4838 10.4344 21.4274 10.366 21.356C10.2976 21.2846 10.2448 21.1998 10.2108 21.107C10.1768 21.0141 10.1624 20.9153 10.1685 20.8166C10.1625 20.3096 10.1664 19.7946 10.1664 19.2716ZM10.1664 17.7996C10.1664 17.5546 10.1664 17.3246 10.1664 17.0936C10.1694 17.0134 10.1664 16.9332 10.1575 16.8536C10.1256 16.6624 10.0286 16.4881 9.88269 16.3605C9.73682 16.2329 9.55121 16.1597 9.35748 16.1536C9.16659 16.1474 8.97979 16.2098 8.83087 16.3294C8.68194 16.4489 8.5807 16.6178 8.54547 16.8056C8.52398 17.1361 8.52131 17.4677 8.53747 17.7986L10.1664 17.7996Z" fill="#59A52C"/>
<path d="M3.52091 21.5837C3.35191 21.5837 3.18287 21.5907 3.01487 21.5837C2.82382 21.5811 2.64165 21.5027 2.50834 21.3658C2.37502 21.229 2.30147 21.0448 2.30387 20.8537C2.30345 20.7591 2.32194 20.6654 2.35825 20.5781C2.39456 20.4907 2.448 20.4115 2.51536 20.3451C2.58271 20.2787 2.66262 20.2264 2.75046 20.1913C2.83831 20.1562 2.93231 20.139 3.02689 20.1407C3.32689 20.1337 3.62088 20.1407 3.91788 20.1407C4.00589 20.1477 4.09437 20.1366 4.17795 20.1082C4.26153 20.0798 4.33844 20.0346 4.40397 19.9755C4.46949 19.9163 4.52228 19.8444 4.55906 19.7642C4.59584 19.6839 4.61586 19.597 4.61789 19.5087C4.61748 19.42 4.59853 19.3323 4.56229 19.2513C4.52605 19.1702 4.47333 19.0976 4.40745 19.0381C4.34156 18.9787 4.26396 18.9336 4.17966 18.9058C4.09537 18.878 4.00622 18.8681 3.91788 18.8767C3.49196 18.8977 3.06676 18.8225 2.67386 18.6567C2.27902 18.4609 1.95726 18.1439 1.75571 17.7519C1.55416 17.36 1.48342 16.9138 1.55387 16.4787C1.6057 16.0398 1.80394 15.6312 2.11655 15.3187C2.42916 15.0063 2.83794 14.8083 3.27689 14.7567C3.71579 14.713 4.1572 14.7004 4.59787 14.7187C4.78498 14.7252 4.96213 14.8046 5.09159 14.9398C5.22104 15.0751 5.29255 15.2555 5.29087 15.4427C5.29009 15.5373 5.27062 15.6309 5.23356 15.718C5.1965 15.8051 5.14258 15.8839 5.07493 15.9501C5.00727 16.0163 4.92721 16.0684 4.83933 16.1035C4.75145 16.1387 4.65753 16.156 4.5629 16.1547C4.2419 16.1617 3.92089 16.1497 3.59989 16.1617C3.46964 16.1585 3.34178 16.1973 3.23533 16.2724C3.12887 16.3475 3.04948 16.4549 3.00889 16.5787C2.95761 16.6945 2.94702 16.8242 2.9788 16.9467C3.01057 17.0693 3.08282 17.1775 3.18387 17.2537C3.346 17.3486 3.5269 17.407 3.7139 17.4247C4.05536 17.4528 4.39444 17.5043 4.72886 17.5787C5.14889 17.7275 5.50697 18.0127 5.74589 18.3888C5.9848 18.765 6.09081 19.2103 6.04691 19.6537C6.02625 20.1153 5.84638 20.5555 5.53794 20.8994C5.22949 21.2434 4.81148 21.4701 4.35489 21.5407C4.07889 21.5827 3.79588 21.5867 3.51688 21.6087L3.52091 21.5837Z" fill="#59A52C"/>
<path d="M20.5934 21.5838C20.4164 21.5838 20.2394 21.5918 20.0634 21.5838C19.8724 21.5801 19.6907 21.5009 19.558 21.3635C19.4253 21.2261 19.3525 21.0418 19.3554 20.8508C19.356 20.7563 19.3754 20.6629 19.4124 20.5759C19.4494 20.4889 19.5032 20.4102 19.5708 20.3442C19.6384 20.2781 19.7184 20.2262 19.8062 20.1913C19.894 20.1564 19.9879 20.1392 20.0824 20.1408C20.3824 20.1338 20.6764 20.1408 20.9734 20.1408C21.0616 20.1473 21.1501 20.1359 21.2337 20.1071C21.3173 20.0783 21.3942 20.0329 21.4596 19.9735C21.5251 19.9141 21.5778 19.842 21.6146 19.7616C21.6513 19.6812 21.6713 19.5942 21.6734 19.5058C21.6669 19.3317 21.5917 19.1673 21.4643 19.0484C21.3368 18.9296 21.1675 18.8661 20.9934 18.8718C20.6261 18.8631 20.261 18.8122 19.9054 18.7198C19.4661 18.5624 19.0957 18.2562 18.8582 17.8545C18.6208 17.4527 18.5314 16.9806 18.6054 16.5198C18.6489 16.0761 18.8415 15.6603 19.1517 15.3401C19.4618 15.02 19.8714 14.8143 20.3134 14.7568C20.7602 14.7105 21.2097 14.6971 21.6584 14.7168C21.8456 14.7241 22.0225 14.8041 22.1516 14.9399C22.2807 15.0757 22.3516 15.2565 22.3494 15.4438C22.3457 15.6349 22.2666 15.8167 22.1292 15.9495C21.9919 16.0824 21.8075 16.1555 21.6164 16.1528C21.3164 16.1598 21.0224 16.1528 20.7254 16.1528C20.6368 16.1443 20.5473 16.1544 20.4628 16.1825C20.3783 16.2106 20.3006 16.256 20.2347 16.3159C20.1688 16.3758 20.1161 16.4488 20.0801 16.5302C20.044 16.6117 20.0254 16.6997 20.0254 16.7888C20.025 16.8778 20.0434 16.9658 20.0794 17.0471C20.1154 17.1285 20.1682 17.2013 20.2342 17.2609C20.3003 17.3204 20.3782 17.3654 20.4629 17.3928C20.5475 17.4202 20.637 17.4294 20.7254 17.4198C21.3151 17.3646 21.9038 17.5355 22.3724 17.8978C22.6892 18.1567 22.9205 18.5053 23.0358 18.8978C23.151 19.2904 23.145 19.7087 23.0184 20.0978C22.9262 20.476 22.72 20.8168 22.4277 21.074C22.1355 21.3311 21.7713 21.4924 21.3844 21.5358C21.1244 21.5798 20.8574 21.5798 20.5944 21.5998L20.5934 21.5838Z" fill="#59A52C"/>
</svg>
