<svg width="24" height="17" viewBox="0 0 24 17" fill="none" xmlns="http://www.w3.org/2000/svg">
<circle cx="3.94031" cy="4.49695" r="1.74891" fill="#CAE2BC"/>
<path fill-rule="evenodd" clip-rule="evenodd" d="M1.67383 12.2802L7.93588 7.49593L10.0596 9.24484L14.6817 5.87195L15.6951 6.63203C13.6823 7.52583 12.2785 9.54224 12.2785 11.8865C12.2785 12.4438 12.3579 12.9826 12.5059 13.4922H1.67383V12.2802Z" fill="#CAE2BC"/>
<path fill-rule="evenodd" clip-rule="evenodd" d="M1.11632 1.11632H19.8121V6.49258C20.2071 6.64202 20.5811 6.83589 20.9284 7.06827V1.11632C20.9284 0.499796 20.4286 0 19.8121 0H1.11632C0.499795 0 0 0.499796 0 1.11632V14.1242C0 14.7407 0.499797 15.2405 1.11633 15.2405H13.3315C13.0893 14.8951 12.8835 14.521 12.7199 14.1242H1.11632V1.11632Z" fill="#59A52C"/>
<circle cx="17.9889" cy="11.8488" r="5.15104" fill="#59A52C"/>
<path fill-rule="evenodd" clip-rule="evenodd" d="M19.1949 9.02417L19.461 9.19165L18.6653 11.0911L18.63 11.0689C18.8511 11.4065 18.8695 11.8557 18.6405 12.2195C18.3274 12.7169 17.6705 12.8662 17.1731 12.5532C16.6758 12.2401 16.5264 11.5831 16.8395 11.0858C17.0685 10.722 17.4816 10.5444 17.8816 10.5978L17.8466 10.5758L19.1949 9.02417Z" fill="#CAE2BC"/>
</svg>
