<svg width="21" height="16" viewBox="0 0 21 16" fill="none" xmlns="http://www.w3.org/2000/svg">
<path d="M12.0083 9.21208C11.7108 9.51023 11.3316 9.71341 10.9186 9.79592C10.5055 9.87843 10.0773 9.83655 9.6881 9.67558C9.29889 9.51461 8.96619 9.2418 8.73209 8.89166C8.498 8.54152 8.37305 8.1298 8.37305 7.70862C8.37305 7.28743 8.498 6.87572 8.73209 6.52558C8.96619 6.17544 9.29889 5.90263 9.6881 5.74166C10.0773 5.58069 10.5055 5.53881 10.9186 5.62132C11.3316 5.70383 11.7108 5.90701 12.0083 6.20516C12.4053 6.60485 12.6281 7.1453 12.6281 7.70862C12.6281 8.27193 12.4053 8.81239 12.0083 9.21208Z" fill="#4FA83D"/>
<path d="M14.9194 12.4334C14.719 12.4333 14.5232 12.3739 14.3567 12.2626C14.1902 12.1512 14.0604 11.993 13.9838 11.8079C13.9072 11.6228 13.8873 11.4191 13.9264 11.2227C13.9656 11.0262 14.0622 10.8458 14.204 10.7043C14.5981 10.3112 14.9107 9.84427 15.1241 9.33019C15.3374 8.8161 15.4472 8.26498 15.4472 7.70838C15.4472 7.15179 15.3374 6.60066 15.1241 6.08658C14.9107 5.5725 14.5981 5.10556 14.204 4.71252C14.1077 4.61909 14.0309 4.50746 13.9781 4.38411C13.9253 4.26076 13.8976 4.12815 13.8965 3.99399C13.8954 3.85983 13.921 3.72679 13.9718 3.6026C14.0225 3.47841 14.0975 3.36554 14.1922 3.27056C14.287 3.17558 14.3997 3.10038 14.5238 3.04932C14.6478 2.99827 14.7808 2.97238 14.915 2.97316C15.0491 2.97394 15.1818 3.00137 15.3053 3.05387C15.4287 3.10636 15.5406 3.18287 15.6342 3.27894C16.2169 3.86006 16.6792 4.55044 16.9946 5.31052C17.3101 6.0706 17.4724 6.88545 17.4724 7.70838C17.4724 8.53132 17.3101 9.34616 16.9946 10.1062C16.6792 10.8663 16.2169 11.5567 15.6342 12.1378C15.5404 12.2317 15.4289 12.3061 15.3062 12.3568C15.1836 12.4076 15.0521 12.4336 14.9194 12.4334Z" fill="#CAE2BC"/>
<path d="M17.208 15.4128C17.0077 15.4128 16.8119 15.3533 16.6453 15.242C16.4788 15.1307 16.349 14.9724 16.2725 14.7873C16.1959 14.6022 16.1759 14.3986 16.2151 14.2021C16.2543 14.0057 16.3509 13.8252 16.4926 13.6837C17.2791 12.8996 17.903 11.9681 18.3288 10.9424C18.7545 9.91672 18.9737 8.81712 18.9737 7.7066C18.9737 6.59607 18.7545 5.49647 18.3288 4.4708C17.903 3.44513 17.2791 2.51357 16.4926 1.7295C16.3025 1.53976 16.1956 1.28228 16.1953 1.01369C16.1951 0.745102 16.3015 0.487412 16.4912 0.297308C16.681 0.107204 16.9385 0.000259477 17.207 4.71546e-07C17.4756 -0.000258534 17.7333 0.106189 17.9234 0.295927C18.8983 1.26819 19.6717 2.42322 20.1994 3.69487C20.7271 4.96652 20.9988 6.3298 20.9988 7.7066C20.9988 9.0834 20.7271 10.4467 20.1994 11.7183C19.6717 12.99 18.8983 14.145 17.9234 15.1173C17.8295 15.2112 17.718 15.2856 17.5952 15.3364C17.4724 15.3871 17.3408 15.4131 17.208 15.4128Z" fill="#CAE2BC"/>
<path d="M6.08097 12.4301C5.9481 12.4302 5.81652 12.4042 5.69376 12.3533C5.57099 12.3025 5.45947 12.228 5.36556 12.134C4.78288 11.5529 4.32058 10.8625 4.00515 10.1024C3.68971 9.34235 3.52734 8.5275 3.52734 7.70456C3.52734 6.88163 3.68971 6.06678 4.00515 5.3067C4.32058 4.54662 4.78288 3.85624 5.36556 3.27512C5.55655 3.08981 5.81282 2.98713 6.07893 2.98929C6.34504 2.99145 6.5996 3.09828 6.78755 3.28668C6.97551 3.47507 7.08175 3.72988 7.0833 3.99599C7.08484 4.26211 6.98157 4.51813 6.79582 4.7087C6.40172 5.10174 6.08904 5.56868 5.8757 6.08276C5.66235 6.59684 5.55254 7.14797 5.55254 7.70456C5.55254 8.26116 5.66235 8.81228 5.8757 9.32637C6.08904 9.84045 6.40172 10.3074 6.79582 10.7004C6.93756 10.842 7.03414 11.0224 7.07332 11.2189C7.11251 11.4153 7.09255 11.619 7.01597 11.8041C6.93938 11.9892 6.80961 12.1474 6.64308 12.2587C6.47655 12.3701 6.28073 12.4295 6.08041 12.4296L6.08097 12.4301Z" fill="#CAE2BC"/>
<path d="M3.79073 15.4141C3.65786 15.4142 3.52626 15.3882 3.40349 15.3374C3.28072 15.2866 3.16919 15.212 3.07533 15.1179C2.1005 14.1457 1.32707 12.9906 0.799355 11.719C0.271638 10.4473 0 9.08407 0 7.70728C0 6.33048 0.271638 4.9672 0.799355 3.69555C1.32707 2.4239 2.1005 1.26887 3.07533 0.296606C3.26632 0.111293 3.52258 0.00861335 3.78869 0.0107757C4.0548 0.012938 4.30937 0.119768 4.49732 0.30816C4.68528 0.496552 4.79152 0.751362 4.79307 1.01748C4.79461 1.28359 4.69134 1.53962 4.50558 1.73018C3.71921 2.51429 3.09528 3.44586 2.66957 4.47152C2.24386 5.49719 2.02473 6.59677 2.02473 7.70728C2.02473 8.81778 2.24386 9.91736 2.66957 10.943C3.09528 11.9687 3.71921 12.9003 4.50558 13.6844C4.64733 13.8259 4.74391 14.0063 4.78309 14.2028C4.82228 14.3992 4.80232 14.6029 4.72573 14.788C4.64915 14.9731 4.51938 15.1313 4.35285 15.2427C4.18631 15.354 3.9905 15.4135 3.79018 15.4135L3.79073 15.4141Z" fill="#CAE2BC"/>
</svg>
