<svg width="24" height="18" viewBox="0 0 24 18" fill="none" xmlns="http://www.w3.org/2000/svg">
<rect x="2.08008" y="4.57764" width="10.7167" height="6.45081" fill="#4FA83D"/>
<rect x="14.1504" y="4.57764" width="7.8034" height="0.832362" fill="#4FA83D"/>
<rect x="14.1504" y="6.34668" width="7.8034" height="0.832362" fill="#4FA83D"/>
<rect x="14.1504" y="8.11572" width="7.8034" height="0.832362" fill="#4FA83D"/>
<rect x="14.1504" y="9.88379" width="7.8034" height="0.832362" fill="#4FA83D"/>
<rect x="0.726562" y="0.52002" width="22.1616" height="1.97686" fill="#CAE2BC"/>
<path d="M0.726562 2.70508H23.2003" stroke="#4FA83D" stroke-width="0.520226"/>
<path d="M16.4395 1.66467H18.0001" stroke="#4FA83D" stroke-width="0.520226"/>
<path d="M18.416 1.66467H19.9767" stroke="#4FA83D" stroke-width="0.520226"/>
<path d="M20.3926 1.66455H21.9533" stroke="#4FA83D" stroke-width="0.520226"/>
<path fill-rule="evenodd" clip-rule="evenodd" d="M1.66261 0.520226H22.1595C22.5618 0.520226 22.8878 0.846304 22.8878 1.24854V12.9016C22.8878 13.3039 22.5618 13.6299 22.1595 13.6299H13.2186V14.1502H22.1595C22.8491 14.1502 23.4081 13.5912 23.4081 12.9016V1.24854C23.4081 0.558992 22.8491 0 22.1595 0H1.66261C0.973054 0 0.414062 0.558993 0.414062 1.24854V6.36313H0.934289V1.24854C0.934289 0.846306 1.26037 0.520226 1.66261 0.520226Z" fill="#4FA83D"/>
<circle cx="5.9826" cy="12.0169" r="5.72249" fill="#CAE2BC" stroke="#4FA83D" stroke-width="0.520226"/>
<path fill-rule="evenodd" clip-rule="evenodd" d="M8.51072 14.9823C9.33731 14.2782 9.86157 13.2297 9.86157 12.0588C9.86157 9.9388 8.14295 8.22018 6.02293 8.22018C3.90291 8.22018 2.18429 9.9388 2.18429 12.0588C2.18429 13.2297 2.70855 14.2782 3.53514 14.9823H2.78976C2.09016 14.2091 1.66406 13.1837 1.66406 12.0588C1.66406 9.65148 3.61559 7.69995 6.02293 7.69995C8.43027 7.69995 10.3818 9.65148 10.3818 12.0588C10.3818 13.1837 9.9557 14.2091 9.2561 14.9823H8.51072Z" fill="#4FA83D"/>
<path fill-rule="evenodd" clip-rule="evenodd" d="M8.50386 13.9068L8.28216 14.1675L6.35887 13.0157L6.38712 12.9825C5.9894 13.1676 5.50322 13.1176 5.14714 12.8148C4.65982 12.4004 4.60073 11.6694 5.01515 11.182C5.42958 10.6947 6.16059 10.6356 6.64791 11.0501C7.00399 11.3529 7.13143 11.8247 7.01258 12.247L7.04103 12.2135L8.50386 13.9068Z" fill="#4FA83D"/>
<path fill-rule="evenodd" clip-rule="evenodd" d="M2.75097 12.807L3.23611 12.5409C3.18247 12.1055 3.23269 11.6666 3.37646 11.2597L3.05959 10.6819C2.72938 11.3298 2.6149 12.0779 2.75097 12.807ZM8.78322 12.7293L9.22826 13.1042C9.44296 12.3465 9.39065 11.5128 9.02667 10.756L8.65207 11.2007C8.84207 11.7001 8.88014 12.229 8.78322 12.7293ZM4.80234 9.09932C5.5836 8.7898 6.42911 8.79673 7.17901 9.07349L6.8183 9.50171C6.25242 9.33511 5.63447 9.34567 5.05482 9.55975L4.80234 9.09932Z" fill="#4FA83D"/>
</svg>
