<svg width="23" height="18" viewBox="0 0 23 18" fill="none" xmlns="http://www.w3.org/2000/svg">
<path fill-rule="evenodd" clip-rule="evenodd" d="M13.506 8.04272H0.719346C0.613306 8.04272 0.527344 8.12869 0.527344 8.23473V14.8717C0.527344 14.9778 0.613308 15.0637 0.719348 15.0637H11.9713C11.6418 14.3124 11.4589 13.4822 11.4589 12.6092C11.4589 10.7937 12.2499 9.16294 13.506 8.04272Z" fill="#CAE2BC"/>
<path fill-rule="evenodd" clip-rule="evenodd" d="M0.719346 0.0429688C0.613306 0.0429688 0.527344 0.128931 0.527344 0.234971V6.87197C0.527344 6.97801 0.613308 7.06397 0.719348 7.06397H15.0627C15.8477 6.69755 16.7234 6.4929 17.6468 6.4929C18.5703 6.4929 19.446 6.69755 20.231 7.06397H21.3984C21.5044 7.06397 21.5904 6.97801 21.5904 6.87197V0.234971C21.5904 0.128931 21.5044 0.0429688 21.3984 0.0429688H0.719346Z" fill="#CAE2BC"/>
<circle cx="17.6718" cy="12.5914" r="5.20695" fill="#4FA83D"/>
<circle cx="13.9834" cy="3.26467" r="0.79201" fill="#4FA83D"/>
<circle cx="15.999" cy="3.26467" r="0.79201" fill="#4FA83D"/>
<circle cx="18.0166" cy="3.26467" r="0.79201" fill="#4FA83D"/>
<rect x="3.31055" y="1.21362" width="0.835834" height="4.68067" rx="0.417917" fill="#4FA83D"/>
<rect x="4.88867" y="1.21387" width="0.835834" height="4.68067" rx="0.417917" fill="#4FA83D"/>
<rect x="6.4668" y="1.21387" width="0.835834" height="4.68067" rx="0.417917" fill="#4FA83D"/>
<rect x="3.31055" y="9.21326" width="0.835834" height="4.68067" rx="0.417917" fill="#4FA83D"/>
<rect x="4.88867" y="9.21313" width="0.835834" height="4.68067" rx="0.417917" fill="#4FA83D"/>
<rect x="6.4668" y="9.21313" width="0.835834" height="4.68067" rx="0.417917" fill="#4FA83D"/>
<path d="M17.2558 15.6977V9.14805H17.6754V15.6977H17.2558ZM18.5683 11.1795C18.541 10.9373 18.4284 10.7496 18.2306 10.6166C18.0327 10.4819 17.7837 10.4145 17.4835 10.4145C17.2686 10.4145 17.0827 10.4486 16.9258 10.5168C16.7688 10.5833 16.6469 10.6754 16.5599 10.7931C16.4746 10.9091 16.432 11.0413 16.432 11.1897C16.432 11.3142 16.461 11.4217 16.519 11.5121C16.5787 11.6025 16.6563 11.6784 16.7518 11.7398C16.849 11.7995 16.9531 11.8498 17.0639 11.8907C17.1748 11.9299 17.2814 11.9623 17.3837 11.9879L17.8954 12.121C18.0626 12.1619 18.234 12.2173 18.4097 12.2873C18.5853 12.3572 18.7482 12.4493 18.8983 12.5636C19.0484 12.6779 19.1695 12.8194 19.2616 12.9883C19.3554 13.1571 19.4023 13.3593 19.4023 13.5946C19.4023 13.8914 19.3256 14.1549 19.1721 14.3852C19.0203 14.6155 18.7994 14.7971 18.5094 14.9302C18.2212 15.0632 17.8724 15.1297 17.463 15.1297C17.0707 15.1297 16.7313 15.0675 16.4448 14.9429C16.1582 14.8184 15.9339 14.6419 15.7719 14.4133C15.6099 14.1831 15.5203 13.9102 15.5033 13.5946H16.2964C16.3117 13.784 16.3731 13.9417 16.4806 14.068C16.5898 14.1925 16.7288 14.2854 16.8976 14.3468C17.0682 14.4065 17.255 14.4364 17.4579 14.4364C17.6814 14.4364 17.8801 14.4014 18.054 14.3315C18.2297 14.2598 18.3679 14.1609 18.4685 14.0347C18.5691 13.9068 18.6195 13.7575 18.6195 13.587C18.6195 13.4318 18.5751 13.3047 18.4864 13.2058C18.3994 13.1068 18.2809 13.025 18.1308 12.9601C17.9824 12.8953 17.8144 12.8382 17.6268 12.7887L17.0076 12.6199C16.588 12.5056 16.2554 12.3376 16.0098 12.1159C15.7659 11.8941 15.644 11.6008 15.644 11.2357C15.644 10.9338 15.7258 10.6703 15.8896 10.4452C16.0533 10.22 16.2751 10.0452 16.5548 9.9207C16.8345 9.79448 17.1501 9.73137 17.5014 9.73137C17.8562 9.73137 18.1692 9.79363 18.4404 9.91814C18.7133 10.0427 18.9282 10.2141 19.0851 10.4324C19.242 10.649 19.3239 10.898 19.3307 11.1795H18.5683Z" fill="#CAE2BC"/>
</svg>
