<svg width="24" height="23" viewBox="0 0 24 23" fill="none" xmlns="http://www.w3.org/2000/svg">
<path d="M16.8742 7.60705C17.0064 7.47914 17.0976 7.31477 17.1362 7.13485C17.1747 6.95494 17.1588 6.76762 17.0906 6.59675C17.0223 6.42588 16.9048 6.27919 16.7528 6.17536C16.6009 6.07153 16.4216 6.01526 16.2376 6.01371C16.0536 6.01215 15.8733 6.06538 15.7197 6.16662C15.566 6.26787 15.446 6.41254 15.3749 6.58223C15.3037 6.75192 15.2846 6.93894 15.3201 7.11949C15.3556 7.30003 15.444 7.46593 15.5741 7.59606C15.7461 7.76805 15.9787 7.86558 16.2219 7.86763C16.4651 7.86969 16.6993 7.77611 16.8742 7.60705Z" fill="#4FA83D"/>
<path d="M21.1363 2.03601C20.4919 1.38917 19.7258 0.876252 18.8823 0.526818C18.0387 0.177384 17.1344 -0.00165726 16.2213 1.15594e-05C16.0984 1.15612e-05 15.9805 0.0488445 15.8936 0.135768C15.8067 0.222691 15.7578 0.340584 15.7578 0.463512C15.7578 0.586439 15.8067 0.704332 15.8936 0.791256C15.9805 0.878179 16.0984 0.927012 16.2213 0.927012C17.8192 0.927012 19.3517 1.56179 20.4816 2.69169C21.6115 3.8216 22.2463 5.35408 22.2463 6.95201C22.2463 7.07494 22.2952 7.19283 22.3821 7.27976C22.469 7.36668 22.5869 7.41551 22.7098 7.41551C22.8328 7.41551 22.9506 7.36668 23.0376 7.27976C23.1245 7.19283 23.1733 7.07494 23.1733 6.95201C23.1748 6.03898 22.9957 5.13466 22.6463 4.29113C22.2969 3.44761 21.784 2.68153 21.1373 2.03701L21.1363 2.03601Z" fill="#4FA83D"/>
<path d="M16.2194 2.78105C16.7672 2.78079 17.3097 2.88849 17.8159 3.09801C18.3221 3.30753 18.782 3.61476 19.1693 4.00212C19.5567 4.38949 19.8639 4.8494 20.0735 5.35557C20.283 5.86174 20.3907 6.40423 20.3904 6.95205C20.3904 7.07498 20.4392 7.19287 20.5262 7.27979C20.6131 7.36672 20.731 7.41555 20.8539 7.41555C20.9768 7.41555 21.0947 7.36672 21.1816 7.27979C21.2686 7.19287 21.3174 7.07498 21.3174 6.95205C21.3174 5.59945 20.7801 4.30224 19.8236 3.34581C18.8672 2.38937 17.57 1.85205 16.2174 1.85205C16.0945 1.85205 15.9766 1.90088 15.8897 1.98781C15.8028 2.07473 15.7539 2.19262 15.7539 2.31555C15.7539 2.43848 15.8028 2.55637 15.8897 2.6433C15.9766 2.73022 16.0945 2.77905 16.2174 2.77905L16.2194 2.78105Z" fill="#4FA83D"/>
<path d="M16.2223 4.63403H16.2343C16.8463 4.63721 17.432 4.88288 17.8632 5.3172C18.2943 5.75152 18.5356 6.33906 18.5343 6.95103C18.5343 7.07396 18.5831 7.19185 18.67 7.27878C18.757 7.3657 18.8749 7.41453 18.9978 7.41453C19.1207 7.41453 19.2386 7.3657 19.3255 7.27878C19.4125 7.19185 19.4613 7.07396 19.4613 6.95103C19.4624 6.09346 19.1234 5.27044 18.5187 4.66236C17.914 4.05428 17.0929 3.71074 16.2353 3.70703H16.2213C16.0984 3.70703 15.9805 3.75587 15.8936 3.84279C15.8066 3.92971 15.7578 4.0476 15.7578 4.17053C15.7578 4.29346 15.8066 4.41135 15.8936 4.49828C15.9805 4.5852 16.0994 4.63403 16.2223 4.63403Z" fill="#4FA83D"/>
<path d="M16.666 22.245C17.8846 20.6477 18.5423 18.6931 18.537 16.684C18.537 14.2259 17.5605 11.8684 15.8224 10.1302C14.0842 8.39202 11.7267 7.41553 9.26853 7.41553C6.81037 7.41553 4.45289 8.39202 2.71471 10.1302C0.97653 11.8684 3.10589e-05 14.2259 3.10589e-05 16.684C-0.00520781 18.6931 0.652439 20.6477 1.87103 22.245H16.666ZM9.26603 12.045C10.1825 12.045 11.0785 12.3168 11.8405 12.826C12.6026 13.3352 13.1966 14.0589 13.5473 14.9057C13.898 15.7524 13.9898 16.6842 13.811 17.5831C13.6322 18.482 13.1908 19.3077 12.5428 19.9557C11.8947 20.6038 11.069 21.0452 10.1701 21.224C9.27117 21.4028 8.33943 21.311 7.49268 20.9603C6.64592 20.6095 5.92219 20.0156 5.413 19.2535C4.90381 18.4915 4.63203 17.5955 4.63203 16.679C4.63309 15.4502 5.12219 14.2721 5.99177 13.4038C6.86135 12.5355 8.04019 12.0482 9.26903 12.049L9.26603 12.045Z" fill="#CAE2BC"/>
<path d="M9.26755 20.391C10.0007 20.391 10.7173 20.1737 11.3269 19.7664C11.9365 19.3591 12.4117 18.7802 12.6923 18.1029C12.9729 17.4256 13.0464 16.6803 12.9034 15.9612C12.7604 15.2422 12.4075 14.5816 11.8891 14.0632C11.3708 13.5447 10.7104 13.1916 9.99136 13.0484C9.27234 12.9053 8.52701 12.9785 7.84962 13.2589C7.17224 13.5394 6.59323 14.0143 6.18578 14.6238C5.77833 15.2333 5.56074 15.9499 5.56055 16.683C5.56042 17.1699 5.6562 17.6521 5.84244 18.102C6.02867 18.5518 6.30171 18.9606 6.64595 19.3049C6.99019 19.6493 7.39889 19.9224 7.84871 20.1088C8.29853 20.2951 8.78065 20.391 9.26755 20.391ZM9.26755 13.903C9.81758 13.903 10.3553 14.0661 10.8126 14.3717C11.2699 14.6773 11.6264 15.1116 11.8369 15.6198C12.0473 16.128 12.1024 16.6871 11.9951 17.2266C11.8878 17.7661 11.6229 18.2616 11.234 18.6505C10.8451 19.0394 10.3496 19.3043 9.81009 19.4116C9.27063 19.5189 8.71147 19.4638 8.20331 19.2534C7.69515 19.0429 7.26081 18.6864 6.95523 18.2291C6.64965 17.7717 6.48654 17.2341 6.48654 16.684C6.48654 15.9465 6.77955 15.2391 7.30109 14.7176C7.82263 14.196 8.52998 13.903 9.26755 13.903Z" fill="#4FA83D"/>
<path d="M11.1221 16.683C11.1221 17.0497 11.0133 17.4082 10.8095 17.7131C10.6058 18.018 10.3162 18.2556 9.97734 18.3959C9.6385 18.5362 9.26567 18.5729 8.906 18.5013C8.54633 18.4297 8.21598 18.253 7.95674 17.9936C7.69749 17.7342 7.52099 17.4038 7.44957 17.0441C7.37814 16.6844 7.415 16.3115 7.55548 15.9728C7.69596 15.634 7.93375 15.3446 8.23877 15.141C8.54379 14.9374 8.90234 14.8288 9.26907 14.829C9.76061 14.8292 10.2319 15.0247 10.5794 15.3723C10.9269 15.72 11.1221 16.1914 11.1221 16.683Z" fill="#4FA83D"/>
</svg>
