<svg width="23" height="23" viewBox="0 0 23 23" fill="none" xmlns="http://www.w3.org/2000/svg">
<path d="M15.015 11.928L13.826 13.115L13.326 12.615L16.152 9.78C16.2568 9.64737 16.3057 9.47902 16.2881 9.31087C16.2706 9.14273 16.188 8.98811 16.058 8.88L14.123 6.944C14.0149 6.8141 13.8604 6.73149 13.6923 6.71375C13.5242 6.69601 13.3559 6.74453 13.223 6.849L10.39 9.68L9.884 9.174L11.071 7.986L3.086 0L0 3.083L7.987 11.071L9.177 9.883L9.683 10.389L8.825 11.248C8.71992 11.3805 8.67092 11.5489 8.68849 11.7172C8.70606 11.8854 8.7888 12.04 8.919 12.148L9.583 12.811L8.42 13.976L7.9 13.456C7.87088 13.4772 7.84284 13.4999 7.816 13.524C7.5956 13.7444 7.47179 14.0433 7.47179 14.355C7.47179 14.6667 7.5956 14.9656 7.816 15.186C8.0364 15.4064 8.33531 15.5302 8.647 15.5302C8.95869 15.5302 9.2576 15.4064 9.478 15.186C9.50216 15.1595 9.52454 15.1314 9.545 15.102L9.026 14.583L10.188 13.421L10.851 14.085C10.9595 14.2143 11.1141 14.2964 11.282 14.3139C11.4499 14.3315 11.6181 14.2831 11.751 14.179L12.61 13.32L13.11 13.82L11.93 15.013L19.917 23L23 19.917L15.015 11.928Z" fill="#CAE2BC"/>
<path d="M5.1432 10.8531C4.67593 11.311 4.30407 11.857 4.04912 12.4595C3.79418 13.0621 3.66121 13.7092 3.65791 14.3634C3.6546 15.0177 3.78103 15.6661 4.02987 16.2712C4.27872 16.8762 4.64504 17.426 5.10767 17.8886C5.57029 18.3512 6.12004 18.7176 6.72512 18.9664C7.33019 19.2152 7.9786 19.3417 8.63284 19.3384C9.28709 19.3351 9.93418 19.2021 10.5367 18.9471C11.1393 18.6922 11.6853 18.3203 12.1432 17.8531C12.1679 17.8276 12.1912 17.8009 12.2132 17.7731L12.5422 18.1041C12.5192 18.1301 12.4982 18.1571 12.4722 18.1861C11.4515 19.1793 10.0808 19.7306 8.65661 19.7208C7.23247 19.711 5.86945 19.1409 4.86247 18.1338C3.85549 17.1267 3.28554 15.7636 3.27594 14.3395C3.26635 12.9153 3.81788 11.5447 4.8112 10.5241C4.8372 10.4981 4.8652 10.4781 4.8912 10.4541L5.2212 10.7841C5.1972 10.8081 5.1702 10.8271 5.1432 10.8531ZM13.5792 19.2881C12.9351 19.9534 12.1651 20.4839 11.314 20.8487C10.4628 21.2135 9.54762 21.4053 8.62163 21.4128C7.69565 21.4204 6.77742 21.2436 5.92045 20.8927C5.06348 20.5419 4.2849 20.024 3.63007 19.3692C2.97525 18.7144 2.45727 17.9359 2.10633 17.079C1.75539 16.222 1.57849 15.3038 1.58595 14.3778C1.5934 13.4519 1.78507 12.5366 2.14977 11.6854C2.51447 10.8343 3.04491 10.0642 3.7102 9.42007C3.7352 9.39507 3.7622 9.37307 3.7882 9.34807L3.4582 9.01807C3.4332 9.04307 3.4062 9.06507 3.3802 9.09007C1.98383 10.4863 1.19931 12.38 1.19922 14.3547C1.19912 16.3294 1.98347 18.2232 3.3797 19.6196C4.77593 21.0159 6.66968 21.8005 8.64435 21.8005C10.619 21.8006 12.5128 21.0163 13.9092 19.6201L13.9822 19.5431L13.6522 19.2121C13.6262 19.2351 13.6032 19.2631 13.5792 19.2881ZM6.8522 12.4111L6.5202 12.0801C6.4942 12.1031 6.4672 12.1241 6.4402 12.1501C5.85526 12.7351 5.5267 13.5286 5.5268 14.3559C5.52689 15.1832 5.85563 15.9766 6.4407 16.5616C7.02577 17.1465 7.81924 17.4751 8.64655 17.475C9.47387 17.4749 10.2673 17.1461 10.8522 16.5611C10.8772 16.5371 10.8972 16.5091 10.9212 16.4811L10.5902 16.1501C10.5662 16.1771 10.5452 16.2041 10.5202 16.2321C10.0201 16.7147 9.35049 16.9817 8.65551 16.9755C7.96052 16.9693 7.29577 16.6904 6.80439 16.1989C6.31301 15.7074 6.0343 15.0425 6.02828 14.3476C6.02226 13.6526 6.28941 12.983 6.7722 12.4831C6.79627 12.4563 6.82308 12.4322 6.8522 12.4111Z" fill="#4FA83D"/>
</svg>
