<svg width="24" height="16" viewBox="0 0 24 16" fill="none" xmlns="http://www.w3.org/2000/svg">
<rect x="18.2715" y="9.12891" width="5.4745" height="4.56208" rx="2.28104" fill="#CAE2BC"/>
<rect x="10.9707" y="9.12891" width="3.64966" height="4.56208" rx="0.912416" fill="#CAE2BC"/>
<rect x="14.6211" y="8.21692" width="4.56208" height="1.82483" rx="0.912416" fill="#CAE2BC"/>
<path fill-rule="evenodd" clip-rule="evenodd" d="M0.933594 6.54314C0.933594 6.46046 1.00062 6.39343 1.0833 6.39343H17.2074C17.2901 6.39343 17.3571 6.46046 17.3571 6.54314V7.36961H12.6959V7.3726C10.736 7.45242 9.17081 9.12263 9.17081 11.1713C9.17081 11.4093 9.19193 11.6421 9.23232 11.8679H1.0833C1.00062 11.8679 0.933594 11.8009 0.933594 11.7182V6.54314Z" fill="#CAE2BC"/>
<path fill-rule="evenodd" clip-rule="evenodd" d="M13.2147 15.022V15.0247C14.8303 15.0247 15.2666 14.1755 15.652 13.4256C15.9567 12.8326 16.2295 12.3016 17.0284 12.3016C17.8274 12.3016 18.1003 12.8322 18.405 13.425C18.7903 14.1744 19.2267 15.0232 20.8421 15.0247V15.022C22.5517 15.022 23.9983 13.4551 23.9983 11.6208C23.9983 9.78649 22.5969 8.29106 20.8421 8.21959V8.21692H13.2147V8.21959C11.46 8.29106 10.0586 9.78649 10.0586 11.6208C10.0586 13.4551 11.46 14.9505 13.2147 15.022ZM12.9517 10.1231C12.8272 10.1231 12.7263 10.2276 12.7263 10.3565V11.5235H11.5991C11.4746 11.5235 11.3737 11.628 11.3737 11.757C11.3737 11.8859 11.4746 11.9904 11.5991 11.9904H12.7263V13.1574C12.7263 13.2863 12.8272 13.3908 12.9517 13.3908C13.0762 13.3908 13.1772 13.2863 13.1772 13.1574V11.9904H14.3044C14.4289 11.9904 14.5298 11.8859 14.5298 11.757C14.5298 11.628 14.4289 11.5235 14.3044 11.5235H13.1772V10.3565C13.1772 10.2276 13.0762 10.1231 12.9517 10.1231ZM20.9736 10.94C21.3368 10.94 21.6312 10.6352 21.6312 10.2592C21.6312 9.88326 21.3368 9.57847 20.9736 9.57847C20.6105 9.57847 20.3161 9.88326 20.3161 10.2592C20.3161 10.6352 20.6105 10.94 20.9736 10.94ZM21.6312 12.9823C21.6312 13.3583 21.3368 13.6631 20.9736 13.6631C20.6105 13.6631 20.3161 13.3583 20.3161 12.9823C20.3161 12.6064 20.6105 12.3016 20.9736 12.3016C21.3368 12.3016 21.6312 12.6064 21.6312 12.9823ZM19.6586 12.3016C20.0217 12.3016 20.3161 11.9968 20.3161 11.6208C20.3161 11.2448 20.0217 10.94 19.6586 10.94C19.2954 10.94 19.001 11.2448 19.001 11.6208C19.001 11.9968 19.2954 12.3016 19.6586 12.3016ZM22.9462 11.6208C22.9462 11.9968 22.6518 12.3016 22.2887 12.3016C21.9256 12.3016 21.6312 11.9968 21.6312 11.6208C21.6312 11.2448 21.9256 10.94 22.2887 10.94C22.6518 10.94 22.9462 11.2448 22.9462 11.6208ZM15.8449 9.03385C15.6996 9.03385 15.5819 9.15577 15.5819 9.30616C15.5819 9.45655 15.6996 9.57847 15.8449 9.57847H18.475C18.6203 9.57847 18.738 9.45655 18.738 9.30616C18.738 9.15577 18.6203 9.03385 18.475 9.03385H15.8449Z" fill="#4FA83D"/>
<rect x="0.933594" y="0.00476074" width="16.4235" height="5.4745" rx="0.14971" fill="#CAE2BC"/>
<circle cx="11.0804" cy="2.51782" r="0.617555" fill="#4FA83D"/>
<circle cx="12.6547" cy="2.51782" r="0.617555" fill="#4FA83D"/>
<circle cx="14.2269" cy="2.51782" r="0.617555" fill="#4FA83D"/>
<rect x="2.75977" y="0.918823" width="0.651726" height="3.64966" rx="0.325863" fill="#4FA83D"/>
<rect x="3.99023" y="0.918701" width="0.651726" height="3.64966" rx="0.325863" fill="#4FA83D"/>
<rect x="5.2207" y="0.918701" width="0.651726" height="3.64966" rx="0.325863" fill="#4FA83D"/>
<rect x="2.75977" y="7.30286" width="0.651726" height="3.64966" rx="0.325863" fill="#4FA83D"/>
<rect x="3.99023" y="7.30298" width="0.651726" height="3.64966" rx="0.325863" fill="#4FA83D"/>
<rect x="5.2207" y="7.30298" width="0.651726" height="3.64966" rx="0.325863" fill="#4FA83D"/>
</svg>
