<svg xmlns="http://www.w3.org/2000/svg" width="90" height="82" viewBox="0 0 90 82"><g id="Multi-Device_Insights" data-name="Multi-Device Insights" transform="translate(-1125 -2288)"><rect id="Rectangle_7819" data-name="Rectangle 7819" width="90" height="82" rx="15" transform="translate(1125 2288)" fill="#1b1f1a"></rect><g id="Group_44451" data-name="Group 44451" transform="translate(-679.051 -4435.093)"><path id="Icon_material-important-devices" data-name="Icon material-important-devices" d="M33.933,3H3.393A3.382,3.382,0,0,0,0,6.393v20.36a3.392,3.392,0,0,0,3.393,3.393H15.27V33.54H11.877v3.393H25.45V33.54H22.057V30.146H25.45V26.753H3.393V6.393h30.54v8.483h3.393V6.393A3.392,3.392,0,0,0,33.933,3ZM20.309,14.877l-1.646-5.09-1.646,5.09H11.877l4.191,2.986L14.472,22.8l4.191-3.054L22.854,22.8l-1.595-4.937,4.191-2.986Z" transform="translate(1829.051 6744.093)" fill="#cae2bc"></path><path id="Icon_material-important-devices-2" data-name="Icon material-important-devices" d="M35.68,16.517,27.2,16.5a1.7,1.7,0,0,0-1.7,1.7v15.27a1.7,1.7,0,0,0,1.7,1.7H35.68a1.7,1.7,0,0,0,1.7-1.7V18.2A1.687,1.687,0,0,0,35.68,16.517Zm0,15.253H27.2V19.893H35.68Z" transform="translate(1832.394 6745.863)" fill="#4fa83d"></path><rect id="Rectangle_7834" data-name="Rectangle 7834" width="9.049" height="14.704" transform="translate(1859.533 6763.955)" fill="#4fa83d"></rect></g></g></svg>