<svg xmlns="http://www.w3.org/2000/svg" width="81" height="78" viewBox="0 0 81 78" fill="none"><path d="M46.5 54.375V56.5H38V48H40.125V54.375H46.5Z" fill="#4FA83D"></path><path d="M25.3478 58.127C24.9484 58.572 24.4629 58.9313 23.9206 59.1834C23.3784 59.4355 22.7907 59.575 22.193 59.5936C21.5953 59.6122 21.0001 59.5094 20.4432 59.2915C19.8864 59.0736 19.3795 58.7451 18.9531 58.3258C18.5081 57.9264 18.1488 57.4408 17.8967 56.8986C17.6446 56.3564 17.5051 55.7686 17.4865 55.171C17.4679 54.5733 17.5707 53.978 17.7886 53.4212C18.0065 52.8643 18.335 52.3574 18.7543 51.9311C19.1538 51.4861 19.6393 51.1267 20.1815 50.8747C20.7238 50.6226 21.3115 50.4831 21.9092 50.4645C22.5068 50.4459 23.1021 50.5487 23.6589 50.7666C24.2158 50.9845 24.7227 51.313 25.149 51.7323L26.698 50.0839C25.7199 49.1648 24.4913 48.5564 23.1675 48.3356C21.8436 48.1148 20.484 48.2915 19.2606 48.8434C18.0372 49.3953 17.005 50.2976 16.2944 51.4362C15.5838 52.5747 15.2267 53.8984 15.2684 55.2399C15.3102 56.5814 15.7487 57.8804 16.5287 58.9726C17.3086 60.0648 18.395 60.9012 19.6503 61.3761C20.9056 61.8509 22.2736 61.9428 23.5811 61.6402C24.8887 61.3376 26.0771 60.654 26.9962 59.676L25.3478 58.127Z" fill="#4FA83D"></path><path d="M28.2702 40.2249L23.0731 39.0038C22.5638 38.8836 22.0286 38.9438 21.5587 39.1742C21.0889 39.4046 20.7136 39.791 20.4969 40.2673L19.2909 42.9116C18.7333 43.0386 18.185 43.2037 17.65 43.4059L15.1827 41.8695C14.7389 41.5934 14.213 41.4795 13.6947 41.5473C13.1763 41.615 12.6975 41.8602 12.3395 42.2412L8.68389 46.1314C8.32584 46.5125 8.1109 47.0059 8.07562 47.5276C8.04035 48.0493 8.18693 48.5671 8.49042 48.993L10.1754 51.3585C10.0012 51.9076 9.8654 52.4682 9.76909 53.0362L7.21982 54.3964C6.75849 54.6425 6.39677 55.0409 6.19629 55.5238C5.99581 56.0067 5.96899 56.5441 6.12038 57.0446L7.66189 62.1558C7.81276 62.6564 8.13236 63.0892 8.56634 63.3807C9.00032 63.6722 9.52189 63.8044 10.0423 63.7548L12.9365 63.4776C13.1311 63.6868 13.3208 63.8977 13.531 64.0952C13.7436 64.295 13.9616 64.4843 14.184 64.6654L14.0882 67.5552C14.0706 68.0778 14.2345 68.5903 14.5522 69.0057C14.8698 69.421 15.3215 69.7135 15.8305 69.8333L21.0276 71.0544C21.5369 71.1746 22.0722 71.1144 22.542 70.884C23.0119 70.6536 23.3872 70.2672 23.6039 69.7909L24.8099 67.1466C25.3678 67.0202 25.9163 66.8553 26.4515 66.6531L28.9164 68.1887C29.3605 68.4653 29.8866 68.5794 30.4053 68.5116C30.924 68.4438 31.4032 68.1984 31.7613 67.817L33.5891 65.8719L31.9407 64.323L30.1129 66.268L26.6371 64.1038C25.5757 64.6307 24.4313 64.9703 23.2542 65.1075L21.5456 68.8515L16.3485 67.6305L16.485 63.5297C15.4883 62.8824 14.6137 62.0643 13.9015 61.1129L9.82667 61.502L8.28599 56.3916L11.8962 54.4655C11.9637 53.2768 12.2385 52.109 12.7083 51.0149L10.3323 47.6803L13.9879 43.7902L17.4636 45.9544C18.525 45.4275 19.6695 45.088 20.8465 44.9507L22.5552 41.2067L27.7522 42.4277L27.6061 46.6328L28.2702 47.5276L30.0125 42.503C30.0302 41.9804 29.8662 41.4679 29.5486 41.0525C29.2309 40.6372 28.7792 40.3447 28.2702 40.2249Z" fill="#4FA83D"></path><path d="M54.9599 58.3321C55.3871 58.7505 55.8947 59.078 56.452 59.2947C57.0093 59.5115 57.6048 59.613 58.2024 59.5932C58.8 59.5734 59.3875 59.4327 59.9292 59.1795C60.4709 58.9263 60.9557 58.5659 61.3542 58.1201C61.7727 57.6929 62.1001 57.1854 62.3169 56.6281C62.5337 56.0708 62.6352 55.4753 62.6154 54.8777C62.5956 54.28 62.4548 53.6926 62.2017 53.1509C61.9485 52.6092 61.5881 52.1244 61.1423 51.7258C60.7151 51.3074 60.2075 50.9799 59.6502 50.7632C59.0929 50.5464 58.4975 50.4449 57.8999 50.4647C57.3022 50.4845 56.7148 50.6252 56.1731 50.8784C55.6313 51.1316 55.1466 51.492 54.748 51.9378L53.0965 50.3922C54.0135 49.4122 55.2006 48.7262 56.5075 48.4209C57.8145 48.1156 59.1826 48.2048 60.4389 48.677C61.6952 49.1493 62.7832 49.9835 63.5654 51.0741C64.3476 52.1647 64.7888 53.4628 64.8333 54.8042C64.8778 56.1456 64.5235 57.47 63.8152 58.61C63.1069 59.75 62.0765 60.6544 60.8542 61.2088C59.632 61.7632 58.2727 61.9428 56.9485 61.7247C55.6242 61.5066 54.3943 60.9007 53.4143 59.9836L54.9599 58.3321Z" fill="#4FA83D"></path><path d="M50.8942 40.6545L56.0022 39.1025C56.5027 38.9498 57.0407 38.9755 57.5244 39.1753C58.0081 39.3751 58.4074 39.7366 58.6542 40.198L60.0274 42.7595C60.592 42.8504 61.1497 42.98 61.6966 43.1474L64.0602 41.456C64.4855 41.1519 65.0029 41.0045 65.5245 41.0389C66.0462 41.0732 66.5398 41.2872 66.9215 41.6444L70.8191 45.292C71.2009 45.6493 71.4471 46.1279 71.5158 46.6463C71.5844 47.1647 71.4714 47.6909 71.1958 48.1353L69.6661 50.6041C69.8752 51.1409 70.0467 51.6916 70.1792 52.2522L72.8106 53.4461C73.2867 53.662 73.6733 54.0364 73.9043 54.5054C74.1354 54.9745 74.1966 55.5091 74.0776 56.0182L72.8673 61.2178C72.7489 61.727 72.4577 62.1795 72.0433 62.4983C71.6289 62.817 71.1169 62.9824 70.5944 62.9663L67.6883 62.8754C67.5076 63.0966 67.3318 63.3193 67.1347 63.5298C66.9353 63.7429 66.73 63.9457 66.5196 64.1407L66.8006 67.0184C66.8518 67.5388 66.7211 68.0608 66.4308 68.4957C66.1404 68.9306 65.7084 69.2514 65.2082 69.4037L60.1001 70.9557C59.5996 71.1084 59.0616 71.0827 58.5779 70.8829C58.0942 70.6831 57.6949 70.3216 57.4481 69.8601L56.0749 67.2987C55.51 67.2083 54.952 67.0789 54.4049 66.9116L52.0437 68.6022C51.6183 68.9066 51.1006 69.0543 50.5786 69.0199C50.0566 68.9856 49.5626 68.7714 49.1808 68.4138L47.232 66.59L48.7776 64.9384L50.7264 66.7622L54.0562 64.3794C55.1492 64.8371 56.3131 65.1026 57.4965 65.164L59.4418 68.7906L64.5499 67.2387L64.1505 63.1551C65.1036 62.4452 65.9239 61.5726 66.5736 60.5774L70.665 60.7043L71.8746 55.5055L68.1482 53.8151C68.0046 52.6331 67.6554 51.4854 67.1164 50.4237L69.2735 46.9435L65.3759 43.2959L62.0461 45.6788C60.9531 45.2211 59.7892 44.9557 58.6058 44.8942L56.6605 41.2675L51.5524 42.8195L51.9681 47.0066L51.3628 47.9421L49.3017 43.0397C49.2505 42.5194 49.3812 41.9973 49.6716 41.5624C49.9619 41.1276 50.3939 40.8067 50.8942 40.6545Z" fill="#4FA83D"></path><circle cx="40" cy="54" r="14" stroke="#4FA83D" stroke-width="2"></circle><path d="M40.7071 0.292895C40.3166 -0.0976272 39.6834 -0.0976272 39.2929 0.292895L32.9289 6.65685C32.5384 7.04738 32.5384 7.68055 32.9289 8.07107C33.3195 8.46159 33.9526 8.46159 34.3431 8.07107L40 2.41422L45.6569 8.07107C46.0474 8.46159 46.6805 8.46159 47.0711 8.07107C47.4616 7.68055 47.4616 7.04738 47.0711 6.65685L40.7071 0.292895ZM41 39V1H39V39H41Z" fill="#4FA83D"></path><path d="M26.7071 15.2929C26.3166 14.9024 25.6834 14.9024 25.2929 15.2929L18.9289 21.6569C18.5384 22.0474 18.5384 22.6805 18.9289 23.0711C19.3195 23.4616 19.9526 23.4616 20.3431 23.0711L26 17.4142L31.6569 23.0711C32.0474 23.4616 32.6805 23.4616 33.0711 23.0711C33.4616 22.6805 33.4616 22.0474 33.0711 21.6569L26.7071 15.2929ZM27 41L27 16L25 16L25 41L27 41Z" fill="#4FA83D"></path><path d="M53.7071 15.2929C53.3166 14.9024 52.6834 14.9024 52.2929 15.2929L45.9289 21.6569C45.5384 22.0474 45.5384 22.6805 45.9289 23.0711C46.3195 23.4616 46.9526 23.4616 47.3431 23.0711L53 17.4142L58.6569 23.0711C59.0474 23.4616 59.6805 23.4616 60.0711 23.0711C60.4616 22.6805 60.4616 22.0474 60.0711 21.6569L53.7071 15.2929ZM54 41L54 16L52 16L52 41L54 41Z" fill="#4FA83D"></path></svg>