<svg xmlns="http://www.w3.org/2000/svg" width="117" height="71" viewBox="0 0 117 71" fill="none"><path d="M74.6752 18.23C74.7354 18.5386 75.0061 18.6449 75.6746 18.9158C76.8711 19.4027 78.071 19.8896 79.2509 20.4211C79.438 20.5034 79.6219 20.8017 79.6453 21.0177C79.7823 22.3035 79.8425 23.5996 79.9929 24.8854C80.0397 25.2832 80.0029 25.4958 79.652 25.7186C78.2582 26.617 76.8878 27.5565 75.5242 28.4686C75.8651 29.967 77.5831 33.3375 78.4989 34.2805C79.9461 33.6564 81.4301 33.0427 82.8907 32.3672C83.3452 32.158 83.5792 32.1992 83.9569 32.5695C84.8359 33.4301 85.7952 34.2153 86.7611 34.9731C87.1522 35.2817 87.3627 35.5217 87.2357 36.0738C86.9048 37.507 86.6608 38.9608 86.3567 40.401C86.2731 40.7884 86.3467 41.0284 86.7177 41.1484C88.469 41.7039 90.2238 42.2594 91.9752 42.8149C92.4063 42.952 92.4732 42.5886 92.5801 42.328C93.1249 41.0113 93.6764 39.698 94.1778 38.3608C94.3649 37.8602 94.6189 37.6956 95.147 37.6785C96.5508 37.6339 97.9513 37.4933 99.462 37.3836C100.354 38.7757 101.34 40.3118 102.356 41.8891C104.392 41.1964 106.224 40.1609 107.962 38.7928C107.273 37.099 106.588 35.4017 105.98 33.9102C107.019 32.5592 108.008 31.3282 108.927 30.0458C109.192 29.6755 109.402 29.6138 109.8 29.703C111.184 30.015 112.574 30.2824 113.958 30.5842C114.259 30.6493 114.476 30.6596 114.63 30.327C115.405 28.6332 116.03 26.8913 116.281 25.0226C116.337 24.6043 116.19 24.4397 115.856 24.2991C114.509 23.7299 113.172 23.1299 111.825 22.5675C111.498 22.4304 111.361 22.2898 111.331 21.8783C111.227 20.4588 111.067 19.0427 110.866 17.6369C110.816 17.2768 110.926 17.1362 111.174 16.9717C112.547 16.0424 113.918 15.1029 115.325 14.1429C114.613 12.089 113.7 10.1791 112.397 8.42698C110.712 9.14704 109.038 9.86024 107.437 10.546C106.087 9.39735 104.78 8.2864 103.383 7.09659C103.63 5.82792 103.927 4.37066 104.198 2.90654C104.422 1.70645 104.589 1.86418 103.413 1.35671C103.299 1.3087 103.205 1.21955 103.102 1.14755C102.049 0.821807 100.996 0.499496 99.9466 0.173755C99.6993 0.146325 99.4419 0.156611 99.2113 0.0811767C98.6097 -0.114267 98.2688 0.0263152 98.0281 0.688082C97.5268 2.06648 96.9419 3.41401 96.3603 4.76155C96.2834 4.93642 96.0328 5.12158 95.8456 5.14558C94.6156 5.30674 93.3656 5.35474 92.149 5.58104C91.554 5.69077 91.3033 5.52275 91.0092 5.04614C90.1736 3.69518 89.2879 2.3785 88.332 0.910957C86.4436 1.92932 84.602 2.92026 82.7403 3.92148C82.8873 4.30208 82.9676 4.52153 83.0545 4.74098C83.5993 6.08165 84.1307 7.42576 84.6989 8.75615C84.8593 9.13332 84.7791 9.34591 84.5251 9.65451C83.6594 10.7106 82.8606 11.8215 82.0016 12.8845C81.8679 13.0491 81.5404 13.1656 81.3298 13.1279C80.1867 12.9256 79.0537 12.6547 77.9139 12.4284C76.9915 12.2433 76.6472 12.1781 76.3564 12.4902L74.6719 18.2369L74.6752 18.23ZM82.9408 18.0963C83.7965 14.6435 85.9088 11.7392 88.8935 9.92196C91.8782 8.10124 95.3743 7.58349 98.74 8.45784C102.106 9.33563 104.937 11.5027 106.712 14.5646C108.486 17.6266 108.991 21.2131 108.139 24.666C107.283 28.1188 105.171 31.0231 102.186 32.8404C99.2013 34.6611 95.7052 35.1788 92.3395 34.3045C88.9737 33.4267 86.1428 31.2597 84.3713 28.1977C82.5966 25.1357 82.0919 21.5492 82.9442 18.0963H82.9408Z" fill="url(#paint0_radial_1572_16893)"></path><path d="M2.8161 38.6481C3.04107 38.824 3.29708 38.7341 3.92935 38.5074C5.06199 38.1087 6.19852 37.71 7.3428 37.3504C7.52511 37.2956 7.83154 37.3855 7.97506 37.5224C8.83618 38.3276 9.65076 39.1875 10.5196 39.9849C10.7873 40.2312 10.8881 40.4032 10.7756 40.7706C10.3296 42.2482 9.92228 43.7413 9.50336 45.2111C10.636 46.0397 13.8516 47.3179 15.058 47.4039C15.7058 46.0827 16.3884 44.742 17.0168 43.3778C17.2108 42.9517 17.4008 42.8384 17.8896 42.8618C19.0222 42.9166 20.1626 42.8697 21.2953 42.7993C21.753 42.7719 22.0439 42.8071 22.2844 43.2684C22.905 44.4645 23.5955 45.6215 24.2394 46.8059C24.4101 47.1225 24.6079 47.2476 24.9376 47.099C26.5047 46.4072 28.0679 45.7114 29.635 45.0195C30.019 44.8475 29.8522 44.5583 29.7707 44.312C29.3712 43.0651 28.9794 41.8182 28.5372 40.5869C28.3704 40.1257 28.4519 39.8559 28.8165 39.5159C29.7785 38.6207 30.6823 37.6631 31.683 36.6585C33.1415 37.0728 34.7474 37.5302 36.4037 37.9992C37.4277 36.2676 38.1027 34.4266 38.5099 32.4096C37.0166 31.6591 35.5232 30.9086 34.2082 30.248C34.1384 28.6727 34.1035 27.2147 33.9871 25.7606C33.9522 25.3385 34.0647 25.1704 34.3983 24.9867C35.5581 24.3534 36.6985 23.6811 37.8544 23.0401C38.1027 22.8994 38.2656 22.7743 38.1764 22.4498C37.7148 20.8003 37.1213 19.2133 36.1865 17.7631C35.977 17.4387 35.7792 17.4152 35.4572 17.5247C34.1694 17.9586 32.87 18.3651 31.5861 18.8029C31.2757 18.9084 31.0934 18.8928 30.8297 18.6309C29.9142 17.7123 28.9562 16.8328 27.9787 15.9768C27.7304 15.7579 27.7227 15.5937 27.8002 15.3279C28.2153 13.8386 28.6226 12.3455 29.0415 10.8171C27.3154 9.83208 25.5427 9.07376 23.58 8.65942C22.8197 10.1917 22.0672 11.7161 21.3418 13.1741C19.7088 13.2093 18.1262 13.2445 16.4311 13.2797C15.8532 12.2477 15.1937 11.0595 14.5149 9.87898C13.9564 8.90959 14.1697 8.91741 13.0409 9.28875C12.9323 9.32393 12.8121 9.32002 12.6996 9.33565C11.7648 9.75781 10.83 10.18 9.89513 10.6021C9.70506 10.735 9.53051 10.8992 9.32105 10.9891C8.78188 11.2236 8.62284 11.5285 8.84782 12.1344C9.31717 13.3969 9.70506 14.6908 10.0968 15.9768C10.1473 16.1449 10.0813 16.4263 9.96107 16.5592C9.18917 17.427 8.33968 18.2283 7.61432 19.1351C7.26134 19.5768 6.98206 19.6159 6.49332 19.4674C5.10078 19.0452 3.69273 18.6778 2.14892 18.2517C1.42356 20.1163 0.717601 21.9339 0 23.7749C0.329708 23.9469 0.515897 24.0525 0.709843 24.1463C1.88904 24.7404 3.06435 25.3424 4.25518 25.917C4.59264 26.0812 4.66246 26.2766 4.66634 26.644C4.68574 27.9066 4.78271 29.1691 4.80986 30.4317C4.81374 30.6271 4.65083 30.9086 4.48015 31.0141C3.55309 31.577 2.595 32.0852 1.6563 32.6285C0.896031 33.0663 0.616749 33.2344 0.593475 33.6291L2.82386 38.6442L2.8161 38.6481ZM8.56466 33.4728C7.11394 30.5568 6.87733 27.246 7.89749 24.1541C8.91764 21.0583 11.0743 18.5488 13.9641 17.0869C16.8578 15.625 20.1432 15.3866 23.2115 16.4146C26.2836 17.4426 28.7738 19.6159 30.2246 22.528C31.6753 25.444 31.9119 28.7548 30.8917 31.8467C29.8716 34.9425 27.7149 37.452 24.8251 38.9139C21.9314 40.3758 18.646 40.6143 15.5778 39.5862C12.5056 38.5582 10.0154 36.3849 8.56466 33.4728Z" fill="url(#paint1_radial_1572_16893)"></path><path d="M14.9558 52.4437L13.2026 54.746C13.1793 54.8946 13.284 54.9923 13.5478 55.2347C14.0171 55.6646 14.4865 56.0985 14.9403 56.5441C15.0101 56.6145 15.045 56.7826 15.0218 56.8842C14.8666 57.4901 14.6727 58.0881 14.5253 58.694C14.4787 58.8816 14.4244 58.9715 14.2266 59.0106C13.4314 59.1709 12.6401 59.3546 11.8566 59.5305C11.7596 60.2692 11.9768 62.0947 12.2367 62.6849C13.0086 62.6576 13.796 62.6419 14.5835 62.5911C14.8278 62.5755 14.9287 62.6341 15.0412 62.8686C15.3011 63.412 15.6075 63.9357 15.9256 64.4478C16.0536 64.655 16.1079 64.7996 15.9566 65.0302C15.5609 65.6205 15.2002 66.2342 14.8162 66.8322C14.7115 66.9925 14.7037 67.1136 14.855 67.2348C15.5687 67.7938 16.2785 68.3527 16.9923 68.9117C17.1668 69.0485 17.2599 68.8961 17.353 68.7984C17.8262 68.298 18.3033 67.8016 18.761 67.2856C18.9317 67.0902 19.0752 67.0628 19.3235 67.1488C19.979 67.3755 20.6462 67.5592 21.3599 67.7742C21.5345 68.5599 21.7284 69.4277 21.9262 70.3228C22.9813 70.3697 24.0015 70.2212 25.0333 69.9085C25.0061 69.0212 24.9751 68.1339 24.9518 67.3521C25.6617 66.9221 26.3249 66.5429 26.965 66.1208C27.1512 65.9996 27.2559 66.0074 27.4266 66.1208C28.0084 66.5039 28.6058 66.8713 29.1915 67.2504C29.3195 67.3325 29.4164 67.3755 29.5445 67.2504C30.1884 66.6211 30.7741 65.941 31.2085 65.1397C31.3055 64.9599 31.2667 64.8621 31.1348 64.7371C30.6112 64.2406 30.0991 63.7364 29.5716 63.2439C29.4436 63.1227 29.4048 63.0367 29.463 62.8452C29.6569 62.1846 29.8237 61.5162 29.9711 60.8438C30.0099 60.6719 30.0836 60.6289 30.2271 60.5976C31.0184 60.4178 31.8097 60.2341 32.6204 60.0464C32.6398 58.9911 32.5467 57.9669 32.2442 56.9467C31.3443 56.9741 30.4521 57.0054 29.5988 57.0327C29.1721 56.2744 28.7609 55.5435 28.3187 54.7578C28.6484 54.2262 29.0324 53.6203 29.4087 53.0066C29.7151 52.5024 29.7656 52.604 29.3117 52.1662C29.269 52.1232 29.238 52.0685 29.2031 52.0177C28.7725 51.6854 28.3459 51.3532 27.9153 51.0209C27.8067 50.9662 27.6864 50.9232 27.5934 50.8489C27.349 50.6535 27.1706 50.6574 26.9456 50.9154C26.4801 51.4509 25.9836 51.959 25.4871 52.4633C25.4212 52.5297 25.2738 52.5688 25.1845 52.5454C24.5911 52.4007 24.0054 52.2053 23.408 52.0919C23.1132 52.0372 23.0279 51.916 22.9736 51.6502C22.8184 50.8919 22.6322 50.1414 22.4421 49.3088C21.3987 49.4378 20.3824 49.5629 19.3545 49.688C19.3545 49.8873 19.3545 50.0007 19.3623 50.1141C19.3856 50.8177 19.4011 51.5173 19.436 52.2209C19.4476 52.4203 19.3739 52.5024 19.2032 52.5962C18.6253 52.9206 18.0667 53.2841 17.4926 53.6125C17.4034 53.6633 17.2328 53.6594 17.1435 53.6047C16.6509 53.3115 16.1777 52.991 15.6889 52.6861C15.2972 52.4398 15.1498 52.3499 14.9597 52.4398L14.9558 52.4437ZM18.5749 56.9819C20.1419 54.9219 23.0705 54.535 25.1108 56.1141C27.155 57.6933 27.5391 60.6445 25.972 62.7005C24.4049 64.7605 21.4763 65.1475 19.436 63.5683C17.3918 61.9891 17.0078 59.038 18.5749 56.9819Z" fill="url(#paint2_radial_1572_16893)"></path><path d="M83.3538 24.318L65.8264 6.8505C65.5937 6.61884 65.3175 6.43515 65.0135 6.30991C64.7095 6.18468 64.3838 6.12035 64.0549 6.12061H34.0078C32.6797 6.12061 31.4059 6.64641 30.4668 7.58235C29.5276 8.51829 29 9.7877 29 11.1113V66.0092C29 67.3328 29.5276 68.6022 30.4668 69.5382C31.4059 70.4741 32.6797 70.9999 34.0078 70.9999H79.0784C80.4065 70.9999 81.6803 70.4741 82.6194 69.5382C83.5586 68.6022 84.0862 67.3328 84.0862 66.0092V26.0835C84.0865 25.7557 84.0219 25.431 83.8963 25.1281C83.7706 24.8252 83.5863 24.5499 83.3538 24.318ZM64.0549 26.0835V12.359L77.8264 26.0835H64.0549Z" fill="url(#paint3_radial_1572_16893)"></path><path d="M42.2917 42.1867H45.3129V54.0085C45.3074 55.0922 45.0775 56.0254 44.6233 56.808C44.169 57.5852 43.5341 58.1845 42.7186 58.6059C41.9086 59.0219 40.9645 59.2299 39.8863 59.2299C38.9012 59.2299 38.0145 59.0547 37.2264 58.7045C36.4437 58.3487 35.8225 57.8233 35.3628 57.1282C34.9031 56.4331 34.6732 55.5684 34.6732 54.534H37.7025C37.708 54.9882 37.8065 55.3796 37.9981 55.7079C38.1951 56.0363 38.466 56.2881 38.8108 56.4632C39.1557 56.6384 39.5524 56.7259 40.0012 56.7259C40.4883 56.7259 40.9016 56.6247 41.2409 56.4222C41.5802 56.2142 41.8375 55.9077 42.0126 55.5027C42.1932 55.0977 42.2863 54.5996 42.2917 54.0085V42.1867ZM48.6173 59V42.1867H54.9223C56.2139 42.1867 57.2976 42.4275 58.1733 42.9091C59.0544 43.3907 59.7194 44.053 60.1682 44.8958C60.6225 45.7332 60.8496 46.6855 60.8496 47.7528C60.8496 48.831 60.6225 49.7888 60.1682 50.6262C59.7139 51.4636 59.0435 52.1231 58.1569 52.6047C57.2702 53.0809 56.1783 53.3189 54.8812 53.3189H50.7025V50.815H54.4707C55.226 50.815 55.8445 50.6836 56.3261 50.4209C56.8077 50.1582 57.1635 49.797 57.3934 49.3373C57.6287 48.8775 57.7464 48.3494 57.7464 47.7528C57.7464 47.1562 57.6287 46.6308 57.3934 46.1766C57.1635 45.7223 56.805 45.3693 56.3179 45.1175C55.8363 44.8603 55.2151 44.7317 54.4543 44.7317H51.663V59H48.6173ZM74.7588 47.5558C74.622 47.1124 74.4331 46.7156 74.1923 46.3654C73.957 46.0096 73.6724 45.7059 73.3385 45.4541C73.0101 45.2023 72.6325 45.0135 72.2056 44.8876C71.7787 44.7563 71.3135 44.6906 70.8099 44.6906C69.9069 44.6906 69.1023 44.9177 68.3963 45.372C67.6903 45.8263 67.1348 46.494 66.7298 47.3752C66.3302 48.2509 66.1305 49.3181 66.1305 50.5769C66.1305 51.8467 66.3302 52.9221 66.7298 53.8033C67.1293 54.6845 67.6848 55.3549 68.3963 55.8147C69.1078 56.2689 69.9343 56.4961 70.8756 56.4961C71.7294 56.4961 72.4683 56.3319 73.0922 56.0035C73.7216 55.6751 74.206 55.2099 74.5453 54.6078C74.8847 54.0003 75.0543 53.2888 75.0543 52.4733L75.7439 52.5801H71.1794V50.1993H78.0016V52.2188C78.0016 53.6583 77.6951 54.9034 77.0821 55.9542C76.4691 57.0051 75.6263 57.8151 74.5535 58.3843C73.4808 58.948 72.2494 59.2299 70.8592 59.2299C69.3103 59.2299 67.9503 58.8823 66.779 58.1872C65.6133 57.4867 64.702 56.4933 64.0452 55.2071C63.3939 53.9155 63.0683 52.383 63.0683 50.6098C63.0683 49.2524 63.2598 48.0401 63.6429 46.9729C64.0315 45.9056 64.5734 44.9998 65.2684 44.2555C65.9635 43.5057 66.779 42.9365 67.7149 42.5479C68.6508 42.1538 69.6688 41.9568 70.7689 41.9568C71.6993 41.9568 72.5668 42.0936 73.3714 42.3673C74.1759 42.6355 74.8901 43.0186 75.5141 43.5166C76.1435 44.0147 76.6607 44.6058 77.0657 45.2899C77.4707 45.974 77.7361 46.7293 77.862 47.5558H74.7588Z" fill="#B3D3A0"></path><defs><radialGradient id="paint0_radial_1572_16893" cx="0" cy="0" r="1" gradientUnits="userSpaceOnUse" gradientTransform="translate(12.8529 -18.3621) rotate(0.586299) scale(291.05 300.094)"><stop stop-color="#4FA83D"></stop><stop offset="0.98"></stop></radialGradient><radialGradient id="paint1_radial_1572_16893" cx="0" cy="0" r="1" gradientUnits="userSpaceOnUse" gradientTransform="translate(7.59881 -5.25217) scale(204.485 206.063)"><stop stop-color="#4FA83D"></stop><stop offset="0.98"></stop></radialGradient><radialGradient id="paint2_radial_1572_16893" cx="0" cy="0" r="1" gradientUnits="userSpaceOnUse" gradientTransform="translate(8.82326 -2.80391) scale(204.485 206.063)"><stop stop-color="#4FA83D"></stop><stop offset="0.98"></stop></radialGradient><radialGradient id="paint3_radial_1572_16893" cx="0" cy="0" r="1" gradientUnits="userSpaceOnUse" gradientTransform="translate(29.827 -22.3314) scale(96.6161 426.835)"><stop stop-color="#4FA83D"></stop><stop offset="0.98"></stop></radialGradient></defs></svg>