<svg xmlns="http://www.w3.org/2000/svg" width="86" height="81" viewBox="0 0 86 81"><g id="Group_5556" data-name="Group 5556" transform="translate(-997 -11416)"><rect id="Rectangle_6184" data-name="Rectangle 6184" width="86" height="81" rx="22" transform="translate(997 11416)" fill="#cae2bc" opacity="0.2"></rect><g id="tv-screen" transform="translate(1017.75 11433.75)"><path id="Path_21231" data-name="Path 21231" d="M10.082,9.395a1.468,1.468,0,0,1,1.553.177l9.79,7.832a1.468,1.468,0,0,1,0,2.293l-9.79,7.832A1.468,1.468,0,0,1,9.25,26.382V10.718A1.468,1.468,0,0,1,10.082,9.395Z" transform="translate(7.663 6.705)" fill="#4fa83d"></path><path id="Path_21232" data-name="Path 21232" d="M5.6,2.68a1.468,1.468,0,0,1,2.077,0l4.835,4.835L17.343,2.68A1.468,1.468,0,0,1,19.42,4.757L16.053,8.124H37.961a5.384,5.384,0,0,1,5.384,5.384V37a5.384,5.384,0,0,1-5.384,5.384H6.634A5.384,5.384,0,0,1,1.25,37V13.508A5.384,5.384,0,0,1,6.634,8.124H8.963L5.6,4.757a1.468,1.468,0,0,1,0-2.077Zm1.038,8.381H37.961a2.447,2.447,0,0,1,2.447,2.447V37a2.447,2.447,0,0,1-2.447,2.447H6.634A2.447,2.447,0,0,1,4.187,37V13.508A2.447,2.447,0,0,1,6.634,11.061Z" transform="translate(0)" fill="#cae2bc" fill-rule="evenodd"></path></g></g></svg>