<svg xmlns="http://www.w3.org/2000/svg" width="63" height="63" viewBox="0 0 63 63" fill="none"><rect x="0.0205078" width="62.37" height="62.37" rx="31.185" fill="url(#paint0_linear_1814_15278)" fill-opacity="0.7"></rect><path d="M42.0761 50.6338C41.1211 50.6332 37.641 44.4394 37.1732 42.6735C36.1954 38.9763 36.4058 37.4142 36.4643 36.9149C36.6433 35.3901 38.1227 34.6282 38.2123 32.5662C38.24 31.9295 38.5616 28.746 38.8183 26.2592C38.1849 26.1353 37.5539 25.8496 36.9929 25.4065C38.677 27.6652 36.1984 30.3721 32.597 33.9738C28.7745 37.7962 20.29 41.3439 20.29 41.3439C20.29 41.3439 23.838 32.8595 27.6603 29.0371C30.4702 26.2275 32.7349 24.1013 34.6676 24.1013C35.2124 24.1013 35.731 24.2704 36.2277 24.6404C35.7843 24.0797 35.4989 23.449 35.3747 22.8156C32.8879 23.073 29.7041 23.3939 29.0677 23.4219C27.0054 23.5115 26.2434 24.9909 24.7196 25.1696C24.5441 25.1903 24.2375 25.2299 23.7535 25.2299C22.8592 25.2299 21.359 25.0953 18.9606 24.4604C17.04 23.9524 9.88327 19.8812 11.1491 19.3696C11.7946 19.1083 13.8518 18.9317 16.561 18.9317C19.1665 18.9317 22.3752 19.0949 25.5094 19.5033C29.4174 20.0125 33.0009 20.6565 35.4429 21.1356C35.4825 21.0043 35.53 20.8767 35.5869 20.7528L33.0904 19.5563C33.0904 19.5563 31.0964 17.2681 31.3093 17.1103C31.3175 17.1042 31.328 17.1012 31.3404 17.1012C31.6532 17.1012 33.2484 18.925 33.4019 19.1327C33.5201 19.172 34.1964 19.3976 34.9078 19.6342L34.2016 19.0167C34.2016 19.0167 33.235 15.437 33.4869 15.3526C33.4899 15.3517 33.4933 15.3511 33.4969 15.3511C33.7622 15.3511 34.6392 18.4639 34.7145 18.6875C34.8868 18.8385 35.4691 19.0654 36.1966 19.485L35.4316 17.5172C35.4316 17.5172 35.7779 14.2706 36.037 14.2706C36.0392 14.2706 36.041 14.2709 36.0431 14.2712C36.3041 14.3233 35.992 16.9791 35.9259 17.3098C36.0206 17.4551 36.6074 18.3552 37.1958 19.2579C37.5578 19.1214 37.9473 19.0541 38.3472 19.0541C38.8061 19.0541 39.2781 19.143 39.7361 19.3181C39.1496 18.0693 39.1941 16.7677 39.9719 15.9906C40.2179 15.7439 40.517 15.5719 40.8501 15.4698C40.8903 15.2427 40.9957 15.0271 41.1683 14.8541C41.3934 14.6294 41.6897 14.5176 41.9897 14.5176C42.3036 14.5176 42.6219 14.6403 42.8655 14.8842C43.0991 15.1172 43.2203 15.4184 43.2306 15.7183C43.6061 14.9445 44.0492 13.9003 44.0181 13.562C43.946 12.7964 43.058 11.4413 43.0497 11.4276C42.9919 11.3402 43.0159 11.222 43.1039 11.1638C43.1359 11.1428 43.1722 11.1328 43.2081 11.1328C43.2699 11.1328 43.3305 11.1629 43.3667 11.2187C43.406 11.2771 44.316 12.6664 44.397 13.5267C44.442 14.0188 43.8771 15.2588 43.5693 15.8922C44.0017 16.1288 44.4232 16.4413 44.8081 16.8262C45.1927 17.2108 45.5052 17.6323 45.7421 18.065C46.3514 17.7687 47.5205 17.2349 48.0477 17.2349C48.0687 17.2349 48.0888 17.2355 48.1077 17.2373C48.9677 17.3183 50.3572 18.2282 50.4154 18.2669C50.5031 18.3245 50.5275 18.4426 50.4696 18.5303C50.433 18.5858 50.3724 18.6159 50.3106 18.6159C50.275 18.6159 50.2388 18.6059 50.2068 18.5845C50.1931 18.5757 48.8382 17.688 48.0723 17.6165C48.0608 17.6152 48.0483 17.6149 48.0352 17.6149C47.6627 17.6149 46.6627 18.0404 45.9154 18.4033C46.2159 18.4134 46.5171 18.5352 46.7498 18.7688C47.227 19.2454 47.2401 20.0049 46.7799 20.465C46.6072 20.638 46.3919 20.7442 46.1648 20.7838C46.0621 21.1173 45.8898 21.4163 45.6437 21.6624C45.2149 22.0915 44.6272 22.297 43.9761 22.297C43.4468 22.297 42.8758 22.1609 42.3158 21.8981C42.6438 22.7544 42.6688 23.661 42.3764 24.4381C43.2784 25.0265 44.1798 25.6136 44.3242 25.7083C44.5611 25.6611 45.9839 25.4885 46.7961 25.4885C47.1207 25.4885 47.3482 25.5159 47.3628 25.5902C47.4155 25.8508 44.1174 26.2029 44.1174 26.2029L42.1492 25.437C42.5692 26.1651 42.7951 26.7471 42.9465 26.9197C43.174 26.9959 46.3651 27.8954 46.2811 28.1473C46.2717 28.1765 46.2156 28.189 46.124 28.189C45.4205 28.189 42.6176 27.4322 42.6176 27.4322L41.9994 26.7261C42.2366 27.4377 42.4617 28.1135 42.5016 28.2319C42.7178 28.3918 44.6811 30.1109 44.5237 30.3243C44.5154 30.3353 44.502 30.3402 44.4835 30.3402C44.139 30.3402 42.078 28.5438 42.078 28.5438L40.8812 26.047C40.7575 26.1042 40.6296 26.1511 40.4981 26.191C40.9771 28.633 41.6215 32.2164 42.1313 36.1241C42.9639 42.5176 42.7766 49.2177 42.265 50.4846C42.2238 50.5866 42.1596 50.6338 42.0761 50.6338Z" fill="white"></path><defs><linearGradient id="paint0_linear_1814_15278" x1="-3.97031" y1="-2.94082" x2="42.2297" y2="54.8092" gradientUnits="userSpaceOnUse"><stop stop-color="#56B743"></stop><stop offset="1" stop-color="#083100"></stop></linearGradient></defs></svg>