<svg xmlns="http://www.w3.org/2000/svg" width="75" height="75" viewBox="0 0 75 75" fill="none"><rect width="75" height="75" fill="#323232"></rect><g clip-path="url(#clip0_104_56)"><rect x="-22" y="-33.8984" width="440.436" height="255.769" rx="16.17" fill="url(#paint0_linear_104_56)"></rect><rect x="0.0351562" y="0.015625" width="74" height="74" rx="37" fill="url(#paint1_linear_104_56)" fill-opacity="0.7"></rect><path d="M50.6091 60.3125C49.4761 60.3118 45.3469 52.9631 44.792 50.8679C43.6318 46.4812 43.8815 44.6279 43.9508 44.0355C44.1633 42.2264 45.9185 41.3224 46.0248 38.8759C46.0577 38.1204 46.4392 34.3433 46.7438 31.3928C45.9923 31.2458 45.2436 30.9069 44.5781 30.3812C46.5761 33.061 43.6354 36.2726 39.3624 40.546C34.8271 45.0811 24.7605 49.2904 24.7605 49.2904C24.7605 49.2904 28.9701 39.2238 33.5052 34.6887C36.839 31.3553 39.526 28.8326 41.8191 28.8326C42.4655 28.8326 43.0808 29.0331 43.6701 29.4721C43.144 28.8069 42.8055 28.0587 42.658 27.3071C39.7075 27.6125 35.9301 27.9933 35.175 28.0265C32.7282 28.1327 31.8241 29.888 30.0161 30.1001C29.8079 30.1246 29.4442 30.1716 28.8699 30.1716C27.8089 30.1716 26.0289 30.0119 23.1833 29.2586C20.9045 28.6559 12.4133 23.8256 13.9152 23.2186C14.681 22.9086 17.1218 22.699 20.3363 22.699C23.4276 22.699 27.2345 22.8927 30.9533 23.3772C35.5899 23.9813 39.8416 24.7455 42.739 25.3138C42.786 25.1581 42.8423 25.0067 42.9099 24.8596L39.9478 23.44C39.9478 23.44 37.582 20.7252 37.8346 20.538C37.8444 20.5308 37.8568 20.5272 37.8716 20.5272C38.2426 20.5272 40.1354 22.691 40.3175 22.9375C40.4576 22.9841 41.2601 23.2518 42.1042 23.5325L41.2663 22.7998C41.2663 22.7998 40.1195 18.5526 40.4183 18.4525C40.4219 18.4514 40.4258 18.4507 40.4302 18.4507C40.7449 18.4507 41.7855 22.144 41.8747 22.4092C42.0792 22.5884 42.7701 22.8576 43.6332 23.3555L42.7256 21.0207C42.7256 21.0207 43.1364 17.1688 43.4439 17.1688C43.4464 17.1688 43.4486 17.1691 43.4511 17.1695C43.7608 17.2313 43.3904 20.3823 43.312 20.7747C43.4244 20.947 44.1206 22.015 44.8187 23.086C45.2483 22.9241 45.7104 22.8442 46.1848 22.8442C46.7293 22.8442 47.2894 22.9497 47.8328 23.1575C47.1369 21.6758 47.1897 20.1315 48.1125 19.2095C48.4044 18.9168 48.7592 18.7127 49.1545 18.5916C49.2022 18.3221 49.3272 18.0663 49.5321 17.861C49.7991 17.5944 50.1506 17.4618 50.5065 17.4618C50.879 17.4618 51.2566 17.6074 51.5457 17.8968C51.8228 18.1732 51.9666 18.5306 51.9789 18.8864C52.4244 17.9684 52.9501 16.7294 52.9132 16.328C52.8276 15.4197 51.774 13.8118 51.7643 13.7956C51.6956 13.6919 51.7241 13.5517 51.8286 13.4827C51.8665 13.4578 51.9095 13.4458 51.9521 13.4458C52.0255 13.4458 52.0974 13.4816 52.1404 13.5477C52.187 13.6171 53.2666 15.2654 53.3627 16.2861C53.4162 16.87 52.7459 18.3412 52.3807 19.0928C52.8937 19.3735 53.3938 19.7442 53.8505 20.2009C54.3068 20.6572 54.6775 21.1573 54.9586 21.6707C55.6816 21.3191 57.0687 20.6858 57.6941 20.6858C57.7191 20.6858 57.7429 20.6865 57.7653 20.6887C58.7857 20.7848 60.4344 21.8644 60.5034 21.9103C60.6074 21.9785 60.6363 22.1187 60.5677 22.2228C60.5243 22.2885 60.4524 22.3243 60.3791 22.3243C60.3368 22.3243 60.2938 22.3124 60.2559 22.2871C60.2396 22.2766 58.6321 21.2234 57.7234 21.1385C57.7097 21.137 57.6949 21.1367 57.6793 21.1367C57.2374 21.1367 56.0509 21.6414 55.1642 22.0721C55.5208 22.084 55.8782 22.2286 56.1542 22.5057C56.7204 23.0711 56.7359 23.9722 56.19 24.5182C55.9851 24.7234 55.7297 24.8495 55.4601 24.8965C55.3384 25.2921 55.1339 25.6469 54.8419 25.9389C54.3332 26.448 53.6359 26.6918 52.8634 26.6918C52.2354 26.6918 51.5579 26.5303 50.8935 26.2185C51.2826 27.2345 51.3123 28.3101 50.9654 29.2322C52.0356 29.9303 53.1051 30.6269 53.2764 30.7392C53.5575 30.6832 55.2455 30.4784 56.2091 30.4784C56.5943 30.4784 56.8642 30.5109 56.8816 30.599C56.9441 30.9083 53.031 31.326 53.031 31.326L50.6958 30.4173C51.1941 31.2812 51.4622 31.9717 51.6418 32.1765C51.9117 32.2669 55.6979 33.3342 55.5982 33.633C55.587 33.6677 55.5205 33.6825 55.4117 33.6825C54.5771 33.6825 51.2516 32.7846 51.2516 32.7846L50.5181 31.9467C50.7995 32.7911 51.0666 33.5929 51.1139 33.7334C51.3704 33.9231 53.6998 35.9627 53.513 36.2159C53.5033 36.229 53.4874 36.2348 53.4653 36.2348C53.0567 36.2348 50.6113 34.1034 50.6113 34.1034L49.1913 31.141C49.0446 31.2089 48.8929 31.2646 48.7368 31.3119C49.3052 34.2093 50.0697 38.4608 50.6745 43.0972C51.6624 50.6829 51.4402 58.6324 50.8332 60.1355C50.7844 60.2565 50.7081 60.3125 50.6091 60.3125Z" fill="#C8C8C8"></path></g><rect x="-21.307" y="-33.2054" width="439.05" height="254.383" rx="15.477" stroke="url(#paint2_linear_104_56)" stroke-width="1.386"></rect><defs><linearGradient id="paint0_linear_104_56" x1="-22" y1="58.9291" x2="477.688" y2="241.621" gradientUnits="userSpaceOnUse"><stop offset="0.39531" stop-color="#161718"></stop><stop offset="1" stop-color="#161718" stop-opacity="0"></stop></linearGradient><linearGradient id="paint1_linear_104_56" x1="-4.69982" y1="-3.47356" x2="50.115" y2="65.045" gradientUnits="userSpaceOnUse"><stop stop-color="#56B743"></stop><stop offset="1" stop-color="#083100"></stop></linearGradient><linearGradient id="paint2_linear_104_56" x1="-121.74" y1="-96.1126" x2="409.549" y2="221.87" gradientUnits="userSpaceOnUse"><stop stop-color="white" stop-opacity="0.3"></stop><stop stop-color="white" stop-opacity="0.3"></stop><stop offset="0.0001" stop-color="white" stop-opacity="0.5"></stop><stop offset="1" stop-color="white" stop-opacity="0.4"></stop></linearGradient><clipPath id="clip0_104_56"><rect x="-22" y="-33.8984" width="440.436" height="255.769" rx="16.17" fill="white"></rect></clipPath></defs></svg>