<svg xmlns="http://www.w3.org/2000/svg" width="116" height="116" viewBox="0 0 116 116"><g id="Group_6028" data-name="Group 6028" transform="translate(-351 -3091)"><rect id="Rectangle_220" data-name="Rectangle 220" width="116" height="116" rx="58" transform="translate(467 3207) rotate(180)" fill="#4fa83d"></rect><g id="Group_170" data-name="Group 170" transform="translate(-1096.889 -7222.382)"><circle id="Ellipse_107" data-name="Ellipse 107" cx="15" cy="15" r="15" transform="translate(1470.889 10362.382)" fill="#c2e1bc"></circle><circle id="Ellipse_108" data-name="Ellipse 108" cx="15" cy="15" r="15" transform="translate(1510.889 10362.382)" fill="#c2e1bc"></circle><path id="Icon_ionic-md-star" data-name="Icon ionic-md-star" d="M9.335,12.963l3.422,2.065-.905-3.9,3.021-2.619-3.983-.342L9.335,4.5,7.779,8.172,3.8,8.514l3.021,2.619-.906,3.9Z" transform="translate(1476.572 10368.112)" fill="#4fa83d"></path><path id="Icon_ionic-md-star-2" data-name="Icon ionic-md-star" d="M9.335,12.963l3.422,2.065-.905-3.9,3.021-2.619-3.983-.342L9.335,4.5,7.779,8.172,3.8,8.514l3.021,2.619-.906,3.9Z" transform="translate(1516.535 10368.112)" fill="#4fa83d"></path><circle id="Ellipse_109" data-name="Ellipse 109" cx="17.5" cy="17.5" r="17.5" transform="translate(1488.889 10351.382)" fill="#fff"></circle><path id="Icon_ionic-md-star-3" data-name="Icon ionic-md-star" d="M11.219,15.842l4.586,2.767-1.213-5.22,4.049-3.51L13.3,9.421,11.219,4.5,9.134,9.421,3.8,9.879l4.049,3.51-1.214,5.22Z" transform="translate(1494.67 10357.188)" fill="#4fa83d"></path></g></g></svg>