<svg xmlns="http://www.w3.org/2000/svg" width="34" height="34" viewBox="0 0 34 34" fill="none"><path d="M16.6563 0C13.362 0 10.1416 0.976872 7.40254 2.80708C4.66343 4.6373 2.52856 7.23865 1.26789 10.2822C0.00721693 13.3257 -0.322632 16.6747 0.320053 19.9057C0.962738 23.1367 2.54909 26.1046 4.87851 28.434C7.20793 30.7634 10.1758 32.3498 13.4068 32.9925C16.6378 33.6351 19.9868 33.3053 23.0303 32.0446C26.0739 30.7839 28.6752 28.6491 30.5054 25.91C32.3356 23.1709 33.3125 19.9505 33.3125 16.6562C33.3078 12.2402 31.5515 8.0063 28.4289 4.88365C25.3062 1.76101 21.0723 0.00466346 16.6563 0ZM8.02063 27.7871C8.94751 26.3375 10.2244 25.1446 11.7336 24.3182C13.2427 23.4919 14.9357 23.0587 16.6563 23.0587C18.3769 23.0587 20.0698 23.4919 21.5789 24.3182C23.0881 25.1446 24.365 26.3375 25.2919 27.7871C22.8228 29.7074 19.7841 30.7499 16.6563 30.7499C13.5284 30.7499 10.4897 29.7074 8.02063 27.7871ZM11.5313 15.375C11.5313 14.3614 11.8318 13.3705 12.395 12.5277C12.9581 11.6849 13.7585 11.028 14.695 10.6401C15.6315 10.2522 16.6619 10.1507 17.6561 10.3485C18.6502 10.5462 19.5634 11.0343 20.2802 11.7511C20.9969 12.4678 21.485 13.381 21.6828 14.3752C21.8805 15.3693 21.779 16.3998 21.3911 17.3363C21.0032 18.2727 20.3464 19.0731 19.5036 19.6363C18.6608 20.1994 17.6699 20.5 16.6563 20.5C15.297 20.5 13.9935 19.96 13.0323 18.9989C12.0712 18.0378 11.5313 16.7342 11.5313 15.375ZM27.1881 26.011C25.7592 23.9403 23.7499 22.3383 21.4129 21.4065C22.6682 20.4178 23.5842 19.0624 24.0336 17.5289C24.4829 15.9955 24.4432 14.3601 23.92 12.8502C23.3968 11.3403 22.4161 10.031 21.1143 9.10439C19.8124 8.17773 18.2542 7.67978 16.6563 7.67978C15.0583 7.67978 13.5001 8.17773 12.1982 9.10439C10.8964 10.031 9.91572 11.3403 9.39251 12.8502C8.8693 14.3601 8.82961 15.9955 9.27893 17.5289C9.72826 19.0624 10.6443 20.4178 11.8996 21.4065C9.56264 22.3383 7.55335 23.9403 6.12438 26.011C4.31873 23.9805 3.13854 21.4713 2.72594 18.7855C2.31333 16.0998 2.6859 13.3521 3.79878 10.8732C4.91166 8.39428 6.7174 6.28994 8.99855 4.81355C11.2797 3.33717 13.939 2.55168 16.6563 2.55168C19.3735 2.55168 22.0328 3.33717 24.314 4.81355C26.5951 6.28994 28.4009 8.39428 29.5137 10.8732C30.6266 13.3521 30.9992 16.0998 30.5866 18.7855C30.174 21.4713 28.9938 23.9805 27.1881 26.011Z" fill="white"/></svg>