<svg xmlns="http://www.w3.org/2000/svg" width="12" height="13" viewBox="0 0 12 13" fill="none"><path d="M11.979 9.53851C11.8729 10.3446 11.477 11.0845 10.8653 11.62C10.2536 12.1555 9.46788 12.45 8.65488 12.4486C3.93165 12.4486 0.0888268 8.60577 0.0888268 3.88254C0.0873694 3.06954 0.381909 2.2838 0.917433 1.67208C1.45296 1.06037 2.19284 0.664508 2.9989 0.55844C3.20274 0.533552 3.40915 0.575252 3.58734 0.677317C3.76552 0.779382 3.90592 0.936336 3.98757 1.12475L5.24392 3.92954V3.93668C5.30644 4.0809 5.33225 4.23837 5.31907 4.395C5.30589 4.55164 5.25411 4.70258 5.16837 4.83433C5.15767 4.85039 5.14636 4.86526 5.13447 4.88013L3.89596 6.34826C4.34151 7.25364 5.28854 8.19234 6.20582 8.63908L7.65372 7.40711C7.66794 7.39516 7.68283 7.38404 7.69833 7.3738C7.82997 7.286 7.98143 7.23241 8.13899 7.21787C8.29655 7.20332 8.45526 7.2283 8.60074 7.29052L8.60848 7.29409L11.4109 8.54985C11.5996 8.63121 11.757 8.77148 11.8594 8.94969C11.9618 9.1279 12.0037 9.33447 11.979 9.53851Z" fill="white"></path></svg>