<svg xmlns="http://www.w3.org/2000/svg" width="243.113" height="243.113" viewBox="0 0 243.113 243.113"><g id="tick-mark" opacity="0.08"><path id="Path_31977" data-name="Path 31977" d="M76.843,11a65.843,65.843,0,1,0,65.843,65.843A65.919,65.919,0,0,0,76.843,11Zm30.45,54.751L74.372,103.738a10.183,10.183,0,0,1-7.3,3.495h-.355a10.121,10.121,0,0,1-7.162-2.968L41.825,86.537A10.128,10.128,0,0,1,56.148,72.214L66.177,82.252l25.8-29.761a10.129,10.129,0,0,1,15.316,13.26Z" transform="translate(100.427 100.427)" fill="#fff"></path><path id="Path_31978" data-name="Path 31978" d="M76.843,11a65.843,65.843,0,0,0,0,131.686V100.881l-2.472,2.857a10.183,10.183,0,0,1-7.3,3.495h-.355a10.121,10.121,0,0,1-7.162-2.968L41.825,86.537A10.128,10.128,0,1,1,56.148,72.214L66.177,82.252,76.843,69.945Z" transform="translate(100.427 100.427)" fill="#fff"></path><path id="Path_31979" data-name="Path 31979" d="M202.594,29.857V52.649H0V29.857A27.841,27.841,0,0,1,27.857,2H174.738A27.841,27.841,0,0,1,202.594,29.857Z" transform="translate(0 18.259)" fill="#fff"></path><path id="Path_31980" data-name="Path 31980" d="M96.232,113.362A80.9,80.9,0,0,1,202.594,36.437V7H0v93.7a27.841,27.841,0,0,0,27.857,27.857H97.711A80.752,80.752,0,0,1,96.232,113.362Z" transform="translate(0 63.908)" fill="#0d0e10"></path><path id="Path_31981" data-name="Path 31981" d="M101.3,2H27.857A27.841,27.841,0,0,0,0,29.857V52.649H101.3Z" transform="translate(0 18.259)" fill="#fff"></path><path id="Path_31982" data-name="Path 31982" d="M101.3,7H0v93.7a27.841,27.841,0,0,0,27.857,27.857H97.711A80.29,80.29,0,0,1,101.3,85.151Z" transform="translate(0 63.908)" fill="#0d0e10"></path><path id="Path_31983" data-name="Path 31983" d="M24.13,50.649A10.127,10.127,0,0,1,14,40.519V10.13a10.13,10.13,0,1,1,20.259,0V40.519A10.127,10.127,0,0,1,24.13,50.649Z" transform="translate(127.816)" fill="#fff"></path><path id="Path_31984" data-name="Path 31984" d="M14.13,50.649A10.133,10.133,0,0,1,4,40.519V10.13a10.13,10.13,0,0,1,20.259,0V40.519A10.133,10.133,0,0,1,14.13,50.649Z" transform="translate(36.519)" fill="#fff"></path><g id="Group_5115" data-name="Group 5115" transform="translate(40.519)"><path id="Path_31985" data-name="Path 31985" d="M24.13,0A10.127,10.127,0,0,0,14,10.13V40.519a10.127,10.127,0,0,0,10.13,10.13Z" transform="translate(87.297)" fill="#fff"></path><path id="Path_31986" data-name="Path 31986" d="M14.13,0A10.127,10.127,0,0,0,4,10.13V40.519a10.127,10.127,0,0,0,10.13,10.13Z" transform="translate(-4)" fill="#fff"></path></g></g></svg>