<svg xmlns="http://www.w3.org/2000/svg" width="66" height="66" viewBox="0 0 66 66"><g id="Player_controls" data-name="Player controls" transform="translate(-4169 -4570)"><circle id="Ellipse_2069" data-name="Ellipse 2069" cx="33" cy="33" r="33" transform="translate(4169 4570)" fill="#fff" opacity="0.085"></circle><g id="Group_44285" data-name="Group 44285" transform="translate(3932 18.058)"><rect id="Rectangle_7789" data-name="Rectangle 7789" width="27" height="27" rx="5" transform="translate(257 4571.942)" fill="#cae2bc"></rect><path id="Path_54401" data-name="Path 54401" d="M66.256,73.04H65.97a.185.185,0,0,0-.044-.017.986.986,0,0,1-.436-.178.974.974,0,0,1-.3-.359A1.88,1.88,0,0,1,65,71.576V62.464a2.6,2.6,0,0,1,.093-.66A1.022,1.022,0,0,1,66.2,61a1.976,1.976,0,0,1,.835.286q4.029,2.287,8.056,4.578a2.6,2.6,0,0,1,.528.393,1,1,0,0,1,.071,1.446,2.11,2.11,0,0,1-.611.478l-7.64,4.336A3.569,3.569,0,0,1,66.256,73.04Z" transform="translate(200.53 4518.406)" fill="#4fa83d"></path></g></g></svg>