<svg xmlns="http://www.w3.org/2000/svg" width="407" height="293" viewBox="0 0 407 293" fill="none">
<g clip-path="url(#clip0_700_6812)">
<path d="M378 0H29C12.9837 0 0 12.9837 0 29V264C0 280.016 12.9837 293 29 293H378C394.016 293 407 280.016 407 264V29C407 12.9837 394.016 0 378 0Z" fill="white"/>
<path d="M319.784 293H305.248V263.7H276.177V293H261.641V263.7H232.57V293H218.034V263.7H188.963V293H174.427V263.7H145.356V293H130.82V263.7H101.75V293H87.214V263.7H58.143V293H27C23.4535 293.003 19.9412 292.307 16.6641 290.951C13.387 289.595 10.4094 287.606 7.90167 285.098C5.39392 282.591 3.40522 279.613 2.04937 276.336C0.693517 273.059 -0.00288347 269.547 9.81392e-06 266V27C-0.00301518 23.4535 0.693296 19.9411 2.0491 16.664C3.40491 13.3868 5.3936 10.4092 7.90138 7.90138C10.4092 5.3936 13.3868 3.40491 16.664 2.0491C19.9411 0.693296 23.4535 -0.00301518 27 9.81392e-06H58.142V29.3H87.214V9.81392e-06H101.749V29.3H130.82V9.81392e-06H145.355V29.3H174.426V9.81392e-06H188.961V29.3H218.032V9.81392e-06H232.567V29.3H261.638V9.81392e-06H276.173V29.3H305.244V9.81392e-06H319.779V29.3H348.85V9.81392e-06H380C383.547 -0.00301518 387.059 0.693296 390.336 2.0491C393.613 3.40491 396.591 5.3936 399.099 7.90138C401.606 10.4092 403.595 13.3868 404.951 16.664C406.307 19.9411 407.003 23.4535 407 27V265.995C407.003 269.541 406.307 273.054 404.951 276.331C403.595 279.608 401.606 282.586 399.098 285.093C396.591 287.601 393.613 289.59 390.336 290.946C387.059 292.302 383.547 292.998 380 292.995H348.854V263.7H319.784V293Z" fill="#CAE1BC"/>
<path d="M167.7 197.612H165.267C165.149 197.549 165.024 197.502 164.895 197.471C163.551 197.273 162.276 196.753 161.177 195.955C160.082 195.162 159.197 194.113 158.6 192.9C157.431 190.485 156.888 187.815 157.019 185.136V107.476C157.04 105.574 157.306 103.682 157.81 101.848C158.264 99.7507 159.476 97.895 161.214 96.6368C162.952 95.3785 165.094 94.8063 167.228 95.0298C169.753 95.2941 172.187 96.1262 174.345 97.4638C197.24 110.458 220.128 123.465 243.008 136.485C244.644 137.407 246.156 138.532 247.508 139.835C251.241 143.467 251.408 148.148 248.108 152.156C246.637 153.823 244.871 155.203 242.897 156.226L177.785 193.182C174.582 195 171.459 197.017 167.7 197.612Z" fill="#4FA83D"/>
</g>
<defs>
<clipPath id="clip0_700_6812">
<rect width="407" height="293" fill="white"/>
</clipPath>
</defs>
</svg>