<svg width="84" height="58" viewBox="0 0 84 58" fill="none" xmlns="http://www.w3.org/2000/svg">
<path d="M40.1353 29.3653H0.015625V26.0491C0.015625 24.2768 1.45252 22.8398 3.22474 22.8398H36.9262C38.6984 22.8398 40.1353 24.2768 40.1353 26.0491V29.3653Z" fill="#161617"/>
<path d="M0.015625 29.363H40.1353V53.9404C40.1353 55.729 38.6838 57.1805 36.8954 57.1805H3.25552C1.4671 57.1805 0.015625 55.729 0.015625 53.9404V29.363Z" fill="#4FA83D"/>
<path d="M20.0285 39.7472C14.1869 39.7472 8.3454 39.744 2.50387 39.7553C2.12156 39.7553 1.99682 39.6808 2.00006 39.2693C2.02274 37.0224 2.01788 34.7738 2.00492 32.5268C2.0033 32.1866 2.06648 32.0586 2.44879 32.0586C14.1967 32.0699 25.9445 32.0683 37.6924 32.0602C38.0293 32.0602 38.1379 32.1364 38.1346 32.4911C38.1184 34.764 38.1168 37.0386 38.1346 39.3115C38.1379 39.6905 38.0083 39.7537 37.6681 39.7537C31.7877 39.744 25.9073 39.7472 20.0269 39.7472H20.0285Z" fill="#161617"/>
<path d="M25.4753 48.1816C25.4753 50.0106 25.4672 51.8396 25.4818 53.6686C25.4851 53.9975 25.4203 54.1174 25.0574 54.1158C21.7381 54.1012 18.4205 54.1012 15.1012 54.1158C14.7464 54.1158 14.6703 54.0088 14.6719 53.6735C14.6832 50.0155 14.6832 46.3574 14.6719 42.6994C14.6719 42.3689 14.7351 42.2523 15.0963 42.2539C18.4156 42.2685 21.7333 42.2685 25.0525 42.2539C25.4073 42.2539 25.4851 42.3576 25.4818 42.6946C25.4656 44.5236 25.4737 46.3526 25.4737 48.1816H25.4753Z" fill="#CADFBD"/>
<path d="M12.7789 48.1962C12.7789 50.0252 12.7692 51.8558 12.787 53.6848C12.7902 54.0396 12.6833 54.1157 12.3463 54.1141C9.04003 54.1012 5.73371 54.1028 2.4274 54.1141C2.10503 54.1141 2.00621 54.0299 2.00783 53.6994C2.01917 50.0268 2.01755 46.3558 2.00783 42.6832C2.00783 42.3738 2.06939 42.2523 2.41282 42.2539C5.74505 42.2669 9.07729 42.2653 12.4095 42.2539C12.7027 42.2539 12.7854 42.3349 12.7821 42.6281C12.7692 44.4831 12.7756 46.3396 12.7756 48.1946L12.7789 48.1962Z" fill="#CADFBD"/>
<path d="M27.3659 48.158C27.3659 46.316 27.3724 44.474 27.3594 42.6321C27.3578 42.3405 27.4339 42.2562 27.7304 42.2578C31.0756 42.2676 34.4191 42.2676 37.7643 42.2578C38.0705 42.2578 38.1304 42.3631 38.1304 42.6434C38.1223 46.3403 38.1223 50.0388 38.1304 53.7357C38.1304 54.0306 38.0446 54.1099 37.753 54.1099C34.4078 54.1002 31.0642 54.1002 27.719 54.1099C27.4064 54.1099 27.3594 53.9982 27.361 53.7244C27.3707 51.8694 27.3659 50.0145 27.3659 48.158Z" fill="#161617"/>
<path d="M28.4728 27.7985C25.3884 27.7985 22.304 27.7936 19.2196 27.8066C18.8892 27.8066 18.8049 27.7143 18.813 27.3919C18.8357 26.543 18.8357 25.6925 18.813 24.8436C18.8049 24.5293 18.9021 24.4548 19.2067 24.4548C22.696 24.4645 26.1854 24.4612 29.6748 24.4612C32.3542 24.4612 35.0336 24.4677 37.713 24.4531C38.0629 24.4515 38.1552 24.5455 38.1439 24.8889C38.118 25.7249 38.1196 26.5624 38.1439 27.3984C38.1536 27.7321 38.0451 27.8066 37.7259 27.8066C34.6415 27.7953 31.5572 27.8001 28.4728 27.8001V27.7985Z" fill="#CADFBD"/>
<path d="M7.36721 26.1153C7.37207 25.0882 8.21768 24.2491 9.24473 24.2539C10.2637 24.2604 11.119 25.1239 11.1093 26.138C11.0996 27.157 10.2329 28.014 9.22205 28.0043C8.19824 27.9946 7.36235 27.1424 7.36721 26.1153Z" fill="#93E080"/>
<path d="M5.71692 26.1374C5.75742 27.077 4.98633 27.9778 3.85884 27.9972C2.83827 28.015 2.02182 27.1483 2.02344 26.1147C2.02506 25.0779 2.85933 24.2404 3.88152 24.2501C4.91181 24.2598 5.71854 25.0893 5.71692 26.1374Z" fill="#4FA83D"/>
<path d="M15.3098 26.1272C15.2466 26.0559 15.1996 25.996 15.1461 25.9425C14.9437 25.7384 14.7395 25.5375 14.537 25.335C14.4042 25.2022 14.3313 25.0418 14.4706 24.8879C14.618 24.7243 14.7703 24.8069 14.9113 24.9349C15.1883 25.186 15.4151 25.6639 15.7293 25.6493C16.0047 25.6363 16.2591 25.1973 16.5215 24.9446C16.6559 24.815 16.805 24.7243 16.9605 24.883C17.1095 25.0353 17.0415 25.1941 16.907 25.3285C16.7045 25.5327 16.5118 25.7449 16.2947 25.9328C16.1181 26.0867 16.1424 26.192 16.3028 26.3362C16.5069 26.5176 16.6916 26.7201 16.886 26.9145C17.0285 27.0571 17.1192 27.2191 16.9492 27.3876C16.7872 27.5464 16.6397 27.4378 16.5101 27.3098C16.3158 27.117 16.1116 26.9324 15.9318 26.7266C15.7812 26.5533 15.6726 26.5193 15.509 26.7169C15.3341 26.9259 15.1267 27.1073 14.9307 27.3001C14.8043 27.4248 14.6634 27.548 14.4933 27.3941C14.3151 27.2337 14.3945 27.0668 14.537 26.9226C14.7379 26.7185 14.9437 26.5176 15.1445 26.3135C15.198 26.2601 15.2433 26.2001 15.3049 26.1304L15.3098 26.1272Z" fill="#CADFBD"/>
<path d="M79.8846 -0.00390625H11.7884C9.65655 -0.00390625 7.92969 1.72304 7.92969 3.855V14.1195C7.92969 16.2514 9.65655 17.9784 11.7884 17.9784H14.1503C14.1584 18.1112 14.2135 18.2457 14.322 18.3575L17.4096 21.4987C17.6445 21.7385 18.0301 21.7401 18.2682 21.5019L21.3996 18.3607C21.5097 18.2489 21.5664 18.1128 21.5745 17.9784H79.8846C82.0164 17.9784 83.7433 16.2514 83.7433 14.1195V3.855C83.7433 1.72304 82.0164 -0.00390625 79.8846 -0.00390625ZM14.0531 10.4793C13.6076 11.0139 13.0746 11.4772 12.5789 11.9681C12.2566 12.284 11.8953 12.5999 11.4612 12.2095C11.006 11.798 11.2101 11.3735 11.573 11.0042C12.0881 10.4841 12.6097 9.97059 13.1249 9.45056C13.2593 9.31286 13.3776 9.16058 13.5331 8.98238C13.3727 8.79931 13.2528 8.64703 13.1168 8.50933C12.6016 7.99092 12.0816 7.47575 11.5632 6.95896C11.223 6.61876 11.0367 6.21213 11.3948 5.81685C11.7722 5.39888 12.1594 5.60948 12.519 5.93511C13.2269 6.5734 13.8036 7.79652 14.6071 7.75602C15.3102 7.72038 15.9598 6.60094 16.6288 5.95455C16.9706 5.62406 17.3529 5.3924 17.7498 5.79903C18.1305 6.18945 17.9556 6.59446 17.6154 6.93628C17.1002 7.45631 16.6061 8.00064 16.0537 8.47855C15.6034 8.87059 15.6649 9.14276 16.0764 9.50727C16.598 9.97059 17.0711 10.489 17.5651 10.9831C17.928 11.346 18.1613 11.7623 17.7255 12.19C17.3124 12.595 16.935 12.318 16.6061 11.9924C16.112 11.4983 15.5888 11.0301 15.1304 10.5052C14.7464 10.0629 14.471 9.97707 14.0531 10.4793ZM79.3759 5.2466C79.2998 7.76736 79.3014 10.2914 79.3743 12.8121C79.4034 13.8198 79.0778 14.045 78.114 14.0417C68.8138 14.0061 59.5137 14.0207 50.212 14.0207C40.9102 14.0207 31.6117 14.0045 22.31 14.0433C21.3153 14.0466 21.0578 13.7647 21.0837 12.7927C21.1533 10.233 21.1517 7.67016 21.0853 5.11052C21.0594 4.16442 21.3542 3.936 22.2695 3.93762C32.7927 3.9684 43.3142 3.95706 53.8374 3.95706C61.9161 3.95706 69.9948 3.97812 78.0735 3.93114C79.1297 3.92628 79.4067 4.2114 79.3759 5.2466Z" fill="#4FA83D"/>
<path d="M16.0881 9.50692C16.6097 9.97025 17.0827 10.4887 17.5768 10.9828C17.9397 11.3456 18.173 11.762 17.7372 12.1897C17.3241 12.5947 16.9467 12.3177 16.6178 11.992C16.1237 11.4979 15.6005 11.0297 15.142 10.5049C14.7581 10.0626 14.4827 9.97673 14.0648 10.4789C13.6193 11.0135 13.0863 11.4769 12.5906 11.9677C12.2682 12.2836 11.907 12.5995 11.4728 12.2091C11.0176 11.7976 11.2218 11.3732 11.5846 11.0038C12.0998 10.4838 12.6214 9.97025 13.1365 9.45022C13.271 9.31252 13.3892 9.16023 13.5448 8.98203C13.3844 8.79897 13.2645 8.64669 13.1284 8.50898C12.6133 7.99058 12.0933 7.47541 11.5749 6.95862C11.2347 6.61841 11.0484 6.21179 11.4064 5.8165C11.7839 5.39853 12.171 5.60914 12.5307 5.93476C13.2386 6.57305 13.8153 7.79617 14.6188 7.75567C15.3218 7.72003 15.9714 6.60059 16.6405 5.9542C16.9823 5.62372 17.3646 5.39205 17.7615 5.79868C18.1422 6.18911 17.9672 6.59411 17.627 6.93594C17.1119 7.45597 16.6178 8.0003 16.0654 8.4782C15.6151 8.87025 15.6766 9.14241 16.0881 9.50692Z" fill="#4FA83D"/>
<path d="M79.3877 5.24521C79.3116 7.76597 79.3132 10.29 79.3861 12.8107C79.4153 13.8184 79.0897 14.0436 78.1258 14.0403C68.8257 14.0047 59.5255 14.0193 50.2238 14.0193C40.922 14.0193 31.6235 14.0031 22.3218 14.0419C21.3271 14.0452 21.0696 13.7633 21.0955 12.7913C21.1651 10.2316 21.1635 7.66877 21.0971 5.10913C21.0712 4.16303 21.366 3.93461 22.2813 3.93623C32.8045 3.96701 43.326 3.95567 53.8492 3.95567C61.9279 3.95567 70.0066 3.97673 78.0853 3.92975C79.1415 3.92489 79.4185 4.21001 79.3877 5.24521Z" fill="#4FA83D"/>
<path d="M79.3877 5.24521C79.3116 7.76597 79.3132 10.29 79.3861 12.8107C79.4153 13.8184 79.0897 14.0436 78.1258 14.0403C68.8257 14.0047 59.5255 14.0193 50.2238 14.0193C40.922 14.0193 31.6235 14.0031 22.3218 14.0419C21.3271 14.0452 21.0696 13.7633 21.0955 12.7913C21.1651 10.2316 21.1635 7.66877 21.0971 5.10913C21.0712 4.16303 21.366 3.93461 22.2813 3.93623C32.8045 3.96701 43.326 3.95567 53.8492 3.95567C61.9279 3.95567 70.0066 3.97673 78.0853 3.92975C79.1415 3.92489 79.4185 4.21001 79.3877 5.24521Z" fill="#CADFBD"/>
<path d="M17.5768 10.9828C17.9397 11.3456 18.173 11.762 17.7372 12.1897C17.3241 12.5947 16.9467 12.3177 16.6178 11.992C16.1237 11.4979 15.6005 11.0297 15.142 10.5049C14.7581 10.0626 14.4827 9.97673 14.0648 10.4789C13.6193 11.0135 13.0863 11.4769 12.5906 11.9677C12.2682 12.2836 11.907 12.5995 11.4728 12.2091C11.0176 11.7976 11.2218 11.3732 11.5846 11.0038C12.0998 10.4838 12.6214 9.97025 13.1365 9.45022C13.271 9.31252 13.3892 9.16023 13.5448 8.98203C13.3844 8.79897 13.2645 8.64669 13.1284 8.50898C12.6133 7.99058 12.0933 7.47541 11.5749 6.95862C11.2347 6.61841 11.0484 6.21179 11.4064 5.8165C11.7839 5.39853 12.171 5.60914 12.5307 5.93476C13.2386 6.57305 13.8153 7.79617 14.6188 7.75567C15.3218 7.72003 15.9714 6.60059 16.6405 5.9542C16.9823 5.62372 17.3646 5.39205 17.7615 5.79868C18.1422 6.18911 17.9672 6.59411 17.627 6.93594C17.1119 7.45597 16.6178 8.0003 16.0654 8.4782C15.6151 8.87025 15.6766 9.14241 16.0881 9.50692C16.6097 9.97025 17.0827 10.4887 17.5768 10.9828Z" fill="#CADFBD"/>
<path d="M24.4675 8.83384V10.125H24.1378V7.26322H24.4675V8.31403H24.4955C24.5458 8.20317 24.6213 8.11514 24.7219 8.04993C24.8234 7.98379 24.9585 7.95072 25.1271 7.95072C25.2733 7.95072 25.4014 7.98006 25.5114 8.03875C25.6213 8.09651 25.7065 8.18547 25.7671 8.30564C25.8286 8.42489 25.8593 8.57673 25.8593 8.76118V10.125H25.5295V8.78354C25.5295 8.61306 25.4853 8.48125 25.3968 8.38809C25.3092 8.294 25.1876 8.24696 25.0321 8.24696C24.924 8.24696 24.8271 8.26978 24.7414 8.31543C24.6567 8.36107 24.5896 8.42768 24.5402 8.51525C24.4918 8.60282 24.4675 8.70901 24.4675 8.83384ZM27.396 7.97866V8.25813H26.2838V7.97866H27.396ZM26.6079 7.46444H26.9377V9.51016C26.9377 9.60332 26.9512 9.67319 26.9782 9.71977C27.0062 9.76541 27.0416 9.79616 27.0844 9.81199C27.1282 9.8269 27.1743 9.83435 27.2228 9.83435C27.2591 9.83435 27.2889 9.83249 27.3122 9.82876C27.3355 9.8241 27.3541 9.82038 27.3681 9.81758L27.4352 10.1138C27.4128 10.1222 27.3816 10.1306 27.3415 10.139C27.3015 10.1483 27.2507 10.1529 27.1892 10.1529C27.0961 10.1529 27.0048 10.1329 26.9154 10.0929C26.8269 10.0528 26.7533 9.99179 26.6946 9.90981C26.6368 9.82783 26.6079 9.72443 26.6079 9.59959V7.46444ZM28.8255 7.97866V8.25813H27.7132V7.97866H28.8255ZM28.0374 7.46444H28.3672V9.51016C28.3672 9.60332 28.3807 9.67319 28.4077 9.71977C28.4357 9.76541 28.4711 9.79616 28.5139 9.81199C28.5577 9.8269 28.6038 9.83435 28.6523 9.83435C28.6886 9.83435 28.7184 9.83249 28.7417 9.82876C28.765 9.8241 28.7836 9.82038 28.7976 9.81758L28.8647 10.1138C28.8423 10.1222 28.8111 10.1306 28.771 10.139C28.731 10.1483 28.6802 10.1529 28.6187 10.1529C28.5256 10.1529 28.4343 10.1329 28.3448 10.0929C28.2564 10.0528 28.1828 9.99179 28.1241 9.90981C28.0663 9.82783 28.0374 9.72443 28.0374 9.59959V7.46444ZM29.3216 10.9299V7.97866H29.6402V8.31962H29.6793C29.7035 8.28236 29.7371 8.23485 29.7799 8.17709C29.8237 8.1184 29.8861 8.06623 29.9672 8.02058C30.0492 7.97401 30.16 7.95072 30.2997 7.95072C30.4805 7.95072 30.6398 7.9959 30.7776 8.08626C30.9155 8.17662 31.0231 8.30471 31.1004 8.47053C31.1778 8.63635 31.2164 8.83198 31.2164 9.05742C31.2164 9.28472 31.1778 9.48175 31.1004 9.6485C31.0231 9.81432 30.916 9.94288 30.779 10.0342C30.6421 10.1245 30.4842 10.1697 30.3053 10.1697C30.1675 10.1697 30.0571 10.1469 29.9742 10.1012C29.8913 10.0547 29.8274 10.002 29.7827 9.94334C29.738 9.88372 29.7035 9.83435 29.6793 9.79522H29.6514V10.9299H29.3216ZM29.6458 9.05183C29.6458 9.21393 29.6695 9.35692 29.7171 9.48082C29.7646 9.60379 29.834 9.7002 29.9253 9.77007C30.0166 9.83901 30.1283 9.87348 30.2606 9.87348C30.3985 9.87348 30.5135 9.83715 30.6058 9.76448C30.6989 9.69089 30.7688 9.59214 30.8154 9.46824C30.8629 9.34341 30.8866 9.20461 30.8866 9.05183C30.8866 8.90092 30.8633 8.76491 30.8168 8.6438C30.7711 8.52177 30.7017 8.42535 30.6086 8.35455C30.5163 8.28282 30.4004 8.24696 30.2606 8.24696C30.1265 8.24696 30.0138 8.28096 29.9225 8.34896C29.8312 8.41604 29.7622 8.51012 29.7157 8.63123C29.6691 8.7514 29.6458 8.8916 29.6458 9.05183ZM33.2398 8.45935L32.9435 8.54319C32.9249 8.49382 32.8974 8.44585 32.8611 8.39927C32.8257 8.35176 32.7773 8.31263 32.7158 8.28189C32.6543 8.25115 32.5756 8.23578 32.4796 8.23578C32.3483 8.23578 32.2388 8.26605 32.1512 8.32661C32.0646 8.38623 32.0213 8.46215 32.0213 8.55437C32.0213 8.63635 32.0511 8.7011 32.1107 8.74861C32.1703 8.79612 32.2635 8.83571 32.3902 8.86738L32.7088 8.94563C32.9007 8.99221 33.0437 9.06348 33.1378 9.15943C33.2319 9.25445 33.2789 9.37695 33.2789 9.52693C33.2789 9.6499 33.2435 9.75982 33.1727 9.85671C33.1028 9.95359 33.005 10.03 32.8793 10.0859C32.7535 10.1418 32.6072 10.1697 32.4405 10.1697C32.2216 10.1697 32.0404 10.1222 31.8969 10.0272C31.7535 9.93217 31.6626 9.79336 31.6244 9.61077L31.9374 9.53252C31.9673 9.64804 32.0236 9.73467 32.1065 9.79243C32.1904 9.85019 32.2998 9.87907 32.4349 9.87907C32.5886 9.87907 32.7107 9.84646 32.801 9.78125C32.8923 9.71511 32.938 9.63593 32.938 9.5437C32.938 9.46918 32.9119 9.40676 32.8597 9.35646C32.8075 9.30522 32.7274 9.26702 32.6194 9.24187L32.2616 9.15803C32.0651 9.11145 31.9207 9.03926 31.8285 8.94144C31.7372 8.84269 31.6915 8.71926 31.6915 8.57114C31.6915 8.45004 31.7255 8.34291 31.7935 8.24975C31.8625 8.15659 31.9561 8.08347 32.0744 8.03037C32.1936 7.97727 32.3287 7.95072 32.4796 7.95072C32.692 7.95072 32.8588 7.9973 32.9799 8.09045C33.1019 8.18361 33.1885 8.30658 33.2398 8.45935ZM34.0157 10.1474C33.9467 10.1474 33.8876 10.1227 33.8382 10.0733C33.7888 10.0239 33.7641 9.96477 33.7641 9.89583C33.7641 9.8269 33.7888 9.76774 33.8382 9.71837C33.8876 9.669 33.9467 9.64431 34.0157 9.64431C34.0846 9.64431 34.1438 9.669 34.1931 9.71837C34.2425 9.76774 34.2672 9.8269 34.2672 9.89583C34.2672 9.94148 34.2555 9.9834 34.2323 10.0216C34.2099 10.0598 34.1796 10.0905 34.1414 10.1138C34.1042 10.1362 34.0622 10.1474 34.0157 10.1474ZM34.0157 8.55437C33.9467 8.55437 33.8876 8.52969 33.8382 8.48031C33.7888 8.43094 33.7641 8.37179 33.7641 8.30285C33.7641 8.23391 33.7888 8.17476 33.8382 8.12539C33.8876 8.07601 33.9467 8.05133 34.0157 8.05133C34.0846 8.05133 34.1438 8.07601 34.1931 8.12539C34.2425 8.17476 34.2672 8.23391 34.2672 8.30285C34.2672 8.3485 34.2555 8.39042 34.2323 8.42861C34.2099 8.46681 34.1796 8.49755 34.1414 8.52084C34.1042 8.54319 34.0622 8.55437 34.0157 8.55437ZM35.8707 7.12907L34.9484 10.5554H34.6466L35.5688 7.12907H35.8707ZM37.2732 7.12907L36.351 10.5554H36.0492L36.9714 7.12907H37.2732ZM38.1504 10.125L37.4965 7.97866H37.843L38.3069 9.62195H38.3293L38.7876 7.97866H39.1398L39.5925 9.61636H39.6149L40.0788 7.97866H40.4253L39.7714 10.125H39.4472L38.9777 8.47612H38.9441L38.4746 10.125H38.1504ZM41.3476 10.125L40.6936 7.97866H41.0402L41.5041 9.62195H41.5264L41.9848 7.97866H42.3369L42.7897 9.61636H42.812L43.2759 7.97866H43.6225L42.9685 10.125H42.6443L42.1748 8.47612H42.1413L41.6718 10.125H41.3476ZM44.5447 10.125L43.8908 7.97866H44.2373L44.7012 9.62195H44.7236L45.1819 7.97866H45.5341L45.9868 9.61636H46.0092L46.4731 7.97866H46.8196L46.1657 10.125H45.8415L45.372 8.47612H45.3384L44.8689 10.125H44.5447ZM47.2039 10.1474C47.135 10.1474 47.0758 10.1227 47.0264 10.0733C46.9771 10.0239 46.9524 9.96477 46.9524 9.89583C46.9524 9.8269 46.9771 9.76774 47.0264 9.71837C47.0758 9.669 47.135 9.64431 47.2039 9.64431C47.2728 9.64431 47.332 9.669 47.3814 9.71837C47.4307 9.76774 47.4554 9.8269 47.4554 9.89583C47.4554 9.94148 47.4438 9.9834 47.4205 10.0216C47.3981 10.0598 47.3678 10.0905 47.3297 10.1138C47.2924 10.1362 47.2505 10.1474 47.2039 10.1474ZM53.5391 10.1697C53.3323 10.1697 53.1539 10.1241 53.004 10.0328C52.8549 9.94055 52.7399 9.81199 52.6588 9.6471C52.5787 9.48129 52.5386 9.28845 52.5386 9.0686C52.5386 8.84875 52.5787 8.65498 52.6588 8.4873C52.7399 8.31869 52.8526 8.18734 52.997 8.09325C53.1423 7.99823 53.3118 7.95072 53.5056 7.95072C53.6174 7.95072 53.7278 7.96935 53.8368 8.00661C53.9458 8.04387 54.045 8.10443 54.1344 8.18827C54.2238 8.27118 54.2951 8.3811 54.3482 8.51804C54.4013 8.65498 54.4279 8.8236 54.4279 9.02388V9.16362H52.7734V8.87856H54.0925C54.0925 8.75746 54.0683 8.64939 54.0198 8.55437C53.9723 8.45935 53.9043 8.38436 53.8158 8.3294C53.7283 8.27444 53.6249 8.24696 53.5056 8.24696C53.3743 8.24696 53.2606 8.27956 53.1647 8.34477C53.0696 8.40905 52.9965 8.49289 52.9453 8.59629C52.894 8.6997 52.8684 8.81056 52.8684 8.92886V9.11891C52.8684 9.281 52.8964 9.4184 52.9523 9.53112C53.0091 9.64291 53.0878 9.72815 53.1884 9.78684C53.289 9.8446 53.4059 9.87348 53.5391 9.87348C53.6258 9.87348 53.704 9.86137 53.7739 9.83715C53.8447 9.81199 53.9057 9.77473 53.957 9.72536C54.0082 9.67505 54.0478 9.61264 54.0757 9.53811L54.3943 9.62754C54.3608 9.7356 54.3044 9.83062 54.2252 9.9126C54.1461 9.99365 54.0482 10.057 53.9318 10.1026C53.8154 10.1474 53.6845 10.1697 53.5391 10.1697ZM55.2593 8.83384V10.125H54.9295V7.97866H55.2481V8.31403H55.2761C55.3264 8.20504 55.4028 8.11747 55.5052 8.05133C55.6077 7.98425 55.74 7.95072 55.9021 7.95072C56.0474 7.95072 56.1746 7.98053 56.2836 8.04015C56.3925 8.09884 56.4773 8.18827 56.5379 8.30844C56.5984 8.42768 56.6287 8.57859 56.6287 8.76118V10.125H56.2989V8.78354C56.2989 8.61493 56.2551 8.48357 56.1676 8.38949C56.08 8.29447 55.9598 8.24696 55.8071 8.24696C55.7018 8.24696 55.6077 8.26978 55.5248 8.31543C55.4428 8.36107 55.3781 8.42768 55.3306 8.51525C55.283 8.60282 55.2593 8.70901 55.2593 8.83384ZM58.1647 7.97866V8.25813H57.0524V7.97866H58.1647ZM57.3766 7.46444H57.7064V9.51016C57.7064 9.60332 57.7199 9.67319 57.7469 9.71977C57.7749 9.76541 57.8103 9.79616 57.8531 9.81199C57.8969 9.8269 57.943 9.83435 57.9915 9.83435C58.0278 9.83435 58.0576 9.83249 58.0809 9.82876C58.1042 9.8241 58.1228 9.82038 58.1368 9.81758L58.2039 10.1138C58.1815 10.1222 58.1503 10.1306 58.1102 10.139C58.0702 10.1483 58.0194 10.1529 57.9579 10.1529C57.8648 10.1529 57.7735 10.1329 57.684 10.0929C57.5955 10.0528 57.522 9.99179 57.4633 9.90981C57.4055 9.82783 57.3766 9.72443 57.3766 9.59959V7.46444ZM60.1427 8.45935L59.8465 8.54319C59.8278 8.49382 59.8003 8.44585 59.764 8.39927C59.7286 8.35176 59.6802 8.31263 59.6187 8.28189C59.5572 8.25115 59.4785 8.23578 59.3825 8.23578C59.2512 8.23578 59.1417 8.26605 59.0542 8.32661C58.9675 8.38623 58.9242 8.46215 58.9242 8.55437C58.9242 8.63635 58.954 8.7011 59.0136 8.74861C59.0732 8.79612 59.1664 8.83571 59.2931 8.86738L59.6117 8.94563C59.8036 8.99221 59.9466 9.06348 60.0407 9.15943C60.1348 9.25445 60.1818 9.37695 60.1818 9.52693C60.1818 9.6499 60.1464 9.75982 60.0756 9.85671C60.0058 9.95359 59.9079 10.03 59.7822 10.0859C59.6564 10.1418 59.5102 10.1697 59.3434 10.1697C59.1245 10.1697 58.9433 10.1222 58.7998 10.0272C58.6564 9.93217 58.5655 9.79336 58.5273 9.61077L58.8404 9.53252C58.8702 9.64804 58.9265 9.73467 59.0094 9.79243C59.0933 9.85019 59.2027 9.87907 59.3378 9.87907C59.4915 9.87907 59.6136 9.84646 59.7039 9.78125C59.7952 9.71511 59.8409 9.63593 59.8409 9.5437C59.8409 9.46918 59.8148 9.40676 59.7626 9.35646C59.7104 9.30522 59.6303 9.26702 59.5223 9.24187L59.1645 9.15803C58.968 9.11145 58.8236 9.03926 58.7314 8.94144C58.6401 8.84269 58.5944 8.71926 58.5944 8.57114C58.5944 8.45004 58.6284 8.34291 58.6964 8.24975C58.7654 8.15659 58.859 8.08347 58.9773 8.03037C59.0965 7.97727 59.2316 7.95072 59.3825 7.95072C59.5949 7.95072 59.7617 7.9973 59.8828 8.09045C60.0048 8.18361 60.0915 8.30658 60.1427 8.45935ZM63.0258 8.15753H62.6792C62.6587 8.05785 62.6229 7.97028 62.5716 7.89482C62.5213 7.81937 62.4599 7.75602 62.3872 7.70478C62.3155 7.65261 62.2358 7.61349 62.1482 7.5874C62.0607 7.56132 61.9694 7.54828 61.8744 7.54828C61.7011 7.54828 61.5441 7.59206 61.4035 7.67963C61.2637 7.7672 61.1524 7.89622 61.0695 8.0667C60.9875 8.23717 60.9465 8.44631 60.9465 8.69411C60.9465 8.94191 60.9875 9.15104 61.0695 9.32152C61.1524 9.492 61.2637 9.62102 61.4035 9.70859C61.5441 9.79616 61.7011 9.83994 61.8744 9.83994C61.9694 9.83994 62.0607 9.8269 62.1482 9.80081C62.2358 9.77473 62.3155 9.73607 62.3872 9.68483C62.4599 9.63267 62.5213 9.56885 62.5716 9.4934C62.6229 9.41701 62.6587 9.32944 62.6792 9.23069H63.0258C62.9997 9.37695 62.9522 9.50784 62.8833 9.62335C62.8143 9.73886 62.7286 9.83715 62.6261 9.91819C62.5237 9.99831 62.4086 10.0593 62.281 10.1012C62.1543 10.1432 62.0188 10.1641 61.8744 10.1641C61.6303 10.1641 61.4132 10.1045 61.2232 9.98526C61.0332 9.86602 60.8836 9.69648 60.7746 9.47663C60.6657 9.25678 60.6112 8.99594 60.6112 8.69411C60.6112 8.39228 60.6657 8.13144 60.7746 7.91159C60.8836 7.69174 61.0332 7.52219 61.2232 7.40295C61.4132 7.28371 61.6303 7.22409 61.8744 7.22409C62.0188 7.22409 62.1543 7.24505 62.281 7.28697C62.4086 7.32889 62.5237 7.39038 62.6261 7.47142C62.7286 7.55154 62.8143 7.64935 62.8833 7.76487C62.9522 7.87945 62.9997 8.01034 63.0258 8.15753ZM64.4689 10.125H63.5858V7.26322H64.508C64.7856 7.26322 65.0232 7.32051 65.2207 7.43509C65.4182 7.54874 65.5696 7.71223 65.6748 7.92556C65.7801 8.13796 65.8327 8.39228 65.8327 8.68852C65.8327 8.98662 65.7796 9.24327 65.6734 9.45846C65.5672 9.67272 65.4126 9.83761 65.2095 9.95313C65.0064 10.0677 64.7596 10.125 64.4689 10.125ZM63.9323 9.81758H64.4465C64.6832 9.81758 64.8793 9.77194 65.0348 9.68064C65.1904 9.58935 65.3064 9.45939 65.3828 9.29078C65.4592 9.12217 65.4974 8.92141 65.4974 8.68852C65.4974 8.45749 65.4596 8.2586 65.3842 8.09185C65.3087 7.92417 65.196 7.79561 65.046 7.70618C64.896 7.61582 64.7092 7.57064 64.4857 7.57064H63.9323V9.81758ZM68.6833 7.26322V10.125H68.348L66.7885 7.87805H66.7606V10.125H66.414V7.26322H66.7494L68.3144 9.51575H68.3424V7.26322H68.6833ZM69.5724 10.1474C69.5035 10.1474 69.4443 10.1227 69.3949 10.0733C69.3456 10.0239 69.3209 9.96477 69.3209 9.89583C69.3209 9.8269 69.3456 9.76774 69.3949 9.71837C69.4443 9.669 69.5035 9.64431 69.5724 9.64431C69.6413 9.64431 69.7005 9.669 69.7499 9.71837C69.7992 9.76774 69.8239 9.8269 69.8239 9.89583C69.8239 9.94148 69.8123 9.9834 69.789 10.0216C69.7666 10.0598 69.7363 10.0905 69.6982 10.1138C69.6609 10.1362 69.619 10.1474 69.5724 10.1474ZM71.2876 10.1697C71.0864 10.1697 70.9131 10.1222 70.7678 10.0272C70.6225 9.93217 70.5107 9.80128 70.4325 9.63453C70.3542 9.46778 70.3151 9.27727 70.3151 9.06301C70.3151 8.84502 70.3551 8.65265 70.4353 8.4859C70.5163 8.31822 70.629 8.18734 70.7734 8.09325C70.9187 7.99823 71.0883 7.95072 71.282 7.95072C71.433 7.95072 71.569 7.97866 71.6901 8.03456C71.8112 8.09045 71.9104 8.1687 71.9877 8.26931C72.065 8.36992 72.113 8.4873 72.1316 8.62145H71.8019C71.7767 8.52363 71.7208 8.437 71.6342 8.36154C71.5485 8.28515 71.433 8.24696 71.2876 8.24696C71.1591 8.24696 71.0464 8.28049 70.9495 8.34757C70.8535 8.41371 70.7785 8.50733 70.7245 8.62843C70.6714 8.74861 70.6449 8.88974 70.6449 9.05183C70.6449 9.21765 70.6709 9.36204 70.7231 9.48501C70.7762 9.60798 70.8507 9.70346 70.9467 9.77147C71.0436 9.83947 71.1572 9.87348 71.2876 9.87348C71.3733 9.87348 71.4511 9.85857 71.521 9.82876C71.5909 9.79895 71.65 9.7561 71.6985 9.7002C71.7469 9.64431 71.7814 9.57724 71.8019 9.49899H72.1316C72.113 9.62568 72.0669 9.7398 71.9933 9.84134C71.9206 9.94195 71.8242 10.0221 71.7041 10.0817C71.5848 10.1404 71.446 10.1697 71.2876 10.1697ZM73.4857 10.1697C73.2919 10.1697 73.1219 10.1236 72.9756 10.0314C72.8303 9.93915 72.7167 9.81013 72.6347 9.64431C72.5536 9.47849 72.5131 9.28472 72.5131 9.06301C72.5131 8.83943 72.5536 8.64427 72.6347 8.47752C72.7167 8.31077 72.8303 8.18128 72.9756 8.08905C73.1219 7.99683 73.2919 7.95072 73.4857 7.95072C73.6794 7.95072 73.849 7.99683 73.9943 8.08905C74.1406 8.18128 74.2542 8.31077 74.3353 8.47752C74.4172 8.64427 74.4582 8.83943 74.4582 9.06301C74.4582 9.28472 74.4172 9.47849 74.3353 9.64431C74.2542 9.81013 74.1406 9.93915 73.9943 10.0314C73.849 10.1236 73.6794 10.1697 73.4857 10.1697ZM73.4857 9.87348C73.6329 9.87348 73.754 9.83575 73.849 9.76029C73.944 9.68483 74.0143 9.58562 74.06 9.46265C74.1056 9.33969 74.1285 9.20647 74.1285 9.06301C74.1285 8.91955 74.1056 8.78587 74.06 8.66197C74.0143 8.53807 73.944 8.43793 73.849 8.36154C73.754 8.28515 73.6329 8.24696 73.4857 8.24696C73.3385 8.24696 73.2174 8.28515 73.1224 8.36154C73.0273 8.43793 72.957 8.53807 72.9114 8.66197C72.8657 8.78587 72.8429 8.91955 72.8429 9.06301C72.8429 9.20647 72.8657 9.33969 72.9114 9.46265C72.957 9.58562 73.0273 9.68483 73.1224 9.76029C73.2174 9.83575 73.3385 9.87348 73.4857 9.87348ZM74.9616 10.125V7.97866H75.2802V8.31403H75.3082C75.3529 8.19945 75.4251 8.11048 75.5248 8.04713C75.6244 7.98286 75.7442 7.95072 75.8839 7.95072C76.0255 7.95072 76.1433 7.98286 76.2374 8.04713C76.3324 8.11048 76.4065 8.19945 76.4596 8.31403H76.482C76.5369 8.20317 76.6194 8.11514 76.7293 8.04993C76.8392 7.98379 76.971 7.95072 77.1247 7.95072C77.3166 7.95072 77.4736 8.0108 77.5956 8.13098C77.7177 8.25022 77.7787 8.43606 77.7787 8.68852V10.125H77.4489V8.68852C77.4489 8.53015 77.4056 8.41697 77.319 8.34896C77.2323 8.28096 77.1303 8.24696 77.0129 8.24696C76.862 8.24696 76.7451 8.2926 76.6622 8.3839C76.5793 8.47426 76.5378 8.58884 76.5378 8.72765V10.125H76.2025V8.65498C76.2025 8.53295 76.1629 8.43467 76.0837 8.36014C76.0045 8.28468 75.9025 8.24696 75.7777 8.24696C75.692 8.24696 75.6119 8.26978 75.5373 8.31543C75.4637 8.36107 75.4041 8.42442 75.3585 8.50547C75.3138 8.58558 75.2914 8.67827 75.2914 8.78354V10.125H74.9616ZM79.3933 7.12907L78.4711 10.5554H78.1693L79.0915 7.12907H79.3933Z" fill="#606060"/>
<path d="M48.9359 10.1641C48.772 10.1641 48.6243 10.1315 48.493 10.0663C48.3616 10.0011 48.2563 9.91167 48.1771 9.79802C48.098 9.68437 48.0546 9.55488 48.0472 9.40955H48.3826C48.3956 9.53904 48.4543 9.64617 48.5586 9.73095C48.6639 9.81479 48.7897 9.85671 48.9359 9.85671C49.0533 9.85671 49.1576 9.82923 49.2489 9.77426C49.3411 9.7193 49.4133 9.64384 49.4655 9.54789C49.5186 9.45101 49.5452 9.34155 49.5452 9.21951C49.5452 9.09468 49.5177 8.98336 49.4627 8.88555C49.4087 8.7868 49.3342 8.70901 49.2391 8.65219C49.1441 8.59536 49.0356 8.56648 48.9136 8.56555C48.826 8.56462 48.7361 8.57813 48.6439 8.60608C48.5516 8.63309 48.4757 8.66803 48.4161 8.71088L48.0919 8.67175L48.2652 7.26322H49.752V7.57064H48.5558L48.4552 8.41464H48.472C48.5307 8.36806 48.6043 8.3294 48.6928 8.29866C48.7813 8.26792 48.8735 8.25255 48.9694 8.25255C49.1446 8.25255 49.3006 8.29447 49.4376 8.37831C49.5754 8.46122 49.6835 8.57487 49.7617 8.71926C49.8409 8.86365 49.8805 9.02854 49.8805 9.21393C49.8805 9.39651 49.8395 9.55954 49.7576 9.703C49.6765 9.84553 49.5647 9.95825 49.4222 10.0412C49.2797 10.1231 49.1176 10.1641 48.9359 10.1641ZM51.3132 10.1697C51.1119 10.1697 50.9387 10.1222 50.7933 10.0272C50.648 9.93217 50.5362 9.80128 50.458 9.63453C50.3797 9.46778 50.3406 9.27727 50.3406 9.06301C50.3406 8.84502 50.3807 8.65265 50.4608 8.4859C50.5418 8.31822 50.6545 8.18734 50.7989 8.09325C50.9443 7.99823 51.1138 7.95072 51.3076 7.95072C51.4585 7.95072 51.5945 7.97866 51.7156 8.03456C51.8367 8.09045 51.9359 8.1687 52.0132 8.26931C52.0906 8.36992 52.1385 8.4873 52.1572 8.62145H51.8274C51.8022 8.52363 51.7463 8.437 51.6597 8.36154C51.574 8.28515 51.4585 8.24696 51.3132 8.24696C51.1846 8.24696 51.0719 8.28049 50.975 8.34757C50.879 8.41371 50.8041 8.50733 50.75 8.62843C50.6969 8.74861 50.6704 8.88974 50.6704 9.05183C50.6704 9.21765 50.6965 9.36204 50.7486 9.48501C50.8017 9.60798 50.8763 9.70346 50.9722 9.77147C51.0691 9.83947 51.1827 9.87348 51.3132 9.87348C51.3989 9.87348 51.4767 9.85857 51.5465 9.82876C51.6164 9.79895 51.6755 9.7561 51.724 9.7002C51.7724 9.64431 51.8069 9.57724 51.8274 9.49899H52.1572C52.1385 9.62568 52.0924 9.7398 52.0188 9.84134C51.9462 9.94195 51.8497 10.0221 51.7296 10.0817C51.6103 10.1404 51.4715 10.1697 51.3132 10.1697Z" fill="#161617"/>
</svg>
