<svg xmlns="http://www.w3.org/2000/svg" width="100" height="68" viewBox="0 0 100 68" fill="none"><path d="M88.5709 52.4018L80.6649 38.8819C84.6674 36.0249 87.4143 31.7347 88.3343 26.9039C89.2542 22.0731 88.2764 17.0735 85.6041 12.9454C82.9318 8.81717 78.7708 5.87815 73.9868 4.73969C69.2028 3.60123 64.164 4.35097 59.9187 6.83296C55.6733 9.31495 52.5483 13.3381 51.1937 18.0655C49.8391 22.7928 50.3591 27.8605 52.6457 32.2142C54.9323 36.5679 58.8093 39.8724 63.4702 41.4404C68.1312 43.0084 73.2172 42.7191 77.6703 40.6327L85.5737 54.1541C85.6887 54.3509 85.8414 54.5231 86.023 54.6609C86.2047 54.7987 86.4116 54.8994 86.6322 54.9572C86.8527 55.015 87.0824 55.0288 87.3083 54.9978C87.5341 54.9668 87.7517 54.8916 87.9485 54.7766C88.1453 54.6615 88.3175 54.5088 88.4553 54.3272C88.593 54.1456 88.6937 53.9386 88.7515 53.7181C88.8093 53.4976 88.8231 53.2678 88.7921 53.042C88.7611 52.8161 88.686 52.5986 88.5709 52.4018ZM54.4757 19.3994C55.2587 16.412 56.91 13.7239 59.2208 11.675C61.5316 9.62614 64.3981 8.30849 67.4577 7.8887C70.5174 7.46891 73.6328 7.96584 76.41 9.31665C79.1872 10.6675 81.5015 12.8115 83.0603 15.4776C84.619 18.1437 85.3521 21.2121 85.1669 24.2949C84.9817 27.3776 83.8866 30.3363 82.0199 32.7966C80.1532 35.2569 77.5989 37.1085 74.6799 38.1171C71.761 39.1258 68.6085 39.2462 65.6211 38.4631C61.6176 37.409 58.1958 34.8099 56.1063 31.2359C54.0169 27.662 53.4304 23.4052 54.4757 19.3994Z" fill="#4FA83D"></path><path fill-rule="evenodd" clip-rule="evenodd" d="M3.25309 65.2785C2.89376 65.2785 2.60247 64.9872 2.60247 64.6279L2.60247 1.73497C2.60247 1.37564 2.31117 1.08435 1.95185 1.08435H0.650617C0.291291 1.08435 -1.58486e-08 1.37564 0 1.73497L2.80332e-06 65.2785V67.2304C2.80332e-06 67.5897 0.291297 67.881 0.650623 67.881H84.5802C84.9395 67.881 85.2308 67.5897 85.2308 67.2304V65.9291C85.2308 65.5698 84.9395 65.2785 84.5802 65.2785H3.25309Z" fill="#4FA83D"></path><path d="M16.3643 53.0301C13.9576 53.7197 27.5611 37.8902 29.9108 35.1716C30.1295 34.9184 30.4504 34.7973 30.7833 34.8312L49.2581 36.7164C49.5377 36.7449 49.8168 36.6579 50.0305 36.4754L65.9648 22.8729" stroke="#4FA83D" stroke-width="1.02875"></path><circle cx="14.3245" cy="54.4849" r="3.08626" fill="#4FA83D"></circle><circle cx="30.5609" cy="35.0856" r="3.08626" fill="#4FA83D"></circle><circle cx="49.6077" cy="35.8792" r="3.08626" fill="#4FA83D"></circle><circle cx="68.7167" cy="21.7167" r="6.71667" fill="#4FA83D"></circle></svg>