<svg xmlns="http://www.w3.org/2000/svg" width="64" height="64" viewBox="0 0 64 64"><g id="Group_44734" data-name="Group 44734" transform="translate(-303 -2496)"><circle id="Ellipse_2098" data-name="Ellipse 2098" cx="32" cy="32" r="32" transform="translate(303 2496)" fill="#212224"></circle><g id="Group_44716" data-name="Group 44716" transform="translate(-1078 -210)"><g id="Group_5158" data-name="Group 5158" transform="translate(1399 2722)"><path id="secure_1_" data-name="secure (1)" d="M39.878,4.383a1.024,1.024,0,0,0-.739-.845L26.551.038a1.023,1.023,0,0,0-.549,0l-12.587,3.5a1.023,1.023,0,0,0-.739.845c-.073.525-1.738,12.929,2.533,19.1a20.1,20.1,0,0,0,10.827,7.807,1.026,1.026,0,0,0,.481,0,20.1,20.1,0,0,0,10.827-7.807C41.616,17.312,39.951,4.909,39.878,4.383Zm-5.484,7.241L25.809,20.21a1.023,1.023,0,0,1-1.447,0L19.053,14.9a1.023,1.023,0,0,1,0-1.447L20.107,12.4a1.023,1.023,0,0,1,1.447,0l3.531,3.531,6.808-6.808a1.023,1.023,0,0,1,1.447,0l1.054,1.054A1.024,1.024,0,0,1,34.394,11.625Z" transform="translate(-12.296 0)" fill="#cae2bc"></path><circle id="Ellipse_812" data-name="Ellipse 812" cx="9.612" cy="9.612" r="9.612" transform="translate(4.369 4.369)" fill="#cae2bc"></circle></g><g id="Group_5118" data-name="Group 5118" transform="translate(1405.022 2732.037)"><rect id="Rectangle_6199" data-name="Rectangle 6199" width="16.206" height="11.576" rx="2" transform="translate(0 0)" fill="#4fa83d"></rect><path id="Icon_material-play-circle-outline" data-name="Icon material-play-circle-outline" d="M5.434,7.412,7.26,6.043,5.434,4.673ZM6.043,3A3.043,3.043,0,1,0,9.085,6.043,3.044,3.044,0,0,0,6.043,3Zm0,5.477A2.434,2.434,0,1,1,8.477,6.043,2.437,2.437,0,0,1,6.043,8.477Z" transform="translate(2.019 -0.323)" fill="#cae2bc"></path></g></g></g></svg>