<svg xmlns="http://www.w3.org/2000/svg" width="50" height="50" viewBox="0 0 50 50" fill="none"><g id="Group 45159"><g id="Rectangle 8107" filter="url(#filter0_i_4014_16966)"><rect width="50" height="50" rx="6" fill="#313432"></rect></g><g id="Group 5130"><g id="Group 5093"><g id="Group 5092"><rect id="Rectangle 22894" x="10.2887" y="14.4" width="30.9778" height="21.2" rx="0.6" stroke="#CAE2BC" stroke-width="0.8"></rect><path id="Rectangle 22895" d="M9.98242 15C9.98242 14.4477 10.4301 14 10.9824 14H40.2901C40.8424 14 41.2901 14.4477 41.2901 15V18.2308H9.98242V15Z" fill="#CAE2BC"></path></g><g id="Group 5131"><circle id="Ellipse 1584" cx="12.5688" cy="16.3276" r="0.846154" fill="#E31D1D"></circle><circle id="Ellipse 1585" cx="15.1079" cy="16.3276" r="0.846154" fill="#FFB229"></circle><circle id="Ellipse 1586" cx="17.645" cy="16.3276" r="0.846154" fill="#69E420"></circle></g></g><g id="Group 45162"><path id="Vector 53" d="M10.6836 30H18.0001L21.0001 27L24.0001 30L27.0001 25L31.0001 29L35.0001 26H40.8672" stroke="#59A52C" stroke-linejoin="round"></path><circle id="Ellipse 767" cx="21" cy="27" r="1" fill="#CAE2BC"></circle><circle id="Ellipse 772" cx="18" cy="30" r="1" fill="#CAE2BC"></circle><circle id="Ellipse 768" cx="24" cy="30" r="1" fill="#CAE2BC"></circle><circle id="Ellipse 769" cx="27" cy="25" r="1" fill="#CAE2BC"></circle><circle id="Ellipse 770" cx="31" cy="29" r="1" fill="#CAE2BC"></circle><circle id="Ellipse 771" cx="35" cy="26" r="1" fill="#CAE2BC"></circle></g></g></g><defs><filter id="filter0_i_4014_16966" x="0" y="0" width="52" height="54" color-interpolation-filters="sRGB"><feGaussianBlur stdDeviation="3.5"></feGaussianBlur></filter></defs></svg>