<svg xmlns="http://www.w3.org/2000/svg" width="50" height="50" viewBox="0 0 50 50" fill="none"><g id="Group 45158"><g id="Rectangle 8107" filter="url(#filter0_i_4011_16874)"><rect width="50" height="50" rx="6" fill="#313432"></rect></g><g id="Group 45159"><g id="Group 45157"><rect id="Rectangle 8108" x="8" y="21" width="29" height="13" rx="2" fill="#CAE2BC"></rect><g id="Video Encoding Icon"><g id="Group 4694"><g id="Group 4695"><path id="Path 24818" d="M13.8825 29.8391H15.0989V25.0459H13V26.0236H13.8825V29.8391Z" fill="#4FA83D"></path><path id="Path 24819" d="M18.1765 29.8725C19.5308 29.8725 20.2896 29.0042 20.2896 27.4382C20.2896 25.8722 19.5308 25.0054 18.1765 25.0054C16.8222 25.0054 16.0449 25.8736 16.0449 27.4325C16.0449 28.9914 16.8094 29.8725 18.1765 29.8725ZM18.1765 25.8935C18.7776 25.8935 19.0448 26.3383 19.0448 27.4311C19.0448 28.5239 18.779 28.9843 18.1765 28.9843C17.574 28.9843 17.3011 28.5324 17.3011 27.4396C17.3011 26.3468 17.5612 25.9006 18.1765 25.9006V25.8935Z" fill="#4FA83D"></path><path id="Path 24820" d="M20.8047 28.5043C20.8047 29.3569 21.5707 29.8927 22.7672 29.8927C23.9637 29.8927 24.7296 29.3456 24.7296 28.4844C24.7262 28.2202 24.6429 27.9631 24.4908 27.747C24.3386 27.531 24.1247 27.366 23.877 27.2737C24.0586 27.1788 24.2107 27.0358 24.3167 26.8604C24.4227 26.685 24.4785 26.4839 24.4781 26.2789C24.4781 25.4931 23.8145 25 22.7615 25C21.7085 25 21.0562 25.486 21.0562 26.2519C21.0656 26.4663 21.132 26.6744 21.2487 26.8545C21.3654 27.0346 21.528 27.1803 21.7199 27.2765C21.4599 27.3628 21.2328 27.5269 21.0691 27.7464C20.9054 27.966 20.8131 28.2306 20.8047 28.5043ZM22.7672 25.7972C23.212 25.7972 23.4578 25.9962 23.4578 26.3514C23.4578 26.7067 23.212 26.8843 22.7672 26.8843C22.3224 26.8843 22.0765 26.6925 22.0765 26.3514C22.0765 26.0104 22.3224 25.7972 22.7672 25.7972ZM22.7672 27.7597C23.293 27.7597 23.5871 27.9856 23.5871 28.3821C23.5871 28.7786 23.293 29.0116 22.7672 29.0116C22.2414 29.0116 21.9529 28.7857 21.9529 28.3821C21.9529 27.9785 22.2414 27.7583 22.7686 27.7583L22.7672 27.7597Z" fill="#4FA83D"></path><path id="Path 24821" d="M27.3718 29.8726C28.7261 29.8726 29.4849 29.0044 29.4849 27.4384C29.4849 25.8724 28.7261 25.0112 27.3718 25.0112C26.0176 25.0112 25.2402 25.8795 25.2402 27.4384C25.2402 28.9973 26.0048 29.8726 27.3718 29.8726ZM27.3718 25.8937C27.9729 25.8937 28.2401 26.3385 28.2401 27.4313C28.2401 28.5241 27.9729 28.976 27.3718 28.976C26.7707 28.976 26.4964 28.5241 26.4964 27.4313C26.4964 26.3385 26.7565 25.9008 27.3718 25.9008V25.8937Z" fill="#4FA83D"></path><path id="Path 24822" d="M30.6491 29.1385H31.0981C31.2262 29.1564 31.3567 29.1456 31.4801 29.107C31.6036 29.0684 31.7169 29.0029 31.8121 28.9153C31.9072 28.8276 31.9817 28.72 32.0302 28.6001C32.0788 28.4802 32.1002 28.3511 32.0928 28.222C32.0928 27.6706 31.7291 27.3594 31.0981 27.3594H30.0195V29.8363H30.6491V29.1385ZM30.6491 27.8596H31.0668C31.3425 27.8596 31.5017 27.9903 31.5017 28.249C31.5017 28.5076 31.3425 28.6483 31.0668 28.6483H30.6491V27.8596Z" fill="#4FA83D"></path></g></g></g></g><circle id="Ellipse 1628" cx="37.5" cy="20.5" r="6.25" fill="#59A52C" stroke="white" stroke-width="0.5"></circle><g id="Live Trancoding"><g id="Solid"><path id="Path 13734" d="M35.3334 24.0296C35.2857 24.0297 35.2385 24.0203 35.1944 24.0021C35.1503 23.9839 35.1103 23.9571 35.0766 23.9233L34.1083 22.955C34.0575 22.9042 34.0229 22.8395 34.0089 22.7691C33.9949 22.6986 34.0021 22.6256 34.0296 22.5592C34.0571 22.4928 34.1036 22.4361 34.1633 22.3962C34.2231 22.3562 34.2933 22.3349 34.3651 22.3349H39.208C39.497 22.3349 39.7742 22.2201 39.9786 22.0157C40.183 21.8113 40.2978 21.5341 40.2978 21.2451C40.2978 20.956 40.183 20.6789 39.9786 20.4745C39.7742 20.2701 39.497 20.1553 39.208 20.1553H35.8178C35.7693 20.1565 35.7211 20.148 35.676 20.1303C35.6308 20.1126 35.5897 20.086 35.555 20.0522C35.5203 20.0183 35.4927 19.9779 35.4738 19.9332C35.455 19.8885 35.4453 19.8405 35.4453 19.7921C35.4453 19.7436 35.455 19.6956 35.4738 19.6509C35.4927 19.6062 35.5203 19.5658 35.555 19.5319C35.5897 19.4981 35.6308 19.4715 35.676 19.4538C35.7211 19.4361 35.7693 19.4276 35.8178 19.4288H39.208C39.6897 19.4288 40.1517 19.6202 40.4923 19.9608C40.8329 20.3014 41.0242 20.7634 41.0242 21.2451C41.0242 21.7268 40.8329 22.1887 40.4923 22.5294C40.1517 22.87 39.6897 23.0613 39.208 23.0613H35.2426L35.5912 23.4099C35.6419 23.4607 35.6765 23.5255 35.6905 23.5959C35.7045 23.6664 35.6973 23.7394 35.6698 23.8058C35.6424 23.8721 35.5958 23.9289 35.5361 23.9688C35.4764 24.0087 35.4062 24.0301 35.3343 24.0301L35.3334 24.0296Z" fill="#CAE2BC"></path><path id="Path 13735" d="M39.2067 21.608H35.8163C35.3346 21.608 34.8726 21.4167 34.532 21.0761C34.1914 20.7354 34 20.2735 34 19.7918C34 19.3101 34.1914 18.8481 34.532 18.5075C34.8726 18.1669 35.3346 17.9755 35.8163 17.9755H39.7923L39.4464 17.6249C39.4115 17.5912 39.3837 17.5509 39.3646 17.5063C39.3456 17.4617 39.3356 17.4137 39.3353 17.3652C39.3351 17.3167 39.3446 17.2687 39.3632 17.2239C39.3818 17.1791 39.4092 17.1385 39.4437 17.1045C39.4783 17.0704 39.5193 17.0437 39.5644 17.0257C39.6094 17.0078 39.6576 16.9991 39.7061 17.0001C39.7546 17.0011 39.8024 17.0118 39.8467 17.0315C39.891 17.0513 39.9309 17.0797 39.964 17.1151L40.9176 18.0834C40.9678 18.1345 41.0018 18.1992 41.0153 18.2695C41.0288 18.3398 41.0213 18.4125 40.9936 18.4786C40.966 18.5446 40.9194 18.601 40.8598 18.6406C40.8002 18.6803 40.7303 18.7015 40.6587 18.7015H35.8163C35.6731 18.7015 35.5314 18.7297 35.3992 18.7845C35.267 18.8392 35.1468 18.9195 35.0456 19.0207C34.9445 19.1219 34.8642 19.242 34.8094 19.3743C34.7546 19.5065 34.7265 19.6482 34.7265 19.7913C34.7265 19.9344 34.7546 20.0761 34.8094 20.2084C34.8642 20.3406 34.9445 20.4607 35.0456 20.5619C35.1468 20.6631 35.267 20.7434 35.3992 20.7982C35.5314 20.8529 35.6731 20.8811 35.8163 20.8811H39.2067C39.2551 20.8799 39.3034 20.8884 39.3485 20.9061C39.3936 20.9238 39.4348 20.9504 39.4695 20.9842C39.5042 21.0181 39.5318 21.0585 39.5506 21.1032C39.5695 21.1479 39.5792 21.1959 39.5792 21.2443C39.5792 21.2928 39.5695 21.3408 39.5506 21.3855C39.5318 21.4302 39.5042 21.4706 39.4695 21.5045C39.4348 21.5383 39.3936 21.5649 39.3485 21.5826C39.3034 21.6003 39.2551 21.6088 39.2067 21.6076V21.608Z" fill="#CAE2BC"></path></g></g></g></g><defs><filter id="filter0_i_4011_16874" x="0" y="0" width="52" height="54" color-interpolation-filters="sRGB"><feGaussianBlur stdDeviation="3.5"></feGaussianBlur></filter></defs></svg>