<svg xmlns="http://www.w3.org/2000/svg" width="50" height="50" viewBox="0 0 50 50" fill="none"><g id="Group 45158"><g id="Rectangle 8107" filter="url(#filter0_i_4014_16952)"><rect width="50" height="50" rx="6" fill="#313432"></rect></g><g id="Cloud Storage Icon"><path id="Icon open-cloud-download" d="M27.1878 12C25.2227 11.9954 23.315 12.662 21.7806 13.8896C20.2461 15.1172 19.177 16.8321 18.7503 18.7503C16.9616 18.7555 15.2477 19.4684 13.9829 20.7332C12.7181 21.998 12.0052 23.7119 12 25.5006C12.0074 26.6912 12.3337 27.8581 12.945 28.8798H22.1248V27.1878C22.145 25.8585 22.6872 24.5904 23.6344 23.6575C24.5816 22.7246 25.8577 22.2017 27.1872 22.2017C28.5167 22.2017 29.7929 22.7246 30.7401 23.6575C31.6872 24.5904 32.2295 25.8585 32.2496 27.1878V28.8751H38.6958C38.9003 28.3362 39.0034 27.7642 38.9999 27.1878C38.9988 26.1047 38.6774 25.0461 38.0761 24.1452C37.4749 23.2443 36.6205 22.5414 35.6207 22.1248V20.4376C35.6198 18.2009 34.7312 16.056 33.15 14.474C31.5689 12.892 29.4245 12.0022 27.1878 12Z" fill="#CAE2BC"></path><path id="Icon open-cloud-download_2" d="M27.7279 38.9723C28.0772 38.855 28.3785 38.6265 28.5858 38.3219C28.793 38.0172 28.8948 37.653 28.8757 37.285V32.2221H33.9375L27.1872 25.4718L20.437 32.2221H25.5V37.285C25.4959 37.5347 25.5472 37.7822 25.6503 38.0096C25.7535 38.237 25.9058 38.4386 26.0963 38.6001C26.2868 38.7615 26.5107 38.8786 26.752 38.943C26.9932 39.0073 27.2458 39.0174 27.4914 38.9723C27.5589 38.9764 27.6266 38.9764 27.6941 38.9723H27.7279Z" fill="#59A52C"></path></g></g><defs><filter id="filter0_i_4014_16952" x="0" y="0" width="52" height="54" color-interpolation-filters="sRGB"><feGaussianBlur stdDeviation="3.5"></feGaussianBlur></filter></defs></svg>