<svg xmlns="http://www.w3.org/2000/svg" width="50" height="50" viewBox="0 0 50 50" fill="none"><g id="Group 45160"><g id="Rectangle 8107" filter="url(#filter0_i_4011_16900)"><rect width="50" height="50" rx="6" fill="#313432"></rect></g><g id="Video Player Icon"><path id="Vector" d="M36.5753 31.8719C36.4665 31.8585 36.3568 31.8528 36.2472 31.855C33.2635 31.855 30.2791 31.8561 27.2941 31.8583C27.1113 31.8583 27.0241 31.8137 26.958 31.63C26.6936 30.8955 25.9211 30.3789 25.1392 30.3878C24.3484 30.3962 23.6059 30.8941 23.3402 31.6244C23.2703 31.817 23.1728 31.8587 22.9863 31.8587C19.885 31.8536 16.7842 31.8587 13.683 31.8517C13.3675 31.8508 13.1163 31.922 13 32.2502V32.4845C13.1448 32.7695 13.3848 32.8497 13.6919 32.8492C16.8006 32.8436 19.9098 32.8492 23.02 32.8417C23.193 32.8417 23.275 32.8839 23.3383 33.0578C23.6073 33.7998 24.3588 34.307 25.1519 34.3075C25.9347 34.3075 26.6894 33.8073 26.957 33.0794C27.0273 32.8877 27.1192 32.8417 27.3081 32.8417C30.2916 32.8473 33.2759 32.8483 36.2613 32.8445C36.378 32.8464 36.4946 32.8371 36.6095 32.8169C36.7215 32.7954 36.8222 32.7347 36.8933 32.6455C36.9645 32.5565 37.0015 32.4449 36.9977 32.331C36.9939 32.217 36.9496 32.1081 36.8726 32.024C36.7957 31.9398 36.6913 31.8859 36.5781 31.8719H36.5753ZM25.1584 33.3175C24.967 33.3189 24.7794 33.2637 24.6194 33.1585C24.4593 33.0534 24.334 32.9033 24.2593 32.727C24.1846 32.5508 24.1638 32.3563 24.1996 32.1682C24.2354 31.9801 24.3261 31.8069 24.4603 31.6703C24.5944 31.5337 24.7661 31.44 24.9535 31.401C25.141 31.362 25.3358 31.3794 25.5133 31.451C25.6909 31.5226 25.8432 31.6453 25.9511 31.8035C26.059 31.9616 26.1175 32.1482 26.1194 32.3397C26.1177 32.5956 26.0165 32.8408 25.8371 33.0234C25.6577 33.2059 25.4143 33.3114 25.1584 33.3175Z" fill="#59A52C"></path><path id="Vector_2" d="M25.1548 30.3452C24.7588 30.3451 24.3717 30.4624 24.0424 30.6824C23.7131 30.9023 23.4565 31.215 23.3049 31.5808C23.1533 31.9466 23.1136 32.3492 23.1908 32.7375C23.2679 33.1259 23.4586 33.4827 23.7385 33.7627C24.0185 34.0428 24.3752 34.2335 24.7636 34.3108C25.152 34.3881 25.5545 34.3484 25.9204 34.1969C26.2862 34.0454 26.599 33.7888 26.8189 33.4596C27.039 33.1303 27.1564 32.7432 27.1564 32.3472C27.1564 31.8163 26.9455 31.3072 26.5702 30.9318C26.1948 30.5563 25.6857 30.3454 25.1548 30.3452ZM26.0801 32.3435C26.0801 32.5235 26.0267 32.6996 25.9267 32.8492C25.8267 32.9989 25.6845 33.1156 25.5182 33.1845C25.3518 33.2534 25.1688 33.2714 24.9922 33.2363C24.8156 33.2012 24.6535 33.1145 24.5261 32.9872C24.3988 32.8599 24.3122 32.6977 24.277 32.5211C24.2419 32.3445 24.2599 32.1615 24.3288 31.9951C24.3977 31.8288 24.5144 31.6866 24.6641 31.5866C24.8138 31.4866 24.9898 31.4332 25.1698 31.4332C25.4112 31.4333 25.6427 31.5293 25.8134 31.6999C25.9841 31.8706 26.08 32.1021 26.0801 32.3435Z" fill="#59A52C"></path><path id="Vector_3" d="M35.7344 15H14.2656C13.5666 15 13 15.5666 13 16.2656V27.7969C13 28.4959 13.5666 29.0625 14.2656 29.0625H35.7344C36.4334 29.0625 37 28.4959 37 27.7969V16.2656C37 15.5666 36.4334 15 35.7344 15Z" fill="#CAE1BC"></path><path id="Vector_4" d="M21.1603 17.3901H28.8361C28.9844 17.441 29.0887 17.5271 29.0773 17.6992C29.0563 18.0077 29.0334 18.316 29.0088 18.6241C28.9752 19.0571 28.9393 19.4939 28.9057 19.9291C28.8785 20.2706 28.8513 20.6121 28.8263 20.9536C28.7923 21.3888 28.7577 21.8237 28.7226 22.2585C28.696 22.6 28.6683 22.9415 28.6439 23.2831C28.6098 23.7211 28.575 24.1591 28.5396 24.5972C28.5195 24.8569 28.4967 25.1168 28.4809 25.3766C28.47 25.5595 28.3766 25.6585 28.2029 25.7116C27.6223 25.8891 27.0444 26.0747 26.4649 26.2577L25.0164 26.7183H24.98L24.8247 26.6701L23.4609 26.2371C22.8993 26.0596 22.3381 25.8826 21.7772 25.7061C21.629 25.6596 21.5334 25.5762 21.5231 25.4134C21.5133 25.2618 21.5003 25.1108 21.4883 24.9598C21.4481 24.4586 21.4068 23.9569 21.3672 23.4557C21.3335 23.0265 21.3031 22.5973 21.2694 22.1681C21.2298 21.667 21.1874 21.1652 21.1483 20.664C21.1147 20.2348 21.0837 19.8057 21.0505 19.3765C21.0098 18.8444 20.9658 18.3129 20.9267 17.7814C20.9072 17.5357 20.9392 17.4892 21.1603 17.3901ZM22.668 22.6861C22.668 22.7137 22.668 22.7256 22.668 22.7375C22.7063 23.2484 22.7445 23.7594 22.7826 24.2703C22.7869 24.3304 22.8211 24.3439 22.8678 24.3585C23.557 24.575 24.2462 24.7915 24.936 25.008C24.9759 25.0196 25.0183 25.0196 25.0582 25.008C25.748 24.7915 26.4372 24.575 27.1264 24.3585C27.172 24.3444 27.2095 24.3319 27.2128 24.2713C27.222 24.0987 27.2366 23.9266 27.2502 23.7545C27.2759 23.4189 27.3018 23.0833 27.3279 22.7478C27.3677 22.252 27.4077 21.7564 27.4479 21.261C27.4475 21.238 27.4453 21.215 27.4414 21.1923H27.3192C26.1464 21.1923 24.9738 21.1923 23.8014 21.1923C23.7113 21.1923 23.6863 21.162 23.6841 21.0792C23.682 20.9964 23.6662 20.9049 23.657 20.8172L23.5809 20.106H23.6982C24.9409 20.106 26.1835 20.106 27.4262 20.106C27.5087 20.106 27.5413 20.0914 27.5457 19.9978C27.5593 19.7342 27.5843 19.4717 27.6081 19.2092C27.6201 19.0831 27.6228 19.0815 27.4946 19.0815H22.4979C22.4626 19.0815 22.4268 19.0853 22.3812 19.0885C22.3877 19.1654 22.3937 19.2341 22.3991 19.305C22.4317 19.7342 22.4632 20.164 22.4969 20.5932C22.5365 21.0976 22.5816 21.602 22.6153 22.1086C22.6218 22.2027 22.6506 22.2217 22.7385 22.2212C23.8928 22.2183 25.0471 22.2183 26.2015 22.2212H26.3139C26.2829 22.6287 26.252 23.0217 26.2253 23.4119C26.2265 23.4354 26.2185 23.4585 26.203 23.4763C26.1875 23.4941 26.1658 23.5054 26.1423 23.5077C25.7925 23.5992 25.4444 23.6966 25.0951 23.7891C25.0543 23.7994 25.0116 23.7994 24.9708 23.7891C24.615 23.696 24.2615 23.5975 23.9057 23.5055C23.8433 23.4893 23.8319 23.46 23.8324 23.4043C23.8324 23.1916 23.8324 22.9794 23.8324 22.7667C23.8324 22.698 23.8112 22.679 23.7439 22.6801C23.5266 22.6839 23.305 22.6801 23.0862 22.6801L22.668 22.6861Z" fill="#59A52C"></path><path id="Vector_5" d="M22.6616 22.6876H23.0823C23.3003 22.6876 23.5221 22.6904 23.7423 22.6876C23.8099 22.6876 23.8328 22.7055 23.8311 22.7745C23.8273 22.9878 23.8311 23.2006 23.8311 23.414C23.8311 23.4683 23.842 23.4992 23.9047 23.5155C24.2616 23.6078 24.6164 23.7066 24.9733 23.7999C25.0143 23.8103 25.0572 23.8103 25.0982 23.7999C25.4485 23.7071 25.7979 23.6094 26.1488 23.5177C26.1724 23.5153 26.1942 23.5041 26.2098 23.4862C26.2253 23.4683 26.2333 23.4452 26.2322 23.4216C26.2589 23.0274 26.29 22.6334 26.321 22.2273H26.2082C25.0504 22.2273 23.8922 22.2273 22.7336 22.2273C22.6453 22.2273 22.6164 22.2088 22.6099 22.1144C22.5761 21.6073 22.5309 21.1014 22.4911 20.5943C22.4573 20.1638 22.4257 19.7328 22.393 19.3023C22.3875 19.2334 22.3816 19.1644 22.375 19.0852C22.4208 19.0819 22.4568 19.0781 22.4922 19.0781H27.5058C27.6344 19.0781 27.6317 19.0781 27.6197 19.2062C27.5957 19.4695 27.5706 19.7328 27.557 19.9972C27.5526 20.0895 27.5199 20.1058 27.4371 20.1058C26.1903 20.1036 24.9434 20.1036 23.6965 20.1058H23.5788L23.6551 20.8191C23.6643 20.907 23.6802 20.9944 23.6823 21.0818C23.6845 21.1692 23.7096 21.1958 23.8 21.1953C24.9764 21.1924 26.153 21.1924 27.3297 21.1953H27.4534C27.4574 21.2181 27.4596 21.2411 27.46 21.2642C27.4204 21.7615 27.3802 22.2586 27.3395 22.7555C27.3127 23.0921 27.2867 23.4286 27.2616 23.7652C27.248 23.9378 27.2333 24.1105 27.224 24.2836C27.2208 24.3444 27.1832 24.357 27.1374 24.3711C26.4458 24.5882 25.7543 24.8054 25.0622 25.0225C25.0221 25.0342 24.9796 25.0342 24.9396 25.0225C24.2475 24.8054 23.5559 24.5882 22.8644 24.3711C22.8175 24.3564 22.7832 24.3428 22.7788 24.2826C22.7425 23.7701 22.7042 23.2576 22.6638 22.7452C22.6611 22.7273 22.6616 22.7148 22.6616 22.6876Z" fill="#CAE1BC"></path></g></g><defs><filter id="filter0_i_4011_16900" x="0" y="0" width="52" height="54" color-interpolation-filters="sRGB"><feGaussianBlur stdDeviation="3.5"></feGaussianBlur></filter></defs></svg>