<svg xmlns="http://www.w3.org/2000/svg" width="45" height="45" viewBox="0 0 45 45" fill="none"><circle cx="22.5" cy="22.5" r="22.5" fill="url(#paint0_radial_1962_15444)" fill-opacity="0.26"></circle><path d="M22.3648 33.67C24.2209 33.67 25.7257 32.1802 25.7257 30.3424C25.7257 28.5046 24.2209 27.0148 22.3648 27.0148C20.5086 27.0148 19.0039 28.5046 19.0039 30.3424C19.0039 32.1802 20.5086 33.67 22.3648 33.67Z" stroke="#DDDDDD" stroke-width="2.92724" stroke-linecap="round" stroke-linejoin="round"></path><path d="M29.566 19.409C31.4221 19.409 32.9268 17.9192 32.9268 16.0814C32.9268 14.2436 31.4221 12.7538 29.566 12.7538C27.7098 12.7538 26.2051 14.2436 26.2051 16.0814C26.2051 17.9192 27.7098 19.409 29.566 19.409Z" stroke="#DDDDDD" stroke-width="2.92724" stroke-linecap="round" stroke-linejoin="round"></path><path d="M15.1617 19.409C17.0178 19.409 18.5225 17.9192 18.5225 16.0814C18.5225 14.2436 17.0178 12.7538 15.1617 12.7538C13.3055 12.7538 11.8008 14.2436 11.8008 16.0814C11.8008 17.9192 13.3055 19.409 15.1617 19.409Z" stroke="#DDDDDD" stroke-width="2.92724" stroke-linecap="round" stroke-linejoin="round"></path><path d="M15.1621 19.4084V20.3592C15.1605 20.7342 15.234 21.1058 15.3782 21.4526C15.5224 21.7993 15.7345 22.1144 16.0023 22.3795C16.2702 22.6447 16.5884 22.8547 16.9386 22.9975C17.2888 23.1403 17.6641 23.213 18.0429 23.2114H26.6851C27.0639 23.213 27.4392 23.1403 27.7894 22.9975C28.1397 22.8547 28.4579 22.6447 28.7257 22.3795C28.9935 22.1144 29.2056 21.7993 29.3498 21.4526C29.4941 21.1058 29.5675 20.7342 29.5659 20.3592V19.4084" stroke="#DDDDDD" stroke-width="2.92724" stroke-linecap="round" stroke-linejoin="round"></path><path d="M22.3633 23.213V27.016" stroke="#DDDDDD" stroke-width="2.92724" stroke-linecap="round" stroke-linejoin="round"></path><defs><radialGradient id="paint0_radial_1962_15444" cx="0" cy="0" r="1" gradientUnits="userSpaceOnUse" gradientTransform="translate(22.5 22.5) rotate(90.5907) scale(48.5026)"><stop stop-color="#4FA83D"></stop><stop offset="0.46875" stop-color="#22CB00" stop-opacity="0.53125"></stop><stop offset="1" stop-opacity="0"></stop></radialGradient></defs></svg>