<svg xmlns="http://www.w3.org/2000/svg" width="106" height="86" viewBox="0 0 106 86" fill="none"><g id="Group 45060"><g id="Group 45074"><g id="Group 45073"><rect id="Rectangle 13" x="2.854" y="0.934082" width="81.1441" height="58.7173" fill="#CAE2BC"></rect><g id="Group 45033"><path id="Vector 3" d="M7.33984 35.5026V49.0499H79.1791V7.86621L65.0899 21.7231L62.0708 18.5492L56.2648 25.1293L53.5554 21.7231L52.0845 23.1166L46.6656 18.5492L45.427 19.8652L39.8533 14.9882L28.551 25.1293L26.1512 23.1166L19.0292 29.8515L16.0101 27.142L7.33984 35.5026Z" fill="url(#paint0_linear_3176_21787)"></path><g id="Group 45032"><rect id="Rectangle 2" x="7.33984" y="41.4639" width="3.561" height="7.58647" fill="#4FA83D"></rect><rect id="Rectangle 3" x="14.1523" y="35.2705" width="3.561" height="13.7795" fill="#4FA83D"></rect><rect id="Rectangle 4" x="20.9644" y="33.5674" width="3.561" height="15.4826" fill="#4FA83D"></rect><rect id="Rectangle 5" x="27.7769" y="38.5225" width="3.561" height="10.5282" fill="#4FA83D"></rect><rect id="Rectangle 6" x="34.5894" y="42.2373" width="3.561" height="6.81234" fill="#4FA83D"></rect><rect id="Rectangle 7" x="41.4014" y="35.2705" width="3.561" height="13.7795" fill="#4FA83D"></rect><rect id="Rectangle 8" x="48.2139" y="26.9102" width="3.561" height="22.1401" fill="#4FA83D"></rect><rect id="Rectangle 9" x="55.0264" y="30.0063" width="3.561" height="19.0436" fill="#4FA83D"></rect><rect id="Rectangle 10" x="61.8384" y="37.1289" width="3.561" height="11.9216" fill="#4FA83D"></rect><rect id="Rectangle 11" x="68.6509" y="32.0195" width="3.561" height="17.0308" fill="#4FA83D"></rect><rect id="Rectangle 12" x="75.4629" y="23.3491" width="3.561" height="25.7011" fill="#4FA83D"></rect></g></g><path id="Vector 4" d="M57.4505 72.7002V66.9916H76.7941V54.555H2.90154V3.78893H83.7577V43.9532H86.8527V0.526855H0V66.9916H30.5629V72.7002H20.6976V78.8166H65.9616V72.7002H57.4505Z" fill="#4FA83D"></path></g><path id="Vector" d="M93.7696 70.3962L93.2372 71.0603L93.8391 71.6621L103.782 81.6023L101.618 83.7656L91.6782 73.823L91.0764 73.2211L90.4123 73.7535C86.6327 76.7833 81.9315 78.4313 77.0874 78.4244H77.0861C65.2987 78.4244 55.7316 68.8573 55.7316 57.07C55.7316 45.2826 65.2987 35.7155 77.0861 35.7155C88.8735 35.7155 98.4405 45.2826 98.4405 57.07V57.0713C98.4474 61.9154 96.7994 66.6166 93.7696 70.3962Z" fill="#CAE2BC" stroke="#4FA83D" stroke-width="1.89975"></path></g></g><defs><linearGradient id="paint0_linear_3176_21787" x1="43.2594" y1="7.86621" x2="43.2594" y2="49.0499" gradientUnits="userSpaceOnUse"><stop offset="0.286458" stop-color="#4FA83D"></stop><stop offset="0.703125" stop-color="#4FA83D" stop-opacity="0"></stop></linearGradient></defs></svg>