<svg xmlns="http://www.w3.org/2000/svg" width="44" height="25" viewBox="0 0 44 25" fill="none"><path d="M6.66666 18.9698L5.12109 17.4208L15.5894 6.97157H21.4315L22.9667 8.60391L28.0954 13.724L36.5409 5.26025L38.0899 6.80581L28.0989 16.8142L21.3846 10.1156L20.4856 9.16104H16.4937L6.66666 18.9698Z" fill="#59A52C"></path><path d="M18.4681 10.0985C20.5927 10.0985 22.3151 8.37615 22.3151 6.25152C22.3151 4.12689 20.5927 2.40454 18.4681 2.40454C16.3434 2.40454 14.6211 4.12689 14.6211 6.25152C14.6211 8.37615 16.3434 10.0985 18.4681 10.0985Z" fill="#59A52C"></path><path d="M28.097 19.7223C30.2216 19.7223 31.944 17.9999 31.944 15.8753C31.944 13.7507 30.2216 12.0283 28.097 12.0283C25.9724 12.0283 24.25 13.7507 24.25 15.8753C24.25 17.9999 25.9724 19.7223 28.097 19.7223Z" fill="#59A52C"></path><path d="M39.6439 8.17883C41.7685 8.17883 43.4908 6.45648 43.4908 4.33185C43.4908 2.20722 41.7685 0.484863 39.6439 0.484863C37.5192 0.484863 35.7969 2.20722 35.7969 4.33185C35.7969 6.45648 37.5192 8.17883 39.6439 8.17883Z" fill="#59A52C"></path><path d="M8.7353 20.6062C9.22346 18.5384 7.94291 16.4664 5.87512 15.9783C3.80733 15.4901 1.73533 16.7707 1.24717 18.8385C0.759011 20.9062 2.03956 22.9782 4.10735 23.4664C6.17514 23.9546 8.24714 22.674 8.7353 20.6062Z" fill="#59A52C"></path></svg>