<svg xmlns="http://www.w3.org/2000/svg" width="86" height="87" viewBox="0 0 86 87" fill="none"><rect x="0.972222" y="60.8611" width="8.05556" height="13.6111" stroke="#4FA83D" stroke-width="1.94444"></rect><rect x="0.972222" y="60.8611" width="8.05556" height="13.6111" stroke="#4FA83D" stroke-width="1.94444"></rect><rect x="16.9722" y="49.1944" width="8.05556" height="25.2778" stroke="#4FA83D" stroke-width="1.94444"></rect><rect x="16.9722" y="49.1944" width="8.05556" height="25.2778" stroke="#4FA83D" stroke-width="1.94444"></rect><rect x="32.9722" y="54.3796" width="8.05556" height="20.0926" stroke="#4FA83D" stroke-width="1.94444"></rect><rect x="32.9722" y="54.3796" width="8.05556" height="20.0926" stroke="#4FA83D" stroke-width="1.94444"></rect><rect x="48.9722" y="33.6388" width="8.05556" height="40.8333" stroke="#4FA83D" stroke-width="1.94444"></rect><rect x="48.9722" y="33.6388" width="8.05556" height="40.8333" stroke="#4FA83D" stroke-width="1.94444"></rect><rect x="64.9722" y="21.9722" width="8.05556" height="52.5" stroke="#4FA83D" stroke-width="1.94444"></rect><rect x="64.9722" y="21.9722" width="8.05556" height="52.5" stroke="#4FA83D" stroke-width="1.94444"></rect><rect y="74.1392" width="71.7407" height="3.49955" fill="#4FA83D"></rect><path d="M5 42.5001L22.0599 20.0784C22.3333 19.7191 22.7739 19.528 23.2231 19.5738L46.4484 21.9437C46.8007 21.9797 47.1524 21.8699 47.4217 21.64L67.5 4.5" stroke="#4FA83D" stroke-width="1.2963"></path><circle cx="4.88889" cy="44.8889" r="3.88889" fill="#4FA83D"></circle><circle cx="22.8889" cy="19.8889" r="3.88889" fill="#4FA83D"></circle><circle cx="46.8889" cy="20.8889" r="3.88889" fill="#4FA83D"></circle><circle cx="67.8889" cy="3.88889" r="3.88889" fill="#4FA83D"></circle><circle cx="70.4442" cy="70.7038" r="15.5556" fill="#0D0E10"></circle><path d="M71.922 55.1482V58.2904C78.7509 59.1304 83.5887 65.3371 82.7487 72.166C82.0331 77.8282 77.5842 82.3237 71.922 82.9926V86.1037C80.4776 85.2482 86.6998 77.6571 85.8442 69.1015C85.1442 61.7126 79.2798 55.8793 71.922 55.1482ZM68.8109 55.1949C65.7776 55.4904 62.8842 56.6571 60.5198 58.6171L62.7442 60.9193C64.4865 59.5193 66.5864 58.6171 68.8109 58.306V55.1949ZM58.3265 60.8104C56.3815 63.1707 55.1845 66.0574 54.8887 69.1015H57.9998C58.2953 66.8926 59.1665 64.7926 60.5509 63.0349L58.3265 60.8104ZM54.9042 72.2126C55.2153 75.2615 56.4131 78.1393 58.342 80.5037L60.5509 78.2793C59.1772 76.5209 58.3015 74.4256 58.0153 72.2126H54.9042ZM62.7442 80.566L60.5198 82.6971C62.8761 84.6613 65.7609 85.8845 68.8109 86.2126V83.1015C66.598 82.8154 64.5026 81.9396 62.7442 80.566ZM71.1442 62.8793V71.046L78.1442 75.1993L76.9776 77.1126L68.8109 72.2126V62.8793H71.1442Z" fill="#4FA83D"></path></svg>