<svg width="58" height="58" viewBox="0 0 58 58" fill="none" xmlns="http://www.w3.org/2000/svg">
<circle cx="29.3618" cy="29.3281" r="28.5" fill="#2C2C2C"/>
<path fill-rule="evenodd" clip-rule="evenodd" d="M32.4293 18.7638C32.4293 18.7638 32.4293 18.7638 32.4288 18.7638L30.0496 18.7614C29.9035 18.7614 29.7848 18.6427 29.7848 18.4964C29.7848 18.3503 29.9035 18.2318 30.0496 18.2318H30.0501L32.1645 18.2339V15.9215C32.1645 15.7751 32.2832 15.6567 32.4293 15.6567C32.5754 15.6567 32.6941 15.7751 32.6941 15.9215V18.499C32.6941 18.5691 32.666 18.6367 32.6164 18.6863C32.5664 18.7357 32.4992 18.7638 32.4293 18.7638ZM32.4293 23.2479C34.0955 23.2479 35.6103 22.3983 36.481 20.9749C36.5577 20.8501 36.518 20.6872 36.3935 20.6108C36.2687 20.5345 36.1058 20.5737 36.0291 20.6985C35.2559 21.9633 33.9095 22.7183 32.4293 22.7183C30.1037 22.7183 28.2119 20.8265 28.2119 18.5011C28.2119 16.1758 30.1037 14.284 32.4293 14.284C34.5891 14.284 36.3751 15.9165 36.6182 18.0122L36.5086 17.9455C36.3835 17.8693 36.2209 17.9087 36.1447 18.0338C36.0682 18.1586 36.1082 18.3215 36.2324 18.3976L36.7697 18.725C36.8078 18.7492 36.8521 18.7636 36.8997 18.7657C36.9073 18.7663 36.9152 18.7663 36.9225 18.7657C36.9704 18.7636 37.0147 18.7492 37.0523 18.725L37.5893 18.3976C37.7144 18.3214 37.7541 18.1586 37.6779 18.0335C37.6017 17.9087 37.4386 17.8693 37.314 17.9455L37.154 18.043C36.9226 15.6399 34.892 13.7543 32.4293 13.7543C29.8118 13.7543 27.6821 15.8836 27.6821 18.5011C27.6822 21.1186 29.8118 23.2479 32.4293 23.2479Z" fill="#4FA83D"/>
<path d="M45.069 44.1166H42.729V29.6854C42.729 29.4688 42.5531 29.2929 42.3365 29.2929H37.8646C37.648 29.2929 37.472 29.4688 37.472 29.6854V44.1166H35.5743V35.3578C35.5743 35.1412 35.3983 34.9653 35.1818 34.9653H30.7098C30.4933 34.9653 30.3173 35.1412 30.3173 35.3578V44.1166H28.4195V32.2033C28.4195 31.9868 28.2435 31.8108 28.027 31.8108H23.555C23.3385 31.8108 23.1625 31.9868 23.1625 32.2033V44.1166H21.2647V37.1908C21.2647 36.9743 21.0888 36.7983 20.8722 36.7983H16.4009C16.1844 36.7983 16.0084 36.9743 16.0084 37.1908V44.1166H13.6684C13.4519 44.1166 13.2759 44.2926 13.2759 44.5091C13.2759 44.7256 13.4519 44.9016 13.6684 44.9016H45.069C45.2856 44.9016 45.4616 44.7256 45.4616 44.5091C45.4616 44.2926 45.2856 44.1166 45.069 44.1166ZM38.2577 30.0779H41.9447V44.1166H38.2577V30.0779ZM31.1029 35.7503H34.7899V44.1166H31.1029V35.7503ZM23.9482 32.5958H27.6351V44.1166H23.9482V32.5958ZM16.7934 37.5833H20.4804V44.1166H16.7934V37.5833ZM23.9495 26.8351L19.9511 30.458C19.5861 30.1786 19.1308 30.0118 18.6369 30.0118C17.4424 30.0118 16.4702 30.9839 16.4702 32.1785C16.4702 33.373 17.4424 34.3451 18.6369 34.3451C19.8314 34.3451 20.8035 33.373 20.8035 32.1785C20.8035 31.7604 20.6845 31.3706 20.4784 31.0389L24.4768 27.416C24.8418 27.6954 25.2971 27.8622 25.7917 27.8622C26.4373 27.8622 27.0176 27.5783 27.4147 27.1288L30.9185 29.2347C30.8295 29.4715 30.7798 29.7279 30.7798 29.9961C30.7798 31.1907 31.7519 32.1628 32.9464 32.1628C34.141 32.1628 35.1131 31.1907 35.1131 29.9961C35.1131 29.5644 34.9855 29.1627 34.7677 28.8245L38.817 25.0224C39.1768 25.288 39.621 25.445 40.1012 25.445C41.2957 25.445 42.2678 24.4729 42.2678 23.2783C42.2678 22.0838 41.2957 21.1117 40.1012 21.1117C38.9067 21.1117 37.9346 22.0838 37.9346 23.2783C37.9346 23.7101 38.0621 24.1118 38.28 24.45L34.2306 28.2521C33.8708 27.9865 33.4266 27.8295 32.9464 27.8295C32.3008 27.8295 31.7205 28.1134 31.3234 28.5628L27.8196 26.457C27.9086 26.2202 27.9583 25.9638 27.9583 25.6955C27.9583 24.501 26.9862 23.5289 25.7917 23.5289C24.5971 23.5289 23.625 24.501 23.625 25.6955C23.6244 26.1136 23.7434 26.5041 23.9495 26.8351ZM40.1012 21.8967C40.8633 21.8967 41.4828 22.5169 41.4828 23.2783C41.4828 24.0398 40.8627 24.66 40.1012 24.66C39.3397 24.66 38.7196 24.0398 38.7196 23.2783C38.7196 22.5169 39.3391 21.8967 40.1012 21.8967ZM32.9464 28.6145C33.7085 28.6145 34.3281 29.2347 34.3281 29.9961C34.3281 30.7576 33.7079 31.3777 32.9464 31.3777C32.185 31.3777 31.5648 30.7576 31.5648 29.9961C31.5648 29.2347 32.1843 28.6145 32.9464 28.6145ZM18.6362 33.5607C17.8741 33.5607 17.2546 32.9406 17.2546 32.1791C17.2546 31.4177 17.8748 30.7975 18.6362 30.7975C19.3977 30.7975 20.0179 31.4177 20.0179 32.1791C20.0179 32.9406 19.3984 33.5607 18.6362 33.5607ZM25.791 24.3139C26.5531 24.3139 27.1726 24.9341 27.1726 25.6955C27.1726 26.457 26.5525 27.0772 25.791 27.0772C25.0295 27.0772 24.4094 26.457 24.4094 25.6955C24.4094 24.9341 25.0295 24.3139 25.791 24.3139Z" fill="white"/>
</svg>
