<svg xmlns="http://www.w3.org/2000/svg" width="76.816" height="76.815" viewBox="0 0 76.816 76.815"><g id="Group_6094" data-name="Group 6094" transform="translate(-1463 -4311)"><g id="Group_5468" data-name="Group 5468" transform="translate(-257.125 2106.125)"><path id="Icon_ionic-ios-checkmark-circle" data-name="Icon ionic-ios-checkmark-circle" d="M41.783,3.375A38.408,38.408,0,1,0,80.191,41.783,38.4,38.4,0,0,0,41.783,3.375Zm19.666,27.79L36.76,55.964h-.018A3.335,3.335,0,0,1,34.6,56.98a3.233,3.233,0,0,1-2.16-1.053L22.1,45.587a.736.736,0,0,1,0-1.053l3.287-3.287a.714.714,0,0,1,1.034,0l8.2,8.2L57.146,26.752a.729.729,0,0,1,.517-.222h0a.671.671,0,0,1,.517.222l3.231,3.342A.728.728,0,0,1,61.448,31.165Z" transform="translate(1716.75 2201.5)" fill="#4fa83d"></path><circle id="Ellipse_1458" data-name="Ellipse 1458" cx="27.14" cy="27.14" r="27.14" transform="translate(1733.483 2213.568)" fill="#4fa83d"></circle></g><g id="Group_4274" data-name="Group 4274" transform="translate(-35.682 3300.945)"><path id="Path_14418" data-name="Path 14418" d="M1537.442,1041.061a20.781,20.781,0,1,0,20.8,20.781A20.771,20.771,0,0,0,1537.442,1041.061Zm14.4,12.468h-6.131a32.538,32.538,0,0,0-2.867-7.4A16.688,16.688,0,0,1,1551.844,1053.529Zm-14.381-8.229a29.269,29.269,0,0,1,3.969,8.229h-7.938A29.263,29.263,0,0,1,1537.463,1045.3Zm-5.382.831a32.529,32.529,0,0,0-2.868,7.4h-6.13A16.6,16.6,0,0,1,1532.081,1046.132Zm-9,24.023h6.13a32.526,32.526,0,0,0,2.868,7.4A16.6,16.6,0,0,1,1523.083,1070.155Zm14.38,8.229a29.259,29.259,0,0,1-3.969-8.229h7.938A29.265,29.265,0,0,1,1537.463,1078.384Zm5.382-.831a32.536,32.536,0,0,0,2.867-7.4h6.131A16.688,16.688,0,0,1,1542.845,1077.552Zm3.678-11.554c.035-.289.067-.579.1-.869h-4.185c-.035.29-.071.58-.11.869H1532.6c-.04-.289-.076-.579-.111-.869H1528.3q.046.435.1.869h-7.024a16.256,16.256,0,0,1,0-8.312h7.024q-.052.433-.1.868h4.184q.053-.436.112-.868h9.725c.04.287.076.577.111.868h4.184c-.031-.29-.062-.579-.1-.868h7.024a16.249,16.249,0,0,1,0,8.312Z" transform="translate(0 -13.007)" fill="#fff" stroke="#4fa83d" stroke-width="2"></path><g id="Group_4259" data-name="Group 4259" transform="translate(1523.952 1045.906)"><path id="Path_14419" data-name="Path 14419" d="M1538.919,1087.308h1.553l.892,4.22.914-4.22h1.6l-1.7,5.86H1540.6l-.919-4.268-.93,4.268h-1.591l-1.645-5.86h1.645l.913,4.2Z" transform="translate(-1535.516 -1087.308)" fill="#fff"></path><path id="Path_14420" data-name="Path 14420" d="M1561.591,1087.308h1.554l.892,4.22.914-4.22h1.6l-1.7,5.86h-1.575l-.919-4.268-.931,4.268h-1.591l-1.645-5.86h1.645l.915,4.2Z" transform="translate(-1549.437 -1087.308)" fill="#fff"></path><path id="Path_14421" data-name="Path 14421" d="M1584.257,1087.308h1.553l.892,4.22.914-4.22h1.6l-1.7,5.86h-1.575l-.919-4.268-.93,4.268H1582.5l-1.645-5.86h1.645l.914,4.2Z" transform="translate(-1563.354 -1087.308)" fill="#fff"></path><path id="Path_14422" data-name="Path 14422" d="M1602.582,1098.324h1.629v1.608h-1.629Z" transform="translate(-1576.695 -1094.072)" fill="#fff"></path></g></g></g></svg>