<svg xmlns="http://www.w3.org/2000/svg" width="100" height="95" viewBox="0 0 100 95" fill="none"><g clip-path="url(#clip0_284_4386)"><path d="M79.9175 49.2742C79.5828 49.7211 79.5048 50.2951 79.1474 50.7386C78.3871 51.6942 77.4124 52.2128 76.2038 52.2944C76.0023 52.3074 75.8009 52.3041 75.5994 52.3041C57.8432 52.3041 40.0871 52.3009 22.3276 52.3107C20.6121 52.3107 19.28 51.6942 18.458 50.1385C18.1298 49.5188 18.0421 48.8405 18.0453 48.1458C18.0453 44.4473 18.0453 40.752 18.0453 37.0535C18.0453 35.0477 18.9486 33.7725 20.8428 33.0647C20.9305 33.0321 21.0475 33.0321 21.067 32.9017H76.6554C77.2467 33.143 77.8673 33.2996 78.3969 33.704C79.1929 34.3139 79.5698 35.1684 79.9175 36.0523V49.271V49.2742ZM48.983 50.3668C57.905 50.3668 66.8269 50.3668 75.7457 50.3668C77.224 50.3668 77.981 49.6134 77.981 48.1392C77.981 44.4603 77.981 40.7814 77.981 37.1024C77.981 35.5891 77.2337 34.8455 75.7132 34.8455C57.892 34.8455 40.0676 34.8455 22.2464 34.8455C20.7291 34.8455 19.9818 35.5891 19.9818 37.1057C19.9818 40.7422 19.9818 44.382 19.9818 48.0186C19.9818 49.6558 20.6966 50.3668 22.3406 50.3668C31.2203 50.3668 40.1033 50.3668 48.983 50.3668Z" fill="url(#paint0_radial_284_4386)"/><path d="M79.9175 70.6173C79.6835 71.0739 79.4951 71.5598 79.2092 71.9773C78.5171 72.9786 77.5359 73.5232 76.324 73.6276C76.1031 73.6472 75.8821 73.6472 75.6612 73.6472C57.879 73.6472 40.0968 73.6472 22.3146 73.6537C20.5926 73.6537 19.2703 73.021 18.4547 71.4652C18.1493 70.8847 18.0518 70.2422 18.0518 69.5899C18.0518 65.8294 18.0421 62.0722 18.0551 58.3118C18.0648 55.8917 19.7089 54.248 22.1294 54.248C40.0318 54.2414 57.9375 54.2447 75.8399 54.248C77.8608 54.248 79.2254 55.2884 79.7973 57.2257C79.82 57.304 79.8232 57.3822 79.9207 57.3985V70.6173H79.9175ZM48.9213 71.7099C57.8628 71.7099 66.8042 71.7099 75.7457 71.7099C77.224 71.7099 77.981 70.9565 77.981 69.4823C77.981 65.8033 77.981 62.1244 77.981 58.4455C77.981 56.9322 77.2337 56.1853 75.7164 56.1853C57.8952 56.1853 40.0708 56.1853 22.2497 56.1853C20.7291 56.1853 19.9818 56.9289 19.9818 58.4422C19.9818 62.0787 19.9818 65.7185 19.9818 69.3551C19.9818 70.9956 20.6966 71.7066 22.3374 71.7066C31.1976 71.7066 40.0578 71.7066 48.9213 71.7066V71.7099Z" fill="url(#paint1_radial_284_4386)"/><path d="M79.9175 91.9636C79.6835 92.4202 79.4951 92.9062 79.2092 93.3236C78.5171 94.3249 77.5359 94.8696 76.324 94.9739C76.1031 94.9935 75.8821 94.9935 75.6612 94.9935C57.879 94.9935 40.0968 94.9935 22.3146 95C20.5926 95 19.2703 94.3673 18.4547 92.8116C18.1493 92.231 18.0518 91.5885 18.0518 90.9362C18.0518 87.1758 18.0421 83.4185 18.0551 79.6581C18.0648 77.2381 19.7089 75.5943 22.1294 75.5943C40.0318 75.5878 57.9375 75.591 75.8399 75.5943C77.8608 75.5943 79.2254 76.6347 79.7973 78.572C79.82 78.6503 79.8232 78.7286 79.9207 78.7449V91.9636H79.9175ZM48.9798 77.5316C40.0578 77.5316 31.1359 77.5316 22.2139 77.5316C20.7356 77.5316 19.9786 78.285 19.9786 79.7624C19.9786 83.4414 19.9786 87.1203 19.9786 90.7992C19.9786 92.3126 20.7258 93.0562 22.2464 93.0562C40.0676 93.0562 57.892 93.0562 75.7132 93.0562C77.2305 93.0562 77.9778 92.3126 77.9778 90.796C77.9778 87.1594 77.9778 83.5196 77.9778 79.8831C77.9778 78.2459 77.263 77.5349 75.6189 77.5349C66.7392 77.5349 57.8563 77.5349 48.9765 77.5349L48.9798 77.5316Z" fill="url(#paint2_radial_284_4386)"/><path d="M48.983 50.3635C40.1033 50.3635 31.2203 50.3635 22.3406 50.3635C20.6966 50.3635 19.9818 49.6525 19.9818 48.0153C19.9818 44.3788 19.9818 40.739 19.9818 37.1024C19.9818 35.5891 20.7291 34.8422 22.2464 34.8422C40.0676 34.8422 57.892 34.8422 75.7132 34.8422C77.2337 34.8422 77.981 35.5858 77.981 37.0992C77.981 40.7781 77.981 44.457 77.981 48.136C77.981 49.6101 77.224 50.3635 75.7457 50.3635C66.8237 50.3635 57.9017 50.3635 48.983 50.3635ZM35.4409 41.6359C32.2828 41.6359 29.1247 41.6326 25.9666 41.6391C25.2615 41.6391 24.8164 42.0468 24.8327 42.6241C24.8489 43.1818 25.2713 43.5373 25.9503 43.5634C26.0511 43.5666 26.1518 43.5634 26.2525 43.5634C32.3868 43.5634 38.5243 43.5634 44.6585 43.5634C44.8989 43.5634 45.1426 43.5536 45.3733 43.4982C45.7664 43.4068 45.9809 43.1166 46.0459 42.7284C46.1044 42.386 45.9711 42.0957 45.7047 41.8739C45.422 41.6359 45.0776 41.6359 44.7332 41.6359C41.6369 41.6359 38.5373 41.6359 35.4409 41.6359ZM69.2962 45.5072C70.8623 45.5007 72.1717 44.1863 72.1814 42.6143C72.1912 41.0194 70.859 39.6822 69.2702 39.692C67.7009 39.7018 66.3981 41.0064 66.3883 42.5849C66.3786 44.1798 67.7107 45.517 69.2995 45.5105L69.2962 45.5072Z" fill="url(#paint3_radial_284_4386)"/><path d="M48.9213 71.7099C40.0611 71.7099 31.2008 71.7099 22.3374 71.7099C20.6933 71.7099 19.9818 70.9989 19.9818 69.3583C19.9818 65.7218 19.9818 62.082 19.9818 58.4455C19.9818 56.9322 20.7291 56.1885 22.2497 56.1885C40.0708 56.1885 57.8952 56.1885 75.7164 56.1885C77.2337 56.1885 77.981 56.9322 77.981 58.4487C77.981 62.1277 77.981 65.8066 77.981 69.4855C77.981 70.9597 77.224 71.7131 75.7457 71.7131C66.8042 71.7131 57.8628 71.7131 48.9213 71.7131V71.7099ZM35.4571 64.9097C38.534 64.9097 41.6141 64.9097 44.691 64.9097C44.9119 64.9097 45.1361 64.9032 45.3473 64.8543C45.7924 64.7499 46.0394 64.4237 46.0556 63.9867C46.0719 63.5203 45.8282 63.1713 45.3603 63.0474C45.1524 62.992 44.9249 62.9887 44.704 62.9887C38.5275 62.9887 32.3543 62.9887 26.1778 62.9887C25.9958 62.9887 25.8139 62.9822 25.6384 63.0213C25.1446 63.1257 24.8489 63.4486 24.8457 63.9476C24.8457 64.4466 25.1316 64.7792 25.6287 64.8803C25.8236 64.9195 26.0283 64.9162 26.2298 64.9162C29.3066 64.9162 32.3868 64.9162 35.4636 64.9162L35.4571 64.9097ZM72.1814 63.9476C72.1814 62.3755 70.885 61.0579 69.3157 61.0383C67.7237 61.0188 66.3883 62.3462 66.3883 63.9443C66.3883 65.5424 67.7237 66.8698 69.3125 66.8535C70.8785 66.8372 72.1814 65.5163 72.1814 63.9476Z" fill="url(#paint4_radial_284_4386)"/><path d="M48.983 77.5316C57.8628 77.5316 66.7457 77.5316 75.6254 77.5316C77.2695 77.5316 77.9843 78.2426 77.9843 79.8798C77.9843 83.5164 77.9843 87.1562 77.9843 90.7927C77.9843 92.306 77.237 93.0529 75.7197 93.0529C57.8985 93.0529 40.0741 93.0529 22.2529 93.0529C20.7323 93.0529 19.985 92.3093 19.985 90.796C19.985 87.117 19.985 83.4381 19.985 79.7592C19.985 78.285 20.7421 77.5316 22.2204 77.5283C31.1424 77.5283 40.0643 77.5283 48.9863 77.5283L48.983 77.5316ZM35.4506 84.3285C32.2925 84.3285 29.1344 84.3252 25.9763 84.3285C25.268 84.3285 24.8229 84.7296 24.8359 85.3069C24.8457 85.8646 25.2745 86.2266 25.9503 86.2527C26.0511 86.256 26.1518 86.2527 26.2525 86.2527C32.3868 86.2527 38.5243 86.2527 44.6585 86.2527C44.8989 86.2527 45.1426 86.243 45.3733 86.1908C45.7664 86.0994 45.9841 85.8124 46.0524 85.4276C46.1109 85.0851 45.9809 84.7916 45.7177 84.5698C45.435 84.3317 45.0939 84.3285 44.7462 84.3285C41.6499 84.3285 38.5503 84.3285 35.4539 84.3285H35.4506ZM72.1847 85.2841C72.1782 83.7088 70.8753 82.3977 69.306 82.3879C67.7139 82.3749 66.3851 83.7055 66.3883 85.3069C66.3948 86.905 67.7367 88.2292 69.3255 88.2064C70.8915 88.1835 72.1879 86.8594 72.1847 85.2873V85.2841Z" fill="url(#paint5_radial_284_4386)"/><path d="M35.4409 41.6391C38.5373 41.6391 41.6369 41.6391 44.7332 41.6391C45.0776 41.6391 45.422 41.6391 45.7047 41.8772C45.9711 42.099 46.1011 42.3893 46.0459 42.7317C45.9809 43.1166 45.7664 43.4068 45.3733 43.5014C45.1426 43.5569 44.8957 43.5666 44.6585 43.5666C38.5243 43.5699 32.3868 43.5666 26.2525 43.5666C26.1518 43.5666 26.0511 43.5666 25.9503 43.5666C25.2713 43.5406 24.8457 43.1818 24.8327 42.6273C24.8164 42.0501 25.2615 41.6456 25.9666 41.6424C29.1247 41.6359 32.2828 41.6391 35.4409 41.6391Z" fill="#C9E2BB"/><path d="M69.2962 45.5105C67.7074 45.517 66.3753 44.1831 66.3851 42.585C66.3948 41.0097 67.6977 39.7019 69.267 39.6921C70.8558 39.6823 72.1879 41.0195 72.1782 42.6143C72.1684 44.1864 70.859 45.4975 69.293 45.5073L69.2962 45.5105Z" fill="white"/><path d="M35.4571 64.9097C32.3803 64.9097 29.3001 64.9097 26.2233 64.9097C26.0218 64.9097 25.8171 64.9162 25.6222 64.8738C25.1251 64.7695 24.8359 64.4401 24.8392 63.9411C24.8392 63.4421 25.1381 63.1192 25.6319 63.0148C25.8074 62.9789 25.9926 62.9822 26.1713 62.9822C32.3478 62.9822 38.521 62.9822 44.6975 62.9822C44.9152 62.9822 45.1426 62.9855 45.3538 63.0409C45.8217 63.1648 46.0654 63.5106 46.0491 63.9802C46.0329 64.4205 45.7859 64.7434 45.3408 64.8478C45.1296 64.8967 44.9022 64.9032 44.6845 64.9032C41.6076 64.9065 38.5275 64.9032 35.4506 64.9032L35.4571 64.9097Z" fill="#C9E2BB"/><path d="M72.1814 63.9508C72.1814 65.5228 70.8785 66.8405 69.3125 66.8568C67.7237 66.8731 66.3851 65.5424 66.3883 63.9476C66.3883 62.3494 67.7237 61.0253 69.3157 61.0416C70.885 61.0579 72.1814 62.3788 72.1814 63.9508Z" fill="white"/><path d="M35.4474 84.3285C38.5438 84.3285 41.6434 84.3285 44.7397 84.3285C45.0874 84.3285 45.4285 84.3285 45.7112 84.5698C45.9744 84.7916 46.1043 85.0851 46.0459 85.4276C45.9776 85.8124 45.7632 86.1027 45.3668 86.1908C45.1361 86.2429 44.8892 86.2527 44.652 86.2527C38.5178 86.2527 32.3803 86.2527 26.246 86.2527C26.1453 86.2527 26.0446 86.2527 25.9438 86.2527C25.268 86.2266 24.8424 85.8646 24.8294 85.3069C24.8164 84.7296 25.2615 84.3317 25.9698 84.3285C29.1279 84.3219 32.286 84.3285 35.4441 84.3285H35.4474Z" fill="#C9E2BB"/><path d="M72.1814 85.2841C72.1879 86.8561 70.8915 88.1803 69.3222 88.2031C67.7334 88.2259 66.3916 86.9018 66.3851 85.3036C66.3786 83.7055 67.7107 82.3749 69.3027 82.3846C70.872 82.3944 72.1749 83.7088 72.1814 85.2808V85.2841Z" fill="white"/><path d="M95.3538 23.2673C95.3538 26.9463 95.3701 30.6284 95.3376 34.3074C95.3311 34.9629 95.461 35.2141 96.1661 35.1684C97.1571 35.1032 98.1578 35.1521 99.1552 35.1521C99.4964 35.1521 99.8051 35.2304 99.9545 35.5761C100.091 35.8957 99.8928 36.1305 99.7011 36.3556C96.9978 39.5551 94.2914 42.7513 91.5881 45.9508C91.182 46.4303 90.7986 46.4335 90.3925 45.9508C87.6892 42.7513 84.9828 39.5551 82.2763 36.3621C82.0781 36.1273 81.9384 35.8794 82.0456 35.5728C82.1756 35.1978 82.5102 35.1586 82.8384 35.1554C83.8359 35.1456 84.8333 35.1064 85.8275 35.1651C86.5196 35.2075 86.6723 34.9629 86.6723 34.2976C86.6496 27.0017 86.6723 19.7058 86.6365 12.4099C86.6333 11.5684 86.8185 11.3336 87.6763 11.3597C89.9896 11.4282 92.3062 11.4021 94.6228 11.3695C95.2206 11.3597 95.3766 11.5326 95.3701 12.1261C95.3408 15.8377 95.3571 19.5492 95.3571 23.2641L95.3538 23.2673Z" fill="url(#paint6_radial_284_4386)"/><path d="M10.1176 31.8091C10.1176 34.4509 10.1176 37.0959 10.1176 39.7377C10.1176 40.4183 10.4685 40.7585 11.1703 40.7585C11.7811 40.7585 12.3887 40.7585 12.9995 40.7585C13.2497 40.7585 13.4999 40.7585 13.6071 41.0455C13.6948 41.2771 13.5941 41.4695 13.4447 41.6489C11.3945 44.0722 9.34759 46.4987 7.29742 48.922C6.96601 49.3134 6.65086 49.2612 6.3292 48.8796C4.29853 46.4694 2.26136 44.0657 0.227436 41.662C0.0649821 41.4695 -0.0877244 41.2706 0.0552349 41.0064C0.194945 40.7488 0.445124 40.7553 0.695302 40.7553C1.4036 40.7553 2.1119 40.7161 2.81695 40.7683C3.38554 40.8107 3.53824 40.6379 3.53824 40.0573C3.5155 34.552 3.53499 29.0466 3.509 23.538C3.509 22.8987 3.62272 22.6639 4.32452 22.6867C6.03028 22.7455 7.73605 22.7291 9.44181 22.6933C9.97141 22.6835 10.1404 22.7944 10.1339 23.3651C10.1014 26.1798 10.1176 28.9944 10.1176 31.8091Z" fill="url(#paint7_radial_284_4386)"/><path d="M24.1276 7.27961C24.1276 5.07812 24.1504 2.87663 24.1114 0.67514C24.1016 0.0945985 24.2933 -0.00324545 24.8164 0.00653895C26.5709 0.0391536 28.3254 0.0521995 30.0799 1.60194e-05C30.6745 -0.0162913 30.7427 0.195704 30.7427 0.704493C30.7265 5.03572 30.7427 9.36369 30.72 13.6949C30.72 14.2363 30.8077 14.4809 31.4185 14.4287C32.1203 14.3668 32.8319 14.4157 33.5369 14.4157C33.8099 14.4157 34.0828 14.4059 34.216 14.719C34.333 14.993 34.1738 15.1854 34.0146 15.3746C31.9969 17.7587 29.9695 20.1428 27.9583 22.5335C27.5716 22.9934 27.2695 22.9542 26.8991 22.5139C24.9042 20.1396 22.8995 17.775 20.898 15.4039C20.7323 15.205 20.4984 15.0191 20.6641 14.7027C20.8168 14.4092 21.0865 14.4157 21.3594 14.419C22.0905 14.419 22.8247 14.3863 23.5525 14.432C24.0561 14.4646 24.1439 14.2722 24.1406 13.8156C24.1179 11.6369 24.1309 9.46153 24.1309 7.28287L24.1276 7.27961Z" fill="url(#paint8_radial_284_4386)"/><path d="M56.3747 7.25352C56.3747 5.04877 56.3877 2.84728 56.3649 0.645787C56.3617 0.179398 56.4624 0.0163242 56.9595 0.0261086C58.74 0.0587233 60.5205 0.0619847 62.301 0.0261086C62.8371 0.0163242 62.9898 0.136998 62.9865 0.701232C62.9605 5.03246 62.9865 9.36695 62.9573 13.6982C62.954 14.3211 63.1327 14.494 63.7306 14.4516C64.4324 14.3994 65.1439 14.4385 65.8522 14.4418C66.0959 14.4418 66.3591 14.432 66.463 14.7255C66.5475 14.9571 66.4533 15.1495 66.3006 15.3289C64.2472 17.7522 62.2003 20.1787 60.1468 22.6052C59.8479 22.9607 59.5458 22.977 59.2339 22.6085C57.1674 20.1657 55.0913 17.7293 53.0379 15.2767C52.6707 14.8397 52.8429 14.4744 53.4115 14.4516C54.1913 14.4222 54.9743 14.4092 55.7508 14.4516C56.2837 14.4842 56.3909 14.2885 56.3844 13.7928C56.3584 11.6141 56.3747 9.43544 56.3747 7.25678V7.25352Z" fill="url(#paint9_radial_284_4386)"/></g><defs><radialGradient id="paint0_radial_284_4386" cx="0" cy="0" r="1" gradientUnits="userSpaceOnUse" gradientTransform="translate(48.983 42.6045) scale(22.919 23.0064)"><stop stop-color="#4FA83D"/><stop offset="0.98"/></radialGradient><radialGradient id="paint1_radial_284_4386" cx="0" cy="0" r="1" gradientUnits="userSpaceOnUse" gradientTransform="translate(48.9798 63.9508) scale(22.919 23.0064)"><stop stop-color="#4FA83D"/><stop offset="0.98"/></radialGradient><radialGradient id="paint2_radial_284_4386" cx="0" cy="0" r="1" gradientUnits="userSpaceOnUse" gradientTransform="translate(48.9798 85.2971) scale(22.919 23.0064)"><stop stop-color="#4FA83D"/><stop offset="0.98"/></radialGradient><radialGradient id="paint3_radial_284_4386" cx="0" cy="0" r="1" gradientUnits="userSpaceOnUse" gradientTransform="translate(20.8525 28.0355) scale(101.725 102.113)"><stop stop-color="#4FA83D"/><stop offset="0.98"/></radialGradient><radialGradient id="paint4_radial_284_4386" cx="0" cy="0" r="1" gradientUnits="userSpaceOnUse" gradientTransform="translate(20.8525 28.0356) scale(101.725 102.113)"><stop stop-color="#4FA83D"/><stop offset="0.98"/></radialGradient><radialGradient id="paint5_radial_284_4386" cx="0" cy="0" r="1" gradientUnits="userSpaceOnUse" gradientTransform="translate(20.8525 28.0356) scale(101.725 102.113)"><stop stop-color="#4FA83D"/><stop offset="0.98"/></radialGradient><radialGradient id="paint6_radial_284_4386" cx="0" cy="0" r="1" gradientUnits="userSpaceOnUse" gradientTransform="translate(49.5549 27.1191) scale(65.0497 65.2978)"><stop stop-color="#4FA83D"/><stop offset="0.98"/></radialGradient><radialGradient id="paint7_radial_284_4386" cx="0" cy="0" r="1" gradientUnits="userSpaceOnUse" gradientTransform="translate(49.5549 27.1191) scale(65.0497 65.2978)"><stop stop-color="#4FA83D"/><stop offset="0.98"/></radialGradient><radialGradient id="paint8_radial_284_4386" cx="0" cy="0" r="1" gradientUnits="userSpaceOnUse" gradientTransform="translate(49.5549 27.1191) scale(65.0497 65.2978)"><stop stop-color="#4FA83D"/><stop offset="0.98"/></radialGradient><radialGradient id="paint9_radial_284_4386" cx="0" cy="0" r="1" gradientUnits="userSpaceOnUse" gradientTransform="translate(49.5549 27.1191) scale(65.0497 65.2978)"><stop stop-color="#4FA83D"/><stop offset="0.98"/></radialGradient><clipPath id="clip0_284_4386"><rect width="100" height="95" fill="white"/></clipPath></defs></svg>