<svg xmlns="http://www.w3.org/2000/svg" width="111" height="98" viewBox="0 0 111 98" fill="none"><path d="M81.2277 49.2742C80.8918 49.721 80.8135 50.295 80.4547 50.7386C79.6915 51.6942 78.713 52.2128 77.4996 52.2943C77.2974 52.3073 77.0952 52.3041 76.8929 52.3041C59.0678 52.3041 41.2426 52.3008 23.4142 52.3106C21.6921 52.3106 20.3548 51.6942 19.5296 50.1385C19.2001 49.5188 19.1121 48.8404 19.1153 48.1457C19.1153 44.4472 19.1153 40.752 19.1153 37.0535C19.1153 35.0477 20.0221 33.7724 21.9236 33.0647C22.0117 33.0321 22.1291 33.0321 22.1487 32.9016H77.953C78.5466 33.143 79.1696 33.2995 79.7012 33.7039C80.5004 34.3138 80.8787 35.1683 81.2277 36.0522V49.2709V49.2742ZM50.1731 50.3668C59.1298 50.3668 68.0864 50.3668 77.0397 50.3668C78.5238 50.3668 79.2837 49.6134 79.2837 48.1392C79.2837 44.4603 79.2837 40.7813 79.2837 37.1024C79.2837 35.5891 78.5336 34.8454 77.0071 34.8454C59.1167 34.8454 41.2231 34.8454 23.3327 34.8454C21.8095 34.8454 21.0593 35.5891 21.0593 37.1056C21.0593 40.7422 21.0593 44.382 21.0593 48.0185C21.0593 49.6558 21.7769 50.3668 23.4273 50.3668C32.3415 50.3668 41.2589 50.3668 50.1731 50.3668Z" fill="url(#paint0_radial_1572_16861)"></path><path d="M81.2276 70.6172C80.9927 71.0738 80.8035 71.5598 80.5165 71.9772C79.8218 72.9785 78.8367 73.5232 77.6201 73.6275C77.3983 73.6471 77.1765 73.6471 76.9547 73.6471C59.1035 73.6471 41.2523 73.6471 23.401 73.6536C21.6723 73.6536 20.3448 73.0209 19.5261 71.4652C19.2195 70.8846 19.1217 70.2421 19.1217 69.5898C19.1217 65.8294 19.1119 62.0722 19.1249 58.3117C19.1347 55.8917 20.7851 54.2479 23.2151 54.2479C41.187 54.2414 59.1622 54.2446 77.1341 54.2479C79.1629 54.2479 80.5328 55.2883 81.1069 57.2256C81.1297 57.3039 81.133 57.3822 81.2308 57.3985V70.6172H81.2276ZM50.111 71.7098C59.0872 71.7098 68.0634 71.7098 77.0396 71.7098C78.5236 71.7098 79.2836 70.9564 79.2836 69.4822C79.2836 65.8033 79.2836 62.1243 79.2836 58.4454C79.2836 56.9321 78.5334 56.1852 77.0102 56.1852C59.1198 56.1852 41.2262 56.1852 23.3358 56.1852C21.8093 56.1852 21.0591 56.9288 21.0591 58.4422C21.0591 62.0787 21.0591 65.7185 21.0591 69.355C21.0591 70.9955 21.7767 71.7065 23.4239 71.7065C32.3185 71.7065 41.2131 71.7065 50.111 71.7065V71.7098Z" fill="url(#paint1_radial_1572_16861)"></path><path d="M81.2276 91.9635C80.9927 92.4201 80.8035 92.9061 80.5165 93.3236C79.8218 94.3248 78.8367 94.8695 77.6201 94.9739C77.3983 94.9934 77.1765 94.9934 76.9547 94.9934C59.1035 94.9934 41.2523 94.9934 23.401 94.9999C21.6723 94.9999 20.3448 94.3672 19.5261 92.8115C19.2195 92.231 19.1217 91.5885 19.1217 90.9362C19.1217 87.1757 19.1119 83.4185 19.1249 79.658C19.1347 77.238 20.7851 75.5942 23.2151 75.5942C41.187 75.5877 59.1622 75.591 77.1341 75.5942C79.1629 75.5942 80.5328 76.6346 81.1069 78.5719C81.1297 78.6502 81.133 78.7285 81.2308 78.7448V91.9635H81.2276ZM50.1697 77.5315C41.2131 77.5315 32.2565 77.5315 23.2999 77.5315C21.8158 77.5315 21.0559 78.2849 21.0559 79.7624C21.0559 83.4413 21.0559 87.1202 21.0559 90.7992C21.0559 92.3125 21.8061 93.0561 23.3325 93.0561C41.2229 93.0561 59.1166 93.0561 77.0069 93.0561C78.5301 93.0561 79.2803 92.3125 79.2803 90.7959C79.2803 87.1594 79.2803 83.5196 79.2803 79.883C79.2803 78.2458 78.5628 77.5348 76.9123 77.5348C67.9981 77.5348 59.0807 77.5348 50.1665 77.5348L50.1697 77.5315Z" fill="url(#paint2_radial_1572_16861)"></path><path d="M50.1734 50.3635C41.2592 50.3635 32.3418 50.3635 23.4276 50.3635C21.7771 50.3635 21.0596 49.6525 21.0596 48.0152C21.0596 44.3787 21.0596 40.7389 21.0596 37.1024C21.0596 35.589 21.8098 34.8422 23.333 34.8422C41.2233 34.8422 59.117 34.8422 77.0074 34.8422C78.5338 34.8422 79.284 35.5858 79.284 37.0991C79.284 40.778 79.284 44.457 79.284 48.1359C79.284 49.6101 78.5241 50.3635 77.04 50.3635C68.0834 50.3635 59.1268 50.3635 50.1734 50.3635ZM36.5787 41.6358C33.4083 41.6358 30.238 41.6325 27.0676 41.6391C26.3598 41.6391 25.913 42.0467 25.9293 42.624C25.9456 43.1817 26.3696 43.5372 27.0513 43.5633C27.1524 43.5666 27.2535 43.5633 27.3546 43.5633C33.5127 43.5633 39.674 43.5633 45.8321 43.5633C46.0735 43.5633 46.3181 43.5535 46.5497 43.4981C46.9444 43.4068 47.1596 43.1165 47.2249 42.7284C47.2836 42.3859 47.1498 42.0957 46.8824 41.8739C46.5986 41.6358 46.2529 41.6358 45.9071 41.6358C42.7987 41.6358 39.6871 41.6358 36.5787 41.6358ZM70.5655 45.5072C72.1377 45.5006 73.4521 44.1863 73.4619 42.6142C73.4717 41.0194 72.1344 39.6822 70.5394 39.692C68.964 39.7017 67.6561 41.0063 67.6463 42.5849C67.6365 44.1797 68.9738 45.5169 70.5688 45.5104L70.5655 45.5072Z" fill="url(#paint3_radial_1572_16861)"></path><path d="M50.1115 71.7098C41.2168 71.7098 32.3222 71.7098 23.4243 71.7098C21.7739 71.7098 21.0596 70.9988 21.0596 69.3583C21.0596 65.7217 21.0596 62.0819 21.0596 58.4454C21.0596 56.9321 21.8098 56.1885 23.3362 56.1885C41.2266 56.1885 59.1202 56.1885 77.0106 56.1885C78.5338 56.1885 79.284 56.9321 79.284 58.4487C79.284 62.1276 79.284 65.8065 79.284 69.4855C79.284 70.9597 78.5241 71.7131 77.04 71.7131C68.0638 71.7131 59.0876 71.7131 50.1115 71.7131V71.7098ZM36.595 64.9096C39.6838 64.9096 42.7759 64.9096 45.8647 64.9096C46.0865 64.9096 46.3116 64.9031 46.5236 64.8542C46.9705 64.7498 47.2183 64.4237 47.2346 63.9866C47.251 63.5203 47.0063 63.1713 46.5366 63.0473C46.3279 62.9919 46.0996 62.9886 45.8778 62.9886C39.6773 62.9886 33.4801 62.9886 27.2796 62.9886C27.097 62.9886 26.9143 62.9821 26.7382 63.0212C26.2424 63.1256 25.9456 63.4485 25.9423 63.9475C25.9423 64.4465 26.2294 64.7792 26.7284 64.8803C26.9241 64.9194 27.1296 64.9162 27.3318 64.9162C30.4206 64.9162 33.5127 64.9162 36.6015 64.9162L36.595 64.9096ZM73.4619 63.9475C73.4619 62.3755 72.1605 61.0578 70.5851 61.0383C68.9869 61.0187 67.6463 62.3461 67.6463 63.9442C67.6463 65.5424 68.9869 66.8698 70.5818 66.8535C72.154 66.8372 73.4619 65.5163 73.4619 63.9475Z" fill="url(#paint4_radial_1572_16861)"></path><path d="M50.1731 77.5315C59.0873 77.5315 68.0048 77.5315 76.919 77.5315C78.5694 77.5315 79.287 78.2425 79.287 79.8798C79.287 83.5163 79.287 87.1561 79.287 90.7926C79.287 92.306 78.5368 93.0528 77.0136 93.0528C59.1232 93.0528 41.2295 93.0528 23.3392 93.0528C21.8127 93.0528 21.0625 92.3092 21.0625 90.7959C21.0625 87.117 21.0625 83.438 21.0625 79.7591C21.0625 78.2849 21.8225 77.5315 23.3065 77.5283C32.2631 77.5283 41.2198 77.5283 50.1764 77.5283L50.1731 77.5315ZM36.5882 84.3284C33.4178 84.3284 30.2474 84.3252 27.0771 84.3284C26.366 84.3284 25.9192 84.7296 25.9322 85.3069C25.942 85.8646 26.3725 86.2266 27.051 86.2527C27.1521 86.2559 27.2532 86.2527 27.3543 86.2527C33.5124 86.2527 39.6737 86.2527 45.8318 86.2527C46.0732 86.2527 46.3178 86.2429 46.5494 86.1907C46.944 86.0994 47.1626 85.8124 47.2311 85.4275C47.2898 85.0851 47.1593 84.7915 46.8951 84.5698C46.6113 84.3317 46.2689 84.3284 45.9199 84.3284C42.8115 84.3284 39.6998 84.3284 36.5914 84.3284H36.5882ZM73.4648 85.284C73.4583 83.7087 72.1504 82.3976 70.575 82.3878C68.9767 82.3748 67.6427 83.7055 67.646 85.3069C67.6525 86.905 68.9996 88.2291 70.5946 88.2063C72.1667 88.1835 73.4681 86.8593 73.4648 85.2873V85.284Z" fill="url(#paint5_radial_1572_16861)"></path><path d="M36.5786 41.6391C39.687 41.6391 42.7986 41.6391 45.907 41.6391C46.2527 41.6391 46.5985 41.6391 46.8822 41.8771C47.1497 42.0989 47.2802 42.3892 47.2247 42.7317C47.1595 43.1165 46.9442 43.4068 46.5496 43.5014C46.318 43.5568 46.0701 43.5666 45.832 43.5666C39.6739 43.5698 33.5126 43.5666 27.3545 43.5666C27.2534 43.5666 27.1523 43.5666 27.0512 43.5666C26.3695 43.5405 25.9422 43.1817 25.9291 42.6273C25.9128 42.05 26.3597 41.6456 27.0675 41.6423C30.2378 41.6358 33.4082 41.6391 36.5786 41.6391Z" fill="#C9E2BB"></path><path d="M70.5651 45.5105C68.9701 45.517 67.6328 44.1831 67.6426 42.5849C67.6524 41.0096 68.9604 39.7018 70.5358 39.692C72.1307 39.6822 73.468 41.0194 73.4582 42.6143C73.4484 44.1863 72.134 45.4974 70.5618 45.5072L70.5651 45.5105Z" fill="white"></path><path d="M36.5948 64.9097C33.506 64.9097 30.4139 64.9097 27.3251 64.9097C27.1228 64.9097 26.9173 64.9162 26.7216 64.8738C26.2226 64.7694 25.9323 64.44 25.9356 63.941C25.9356 63.442 26.2357 63.1191 26.7314 63.0147C26.9076 62.9789 27.0935 62.9821 27.2729 62.9821C33.4733 62.9821 39.6706 62.9821 45.871 62.9821C46.0896 62.9821 46.3179 62.9854 46.5299 63.0408C46.9996 63.1648 47.2442 63.5105 47.2279 63.9801C47.2116 64.4204 46.9637 64.7433 46.5168 64.8477C46.3048 64.8966 46.0765 64.9031 45.858 64.9031C42.7692 64.9064 39.6771 64.9031 36.5883 64.9031L36.5948 64.9097Z" fill="#C9E2BB"></path><path d="M73.4621 63.9508C73.4621 65.5228 72.1541 66.8404 70.582 66.8567C68.987 66.873 67.6432 65.5424 67.6465 63.9475C67.6465 62.3494 68.987 61.0252 70.5853 61.0415C72.1607 61.0578 73.4621 62.3787 73.4621 63.9508Z" fill="white"></path><path d="M36.5853 84.3284C39.6937 84.3284 42.8053 84.3284 45.9137 84.3284C46.2627 84.3284 46.6052 84.3284 46.889 84.5697C47.1532 84.7915 47.2836 85.0851 47.2249 85.4275C47.1564 85.8124 46.9411 86.1026 46.5432 86.1907C46.3116 86.2429 46.0637 86.2527 45.8256 86.2527C39.6676 86.2527 33.5062 86.2527 27.3482 86.2527C27.247 86.2527 27.1459 86.2527 27.0448 86.2527C26.3664 86.2266 25.9391 85.8646 25.9261 85.3068C25.913 84.7296 26.3599 84.3317 27.0709 84.3284C30.2413 84.3219 33.4116 84.3284 36.582 84.3284H36.5853Z" fill="#C9E2BB"></path><path d="M73.4615 85.284C73.468 86.856 72.1666 88.1802 70.5912 88.203C68.9962 88.2259 67.6491 86.9017 67.6426 85.3036C67.6361 83.7055 68.9734 82.3748 70.5716 82.3846C72.147 82.3944 73.4549 83.7087 73.4615 85.2808V85.284Z" fill="white"></path><path d="M96.7233 23.2673C96.7233 26.9463 96.7396 30.6284 96.707 34.3074C96.7005 34.9629 96.831 35.2141 97.5388 35.1684C98.5336 35.1032 99.5382 35.1521 100.54 35.1521C100.882 35.1521 101.192 35.2304 101.342 35.5761C101.479 35.8957 101.28 36.1305 101.087 36.3556C98.3738 39.5551 95.6568 42.7513 92.943 45.9508C92.5353 46.4303 92.1504 46.4335 91.7427 45.9508C89.029 42.7513 86.312 39.5551 83.595 36.3621C83.3961 36.1273 83.2558 35.8794 83.3635 35.5728C83.4939 35.1978 83.8299 35.1586 84.1593 35.1554C85.1606 35.1456 86.162 35.1064 87.1601 35.1651C87.8548 35.2075 88.0081 34.9629 88.0081 34.2976C87.9853 27.0017 88.0081 19.7058 87.9722 12.4099C87.969 11.5684 88.1549 11.3336 89.016 11.3597C91.3383 11.4282 93.6639 11.4021 95.9895 11.3695C96.5896 11.3597 96.7462 11.5326 96.7396 12.1261C96.7103 15.8377 96.7266 19.5492 96.7266 23.2641L96.7233 23.2673Z" fill="url(#paint6_radial_1572_16861)"></path><path d="M11.1565 31.8091C11.1565 34.4509 11.1565 37.096 11.1565 39.7378C11.1565 40.4183 11.5088 40.7586 12.2133 40.7586C12.8265 40.7586 13.4365 40.7586 14.0497 40.7586C14.3008 40.7586 14.552 40.7586 14.6596 41.0456C14.7477 41.2772 14.6466 41.4696 14.4965 41.649C12.4384 44.0722 10.3835 46.4988 8.3254 48.922C7.99271 49.3134 7.67632 49.2612 7.35342 48.8796C5.31486 46.4694 3.26978 44.0657 1.22796 41.662C1.06487 41.4696 0.911575 41.2706 1.05509 41.0065C1.19534 40.7488 1.44649 40.7553 1.69764 40.7553C2.40869 40.7553 3.11974 40.7162 3.82753 40.7684C4.39832 40.8108 4.55162 40.6379 4.55162 40.0574C4.52879 34.552 4.54836 29.0467 4.52227 23.5381C4.52227 22.8988 4.63643 22.664 5.34095 22.6868C7.05334 22.7455 8.76573 22.7292 10.4781 22.6933C11.0098 22.6835 11.1794 22.7944 11.1729 23.3652C11.1402 26.1798 11.1565 28.9945 11.1565 31.8091Z" fill="url(#paint7_radial_1572_16861)"></path><path d="M25.2204 7.27961C25.2204 5.07812 25.2433 2.87663 25.2041 0.67514C25.1943 0.0945985 25.3868 -0.00324545 25.9119 0.00653895C27.6732 0.0391536 29.4345 0.0521995 31.1958 1.60196e-05C31.7927 -0.0162913 31.8612 0.195704 31.8612 0.704493C31.8449 5.03572 31.8612 9.36369 31.8384 13.6949C31.8384 14.2363 31.9265 14.4809 32.5397 14.4287C33.2442 14.3668 33.9585 14.4157 34.6663 14.4157C34.9403 14.4157 35.2142 14.4059 35.348 14.719C35.4654 14.993 35.3056 15.1854 35.1458 15.3746C33.1202 17.7587 31.0849 20.1428 29.066 22.5335C28.6778 22.9934 28.3745 22.9542 28.0026 22.5139C26 20.1396 23.9875 17.775 21.9783 15.4039C21.812 15.205 21.5771 15.0191 21.7435 14.7027C21.8968 14.4092 22.1675 14.4157 22.4415 14.419C23.1753 14.419 23.9125 14.3863 24.6431 14.432C25.1487 14.4646 25.2367 14.2722 25.2335 13.8156C25.2106 11.6369 25.2237 9.46153 25.2237 7.28287L25.2204 7.27961Z" fill="url(#paint8_radial_1572_16861)"></path><path d="M57.5928 7.25346C57.5928 5.04871 57.6059 2.84722 57.583 0.645726C57.5798 0.179337 57.6809 0.0162632 58.1799 0.0260476C59.9673 0.0586622 61.7548 0.0619237 63.5422 0.0260476C64.0803 0.0162632 64.2336 0.136937 64.2304 0.701171C64.2043 5.0324 64.2304 9.36689 64.201 13.6981C64.1978 14.3211 64.3772 14.4939 64.9773 14.4515C65.6818 14.3993 66.3961 14.4385 67.1072 14.4417C67.3518 14.4417 67.616 14.4319 67.7204 14.7255C67.8052 14.957 67.7106 15.1495 67.5573 15.3288C65.4959 17.7521 63.441 20.1786 61.3797 22.6052C61.0796 22.9607 60.7762 22.977 60.4631 22.6084C58.3887 20.1656 56.3045 17.7293 54.2431 15.2767C53.8745 14.8396 54.0474 14.4743 54.6182 14.4515C55.401 14.4222 56.187 14.4091 56.9666 14.4515C57.5015 14.4841 57.6091 14.2884 57.6026 13.7927C57.5765 11.614 57.5928 9.43538 57.5928 7.25672V7.25346Z" fill="url(#paint9_radial_1572_16861)"></path><path d="M97.5496 94.3978C93.4957 94.3978 89.4418 94.4063 85.3879 94.3869C84.8787 94.3844 84.6266 94.5287 84.4314 95.0219C83.7925 96.6362 82.2626 97.6409 80.5654 97.6434C78.8634 97.6458 77.2995 96.6435 76.6837 95.0462C76.4776 94.5117 76.206 94.382 75.6823 94.3832C67.6618 94.3978 59.6413 94.3966 51.6195 94.3978C50.3648 94.3978 50.069 94.1178 50.1345 92.8513C50.7758 80.4531 56.6154 71.3852 67.7297 65.8684C72.9825 63.2615 78.6476 62.452 84.4581 63.3015C95.7069 64.9474 103.679 71.058 108.441 81.3414C110.164 85.0621 110.867 89.0397 110.968 93.1264C110.992 94.0245 110.625 94.3857 109.71 94.3869C105.656 94.3905 101.602 94.3881 97.5484 94.3881V94.3966L97.5496 94.3978ZM85.9565 92.3847C86.1783 92.4235 86.2983 92.4635 86.4196 92.4635C90.7559 92.4683 95.0923 92.4659 99.4275 92.4756C99.8263 92.4756 99.9912 92.3302 99.9378 91.9351C99.8384 91.2031 99.7815 90.4638 99.6408 89.7402C97.7036 79.7453 88.295 72.9038 78.1893 74.1327C70.3058 75.0914 63.6333 80.9512 61.7252 88.6374C61.4245 89.8481 61.2863 91.0988 61.0596 92.4162C61.5058 92.4368 61.781 92.4599 62.0574 92.4599C66.5028 92.4635 70.9471 92.4477 75.3926 92.4805C76.109 92.4853 76.457 92.2914 76.8085 91.6176C77.1819 90.9025 77.8911 90.3583 78.4815 89.7657C78.6755 89.5706 78.9652 89.476 79.1943 89.3112C81.7898 87.4363 84.3817 85.5578 86.9748 83.6805C88.175 82.8115 89.3764 81.9474 90.5765 81.0784C91.0142 80.7621 91.4724 80.7015 91.8906 81.0639C92.3368 81.4517 92.3174 81.9353 92.0337 82.4225C91.9682 82.5352 91.8979 82.6455 91.83 82.757C90.0067 85.725 88.1822 88.6919 86.3614 91.6612C86.2305 91.8745 86.1177 92.0975 85.9577 92.3847H85.9565ZM101.317 74.0503C99.7196 75.6525 98.1885 77.1965 96.6453 78.7285C96.3325 79.0387 96.5798 79.2084 96.7422 79.4362C97.5642 80.5839 98.4637 81.688 99.1729 82.9024C100.739 85.5832 101.629 88.4968 101.858 91.6042C101.922 92.472 101.933 92.472 102.835 92.4732C104.555 92.4744 106.274 92.4744 107.995 92.4744C108.678 92.4744 108.993 92.1403 108.942 91.4721C108.591 87.143 107.395 83.0721 105.217 79.3017C104.137 77.4317 102.878 75.6974 101.319 74.0503H101.317ZM59.7346 74.1424C59.6558 74.2139 59.5673 74.2757 59.5006 74.3569C58.8909 75.0962 58.2508 75.8137 57.6822 76.5833C54.3872 81.0384 52.5869 86.0498 52.1699 91.5666C52.1032 92.4489 52.1117 92.4514 52.97 92.4526C54.6915 92.455 56.4129 92.4538 58.1344 92.455C59.1563 92.455 59.1527 92.455 59.2424 91.4479C59.6401 86.9746 61.3239 83.0382 64.1983 79.5998C64.3595 79.4071 64.5135 79.2072 64.6444 79.0423C62.986 77.388 61.3845 75.7895 59.7322 74.1424H59.7346ZM81.6504 65.0273C81.6068 65.1631 81.5704 65.2225 81.5704 65.2819C81.5656 67.3931 81.5704 69.5055 81.5559 71.6167C81.5534 72.0264 81.7765 72.0579 82.0917 72.0809C86.7772 72.4215 90.899 74.1364 94.4813 77.1662C94.6413 77.302 94.8123 77.4268 94.9771 77.5565C94.9432 77.4947 94.9093 77.4329 94.8753 77.3711C96.4961 75.7507 98.1182 74.1315 99.7718 72.4796C94.6704 67.8888 88.6332 65.3376 81.6504 65.0261V65.0273ZM61.2366 72.5863C62.9229 74.2515 64.5462 75.8549 66.201 77.4898C66.2701 77.4389 66.4131 77.3432 66.5428 77.2317C70.1494 74.1485 74.3148 72.4166 79.0501 72.0845C79.4647 72.0555 79.5495 71.8821 79.5483 71.5149C79.5362 69.4885 79.5435 67.4622 79.5386 65.4358C79.5386 65.3134 79.4938 65.1922 79.461 65.0237C72.4613 65.357 66.4277 67.8997 61.2366 72.5863ZM80.5472 95.6449C81.8007 95.6412 82.8033 94.6571 82.8009 93.4318C82.7985 92.1981 81.8032 91.2128 80.5557 91.2091C79.3083 91.2055 78.3106 92.1872 78.3045 93.4246C78.2984 94.6547 79.3022 95.6485 80.5472 95.6449ZM82.3645 89.4603C83.0361 90.0687 83.6531 90.6286 84.3102 91.2225C85.4 89.4482 86.4838 87.6811 87.5688 85.9153C87.524 85.8753 87.4791 85.8341 87.433 85.7941C85.7383 87.0194 84.0447 88.2447 82.3645 89.4603Z" fill="url(#paint10_radial_1572_16861)"></path><path d="M101.314 74.0478C102.873 75.6948 104.132 77.4303 105.213 79.2992C107.39 83.0696 108.586 87.1405 108.937 91.4696C108.991 92.137 108.675 92.4711 107.99 92.4719C106.27 92.4719 104.551 92.4719 102.83 92.4707C101.93 92.4707 101.918 92.4707 101.853 91.6017C101.625 88.4942 100.734 85.5807 99.1681 82.8999C98.4589 81.6855 97.5594 80.5814 96.7375 79.4337C96.575 79.2059 96.3277 79.0362 96.6405 78.7259C98.1837 77.194 99.7148 75.65 101.313 74.0478H101.314Z" fill="#C9E2BB"></path><path d="M59.7404 74.1437C61.3915 75.7908 62.9929 77.3893 64.6526 79.0437C64.5216 79.2085 64.3677 79.4072 64.2064 79.6012C61.3321 83.0395 59.647 86.9747 59.2506 91.4492C59.1609 92.4551 59.1645 92.4563 58.1426 92.4563C56.4211 92.4563 54.6996 92.4563 52.9782 92.4539C52.1211 92.4539 52.1114 92.449 52.1781 91.568C52.5951 86.0512 54.3954 81.041 57.6904 76.5846C58.2589 75.815 58.899 75.0975 59.5088 74.3583C59.5755 74.2771 59.664 74.2152 59.7428 74.1437H59.7404Z" fill="#C9E2BB"></path><path d="M81.6502 65.0248C88.6318 65.335 94.6703 67.8874 99.7716 72.4783C98.118 74.1302 96.4972 75.7493 94.8751 77.3697C94.9091 77.4315 94.943 77.4933 94.977 77.5551C94.8109 77.4255 94.6412 77.3006 94.4811 77.1649C90.8988 74.1338 86.777 72.4201 82.0915 72.0795C81.7763 72.0565 81.5533 72.025 81.5557 71.6154C81.5702 69.5042 81.5654 67.3917 81.5702 65.2805C81.5702 65.2211 81.6066 65.1605 81.6502 65.026V65.0248Z" fill="#C9E2BB"></path><path d="M61.2393 72.5874C66.4303 67.9007 72.4639 65.3581 79.4636 65.0248C79.4964 65.1932 79.5412 65.3156 79.5412 65.4368C79.5461 67.4632 79.5388 69.4896 79.5509 71.516C79.5533 71.8832 79.4673 72.0565 79.0527 72.0856C74.3162 72.4177 70.152 74.1496 66.5455 77.2328C66.4157 77.3443 66.2715 77.4388 66.2036 77.4909C64.5488 75.856 62.9243 74.2526 61.2393 72.5874Z" fill="#C9E2BB"></path><path d="M80.5533 95.6456C79.3083 95.6492 78.3045 94.6554 78.3106 93.4253C78.3166 92.1879 79.3144 91.2062 80.5618 91.2098C81.8092 91.2135 82.8045 92.2 82.807 93.4326C82.8094 94.6578 81.8068 95.642 80.5533 95.6456Z" fill="#C9E2BB"></path><path d="M82.3564 89.4597C84.0367 88.2441 85.7303 87.0189 87.425 85.7936C87.4699 85.8336 87.5147 85.8748 87.5608 85.9148C86.477 87.6806 85.392 89.4476 84.3022 91.2219C83.6451 90.6268 83.0281 90.0681 82.3564 89.4597Z" fill="#C9E2BB"></path><defs><radialGradient id="paint0_radial_1572_16861" cx="0" cy="0" r="1" gradientUnits="userSpaceOnUse" gradientTransform="translate(50.1732 42.6045) scale(23.008 23.0064)"><stop stop-color="#4FA83D"></stop><stop offset="0.98"></stop></radialGradient><radialGradient id="paint1_radial_1572_16861" cx="0" cy="0" r="1" gradientUnits="userSpaceOnUse" gradientTransform="translate(50.1697 63.9508) scale(23.008 23.0064)"><stop stop-color="#4FA83D"></stop><stop offset="0.98"></stop></radialGradient><radialGradient id="paint2_radial_1572_16861" cx="0" cy="0" r="1" gradientUnits="userSpaceOnUse" gradientTransform="translate(50.1697 85.2971) scale(23.008 23.0064)"><stop stop-color="#4FA83D"></stop><stop offset="0.98"></stop></radialGradient><radialGradient id="paint3_radial_1572_16861" cx="0" cy="0" r="1" gradientUnits="userSpaceOnUse" gradientTransform="translate(21.9337 28.0355) scale(102.12 102.113)"><stop stop-color="#4FA83D"></stop><stop offset="0.98"></stop></radialGradient><radialGradient id="paint4_radial_1572_16861" cx="0" cy="0" r="1" gradientUnits="userSpaceOnUse" gradientTransform="translate(21.9337 28.0355) scale(102.12 102.113)"><stop stop-color="#4FA83D"></stop><stop offset="0.98"></stop></radialGradient><radialGradient id="paint5_radial_1572_16861" cx="0" cy="0" r="1" gradientUnits="userSpaceOnUse" gradientTransform="translate(21.9334 28.0355) scale(102.12 102.113)"><stop stop-color="#4FA83D"></stop><stop offset="0.98"></stop></radialGradient><radialGradient id="paint6_radial_1572_16861" cx="0" cy="0" r="1" gradientUnits="userSpaceOnUse" gradientTransform="translate(50.7465 27.1191) scale(65.3023 65.2978)"><stop stop-color="#4FA83D"></stop><stop offset="0.98"></stop></radialGradient><radialGradient id="paint7_radial_1572_16861" cx="0" cy="0" r="1" gradientUnits="userSpaceOnUse" gradientTransform="translate(50.747 27.1191) scale(65.3023 65.2978)"><stop stop-color="#4FA83D"></stop><stop offset="0.98"></stop></radialGradient><radialGradient id="paint8_radial_1572_16861" cx="0" cy="0" r="1" gradientUnits="userSpaceOnUse" gradientTransform="translate(50.7464 27.1191) scale(65.3023 65.2978)"><stop stop-color="#4FA83D"></stop><stop offset="0.98"></stop></radialGradient><radialGradient id="paint9_radial_1572_16861" cx="0" cy="0" r="1" gradientUnits="userSpaceOnUse" gradientTransform="translate(50.7465 27.1191) scale(65.3023 65.2978)"><stop stop-color="#4FA83D"></stop><stop offset="0.98"></stop></radialGradient><radialGradient id="paint10_radial_1572_16861" cx="0" cy="0" r="1" gradientUnits="userSpaceOnUse" gradientTransform="translate(51.0394 47.7753) scale(106.714 228.063)"><stop stop-color="#4FA83D"></stop><stop offset="0.98"></stop></radialGradient></defs></svg>