<svg width="300" height="235" viewBox="0 0 300 235" fill="none" xmlns="http://www.w3.org/2000/svg">
<rect x="1" y="1" width="298" height="233" rx="9" fill="url(#paint0_linear_84_3520)" stroke="url(#paint1_angular_84_3520)" stroke-width="2"/>
<path fill-rule="evenodd" clip-rule="evenodd" d="M141.628 145.392C142.199 145.392 142.766 145.375 143.33 145.342C143.333 145.267 143.339 145.191 143.349 145.114C143.48 144.095 144.219 143.259 145.214 143.003C154.658 140.578 158.755 134.827 160.524 128.689C156.532 134.9 149.561 139.012 141.628 139.012C129.228 139.012 119.181 128.966 119.181 116.565C119.181 104.165 129.228 94.1185 141.628 94.1185C150.212 94.1185 157.668 98.9333 161.444 106.01L165.516 100.461C160.326 92.7943 151.548 87.7388 141.628 87.7388C125.75 87.7388 112.801 100.688 112.801 116.565C112.801 132.443 125.75 145.392 141.628 145.392ZM141.628 106.506C140.762 106.506 140.059 107.209 140.059 108.074V116.565C140.059 117.126 140.358 117.644 140.843 117.924L146.517 121.199C147.267 121.632 148.227 121.374 148.66 120.625C149.093 119.875 148.835 118.915 148.086 118.482L143.196 115.66V108.074C143.196 107.209 142.493 106.506 141.628 106.506ZM141.628 97.1256C140.762 97.1256 140.059 97.8285 140.059 98.6942V100.629C140.059 101.495 140.762 102.198 141.628 102.198C142.493 102.198 143.196 101.495 143.196 100.629V98.6942C143.196 97.8285 142.493 97.1256 141.628 97.1256ZM155.379 102.814C154.767 102.202 153.773 102.202 153.16 102.814L151.788 104.187C151.176 104.799 151.176 105.793 151.788 106.405C152.4 107.018 153.394 107.018 154.006 106.405L155.379 105.033C155.991 104.42 155.991 103.426 155.379 102.814ZM155.379 130.317C155.991 129.704 155.991 128.71 155.379 128.098L154.006 126.726C153.394 126.113 152.4 126.113 151.788 126.726C151.176 127.338 151.176 128.332 151.788 128.944L153.16 130.317C153.773 130.929 154.767 130.929 155.379 130.317ZM127.877 130.317C128.489 130.929 129.483 130.929 130.095 130.317L131.468 128.944C132.08 128.332 132.08 127.338 131.468 126.726C130.855 126.113 129.861 126.113 129.249 126.726L127.877 128.098C127.264 128.71 127.264 129.704 127.877 130.317ZM127.877 102.814C127.264 103.426 127.264 104.42 127.877 105.033L129.249 106.405C129.861 107.018 130.855 107.018 131.468 106.405C132.08 105.793 132.08 104.799 131.468 104.187L130.095 102.814C129.483 102.202 128.489 102.202 127.877 102.814ZM141.628 136.005C142.493 136.005 143.196 135.303 143.196 134.437V132.502C143.196 131.636 142.493 130.933 141.628 130.933C140.762 130.933 140.059 131.636 140.059 132.502V134.437C140.059 135.303 140.762 136.005 141.628 136.005ZM122.188 116.565C122.188 117.431 122.891 118.134 123.756 118.134H125.691C126.557 118.134 127.26 117.431 127.26 116.565C127.26 115.7 126.557 114.997 125.691 114.997H123.756C122.891 114.997 122.188 115.7 122.188 116.565Z" fill="#CAE2BC"/>
<path d="M164.362 116.584H158.348C158.052 116.584 157.782 116.418 157.648 116.154C157.515 115.89 157.541 115.574 157.715 115.336L170.59 97.7879C170.789 97.5159 171.103 97.3507 171.44 97.3399C171.777 97.329 172.101 97.474 172.317 97.7327L187.017 115.296C187.213 115.53 187.255 115.856 187.126 116.132C186.997 116.408 186.72 116.584 186.416 116.584H180.824C180.824 144.394 160.379 153.513 145.838 145.434C163.241 140.965 164.362 126.373 164.362 116.584Z" fill="#59A52C"/>
<defs>
<linearGradient id="paint0_linear_84_3520" x1="300" y1="0" x2="113.462" y2="183.83" gradientUnits="userSpaceOnUse">
<stop stop-color="#232324"/>
<stop offset="1" stop-color="#0D0E10"/>
</linearGradient>
<radialGradient id="paint1_angular_84_3520" cx="0" cy="0" r="1" gradientUnits="userSpaceOnUse" gradientTransform="translate(132.5 111.971) rotate(-43.2568) scale(163.396 191.917)">
<stop offset="0.164852" stop-color="#0D0E10"/>
<stop offset="0.317442" stop-color="#121913"/>
<stop offset="0.489152" stop-color="#4FA83D"/>
<stop offset="0.658904" stop-color="#0D0E10"/>
<stop offset="0.828155" stop-color="#0D0E10"/>
<stop offset="1" stop-color="#4FA83D"/>
</radialGradient>
</defs>
</svg>
