<svg width="300" height="235" viewBox="0 0 300 235" fill="none" xmlns="http://www.w3.org/2000/svg">
<rect x="1" y="1" width="298" height="233" rx="9" fill="url(#paint0_linear_84_3497)" stroke="url(#paint1_angular_84_3497)" stroke-width="2"/>
<path d="M182.876 125.65C182.818 126.622 182.527 127.565 182.026 128.4L167.876 150.85C166.926 152.2 162.901 153 161.251 153H141.501C140.773 153.006 140.055 152.844 139.401 152.525L137.451 151.625C137.476 151.25 137.501 150.875 137.501 150.5V133C137.497 132.187 137.43 131.377 137.301 130.575L140.826 128H158.951C159.945 128 160.899 128.395 161.602 129.098C162.306 129.801 162.701 130.755 162.701 131.75C162.701 132.744 162.306 133.698 161.602 134.401C160.899 135.105 159.945 135.5 158.951 135.5H150.001C149.338 135.5 148.702 135.763 148.233 136.232C147.764 136.701 147.501 137.337 147.501 138C147.501 138.663 147.764 139.299 148.233 139.768C148.702 140.236 149.338 140.5 150.001 140.5H160.001C161.812 140.499 163.561 139.843 164.926 138.653C166.291 137.463 167.179 135.819 167.426 134.025L176.001 124.325C176.613 123.648 177.413 123.167 178.299 122.945C179.184 122.722 180.116 122.767 180.976 123.075C181.5 123.286 181.955 123.638 182.291 124.093C182.626 124.548 182.829 125.087 182.876 125.65Z" fill="#CAE2BC"/>
<path d="M125.937 125.5H121.562C119.701 125.634 117.968 126.497 116.74 127.902C115.511 129.306 114.886 131.138 115 133V150.5C114.886 152.362 115.511 154.194 116.74 155.598C117.968 157.003 119.701 157.866 121.562 158H125.937C127.798 157.866 129.531 157.003 130.759 155.598C131.988 154.194 132.613 152.362 132.5 150.5V133C132.613 131.138 131.988 129.306 130.759 127.902C129.531 126.497 127.798 125.634 125.937 125.5Z" fill="#CAE2BC"/>
<path d="M155 78C150.55 78 146.2 79.3196 142.5 81.7919C138.8 84.2643 135.916 87.7783 134.213 91.8896C132.51 96.001 132.064 100.525 132.932 104.89C133.801 109.254 135.943 113.263 139.09 116.41C142.237 119.557 146.246 121.699 150.61 122.568C154.975 123.436 159.499 122.99 163.61 121.287C167.722 119.584 171.236 116.7 173.708 113C176.18 109.3 177.5 104.95 177.5 100.5C177.491 94.5354 175.118 88.8176 170.9 84.6C166.682 80.3824 160.965 78.009 155 78ZM164.275 97.275L154.275 107.275C153.801 107.74 153.164 108 152.5 108C151.836 108 151.199 107.74 150.725 107.275L145.725 102.275C145.257 101.804 144.996 101.166 144.997 100.502C144.998 99.8381 145.263 99.2017 145.732 98.7322C146.202 98.2627 146.838 97.9984 147.502 97.997C148.166 97.9956 148.804 98.2574 149.275 98.725L152.5 101.975L160.725 93.725C160.958 93.4903 161.235 93.304 161.54 93.1765C161.844 93.0491 162.172 92.9832 162.502 92.9825C162.833 92.9818 163.16 93.0464 163.466 93.1726C163.771 93.2988 164.049 93.484 164.282 93.7177C164.516 93.9514 164.701 94.229 164.827 94.5345C164.954 94.84 165.018 95.1674 165.017 95.4979C165.017 95.8284 164.951 96.1555 164.823 96.4605C164.696 96.7654 164.51 97.0422 164.275 97.275Z" fill="#59A52C"/>
<defs>
<linearGradient id="paint0_linear_84_3497" x1="300" y1="0" x2="113.462" y2="183.83" gradientUnits="userSpaceOnUse">
<stop stop-color="#232324"/>
<stop offset="1" stop-color="#0D0E10"/>
</linearGradient>
<radialGradient id="paint1_angular_84_3497" cx="0" cy="0" r="1" gradientUnits="userSpaceOnUse" gradientTransform="translate(132.5 111.971) rotate(-43.2568) scale(163.396 191.917)">
<stop offset="0.164852" stop-color="#0D0E10"/>
<stop offset="0.317442" stop-color="#121913"/>
<stop offset="0.489152" stop-color="#4FA83D"/>
<stop offset="0.658904" stop-color="#0D0E10"/>
<stop offset="0.828155" stop-color="#0D0E10"/>
<stop offset="1" stop-color="#4FA83D"/>
</radialGradient>
</defs>
</svg>
