<svg xmlns="http://www.w3.org/2000/svg" width="63" height="64" viewBox="0 0 63 64" fill="none"><rect x="0.0351562" y="0.914062" width="62.37" height="62.37" rx="31.185" fill="url(#paint0_linear_1572_25713)" fill-opacity="0.7"></rect><path d="M43.125 35.1932V39.3333H47.2428H51.3606V38.5542C51.3606 38.1313 51.1602 37.241 50.9154 36.5732C49.7802 33.5906 47.3986 31.6987 44.0821 31.1867L43.125 31.0309V35.1932Z" fill="#C8C8C8"></path><path fill-rule="evenodd" clip-rule="evenodd" d="M36.1551 35.3014C37.2235 34.144 38.648 33.2536 40.0725 32.8753C40.629 32.7194 41.319 32.5859 41.6083 32.5859L42.098 32.5636V36.6814V40.7992H46.2381H50.4004L50.2668 42.0457C49.9997 44.5386 48.13 47.1206 45.6816 48.3002C43.9455 49.1461 41.1854 49.2796 39.3603 48.5896C35.6209 47.1873 33.395 43.4257 34.0405 39.6418C34.3744 37.7943 34.9309 36.6369 36.1551 35.3014Z" fill="#C8C8C8"></path><path d="M21 26.0001L21 33.0001" stroke="#C8C8C8" stroke-width="2" stroke-linecap="round"></path><path d="M25 24.0001L25 33.0001" stroke="#C8C8C8" stroke-width="2" stroke-linecap="round"></path><path d="M30 22.0001L30 33.0001" stroke="#C8C8C8" stroke-width="2" stroke-linecap="round"></path><path d="M35 20.0001L35 33.0001" stroke="#C8C8C8" stroke-width="2" stroke-linecap="round"></path><rect x="14.5" y="13.5" width="26.5211" height="30.3171" rx="2.5" stroke="#C8C8C8"></rect><defs><linearGradient id="paint0_linear_1572_25713" x1="-3.95566" y1="-2.02676" x2="42.2443" y2="55.7232" gradientUnits="userSpaceOnUse"><stop stop-color="#56B743"></stop><stop offset="1" stop-color="#083100"></stop></linearGradient></defs></svg>