<svg xmlns="http://www.w3.org/2000/svg" width="128" height="116" viewBox="0 0 128 116" fill="none"><g id="Illustration"><g id="Group"><g id="Group_2"><g id="Group_3"><path id="Vector" d="M122.144 95.1148L1.7666 94.0664V97.1685C1.7666 98.0104 2.29166 98.7263 3.00274 98.8539L37.0419 104.962C37.4458 105.035 37.8555 105.054 38.2631 105.02L120.836 98.0551C121.573 97.9929 122.144 97.2747 122.144 96.4097V95.1148Z" fill="url(#paint0_linear_1_1102)"></path><path id="Vector_2" d="M83.3932 90.0866L3.09162 95.7615C1.6547 95.863 0.486328 94.784 0.486328 93.3511V35.9451C0.486328 34.5122 1.6547 33.3506 3.09162 33.3506H83.3932C84.577 33.3506 85.5341 34.4006 85.5341 35.6959V87.5899C85.5341 88.8852 84.577 90.0029 83.3932 90.0866Z" fill="url(#paint1_linear_1_1102)"></path><path id="Vector_3" d="M84.6735 90.0866L4.37196 95.7615C2.93498 95.863 1.76666 94.784 1.76666 93.3511V35.9451C1.76666 34.5122 2.93498 33.3506 4.37196 33.3506H84.6735C85.8573 33.3506 86.8145 34.4006 86.8145 35.6959V87.5899C86.8145 88.8852 85.8573 90.0029 84.6735 90.0866Z" fill="url(#paint2_linear_1_1102)"></path><path id="Vector_4" d="M82.1718 86.4279L7.37937 91.3572C6.21001 91.4343 5.25977 90.5487 5.25977 89.379V39.1199C5.25977 37.9501 6.21006 36.9979 7.37937 36.9931L82.1718 36.6836C83.1484 36.6796 83.9384 37.54 83.9384 38.6054V84.3824C83.9384 85.4478 83.1484 86.3636 82.1718 86.4279Z" fill="url(#paint3_linear_1_1102)"></path><path id="Vector_5" d="M82.6697 89.5879L1.7666 95.5612L37.0419 101.891C37.4458 101.964 37.8555 101.983 38.2631 101.949L122.144 94.8738L83.9567 89.6285C83.5296 89.5698 83.0989 89.5562 82.6697 89.5879Z" fill="url(#paint4_linear_1_1102)"></path><g id="Group_4"><path id="Vector_6" d="M49.2711 76.5389C56.4264 76.5389 62.2268 70.6642 62.2268 63.4174C62.2268 56.1706 56.4264 50.2959 49.2711 50.2959C42.1159 50.2959 36.3154 56.1706 36.3154 63.4174C36.3154 70.6642 42.1159 76.5389 49.2711 76.5389Z" fill="white"></path><path id="Vector_7" d="M48.8148 70.4875C48.2532 70.4875 47.7308 70.1896 47.4403 69.6997L42.5662 61.4828C42.11 60.7138 42.3558 59.7159 43.1151 59.254C43.874 58.7922 44.8594 59.0408 45.3156 59.8098L48.6991 65.5138L53.1718 56.6162C53.5736 55.8167 54.5395 55.4987 55.3287 55.9057C56.118 56.3127 56.4322 57.2907 56.0303 58.0901L50.2442 69.6001C49.9796 70.1264 49.4538 70.4659 48.8712 70.4865C48.8524 70.4871 48.8336 70.4875 48.8148 70.4875Z" fill="url(#paint5_linear_1_1102)"></path></g><path id="Vector_8" d="M13.5713 95.9523L80.9255 90.9053L101.771 93.7455L34.9971 99.1406L13.5713 95.9523Z" fill="url(#paint6_linear_1_1102)"></path></g><g id="Group_5"><g id="Group_6"><g id="Group_7"><path id="Vector_9" d="M110.361 63.3055V108.124C110.361 108.795 109.627 108.991 108.795 109.072L80.0215 112.29L79.5817 112.332C78.6789 112.42 77.9387 111.919 77.9387 111.219V64.3846C77.9387 63.6842 78.6789 63.0878 79.5817 63.0593L80.1786 63.0404L109.054 63.1351C109.886 63.1085 110.361 62.6352 110.361 63.3055Z" fill="url(#paint7_linear_1_1102)"></path><path id="Vector_10" d="M111.249 63.2544V108.061C111.249 108.731 110.57 109.345 109.739 109.426L80.487 112.267C79.5847 112.355 78.8448 111.854 78.8448 111.154V64.3327C78.8448 63.6325 79.5847 63.0363 80.487 63.0078L109.739 62.0838C110.57 62.0576 111.249 62.5844 111.249 63.2544Z" fill="url(#paint8_linear_1_1102)"></path><path id="Vector_11" d="M110.31 65.7726V107.293C110.31 107.918 109.675 108.491 108.898 108.566L81.3922 111.201C80.5527 111.282 79.8644 110.814 79.8644 110.162V66.8907C79.8644 66.2385 80.5527 65.6807 81.3922 65.6512L108.898 64.6846C109.675 64.6572 110.31 65.1468 110.31 65.7726Z" fill="url(#paint9_linear_1_1102)"></path></g></g><g id="Group_8"><path id="Vector_12" d="M105.929 84.004C105.929 89.6131 101.41 94.4624 95.8169 94.8363C90.2051 95.2114 85.6418 90.9412 85.6418 85.2973C85.6418 79.6535 90.2051 74.8014 95.8169 74.461C101.41 74.1218 105.929 78.3948 105.929 84.004Z" fill="white"></path><path id="Vector_13" d="M95.459 90.1615C95.0191 90.1903 94.6099 89.9856 94.3822 89.6201L90.5583 83.4797C90.1999 82.9043 90.393 82.1162 90.9893 81.7195C91.5852 81.323 92.3585 81.4678 92.7164 82.043L95.3683 86.3054L98.8675 79.1788C99.1815 78.5393 99.936 78.2459 100.552 78.5233C101.168 78.8006 101.413 79.5434 101.1 80.1826L96.5779 89.3996C96.3708 89.8216 95.9592 90.112 95.5031 90.1578C95.4884 90.1593 95.4736 90.1605 95.459 90.1615Z" fill="url(#paint10_linear_1_1102)"></path></g></g><g id="Group_9"><g id="Group_10"><g id="Group_11"><path id="Vector_14" d="M126.295 82.0477V112.978C126.295 113.441 125.9 113.569 125.452 113.616L110.01 115.528L109.775 115.552C109.293 115.603 108.897 115.251 108.897 114.77V82.5946C108.897 82.1134 109.293 81.7081 109.775 81.6939L110.094 81.6844L125.591 81.9222C126.039 81.9089 126.295 81.5851 126.295 82.0477Z" fill="url(#paint11_linear_1_1102)"></path><path id="Vector_15" d="M126.773 82.0181V112.944C126.773 113.407 126.407 113.824 125.959 113.871L110.258 115.518C109.775 115.568 109.38 115.216 109.38 114.735V82.5649C109.38 82.0838 109.775 81.6785 110.258 81.6643L125.959 81.2014C126.407 81.1881 126.773 81.5557 126.773 82.0181Z" fill="url(#paint12_linear_1_1102)"></path><path id="Vector_16" d="M126.268 83.7502V112.404C126.268 112.836 125.926 113.225 125.507 113.268L110.743 114.795C110.295 114.841 109.927 114.512 109.927 114.064V84.3286C109.927 83.8804 110.295 83.5014 110.743 83.4863L125.507 82.9905C125.926 82.9764 126.268 83.3183 126.268 83.7502Z" fill="url(#paint13_linear_1_1102)"></path></g></g><g id="Group_12"><path id="Vector_17" d="M124.526 96.4835C124.526 99.8234 121.849 102.715 118.54 102.942C115.225 103.17 112.532 100.637 112.532 97.2853C112.532 93.9331 115.225 91.0406 118.54 90.8251C121.849 90.6101 124.526 93.1436 124.526 96.4835Z" fill="white"></path><path id="Vector_18" d="M118.329 100.162C118.069 100.18 117.827 100.059 117.692 99.8418L115.434 96.1973C115.222 95.8559 115.336 95.3872 115.688 95.1504C116.04 94.9136 116.497 94.9983 116.708 95.3396L118.275 97.8694L120.345 93.6245C120.531 93.2434 120.977 93.0672 121.342 93.231C121.706 93.3948 121.852 93.8363 121.666 94.2173L118.991 99.7079C118.868 99.9592 118.625 100.132 118.355 100.16C118.346 100.161 118.338 100.162 118.329 100.162Z" fill="url(#paint14_linear_1_1102)"></path></g></g></g><g id="Group_13"><path id="Vector_19" d="M124.599 23.1288C124.599 33.922 116.159 42.4125 105.372 42.0812C94.1466 41.7365 84.7053 32.0413 84.7053 20.4393C84.7053 8.83731 94.1466 0.415118 105.372 1.58405C116.159 2.70716 124.599 12.3356 124.599 23.1288Z" fill="url(#paint15_linear_1_1102)"></path><path id="Vector_20" d="M127.513 22.1982C127.513 32.9914 119.073 41.4819 108.287 41.1506C97.0607 40.8059 87.6193 31.1107 87.6193 19.5087C87.6193 7.90664 97.0606 -0.515506 108.287 0.653383C119.073 1.77659 127.513 11.405 127.513 22.1982Z" fill="url(#paint16_linear_1_1102)"></path><path id="Vector_21" d="M126.667 22.141C126.667 32.4589 118.592 40.5618 108.287 40.2281C97.5825 39.8815 88.5949 30.6289 88.5949 19.5743C88.5949 8.51963 97.5825 0.478931 108.287 1.57568C118.592 2.6314 126.667 11.8231 126.667 22.141Z" fill="url(#paint17_linear_1_1102)"></path><path id="Vector_22" opacity="0.53" d="M125.775 22.0806C125.775 31.1411 119.228 38.3991 110.519 39.2124C109.788 39.2812 109.038 39.3042 108.278 39.2787C98.1066 38.937 89.5764 30.1392 89.5764 19.6409C89.5764 10.5116 96.0262 3.53904 104.398 2.55242C105.653 2.40453 106.953 2.38924 108.278 2.52435C118.081 3.51606 125.775 12.2579 125.775 22.0806Z" fill="#C6C6C6"></path><path id="Vector_23" d="M110.519 39.2127C109.788 39.2815 109.038 39.3045 108.278 39.279C98.1066 38.9373 89.5764 30.1395 89.5764 19.6412C89.5764 10.5119 96.0262 3.53935 104.398 2.55273C107.226 4.76048 109.757 7.58518 110.193 10.9325C110.904 16.3882 105.454 18.8993 104.852 24.8291C104.358 29.7214 106.7 35.1719 110.519 39.2127Z" fill="url(#paint18_linear_1_1102)"></path></g><g id="Group_14"><path id="Vector_24" d="M112.805 25.7002L111.803 25.5041C111.807 25.0426 111.772 24.5809 111.697 24.1244L112.663 23.7876C112.923 23.6967 113.06 23.4087 112.969 23.1441L112.398 21.4866C112.307 21.2211 112.021 21.0791 111.76 21.1698L110.79 21.5065C110.568 21.1049 110.307 20.7196 110.013 20.3539L110.686 19.5649C110.866 19.3531 110.842 19.0307 110.631 18.8448L109.31 17.6795C109.099 17.4928 108.78 17.5136 108.599 17.726L107.924 18.5174C107.523 18.2716 107.107 18.0628 106.68 17.8944L106.868 16.8631C106.919 16.585 106.737 16.3141 106.461 16.258L104.736 15.907C104.46 15.8508 104.195 16.0313 104.144 16.3102L103.957 17.3431C103.492 17.3316 103.028 17.3612 102.569 17.4308L102.217 16.4336C102.122 16.1636 101.83 16.0184 101.564 16.1093L99.9009 16.6789C99.6346 16.77 99.4966 17.0631 99.5927 17.3332L99.9437 18.321C99.54 18.5444 99.1542 18.8077 98.7889 19.1063L97.9966 18.4191C97.7797 18.231 97.4556 18.2521 97.2729 18.4664L96.1301 19.8065C95.9474 20.0208 95.9757 20.3466 96.1931 20.534L96.981 21.2134C96.7396 21.6227 96.537 22.0476 96.3758 22.4841L95.3684 22.2869C95.0887 22.2321 94.8219 22.4138 94.7726 22.6926L94.4649 24.4343C94.4157 24.7125 94.6025 24.9817 94.8819 25.0357L95.8836 25.2291C95.8824 25.7022 95.9231 26.1749 96.0042 26.6417L95.052 26.9724C94.7858 27.0648 94.6486 27.3561 94.7456 27.6227L95.3509 29.287C95.4475 29.5526 95.741 29.6927 96.0062 29.6002L96.9484 29.2713C97.181 29.6787 97.4532 30.068 97.7602 30.4363L97.1149 31.1931C96.9337 31.4056 96.9614 31.7258 97.1767 31.9083L98.5201 33.0469C98.7344 33.2286 99.0546 33.2041 99.2352 32.9923L99.8787 32.2377C100.289 32.4798 100.714 32.684 101.149 32.8461L100.973 33.8191C100.923 34.0926 101.106 34.3557 101.38 34.4066L103.094 34.7244C103.367 34.7751 103.629 34.5951 103.679 34.3223L103.858 33.3448C104.322 33.3489 104.787 33.3127 105.244 33.2358L105.578 34.1747C105.671 34.436 105.957 34.5729 106.218 34.4807L107.847 33.9045C108.107 33.8125 108.243 33.5263 108.151 33.2651L107.819 32.3223C108.215 32.0972 108.594 31.834 108.953 31.5357L109.713 32.1913C109.922 32.3717 110.237 32.3476 110.416 32.1376L111.536 30.824C111.715 30.614 111.691 30.2971 111.482 30.1161L110.718 29.453C110.953 29.0517 111.152 28.6355 111.31 28.208L112.301 28.3993C112.571 28.4515 112.831 28.2726 112.882 27.9997L113.202 26.2913C113.253 26.0179 113.075 25.7532 112.805 25.7002ZM107.769 28.7375C105.952 30.8682 102.742 31.1097 100.588 29.2668C98.4201 27.4128 98.1424 24.1553 99.9793 22.0012C101.816 19.8471 105.056 19.6313 107.203 21.5087C109.338 23.375 109.586 26.6068 107.769 28.7375Z" fill="white"></path><path id="Vector_25" d="M119.197 12.2946L118.639 12.1844C118.635 11.9346 118.609 11.6845 118.562 11.4373L119.091 11.2588C119.234 11.2106 119.306 11.0553 119.252 10.9118L118.913 10.0133C118.859 9.86945 118.699 9.79171 118.556 9.83982L118.024 10.0184C117.895 9.80055 117.746 9.59154 117.578 9.39294L117.939 8.96908C118.036 8.85529 118.019 8.68114 117.9 8.58004L117.154 7.94693C117.035 7.84554 116.859 7.85575 116.762 7.96978L116.399 8.39454C116.175 8.26066 115.942 8.14673 115.704 8.05455L115.794 7.49905C115.819 7.34931 115.715 7.20276 115.562 7.17174L114.606 6.97751C114.453 6.9464 114.309 7.0429 114.285 7.19293L114.195 7.74885C113.939 7.74125 113.683 7.75579 113.431 7.79183L113.225 7.25371C113.169 7.10801 113.006 7.02899 112.861 7.07719L111.953 7.37881C111.807 7.42706 111.735 7.58439 111.791 7.73014L111.997 8.26313C111.777 8.38219 111.568 8.52271 111.371 8.68233L110.926 8.30972C110.805 8.20776 110.627 8.21811 110.529 8.33289L109.917 9.05057C109.819 9.16536 109.839 9.34088 109.96 9.44256L110.402 9.81128C110.274 10.0309 110.168 10.2592 110.084 10.4939L109.528 10.3839C109.374 10.3534 109.229 10.4503 109.205 10.6004L109.057 11.5379C109.033 11.6878 109.139 11.8337 109.293 11.8638L109.847 11.9721C109.852 12.2274 109.88 12.4826 109.93 12.7349L109.41 12.9094C109.265 12.9582 109.193 13.1147 109.249 13.2591L109.602 14.1603C109.659 14.3043 109.822 14.3813 109.967 14.3324L110.482 14.159C110.615 14.3801 110.77 14.5917 110.944 14.7922L110.597 15.1985C110.5 15.3125 110.519 15.4858 110.64 15.5855L111.395 16.208C111.515 16.3074 111.691 16.2957 111.788 16.1819L112.134 15.7766C112.364 15.9097 112.601 16.0222 112.843 16.1121L112.758 16.6382C112.734 16.7862 112.838 16.9296 112.99 16.9585L113.941 17.1394C114.093 17.1683 114.236 17.072 114.26 16.9244L114.346 16.3955C114.603 16.4 114.859 16.3827 115.111 16.3432L115.308 16.854C115.363 16.9961 115.523 17.0718 115.667 17.0231L116.561 16.7187C116.704 16.6701 116.775 16.5155 116.721 16.3734L116.524 15.8605C116.741 15.7403 116.947 15.5994 117.142 15.4394L117.572 15.7984C117.69 15.8973 117.864 15.8857 117.96 15.7726L118.563 15.0655C118.66 14.9524 118.642 14.7805 118.524 14.6813L118.091 14.3184C118.216 14.102 118.321 13.8774 118.403 13.6465L118.954 13.7544C119.105 13.7838 119.247 13.6881 119.271 13.5403L119.425 12.6161C119.449 12.4684 119.347 12.3243 119.197 12.2946ZM116.449 13.9179C115.472 15.0637 113.701 15.1795 112.488 14.1726C111.27 13.1612 111.077 11.4017 112.062 10.2466C113.047 9.09151 114.831 8.98594 116.041 10.0067C117.246 11.0229 117.426 12.7722 116.449 13.9179Z" fill="white"></path></g><g id="Group_15"><path id="Vector_26" d="M48.482 48.6875C48.115 48.6875 47.8174 48.3899 47.8174 48.0229V47.026C47.8174 46.659 48.115 46.3613 48.482 46.3613C48.8491 46.3613 49.1466 46.6589 49.1466 47.026V48.0229C49.1466 48.3899 48.849 48.6875 48.482 48.6875Z" fill="url(#paint19_linear_1_1102)"></path></g><g id="Group_16"><path id="Vector_27" d="M48.482 44.7C48.115 44.7 47.8174 44.4025 47.8174 44.0354V42.0416C47.8174 41.6745 48.115 41.3769 48.482 41.3769C48.8491 41.3769 49.1466 41.6745 49.1466 42.0416V44.0354C49.1466 44.4025 48.849 44.7 48.482 44.7ZM48.482 39.7155C48.115 39.7155 47.8174 39.4179 47.8174 39.0508V37.057C47.8174 36.6899 48.115 36.3924 48.482 36.3924C48.8491 36.3924 49.1466 36.6899 49.1466 37.057V39.0508C49.1466 39.4179 48.849 39.7155 48.482 39.7155ZM48.482 34.7308C48.115 34.7308 47.8174 34.4333 47.8174 34.0662V32.0724C47.8174 31.7053 48.115 31.4077 48.482 31.4077C48.8491 31.4077 49.1466 31.7053 49.1466 32.0724V34.0662C49.1466 34.4333 48.849 34.7308 48.482 34.7308ZM48.482 29.7462C48.115 29.7462 47.8174 29.4486 47.8174 29.0816V27.0877C47.8174 26.7207 48.115 26.4231 48.482 26.4231C48.8491 26.4231 49.1466 26.7207 49.1466 27.0877V29.0816C49.1466 29.4486 48.849 29.7462 48.482 29.7462ZM48.482 24.7616C48.115 24.7616 47.8174 24.464 47.8174 24.097V22.1031C47.8174 21.7361 48.115 21.4385 48.482 21.4385C48.8491 21.4385 49.1466 21.7361 49.1466 22.1031V24.097C49.1466 24.464 48.849 24.7616 48.482 24.7616Z" fill="url(#paint20_linear_1_1102)"></path></g><g id="Group_17"><path id="Vector_28" d="M48.482 19.2783C48.115 19.2783 47.8174 18.9808 47.8174 18.6137V17.6168C47.8174 17.2497 48.115 16.9521 48.482 16.9521H49.4789C49.846 16.9521 50.1436 17.2497 50.1436 17.6168C50.1436 17.9838 49.846 18.2814 49.4789 18.2814H49.1466V18.6137C49.1466 18.9807 48.849 19.2783 48.482 19.2783Z" fill="url(#paint21_linear_1_1102)"></path></g><g id="Group_18"><path id="Vector_29" d="M78.3905 18.2814H76.3966C76.0296 18.2814 75.732 17.9838 75.732 17.6168C75.732 17.2497 76.0296 16.9521 76.3966 16.9521H78.3905C78.7575 16.9521 79.0551 17.2497 79.0551 17.6168C79.0551 17.9838 78.7575 18.2814 78.3905 18.2814ZM73.572 18.2814H71.5781C71.2111 18.2814 70.9135 17.9838 70.9135 17.6168C70.9135 17.2497 71.2111 16.9521 71.5781 16.9521H73.572C73.9391 16.9521 74.2366 17.2497 74.2366 17.6168C74.2366 17.9838 73.939 18.2814 73.572 18.2814ZM68.7535 18.2814H66.7596C66.3926 18.2814 66.095 17.9838 66.095 17.6168C66.095 17.2497 66.3926 16.9521 66.7596 16.9521H68.7535C69.1205 16.9521 69.4181 17.2497 69.4181 17.6168C69.4181 17.9838 69.1206 18.2814 68.7535 18.2814ZM63.935 18.2814H61.9412C61.5741 18.2814 61.2766 17.9838 61.2766 17.6168C61.2766 17.2497 61.5741 16.9521 61.9412 16.9521H63.935C64.3021 16.9521 64.5997 17.2497 64.5997 17.6168C64.5997 17.9838 64.3021 18.2814 63.935 18.2814ZM59.1166 18.2814H57.1227C56.7557 18.2814 56.4581 17.9838 56.4581 17.6168C56.4581 17.2497 56.7557 16.9521 57.1227 16.9521H59.1166C59.4836 16.9521 59.7812 17.2497 59.7812 17.6168C59.7812 17.9838 59.4836 18.2814 59.1166 18.2814ZM54.2981 18.2814H52.3043C51.9372 18.2814 51.6396 17.9838 51.6396 17.6168C51.6396 17.2497 51.9372 16.9521 52.3043 16.9521H54.2981C54.6652 16.9521 54.9628 17.2497 54.9628 17.6168C54.9628 17.9838 54.6652 18.2814 54.2981 18.2814Z" fill="url(#paint22_linear_1_1102)"></path></g><g id="Group_19"><path id="Vector_30" d="M82.2114 18.2814H81.2144C80.8474 18.2814 80.5498 17.9838 80.5498 17.6168C80.5498 17.2497 80.8474 16.9521 81.2144 16.9521H82.2114C82.5784 16.9521 82.876 17.2497 82.876 17.6168C82.876 17.9838 82.5784 18.2814 82.2114 18.2814Z" fill="url(#paint23_linear_1_1102)"></path></g><path id="Vector_31" d="M95.8365 72.4475C95.4695 72.4475 95.1719 72.1499 95.1719 71.7829V69.789C95.1719 69.422 95.4695 69.1244 95.8365 69.1244C96.2036 69.1244 96.5011 69.422 96.5011 69.789V71.7829C96.5011 72.1499 96.2035 72.4475 95.8365 72.4475ZM95.8365 67.4629C95.4695 67.4629 95.1719 67.1653 95.1719 66.7982V64.8044C95.1719 64.4373 95.4695 64.1398 95.8365 64.1398C96.2036 64.1398 96.5011 64.4373 96.5011 64.8044V66.7982C96.5011 67.1653 96.2035 67.4629 95.8365 67.4629ZM95.8365 62.4783C95.4695 62.4783 95.1719 62.1807 95.1719 61.8136V59.8198C95.1719 59.4527 95.4695 59.1551 95.8365 59.1551C96.2036 59.1551 96.5011 59.4527 96.5011 59.8198V61.8136C96.5011 62.1807 96.2035 62.4783 95.8365 62.4783ZM95.8365 57.4936C95.4695 57.4936 95.1719 57.1961 95.1719 56.829V54.8351C95.1719 54.4681 95.4695 54.1705 95.8365 54.1705C96.2036 54.1705 96.5011 54.4681 96.5011 54.8351V56.829C96.5011 57.1961 96.2035 57.4936 95.8365 57.4936ZM95.8365 52.509C95.4695 52.509 95.1719 52.2114 95.1719 51.8444V49.8505C95.1719 49.4835 95.4695 49.1859 95.8365 49.1859C96.2036 49.1859 96.5011 49.4835 96.5011 49.8505V51.8444C96.5011 52.2114 96.2035 52.509 95.8365 52.509ZM95.8365 47.5244C95.4695 47.5244 95.1719 47.2268 95.1719 46.8598V44.8659C95.1719 44.4989 95.4695 44.2013 95.8365 44.2013C96.2036 44.2013 96.5011 44.4989 96.5011 44.8659V46.8598C96.5011 47.2268 96.2035 47.5244 95.8365 47.5244ZM95.8365 42.5398C95.4695 42.5398 95.1719 42.2422 95.1719 41.8752V41.2105C95.1719 40.8435 95.4695 40.5459 95.8365 40.5459C96.2036 40.5459 96.5011 40.8435 96.5011 41.2105V41.8752C96.5011 42.2422 96.2035 42.5398 95.8365 42.5398Z" fill="url(#paint24_linear_1_1102)"></path><path id="Vector_32" d="M118.598 89.7276C118.231 89.7276 117.934 89.4301 117.934 89.063V87.0691C117.934 86.7021 118.231 86.4045 118.598 86.4045C118.965 86.4045 119.263 86.7021 119.263 87.0691V89.063C119.263 89.4301 118.965 89.7276 118.598 89.7276ZM118.598 84.743C118.231 84.743 117.934 84.4454 117.934 84.0784V82.0845C117.934 81.7175 118.231 81.4199 118.598 81.4199C118.965 81.4199 119.263 81.7175 119.263 82.0845V84.0784C119.263 84.4454 118.965 84.743 118.598 84.743ZM118.598 79.7584C118.231 79.7584 117.934 79.4608 117.934 79.0938V77.0999C117.934 76.7329 118.231 76.4353 118.598 76.4353C118.965 76.4353 119.263 76.7329 119.263 77.0999V79.0938C119.263 79.4608 118.965 79.7584 118.598 79.7584ZM118.598 74.7738C118.231 74.7738 117.934 74.4762 117.934 74.1092V72.1153C117.934 71.7483 118.231 71.4507 118.598 71.4507C118.965 71.4507 119.263 71.7483 119.263 72.1153V74.1092C119.263 74.4762 118.965 74.7738 118.598 74.7738ZM118.598 69.7892C118.231 69.7892 117.934 69.4916 117.934 69.1245V67.1307C117.934 66.7636 118.231 66.4661 118.598 66.4661C118.965 66.4661 119.263 66.7636 119.263 67.1307V69.1245C119.263 69.4916 118.965 69.7892 118.598 69.7892ZM118.598 64.8045C118.231 64.8045 117.934 64.507 117.934 64.1399V62.1461C117.934 61.779 118.231 61.4814 118.598 61.4814C118.965 61.4814 119.263 61.779 119.263 62.1461V64.1399C119.263 64.507 118.965 64.8045 118.598 64.8045ZM118.598 59.8199C118.231 59.8199 117.934 59.5223 117.934 59.1553V57.1614C117.934 56.7944 118.231 56.4968 118.598 56.4968C118.965 56.4968 119.263 56.7944 119.263 57.1614V59.1553C119.263 59.5223 118.965 59.8199 118.598 59.8199ZM118.598 54.8353C118.231 54.8353 117.934 54.5378 117.934 54.1707V52.1769C117.934 51.8098 118.231 51.5122 118.598 51.5122C118.965 51.5122 119.263 51.8098 119.263 52.1769V54.1707C119.263 54.5377 118.965 54.8353 118.598 54.8353ZM118.598 49.8507C118.231 49.8507 117.934 49.5531 117.934 49.1861V47.1922C117.934 46.8252 118.231 46.5276 118.598 46.5276C118.965 46.5276 119.263 46.8252 119.263 47.1922V49.1861C119.263 49.5531 118.965 49.8507 118.598 49.8507ZM118.598 44.8661C118.231 44.8661 117.934 44.5685 117.934 44.2015V42.2076C117.934 41.8405 118.231 41.543 118.598 41.543C118.965 41.543 119.263 41.8405 119.263 42.2076V44.2015C119.263 44.5685 118.965 44.8661 118.598 44.8661Z" fill="url(#paint25_linear_1_1102)"></path></g></g><defs><linearGradient id="paint0_linear_1_1102" x1="1.76662" y1="99.5514" x2="122.144" y2="99.5514" gradientUnits="userSpaceOnUse"><stop stop-color="#4D4D4D"></stop><stop offset="0.9964" stop-color="#474747"></stop></linearGradient><linearGradient id="paint1_linear_1_1102" x1="0.486338" y1="64.5594" x2="85.5341" y2="64.5594" gradientUnits="userSpaceOnUse"><stop stop-color="#383838"></stop><stop offset="0.9964" stop-color="#373737"></stop></linearGradient><linearGradient id="paint2_linear_1_1102" x1="1.76667" y1="64.5594" x2="86.8145" y2="64.5594" gradientUnits="userSpaceOnUse"><stop stop-color="#434343"></stop><stop offset="0.9964" stop-color="#3A3A3A"></stop></linearGradient><linearGradient id="paint3_linear_1_1102" x1="72.8968" y1="22.2116" x2="3.77861" y2="118.8" gradientUnits="userSpaceOnUse"><stop stop-color="#4E9523"></stop><stop offset="0.427083" stop-color="#79BE50"></stop><stop offset="0.9963" stop-color="#316314"></stop></linearGradient><linearGradient id="paint4_linear_1_1102" x1="1.76662" y1="95.7683" x2="122.144" y2="95.7683" gradientUnits="userSpaceOnUse"><stop stop-color="#383838"></stop><stop offset="0.9964" stop-color="#373737"></stop></linearGradient><linearGradient id="paint5_linear_1_1102" x1="54.259" y1="51.8222" x2="34.6302" y2="69.7345" gradientUnits="userSpaceOnUse"><stop stop-color="#4E9523"></stop><stop offset="0.427083" stop-color="#79BE50"></stop><stop offset="0.9963" stop-color="#316314"></stop></linearGradient><linearGradient id="paint6_linear_1_1102" x1="13.5713" y1="95.0229" x2="101.771" y2="95.0229" gradientUnits="userSpaceOnUse"><stop stop-color="#4D4D4D"></stop><stop offset="0.9964" stop-color="#565656"></stop></linearGradient><linearGradient id="paint7_linear_1_1102" x1="77.9387" y1="87.6452" x2="110.361" y2="87.6452" gradientUnits="userSpaceOnUse"><stop stop-color="#383838"></stop><stop offset="0.9964" stop-color="#373737"></stop></linearGradient><linearGradient id="paint8_linear_1_1102" x1="78.8448" y1="87.1801" x2="111.249" y2="87.1801" gradientUnits="userSpaceOnUse"><stop stop-color="#4D4D4D"></stop><stop offset="0.9964" stop-color="#565656"></stop></linearGradient><linearGradient id="paint9_linear_1_1102" x1="106.037" y1="52.369" x2="49.7802" y2="88.1196" gradientUnits="userSpaceOnUse"><stop stop-color="#4E9523"></stop><stop offset="0.427083" stop-color="#79BE50"></stop><stop offset="0.9963" stop-color="#316314"></stop></linearGradient><linearGradient id="paint10_linear_1_1102" x1="99.7125" y1="75.31" x2="84.1168" y2="89.3117" gradientUnits="userSpaceOnUse"><stop stop-color="#4E9523"></stop><stop offset="0.427083" stop-color="#79BE50"></stop><stop offset="0.9963" stop-color="#316314"></stop></linearGradient><linearGradient id="paint11_linear_1_1102" x1="129.589" y1="108.736" x2="115.057" y2="96.3391" gradientUnits="userSpaceOnUse"><stop stop-color="#444B8C"></stop><stop offset="0.9964" stop-color="#26264F"></stop></linearGradient><linearGradient id="paint12_linear_1_1102" x1="109.38" y1="98.3619" x2="126.773" y2="98.3619" gradientUnits="userSpaceOnUse"><stop stop-color="#383838"></stop><stop offset="0.9964" stop-color="#373737"></stop></linearGradient><linearGradient id="paint13_linear_1_1102" x1="123.975" y1="74.5711" x2="90.0335" y2="91.5053" gradientUnits="userSpaceOnUse"><stop stop-color="#4E9523"></stop><stop offset="0.427083" stop-color="#79BE50"></stop><stop offset="0.9963" stop-color="#316314"></stop></linearGradient><linearGradient id="paint14_linear_1_1102" x1="120.846" y1="91.3186" x2="111.566" y2="99.59" gradientUnits="userSpaceOnUse"><stop stop-color="#4E9523"></stop><stop offset="0.427083" stop-color="#79BE50"></stop><stop offset="0.9963" stop-color="#316314"></stop></linearGradient><linearGradient id="paint15_linear_1_1102" x1="84.7052" y1="21.7831" x2="124.599" y2="21.7831" gradientUnits="userSpaceOnUse"><stop stop-color="#478820"></stop><stop offset="0.9964" stop-color="#375E21"></stop></linearGradient><linearGradient id="paint16_linear_1_1102" x1="116.635" y1="0.814446" x2="95.8649" y2="46.6372" gradientUnits="userSpaceOnUse"><stop stop-color="#54942E"></stop><stop offset="0.9964" stop-color="#59A32D"></stop></linearGradient><linearGradient id="paint17_linear_1_1102" x1="94.6845" y1="41.3924" x2="105.506" y2="24.2055" gradientUnits="userSpaceOnUse"><stop stop-color="#59A52C"></stop><stop offset="0.9964" stop-color="#66AF3A"></stop></linearGradient><linearGradient id="paint18_linear_1_1102" x1="99.4661" y1="16.0903" x2="115.602" y2="50.3443" gradientUnits="userSpaceOnUse"><stop stop-color="#5FB52C"></stop><stop offset="0.9964" stop-color="#74C842"></stop></linearGradient><linearGradient id="paint19_linear_1_1102" x1="48.4869" y1="112.377" x2="79.6869" y2="432.122" gradientUnits="userSpaceOnUse"><stop stop-color="white"></stop><stop offset="0.9964" stop-color="#F3F3F3"></stop></linearGradient><linearGradient id="paint20_linear_1_1102" x1="48.4869" y1="681.586" x2="1661.92" y2="2335.1" gradientUnits="userSpaceOnUse"><stop stop-color="white"></stop><stop offset="0.9964" stop-color="#F3F3F3"></stop></linearGradient><linearGradient id="paint21_linear_1_1102" x1="48.989" y1="82.968" x2="66.9317" y2="404.757" gradientUnits="userSpaceOnUse"><stop stop-color="white"></stop><stop offset="0.9964" stop-color="#F3F3F3"></stop></linearGradient><linearGradient id="paint22_linear_1_1102" x1="65.4476" y1="54.6758" x2="65.9462" y2="239.127" gradientUnits="userSpaceOnUse"><stop stop-color="white"></stop><stop offset="0.9964" stop-color="#F3F3F3"></stop></linearGradient><linearGradient id="paint23_linear_1_1102" x1="81.7214" y1="54.6758" x2="87.5926" y2="238.942" gradientUnits="userSpaceOnUse"><stop stop-color="white"></stop><stop offset="0.9964" stop-color="#F3F3F3"></stop></linearGradient><linearGradient id="paint24_linear_1_1102" x1="95.8313" y1="54.5932" x2="96.33" y2="239.042" gradientUnits="userSpaceOnUse"><stop stop-color="white"></stop><stop offset="0.9964" stop-color="white"></stop></linearGradient><linearGradient id="paint25_linear_1_1102" x1="118.568" y1="54.5318" x2="119.067" y2="238.981" gradientUnits="userSpaceOnUse"><stop stop-color="white"></stop><stop offset="0.9964" stop-color="white"></stop></linearGradient></defs></svg>