<svg xmlns="http://www.w3.org/2000/svg" width="56.267" height="67.087" viewBox="0 0 56.267 67.087"><g id="Group_6167" data-name="Group 6167" transform="translate(-326 -1975.383)"><circle id="Ellipse_2079" data-name="Ellipse 2079" cx="6.5" cy="6.5" r="6.5" transform="translate(330 1980)" fill="#4fa83d"></circle><circle id="Ellipse_2080" data-name="Ellipse 2080" cx="6.5" cy="6.5" r="6.5" transform="translate(348 1980)" fill="#4fa83d"></circle><circle id="Ellipse_2081" data-name="Ellipse 2081" cx="6.5" cy="6.5" r="6.5" transform="translate(366 1980)" fill="#4fa83d"></circle><g id="noun-review-3852500" transform="translate(203.5 1966.633)"><path id="Path_46227" data-name="Path 46227" d="M450.485,240.578l-6.492-4.328V239.5H437.5v2.164h6.492v3.246Z" transform="translate(-276.046 -199.366)" fill="#4fa83d"></path><path id="Path_46228" data-name="Path 46228" d="M148.75,240.578l6.492,4.328V241.66h6.492V239.5h-6.492V236.25Z" transform="translate(-23.004 -199.366)" fill="#4fa83d"></path><path id="Path_46229" data-name="Path 46229" d="M178.767,8.75H122.5V30.391h56.267ZM134.913,23.9l-2.675-1.479L129.563,23.9l.511-3.132-2.164-2.218,2.991-.457,1.338-2.849,1.338,2.85,2.991.457L134.4,20.767Zm19.064,1.082-3.344-1.848-3.344,1.848.639-3.915-2.705-2.773,3.738-.571,1.672-3.562,1.672,3.562,3.738.571-2.705,2.773ZM171.7,23.9l-2.675-1.479L166.353,23.9l.511-3.132L164.7,18.548l2.991-.457,1.338-2.849,1.338,2.85,2.991.457-2.164,2.218Z" transform="translate(0)" fill="#cae2bc"></path><path id="Path_46230" data-name="Path 46230" d="M303.993,218.75a6.5,6.5,0,0,0-5.952,9.09l1.983-.867a4.328,4.328,0,1,1,7.937,0l1.983.867a6.5,6.5,0,0,0-5.952-9.09Z" transform="translate(-153.359 -184.03)" fill="#4fa83d"></path><path id="Path_46231" data-name="Path 46231" d="M233.993,264.567a2.164,2.164,0,0,0-2.164,2.164v6.853h-1.082v-6.853a3.246,3.246,0,0,0-3.246,3.246v12.408a1.081,1.081,0,0,0,.182.6l1.619,2.428h0a2.166,2.166,0,0,1,.363,1.2v3.921h15.149v-4.328l2.929-2.929a1.082,1.082,0,0,0,.317-.765V271.059a2.164,2.164,0,0,0-2.164-2.164v6.492h-1.082V255.91a2.164,2.164,0,1,0-4.328,0v14.067H239.4V262.4h-1.082a2.164,2.164,0,0,0-2.164,2.164v7.214h-1.082v-7.214Z" transform="translate(-92.016 -214.699)" fill="#4fa83d"></path></g></g></svg>