<svg xmlns="http://www.w3.org/2000/svg" width="35" height="21" viewBox="0 0 35 21" fill="none"><g id="Saudi Arabia"><g id="Group"><g id="Clip path group"><mask id="mask0_9372_35007" style="mask-type:luminance" maskUnits="userSpaceOnUse" x="0" y="0" width="35" height="21"><g id="SVGID_00000143606199969125169710000018092522699308631716_"><path id="Vector" d="M34.3405 0.709961H0.780518V20.29H34.3405V0.709961Z" fill="white"></path></g></mask><g mask="url(#mask0_9372_35007)"><path id="Vector_2" d="M34.3405 0.709961H0.780518V20.29H34.3405V0.709961Z" fill="#3D9635"></path></g></g><g id="Clip path group_2"><mask id="mask1_9372_35007" style="mask-type:luminance" maskUnits="userSpaceOnUse" x="0" y="0" width="35" height="21"><g id="SVGID_00000143606199969125169710000018092522699308631716__2"><path id="Vector_3" d="M34.3405 0.709961H0.780518V20.29H34.3405V0.709961Z" fill="white"></path></g></mask><g mask="url(#mask1_9372_35007)"><g id="Group_2"><g id="Clip path group_3"><mask id="mask2_9372_35007" style="mask-type:luminance" maskUnits="userSpaceOnUse" x="0" y="0" width="35" height="21"><g id="SVGID_00000009559877179936767390000005204419787104363181_"><path id="Vector_4" d="M34.3405 0.709961H0.780518V20.29H34.3405V0.709961Z" fill="white"></path></g></mask><g mask="url(#mask2_9372_35007)"><path id="Vector_5" d="M10.2793 6.26039C10.2462 6.71701 10.2046 7.5257 10.593 7.60744C11.0625 7.65059 10.8038 6.81073 10.9726 6.65846C11.0051 6.58413 11.0646 6.58412 11.0694 6.67784V7.39301C11.0665 7.62398 11.2178 7.69014 11.337 7.7369C11.4598 7.72873 11.5422 7.73309 11.5901 7.85419C11.6102 8.26404 11.629 8.67466 11.6477 9.08471C11.6477 9.08471 11.9347 9.17007 11.9484 8.39332C11.961 7.93594 11.8574 7.55725 11.918 7.46734C11.9203 7.38122 12.0304 7.37381 12.1096 7.42058C12.2326 7.50669 12.2876 7.61219 12.4777 7.56903C12.7687 7.48653 12.9415 7.35004 12.9463 7.12344C12.9301 6.91262 12.9064 6.698 12.8155 6.48699C12.8282 6.44764 12.7579 6.3503 12.7727 6.31095C12.8244 6.39346 12.9026 6.38528 12.9199 6.31095C12.8718 6.14689 12.7951 5.99463 12.6708 5.9241C12.5672 5.83418 12.4149 5.85433 12.36 6.04519C12.3378 6.25601 12.4402 6.51816 12.5997 6.72918C12.6328 6.81092 12.6786 6.94741 12.6583 7.07307C12.5744 7.11622 12.4912 7.09987 12.4206 7.0263C12.4206 7.0263 12.1874 6.85027 12.1874 6.81548C12.2501 6.42045 12.2022 6.37368 12.168 6.26456C12.1446 6.11609 12.071 6.06553 12.0144 5.96744C11.957 5.90128 11.879 5.90128 11.8416 5.96744C11.7391 6.14347 11.7861 6.52216 11.8602 6.69439C11.9121 6.85027 11.995 6.9476 11.9572 6.9476C11.9247 7.03752 11.8594 7.01452 11.8115 6.91263C11.7431 6.70181 11.7311 6.38547 11.7311 6.24499C11.7098 6.06896 11.6864 5.69408 11.5712 5.59599C11.5009 5.50246 11.3954 5.54922 11.3583 5.63914C11.3515 5.81137 11.3515 5.98664 11.3699 6.14708C11.4511 6.42862 11.4735 6.67804 11.5135 6.96757C11.5235 7.35442 11.291 7.13542 11.3007 6.94018C11.3557 6.69438 11.3387 6.29936 11.2933 6.20202C11.2551 6.10032 11.2102 6.07656 11.1163 6.09652C11.042 6.08835 10.8536 6.29555 10.8009 6.63925C10.8009 6.63925 10.7547 6.81528 10.7363 6.97497C10.7091 7.151 10.5928 7.27572 10.512 6.94741C10.4397 6.70903 10.3977 6.12389 10.2793 6.26039Z" fill="white"></path></g></g><g id="Clip path group_4"><mask id="mask3_9372_35007" style="mask-type:luminance" maskUnits="userSpaceOnUse" x="0" y="0" width="35" height="21"><g id="SVGID_00000009559877179936767390000005204419787104363181__2"><path id="Vector_6" d="M34.3405 0.709961H0.780518V20.29H34.3405V0.709961Z" fill="white"></path></g></mask><g mask="url(#mask3_9372_35007)"><path id="Vector_7" d="M11.5567 8.13545C11.1417 8.3419 10.7393 8.52971 10.3313 8.72514C10.3482 8.4474 10.9153 7.94763 11.301 7.93945C11.5531 7.94744 11.4889 8.03736 11.5567 8.13545Z" fill="white"></path></g></g><g id="Clip path group_5"><mask id="mask4_9372_35007" style="mask-type:luminance" maskUnits="userSpaceOnUse" x="0" y="0" width="35" height="21"><g id="SVGID_00000009559877179936767390000005204419787104363181__3"><path id="Vector_8" d="M34.3405 0.709961H0.780518V20.29H34.3405V0.709961Z" fill="white"></path></g></mask><g mask="url(#mask4_9372_35007)"><path id="Vector_9" d="M13.1172 5.54897C13.0934 5.54897 13.0681 5.56456 13.0388 5.57273C12.9394 5.60011 12.8436 5.69002 12.8748 5.85788C12.993 6.57665 13.0683 7.1232 13.1865 7.83836C13.2071 7.92447 13.1348 8.03358 13.0449 8.02541C12.8896 7.9199 12.8514 7.70528 12.5879 7.71726C12.3967 7.72087 12.179 7.92808 12.1503 8.12712C12.1212 8.28756 12.1085 8.45903 12.1503 8.59571C12.2864 8.75976 12.4489 8.74057 12.5879 8.70559C12.7029 8.65806 12.7997 8.54078 12.8409 8.56815C12.8662 8.61568 12.8367 8.98998 12.2949 9.27589C11.96 9.4236 11.6955 9.46295 11.552 9.18977C11.4651 9.01754 11.5589 8.3693 11.3421 8.51777C10.6965 10.1819 12.8516 10.4161 13.0928 8.58831C13.1088 8.53717 13.1575 8.4866 13.1905 8.49838C13.2075 8.5058 13.2181 8.52595 13.2217 8.56454C13.1717 10.2167 11.5558 10.3264 11.2817 9.81065C11.2115 9.68595 11.1918 9.41637 11.1849 9.25213C11.1722 9.15042 11.1469 9.09169 11.1184 9.06869C11.0528 9.02116 10.9652 9.15043 10.9456 9.37322C10.918 9.55287 10.9262 9.60344 10.9262 9.77129C11.0119 11.0837 13.0936 10.5212 13.4337 9.43938C13.5996 8.88087 13.4297 8.46284 13.486 8.40866C13.486 8.40866 13.4873 8.40866 13.4892 8.40866C13.4892 8.40866 13.4892 8.40866 13.4911 8.40866H13.493C13.4953 8.40866 13.4979 8.40485 13.4979 8.40485C13.7088 8.62689 13.9958 8.43166 14.0605 8.35733C14.0897 8.31874 14.1563 8.29497 14.2049 8.34173C14.3654 8.45903 14.6486 8.40485 14.707 8.20144C14.7405 8.00241 14.7697 7.7952 14.7772 7.58001C14.6699 7.61195 14.5859 7.63855 14.5525 7.67429C14.545 7.68171 14.5382 7.69368 14.5361 7.70547C14.5281 7.75965 14.5194 7.82276 14.5097 7.88074C14.5097 7.88511 14.5057 7.89329 14.5049 7.89709C14.5009 7.9045 14.492 7.90831 14.4844 7.91268C14.4469 7.93569 14.3846 7.92009 14.3789 7.86591C14.3298 7.64312 14.1249 7.60757 13.9998 7.95944C13.9141 8.02921 13.7637 8.04119 13.7468 7.94386C13.7683 7.70548 13.6719 7.6743 13.4814 7.78342C13.4209 7.31482 13.3582 6.86922 13.297 6.40081C13.3778 6.40081 13.4479 6.45955 13.5223 6.36964C13.4434 6.12384 13.2774 5.6233 13.1835 5.57654H13.1816C13.1778 5.57292 13.1715 5.56455 13.167 5.56094C13.167 5.56094 13.163 5.56095 13.1611 5.55715C13.1592 5.55715 13.1573 5.55715 13.1556 5.55715C13.1516 5.55335 13.1455 5.55334 13.1445 5.54897C13.1346 5.54897 13.1259 5.54536 13.1172 5.54897ZM12.5381 8.11533C12.578 8.11153 12.6267 8.12731 12.6523 8.18586C12.6698 8.23643 12.6523 8.28755 12.6286 8.31056C12.6286 8.31056 12.6286 8.31056 12.6267 8.31056C12.6101 8.33793 12.5556 8.32615 12.5145 8.32615C12.4643 8.32615 12.4413 8.31494 12.4128 8.27559C12.3984 8.23243 12.4392 8.18947 12.4588 8.15449C12.4588 8.15449 12.4588 8.15449 12.4607 8.15449C12.4626 8.15449 12.4643 8.14632 12.4678 8.14251C12.4841 8.13092 12.5088 8.11913 12.5381 8.11533Z" fill="white"></path></g></g><g id="Clip path group_6"><mask id="mask5_9372_35007" style="mask-type:luminance" maskUnits="userSpaceOnUse" x="0" y="0" width="35" height="21"><g id="SVGID_00000009559877179936767390000005204419787104363181__4"><path id="Vector_10" d="M34.3405 0.709961H0.780518V20.29H34.3405V0.709961Z" fill="white"></path></g></mask><g mask="url(#mask5_9372_35007)"><path id="Vector_11" d="M14.5686 5.51037C14.5144 5.51417 14.4644 5.52976 14.4231 5.54896C14.3167 5.65447 14.2916 5.81472 14.3745 5.92023C14.4566 5.95521 14.5385 6.04132 14.483 6.08428C14.252 6.33008 13.6486 6.74451 13.6184 6.82245V6.82625C13.6207 6.82625 13.6207 6.82987 13.6207 6.82987H13.6226H13.6235H13.6254C13.657 6.85363 14.0326 6.85362 14.0756 6.83423V6.82987H14.0766C14.2068 6.78386 14.8206 6.08067 14.8206 6.08067C14.7906 6.0533 14.7592 6.03391 14.7281 6.00635C14.694 5.97878 14.6969 5.9476 14.7281 5.92023C14.8794 5.83031 14.8326 5.63507 14.7533 5.54516C14.687 5.51417 14.6244 5.506 14.5686 5.51037ZM14.5404 5.725C14.5784 5.72139 14.6225 5.75998 14.645 5.80674C14.6693 5.85807 14.6566 5.90844 14.6197 5.92041C14.5803 5.92783 14.5303 5.89305 14.5054 5.84248C14.4809 5.78754 14.4946 5.73697 14.5336 5.72879C14.5355 5.72879 14.5366 5.725 14.5404 5.725Z" fill="white"></path></g></g><g id="Clip path group_7"><mask id="mask6_9372_35007" style="mask-type:luminance" maskUnits="userSpaceOnUse" x="0" y="0" width="35" height="21"><g id="SVGID_00000009559877179936767390000005204419787104363181__5"><path id="Vector_12" d="M34.3405 0.709961H0.780518V20.29H34.3405V0.709961Z" fill="white"></path></g></mask><g mask="url(#mask6_9372_35007)"><path id="Vector_13" d="M10.3739 9.31465C10.1442 9.68154 10.1237 10.2286 10.2509 10.3925C10.3184 10.4708 10.4284 10.5062 10.5117 10.4786C10.6552 10.4163 10.7195 10.1233 10.6845 10.0178C10.6364 9.9395 10.5984 9.92791 10.5497 9.99406C10.449 10.1975 10.4058 10.0568 10.3971 9.93951C10.3805 9.72089 10.4016 9.52185 10.4243 9.36141C10.4499 9.20096 10.4243 9.24849 10.3739 9.31465Z" fill="white"></path></g></g><g id="Clip path group_8"><mask id="mask7_9372_35007" style="mask-type:luminance" maskUnits="userSpaceOnUse" x="0" y="0" width="35" height="21"><g id="SVGID_00000009559877179936767390000005204419787104363181__6"><path id="Vector_14" d="M34.3405 0.709961H0.780518V20.29H34.3405V0.709961Z" fill="white"></path></g></mask><g mask="url(#mask7_9372_35007)"><path id="Vector_15" d="M20.203 8.7288C19.9821 8.24841 19.6735 7.77602 19.5758 7.59638C19.4772 7.41293 18.7378 6.34209 18.6287 6.21738C18.3873 5.93223 19.0194 6.33848 18.5485 5.76818C18.3709 5.61591 18.3603 5.60773 18.2088 5.48303C18.1365 5.42809 17.9512 5.33455 17.9206 5.49119C17.9031 5.63529 17.9118 5.71324 17.9362 5.83053C17.955 5.90847 18.069 6.04515 18.1259 6.11948C18.8764 7.1272 19.5414 8.14292 20.1828 9.42401C20.2845 9.37705 20.2634 8.81054 20.203 8.7288Z" fill="white"></path></g></g><g id="Clip path group_9"><mask id="mask8_9372_35007" style="mask-type:luminance" maskUnits="userSpaceOnUse" x="0" y="0" width="35" height="21"><g id="SVGID_00000009559877179936767390000005204419787104363181__7"><path id="Vector_16" d="M34.3405 0.709961H0.780518V20.29H34.3405V0.709961Z" fill="white"></path></g></mask><g mask="url(#mask8_9372_35007)"><path id="Vector_17" d="M19.2279 10.3302C19.183 10.377 19.3342 10.592 19.5325 10.5878C19.8617 10.5524 20.1528 10.3654 20.4204 9.87721C20.4915 9.76391 20.6195 9.5219 20.6231 9.33028C20.6469 8.22523 20.5676 7.3654 20.4016 6.56489C20.3898 6.48695 20.3967 6.39703 20.4094 6.37327C20.4309 6.34589 20.5033 6.37327 20.5414 6.31091C20.5988 6.25217 20.3929 5.77559 20.2756 5.59214C20.2338 5.5104 20.2187 5.45547 20.1495 5.60032C20.0771 5.72142 20.0275 5.93223 20.0345 6.12385C20.1917 7.20952 20.2395 8.16668 20.344 9.25235C20.3509 9.35785 20.3372 9.51373 20.267 9.57247C20.0072 9.84602 19.6326 10.1779 19.2279 10.3302Z" fill="white"></path></g></g><g id="Clip path group_10"><mask id="mask9_9372_35007" style="mask-type:luminance" maskUnits="userSpaceOnUse" x="0" y="0" width="35" height="21"><g id="SVGID_00000009559877179936767390000005204419787104363181__8"><path id="Vector_18" d="M34.3405 0.709961H0.780518V20.29H34.3405V0.709961Z" fill="white"></path></g></mask><g mask="url(#mask9_9372_35007)"><path id="Vector_19" d="M23.6819 10.3224C23.4439 10.4591 23.4439 10.6192 23.637 10.6232C23.967 10.5842 24.3571 10.5566 24.6267 10.1506C24.6976 10.0373 24.7826 9.72911 24.7856 9.54129C24.8109 8.43623 24.7719 7.35437 24.6071 6.5531C24.5961 6.47877 24.5592 6.29913 24.5737 6.27232C24.5961 6.22118 24.7029 6.27974 24.7389 6.21738C24.7974 6.16244 24.4632 5.72883 24.3444 5.54538C24.3041 5.46364 24.2896 5.4087 24.2206 5.55736C24.1463 5.67465 24.1225 5.88927 24.152 6.07633C24.3261 7.26008 24.4566 8.40507 24.4832 9.45138C24.4695 9.55308 24.4632 9.60802 24.4164 9.72912C24.3151 9.8658 24.1986 10.0295 24.0946 10.1078C23.9847 10.1857 23.756 10.2637 23.6819 10.3224Z" fill="white"></path></g></g><g id="Clip path group_11"><mask id="mask10_9372_35007" style="mask-type:luminance" maskUnits="userSpaceOnUse" x="0" y="0" width="35" height="21"><g id="SVGID_00000009559877179936767390000005204419787104363181__9"><path id="Vector_20" d="M34.3405 0.709961H0.780518V20.29H34.3405V0.709961Z" fill="white"></path></g></mask><g mask="url(#mask10_9372_35007)"><path id="Vector_21" d="M23.8572 9.26413C23.8534 8.98639 23.865 8.74801 23.8534 8.5408C23.8447 8.33815 23.7485 7.56063 23.7192 7.39657C23.6875 7.22871 23.654 6.97855 23.6092 6.77951C23.5926 6.70157 23.5533 6.45196 23.5683 6.4282C23.5858 6.37326 23.6618 6.43181 23.6962 6.36585C23.7517 6.3071 23.5095 5.67825 23.3844 5.49842C23.3417 5.41592 23.2594 5.44347 23.162 5.57635C23.0672 5.66247 23.1021 5.8579 23.1373 6.04496C23.3748 7.27909 23.5514 8.57273 23.5133 9.75192C23.4997 9.85001 23.861 9.45138 23.8572 9.26413Z" fill="white"></path></g></g><g id="Clip path group_12"><mask id="mask11_9372_35007" style="mask-type:luminance" maskUnits="userSpaceOnUse" x="0" y="0" width="35" height="21"><g id="SVGID_00000009559877179936767390000005204419787104363181__10"><path id="Vector_22" d="M34.3405 0.709961H0.780518V20.29H34.3405V0.709961Z" fill="white"></path></g></mask><g mask="url(#mask11_9372_35007)"><path id="Vector_23" d="M22.1118 7.73305C21.9622 7.72868 21.6496 7.44429 21.5592 7.27567C21.5247 7.17834 21.5491 7.0848 21.5766 7.02986C21.6322 6.99488 21.7173 6.95193 21.7797 6.99489C21.7797 6.99489 21.8462 7.08481 21.8335 7.09584C21.9145 7.13519 21.9496 7.11143 21.9582 7.07645C21.9631 7.02151 21.9327 6.98653 21.9327 6.92417C21.9671 6.74814 22.1654 6.72513 22.2403 6.83425C22.2951 6.90041 22.3158 7.04147 22.3232 7.1388C22.3213 7.18937 22.2424 7.13138 22.1975 7.14316C22.1506 7.15438 22.1411 7.20552 22.1371 7.25229C22.1274 7.38099 22.1135 7.58002 22.1118 7.73305Z" fill="white"></path></g></g><g id="Clip path group_13"><mask id="mask12_9372_35007" style="mask-type:luminance" maskUnits="userSpaceOnUse" x="0" y="0" width="35" height="21"><g id="SVGID_00000009559877179936767390000005204419787104363181__11"><path id="Vector_24" d="M34.3405 0.709961H0.780518V20.29H34.3405V0.709961Z" fill="white"></path></g></mask><g mask="url(#mask12_9372_35007)"><path id="Vector_25" d="M19.3632 9.57229C19.405 9.19361 19.3495 8.42789 19.3453 8.20528C19.3316 7.68175 19.244 6.67041 19.2046 6.50255C19.1579 6.18242 19.3346 6.53753 19.3096 6.35028C19.2527 6.03395 19.0769 5.81857 18.8691 5.52601C18.8024 5.43248 18.8056 5.41232 18.7008 5.549C18.5875 5.80659 18.6864 5.98643 18.7145 6.18984C18.8641 6.84626 18.952 7.45153 18.9919 8.0492C19.0331 8.64688 19.0457 9.39247 19.0086 10.0255C19.1206 10.0257 19.3004 9.84186 19.3632 9.57229Z" fill="white"></path></g></g><g id="Clip path group_14"><mask id="mask13_9372_35007" style="mask-type:luminance" maskUnits="userSpaceOnUse" x="0" y="0" width="35" height="21"><g id="SVGID_00000009559877179936767390000005204419787104363181__12"><path id="Vector_26" d="M34.3405 0.709961H0.780518V20.29H34.3405V0.709961Z" fill="white"></path></g></mask><g mask="url(#mask13_9372_35007)"><path id="Vector_27" d="M24.364 8.96717C24.1034 8.52614 23.7058 8.01001 23.6003 7.83474C23.4941 7.6587 22.5985 6.34587 22.4859 6.22858C22.158 5.88925 22.6363 6.1744 22.4249 5.90484C22.2439 5.7096 22.1905 5.64706 22.0369 5.52976C21.9609 5.483 21.9131 5.38491 21.8879 5.54536C21.8778 5.69022 21.8664 5.85426 21.8759 5.97536C21.8759 6.04513 21.9443 6.16622 22.0067 6.24055C22.7966 7.2171 23.6646 8.40884 24.36 9.65856C24.4596 9.6118 24.4256 9.04511 24.364 8.96717Z" fill="white"></path></g></g><g id="Clip path group_15"><mask id="mask14_9372_35007" style="mask-type:luminance" maskUnits="userSpaceOnUse" x="0" y="0" width="35" height="21"><g id="SVGID_00000009559877179936767390000005204419787104363181__13"><path id="Vector_28" d="M34.3405 0.709961H0.780518V20.29H34.3405V0.709961Z" fill="white"></path></g></mask><g mask="url(#mask14_9372_35007)"><path id="Vector_29" d="M21.1872 14.1655H21.1853C20.9537 14.2242 20.9605 14.4662 21.1109 14.5717C18.6589 14.5717 14.8965 14.5331 14.0928 14.5331C13.6397 14.5331 12.213 14.4782 12.1868 14.4782C12.4917 14.9238 12.9362 15.0135 13.515 15.0247C14.6043 15.0247 19.6484 15.0135 21.0816 15.0135C20.9803 15.1932 21.0917 15.4821 21.1727 15.5363C21.1746 15.5363 21.1765 15.5407 21.1784 15.5407C21.1816 15.5443 21.1833 15.5443 21.1872 15.5443H21.1911C21.287 15.5673 21.3288 15.4975 21.3617 15.4507C21.5134 15.4622 22.381 15.4737 22.4624 15.4464C22.5158 15.5251 22.5707 15.599 22.6723 15.5874C22.851 15.5481 22.9918 15.5287 22.9977 15.1656C22.9977 15.1656 22.9789 14.5485 22.5728 14.5871C22.4761 14.5991 22.2078 14.6265 22.2078 14.6265C21.8953 14.5915 21.6647 14.5871 21.3145 14.5715C21.3476 14.5329 21.4031 14.3643 21.3339 14.3058C21.3164 14.2909 21.289 14.2828 21.2497 14.2828H21.2461H21.2432C21.241 14.2828 21.2373 14.279 21.2352 14.2746C21.2352 14.2746 21.2341 14.2746 21.2341 14.2708C21.2166 14.2514 21.2062 14.1847 21.1955 14.1653H21.1932H21.1892L21.1872 14.1655ZM21.3531 15.0485C21.3531 15.0485 21.3531 15.0485 21.3554 15.0485C21.7107 15.0641 22.0468 15.0521 22.4057 15.0679C22.4626 15.1192 22.4333 15.2283 22.3962 15.2475C22.3962 15.2517 22.3922 15.2517 22.3913 15.2517H22.3875C22.3831 15.2517 22.3812 15.2517 22.3812 15.2517C22.2652 15.2475 22.1989 15.2475 22.0825 15.2439C22.0825 15.2357 22.0787 15.2319 22.0787 15.2245C22.0506 15.1422 21.8523 15.1502 21.8044 15.2163H21.8025L21.8006 15.2205C21.7995 15.2205 21.7995 15.2245 21.7974 15.2283C21.7974 15.2283 21.7974 15.2321 21.7974 15.2357C21.7955 15.2401 21.7955 15.2439 21.7955 15.2477C21.6383 15.2633 21.498 15.2441 21.3387 15.2321C21.2946 15.177 21.2995 15.0761 21.3531 15.0485Z" fill="white"></path></g></g><g id="Clip path group_16"><mask id="mask15_9372_35007" style="mask-type:luminance" maskUnits="userSpaceOnUse" x="0" y="0" width="35" height="21"><g id="SVGID_00000009559877179936767390000005204419787104363181__14"><path id="Vector_30" d="M34.3405 0.709961H0.780518V20.29H34.3405V0.709961Z" fill="white"></path></g></mask><g mask="url(#mask15_9372_35007)"><path id="Vector_31" d="M14.9853 5.88551C14.7469 6.56493 15.1232 7.31507 15.3826 7.24435C15.5712 7.31868 15.6893 6.9592 15.7676 6.56854C15.8212 6.45943 15.86 6.44745 15.8876 6.50239C15.88 7.02592 15.9248 7.14321 16.0585 7.29909C16.3583 7.5293 16.6064 7.33027 16.6239 7.30651C16.6436 7.29092 16.8573 7.0763 16.8573 7.0763C16.9073 7.02136 16.9765 7.01756 17.052 7.06813C17.1212 7.13124 17.1124 7.24415 17.2647 7.31848C17.3913 7.37342 17.6649 7.33408 17.7295 7.22116C17.8152 7.0763 17.8337 7.02592 17.873 6.97098C17.9354 6.88847 18.0379 6.92421 18.0379 6.95159C18.0289 6.99835 17.9706 7.04151 18.0088 7.12307C18.0829 7.17801 18.0995 7.14302 18.1434 7.13124C18.2949 7.05691 18.4089 6.72879 18.4089 6.72879C18.4139 6.60409 18.3464 6.61511 18.2996 6.64267C18.243 6.67765 18.2392 6.68944 18.1804 6.72518C18.1072 6.7326 17.9628 6.78392 17.8934 6.67385C17.8192 6.54097 17.8192 6.35372 17.7626 6.22084C17.7626 6.21343 17.667 6.01363 17.7569 5.99805C17.8006 6.00622 17.8964 6.03379 17.913 5.95129C17.9611 5.87334 17.8113 5.64675 17.7099 5.53687C17.62 5.43954 17.4968 5.42775 17.3799 5.52565C17.2978 5.59998 17.3084 5.68971 17.2923 5.76765C17.2717 5.86118 17.2772 5.97486 17.3712 6.09595C17.4542 6.26001 17.6054 6.47101 17.555 6.76358C17.555 6.76358 17.4656 6.90463 17.3126 6.88828C17.2503 6.87346 17.1444 6.8459 17.0889 6.43908C17.0489 6.12712 17.1008 5.68971 16.9678 5.49086C16.92 5.3654 16.8866 5.2443 16.7706 5.45892C16.7375 5.54142 16.6066 5.66613 16.7024 5.92372C16.7803 6.08777 16.8138 6.34993 16.7763 6.6463C16.7227 6.73241 16.7102 6.75997 16.6377 6.84608C16.5362 6.95159 16.428 6.92403 16.3438 6.88468C16.264 6.82974 16.2035 6.80294 16.1678 6.63888C16.1727 6.36932 16.1866 5.93189 16.1389 5.8376C16.0687 5.68989 15.9484 5.74407 15.8986 5.78704C15.6524 6.00983 15.5302 6.38851 15.4583 6.68925C15.3901 6.90824 15.3165 6.8459 15.2671 6.75617C15.1435 6.64287 15.1348 5.73704 14.9853 5.88551Z" fill="white"></path></g></g><g id="Clip path group_17"><mask id="mask16_9372_35007" style="mask-type:luminance" maskUnits="userSpaceOnUse" x="0" y="0" width="35" height="21"><g id="SVGID_00000009559877179936767390000005204419787104363181__15"><path id="Vector_32" d="M34.3405 0.709961H0.780518V20.29H34.3405V0.709961Z" fill="white"></path></g></mask><g mask="url(#mask16_9372_35007)"><path id="Vector_33" d="M15.7895 7.29565C15.7889 7.29927 15.7868 7.29927 15.7828 7.29927L15.7809 7.30307C15.7653 7.31048 15.7446 7.33805 15.7037 7.36923C15.6324 7.45173 15.6227 7.50666 15.6267 7.66255C15.6296 7.68194 15.7575 8.03762 15.868 8.29159C15.9414 8.55736 16.0106 8.85449 15.9596 9.13888C15.7891 9.51395 15.4402 9.84624 15.1053 10.0297C14.9338 10.0842 14.788 10.0687 14.749 10.0297V10.0259C14.6486 9.96315 14.6464 9.84624 14.6522 9.82285H14.6541C14.9355 9.62382 15.2604 9.46718 15.5134 8.93622C15.587 8.73282 15.61 8.61173 15.5372 8.2954C15.5066 8.18248 15.4686 8.08458 15.3906 8.00283C15.3906 8.00283 15.3925 8.00283 15.3925 7.99846C15.4404 7.97546 15.5646 8.06899 15.5849 8.01043C15.5549 7.85816 15.4532 7.65913 15.3389 7.55743C15.2374 7.4639 15.1292 7.45572 15.0353 7.53804C14.9327 7.59678 14.9114 7.80379 14.9593 7.98724C15.0148 8.11936 15.1661 8.14312 15.2733 8.41649V8.42029C15.2756 8.43664 15.3087 8.62751 15.2547 8.70621C15.211 8.84213 14.6505 9.28393 14.6112 9.30769L14.6074 9.31148C14.6074 9.31148 14.6074 9.31149 14.6074 9.31529H14.6055H14.6042H14.6022H14.6003C14.6003 9.31149 14.5984 9.31148 14.5984 9.31148C14.5984 9.29951 14.6022 9.26834 14.5984 9.22157C14.5964 9.14363 14.6296 8.95581 14.6277 8.92083H14.6256V8.91722H14.6235C14.4397 9.03831 14.3774 9.40502 14.3433 9.51432C13.8743 9.83521 13.3434 10.0772 13.0367 10.4088C12.8767 10.6549 14.1371 10.1198 14.2829 10.0574C14.2848 10.0574 14.2869 10.0574 14.2888 10.061C14.3159 10.0886 14.3159 10.1936 14.4011 10.2916C14.5327 10.4713 14.81 10.5806 15.0804 10.5141C15.5347 10.3504 15.7963 10.0377 16.0647 9.69377C16.1018 9.63959 16.1624 9.59645 16.2161 9.6396C16.3989 10.0495 16.9271 10.3384 17.6097 10.3696C17.7669 10.1783 17.6928 10.0806 17.6282 10.0455C17.6076 10.0299 17.2884 9.90479 17.2394 9.78009C17.2096 9.66679 17.2837 9.56546 17.4369 9.48752C17.8734 9.43619 18.3057 9.37384 18.723 9.24096C18.7258 9.10067 18.8087 8.88965 18.8637 8.79993C18.9026 8.73757 18.9272 8.7294 18.9367 8.72122C18.9367 8.72122 18.9388 8.72122 18.9388 8.71742C18.9407 8.71742 18.9407 8.71742 18.9407 8.71742V8.71362C18.9407 8.71362 18.9407 8.71001 18.9388 8.70621L18.8667 8.66305L17.469 8.65488C17.4525 8.65127 17.4388 8.63929 17.4301 8.63549H17.4291C17.4291 8.63112 17.4291 8.63112 17.4291 8.63112H17.4272L17.4253 8.62751H17.423V8.6237V8.62009V8.61629C17.423 8.61192 17.4253 8.61191 17.4253 8.61191C17.4322 8.59994 17.4497 8.59253 17.4689 8.58511C17.805 8.5412 18.3968 8.44405 18.4346 7.86995C18.4298 7.57282 18.3097 7.38139 17.9437 7.32721C17.6761 7.35022 17.4858 7.60799 17.5151 7.89371C17.5031 7.96728 17.5422 8.11955 17.4637 8.13571C16.9493 8.18628 16.3887 8.50622 16.3681 8.73719H16.3674H16.3634H16.3611L16.3575 8.741C16.3575 8.741 16.3575 8.741 16.3565 8.741H16.3546H16.3526H16.3505L16.345 8.73719C16.3115 8.72901 16.2689 8.67484 16.2763 8.59613C16.2569 8.19806 16.1261 7.74885 15.9233 7.40059C15.8518 7.32702 15.8197 7.29965 15.798 7.29585H15.7961H15.7921H15.7902H15.7895M17.8323 7.80722C17.8658 7.80342 17.9048 7.81083 17.9418 7.83459C17.9983 7.86577 18.0318 7.91253 18.0276 7.95112V7.9555V7.9591H18.0257C18.0257 7.96291 18.0238 7.96291 18.0238 7.96291V7.96672C18.0205 7.96672 18.0188 7.97032 18.015 7.97488C17.9875 8.00245 17.9283 7.99789 17.8685 7.96291C17.8139 7.93173 17.7799 7.88041 17.7827 7.84924V7.84543C17.7846 7.83802 17.7867 7.83421 17.7886 7.83421C17.7905 7.82984 17.7905 7.82984 17.7924 7.82604C17.7943 7.82224 17.7956 7.82223 17.7993 7.81786C17.8061 7.81102 17.8207 7.80722 17.8323 7.80722ZM16.5326 8.98642C16.5366 8.98642 16.5427 8.98642 16.5476 8.98642H16.5495C16.7048 9.02957 16.935 9.03318 17.1341 9.05333C17.2962 9.06531 17.3765 9.19001 17.2251 9.24495C17.0757 9.29552 16.9312 9.33448 16.9312 9.5531C16.9497 9.65861 16.9468 9.71716 16.9293 9.74016C16.9293 9.74453 16.925 9.74834 16.9231 9.74834C16.9231 9.74834 16.9231 9.74834 16.9231 9.75195H16.9225H16.9202V9.75613H16.916C16.9141 9.75613 16.9115 9.76012 16.9092 9.76012C16.9073 9.76373 16.9037 9.76374 16.9037 9.76374C16.8666 9.76754 16.8147 9.72875 16.7744 9.71259C16.6845 9.64283 16.424 9.48676 16.387 9.1385C16.3822 9.06075 16.4408 8.99459 16.5326 8.98642Z" fill="white"></path></g></g><g id="Clip path group_18"><mask id="mask17_9372_35007" style="mask-type:luminance" maskUnits="userSpaceOnUse" x="0" y="0" width="35" height="21"><g id="SVGID_00000009559877179936767390000005204419787104363181__16"><path id="Vector_34" d="M34.3405 0.709961H0.780518V20.29H34.3405V0.709961Z" fill="white"></path></g></mask><g mask="url(#mask17_9372_35007)"><path id="Vector_35" d="M12.0407 5.89279C12.2027 5.96712 12.5044 5.93594 12.4918 5.67816C12.4918 5.6544 12.4871 5.57646 12.4848 5.55707C12.4536 5.47837 12.3618 5.49472 12.3422 5.57646C12.3355 5.60022 12.3523 5.64338 12.3296 5.6582C12.3148 5.67018 12.2641 5.66257 12.2652 5.59204C12.2652 5.56828 12.2496 5.54148 12.2384 5.52969C12.2298 5.52228 12.2228 5.51772 12.2025 5.51772C12.1814 5.52209 12.1814 5.52589 12.1713 5.54528C12.1637 5.56468 12.1587 5.58463 12.1587 5.60402C12.1547 5.63158 12.1443 5.639 12.1257 5.64338C12.107 5.64338 12.1108 5.64698 12.0922 5.6352C12.0833 5.62322 12.0688 5.61961 12.0688 5.60022C12.0688 5.58464 12.0646 5.54908 12.0608 5.5371C12.0513 5.52589 12.0376 5.51772 12.0209 5.51411C11.9321 5.51411 11.9262 5.61581 11.9321 5.6544C11.9243 5.66257 11.9215 5.84222 12.0407 5.89279Z" fill="white"></path></g></g><g id="Clip path group_19"><mask id="mask18_9372_35007" style="mask-type:luminance" maskUnits="userSpaceOnUse" x="0" y="0" width="35" height="21"><g id="SVGID_00000009559877179936767390000005204419787104363181__17"><path id="Vector_36" d="M34.3405 0.709961H0.780518V20.29H34.3405V0.709961Z" fill="white"></path></g></mask><g mask="url(#mask18_9372_35007)"><path id="Vector_37" d="M16.7621 7.89335C16.9235 7.96692 17.3058 7.92452 17.2142 7.67435C17.2142 7.65058 17.2087 7.57265 17.2045 7.55326C17.1724 7.47532 17.083 7.49452 17.0619 7.57265C17.057 7.60021 17.0745 7.64317 17.0513 7.65876C17.0376 7.66998 16.9857 7.65876 16.9866 7.58823C16.9866 7.56523 16.9707 7.54147 16.96 7.5295C16.9503 7.52208 16.9444 7.51751 16.9237 7.51751C16.9026 7.52188 16.9026 7.52569 16.8897 7.54508C16.8857 7.56067 16.8781 7.58006 16.8781 7.60382C16.8749 7.6312 16.865 7.63861 16.8456 7.64317C16.8262 7.64317 16.8319 7.64698 16.8135 7.635C16.8024 7.62378 16.7901 7.61941 16.7901 7.60002C16.7901 7.58006 16.7868 7.54869 16.7791 7.53766C16.7713 7.52569 16.7566 7.5177 16.7401 7.5139C16.6534 7.5139 16.6485 7.61561 16.6511 7.65496C16.6471 7.65876 16.6429 7.83841 16.7621 7.89335Z" fill="white"></path></g></g><g id="Clip path group_20"><mask id="mask19_9372_35007" style="mask-type:luminance" maskUnits="userSpaceOnUse" x="0" y="0" width="35" height="21"><g id="SVGID_00000009559877179936767390000005204419787104363181__18"><path id="Vector_38" d="M34.3405 0.709961H0.780518V20.29H34.3405V0.709961Z" fill="white"></path></g></mask><g mask="url(#mask19_9372_35007)"><path id="Vector_39" d="M19.5164 7.06474C19.6765 7.13907 19.9795 7.10409 19.9662 6.8465C19.9662 6.82654 19.9617 6.74841 19.9598 6.7254C19.9253 6.65107 19.8347 6.66667 19.8172 6.74841C19.809 6.77217 19.8259 6.81532 19.8025 6.82635C19.7909 6.8427 19.7379 6.83453 19.7398 6.7602C19.7398 6.74081 19.7242 6.71343 19.7136 6.69785C19.7048 6.69404 19.698 6.69404 19.6786 6.69404C19.6567 6.69404 19.6567 6.69784 19.6442 6.71704C19.6383 6.73643 19.6314 6.75639 19.6314 6.77939C19.6295 6.80315 19.6198 6.81058 19.5993 6.81514C19.5795 6.81514 19.5824 6.81875 19.5681 6.80696C19.5571 6.79878 19.5444 6.79137 19.5444 6.77217C19.5444 6.75278 19.5389 6.72085 19.5337 6.70526C19.5236 6.69785 19.5103 6.69404 19.4948 6.68967C19.4067 6.68967 19.3999 6.79137 19.4058 6.82635C19.4001 6.83452 19.3963 7.01417 19.5164 7.06474Z" fill="white"></path></g></g><g id="Clip path group_21"><mask id="mask20_9372_35007" style="mask-type:luminance" maskUnits="userSpaceOnUse" x="0" y="0" width="35" height="21"><g id="SVGID_00000009559877179936767390000005204419787104363181__19"><path id="Vector_40" d="M34.3405 0.709961H0.780518V20.29H34.3405V0.709961Z" fill="white"></path></g></mask><g mask="url(#mask20_9372_35007)"><path id="Vector_41" d="M20.9409 9.13863C20.6606 9.45534 20.7836 9.9785 20.8473 10.0922C20.9409 10.2756 21.0152 10.3967 21.1939 10.4865C21.3602 10.6112 21.4868 10.5332 21.5574 10.4475C21.7212 10.2756 21.7252 9.842 21.8013 9.75608C21.8568 9.59601 21.9914 9.62359 22.0581 9.69335C22.1243 9.78327 22.1995 9.846 22.2933 9.89676C22.4465 10.0293 22.6309 10.0568 22.8119 9.93155C22.9366 9.86539 23.0178 9.7711 23.0883 9.59583C23.1714 9.37683 23.1263 8.20866 23.1084 7.61916C23.1006 7.5724 22.9493 6.80687 22.9493 6.79869C22.9493 6.79128 22.9278 6.40803 22.9123 6.3183C22.9085 6.27971 22.8999 6.26773 22.9385 6.27229C22.9797 6.31088 22.9834 6.31468 23.01 6.32286C23.0508 6.33027 23.0883 6.26051 23.064 6.19359C22.9366 5.95901 22.8069 5.72138 22.679 5.49117C22.6497 5.45543 22.6085 5.42426 22.5588 5.49497C22.513 5.53737 22.4632 5.6079 22.4651 5.7058C22.4769 5.87366 22.5062 6.04513 22.5166 6.21375C22.5685 6.49814 22.6193 6.78766 22.6712 7.07661C22.7189 7.69007 22.7326 8.25219 22.7807 8.86546C22.7725 9.12304 22.6936 9.47074 22.6147 9.50192C22.6147 9.50192 22.5024 9.57244 22.4241 9.49811C22.3663 9.47511 22.1418 9.12305 22.1418 9.12305C22.0266 9.01754 21.9497 9.04511 21.8678 9.12305C21.641 9.34205 21.5418 9.74829 21.3874 10.0295C21.3465 10.0922 21.2348 10.1467 21.1119 10.0256C20.7954 9.59602 20.981 8.98275 20.9409 9.13863Z" fill="white"></path></g></g><g id="Clip path group_22"><mask id="mask21_9372_35007" style="mask-type:luminance" maskUnits="userSpaceOnUse" x="0" y="0" width="35" height="21"><g id="SVGID_00000009559877179936767390000005204419787104363181__20"><path id="Vector_42" d="M34.3405 0.709961H0.780518V20.29H34.3405V0.709961Z" fill="white"></path></g></mask><g mask="url(#mask21_9372_35007)"><path id="Vector_43" d="M19.5885 5.5572C19.7321 5.61594 19.8334 5.9047 19.7999 6.0488C19.7706 6.22483 19.6957 6.42006 19.6399 6.39345C19.5815 6.36968 19.6802 6.21741 19.6243 6.05696C19.5902 5.95146 19.395 5.76441 19.4155 5.70567C19.3745 5.58837 19.4994 5.53343 19.5885 5.5572Z" fill="white"></path></g></g><g id="Clip path group_23"><mask id="mask22_9372_35007" style="mask-type:luminance" maskUnits="userSpaceOnUse" x="0" y="0" width="35" height="21"><g id="SVGID_00000009559877179936767390000005204419787104363181__21"><path id="Vector_44" d="M34.3405 0.709961H0.780518V20.29H34.3405V0.709961Z" fill="white"></path></g></mask><g mask="url(#mask22_9372_35007)"><path id="Vector_45" d="M21.4049 9.31475C21.4355 8.96724 21.3844 8.74805 21.3751 8.54103C21.366 8.33839 21.1434 6.66303 21.0966 6.50639C21.0418 6.21382 21.3145 6.46703 21.2829 6.29556C21.189 6.08094 20.955 5.76461 20.8827 5.57679C20.836 5.49505 20.8552 5.42452 20.7557 5.5574C20.6658 5.85814 20.6325 6.10014 20.6668 6.29176C20.9038 7.52589 21.1464 8.65091 21.1091 9.82269C21.2205 9.82269 21.3494 9.56872 21.4049 9.31475Z" fill="white"></path></g></g><g id="Clip path group_24"><mask id="mask23_9372_35007" style="mask-type:luminance" maskUnits="userSpaceOnUse" x="0" y="0" width="35" height="21"><g id="SVGID_00000009559877179936767390000005204419787104363181__22"><path id="Vector_46" d="M34.3405 0.709961H0.780518V20.29H34.3405V0.709961Z" fill="white"></path></g></mask><g mask="url(#mask23_9372_35007)"><path id="Vector_47" d="M23.8683 5.97158C24.0031 6.04135 24.0791 6.40443 24.0649 6.50994C24.0392 6.70156 23.97 6.90877 23.9191 6.88121C23.8655 6.85744 23.9301 6.59606 23.9035 6.51812C23.8723 6.40444 23.6947 6.19723 23.7132 6.13488C23.6771 6.00656 23.7913 5.95143 23.8683 5.97158Z" fill="white"></path></g></g><g id="Clip path group_25"><mask id="mask24_9372_35007" style="mask-type:luminance" maskUnits="userSpaceOnUse" x="0" y="0" width="35" height="21"><g id="SVGID_00000009559877179936767390000005204419787104363181__23"><path id="Vector_48" d="M34.3405 0.709961H0.780518V20.29H34.3405V0.709961Z" fill="white"></path></g></mask><g mask="url(#mask24_9372_35007)"><path id="Vector_49" d="M14.0954 8.65083C14.2195 8.69759 14.2948 8.96715 14.2802 9.04509C14.2549 9.18615 14.1885 9.33442 14.1416 9.31845C14.0885 9.29906 14.1522 9.10764 14.126 9.0489C14.1159 8.9048 13.9412 8.83066 13.945 8.76812C13.9119 8.65444 14.0165 8.63524 14.0954 8.65083Z" fill="white"></path></g></g><g id="Clip path group_26"><mask id="mask25_9372_35007" style="mask-type:luminance" maskUnits="userSpaceOnUse" x="0" y="0" width="35" height="21"><g id="SVGID_00000009559877179936767390000005204419787104363181__24"><path id="Vector_50" d="M34.3405 0.709961H0.780518V20.29H34.3405V0.709961Z" fill="white"></path></g></mask><g mask="url(#mask25_9372_35007)"><path id="Vector_51" d="M10.7318 5.46745C10.918 5.52239 10.9284 5.79576 10.9166 5.87731C10.8913 6.02217 10.825 6.17806 10.7763 6.15867C10.7273 6.14308 10.775 5.94404 10.7497 5.88168C10.7231 5.79177 10.5659 5.63892 10.5847 5.59216C10.5484 5.49483 10.6552 5.4473 10.7318 5.46745Z" fill="white"></path></g></g><g id="Clip path group_27"><mask id="mask26_9372_35007" style="mask-type:luminance" maskUnits="userSpaceOnUse" x="0" y="0" width="35" height="21"><g id="SVGID_00000009559877179936767390000005204419787104363181__25"><path id="Vector_52" d="M34.3405 0.709961H0.780518V20.29H34.3405V0.709961Z" fill="white"></path></g></mask><g mask="url(#mask26_9372_35007)"><path id="Vector_53" d="M14.3971 6.75647C14.2536 6.83004 14.1996 7.06102 14.2889 7.19751C14.3699 7.31043 14.5026 7.26804 14.5191 7.26804C14.6589 7.28743 14.7419 7.00589 14.7419 7.00589C14.7419 7.00589 14.7456 6.92795 14.5815 7.07642C14.5113 7.09201 14.5026 7.06443 14.4842 7.02584C14.4705 6.95151 14.4724 6.88099 14.5053 6.80685C14.5311 6.73651 14.4773 6.70515 14.3971 6.75647Z" fill="white"></path></g></g><g id="Clip path group_28"><mask id="mask27_9372_35007" style="mask-type:luminance" maskUnits="userSpaceOnUse" x="0" y="0" width="35" height="21"><g id="SVGID_00000009559877179936767390000005204419787104363181__26"><path id="Vector_54" d="M34.3405 0.709961H0.780518V20.29H34.3405V0.709961Z" fill="white"></path></g></mask><g mask="url(#mask27_9372_35007)"><path id="Vector_55" d="M15.4651 5.36185C15.395 5.40862 15.2511 5.55708 15.2484 5.72874C15.2423 5.82303 15.2248 5.82304 15.2872 5.88539C15.3339 5.95155 15.38 5.94413 15.471 5.89281C15.5225 5.85783 15.54 5.83045 15.5587 5.7681C15.5811 5.65822 15.4444 5.81866 15.4262 5.69757C15.3969 5.58465 15.4838 5.54169 15.5676 5.42801C15.5695 5.35368 15.5676 5.30311 15.4651 5.36185Z" fill="white"></path></g></g><g id="Clip path group_29"><mask id="mask28_9372_35007" style="mask-type:luminance" maskUnits="userSpaceOnUse" x="0" y="0" width="35" height="21"><g id="SVGID_00000009559877179936767390000005204419787104363181__27"><path id="Vector_56" d="M34.3405 0.709961H0.780518V20.29H34.3405V0.709961Z" fill="white"></path></g></mask><g mask="url(#mask28_9372_35007)"><path id="Vector_57" d="M16.3265 5.51416C16.2953 5.58469 16.2582 5.9396 16.2641 5.9396C16.2385 6.04511 16.3765 6.09264 16.4369 5.9552C16.5295 5.70559 16.5295 5.60027 16.5345 5.49115C16.5071 5.33071 16.3976 5.33813 16.3265 5.51416Z" fill="white"></path></g></g><g id="Clip path group_30"><mask id="mask29_9372_35007" style="mask-type:luminance" maskUnits="userSpaceOnUse" x="0" y="0" width="35" height="21"><g id="SVGID_00000009559877179936767390000005204419787104363181__28"><path id="Vector_58" d="M34.3405 0.709961H0.780518V20.29H34.3405V0.709961Z" fill="white"></path></g></mask><g mask="url(#mask29_9372_35007)"><path id="Vector_59" d="M21.7521 8.27579C21.7719 8.2602 22.5169 7.7285 22.5169 7.7285C22.593 7.70169 22.5762 8.00243 22.5422 7.99805C22.5559 8.06041 21.8061 8.56836 21.7521 8.54897C21.7164 8.57292 21.6791 8.34195 21.7521 8.27579Z" fill="white"></path></g></g><g id="Clip path group_31"><mask id="mask30_9372_35007" style="mask-type:luminance" maskUnits="userSpaceOnUse" x="0" y="0" width="35" height="21"><g id="SVGID_00000009559877179936767390000005204419787104363181__29"><path id="Vector_60" d="M34.3405 0.709961H0.780518V20.29H34.3405V0.709961Z" fill="white"></path></g></mask><g mask="url(#mask30_9372_35007)"><path id="Vector_61" d="M22.4337 8.2714C22.5664 8.33832 22.6183 8.72061 22.6034 8.82687C22.6082 9.02971 22.4764 9.19378 22.4259 9.17002C22.3709 9.14321 22.4314 8.91679 22.4061 8.83429C22.3749 8.72061 22.2624 8.50979 22.2821 8.44744C22.2451 8.31893 22.3536 8.2484 22.4337 8.2714Z" fill="white"></path></g></g><g id="Clip path group_32"><mask id="mask31_9372_35007" style="mask-type:luminance" maskUnits="userSpaceOnUse" x="0" y="0" width="35" height="21"><g id="SVGID_00000009559877179936767390000005204419787104363181__30"><path id="Vector_62" d="M34.3405 0.709961H0.780518V20.29H34.3405V0.709961Z" fill="white"></path></g></mask><g mask="url(#mask31_9372_35007)"><path id="Vector_63" d="M17.9959 9.92813C18.0467 9.8538 18.2075 9.74467 18.2086 9.74467C18.2847 9.70532 18.3579 9.77149 18.3524 9.77149C18.3649 9.84201 18.3062 9.91254 18.3248 10.0099C18.3392 10.0492 18.3524 10.096 18.4246 10.0768C18.5444 9.98249 18.6529 9.97508 18.7708 9.97508C18.8637 9.97508 18.8645 10.131 18.8088 10.131C18.5904 10.1781 18.4906 10.2405 18.3353 10.2992C18.2609 10.342 18.1986 10.2872 18.1986 10.2794C18.1986 10.2756 18.1554 10.2405 18.1849 10.1427C18.1917 10.0648 18.1596 10.0217 18.0932 10.0258C18.0432 10.057 18.0007 10.0722 17.976 10.018C17.9674 9.97489 17.9636 9.95113 17.9959 9.92813Z" fill="white"></path></g></g><g id="Clip path group_33"><mask id="mask32_9372_35007" style="mask-type:luminance" maskUnits="userSpaceOnUse" x="0" y="0" width="35" height="21"><g id="SVGID_00000009559877179936767390000005204419787104363181__31"><path id="Vector_64" d="M34.3405 0.709961H0.780518V20.29H34.3405V0.709961Z" fill="white"></path></g></mask><g mask="url(#mask32_9372_35007)"><path id="Vector_65" d="M23.2181 10.1348C23.2493 10.1779 23.2717 10.2131 23.2158 10.2793C23.1622 10.3302 23.1272 10.3536 23.0736 10.4043C23.0499 10.4475 23.0343 10.5098 23.1086 10.529C23.2474 10.5684 23.5707 10.3612 23.5707 10.3534C23.6253 10.3184 23.6065 10.2401 23.601 10.2401C23.5707 10.2051 23.5033 10.2245 23.4574 10.2245C23.4337 10.2245 23.3626 10.2089 23.397 10.1502C23.4249 10.1074 23.436 10.0836 23.4557 10.0369C23.4763 9.98631 23.4593 9.95513 23.3784 9.92775C23.3004 9.91217 23.2679 9.92357 23.1793 9.92775C23.1312 9.93935 23.1147 9.96274 23.1059 10.0177C23.1086 10.1036 23.1622 10.0996 23.2181 10.1348Z" fill="white"></path></g></g></g></g></g></g></g></svg>