<svg width="1440" height="1932" viewBox="0 0 1440 1932" fill="none" xmlns="http://www.w3.org/2000/svg">
<g opacity="0.2">
<path d="M562.405 766.901C534.808 743.458 503.522 720.799 464.729 696.127C361.479 630.443 264.402 607.796 170.525 585.879C134.564 577.483 97.3728 568.808 61.0311 557.876C-2.15428 538.984 -60.0919 513.02 -116.768 464.874C-161.181 427.145 -204.822 375.803 -249.632 303.543L-249.795 303.627C-224.426 344.528 -199.324 379.071 -173.072 409.192C-148.502 437.391 -123.611 460.908 -96.9709 481.086C-72.7622 499.437 -47.4433 514.734 -19.5874 527.854C4.27228 539.092 30.6417 548.975 61.0026 558.059C97.3548 569 134.546 577.675 170.507 586.07C264.373 607.979 361.425 630.636 464.643 696.292C526.934 735.91 605.624 792.308 661.828 877.608C697.883 932.317 725.87 994.347 745.035 1061.99C767.566 1141.57 797.7 1215.76 834.603 1282.52C868.889 1344.53 908.856 1399.92 953.392 1447.12C971.617 1466.44 990.333 1484.26 1009.63 1500.66C1056.71 1540.65 1107.25 1572.13 1162.7 1596.15C1242.27 1630.62 1333.25 1650.3 1440.84 1656.31L1440.83 1656.11C1259.9 1646 1123.83 1597.43 1009.89 1500.63C990.493 1484.16 971.743 1466.29 953.52 1446.99C860.719 1348.63 788.687 1215.48 745.213 1061.95C735.339 1027.05 723.044 993.412 708.677 961.983C695.176 932.454 679.481 904.039 661.999 877.514C637.261 839.984 606.996 805.785 569.443 772.96C567.121 770.94 564.781 768.92 562.405 766.901Z" stroke="url(#paint0_linear_98_1628)" stroke-miterlimit="10"/>
<path d="M533.015 732.033C518.985 720.115 503.782 708.044 487.036 695.507C437.865 658.69 386.539 630.569 325.479 607.001C271.594 586.198 218.674 572.189 162.631 557.358C137.948 550.819 112.414 544.067 87.0232 536.72C-39.6336 500.445 -132.816 447.742 -234.229 285.686L-234.573 285.856C-208.568 327.393 -182.956 362.083 -156.232 391.903C-131.258 419.776 -105.838 442.819 -78.5086 462.356C-53.9048 479.944 -27.7129 494.661 1.573 507.355C26.0222 517.964 53.1573 527.413 86.9477 537.086C112.339 544.433 137.873 551.185 162.556 557.723C273.809 587.172 378.892 614.995 486.803 695.803C544.613 739.098 616.911 800.292 663.216 889.955C692.617 946.912 716.691 1010.46 734.767 1078.85C756.457 1160.93 788.659 1235.91 830.488 1301.7C849.781 1332.04 871.112 1360.33 893.895 1385.75C915.742 1410.12 939.036 1432.04 963.177 1450.88C1034.66 1506.7 1104.53 1547.05 1183.04 1577.88C1262.58 1609.1 1351.71 1630.87 1463.52 1646.39L1463.52 1646C1244.86 1615.66 1104.63 1560.86 963.392 1450.58C957.924 1446.32 952.518 1441.92 947.186 1437.39C849.451 1354.36 774.523 1227.93 735.129 1078.81C717.048 1010.38 692.969 946.796 663.546 889.822C643.487 850.962 617.411 814.987 583.834 779.806C568.47 763.681 551.798 747.989 533.015 732.033Z" stroke="url(#paint1_linear_98_1628)" stroke-miterlimit="10"/>
<path d="M485.582 673.391C387.205 589.821 276.28 559.838 159.358 528.218C144.224 524.121 128.573 519.888 113.037 515.562C-7.28208 482.441 -108.126 443.169 -218.812 267.837L-219.308 268.101C-168.173 349.094 -117.547 404.873 -59.985 443.643C-8.12396 478.572 46.6486 497.883 112.954 516.128C128.49 520.455 144.141 524.688 159.275 528.784C276.118 560.37 386.988 590.354 485.238 673.816C493.242 680.615 501.149 687.762 508.983 695.293C572.398 756.33 632.021 818.08 664.641 902.282C687.377 960.967 706.972 1024.25 724.542 1095.73C744.699 1177.72 779.866 1252.44 829.064 1317.79C869.187 1371.1 917.627 1417.15 973.032 1454.65C1042.16 1501.44 1112.17 1535.21 1200.04 1564.15C1282.5 1591.3 1374.52 1612.1 1486.25 1636.48L1486.32 1635.9C1262.64 1587.1 1118.18 1552.21 973.341 1454.18C885.743 1394.88 771.593 1284.56 725.141 1095.66C707.558 1024.15 687.949 960.848 665.21 902.145C650.205 863.389 627.961 826.035 597.235 787.925C569.108 753.042 537.139 721.616 509.376 694.894C501.523 687.363 493.596 680.199 485.582 673.391Z" stroke="url(#paint2_linear_98_1628)" stroke-miterlimit="10"/>
<path d="M490.803 656.066C449.376 620.874 402.967 591.42 350.159 566.707C281.71 534.679 208.247 513.029 139.032 494.415C-0.8701 457.256 -93.7283 422.267 -203.406 249.99L-204.072 250.348C-152.023 332.118 -100.363 387.597 -41.4907 424.931C14.4903 460.446 73.336 477.754 138.913 495.173C280.25 533.2 416.621 577.074 531.128 694.813C601.479 767.125 645.6 839.023 666.018 914.612C682.641 976.145 697.333 1038.27 714.281 1112.61C733.496 1196.86 771.24 1271.82 826.45 1335.39C880.896 1398.08 941.553 1436.91 982.873 1458.46C1092.91 1515.85 1194.36 1542.29 1322.8 1575.76C1377.56 1590.03 1439.63 1606.21 1508.91 1626.58L1509.05 1625.82C1439.76 1605.44 1377.68 1589.25 1322.92 1574.98C1194.53 1541.53 1093.12 1515.1 983.176 1457.76C902.901 1415.91 761.323 1315.38 715.068 1112.52C698.109 1038.16 683.407 976.032 666.793 914.489C646.332 838.737 602.137 766.713 531.686 694.284C518.607 680.863 505.001 668.127 490.803 656.066Z" stroke="url(#paint3_linear_98_1628)" stroke-width="1.5" stroke-miterlimit="10"/>
<path d="M485.284 624.095C453.87 597.409 419.261 574.014 380.891 553.427C321.614 521.642 253.046 496.171 165.058 473.267C27.2148 437.841 -72.3754 412.248 -187.969 232.142L-188.797 232.585C-135.091 316.241 -83.9515 369.797 -22.9548 406.228C34.9934 440.834 98.1003 457.047 164.932 474.226C348.759 522.086 464.896 587.903 553.318 694.296C616.292 770.09 654.687 848.367 667.451 926.913C677.32 987.615 689.095 1058.33 704.084 1129.48C722.372 1216.27 762.707 1291.44 823.96 1352.87C883.432 1412.51 948.598 1445.27 992.808 1462.27C1073.69 1493.36 1147.6 1510.61 1225.84 1528.87C1311.61 1548.88 1408.81 1571.56 1531.63 1616.66L1531.87 1615.74C1408.98 1570.63 1311.74 1547.92 1225.95 1527.91C1147.75 1509.65 1073.88 1492.42 993.061 1461.35C921.72 1433.92 750.853 1346.7 705.076 1129.4C690.09 1058.27 678.317 987.571 668.459 926.877C655.656 848.122 617.182 769.682 554.073 693.727C532.93 668.313 510.094 645.171 485.284 624.095Z" stroke="url(#paint4_linear_98_1628)" stroke-width="2" stroke-miterlimit="10"/>
<path d="M484.777 592.788C409.275 528.65 313.308 482.977 191.053 452.113L180.279 449.428C36.2238 413.599 -58.95 389.925 -172.564 214.289L-173.563 214.826C-59.6596 390.931 35.7243 414.655 180.116 450.579L190.889 453.265C368.928 498.198 491.12 574.621 575.417 693.755C632.176 773.968 663.601 856.549 668.811 939.19C673.808 1018.29 681.746 1084.12 693.792 1146.35C711.127 1235.89 754.053 1311.2 821.363 1370.21C823.001 1371.65 824.655 1373.07 826.306 1374.47C893.362 1431.43 965.245 1456.26 1002.66 1466.07C1065.11 1482.45 1122.48 1492.05 1177.95 1501.33C1285.64 1519.35 1396.97 1537.99 1554.23 1606.73L1554.6 1605.65C1397.19 1536.86 1285.77 1518.2 1178.01 1500.16C1122.55 1490.88 1065.22 1481.28 1002.82 1464.91C941.989 1448.96 740.022 1378.85 694.968 1146.27C682.92 1084.08 674.989 1018.31 670.001 939.261C664.774 856.383 633.262 773.584 576.361 693.156C549.794 655.584 519.433 622.244 484.777 592.788Z" stroke="url(#paint5_linear_98_1628)" stroke-width="2" stroke-miterlimit="10"/>
<path d="M488.351 562.328C473.649 549.838 458.188 538.09 441.992 527.103C379.191 484.504 303.501 452.155 217.045 430.966C207.734 428.711 198.629 426.534 189.744 424.418C48.302 390.649 -45.1341 368.341 -157.15 196.45L-158.301 197.081C-105.468 278.163 -55.4594 329.404 3.83396 363.194C58.7782 394.516 116.51 408.297 189.589 425.751C198.484 427.877 207.579 430.044 216.89 432.299C391.32 475.043 519.392 562.832 597.567 693.202C647.606 776.656 672.735 865.946 670.241 951.455C667.936 1030.26 672.306 1099.53 683.579 1163.22C699.936 1255.63 745.424 1331.02 818.779 1387.41C873.368 1429.34 944.016 1459.39 1012.61 1469.87C1064.11 1477.73 1110.8 1481.74 1155.97 1485.61C1280.2 1496.27 1397.52 1506.33 1576.91 1596.8L1577.43 1595.6C1397.78 1504.99 1280.3 1494.92 1155.92 1484.25C1110.79 1480.37 1064.11 1476.37 1012.65 1468.52C882.917 1448.72 719.259 1356.87 684.971 1163.16C673.713 1099.57 669.346 1030.39 671.646 951.677C674.147 865.903 648.939 776.324 598.755 692.634C569.039 643.103 532.039 599.44 488.351 562.328Z" stroke="url(#paint6_linear_98_1628)" stroke-width="2" stroke-miterlimit="10"/>
<path d="M496.352 533.151C488.58 526.548 480.591 520.159 472.384 513.984C408.438 465.89 331.276 430.841 243.048 409.819C228.194 406.31 213.941 403.074 200.153 399.93C56.0271 367.146 -30.9596 347.37 -141.728 178.594L-143.079 179.31C-90.76 259.015 -41.4805 309.112 16.7423 341.753C70.8131 372.078 127.808 385.042 199.951 401.446C213.747 404.581 227.999 407.818 242.835 411.327C417.584 452.971 547.871 550.238 619.66 692.623C663.953 780.497 681.921 874.231 671.613 963.693C662.316 1044.32 662.871 1115.09 673.299 1180.05C688.393 1274.1 737.744 1351.72 816.016 1404.49C900.49 1461.46 988.573 1471.85 1022.52 1473.66C1067.8 1476.08 1108.67 1476.11 1148.2 1476.15C1291.86 1476.27 1405.33 1476.37 1599.51 1586.85L1600.18 1585.51C1510.94 1534.74 1432.72 1503.93 1353.97 1488.56C1282.87 1474.69 1217.35 1474.63 1147.99 1474.57C1108.48 1474.53 1067.62 1474.49 1022.39 1472.08C909.765 1466.06 709.832 1397.75 674.869 1180.02C664.462 1115.2 663.918 1044.56 673.189 964.077C683.543 874.303 665.509 780.242 621.063 692.079C590.057 630.51 548.17 577.169 496.352 533.151Z" stroke="url(#paint7_linear_98_1628)" stroke-width="2" stroke-miterlimit="10"/>
<path d="M507.567 504.965C505.947 503.589 504.32 502.222 502.674 500.856C438.091 447.395 359.493 409.645 269.05 388.652C248.804 383.987 229.764 379.886 211.352 375.919C69.2588 345.324 -16.5126 326.867 -126.334 160.727L-127.816 161.555C-17.5099 328.425 68.5766 346.959 211.174 377.663C229.575 381.621 248.615 385.723 268.843 390.388C444.971 431.261 577.41 538.399 641.801 692.05C680.511 784.451 691.307 882.62 673.037 975.957C656.829 1058.77 653.562 1131.05 663.073 1196.93C674.488 1276.08 710.113 1341.15 768.665 1390.15C850.519 1458.62 958.623 1480.14 1032.5 1477.45C1074.48 1475.93 1112.3 1472.82 1148.86 1469.81C1304.81 1457 1417.5 1447.74 1622.16 1576.92L1623 1575.47C1528.53 1515.84 1446.93 1481.83 1366.22 1468.45C1292.38 1456.22 1225.7 1461.7 1148.47 1468.05C1111.92 1471.05 1074.13 1474.16 1032.19 1475.69C958.678 1478.37 851.123 1456.95 769.72 1388.87C769.1 1388.34 768.472 1387.82 767.851 1387.29C710.723 1338.76 676.076 1274.72 664.847 1196.91C655.373 1131.22 658.622 1059.13 674.802 976.501C693.134 882.834 682.295 784.311 643.443 691.566C612.744 618.233 567.041 555.487 507.567 504.965Z" stroke="url(#paint8_linear_98_1628)" stroke-width="2" stroke-miterlimit="10"/>
<path d="M521.391 477.627C458.646 424.326 382.596 387.307 295.042 367.495C269.486 361.728 245.956 356.965 223.203 352.353C82.8758 323.943 -1.82217 306.78 -110.912 142.87L-112.546 143.791C-2.92154 308.522 82.1362 325.752 223.052 354.279C245.794 358.882 269.306 363.645 294.843 369.413C475.752 410.349 606.834 524.712 663.946 691.451C696.718 787.09 700.455 892.481 674.482 988.193C651.382 1073.32 644.309 1147.1 652.85 1213.78C663.066 1293.55 698.753 1358.03 758.786 1405.45C847.755 1475.64 967.202 1490.14 1042.47 1481.23C1083.03 1476.43 1119.46 1470.55 1154.7 1464.87C1315.86 1438.88 1432.29 1420.09 1644.81 1566.96L1645.83 1565.4C1432.56 1418.01 1315.77 1436.85 1154.13 1462.92C1118.92 1468.61 1082.5 1474.48 1041.97 1479.28C967.112 1488.13 848.324 1473.74 759.906 1403.98C700.305 1356.93 664.971 1292.97 654.821 1213.78C646.317 1147.36 653.37 1073.81 676.402 988.917C702.472 892.856 698.713 787.064 665.822 691.054C638.487 611.246 593.749 542.822 532.847 487.694C529.087 484.277 525.261 480.915 521.391 477.627Z" stroke="url(#paint9_linear_98_1628)" stroke-width="3" stroke-miterlimit="10"/>
<path d="M537.935 451.399C478.02 400.502 404.794 364.846 321.033 346.346C290.251 339.547 262.476 334.283 235.629 329.204C96.8206 302.928 13.0491 287.062 -95.5019 125.011L-97.314 126.036C11.8398 288.997 96.0079 304.929 235.47 331.33C262.298 336.41 290.064 341.665 320.817 348.455C454.51 377.982 561.247 451.453 629.499 560.892C709.079 688.521 726.421 852.819 675.887 1000.42C645.512 1089.14 634.532 1168.46 643.264 1236.19C650.936 1295.73 673.766 1346.55 711.134 1387.24C751.847 1431.61 810.064 1463.64 879.426 1479.86C936.821 1493.29 999.876 1495.16 1052.42 1484.99C1092.8 1477.19 1128.92 1468.66 1163.87 1460.41C1335.38 1419.95 1448.69 1393.22 1667.44 1557L1668.63 1555.34C1448.96 1390.86 1335.24 1417.69 1163.11 1458.3C1128.19 1466.54 1092.08 1475.05 1051.75 1482.86C949.473 1502.66 799.744 1480.75 712.672 1385.92C633.41 1299.59 621.41 1166.6 677.984 1001.34C728.718 853.162 711.273 688.155 631.333 559.949C605.496 518.491 574.145 482.159 537.935 451.399Z" stroke="url(#paint10_linear_98_1628)" stroke-width="3" stroke-miterlimit="10"/>
</g>
<g opacity="0.7" filter="url(#filter0_f_98_1628)">
<ellipse cx="167" cy="440" rx="72" ry="45" fill="#56B743"/>
</g>
<defs>
<filter id="filter0_f_98_1628" x="-113" y="187" width="560" height="506" filterUnits="userSpaceOnUse" color-interpolation-filters="sRGB">
<feFlood flood-opacity="0" result="BackgroundImageFix"/>
<feBlend mode="normal" in="SourceGraphic" in2="BackgroundImageFix" result="shape"/>
<feGaussianBlur stdDeviation="104" result="effect1_foregroundBlur_98_1628"/>
</filter>
<linearGradient id="paint0_linear_98_1628" x1="512.182" y1="1078.08" x2="686.774" y2="872.552" gradientUnits="userSpaceOnUse">
<stop stop-color="#4FA83D" stop-opacity="0"/>
<stop offset="1" stop-color="#4FA83D" stop-opacity="0.4"/>
</linearGradient>
<linearGradient id="paint1_linear_98_1628" x1="521.174" y1="1075.95" x2="695.834" y2="870.346" gradientUnits="userSpaceOnUse">
<stop stop-color="#4FA83D" stop-opacity="0"/>
<stop offset="1" stop-color="#4FA83D" stop-opacity="0.4"/>
</linearGradient>
<linearGradient id="paint2_linear_98_1628" x1="525.586" y1="1079.3" x2="709.1" y2="863.268" gradientUnits="userSpaceOnUse">
<stop stop-color="#4FA83D" stop-opacity="0"/>
<stop offset="1" stop-color="#4FA83D" stop-opacity="0.4"/>
</linearGradient>
<linearGradient id="paint3_linear_98_1628" x1="525.677" y1="1087.66" x2="724.018" y2="854.18" gradientUnits="userSpaceOnUse">
<stop stop-color="#4FA83D" stop-opacity="0"/>
<stop offset="1" stop-color="#4FA83D" stop-opacity="0.4"/>
</linearGradient>
<linearGradient id="paint4_linear_98_1628" x1="523.023" y1="1099.31" x2="741.684" y2="841.904" gradientUnits="userSpaceOnUse">
<stop stop-color="#4FA83D" stop-opacity="0"/>
<stop offset="1" stop-color="#4FA83D" stop-opacity="0.4"/>
</linearGradient>
<linearGradient id="paint5_linear_98_1628" x1="518.531" y1="1113.02" x2="761.075" y2="827.5" gradientUnits="userSpaceOnUse">
<stop stop-color="#4FA83D" stop-opacity="0"/>
<stop offset="1" stop-color="#4FA83D" stop-opacity="0.4"/>
</linearGradient>
<linearGradient id="paint6_linear_98_1628" x1="512.882" y1="1128.17" x2="781.797" y2="811.607" gradientUnits="userSpaceOnUse">
<stop stop-color="#4FA83D" stop-opacity="0"/>
<stop offset="1" stop-color="#4FA83D" stop-opacity="0.4"/>
</linearGradient>
<linearGradient id="paint7_linear_98_1628" x1="506.327" y1="1144.28" x2="803.691" y2="794.232" gradientUnits="userSpaceOnUse">
<stop stop-color="#4FA83D" stop-opacity="0"/>
<stop offset="1" stop-color="#4FA83D" stop-opacity="0.4"/>
</linearGradient>
<linearGradient id="paint8_linear_98_1628" x1="499.145" y1="1161.21" x2="826.48" y2="775.878" gradientUnits="userSpaceOnUse">
<stop stop-color="#4FA83D" stop-opacity="0"/>
<stop offset="1" stop-color="#4FA83D" stop-opacity="0.4"/>
</linearGradient>
<linearGradient id="paint9_linear_98_1628" x1="491.512" y1="1178.65" x2="849.937" y2="756.725" gradientUnits="userSpaceOnUse">
<stop stop-color="#4FA83D" stop-opacity="0"/>
<stop offset="1" stop-color="#4FA83D" stop-opacity="0.4"/>
</linearGradient>
<linearGradient id="paint10_linear_98_1628" x1="483.496" y1="1196.51" x2="873.97" y2="736.858" gradientUnits="userSpaceOnUse">
<stop stop-color="#4FA83D" stop-opacity="0"/>
<stop offset="1" stop-color="#4FA83D" stop-opacity="0.4"/>
</linearGradient>
</defs>
</svg>
