<svg width="300" height="235" viewBox="0 0 300 235" fill="none" xmlns="http://www.w3.org/2000/svg">
<rect x="1" y="1" width="298" height="233" rx="9" fill="url(#paint0_linear_84_3509)" stroke="url(#paint1_angular_84_3509)" stroke-width="2"/>
<g clip-path="url(#clip0_84_3509)">
<path d="M183.568 98.615C183.472 96.5112 183.472 94.503 183.472 92.4948C183.472 90.9104 182.188 89.626 180.603 89.626C168.65 89.626 159.565 86.1834 152.011 78.82C150.895 77.7267 149.11 77.7267 147.994 78.82C140.44 86.1834 131.355 89.626 119.402 89.626C117.817 89.626 116.533 90.9104 116.533 92.4948C116.533 94.503 116.533 96.5112 116.437 98.615C116.055 118.697 115.481 146.238 149.046 157.809L150.002 158L150.959 157.809C184.429 146.238 183.95 118.792 183.568 98.615ZM147.707 126.443C147.162 126.948 146.442 127.222 145.699 127.208H145.604C144.833 127.172 144.109 126.827 143.595 126.251L134.702 116.402L139.005 112.577L145.986 120.323L161.478 105.596L165.399 109.803L147.707 126.443Z" fill="#CAE2BC"/>
<path d="M147.707 126.443C147.162 126.948 146.442 127.222 145.699 127.208H145.604C144.833 127.172 144.109 126.827 143.595 126.251L134.702 116.402L139.005 112.577L145.986 120.323L161.478 105.596L165.399 109.803L147.707 126.443Z" fill="#59A52C"/>
<path d="M148.728 127.542L148.735 127.535L166.426 110.896L167.514 109.873L166.496 108.781L162.575 104.573L161.542 103.465L160.444 104.509L146.069 118.174L140.12 111.572L139.122 110.466L138.009 111.456L133.705 115.281L132.576 116.285L133.589 117.407L142.476 127.25C142.477 127.251 142.478 127.252 142.479 127.254C143.261 128.128 144.362 128.652 145.534 128.706L145.569 128.708H145.604H145.686C146.812 128.726 147.902 128.309 148.728 127.542L148.728 127.542ZM145.729 125.708L145.714 125.708H145.699H145.645C145.288 125.684 144.954 125.521 144.715 125.253L144.709 125.246L136.828 116.519L138.888 114.688L144.872 121.327L145.903 122.471L147.02 121.41L161.413 107.727L163.283 109.734L146.687 125.343C146.686 125.344 146.685 125.345 146.684 125.346C146.425 125.585 146.082 125.715 145.729 125.708ZM150.961 79.8913L150.964 79.8942C158.836 87.5667 168.314 91.126 180.603 91.126C181.359 91.126 181.972 91.7388 181.972 92.4948V92.5093C181.972 94.5021 181.972 96.5324 182.069 98.663C182.261 108.793 182.451 120.404 178.552 130.918C174.702 141.298 166.819 150.712 150.564 156.358L150.002 156.47L149.44 156.358C133.139 150.712 125.256 141.275 121.418 130.884C117.53 120.358 117.744 108.748 117.936 98.6632C118.033 96.5326 118.033 94.5023 118.033 92.5095V92.4948C118.033 91.7388 118.646 91.126 119.402 91.126C131.691 91.126 141.169 87.5667 149.041 79.8942L149.044 79.8913C149.577 79.3696 150.428 79.3696 150.961 79.8913Z" stroke="#59A52C" stroke-width="3"/>
</g>
<defs>
<linearGradient id="paint0_linear_84_3509" x1="300" y1="0" x2="113.462" y2="183.83" gradientUnits="userSpaceOnUse">
<stop stop-color="#232324"/>
<stop offset="1" stop-color="#0D0E10"/>
</linearGradient>
<radialGradient id="paint1_angular_84_3509" cx="0" cy="0" r="1" gradientUnits="userSpaceOnUse" gradientTransform="translate(132.5 111.971) rotate(-43.2568) scale(163.396 191.917)">
<stop offset="0.164852" stop-color="#0D0E10"/>
<stop offset="0.317442" stop-color="#121913"/>
<stop offset="0.489152" stop-color="#4FA83D"/>
<stop offset="0.658904" stop-color="#0D0E10"/>
<stop offset="0.828155" stop-color="#0D0E10"/>
<stop offset="1" stop-color="#4FA83D"/>
</radialGradient>
<clipPath id="clip0_84_3509">
<rect width="80" height="80" fill="white" transform="translate(110 78)"/>
</clipPath>
</defs>
</svg>
