<svg xmlns="http://www.w3.org/2000/svg" width="16" height="16" viewBox="0 0 16 16" fill="none"><path d="M0 8.00004C0 11.4934 2.24 14.4534 5.33333 15.5467V0.453369C2.24 1.5467 0 4.5067 0 8.00004Z" fill="#2A5F9E"></path><path d="M16.0003 8.00004C16.0003 4.5067 13.787 1.5467 10.667 0.453369V15.5467C13.787 14.4534 16.0003 11.4934 16.0003 8.00004Z" fill="#C94747"></path><path d="M5.33301 15.5467C6.15967 15.84 7.06634 16 7.99967 16C8.93301 16 9.83967 15.84 10.6663 15.5467V0.453333C9.83967 0.16 8.93301 0 7.99967 0C7.06634 0 6.15967 0.16 5.33301 0.453333V15.5467Z" fill="#FFCE31"></path></svg>