<svg width="300" height="235" viewBox="0 0 300 235" fill="none" xmlns="http://www.w3.org/2000/svg">
<rect x="1" y="1" width="298" height="233" rx="9" fill="url(#paint0_linear_84_3479)" stroke="url(#paint1_angular_84_3479)" stroke-width="2"/>
<path d="M150.001 96.3413C146.175 96.3414 142.433 97.4577 139.233 99.5533C136.032 101.649 133.513 104.633 131.983 108.139C130.454 111.646 129.981 115.522 130.622 119.293C131.263 123.065 132.991 126.567 135.593 129.371L133.56 136.957C133.439 137.404 133.455 137.878 133.604 138.317C133.752 138.756 134.028 139.141 134.396 139.423C134.764 139.706 135.207 139.873 135.67 139.903C136.132 139.933 136.594 139.826 136.995 139.594L144.95 135C147.653 135.719 150.478 135.852 153.237 135.392C155.995 134.932 158.624 133.888 160.947 132.331C163.27 130.773 165.234 128.738 166.708 126.362C168.182 123.985 169.132 121.321 169.494 118.548C169.857 115.774 169.623 112.956 168.809 110.28C167.995 107.604 166.62 105.133 164.775 103.031C162.93 100.929 160.658 99.2454 158.11 98.0917C155.562 96.9381 152.798 96.3413 150.001 96.3413Z" fill="#CAE2BC"/>
<path d="M188.719 117.668C188.744 116.711 188.77 115.722 188.727 114.686C188.597 111.804 187.357 109.084 185.266 107.096C183.175 105.107 180.396 104.005 177.511 104.021C172.877 93.4187 162.29 85.9902 150 85.9902C137.709 85.9902 127.123 93.4187 122.489 104.021C119.603 104.005 116.823 105.107 114.732 107.097C112.641 109.086 111.402 111.807 111.273 114.69C111.23 115.722 111.256 116.711 111.282 117.668C111.309 118.684 111.337 119.734 111.287 120.912C111.164 123.865 112.217 126.747 114.216 128.926C116.214 131.104 118.994 132.402 121.947 132.535C122.111 132.542 122.274 132.545 122.436 132.546C123.849 132.546 125.248 132.277 126.559 131.753C126.893 131.649 127.198 131.472 127.454 131.235C127.711 130.998 127.91 130.706 128.039 130.382C128.168 130.057 128.223 129.708 128.2 129.36C128.177 129.011 128.076 128.673 127.905 128.368C125.789 124.589 124.679 120.33 124.68 115.998C124.68 102.037 136.039 90.6779 150 90.6779C163.961 90.6779 175.32 102.037 175.32 115.998C175.338 121.908 173.28 127.637 169.507 132.185C165.733 136.733 160.483 139.813 154.672 140.887C154.06 139.501 152.983 138.373 151.627 137.697C150.272 137.021 148.722 136.84 147.247 137.185C145.773 137.531 144.465 138.38 143.55 139.587C142.635 140.795 142.17 142.284 142.237 143.797C142.303 145.31 142.896 146.753 143.913 147.875C144.93 148.998 146.308 149.73 147.807 149.944C149.307 150.159 150.834 149.843 152.125 149.051C153.416 148.259 154.39 147.041 154.879 145.607C159.007 144.924 162.947 143.387 166.447 141.094C169.947 138.801 172.929 135.802 175.203 132.29C175.979 132.459 176.77 132.545 177.564 132.545C177.727 132.545 177.89 132.542 178.054 132.535C181.007 132.402 183.786 131.104 185.784 128.925C187.782 126.747 188.835 123.866 188.713 120.913C188.663 119.734 188.691 118.684 188.719 117.668Z" fill="#CAE2BC"/>
<path d="M188.719 117.667C188.745 116.711 188.771 115.722 188.727 114.686C188.595 111.733 187.297 108.953 185.118 106.955C182.939 104.957 180.057 103.904 177.103 104.027C176.592 104.051 176.084 104.108 175.58 104.199C175.243 104.259 174.924 104.392 174.644 104.589C174.364 104.785 174.13 105.041 173.959 105.338C173.789 105.634 173.685 105.964 173.656 106.305C173.626 106.646 173.672 106.989 173.789 107.311C175.037 110.737 175.532 114.391 175.239 118.025C174.947 121.659 173.874 125.188 172.094 128.369C171.924 128.674 171.823 129.013 171.8 129.361C171.777 129.709 171.832 130.058 171.961 130.382C172.09 130.706 172.29 130.998 172.546 131.235C172.802 131.472 173.108 131.649 173.441 131.753C174.752 132.277 176.152 132.546 177.564 132.545C177.727 132.545 177.891 132.541 178.055 132.534C181.007 132.401 183.787 131.103 185.785 128.925C187.783 126.747 188.836 123.865 188.713 120.912C188.664 119.734 188.692 118.683 188.719 117.667Z" fill="#59A52C"/>
<path d="M127.905 128.368C126.126 125.186 125.053 121.658 124.761 118.024C124.469 114.39 124.964 110.736 126.211 107.311C126.329 106.989 126.374 106.646 126.345 106.305C126.316 105.964 126.212 105.634 126.041 105.337C125.871 105.041 125.637 104.785 125.357 104.589C125.077 104.392 124.757 104.259 124.42 104.199C123.915 104.108 123.405 104.05 122.892 104.027C119.939 103.905 117.057 104.958 114.879 106.957C112.701 108.956 111.404 111.737 111.273 114.69C111.23 115.722 111.256 116.712 111.282 117.668C111.309 118.684 111.337 119.734 111.287 120.912C111.164 123.865 112.217 126.747 114.216 128.926C116.214 131.104 118.994 132.402 121.947 132.535C122.111 132.542 122.274 132.546 122.436 132.546C123.849 132.546 125.248 132.277 126.559 131.753C126.893 131.649 127.198 131.472 127.454 131.235C127.711 130.998 127.91 130.706 128.039 130.382C128.168 130.057 128.223 129.708 128.2 129.36C128.177 129.011 128.076 128.673 127.905 128.368Z" fill="#59A52C"/>
<path d="M124.68 115.998C124.677 113.035 125.195 110.094 126.211 107.311C126.329 106.989 126.374 106.646 126.345 106.305C126.315 105.964 126.212 105.634 126.041 105.337C125.87 105.041 125.637 104.785 125.357 104.589C125.077 104.392 124.757 104.259 124.42 104.199C123.915 104.108 123.405 104.05 122.892 104.027C122.257 104.001 121.621 104.029 120.991 104.11C119.386 106.531 118.488 109.351 118.397 112.253C118.348 113.579 118.378 114.849 118.406 116.078C118.436 117.383 118.468 118.732 118.412 120.244C118.227 125.239 120.299 129.756 123.583 132.485C124.604 132.38 125.606 132.133 126.56 131.753C126.893 131.649 127.199 131.472 127.455 131.235C127.711 130.997 127.911 130.706 128.04 130.381C128.169 130.057 128.224 129.708 128.2 129.359C128.177 129.011 128.076 128.672 127.905 128.368C125.79 124.589 124.679 120.33 124.68 115.998Z" fill="#59A52C"/>
<path d="M175.321 115.998C175.325 113.035 174.806 110.094 173.79 107.31C173.673 106.989 173.627 106.646 173.656 106.305C173.686 105.964 173.789 105.633 173.96 105.337C174.131 105.04 174.364 104.785 174.644 104.588C174.924 104.391 175.244 104.258 175.581 104.199C176.086 104.107 176.597 104.05 177.109 104.027C177.744 104 178.38 104.028 179.01 104.11C180.615 106.531 181.513 109.35 181.604 112.253C181.653 113.579 181.623 114.849 181.595 116.077C181.565 117.382 181.534 118.732 181.589 120.244C181.775 125.238 179.704 129.755 176.42 132.484C175.398 132.379 174.396 132.133 173.443 131.752C173.11 131.648 172.804 131.471 172.548 131.234C172.292 130.997 172.092 130.705 171.963 130.381C171.834 130.056 171.779 129.707 171.802 129.359C171.825 129.01 171.926 128.672 172.097 128.367C174.212 124.588 175.322 120.329 175.321 115.998Z" fill="#59A52C"/>
<path d="M142.192 118.342C141.57 118.342 140.974 118.096 140.534 117.657C140.094 117.218 139.846 116.622 139.846 116C139.845 115.379 140.091 114.782 140.531 114.342C140.97 113.902 141.566 113.655 142.187 113.654H142.192C142.813 113.654 143.409 113.901 143.849 114.341C144.289 114.78 144.535 115.376 144.535 115.998C144.535 116.62 144.289 117.216 143.849 117.655C143.409 118.095 142.813 118.342 142.192 118.342Z" fill="#59A52C"/>
<path d="M150 118.341C149.923 118.342 149.846 118.338 149.769 118.33C149.693 118.323 149.617 118.311 149.542 118.296C149.467 118.28 149.392 118.262 149.319 118.24C149.246 118.217 149.174 118.191 149.103 118.162C149.032 118.133 148.963 118.101 148.895 118.065C148.828 118.029 148.763 117.988 148.698 117.946C148.635 117.904 148.573 117.858 148.514 117.81C148.455 117.762 148.397 117.708 148.342 117.655C148.288 117.602 148.236 117.543 148.188 117.484C148.139 117.424 148.094 117.363 148.052 117.299C148.009 117.235 147.969 117.169 147.933 117.102C147.897 117.035 147.866 116.965 147.836 116.894C147.806 116.824 147.78 116.752 147.758 116.679C147.736 116.605 147.717 116.53 147.702 116.455C147.686 116.38 147.675 116.304 147.667 116.229C147.66 116.152 147.656 116.075 147.656 115.998C147.656 115.921 147.66 115.844 147.667 115.768C147.675 115.691 147.688 115.615 147.702 115.54C147.716 115.465 147.736 115.39 147.758 115.318C147.78 115.244 147.806 115.172 147.836 115.101C147.866 115.03 147.898 114.962 147.933 114.894C147.969 114.826 148.009 114.76 148.052 114.696C148.094 114.634 148.139 114.571 148.188 114.512C148.236 114.452 148.289 114.394 148.342 114.34C148.395 114.285 148.455 114.235 148.514 114.185C148.573 114.138 148.634 114.092 148.698 114.049C148.763 114.007 148.828 113.968 148.895 113.932C148.963 113.896 149.033 113.863 149.103 113.834C149.174 113.804 149.246 113.779 149.319 113.757C149.466 113.713 149.616 113.682 149.769 113.667C149.922 113.651 150.076 113.651 150.23 113.667C150.306 113.673 150.383 113.685 150.458 113.701C150.533 113.715 150.607 113.734 150.68 113.757C150.753 113.779 150.826 113.804 150.897 113.834C150.967 113.863 151.036 113.896 151.103 113.932C151.171 113.968 151.236 114.007 151.3 114.049C151.364 114.092 151.427 114.138 151.486 114.185C151.545 114.235 151.603 114.287 151.656 114.34C151.709 114.393 151.763 114.452 151.813 114.512C151.859 114.571 151.906 114.634 151.948 114.696C151.991 114.76 152.03 114.826 152.066 114.894C152.102 114.962 152.134 115.03 152.164 115.101C152.194 115.171 152.219 115.244 152.242 115.318C152.266 115.392 152.283 115.465 152.298 115.54C152.314 115.615 152.325 115.691 152.333 115.768C152.341 115.844 152.344 115.921 152.344 115.998C152.344 116.074 152.339 116.152 152.333 116.229C152.327 116.305 152.313 116.38 152.298 116.455C152.284 116.53 152.264 116.605 152.242 116.679C152.22 116.752 152.194 116.824 152.164 116.894C152.134 116.965 152.102 117.035 152.066 117.102C152.03 117.169 151.991 117.235 151.948 117.299C151.906 117.363 151.859 117.424 151.813 117.484C151.763 117.543 151.711 117.601 151.656 117.655C151.602 117.71 151.545 117.762 151.486 117.81C151.426 117.858 151.364 117.904 151.3 117.946C151.236 117.989 151.171 118.029 151.103 118.065C151.036 118.101 150.967 118.133 150.897 118.162C150.826 118.191 150.753 118.217 150.68 118.24C150.608 118.262 150.533 118.28 150.458 118.296C150.382 118.311 150.306 118.323 150.23 118.33C150.153 118.338 150.077 118.342 150 118.341Z" fill="#59A52C"/>
<path d="M157.813 118.342C157.191 118.342 156.595 118.096 156.155 117.657C155.715 117.218 155.467 116.622 155.467 116C155.466 115.379 155.713 114.782 156.152 114.342C156.591 113.902 157.187 113.655 157.808 113.654H157.813C158.434 113.654 159.03 113.901 159.47 114.341C159.91 114.78 160.156 115.376 160.156 115.998C160.156 116.62 159.91 117.216 159.47 117.655C159.03 118.095 158.434 118.342 157.813 118.342Z" fill="#59A52C"/>
<path d="M150.23 149.808C153.722 148.983 155.883 145.483 155.058 141.991C154.232 138.499 150.733 136.338 147.241 137.163C143.749 137.989 141.587 141.488 142.413 144.98C143.238 148.472 146.738 150.634 150.23 149.808Z" fill="#59A52C"/>
<defs>
<linearGradient id="paint0_linear_84_3479" x1="300" y1="0" x2="113.462" y2="183.83" gradientUnits="userSpaceOnUse">
<stop stop-color="#232324"/>
<stop offset="1" stop-color="#0D0E10"/>
</linearGradient>
<radialGradient id="paint1_angular_84_3479" cx="0" cy="0" r="1" gradientUnits="userSpaceOnUse" gradientTransform="translate(132.5 111.971) rotate(-43.2568) scale(163.396 191.917)">
<stop offset="0.164852" stop-color="#0D0E10"/>
<stop offset="0.317442" stop-color="#121913"/>
<stop offset="0.489152" stop-color="#4FA83D"/>
<stop offset="0.658904" stop-color="#0D0E10"/>
<stop offset="0.828155" stop-color="#0D0E10"/>
<stop offset="1" stop-color="#4FA83D"/>
</radialGradient>
</defs>
</svg>
