<svg xmlns="http://www.w3.org/2000/svg" width="16" height="16" viewBox="0 0 16 16" fill="none"><path d="M7.97312 0C4.50646 0 1.54646 2.24 0.453125 5.33333H15.5465C14.4265 2.24 11.4665 0 7.97312 0Z" fill="#F9F9F9"></path><path d="M7.97312 16C11.4665 16 14.4265 13.76 15.5198 10.6667H0.453125C1.54646 13.7867 4.50646 16 7.97312 16Z" fill="#ED4C5C"></path><path d="M0.453333 5.33334C0.16 6.16001 0 7.06668 0 8.00001C0 8.93334 0.16 9.84001 0.453333 10.6667H15.5467C15.84 9.84001 16 8.93334 16 8.00001C16 7.06668 15.84 6.16001 15.5467 5.33334H0.453333Z" fill="#428BC1"></path></svg>