<svg xmlns="http://www.w3.org/2000/svg" width="130" height="130" viewBox="0 0 130 130"><g id="Group_5514" data-name="Group 5514" transform="translate(0 -0.447)"><g id="Union_10" data-name="Union 10" transform="translate(0 0.447)" fill="none"><path d="M65,127.3A11.291,11.291,0,0,1,48.294,125a11.3,11.3,0,0,1-15.472-6.732A11.31,11.31,0,0,1,19.742,107.6a11.341,11.341,0,0,1-9.728-13.8A11.344,11.344,0,0,1,4.367,77.874a11.339,11.339,0,0,1-1.15-16.856A11.342,11.342,0,0,1,6.646,44.473a11.345,11.345,0,0,1,7.761-15q-.046-.507-.046-1.026a11.314,11.314,0,0,1,11.3-11.325q.127,0,.253,0a11.309,11.309,0,0,1,14.41-8.783A11.3,11.3,0,0,1,56.569,3.782a11.289,11.289,0,0,1,16.863,0A11.3,11.3,0,0,1,89.673,8.338a11.309,11.309,0,0,1,14.41,8.783q.127,0,.253,0a11.314,11.314,0,0,1,11.3,11.325q0,.519-.046,1.026a11.345,11.345,0,0,1,7.761,15,11.342,11.342,0,0,1,3.428,16.545,11.34,11.34,0,0,1-1.149,16.856A11.344,11.344,0,0,1,119.986,93.8a11.341,11.341,0,0,1-9.728,13.8,11.311,11.311,0,0,1-13.08,10.665A11.3,11.3,0,0,1,81.707,125,11.291,11.291,0,0,1,65,127.3Z" stroke="none"></path><path d="M 72.32840728759766 124 C 74.09309387207031 124 75.73809051513672 123.1211166381836 76.72884368896484 121.6490020751953 L 79.58527374267578 117.4046325683594 L 84.22775268554688 119.5543899536133 C 84.92131805419922 119.8755645751953 85.66670227050781 120.0384063720703 86.44316101074219 120.0384063720703 C 88.73670196533203 120.0384063720703 90.76077270507812 118.572021484375 91.47982025146484 116.3894805908203 L 93.92131805419922 111.6031341552734 L 98.96649932861328 112.407844543457 C 101.8091125488281 112.407844543457 104.1361846923828 110.1782989501953 104.264274597168 107.3320465087891 L 104.4944534301758 102.2177734375 L 109.5812301635742 101.64013671875 C 112.2567291259766 101.3363189697266 114.2743377685547 99.06184387207031 114.2743377685547 96.34950256347656 C 114.2743377685547 95.93975067138672 114.2287521362305 95.53372955322266 114.1388397216797 95.14270782470703 L 112.9965896606445 90.17513275146484 L 117.714225769043 88.24497985839844 C 119.7212295532227 87.42384338378906 121.0180435180664 85.48679351806641 121.0180435180664 83.31015777587891 C 121.0180435180664 82.40042877197266 120.7997741699219 81.54013824462891 120.369270324707 80.75320434570312 L 117.9210662841797 76.27797698974609 L 121.944091796875 73.14166259765625 C 123.2506561279297 72.12306976318359 124 70.58843231201172 124 68.93122863769531 C 124 67.53006744384766 123.4625473022461 66.20729827880859 122.4866333007812 65.20654296875 L 118.9230194091797 61.55220413208008 L 121.9589080810547 57.44893264770508 C 122.6398620605469 56.52854537963867 122.9997940063477 55.43245315551758 122.9997940063477 54.27913665771484 C 122.9997940063477 52.38288497924805 121.9812698364258 50.61361312866211 120.3417053222656 49.66177368164062 L 115.9342727661133 47.10306930541992 L 117.7461166381836 42.33970642089844 C 117.9751129150391 41.7376594543457 118.0912246704102 41.09911346435547 118.0912246704102 40.44174957275391 C 118.0912246704102 38.00363540649414 116.452522277832 35.88161468505859 114.1061553955078 35.28138732910156 L 109.185905456543 33.5241584777832 L 109.6387481689453 28.44302177429199 C 109.6387481689453 25.50758361816406 107.2612609863281 23.11956787109375 104.2269592285156 23.11956787109375 C 104.2264099121094 23.11956787109375 104.2253952026367 23.11956787109375 104.2248382568359 23.11956787109375 L 99.10206604003906 23.2409553527832 L 98.1805419921875 18.20027351379395 C 97.71977233886719 15.67986392974854 95.52647399902344 13.85052299499512 92.96538543701172 13.85052299499512 C 92.43686676025391 13.85052299499512 91.91725158691406 13.92715930938721 91.42092895507812 14.07827281951904 L 86.53443145751953 15.56622695922852 L 84.28579711914062 10.97977256774902 C 83.384521484375 9.14143180847168 81.55895233154297 7.999454498291016 79.52149963378906 7.999454498291016 C 78.50554656982422 7.999454498291016 77.52066040039062 8.287022590637207 76.67327117919922 8.83106803894043 L 72.36350250244141 11.59813594818115 L 68.95418548583984 7.776181697845459 C 67.93245697021484 6.630795478820801 66.52809143066406 6 64.99979400634766 6 C 63.47181701660156 6 62.06786346435547 6.630659103393555 61.04656982421875 7.775772571563721 L 57.63763809204102 11.59799957275391 L 53.32761383056641 8.831386566162109 C 52.47972869873047 8.287136077880859 51.49449920654297 7.999454498291016 50.47847747802734 7.999454498291016 C 48.44111251831055 7.999454498291016 46.61577224731445 9.14127254486084 45.71479415893555 10.97934055328369 L 43.46633911132812 15.56634044647217 L 38.5794563293457 14.07827281951904 C 38.08313751220703 13.92715930938721 37.56338500976562 13.85052299499512 37.03461456298828 13.85052299499512 C 34.4734992980957 13.85052299499512 32.28020477294922 15.67986392974854 31.81943130493164 18.20027351379395 L 30.66659164428711 23.11845397949219 L 25.6640453338623 23.11845397949219 C 22.74006843566895 23.11845397949219 20.36122703552246 25.50704574584961 20.38286399841309 28.92874908447266 L 20.84238624572754 34.0156364440918 L 15.89411354064941 35.28141021728516 C 13.54761409759521 35.88163757324219 11.90879535675049 38.00365829467773 11.90879535675049 40.44174957275391 C 11.90879535675049 41.09915924072266 12.02490901947021 41.73775100708008 12.25388622283936 42.33979415893555 L 14.06561374664307 47.10309219360352 L 9.658272743225098 49.66177368164062 C 8.018704414367676 50.61361312866211 7.000181674957275 52.38288497924805 7.000181674957275 54.27913665771484 C 7.000181674957275 55.43245315551758 7.360113620758057 56.52854537963867 8.041068077087402 57.44893264770508 L 11.07693195343018 61.55218124389648 L 7.513363838195801 65.20652008056641 C 6.537454605102539 66.20729827880859 6 67.53006744384766 6 68.93122863769531 C 6 70.58836364746094 6.749386310577393 72.12290954589844 8.055976867675781 73.14141082763672 L 12.08018207550049 76.27822875976562 L 9.630613327026367 80.75411224365234 C 9.20018196105957 81.54061126708984 8.981931686401367 82.40058898925781 8.981931686401367 83.31015777587891 C 8.981931686401367 85.48670196533203 10.27884101867676 87.42377471923828 12.28597736358643 88.24504852294922 L 17.0012264251709 90.17443084716797 L 15.86174964904785 95.14009094238281 C 15.77145481109619 95.53366088867188 15.72565937042236 95.94054412841797 15.72565937042236 96.34950256347656 C 15.72565937042236 99.06182098388672 17.743408203125 101.336296081543 20.41911315917969 101.64013671875 L 25.50629615783691 102.2177734375 L 25.73613548278809 107.3324508666992 C 25.86402320861816 110.1784744262695 28.19061851501465 112.4075164794922 31.87645530700684 112.3417739868164 L 36.92106628417969 111.5371780395508 L 38.52000045776367 116.3888854980469 C 39.23938751220703 118.5717697143555 41.26354598999023 120.0384063720703 43.55681991577148 120.0384063720703 C 44.3333625793457 120.0384063720703 45.07906723022461 119.8754806518555 45.7732048034668 119.5541381835938 L 50.41538619995117 117.4050674438477 L 53.27154541015625 121.6489791870117 C 54.26229476928711 123.1211166381836 55.90715789794922 124 57.67156982421875 124 C 59.28386306762695 124 60.42779541015625 123.3120422363281 61.10352325439453 122.7349319458008 L 65.00054168701172 119.4065933227539 L 68.89724731445312 122.7352752685547 C 69.57268524169922 123.3122482299805 70.71620178222656 124 72.32840728759766 124 M 72.32840728759766 130 C 69.53234100341797 130 66.97322845458984 128.9828186035156 65.00018310546875 127.2973861694336 C 63.02677154541016 128.9828186035156 60.46804428100586 130 57.67156982421875 130 C 53.76672744750977 130 50.3243408203125 128.0160522460938 48.29384231567383 124.9989776611328 C 46.85300064086914 125.6660003662109 45.24811553955078 126.0384063720703 43.55681991577148 126.0384063720703 C 38.55313491821289 126.0384063720703 34.30906677246094 122.7807464599609 32.82147598266602 118.2668838500977 C 32.23895645141602 118.3597946166992 31.64177322387695 118.407844543457 31.03311347961426 118.407844543457 C 24.96461296081543 118.407844543457 20.01243209838867 113.6156616210938 19.7421817779541 107.6018218994141 C 14.10563659667969 106.9617919921875 9.725659370422363 102.1680221557617 9.725659370422363 96.34950256347656 C 9.725659370422363 95.47248077392578 9.825522422790527 94.61843109130859 10.01375007629395 93.79815673828125 C 5.88897705078125 92.11038970947266 2.981931924819946 88.05033874511719 2.981931924819946 83.31015777587891 C 2.981931924819946 81.340087890625 3.484022617340088 79.48752593994141 4.367295265197754 77.87358856201172 C 1.709522724151611 75.80188751220703 0 72.56645202636719 0 68.93122863769531 C 0 65.85143280029297 1.226863622665405 63.05911254882812 3.21770453453064 61.0175666809082 C 1.824431777000427 59.13442993164062 1.000181794166565 56.80307006835938 1.000181794166565 54.27913665771484 C 1.000181794166565 50.09002304077148 3.27081823348999 46.43218231201172 6.645841121673584 44.47281646728516 C 6.169545650482178 43.2205696105957 5.908795356750488 41.86193084716797 5.908795356750488 40.44174957275391 C 5.908795356750488 35.15724945068359 9.521182060241699 30.71840858459473 14.40720462799072 29.46856880187988 C 14.37668228149414 29.13068199157715 14.36122703552246 28.78884124755859 14.36122703552246 28.44302177429199 C 14.36122703552246 22.18856811523438 19.42159080505371 17.11845397949219 25.6640453338623 17.11845397949219 C 25.74884033203125 17.11845397949219 25.83325004577637 17.11924934387207 25.91724967956543 17.12125015258789 C 26.88138580322266 11.84745407104492 31.49197769165039 7.850522518157959 37.03461456298828 7.850522518157959 C 38.17984008789062 7.850522518157959 39.28543090820312 8.021249771118164 40.32722854614258 8.33847713470459 C 42.16752243041992 4.584136486053467 46.02202224731445 1.999454498291016 50.47847747802734 1.999454498291016 C 52.72097778320312 1.999454498291016 54.81090927124023 2.653772830963135 56.56874847412109 3.7821364402771 C 58.63847732543945 1.461477279663086 61.64893341064453 0 64.99979400634766 0 C 68.35066223144531 0 71.36152648925781 1.461477279663086 73.43163299560547 3.7821364402771 C 75.18909454345703 2.653772830963135 77.27902221679688 1.999454498291016 79.52149963378906 1.999454498291016 C 83.97836303710938 1.999454498291016 87.83249664306641 4.584136486053467 89.67315673828125 8.33847713470459 C 90.71495819091797 8.021249771118164 91.82013702392578 7.850522518157959 92.96538543701172 7.850522518157959 C 98.50800323486328 7.850522518157959 103.1185913085938 11.84745407104492 104.0827255249023 17.12125015258789 C 110.4105224609375 16.97130966186523 115.6387481689453 22.10400199890137 115.6387481689453 28.44302177429199 C 115.6387481689453 28.78884124755859 115.6233215332031 29.13068199157715 115.5932083129883 29.46856880187988 C 120.4788208007812 30.71840858459473 124.0912246704102 35.15724945068359 124.0912246704102 40.44174957275391 C 124.0912246704102 41.86193084716797 123.830451965332 43.2205696105957 123.354133605957 44.47281646728516 C 126.7291793823242 46.43218231201172 128.9998016357422 50.09002304077148 128.9998016357422 54.27913665771484 C 128.9998016357422 56.80307006835938 128.1755523681641 59.13442993164062 126.7822723388672 61.0175666809082 C 128.7731323242188 63.05911254882812 130 65.85143280029297 130 68.93122863769531 C 130 72.56645202636719 128.2904968261719 75.80188751220703 125.6330871582031 77.87358856201172 C 126.515998840332 79.48752593994141 127.0180435180664 81.340087890625 127.0180435180664 83.31015777587891 C 127.0180435180664 88.05033874511719 124.1114349365234 92.11038970947266 119.9862518310547 93.79815673828125 C 120.1748657226562 94.61843109130859 120.2743377685547 95.47248077392578 120.2743377685547 96.34950256347656 C 120.2743377685547 102.1680221557617 115.8943634033203 106.9617919921875 110.2582015991211 107.6018218994141 C 109.987548828125 113.6156616210938 105.035774230957 118.407844543457 98.96649932861328 118.407844543457 C 98.35820770263672 118.407844543457 97.76102447509766 118.3597946166992 97.17852020263672 118.2668838500977 C 95.69131469726562 122.7811584472656 91.44686126708984 126.0384063720703 86.44316101074219 126.0384063720703 C 84.75188446044922 126.0384063720703 83.14700317382812 125.6660003662109 81.70654296875 124.9989776611328 C 79.67607116699219 128.0160522460938 76.2332763671875 130 72.32840728759766 130 Z" stroke="none" fill="#4fa83d"></path></g><text id="_" data-name="%" transform="translate(37 91.447)" fill="#4fa83d" font-size="76" font-family="SegoeUI, Segoe UI"><tspan x="0" y="0">%</tspan></text></g></svg>