<svg xmlns="http://www.w3.org/2000/svg" width="16" height="16" viewBox="0 0 16 16" fill="none"><path d="M8 16C12.4183 16 16 12.4183 16 8C16 3.58172 12.4183 0 8 0C3.58172 0 0 3.58172 0 8C0 12.4183 3.58172 16 8 16Z" fill="#699635"></path><path d="M7.92012 6.58615C7.89345 6.34615 8.02678 6.10615 8.26678 6.15948C8.45345 6.18615 8.66678 6.37281 8.56012 6.55948C8.40012 6.85281 7.97345 6.85281 7.70678 7.01281C7.73345 7.17281 8.50678 6.98615 8.64012 6.98615C8.77345 6.98615 8.90678 7.03948 8.82678 7.19948C8.74678 7.35948 8.48012 7.35948 8.32012 7.38615C8.16012 7.41281 7.89345 7.41281 7.81345 7.54615C7.65345 7.75948 7.97345 7.78615 8.08012 7.83948C8.34678 7.97281 7.92012 8.10615 7.81345 8.07948C7.41345 7.99948 7.33345 7.78615 7.09345 7.51948C6.85345 7.83948 6.10678 8.55948 5.94678 7.81281C5.68012 7.91948 5.41345 8.05281 5.12012 8.07948C5.25345 7.89281 5.52012 7.81281 5.73345 7.70615C6.00012 7.57281 6.00012 7.33281 6.16012 7.11948C6.21345 7.19948 6.16012 7.30615 6.18678 7.41281C6.40012 7.30615 6.66678 7.09281 6.56012 6.82615C6.56012 6.79948 6.24012 6.15948 6.50678 6.26615C6.74678 6.37281 6.66678 6.61281 6.72012 6.79948C6.80012 7.14615 6.64012 7.33281 6.37345 7.54615C6.26678 7.62615 5.97345 7.94615 6.32012 7.94615C6.56012 7.94615 6.77345 7.67948 6.90678 7.51948C7.06678 7.30615 7.01345 7.09281 6.90678 6.85281C6.82678 6.66615 6.64012 6.26615 6.88012 6.13281C7.06678 6.42615 7.14678 6.77281 7.22678 7.11948C7.28012 7.41281 7.33345 7.70615 7.65345 7.78615C7.62678 7.57281 7.76012 7.41281 7.94678 7.33281C7.81345 7.22615 7.06678 7.35948 7.36012 6.95948C7.38678 6.77281 7.92012 6.69281 7.92012 6.58615Z" fill="white"></path><path d="M3.84075 7.5733C3.97408 7.94663 4.42742 7.8133 4.69408 7.70663C5.12075 7.4933 5.12075 7.1733 5.12075 6.74663C4.96075 6.82663 4.98741 7.11997 4.93408 7.2533C4.82741 7.46663 4.48075 7.6533 4.24075 7.62663C3.89408 7.5733 3.73408 6.98663 4.00075 6.7733C4.05408 6.95997 3.92075 7.35997 4.24075 7.38663C4.48075 7.4133 4.96075 7.11997 4.88075 6.8533C4.56075 6.95997 4.37408 6.8533 4.48075 6.50663C4.56075 6.18663 4.88075 6.42663 5.01408 6.58663C5.52075 6.2933 4.61408 5.1733 5.14741 4.87997C5.25408 5.06663 5.41408 5.30663 5.28075 5.4933C5.12075 5.70663 5.28075 6.15997 5.30741 6.39997C5.57408 6.15997 5.36075 6.58663 5.57408 6.6133C5.70741 6.63997 5.76075 6.2933 5.84075 6.2933C5.86741 6.3733 5.86741 6.6133 6.00075 6.58663C6.16075 6.5333 5.97408 6.31997 6.13408 6.26663C6.18741 6.39997 6.16075 6.79997 5.97408 6.7733C5.81408 6.74663 5.84075 6.63997 5.65408 6.74663C5.49408 6.82663 5.44075 6.74663 5.33408 6.66663C5.30741 6.98663 5.41408 7.3333 5.22742 7.62663C5.06741 7.86663 4.74741 7.99997 4.48075 8.0533C3.78741 8.18663 3.60075 7.4933 3.84075 6.9333C3.89408 7.0933 3.78741 7.38663 3.84075 7.5733ZM10.3474 7.70663C10.4807 8.0533 10.7474 7.3333 10.8274 7.22663C11.0407 6.90663 11.3607 7.7333 11.4941 7.19997C11.5741 6.8533 11.4674 6.50663 11.4407 6.15997C11.4141 5.91997 11.3341 5.70663 11.1741 5.51997C11.0141 5.30663 10.8541 5.11997 10.9341 4.8533C11.2007 4.95997 11.2007 5.1733 11.3341 5.38663C11.3607 5.22663 11.2541 5.0133 11.3607 4.87997C11.4941 4.6933 11.6007 5.19997 11.6007 5.2533C11.6274 5.38663 11.4941 5.43997 11.5741 5.6533C11.6274 5.8133 11.7341 5.9733 11.8407 6.10663C11.8141 5.94663 11.5741 4.8533 11.8407 4.8533C11.9207 4.8533 12.0007 5.1733 12.0007 5.22663C12.0541 5.38663 11.9474 5.51997 11.9474 5.70663C11.9207 6.02663 11.9741 6.39997 12.1874 6.63997C12.2941 6.7733 12.6941 7.2533 12.4807 7.4133C12.3207 7.22663 12.2141 7.0133 12.0807 6.82663C12.0807 7.03997 12.1341 7.27997 12.0274 7.43997C11.9207 7.38663 11.9741 7.03997 11.9741 6.95997C11.9741 6.66663 11.7874 6.42663 11.6274 6.18663C11.5741 6.58663 11.8941 7.3333 11.5207 7.62663C11.2807 7.83997 10.9607 7.35997 10.8807 7.54663C10.8007 7.67997 10.6141 8.15997 10.4007 8.10663C10.1341 8.0533 9.94742 7.30663 10.2407 7.22663C10.2674 7.35997 10.2674 7.54663 10.3474 7.70663Z" fill="white"></path><path d="M4.64049 5.89302C4.82716 5.91969 4.64049 5.27969 4.64049 5.17302C4.66716 5.06635 4.74716 5.01302 4.80049 5.11969C4.88049 5.27969 4.88049 5.46635 4.90716 5.62635C4.90716 5.75969 4.93382 5.91969 4.82716 6.02635C4.66716 6.18635 4.45382 6.10635 4.37382 5.89302C4.00049 6.21302 4.48049 6.77302 4.16049 7.09302C4.10716 6.79969 4.16049 6.47969 4.05382 6.21302C4.00049 6.07969 3.76049 6.13302 3.73382 5.89302C3.73382 5.78635 3.81382 5.49302 3.70716 5.41302C3.65382 5.51969 3.60049 6.34635 3.33382 6.10635C3.12049 5.94635 3.17382 5.41302 3.25382 5.19969C3.41382 5.27969 3.22716 5.86635 3.44049 5.89302C3.54716 5.91969 3.57382 5.46635 3.60049 5.38635C3.68049 5.25302 3.94716 4.87969 3.89382 5.25302C3.86716 5.41302 3.73382 5.91969 4.05382 5.89302C4.02716 5.62635 4.00049 5.35969 3.94716 5.09302C3.92049 4.95969 4.00049 4.69302 4.10716 4.93302C4.18716 5.09302 4.13382 5.17302 4.10716 5.33302C4.08049 5.51969 4.16049 5.70635 4.18716 5.86635C4.34716 5.73302 4.13382 5.22635 4.26716 5.01302C4.58716 5.19969 4.24049 5.83969 4.64049 5.89302ZM8.08049 5.94635C7.94716 6.13302 7.70716 5.97302 7.60049 5.83969C7.46716 5.99969 7.20049 6.26635 6.98716 6.05302C6.82716 5.89302 7.01382 5.59969 6.88049 5.46635C6.80049 5.59969 6.66716 6.23969 6.42716 5.94635C6.29382 5.78635 6.10716 5.22635 6.40049 5.09302C6.37382 5.30635 6.32049 5.54635 6.45382 5.73302C6.58716 5.91969 6.72049 5.43969 6.77382 5.33302C6.85382 5.14635 7.12049 4.82635 7.06716 5.22635C7.04049 5.38635 6.98716 5.75969 7.14716 5.86635C7.25382 5.94635 7.38716 5.81302 7.44049 5.73302C7.54716 5.59969 7.49382 5.38635 7.46716 5.22635C7.44049 5.09302 7.38716 4.93302 7.46716 4.79969C7.57382 4.63969 7.65382 5.01302 7.65382 5.09302C7.65382 5.17302 7.76049 5.99969 7.94716 5.73302C8.13382 5.49302 7.62716 4.95969 7.97382 4.82635C8.10716 4.77302 8.34716 5.30635 8.08049 5.14635C8.16049 5.38635 8.26716 5.73302 8.08049 5.94635ZM9.09382 6.26635C9.12049 6.61302 9.41382 7.57302 9.01382 7.78635C8.96049 7.67969 9.01382 7.51969 9.04049 7.38635C9.06716 7.14635 9.01382 6.90635 8.98716 6.69302C8.93382 6.18635 8.88049 5.81302 8.53382 5.41302C8.45382 5.30635 8.32049 5.22635 8.29382 5.06635C8.29382 5.01302 8.26716 4.77302 8.37382 4.82635C8.45382 4.85302 8.90716 5.25302 8.66716 5.25302C8.69382 5.30635 8.80049 5.51969 8.85382 5.51969C8.85382 5.38635 8.69382 4.98635 8.85382 4.90635C8.98716 4.82635 9.14716 5.33302 9.09382 5.43969C9.04049 5.57302 9.04049 5.65302 9.09382 5.83969C9.14716 6.05302 9.28049 6.23969 9.38716 6.42635C9.54716 6.69302 9.86716 7.06635 9.78716 7.41302C9.62716 7.33302 9.52049 6.95969 9.44049 6.79969C9.38716 6.66635 9.33382 6.53302 9.25382 6.42635C9.22716 6.39969 9.06716 6.18635 9.09382 6.31969V6.26635ZM12.8005 6.77302C12.8272 7.33302 12.6405 8.05302 11.9472 8.05302C11.9472 7.89302 12.2938 7.73302 12.4005 7.65302C12.6672 7.43969 12.6405 7.03969 12.6138 6.74635C12.5872 6.34635 12.5605 5.94635 12.4805 5.54635C12.4538 5.30635 12.3205 4.95969 12.5338 4.79969C12.6672 4.90635 12.8538 5.19969 12.7738 5.30635C12.6405 5.46635 12.7738 6.66635 12.8005 6.77302Z" fill="white"></path><path d="M9.38694 7.97327C10.0803 7.57327 9.86694 6.71994 9.81361 6.05327C9.78694 5.86661 9.78694 5.67994 9.76027 5.49327C9.76027 5.35994 9.65361 5.17327 9.70694 5.03994C9.84027 4.69327 9.94694 5.01327 9.97361 5.22661C10.0003 5.35994 9.89361 5.38661 9.92027 5.49327C9.94694 5.70661 9.94694 5.91994 9.97361 6.13327C10.0003 6.47994 10.0536 6.82661 10.0269 7.14661C9.97361 7.65327 9.70694 8.21327 9.09361 8.10661C9.12027 8.05327 9.30694 8.02661 9.38694 7.97327ZM10.5069 6.63994C10.5336 6.90661 10.6403 7.38661 10.5069 7.62661C10.4003 7.78661 10.4003 7.51994 10.3736 7.49327C10.3469 7.27994 10.3469 7.06661 10.3469 6.82661C10.2936 6.23994 10.1069 5.65327 10.1069 5.09327C10.1069 4.37327 10.7203 5.49327 10.3736 5.43994C10.4003 5.83994 10.4536 6.23994 10.5069 6.63994ZM6.16027 5.27994C6.21361 5.41327 5.54694 5.75994 5.46694 5.75994C5.44027 5.62661 5.76027 5.43994 5.84027 5.38661C5.92027 5.30661 5.97361 5.30661 5.94694 5.19994C5.89361 5.09327 5.92027 4.90661 6.05361 4.85327C6.32027 4.77327 6.13361 5.17327 6.16027 5.27994ZM3.41361 7.65327C3.41361 7.86661 3.49361 7.75994 3.60027 7.70661C3.65361 7.81327 3.52027 8.10661 3.38694 7.97327C3.20027 7.78661 3.36027 7.35994 3.44027 7.17327C3.49361 7.30661 3.38694 7.51994 3.41361 7.65327ZM10.9336 5.99994C10.9603 5.89327 10.8803 5.78661 10.9603 5.67994C11.0669 5.54661 11.1736 5.70661 11.1203 5.75994C11.0669 5.81327 10.9869 5.70661 10.9869 5.86661C10.9869 5.94661 11.0403 6.10661 10.9603 6.18661C10.9069 6.15994 10.6669 5.81327 10.6936 5.75994C10.8003 5.65327 10.9069 5.97327 10.9336 5.99994ZM3.97361 6.45327C3.92027 6.55994 3.30694 6.90661 3.28027 6.82661C3.28027 6.74661 4.05361 6.29327 3.97361 6.45327ZM8.50694 7.81327C8.42694 8.05327 8.77361 7.83994 8.85361 7.81327C8.74694 7.99994 8.37361 8.15994 8.42694 7.81327C8.40027 7.81327 8.34694 7.83994 8.32027 7.83994C8.26694 7.78661 8.58694 7.57327 8.50694 7.81327ZM11.4136 7.73327C11.4936 7.73327 11.6269 7.97327 11.5469 8.02661C11.4936 8.07994 11.2536 8.10661 11.3869 7.99994C11.5469 7.83994 11.4136 7.73327 11.4136 7.73327ZM7.65361 6.37327C7.68027 6.31994 7.68027 6.23994 7.70694 6.18661C7.97361 6.39994 7.28027 6.74661 7.41361 6.23994C7.46694 6.29327 7.46694 6.37327 7.52027 6.39994C7.52027 6.34661 7.54694 6.26661 7.54694 6.21327C7.60027 6.26661 7.60027 6.34661 7.65361 6.37327ZM10.7736 6.71994C10.6936 6.61327 11.1736 6.31994 11.2536 6.26661C11.3069 6.34661 10.9336 6.63994 10.7736 6.71994ZM12.2669 5.65327C12.2136 5.49327 12.0536 5.17327 12.2136 5.03994C12.3203 5.11994 12.3736 5.51994 12.2669 5.65327ZM9.36027 5.11994C9.33361 5.06661 9.25361 5.01327 9.25361 4.93327C9.28027 4.82661 9.33361 4.85327 9.38694 4.90661C9.46694 5.01327 9.52027 5.30661 9.38694 5.38661C9.38694 5.30661 9.41361 5.19994 9.36027 5.11994ZM6.10694 5.83994C6.10694 5.99994 5.84027 6.15994 5.81361 5.94661C5.78694 5.86661 5.92027 5.57327 5.97361 5.65327C5.86694 5.89327 5.86694 5.97327 6.10694 5.83994Z" fill="white"></path><path d="M9.44044 5.54633C9.5471 5.813 9.49377 5.573 9.60044 5.51966C9.7871 5.86633 9.20044 5.78633 9.33377 5.573C9.36044 5.59966 9.3871 5.653 9.3871 5.67966C9.41377 5.653 9.41377 5.59966 9.44044 5.54633ZM11.1471 6.773C11.0138 6.66633 11.1738 6.533 11.2538 6.66633C11.3071 6.74633 11.3071 6.95966 11.2004 7.013C11.2004 6.933 11.2271 6.82633 11.1471 6.773ZM5.68044 7.35966C5.68044 7.30633 5.65377 6.90633 5.73377 6.95966C5.84044 7.013 5.81377 7.30633 5.68044 7.35966ZM4.56044 4.853C4.5871 4.933 4.61377 5.03966 4.6671 4.90633C4.88044 5.14633 4.13377 5.06633 4.40044 4.82633C4.40044 4.853 4.45377 5.013 4.56044 4.853ZM7.28044 5.43966C7.28044 5.333 7.12044 4.87966 7.25377 4.87966C7.41377 4.90633 7.3871 5.30633 7.28044 5.43966ZM3.5471 5.19966C3.4671 5.173 3.60044 5.03966 3.5471 4.933C3.49377 4.95966 3.44044 4.87966 3.49377 4.82633C3.7071 4.66633 3.6271 5.19966 3.5471 5.19966ZM10.4538 10.613L10.3471 10.293L10.2404 10.613H4.40044C4.40044 10.613 4.45377 11.093 5.04044 11.093H10.2138V11.4663H11.6271V10.613H10.4538ZM11.3604 11.253H10.4004V10.9863H11.3604V11.253Z" fill="white"></path></svg>