<svg width="24" height="26" viewBox="0 0 24 26" fill="none" xmlns="http://www.w3.org/2000/svg">
<path d="M22 2H19V1C19 0.734784 18.8946 0.48043 18.7071 0.292893C18.5196 0.105357 18.2652 0 18 0C17.7348 0 17.4804 0.105357 17.2929 0.292893C17.1054 0.48043 17 0.734784 17 1V2H7V1C7 0.734784 6.89464 0.48043 6.70711 0.292893C6.51957 0.105357 6.26522 0 6 0C5.73478 0 5.48043 0.105357 5.29289 0.292893C5.10536 0.48043 5 0.734784 5 1V2H2C1.46957 2 0.960859 2.21071 0.585786 2.58579C0.210714 2.96086 0 3.46957 0 4V24C0 24.5304 0.210714 25.0391 0.585786 25.4142C0.960859 25.7893 1.46957 26 2 26H22C22.5304 26 23.0391 25.7893 23.4142 25.4142C23.7893 25.0391 24 24.5304 24 24V4C24 3.46957 23.7893 2.96086 23.4142 2.58579C23.0391 2.21071 22.5304 2 22 2ZM5 4V5C5 5.26522 5.10536 5.51957 5.29289 5.70711C5.48043 5.89464 5.73478 6 6 6C6.26522 6 6.51957 5.89464 6.70711 5.70711C6.89464 5.51957 7 5.26522 7 5V4H17V5C17 5.26522 17.1054 5.51957 17.2929 5.70711C17.4804 5.89464 17.7348 6 18 6C18.2652 6 18.5196 5.89464 18.7071 5.70711C18.8946 5.51957 19 5.26522 19 5V4H22V8H2V4H5ZM22 24H2V10H22V24ZM17.2075 13.2925C17.3005 13.3854 17.3742 13.4957 17.4246 13.6171C17.4749 13.7385 17.5008 13.8686 17.5008 14C17.5008 14.1314 17.4749 14.2615 17.4246 14.3829C17.3742 14.5043 17.3005 14.6146 17.2075 14.7075L11.2075 20.7075C11.1146 20.8005 11.0043 20.8742 10.8829 20.9246C10.7615 20.9749 10.6314 21.0008 10.5 21.0008C10.3686 21.0008 10.2385 20.9749 10.1171 20.9246C9.99566 20.8742 9.88537 20.8005 9.7925 20.7075L6.7925 17.7075C6.60486 17.5199 6.49944 17.2654 6.49944 17C6.49944 16.7346 6.60486 16.4801 6.7925 16.2925C6.98014 16.1049 7.23464 15.9994 7.5 15.9994C7.76536 15.9994 8.01986 16.1049 8.2075 16.2925L10.5 18.5863L15.7925 13.2925C15.8854 13.1995 15.9957 13.1258 16.1171 13.0754C16.2385 13.0251 16.3686 12.9992 16.5 12.9992C16.6314 12.9992 16.7615 13.0251 16.8829 13.0754C17.0043 13.1258 17.1146 13.1995 17.2075 13.2925Z" fill="#4FA83D"/>
</svg>
