<svg xmlns="http://www.w3.org/2000/svg" width="93" height="93" viewBox="0 0 93 93"><g id="Group_4132" data-name="Group 4132" transform="translate(-877 -6766)"><g id="Path_21209" data-name="Path 21209" transform="translate(877 6766)" fill="#fff"><path d="M 46.5 91.5 C 40.42437362670898 91.5 34.53129196166992 90.31040954589844 28.98442649841309 87.96429443359375 C 23.62603950500488 85.69788360595703 18.81340026855469 82.45301055908203 14.68019962310791 78.31980133056641 C 10.54698657989502 74.18659973144531 7.302120208740234 69.37396240234375 5.035706520080566 64.01557159423828 C 2.689586639404297 58.46870803833008 1.5 52.57562637329102 1.5 46.5 C 1.5 40.42437362670898 2.689586639404297 34.53129196166992 5.035706520080566 28.98442649841309 C 7.302120208740234 23.62603950500488 10.54698657989502 18.81340026855469 14.68019962310791 14.68019962310791 C 18.81340026855469 10.54698657989502 23.62603950500488 7.302120208740234 28.98442649841309 5.035706520080566 C 34.53129196166992 2.689586639404297 40.42437362670898 1.5 46.5 1.5 C 52.57562637329102 1.5 58.46870803833008 2.689586639404297 64.01557159423828 5.035706520080566 C 69.37396240234375 7.302120208740234 74.18659973144531 10.54698657989502 78.31980133056641 14.68019962310791 C 82.45301055908203 18.81340026855469 85.69788360595703 23.62603950500488 87.96429443359375 28.98442649841309 C 90.31040954589844 34.53129196166992 91.5 40.42437362670898 91.5 46.5 C 91.5 52.57562637329102 90.31040954589844 58.46870803833008 87.96429443359375 64.01557159423828 C 85.69788360595703 69.37396240234375 82.45301055908203 74.18659973144531 78.31980133056641 78.31980133056641 C 74.18659973144531 82.45301055908203 69.37396240234375 85.69788360595703 64.01557159423828 87.96429443359375 C 58.46870803833008 90.31040954589844 52.57562637329102 91.5 46.5 91.5 Z" stroke="none"></path><path d="M 46.5 3 C 40.62621307373047 3 34.92972946166992 4.149711608886719 29.56875610351562 6.417213439941406 C 24.38916778564453 8.608001708984375 19.73678588867188 11.74492645263672 15.74085998535156 15.74085998535156 C 11.74492645263672 19.73678588867188 8.608001708984375 24.38916778564453 6.417213439941406 29.56875610351562 C 4.149711608886719 34.92972946166992 3 40.62621307373047 3 46.5 C 3 52.37378692626953 4.149711608886719 58.07027053833008 6.417213439941406 63.43124389648438 C 8.608001708984375 68.61082458496094 11.74492645263672 73.26321411132812 15.74085998535156 77.25914001464844 C 19.73678588867188 81.25507354736328 24.38916778564453 84.39199829101562 29.56875610351562 86.58278656005859 C 34.92972946166992 88.85028839111328 40.62621307373047 90 46.5 90 C 52.37378692626953 90 58.07027053833008 88.85028839111328 63.43124389648438 86.58278656005859 C 68.61082458496094 84.39199829101562 73.26319885253906 81.25507354736328 77.25914001464844 77.25914001464844 C 81.25507354736328 73.26319885253906 84.39199829101562 68.61082458496094 86.58278656005859 63.43124389648438 C 88.85028839111328 58.07027053833008 90 52.37378692626953 90 46.5 C 90 40.62621307373047 88.85028839111328 34.92972946166992 86.58278656005859 29.56875610351562 C 84.39199829101562 24.38916778564453 81.25507354736328 19.73678588867188 77.25914001464844 15.74085998535156 C 73.26321411132812 11.74492645263672 68.61082458496094 8.608001708984375 63.43124389648438 6.417213439941406 C 58.07027053833008 4.149711608886719 52.37378692626953 3 46.5 3 M 46.5 0 C 72.18122863769531 0 93 20.81875610351562 93 46.5 C 93 72.18122863769531 72.18122863769531 93 46.5 93 C 20.81875610351562 93 0 72.18122863769531 0 46.5 C 0 20.81875610351562 20.81875610351562 0 46.5 0 Z" stroke="none" fill="#0d0e10"></path></g><g id="Icon_feather-arrow-up" data-name="Icon feather-arrow-up" transform="translate(903.5 6792.5)"><path id="Path_17758" data-name="Path 17758" d="M18,33.227V7.5" transform="translate(2.364)" fill="none" stroke="#4fa83d" stroke-linecap="round" stroke-linejoin="round" stroke-width="5"></path><path id="Path_17759" data-name="Path 17759" d="M7.5,20.364,20.364,7.5,33.227,20.364" fill="none" stroke="#4fa83d" stroke-linecap="round" stroke-linejoin="round" stroke-width="5"></path></g></g></svg>