<svg xmlns="http://www.w3.org/2000/svg" width="116" height="116" viewBox="0 0 116 116"><g id="Group_6031" data-name="Group 6031" transform="translate(-1437 -2654)"><rect id="Rectangle_215" data-name="Rectangle 215" width="116" height="116" rx="58" transform="translate(1553 2770) rotate(180)" fill="#4fa83d"></rect><g id="Group_6014" data-name="Group 6014" transform="translate(2477.248 2671.25)"><path id="Path_42740" data-name="Path 42740" d="M-1010.248,136.435V102.592c.2-.009.406-.027.609-.027q27.891,0,55.781,0c.2,0,.406.018.609.027v33.844a1.958,1.958,0,0,1-2.12,1.333c-3.432-.029-6.865-.011-10.3-.011h-.655c.078-.268.15-.456.188-.651a29.054,29.054,0,0,0,.83-4.518c.129-4.041.1-8.088.07-12.132a4.853,4.853,0,0,0-3.414-4.723c-3.763-1.356-7.539-2.676-11.306-4.021a5.312,5.312,0,0,0-3.7.034q-5.491,1.968-10.993,3.906a5.035,5.035,0,0,0-3.634,5.138c-.005,3.47-.039,6.94.018,10.409a31.353,31.353,0,0,0,.407,4.086,22.33,22.33,0,0,0,.654,2.471h-.633c-3.432,0-6.865-.018-10.3.011A1.961,1.961,0,0,1-1010.248,136.435Z" transform="translate(0 -76.482)" fill="#c2e1bc"></path><path id="Path_42741" data-name="Path 42741" d="M-893.624,216.154h-.891c-.466-.109-.932-.215-1.4-.328a14.775,14.775,0,0,1-11.288-13.61c-.152-3.907-.057-7.825-.054-11.738a1.648,1.648,0,0,1,1.308-1.715c3.7-1.313,7.4-2.618,11.092-3.942a2.211,2.211,0,0,1,1.567-.006q5.491,1.962,10.987,3.908a1.751,1.751,0,0,1,1.42,1.976c0,3.505.024,7.011,0,10.516a14.862,14.862,0,0,1-9.393,13.975A34.582,34.582,0,0,1-893.624,216.154Zm-.709-15.381c-.48-.516-.883-1-1.343-1.43a1.631,1.631,0,0,0-2.3.056,1.66,1.66,0,0,0-.013,2.312q1.251,1.3,2.556,2.556a1.61,1.61,0,0,0,2.266.027c1.617-1.581,3.211-3.187,4.8-4.8A1.51,1.51,0,0,0-888,198a1.657,1.657,0,0,0-2.816-.75C-891.968,198.375-893.093,199.529-894.333,200.773Z" transform="translate(-87.679 -146.404)" fill="#fff"></path><path id="Path_42742" data-name="Path 42742" d="M-1010.248,22.77V13.975a2.582,2.582,0,0,1,1.225-1.225h54.551a2.587,2.587,0,0,1,1.225,1.225V22.77Zm38.512-6.679a1.687,1.687,0,0,0-1.661,1.66,1.693,1.693,0,0,0,1.647,1.675,1.69,1.69,0,0,0,1.688-1.69A1.685,1.685,0,0,0-971.736,16.091Zm5.019,1.671a1.692,1.692,0,0,0,1.658,1.664,1.693,1.693,0,0,0,1.677-1.645,1.685,1.685,0,0,0-1.686-1.69A1.687,1.687,0,0,0-966.717,17.762Zm10.015,0a1.687,1.687,0,0,0-1.646-1.674,1.688,1.688,0,0,0-1.69,1.631,1.691,1.691,0,0,0,1.674,1.7A1.693,1.693,0,0,0-956.7,17.765Z" transform="translate(0)" fill="#c2e1bc"></path></g></g></svg>