<svg width="58" height="58" viewBox="0 0 58 58" fill="none" xmlns="http://www.w3.org/2000/svg">
<circle cx="28.6277" cy="29.4648" r="28.5" fill="#2C2C2C"/>
<path d="M29.567 17.4258C27.2743 20.3928 20.083 19.8983 16.8238 19.1116C15.0705 33.677 23.4983 44.0984 29.5672 45.1099C40.525 42.0754 42.5878 26.3044 42.0259 19.1116C36.901 21.8089 31.59 18.9992 29.567 17.4258Z" stroke="white" stroke-width="0.674325" stroke-linejoin="round"/>
<path d="M26.3654 34.9582C26.0872 34.9582 25.849 34.8638 25.6508 34.675C25.4525 34.4861 25.3535 34.2594 25.3539 33.9949V29.1782C25.3539 28.9133 25.453 28.6865 25.6513 28.4977C25.8495 28.3088 26.0875 28.2146 26.3654 28.2149H26.8711V27.2516C26.8711 26.5853 27.1177 26.0173 27.611 25.5475C28.1043 25.0777 28.7006 24.843 29.3998 24.8433C30.0994 24.8433 30.6959 25.0782 31.1892 25.548C31.6824 26.0177 31.9289 26.5856 31.9286 27.2516V28.2149H32.4343C32.7125 28.2149 32.9507 28.3093 33.1489 28.4981C33.3472 28.6869 33.4461 28.9136 33.4458 29.1782V33.9949C33.4458 34.2598 33.3467 34.4866 33.1484 34.6754C32.9502 34.8642 32.7121 34.9585 32.4343 34.9582H26.3654ZM26.3654 33.9949H32.4343V29.1782H26.3654V33.9949ZM29.3998 32.5499C29.678 32.5499 29.9162 32.4555 30.1145 32.2667C30.3127 32.0778 30.4117 31.8511 30.4113 31.5865C30.4113 31.3216 30.3122 31.0948 30.1139 30.906C29.9157 30.7171 29.6777 30.6229 29.3998 30.6232C29.1217 30.6232 28.8835 30.7176 28.6852 30.9064C28.487 31.0953 28.388 31.322 28.3883 31.5865C28.3883 31.8515 28.4875 32.0783 28.6857 32.2671C28.884 32.4559 29.122 32.5502 29.3998 32.5499ZM27.8826 28.2149H30.9171V27.2516C30.9171 26.8502 30.7696 26.509 30.4745 26.2281C30.1795 25.9471 29.8213 25.8066 29.3998 25.8066C28.9784 25.8066 28.6201 25.9471 28.3251 26.2281C28.0301 26.509 27.8826 26.8502 27.8826 27.2516V28.2149Z" fill="#4FA83D"/>
</svg>
