<svg xmlns="http://www.w3.org/2000/svg" width="34.125" height="32.148" viewBox="0 0 34.125 32.148"><g id="Group_6001" data-name="Group 6001" transform="translate(-1516.682 -1022.884)"><path id="Path_14418" data-name="Path 14418" d="M1530.42,1041.061a13.752,13.752,0,1,0,13.766,13.752A13.746,13.746,0,0,0,1530.42,1041.061Zm9.53,8.251h-4.057a21.525,21.525,0,0,0-1.9-4.9A11.041,11.041,0,0,1,1539.95,1049.312Zm-9.517-5.446a19.353,19.353,0,0,1,2.627,5.446h-5.253A19.371,19.371,0,0,1,1530.433,1043.866Zm-3.562.55a21.532,21.532,0,0,0-1.9,4.9h-4.056A10.984,10.984,0,0,1,1526.872,1044.416Zm-5.954,15.9h4.056a21.521,21.521,0,0,0,1.9,4.9A10.982,10.982,0,0,1,1520.917,1060.314Zm9.516,5.446a19.365,19.365,0,0,1-2.626-5.446h5.253A19.347,19.347,0,0,1,1530.433,1065.76Zm3.562-.55a21.514,21.514,0,0,0,1.9-4.9h4.057A11.04,11.04,0,0,1,1534,1065.21Zm2.434-7.646c.023-.192.044-.383.064-.575h-2.769c-.023.192-.047.383-.073.575h-6.436c-.026-.192-.05-.383-.073-.575h-2.77c.02.192.042.383.065.575h-4.648a10.765,10.765,0,0,1,0-5.5h4.648q-.035.287-.065.575h2.769c.023-.193.047-.385.074-.575h6.436q.039.285.074.575h2.768c-.02-.192-.041-.383-.064-.575h4.648a10.758,10.758,0,0,1,0,5.5Z" transform="translate(0 -13.534)" fill="#cae2bc"/><g id="Group_4259" data-name="Group 4259" transform="translate(1521.493 1039.341)"><path id="Path_14419" data-name="Path 14419" d="M1537.768,1087.308h1.028l.59,2.793.6-2.793h1.057l-1.125,3.878h-1.042l-.608-2.825-.615,2.825H1536.6l-1.089-3.878h1.089l.6,2.782Z" transform="translate(-1535.516 -1087.308)" fill="#4fa83d"/><path id="Path_14420" data-name="Path 14420" d="M1560.44,1087.308h1.029l.59,2.793.6-2.793h1.057l-1.124,3.878h-1.042l-.609-2.825-.616,2.825h-1.053l-1.089-3.878h1.089l.6,2.782Z" transform="translate(-1552.396 -1087.308)" fill="#4fa83d"/><path id="Path_14421" data-name="Path 14421" d="M1583.105,1087.308h1.028l.59,2.793.6-2.793h1.057l-1.124,3.878h-1.042l-.609-2.825-.615,2.825h-1.053l-1.088-3.878h1.088l.605,2.782Z" transform="translate(-1569.272 -1087.308)" fill="#4fa83d"/><path id="Path_14422" data-name="Path 14422" d="M1602.582,1098.324h1.078v1.064h-1.078Z" transform="translate(-1585.45 -1095.51)" fill="#4fa83d"/></g><g id="Group_4263" data-name="Group 4263" transform="translate(1537.566 1022.884)"><g id="Group_4262" data-name="Group 4262" transform="translate(0 0)"><g id="Group_4261" data-name="Group 4261" transform="translate(0)"><circle id="Ellipse_602" data-name="Ellipse 602" cx="6.292" cy="6.292" r="6.292" transform="translate(0.329 0.311)" fill="#fff"/><g id="Group_4260" data-name="Group 4260"><circle id="Ellipse_603" data-name="Ellipse 603" cx="5.771" cy="5.771" r="5.771" transform="translate(0 11.393) rotate(-80.783)" fill="#4fa83d"/></g></g></g></g><g id="gXkcrn.tif" transform="translate(1541.381 1025.968)"><g id="Group_4264" data-name="Group 4264" transform="translate(0)"><path id="Path_14423" data-name="Path 14423" d="M1618.981,1037.159h0q0-.488,0-.974c0-.142-.033-.177-.165-.18a3.522,3.522,0,0,1-1.691-.443c-.288-.164-.558-.365-.835-.552-.1-.07-.123-.072-.226,0l-.38.272a3.74,3.74,0,0,1-2.154.721c-.121,0-.156.041-.156.173,0,.565,0,1.129,0,1.694a4.068,4.068,0,0,0,.078.852,3.749,3.749,0,0,0,1.269,2.188c.441.369.9.711,1.35,1.065.092.072.124.071.217,0,.388-.3.775-.608,1.164-.909a3.851,3.851,0,0,0,.651-.626,3.931,3.931,0,0,0,.878-2.415C1618.988,1037.737,1618.981,1037.448,1618.981,1037.159Z" transform="translate(-1613.373 -1034.957)" fill="#cae2bc"/><path id="Path_14424" data-name="Path 14424" d="M1618.981,1037.159c0,.289.007.578,0,.867a3.931,3.931,0,0,1-.878,2.415,3.851,3.851,0,0,1-.651.626c-.389.3-.776.606-1.164.909-.093.073-.125.073-.217,0-.451-.354-.909-.7-1.35-1.065a3.749,3.749,0,0,1-1.269-2.187,4.068,4.068,0,0,1-.078-.852c0-.565,0-1.129,0-1.694,0-.133.035-.171.156-.173a3.74,3.74,0,0,0,2.154-.721l.38-.272c.1-.074.123-.072.226,0,.277.187.547.388.835.552a3.522,3.522,0,0,0,1.691.443c.133,0,.165.038.165.18q0,.487,0,.974Z" transform="translate(-1613.373 -1034.957)" fill="#cae2bc"/></g></g></g></svg>