<svg xmlns="http://www.w3.org/2000/svg" width="62" height="62" viewBox="0 0 62 62" fill="none"><g clip-path="url(#clip0_1572_25430)"><path d="M46.5 27.2393V10.819L35.6771 0H0V62H46.5V61.8857C55.2168 60.9169 61.9961 53.537 62 44.5625C61.9961 35.5841 55.2168 28.2022 46.5 27.2393ZM34.8711 4.67519L41.8229 11.625H34.8711V4.67519ZM3.875 58.125V3.87112H31V15.4981H42.625V27.2393C39.2305 27.6152 36.1305 28.9637 33.6117 31H7.75V34.875H30.0642C29.2659 36.0685 28.6246 37.3724 28.1383 38.75H7.75V42.625H27.2393C27.1676 43.2624 27.125 43.9057 27.125 44.5625C27.125 50.0437 29.6593 54.9301 33.6137 58.125H3.875ZM44.5625 57.8983C37.1981 57.8809 31.2402 51.9231 31.2228 44.5625C31.2402 37.1981 37.1981 31.2402 44.5625 31.2228C51.9231 31.2402 57.8809 37.1981 57.8983 44.5625C57.8809 51.9231 51.9231 57.8809 44.5625 57.8983ZM38.75 23.25H7.75V27.125H38.75V23.25Z" fill="#4FA83D"></path><path d="M52.1308 41.6067L42.2113 50.2172C42.1537 50.2672 42.0853 50.3069 42.01 50.334C41.9348 50.3611 41.8541 50.375 41.7726 50.375C41.6911 50.375 41.6105 50.3611 41.5352 50.334C41.4599 50.3069 41.3916 50.2672 41.334 50.2172L36.9942 46.4501C36.8779 46.3491 36.8125 46.2121 36.8125 46.0693C36.8125 45.9265 36.8779 45.7896 36.9942 45.6886C37.1105 45.5876 37.2683 45.5309 37.4328 45.5309C37.5973 45.5309 37.7551 45.5876 37.8714 45.6886L41.7726 49.0756L51.2536 40.8452C51.3699 40.7442 51.5277 40.6875 51.6922 40.6875C51.8567 40.6875 52.0145 40.7442 52.1308 40.8452C52.2471 40.9462 52.3125 41.0831 52.3125 41.226C52.3125 41.3688 52.2471 41.5057 52.1308 41.6067Z" fill="#4FA83D"></path><path d="M11.9504 16.8853C11.9504 16.7623 11.9315 16.6519 11.8937 16.5542C11.859 16.4533 11.7928 16.3618 11.695 16.2798C11.5972 16.1947 11.4601 16.1111 11.2835 16.0291C11.1069 15.9471 10.8783 15.862 10.5976 15.7737C10.2854 15.6728 9.98897 15.5592 9.70831 15.4331C9.43081 15.307 9.18483 15.1603 8.9704 14.9932C8.75911 14.8229 8.59198 14.6258 8.46899 14.4019C8.34916 14.178 8.28925 13.9179 8.28925 13.6214C8.28925 13.3345 8.35232 13.0743 8.47845 12.8409C8.60459 12.6044 8.78119 12.4026 9.00824 12.2355C9.23529 12.0652 9.50334 11.9343 9.81238 11.8429C10.1246 11.7514 10.4667 11.7057 10.8388 11.7057C11.3465 11.7057 11.7896 11.7971 12.168 11.98C12.5464 12.1629 12.8397 12.4136 13.0479 12.7321C13.2591 13.0506 13.3648 13.4149 13.3648 13.8248H11.9552C11.9552 13.623 11.9126 13.4464 11.8275 13.295C11.7455 13.1405 11.6193 13.0191 11.449 12.9308C11.2819 12.8425 11.0706 12.7984 10.8152 12.7984C10.5692 12.7984 10.3642 12.8362 10.2003 12.9119C10.0363 12.9844 9.91329 13.0838 9.8313 13.2099C9.74931 13.3329 9.70831 13.4716 9.70831 13.6262C9.70831 13.7428 9.73669 13.8485 9.79346 13.9431C9.85337 14.0377 9.94167 14.126 10.0583 14.208C10.175 14.29 10.3185 14.3672 10.4888 14.4398C10.6591 14.5123 10.8562 14.5832 11.0801 14.6526C11.4553 14.7661 11.7849 14.8939 12.0687 15.0358C12.3557 15.1777 12.5953 15.3369 12.7877 15.5135C12.9801 15.6901 13.1251 15.8904 13.2229 16.1143C13.3206 16.3382 13.3695 16.592 13.3695 16.8758C13.3695 17.1754 13.3112 17.4435 13.1945 17.68C13.0778 17.9165 12.9091 18.1167 12.6884 18.2807C12.4676 18.4447 12.2043 18.5692 11.8984 18.6544C11.5925 18.7395 11.2504 18.7821 10.8719 18.7821C10.5314 18.7821 10.1955 18.738 9.86441 18.6497C9.53329 18.5582 9.23214 18.421 8.96094 18.2381C8.69289 18.0552 8.47845 17.8219 8.31763 17.5381C8.1568 17.2542 8.07639 16.9184 8.07639 16.5305H9.50018C9.50018 16.745 9.53329 16.9263 9.59952 17.0745C9.66574 17.2227 9.75877 17.3425 9.8786 17.434C10.0016 17.5254 10.1466 17.5917 10.3138 17.6327C10.4841 17.6737 10.6701 17.6942 10.8719 17.6942C11.1179 17.6942 11.3197 17.6595 11.4774 17.5901C11.6382 17.5207 11.7565 17.4245 11.8322 17.3015C11.911 17.1786 11.9504 17.0398 11.9504 16.8853ZM18.762 17.5806V18.6875H15.2947V17.5806H18.762ZM15.7535 11.8003V18.6875H14.3345V11.8003H15.7535ZM22.4705 12.9781L20.5973 18.6875H19.0883L21.6474 11.8003H22.6076L22.4705 12.9781ZM24.0267 18.6875L22.1488 12.9781L21.9974 11.8003H22.9671L25.5404 18.6875H24.0267ZM23.9416 16.1237V17.2353H20.304V16.1237H23.9416Z" fill="#4FA83D"></path></g><defs><clipPath id="clip0_1572_25430"><rect width="62" height="62" fill="white"></rect></clipPath></defs></svg>