<svg xmlns="http://www.w3.org/2000/svg" width="104" height="134" viewBox="0 0 104 134" fill="none"><g clip-path="url(#clip0_1695_15096)"><path d="M9.77344 98.4846L53.0386 120.504L94.6608 98.4846V12.3789H9.77344V98.4846Z" fill="white"></path><path d="M95.5383 12.7031L8.89844 100.014L53.8066 122.252L95.5383 100.89V12.7031Z" fill="#F2F3F2"></path><path d="M6.92188 41.0814V100.348L8.45532 101.114L51.7205 123.134L53.0349 123.791L54.3493 123.134L96.081 101.114L97.6144 100.348V9.53125H6.92188V41.0814ZM9.76971 98.7043V12.3795H94.7666V98.7043L53.0349 120.724L9.76971 98.7043Z" fill="#DCDEDC"></path><path d="M52.2729 13.8037C52.711 13.8037 53.1491 13.8037 53.5873 13.9132L52.2729 16.4328C50.3013 16.3233 48.5488 17.857 48.4393 19.8289C48.3297 21.8008 49.8632 23.5535 51.8348 23.6631H52.2729C53.1492 23.6631 54.0254 23.3344 54.6826 22.7867L56.1065 25.1968C55.0112 25.9636 53.6968 26.4018 52.2729 26.4018C48.7679 26.5114 45.8105 23.8822 45.701 20.3766C45.5914 16.871 48.2202 13.9132 51.7252 13.8037H52.2729ZM56.7637 19.1716L58.4067 21.9103L56.7637 24.5395L55.2303 21.9103H52.0538L53.6968 19.1716H56.7637ZM54.1349 18.1856C54.1349 17.7474 54.2445 17.3092 54.4635 16.9806C54.6826 16.6519 55.1207 16.3233 55.4493 16.1042L55.6684 15.9947C56.1065 15.7756 56.216 15.666 56.216 15.4469C56.216 15.2278 55.8875 15.0087 55.6684 15.0087C55.2303 15.0087 54.9017 15.2278 54.6826 15.666L54.1349 15.1183C54.2445 14.8992 54.4635 14.6801 54.6826 14.461C55.0112 14.2419 55.3398 14.2419 55.6684 14.2419C55.997 14.2419 56.4351 14.3514 56.6542 14.5705C56.8732 14.7896 57.0923 15.1183 57.0923 15.4469C57.0923 15.9947 56.7637 16.4328 56.1065 16.6519L55.7779 16.871C55.4493 17.0901 55.2303 17.1997 55.1207 17.5283H57.0923V18.2952L54.1349 18.1856ZM52.2729 31.8793L62.6784 25.9636V9.53125H41.7578V25.8541L52.2729 31.8793Z" fill="#FF492C"></path><path d="M99.6957 70.6562H4.84096L1.33594 78.3247L4.84096 85.9931H99.6957L103.091 78.3247L99.6957 70.6562Z" fill="#2690CE"></path><path d="M16.3736 63.5374C16.3371 63.5374 16.3079 63.5228 16.286 63.4936C16.2568 63.4717 16.2422 63.4425 16.2422 63.406V56.0004C16.2422 55.9639 16.2568 55.9347 16.286 55.9128C16.3079 55.8836 16.3371 55.869 16.3736 55.869H17.6552C17.6917 55.869 17.7245 55.8836 17.7537 55.9128C17.7756 55.9347 17.7866 55.9639 17.7866 56.0004V63.406C17.7866 63.4425 17.7756 63.4717 17.7537 63.4936C17.7245 63.5228 17.6917 63.5374 17.6552 63.5374H16.3736ZM25.2676 57.819C25.8372 57.819 26.2826 57.9906 26.6039 58.3338C26.9252 58.6771 27.0859 59.1591 27.0859 59.7799V63.406C27.0859 63.4425 27.0713 63.4717 27.0421 63.4936C27.0201 63.5228 26.9909 63.5374 26.9544 63.5374H25.6729C25.6364 63.5374 25.6035 63.5228 25.5743 63.4936C25.5524 63.4717 25.5415 63.4425 25.5415 63.406V60.1195C25.5415 59.8201 25.4648 59.5827 25.3114 59.4074C25.1581 59.2321 24.9536 59.1445 24.6981 59.1445C24.4425 59.1445 24.2344 59.2321 24.0737 59.4074C23.9131 59.5827 23.8328 59.8164 23.8328 60.1085V63.406C23.8328 63.4425 23.8182 63.4717 23.7889 63.4936C23.767 63.5228 23.7378 63.5374 23.7013 63.5374H22.4307C22.3942 63.5374 22.3614 63.5228 22.3322 63.4936C22.3103 63.4717 22.2993 63.4425 22.2993 63.406V60.1195C22.2993 59.8274 22.219 59.59 22.0583 59.4074C21.8977 59.2321 21.6896 59.1445 21.434 59.1445C21.2003 59.1445 21.0032 59.2139 20.8425 59.3526C20.6892 59.4914 20.5979 59.6849 20.5687 59.9333V63.406C20.5687 63.4425 20.5578 63.4717 20.5358 63.4936C20.5066 63.5228 20.4738 63.5374 20.4373 63.5374H19.1557C19.1192 63.5374 19.09 63.5228 19.0681 63.4936C19.0389 63.4717 19.0243 63.4425 19.0243 63.406V58.0381C19.0243 58.0015 19.0389 57.9687 19.0681 57.9395C19.09 57.9175 19.1192 57.9066 19.1557 57.9066H20.4373C20.4738 57.9066 20.5066 57.9175 20.5358 57.9395C20.5578 57.9687 20.5687 58.0015 20.5687 58.0381V58.4653C20.5687 58.4872 20.576 58.5018 20.5906 58.5091C20.6052 58.5164 20.6198 58.5091 20.6344 58.4872C20.9338 58.0417 21.3975 57.819 22.0255 57.819C22.3906 57.819 22.7082 57.8956 22.9784 58.049C23.2559 58.2024 23.4677 58.4215 23.6137 58.7063C23.6356 58.7501 23.6612 58.7501 23.6904 58.7063C23.851 58.4069 24.0664 58.1841 24.3366 58.0381C24.6141 57.892 24.9244 57.819 25.2676 57.819ZM33.1978 59.4184C33.3292 59.7908 33.3949 60.229 33.3949 60.733C33.3949 61.2369 33.3255 61.6933 33.1868 62.1023C33.0189 62.5697 32.756 62.9422 32.3982 63.2197C32.0331 63.49 31.584 63.6251 31.0509 63.6251C30.5252 63.6251 30.1163 63.4425 29.8242 63.0773C29.8096 63.0554 29.795 63.0481 29.7804 63.0554C29.7657 63.0627 29.7584 63.0773 29.7584 63.0992V65.4436C29.7584 65.4801 29.7475 65.5093 29.7256 65.5312C29.6964 65.5604 29.6635 65.575 29.627 65.575H28.3455C28.309 65.575 28.2798 65.5604 28.2579 65.5312C28.2286 65.5093 28.214 65.4801 28.214 65.4436V58.0381C28.214 58.0015 28.2286 57.9687 28.2579 57.9395C28.2798 57.9175 28.309 57.9066 28.3455 57.9066H29.627C29.6635 57.9066 29.6964 57.9175 29.7256 57.9395C29.7475 57.9687 29.7584 58.0015 29.7584 58.0381V58.3996C29.7584 58.4215 29.7657 58.4324 29.7804 58.4324C29.795 58.4397 29.8096 58.4361 29.8242 58.4215C30.1309 58.0198 30.5544 57.819 31.0947 57.819C31.5986 57.819 32.0367 57.9614 32.4091 58.2462C32.7742 58.5237 33.0371 58.9144 33.1978 59.4184ZM31.5219 61.8723C31.7045 61.5874 31.7957 61.2004 31.7957 60.7111C31.7957 60.2509 31.7191 59.8858 31.5657 59.6156C31.3978 59.3015 31.1276 59.1445 30.7552 59.1445C30.4193 59.1445 30.1674 59.3015 29.9994 59.6156C29.8461 59.8785 29.7694 60.2473 29.7694 60.722C29.7694 61.2113 29.8497 61.5911 30.0104 61.8613C30.1783 62.1535 30.4266 62.2995 30.7552 62.2995C31.0838 62.2995 31.3394 62.1571 31.5219 61.8723ZM34.5231 63.5374C34.4866 63.5374 34.4537 63.5228 34.4245 63.4936C34.4026 63.4717 34.3917 63.4425 34.3917 63.406V56.0004C34.3917 55.9639 34.4026 55.9347 34.4245 55.9128C34.4537 55.8836 34.4866 55.869 34.5231 55.869H35.8046C35.8411 55.869 35.8703 55.8836 35.8922 55.9128C35.9215 55.9347 35.9361 55.9639 35.9361 56.0004V63.406C35.9361 63.4425 35.9215 63.4717 35.8922 63.4936C35.8703 63.5228 35.8411 63.5374 35.8046 63.5374H34.5231ZM42.0479 60.1414C42.0918 60.4189 42.1064 60.7293 42.0918 61.0726C42.0845 61.1602 42.037 61.204 41.9494 61.204H38.5648C38.521 61.204 38.5064 61.2223 38.521 61.2588C38.5429 61.4049 38.5831 61.5509 38.6415 61.697C38.8314 62.106 39.2184 62.3105 39.8025 62.3105C40.2699 62.3032 40.6386 62.1133 40.9088 61.7408C40.938 61.697 40.9709 61.6751 41.0074 61.6751C41.0293 61.6751 41.0549 61.6897 41.0841 61.7189L41.8727 62.4967C41.9092 62.5332 41.9275 62.5661 41.9275 62.5953C41.9275 62.6099 41.9129 62.6391 41.8836 62.6829C41.6427 62.9824 41.3323 63.2161 40.9526 63.3841C40.5729 63.5447 40.1567 63.6251 39.704 63.6251C39.076 63.6251 38.5466 63.4826 38.1157 63.1978C37.6776 62.913 37.3636 62.515 37.1738 62.0037C37.0204 61.6386 36.9438 61.1602 36.9438 60.5686C36.9438 60.167 36.9985 59.8127 37.108 59.506C37.276 58.9875 37.5681 58.5748 37.9843 58.2681C38.4078 57.9614 38.908 57.808 39.4849 57.808C40.2151 57.808 40.8029 58.0198 41.2484 58.4434C41.6865 58.867 41.953 59.433 42.0479 60.1414ZM39.4958 59.1445C39.0358 59.1445 38.7328 59.3599 38.5867 59.7908C38.5575 59.8858 38.532 60.0026 38.5101 60.1414C38.5101 60.1779 38.5283 60.1962 38.5648 60.1962H40.4597C40.5035 60.1962 40.5182 60.1779 40.5035 60.1414C40.467 59.9296 40.4488 59.8274 40.4488 59.8347C40.3831 59.6156 40.2699 59.4439 40.1092 59.3198C39.9413 59.2029 39.7368 59.1445 39.4958 59.1445ZM49.288 57.819C49.8576 57.819 50.303 57.9906 50.6243 58.3338C50.9456 58.6771 51.1063 59.1591 51.1063 59.7799V63.406C51.1063 63.4425 51.0953 63.4717 51.0734 63.4936C51.0442 63.5228 51.0113 63.5374 50.9748 63.5374H49.6933C49.6568 63.5374 49.6276 63.5228 49.6057 63.4936C49.5765 63.4717 49.5618 63.4425 49.5618 63.406V60.1195C49.5618 59.8201 49.4852 59.5827 49.3318 59.4074C49.1785 59.2321 48.974 59.1445 48.7185 59.1445C48.4629 59.1445 48.2548 59.2321 48.0941 59.4074C47.9335 59.5827 47.8531 59.8164 47.8531 60.1085V63.406C47.8531 63.4425 47.8422 63.4717 47.8203 63.4936C47.7911 63.5228 47.7582 63.5374 47.7217 63.5374H46.4511C46.4146 63.5374 46.3854 63.5228 46.3635 63.4936C46.3343 63.4717 46.3197 63.4425 46.3197 63.406V60.1195C46.3197 59.8274 46.2394 59.59 46.0787 59.4074C45.9181 59.2321 45.71 59.1445 45.4544 59.1445C45.2207 59.1445 45.0272 59.2139 44.8739 59.3526C44.7132 59.4914 44.6183 59.6849 44.5891 59.9333V63.406C44.5891 63.4425 44.5781 63.4717 44.5562 63.4936C44.527 63.5228 44.4942 63.5374 44.4576 63.5374H43.1761C43.1396 63.5374 43.1104 63.5228 43.0885 63.4936C43.0593 63.4717 43.0447 63.4425 43.0447 63.406V58.0381C43.0447 58.0015 43.0593 57.9687 43.0885 57.9395C43.1104 57.9175 43.1396 57.9066 43.1761 57.9066H44.4576C44.4942 57.9066 44.527 57.9175 44.5562 57.9395C44.5781 57.9687 44.5891 58.0015 44.5891 58.0381V58.4653C44.5891 58.4872 44.5964 58.5018 44.611 58.5091C44.6256 58.5164 44.6402 58.5091 44.6548 58.4872C44.9542 58.0417 45.4179 57.819 46.0459 57.819C46.411 57.819 46.7323 57.8956 47.0098 58.049C47.2799 58.2024 47.488 58.4215 47.6341 58.7063C47.656 58.7501 47.6815 58.7501 47.7108 58.7063C47.8714 58.4069 48.0905 58.1841 48.368 58.0381C48.6381 57.892 48.9448 57.819 49.288 57.819ZM57.1415 60.1414C57.1853 60.4189 57.1999 60.7293 57.1853 61.0726C57.178 61.1602 57.1305 61.204 57.0429 61.204H53.6583C53.6145 61.204 53.5999 61.2223 53.6145 61.2588C53.6364 61.4049 53.6766 61.5509 53.735 61.697C53.9249 62.106 54.3119 62.3105 54.8961 62.3105C55.3634 62.3032 55.7322 62.1133 56.0023 61.7408C56.0315 61.697 56.0644 61.6751 56.1009 61.6751C56.1228 61.6751 56.1484 61.6897 56.1776 61.7189L56.9662 62.4967C57.0027 62.5332 57.021 62.5661 57.021 62.5953C57.021 62.6099 57.0064 62.6391 56.9772 62.6829C56.7362 62.9824 56.4259 63.2161 56.0461 63.3841C55.6664 63.5447 55.2502 63.6251 54.7975 63.6251C54.1695 63.6251 53.6401 63.4826 53.2093 63.1978C52.7711 62.913 52.4571 62.515 52.2673 62.0037C52.1139 61.6386 52.0373 61.1602 52.0373 60.5686C52.0373 60.167 52.092 59.8127 52.2016 59.506C52.3695 58.9875 52.6653 58.5748 53.0888 58.2681C53.505 57.9614 54.0015 57.808 54.5784 57.808C55.3086 57.808 55.8965 58.0198 56.3419 58.4434C56.78 58.867 57.0465 59.433 57.1415 60.1414ZM54.5894 59.1445C54.1293 59.1445 53.8263 59.3599 53.6803 59.7908C53.651 59.8858 53.6255 60.0026 53.6036 60.1414C53.6036 60.1779 53.6218 60.1962 53.6583 60.1962H55.5532C55.5971 60.1962 55.6117 60.1779 55.5971 60.1414C55.5606 59.9296 55.5423 59.8274 55.5423 59.8347C55.4766 59.6156 55.3634 59.4439 55.2027 59.3198C55.0348 59.2029 54.8303 59.1445 54.5894 59.1445ZM61.0737 57.819C61.6578 57.819 62.1288 57.9979 62.4866 58.3557C62.8444 58.7136 63.0233 59.1993 63.0233 59.8127V63.406C63.0233 63.4425 63.0124 63.4717 62.9905 63.4936C62.9613 63.5228 62.9284 63.5374 62.8919 63.5374H61.6104C61.5739 63.5374 61.5447 63.5228 61.5228 63.4936C61.4935 63.4717 61.4789 63.4425 61.4789 63.406V60.1304C61.4789 59.8383 61.3986 59.601 61.238 59.4184C61.07 59.2358 60.851 59.1445 60.5808 59.1445C60.3106 59.1445 60.0952 59.2358 59.9345 59.4184C59.7666 59.601 59.6826 59.8383 59.6826 60.1304V63.406C59.6826 63.4425 59.6717 63.4717 59.6498 63.4936C59.6205 63.5228 59.5877 63.5374 59.5512 63.5374H58.2696C58.2331 63.5374 58.2039 63.5228 58.182 63.4936C58.1528 63.4717 58.1382 63.4425 58.1382 63.406V58.0381C58.1382 58.0015 58.1528 57.9687 58.182 57.9395C58.2039 57.9175 58.2331 57.9066 58.2696 57.9066H59.5512C59.5877 57.9066 59.6205 57.9175 59.6498 57.9395C59.6717 57.9687 59.6826 58.0015 59.6826 58.0381V58.4215C59.6826 58.4434 59.6899 58.458 59.7045 58.4653C59.7191 58.4726 59.7301 58.4689 59.7374 58.4543C60.0368 58.0308 60.4822 57.819 61.0737 57.819ZM67.3608 59.013C67.3608 59.0496 67.3499 59.0824 67.3279 59.1116C67.2987 59.1335 67.2659 59.1445 67.2294 59.1445H66.1779C66.1414 59.1445 66.1231 59.1628 66.1231 59.1993V61.5217C66.1231 61.7627 66.1742 61.9417 66.2764 62.0585C66.3714 62.1754 66.5284 62.2338 66.7474 62.2338H67.1089C67.1454 62.2338 67.1783 62.2447 67.2075 62.2667C67.2294 62.2959 67.2403 62.3287 67.2403 62.3652V63.406C67.2403 63.4863 67.1965 63.5338 67.1089 63.5484C66.8022 63.563 66.5831 63.5703 66.4517 63.5703C65.8456 63.5703 65.3929 63.4717 65.0935 63.2745C64.7941 63.07 64.6408 62.6902 64.6335 62.1352V59.1993C64.6335 59.1628 64.6152 59.1445 64.5787 59.1445H63.9544C63.9179 59.1445 63.8886 59.1335 63.8667 59.1116C63.8375 59.0824 63.8229 59.0496 63.8229 59.013V58.0381C63.8229 58.0015 63.8375 57.9687 63.8667 57.9395C63.8886 57.9175 63.9179 57.9066 63.9544 57.9066H64.5787C64.6152 57.9066 64.6335 57.8883 64.6335 57.8518V56.5482C64.6335 56.5117 64.6481 56.4825 64.6773 56.4605C64.6992 56.4313 64.7284 56.4167 64.7649 56.4167H65.9917C66.0282 56.4167 66.061 56.4313 66.0902 56.4605C66.1121 56.4825 66.1231 56.5117 66.1231 56.5482V57.8518C66.1231 57.8883 66.1414 57.9066 66.1779 57.9066H67.2294C67.2659 57.9066 67.2987 57.9175 67.3279 57.9395C67.3499 57.9687 67.3608 58.0015 67.3608 58.0381V59.013ZM70.5372 57.819C71.0119 57.819 71.4354 57.8993 71.8078 58.06C72.1802 58.2279 72.4687 58.4543 72.6731 58.7392C72.8849 59.024 72.9908 59.3417 72.9908 59.6922V63.406C72.9908 63.4425 72.9762 63.4717 72.9469 63.4936C72.925 63.5228 72.8958 63.5374 72.8593 63.5374H71.5778C71.5413 63.5374 71.5121 63.5228 71.4902 63.4936C71.461 63.4717 71.4464 63.4425 71.4464 63.406V63.0445C71.4464 63.0225 71.4391 63.0079 71.4244 63.0006C71.4098 62.9933 71.3952 63.0006 71.3806 63.0225C71.0739 63.4242 70.5811 63.6251 69.902 63.6251C69.3324 63.6251 68.8724 63.4863 68.5219 63.2088C68.1713 62.9313 67.9961 62.5223 67.9961 61.9818C67.9961 61.4195 68.1933 60.9813 68.5876 60.6672C68.9819 60.3605 69.5442 60.2071 70.2744 60.2071H71.3916C71.4281 60.2071 71.4464 60.1889 71.4464 60.1524V59.9113C71.4464 59.6703 71.3733 59.4804 71.2273 59.3417C71.0812 59.2102 70.8622 59.1445 70.5701 59.1445C70.3437 59.1445 70.1575 59.1847 70.0115 59.265C69.8581 59.3453 69.7596 59.4585 69.7157 59.6046C69.6938 59.6849 69.6464 59.7215 69.5734 59.7142L68.248 59.5389C68.1604 59.5243 68.1202 59.4914 68.1275 59.4403C68.1567 59.1335 68.2772 58.856 68.489 58.6077C68.7081 58.3594 68.9928 58.1659 69.3433 58.0271C69.7011 57.8883 70.0991 57.819 70.5372 57.819ZM70.3182 62.4748C70.6322 62.4748 70.8987 62.3908 71.1178 62.2228C71.3368 62.0549 71.4464 61.8394 71.4464 61.5765V61.1821C71.4464 61.1456 71.4281 61.1273 71.3916 61.1273H70.603C70.2744 61.1273 70.0151 61.1894 69.8253 61.3136C69.6427 61.4377 69.5515 61.613 69.5515 61.8394C69.5515 62.0366 69.6208 62.19 69.7596 62.2995C69.8983 62.4164 70.0845 62.4748 70.3182 62.4748ZM77.1858 59.013C77.1858 59.0496 77.1749 59.0824 77.153 59.1116C77.1238 59.1335 77.0909 59.1445 77.0544 59.1445H76.0029C75.9664 59.1445 75.9481 59.1628 75.9481 59.1993V61.5217C75.9481 61.7627 75.9992 61.9417 76.1015 62.0585C76.1964 62.1754 76.3534 62.2338 76.5725 62.2338H76.9339C76.9704 62.2338 77.0033 62.2447 77.0325 62.2667C77.0544 62.2959 77.0654 62.3287 77.0654 62.3652V63.406C77.0654 63.4863 77.0215 63.5338 76.9339 63.5484C76.6272 63.563 76.4082 63.5703 76.2767 63.5703C75.6706 63.5703 75.2179 63.4717 74.9185 63.2745C74.6191 63.07 74.4658 62.6902 74.4585 62.1352V59.1993C74.4585 59.1628 74.4402 59.1445 74.4037 59.1445H73.7794C73.7429 59.1445 73.71 59.1335 73.6808 59.1116C73.6589 59.0824 73.648 59.0496 73.648 59.013V58.0381C73.648 58.0015 73.6589 57.9687 73.6808 57.9395C73.71 57.9175 73.7429 57.9066 73.7794 57.9066H74.4037C74.4402 57.9066 74.4585 57.8883 74.4585 57.8518V56.5482C74.4585 56.5117 74.4731 56.4825 74.5023 56.4605C74.5242 56.4313 74.5534 56.4167 74.5899 56.4167H75.8167C75.8532 56.4167 75.8861 56.4313 75.9153 56.4605C75.9372 56.4825 75.9481 56.5117 75.9481 56.5482V57.8518C75.9481 57.8883 75.9664 57.9066 76.0029 57.9066H77.0544C77.0909 57.9066 77.1238 57.9175 77.153 57.9395C77.1749 57.9687 77.1858 58.0015 77.1858 58.0381V59.013ZM78.9493 57.2712C78.701 57.2712 78.4966 57.1872 78.3359 57.0192C78.168 56.8586 78.084 56.6541 78.084 56.4058C78.084 56.1502 78.1643 55.942 78.325 55.7813C78.4856 55.6207 78.6937 55.5403 78.9493 55.5403C79.2049 55.5403 79.413 55.6207 79.5736 55.7813C79.7343 55.942 79.8146 56.1502 79.8146 56.4058C79.8146 56.6541 79.7306 56.8586 79.5627 57.0192C79.402 57.1872 79.1976 57.2712 78.9493 57.2712ZM78.2921 63.5374C78.2556 63.5374 78.2227 63.5228 78.1935 63.4936C78.1716 63.4717 78.1607 63.4425 78.1607 63.406V58.0271C78.1607 57.9906 78.1716 57.9577 78.1935 57.9285C78.2227 57.9066 78.2556 57.8956 78.2921 57.8956H79.5736C79.6102 57.8956 79.643 57.9066 79.6722 57.9285C79.6941 57.9577 79.7051 57.9906 79.7051 58.0271V63.406C79.7051 63.4425 79.6941 63.4717 79.6722 63.4936C79.643 63.5228 79.6102 63.5374 79.5736 63.5374H78.2921ZM83.3963 63.6251C82.7829 63.6251 82.2572 63.4644 81.819 63.143C81.3809 62.8217 81.0815 62.3835 80.9209 61.8285C80.8186 61.4852 80.7675 61.1127 80.7675 60.7111C80.7675 60.2802 80.8186 59.8931 80.9209 59.5498C81.0888 59.0094 81.3919 58.5858 81.83 58.2791C82.2681 57.9723 82.7939 57.819 83.4073 57.819C84.006 57.819 84.5172 57.9723 84.9407 58.2791C85.3642 58.5785 85.6636 58.9984 85.8389 59.5389C85.9557 59.904 86.0141 60.2875 86.0141 60.6891C86.0141 61.0835 85.963 61.4523 85.8608 61.7956C85.7001 62.3652 85.4007 62.8144 84.9626 63.143C84.5318 63.4644 84.0097 63.6251 83.3963 63.6251ZM83.3963 62.2995C83.6373 62.2995 83.8417 62.2265 84.0097 62.0804C84.1776 61.9344 84.2981 61.7335 84.3711 61.4779C84.4296 61.2442 84.4588 60.9886 84.4588 60.7111C84.4588 60.4043 84.4296 60.145 84.3711 59.9333C84.2908 59.6849 84.1667 59.4914 83.9987 59.3526C83.8308 59.2139 83.6263 59.1445 83.3854 59.1445C83.1371 59.1445 82.929 59.2139 82.761 59.3526C82.6004 59.4914 82.4835 59.6849 82.4105 59.9333C82.3521 60.1085 82.3229 60.3678 82.3229 60.7111C82.3229 61.0397 82.3484 61.2953 82.3996 61.4779C82.4726 61.7335 82.5931 61.9344 82.761 62.0804C82.9363 62.2265 83.148 62.2995 83.3963 62.2995ZM89.9463 57.819C90.5305 57.819 91.0015 57.9979 91.3593 58.3557C91.7171 58.7136 91.896 59.1993 91.896 59.8127V63.406C91.896 63.4425 91.8814 63.4717 91.8522 63.4936C91.8303 63.5228 91.8011 63.5374 91.7646 63.5374H90.483C90.4465 63.5374 90.4137 63.5228 90.3845 63.4936C90.3625 63.4717 90.3516 63.4425 90.3516 63.406V60.1304C90.3516 59.8383 90.2676 59.601 90.0997 59.4184C89.939 59.2358 89.7236 59.1445 89.4534 59.1445C89.1833 59.1445 88.9642 59.2358 88.7962 59.4184C88.6356 59.601 88.5553 59.8383 88.5553 60.1304V63.406C88.5553 63.4425 88.5407 63.4717 88.5115 63.4936C88.4895 63.5228 88.4603 63.5374 88.4238 63.5374H87.1423C87.1058 63.5374 87.0729 63.5228 87.0437 63.4936C87.0218 63.4717 87.0109 63.4425 87.0109 63.406V58.0381C87.0109 58.0015 87.0218 57.9687 87.0437 57.9395C87.0729 57.9175 87.1058 57.9066 87.1423 57.9066H88.4238C88.4603 57.9066 88.4895 57.9175 88.5115 57.9395C88.5407 57.9687 88.5553 58.0015 88.5553 58.0381V58.4215C88.5553 58.4434 88.5626 58.458 88.5772 58.4653C88.5918 58.4726 88.6027 58.4689 88.61 58.4543C88.9094 58.0308 89.3548 57.819 89.9463 57.819ZM41.6427 46.1081C41.6427 46.1447 41.6281 46.1739 41.5989 46.1958C41.577 46.225 41.5477 46.2396 41.5112 46.2396H37.9295C37.893 46.2396 37.8748 46.2579 37.8748 46.2944V47.9924C37.8748 48.0289 37.893 48.0472 37.9295 48.0472H40.2845C40.321 48.0472 40.3502 48.0581 40.3721 48.08C40.4013 48.1092 40.4159 48.1421 40.4159 48.1786V49.2413C40.4159 49.2778 40.4013 49.3106 40.3721 49.3399C40.3502 49.3618 40.321 49.3727 40.2845 49.3727H37.9295C37.893 49.3727 37.8748 49.391 37.8748 49.4275V52.451C37.8748 52.4876 37.8638 52.5168 37.8419 52.5387C37.8127 52.5679 37.7798 52.5825 37.7433 52.5825H36.4618C36.4253 52.5825 36.3961 52.5679 36.3742 52.5387C36.345 52.5168 36.3304 52.4876 36.3304 52.451V45.0455C36.3304 45.009 36.345 44.9798 36.3742 44.9579C36.3961 44.9287 36.4253 44.9141 36.4618 44.9141H41.5112C41.5477 44.9141 41.577 44.9287 41.5989 44.9579C41.6281 44.9798 41.6427 45.009 41.6427 45.0455V46.1081ZM44.0743 46.864C44.5489 46.864 44.9725 46.9444 45.3449 47.105C45.7173 47.273 46.0094 47.4994 46.2211 47.7842C46.4256 48.0691 46.5278 48.3868 46.5278 48.7373V52.451C46.5278 52.4876 46.5169 52.5168 46.4949 52.5387C46.4657 52.5679 46.4329 52.5825 46.3964 52.5825H45.1148C45.0783 52.5825 45.0455 52.5679 45.0163 52.5387C44.9944 52.5168 44.9834 52.4876 44.9834 52.451V52.0895C44.9834 52.0676 44.9761 52.053 44.9615 52.0457C44.9469 52.0384 44.9323 52.0457 44.9177 52.0676C44.611 52.4693 44.1181 52.6701 43.439 52.6701C42.8694 52.6701 42.4094 52.5314 42.0589 52.2539C41.7084 51.9763 41.5331 51.5674 41.5331 51.0269C41.5331 50.4646 41.7303 50.0264 42.1246 49.7123C42.5189 49.4056 43.0812 49.2522 43.8114 49.2522H44.9286C44.9651 49.2522 44.9834 49.234 44.9834 49.1974V48.9564C44.9834 48.7154 44.9104 48.5255 44.7643 48.3868C44.6183 48.2553 44.3992 48.1896 44.1071 48.1896C43.8808 48.1896 43.6946 48.2297 43.5485 48.3101C43.3952 48.3904 43.2966 48.5036 43.2528 48.6497C43.2309 48.73 43.1834 48.7665 43.1104 48.7592L41.7851 48.584C41.6974 48.5694 41.6573 48.5365 41.6646 48.4854C41.6938 48.1786 41.8179 47.9011 42.037 47.6528C42.2488 47.4045 42.5335 47.2109 42.8913 47.0722C43.2418 46.9334 43.6362 46.864 44.0743 46.864ZM43.8552 51.5199C44.1692 51.5199 44.4357 51.4359 44.6548 51.2679C44.8739 51.0999 44.9834 50.8845 44.9834 50.6216V50.2272C44.9834 50.1907 44.9651 50.1724 44.9286 50.1724H44.14C43.8114 50.1724 43.5558 50.2345 43.3733 50.3587C43.1834 50.4828 43.0885 50.6581 43.0885 50.8845C43.0885 51.0817 43.1579 51.235 43.2966 51.3446C43.4354 51.4615 43.6216 51.5199 43.8552 51.5199ZM49.8576 52.6592C49.3683 52.6592 48.9412 52.5898 48.5761 52.451C48.211 52.3123 47.9298 52.1187 47.7327 51.8704C47.5282 51.6221 47.426 51.3409 47.426 51.0269V50.9174C47.426 50.8808 47.4406 50.8516 47.4698 50.8297C47.4917 50.8005 47.5209 50.7859 47.5574 50.7859H48.7732C48.8097 50.7859 48.8389 50.8005 48.8608 50.8297C48.89 50.8516 48.9047 50.8808 48.9047 50.9174V50.9283C48.9047 51.089 48.9959 51.2241 49.1785 51.3336C49.3537 51.4505 49.5765 51.5089 49.8466 51.5089C50.0949 51.5089 50.2957 51.4615 50.4491 51.3665C50.6024 51.2643 50.6791 51.1401 50.6791 50.994C50.6791 50.8626 50.6134 50.764 50.4819 50.6983C50.3505 50.6325 50.1351 50.5631 49.8357 50.4901C49.4925 50.4025 49.2223 50.3185 49.0251 50.2382C48.5578 50.0775 48.1854 49.8803 47.9079 49.6466C47.6304 49.4129 47.4917 49.0769 47.4917 48.6387C47.4917 48.0983 47.7035 47.6674 48.127 47.3461C48.5432 47.032 49.0982 46.875 49.7919 46.875C50.2592 46.875 50.6681 46.9517 51.0186 47.105C51.3691 47.2511 51.643 47.4593 51.8401 47.7295C52.03 47.9997 52.1249 48.3064 52.1249 48.6497C52.1249 48.6862 52.1139 48.7191 52.092 48.7483C52.0628 48.7702 52.03 48.7811 51.9935 48.7811H50.8215C50.785 48.7811 50.7557 48.7702 50.7338 48.7483C50.7046 48.7191 50.69 48.6862 50.69 48.6497C50.69 48.489 50.6097 48.3539 50.4491 48.2444C50.2811 48.1348 50.062 48.08 49.7919 48.08C49.5509 48.08 49.3537 48.1239 49.2004 48.2115C49.047 48.2991 48.9704 48.4196 48.9704 48.573C48.9704 48.7191 49.047 48.8286 49.2004 48.9017C49.3464 48.9747 49.5947 49.0514 49.9452 49.1317L50.219 49.2084C50.3213 49.2303 50.4308 49.2595 50.5476 49.296C51.0661 49.4494 51.475 49.6466 51.7744 49.8876C52.0738 50.1286 52.2235 50.4792 52.2235 50.9393C52.2235 51.4797 52.0117 51.8997 51.5882 52.1991C51.1574 52.5058 50.5805 52.6592 49.8576 52.6592ZM56.3309 48.0581C56.3309 48.0946 56.32 48.1275 56.2981 48.1567C56.2689 48.1786 56.236 48.1896 56.1995 48.1896H55.148C55.1115 48.1896 55.0932 48.2078 55.0932 48.2444V50.5668C55.0932 50.8078 55.1443 50.9867 55.2466 51.1036C55.3415 51.2204 55.4985 51.2789 55.7176 51.2789H56.079C56.1155 51.2789 56.1484 51.2898 56.1776 51.3117C56.1995 51.3409 56.2104 51.3738 56.2104 51.4103V52.451C56.2104 52.5314 56.1666 52.5789 56.079 52.5935C55.7723 52.6081 55.5533 52.6154 55.4218 52.6154C54.8157 52.6154 54.363 52.5168 54.0636 52.3196C53.7642 52.1151 53.6109 51.7353 53.6036 51.1803V48.2444C53.6036 48.2078 53.5853 48.1896 53.5488 48.1896H52.9245C52.888 48.1896 52.8588 48.1786 52.8369 48.1567C52.8076 48.1275 52.793 48.0946 52.793 48.0581V47.0831C52.793 47.0466 52.8076 47.0138 52.8369 46.9845C52.8588 46.9626 52.888 46.9517 52.9245 46.9517H53.5488C53.5853 46.9517 53.6036 46.9334 53.6036 46.8969V45.5933C53.6036 45.5567 53.6145 45.5275 53.6364 45.5056C53.6656 45.4764 53.6985 45.4618 53.735 45.4618H54.9618C54.9983 45.4618 55.0311 45.4764 55.0604 45.5056C55.0823 45.5275 55.0932 45.5567 55.0932 45.5933V46.8969C55.0932 46.9334 55.1115 46.9517 55.148 46.9517H56.1995C56.236 46.9517 56.2689 46.9626 56.2981 46.9845C56.32 47.0138 56.3309 47.0466 56.3309 47.0831V48.0581ZM62.169 49.1865C62.2128 49.464 62.2274 49.7744 62.2128 50.1176C62.2055 50.2053 62.158 50.2491 62.0704 50.2491H58.6859C58.6421 50.2491 58.6275 50.2674 58.6421 50.3039C58.664 50.4499 58.7041 50.596 58.7625 50.7421C58.9524 51.1511 59.3394 51.3556 59.9236 51.3556C60.3909 51.3483 60.7597 51.1584 61.0299 50.7859C61.0591 50.7421 61.0919 50.7202 61.1284 50.7202C61.1503 50.7202 61.1759 50.7348 61.2051 50.764L61.9937 51.5418C62.0303 51.5783 62.0485 51.6112 62.0485 51.6404C62.0485 51.655 62.0339 51.6842 62.0047 51.728C61.7637 52.0275 61.4534 52.2612 61.0737 52.4291C60.694 52.5898 60.2777 52.6701 59.825 52.6701C59.197 52.6701 58.6676 52.5277 58.2368 52.2429C57.7987 51.9581 57.4847 51.56 57.2948 51.0488C57.1415 50.6837 57.0648 50.2053 57.0648 49.6137C57.0648 49.212 57.1196 48.8578 57.2291 48.5511C57.397 48.0326 57.6891 47.6199 58.1054 47.3132C58.5289 47.0065 59.0291 46.8531 59.6059 46.8531C60.3362 46.8531 60.9203 47.0649 61.3585 47.4885C61.8039 47.9121 62.0741 48.4781 62.169 49.1865ZM59.6169 48.1896C59.1569 48.1896 58.8538 48.405 58.7078 48.8359C58.6786 48.9309 58.653 49.0477 58.6311 49.1865C58.6311 49.223 58.6494 49.2413 58.6859 49.2413H60.5808C60.6246 49.2413 60.6392 49.223 60.6246 49.1865C60.5881 48.9747 60.5698 48.8724 60.5698 48.8797C60.5041 48.6606 60.3873 48.489 60.2193 48.3649C60.0587 48.248 59.8579 48.1896 59.6169 48.1896ZM65.3345 52.6592C64.8452 52.6592 64.418 52.5898 64.0529 52.451C63.6878 52.3123 63.403 52.1187 63.1986 51.8704C63.0014 51.6221 62.9029 51.3409 62.9029 51.0269V50.9174C62.9029 50.8808 62.9175 50.8516 62.9467 50.8297C62.9686 50.8005 62.9978 50.7859 63.0343 50.7859H64.2501C64.2866 50.7859 64.3158 50.8005 64.3377 50.8297C64.3669 50.8516 64.3815 50.8808 64.3815 50.9174V50.9283C64.3815 51.089 64.4692 51.2241 64.6444 51.3336C64.827 51.4505 65.0533 51.5089 65.3235 51.5089C65.5718 51.5089 65.7726 51.4615 65.9259 51.3665C66.0793 51.2643 66.156 51.1401 66.156 50.994C66.156 50.8626 66.0902 50.764 65.9588 50.6983C65.8274 50.6325 65.6119 50.5631 65.3126 50.4901C64.9694 50.4025 64.6992 50.3185 64.502 50.2382C64.0347 50.0775 63.6623 49.8803 63.3848 49.6466C63.1073 49.4129 62.9686 49.0769 62.9686 48.6387C62.9686 48.0983 63.1767 47.6674 63.5929 47.3461C64.0164 47.032 64.575 46.875 65.2687 46.875C65.7361 46.875 66.145 46.9517 66.4955 47.105C66.846 47.2511 67.1162 47.4593 67.306 47.7295C67.5032 47.9997 67.6018 48.3064 67.6018 48.6497C67.6018 48.6862 67.5908 48.7191 67.5689 48.7483C67.5397 48.7702 67.5069 48.7811 67.4703 48.7811H66.2984C66.2618 48.7811 66.229 48.7702 66.1998 48.7483C66.1779 48.7191 66.1669 48.6862 66.1669 48.6497C66.1669 48.489 66.0866 48.3539 65.9259 48.2444C65.758 48.1348 65.5389 48.08 65.2687 48.08C65.0278 48.08 64.8306 48.1239 64.6773 48.2115C64.5239 48.2991 64.4473 48.4196 64.4473 48.573C64.4473 48.7191 64.5203 48.8286 64.6663 48.9017C64.8197 48.9747 65.0716 49.0514 65.4221 49.1317L65.6959 49.2084C65.7982 49.2303 65.9077 49.2595 66.0245 49.296C66.543 49.4494 66.9519 49.6466 67.2513 49.8876C67.5507 50.1286 67.7004 50.4792 67.7004 50.9393C67.7004 51.4797 67.4849 51.8997 67.0541 52.1991C66.6306 52.5058 66.0574 52.6592 65.3345 52.6592ZM71.8078 48.0581C71.8078 48.0946 71.7932 48.1275 71.764 48.1567C71.7421 48.1786 71.7129 48.1896 71.6764 48.1896H70.6249C70.5884 48.1896 70.5701 48.2078 70.5701 48.2444V50.5668C70.5701 50.8078 70.6176 50.9867 70.7125 51.1036C70.8147 51.2204 70.9754 51.2789 71.1944 51.2789H71.5559C71.5924 51.2789 71.6216 51.2898 71.6435 51.3117C71.6727 51.3409 71.6873 51.3738 71.6873 51.4103V52.451C71.6873 52.5314 71.6435 52.5789 71.5559 52.5935C71.2492 52.6081 71.0301 52.6154 70.8987 52.6154C70.2926 52.6154 69.8399 52.5168 69.5405 52.3196C69.2411 52.1151 69.0878 51.7353 69.0805 51.1803V48.2444C69.0805 48.2078 69.0622 48.1896 69.0257 48.1896H68.4014C68.3649 48.1896 68.332 48.1786 68.3028 48.1567C68.2809 48.1275 68.2699 48.0946 68.2699 48.0581V47.0831C68.2699 47.0466 68.2809 47.0138 68.3028 46.9845C68.332 46.9626 68.3649 46.9517 68.4014 46.9517H69.0257C69.0622 46.9517 69.0805 46.9334 69.0805 46.8969V45.5933C69.0805 45.5567 69.0914 45.5275 69.1133 45.5056C69.1425 45.4764 69.1754 45.4618 69.2119 45.4618H70.4387C70.4752 45.4618 70.5044 45.4764 70.5263 45.5056C70.5555 45.5275 70.5701 45.5567 70.5701 45.5933V46.8969C70.5701 46.9334 70.5884 46.9517 70.6249 46.9517H71.6764C71.7129 46.9517 71.7421 46.9626 71.764 46.9845C71.7932 47.0138 71.8078 47.0466 71.8078 47.0831V48.0581Z" fill="#252530"></path><path d="M19.4087 82.6877C18.8392 82.6877 18.3426 82.5964 17.9191 82.4139C17.4956 82.2313 17.167 81.9757 16.9333 81.647C16.7069 81.3184 16.5938 80.9313 16.5938 80.4858V80.2119C16.5938 80.1754 16.6084 80.1425 16.6376 80.1133C16.6595 80.0914 16.6887 80.0805 16.7252 80.0805H17.7C17.7365 80.0805 17.7694 80.0914 17.7986 80.1133C17.8205 80.1425 17.8315 80.1754 17.8315 80.2119V80.4201C17.8315 80.756 17.9812 81.0335 18.2805 81.2526C18.5799 81.479 18.9889 81.5922 19.5073 81.5922C19.9527 81.5922 20.2886 81.4973 20.515 81.3074C20.7414 81.1175 20.8545 80.8729 20.8545 80.5734C20.8545 80.3689 20.7925 80.1937 20.6683 80.0476C20.5442 79.9088 20.369 79.781 20.1426 79.6642C19.9089 79.5473 19.5621 79.4013 19.102 79.226C18.5836 79.0361 18.1637 78.8572 17.8424 78.6892C17.5211 78.5212 17.2546 78.2912 17.0428 77.999C16.8238 77.7142 16.7142 77.3563 16.7142 76.9254C16.7142 76.2828 16.9479 75.7752 17.4152 75.4027C17.8826 75.0302 18.5069 74.844 19.2882 74.844C19.8359 74.844 20.3215 74.939 20.745 75.1288C21.1612 75.3187 21.4862 75.5853 21.7199 75.9285C21.9535 76.2645 22.0704 76.6552 22.0704 77.1007V77.287C22.0704 77.3235 22.0558 77.3563 22.0265 77.3856C22.0046 77.4075 21.9754 77.4184 21.9389 77.4184H20.9531C20.9166 77.4184 20.8874 77.4075 20.8655 77.3856C20.8363 77.3563 20.8217 77.3235 20.8217 77.287V77.1665C20.8217 76.8232 20.6829 76.5347 20.4055 76.301C20.1207 76.06 19.73 75.9395 19.2335 75.9395C18.8319 75.9395 18.5215 76.0235 18.3025 76.1915C18.0761 76.3594 17.9629 76.5968 17.9629 76.9035C17.9629 77.1226 18.0213 77.3016 18.1382 77.4403C18.255 77.5791 18.4302 77.7032 18.6639 77.8128C18.8976 77.9296 19.259 78.0757 19.7483 78.251C20.2667 78.4482 20.6829 78.6271 20.9969 78.7878C21.3036 78.9485 21.5702 79.1712 21.7965 79.456C22.0156 79.7482 22.1251 80.1097 22.1251 80.5406C22.1251 81.1979 21.8805 81.72 21.3913 82.1071C20.9093 82.4942 20.2485 82.6877 19.4087 82.6877ZM29.2776 76.9145C29.8398 76.9145 30.2816 77.0825 30.6029 77.4184C30.9169 77.7617 31.0739 78.2364 31.0739 78.8426V82.4686C31.0739 82.5052 31.0629 82.5344 31.041 82.5563C31.0118 82.5855 30.979 82.6001 30.9425 82.6001H29.9457C29.9092 82.6001 29.88 82.5855 29.8581 82.5563C29.8289 82.5344 29.8143 82.5052 29.8143 82.4686V79.1055C29.8143 78.7695 29.7266 78.503 29.5514 78.3058C29.3688 78.1086 29.1279 78.01 28.8285 78.01C28.5291 78.01 28.2845 78.1086 28.0946 78.3058C27.9048 78.503 27.8098 78.7659 27.8098 79.0945V82.4686C27.8098 82.5052 27.7989 82.5344 27.777 82.5563C27.7478 82.5855 27.7149 82.6001 27.6784 82.6001H26.6817C26.6451 82.6001 26.6123 82.5855 26.5831 82.5563C26.5612 82.5344 26.5502 82.5052 26.5502 82.4686V79.1055C26.5502 78.7695 26.4589 78.503 26.2764 78.3058C26.0938 78.1086 25.8529 78.01 25.5535 78.01C25.276 78.01 25.046 78.0903 24.8634 78.251C24.6882 78.4117 24.5859 78.6308 24.5567 78.9083V82.4686C24.5567 82.5052 24.5458 82.5344 24.5239 82.5563C24.4947 82.5855 24.4618 82.6001 24.4253 82.6001H23.4176C23.3811 82.6001 23.3519 82.5855 23.33 82.5563C23.3008 82.5344 23.2862 82.5052 23.2862 82.4686V77.1336C23.2862 77.0971 23.3008 77.0642 23.33 77.035C23.3519 77.0131 23.3811 77.0021 23.4176 77.0021H24.4253C24.4618 77.0021 24.4947 77.0131 24.5239 77.035C24.5458 77.0642 24.5567 77.0971 24.5567 77.1336V77.4951C24.5567 77.517 24.564 77.5316 24.5786 77.5389C24.5932 77.5462 24.6078 77.5389 24.6225 77.517C24.7831 77.3125 24.9803 77.1628 25.2139 77.0679C25.4549 76.9656 25.7214 76.9145 26.0135 76.9145C26.3713 76.9145 26.6853 76.9875 26.9555 77.1336C27.2257 77.2797 27.4338 77.4914 27.5798 77.769C27.6017 77.7982 27.6273 77.7982 27.6565 77.769C27.8171 77.4768 28.0399 77.2614 28.3246 77.1226C28.6094 76.9839 28.9271 76.9145 29.2776 76.9145ZM34.5022 76.9145C34.9623 76.9145 35.3675 76.9948 35.7181 77.1555C36.0686 77.3162 36.3387 77.5353 36.5286 77.8128C36.7184 78.0976 36.8134 78.419 36.8134 78.7768V82.4686C36.8134 82.5052 36.8024 82.5344 36.7805 82.5563C36.7513 82.5855 36.7184 82.6001 36.6819 82.6001H35.6742C35.6377 82.6001 35.6085 82.5855 35.5866 82.5563C35.5574 82.5344 35.5428 82.5052 35.5428 82.4686V82.1181C35.5428 82.0962 35.5355 82.0816 35.5209 82.0743C35.5063 82.0743 35.4917 82.0816 35.4771 82.0962C35.1193 82.4905 34.6008 82.6877 33.9217 82.6877C33.3741 82.6877 32.925 82.549 32.5745 82.2714C32.2167 81.9939 32.0378 81.5813 32.0378 81.0335C32.0378 80.4639 32.2386 80.0184 32.6402 79.697C33.0345 79.383 33.5931 79.226 34.316 79.226H35.488C35.5245 79.226 35.5428 79.2077 35.5428 79.1712V78.9083C35.5428 78.6235 35.4588 78.4007 35.2909 78.24C35.1229 78.0867 34.871 78.01 34.5351 78.01C34.2576 78.01 34.0349 78.0611 33.867 78.1634C33.6917 78.2583 33.5822 78.3934 33.5384 78.5687C33.5165 78.6563 33.4653 78.6928 33.385 78.6782L32.3226 78.5468C32.286 78.5395 32.2568 78.5285 32.2349 78.5139C32.2057 78.492 32.1948 78.4664 32.2021 78.4372C32.2605 77.9917 32.5015 77.6266 32.925 77.3417C33.3412 77.0569 33.867 76.9145 34.5022 76.9145ZM34.2394 81.6799C34.5972 81.6799 34.9039 81.5849 35.1594 81.3951C35.415 81.2052 35.5428 80.9642 35.5428 80.672V80.1571C35.5428 80.1206 35.5245 80.1024 35.488 80.1024H34.568C34.181 80.1024 33.8779 80.1754 33.6588 80.3215C33.4325 80.4675 33.3193 80.6757 33.3193 80.9459C33.3193 81.1796 33.4069 81.3585 33.5822 81.4827C33.7501 81.6141 33.9692 81.6799 34.2394 81.6799ZM38.2154 82.6001C38.1789 82.6001 38.1497 82.5855 38.1278 82.5563C38.0986 82.5344 38.0839 82.5052 38.0839 82.4686V75.0631C38.0839 75.0266 38.0986 74.9974 38.1278 74.9755C38.1497 74.9463 38.1789 74.9317 38.2154 74.9317H39.2231C39.2596 74.9317 39.2924 74.9463 39.3217 74.9755C39.3436 74.9974 39.3545 75.0266 39.3545 75.0631V82.4686C39.3545 82.5052 39.3436 82.5344 39.3217 82.5563C39.2924 82.5855 39.2596 82.6001 39.2231 82.6001H38.2154ZM40.8332 82.6001C40.7967 82.6001 40.7675 82.5855 40.7456 82.5563C40.7164 82.5344 40.7018 82.5052 40.7018 82.4686V75.0631C40.7018 75.0266 40.7164 74.9974 40.7456 74.9755C40.7675 74.9463 40.7967 74.9317 40.8332 74.9317H41.8409C41.8774 74.9317 41.9103 74.9463 41.9395 74.9755C41.9614 74.9974 41.9723 75.0266 41.9723 75.0631V82.4686C41.9723 82.5052 41.9614 82.5344 41.9395 82.5563C41.9103 82.5855 41.8774 82.6001 41.8409 82.6001H40.8332ZM49.9134 78.6016C49.8696 78.6235 49.8696 78.6454 49.9134 78.6673C50.6582 79.0178 51.0306 79.6204 51.0306 80.4748C51.0306 81.1687 50.8006 81.6981 50.3406 82.0633C49.8732 82.4212 49.2672 82.6001 48.5224 82.6001H45.7621C45.7256 82.6001 45.6964 82.5855 45.6745 82.5563C45.6453 82.5344 45.6307 82.5052 45.6307 82.4686V75.0631C45.6307 75.0266 45.6453 74.9974 45.6745 74.9755C45.6964 74.9463 45.7256 74.9317 45.7621 74.9317H48.4347C49.2307 74.9317 49.844 75.1033 50.2749 75.4465C50.7057 75.7898 50.9211 76.3083 50.9211 77.0021C50.9211 77.769 50.5852 78.3021 49.9134 78.6016ZM46.956 76.0271C46.9195 76.0271 46.9013 76.0454 46.9013 76.0819V78.1086C46.9013 78.1451 46.9195 78.1634 46.956 78.1634H48.4347C48.8217 78.1634 49.1284 78.0721 49.3548 77.8895C49.5739 77.6996 49.6834 77.4403 49.6834 77.1117C49.6834 76.7757 49.5739 76.5092 49.3548 76.312C49.1284 76.1221 48.8217 76.0271 48.4347 76.0271H46.956ZM48.5224 81.4936C48.9021 81.4936 49.2051 81.3914 49.4315 81.1869C49.6505 80.9824 49.7601 80.7049 49.7601 80.3543C49.7601 79.9965 49.6469 79.7189 49.4205 79.5218C49.1941 79.3173 48.8875 79.215 48.5004 79.215H46.956C46.9195 79.215 46.9013 79.2333 46.9013 79.2698V81.4389C46.9013 81.4754 46.9195 81.4936 46.956 81.4936H48.5224ZM55.5324 77.1336C55.5324 77.0971 55.5434 77.0642 55.5653 77.035C55.5945 77.0131 55.6273 77.0021 55.6638 77.0021H56.6606C56.6971 77.0021 56.73 77.0131 56.7592 77.035C56.7811 77.0642 56.792 77.0971 56.792 77.1336V82.4686C56.792 82.5052 56.7811 82.5344 56.7592 82.5563C56.73 82.5855 56.6971 82.6001 56.6606 82.6001H55.6638C55.6273 82.6001 55.5945 82.5855 55.5653 82.5563C55.5434 82.5344 55.5324 82.5052 55.5324 82.4686V82.1181C55.5324 82.0962 55.5251 82.0816 55.5105 82.0743C55.4959 82.067 55.4813 82.0743 55.4667 82.0962C55.1673 82.4832 54.7182 82.6768 54.1194 82.6768C53.5645 82.6768 53.1008 82.5161 52.7284 82.1948C52.3487 81.8734 52.1588 81.417 52.1588 80.8254V77.1336C52.1588 77.0971 52.1698 77.0642 52.1917 77.035C52.2209 77.0131 52.2537 77.0021 52.2903 77.0021H53.298C53.3345 77.0021 53.3673 77.0131 53.3965 77.035C53.4184 77.0642 53.4294 77.0971 53.4294 77.1336V80.4639C53.4294 80.8071 53.5207 81.081 53.7032 81.2855C53.8785 81.49 54.1267 81.5922 54.448 81.5922C54.7766 81.5922 55.0395 81.49 55.2367 81.2855C55.4338 81.081 55.5324 80.8071 55.5324 80.4639V77.1336ZM60.2313 82.6658C59.7713 82.6658 59.366 82.5964 59.0155 82.4577C58.6723 82.3262 58.4058 82.14 58.2159 81.899C58.0261 81.6653 57.9312 81.4024 57.9312 81.1102V81.0116C57.9312 80.9751 57.9421 80.9423 57.964 80.913C57.9932 80.8911 58.0261 80.8802 58.0626 80.8802H59.0265C59.063 80.8802 59.0922 80.8911 59.1141 80.913C59.1433 80.9423 59.1579 80.9751 59.1579 81.0116V81.0335C59.1579 81.2161 59.2565 81.3768 59.4537 81.5156C59.6581 81.647 59.9137 81.7127 60.2204 81.7127C60.5125 81.7127 60.7498 81.6543 60.9323 81.5375C61.1149 81.4133 61.2062 81.2599 61.2062 81.0774C61.2062 80.9094 61.1295 80.7816 60.9761 80.6939C60.8301 80.6136 60.5891 80.526 60.2532 80.431L59.837 80.2996C59.4646 80.19 59.1506 80.0732 58.895 79.949C58.6395 79.8249 58.424 79.6532 58.2488 79.4341C58.0735 79.2223 57.9859 78.9485 57.9859 78.6125C57.9859 78.1013 58.1867 77.6959 58.5883 77.3965C58.99 77.0898 59.5194 76.9364 60.1766 76.9364C60.622 76.9364 61.0127 77.0058 61.3486 77.1445C61.6845 77.2906 61.9437 77.4878 62.1262 77.7361C62.3088 77.9917 62.4001 78.2802 62.4001 78.6016C62.4001 78.6381 62.3855 78.6709 62.3563 78.7001C62.3343 78.7221 62.3051 78.733 62.2686 78.733H61.3376C61.3011 78.733 61.2682 78.7221 61.239 78.7001C61.2171 78.6709 61.2062 78.6381 61.2062 78.6016C61.2062 78.4117 61.1112 78.2546 60.9214 78.1305C60.7388 77.999 60.4869 77.9333 60.1656 77.9333C59.8808 77.9333 59.6472 77.9844 59.4646 78.0867C59.2894 78.1962 59.2017 78.3459 59.2017 78.5358C59.2017 78.7111 59.2857 78.8426 59.4537 78.9302C59.6289 79.0251 59.9173 79.1274 60.319 79.2369L60.5599 79.3027C60.9469 79.4195 61.2719 79.5364 61.5348 79.6532C61.7976 79.7774 62.0204 79.9454 62.2029 80.1571C62.3855 80.3762 62.4767 80.6574 62.4767 81.0007C62.4767 81.5192 62.2723 81.9245 61.8634 82.2167C61.4544 82.5161 60.9104 82.6658 60.2313 82.6658ZM64.2731 76.2353C64.0467 76.2353 63.8605 76.1623 63.7144 76.0162C63.5684 75.8701 63.4954 75.6839 63.4954 75.4575C63.4954 75.2311 63.5684 75.0449 63.7144 74.8988C63.8605 74.7527 64.0467 74.6797 64.2731 74.6797C64.4994 74.6797 64.6856 74.7527 64.8317 74.8988C64.9777 75.0449 65.0507 75.2311 65.0507 75.4575C65.0507 75.6839 64.9777 75.8701 64.8317 76.0162C64.6856 76.1623 64.4994 76.2353 64.2731 76.2353ZM63.7473 82.6001C63.7108 82.6001 63.6779 82.5855 63.6487 82.5563C63.6268 82.5344 63.6159 82.5052 63.6159 82.4686V77.1226C63.6159 77.0861 63.6268 77.0569 63.6487 77.035C63.6779 77.0058 63.7108 76.9912 63.7473 76.9912H64.755C64.7915 76.9912 64.8207 77.0058 64.8426 77.035C64.8718 77.0569 64.8864 77.0861 64.8864 77.1226V82.4686C64.8864 82.5052 64.8718 82.5344 64.8426 82.5563C64.8207 82.5855 64.7915 82.6001 64.755 82.6001H63.7473ZM69.0268 76.9145C69.6182 76.9145 70.0892 77.0898 70.4397 77.4403C70.7975 77.7909 70.9764 78.2693 70.9764 78.8754V82.4686C70.9764 82.5052 70.9618 82.5344 70.9326 82.5563C70.9107 82.5855 70.8815 82.6001 70.845 82.6001H69.8373C69.8008 82.6001 69.7679 82.5855 69.7387 82.5563C69.7168 82.5344 69.7059 82.5052 69.7059 82.4686V79.1383C69.7059 78.8024 69.6109 78.5285 69.4211 78.3167C69.2312 78.1122 68.9793 78.01 68.6653 78.01C68.3513 78.01 68.0957 78.1122 67.8986 78.3167C67.7087 78.5212 67.6138 78.7914 67.6138 79.1274V82.4686C67.6138 82.5052 67.5992 82.5344 67.57 82.5563C67.5481 82.5855 67.5189 82.6001 67.4824 82.6001H66.4747C66.4382 82.6001 66.4053 82.5855 66.3761 82.5563C66.3542 82.5344 66.3432 82.5052 66.3432 82.4686V77.1336C66.3432 77.0971 66.3542 77.0642 66.3761 77.035C66.4053 77.0131 66.4382 77.0021 66.4747 77.0021H67.4824C67.5189 77.0021 67.5481 77.0131 67.57 77.035C67.5992 77.0642 67.6138 77.0971 67.6138 77.1336V77.4842C67.6138 77.5061 67.6211 77.5207 67.6357 77.528C67.6503 77.5353 67.6613 77.528 67.6686 77.5061C67.9679 77.1117 68.4207 76.9145 69.0268 76.9145ZM76.9788 79.1712C77.008 79.3538 77.0226 79.5583 77.0226 79.7847L77.0116 80.1243C77.0116 80.2119 76.9678 80.2557 76.8802 80.2557H73.4519C73.4153 80.2557 73.3971 80.274 73.3971 80.3105C73.419 80.5515 73.4519 80.7159 73.4957 80.8035C73.6709 81.3293 74.0981 81.5959 74.7772 81.6032C75.2737 81.6032 75.668 81.3987 75.9601 80.9897C75.9893 80.9459 76.0259 80.924 76.0697 80.924C76.0989 80.924 76.1244 80.9349 76.1463 80.9569L76.8254 81.5156C76.8912 81.5667 76.9021 81.6251 76.8583 81.6908C76.6319 82.0122 76.3289 82.2605 75.9492 82.4358C75.5768 82.6111 75.1605 82.6987 74.7005 82.6987C74.1309 82.6987 73.6454 82.5709 73.2437 82.3153C72.8494 82.0597 72.561 81.7018 72.3784 81.2417C72.2105 80.8473 72.1265 80.2996 72.1265 79.5985C72.1265 79.1749 72.1703 78.8316 72.258 78.5687C72.404 78.0575 72.6778 77.6521 73.0794 77.3527C73.4884 77.0606 73.9776 76.9145 74.5472 76.9145C75.9857 76.9145 76.7962 77.6667 76.9788 79.1712ZM74.5472 78.01C74.277 78.01 74.0506 78.0794 73.8681 78.2181C73.6928 78.3496 73.5687 78.5358 73.4957 78.7768C73.4519 78.901 73.4226 79.0617 73.408 79.2588C73.3934 79.2954 73.408 79.3136 73.4519 79.3136H75.6754C75.7119 79.3136 75.7301 79.2954 75.7301 79.2588C75.7155 79.0763 75.6936 78.9375 75.6644 78.8426C75.5987 78.5796 75.4672 78.3752 75.2701 78.2291C75.0802 78.083 74.8393 78.01 74.5472 78.01ZM80.1771 82.6658C79.7171 82.6658 79.3118 82.5964 78.9613 82.4577C78.6181 82.3262 78.3516 82.14 78.1617 81.899C77.9719 81.6653 77.8769 81.4024 77.8769 81.1102V81.0116C77.8769 80.9751 77.8879 80.9423 77.9098 80.913C77.939 80.8911 77.9719 80.8802 78.0084 80.8802H78.9723C79.0088 80.8802 79.038 80.8911 79.0599 80.913C79.0891 80.9423 79.1037 80.9751 79.1037 81.0116V81.0335C79.1037 81.2161 79.2023 81.3768 79.3994 81.5156C79.6039 81.647 79.8595 81.7127 80.1662 81.7127C80.4583 81.7127 80.6956 81.6543 80.8781 81.5375C81.0607 81.4133 81.152 81.2599 81.152 81.0774C81.152 80.9094 81.0753 80.7816 80.9219 80.6939C80.7759 80.6136 80.5349 80.526 80.199 80.431L79.7828 80.2996C79.4104 80.19 79.0964 80.0732 78.8408 79.949C78.5853 79.8249 78.3698 79.6532 78.1946 79.4341C78.0193 79.2223 77.9317 78.9485 77.9317 78.6125C77.9317 78.1013 78.1325 77.6959 78.5341 77.3965C78.9358 77.0898 79.4652 76.9364 80.1224 76.9364C80.5678 76.9364 80.9585 77.0058 81.2943 77.1445C81.6302 77.2906 81.8895 77.4878 82.072 77.7361C82.2546 77.9917 82.3459 78.2802 82.3459 78.6016C82.3459 78.6381 82.3313 78.6709 82.302 78.7001C82.2801 78.7221 82.2509 78.733 82.2144 78.733H81.2834C81.2469 78.733 81.214 78.7221 81.1848 78.7001C81.1629 78.6709 81.152 78.6381 81.152 78.6016C81.152 78.4117 81.057 78.2546 80.8672 78.1305C80.6846 77.999 80.4327 77.9333 80.1114 77.9333C79.8266 77.9333 79.593 77.9844 79.4104 78.0867C79.2351 78.1962 79.1475 78.3459 79.1475 78.5358C79.1475 78.7111 79.2315 78.8426 79.3994 78.9302C79.5747 79.0251 79.8631 79.1274 80.2647 79.2369L80.5057 79.3027C80.8927 79.4195 81.2177 79.5364 81.4806 79.6532C81.7434 79.7774 81.9661 79.9454 82.1487 80.1571C82.3313 80.3762 82.4225 80.6574 82.4225 81.0007C82.4225 81.5192 82.2181 81.9245 81.8092 82.2167C81.4002 82.5161 80.8562 82.6658 80.1771 82.6658ZM85.4675 82.6658C85.0075 82.6658 84.6022 82.5964 84.2517 82.4577C83.9085 82.3262 83.642 82.14 83.4521 81.899C83.2623 81.6653 83.1674 81.4024 83.1674 81.1102V81.0116C83.1674 80.9751 83.1783 80.9423 83.2002 80.913C83.2294 80.8911 83.2623 80.8802 83.2988 80.8802H84.2627C84.2992 80.8802 84.3284 80.8911 84.3503 80.913C84.3795 80.9423 84.3941 80.9751 84.3941 81.0116V81.0335C84.3941 81.2161 84.4927 81.3768 84.6898 81.5156C84.8943 81.647 85.1499 81.7127 85.4566 81.7127C85.7486 81.7127 85.986 81.6543 86.1685 81.5375C86.3511 81.4133 86.4424 81.2599 86.4424 81.0774C86.4424 80.9094 86.3657 80.7816 86.2123 80.6939C86.0663 80.6136 85.8253 80.526 85.4894 80.431L85.0732 80.2996C84.7008 80.19 84.3868 80.0732 84.1312 79.949C83.8757 79.8249 83.6602 79.6532 83.485 79.4341C83.3097 79.2223 83.2221 78.9485 83.2221 78.6125C83.2221 78.1013 83.4229 77.6959 83.8245 77.3965C84.2262 77.0898 84.7556 76.9364 85.4128 76.9364C85.8582 76.9364 86.2489 77.0058 86.5848 77.1445C86.9207 77.2906 87.1799 77.4878 87.3624 77.7361C87.545 77.9917 87.6363 78.2802 87.6363 78.6016C87.6363 78.6381 87.6217 78.6709 87.5924 78.7001C87.5705 78.7221 87.5413 78.733 87.5048 78.733H86.5738C86.5373 78.733 86.5044 78.7221 86.4752 78.7001C86.4533 78.6709 86.4424 78.6381 86.4424 78.6016C86.4424 78.4117 86.3474 78.2546 86.1576 78.1305C85.975 77.999 85.7231 77.9333 85.4018 77.9333C85.117 77.9333 84.8834 77.9844 84.7008 78.0867C84.5256 78.1962 84.4379 78.3459 84.4379 78.5358C84.4379 78.7111 84.5219 78.8426 84.6898 78.9302C84.8651 79.0251 85.1535 79.1274 85.5551 79.2369L85.7961 79.3027C86.1831 79.4195 86.5081 79.5364 86.771 79.6532C87.0338 79.7774 87.2565 79.9454 87.4391 80.1571C87.6217 80.3762 87.7129 80.6574 87.7129 81.0007C87.7129 81.5192 87.5085 81.9245 87.0995 82.2167C86.6906 82.5161 86.1466 82.6658 85.4675 82.6658Z" fill="white"></path><path d="M35.0327 98.0434C34.9524 98.0434 34.9013 98.0069 34.8794 97.9339L32.9406 90.5174L32.9297 90.4736C32.9297 90.4079 32.9698 90.375 33.0502 90.375H34.4084C34.4814 90.375 34.5289 90.4115 34.5508 90.4845L35.5913 94.9432C35.5986 94.9724 35.6096 94.987 35.6242 94.987C35.6388 94.987 35.6497 94.9724 35.657 94.9432L36.6647 90.4955C36.6866 90.4152 36.7341 90.375 36.8071 90.375H38.1325C38.2128 90.375 38.2639 90.4115 38.2858 90.4845L39.3811 94.9432C39.3884 94.9651 39.3994 94.9797 39.414 94.987C39.4286 94.987 39.4395 94.9724 39.4468 94.9432L40.4545 90.4955C40.4764 90.4152 40.5239 90.375 40.5969 90.375H41.8894C41.9916 90.375 42.0318 90.4225 42.0099 90.5174L40.2136 97.9339C40.1917 98.0069 40.1405 98.0434 40.0602 98.0434H38.7568C38.6838 98.0434 38.6363 98.0069 38.6144 97.9339L37.4972 93.1904C37.4899 93.1612 37.4789 93.1466 37.4643 93.1466C37.4497 93.1466 37.4388 93.1612 37.4315 93.1904L36.3909 97.9229C36.3763 98.0033 36.3288 98.0434 36.2485 98.0434H35.0327ZM43.0724 98.0434C43.0358 98.0434 43.003 98.0288 42.9738 97.9996C42.9519 97.9777 42.9409 97.9485 42.9409 97.912V90.5065C42.9409 90.4699 42.9519 90.4407 42.9738 90.4188C43.003 90.3896 43.0358 90.375 43.0724 90.375H44.3539C44.3904 90.375 44.4196 90.3896 44.4415 90.4188C44.4707 90.4407 44.4853 90.4699 44.4853 90.5065V97.912C44.4853 97.9485 44.4707 97.9777 44.4415 97.9996C44.4196 98.0288 44.3904 98.0434 44.3539 98.0434H43.0724ZM50.2248 90.5065C50.2248 90.4699 50.2358 90.4407 50.2577 90.4188C50.2869 90.3896 50.3197 90.375 50.3562 90.375H51.6378C51.6743 90.375 51.7035 90.3896 51.7254 90.4188C51.7546 90.4407 51.7692 90.4699 51.7692 90.5065V97.912C51.7692 97.9485 51.7546 97.9777 51.7254 97.9996C51.7035 98.0288 51.6743 98.0434 51.6378 98.0434H50.4001C50.327 98.0434 50.2759 98.0142 50.2467 97.9558L47.4098 93.2671C47.3952 93.2452 47.3806 93.2379 47.366 93.2452C47.3514 93.2452 47.3441 93.2598 47.3441 93.289L47.366 97.912C47.366 97.9485 47.3514 97.9777 47.3222 97.9996C47.3003 98.0288 47.2711 98.0434 47.2346 98.0434H45.9531C45.9165 98.0434 45.8837 98.0288 45.8545 97.9996C45.8326 97.9777 45.8216 97.9485 45.8216 97.912V90.5065C45.8216 90.4699 45.8326 90.4407 45.8545 90.4188C45.8837 90.3896 45.9165 90.375 45.9531 90.375H47.1908C47.2638 90.375 47.3149 90.4042 47.3441 90.4626L50.17 95.1294C50.1846 95.1513 50.1992 95.1586 50.2139 95.1513C50.2285 95.1513 50.2358 95.1367 50.2358 95.1075L50.2248 90.5065ZM58.3959 90.375C58.4324 90.375 58.4616 90.3896 58.4835 90.4188C58.5127 90.4407 58.5273 90.4699 58.5273 90.5065V91.58C58.5273 91.6166 58.5127 91.6458 58.4835 91.6677C58.4616 91.6969 58.4324 91.7115 58.3959 91.7115H56.4353C56.3988 91.7115 56.3805 91.7298 56.3805 91.7663V97.912C56.3805 97.9485 56.3659 97.9777 56.3367 97.9996C56.3148 98.0288 56.2856 98.0434 56.2491 98.0434H54.9675C54.931 98.0434 54.8982 98.0288 54.869 97.9996C54.8471 97.9777 54.8361 97.9485 54.8361 97.912V91.7663C54.8361 91.7298 54.8178 91.7115 54.7813 91.7115H52.8755C52.839 91.7115 52.8061 91.6969 52.7769 91.6677C52.755 91.6458 52.744 91.6166 52.744 91.58V90.5065C52.744 90.4699 52.755 90.4407 52.7769 90.4188C52.8061 90.3896 52.839 90.375 52.8755 90.375H58.3959ZM64.8364 91.5691C64.8364 91.6056 64.8254 91.6348 64.8035 91.6567C64.7743 91.6859 64.7415 91.7005 64.7049 91.7005H61.1123C61.0758 91.7005 61.0575 91.7188 61.0575 91.7553V93.4533C61.0575 93.4898 61.0758 93.5081 61.1123 93.5081H63.4672C63.5037 93.5081 63.533 93.5191 63.5549 93.541C63.5841 93.5702 63.5987 93.6031 63.5987 93.6396V94.7022C63.5987 94.7387 63.5841 94.7716 63.5549 94.8008C63.533 94.8227 63.5037 94.8337 63.4672 94.8337H61.1123C61.0758 94.8337 61.0575 94.8519 61.0575 94.8884V96.6631C61.0575 96.6996 61.0758 96.7179 61.1123 96.7179H64.7049C64.7415 96.7179 64.7743 96.7289 64.8035 96.7508C64.8254 96.78 64.8364 96.8128 64.8364 96.8494V97.912C64.8364 97.9485 64.8254 97.9777 64.8035 97.9996C64.7743 98.0288 64.7415 98.0434 64.7049 98.0434H59.6446C59.6081 98.0434 59.5752 98.0288 59.546 97.9996C59.5241 97.9777 59.5131 97.9485 59.5131 97.912V90.5065C59.5131 90.4699 59.5241 90.4407 59.546 90.4188C59.5752 90.3896 59.6081 90.375 59.6446 90.375H64.7049C64.7415 90.375 64.7743 90.3896 64.8035 90.4188C64.8254 90.4407 64.8364 90.4699 64.8364 90.5065V91.5691ZM70.1158 98.0434C70.0428 98.0434 69.9917 98.0106 69.9625 97.9449L68.5933 94.9103C68.5787 94.8811 68.5568 94.8665 68.5276 94.8665H67.509C67.4725 94.8665 67.4542 94.8848 67.4542 94.9213V97.912C67.4542 97.9485 67.4396 97.9777 67.4104 97.9996C67.3885 98.0288 67.3593 98.0434 67.3228 98.0434H66.0412C66.0047 98.0434 65.9719 98.0288 65.9427 97.9996C65.9208 97.9777 65.9098 97.9485 65.9098 97.912V90.5065C65.9098 90.4699 65.9208 90.4407 65.9427 90.4188C65.9719 90.3896 66.0047 90.375 66.0412 90.375H69.1739C69.6412 90.375 70.0501 90.4699 70.4006 90.6598C70.7584 90.8497 71.0322 91.1199 71.2221 91.4705C71.4193 91.821 71.5178 92.2264 71.5178 92.6865C71.5178 93.1831 71.3937 93.6067 71.1454 93.9573C70.8972 94.3151 70.5503 94.5671 70.1049 94.7131C70.0684 94.7278 70.0574 94.7533 70.072 94.7898L71.5617 97.8901C71.5763 97.9193 71.5836 97.9412 71.5836 97.9558C71.5836 98.0142 71.5434 98.0434 71.4631 98.0434H70.1158ZM67.509 91.7005C67.4725 91.7005 67.4542 91.7188 67.4542 91.7553V93.6286C67.4542 93.6651 67.4725 93.6834 67.509 93.6834H68.9438C69.2505 93.6834 69.4988 93.5921 69.6887 93.4095C69.8858 93.2269 69.9844 92.9896 69.9844 92.6974C69.9844 92.4053 69.8858 92.1643 69.6887 91.9744C69.4988 91.7918 69.2505 91.7005 68.9438 91.7005H67.509ZM42.5904 106.95C42.5758 106.964 42.5722 106.979 42.5795 106.994C42.5868 107.008 42.6014 107.016 42.6233 107.016H45.5916C45.6281 107.016 45.661 107.026 45.6902 107.048C45.7121 107.078 45.723 107.11 45.723 107.147V108.21C45.723 108.246 45.7121 108.275 45.6902 108.297C45.661 108.326 45.6281 108.341 45.5916 108.341H40.6627C40.6261 108.341 40.5933 108.326 40.5641 108.297C40.5422 108.275 40.5312 108.246 40.5312 108.21V107.202C40.5312 107.136 40.5531 107.081 40.5969 107.037C40.9547 106.687 41.3198 106.307 41.6923 105.898C42.0647 105.482 42.2983 105.223 42.3933 105.12C42.5977 104.879 42.8058 104.649 43.0176 104.43C43.6821 103.693 44.0143 103.145 44.0143 102.787C44.0143 102.531 43.9231 102.32 43.7405 102.152C43.558 101.991 43.3206 101.911 43.0285 101.911C42.7365 101.911 42.4991 101.991 42.3166 102.152C42.134 102.32 42.0428 102.539 42.0428 102.809V103.083C42.0428 103.119 42.0282 103.152 41.9989 103.181C41.977 103.203 41.9478 103.214 41.9113 103.214H40.6188C40.5823 103.214 40.5531 103.203 40.5312 103.181C40.502 103.152 40.4874 103.119 40.4874 103.083V102.568C40.5093 102.173 40.6334 101.823 40.8598 101.516C41.0862 101.217 41.3856 100.987 41.758 100.826C42.1377 100.665 42.5612 100.585 43.0285 100.585C43.547 100.585 43.9997 100.68 44.3867 100.87C44.7665 101.067 45.0622 101.33 45.274 101.659C45.4784 101.987 45.5806 102.352 45.5806 102.754C45.5806 103.061 45.504 103.375 45.3506 103.696C45.1973 104.018 44.9673 104.364 44.6606 104.737C44.4342 105.022 44.1896 105.303 43.9267 105.58C43.6638 105.858 43.2732 106.26 42.7547 106.785L42.5904 106.95ZM49.2828 108.462C48.4796 108.462 47.8443 108.235 47.377 107.782C46.9096 107.337 46.676 106.727 46.676 105.953V103.061C46.676 102.301 46.9096 101.699 47.377 101.253C47.8443 100.808 48.4796 100.585 49.2828 100.585C50.0861 100.585 50.725 100.808 51.1996 101.253C51.667 101.699 51.9006 102.301 51.9006 103.061V105.953C51.9006 106.727 51.667 107.337 51.1996 107.782C50.725 108.235 50.0861 108.462 49.2828 108.462ZM49.2828 107.136C49.6114 107.136 49.8743 107.034 50.0715 106.829C50.2613 106.632 50.3562 106.366 50.3562 106.03V103.017C50.3562 102.681 50.2613 102.414 50.0715 102.217C49.8743 102.013 49.6114 101.911 49.2828 101.911C48.9615 101.911 48.706 102.013 48.5161 102.217C48.3189 102.414 48.2204 102.681 48.2204 103.017V106.03C48.2204 106.366 48.3189 106.632 48.5161 106.829C48.706 107.034 48.9615 107.136 49.2828 107.136ZM54.9675 106.95C54.9529 106.964 54.9493 106.979 54.9566 106.994C54.9639 107.008 54.9785 107.016 55.0004 107.016H57.9687C58.0052 107.016 58.0381 107.026 58.0673 107.048C58.0892 107.078 58.1002 107.11 58.1002 107.147V108.21C58.1002 108.246 58.0892 108.275 58.0673 108.297C58.0381 108.326 58.0052 108.341 57.9687 108.341H53.0398C53.0033 108.341 52.9741 108.326 52.9522 108.297C52.9229 108.275 52.9083 108.246 52.9083 108.21V107.202C52.9083 107.136 52.9302 107.081 52.9741 107.037C53.3319 106.687 53.697 106.307 54.0694 105.898C54.4418 105.482 54.6755 105.223 54.7704 105.12C54.9748 104.879 55.183 104.649 55.3947 104.43C56.0592 103.693 56.3915 103.145 56.3915 102.787C56.3915 102.531 56.3002 102.32 56.1176 102.152C55.9351 101.991 55.6978 101.911 55.4057 101.911C55.1136 101.911 54.8763 101.991 54.6937 102.152C54.5112 102.32 54.4199 102.539 54.4199 102.809V103.083C54.4199 103.119 54.4089 103.152 54.387 103.181C54.3578 103.203 54.325 103.214 54.2884 103.214H52.996C52.9595 103.214 52.9302 103.203 52.9083 103.181C52.8791 103.152 52.8645 103.119 52.8645 103.083V102.568C52.8864 102.173 53.0106 101.823 53.2369 101.516C53.4633 101.217 53.7663 100.987 54.1461 100.826C54.5185 100.665 54.9383 100.585 55.4057 100.585C55.9241 100.585 56.3769 100.68 56.7639 100.87C57.1436 101.067 57.4393 101.33 57.6511 101.659C57.8555 101.987 57.9578 102.352 57.9578 102.754C57.9578 103.061 57.8811 103.375 57.7278 103.696C57.5744 104.018 57.3444 104.364 57.0377 104.737C56.8113 105.022 56.5667 105.303 56.3038 105.58C56.041 105.858 55.6503 106.26 55.1318 106.785L54.9675 106.95ZM63.6206 104.682C63.7666 105.018 63.8396 105.405 63.8396 105.843C63.8396 106.238 63.7739 106.603 63.6425 106.939C63.4672 107.406 63.1751 107.771 62.7662 108.034C62.35 108.297 61.8608 108.429 61.2985 108.429C60.7435 108.429 60.2579 108.29 59.8417 108.012C59.4182 107.735 59.1152 107.359 58.9326 106.884C58.8304 106.599 58.772 106.292 58.7574 105.964C58.7574 105.876 58.8012 105.832 58.8888 105.832H60.1813C60.2689 105.832 60.3127 105.876 60.3127 105.964C60.3419 106.205 60.3821 106.384 60.4332 106.501C60.4989 106.691 60.6084 106.837 60.7618 106.939C60.9078 107.048 61.0831 107.103 61.2875 107.103C61.6965 107.103 61.9776 106.924 62.1309 106.566C62.2332 106.347 62.2843 106.092 62.2843 105.8C62.2843 105.456 62.2295 105.175 62.12 104.956C61.952 104.613 61.6709 104.441 61.2766 104.441C61.1963 104.441 61.1123 104.463 61.0247 104.507C60.937 104.558 60.8312 104.627 60.707 104.715C60.6778 104.737 60.6486 104.748 60.6194 104.748C60.5756 104.748 60.5427 104.726 60.5208 104.682L59.8746 103.773C59.86 103.751 59.8527 103.725 59.8527 103.696C59.8527 103.652 59.8673 103.616 59.8965 103.587L61.638 102.064C61.6527 102.049 61.66 102.035 61.66 102.02C61.6527 102.005 61.638 101.998 61.6161 101.998H59.0421C59.0056 101.998 58.9764 101.984 58.9545 101.954C58.9253 101.932 58.9107 101.903 58.9107 101.867V100.804C58.9107 100.768 58.9253 100.738 58.9545 100.716C58.9764 100.687 59.0056 100.673 59.0421 100.673H63.6096C63.6461 100.673 63.679 100.687 63.7082 100.716C63.7301 100.738 63.7411 100.768 63.7411 100.804V102.009C63.7411 102.068 63.7155 102.122 63.6644 102.173L62.2295 103.488C62.2149 103.503 62.2113 103.517 62.2186 103.532C62.2186 103.546 62.2332 103.554 62.2624 103.554C62.8977 103.678 63.3504 104.054 63.6206 104.682Z" fill="#252530"></path></g><defs><clipPath id="clip0_1695_15096"><rect width="102.96" height="133.65" fill="white" transform="translate(0.898438)"></rect></clipPath></defs></svg>