<svg xmlns="http://www.w3.org/2000/svg" width="86" height="81" viewBox="0 0 86 81"><g id="Group_5555" data-name="Group 5555" transform="translate(-997 -11115)"><rect id="Rectangle_6055" data-name="Rectangle 6055" width="86" height="81" rx="22" transform="translate(997 11115)" fill="#cae2bc" opacity="0.2"></rect><g id="Group_4795" data-name="Group 4795" transform="translate(-3516 10859)"><g id="Group_4223" data-name="Group 4223" transform="translate(4532 272)"><path id="Path_21276" data-name="Path 21276" d="M226,.4l-2.426,3.235,1.294.97.97-1.294V9.78h1.617V3.311l.97,1.294,1.294-.97L227.293.4a.838.838,0,0,0-1.179-.115A.861.861,0,0,0,226,.4Z" transform="translate(-202.387 -0.094)" fill="#4fa83d"></path><path id="Path_21277" data-name="Path 21277" d="M227.454,415.974v-6.469h-1.617v6.469l-.97-1.294-1.294.97L226,418.885a.809.809,0,0,0,1.294,0l2.426-3.234-1.294-.97Z" transform="translate(-202.387 -370.709)" fill="#4fa83d"></path><rect id="Rectangle_5635" data-name="Rectangle 5635" width="1.617" height="1.617" transform="translate(23.45 11.303)" fill="#4fa83d"></rect><rect id="Rectangle_5636" data-name="Rectangle 5636" width="1.617" height="1.617" transform="translate(23.45 35.562)" fill="#4fa83d"></rect><path id="Path_21278" data-name="Path 21278" d="M9.7,227.359v-1.617H3.235l1.294-.97-.97-1.294L.323,225.9a.809.809,0,0,0,0,1.294l3.235,2.426.97-1.294-1.294-.97H9.7Z" transform="translate(0 -202.31)" fill="#4fa83d"></path><path id="Path_21279" data-name="Path 21279" d="M418.98,225.9l-3.234-2.426-.97,1.294,1.294.97H409.6v1.617h6.469l-1.294.97.97,1.294,3.234-2.426a.808.808,0,0,0,0-1.294Z" transform="translate(-370.786 -202.31)" fill="#4fa83d"></path><rect id="Rectangle_5637" data-name="Rectangle 5637" width="1.617" height="1.617" transform="translate(11.321 23.432)" fill="#4fa83d"></rect><rect id="Rectangle_5638" data-name="Rectangle 5638" width="1.617" height="1.617" transform="translate(35.58 23.432)" fill="#4fa83d"></rect><path id="Path_21280" data-name="Path 21280" d="M74.628,77.044l-.228-1.6,4.574,4.574,1.143-1.143L75.544,74.3l1.6.228.229-1.6-4-.573a.809.809,0,0,0-.919.681.84.84,0,0,0,0,.238l.572,4Z" transform="translate(-65.579 -65.499)" fill="#4fa83d"></path><path id="Path_21281" data-name="Path 21281" d="M364.067,361.473l.228,1.6-4.574-4.574-1.143,1.143,4.574,4.574-1.6-.23-.229,1.6,4,.572a.765.765,0,0,0,.115.008.809.809,0,0,0,.809-.809.78.78,0,0,0-.008-.115l-.572-4Z" transform="translate(-324.598 -324.537)" fill="#4fa83d"></path><rect id="Rectangle_5639" data-name="Rectangle 5639" width="1.617" height="1.617" transform="translate(16.822 15.665) rotate(135)" fill="#4fa83d"></rect><rect id="Rectangle_5640" data-name="Rectangle 5640" width="1.617" height="1.617" transform="translate(33.98 32.818) rotate(135)" fill="#4fa83d"></rect><path id="Path_21282" data-name="Path 21282" d="M78.976,358.484,74.4,363.058l.228-1.6-1.6-.229-.575,4a.809.809,0,0,0,.686.915.823.823,0,0,0,.23,0l4-.572-.229-1.6-1.6.228,4.574-4.574Z" transform="translate(-65.581 -324.522)" fill="#4fa83d"></path><path id="Path_21283" data-name="Path 21283" d="M359.722,80.037l4.574-4.574-.228,1.6,1.6.229.572-4a.809.809,0,0,0-.915-.915l-4,.572.229,1.6,1.6-.228-4.574,4.574Z" transform="translate(-324.599 -65.516)" fill="#4fa83d"></path><rect id="Rectangle_5641" data-name="Rectangle 5641" width="1.617" height="1.617" transform="translate(16.831 32.818) rotate(135)" fill="#4fa83d"></rect><rect id="Rectangle_5642" data-name="Rectangle 5642" width="1.617" height="1.617" transform="translate(33.98 15.664) rotate(135)" fill="#4fa83d"></rect></g><g transform="translate(4550.858 289.057)"><path id="Path_21362" data-name="Path 21362" d="M21.281,7.481h3.254a.177.177,0,0,0,.179-.179h0a1.058,1.058,0,0,0-.383-.819L21.6,4.209a1.148,1.148,0,0,0-.737-.265h0a.264.264,0,0,0-.265.265V6.8A.679.679,0,0,0,21.281,7.481Z" transform="translate(-13.843 -3.941)" fill="#cae2bc"></path><path id="Path_21363" data-name="Path 21363" d="M13.141,6.8V3.937H8.457A1.148,1.148,0,0,0,7.312,5.082V17.1A1.148,1.148,0,0,0,8.457,18.24h8.582A1.148,1.148,0,0,0,18.183,17.1V8.407H14.75A1.612,1.612,0,0,1,13.141,6.8Z" transform="translate(-7.312 -3.937)" fill="#cae2bc"></path></g></g></g></svg>