<svg width="53" height="51" viewBox="0 0 53 51" fill="none" xmlns="http://www.w3.org/2000/svg">
<g filter="url(#filter0_i_114_990)">
<rect y="0.850586" width="53" height="50" rx="8" fill="#313432"/>
</g>
<rect x="28" y="21" width="9" height="15" fill="#4FA83D"/>
<path d="M26.5 13L16 20V35H27L26.5 13Z" fill="#4FA83D" stroke="#4FA83D" stroke-linecap="round"/>
<path d="M40.0333 35.077H38.1V21.6162C38.1 21.1061 37.8963 20.617 37.5337 20.2564C37.1712 19.8958 36.6794 19.6932 36.1667 19.6932H28.4333V13.9242C28.4336 13.576 28.3387 13.2343 28.1589 12.9355C27.9791 12.6367 27.7212 12.392 27.4125 12.2277C27.1039 12.0633 26.7561 11.9854 26.4064 12.0023C26.0568 12.0191 25.7182 12.1301 25.427 12.3233L15.7603 18.7317C15.4952 18.9077 15.2778 19.1461 15.1277 19.4259C14.9776 19.7056 14.8994 20.0179 14.9 20.335V35.077H12.9667C12.7103 35.077 12.4644 35.1783 12.2831 35.3586C12.1018 35.5389 12 35.7835 12 36.0385C12 36.2935 12.1018 36.5381 12.2831 36.7184C12.4644 36.8987 12.7103 37 12.9667 37H40.0333C40.2897 37 40.5356 36.8987 40.7169 36.7184C40.8982 36.5381 41 36.2935 41 36.0385C41 35.7835 40.8982 35.5389 40.7169 35.3586C40.5356 35.1783 40.2897 35.077 40.0333 35.077ZM36.1667 21.6162V35.077H28.4333V21.6162H36.1667ZM16.8333 20.335L26.5 13.9242V35.077H16.8333V20.335ZM24.5667 23.5391V25.4621C24.5667 25.7171 24.4648 25.9617 24.2835 26.142C24.1023 26.3223 23.8564 26.4236 23.6 26.4236C23.3436 26.4236 23.0977 26.3223 22.9165 26.142C22.7352 25.9617 22.6333 25.7171 22.6333 25.4621V23.5391C22.6333 23.2841 22.7352 23.0396 22.9165 22.8593C23.0977 22.6789 23.3436 22.5776 23.6 22.5776C23.8564 22.5776 24.1023 22.6789 24.2835 22.8593C24.4648 23.0396 24.5667 23.2841 24.5667 23.5391ZM20.7 23.5391V25.4621C20.7 25.7171 20.5982 25.9617 20.4169 26.142C20.2356 26.3223 19.9897 26.4236 19.7333 26.4236C19.477 26.4236 19.2311 26.3223 19.0498 26.142C18.8685 25.9617 18.7667 25.7171 18.7667 25.4621V23.5391C18.7667 23.2841 18.8685 23.0396 19.0498 22.8593C19.2311 22.6789 19.477 22.5776 19.7333 22.5776C19.9897 22.5776 20.2356 22.6789 20.4169 22.8593C20.5982 23.0396 20.7 23.2841 20.7 23.5391ZM20.7 30.2696V32.1925C20.7 32.4476 20.5982 32.6921 20.4169 32.8724C20.2356 33.0527 19.9897 33.154 19.7333 33.154C19.477 33.154 19.2311 33.0527 19.0498 32.8724C18.8685 32.6921 18.7667 32.4476 18.7667 32.1925V30.2696C18.7667 30.0146 18.8685 29.77 19.0498 29.5897C19.2311 29.4094 19.477 29.3081 19.7333 29.3081C19.9897 29.3081 20.2356 29.4094 20.4169 29.5897C20.5982 29.77 20.7 30.0146 20.7 30.2696ZM24.5667 30.2696V32.1925C24.5667 32.4476 24.4648 32.6921 24.2835 32.8724C24.1023 33.0527 23.8564 33.154 23.6 33.154C23.3436 33.154 23.0977 33.0527 22.9165 32.8724C22.7352 32.6921 22.6333 32.4476 22.6333 32.1925V30.2696C22.6333 30.0146 22.7352 29.77 22.9165 29.5897C23.0977 29.4094 23.3436 29.3081 23.6 29.3081C23.8564 29.3081 24.1023 29.4094 24.2835 29.5897C24.4648 29.77 24.5667 30.0146 24.5667 30.2696Z" fill="#CAE2BC"/>
<defs>
<filter id="filter0_i_114_990" x="0" y="0.850586" width="55" height="54" filterUnits="userSpaceOnUse" color-interpolation-filters="sRGB">
<feFlood flood-opacity="0" result="BackgroundImageFix"/>
<feBlend mode="normal" in="SourceGraphic" in2="BackgroundImageFix" result="shape"/>
<feColorMatrix in="SourceAlpha" type="matrix" values="0 0 0 0 0 0 0 0 0 0 0 0 0 0 0 0 0 0 127 0" result="hardAlpha"/>
<feOffset dx="2" dy="4"/>
<feGaussianBlur stdDeviation="3.5"/>
<feComposite in2="hardAlpha" operator="arithmetic" k2="-1" k3="1"/>
<feColorMatrix type="matrix" values="0 0 0 0 0 0 0 0 0 0 0 0 0 0 0 0 0 0 0.25 0"/>
<feBlend mode="normal" in2="shape" result="effect1_innerShadow_114_990"/>
</filter>
</defs>
</svg>
