<svg xmlns="http://www.w3.org/2000/svg" width="50" height="50" viewBox="0 0 50 50" fill="none"><g id="Group 45159"><g id="Rectangle 8107" filter="url(#filter0_i_4014_17265)"><rect width="50" height="50" rx="6" fill="#313432"></rect></g><g id="Group 45063"><g id="Group 45037"><g id="Group 45029"><g id="Black"><path id="Vector 1" d="M14.8594 15.4169L25 12.6836L35.4844 15.9294V24.1293L33.25 31.4751L28.9531 35.7459L25 37.2834L21.9062 36.4292L18.9844 33.6959L16.75 30.9626L14.8594 26.1793V22.0794V15.4169Z" fill="#CADFBD"></path><path id="Vector" d="M25.9968 12.2547C26.47 12.3955 27.0126 12.5542 27.2024 12.6112C27.7269 12.7639 32.7904 14.2468 34.3125 14.6932C35.0479 14.9089 35.696 15.1066 35.7502 15.1306C35.8075 15.1575 35.8828 15.2294 35.919 15.2893L35.9883 15.3972L35.9974 19.037C36.0094 23.4228 35.9883 23.977 35.7593 25.358C35.0449 29.6868 32.7784 33.4705 29.4569 35.882C28.5798 36.5171 27.6003 37.0623 26.5574 37.4967C26.0451 37.7094 25.1499 38 25.0112 38C24.8816 38 24.3994 37.8562 23.8569 37.6555C20.5716 36.4392 17.7595 33.9108 16.0144 30.6095C14.9354 28.5664 14.3084 26.4485 14.0764 24.0399C14.0372 23.6115 13.9799 20.466 14.007 20.3671C14.0764 20.1155 14.3597 19.9537 14.6038 20.0256C14.7545 20.0705 14.8932 20.2083 14.9354 20.3521C14.9504 20.4121 14.9655 20.5978 14.9655 20.7626C14.9655 21.3617 15.0951 24.5462 15.2247 25.2981C15.71 28.1231 16.8764 30.6754 18.6456 32.7904C18.9953 33.2068 19.8452 34.0696 20.2521 34.4141C21.5331 35.5105 23.0793 36.3883 24.6194 36.8946L25.0052 37.0204L25.388 36.8946C29.0711 35.6783 32.1213 32.7455 33.7579 28.848C34.3005 27.5539 34.7104 26.0201 34.8852 24.6091C34.9997 23.6894 35.0088 23.3569 35.0088 19.5912V15.9035L34.1257 15.6458C33.6434 15.505 31.3919 14.846 29.1254 14.1809L25.0052 12.9766L23.7454 13.3451C23.0521 13.5488 22.0997 13.8274 21.6265 13.9652C21.1533 14.103 20.5716 14.2738 20.3305 14.3457C20.0893 14.4146 18.7903 14.7951 17.443 15.1905L14.9956 15.9065V18.1233C14.9956 19.4864 14.9836 20.3791 14.9655 20.442C14.9233 20.5888 14.7726 20.7326 14.6159 20.7745C14.5013 20.8075 14.4622 20.8045 14.3537 20.7626C14.1879 20.6996 14.0764 20.5828 14.0342 20.43C13.989 20.2623 13.989 15.6099 14.0342 15.4301C14.0523 15.3523 14.1065 15.2624 14.1608 15.2085C14.2662 15.1066 14.1005 15.1575 18.1302 13.9772C24.2155 12.1978 24.9088 11.997 25.0203 12C25.0836 12 25.5236 12.1169 25.9968 12.2547Z" fill="#4FA83D"></path></g></g></g></g></g><defs><filter id="filter0_i_4014_17265" x="0" y="0" width="52" height="54" color-interpolation-filters="sRGB"><feGaussianBlur stdDeviation="3.5"></feGaussianBlur></filter></defs></svg>