<svg width="53" height="51" viewBox="0 0 53 51" fill="none" xmlns="http://www.w3.org/2000/svg">
<g filter="url(#filter0_i_114_991)">
<rect y="0.850586" width="53" height="50" rx="8" fill="#313432"/>
</g>
<path d="M21.6449 17.0994V19.9494L18.0595 20.8994L17.0352 23.2744L18.5717 24.6994V26.1244L17.0352 28.0244V29.4494L18.5717 30.8744L20.5352 31.3494L21.6449 32.2994L22.5352 36.1494L31.0352 35.6494L32.9132 34.6744V32.2994L34.4498 31.3494L37.0108 30.8744L38.0352 28.4994L36.4986 26.5994V25.1744L38.0352 23.2744L37.0108 20.4244H34.4498L32.9132 19.4744V17.0994L29.84 16.1494L28.3034 17.5744H26.7669L24.7181 16.1494L21.6449 17.0994Z" fill="#4FA83D"/>
<path fill-rule="evenodd" clip-rule="evenodd" d="M36.6144 25.9664C36.6187 26.1205 36.6187 26.2746 36.6144 26.4287L38.2024 28.418C38.2863 28.5227 38.3445 28.6456 38.3722 28.7768C38.3999 28.908 38.3963 29.0439 38.3619 29.1735C38.0999 30.1571 37.7088 31.1017 37.1987 31.9825C37.1319 32.0979 37.0391 32.1962 36.9276 32.2694C36.8161 32.3426 36.6891 32.3887 36.5566 32.4041L34.0119 32.7038C33.9092 32.8122 33.8022 32.9192 33.6909 33.0248L33.4084 35.5631C33.3931 35.6954 33.3471 35.8224 33.2741 35.9339C33.2011 36.0453 33.1031 36.1382 32.9879 36.2051C32.1073 36.7161 31.1627 37.1076 30.1789 37.3694C30.0493 37.404 29.9135 37.4077 29.7823 37.3802C29.651 37.3527 29.5281 37.2947 29.4234 37.211L27.4287 35.6144C27.2746 35.6187 27.1205 35.6187 26.9664 35.6144L24.9771 37.2024C24.8725 37.2863 24.7496 37.3445 24.6184 37.3722C24.4872 37.3999 24.3513 37.3963 24.2217 37.3619C23.2381 37.0999 22.2935 36.7088 21.4127 36.1987C21.2972 36.1319 21.199 36.0391 21.1258 35.9276C21.0526 35.8161 21.0064 35.6891 20.991 35.5566L20.6946 33.0119C20.5869 32.9092 20.4799 32.8022 20.3736 32.6909L17.8353 32.4084C17.703 32.3931 17.576 32.3471 17.4645 32.2741C17.3531 32.2011 17.2602 32.1031 17.1933 31.9879C16.6823 31.1073 16.2907 30.1627 16.029 29.1789C15.9944 29.0493 15.9907 28.9135 16.0182 28.7823C16.0457 28.651 16.1037 28.5281 16.1874 28.4234L17.7808 26.4287V25.9664L16.1927 23.9771C16.1088 23.8725 16.0507 23.7496 16.023 23.6184C15.9953 23.4872 15.9988 23.3513 16.0333 23.2217C16.2953 22.2381 16.6864 21.2935 17.1965 20.4127C17.2633 20.2972 17.3561 20.199 17.4676 20.1258C17.579 20.0526 17.7061 20.0064 17.8385 19.991L20.3832 19.6989C20.486 19.5912 20.593 19.4842 20.7043 19.3779L20.9868 16.8353C21.0021 16.703 21.048 16.576 21.121 16.4645C21.1941 16.3531 21.2921 16.2602 21.4073 16.1933C22.2881 15.6827 23.2326 15.2912 24.2163 15.029C24.3458 14.9944 24.4817 14.9907 24.6129 15.0182C24.7441 15.0457 24.8671 15.1037 24.9718 15.1874L26.9664 16.7808H27.4287L29.418 15.1927C29.5227 15.1088 29.6456 15.0507 29.7768 15.023C29.908 14.9953 30.0439 14.9988 30.1735 15.0333C31.1571 15.2953 32.1017 15.6864 32.9825 16.1965C33.0979 16.2633 33.1962 16.3561 33.2694 16.4676C33.3426 16.579 33.3887 16.7061 33.4041 16.8385L33.7038 19.3832C33.8122 19.486 33.9192 19.593 34.0248 19.7043L36.5631 19.9868C36.6954 20.0021 36.8224 20.048 36.9339 20.121C37.0453 20.1941 37.1382 20.2921 37.2051 20.4073C37.7161 21.2878 38.1076 22.2325 38.3694 23.2163C38.404 23.3458 38.4077 23.4817 38.3802 23.6129C38.3527 23.7441 38.2947 23.8671 38.211 23.9718L36.6144 25.9664ZM34.8916 26.662C34.9098 26.3527 34.9098 26.0425 34.8916 25.7332H34.8884C34.8743 25.5196 34.9407 25.3084 35.0746 25.1414L36.593 23.2431C36.4189 22.6893 36.1958 22.1521 35.9263 21.6379L33.5101 21.3693C33.2995 21.3459 33.105 21.2453 32.9643 21.0868C32.7583 20.8551 32.539 20.6358 32.3073 20.4298C32.1488 20.2891 32.0482 20.0946 32.0248 19.884L31.7508 17.4688C31.2366 17.1995 30.6994 16.9764 30.1457 16.8022L28.2441 18.3206C28.0785 18.4532 27.8695 18.5196 27.6577 18.5068C27.3484 18.4886 27.0382 18.4886 26.7289 18.5068C26.5171 18.5196 26.3081 18.4532 26.1425 18.3206L24.2441 16.8022C23.6903 16.9763 23.1532 17.1994 22.639 17.4688L22.3704 19.884C22.347 20.0952 22.2459 20.2901 22.0868 20.4308C21.8551 20.6368 21.6358 20.8562 21.4298 21.0879C21.2891 21.2464 21.0946 21.347 20.884 21.3704L18.4688 21.6443C18.1995 22.1586 17.9764 22.6957 17.8022 23.2495L19.3206 25.151C19.4532 25.3167 19.5196 25.5257 19.5068 25.7374C19.4886 26.0468 19.4886 26.3569 19.5068 26.6663C19.5196 26.8781 19.4532 27.0871 19.3206 27.2527L17.8022 29.151C17.9763 29.7048 18.1994 30.242 18.4688 30.7562L20.8851 31.0259C21.0957 31.0492 21.2902 31.1499 21.4308 31.3084C21.6368 31.54 21.8562 31.7594 22.0879 31.9654C22.2464 32.1061 22.347 32.3005 22.3704 32.5111L22.6443 34.9263C23.1586 35.1957 23.6957 35.4188 24.2495 35.593L26.1521 34.0735C26.3177 33.9409 26.5267 33.8745 26.7385 33.8873C27.0479 33.9055 27.358 33.9055 27.6674 33.8873H27.7187C27.9132 33.8871 28.1019 33.9532 28.2538 34.0746L30.1521 35.593C30.7059 35.4189 31.2431 35.1958 31.7573 34.9263L32.0259 32.5101C32.0492 32.2995 32.1499 32.105 32.3084 31.9643C32.54 31.7583 32.7594 31.539 32.9654 31.3073C33.1061 31.1488 33.3005 31.0482 33.5111 31.0248L35.9296 30.7508C36.1989 30.2366 36.422 29.6994 36.5962 29.1457L35.0778 27.2484C34.9452 27.0828 34.8788 26.8738 34.8916 26.662Z" fill="#CAE2BC"/>
<path d="M28.3953 19.9643C28.3338 19.9387 28.2671 19.9284 28.201 19.9342C28.1349 19.94 28.0713 19.9618 28.0157 19.9976C27.9601 20.0335 27.9141 20.0824 27.8817 20.1401C27.8493 20.1978 27.8315 20.2626 27.8297 20.329L27.7548 23.1415L27.0019 23.6368L26.2357 23.1502L26.0849 20.339C26.0813 20.2727 26.0617 20.2081 26.0277 20.1507C25.9938 20.0934 25.9465 20.0451 25.8899 20.0099C25.8333 19.9746 25.7692 19.9536 25.7029 19.9486C25.6367 19.9435 25.5703 19.9546 25.5095 19.9809C24.9556 20.2203 24.47 20.5925 24.0954 21.0648C23.7208 21.5371 23.4686 22.0951 23.3611 22.6898C23.2536 23.2844 23.294 23.8974 23.4788 24.4751C23.6636 25.0527 23.987 25.5772 24.4208 26.0025C24.7865 26.3622 25.222 26.6431 25.7 26.8276L25.4593 30.9033C25.4583 30.9131 25.4585 30.9233 25.4582 30.9331C25.4641 31.3686 25.6428 31.7854 25.955 32.0916C26.1096 32.2432 26.2923 32.3632 26.4927 32.4446C26.6931 32.5259 26.9072 32.5672 27.1229 32.566C27.3386 32.5647 27.5516 32.521 27.7498 32.4373C27.9479 32.3536 28.1274 32.2316 28.2778 32.0782C28.5817 31.7685 28.7491 31.3497 28.7432 30.9142C28.7431 30.9047 28.7426 30.8942 28.7417 30.8848L28.3898 26.8122C28.9593 26.5857 29.4623 26.2203 29.8531 25.7491C30.2439 25.2779 30.5103 24.7157 30.628 24.1135C30.7458 23.5114 30.7112 22.8882 30.5275 22.3004C30.3438 21.7125 30.0168 21.1787 29.5759 20.7471C29.2361 20.4127 28.8352 20.1468 28.3953 19.9643ZM29.058 25.3952C28.7186 25.7403 28.2966 25.9933 27.8315 26.1306C27.7414 26.1572 27.6634 26.214 27.6106 26.2916C27.5578 26.3691 27.5334 26.4626 27.5415 26.5565L27.9214 30.9323C27.9188 31.1464 27.8327 31.3503 27.6814 31.5007C27.53 31.651 27.3255 31.7359 27.1113 31.7371C26.8972 31.7383 26.6904 31.6559 26.535 31.5073C26.3797 31.3587 26.288 31.1558 26.2797 30.9418L26.5399 26.5644C26.5455 26.4704 26.5186 26.377 26.4636 26.3C26.4086 26.223 26.329 26.1671 26.238 26.1416C25.7162 25.9949 25.2453 25.7043 24.8793 25.3032C24.5133 24.9021 24.2672 24.4067 24.1692 23.874C24.0712 23.3414 24.1253 22.793 24.3253 22.2921C24.5254 21.7911 24.8632 21.3578 25.2999 21.0421L25.4265 23.4006C25.4301 23.4662 25.4493 23.5302 25.4827 23.5871C25.5161 23.644 25.5625 23.6921 25.6182 23.7275L26.7892 24.4709C26.8562 24.5134 26.9339 24.5358 27.013 24.5353C27.092 24.5349 27.1691 24.5116 27.2349 24.4683L28.3864 23.7109C28.4411 23.6749 28.4862 23.6262 28.5181 23.5689C28.5499 23.5116 28.5674 23.4474 28.5692 23.3818L28.632 21.0222C28.9756 21.2627 29.2633 21.5748 29.475 21.9367C29.6867 22.2986 29.8174 22.7017 29.8579 23.1178C29.8984 23.534 29.8479 23.9533 29.7098 24.3466C29.5716 24.7399 29.3492 25.0977 29.058 25.3952Z" fill="#CAE2BC"/>
<defs>
<filter id="filter0_i_114_991" x="0" y="0.850586" width="55" height="54" filterUnits="userSpaceOnUse" color-interpolation-filters="sRGB">
<feFlood flood-opacity="0" result="BackgroundImageFix"/>
<feBlend mode="normal" in="SourceGraphic" in2="BackgroundImageFix" result="shape"/>
<feColorMatrix in="SourceAlpha" type="matrix" values="0 0 0 0 0 0 0 0 0 0 0 0 0 0 0 0 0 0 127 0" result="hardAlpha"/>
<feOffset dx="2" dy="4"/>
<feGaussianBlur stdDeviation="3.5"/>
<feComposite in2="hardAlpha" operator="arithmetic" k2="-1" k3="1"/>
<feColorMatrix type="matrix" values="0 0 0 0 0 0 0 0 0 0 0 0 0 0 0 0 0 0 0.25 0"/>
<feBlend mode="normal" in2="shape" result="effect1_innerShadow_114_991"/>
</filter>
</defs>
</svg>
