<svg xmlns="http://www.w3.org/2000/svg" width="50" height="50" viewBox="0 0 50 50" fill="none"><g id="Group 45163"><g id="Rectangle 8107" filter="url(#filter0_i_4014_17207)"><rect width="50" height="50" rx="6" fill="#313432"></rect></g><g id="Group 45076"><path id="Path 46183" d="M39 23.0171V23.9468C38.9811 23.9875 38.9666 24.0301 38.9569 24.0739C38.8006 25.1477 38.2533 26.126 37.4199 26.8209C36.5865 27.5158 35.5258 27.8784 34.4414 27.8391C28.1823 27.8051 21.9233 27.8289 15.6642 27.8255C15.3549 27.8305 15.0456 27.8119 14.7391 27.7699C13.9165 27.6882 13.1376 27.3604 12.5042 26.8292C11.8708 26.298 11.4122 25.5882 11.1884 24.7925C11.1056 24.5348 11.0624 24.2658 11 23.9979V22.9592C11.0212 22.9109 11.0379 22.8608 11.05 22.8094C11.1567 21.9481 11.5323 21.1424 12.1233 20.5068C12.7142 19.8712 13.4906 19.438 14.3418 19.269C14.6926 19.1906 15.0558 19.1645 15.4122 19.1134C15.4338 18.9999 15.4542 18.8864 15.4724 18.7809C15.703 17.368 16.3708 16.0629 17.3817 15.0493C18.3927 14.0357 19.696 13.3646 21.1083 13.1302C22.486 12.8571 23.9143 13.0158 25.1984 13.5847C26.4826 14.1535 27.5599 15.1047 28.2834 16.3086C28.3178 16.3797 28.3736 16.4383 28.4431 16.4762C28.5125 16.514 28.592 16.5293 28.6704 16.5197C29.6532 16.4653 30.6329 16.6718 31.5101 17.1184C32.3873 17.5649 33.1307 18.2356 33.6649 19.0624C33.6966 19.1196 33.7468 19.1643 33.8072 19.1893C33.8677 19.2143 33.9347 19.2179 33.9975 19.1997C35.0619 19.0349 36.1495 19.272 37.0486 19.865C37.9477 20.4579 38.5939 21.3643 38.8615 22.4076C38.9149 22.6051 38.9546 22.8094 39 23.0171Z" fill="#CAE2BC"></path><path id="Path 46184" d="M29.3104 34.8789H27.4249C27.4249 35.4771 27.4317 36.0583 27.4249 36.6395C27.4402 36.8378 27.3796 37.0344 27.2552 37.1895C27.1308 37.3447 26.9521 37.4467 26.7553 37.4749C26.6524 37.4961 26.5465 37.4967 26.4434 37.4766C26.3404 37.4566 26.2423 37.4163 26.1549 37.3582C26.0675 37.3 25.9925 37.2251 25.9343 37.1378C25.876 37.0505 25.8356 36.9525 25.8154 36.8495C25.7965 36.7603 25.7866 36.6694 25.7859 36.5782C25.7859 35.157 25.7711 33.7404 25.7859 32.3158C25.7771 31.6989 25.9899 31.0994 26.3857 30.6261C26.7815 30.1529 27.3339 29.8373 27.9426 29.7368C28.3053 29.6718 28.6777 29.6861 29.0343 29.7788C29.3909 29.8716 29.7231 30.0405 30.0081 30.274C30.2932 30.5074 30.5242 30.7999 30.6854 31.1312C30.8465 31.4626 30.9339 31.8249 30.9416 32.1932C30.9881 33.6768 30.9609 35.1627 30.9518 36.6463C30.9571 36.7564 30.9397 36.8664 30.9009 36.9696C30.8621 37.0728 30.8026 37.1669 30.726 37.2462C30.6495 37.3255 30.5575 37.3884 30.4558 37.4308C30.354 37.4733 30.2447 37.4945 30.1345 37.4931C30.0224 37.4955 29.911 37.4744 29.8075 37.4311C29.704 37.3879 29.6107 37.3235 29.5336 37.242C29.4565 37.1605 29.3974 37.0638 29.3599 36.9581C29.3225 36.8524 29.3075 36.74 29.3161 36.6281C29.3058 36.0549 29.3104 35.4828 29.3104 34.8789ZM29.3025 33.2194C29.3025 32.8493 29.3252 32.5213 29.3025 32.1978C29.2847 31.963 29.1787 31.7437 29.0058 31.5838C28.8329 31.424 28.6059 31.3356 28.3705 31.3362C28.1354 31.3368 27.9093 31.4263 27.7375 31.5867C27.5656 31.7472 27.4609 31.9667 27.4443 32.2012C27.4254 32.4828 27.4254 32.7653 27.4443 33.0468C27.4443 33.1059 27.5373 33.2103 27.5895 33.2114C28.1389 33.2239 28.7065 33.2194 29.3025 33.2194Z" fill="#59A52C"></path><path id="Path 46185" d="M22.5393 34.8757H20.6687C20.6687 34.9722 20.6687 35.0687 20.6687 35.164C20.6687 35.6555 20.6778 36.1481 20.6687 36.6397C20.6737 36.7517 20.6556 36.8637 20.6155 36.9685C20.5754 37.0733 20.5141 37.1686 20.4355 37.2487C20.3569 37.3288 20.2627 37.3918 20.1587 37.4339C20.0547 37.476 19.9431 37.4962 19.831 37.4933C19.721 37.4936 19.6123 37.4712 19.5115 37.4273C19.4107 37.3835 19.3201 37.3192 19.2454 37.2386C19.1707 37.1579 19.1136 37.0626 19.0776 36.9588C19.0416 36.8549 19.0276 36.7447 19.0364 36.6351C19.0364 35.1685 19.0205 33.702 19.0364 32.2354C19.0424 31.5575 19.3166 30.9096 19.799 30.4333C20.2815 29.957 20.9329 29.6911 21.6108 29.6939C22.2932 29.6963 22.9469 29.969 23.4286 30.4524C23.9103 30.9358 24.1808 31.5904 24.1808 32.2729C24.191 33.7213 24.1808 35.1697 24.1808 36.6181C24.1899 36.73 24.1756 36.8426 24.1389 36.9487C24.1021 37.0548 24.0436 37.1521 23.9671 37.2343C23.8906 37.3166 23.7978 37.382 23.6947 37.4264C23.5915 37.4707 23.4803 37.4931 23.368 37.4921C23.2558 37.4942 23.1444 37.4731 23.0407 37.43C22.9371 37.3869 22.8435 37.3228 22.7659 37.2418C22.6883 37.1607 22.6283 37.0645 22.5897 36.9591C22.5511 36.8537 22.5347 36.7415 22.5416 36.6295C22.5348 36.054 22.5393 35.4694 22.5393 34.8757ZM22.5393 33.2048C22.5393 32.9267 22.5393 32.6656 22.5393 32.4034C22.5426 32.3125 22.5393 32.2214 22.5292 32.131C22.493 31.9139 22.3828 31.7162 22.2172 31.5713C22.0517 31.4264 21.841 31.3434 21.6211 31.3364C21.4044 31.3294 21.1924 31.4002 21.0233 31.5359C20.8543 31.6717 20.7393 31.8634 20.6993 32.0765C20.6749 32.4517 20.6719 32.8281 20.6903 33.2037L22.5393 33.2048Z" fill="#59A52C"></path><path id="Path 46186" d="M14.9973 37.5001C14.8055 37.5001 14.6136 37.5081 14.4229 37.5001C14.206 37.4971 13.9992 37.4081 13.8479 37.2528C13.6966 37.0974 13.6131 36.8883 13.6158 36.6715C13.6154 36.5641 13.6363 36.4577 13.6776 36.3586C13.7188 36.2594 13.7794 36.1695 13.8559 36.0941C13.9323 36.0187 14.023 35.9593 14.1228 35.9195C14.2225 35.8797 14.3292 35.8601 14.4365 35.8621C14.7771 35.8542 15.1108 35.8621 15.4479 35.8621C15.5478 35.87 15.6483 35.8575 15.7431 35.8252C15.838 35.793 15.9253 35.7417 15.9997 35.6745C16.0741 35.6074 16.134 35.5258 16.1757 35.4347C16.2175 35.3436 16.2402 35.2449 16.2425 35.1447C16.2421 35.044 16.2205 34.9444 16.1794 34.8525C16.1383 34.7605 16.0784 34.6781 16.0036 34.6106C15.9289 34.543 15.8408 34.4919 15.7451 34.4603C15.6494 34.4288 15.5482 34.4176 15.4479 34.4273C14.9645 34.4511 14.4818 34.3658 14.0358 34.1776C13.5876 33.9554 13.2224 33.5954 12.9936 33.1505C12.7648 32.7056 12.6845 32.1992 12.7645 31.7053C12.8233 31.2071 13.0483 30.7432 13.4032 30.3886C13.758 30.0339 14.2221 29.8092 14.7203 29.7506C15.2185 29.701 15.7196 29.6866 16.2198 29.7075C16.4322 29.7149 16.6333 29.8049 16.7802 29.9585C16.9272 30.112 17.0083 30.3168 17.0064 30.5293C17.0055 30.6367 16.9834 30.7429 16.9414 30.8418C16.8993 30.9406 16.8381 31.0302 16.7613 31.1053C16.6845 31.1804 16.5936 31.2396 16.4939 31.2794C16.3941 31.3193 16.2875 31.339 16.1801 31.3375C15.8157 31.3455 15.4513 31.3319 15.087 31.3455C14.9391 31.3418 14.794 31.3858 14.6731 31.4711C14.5523 31.5564 14.4622 31.6783 14.4161 31.8188C14.3579 31.9502 14.3459 32.0974 14.3819 32.2365C14.418 32.3756 14.5 32.4985 14.6147 32.585C14.7988 32.6927 15.0041 32.759 15.2164 32.7792C15.604 32.811 15.9889 32.8694 16.3685 32.954C16.8453 33.1228 17.2517 33.4465 17.5229 33.8735C17.7941 34.3005 17.9145 34.806 17.8646 35.3093C17.8412 35.8332 17.637 36.3329 17.2869 36.7234C16.9368 37.1138 16.4623 37.3711 15.944 37.4513C15.6307 37.499 15.3094 37.5035 14.9927 37.5285L14.9973 37.5001Z" fill="#59A52C"></path><path id="Path 46187" d="M34.3752 37.5001C34.1743 37.5001 33.9734 37.5092 33.7736 37.5001C33.5568 37.496 33.3505 37.406 33.1999 37.2501C33.0493 37.0942 32.9666 36.8849 32.9699 36.6681C32.9707 36.5608 32.9927 36.4548 33.0346 36.3561C33.0766 36.2574 33.1377 36.168 33.2145 36.093C33.2912 36.0181 33.382 35.9591 33.4817 35.9195C33.5814 35.8798 33.6879 35.8604 33.7951 35.8622C34.1357 35.8542 34.4694 35.8622 34.8066 35.8622C34.9066 35.8696 35.0072 35.8566 35.1021 35.8239C35.1969 35.7913 35.2842 35.7397 35.3585 35.6723C35.4328 35.6049 35.4927 35.523 35.5344 35.4318C35.5761 35.3405 35.5988 35.2417 35.6011 35.1414C35.5937 34.9437 35.5084 34.7571 35.3637 34.6222C35.2191 34.4874 35.0269 34.4153 34.8293 34.4217C34.4123 34.4119 33.9979 34.354 33.5942 34.2492C33.0955 34.0705 32.6751 33.723 32.4056 33.2669C32.1361 32.8109 32.0346 32.2749 32.1186 31.7519C32.168 31.2483 32.3866 30.7763 32.7387 30.4128C33.0908 30.0494 33.5556 29.816 34.0574 29.7507C34.5645 29.6982 35.0748 29.683 35.5841 29.7053C35.7966 29.7135 35.9975 29.8044 36.144 29.9585C36.2905 30.1127 36.371 30.3179 36.3685 30.5305C36.3643 30.7474 36.2744 30.9538 36.1185 31.1046C35.9626 31.2554 35.7533 31.3383 35.5364 31.3353C35.1959 31.3433 34.8622 31.3353 34.525 31.3353C34.4244 31.3257 34.3229 31.3372 34.227 31.369C34.1311 31.4009 34.0429 31.4525 33.968 31.5205C33.8932 31.5885 33.8334 31.6713 33.7925 31.7637C33.7516 31.8562 33.7305 31.9562 33.7305 32.0573C33.73 32.1582 33.7509 32.2582 33.7918 32.3505C33.8326 32.4428 33.8925 32.5255 33.9675 32.5931C34.0425 32.6607 34.1309 32.7118 34.227 32.7428C34.3231 32.7739 34.4246 32.7844 34.525 32.7735C35.1945 32.7109 35.8627 32.9048 36.3946 33.3161C36.7542 33.6099 37.0167 34.0056 37.1476 34.4513C37.2784 34.8969 37.2715 35.3717 37.1279 35.8134C37.0232 36.2427 36.7891 36.6295 36.4574 36.9214C36.1256 37.2134 35.7122 37.3964 35.2731 37.4457C34.9779 37.4956 34.6749 37.4956 34.3764 37.5183L34.3752 37.5001Z" fill="#59A52C"></path></g></g><defs><filter id="filter0_i_4014_17207" x="0" y="0" width="52" height="54" color-interpolation-filters="sRGB"><feGaussianBlur stdDeviation="3.5"></feGaussianBlur></filter></defs></svg>