<svg xmlns="http://www.w3.org/2000/svg" width="111" height="132" viewBox="0 0 111 132" fill="none"><g clip-path="url(#clip0_1775_15373)"><path d="M104.171 106.883V9.64581L56.6112 0.770975C55.7569 0.611571 54.8805 0.612334 54.0265 0.773226L6.93359 9.64581V106.883L54.6034 130.383C55.9351 131.039 57.4995 131.024 58.8182 130.342L104.171 106.883Z" fill="url(#paint0_linear_1775_15373)"></path><path d="M101.134 104.7V12.6843L56.7072 4.50338C55.8676 4.34878 55.0069 4.34878 54.1673 4.50338L9.74023 12.6843V104.78L54.6463 126.227C55.9557 126.853 57.4811 126.834 58.7752 126.178L101.134 104.7Z" fill="#1C211A"></path><g opacity="0.2" filter="url(#filter0_f_1775_15373)"><ellipse cx="55.7886" cy="63.1734" rx="39.9703" ry="41.6065" fill="#59A52C"></ellipse></g><g filter="url(#filter1_d_1775_15373)"><path d="M54.1873 4.50258L44.332 6.31081V25.4415L55.4575 31.8513L66.7715 25.4415V6.36069L56.7273 4.50423C55.8878 4.34907 55.027 4.34851 54.1873 4.50258Z" fill="url(#paint1_linear_1775_15373)"></path></g><path fill-rule="evenodd" clip-rule="evenodd" d="M54.3169 10.7976H56.117C56.2077 10.7976 56.2812 10.8711 56.2812 10.9618V10.9944C56.2812 11.0789 56.2493 11.1604 56.1918 11.2225L50.4822 17.3953C50.3634 17.5238 50.3631 17.722 50.4816 17.8508L54.9495 22.7079C55.0668 22.8354 55.0679 23.0312 54.952 23.16L54.2317 23.9607C54.1076 24.0987 53.8952 24.1099 53.7572 23.9858C53.7495 23.9788 53.7421 23.9715 53.7351 23.9639L48.093 17.8504C47.9743 17.7218 47.9742 17.5237 48.0928 17.395L54.0698 10.9059C54.1334 10.8369 54.223 10.7976 54.3169 10.7976Z" fill="url(#paint2_linear_1775_15373)"></path><path fill-rule="evenodd" clip-rule="evenodd" d="M56.5591 25.2412H54.7691C54.6771 25.2412 54.6025 25.1666 54.6025 25.0746V25.0366C54.6025 24.9538 54.6331 24.8738 54.6885 24.8122L60.4021 18.4497C60.5166 18.3221 60.5167 18.1288 60.4023 18.0011L55.9321 13.0118C55.8183 12.8849 55.8177 12.6929 55.9306 12.5652L56.6511 11.7499C56.774 11.6108 56.9863 11.5977 57.1253 11.7206C57.1348 11.729 57.1437 11.7378 57.1522 11.7472L62.7982 18.0011C62.9133 18.1287 62.9137 18.3226 62.7989 18.4505L56.8092 25.1296C56.7454 25.2006 56.6545 25.2412 56.5591 25.2412Z" fill="url(#paint3_linear_1775_15373)"></path><path fill-rule="evenodd" clip-rule="evenodd" d="M55.5001 21.2118C56.7479 21.2118 57.7322 19.8341 57.6155 18.3609C57.5636 17.7055 57.1584 16.5322 57.0211 16.741C56.9532 16.8441 57.1071 17.6491 57.0567 18.1415C56.9729 18.9601 56.6571 19.4586 56.4958 19.1672C56.3344 18.8757 56.3898 18.3005 56.3506 17.6951C56.3081 17.0386 56.1974 16.3848 56.0598 15.9793C55.9998 15.8024 55.435 14.2992 55.0277 14.1572C55.0013 14.1572 54.9847 14.1572 54.9779 14.1572C54.9648 14.1572 54.9274 14.1698 54.9046 14.1897C54.8149 14.2681 54.9499 14.7841 54.576 15.4126C54.3306 15.8251 53.8525 16.363 53.618 16.8912C53.3007 17.6063 53.244 18.3071 53.2603 18.6771C53.3315 20.2914 54.2522 21.2118 55.5001 21.2118Z" fill="url(#paint4_linear_1775_15373)"></path><path d="M28.0433 52.4761V39.2281H30.873V50.3105H36.5872V52.4761H28.0433ZM37.5516 47.8811V47.59C37.5516 46.1281 37.9945 44.9543 38.8801 44.0687C39.7718 43.177 40.9152 42.7311 42.3104 42.7311C43.7055 42.7311 44.8004 43.1497 45.5951 43.9868C46.3897 44.8178 46.787 45.9673 46.787 47.4353V48.3907H39.3714V46.7256H44.0756V46.5345C44.0756 46.0189 43.9209 45.5852 43.6115 45.2333C43.3082 44.8815 42.8715 44.7056 42.3013 44.7056C41.6401 44.7056 41.1396 44.9513 40.8 45.4426C40.4603 45.9279 40.2904 46.5891 40.2904 47.4262V48.0085C40.2904 48.8456 40.4724 49.5098 40.8363 50.0012C41.2064 50.4864 41.7523 50.7291 42.4742 50.7291C42.9716 50.7291 43.4022 50.6078 43.7662 50.3651C44.1302 50.1164 44.4243 49.8313 44.6488 49.5098L46.6233 50.6927C46.32 51.2932 45.8104 51.7876 45.0946 52.1758C44.3789 52.558 43.5205 52.749 42.5196 52.749C40.9728 52.749 39.7566 52.3062 38.871 51.4206C37.9914 50.5289 37.5516 49.3491 37.5516 47.8811ZM47.9608 49.6918C47.9608 48.6485 48.3642 47.8599 49.1709 47.3261C49.9838 46.7923 51.0089 46.5254 52.2464 46.5254H54.139V45.9886C54.139 45.5639 54.0298 45.2212 53.8114 44.9604C53.593 44.6995 53.2109 44.5691 52.6649 44.5691C52.119 44.5691 51.7308 44.6783 51.5003 44.8967C51.2698 45.109 51.1545 45.3759 51.1545 45.6974V45.843H48.4703V45.6883C48.4703 44.833 48.8676 44.1293 49.6623 43.5773C50.463 43.0193 51.5033 42.7402 52.7832 42.7402C54.0753 42.7402 55.0792 43.0071 55.795 43.5409C56.5168 44.0687 56.8777 44.8906 56.8777 46.0068V50.3469C56.8777 50.7291 56.9111 51.0961 56.9778 51.4479C57.0506 51.7937 57.1477 52.0879 57.269 52.3305V52.4761H54.5666C54.4938 52.3366 54.4271 52.1546 54.3664 51.9301C54.3118 51.7057 54.2754 51.4843 54.2572 51.2659C54.0692 51.6238 53.7143 51.9453 53.1927 52.2304C52.671 52.5094 52.0189 52.649 51.2364 52.649C50.3022 52.649 49.5228 52.4033 48.898 51.9119C48.2732 51.4206 47.9608 50.6806 47.9608 49.6918ZM50.7087 49.4552C50.7087 49.8677 50.8269 50.2013 51.0635 50.4561C51.3062 50.7048 51.6853 50.8292 52.2009 50.8292C52.7529 50.8292 53.2139 50.6533 53.5839 50.3014C53.9539 49.9435 54.139 49.522 54.139 49.0367V48.1541H52.6922C52.0189 48.1541 51.5185 48.2663 51.1909 48.4908C50.8694 48.7091 50.7087 49.0306 50.7087 49.4552ZM58.6975 47.8902V47.5991C58.6975 46.1857 59.0766 45.0392 59.8349 44.1597C60.5992 43.274 61.591 42.8312 62.8102 42.8312C63.4107 42.8312 63.9294 42.9374 64.3661 43.1497C64.8089 43.362 65.1517 43.641 65.3943 43.9868V38.6184H68.124V52.4761H65.5126L65.458 51.3569H65.4216C65.2154 51.733 64.8787 52.0454 64.4116 52.2941C63.9506 52.5367 63.4168 52.6581 62.8102 52.6581C61.5364 52.6581 60.5325 52.2152 59.7985 51.3296C59.0645 50.444 58.6975 49.2975 58.6975 47.8902ZM61.5 47.9994C61.5 48.7759 61.6668 49.4067 62.0004 49.892C62.3401 50.3712 62.8405 50.6108 63.5017 50.6108C63.9627 50.6108 64.351 50.4864 64.6664 50.2377C64.9879 49.989 65.2245 49.6918 65.3761 49.346V46.1341C65.2305 45.7823 65.003 45.4851 64.6937 45.2424C64.3843 44.9937 63.99 44.8694 63.5108 44.8694C62.8496 44.8694 62.3492 45.112 62.0095 45.5973C61.6698 46.0826 61.5 46.7104 61.5 47.4808V47.9994ZM69.8892 47.8811V47.59C69.8892 46.1281 70.332 44.9543 71.2176 44.0687C72.1093 43.177 73.2527 42.7311 74.6479 42.7311C76.0431 42.7311 77.138 43.1497 77.9326 43.9868C78.7272 44.8178 79.1246 45.9673 79.1246 47.4353V48.3907H71.7089V46.7256H76.4131V46.5345C76.4131 46.0189 76.2584 45.5852 75.949 45.2333C75.6457 44.8815 75.209 44.7056 74.6388 44.7056C73.9776 44.7056 73.4772 44.9513 73.1375 45.4426C72.7978 45.9279 72.6279 46.5891 72.6279 47.4262V48.0085C72.6279 48.8456 72.8099 49.5098 73.1739 50.0012C73.5439 50.4864 74.0898 50.7291 74.8117 50.7291C75.3091 50.7291 75.7398 50.6078 76.1037 50.3651C76.4677 50.1164 76.7619 49.8313 76.9863 49.5098L78.9608 50.6927C78.6575 51.2932 78.1479 51.7876 77.4322 52.1758C76.7164 52.558 75.858 52.749 74.8572 52.749C73.3104 52.749 72.0941 52.3062 71.2085 51.4206C70.3289 50.5289 69.8892 49.3491 69.8892 47.8811ZM80.7715 52.4761V43.0132H83.4101L83.4647 44.0687H83.5102C83.7043 43.7108 83.9712 43.4045 84.3109 43.1497C84.6567 42.8889 85.0449 42.7584 85.4756 42.7584C85.603 42.7584 85.7334 42.7736 85.8668 42.8039C86.0003 42.8343 86.0943 42.8616 86.1489 42.8858V45.2151C86.0397 45.1848 85.9214 45.1636 85.7941 45.1515C85.6727 45.1333 85.5393 45.1242 85.3937 45.1242C84.9812 45.1242 84.6082 45.2485 84.2745 45.4972C83.9409 45.7398 83.6952 46.0522 83.5375 46.4344V52.4761H80.7715Z" fill="url(#paint5_linear_1775_15373)"></path><path d="M38.8043 98.4542L36.9449 90.7261H38.3342L39.5491 96.1881C39.5738 96.3078 39.5931 96.4117 39.6072 96.4997C39.6248 96.5878 39.6407 96.6917 39.6548 96.8114H39.7129C39.727 96.6917 39.7393 96.5878 39.7499 96.4997C39.7639 96.4117 39.7868 96.3078 39.8185 96.1881L41.1286 90.7261H42.671L44.018 96.1775C44.0497 96.3008 44.0708 96.4082 44.0814 96.4997C44.0955 96.5878 44.1096 96.6917 44.1237 96.8114H44.1818C44.1959 96.6881 44.2099 96.5825 44.224 96.4944C44.2381 96.4064 44.2575 96.3008 44.2821 96.1775L45.4654 90.7261H46.6962L44.8526 98.4542H43.3472L41.979 93.0081C41.9508 92.8848 41.9262 92.7704 41.9051 92.6647C41.8839 92.5555 41.8663 92.4411 41.8522 92.3214H41.7941C41.7765 92.4411 41.7572 92.5538 41.736 92.6594C41.7184 92.7651 41.6955 92.8795 41.6674 93.0028L40.2887 98.4489L38.8043 98.4542ZM47.8055 98.4172V90.7261H49.1842V98.4172H47.8055ZM50.9432 98.4172V90.7261H52.4329L55.5653 95.8025C55.6287 95.9081 55.6886 96.019 55.7449 96.1352C55.8013 96.2515 55.8506 96.3589 55.8928 96.4575H55.9404C55.9333 96.3448 55.9263 96.2127 55.9192 96.0613C55.9157 95.9099 55.914 95.7778 55.914 95.6651V90.7261H57.1395V98.4172H55.6393L52.5068 93.3514C52.4399 93.2458 52.38 93.1401 52.3272 93.0345C52.2744 92.9288 52.2286 92.8267 52.1899 92.7281H52.1423C52.1494 92.8408 52.1547 92.9623 52.1582 93.0926C52.1652 93.2194 52.1687 93.3391 52.1687 93.4518V98.4172H50.9432ZM58.0903 91.7826V90.7261H64.3763V91.7826H61.9253V98.4172H60.5413V91.7826H58.0903ZM65.3747 98.4172V90.7261H70.5831V91.7826H66.7534V93.9272H70.0919V94.9784H66.7534V97.3608H70.6412V98.4172H65.3747ZM71.872 98.4172V90.7261H74.6242C75.5292 90.7261 76.23 90.9391 76.7266 91.3653C77.2231 91.7878 77.4714 92.3619 77.4714 93.0873C77.4714 93.8128 77.2231 94.3938 76.7266 94.8305C76.23 95.2672 75.5292 95.4855 74.6242 95.4855H73.2507V98.4172H71.872ZM73.2507 94.4449H74.6083C75.1577 94.4449 75.5415 94.3163 75.7599 94.0593C75.9782 93.7987 76.0891 93.4764 76.0927 93.0926C76.0927 92.7052 75.9835 92.3883 75.7652 92.1418C75.5468 91.8953 75.1612 91.772 74.6083 91.772H73.2507V94.4449ZM76.2564 98.4172L74.4023 94.8675L75.855 94.7671L77.8147 98.4172H76.2564ZM45.3597 111.417V110.509L48.207 107.556C48.538 107.211 48.7915 106.899 48.9676 106.621C49.1437 106.343 49.2317 106.049 49.2317 105.739C49.2317 105.425 49.1278 105.163 48.9201 104.952C48.7158 104.74 48.4271 104.635 48.0538 104.635C47.6734 104.635 47.3618 104.756 47.1188 104.999C46.8758 105.242 46.7508 105.589 46.7437 106.04V106.124H45.3492V106.029C45.3492 105.304 45.6027 104.712 46.1098 104.254C46.617 103.797 47.2649 103.568 48.0538 103.568C48.8567 103.568 49.4853 103.774 49.9396 104.186C50.3974 104.594 50.628 105.092 50.6316 105.681C50.6316 106.177 50.496 106.624 50.2248 107.022C49.9537 107.42 49.6121 107.829 49.2 108.248L47.161 110.318H50.8217V111.417H45.3597ZM51.5877 108.808V106.336C51.5877 105.508 51.8183 104.841 52.2797 104.334C52.741 103.823 53.3995 103.568 54.2553 103.568C55.1005 103.568 55.7555 103.821 56.2203 104.328C56.6887 104.835 56.9229 105.504 56.9229 106.336V108.808C56.9229 109.639 56.6887 110.308 56.2203 110.815C55.7555 111.322 55.1005 111.576 54.2553 111.576C53.3995 111.576 52.741 111.322 52.2797 110.815C51.8183 110.308 51.5877 109.639 51.5877 108.808ZM53.0034 108.892C53.0034 109.364 53.1002 109.752 53.2939 110.054C53.4911 110.357 53.8116 110.509 54.2553 110.509C54.6955 110.509 55.0142 110.357 55.2114 110.054C55.4086 109.752 55.5072 109.364 55.5072 108.892V106.251C55.5072 105.779 55.4086 105.392 55.2114 105.089C55.0142 104.786 54.6955 104.635 54.2553 104.635C53.8116 104.635 53.4911 104.786 53.2939 105.089C53.1002 105.392 53.0034 105.779 53.0034 106.251V108.892ZM57.7839 111.417V110.509L60.6311 107.556C60.9622 107.211 61.2157 106.899 61.3918 106.621C61.5679 106.343 61.6559 106.049 61.6559 105.739C61.6559 105.425 61.552 105.163 61.3442 104.952C61.14 104.74 60.8512 104.635 60.4779 104.635C60.0976 104.635 59.7859 104.756 59.543 104.999C59.3 105.242 59.1749 105.589 59.1679 106.04V106.124H57.7734V106.029C57.7734 105.304 58.0269 104.712 58.534 104.254C59.0411 103.797 59.6891 103.568 60.4779 103.568C61.2809 103.568 61.9095 103.774 62.3637 104.186C62.8216 104.594 63.0522 105.092 63.0557 105.681C63.0557 106.177 62.9202 106.624 62.649 107.022C62.3778 107.42 62.0362 107.829 61.6242 108.248L59.5852 110.318H63.2459V111.417H57.7839ZM63.8587 109.336V109.262H65.2374V109.331C65.2374 109.708 65.3571 110 65.5966 110.208C65.8396 110.415 66.1759 110.519 66.6055 110.519C67.0175 110.519 67.3468 110.415 67.5933 110.208C67.8398 109.996 67.9631 109.669 67.9631 109.225C67.9631 108.795 67.8222 108.473 67.5405 108.258C67.2623 108.04 66.8855 107.931 66.4101 107.931H65.6969V106.906H66.3572C66.7869 106.906 67.1197 106.802 67.3556 106.594C67.5915 106.387 67.7095 106.096 67.7095 105.723C67.7095 105.353 67.6074 105.078 67.4031 104.899C67.2024 104.716 66.933 104.624 66.5949 104.624C66.2322 104.624 65.947 104.716 65.7392 104.899C65.5314 105.082 65.4275 105.348 65.4275 105.696V105.755H64.0488V105.696C64.0488 105.108 64.2813 104.606 64.7461 104.191C65.211 103.775 65.8308 103.568 66.6055 103.568C67.4049 103.568 68.0229 103.761 68.4596 104.149C68.8963 104.536 69.1146 105.022 69.1146 105.607C69.1146 105.976 69.0143 106.32 68.8135 106.637C68.6163 106.954 68.3064 107.198 67.8838 107.371V107.392C68.3381 107.501 68.7009 107.721 68.972 108.052C69.2432 108.38 69.3788 108.783 69.3788 109.262C69.3788 109.98 69.1199 110.546 68.6022 110.958C68.0846 111.37 67.4172 111.576 66.6002 111.576C65.7339 111.576 65.0595 111.366 64.5771 110.947C64.0981 110.528 63.8587 109.991 63.8587 109.336Z" fill="url(#paint6_linear_1775_15373)"></path><g filter="url(#filter2_i_1775_15373)"><path d="M104.17 80.9374L106.44 80.7109L104.17 83.9761V80.9374Z" fill="url(#paint7_linear_1775_15373)"></path></g><g filter="url(#filter3_i_1775_15373)"><path d="M4.21484 80.7437L6.93235 80.9372V83.7421L4.21484 80.7437Z" fill="url(#paint8_linear_1775_15373)"></path></g><path d="M4.44531 63.7603C4.44531 63.0412 4.44531 62.6816 4.6326 62.4322C4.6856 62.3616 4.74832 62.2989 4.81891 62.2459C5.06836 62.0586 5.4279 62.0586 6.14697 62.0586H105.124C105.843 62.0586 106.202 62.0586 106.452 62.2459C106.522 62.2989 106.585 62.3616 106.638 62.4322C106.825 62.6816 106.825 63.0412 106.825 63.7603V80.3748C106.825 80.7343 106.825 80.9141 106.732 81.0388C106.705 81.0741 106.674 81.1055 106.639 81.132C106.514 81.2256 106.334 81.2256 105.974 81.2256H5.29614C4.9366 81.2256 4.75683 81.2256 4.63211 81.132C4.59682 81.1055 4.56546 81.0741 4.53896 81.0388C4.44531 80.9141 4.44531 80.7343 4.44531 80.3748V63.7603Z" fill="url(#paint9_linear_1775_15373)"></path><path d="M22.2309 75.4869C21.7332 75.4869 21.2933 75.4003 20.911 75.2272C20.536 75.0541 20.2403 74.8125 20.0239 74.5024C19.8075 74.1923 19.6922 73.8461 19.6777 73.4638H20.4783C20.5143 73.8317 20.6766 74.1562 20.9651 74.4375C21.2536 74.7115 21.6755 74.8486 22.2309 74.8486C22.7429 74.8486 23.1468 74.7188 23.4425 74.4591C23.7454 74.1923 23.8969 73.8569 23.8969 73.453C23.8969 73.1285 23.8139 72.8688 23.6481 72.6741C23.4822 72.4722 23.2766 72.3243 23.0314 72.2305C22.7862 72.1296 22.4472 72.0214 22.0145 71.906C21.5096 71.769 21.1094 71.6355 20.8137 71.5057C20.5179 71.3759 20.2655 71.174 20.0564 70.8999C19.8472 70.6258 19.7426 70.2544 19.7426 69.7856C19.7426 69.3961 19.8436 69.05 20.0455 68.747C20.2475 68.4369 20.5324 68.1953 20.9002 68.0222C21.268 67.8491 21.6899 67.7626 22.1659 67.7626C22.8655 67.7626 23.4281 67.9357 23.8536 68.2819C24.2863 68.6208 24.5352 69.0608 24.6001 69.6017H23.7779C23.7274 69.2916 23.5579 69.0175 23.2694 68.7795C22.9809 68.5343 22.5915 68.4117 22.101 68.4117C21.6467 68.4117 21.268 68.5343 20.9651 68.7795C20.6622 69.0175 20.5107 69.3457 20.5107 69.764C20.5107 70.0813 20.5937 70.3373 20.7596 70.5321C20.9254 70.7268 21.131 70.8746 21.3762 70.9756C21.6286 71.0766 21.9676 71.1848 22.3931 71.3002C22.8836 71.4372 23.2802 71.5742 23.5831 71.7113C23.8861 71.8411 24.1421 72.043 24.3512 72.3171C24.5604 72.5912 24.665 72.959 24.665 73.4206C24.665 73.774 24.5712 74.1093 24.3837 74.4267C24.1962 74.744 23.9185 75 23.5507 75.1948C23.1829 75.3895 22.7429 75.4869 22.2309 75.4869ZM29.0925 75.4869C28.393 75.4869 27.7583 75.3246 27.1885 75C26.6188 74.6683 26.168 74.2103 25.8362 73.6261C25.5117 73.0347 25.3494 72.3676 25.3494 71.6247C25.3494 70.8819 25.5117 70.2183 25.8362 69.6341C26.168 69.0427 26.6188 68.5848 27.1885 68.2602C27.7583 67.9285 28.393 67.7626 29.0925 67.7626C29.7993 67.7626 30.4376 67.9285 31.0074 68.2602C31.5772 68.5848 32.0243 69.0427 32.3489 69.6341C32.6734 70.2183 32.8357 70.8819 32.8357 71.6247C32.8357 72.3676 32.6734 73.0347 32.3489 73.6261C32.0243 74.2103 31.5772 74.6683 31.0074 75C30.4376 75.3246 29.7993 75.4869 29.0925 75.4869ZM29.0925 74.8269C29.6551 74.8269 30.16 74.6971 30.6071 74.4375C31.0543 74.1778 31.4077 73.8064 31.6673 73.3232C31.9269 72.8328 32.0568 72.2666 32.0568 71.6247C32.0568 70.9828 31.9269 70.4203 31.6673 69.9371C31.4077 69.4538 31.0543 69.0824 30.6071 68.8228C30.16 68.5631 29.6551 68.4333 29.0925 68.4333C28.53 68.4333 28.0251 68.5631 27.578 68.8228C27.1308 69.0824 26.7774 69.4538 26.5178 69.9371C26.2581 70.4203 26.1283 70.9828 26.1283 71.6247C26.1283 72.2666 26.2581 72.8328 26.5178 73.3232C26.7774 73.8064 27.1308 74.1778 27.578 74.4375C28.0251 74.6971 28.53 74.8269 29.0925 74.8269ZM34.5135 67.8491V72.6092C34.5135 73.3593 34.6902 73.9146 35.0436 74.2752C35.4042 74.6358 35.8946 74.8161 36.5148 74.8161C37.1351 74.8161 37.6183 74.6394 37.9645 74.286C38.3179 73.9254 38.4946 73.3665 38.4946 72.6092V67.8491H39.2519V72.5984C39.2519 73.5576 38.9958 74.2788 38.4838 74.762C37.9789 75.2453 37.319 75.4869 36.504 75.4869C35.689 75.4869 35.0255 75.2453 34.5135 74.762C34.0086 74.2788 33.7562 73.5576 33.7562 72.5984V67.8491H34.5135ZM44.5327 75.4111L42.6611 72.2522H41.2655V75.4111H40.5082V67.8491H42.7801C43.6239 67.8491 44.2622 68.0511 44.6949 68.4549C45.1349 68.8588 45.3549 69.3889 45.3549 70.0452C45.3549 70.5934 45.1962 71.0622 44.8788 71.4516C44.5687 71.8339 44.1071 72.0827 43.4941 72.1981L45.4414 75.4111H44.5327ZM41.2655 71.6355H42.7909C43.3823 71.6355 43.8259 71.4913 44.1216 71.2028C44.4245 70.9143 44.5759 70.5285 44.5759 70.0452C44.5759 69.5476 44.4317 69.1654 44.1432 68.8985C43.8547 68.6244 43.4003 68.4874 42.7801 68.4874H41.2655V71.6355ZM46.0788 71.6247C46.0788 70.8819 46.241 70.2183 46.5656 69.6341C46.8901 69.0427 47.3337 68.5848 47.8962 68.2602C48.4588 67.9285 49.0862 67.7626 49.7786 67.7626C50.6225 67.7626 51.3437 67.9645 51.9423 68.3684C52.5481 68.7651 52.9881 69.3276 53.2621 70.0561H52.375C52.1587 69.544 51.8269 69.1437 51.3797 68.8552C50.9398 68.5667 50.4061 68.4225 49.7786 68.4225C49.2233 68.4225 48.722 68.5523 48.2749 68.812C47.8349 69.0716 47.4887 69.4466 47.2363 69.9371C46.9839 70.4203 46.8577 70.9828 46.8577 71.6247C46.8577 72.2666 46.9839 72.8292 47.2363 73.3124C47.4887 73.7956 47.8349 74.167 48.2749 74.4267C48.722 74.6863 49.2233 74.8161 49.7786 74.8161C50.4061 74.8161 50.9398 74.6755 51.3797 74.3942C51.8269 74.1057 52.1587 73.709 52.375 73.2042H53.2621C52.9881 73.9254 52.5481 74.4844 51.9423 74.881C51.3365 75.2777 50.6152 75.476 49.7786 75.476C49.0862 75.476 48.4588 75.3138 47.8962 74.9892C47.3337 74.6575 46.8901 74.1995 46.5656 73.6153C46.241 73.0311 46.0788 72.3676 46.0788 71.6247ZM55.0957 68.4658V71.2894H57.9625V71.9168H55.0957V74.7837H58.2871V75.4111H54.3384V67.8383H58.2871V68.4658H55.0957ZM65.1343 67.8599V69.0824H61.9862V71.0189H64.3987V72.2197H61.9862V75.4111H60.4716V67.8599H65.1343ZM69.2807 75.4869C68.5739 75.4869 67.9248 75.321 67.3334 74.9892C66.742 74.6575 66.2732 74.1995 65.927 73.6153C65.5808 73.0239 65.4077 72.3568 65.4077 71.6139C65.4077 70.8783 65.5808 70.2183 65.927 69.6341C66.2732 69.0427 66.742 68.5812 67.3334 68.2494C67.9248 67.9176 68.5739 67.7518 69.2807 67.7518C69.9947 67.7518 70.6438 67.9176 71.228 68.2494C71.8194 68.5812 72.2846 69.0427 72.6235 69.6341C72.9697 70.2183 73.1428 70.8783 73.1428 71.6139C73.1428 72.3568 72.9697 73.0239 72.6235 73.6153C72.2846 74.1995 71.8194 74.6575 71.228 74.9892C70.6366 75.321 69.9875 75.4869 69.2807 75.4869ZM69.2807 74.1346C69.7351 74.1346 70.1353 74.0336 70.4815 73.8317C70.8277 73.6225 71.0982 73.3268 71.2929 72.9446C71.4876 72.5623 71.585 72.1188 71.585 71.6139C71.585 71.109 71.4876 70.6691 71.2929 70.2941C71.0982 69.9118 70.8277 69.6197 70.4815 69.4178C70.1353 69.2158 69.7351 69.1149 69.2807 69.1149C68.8263 69.1149 68.4224 69.2158 68.069 69.4178C67.7228 69.6197 67.4524 69.9118 67.2577 70.2941C67.0629 70.6691 66.9656 71.109 66.9656 71.6139C66.9656 72.1188 67.0629 72.5623 67.2577 72.9446C67.4524 73.3268 67.7228 73.6225 68.069 73.8317C68.4224 74.0336 68.8263 74.1346 69.2807 74.1346ZM77.7315 75.4111L76.0655 72.4685H75.3515V75.4111H73.8369V67.8599H76.6713C77.2555 67.8599 77.7531 67.9645 78.1642 68.1737C78.5753 68.3756 78.8818 68.6533 79.0838 69.0067C79.2929 69.3529 79.3975 69.7423 79.3975 70.1751C79.3975 70.6727 79.2533 71.1235 78.9648 71.5274C78.6763 71.924 78.2472 72.1981 77.6774 72.3495L79.4841 75.4111H77.7315ZM75.3515 71.3326H76.6172C77.0283 71.3326 77.3348 71.2353 77.5368 71.0405C77.7387 70.8386 77.8397 70.5609 77.8397 70.2075C77.8397 69.8613 77.7387 69.5945 77.5368 69.407C77.3348 69.2122 77.0283 69.1149 76.6172 69.1149H75.3515V71.3326ZM85.5924 70.1318C85.4193 69.8145 85.1813 69.5728 84.8783 69.407C84.5754 69.2411 84.222 69.1581 83.8182 69.1581C83.371 69.1581 82.9743 69.2591 82.6281 69.4611C82.2819 69.663 82.0115 69.9515 81.8168 70.3265C81.622 70.7016 81.5247 71.1343 81.5247 71.6247C81.5247 72.1296 81.622 72.5695 81.8168 72.9446C82.0187 73.3196 82.2964 73.6081 82.6498 73.81C83.0032 74.012 83.4143 74.1129 83.8831 74.1129C84.46 74.1129 84.9324 73.9615 85.3003 73.6586C85.6681 73.3484 85.9097 72.9193 86.0251 72.3712H83.4287V71.2136H87.518V72.5335C87.417 73.0599 87.2007 73.5468 86.8689 73.9939C86.5372 74.4411 86.108 74.8017 85.5815 75.0758C85.0623 75.3426 84.4781 75.476 83.829 75.476C83.1005 75.476 82.4406 75.3138 81.8492 74.9892C81.265 74.6575 80.8034 74.1995 80.4645 73.6153C80.1327 73.0311 79.9668 72.3676 79.9668 71.6247C79.9668 70.8819 80.1327 70.2183 80.4645 69.6341C80.8034 69.0427 81.265 68.5848 81.8492 68.2602C82.4406 67.9285 83.0969 67.7626 83.8182 67.7626C84.6692 67.7626 85.4084 67.9717 86.0359 68.39C86.6634 68.8011 87.0961 69.3817 87.3341 70.1318H85.5924ZM89.7204 69.0824V70.9756H92.2627V72.1765H89.7204V74.1778H92.5872V75.4111H88.2058V67.8491H92.5872V69.0824H89.7204Z" fill="white"></path></g><defs><filter id="filter0_f_1775_15373" x="-12.2309" y="-6.48241" width="136.04" height="139.312" color-interpolation-filters="sRGB"><feGaussianBlur stdDeviation="14.0247"></feGaussianBlur></filter><filter id="filter1_d_1775_15373" x="37.3197" y="-0.754922" width="36.4641" height="41.4885" color-interpolation-filters="sRGB"><feGaussianBlur stdDeviation="3.50616"></feGaussianBlur></filter><filter id="filter2_i_1775_15373" x="104.17" y="80.7109" width="2.26953" height="5.13509" color-interpolation-filters="sRGB"><feGaussianBlur stdDeviation="0.934977"></feGaussianBlur></filter><filter id="filter3_i_1775_15373" x="4.21484" y="80.7437" width="2.7168" height="4.401" color-interpolation-filters="sRGB"><feGaussianBlur stdDeviation="0.934977"></feGaussianBlur></filter><linearGradient id="paint0_linear_1775_15373" x1="-17.9527" y1="-18.3872" x2="117.293" y2="171.652" gradientUnits="userSpaceOnUse"><stop stop-color="#237611"></stop><stop offset="0.443396" stop-color="#56AB45"></stop><stop offset="1" stop-color="#154B09"></stop></linearGradient><linearGradient id="paint1_linear_1775_15373" x1="62.0796" y1="-5.72622" x2="62.2836" y2="49.3524" gradientUnits="userSpaceOnUse"><stop stop-color="#18181A"></stop><stop offset="0.576403" stop-color="#345E25" stop-opacity="0.3"></stop></linearGradient><linearGradient id="paint2_linear_1775_15373" x1="48.4553" y1="13.1679" x2="54.9078" y2="22.0757" gradientUnits="userSpaceOnUse"><stop stop-color="#B7501F"></stop><stop offset="0.543267" stop-color="#F08856"></stop><stop offset="1" stop-color="#BE5522"></stop></linearGradient><linearGradient id="paint3_linear_1775_15373" x1="62.4331" y1="22.8119" x2="55.7721" y2="13.8342" gradientUnits="userSpaceOnUse"><stop stop-color="#B7501F"></stop><stop offset="0.543267" stop-color="#F08856"></stop><stop offset="1" stop-color="#BE5522"></stop></linearGradient><linearGradient id="paint4_linear_1775_15373" x1="53.496" y1="15.4169" x2="56.9327" y2="20.1272" gradientUnits="userSpaceOnUse"><stop stop-color="#B7501F"></stop><stop offset="0.543267" stop-color="#F08856"></stop><stop offset="1" stop-color="#BE5522"></stop></linearGradient><linearGradient id="paint5_linear_1775_15373" x1="-27.3619" y1="6.50777" x2="-22.5102" y2="88.2372" gradientUnits="userSpaceOnUse"><stop stop-color="#237611"></stop><stop offset="0.543267" stop-color="white"></stop><stop offset="1" stop-color="#154B09"></stop></linearGradient><linearGradient id="paint6_linear_1775_15373" x1="8.91914" y1="53.7537" x2="22.9171" y2="154.123" gradientUnits="userSpaceOnUse"><stop offset="0.0564825" stop-color="#237611"></stop><stop offset="0.515533" stop-color="white"></stop><stop offset="1" stop-color="#154B09"></stop></linearGradient><linearGradient id="paint7_linear_1775_15373" x1="106.549" y1="84.4738" x2="105.017" y2="79.5242" gradientUnits="userSpaceOnUse"><stop stop-color="#4FA83D"></stop><stop offset="1" stop-color="#247314"></stop></linearGradient><linearGradient id="paint8_linear_1775_15373" x1="7.06264" y1="84.1992" x2="5.94353" y2="79.4842" gradientUnits="userSpaceOnUse"><stop stop-color="#4FA83D"></stop><stop offset="1" stop-color="#247314"></stop></linearGradient><linearGradient id="paint9_linear_1775_15373" x1="111.734" y1="84.1474" x2="110.454" y2="52.3616" gradientUnits="userSpaceOnUse"><stop stop-color="#4FA83D"></stop><stop offset="1" stop-color="#247314"></stop></linearGradient><clipPath id="clip0_1775_15373"><rect width="110.327" height="130.897" fill="white" transform="translate(0.388672 0.529297)"></rect></clipPath></defs></svg>