<svg xmlns="http://www.w3.org/2000/svg" width="16" height="16" viewBox="0 0 16 16" fill="none"><path d="M15.7068 10.1333C15.8935 9.46667 16.0002 8.74667 16.0002 8C16.0002 7.25333 15.8935 6.53333 15.7068 5.86667H7.92018L3.41351 1.44C2.34685 2.18667 1.46685 3.2 0.853516 4.37333L4.53351 8L0.880182 11.6267C1.46685 12.8 2.34685 13.8133 3.44018 14.56L7.92018 10.1333H15.7068Z" fill="#699635"></path><path d="M0.4 5.46667C0.133333 6.26667 0 7.12001 0 8.00001C0 8.88001 0.133333 9.73334 0.4 10.5333L2.96 8.00001L0.4 5.46667Z" fill="#3E4347"></path><path d="M4.34668 15.12C5.44001 15.68 6.69335 16 8.00001 16C11.28 16 14.1067 14.0267 15.3333 11.1733H8.37335L4.34668 15.12Z" fill="#428BC1"></path><path d="M15.3333 4.82666C14.1067 1.97333 11.28 0 8.00001 0C6.69335 0 5.44001 0.32 4.34668 0.88L8.37335 4.82666H15.3333Z" fill="#ED4C5C"></path><path d="M15.5997 5.52C15.5197 5.28 15.4397 5.04 15.3331 4.82667H8.37308L4.34642 0.880005C4.15975 0.960005 3.99975 1.06667 3.81309 1.17334C3.67975 1.25334 3.54642 1.36 3.41309 1.44L7.91975 5.86667H15.7064C15.6797 5.76 15.6531 5.62667 15.5997 5.52Z" fill="white"></path><path d="M0.880091 4.37335C0.853424 4.42669 0.826758 4.48002 0.800091 4.56002C0.666758 4.85335 0.533424 5.14669 0.426758 5.46669L2.98676 8.00002L0.426758 10.5333C0.533424 10.8533 0.640091 11.1467 0.800091 11.44C0.826758 11.4933 0.853424 11.5467 0.880091 11.6267L4.53342 8.00002L0.880091 4.37335Z" fill="#FFCE31"></path><path d="M7.91975 10.1333L3.41309 14.56C3.49309 14.6133 3.59975 14.6933 3.67975 14.7466C3.89309 14.88 4.10642 15.0133 4.34642 15.12L8.37308 11.1733H15.3331C15.4397 10.9066 15.5464 10.64 15.6531 10.3466C15.6797 10.2666 15.6797 10.2133 15.7064 10.1333H7.91975Z" fill="white"></path></svg>