<svg xmlns="http://www.w3.org/2000/svg" width="16" height="16" viewBox="0 0 16 16" fill="none"><path d="M8 16C12.4183 16 16 12.4183 16 8C16 3.58172 12.4183 0 8 0C3.58172 0 0 3.58172 0 8C0 12.4183 3.58172 16 8 16Z" fill="#F5F5F5"></path><path d="M5.70692 8.45308C6.45358 8.95975 7.49358 8.74642 8.00025 7.99975C8.50692 7.25308 9.52025 7.03975 10.2936 7.54642C11.0136 8.02642 11.2269 8.95975 10.8269 9.67975C11.7069 8.18642 11.3069 6.23975 9.81358 5.25308C8.29358 4.23975 6.24025 4.63975 5.22692 6.15975C5.20025 6.21308 5.17358 6.26642 5.14692 6.29308C4.77358 7.06642 5.01358 7.97308 5.70692 8.45308Z" fill="#ED4C5C"></path><path d="M10.7471 9.83988C10.7737 9.78654 10.8004 9.73321 10.8271 9.70654C10.8004 9.73321 10.7737 9.78654 10.7471 9.83988Z" fill="#003478"></path><path d="M10.2936 7.54649C9.54698 7.03982 8.50698 7.25316 8.00032 7.99982C7.49365 8.74649 6.48032 8.95982 5.70698 8.45316C4.98698 7.97316 4.77365 7.03982 5.17365 6.31982C4.26698 7.81316 4.69365 9.75982 6.18698 10.7465C7.70698 11.7598 9.76032 11.3598 10.7737 9.83982C10.8003 9.78649 10.827 9.73316 10.8537 9.70649C11.227 8.93316 10.987 8.02649 10.2936 7.54649Z" fill="#428BC1"></path><path d="M1.54716 5.68003L3.38716 2.93336L3.20049 2.80003L3.01383 2.69336L1.17383 5.44003L1.36049 5.54669L1.54716 5.68003ZM2.05383 6.02669L2.24049 6.13336L4.05383 3.38669L3.89383 3.28003L3.70716 3.14669L1.86716 5.89336L2.05383 6.02669ZM4.37383 3.60003L2.56049 6.34669L2.74716 6.48003L2.93383 6.58669L4.74716 3.84003L4.5605 3.73336L4.37383 3.60003ZM12.4005 10.8L12.5872 10.9334L13.4405 9.65336L13.2538 9.52003L13.0672 9.41336L12.2138 10.6934L12.4005 10.8ZM14.4538 10.32L13.6005 11.6L13.7872 11.7334L13.9738 11.84L14.8272 10.56L14.6405 10.4534L14.4538 10.32ZM13.2805 11.3867L14.1338 10.1067L13.9472 9.97336L13.7605 9.86669L12.9072 11.1467L13.0938 11.2534L13.2805 11.3867ZM12.2938 10.9867L12.1072 10.88L11.2538 12.16L11.4405 12.2667L11.6272 12.4L12.4805 11.12L12.2938 10.9867ZM12.9605 11.44L12.8005 11.3334L11.9472 12.6134L12.1072 12.72L12.2938 12.8534L13.1472 11.5734L12.9605 11.44ZM13.4672 11.7867L12.6138 13.0667L12.8005 13.2L12.9872 13.3067L13.8405 12.0267L13.6538 11.8934L13.4672 11.7867ZM1.36049 10.4534L1.17383 10.56L3.01383 13.3067L3.20049 13.2L3.38716 13.0667L1.54716 10.32L1.36049 10.4534ZM3.04049 11.44L2.85383 11.5734L3.70716 12.8534L3.89383 12.72L4.05383 12.6134L3.20049 11.3334L3.04049 11.44ZM2.74716 9.52003L2.56049 9.65336L4.37383 12.4L4.5605 12.2667L4.74716 12.16L2.93383 9.41336L2.74716 9.52003ZM1.86716 10.1067L2.72049 11.3867L2.90716 11.2534L3.09383 11.1467L2.24049 9.86669L2.05383 9.97336L1.86716 10.1067ZM13.6538 4.10669L13.8405 3.97336L12.9872 2.69336L12.8005 2.80003L12.6138 2.93336L13.4672 4.21336L13.6538 4.10669ZM12.2938 5.01336L12.4805 4.88003L11.6272 3.60003L11.4405 3.73336L11.2538 3.84003L12.1072 5.12003L12.2938 5.01336ZM13.6005 4.40003L14.4538 5.68003L14.6405 5.54669L14.8272 5.44003L13.9738 4.16003L13.7872 4.26669L13.6005 4.40003ZM13.9472 6.02669L14.1338 5.89336L12.2938 3.14669L12.1072 3.28003L11.9472 3.38669L13.7605 6.13336L13.9472 6.02669ZM13.2538 6.48003L13.4405 6.34669L12.5872 5.06669L12.4005 5.20003L12.2138 5.30669L13.0672 6.58669L13.2538 6.48003Z" fill="#3E4347"></path></svg>