<svg xmlns="http://www.w3.org/2000/svg" width="86" height="81" viewBox="0 0 86 81"><g id="Group_5996" data-name="Group 5996" transform="translate(-367 -2261.291)"><rect id="Rectangle_7620" data-name="Rectangle 7620" width="86" height="81" rx="22" transform="translate(367 2261.291)" fill="#cae2bc" opacity="0.2"></rect><g id="noun-lock-3812240" transform="translate(250.434 2252.307)"><path id="Path_46237" data-name="Path 46237" d="M205.087,259.045a1.189,1.189,0,0,0,0-2.377h-3.566a2.38,2.38,0,0,0-2.378,2.377v2.377a2.381,2.381,0,0,0,2.378,2.377H203.9v2.377h-3.566a1.189,1.189,0,1,0,0,2.377H203.9a2.379,2.379,0,0,0,2.377-2.377V263.8a2.38,2.38,0,0,0-2.377-2.377h-2.377v-2.377Z" transform="translate(-53.851 -209.562)" fill="#4fa83d"></path><path id="Path_46238" data-name="Path 46238" d="M298.431,259.045a1.189,1.189,0,1,0,0-2.377h-3.566a2.379,2.379,0,0,0-2.377,2.377v2.377a2.381,2.381,0,0,0,2.377,2.377h2.377v2.377h-3.566a1.189,1.189,0,0,0,0,2.377h3.566a2.38,2.38,0,0,0,2.378-2.377V263.8a2.381,2.381,0,0,0-2.378-2.377h-2.377v-2.377Z" transform="translate(-137.685 -209.562)" fill="#4fa83d"></path><path id="Path_46239" data-name="Path 46239" d="M175.175,56.968V42.351a4.76,4.76,0,0,0-4.754-4.755h-2.544V34.031a10.7,10.7,0,0,0-21.4,0V37.6h-2.543a4.76,4.76,0,0,0-4.755,4.755V66.123a4.759,4.759,0,0,0,4.755,4.755h20.488a9.391,9.391,0,0,0,8.205,4.755,9.505,9.505,0,0,0,2.543-18.665ZM148.859,34.031a8.32,8.32,0,0,1,16.641,0V37.6H148.86ZM143.939,68.5a2.381,2.381,0,0,1-2.377-2.377V42.352a2.38,2.38,0,0,1,2.377-2.377h26.482a2.38,2.38,0,0,1,2.377,2.377V56.616h-.166a9.472,9.472,0,0,0-2.694.395,1.173,1.173,0,0,0-.872-.395h-2.377v-8.32a1.189,1.189,0,0,0-2.377,0V57.8a1.188,1.188,0,0,0,1.189,1.188h.863a9.48,9.48,0,0,0-3.241,7.132,9.651,9.651,0,0,0,.071,1.139c.015.127.043.25.063.375.039.246.081.492.14.733.01.043.014.088.025.13Zm28.693,4.754a7.06,7.06,0,0,1-6.442-4.083,6.939,6.939,0,0,1-.689-3.048,7.14,7.14,0,0,1,7.132-7.132,6.242,6.242,0,0,1,1.164.1,7.127,7.127,0,0,1-1.164,14.16Z" transform="translate(0 0)" fill="#4fa83d"></path><path id="Path_46240" data-name="Path 46240" d="M428.426,408.553l-3.914,3.914-1.537-1.537a1.189,1.189,0,0,0-1.681,1.681l2.377,2.377a1.189,1.189,0,0,0,1.681,0l4.755-4.755h0a1.189,1.189,0,1,0-1.681-1.681Z" transform="translate(-253.068 -345.647)" fill="#4fa83d"></path></g></g></svg>