<svg xmlns="http://www.w3.org/2000/svg" width="489.882" height="193.808" viewBox="0 0 489.882 193.808"><g id="ssl" transform="translate(0.5 0.5)" opacity="0.08"><path id="Path_13849" data-name="Path 13849" d="M251.789,83.706c-6.206,0-11.257-4.271-11.257-9.519s5.05-9.519,11.257-9.519c4.883,0,9.191,2.652,10.716,6.6a14.323,14.323,0,1,0,26.717-10.335c-5.763-14.9-20.805-24.912-37.433-24.912-22,0-39.9,17.12-39.9,38.164s17.9,38.164,39.9,38.164c6.21,0,11.26,4.271,11.26,9.519s-5.05,9.519-11.26,9.519c-4.729,0-9-2.548-10.608-6.341a14.322,14.322,0,1,0-26.359,11.212c6.143,14.442,20.652,23.774,36.966,23.774,22.006,0,39.906-17.12,39.906-38.164s-17.9-38.164-39.906-38.164Zm0,0" transform="translate(-9.567 -1.627)" fill="#fff" stroke="#707070" stroke-width="1"></path><path id="Path_13850" data-name="Path 13850" d="M356.4,83.706c-6.21,0-11.26-4.271-11.26-9.519s5.051-9.519,11.26-9.519c4.883,0,9.187,2.652,10.716,6.6a14.323,14.323,0,0,0,26.717-10.335c-5.766-14.9-20.809-24.912-37.433-24.912-22,0-39.906,17.12-39.906,38.164s17.9,38.164,39.906,38.164c6.207,0,11.26,4.271,11.26,9.519s-5.054,9.519-11.26,9.519c-4.733,0-9-2.548-10.612-6.341a14.322,14.322,0,1,0-26.359,11.212c6.147,14.442,20.656,23.774,36.971,23.774,22,0,39.906-17.12,39.906-38.164S378.4,83.706,356.4,83.706Zm0,0" transform="translate(-14.29 -1.627)" fill="#fff" stroke="#707070" stroke-width="1"></path><path id="Path_13851" data-name="Path 13851" d="M493.689,129.171H452.306V52.784a14.323,14.323,0,1,0-28.645,0v90.71a14.322,14.322,0,0,0,14.323,14.323h55.706a14.323,14.323,0,0,0,0-28.645Zm0,0" transform="translate(-19.129 -1.737)" fill="#fff" stroke="#707070" stroke-width="1"></path><path id="Path_13852" data-name="Path 13852" d="M136.174,67.1V50.45C136.174,22.629,112.2,0,82.728,0S29.3,22.633,29.3,50.45V67.1A41.127,41.127,0,0,0,0,106.383v45.381a41.17,41.17,0,0,0,41.2,41.044h83.057a41.169,41.169,0,0,0,41.2-41.044V106.383A41.128,41.128,0,0,0,136.173,67.1ZM82.728,144.193a13.4,13.4,0,1,1,13.48-13.405A13.442,13.442,0,0,1,82.728,144.193Zm0-115.548c13.677,0,24.8,9.78,24.8,21.8V65.343H57.943v-14.9C57.943,38.425,69.062,28.645,82.728,28.645Zm0,0" transform="translate(0 0)" fill="#fff" stroke="#707070" stroke-width="1"></path></g></svg>