<svg xmlns="http://www.w3.org/2000/svg" width="86" height="81" viewBox="0 0 86 81"><g id="Group_5998" data-name="Group 5998" transform="translate(-3328 19405.709)"><rect id="Rectangle_7622" data-name="Rectangle 7622" width="86" height="81" rx="22" transform="translate(3328 -19405.709)" fill="#cae2bc" opacity="0.2"></rect><g id="noun-global-network-4026399" transform="translate(3229.104 -19444.414)"><path id="Path_46283" data-name="Path 46283" d="M164.648,96.653a4.346,4.346,0,0,0-4.084,2.9H145.979a4.344,4.344,0,0,0-2.63-2.631V92.406a19.7,19.7,0,1,0-18.812-28.969c-.006.012-.018.018-.023.029s-.006.032-.014.046a19.631,19.631,0,0,0,0,18.507c.007.015.006.032.014.046s.014.012.019.02A19.731,19.731,0,0,0,140.445,92.4v4.514a4.344,4.344,0,0,0-2.63,2.631H123.228a4.351,4.351,0,1,0,0,2.906h14.585a4.324,4.324,0,0,0,8.164,0h14.585a4.343,4.343,0,1,0,4.084-5.8ZM137.06,79.816a43.466,43.466,0,0,1,9.675,0c-1.008,6.112-3.2,9.759-4.838,9.759s-3.829-3.649-4.838-9.761Zm-11.972-7.049a16.693,16.693,0,0,1,1.41-6.716,33.282,33.282,0,0,0,7.338,2.129c-.147,1.516-.23,3.057-.23,4.587s.083,3.071.23,4.587a33.311,33.311,0,0,0-7.338,2.129A16.7,16.7,0,0,1,125.088,72.767Zm11.422,0c0-1.472.072-2.859.191-4.169a47.185,47.185,0,0,0,5.2.294,47.909,47.909,0,0,0,5.2-.288c.119,1.309.19,2.693.19,4.163s-.072,2.854-.19,4.163a47.664,47.664,0,0,0-5.2-.289,47.186,47.186,0,0,0-5.2.294c-.119-1.312-.191-2.7-.191-4.17ZM141.9,55.959c1.639,0,3.829,3.648,4.838,9.758a43.465,43.465,0,0,1-9.675,0c1.008-6.112,3.2-9.76,4.838-9.76Zm16.81,16.808a16.7,16.7,0,0,1-1.411,6.72,32.738,32.738,0,0,0-7.335-2.145c.146-1.512.228-3.049.228-4.575s-.083-3.062-.228-4.575a32.764,32.764,0,0,0,7.335-2.145A16.706,16.706,0,0,1,158.708,72.767ZM146.844,88.831a26.291,26.291,0,0,0,2.744-8.6,30.436,30.436,0,0,1,6.314,1.813,16.874,16.874,0,0,1-9.058,6.787ZM155.9,63.491a30.446,30.446,0,0,1-6.314,1.813,26.3,26.3,0,0,0-2.744-8.6A16.872,16.872,0,0,1,155.9,63.49ZM136.952,56.7a26.291,26.291,0,0,0-2.744,8.6A30.467,30.467,0,0,1,127.89,63.5a16.877,16.877,0,0,1,9.062-6.793Zm-9.062,25.335a30.417,30.417,0,0,1,6.318-1.806,26.308,26.308,0,0,0,2.744,8.6,16.878,16.878,0,0,1-9.062-6.793Zm-8.743,20.411A1.447,1.447,0,1,1,120.595,101,1.448,1.448,0,0,1,119.147,102.45Zm22.752,0A1.447,1.447,0,1,1,143.344,101,1.448,1.448,0,0,1,141.9,102.45Zm22.752,0A1.447,1.447,0,1,1,166.1,101,1.449,1.449,0,0,1,164.65,102.45Z" fill="#4fa83d"></path></g></g></svg>