<svg xmlns="http://www.w3.org/2000/svg" width="117" height="71" viewBox="0 0 117 71" fill="none"><path d="M87.882 1.02344H10.2188V53.1396H87.882V1.02344Z" fill="#CADFBD"></path><path d="M8.53271 0.000331879V1.74318V28.0311V54.2827H49.0176H89.5024V28.0311V1.74318L89.4153 6.86646e-05H88.9044L87.4691 0.000331879H49.0176H10.566H8.53271ZM54.3913 1.70687C54.5003 2.06997 53.2658 2.17889 49.0539 2.17889C44.0069 2.17889 43.0992 2.03365 43.8253 1.30747C43.9706 1.19854 46.367 1.12592 49.1628 1.16223C52.7937 1.23485 54.2824 1.38009 54.3913 1.70687ZM85.9804 27.2323C86.0167 40.3036 85.9804 51.378 85.8715 51.8137L85.6899 52.6488H49.0539C15.9761 52.6488 12.4178 52.5762 12.2 52.0678C11.9095 51.269 11.9095 3.81281 12.2363 3.52233C12.3452 3.37709 28.9748 3.30448 49.1628 3.34079L85.8715 3.44972L85.9804 27.2323Z" fill="#4FA83D"></path><path d="M0.871423 57.079C1.34344 58.1319 1.99701 59.6206 2.39641 60.3468L3.04998 61.7266H49.0175H95.0214L96.5101 58.5313L97.9987 55.3724L79.4084 55.2635C63.1781 55.1909 60.7817 55.2635 60.4186 55.7355C59.8014 56.5706 37.9432 56.5706 37.6164 55.7355C37.4349 55.2635 35.0021 55.1909 18.6993 55.1909H0L0.871423 57.079Z" fill="#4FA83D"></path><rect x="42.9189" y="1.02344" width="12.2626" height="1.53283" fill="white"></rect><path d="M34.6296 34.6306C33.2568 34.6306 32.1561 35.7313 32.1561 37.1041C32.1561 37.7601 32.4167 38.3893 32.8806 38.8532C33.3444 39.3171 33.9736 39.5777 34.6296 39.5777C35.2856 39.5777 35.9148 39.3171 36.3787 38.8532C36.8425 38.3893 37.1031 37.7601 37.1031 37.1041C37.1031 36.4481 36.8425 35.8189 36.3787 35.3551C35.9148 34.8912 35.2856 34.6306 34.6296 34.6306ZM14.8413 14.8423V17.3158H17.3148L21.7672 26.7029L20.0852 29.733C19.8997 30.0793 19.7884 30.4874 19.7884 30.9203C19.7884 31.5763 20.049 32.2055 20.5129 32.6693C20.9767 33.1332 21.6059 33.3938 22.2619 33.3938H37.1031V30.9203H22.7814C22.6994 30.9203 22.6207 30.8877 22.5627 30.8297C22.5047 30.7717 22.4722 30.6931 22.4722 30.6111C22.4722 30.5492 22.4845 30.4998 22.5093 30.4627L23.6224 28.4467H32.8363C33.7639 28.4467 34.5801 27.9273 35.0006 27.1729L39.4283 19.171C39.5148 18.9731 39.5767 18.7628 39.5767 18.5526C39.5767 18.2246 39.4464 17.91 39.2144 17.6781C38.9825 17.4461 38.6679 17.3158 38.3399 17.3158H20.0481L18.8855 14.8423M22.2619 34.6306C20.8891 34.6306 19.7884 35.7313 19.7884 37.1041C19.7884 37.7601 20.049 38.3893 20.5129 38.8532C20.9767 39.3171 21.6059 39.5777 22.2619 39.5777C22.9179 39.5777 23.5471 39.3171 24.011 38.8532C24.4749 38.3893 24.7355 37.7601 24.7355 37.1041C24.7355 36.4481 24.4749 35.8189 24.011 35.3551C23.5471 34.8912 22.9179 34.6306 22.2619 34.6306Z" fill="#4FA83D"></path><rect x="43.2871" y="16.0791" width="40.8134" height="2.47354" fill="#4FA83D" fill-opacity="0.68"></rect><rect x="43.2871" y="21.0254" width="29.6825" height="2.47354" fill="#4FA83D" fill-opacity="0.68"></rect><rect x="43.2871" y="25.9731" width="35.8663" height="2.47354" fill="#4FA83D" fill-opacity="0.68"></rect><rect x="43.2871" y="32.1567" width="19.7883" height="7.42061" rx="3.71031" fill="#4FA83D" fill-opacity="0.68"></rect><path d="M68.7393 18.9475L91.796 12.6948L115.634 20.1199V38.8778L110.554 55.6819L100.784 65.4517L91.796 68.9688L84.7617 67.0148L78.1183 60.7622L73.038 54.5095L68.7393 43.5673V34.1884V18.9475Z" fill="#CADFBD"></path><path d="M94.063 11.7145C95.1389 12.0365 96.3724 12.3997 96.8042 12.53C97.9966 12.8795 109.51 16.2717 112.97 17.2928C114.642 17.7862 116.116 18.2385 116.239 18.2933C116.369 18.355 116.541 18.5195 116.623 18.6565L116.781 18.9032L116.801 27.2296C116.829 37.2623 116.781 38.5301 116.26 41.6893C114.636 51.5919 109.482 60.2472 101.93 65.7638C99.936 67.2167 97.7087 68.4639 95.3376 69.4576C94.1726 69.9441 92.1373 70.6089 91.822 70.6089C91.5274 70.6089 90.4309 70.2799 89.1974 69.8208C81.7276 67.0385 75.3338 61.2546 71.3659 53.7026C68.9126 49.0289 67.4871 44.1838 66.9595 38.674C66.8704 37.6941 66.7402 30.4984 66.8018 30.2723C66.9595 29.6967 67.6036 29.3266 68.1587 29.4911C68.5014 29.5939 68.8166 29.9091 68.9126 30.238C68.9468 30.3751 68.9811 30.8 68.9811 31.1769C68.9811 32.5475 69.2758 39.8322 69.5704 41.5523C70.6738 48.0146 73.3259 53.8534 77.3486 58.6916C78.1435 59.6441 80.076 61.6178 81.0012 62.4059C83.9137 64.9141 87.4293 66.922 90.9312 68.0801L91.8083 68.368L92.6787 68.0801C101.053 65.2978 107.988 58.5888 111.709 49.6731C112.943 46.7126 113.875 43.2039 114.272 39.9761C114.533 37.8722 114.553 37.1116 114.553 28.4974V20.0614L112.545 19.472C111.449 19.1499 106.33 17.6423 101.176 16.1209L91.8083 13.366L88.9438 14.2089C87.3676 14.6749 85.2021 15.3123 84.1262 15.6275C83.0502 15.9427 81.7276 16.3334 81.1794 16.4978C80.6311 16.6554 77.6775 17.5258 74.6142 18.4304L69.0496 20.0682V25.1394C69.0496 28.2575 69.0222 30.2997 68.9811 30.4436C68.8851 30.7794 68.5425 31.1084 68.1861 31.2043C67.9257 31.2797 67.8366 31.2728 67.5899 31.1769C67.213 31.033 66.9595 30.7657 66.8635 30.4162C66.7607 30.0324 66.7607 19.3898 66.8635 18.9786C66.9046 18.8004 67.028 18.5948 67.1513 18.4715C67.3912 18.2385 67.0143 18.355 76.1767 15.6549C90.0129 11.5842 91.589 11.1251 91.8426 11.132C91.9865 11.132 92.987 11.3992 94.063 11.7145Z" fill="#4FA83D"></path><path d="M84.9839 48.235C84.4009 48.235 83.9016 48.0272 83.486 47.6117C83.0705 47.1961 82.8631 46.6971 82.8638 46.1148V35.5139C82.8638 34.9309 83.0715 34.4316 83.4871 34.016C83.9027 33.6005 84.4016 33.3931 84.9839 33.3938H86.044V31.2736C86.044 29.8071 86.561 28.5569 87.5949 27.523C88.6289 26.4891 89.8787 25.9724 91.3445 25.9731C92.8109 25.9731 94.0611 26.4901 95.0951 27.5241C96.129 28.558 96.6456 29.8078 96.6449 31.2736V33.3938H97.705C98.288 33.3938 98.7873 33.6015 99.2029 34.0171C99.6185 34.4326 99.8259 34.9316 99.8252 35.5139V46.1148C99.8252 46.6979 99.6174 47.1972 99.2018 47.6127C98.7863 48.0283 98.2873 48.2357 97.705 48.235H84.9839ZM91.3445 42.9345C91.9275 42.9345 92.4268 42.7268 92.8424 42.3112C93.2579 41.8957 93.4654 41.3967 93.4646 40.8144C93.4646 40.2313 93.2569 39.732 92.8413 39.3165C92.4258 38.9009 91.9268 38.6935 91.3445 38.6942C90.7614 38.6942 90.2621 38.902 89.8466 39.3175C89.431 39.7331 89.2236 40.232 89.2243 40.8144C89.2243 41.3974 89.4321 41.8967 89.8476 42.3123C90.2632 42.7278 90.7621 42.9352 91.3445 42.9345ZM88.1642 33.3938H94.5247V31.2736C94.5247 30.3902 94.2155 29.6393 93.5972 29.0209C92.9788 28.4025 92.2279 28.0933 91.3445 28.0933C90.4611 28.0933 89.7102 28.4025 89.0918 29.0209C88.4734 29.6393 88.1642 30.3902 88.1642 31.2736V33.3938Z" fill="#4FA83D"></path></svg>