<svg width="135" height="138" viewBox="0 0 135 138" fill="none" xmlns="http://www.w3.org/2000/svg">
<g filter="url(#filter0_d_1_1459)">
<path d="M83.8988 83.7925L87.0084 93.6416C87.2867 94.523 87.9772 95.2135 88.8586 95.4918L98.7078 98.6014C99.0974 98.7243 99.0974 99.276 98.7078 99.3989L88.8586 102.509C87.9772 102.787 87.2867 103.477 87.0084 104.359L83.8988 114.208C83.7758 114.597 83.2242 114.597 83.1012 114.208L79.9916 104.359C79.7133 103.477 79.0228 102.787 78.1414 102.509L68.2922 99.3989C67.9026 99.276 67.9026 98.7243 68.2922 98.6014L78.1414 95.4918C79.0228 95.2135 79.7133 94.523 79.9916 93.6416L83.1012 83.7925C83.2238 83.4025 83.7755 83.4025 83.8988 83.7925Z" fill="#71FF44" fill-opacity="0.51"/>
</g>
<g filter="url(#filter1_d_1_1459)">
<path d="M95.3859 27.7925L98.3952 37.6416C98.6646 38.523 99.3328 39.2135 100.186 39.4918L109.717 42.6014C110.094 42.7243 110.094 43.276 109.717 43.3989L100.186 46.5085C99.3328 46.7868 98.6646 47.4773 98.3952 48.3587L95.3859 58.2078C95.2669 58.5974 94.7331 58.5974 94.6141 58.2078L91.6048 48.3587C91.3354 47.4773 90.6672 46.7868 89.8143 46.5085L80.2828 43.3989C79.9057 43.276 79.9057 42.7243 80.2828 42.6014L89.8143 39.4918C90.6672 39.2135 91.3354 38.523 91.6048 37.6416L94.6141 27.7925C94.7327 27.4025 95.2666 27.4025 95.3859 27.7925Z" fill="#71FF44" fill-opacity="0.51"/>
</g>
<g filter="url(#filter2_d_1_1459)">
<path d="M55.2075 32.0189L60.7246 49.4931C61.2184 51.0569 62.4434 52.2819 64.0072 52.7757L81.4815 58.2927C82.1728 58.5108 82.1728 59.4896 81.4815 59.7077L64.0072 65.2248C62.4434 65.7185 61.2184 66.9436 60.7246 68.5074L55.2075 85.9815C54.9894 86.6728 54.0106 86.6728 53.7925 85.9815L48.2754 68.5074C47.7816 66.9436 46.5566 65.7185 44.9928 65.2248L27.5185 59.7077C26.8272 59.4896 26.8272 58.5108 27.5185 58.2927L44.9928 52.7757C46.5566 52.2819 47.7816 51.0569 48.2754 49.4931L53.7925 32.0189C54.01 31.327 54.9888 31.327 55.2075 32.0189Z" fill="#71FF44" fill-opacity="0.51"/>
</g>
<defs>
<filter id="filter0_d_1_1459" x="41.8" y="56.3" width="81.4" height="81.4" filterUnits="userSpaceOnUse" color-interpolation-filters="sRGB">
<feFlood flood-opacity="0" result="BackgroundImageFix"/>
<feColorMatrix in="SourceAlpha" type="matrix" values="0 0 0 0 0 0 0 0 0 0 0 0 0 0 0 0 0 0 127 0" result="hardAlpha"/>
<feOffset dx="-1" dy="-2"/>
<feGaussianBlur stdDeviation="12.6"/>
<feColorMatrix type="matrix" values="0 0 0 0 0.286275 0 0 0 0 0.568627 0 0 0 0 0.196078 0 0 0 1 0"/>
<feBlend mode="normal" in2="BackgroundImageFix" result="effect1_dropShadow_1_1459"/>
<feBlend mode="normal" in="SourceGraphic" in2="effect1_dropShadow_1_1459" result="shape"/>
</filter>
<filter id="filter1_d_1_1459" x="53.8" y="0.299999" width="80.4" height="81.4" filterUnits="userSpaceOnUse" color-interpolation-filters="sRGB">
<feFlood flood-opacity="0" result="BackgroundImageFix"/>
<feColorMatrix in="SourceAlpha" type="matrix" values="0 0 0 0 0 0 0 0 0 0 0 0 0 0 0 0 0 0 127 0" result="hardAlpha"/>
<feOffset dx="-1" dy="-2"/>
<feGaussianBlur stdDeviation="12.6"/>
<feColorMatrix type="matrix" values="0 0 0 0 0.286275 0 0 0 0 0.568627 0 0 0 0 0.196078 0 0 0 1 0"/>
<feBlend mode="normal" in2="BackgroundImageFix" result="effect1_dropShadow_1_1459"/>
<feBlend mode="normal" in="SourceGraphic" in2="effect1_dropShadow_1_1459" result="shape"/>
</filter>
<filter id="filter2_d_1_1459" x="0.799999" y="4.3" width="105.4" height="105.4" filterUnits="userSpaceOnUse" color-interpolation-filters="sRGB">
<feFlood flood-opacity="0" result="BackgroundImageFix"/>
<feColorMatrix in="SourceAlpha" type="matrix" values="0 0 0 0 0 0 0 0 0 0 0 0 0 0 0 0 0 0 127 0" result="hardAlpha"/>
<feOffset dx="-1" dy="-2"/>
<feGaussianBlur stdDeviation="12.6"/>
<feColorMatrix type="matrix" values="0 0 0 0 0.286275 0 0 0 0 0.568627 0 0 0 0 0.196078 0 0 0 1 0"/>
<feBlend mode="normal" in2="BackgroundImageFix" result="effect1_dropShadow_1_1459"/>
<feBlend mode="normal" in="SourceGraphic" in2="effect1_dropShadow_1_1459" result="shape"/>
</filter>
</defs>
</svg>
