<svg xmlns="http://www.w3.org/2000/svg" xmlns:xlink="http://www.w3.org/1999/xlink" width="26" height="26" viewBox="0 0 26 26"><defs><clipPath id="clip-path"><rect id="Rectangle_7950" data-name="Rectangle 7950" width="26" height="26" fill="#4fa83d"/></clipPath></defs><g id="Group_44555" data-name="Group 44555" transform="translate(-657 -5014)"><g id="Group_44553" data-name="Group 44553" transform="translate(657 5014)"><g id="Group_44552" data-name="Group 44552" clip-path="url(#clip-path)"><path id="Path_54929" data-name="Path 54929" d="M0,12.718a1.608,1.608,0,0,1,1.146-.991A17.807,17.807,0,0,0,5.834,9.711a13.394,13.394,0,0,0,5.407-7.069c.194-.578.379-1.158.578-1.735a1.227,1.227,0,0,1,2.37,0,37.247,37.247,0,0,0,1.373,3.6,13.022,13.022,0,0,0,7.875,6.744c.553.184,1.108.361,1.656.557A1.205,1.205,0,0,1,26,12.977a1.224,1.224,0,0,1-.91,1.206c-1.179.438-2.406.78-3.53,1.332a13.06,13.06,0,0,0-6.794,7.834c-.17.5-.356,1-.495,1.505A1.56,1.56,0,0,1,13.282,26h-.57a1.624,1.624,0,0,1-.991-1.193c-.132-.5-.318-.978-.482-1.465A13.391,13.391,0,0,0,5.77,16.235,17.524,17.524,0,0,0,1.193,14.28,1.687,1.687,0,0,1,0,13.288Z" transform="translate(0 0.001)" fill="#4fa83d"/></g></g></g></svg>