<svg xmlns="http://www.w3.org/2000/svg" width="76.816" height="76.816" viewBox="0 0 76.816 76.816"><g id="Group_6104" data-name="Group 6104" transform="translate(-1463 -4018)"><g id="Group_6053" data-name="Group 6053" transform="translate(-257.125 1813.125)"><path id="Icon_ionic-ios-checkmark-circle" data-name="Icon ionic-ios-checkmark-circle" d="M41.783,3.375A38.408,38.408,0,1,0,80.191,41.783,38.4,38.4,0,0,0,41.783,3.375Zm19.666,27.79L36.76,55.964h-.018A3.335,3.335,0,0,1,34.6,56.98a3.233,3.233,0,0,1-2.16-1.053L22.1,45.587a.736.736,0,0,1,0-1.053l3.287-3.287a.714.714,0,0,1,1.034,0l8.2,8.2L57.146,26.752a.729.729,0,0,1,.517-.222h0a.671.671,0,0,1,.517.222l3.231,3.342A.728.728,0,0,1,61.448,31.165Z" transform="translate(1716.75 2201.5)" fill="#4fa83d"></path><circle id="Ellipse_1458" data-name="Ellipse 1458" cx="27.14" cy="27.14" r="27.14" transform="translate(1733.483 2213.568)" fill="#4fa83d"></circle></g><g id="Group_4566" data-name="Group 4566" transform="translate(1481 4045)"><g id="Group_3553" data-name="Group 3553" transform="translate(4.546 4.557)"><path id="Path_14063" data-name="Path 14063" d="M102.939,131.379l-1.476-1.479,10-9.979h5.579l1.466,1.559,4.9,4.886,8.066-8.083,1.479,1.476-9.542,9.562-6.413-6.4-.859-.913h-3.811Z" transform="translate(-101.462 -118.282)" fill="#fff"></path></g><ellipse id="Ellipse_505" data-name="Ellipse 505" cx="3.674" cy="3.674" rx="3.674" ry="3.674" transform="translate(13.616 1.833)" fill="#fff"></ellipse><ellipse id="Ellipse_506" data-name="Ellipse 506" cx="3.674" cy="3.674" rx="3.674" ry="3.674" transform="translate(22.815 11.024)" fill="#fff"></ellipse><ellipse id="Ellipse_507" data-name="Ellipse 507" cx="3.674" cy="3.674" rx="3.674" ry="3.674" transform="translate(33.84 0)" fill="#fff"></ellipse><ellipse id="Ellipse_508" data-name="Ellipse 508" cx="3.674" cy="3.674" rx="3.674" ry="3.674" transform="translate(0 21.103) rotate(-76.717)" fill="#fff"></ellipse></g></g></svg>