<svg xmlns="http://www.w3.org/2000/svg" width="63" height="64" viewBox="0 0 63 64" fill="none"><rect x="0.394531" y="0.765625" width="62.37" height="62.37" rx="31.185" fill="url(#paint0_linear_1572_25702)" fill-opacity="0.7"></rect><path d="M14 27.4382V15.6118C14 15.1843 14.1698 14.7743 14.4721 14.4721C14.7744 14.1698 15.1843 14 15.6118 14H47.8477C48.2752 14 48.6852 14.1698 48.9874 14.4721C49.2897 14.7743 49.4595 15.1843 49.4595 15.6118V27.4382C49.4595 44.3619 35.0944 49.9628 32.2334 50.9097C31.9084 51.0301 31.5511 51.0301 31.2261 50.9097C28.3651 49.9628 14 44.3619 14 27.4382Z" stroke="#C8C8C8" stroke-width="1.48557" stroke-linecap="round" stroke-linejoin="round"></path><path d="M31.0604 27.8048L34.7072 31.44V31.256C34.7072 30.3407 34.3436 29.4628 33.6964 28.8156C33.0491 28.1684 32.1713 27.8048 31.256 27.8048H31.0604ZM26.1137 28.7251L27.8968 30.5082C27.8393 30.7498 27.8048 30.9914 27.8048 31.256C27.8048 32.1713 28.1684 33.0491 28.8156 33.6963C29.4628 34.3436 30.3407 34.7072 31.256 34.7072C31.5091 34.7072 31.7622 34.6727 32.0038 34.6151L33.7869 36.3983C33.0161 36.7779 32.1648 37.008 31.256 37.008C29.7305 37.008 28.2674 36.402 27.1887 35.3233C26.11 34.2445 25.504 32.7815 25.504 31.256C25.504 30.3472 25.7341 29.4959 26.1137 28.7251ZM19.752 22.3634L22.3749 24.9863L22.8926 25.504C20.9944 26.9995 19.4989 28.9552 18.6016 31.256C20.5918 36.3062 25.504 39.884 31.256 39.884C33.0391 39.884 34.7417 39.5389 36.2948 38.9177L36.7894 39.4008L40.1486 42.76L41.6096 41.299L21.213 20.9023M31.256 25.504C32.7815 25.504 34.2446 26.11 35.3233 27.1887C36.402 28.2674 37.008 29.7304 37.008 31.256C37.008 31.9922 36.8585 32.7055 36.5939 33.3497L39.9645 36.7204C41.6901 35.2824 43.0706 33.3957 43.9104 31.256C41.9202 26.2057 37.008 22.6279 31.256 22.6279C29.6454 22.6279 28.1039 22.9155 26.6544 23.4332L29.1508 25.9066C29.8065 25.6535 30.5082 25.504 31.256 25.504Z" fill="#C8C8C8"></path><defs><linearGradient id="paint0_linear_1572_25702" x1="-3.59629" y1="-2.17519" x2="42.6037" y2="55.5748" gradientUnits="userSpaceOnUse"><stop stop-color="#56B743"></stop><stop offset="1" stop-color="#083100"></stop></linearGradient></defs></svg>