<svg width="58" height="59" viewBox="0 0 58 59" fill="none" xmlns="http://www.w3.org/2000/svg">
<circle cx="29.1099" cy="29.6345" r="28.8064" fill="#2C2C2C"/>
<path d="M28.4728 31.4516H29.3814V25.3943H28.4728V31.4516ZM26.8071 30.2401H27.7157V26.6058H26.8071V30.2401ZM25.2928 29.0287H26.2014V27.8172H25.2928V29.0287ZM30.1386 30.2401H31.0472V26.6058H30.1386V30.2401ZM31.6529 29.0287H32.5615V27.8172H31.6529V29.0287ZM22.8699 35.6917V23.5771H34.9844V33.2688H25.2928L22.8699 35.6917ZM24.0813 32.7691L24.7931 32.0573H33.773V24.7886H24.0813V32.7691Z" fill="#4FA83D"/>
<path d="M26.7749 12.1899C21.4188 13.1329 16.8799 16.7791 14.8933 21.7455C14.6796 22.2861 14.3527 23.2668 14.1766 23.9332C13.8749 25.0774 13.8623 25.354 13.7994 28.9248C13.7492 32.6213 13.7617 32.7218 14.0258 33.3631C14.3652 34.1426 15.2956 35.0227 16.0249 35.2365C16.4524 35.3748 16.5781 35.4879 16.7793 35.9531C16.9427 36.3052 17.2068 36.6195 17.5462 36.8458C18.024 37.1602 18.2252 37.2104 19.3191 37.2482L20.5512 37.2985L20.941 36.9213L21.3182 36.5441V32.0303C21.3182 27.6674 21.3056 27.504 21.0667 27.2399C20.7147 26.8628 20.3626 26.7999 19.055 26.8628L17.9234 26.913V26.4478C17.9234 26.1964 18.0617 25.4546 18.2252 24.8008C19.3442 20.375 22.8521 17.1311 27.4413 16.2636C28.4597 16.075 31.1881 16.1882 32.2568 16.4648C33.577 16.8042 35.727 17.9233 36.7831 18.8159C38.908 20.6139 40.4922 23.5183 40.7563 26.1461L40.8317 26.9005L39.4738 26.8628C38.1536 26.8125 38.0908 26.825 37.7638 27.1394L37.4118 27.4537V31.9926V36.5441L37.7764 36.9087C38.1285 37.2607 38.2039 37.2733 39.2223 37.2733C39.8133 37.2733 40.3036 37.2985 40.3036 37.3362C40.3036 37.6128 39.172 39.7376 38.6565 40.4292C37.8896 41.4727 36.4311 42.8432 35.4755 43.409C34.52 43.9874 32.9106 44.6789 32.0934 44.8423L31.4144 44.9932L30.9241 44.4777C30.0439 43.5473 28.8243 43.497 27.9065 44.352C27.039 45.1818 27.039 46.5774 27.9317 47.4198C28.9249 48.3503 30.6223 48.0485 31.2384 46.8415C31.4521 46.4266 31.5527 46.3637 32.2442 46.2254C34.2811 45.7979 36.758 44.4274 38.3925 42.8055C40.3539 40.8567 41.3346 38.9958 42.1142 35.7394C42.177 35.4754 42.3153 35.3622 42.7051 35.249C43.3966 35.0353 44.3019 34.2055 44.6539 33.4385C44.9431 32.835 44.9557 32.6967 44.9557 29.7294C44.9557 26.1964 44.8048 24.9768 44.1259 22.9525C42.3028 17.4958 37.9524 13.5227 32.4454 12.2905C31.2132 12.0264 28.07 11.9636 26.7749 12.1899ZM32.7849 13.7993C35.2366 14.4405 37.2986 15.6475 39.172 17.5083C41.146 19.4823 42.4033 21.6575 43.1452 24.3858C43.4721 25.5803 43.4972 25.8192 43.5475 29.0756C43.5978 32.8224 43.5726 33.011 42.9188 33.5642C42.177 34.1929 42.1896 34.2558 42.1896 29.9809C42.1896 25.6432 42.1142 24.9894 41.3849 23.0405C40.7437 21.3431 39.9013 20.0355 38.5434 18.6651C35.8276 15.899 32.6717 14.6542 28.7992 14.8051C27.7305 14.8428 26.8252 14.956 26.1966 15.1194C21.7079 16.3139 18.3509 19.5955 16.9679 24.1344C16.6158 25.2534 16.6158 25.2911 16.5655 29.566C16.5152 34.2683 16.5404 34.1803 15.8111 33.5642C15.1573 33.011 15.1322 32.835 15.1825 28.887C15.2328 25.4671 15.2579 25.2031 15.5723 24.0338C17.0182 18.6525 21.381 14.6039 26.8755 13.5604C28.3591 13.2838 31.2635 13.3969 32.7849 13.7993ZM19.998 32.0555V35.8903H19.2813C18.7155 35.8903 18.5018 35.8274 18.2503 35.6011L17.936 35.3245L17.9234 32.3698C17.9109 30.7479 17.9109 29.2642 17.9109 29.0882C17.9234 28.9122 18.0366 28.6481 18.1749 28.4973C18.3886 28.2709 18.5772 28.2207 19.2185 28.2207H19.998V32.0555ZM40.5425 28.4595C40.8946 28.8116 40.9826 29.7923 40.8946 32.7344L40.8317 35.3119L40.4922 35.6011C40.2408 35.8274 40.0144 35.8903 39.4738 35.8903H38.7948V32.0555V28.2207H39.5492C40.1276 28.2207 40.3665 28.2835 40.5425 28.4595ZM29.9685 45.4207C30.3331 45.8859 29.9685 46.5774 29.3524 46.5774C28.9375 46.5774 28.6106 46.2883 28.6106 45.8985C28.6106 45.1692 29.5159 44.8549 29.9685 45.4207Z" fill="white"/>
</svg>
