<svg width="50" height="64" viewBox="0 0 50 64" fill="none" xmlns="http://www.w3.org/2000/svg">
<g clip-path="url(#clip0_98_6124)">
<path d="M25.9139 1.9919C25.9166 1.9271 25.9175 1.8623 25.9238 1.7993C25.9454 1.5797 26.1119 1.4204 26.3243 1.4114C26.534 1.4033 26.7401 1.5536 26.7491 1.7678C26.768 2.2007 26.7689 2.6345 26.7554 3.0674C26.7491 3.2744 26.5754 3.4211 26.354 3.4274C25.967 3.4391 25.5791 3.44 25.1912 3.4364C24.9383 3.4337 24.7655 3.2753 24.7466 3.0521C24.7277 2.8181 24.8789 2.6444 25.1417 2.5994C25.1669 2.5949 25.1912 2.5913 25.2668 2.5787C25.094 2.45 24.9545 2.3411 24.8105 2.2394C24.6611 2.1332 24.5135 2.0216 24.3533 1.9325C21.5724 0.374598 18.8311 0.444798 16.1464 2.162C15.7522 2.414 15.4156 2.7578 15.0548 3.0629C14.8919 3.2006 14.7173 3.2312 14.5481 3.1394C14.387 3.0512 14.2907 2.8667 14.342 2.6921C14.3681 2.603 14.4257 2.5121 14.4932 2.4464C16.4218 0.573498 18.7294 -0.224803 21.3951 0.0541977C23.043 0.226998 24.5063 0.869599 25.7834 1.9289C25.8086 1.9496 25.8356 1.9685 25.8635 1.9856C25.8734 1.9919 25.8887 1.9892 25.9139 1.9919Z" fill="#C9E2BB"/>
<path d="M40.9837 23.599C41.0485 23.5963 41.1124 23.5909 41.1763 23.5909C41.3967 23.5927 41.5713 23.7439 41.5992 23.9545C41.6271 24.1624 41.4957 24.382 41.2824 24.4099C40.8532 24.4675 40.4212 24.508 39.9892 24.535C39.7831 24.5476 39.6211 24.3874 39.5941 24.1678C39.5473 23.7835 39.5113 23.3974 39.4798 23.0113C39.4591 22.7593 39.6013 22.573 39.8227 22.5343C40.054 22.4938 40.2403 22.6288 40.3087 22.8862C40.315 22.9105 40.3213 22.9348 40.3402 23.0086C40.4527 22.825 40.5481 22.6756 40.6372 22.5226C40.729 22.3642 40.8271 22.2067 40.9018 22.0402C42.2004 19.1296 41.8818 16.4053 39.928 13.888C39.6409 13.5181 39.2683 13.2139 38.9317 12.8827C38.7796 12.7333 38.7328 12.5614 38.8102 12.385C38.8831 12.2158 39.0586 12.1042 39.2377 12.1393C39.3295 12.1573 39.4249 12.2059 39.496 12.2671C41.5335 14.0176 42.5388 16.2433 42.5028 18.9235C42.4812 20.5804 41.9736 22.096 41.035 23.464C41.017 23.491 40.9999 23.5198 40.9855 23.5486C40.9801 23.5594 40.9846 23.5738 40.9837 23.599Z" fill="#C9E2BB"/>
<path d="M40.2179 7.11C40.1594 7.2459 40.1477 7.3944 40.0964 7.533C39.8328 8.2404 39.1488 8.7444 38.3955 8.7777C38.3433 8.7804 38.2911 8.7804 38.2389 8.7804C35.9907 8.7804 33.7426 8.7804 31.4935 8.7804C30.617 8.7804 29.8925 8.2863 29.6288 7.4619C29.3444 6.5745 29.5838 5.5593 30.4865 5.02919C30.7835 4.85459 31.1075 4.77179 31.4512 4.77089C33.7309 4.77089 36.0105 4.76729 38.2902 4.77179C39.2649 4.77359 40.0487 5.4603 40.1963 6.4206C40.199 6.4368 40.1945 6.4566 40.217 6.462V7.1091L40.2179 7.11ZM34.8694 8.1126H35.3077C36.2958 8.1126 37.284 8.1126 38.2722 8.1126C38.7177 8.1126 39.0723 7.9299 39.3297 7.5672C39.5133 7.3098 39.5565 7.0155 39.5511 6.7059C39.5394 5.9922 39.0003 5.4414 38.2875 5.4405C36.0087 5.4378 33.73 5.4396 31.4503 5.4405C31.2676 5.4405 31.0904 5.4747 30.9257 5.5548C30.3011 5.8581 30.0878 6.4539 30.2291 7.1361C30.3515 7.7265 30.8573 8.1117 31.4665 8.1126C32.6005 8.1144 33.7354 8.1126 34.8694 8.1126Z" fill="url(#paint0_radial_98_6124)"/>
<path d="M34.9419 0.430588C35.8473 0.444088 36.6978 0.771688 37.416 1.43679C37.5672 1.57719 37.5843 1.77609 37.4574 1.91919C37.3305 2.06319 37.128 2.07579 36.9741 1.93539C36.6285 1.61859 36.2415 1.37109 35.7897 1.24059C34.7295 0.936388 33.763 1.11549 32.9026 1.81659C32.8486 1.86069 32.7991 1.90929 32.7442 1.95249C32.5939 2.07129 32.3968 2.05509 32.2771 1.91469C32.1601 1.77789 32.1682 1.58439 32.3041 1.45389C32.5615 1.20729 32.8486 0.999388 33.1663 0.837388C33.7018 0.564688 34.2715 0.431488 34.9428 0.429688L34.9419 0.430588Z" fill="#4FA83D"/>
<path d="M36.8767 2.77714C36.8677 2.90674 36.8065 3.01024 36.6823 3.06874C36.5536 3.12904 36.4294 3.11014 36.3232 3.01654C36.1406 2.85454 35.948 2.70604 35.7194 2.61424C34.9256 2.29474 34.1912 2.39194 33.5216 2.93104C33.4838 2.96164 33.4487 2.99584 33.4109 3.02554C33.266 3.13984 33.0698 3.12274 32.9519 2.98684C32.8331 2.85004 32.8385 2.65654 32.9726 2.52604C33.1679 2.33614 33.3866 2.17324 33.6332 2.05804C34.5485 1.62874 35.4467 1.66384 36.3214 2.17684C36.487 2.27404 36.6346 2.39554 36.7732 2.52784C36.8416 2.59354 36.8749 2.67544 36.8767 2.77714Z" fill="#6DBF58"/>
<path d="M34.8854 3.10156C35.2751 3.10966 35.6234 3.23566 35.9168 3.50206C36.0734 3.64426 36.0941 3.83596 35.9708 3.98356C35.8475 4.13116 35.6522 4.14646 35.4884 4.01326C35.1635 3.74776 34.8152 3.70636 34.4426 3.89536C34.3751 3.92956 34.3175 3.98266 34.2563 4.02856C34.1042 4.14196 33.9161 4.12756 33.7964 3.99166C33.674 3.85306 33.6831 3.65596 33.8234 3.52366C34.1204 3.24376 34.4759 3.10966 34.8863 3.10246L34.8854 3.10156Z" fill="#93E080"/>
<path d="M34.8696 8.11431C33.7356 8.11431 32.6007 8.11611 31.4668 8.11431C30.8575 8.11341 30.3517 7.72821 30.2293 7.13781C30.088 6.45561 30.3013 5.85981 30.9259 5.55651C31.0906 5.47641 31.2679 5.44221 31.4506 5.44221C33.7293 5.44221 36.0081 5.44041 38.2877 5.44221C39.0005 5.44221 39.5396 5.99301 39.5513 6.70761C39.5567 7.01721 39.5126 7.31151 39.3299 7.56891C39.0716 7.93161 38.717 8.11341 38.2724 8.11431C37.2842 8.11521 36.296 8.11431 35.3079 8.11431C35.1621 8.11431 35.0154 8.11431 34.8696 8.11431ZM35.5401 6.77331C35.5383 6.59151 35.3871 6.44301 35.2044 6.44391C35.0226 6.44481 34.8732 6.59511 34.8723 6.77691C34.8723 6.96321 35.0271 7.11531 35.2125 7.11171C35.3943 7.10811 35.5419 6.95601 35.5392 6.77421L35.5401 6.77331ZM36.5426 7.11081C36.7244 7.11081 36.8756 6.96231 36.8765 6.78051C36.8783 6.59871 36.7307 6.44661 36.5489 6.44391C36.3626 6.44121 36.2088 6.59331 36.2097 6.77961C36.2106 6.96141 36.3608 7.11081 36.5426 7.11171V7.11081ZM38.2139 6.77871C38.2139 6.59691 38.0663 6.44571 37.8845 6.44391C37.7027 6.44211 37.5506 6.58881 37.547 6.77061C37.5434 6.95691 37.6955 7.11171 37.8818 7.11081C38.0636 7.11081 38.2139 6.96051 38.2139 6.77871Z" fill="#4FA83D"/>
<path d="M35.5419 6.77171C35.5437 6.95351 35.397 7.10561 35.2152 7.10921C35.0289 7.11281 34.8741 6.96071 34.875 6.77441C34.875 6.59261 35.0253 6.44231 35.2071 6.44141C35.3889 6.44051 35.5401 6.58901 35.5428 6.77081L35.5419 6.77171Z" fill="#93E080"/>
<path d="M36.5439 7.10924C36.3621 7.10924 36.2118 6.95984 36.2109 6.77714C36.21 6.59084 36.3639 6.43874 36.5502 6.44144C36.732 6.44414 36.8796 6.59624 36.8778 6.77804C36.876 6.95984 36.7257 7.10834 36.5439 7.10834V7.10924Z" fill="#93E080"/>
<path d="M38.2138 6.78015C38.2138 6.96195 38.0635 7.11135 37.8817 7.11225C37.6954 7.11225 37.5433 6.95835 37.5469 6.77205C37.5505 6.59025 37.7026 6.44265 37.8844 6.44535C38.0662 6.44715 38.2147 6.59835 38.2138 6.78015Z" fill="#93E080"/>
<path d="M-0.00691252 10.0287C-0.00691252 9.14485 -0.00691252 8.26195 -0.00691252 7.37815C0.00208727 7.34755 0.014687 7.31695 0.0191869 7.28545C0.0830854 6.88945 0.275681 6.57085 0.584374 6.31525C0.823768 6.11725 1.10636 6.02995 1.40245 5.96875C6.18854 5.96875 10.9746 5.96875 15.7616 5.96875C15.7769 5.97505 15.7922 5.98585 15.8075 5.98855C16.5887 6.08305 17.1872 6.76075 17.1728 7.62925C17.1611 8.35015 17.1836 9.07195 17.1629 9.79196C17.1557 10.0422 17.1107 10.3113 17.0063 10.5354C16.7147 11.1609 16.1846 11.4354 15.5051 11.4354C11.9106 11.4354 8.317 11.4354 4.72248 11.4354C3.6938 11.4354 2.66513 11.4354 1.63645 11.4354C1.08926 11.4354 0.636573 11.2365 0.29998 10.7946C0.126284 10.5669 0.0488862 10.3023 -0.0078125 10.0287H-0.00691252ZM12.4812 8.70205C12.4812 8.27275 12.1311 7.92085 11.7045 7.92085C11.2797 7.92085 10.9278 8.27455 10.9278 8.70205C10.9278 9.12865 11.2797 9.48326 11.7054 9.48236C12.132 9.48236 12.4821 9.13045 12.4812 8.70115V8.70205ZM14.8247 8.70025C14.8238 8.27275 14.4702 7.91995 14.0454 7.92175C13.6188 7.92355 13.2705 8.27635 13.2714 8.70475C13.2723 9.13315 13.6242 9.48506 14.0499 9.48326C14.4756 9.48146 14.8256 9.12776 14.8247 8.70025ZM4.68018 8.70385C4.68018 8.47525 4.68558 8.24575 4.67748 8.01715C4.67478 7.92445 4.66038 7.82545 4.62348 7.74265C4.55058 7.58245 4.38049 7.51225 4.20229 7.54825C4.01959 7.58515 3.8999 7.73815 3.8972 7.97215C3.8909 8.45815 3.8864 8.94415 3.9017 9.42926C3.9053 9.54536 3.9665 9.67766 4.04119 9.77036C4.13569 9.88736 4.28779 9.89546 4.42818 9.84056C4.60638 9.77126 4.67388 9.62096 4.67748 9.44186C4.68198 9.19616 4.67838 8.95045 4.67838 8.70475L4.68018 8.70385ZM3.11512 8.72095C3.11512 8.46445 3.11962 8.20705 3.11422 7.95055C3.10882 7.69945 2.94952 7.53565 2.72452 7.53745C2.49953 7.53925 2.34203 7.70215 2.34023 7.95505C2.33573 8.45185 2.33573 8.94865 2.34023 9.44546C2.34203 9.70016 2.49593 9.86306 2.72092 9.86666C2.95222 9.87026 3.10972 9.70286 3.11512 9.44096C3.11962 9.20065 3.11512 8.96125 3.11512 8.72095ZM6.23714 8.71285C6.23714 8.46175 6.24074 8.21065 6.23624 7.95955C6.23174 7.70485 6.08145 7.54195 5.85555 7.53835C5.62426 7.53475 5.46406 7.70125 5.46136 7.96405C5.45686 8.45545 5.45776 8.94685 5.46136 9.43736C5.46316 9.70106 5.62066 9.86936 5.85105 9.86756C6.08145 9.86666 6.23264 9.69926 6.23624 9.43375C6.23984 9.19345 6.23624 8.95405 6.23624 8.71375L6.23714 8.71285Z" fill="#4FA83D"/>
<path d="M-0.0078125 21.7392V19.0887C0.0488862 18.8151 0.126284 18.5505 0.29998 18.3228C0.645572 17.8692 1.11086 17.6802 1.66975 17.6811C4.94567 17.6829 8.2216 17.6811 11.4975 17.6811C12.8448 17.6811 14.1921 17.6775 15.5393 17.682C16.4924 17.6847 17.1638 18.3588 17.1683 19.3092C17.1719 20.0472 17.1818 20.7852 17.162 21.5232C17.1557 21.768 17.108 22.0308 17.0045 22.2504C16.7147 22.8678 16.1927 23.1468 15.5195 23.1477C13.1544 23.1486 10.7901 23.1477 8.42499 23.1477C6.16605 23.1477 3.908 23.1477 1.64905 23.1477C1.09466 23.1477 0.637473 22.9524 0.29728 22.5042C0.124484 22.2765 0.0470862 22.0119 -0.0078125 21.7383L-0.0078125 21.7392ZM12.4803 20.4135C12.4803 19.9851 12.1284 19.6332 11.7018 19.635C11.2761 19.6368 10.926 19.9905 10.9269 20.4171C10.9278 20.8446 11.2806 21.1974 11.7054 21.1965C12.1329 21.1947 12.4803 20.8428 12.4803 20.4135ZM13.2705 20.4225C13.2741 20.8518 13.6287 21.2019 14.0535 21.1965C14.481 21.1911 14.8256 20.8374 14.8229 20.4081C14.8202 19.9824 14.4612 19.6278 14.0391 19.6341C13.6098 19.6404 13.2669 19.9923 13.2705 20.4216V20.4225ZM4.67928 20.4162C4.67928 20.1876 4.68468 19.9581 4.67658 19.7295C4.67388 19.6368 4.65948 19.5378 4.62258 19.455C4.55058 19.2957 4.37509 19.2228 4.20049 19.2597C4.01689 19.2984 3.899 19.4505 3.8963 19.6854C3.8909 20.1714 3.8855 20.6574 3.9008 21.1425C3.9044 21.2586 3.9665 21.3909 4.04119 21.4827C4.13659 21.5997 4.29049 21.606 4.42819 21.552C4.60548 21.4836 4.67388 21.3324 4.67658 21.1524C4.68108 20.9067 4.67748 20.661 4.67838 20.4153L4.67928 20.4162ZM2.33753 20.409C2.33753 20.6547 2.33483 20.9004 2.33753 21.1461C2.34113 21.4125 2.49143 21.579 2.72272 21.5808C2.95312 21.5826 3.11062 21.4143 3.11242 21.1506C3.11602 20.6592 3.11602 20.1678 3.11242 19.6773C3.11062 19.4154 2.94952 19.248 2.71912 19.2516C2.49413 19.2552 2.34293 19.4181 2.33843 19.6728C2.33393 19.9185 2.33753 20.1642 2.33753 20.4099V20.409ZM6.23624 20.4135C6.23624 20.1732 6.23804 19.9338 6.23624 19.6935C6.23354 19.4172 6.08055 19.2471 5.84295 19.2507C5.61346 19.2534 5.46226 19.4217 5.46046 19.689C5.45776 20.175 5.45686 20.6601 5.46046 21.1461C5.46226 21.4116 5.61616 21.5799 5.84565 21.5808C6.07695 21.5817 6.23174 21.4152 6.23534 21.1506C6.23894 20.9049 6.23534 20.6592 6.23534 20.4135H6.23624Z" fill="#4FA83D"/>
<path d="M-0.0078125 15.9008C-0.0078125 15.0062 -0.0078125 14.1116 -0.0078125 13.217C0.00208727 13.1801 0.014687 13.1432 0.0218868 13.1054C0.0902852 12.7598 0.252282 12.4691 0.513276 12.2315C0.851668 11.9237 1.25666 11.8247 1.70305 11.8247C5.63866 11.8274 9.57337 11.8256 13.509 11.8256C14.1795 11.8256 14.8508 11.822 15.5213 11.8265C16.4753 11.8337 17.1521 12.4745 17.1665 13.4006C17.1791 14.1719 17.1746 14.9432 17.1665 15.7145C17.1611 16.2167 16.964 16.6343 16.5671 16.952C16.2458 17.2094 15.8732 17.2913 15.4709 17.2904C13.3245 17.2886 11.178 17.2904 9.03158 17.2904C6.58364 17.2904 4.13479 17.2886 1.68685 17.2922C1.12796 17.2922 0.659972 17.1149 0.30988 16.664C0.133484 16.4372 0.056086 16.1717 -0.0078125 15.8999L-0.0078125 15.9008ZM12.4794 14.5517C12.4758 14.1206 12.1293 13.7795 11.6964 13.7831C11.2662 13.7858 10.9242 14.135 10.9269 14.5661C10.9296 14.9945 11.2797 15.3383 11.7108 15.3347C12.141 15.332 12.483 14.9828 12.4794 14.5517ZM14.0409 15.3347C14.472 15.3365 14.8211 14.9927 14.8229 14.5643C14.8247 14.1332 14.4819 13.7849 14.0517 13.7831C13.6197 13.7804 13.2732 14.1224 13.2705 14.5535C13.2678 14.9855 13.6107 15.3329 14.0409 15.3347ZM4.67838 14.5445C4.67838 14.3213 4.68378 14.0972 4.67568 13.874C4.67298 13.7813 4.65858 13.6832 4.62168 13.5995C4.55328 13.4456 4.37779 13.3682 4.21849 13.4006C4.01419 13.4429 3.899 13.5833 3.8954 13.8263C3.8891 14.3123 3.8837 14.7983 3.9008 15.2843C3.9053 15.404 3.9737 15.5408 4.05379 15.6353C4.15009 15.7487 4.30399 15.7523 4.44169 15.6911C4.60908 15.6173 4.67388 15.4715 4.67658 15.2987C4.68108 15.0476 4.67748 14.7956 4.67748 14.5445H4.67838ZM2.33663 14.5589C2.33663 14.7992 2.33483 15.0395 2.33663 15.2798C2.33933 15.5534 2.49773 15.7316 2.72812 15.7289C2.95402 15.7262 3.11062 15.5507 3.11242 15.2888C3.11512 14.8028 3.11512 14.3168 3.11242 13.8308C3.11062 13.568 2.95402 13.3934 2.72902 13.3898C2.49773 13.3862 2.34023 13.5653 2.33753 13.8389C2.33483 14.0792 2.33753 14.3195 2.33753 14.5598L2.33663 14.5589ZM6.23534 14.5481C6.23534 14.3078 6.23804 14.0675 6.23534 13.8272C6.23174 13.5635 6.07605 13.3907 5.85015 13.3889C5.62606 13.3871 5.46226 13.5635 5.46046 13.8236C5.45686 14.315 5.45686 14.8064 5.46046 15.2978C5.46226 15.5552 5.63146 15.7325 5.85465 15.7271C6.07695 15.7217 6.23084 15.5534 6.23534 15.3014C6.23984 15.0503 6.23624 14.7983 6.23624 14.5472L6.23534 14.5481Z" fill="#4FA83D"/>
<path d="M12.4831 8.70218C12.4831 9.13058 12.1339 9.48248 11.7073 9.48338C11.2825 9.48338 10.9297 9.12968 10.9297 8.70308C10.9297 8.27648 11.2825 7.92188 11.7064 7.92188C12.133 7.92188 12.4822 8.27378 12.4831 8.70308V8.70218Z" fill="white"/>
<path d="M14.8268 8.70038C14.8277 9.12788 14.4776 9.48158 14.0519 9.48338C13.6262 9.48518 13.2743 9.13328 13.2734 8.70488C13.2725 8.27558 13.6208 7.92368 14.0474 7.92188C14.4722 7.92008 14.8259 8.27378 14.8268 8.70038Z" fill="white"/>
<path d="M4.67766 8.7048C4.67766 8.9505 4.68126 9.1962 4.67676 9.4419C4.67316 9.6219 4.60566 9.7713 4.42746 9.8406C4.28707 9.8946 4.13497 9.8865 4.04047 9.7704C3.96577 9.6777 3.90457 9.5463 3.90097 9.4293C3.88568 8.9442 3.89018 8.4582 3.89647 7.9722C3.89917 7.7382 4.01797 7.5852 4.20157 7.5483C4.37976 7.5123 4.54986 7.5825 4.62276 7.7427C4.66056 7.8255 4.67406 7.9245 4.67676 8.0172C4.68396 8.2458 4.67946 8.4753 4.67946 8.7039L4.67766 8.7048Z" fill="white"/>
<path d="M3.11419 8.72258C3.11419 8.96288 3.11779 9.20228 3.11419 9.44258C3.10969 9.70538 2.9513 9.87188 2.72 9.86828C2.49501 9.86468 2.34111 9.70178 2.33931 9.44708C2.33481 8.95028 2.33481 8.45348 2.33931 7.95668C2.34201 7.70378 2.49861 7.54088 2.7236 7.53908C2.9486 7.53728 3.10789 7.70108 3.11329 7.95218C3.11869 8.20868 3.11419 8.46608 3.11419 8.72258Z" fill="white"/>
<path d="M6.23852 8.71452C6.23852 8.95482 6.24122 9.19422 6.23852 9.43452C6.23492 9.70002 6.08372 9.86742 5.85333 9.86832C5.62293 9.86922 5.46544 9.70182 5.46364 9.43812C5.46004 8.94672 5.46004 8.45532 5.46364 7.96482C5.46544 7.70202 5.62563 7.53552 5.85783 7.53912C6.08282 7.54272 6.23402 7.70562 6.23852 7.96032C6.24302 8.21142 6.23942 8.46252 6.23942 8.71362L6.23852 8.71452Z" fill="white"/>
<path d="M12.4831 20.4113C12.4831 20.8406 12.1357 21.1925 11.7082 21.1943C11.2834 21.1961 10.9306 20.8424 10.9297 20.4149C10.9288 19.9874 11.2789 19.6337 11.7046 19.6328C12.1303 19.631 12.4822 19.9829 12.4831 20.4113Z" fill="white"/>
<path d="M13.2735 20.4204C13.2699 19.9911 13.6128 19.6392 14.042 19.6329C14.4641 19.6266 14.8232 19.9803 14.8259 20.4069C14.8286 20.8353 14.483 21.189 14.0564 21.1953C13.6317 21.2007 13.2771 20.8506 13.2735 20.4213V20.4204Z" fill="white"/>
<path d="M4.67856 20.4151C4.67856 20.6608 4.68126 20.9065 4.67676 21.1522C4.67316 21.3322 4.60566 21.4834 4.42836 21.5518C4.28977 21.6049 4.13587 21.5995 4.04137 21.4825C3.96667 21.3898 3.90457 21.2584 3.90097 21.1423C3.88568 20.6572 3.89018 20.1712 3.89647 19.6852C3.89917 19.4512 4.01707 19.2991 4.20067 19.2595C4.37436 19.2226 4.55076 19.2946 4.62276 19.4548C4.66056 19.5376 4.67406 19.6366 4.67676 19.7293C4.68396 19.9579 4.67946 20.1874 4.67856 20.416V20.4151Z" fill="white"/>
<path d="M2.33754 20.4084C2.33754 20.1627 2.33394 19.917 2.33844 19.6713C2.34294 19.4166 2.49413 19.2537 2.71913 19.2501C2.95042 19.2465 3.11062 19.4139 3.11242 19.6758C3.11602 20.1672 3.11602 20.6586 3.11242 21.1491C3.11062 21.4128 2.95312 21.5811 2.72273 21.5793C2.49143 21.5775 2.34114 21.411 2.33754 21.1446C2.33394 20.8989 2.33754 20.6532 2.33754 20.4075V20.4084Z" fill="white"/>
<path d="M6.23819 20.4128C6.23819 20.6585 6.24089 20.9042 6.23819 21.1499C6.23369 21.4136 6.0798 21.581 5.8485 21.5801C5.61901 21.5792 5.46511 21.4109 5.46331 21.1454C5.45971 20.6594 5.46061 20.1743 5.46331 19.6883C5.46511 19.421 5.61541 19.2536 5.8458 19.25C6.0834 19.2473 6.23639 19.4165 6.23909 19.6928C6.24179 19.9331 6.23909 20.1725 6.23909 20.4128H6.23819Z" fill="white"/>
<path d="M12.4822 14.5499C12.4858 14.9819 12.1438 15.3302 11.7136 15.3329C11.2825 15.3356 10.9324 14.9927 10.9297 14.5643C10.927 14.1332 11.2699 13.784 11.6992 13.7813C12.1321 13.7786 12.4786 14.1188 12.4822 14.5499Z" fill="white"/>
<path d="M14.0438 15.3329C13.6136 15.3311 13.2708 14.9837 13.2735 14.5517C13.2762 14.1206 13.6226 13.7786 14.0546 13.7813C14.4848 13.784 14.8286 14.1314 14.8259 14.5625C14.8241 14.9918 14.4749 15.3356 14.0438 15.3329Z" fill="white"/>
<path d="M4.67878 14.5422C4.67878 14.7933 4.68238 15.0453 4.67788 15.2964C4.67428 15.4692 4.61038 15.615 4.44299 15.6888C4.30529 15.7491 4.15139 15.7464 4.0551 15.633C3.975 15.5394 3.9066 15.4026 3.9021 15.282C3.885 14.7969 3.8904 14.31 3.8967 13.824C3.9003 13.5801 4.0155 13.4406 4.21979 13.3983C4.37819 13.365 4.55458 13.4424 4.62298 13.5972C4.65988 13.6809 4.67428 13.779 4.67698 13.8717C4.68418 14.0949 4.67968 14.319 4.67968 14.5422H4.67878Z" fill="white"/>
<path d="M2.33804 14.5568C2.33804 14.3165 2.33624 14.0761 2.33804 13.8358C2.34074 13.5622 2.49913 13.384 2.72953 13.3867C2.95542 13.3903 3.11202 13.5649 3.11292 13.8277C3.11562 14.3137 3.11562 14.7997 3.11292 15.2858C3.11112 15.5486 2.95452 15.7232 2.72863 15.7259C2.49733 15.7295 2.33984 15.5504 2.33714 15.2768C2.33444 15.0365 2.33714 14.7961 2.33714 14.5558L2.33804 14.5568Z" fill="white"/>
<path d="M6.23942 14.545C6.23942 14.7961 6.24302 15.0481 6.23852 15.2992C6.23402 15.5512 6.08012 15.7195 5.85783 15.7249C5.63463 15.7303 5.46544 15.553 5.46364 15.2956C5.46004 14.8042 5.46004 14.3128 5.46364 13.8214C5.46544 13.5613 5.62833 13.3849 5.85333 13.3867C6.08012 13.3885 6.23492 13.5613 6.23852 13.825C6.24212 14.0653 6.23852 14.3056 6.23852 14.5459L6.23942 14.545Z" fill="white"/>
<path d="M47.6482 27.1328H10.5502C9.32297 27.1328 8.32812 28.1277 8.32812 29.3549V60.9036C8.32812 62.1308 9.32297 63.1257 10.5502 63.1257H47.6482C48.8754 63.1257 49.8703 62.1308 49.8703 60.9036V29.3549C49.8703 28.1277 48.8754 27.1328 47.6482 27.1328Z" fill="#4FA83D"/>
<path d="M29.1632 60.8033C23.0928 60.8033 17.0215 60.7997 10.9512 60.8123C10.5795 60.8123 10.4913 60.7277 10.4922 60.3542C10.5048 52.0409 10.5048 43.7276 10.4922 35.4151C10.4922 35.0425 10.5777 34.9561 10.9503 34.957C23.0919 34.9678 35.2335 34.9678 47.3742 34.957C47.7459 34.957 47.8332 35.0416 47.8332 35.4151C47.8206 43.7285 47.8215 52.0409 47.8332 60.3542C47.8332 60.7268 47.7477 60.8141 47.3751 60.8132C41.3048 60.7997 35.2335 60.8042 29.1632 60.8042V60.8033ZM29.1605 57.9323C34.0501 57.9323 38.9396 57.9323 43.8283 57.9323C43.9633 57.9323 44.0983 57.9386 44.2315 57.9296C44.6563 57.8999 44.9461 57.6101 44.9497 57.2195C44.9524 56.8271 44.6653 56.5238 44.2423 56.5022C43.9138 56.4851 43.5817 56.4716 43.2559 56.504C42.8932 56.5409 42.787 56.4401 42.7888 56.0549C42.806 52.4819 42.7997 48.908 42.7988 45.335C42.7988 45.1856 42.8158 45.0308 42.7826 44.8877C42.7006 44.5277 42.4676 44.3054 42.0905 44.3036C41.6936 44.3009 41.4515 44.5277 41.375 44.912C41.3462 45.056 41.3633 45.2099 41.3633 45.3593C41.3633 48.9179 41.3543 52.4765 41.375 56.0342C41.3777 56.4491 41.2553 56.5229 40.8818 56.5049C40.2257 56.4743 39.5651 56.4707 38.909 56.5067C38.5346 56.5274 38.4788 56.3879 38.4851 56.0594C38.504 54.9533 38.4923 53.8463 38.4923 52.7402C38.4923 51.6188 38.4923 50.4974 38.4923 49.376C38.4923 49.025 38.3394 48.7721 38.0073 48.647C37.7265 48.5408 37.4772 48.6191 37.2666 48.8198C37.065 49.0124 37.0551 49.2653 37.0551 49.5254C37.0587 51.7232 37.0497 53.921 37.065 56.1188C37.0677 56.441 36.9786 56.5148 36.6699 56.504C35.9679 56.4797 35.2641 56.477 34.5621 56.504C34.2372 56.5166 34.1769 56.4131 34.1778 56.108C34.1904 53.4764 34.185 50.8448 34.185 48.2141C34.185 48.0647 34.2021 47.9099 34.1706 47.7668C34.0861 47.3852 33.8395 47.1611 33.4426 47.1728C33.0682 47.1845 32.8387 47.4077 32.7631 47.7713C32.7361 47.9009 32.7505 48.0395 32.7505 48.1736C32.7505 50.8196 32.7442 53.4665 32.7577 56.1125C32.7595 56.4266 32.6848 56.5139 32.368 56.5031C31.6363 56.477 30.9028 56.4851 30.1702 56.5004C29.9335 56.5049 29.8687 56.4356 29.8732 56.2016C29.8876 55.4546 29.8786 54.7067 29.8786 53.9588C29.8786 52.4486 29.8768 50.9384 29.8804 49.4282C29.8804 49.1042 29.7841 48.8432 29.4845 48.6839C29.2352 48.5516 28.9922 48.575 28.7636 48.7253C28.4801 48.9125 28.4405 49.1987 28.4414 49.5128C28.4468 51.7259 28.4396 53.9381 28.4504 56.1512C28.4513 56.4185 28.4 56.5103 28.112 56.5013C27.3947 56.4779 26.6765 56.477 25.9592 56.5013C25.6496 56.5121 25.5605 56.4365 25.565 56.1152C25.5839 54.6356 25.5749 53.1551 25.5731 51.6746C25.5731 51.0788 25.3023 50.7431 24.8397 50.7539C24.3915 50.7638 24.1395 51.086 24.1386 51.6611C24.1368 53.1263 24.1287 54.5915 24.1449 56.0567C24.1485 56.387 24.0927 56.5229 23.7201 56.5031C23.064 56.4671 22.4034 56.4707 21.7473 56.5022C21.372 56.5202 21.2478 56.4437 21.255 56.0297C21.2838 54.3107 21.2712 52.5908 21.2649 50.8718C21.2631 50.2247 20.7547 49.8575 20.2372 50.114C19.9123 50.2751 19.8277 50.555 19.8286 50.8943C19.8331 52.6133 19.8169 54.3332 19.8421 56.0522C19.8475 56.441 19.7332 56.5301 19.3732 56.5004C18.9727 56.4671 18.5668 56.4959 18.1627 56.4914C17.7766 56.4869 17.2717 56.6192 17.0377 56.4266C16.7911 56.2232 16.9864 55.6994 16.9612 55.3169C16.9567 55.2422 16.963 55.1675 16.9594 55.0928C16.9342 54.6383 16.6445 54.3386 16.2359 54.3422C15.8273 54.3467 15.5411 54.6464 15.5276 55.1063C15.5168 55.4798 15.5123 55.8542 15.5294 56.2277C15.5402 56.45 15.461 56.5058 15.2504 56.4977C14.8625 56.4824 14.4728 56.4815 14.084 56.4977C13.6592 56.5166 13.3721 56.819 13.373 57.2114C13.373 57.6029 13.6619 57.8945 14.0867 57.9251C14.2208 57.935 14.3558 57.9278 14.4899 57.9278C19.3795 57.9278 24.2691 57.9278 29.1578 57.9278L29.1605 57.9323ZM43.5169 40.2832C43.5169 40.9411 43.5124 41.4793 43.5178 42.0166C43.5232 42.5413 43.8022 42.8618 44.2396 42.8582C44.6761 42.8555 44.9506 42.536 44.9524 42.0067C44.9569 40.9006 44.9569 39.7945 44.9524 38.6884C44.9497 38.1025 44.6878 37.8388 44.1064 37.8361C43.0003 37.8307 41.8943 37.8316 40.7882 37.8361C40.2554 37.8379 39.9386 38.1052 39.9314 38.5417C39.9242 38.9944 40.25 39.268 40.8107 39.2716C41.3426 39.2752 41.8745 39.2716 42.4523 39.2716C42.3992 39.3517 42.3821 39.3877 42.356 39.4147C40.4228 41.3497 38.4851 43.2812 36.5592 45.2234C36.3603 45.4241 36.2658 45.3611 36.1047 45.1982C34.9905 44.0714 33.8692 42.9527 32.7487 41.8321C32.1817 41.2651 31.8892 41.266 31.3222 41.8339C29.5151 43.6421 27.7034 45.4448 25.9079 47.2646C25.6577 47.5184 25.5272 47.5661 25.2564 47.2799C24.423 46.4024 23.5545 45.5573 22.6986 44.7014C22.1325 44.1362 21.8409 44.1371 21.2721 44.7059C19.0204 46.9568 16.7686 49.2077 14.5196 51.4613C14.3945 51.5873 14.2667 51.7187 14.1776 51.8699C14.0138 52.1462 14.0678 52.4234 14.2703 52.6574C14.4737 52.8932 14.7392 52.967 15.0407 52.8689C15.2477 52.8014 15.3854 52.6385 15.533 52.49C17.593 50.4281 19.6567 48.3689 21.7086 46.2989C21.9228 46.082 22.0398 46.0595 22.263 46.2908C23.1252 47.1827 24.009 48.0539 24.8865 48.9305C25.4274 49.4714 25.7306 49.4696 26.2814 48.9188C28.1102 47.09 29.9407 45.2639 31.7587 43.4251C31.9765 43.2056 32.0926 43.1957 32.3131 43.4216C33.4201 44.5547 34.5459 45.6707 35.6664 46.7903C36.1884 47.3123 36.5007 47.3114 37.029 46.7831C38.7524 45.0605 40.4732 43.3361 42.1949 41.6116C42.6134 41.1931 43.03 40.7728 43.5196 40.2805L43.5169 40.2832Z" fill="#CAE2BC"/>
<path d="M34.8534 33.5316C30.7117 33.5316 26.57 33.5262 22.4283 33.5415C22.0557 33.5433 21.9603 33.456 21.9693 33.0825C21.9963 31.917 21.99 30.7506 21.972 29.5842C21.9675 29.2889 22.0494 29.2188 22.3401 29.2188C30.7135 29.2269 39.086 29.2269 47.4594 29.2188C47.7519 29.2188 47.8302 29.2926 47.8257 29.5851C47.8086 30.7659 47.8041 31.9476 47.8275 33.1284C47.8338 33.4659 47.7465 33.5415 47.4135 33.5406C43.2268 33.528 39.0401 33.5325 34.8543 33.5325L34.8534 33.5316ZM34.9029 32.0961C38.3696 32.0961 41.8364 32.0961 45.3031 32.0961C45.4372 32.0961 45.5731 32.1042 45.7063 32.0907C46.0996 32.0511 46.3768 31.7568 46.3804 31.3842C46.384 31.0116 46.1095 30.7092 45.7198 30.666C45.6019 30.6525 45.4813 30.6606 45.3616 30.6606C38.3831 30.6606 31.4056 30.6606 24.4272 30.6606C24.2931 30.6606 24.1545 30.6471 24.0249 30.6732C23.6613 30.747 23.4363 30.9747 23.4228 31.3491C23.4084 31.7469 23.6325 31.9935 24.0123 32.0808C24.1545 32.1132 24.3093 32.0961 24.4587 32.0961C27.9398 32.0961 31.4218 32.0961 34.9029 32.0961Z" fill="#CAE2BC"/>
<path d="M15.5655 33.5316C13.996 33.5316 12.4255 33.5235 10.8559 33.5388C10.5571 33.5415 10.4887 33.456 10.4923 33.1689C10.5085 31.9728 10.5103 30.7767 10.4923 29.5815C10.4878 29.2818 10.5769 29.2179 10.8631 29.2188C13.9726 29.2287 17.0829 29.2296 20.1923 29.2188C20.4902 29.2179 20.5595 29.3016 20.5559 29.5887C20.5397 30.7848 20.5379 31.9809 20.5559 33.1761C20.5604 33.4758 20.4713 33.5415 20.1851 33.5388C18.6453 33.5244 17.1054 33.5325 15.5655 33.5325V33.5316ZM12.6712 30.6624C12.2842 30.6516 11.953 30.9603 11.9359 31.3482C11.9197 31.7343 12.2248 32.0718 12.6109 32.0943C13.015 32.1177 13.3651 31.791 13.3687 31.3869C13.3723 30.999 13.0591 30.6741 12.6712 30.6624ZM15.5187 32.0952C15.9066 32.0979 16.2324 31.782 16.2405 31.395C16.2495 30.9891 15.912 30.6534 15.5061 30.6624C15.1182 30.6714 14.8041 30.9963 14.8077 31.3851C14.8113 31.773 15.1308 32.0925 15.5187 32.0952ZM19.1115 31.3725C19.1069 30.9837 18.7884 30.666 18.3996 30.6624C17.9946 30.6588 17.6625 31.0017 17.6787 31.4067C17.694 31.7946 18.0252 32.1042 18.4122 32.0952C18.8001 32.0853 19.1159 31.7595 19.1115 31.3725Z" fill="#CAE2BC"/>
<path d="M29.1597 57.9328C24.2701 57.9328 19.3806 57.9328 14.4919 57.9328C14.3569 57.9328 14.2219 57.94 14.0887 57.9301C13.6639 57.8995 13.3759 57.6079 13.375 57.2164C13.375 56.824 13.6612 56.5216 14.086 56.5027C14.4739 56.4856 14.8636 56.4874 15.2524 56.5027C15.463 56.5108 15.5421 56.455 15.5313 56.2327C15.5134 55.8601 15.5188 55.4848 15.5296 55.1113C15.5431 54.6514 15.8292 54.3517 16.2378 54.3472C16.6464 54.3427 16.9362 54.6433 16.9614 55.0978C16.9659 55.1725 16.9587 55.2472 16.9632 55.3219C16.9884 55.7044 16.794 56.2291 17.0397 56.4316C17.2737 56.6242 17.7786 56.4919 18.1647 56.4964C18.5679 56.5009 18.9738 56.4721 19.3752 56.5054C19.7352 56.5351 19.8495 56.446 19.8441 56.0572C19.8189 54.3382 19.836 52.6183 19.8306 50.8993C19.8297 50.56 19.9134 50.2801 20.2391 50.119C20.7566 49.8625 21.2642 50.2297 21.2669 50.8768C21.2723 52.5958 21.2858 54.3157 21.257 56.0347C21.2498 56.4487 21.3749 56.5243 21.7493 56.5072C22.4054 56.4757 23.066 56.473 23.7221 56.5081C24.0947 56.5279 24.1514 56.392 24.1469 56.0617C24.1298 54.5965 24.1388 53.1313 24.1406 51.6661C24.1406 51.091 24.3934 50.7688 24.8416 50.7589C25.3042 50.7481 25.5742 51.0838 25.5751 51.6796C25.5769 53.1601 25.5868 54.6397 25.567 56.1202C25.5625 56.4415 25.6525 56.5162 25.9612 56.5063C26.6785 56.482 27.3967 56.4829 28.114 56.5063C28.402 56.5162 28.4542 56.4244 28.4524 56.1562C28.4416 53.9431 28.4488 51.7309 28.4434 49.5178C28.4434 49.2037 28.4821 48.9166 28.7655 48.7303C28.9941 48.58 29.2371 48.5557 29.4864 48.6889C29.7861 48.8482 29.8833 49.1083 29.8824 49.4332C29.8788 50.9434 29.8806 52.4536 29.8806 53.9638C29.8806 54.7117 29.8896 55.4587 29.8752 56.2066C29.8707 56.4406 29.9355 56.5099 30.1722 56.5054C30.9048 56.4901 31.6383 56.482 32.37 56.5081C32.6868 56.5189 32.7615 56.4316 32.7597 56.1175C32.7462 53.4715 32.7516 50.8246 32.7525 48.1786C32.7525 48.0445 32.7381 47.9059 32.7651 47.7763C32.8398 47.4127 33.0701 47.1886 33.4445 47.1778C33.8423 47.1661 34.088 47.3902 34.1726 47.7718C34.2041 47.9149 34.187 48.0697 34.187 48.2191C34.187 50.8507 34.1933 53.4823 34.1798 56.113C34.178 56.4181 34.2392 56.5216 34.5641 56.509C35.2661 56.4811 35.9699 56.4838 36.6719 56.509C36.9806 56.5198 37.0697 56.446 37.067 56.1238C37.0508 53.926 37.0598 51.7282 37.0571 49.5304C37.0571 49.2703 37.0661 49.0174 37.2686 48.8248C37.4791 48.6241 37.7284 48.5458 38.0092 48.652C38.3413 48.778 38.4943 49.03 38.4943 49.381C38.4943 50.5024 38.4943 51.6238 38.4943 52.7452C38.4943 53.8513 38.506 54.9583 38.4871 56.0644C38.4817 56.3929 38.5366 56.5324 38.911 56.5117C39.5671 56.4757 40.2277 56.4793 40.8838 56.5099C41.2564 56.527 41.3797 56.4532 41.377 56.0392C41.3563 52.4806 41.3653 48.922 41.3653 45.3643C41.3653 45.2149 41.3491 45.061 41.377 44.917C41.4526 44.5318 41.6956 44.3059 42.0924 44.3086C42.4686 44.3113 42.7017 44.5327 42.7845 44.8927C42.8169 45.0358 42.8007 45.1906 42.8007 45.34C42.8007 48.913 42.8079 52.4869 42.7908 56.0599C42.789 56.4451 42.8952 56.5459 43.2579 56.509C43.5837 56.4766 43.9158 56.4901 44.2443 56.5072C44.6673 56.5288 44.9553 56.833 44.9517 57.2245C44.949 57.6151 44.6592 57.9049 44.2335 57.9346C44.0994 57.9436 43.9644 57.9373 43.8303 57.9373C38.9407 57.9373 34.0511 57.9373 29.1624 57.9373L29.1597 57.9328Z" fill="#161617"/>
<path d="M43.5166 40.2834C43.027 40.7757 42.6103 41.196 42.1918 41.6145C40.4702 43.3389 38.7485 45.0633 37.026 46.7859C36.4977 47.3142 36.1863 47.3151 35.6634 46.7931C34.5429 45.6726 33.4179 44.5575 32.3101 43.4244C32.0887 43.1985 31.9726 43.2084 31.7557 43.428C29.9368 45.2667 28.1063 47.0928 26.2784 48.9216C25.7276 49.4724 25.4243 49.4742 24.8834 48.9333C24.006 48.0558 23.1222 47.1855 22.26 46.2936C22.0368 46.0623 21.9198 46.0848 21.7056 46.3017C19.6537 48.3717 17.59 50.4309 15.5299 52.4928C15.3823 52.6404 15.2447 52.8033 15.0377 52.8717C14.7362 52.9698 14.4707 52.896 14.2673 52.6602C14.0648 52.4253 14.0108 52.1481 14.1746 51.8727C14.2646 51.7215 14.3915 51.5901 14.5166 51.4641C16.7665 49.2105 19.0174 46.9596 21.2691 44.7087C21.8379 44.1399 22.1304 44.1381 22.6956 44.7042C23.5515 45.5601 24.4199 46.4043 25.2533 47.2827C25.5242 47.568 25.6547 47.5203 25.9049 47.2674C27.7004 45.4476 29.512 43.6449 31.3192 41.8368C31.8862 41.2689 32.1787 41.268 32.7456 41.835C33.8661 42.9555 34.9875 44.0742 36.1017 45.201C36.2637 45.3648 36.3582 45.4269 36.5562 45.2262C38.4821 43.284 40.4189 41.3526 42.3529 39.4176C42.379 39.3906 42.3961 39.3546 42.4492 39.2745C41.8714 39.2745 41.3396 39.2772 40.8077 39.2745C40.247 39.2709 39.9212 38.9973 39.9284 38.5446C39.9356 38.1081 40.2524 37.8408 40.7852 37.839C41.8912 37.8354 42.9973 37.8345 44.1034 37.839C44.6857 37.8417 44.9476 38.1054 44.9494 38.6913C44.9539 39.7974 44.9539 40.9035 44.9494 42.0096C44.9476 42.5388 44.6731 42.8574 44.2366 42.861C43.7992 42.8637 43.5202 42.5442 43.5148 42.0195C43.5094 41.4813 43.5139 40.944 43.5139 40.2861L43.5166 40.2834Z" fill="#161617"/>
<path d="M34.9105 32.0952C31.4294 32.0952 27.9473 32.0952 24.4662 32.0952C24.3168 32.0952 24.162 32.1132 24.0198 32.0799C23.64 31.9926 23.4159 31.746 23.4303 31.3482C23.4438 30.9738 23.6679 30.7461 24.0324 30.6723C24.162 30.6462 24.3006 30.6597 24.4347 30.6597C31.4132 30.6597 38.3907 30.6597 45.3691 30.6597C45.4888 30.6597 45.6094 30.6525 45.7273 30.6651C46.1179 30.7083 46.3915 31.0107 46.3879 31.3833C46.3843 31.7559 46.108 32.0502 45.7138 32.0898C45.5806 32.1033 45.4447 32.0952 45.3106 32.0952C41.8439 32.0952 38.3772 32.0952 34.9105 32.0952Z" fill="#161617"/>
<path d="M12.6734 30.6605C13.0622 30.6722 13.3754 30.9971 13.3709 31.385C13.3673 31.7891 13.0163 32.1167 12.6131 32.0924C12.2261 32.0699 11.9219 31.7324 11.9381 31.3463C11.9543 30.9584 12.2864 30.6488 12.6734 30.6605Z" fill="#161617"/>
<path d="M15.5235 32.0931C15.1356 32.0904 14.8152 31.7709 14.8125 31.383C14.8089 30.9942 15.123 30.6693 15.5109 30.6603C15.9168 30.6513 16.2534 30.987 16.2453 31.3929C16.2372 31.7799 15.9114 32.0958 15.5235 32.0931Z" fill="#161617"/>
<path d="M19.113 31.3703C19.1175 31.7573 18.8016 32.0831 18.4137 32.093C18.0267 32.1029 17.6956 31.7924 17.6803 31.4045C17.6641 30.9995 17.9961 30.6566 18.4011 30.6602C18.7899 30.6638 19.1085 30.9815 19.113 31.3703Z" fill="#161617"/>
</g>
<defs>
<radialGradient id="paint0_radial_98_6124" cx="0" cy="0" r="1" gradientUnits="userSpaceOnUse" gradientTransform="translate(29.9978 0.151188) scale(16.2167 16.2171)">
<stop stop-color="#4FA83D"/>
<stop offset="0.76"/>
</radialGradient>
<clipPath id="clip0_98_6124">
<rect width="49.8688" height="63.1297" fill="white"/>
</clipPath>
</defs>
</svg>
