<svg xmlns="http://www.w3.org/2000/svg" width="34" height="21" viewBox="0 0 34 21" fill="none"><g id="AUSTRALIA_2_"><g id="Group"><g id="Group_2"><g id="Clip path group"><mask id="mask0_9372_50532" style="mask-type:luminance" maskUnits="userSpaceOnUse" x="0" y="0" width="34" height="21"><g id="SVGID_00000123402007188672039330000004463701757295784598_"><path id="Vector" d="M33.72 0.710449H0.156982V20.2894H33.72V0.710449Z" fill="white"></path></g></mask><g mask="url(#mask0_9372_50532)"><path id="Vector_2" d="M33.72 0.710449H0.156982V20.2894H33.72V0.710449Z" fill="#180087"></path></g></g><g id="Clip path group_2"><mask id="mask1_9372_50532" style="mask-type:luminance" maskUnits="userSpaceOnUse" x="0" y="0" width="34" height="21"><g id="SVGID_00000123402007188672039330000004463701757295784598__2"><path id="Vector_3" d="M33.72 0.710449H0.156982V20.2894H33.72V0.710449Z" fill="white"></path></g></mask><g mask="url(#mask1_9372_50532)"><path id="Vector_4" d="M8.98309 12.7054L9.49908 14.2964L11.0571 13.7044L10.1381 15.0944L11.5691 15.9464L9.90906 16.0904L10.1381 17.7414L8.98309 16.5344L7.83905 17.7414L8.06708 16.0904L6.40308 15.9464L7.83905 15.0944L6.9151 13.7044L8.47705 14.2964L8.98309 12.7054Z" fill="white"></path></g></g><g id="Clip path group_3"><mask id="mask2_9372_50532" style="mask-type:luminance" maskUnits="userSpaceOnUse" x="0" y="0" width="34" height="21"><g id="SVGID_00000123402007188672039330000004463701757295784598__3"><path id="Vector_5" d="M33.72 0.710449H0.156982V20.2894H33.72V0.710449Z" fill="white"></path></g></mask><g mask="url(#mask2_9372_50532)"><path id="Vector_6" d="M26.642 15.5654L26.89 16.3224L27.632 16.0414L27.194 16.7034L27.876 17.1094L27.081 17.1774L27.194 17.9634L26.642 17.3874L26.099 17.9634L26.208 17.1774L25.417 17.1094L26.099 16.7034L25.661 16.0414L26.403 16.3224L26.642 15.5654Z" fill="white"></path></g></g><g id="Clip path group_4"><mask id="mask3_9372_50532" style="mask-type:luminance" maskUnits="userSpaceOnUse" x="0" y="0" width="34" height="21"><g id="SVGID_00000123402007188672039330000004463701757295784598__4"><path id="Vector_7" d="M33.72 0.710449H0.156982V20.2894H33.72V0.710449Z" fill="white"></path></g></mask><g mask="url(#mask3_9372_50532)"><path id="Vector_8" d="M22.231 8.57544L22.4739 9.33145L23.2159 9.04944L22.778 9.71344L23.46 10.1184L22.6689 10.1854L22.778 10.9734L22.231 10.3974L21.6819 10.9734L21.7919 10.1854L21.001 10.1184L21.6819 9.71344L21.2449 9.04944L21.9869 9.33145L22.231 8.57544Z" fill="white"></path></g></g><g id="Clip path group_5"><mask id="mask4_9372_50532" style="mask-type:luminance" maskUnits="userSpaceOnUse" x="0" y="0" width="34" height="21"><g id="SVGID_00000123402007188672039330000004463701757295784598__5"><path id="Vector_9" d="M33.72 0.710449H0.156982V20.2894H33.72V0.710449Z" fill="white"></path></g></mask><g mask="url(#mask4_9372_50532)"><path id="Vector_10" d="M26.642 3.79248L26.89 4.54947L27.632 4.26947L27.194 4.92947L27.876 5.33548L27.081 5.40547L27.194 6.19048L26.642 5.61647L26.099 6.19048L26.208 5.40547L25.417 5.33548L26.099 4.92947L25.661 4.26947L26.403 4.54947L26.642 3.79248Z" fill="white"></path></g></g><g id="Clip path group_6"><mask id="mask5_9372_50532" style="mask-type:luminance" maskUnits="userSpaceOnUse" x="0" y="0" width="34" height="21"><g id="SVGID_00000123402007188672039330000004463701757295784598__6"><path id="Vector_11" d="M33.72 0.710449H0.156982V20.2894H33.72V0.710449Z" fill="white"></path></g></mask><g mask="url(#mask5_9372_50532)"><path id="Vector_12" d="M30.571 7.39941L30.8111 8.15541L31.5591 7.87341L31.1161 8.53542L31.8021 8.93941L31.0071 9.00941L31.1201 9.79741L30.571 9.22041L30.024 9.79741L30.1341 9.00941L29.3411 8.93941L30.024 8.53542L29.5871 7.87341L30.3291 8.15541L30.571 7.39941Z" fill="white"></path></g></g><g id="Clip path group_7"><mask id="mask6_9372_50532" style="mask-type:luminance" maskUnits="userSpaceOnUse" x="0" y="0" width="34" height="21"><g id="SVGID_00000123402007188672039330000004463701757295784598__7"><path id="Vector_13" d="M33.72 0.710449H0.156982V20.2894H33.72V0.710449Z" fill="white"></path></g></mask><g mask="url(#mask6_9372_50532)"><path id="Vector_14" d="M28.4109 10.9404L28.6039 11.4114L29.1099 11.4494L28.7239 11.7774L28.8429 12.2724L28.4109 12.0024L27.9809 12.2724L28.1009 11.7774L27.7119 11.4494L28.2199 11.4114L28.4109 10.9404Z" fill="white"></path></g></g><g id="Clip path group_8"><mask id="mask7_9372_50532" style="mask-type:luminance" maskUnits="userSpaceOnUse" x="0" y="0" width="34" height="21"><g id="SVGID_00000123402007188672039330000004463701757295784598__8"><path id="Vector_15" d="M33.72 0.710449H0.156982V20.2894H33.72V0.710449Z" fill="white"></path></g></mask><g mask="url(#mask7_9372_50532)"><path id="Vector_16" d="M7.51703 0.710449V3.65544H0.156982V6.59845H7.51703V9.54144H10.456V6.59845H17.819V3.65544H10.456V0.710449H7.51703Z" fill="white"></path></g></g><g id="Clip path group_9"><mask id="mask8_9372_50532" style="mask-type:luminance" maskUnits="userSpaceOnUse" x="0" y="0" width="34" height="21"><g id="SVGID_00000123402007188672039330000004463701757295784598__9"><path id="Vector_17" d="M33.72 0.710449H0.156982V20.2894H33.72V0.710449Z" fill="white"></path></g></mask><g mask="url(#mask8_9372_50532)"><path id="Vector_18" d="M0.156982 0.710449V1.69745L15.843 9.54144H17.815V8.55444L2.13202 0.710449H0.156982Z" fill="white"></path></g></g><g id="Clip path group_10"><mask id="mask9_9372_50532" style="mask-type:luminance" maskUnits="userSpaceOnUse" x="0" y="0" width="34" height="21"><g id="SVGID_00000123402007188672039330000004463701757295784598__10"><path id="Vector_19" d="M33.72 0.710449H0.156982V20.2894H33.72V0.710449Z" fill="white"></path></g></mask><g mask="url(#mask9_9372_50532)"><path id="Vector_20" d="M15.843 0.710449L0.156982 8.55444V9.54144H2.13202L17.815 1.69745V0.710449H15.843Z" fill="white"></path></g></g><g id="Clip path group_11"><mask id="mask10_9372_50532" style="mask-type:luminance" maskUnits="userSpaceOnUse" x="0" y="0" width="34" height="21"><g id="SVGID_00000123402007188672039330000004463701757295784598__11"><path id="Vector_21" d="M33.72 0.710449H0.156982V20.2894H33.72V0.710449Z" fill="white"></path></g></mask><g mask="url(#mask10_9372_50532)"><path id="Vector_22" d="M8.10199 0.710449V4.24245H0.156982V6.00945H8.10199V9.54144H9.86798V6.00945H17.815V4.24245H9.86798V0.710449H8.10199Z" fill="#EA0020"></path></g></g><g id="Clip path group_12"><mask id="mask11_9372_50532" style="mask-type:luminance" maskUnits="userSpaceOnUse" x="0" y="0" width="34" height="21"><g id="SVGID_00000123402007188672039330000004463701757295784598__12"><path id="Vector_23" d="M33.72 0.710449H0.156982V20.2894H33.72V0.710449Z" fill="white"></path></g></mask><g mask="url(#mask11_9372_50532)"><path id="Vector_24" d="M0.156982 0.710449V1.36945L4.72302 3.65445H6.04303L0.156982 0.710449ZM16.499 0.710449L10.614 3.65445H11.93L17.815 0.710449H16.499Z" fill="#EA0020"></path></g></g><g id="Clip path group_13"><mask id="mask12_9372_50532" style="mask-type:luminance" maskUnits="userSpaceOnUse" x="0" y="0" width="34" height="21"><g id="SVGID_00000123402007188672039330000004463701757295784598__13"><path id="Vector_25" d="M33.72 0.710449H0.156982V20.2894H33.72V0.710449Z" fill="white"></path></g></mask><g mask="url(#mask12_9372_50532)"><path id="Vector_26" d="M6.04401 6.59839L0.156982 9.54138H1.47302L7.35999 6.59839H6.04401ZM11.93 6.59839L17.819 9.54138V8.88338L13.247 6.59839H11.93Z" fill="#EA0020"></path></g></g></g></g></g></svg>