<svg xmlns="http://www.w3.org/2000/svg" width="16" height="16" viewBox="0 0 16 16" fill="none"><path d="M3.99873 1.06458C1.14449 2.71896 -0.295967 5.84093 0.0508101 8.88286L12.7482 1.57156C10.2674 -0.269601 6.85297 -0.56312 3.99873 1.06458Z" fill="#83BF4F"></path><path d="M3.25195 14.4331C5.73274 16.2742 9.17384 16.5678 12.0014 14.9134C14.8556 13.2857 16.2961 10.1637 15.9493 7.09509L3.25195 14.4331Z" fill="#428BC1"></path><path d="M14.936 3.99974C14.5625 3.35933 14.1091 2.79898 13.6022 2.29199L0.264648 10.0035C0.451375 10.6973 0.718126 11.3644 1.0649 12.0048C1.43836 12.6452 1.89183 13.2056 2.39866 13.7126L15.7362 6.00101C15.5762 5.30723 15.3094 4.64014 14.936 3.99974Z" fill="#3E4347"></path><path d="M15.8691 6.53473C15.8425 6.34795 15.7891 6.16117 15.7358 6.00106L2.3982 13.7126C2.53157 13.846 2.66495 13.9794 2.79832 14.0862C2.9317 14.2196 3.09175 14.3263 3.2518 14.4331L15.9492 7.09509L15.8691 6.53473ZM13.2016 1.91848C13.0683 1.78506 12.9082 1.67833 12.7482 1.57159L0.0507812 8.88289L0.130807 9.44324C0.157482 9.63003 0.210832 9.81681 0.264182 9.97691L13.6018 2.29205C13.4684 2.15863 13.335 2.02521 13.2016 1.91848Z" fill="#FFCE31"></path></svg>