<svg xmlns="http://www.w3.org/2000/svg" width="56" height="76" viewBox="0 0 56 76" fill="none"><path fill-rule="evenodd" clip-rule="evenodd" d="M2.33398 23.3333H54.834V38.7591C53.7191 38.239 52.6016 37.6653 51.463 37.07C51.2122 36.9388 50.9601 36.8064 50.7068 36.6734C48.4165 35.4709 46.0244 34.2149 43.5303 33.299C43.0766 33.1324 42.6076 32.9548 42.1264 32.7726L42.1264 32.7726C40.5059 32.159 38.7488 31.4937 36.984 31.0232C34.6643 30.4048 32.1641 30.07 29.6103 30.5994C25.8261 31.3839 23.3435 33.5374 20.8522 35.7739C18.7976 37.6184 17.252 39.6193 15.7675 41.8048C15.3066 42.4834 14.7835 43.1292 14.212 43.8348L14.212 43.8348L14.2119 43.8349L14.13 43.936C13.5417 44.6626 12.906 45.4534 12.3448 46.3152C11.7442 47.2376 10.2629 47.8213 8.73666 47.8409C6.79305 47.8658 4.85877 47.8575 2.91004 47.8492L2.33398 47.8468V23.3333ZM50.0728 39.7284C51.6079 40.5311 53.1916 41.3423 54.834 42.0461V51.0307C54.0097 51.3248 53.2342 51.6958 52.5134 52.0703C51.969 52.3532 51.4657 52.6309 50.9866 52.8952C49.9613 53.461 49.0467 53.9656 48.0762 54.3295C45.3939 55.3354 42.6177 56.0616 39.7649 56.7412C39.0453 56.9127 38.3179 57.0818 37.5858 57.2519L37.5855 57.252L37.5854 57.252C35.4434 57.75 33.2614 58.2572 31.1163 58.86C28.6346 59.5575 26.4564 60.1915 24.0563 61.696C18.1477 65.3999 11.8266 67.2472 4.84898 68.5951C4.62467 68.6385 4.40339 68.6823 4.18503 68.7255C3.54385 68.8524 2.92781 68.9743 2.33398 69.0648V50.8468L2.86198 50.8491C4.82673 50.8574 6.80694 50.8659 8.77512 50.8407C10.7369 50.8155 13.4626 50.0964 14.8588 47.9522C15.3239 47.2379 15.866 46.5594 16.4616 45.8238L16.5656 45.6954L16.5656 45.6954C17.1176 45.0141 17.7148 44.2772 18.2492 43.4905C19.6675 41.4023 21.0564 39.6221 22.8563 38.0063C25.3618 35.757 27.3094 34.1402 30.2193 33.5369C32.1401 33.1387 34.1299 33.3671 36.2112 33.922C37.8143 34.3493 39.3734 34.9393 40.966 35.5419L40.966 35.5419L40.9662 35.542L40.9663 35.542C41.472 35.7334 41.9812 35.926 42.4961 36.1151C44.7932 36.9587 47.0068 38.1201 49.3255 39.3367L49.3255 39.3367L49.3256 39.3368L49.327 39.3375L49.3289 39.3385C49.5756 39.468 49.8235 39.598 50.0728 39.7284ZM2.33398 72.0931V75.8333H54.834V54.2715C54.5291 54.4114 54.2172 54.5658 53.8967 54.7324C53.5057 54.9355 53.0887 55.1653 52.6549 55.4044L52.6548 55.4044C51.5398 56.0188 50.3132 56.6947 49.1295 57.1385C46.266 58.2124 43.3415 58.9731 40.4602 59.6595C39.7052 59.8394 38.9561 60.0136 38.2115 60.1867L38.2099 60.187L38.2097 60.1871C36.0866 60.6806 34.0014 61.1654 31.928 61.7481C29.4516 62.4441 27.6488 62.9847 25.6497 64.2379C19.2903 68.2244 12.5563 70.1617 5.41801 71.5407C5.22604 71.5777 5.02591 71.6177 4.81908 71.659L4.819 71.659C4.05696 71.8111 3.20402 71.9814 2.33398 72.0931Z" fill="#4FA83D" fill-opacity="0.29"></path><path d="M12.5 0C5.55556 0 0 5.48857 0 12.3493C0 20.8565 4.72222 28.4033 11.8056 32.7942C12.2222 33.0686 12.7778 33.0686 13.3333 32.7942C20.2778 28.2661 25 20.8565 25 12.3493C25 5.48857 19.4444 0 12.5 0ZM12.5 17.8378C9.44444 17.8378 6.94444 15.368 6.94444 12.3493C6.94444 9.33056 9.44444 6.86071 12.5 6.86071C15.5556 6.86071 18.0556 9.33056 18.0556 12.3493C18.0556 15.368 15.5556 17.8378 12.5 17.8378Z" fill="#4FA83D"></path><path d="M44 16C37.3333 16 32 21.4886 32 28.3493C32 36.8565 36.5333 44.4033 43.3333 48.7942C43.7333 49.0686 44.2667 49.0686 44.8 48.7942C51.4667 44.2661 56 36.8565 56 28.3493C56 21.4886 50.6667 16 44 16ZM44 33.8378C41.0667 33.8378 38.6667 31.368 38.6667 28.3493C38.6667 25.3306 41.0667 22.8607 44 22.8607C46.9333 22.8607 49.3333 25.3306 49.3333 28.3493C49.3333 31.368 46.9333 33.8378 44 33.8378Z" fill="#4FA83D"></path><path d="M20.5 42C13.5556 42 8 47.3222 8 53.9751C8 62.2245 12.7222 69.5426 19.8056 73.8004C20.2222 74.0665 20.7778 74.0665 21.3333 73.8004C28.2778 69.4096 33 62.2245 33 53.9751C33 47.3222 27.4444 42 20.5 42ZM20.5 59.2973C17.4444 59.2973 14.9444 56.9023 14.9444 53.9751C14.9444 51.0478 17.4444 48.6528 20.5 48.6528C23.5556 48.6528 26.0556 51.0478 26.0556 53.9751C26.0556 56.9023 23.5556 59.2973 20.5 59.2973Z" fill="#4FA83D"></path></svg>