<svg xmlns="http://www.w3.org/2000/svg" width="34" height="21" viewBox="0 0 34 21" fill="none"><g id="Israel"><path id="Vector" d="M33.8312 20.29H0.282959V0.709961H33.8312V20.29Z" fill="#083DB5"></path><path id="Vector_2" d="M33.843 16.6649H0.282959V4.48242H33.843V16.6649Z" fill="white"></path><path id="Vector_3" d="M17.0627 5.43152L15.7389 8.00862H13.0271L14.383 10.5857L13.0271 13.215H15.7237L17.0796 15.7754L18.4186 13.215H21.1152L19.7897 10.6025L21.1001 8.04219H18.4186L17.0627 5.43152Z" fill="#0C3FB4"></path><path id="Vector_4" d="M17.087 7.0614L16.6013 8.01802H17.5727L17.087 7.0614L16.6013 8.01802H17.5727L17.087 7.0614Z" fill="white"></path><path id="Vector_5" d="M19.8664 8.83655L18.8748 8.84401L19.3571 9.77825L19.8664 8.83655L18.8748 8.84401L19.3571 9.77825L19.8664 8.83655Z" fill="white"></path><path id="Vector_6" d="M14.3064 8.84778L15.2963 8.85524L14.8157 9.79135L14.3064 8.84778L15.2963 8.85524L14.8157 9.79135L14.3064 8.84778Z" fill="white"></path><path id="Vector_7" d="M17.087 14.153L16.6013 13.1964H17.5727L17.087 14.153L16.6013 13.1964H17.5727L17.087 14.153Z" fill="white"></path><path id="Vector_8" d="M19.8664 12.3797L18.8748 12.3722L19.3571 11.438L19.8664 12.3797L18.8748 12.3722L19.3571 11.438L19.8664 12.3797Z" fill="white"></path><path id="Vector_9" d="M14.3064 12.3666L15.2963 12.3592L14.8157 11.4249L14.3064 12.3666L15.2963 12.3592L14.8157 11.4249L14.3064 12.3666Z" fill="white"></path><path id="Vector_10" d="M16.1532 8.85901H18.0066L18.9089 10.6324L18.0066 12.3704H16.1684L15.2341 10.6492L16.1532 8.85901Z" fill="white"></path></g></svg>