<svg xmlns="http://www.w3.org/2000/svg" width="63" height="63" viewBox="0 0 63 63" fill="none"><rect width="62.32" height="62.3484" rx="31.16" fill="url(#paint0_linear_1814_15466)" fill-opacity="0.7"></rect><path d="M30.9026 18.1848L32.5802 16.5064L32.589 16.4976V11H32.529V16.4728L30.8506 18.1512L30.8418 18.16V21.6057H30.9026V18.1848Z" stroke="url(#paint1_linear_1814_15466)" stroke-width="1.2"></path><path d="M41.3652 21.0689L44.2764 18.1577C44.2988 18.1721 44.3244 18.1801 44.3532 18.1801C44.4316 18.1801 44.4948 18.1169 44.4948 18.0385C44.4948 17.9601 44.4316 17.8969 44.3532 17.8969C44.2748 17.8969 44.2116 17.9601 44.2116 18.0385C44.2116 18.0665 44.2204 18.0929 44.234 18.1153L41.3404 21.0089H38.0604L35.1572 23.9121L35.1996 23.9545L38.0852 21.0689H41.3652Z" stroke="url(#paint2_linear_1814_15466)" stroke-width="1.2"></path><path d="M35.7946 16.12L32.0514 19.8632C32.029 19.8488 32.0034 19.8408 31.9746 19.8408C31.8962 19.8408 31.833 19.904 31.833 19.9824C31.833 20.0608 31.8962 20.1241 31.9746 20.1241C32.053 20.1241 32.1162 20.0608 32.1162 19.9824C32.1162 19.9544 32.1074 19.928 32.0938 19.9056L35.8458 16.1536L35.8546 16.1448V14.34L34.3146 12.8V11H34.2546V12.8248L35.7946 14.3648V16.12Z" stroke="url(#paint3_linear_1814_15466)" stroke-width="1.2"></path><path d="M45.959 28.8288L44.419 30.3688H39.1494V30.4288H44.4438L45.9838 28.8888H52.3638L54.5246 26.728C54.547 26.7424 54.5726 26.7504 54.6014 26.7504C54.6798 26.7504 54.743 26.6872 54.743 26.6088C54.743 26.5304 54.6798 26.4672 54.6014 26.4672C54.523 26.4672 54.4598 26.5304 54.4598 26.6088C54.4598 26.6368 54.4686 26.6632 54.4822 26.6856L52.339 28.8288H45.959Z" stroke="url(#paint4_linear_1814_15466)" stroke-width="1.2"></path><path d="M42.9919 23.5376C42.9239 23.5376 42.8671 23.5856 42.8535 23.6496H41.8191L40.2591 25.2096H39.0591L38.4551 25.8136L38.4975 25.856L39.0839 25.2696H40.2839L41.8439 23.7096H42.8535C42.8671 23.7736 42.9239 23.8216 42.9919 23.8216C43.0703 23.8216 43.1335 23.7584 43.1335 23.68C43.1335 23.6016 43.0703 23.5376 42.9919 23.5376Z" stroke="url(#paint5_linear_1814_15466)" stroke-width="1.2"></path><path d="M49.275 23.3775C49.207 23.3775 49.1502 23.4255 49.1366 23.4895H44.699L41.6854 26.5031H40.7038C40.6902 26.4391 40.6334 26.3911 40.5654 26.3911C40.487 26.3911 40.4238 26.4543 40.4238 26.5327C40.4238 26.6111 40.487 26.6743 40.5654 26.6743C40.6334 26.6743 40.6902 26.6263 40.7038 26.5623H41.711L44.7246 23.5487H49.1374C49.151 23.6127 49.2078 23.6607 49.2758 23.6607C49.3542 23.6607 49.4174 23.5975 49.4174 23.5191C49.4174 23.4407 49.3534 23.3775 49.275 23.3775Z" stroke="url(#paint6_linear_1814_15466)" stroke-width="1.2"></path><path d="M23.6932 21.0177L23.6844 21.0089H20.4044L17.5108 18.1153C17.5252 18.0929 17.5332 18.0673 17.5332 18.0385C17.5332 17.9601 17.47 17.8969 17.3916 17.8969C17.3132 17.8969 17.25 17.9601 17.25 18.0385C17.25 18.1169 17.3132 18.1801 17.3916 18.1801C17.4196 18.1801 17.446 18.1713 17.4684 18.1577L20.3708 21.0601L20.3796 21.0689H23.6596L26.5452 23.9545L26.5876 23.9121L23.6932 21.0177Z" stroke="url(#paint7_linear_1814_15466)" stroke-width="1.2"></path><path d="M22.6838 25.2087H21.4838L19.9326 23.6575L19.9238 23.6487H18.8894C18.8758 23.5847 18.819 23.5367 18.751 23.5367C18.6726 23.5367 18.6094 23.5999 18.6094 23.6783C18.6094 23.7567 18.6726 23.8199 18.751 23.8199C18.819 23.8199 18.8758 23.7719 18.8894 23.7079H19.899L21.4502 25.2591L21.459 25.2679H22.659L23.2454 25.8543L23.2878 25.8119L22.6838 25.2087Z" stroke="url(#paint8_linear_1814_15466)" stroke-width="1.2"></path><path d="M29.6271 19.9824C29.6271 20.0608 29.6903 20.1241 29.7687 20.1241C29.8471 20.1241 29.9103 20.0608 29.9103 19.9824C29.9103 19.904 29.8471 19.8408 29.7687 19.8408C29.7407 19.8408 29.7143 19.8496 29.6919 19.8632L25.9487 16.12V14.3648L27.4799 12.8336L27.4887 12.8248V11H27.4287V12.8L25.8975 14.3312L25.8887 14.34V16.1448L29.6495 19.9056C29.6351 19.928 29.6271 19.9536 29.6271 19.9824Z" stroke="url(#paint9_linear_1814_15466)" stroke-width="1.2"></path><path d="M12.6071 23.5487H17.02L20.0248 26.5535L20.0336 26.5623H21.0408C21.0544 26.6263 21.1112 26.6743 21.1792 26.6743C21.2576 26.6743 21.3208 26.6111 21.3208 26.5327C21.3208 26.4543 21.2576 26.3911 21.1792 26.3911C21.1112 26.3911 21.0544 26.4391 21.0408 26.5031H20.0584L17.0536 23.4983L17.0448 23.4895H12.6071C12.5935 23.4255 12.5367 23.3775 12.4687 23.3775C12.3903 23.3775 12.3271 23.4407 12.3271 23.5191C12.3271 23.5975 12.3903 23.6607 12.4687 23.6607C12.5367 23.6607 12.5935 23.6127 12.6071 23.5487Z" stroke="url(#paint10_linear_1814_15466)" stroke-width="1.2"></path><path d="M7.14258 26.4672C7.06418 26.4672 7.00098 26.5304 7.00098 26.6088C7.00098 26.6872 7.06418 26.7504 7.14258 26.7504C7.17058 26.7504 7.19698 26.7416 7.21938 26.728L9.37138 28.88L9.38018 28.8888H15.7602L17.2914 30.42L17.3002 30.4288H22.5946V30.3688H17.325L15.7938 28.8376L15.785 28.8288H9.40498L7.26178 26.6856C7.27618 26.6632 7.28418 26.6376 7.28418 26.6088C7.28418 26.5304 7.22018 26.4672 7.14258 26.4672Z" stroke="url(#paint11_linear_1814_15466)" stroke-width="1.2"></path><path d="M32.1162 42.0176C32.1162 41.9392 32.053 41.876 31.9746 41.876C31.8962 41.876 31.833 41.9392 31.833 42.0176C31.833 42.096 31.8962 42.1592 31.9746 42.1592C32.0026 42.1592 32.029 42.1504 32.0514 42.1368L35.7946 45.88V47.6352L34.2634 49.1664L34.2546 49.1752V51H34.3146V49.2L35.8458 47.6688L35.8546 47.66V45.8552L32.0938 42.0944C32.1082 42.072 32.1162 42.0464 32.1162 42.0176Z" stroke="url(#paint12_linear_1814_15466)" stroke-width="1.2"></path><path d="M44.3523 44.1031C44.4307 44.1031 44.4939 44.0399 44.4939 43.9615C44.4939 43.8831 44.4307 43.8199 44.3523 43.8199C44.3243 43.8199 44.2979 43.8287 44.2755 43.8423L41.3731 40.9399L41.3643 40.9311H38.0843L35.1986 38.0455L35.1562 38.0879L38.0507 40.9823L38.0595 40.9911H41.3395L44.2331 43.8847C44.2187 43.9071 44.2107 43.9327 44.2107 43.9615C44.2107 44.0391 44.2739 44.1031 44.3523 44.1031Z" stroke="url(#paint13_linear_1814_15466)" stroke-width="1.2"></path><path d="M49.1366 38.4512H44.7238L41.719 35.4464L41.7102 35.4376H40.7038C40.6902 35.3736 40.6334 35.3256 40.5654 35.3256C40.487 35.3256 40.4238 35.3888 40.4238 35.4672C40.4238 35.5456 40.487 35.6088 40.5654 35.6088C40.6334 35.6088 40.6902 35.5608 40.7038 35.4968H41.6862L44.691 38.5016L44.6998 38.5104H49.1374C49.151 38.5744 49.2078 38.6224 49.2758 38.6224C49.3542 38.6224 49.4174 38.5592 49.4174 38.4808C49.4174 38.4024 49.3542 38.3392 49.2758 38.3392C49.207 38.3392 49.1502 38.3872 49.1366 38.4512Z" stroke="url(#paint14_linear_1814_15466)" stroke-width="1.2"></path><path d="M54.6014 35.5328C54.6798 35.5328 54.743 35.4696 54.743 35.3912C54.743 35.3128 54.6798 35.2496 54.6014 35.2496C54.5734 35.2496 54.547 35.2584 54.5246 35.272L52.3726 33.12L52.3638 33.1112H45.9838L44.4526 31.58L44.4438 31.5712H39.1494V31.6312H44.419L45.9502 33.1624L45.959 33.1712H52.339L54.4822 35.3144C54.4678 35.3368 54.4598 35.3624 54.4598 35.3912C54.4598 35.4696 54.5238 35.5328 54.6014 35.5328Z" stroke="url(#paint15_linear_1814_15466)" stroke-width="1.2"></path><path d="M23.6844 40.9911L26.5876 38.0879L26.5452 38.0455L23.6596 40.9311H20.3796L17.4684 43.8423C17.446 43.8279 17.4204 43.8199 17.3916 43.8199C17.3132 43.8199 17.25 43.8831 17.25 43.9615C17.25 44.0399 17.3132 44.1031 17.3916 44.1031C17.47 44.1031 17.5332 44.0399 17.5332 43.9615C17.5332 43.9335 17.5244 43.9071 17.5108 43.8847L20.4044 40.9911H23.6844Z" stroke="url(#paint16_linear_1814_15466)" stroke-width="1.2"></path><path d="M25.9487 45.88L29.6919 42.1368C29.7143 42.1512 29.7399 42.1592 29.7687 42.1592C29.8471 42.1592 29.9103 42.096 29.9103 42.0176C29.9103 41.9392 29.8471 41.876 29.7687 41.876C29.6903 41.876 29.6271 41.9392 29.6271 42.0176C29.6271 42.0456 29.6359 42.072 29.6495 42.0944L25.8975 45.8464L25.8887 45.8552V47.66L27.4287 49.2V51H27.4887V49.1752L25.9487 47.6352V45.88Z" stroke="url(#paint17_linear_1814_15466)" stroke-width="1.2"></path><path d="M15.7848 33.1712L17.3248 31.6312H22.5944V31.5712H17.3L15.76 33.1112H9.38L7.2184 35.272C7.196 35.2576 7.1704 35.2496 7.1416 35.2496C7.0632 35.2496 7 35.3128 7 35.3912C7 35.4696 7.0632 35.5328 7.1416 35.5328C7.22 35.5328 7.2832 35.4696 7.2832 35.3912C7.2832 35.3632 7.2744 35.3368 7.2608 35.3144L9.404 33.1712H15.7848Z" stroke="url(#paint18_linear_1814_15466)" stroke-width="1.2"></path><path d="M12.4687 38.6224C12.5367 38.6224 12.5935 38.5744 12.6071 38.5104H17.0448L20.0584 35.4968H21.0408C21.0544 35.5608 21.1112 35.6088 21.1792 35.6088C21.2576 35.6088 21.3208 35.5456 21.3208 35.4672C21.3208 35.3888 21.2576 35.3256 21.1792 35.3256C21.1112 35.3256 21.0544 35.3736 21.0408 35.4376H20.0336L17.02 38.4512H12.6071C12.5935 38.3872 12.5367 38.3392 12.4687 38.3392C12.3903 38.3392 12.3271 38.4024 12.3271 38.4808C12.3271 38.5592 12.3903 38.6224 12.4687 38.6224Z" stroke="url(#paint19_linear_1814_15466)" stroke-width="1.2"></path><path d="M30.0904 18.6208C30.0264 18.6344 29.9784 18.6912 29.9784 18.7592C29.9784 18.8376 30.0416 18.9008 30.12 18.9008C30.1984 18.9008 30.2616 18.8376 30.2616 18.7592C30.2616 18.6912 30.2136 18.6344 30.1496 18.6208V17.2632L28.5288 15.6424V14.6192L29.6472 13.5008L29.656 13.492V11H29.596V13.4664L28.4776 14.5848L28.4688 14.5936V15.6664L30.0896 17.2872V18.6208H30.0904Z" stroke="url(#paint20_linear_1814_15466)" stroke-width="1.2"></path><path d="M28.7973 45.5009L30.8941 43.4041L30.9029 43.3953V40.3945H30.8421V43.3705L28.7461 45.4673L28.7373 45.4761V47.8377L30.0117 49.1129V51.0001H30.0717V49.0873L28.7973 47.8129V45.5009Z" stroke="url(#paint21_linear_1814_15466)" stroke-width="1.2"></path><path d="M31.3914 40.3945H31.3314V42.9121L33.0042 44.5849V46.1585L30.8506 48.3113L30.8418 48.3201V51.0001H30.9026V48.3449L33.0554 46.1921L33.0642 46.1833V44.5601L31.3914 42.8873V40.3945Z" stroke="url(#paint22_linear_1814_15466)" stroke-width="1.2"></path><path d="M31.8101 17.2096L42.3438 23.2912C42.7891 23.5483 42.9226 23.6327 43.0094 23.7458C43.0519 23.8012 43.087 23.862 43.1137 23.9265C43.1682 24.0582 43.1746 24.216 43.1746 24.7302V36.8935C43.1746 37.4077 43.1682 37.5656 43.1137 37.6972C43.087 37.7618 43.0519 37.8225 43.0094 37.878C42.9226 37.991 42.7891 38.0754 42.3438 38.3325L31.8101 44.4142C31.3647 44.6713 31.2249 44.7447 31.0836 44.7633C31.0143 44.7724 30.9442 44.7724 30.8749 44.7633C30.7336 44.7447 30.5938 44.6713 30.1484 44.4142L19.6147 38.3325C19.1694 38.0754 19.0359 37.991 18.9491 37.878C18.9066 37.8225 18.8715 37.7618 18.8448 37.6972C18.7903 37.5656 18.7839 37.4077 18.7839 36.8935V24.7302C18.7839 24.216 18.7903 24.0582 18.8448 23.9265C18.8715 23.862 18.9066 23.8012 18.9491 23.7458C19.0359 23.6327 19.1694 23.5483 19.6147 23.2912L30.1484 17.2096C30.5938 16.9525 30.7336 16.879 30.8749 16.8604C30.9442 16.8513 31.0143 16.8513 31.0836 16.8604C31.2249 16.879 31.3647 16.9525 31.8101 17.2096Z" fill="white" stroke="white" stroke-width="0.7"></path><mask id="path-25-inside-1_1814_15466" fill="white"><path d="M27.0703 27.1152V25.3325C27.0703 23.1724 28.821 21.4203 30.9811 21.4203C33.1412 21.4203 34.8918 23.1709 34.8918 25.3325V27.1152"></path></mask><path d="M29.0703 27.1152V25.3325H25.0703V27.1152H29.0703ZM29.0703 25.3325C29.0703 24.276 29.9266 23.4203 30.9811 23.4203V19.4203C27.7154 19.4203 25.0703 22.0689 25.0703 25.3325H29.0703ZM30.9811 23.4203C32.0361 23.4203 32.8918 24.275 32.8918 25.3325H36.8918C36.8918 22.0668 34.2462 19.4203 30.9811 19.4203V23.4203ZM32.8918 25.3325V27.1152H36.8918V25.3325H32.8918Z" fill="url(#paint23_linear_1814_15466)" mask="url(#path-25-inside-1_1814_15466)"></path><path d="M37.8675 36.6844C37.8675 37.9691 36.8241 39.0125 35.5394 39.0125H26.4209C25.1362 39.0125 24.0928 37.9691 24.0928 36.6844V29.4435C24.0928 28.1587 25.1362 27.1154 26.4209 27.1154H35.5394C36.8241 27.1154 37.8675 28.1587 37.8675 29.4435V36.6844Z" stroke="#438736" stroke-width="0.7" stroke-miterlimit="10" stroke-linecap="round"></path><path d="M32.95 32.5151C32.95 33.6028 32.0685 34.4842 30.9808 34.4842C29.8932 34.4842 29.0117 33.6028 29.0117 32.5151C29.0117 31.4274 29.8932 30.546 30.9808 30.546C32.0685 30.546 32.95 31.4274 32.95 32.5151Z" stroke="#438736" stroke-width="0.7" stroke-miterlimit="10" stroke-linecap="round"></path><path d="M30.9805 34.4859V36.8598" stroke="#438736" stroke-width="0.7" stroke-miterlimit="10" stroke-linecap="round"></path><path d="M37.8675 36.6844C37.8675 37.9691 36.8241 39.0125 35.5394 39.0125H26.4209C25.1362 39.0125 24.0928 37.9691 24.0928 36.6844V29.4435C24.0928 28.1587 25.1362 27.1154 26.4209 27.1154H35.5394C36.8241 27.1154 37.8675 28.1587 37.8675 29.4435V36.6844Z" fill="url(#paint24_linear_1814_15466)"></path><path d="M32.95 31.7519C32.95 32.8396 32.0685 33.7211 30.9808 33.7211C29.8932 33.7211 29.0117 32.8396 29.0117 31.7519C29.0117 30.6643 29.8932 29.7828 30.9808 29.7828C32.0685 29.7828 32.95 30.6643 32.95 31.7519Z" stroke="#D9D9D9" stroke-width="1.5" stroke-miterlimit="10" stroke-linecap="round"></path><path d="M30.9805 33.7228V36.0967" stroke="#D9D9D9" stroke-width="1.5" stroke-miterlimit="10" stroke-linecap="round"></path><defs><linearGradient id="paint0_linear_1814_15466" x1="25.0645" y1="26.8104" x2="45.4795" y2="62.2067" gradientUnits="userSpaceOnUse"><stop stop-color="#56B743"></stop><stop offset="1" stop-color="#083100"></stop></linearGradient><linearGradient id="paint1_linear_1814_15466" x1="31.7154" y1="11" x2="47.6141" y2="22.897" gradientUnits="userSpaceOnUse"><stop offset="0.380208" stop-color="#63BF51"></stop><stop offset="1" stop-color="#15380E"></stop></linearGradient><linearGradient id="paint2_linear_1814_15466" x1="39.826" y1="17.8969" x2="42.4757" y2="36.449" gradientUnits="userSpaceOnUse"><stop offset="0.380208" stop-color="#63BF51"></stop><stop offset="1" stop-color="#15380E"></stop></linearGradient><linearGradient id="paint3_linear_1814_15466" x1="33.8438" y1="11" x2="45.2421" y2="33.8202" gradientUnits="userSpaceOnUse"><stop offset="0.380208" stop-color="#63BF51"></stop><stop offset="1" stop-color="#15380E"></stop></linearGradient><linearGradient id="paint4_linear_1814_15466" x1="46.9462" y1="26.4672" x2="47.6365" y2="38.809" gradientUnits="userSpaceOnUse"><stop offset="0.380208" stop-color="#63BF51"></stop><stop offset="1" stop-color="#15380E"></stop></linearGradient><linearGradient id="paint5_linear_1814_15466" x1="40.7943" y1="23.5376" x2="41.5754" y2="30.6976" gradientUnits="userSpaceOnUse"><stop offset="0.380208" stop-color="#63BF51"></stop><stop offset="1" stop-color="#15380E"></stop></linearGradient><linearGradient id="paint6_linear_1814_15466" x1="44.9206" y1="23.3775" x2="45.7467" y2="33.6137" gradientUnits="userSpaceOnUse"><stop offset="0.380208" stop-color="#63BF51"></stop><stop offset="1" stop-color="#15380E"></stop></linearGradient><linearGradient id="paint7_linear_1814_15466" x1="21.9188" y1="17.8969" x2="24.5685" y2="36.449" gradientUnits="userSpaceOnUse"><stop offset="0.380208" stop-color="#63BF51"></stop><stop offset="1" stop-color="#15380E"></stop></linearGradient><linearGradient id="paint8_linear_1814_15466" x1="20.9486" y1="23.5367" x2="21.7292" y2="30.6943" gradientUnits="userSpaceOnUse"><stop offset="0.380208" stop-color="#63BF51"></stop><stop offset="1" stop-color="#15380E"></stop></linearGradient><linearGradient id="paint9_linear_1814_15466" x1="27.8995" y1="11" x2="39.2978" y2="33.8202" gradientUnits="userSpaceOnUse"><stop offset="0.380208" stop-color="#63BF51"></stop><stop offset="1" stop-color="#15380E"></stop></linearGradient><linearGradient id="paint10_linear_1814_15466" x1="16.824" y1="23.3775" x2="17.65" y2="33.6137" gradientUnits="userSpaceOnUse"><stop offset="0.380208" stop-color="#63BF51"></stop><stop offset="1" stop-color="#15380E"></stop></linearGradient><linearGradient id="paint11_linear_1814_15466" x1="14.7978" y1="26.4672" x2="15.4881" y2="38.809" gradientUnits="userSpaceOnUse"><stop offset="0.380208" stop-color="#63BF51"></stop><stop offset="1" stop-color="#15380E"></stop></linearGradient><linearGradient id="paint12_linear_1814_15466" x1="33.8438" y1="41.876" x2="45.2421" y2="64.6961" gradientUnits="userSpaceOnUse"><stop offset="0.380208" stop-color="#63BF51"></stop><stop offset="1" stop-color="#15380E"></stop></linearGradient><linearGradient id="paint13_linear_1814_15466" x1="39.8251" y1="38.0455" x2="42.4747" y2="56.5977" gradientUnits="userSpaceOnUse"><stop offset="0.380208" stop-color="#63BF51"></stop><stop offset="1" stop-color="#15380E"></stop></linearGradient><linearGradient id="paint14_linear_1814_15466" x1="44.9206" y1="35.3256" x2="45.7467" y2="45.5618" gradientUnits="userSpaceOnUse"><stop offset="0.380208" stop-color="#63BF51"></stop><stop offset="1" stop-color="#15380E"></stop></linearGradient><linearGradient id="paint15_linear_1814_15466" x1="46.9462" y1="31.5712" x2="47.6365" y2="43.913" gradientUnits="userSpaceOnUse"><stop offset="0.380208" stop-color="#63BF51"></stop><stop offset="1" stop-color="#15380E"></stop></linearGradient><linearGradient id="paint16_linear_1814_15466" x1="21.9188" y1="38.0455" x2="24.5685" y2="56.5977" gradientUnits="userSpaceOnUse"><stop offset="0.380208" stop-color="#63BF51"></stop><stop offset="1" stop-color="#15380E"></stop></linearGradient><linearGradient id="paint17_linear_1814_15466" x1="27.8995" y1="41.876" x2="39.2978" y2="64.6961" gradientUnits="userSpaceOnUse"><stop offset="0.380208" stop-color="#63BF51"></stop><stop offset="1" stop-color="#15380E"></stop></linearGradient><linearGradient id="paint18_linear_1814_15466" x1="14.7972" y1="31.5712" x2="15.4875" y2="43.913" gradientUnits="userSpaceOnUse"><stop offset="0.380208" stop-color="#63BF51"></stop><stop offset="1" stop-color="#15380E"></stop></linearGradient><linearGradient id="paint19_linear_1814_15466" x1="16.824" y1="35.3256" x2="17.65" y2="45.5618" gradientUnits="userSpaceOnUse"><stop offset="0.380208" stop-color="#63BF51"></stop><stop offset="1" stop-color="#15380E"></stop></linearGradient><linearGradient id="paint20_linear_1814_15466" x1="29.3652" y1="11" x2="41.7049" y2="23.7184" gradientUnits="userSpaceOnUse"><stop offset="0.380208" stop-color="#63BF51"></stop><stop offset="1" stop-color="#15380E"></stop></linearGradient><linearGradient id="paint21_linear_1814_15466" x1="29.8201" y1="40.3945" x2="46.345" y2="55.7211" gradientUnits="userSpaceOnUse"><stop offset="0.380208" stop-color="#63BF51"></stop><stop offset="1" stop-color="#15380E"></stop></linearGradient><linearGradient id="paint22_linear_1814_15466" x1="31.953" y1="40.3945" x2="48.5046" y2="56.1485" gradientUnits="userSpaceOnUse"><stop offset="0.380208" stop-color="#63BF51"></stop><stop offset="1" stop-color="#15380E"></stop></linearGradient><linearGradient id="paint23_linear_1814_15466" x1="30.9811" y1="21.4203" x2="30.9811" y2="31.1966" gradientUnits="userSpaceOnUse"><stop stop-color="#438736"></stop><stop offset="1" stop-color="#13340D"></stop></linearGradient><linearGradient id="paint24_linear_1814_15466" x1="23.2114" y1="26.5544" x2="31.6604" y2="38.7825" gradientUnits="userSpaceOnUse"><stop stop-color="#56B743"></stop><stop offset="1" stop-color="#083100"></stop></linearGradient></defs></svg>