<svg xmlns="http://www.w3.org/2000/svg" width="37.825" height="37.825" viewBox="0 0 37.825 37.825"><g id="confirmation" transform="translate(0)"><g id="Group_3191" data-name="Group 3191" transform="translate(12.608 13.396)"><g id="Group_3190" data-name="Group 3190"><path id="Path_13900" data-name="Path 13900" d="M142.512,136.464a1.576,1.576,0,0,0-2.229,0l-6.766,6.765-2.826-2.825a1.576,1.576,0,0,0-2.229,2.229l3.94,3.94a1.575,1.575,0,0,0,2.229,0l7.88-7.88A1.576,1.576,0,0,0,142.512,136.464Z" transform="translate(-128.002 -136.002)" fill="#59a52c"></path></g></g><g id="Group_3193" data-name="Group 3193" transform="translate(0)"><g id="Group_3192" data-name="Group 3192"><path id="Path_13901" data-name="Path 13901" d="M36.249,17.336a1.577,1.577,0,0,0-1.576,1.576A15.759,15.759,0,1,1,30.1,7.808a1.576,1.576,0,1,0,2.236-2.221,18.912,18.912,0,1,0,5.492,13.325A1.577,1.577,0,0,0,36.249,17.336Z" transform="translate(0 0)" fill="#59a52c"></path></g></g></g></svg>