<svg xmlns="http://www.w3.org/2000/svg" width="22" height="27" viewBox="0 0 22 27" fill="none"><path d="M21.9375 6.78402C21.9061 6.09027 21.9061 5.42885 21.9061 4.76672C21.9084 4.64194 21.8858 4.51798 21.8395 4.40225C21.7933 4.28651 21.7244 4.18138 21.637 4.09314C21.5496 4.00489 21.4455 3.93534 21.3309 3.88864C21.2163 3.84194 21.0936 3.81905 20.9701 3.82133C17.0691 3.82133 14.1042 2.68687 11.6383 0.25978C11.4602 0.0927958 11.2261 0 10.9831 0C10.74 0 10.506 0.0927958 10.3278 0.25978C7.86195 2.68687 4.89916 3.82133 0.996098 3.82133C0.872544 3.81905 0.749803 3.84194 0.635207 3.88864C0.520611 3.93534 0.416513 4.00489 0.329133 4.09314C0.241753 4.18138 0.172883 4.28651 0.126642 4.40225C0.0804008 4.51798 0.0577365 4.64194 0.0600023 4.76672C0.0600023 5.42885 0.0600036 6.09027 0.0286845 6.78402C-0.0965921 13.4032 -0.283811 22.481 10.6709 26.2949L10.9827 26.3582L11.2945 26.2949C22.2186 22.481 22.0627 13.4348 21.9375 6.78402ZM10.2339 15.9554C10.0523 16.1161 9.81966 16.2057 9.57824 16.2077H9.54692C9.42173 16.2054 9.29846 16.1762 9.18539 16.1219C9.07232 16.0676 8.97204 15.9895 8.8913 15.8928L5.98906 12.6461L7.39425 11.3866L9.67289 13.9395L14.7292 9.08529L16.0077 10.4728L10.2339 15.9554Z" fill="#4FA83D"></path></svg>