<svg xmlns="http://www.w3.org/2000/svg" id="Group_3642" data-name="Group 3642" width="27.749" height="30.829" viewBox="0 0 27.749 30.829"><path id="Path_14084" data-name="Path 14084" d="M2485,1136.682l3.5-3.5a.572.572,0,0,1,.815,0l3.5,3.5a.571.571,0,0,1-.408.979h-2.347l-.009,7.671,7.5,7.5-.007-6.759H2495.2a.569.569,0,0,1-.392-.978l3.5-3.5a.57.57,0,0,1,.815,0l3.5,3.5a.571.571,0,0,1-.408.978h-2.347l0,1.614s0,0,0,.005v14.995a1.153,1.153,0,1,1-2.306,0V1156.1l-9.46-9.461a1.213,1.213,0,0,1-.343-.815l-.008-8.161h-2.348A.57.57,0,0,1,2485,1136.682Z" transform="translate(-2484.829 -1133.013)" fill="#cae2bc"/><path id="Path_14085" data-name="Path 14085" d="M2555.055,1136.7l-3.5-3.5a.572.572,0,0,0-.815,0l-3.5,3.5a.571.571,0,0,0,.408.979H2550l.008,7.671-7.5,7.5,0,3.263,9.46-9.461a1.208,1.208,0,0,0,.342-.815l.008-8.161h2.349A.57.57,0,0,0,2555.055,1136.7Z" transform="translate(-2527.477 -1133.03)" fill="#fff"/></svg>