<svg xmlns="http://www.w3.org/2000/svg" width="43" height="48" viewBox="0 0 43 48" fill="none"><g clip-path="url(#clip0_1572_25396)"><path d="M0.265478 5.71256L5.6891 0.263141C5.77157 0.179017 5.86973 0.112217 5.97813 0.0666185C6.08654 0.0210197 6.20299 -0.00256348 6.32052 -0.00256348C6.43804 -0.00256348 6.55449 0.0210197 6.6629 0.0666185C6.7713 0.112217 6.86946 0.179017 6.95193 0.263141L12.3756 5.71256C12.502 5.83691 12.5885 5.99657 12.6237 6.17079C12.659 6.34501 12.6415 6.52574 12.5734 6.68985C12.5053 6.85395 12.39 6.99376 12.242 7.09125C12.094 7.18875 11.9203 7.23952 11.7434 7.23684H8.10657L8.09257 19.1804L19.7146 30.8577L19.7036 20.3341H16.0714C15.8962 20.333 15.7255 20.2794 15.5807 20.1803C15.4359 20.0813 15.3235 19.9412 15.2584 19.7778C15.1932 19.6144 15.1783 19.4352 15.2149 19.2631C15.2515 19.091 15.3383 18.9337 15.4642 18.8113L20.8878 13.3619C20.97 13.2774 21.068 13.2103 21.1764 13.1644C21.2849 13.1186 21.4016 13.0951 21.5192 13.0951C21.6369 13.0951 21.7532 13.1186 21.8616 13.1644C21.97 13.2103 22.0684 13.2774 22.1506 13.3619L27.5742 18.8113C27.7001 18.9358 27.786 19.0952 27.8209 19.2692C27.8559 19.4431 27.8382 19.6237 27.7702 19.7875C27.7022 19.9513 27.5872 20.0907 27.4396 20.1881C27.2919 20.2856 27.1187 20.3365 26.9421 20.3341H23.3049V22.8471C23.3049 22.8471 23.3049 22.8471 23.3049 22.8549V46.2017C23.3049 46.6778 23.1167 47.1345 22.7817 47.4711C22.4466 47.8078 21.9923 47.9968 21.5185 47.9968C21.0446 47.9968 20.5899 47.8078 20.2549 47.4711C19.9198 47.1345 19.7316 46.6778 19.7316 46.2017V35.9459L5.07243 21.2154C4.74267 20.8747 4.55285 20.4215 4.54089 19.9464L4.52841 7.23988H0.890087C0.712828 7.24242 0.538659 7.19127 0.390703 7.09316C0.242746 6.99504 0.127792 6.85461 0.0604278 6.68985C-0.00693598 6.52509 -0.0234431 6.34375 0.0131376 6.16946C0.0497182 5.99517 0.137634 5.83595 0.265478 5.71256Z" fill="#4FA83D"></path><path d="M42.7357 5.71402L37.3121 0.26461C37.2296 0.180487 37.1314 0.113687 37.023 0.0680879C36.9146 0.022489 36.7982 -0.000904083 36.6806 -0.000904083C36.5631 -0.000904083 36.4467 0.022489 36.3383 0.0680879C36.2298 0.113687 36.1317 0.180487 36.0492 0.26461L30.6256 5.71402C30.4991 5.83838 30.4127 5.99804 30.3774 6.17226C30.3422 6.34648 30.3597 6.5274 30.4277 6.69151C30.4958 6.85561 30.6112 6.99542 30.7591 7.09291C30.9071 7.19041 31.0808 7.24099 31.2578 7.23831H34.9025L34.915 19.1819L23.293 30.8592V35.9397L37.9522 21.2091C38.282 20.8686 38.4714 20.4153 38.4822 19.9402L38.4947 7.23375H42.1345C42.3082 7.23009 42.4768 7.17512 42.6195 7.07562C42.7622 6.97611 42.8728 6.83639 42.9369 6.67421C43.0011 6.51204 43.0162 6.33449 42.9804 6.16371C42.9447 5.99293 42.8594 5.83648 42.7357 5.71402Z" fill="#4FA83D"></path></g><defs><clipPath id="clip0_1572_25396"><rect width="43" height="48" fill="white"></rect></clipPath></defs></svg>