<svg xmlns="http://www.w3.org/2000/svg" width="260.24" height="289.127" viewBox="0 0 260.24 289.127"><g id="Group_3642" data-name="Group 3642" transform="translate(0 0)" opacity="0.08"><path id="Path_14084" data-name="Path 14084" d="M2486.444,1167.416l32.8-32.8a5.357,5.357,0,0,1,7.647,0l32.8,32.8a5.352,5.352,0,0,1-3.823,9.177H2533.85l-.081,71.946,70.365,70.359-.066-63.388h-22.021a5.34,5.34,0,0,1-3.668-9.174l32.8-32.8a5.362,5.362,0,0,1,7.65,0l32.8,32.8a5.353,5.353,0,0,1-3.825,9.174h-22.016l-.017,15.134c0,.017,0,.034,0,.051v140.626a10.811,10.811,0,1,1-21.622,0V1349.5l-88.724-88.728a11.379,11.379,0,0,1-3.219-7.641l-.073-76.536h-22.02A5.342,5.342,0,0,1,2486.444,1167.416Z" transform="translate(-2484.828 -1133.012)" fill="#fff"></path><path id="Path_14085" data-name="Path 14085" d="M2660.207,1167.438l-32.8-32.8a5.357,5.357,0,0,0-7.647,0l-32.8,32.8a5.355,5.355,0,0,0,3.82,9.178h22.025l.076,71.944-70.36,70.36-.017,30.6,88.727-88.726a11.36,11.36,0,0,0,3.207-7.642l.078-76.536h22.023A5.343,5.343,0,0,0,2660.207,1167.438Z" transform="translate(-2401.582 -1132.981)" fill="#fff"></path></g></svg>