<svg xmlns="http://www.w3.org/2000/svg" width="116" height="116" viewBox="0 0 116 116"><g id="Group_6029" data-name="Group 6029" transform="translate(-721 -3033)"><rect id="Rectangle_214" data-name="Rectangle 214" width="116" height="116" rx="58" transform="translate(837 3149) rotate(180)" fill="#4fa83d"></rect><g id="Group_6013" data-name="Group 6013" transform="translate(1168.265 2973.187)"><path id="Path_42736" data-name="Path 42736" d="M-415.265,118c.074-.266.143-.533.223-.8a5,5,0,0,1,4.637-3.537c1.182-.025,2.364,0,3.554,0a23.99,23.99,0,0,0,.148,2.529,4.905,4.905,0,0,0,4.812,4.137q6.205.042,12.411,0a4.983,4.983,0,0,0,4.938-4.935c.011-.554,0-1.108,0-1.748,1.655.1,3.288-.212,4.886.233a4.889,4.889,0,0,1,3.558,4.553c.042,3.97.015,7.94.015,11.91a.52.52,0,0,1-.027.129c-1-.231-1.976-.505-2.974-.681a13.858,13.858,0,0,0-6.379.427,3.339,3.339,0,0,1-.925.135q-10.185.011-20.37.008a1.67,1.67,0,0,0-1.687,2.321A1.66,1.66,0,0,0-406.8,133.7q3.84,0,7.68,0h7.571c-.773,1.075-1.523,2.141-2.309,3.18-.1.129-.389.153-.592.153-4.119.008-8.237,0-12.356.009a1.661,1.661,0,0,0-1.618,2.361,1.686,1.686,0,0,0,1.669.978q5.4-.008,10.8,0h.609l-.473,3.34h-.573c-3.469,0-6.938-.005-10.408,0a1.662,1.662,0,0,0-1.624,2.358,1.684,1.684,0,0,0,1.668.981q5.371-.008,10.742,0h.494l1.141,3.34h-.606q-5.9,0-11.8,0a1.662,1.662,0,0,0-1.621,2.394,1.71,1.71,0,0,0,1.689.947c4.415-.007,8.831.025,13.246-.026a3.036,3.036,0,0,1,2.376.933,32.421,32.421,0,0,0,3.162,2.429h-.506q-9.155,0-18.311,0A1.666,1.666,0,0,0-408.4,159.5a1.687,1.687,0,0,0,1.645.927q4.814-.008,9.629,0h12.189c1.5,0,2-.424,2.235-1.926a14.815,14.815,0,0,0,6.621-.916c0,.455.006.833,0,1.211a37.747,37.747,0,0,1-.105,4.109,4.806,4.806,0,0,1-3.979,4.108,1.763,1.763,0,0,0-.257.095h-30.5c-.14-.041-.28-.086-.421-.122a5,5,0,0,1-3.682-3.37c-.1-.277-.16-.566-.239-.849Zm19.6,5.678q-5.534,0-11.067,0a1.7,1.7,0,0,0-1.707,1.006,1.668,1.668,0,0,0,1.661,2.336q6.924.009,13.848,0,4.171,0,8.342,0a1.68,1.68,0,0,0,1.666-.981,1.661,1.661,0,0,0-1.62-2.359Q-390.1,123.673-395.662,123.682Z" transform="translate(0 -20.287)" fill="#c2e1bc"></path><path id="Path_42737" data-name="Path 42737" d="M-322.045,89.813a2.458,2.458,0,0,1,1.79,2.772c-.047.775,0,1.556-.01,2.334a1.674,1.674,0,0,1-1.761,1.793q-6.031.011-12.063,0a1.673,1.673,0,0,1-1.76-1.793c-.007-.8.035-1.6-.009-2.39a2.435,2.435,0,0,1,1.789-2.716Z" transform="translate(-67.614)" fill="#c2e1bc"></path><path id="Path_42738" data-name="Path 42738" d="M-100.557,408.339a5.152,5.152,0,0,1-2.422-1.582c-1.354-1.4-2.765-2.738-4.115-4.139a3.322,3.322,0,0,1,1.536-5.566,3.016,3.016,0,0,1,2.963.673q2.61,2.5,5.1,5.113a6.436,6.436,0,0,1,.829,1.6v1.113a3.648,3.648,0,0,1-2.783,2.783Z" transform="translate(-261.605 -261.526)" fill="#fff"></path><path id="Path_42739" data-name="Path 42739" d="M-241.288,261.466l2.3,2.257-2.4,2.368-2.233-2.286a11.093,11.093,0,0,1-9.594,1.769,10.759,10.759,0,0,1-6.338-4.6,11.093,11.093,0,0,1,1.939-14.486A11.108,11.108,0,0,1-243,246.417,11.181,11.181,0,0,1-241.288,261.466Zm-10.541-5.777c-.724-.74-1.343-1.406-2-2.033a1.647,1.647,0,0,0-2.351.027,1.652,1.652,0,0,0,0,2.312q1.567,1.619,3.186,3.187a1.615,1.615,0,0,0,2.308.008q3.188-3.146,6.335-6.334a1.638,1.638,0,0,0-.025-2.35,1.646,1.646,0,0,0-2.351.029c-1.271,1.247-2.524,2.512-3.779,3.775C-250.937,254.741-251.351,255.188-251.829,255.689Z" transform="translate(-131.023 -131.053)" fill="#fff"></path></g></g></svg>