<svg xmlns="http://www.w3.org/2000/svg" width="214" height="105" viewBox="0 0 214 105" fill="none"><path d="M41.5115 13.3187C41.4448 13.3189 41.378 13.2608 41.3109 13.1444C41.2438 13.028 41.21 12.9031 41.2095 12.7697C41.2087 12.5364 41.2998 12.3778 41.4828 12.2938C42.2648 11.9076 42.9634 11.5218 43.5787 11.1362C44.194 10.7507 44.9178 10.4231 45.7502 10.1534C46.516 9.91736 47.3487 9.73937 48.2483 9.61948C49.1645 9.49953 49.981 9.43826 50.6976 9.43569L51.5476 9.43265C52.0643 9.43079 52.5477 9.45406 52.9979 9.50244C53.4481 9.55083 53.8569 9.69103 54.2244 9.92305C54.2244 9.92305 54.3079 9.95608 54.4748 10.0222C54.6583 10.0882 54.8004 10.196 54.9009 10.3456C54.9679 10.4287 55.0099 10.5202 55.0269 10.6202C55.0439 10.7201 55.0527 10.8284 55.0531 10.9451C55.0533 11.0117 55.0536 11.0784 55.0538 11.1451C55.054 11.2117 55.046 11.2868 55.0296 11.3702C55.0134 11.5036 54.989 11.662 54.9563 11.8454C54.9402 12.0122 54.8658 12.1624 54.7329 12.2962C54.6335 12.4466 54.5088 12.547 54.359 12.5976C54.2092 12.6481 54.1176 12.6734 54.0843 12.6736L54.0343 12.6737C53.8843 12.6743 53.7758 12.633 53.7088 12.5499C53.6585 12.4668 53.6332 12.3669 53.6327 12.2502C53.632 12.0502 53.6647 11.8584 53.7307 11.6748C53.8133 11.4745 53.8546 11.3661 53.8545 11.3494L53.8544 11.3244C53.854 11.2077 53.7368 11.0665 53.5029 10.9006C53.1019 10.6187 52.6263 10.4538 52.0761 10.4058C51.5259 10.3577 50.9175 10.3349 50.2509 10.3373C49.6509 10.3395 48.9678 10.4252 48.2018 10.5947C47.4523 10.7473 46.6698 10.9668 45.8541 11.2531C45.0551 11.5393 44.2813 11.8587 43.5325 12.2114C42.8004 12.5474 42.1517 12.908 41.5864 13.2934C41.5698 13.3101 41.5448 13.3185 41.5115 13.3187ZM45.4511 24.3546C45.1844 24.3556 44.9174 24.2482 44.6499 24.0325C44.3992 23.8334 44.298 23.5004 44.3464 23.0336C44.3945 22.5167 44.5171 21.8579 44.7143 21.0572C44.9281 20.2565 45.1833 19.3972 45.48 18.4795C45.7934 17.545 46.1233 16.6105 46.47 15.6759C46.8333 14.7413 47.1802 13.8733 47.5107 13.0721C47.8577 12.2542 48.1719 11.5698 48.4533 11.0188C48.6023 10.7516 48.8102 10.6175 49.0769 10.6165C49.2269 10.616 49.3604 10.6738 49.4775 10.7901C49.5945 10.8897 49.6534 11.0478 49.6542 11.2644C49.6544 11.3144 49.6298 11.4479 49.5806 11.6647C49.5481 11.8815 49.4906 12.115 49.4081 12.3653C49.3423 12.5989 49.268 12.7825 49.1851 12.9161C49.0194 13.1834 48.8204 13.4675 48.5882 13.7683C48.3558 14.0525 48.1487 14.3865 47.9668 14.7705C47.1562 16.4901 46.5451 18.034 46.1334 19.4021C45.7382 20.7536 45.5088 21.8544 45.4452 22.7046C45.4456 22.8213 45.4961 22.9461 45.5965 23.0791C45.7137 23.212 45.8225 23.3449 45.923 23.4779C46.0401 23.6108 46.0989 23.7439 46.0994 23.8773C46.0999 24.0106 46.017 24.1359 45.8507 24.2532C45.7677 24.3201 45.6344 24.3539 45.4511 24.3546ZM53.5722 23.2005C53.4222 23.201 53.2803 23.1432 53.1466 23.027C53.0294 22.8941 52.9703 22.6776 52.9693 22.3776C52.969 22.311 52.9688 22.2443 52.9685 22.1776C52.9849 22.0942 53.0013 22.0108 53.0176 21.9275C53.165 21.1936 53.3539 20.4179 53.5843 19.6004C53.8314 18.7828 54.0786 18.0153 54.3261 17.2977C54.5734 16.5635 54.7547 15.9879 54.8699 15.5708C54.9522 15.3038 55.0682 15.1117 55.2178 14.9945C55.384 14.8773 55.5505 14.8183 55.7172 14.8177C55.9005 14.8171 56.0507 14.8749 56.1678 14.9911C56.3015 15.0906 56.3687 15.2321 56.3693 15.4154C56.3699 15.5654 56.3205 15.7322 56.2211 15.9159C56.1218 16.0996 55.9978 16.3917 55.8492 16.7923C55.7174 17.1927 55.5855 17.5932 55.4536 17.9937C55.3217 18.3942 55.2061 18.6946 55.1068 18.8949C55.6881 18.3262 56.2114 17.8576 56.6768 17.4893C57.1421 17.121 57.7575 16.7604 58.5229 16.4077C58.8556 16.2398 59.2887 16.1549 59.822 16.153C60.2053 16.1516 60.5889 16.2253 60.9728 16.3739C61.3567 16.5225 61.6743 16.788 61.9256 17.1705C62.177 17.5529 62.304 18.0941 62.3065 18.7941C62.3074 19.0608 62.1579 19.1947 61.8579 19.1957C61.7412 19.1961 61.6161 19.1466 61.4824 19.0471C61.3653 18.9475 61.2648 18.7812 61.1806 18.5482C61.0625 18.1652 60.8781 17.8659 60.6274 17.6501C60.3932 17.4176 60.0844 17.3021 59.7011 17.3035C59.4678 17.3043 59.2013 17.3552 58.9017 17.4563C58.5354 17.5743 58.0779 17.8009 57.5291 18.1362C56.9802 18.4549 56.415 18.8569 55.8334 19.3423C55.2685 19.8277 54.7454 20.3796 54.2643 20.998C54.2647 21.1146 54.2402 21.2481 54.1908 21.3982C54.158 21.5484 54.1419 21.7151 54.1426 21.8984C54.1427 21.9318 54.1596 22.015 54.1934 22.1482C54.2273 22.2815 54.2444 22.4147 54.2449 22.5481C54.2455 22.7314 54.1711 22.89 54.0216 23.0239C53.8887 23.141 53.7389 23.1999 53.5722 23.2005ZM65.4814 29.7078C65.198 29.7088 64.9313 29.6764 64.681 29.6107C64.3473 29.5119 64.08 29.3378 63.8791 29.0885C63.6782 28.8393 63.5773 28.5813 63.5764 28.3146C63.5754 28.0313 63.5913 27.8396 63.6243 27.7395C63.6573 27.6393 63.7321 27.5891 63.8488 27.5886C63.9488 27.5883 64.1239 27.6127 64.374 27.6618C64.5074 27.6613 64.6411 27.7691 64.7752 27.9853C64.9094 28.2182 65.0599 28.376 65.2269 28.4587C65.4439 28.5413 65.6273 28.5823 65.7773 28.5817C66.0773 28.5807 66.3521 28.5047 66.6015 28.3538C66.8677 28.2028 67.0921 28.0437 67.2748 27.8764C67.873 27.3575 68.3877 26.8224 68.8191 26.2708C69.2504 25.7193 69.6482 25.0928 70.0123 24.3915C70.3932 23.7068 70.7653 22.9055 71.1287 21.9875C71.2444 21.7204 71.3517 21.4117 71.4504 21.0613C71.5658 20.6943 71.6562 20.3523 71.7217 20.0354C71.8039 19.7017 71.8363 19.4599 71.8191 19.31C71.736 19.377 71.6446 19.4523 71.5449 19.536C71.4619 19.6196 71.3705 19.7033 71.2708 19.787C70.8888 20.1383 70.4317 20.49 69.8996 20.8419C69.3842 21.1937 68.8352 21.4874 68.2528 21.7228C67.6703 21.9582 67.0707 22.0771 66.454 22.0793C65.904 22.0812 65.387 21.9748 64.9029 21.7598C64.3352 21.4952 63.934 21.1466 63.6991 20.7141C63.4642 20.2816 63.3459 19.8237 63.3442 19.3404C63.3433 19.1071 63.3592 18.882 63.3918 18.6652C63.441 18.4484 63.4985 18.2315 63.5644 18.0146C63.6961 17.5475 63.9362 17.1216 64.2848 16.737C64.6334 16.3358 65.0239 16.001 65.4563 15.7328C65.8886 15.4646 66.3047 15.2881 66.7044 15.2033C66.7376 15.1865 66.7793 15.1781 66.8293 15.1779C66.8793 15.1777 66.9209 15.1775 66.9543 15.1774C67.1876 15.1766 67.3795 15.2426 67.53 15.3754C67.6804 15.4915 67.7558 15.6162 67.7563 15.7496C67.7569 15.9162 67.6407 16.05 67.4078 16.1508C67.0083 16.3022 66.6505 16.4535 66.3344 16.6047C66.0349 16.7557 65.769 16.9567 65.5365 17.2075C65.3208 17.4583 65.1221 17.8257 64.9405 18.3097C64.891 18.4432 64.8499 18.6017 64.8172 18.7851C64.7845 18.9686 64.7685 19.1603 64.7693 19.3603C64.7704 19.677 64.8215 19.9851 64.9226 20.2847C65.0403 20.5843 65.2327 20.7753 65.4996 20.8577C65.8333 20.9565 66.1585 21.0053 66.4752 21.0042C67.2085 21.0016 67.9245 20.8073 68.6231 20.4215C69.3383 20.0189 69.9618 19.5917 70.4935 19.1398C71.2247 18.5538 71.6897 18.0688 71.8883 17.6847C72.1035 17.284 72.2523 16.9418 72.3346 16.6581C72.384 16.4746 72.4752 16.3493 72.6083 16.2822C72.7413 16.1983 72.8828 16.1562 73.0328 16.1556C73.2162 16.155 73.3831 16.221 73.5335 16.3538C73.7006 16.4699 73.7512 16.6281 73.6852 16.8283C73.4385 17.7459 73.1755 18.7551 72.8961 19.8561C72.6334 20.9571 72.2873 22.0667 71.858 23.1849C71.4454 24.303 70.8992 25.3633 70.2194 26.3658C69.5397 27.3849 68.6679 28.2714 67.6039 29.0252C67.3379 29.2095 67.0218 29.3689 66.6557 29.5036C66.2895 29.6382 65.898 29.7063 65.4814 29.7078ZM86.3662 13.9078C86.2833 14.0081 86.175 14.0168 86.0413 13.934C85.9244 13.851 85.8239 13.7264 85.74 13.56C85.656 13.377 85.6304 13.2021 85.6631 13.0353L85.6881 13.0352C85.7539 12.785 85.8365 12.5764 85.9359 12.4093C86.0353 12.2423 86.168 12.0752 86.3341 11.9079C86.4337 11.8075 86.5669 11.7571 86.7335 11.7565C86.8835 11.7559 87.017 11.8054 87.1341 11.905C87.2677 11.9879 87.3348 12.096 87.3352 12.2293C87.3355 12.296 87.3107 12.3711 87.261 12.4546C87.2113 12.5214 87.1119 12.6968 86.9629 12.9806C86.8306 13.2645 86.6317 13.5735 86.3662 13.9078ZM83.2494 23.144C82.9827 23.145 82.7157 23.0459 82.4483 22.8469C82.1975 22.6311 82.0963 22.2898 82.1446 21.823C82.2089 21.1728 82.2986 20.6224 82.4137 20.172C82.5287 19.7216 82.6606 19.3128 82.8093 18.9456C82.9579 18.5617 83.1148 18.1528 83.2799 17.7189C83.4617 17.2849 83.6431 16.7592 83.8242 16.1419C83.9232 15.8582 84.1311 15.7158 84.4477 15.7147C84.6644 15.7139 84.8563 15.7799 85.0234 15.9126C85.1906 16.0454 85.2412 16.2285 85.1754 16.4621C84.9612 17.1629 84.7466 17.7303 84.5315 18.1644C84.3164 18.5985 84.1178 18.9826 83.9356 19.3165C83.7534 19.6339 83.5964 19.9844 83.4644 20.3682C83.349 20.7353 83.2758 21.2106 83.2445 21.794C83.2447 21.844 83.3534 21.952 83.5707 22.1179C83.7879 22.2671 83.8968 22.4417 83.8976 22.6417C83.8981 22.7917 83.8152 22.9253 83.649 23.0426C83.5659 23.1096 83.4327 23.1434 83.2494 23.144ZM90.136 24.8443C90.0693 24.8446 90.0109 24.8365 89.9609 24.82C89.9109 24.8202 89.8525 24.812 89.7858 24.7956C89.3187 24.6806 88.8597 24.4989 88.4088 24.2505C87.9746 24.0021 87.615 23.6367 87.3299 23.1544C87.0448 22.6554 86.9008 22.0059 86.8979 21.2059C86.8968 20.8893 86.9205 20.5475 86.9692 20.1807C87.0505 19.597 87.198 18.9132 87.4119 18.1291C87.6423 17.3282 87.9143 16.4939 88.2279 15.6261L88.2029 15.6262C88.1029 15.6266 88.0113 15.6436 87.9281 15.6772C87.8449 15.7108 87.7616 15.7278 87.6783 15.7281C87.4116 15.7291 87.2777 15.5712 87.2766 15.2545C87.2759 15.0712 87.3503 14.8959 87.4997 14.7287C87.6491 14.5615 87.7904 14.4777 87.9238 14.4772L88.6737 14.4495C89.0865 13.3647 89.4994 12.3382 89.9126 11.3701C90.3424 10.3852 90.7063 9.60887 91.0043 9.04113C91.0871 8.89083 91.2034 8.78208 91.3531 8.71488C91.5195 8.63095 91.686 8.58868 91.8527 8.58808C92.0193 8.58749 92.1612 8.62864 92.2781 8.71156C92.4117 8.77775 92.4787 8.87751 92.4792 9.01084C92.4793 9.04417 92.4629 9.1109 92.4299 9.21102L90.892 12.5916C90.7432 12.9088 90.6026 13.2093 90.4703 13.4931C90.3546 13.7768 90.2306 14.0606 90.0983 14.3444C90.4316 14.3432 90.7733 14.3503 91.1234 14.3657C91.4901 14.3811 91.8986 14.413 92.3487 14.4613C92.4321 14.4777 92.5157 14.5357 92.5994 14.6354C92.6831 14.7351 92.7251 14.8433 92.7255 14.96C92.7258 15.0433 92.6928 15.1268 92.6264 15.2104C92.5767 15.2772 92.4602 15.3193 92.2769 15.3366C91.8771 15.388 91.4355 15.423 90.9522 15.4414C90.4689 15.4431 90.0356 15.453 89.6523 15.471C89.2727 16.4891 88.9676 17.4152 88.7373 18.2493C88.5236 19.0834 88.3514 19.8674 88.2207 20.6012C88.2045 20.7179 88.1882 20.8346 88.172 20.9514C88.1724 21.068 88.1728 21.1764 88.1732 21.2764C88.1758 22.0264 88.3778 22.584 88.7792 22.9492C89.1805 23.3144 89.6314 23.5711 90.1319 23.7194C90.4323 23.8183 90.641 23.9175 90.758 24.0171C90.8918 24.1333 90.9588 24.2414 90.9592 24.3414C90.9596 24.4747 90.8767 24.5917 90.7104 24.6923C90.5608 24.7928 90.3693 24.8435 90.136 24.8443ZM105.805 24.1631C105.539 24.1641 105.272 24.0567 105.004 23.841C104.737 23.6253 104.619 23.2841 104.651 22.8173C104.715 22.0337 104.895 21.2081 105.192 20.3403C105.489 19.4726 105.819 18.6631 106.183 17.9117C106.564 17.1437 106.878 16.5176 107.126 16.0334C106.627 16.1351 106.11 16.187 105.577 16.1889C104.777 16.1918 103.968 16.0613 103.15 15.7976C102.35 15.5338 101.79 15.2025 101.472 14.8036C101.154 14.4048 100.994 13.972 100.992 13.5053C100.991 13.2887 101.016 13.0802 101.065 12.8801C101.131 12.6632 101.205 12.4546 101.288 12.2543C101.469 11.8036 101.801 11.3941 102.283 11.0257C102.765 10.6406 103.306 10.322 103.905 10.0699C104.521 9.81766 105.103 9.65723 105.653 9.58859C105.736 9.57163 105.803 9.56306 105.853 9.56288C105.92 9.56264 105.986 9.5624 106.053 9.56216C106.536 9.56043 106.778 9.65122 106.779 9.83456C106.78 9.98456 106.563 10.1187 106.131 10.2369L106.13 10.2119C105.315 10.4315 104.607 10.7007 104.008 11.0195C103.426 11.3383 102.97 11.8399 102.639 12.5244C102.473 12.8584 102.391 13.167 102.392 13.4503C102.393 13.8503 102.545 14.1748 102.846 14.4237C103.146 14.6726 103.53 14.8546 103.998 14.9696C104.198 15.0188 104.406 15.0514 104.623 15.0673C104.84 15.0832 105.056 15.0908 105.273 15.09C105.973 15.0875 106.681 15.0016 107.397 14.8324C108.113 14.6465 108.787 14.4274 109.42 14.1751C110.052 13.9228 110.601 13.7042 111.067 13.5192C111.766 13.2167 112.423 12.8477 113.038 12.4121C113.67 11.9765 114.194 11.558 114.609 11.1565C115.041 10.7549 115.298 10.4623 115.381 10.2787C115.48 10.0784 115.638 9.97779 115.855 9.97701C116.021 9.97641 116.172 10.0259 116.305 10.1254C116.456 10.2249 116.531 10.3413 116.531 10.4746C116.532 10.5746 116.499 10.658 116.432 10.7249C116.117 11.1094 115.577 11.6197 114.813 12.2558C114.048 12.8752 113.109 13.4702 111.994 14.0409C111.512 14.2926 110.979 14.5695 110.397 14.8716C109.832 15.157 109.216 15.4175 108.55 15.6532L108.55 15.6782C108.551 15.8449 108.485 16.1201 108.353 16.504C108.238 16.871 108.114 17.1465 107.981 17.3303C107.815 17.5976 107.616 17.8899 107.384 18.2074C107.152 18.5083 106.97 18.8506 106.838 19.2344C106.607 19.9352 106.417 20.5193 106.269 20.9865C106.121 21.437 105.956 21.9376 105.774 22.4882C105.742 22.605 105.775 22.7382 105.876 22.8879C105.976 23.0209 106.085 23.1538 106.202 23.2867C106.336 23.4196 106.403 23.561 106.404 23.711C106.404 23.861 106.346 23.9695 106.23 24.0366C106.114 24.1204 105.972 24.1625 105.805 24.1631ZM115.083 22.9049C114.983 22.9052 114.883 22.9056 114.783 22.9059C114.683 22.8896 114.583 22.8733 114.483 22.857C113.799 22.7761 113.265 22.453 112.879 21.8878C112.511 21.3057 112.325 20.6564 112.322 19.9397C112.321 19.4731 112.411 18.9811 112.592 18.4638C112.79 17.9297 113.097 17.4453 113.512 17.0105C113.927 16.559 114.409 16.1989 114.958 15.9303C115.507 15.6616 116.065 15.5263 116.632 15.5243C116.915 15.5232 117.182 15.5556 117.432 15.6214C117.699 15.6871 117.833 15.82 117.833 16.02C117.834 16.1533 117.759 16.2869 117.61 16.4208C117.477 16.5379 117.294 16.5719 117.06 16.5227C116.993 16.5063 116.885 16.4984 116.735 16.4989C116.335 16.5003 115.927 16.6101 115.511 16.8283C115.095 17.0464 114.721 17.3395 114.389 17.7073C114.057 18.0585 113.817 18.451 113.669 18.8849C113.553 19.2187 113.496 19.5522 113.497 19.8855C113.499 20.4022 113.617 20.8434 113.852 21.2093C114.103 21.575 114.387 21.7573 114.704 21.7562C114.787 21.7726 114.862 21.7806 114.929 21.7804C115.012 21.7801 115.087 21.7798 115.154 21.7796C115.887 21.777 116.587 21.5745 117.252 21.1721C117.934 20.753 118.457 20.3011 118.822 19.8164C119.004 19.5324 119.128 19.282 119.194 19.0651C119.26 18.8315 119.293 18.6397 119.292 18.4897C119.291 18.1564 119.19 17.9318 118.99 17.8158C118.789 17.6999 118.606 17.6505 118.439 17.6678C118.173 17.7021 117.915 17.7447 117.665 17.7956C117.415 17.8298 117.198 17.8889 117.015 17.9729C116.916 18.0066 116.841 18.0235 116.791 18.0237C116.624 18.0243 116.482 17.9581 116.365 17.8252C116.264 17.6923 116.214 17.5508 116.213 17.4008C116.212 17.1341 116.337 16.9587 116.586 16.8744C116.819 16.7903 117.094 16.7143 117.411 16.6465C117.727 16.5787 118.052 16.5275 118.385 16.493C118.452 16.4761 118.51 16.4675 118.56 16.4673C118.61 16.4672 118.668 16.467 118.735 16.4667C119.335 16.4646 119.802 16.6462 120.137 17.0117C120.472 17.3605 120.64 17.7932 120.642 18.3099C120.643 18.6266 120.569 18.9685 120.42 19.3357C120.272 19.7029 120.031 20.0538 119.699 20.3883C119.4 20.7727 119.019 21.1574 118.553 21.5424C118.088 21.9274 117.564 22.2543 116.982 22.523C116.399 22.7751 115.766 22.9024 115.083 22.9049ZM125.204 22.6686C124.921 22.6696 124.629 22.629 124.329 22.5467C124.029 22.4644 123.728 22.3405 123.428 22.1749C122.876 21.8602 122.492 21.4533 122.273 20.9541C122.055 20.4548 121.944 19.9219 121.942 19.3552C121.942 19.0886 121.957 18.8302 121.99 18.5801C122.022 18.3133 122.071 18.0464 122.137 17.7795C122.268 17.2291 122.5 16.7282 122.831 16.277C123.163 15.8092 123.537 15.4162 123.952 15.098C124.368 14.7798 124.767 14.5784 125.15 14.4937C125.2 14.4769 125.267 14.4683 125.35 14.468C125.583 14.4671 125.775 14.5331 125.926 14.6659C126.076 14.7987 126.152 14.9484 126.152 15.1151C126.153 15.3151 126.037 15.4739 125.804 15.5914L125.804 15.6164C125.421 15.7844 125.08 15.9606 124.781 16.145C124.498 16.3127 124.249 16.5469 124.033 16.8477C123.818 17.1485 123.619 17.5825 123.438 18.1499C123.339 18.4502 123.291 18.8504 123.292 19.3504C123.294 19.7337 123.345 20.1002 123.446 20.4498C123.564 20.7828 123.757 21.0071 124.024 21.1228C124.308 21.2384 124.608 21.2957 124.924 21.2946C125.608 21.2921 126.282 21.0563 126.947 20.5873C127.612 20.1016 128.202 19.5995 128.717 19.0809C129.182 18.6126 129.613 18.086 130.011 17.5013C130.425 16.8998 130.773 16.3485 131.055 15.8475C131.336 15.3298 131.502 14.9543 131.551 14.7207C131.617 14.4372 131.799 14.2948 132.099 14.2938C132.283 14.2931 132.45 14.3675 132.6 14.517C132.751 14.6498 132.793 14.833 132.727 15.0665C132.628 15.4169 132.43 15.8759 132.132 16.4437C131.851 17.0113 131.503 17.6043 131.088 18.2224C130.691 18.8239 130.268 19.3754 129.819 19.877C129.454 20.295 129.031 20.7215 128.549 21.1566C128.067 21.5749 127.543 21.9352 126.978 22.2372C126.412 22.5226 125.821 22.6663 125.204 22.6686ZM133.552 22.9136C133.402 22.9142 133.26 22.8563 133.127 22.7401C133.009 22.6072 132.95 22.3908 132.949 22.0908C132.949 22.0241 132.949 21.9574 132.948 21.8908C132.965 21.8074 132.981 21.724 132.998 21.6406C133.145 20.9067 133.334 20.1311 133.564 19.3136C133.811 18.496 134.059 17.7284 134.306 17.0109C134.553 16.2767 134.735 15.701 134.85 15.2839C134.932 15.017 135.048 14.8249 135.198 14.7077C135.364 14.5904 135.53 14.5315 135.697 14.5309C135.88 14.5302 136.031 14.588 136.148 14.7043C136.281 14.8038 136.349 14.9452 136.349 15.1285C136.35 15.2785 136.3 15.4454 136.201 15.6291C136.102 15.8128 135.978 16.1049 135.829 16.5054C135.697 16.9059 135.565 17.3064 135.434 17.7068C135.302 18.1073 135.186 18.4077 135.087 18.6081C135.668 18.0393 136.191 17.5708 136.657 17.2024C137.122 16.8341 137.737 16.4736 138.503 16.1208C138.836 15.953 139.269 15.8681 139.802 15.8662C140.185 15.8648 140.569 15.9384 140.953 16.087C141.337 16.2357 141.654 16.5012 141.906 16.8836C142.157 17.2661 142.284 17.8073 142.286 18.5073C142.287 18.7739 142.138 18.9078 141.838 18.9089C141.721 18.9093 141.596 18.8597 141.462 18.7602C141.345 18.6606 141.245 18.4943 141.161 18.2613C141.042 17.8784 140.858 17.579 140.607 17.3633C140.373 17.1308 140.064 17.0152 139.681 17.0166C139.448 17.0174 139.181 17.0684 138.882 17.1695C138.515 17.2874 138.058 17.5141 137.509 17.8494C136.96 18.168 136.395 18.5701 135.813 19.0555C135.248 19.5408 134.725 20.0927 134.244 20.7111C134.245 20.8278 134.22 20.9612 134.171 21.1114C134.138 21.2615 134.122 21.4282 134.123 21.6116C134.123 21.6449 134.14 21.7282 134.173 21.8614C134.207 21.9946 134.224 22.1279 134.225 22.2612C134.225 22.4445 134.151 22.6031 134.002 22.737C133.869 22.8541 133.719 22.913 133.552 22.9136ZM143.668 24.2523C143.551 24.2528 143.418 24.2449 143.268 24.2288C143.134 24.2126 142.993 24.1881 142.842 24.1553C142.626 24.1061 142.517 23.9481 142.516 23.6815C142.515 23.5315 142.573 23.3979 142.689 23.2809C142.805 23.1471 142.972 23.0965 143.189 23.1291C143.372 23.1451 143.664 23.1024 144.063 23.0009C144.48 22.8994 144.937 22.7645 145.437 22.596C146.169 22.3267 146.768 22.0412 147.234 21.7395C147.699 21.4379 148.081 21.0865 148.38 20.6854C148.695 20.2843 148.852 19.9004 148.851 19.5337C148.85 19.3671 148.816 19.2088 148.749 19.0591C148.682 18.8927 148.556 18.7348 148.372 18.5854C148.088 18.3365 147.746 18.1043 147.345 17.8891C146.944 17.6739 146.552 17.4503 146.168 17.2183C145.783 16.9697 145.457 16.6959 145.19 16.3968C144.938 16.0811 144.812 15.6982 144.81 15.2482C144.809 14.8482 144.949 14.506 145.232 14.2217C145.514 13.9207 145.838 13.6778 146.204 13.4932C146.587 13.2918 146.911 13.149 147.178 13.0647C147.444 12.9804 147.71 12.9211 147.977 12.8868C148.244 12.8359 148.51 12.8099 148.777 12.8089C149.093 12.8078 149.394 12.8484 149.677 12.9307C149.977 12.9963 150.261 13.1203 150.529 13.3027C150.679 13.4021 150.788 13.5184 150.855 13.6515C150.922 13.7846 150.956 13.9178 150.956 14.0511C150.957 14.2345 150.899 14.4013 150.783 14.5518C150.684 14.6855 150.542 14.7526 150.359 14.7533C150.225 14.7538 150.05 14.6877 149.833 14.5552L149.858 14.5551C149.49 14.2897 149.065 14.1579 148.582 14.1597C148.315 14.1606 148.073 14.1948 147.857 14.2623C147.507 14.3468 147.166 14.4564 146.833 14.5909C146.5 14.7255 146.293 14.9345 146.21 15.2182C146.161 15.435 146.287 15.6762 146.588 15.9418C146.906 16.1907 147.298 16.4476 147.766 16.7126C148.233 16.9609 148.668 17.2094 149.068 17.4579C149.453 17.6732 149.762 17.9638 149.997 18.3296C150.231 18.6954 150.349 19.0867 150.351 19.5033C150.353 20.02 150.163 20.5207 149.781 21.0054C149.167 21.7576 148.528 22.3432 147.862 22.7623C147.214 23.1813 146.482 23.5256 145.666 23.7952C145.217 23.9468 144.842 24.0565 144.542 24.1242C144.243 24.2086 143.951 24.2513 143.668 24.2523ZM155.905 24.6585C155.772 24.6589 155.613 24.6345 155.43 24.5852C154.412 24.2555 153.668 23.7081 153.199 22.9432C152.729 22.1615 152.493 21.3373 152.49 20.4707C152.489 20.3373 152.489 20.2124 152.488 20.0957C152.505 19.9623 152.521 19.8372 152.537 19.7205C152.684 18.77 152.997 17.9272 153.478 17.1921C153.975 16.457 154.532 15.855 155.147 15.3861C155.778 14.9005 156.352 14.5901 156.868 14.4549C157.201 14.3704 157.534 14.3025 157.868 14.2514C158.201 14.1835 158.526 14.149 158.842 14.1479C159.642 14.145 160.326 14.3175 160.894 14.6655C161.462 15.0135 161.747 15.5874 161.75 16.3874C161.752 16.8374 161.612 17.2463 161.33 17.614C161.064 17.9816 160.724 18.2995 160.308 18.5676C159.909 18.8191 159.518 19.0205 159.135 19.1718C158.553 19.4073 157.887 19.5847 157.137 19.704C156.404 19.8233 155.713 19.8841 155.063 19.8865C154.646 19.8879 154.263 19.8643 153.912 19.8156L153.913 19.8406C153.913 19.9072 153.905 19.9739 153.888 20.0407C153.872 20.0907 153.864 20.1491 153.864 20.2158C153.847 20.2825 153.839 20.3492 153.84 20.4158C153.84 20.4658 153.84 20.5158 153.84 20.5658C153.842 21.0825 153.944 21.5405 154.145 21.9398C154.363 22.3223 154.614 22.6547 154.899 22.9371C155.183 23.2027 155.417 23.4185 155.601 23.5845C155.902 23.7335 156.11 23.8744 156.228 24.0073C156.361 24.1568 156.428 24.2732 156.429 24.3566C156.43 24.5566 156.255 24.6572 155.905 24.6585ZM155.734 18.759C156.234 18.7572 156.759 18.722 157.308 18.6534C157.858 18.5681 158.366 18.4163 158.832 18.1979C159.198 18.0133 159.539 17.7704 159.854 17.4693C160.17 17.1514 160.327 16.7759 160.325 16.3426C160.324 16.0092 160.19 15.7597 159.922 15.594C159.655 15.4283 159.28 15.3463 158.796 15.348C158.246 15.35 157.647 15.4522 156.998 15.6545C156.764 15.722 156.473 15.8814 156.124 16.1326C155.792 16.3838 155.451 16.7267 155.103 17.1613C154.754 17.5792 154.465 18.0803 154.233 18.6644C154.433 18.6804 154.659 18.7046 154.909 18.737C155.175 18.7527 155.45 18.7601 155.734 18.759ZM164.032 23.9293C163.766 23.9303 163.499 23.8229 163.231 23.6072C162.981 23.4081 162.871 23.0751 162.903 22.6083C162.951 22.1748 163.066 21.5994 163.246 20.8821C163.444 20.1481 163.691 19.3388 163.988 18.4544C164.301 17.57 164.631 16.6604 164.978 15.7259C165.341 14.7746 165.705 13.8566 166.068 12.9719C166.432 12.0706 166.779 11.261 167.109 10.5432C167.44 9.80866 167.721 9.21598 167.953 8.76515C168.102 8.49794 168.31 8.36386 168.577 8.36291C168.727 8.36237 168.86 8.42022 168.977 8.53647C169.094 8.63605 169.153 8.78584 169.154 8.98584C169.154 9.05251 169.13 9.19426 169.08 9.41111C169.048 9.62789 168.99 9.8531 168.908 10.0867C168.842 10.3203 168.768 10.5122 168.685 10.6625C168.519 10.9298 168.32 11.2055 168.088 11.4897C167.855 11.7738 167.648 12.1079 167.466 12.4919C167.069 13.36 166.673 14.2781 166.276 15.2462C165.88 16.1976 165.516 17.1323 165.186 18.0501C164.856 18.968 164.584 19.794 164.37 20.5281C164.173 21.2621 164.058 21.8459 164.026 22.2793C164.027 22.396 164.077 22.5208 164.178 22.6538C164.295 22.7867 164.404 22.9196 164.504 23.0526C164.621 23.1855 164.68 23.3186 164.681 23.452C164.681 23.5853 164.598 23.7106 164.432 23.8279C164.349 23.8948 164.216 23.9286 164.032 23.9293ZM169.033 24.7864C168.867 24.787 168.708 24.6792 168.557 24.4631C168.423 24.2469 168.355 23.8638 168.353 23.3138C168.351 22.6471 168.448 21.8385 168.644 20.8877C168.858 19.937 169.129 18.9193 169.458 17.8348C169.805 16.7502 170.167 15.6906 170.547 14.6559L170.522 14.656C170.355 14.6232 170.263 14.5152 170.246 14.332C170.178 14.1155 170.228 13.907 170.394 13.7064C170.56 13.5058 170.718 13.4053 170.868 13.4047L171.018 13.4042C171.397 12.4528 171.753 11.6099 172.083 10.8753C172.431 10.1241 172.712 9.57308 172.928 9.22231C173.259 8.68778 173.658 8.28635 174.123 8.01801C174.589 7.73301 175.055 7.58967 175.522 7.58799C175.872 7.58674 176.205 7.66888 176.523 7.8344C176.84 7.99993 177.107 8.26564 177.325 8.63153C177.61 9.06385 177.795 9.44652 177.88 9.77955C177.981 10.0959 178.049 10.5373 178.084 11.1038L178.084 11.1288C178.085 11.2622 178.035 11.3623 177.935 11.4294C177.836 11.4964 177.728 11.5301 177.611 11.5305C177.378 11.5314 177.227 11.4236 177.16 11.2071C177.109 10.974 176.974 10.6495 176.756 10.2336C176.32 9.36848 175.852 8.93682 175.352 8.93861C174.835 8.94047 174.262 9.42586 173.632 10.3948C173.532 10.5285 173.4 10.7706 173.234 11.1212C173.069 11.4551 172.895 11.8224 172.713 12.2231C172.531 12.6238 172.366 12.991 172.217 13.3249C172.367 13.3077 172.517 13.2988 172.667 13.2983C172.817 13.2977 172.967 13.2972 173.117 13.2967C173.4 13.2956 173.692 13.3029 173.992 13.3185C174.309 13.334 174.667 13.3661 175.068 13.4147C175.151 13.431 175.235 13.4891 175.318 13.5888C175.402 13.6885 175.444 13.7966 175.444 13.9133C175.445 13.98 175.412 14.0551 175.345 14.1387C175.295 14.2055 175.187 14.2476 175.021 14.2648C174.454 14.3335 173.846 14.3774 173.196 14.3964C172.563 14.3986 172.079 14.417 171.746 14.4516C171.499 15.1025 171.243 15.8367 170.979 16.6543C170.715 17.4553 170.468 18.2729 170.238 19.107C170.008 19.9412 169.819 20.7252 169.671 21.4591C169.541 22.1762 169.484 22.7681 169.503 23.2347C169.503 23.4013 169.546 23.5512 169.629 23.6842C169.713 23.8339 169.755 23.9838 169.756 24.1338C169.756 24.2004 169.732 24.2755 169.682 24.359C169.632 24.4592 169.541 24.5596 169.408 24.66C169.275 24.7438 169.15 24.786 169.033 24.7864Z" fill="white"/><path d="M99.5406 34C99.6386 49.9244 90.107 78.4781 51.197 65.2966C12.287 52.1152 12.0623 84.6218 16.8137 102.523M16.8137 102.523L25.2251 89.3645M16.8137 102.523L5.57498 92.5583" stroke="white" stroke-width="3" stroke-dasharray="3 5"/></svg>