<svg xmlns="http://www.w3.org/2000/svg" width="76.816" height="76.815" viewBox="0 0 76.816 76.815"><g id="Group_6095" data-name="Group 6095" transform="translate(-1463 -4102)"><g id="Group_6014" data-name="Group 6014" transform="translate(0 -302)"><path id="Icon_ionic-ios-checkmark-circle" data-name="Icon ionic-ios-checkmark-circle" d="M41.783,3.375A38.408,38.408,0,1,0,80.191,41.783,38.4,38.4,0,0,0,41.783,3.375Zm19.666,27.79L36.76,55.964h-.018A3.335,3.335,0,0,1,34.6,56.98a3.233,3.233,0,0,1-2.16-1.053L22.1,45.587a.736.736,0,0,1,0-1.053l3.287-3.287a.714.714,0,0,1,1.034,0l8.2,8.2L57.146,26.752a.729.729,0,0,1,.517-.222h0a.671.671,0,0,1,.517.222l3.231,3.342A.728.728,0,0,1,61.448,31.165Z" transform="translate(1459.625 4400.625)" fill="#4fa83d"></path><circle id="Ellipse_1458" data-name="Ellipse 1458" cx="27.14" cy="27.14" r="27.14" transform="translate(1474 4415)" fill="#4fa83d"></circle></g><g id="Group_4279" data-name="Group 4279" transform="translate(-6 3701)"><g id="Ellipse_604" data-name="Ellipse 604" transform="translate(1485 417)" fill="none" stroke="#fff" stroke-width="3.5"><circle cx="22.5" cy="22.5" r="22.5" stroke="none"></circle><circle cx="22.5" cy="22.5" r="20.75" fill="none"></circle></g><g id="Group_4134" data-name="Group 4134" transform="translate(1502.873 430.404)"><path id="Path_13796" data-name="Path 13796" d="M1077.8-901.252V-890l10.4,6.43" transform="translate(-1077.797 901.252)" fill="none" stroke="#fff" stroke-linecap="round" stroke-width="3"></path></g></g></g></svg>