<svg xmlns="http://www.w3.org/2000/svg" width="16" height="16" viewBox="0 0 16 16" fill="none"><path d="M0 8.00028C0 11.4936 2.24 14.4536 5.33333 15.5469V0.453613C2.24 1.54695 0 4.50695 0 8.00028Z" fill="#ED4C5C"></path><path d="M7.99967 0C7.06634 0 6.15967 0.16 5.33301 0.453333V5.33333H15.5463C14.453 2.24 11.493 0 7.99967 0Z" fill="#699635"></path><path d="M15.5463 5.3335H5.33301V10.6668H15.5463C15.8397 9.84016 15.9997 8.9335 15.9997 8.00016C15.9997 7.06683 15.8397 6.16016 15.5463 5.3335Z" fill="#F9F9F9"></path><path d="M5.33301 10.6665V15.5465C6.15967 15.8398 7.06634 15.9998 7.99967 15.9998C11.493 15.9998 14.453 13.7865 15.5463 10.6665H5.33301Z" fill="#3E4347"></path></svg>