<svg xmlns="http://www.w3.org/2000/svg" width="16" height="16" viewBox="0 0 16 16" fill="none"><path d="M5.33313 15.5467V11.8667L2.58646 13.8934C3.35979 14.6134 4.29312 15.1734 5.33313 15.5467ZM10.6665 15.5467C11.7065 15.1734 12.6398 14.6134 13.4131 13.8934L10.6665 11.8401V15.5467ZM0.453125 10.6667C0.533125 10.9334 0.639792 11.1734 0.773125 11.4401L1.81313 10.6667H0.453125ZM14.1865 10.6667L15.2265 11.4401C15.3331 11.2001 15.4398 10.9334 15.5465 10.6667H14.1865Z" fill="#2A5F9E"></path><path d="M5.73349 9.6001H0.160156C0.240156 9.97343 0.346823 10.3201 0.45349 10.6668H1.81349L0.77349 11.4401C0.986823 11.8934 1.22682 12.2934 1.52016 12.6934L4.26682 10.6668H5.33349V11.2001L2.21349 13.4934L2.58682 13.8668L5.33349 11.8668V15.5468C5.68016 15.6801 6.02682 15.7601 6.40016 15.8401V9.6001H5.73349ZM15.8402 9.6001H9.60016V15.8401C9.97349 15.7601 10.3202 15.6534 10.6668 15.5468V11.8668L13.4135 13.8668C13.7868 13.5201 14.1068 13.1468 14.4268 12.7468L11.5735 10.6668H13.3868L15.0135 11.8668C15.0935 11.7334 15.1735 11.5734 15.2268 11.4401L14.1868 10.6668H15.5468C15.6535 10.3201 15.7602 9.97343 15.8402 9.6001Z" fill="white"></path><path d="M1.52051 12.6934C1.73384 12.9867 1.94717 13.2534 2.18717 13.5201L5.33384 11.2267V10.6934H4.26717L1.52051 12.6934ZM11.6005 10.6667L14.4538 12.7467C14.5605 12.6134 14.6405 12.4801 14.7472 12.3467C14.7738 12.3201 14.7738 12.2934 14.8005 12.2934C14.8805 12.1601 14.9872 12.0001 15.0672 11.8667L13.3872 10.6667H11.6005Z" fill="#ED4C5C"></path><path d="M10.6665 0.453369V4.13337L13.4131 2.1067C12.6398 1.3867 11.7065 0.826702 10.6665 0.453369ZM5.33313 0.453369C4.29312 0.826702 3.35979 1.3867 2.58646 2.1067L5.33313 4.16004V0.453369ZM15.5465 5.33337C15.4665 5.0667 15.3598 4.8267 15.2265 4.56004L14.1865 5.33337H15.5465ZM1.81313 5.33337L0.773125 4.56004C0.666458 4.8267 0.559792 5.0667 0.453125 5.33337H1.81313Z" fill="#2A5F9E"></path><path d="M10.2668 6.39991H15.8135C15.7335 6.02658 15.6268 5.67991 15.5202 5.33324H14.1602L15.2002 4.55991C14.9868 4.10658 14.7468 3.70658 14.4535 3.30658L11.7335 5.33324H10.6668V4.79991L13.7868 2.50658L13.4135 2.13325L10.6668 4.13324V0.453245C10.3202 0.319912 9.97349 0.239912 9.60016 0.159912V6.39991H10.2668ZM0.160156 6.39991H6.40016V0.159912C6.02682 0.239912 5.68016 0.346579 5.33349 0.453245V4.13324L2.58682 2.13325C2.21349 2.47991 1.89349 2.85325 1.57349 3.25325L4.42682 5.33324H2.61349L0.986823 4.13324C0.906823 4.26658 0.826823 4.42658 0.77349 4.55991L1.81349 5.33324H0.45349C0.346823 5.67991 0.240156 6.02658 0.160156 6.39991Z" fill="white"></path><path d="M14.48 3.30665C14.2666 3.01331 14.0533 2.74665 13.8133 2.47998L10.6666 4.77331V5.30665H11.7333L14.48 3.30665ZM4.39996 5.33331L1.57329 3.25331C1.46663 3.38665 1.38663 3.51998 1.27996 3.65331C1.25329 3.67998 1.25329 3.70665 1.22663 3.70665C1.14663 3.83998 1.03996 3.99998 0.959961 4.13331L2.58663 5.33331H4.39996Z" fill="#ED4C5C"></path><path d="M15.84 6.4H9.6V0.16C9.09333 0.0533333 8.56 0 8 0C7.44 0 6.90667 0.0533333 6.4 0.16V6.4H0.16C0.0533333 6.90667 0 7.44 0 8C0 8.56 0.0533333 9.09333 0.16 9.6H6.4V15.84C6.90667 15.9467 7.44 16 8 16C8.56 16 9.09333 15.9467 9.6 15.84V9.6H15.84C15.9467 9.09333 16 8.56 16 8C16 7.44 15.9467 6.90667 15.84 6.4Z" fill="#ED4C5C"></path></svg>