<svg xmlns="http://www.w3.org/2000/svg" width="34" height="21" viewBox="0 0 34 21" fill="none"><g id="Group"><g id="Clip path group"><mask id="mask0_9372_56686" style="mask-type:luminance" maskUnits="userSpaceOnUse" x="0" y="0" width="34" height="21"><g id="SVGID_00000007412665403631271880000017313914514663039650_"><path id="Vector" d="M34 0.710938H0.437012V20.2889H34V0.710938Z" fill="white"></path></g></mask><g mask="url(#mask0_9372_56686)"><path id="Vector_2" d="M8.33301 0.710938H0.437012V20.2889H8.33301V0.710938Z" fill="#EA0020"></path></g></g><g id="Clip path group_2"><mask id="mask1_9372_56686" style="mask-type:luminance" maskUnits="userSpaceOnUse" x="0" y="0" width="34" height="21"><g id="SVGID_00000007412665403631271880000017313914514663039650__2"><path id="Vector_3" d="M34 0.710938H0.437012V20.2889H34V0.710938Z" fill="white"></path></g></mask><g mask="url(#mask1_9372_56686)"><path id="Vector_4" d="M33.999 0.710938H26.104V20.2889H33.999V0.710938Z" fill="#EA0020"></path></g></g><g id="Clip path group_3"><mask id="mask2_9372_56686" style="mask-type:luminance" maskUnits="userSpaceOnUse" x="0" y="0" width="34" height="21"><g id="SVGID_00000007412665403631271880000017313914514663039650__3"><path id="Vector_5" d="M34 0.710938H0.437012V20.2889H34V0.710938Z" fill="white"></path></g></mask><g mask="url(#mask2_9372_56686)"><path id="Vector_6" d="M26.103 0.710938H8.33203V20.2889H26.103V0.710938Z" fill="white"></path></g></g><g id="Clip path group_4"><mask id="mask3_9372_56686" style="mask-type:luminance" maskUnits="userSpaceOnUse" x="0" y="0" width="34" height="21"><g id="SVGID_00000007412665403631271880000017313914514663039650__4"><path id="Vector_7" d="M34 0.710938H0.437012V20.2889H34V0.710938Z" fill="white"></path></g></mask><g mask="url(#mask3_9372_56686)"><g id="Group_2"><g id="Clip path group_5"><mask id="mask4_9372_56686" style="mask-type:luminance" maskUnits="userSpaceOnUse" x="0" y="0" width="34" height="21"><g id="SVGID_00000116927155514219881680000014891254825377363596_"><path id="Vector_8" d="M34 0.710938H0.437012V20.2889H34V0.710938Z" fill="white"></path></g></mask><g mask="url(#mask4_9372_56686)"><path id="Vector_9" d="M17.218 3.25L16.053 5.51199C15.921 5.75799 15.685 5.73298 15.448 5.59698L14.604 5.14099L15.233 8.61798C15.366 9.25398 14.941 9.25397 14.732 8.97897L13.261 7.263L13.022 8.133C12.996 8.246 12.875 8.36799 12.692 8.33899L10.833 7.92999L11.321 9.78098C11.427 10.194 11.507 10.365 11.216 10.473L10.553 10.797L13.756 13.507C13.881 13.611 13.947 13.792 13.9 13.96L13.621 14.919C14.722 14.787 15.713 14.666 16.812 14.533C16.91 14.533 17.074 14.62 17.073 14.737L16.927 18.247H17.464L17.378 14.745C17.378 14.631 17.526 14.533 17.622 14.533C18.726 14.666 19.714 14.787 20.816 14.919L20.534 13.96C20.491 13.792 20.555 13.61 20.68 13.507L23.882 10.797L23.219 10.473C22.927 10.365 23.009 10.194 23.114 9.78098L23.603 7.92999L21.743 8.33899C21.56 8.36799 21.44 8.246 21.413 8.133L21.175 7.263L19.703 8.97897C19.494 9.25297 19.07 9.25298 19.203 8.61798L19.83 5.14099L18.989 5.59698C18.751 5.73298 18.513 5.75799 18.384 5.51199L17.218 3.25Z" fill="#EA0020"></path></g></g></g></g></g></g></svg>