<svg xmlns="http://www.w3.org/2000/svg" width="66" height="66" viewBox="0 0 66 66"><g id="Video_Acceleration" data-name="Video Acceleration" transform="translate(-5209 -4660)"><circle id="Ellipse_2069" data-name="Ellipse 2069" cx="33" cy="33" r="33" transform="translate(5209 4660)" fill="#fff" opacity="0.085"></circle><g id="Group_44278" data-name="Group 44278" transform="translate(1622 -54)"><rect id="Rectangle_7784" data-name="Rectangle 7784" width="34" height="24" rx="3" transform="translate(3602 4733)" fill="#fff"></rect><path id="Subtraction_1" data-name="Subtraction 1" d="M26.714,24H25.5V21.6H23.072V24H21.857V21.6H19.428V24H18.214V21.6H15.786V24H14.572V21.6H12.143V24H10.929V21.6H8.5V24H7.286V21.6H4.857V24H3a3,3,0,0,1-3-3V3A3,3,0,0,1,3,0H4.856V2.4H7.286V0H8.5V2.4h2.428V0h1.213V2.4h2.429V0h1.213V2.4h2.428V0h1.213V2.4h2.429V0h1.213V2.4H25.5V0h1.213V2.4h2.429V0H31a3,3,0,0,1,3,3V21a3,3,0,0,1-3,3H29.143V21.6H26.714V24Z" transform="translate(3602 4733)" fill="#cae1bc"></path><path id="Path_54401" data-name="Path 54401" d="M65.887,69.5h-.2a.131.131,0,0,0-.031-.012.7.7,0,0,1-.308-.126.687.687,0,0,1-.213-.253A1.328,1.328,0,0,1,65,68.468V62.034a1.837,1.837,0,0,1,.066-.466.721.721,0,0,1,.78-.565,1.4,1.4,0,0,1,.59.2q2.845,1.615,5.689,3.233a1.838,1.838,0,0,1,.373.278.706.706,0,0,1,.05,1.021,1.49,1.49,0,0,1-.432.337l-5.394,3.062A2.52,2.52,0,0,1,65.887,69.5Z" transform="translate(3550.097 4679.144)" fill="#4fa83d"></path><g id="Ellipse_2071" data-name="Ellipse 2071" transform="translate(3624 4746)" fill="#4fa83d" stroke="#2e3031" stroke-width="1"><circle cx="8" cy="8" r="8" stroke="none"></circle><circle cx="8" cy="8" r="7.5" fill="none"></circle></g><g id="rocket" transform="translate(3628.678 4750.194)"><path id="Path_28284" data-name="Path 28284" d="M7.476,0a5.2,5.2,0,0,0-3.75,1.724A3.548,3.548,0,0,0,1.295,2.76.14.14,0,0,0,1.373,3l1.078.154L2.318,3.3a.14.14,0,0,0,.006.192l1.8,1.8a.14.14,0,0,0,.192.005l.149-.133.154,1.078a.139.139,0,0,0,.1.108.128.128,0,0,0,.04.006.158.158,0,0,0,.108-.045A3.541,3.541,0,0,0,5.889,3.887,5.171,5.171,0,0,0,7.613.138.14.14,0,0,0,7.476,0ZM6.187,2.415a.7.7,0,1,1,0-.989A.7.7,0,0,1,6.187,2.415Z" transform="translate(-0.903 -0.001)" fill="#fff"></path><path id="Path_28285" data-name="Path 28285" d="M.762,16.254a7.174,7.174,0,0,0-.756,1.8.14.14,0,0,0,.134.18.143.143,0,0,0,.04-.006,7.174,7.174,0,0,0,1.8-.756A.864.864,0,1,0,.762,16.254Z" transform="translate(0 -11.528)" fill="#fff"></path></g></g></g></svg>