<svg xmlns="http://www.w3.org/2000/svg" width="358.496" height="413.766" viewBox="0 0 358.496 413.766"><g id="Group_44249" data-name="Group 44249" opacity="0.08"><path id="Path_54339" data-name="Path 54339" d="M43.665,204.469H39.738a2.481,2.481,0,0,0-.6-.224,13.676,13.676,0,0,1-6-2.412,13.268,13.268,0,0,1-4.154-4.865,25.235,25.235,0,0,1-2.551-12.361V60.978a34.893,34.893,0,0,1,1.275-8.96c1.989-7.3,7.855-11.389,15.187-10.854A27.387,27.387,0,0,1,54.376,45.04q55.38,31.029,110.723,62.119a35.649,35.649,0,0,1,7.256,5.334c6.019,5.782,6.286,13.234.969,19.614a28.962,28.962,0,0,1-8.4,6.48l-105,58.829C54.759,200.307,49.722,203.522,43.665,204.469Z" transform="translate(54.119 84.271)" fill="#4fa83d"></path><path id="Path_54340" data-name="Path 54340" d="M.138,263.576V152.727c0-10.583,9.352-17.451,18.67-13.8A13.229,13.229,0,0,1,27.689,151.5c.15,3.451,0,6.9,0,10.353V371.963C27.9,384.5,38.25,390.369,49.2,384.179c6.235-3.556,12.343-7.328,18.509-11.021L321.537,220.851c1.232-.736,2.473-1.461,3.659-2.3,8.8-6.085,8.834-16.945,0-23.007-2.244-1.542-4.6-2.853-7-4.256L51.893,31.5a44.036,44.036,0,0,0-4.118-2.3c-9.456-4.6-19.717,1.53-19.97,12.044-.219,8.766,0,17.543-.069,26.309,0,9.1-5.752,15.38-13.885,15.323-7.972,0-13.8-6.293-13.689-15.093C.242,56.868-.621,45.79.978,35.08,5.361,5.8,37.018-9.059,62.533,5.9c24.813,14.483,49.327,29.449,73.956,44.231q100.081,60.049,200.279,120.109c16.1,9.64,23.4,23.686,21.407,42.253-1.439,13.436-8.423,23.617-19.992,30.576Q294.619,269.235,251,295.383c-62.338,37.352-124.756,74.531-186.91,112.195C38.779,422.9,7.8,407.91,1.576,382.938A51.774,51.774,0,0,1,.2,370.56C.092,334.9.138,299.237.138,263.576Z" transform="translate(0 0)" fill="#fff"></path></g></svg>