<svg xmlns="http://www.w3.org/2000/svg" width="45" height="45" viewBox="0 0 45 45" fill="none"><circle cx="22.5" cy="22.5" r="22.5" fill="url(#paint0_radial_1962_15443)" fill-opacity="0.26"></circle><path d="M23.0996 23.099L34.4247 11.7739" stroke="#DDDDDD" stroke-width="2.88288" stroke-linecap="round" stroke-linejoin="round"></path><path d="M31.1101 15.0895C29.1023 13.0758 26.4117 11.8891 23.5708 11.7645C20.7298 11.6398 17.9456 12.5863 15.7692 14.4165C13.5928 16.2467 12.1828 18.8273 11.8183 21.6475C11.4538 24.4677 12.1613 27.322 13.8008 29.6454C15.4404 31.9689 17.8925 33.5921 20.6717 34.1939C23.451 34.7956 26.3549 34.3321 28.8087 32.8949C31.2625 31.4578 33.0874 29.1518 33.9221 26.4334C34.7568 23.715 34.5405 20.7823 33.3161 18.2157" stroke="#DDDDDD" stroke-width="2.88288" stroke-linecap="round" stroke-linejoin="round"></path><path d="M27.0978 19.1023C26.1626 18.1697 24.9302 17.5942 23.6148 17.4757C22.2994 17.3572 20.984 17.7032 19.8971 18.4536C18.8103 19.2041 18.0206 20.3115 17.6653 21.5836C17.31 22.8556 17.4116 24.212 17.9523 25.417C18.493 26.622 19.4387 27.5995 20.6252 28.1798C21.8116 28.7601 23.1639 28.9064 24.447 28.5934C25.7301 28.2803 26.8631 27.5278 27.6491 26.4663C28.435 25.4049 28.8244 24.1016 28.7494 22.783" stroke="#DDDDDD" stroke-width="2.88288" stroke-linecap="round" stroke-linejoin="round"></path><defs><radialGradient id="paint0_radial_1962_15443" cx="0" cy="0" r="1" gradientUnits="userSpaceOnUse" gradientTransform="translate(22.5 22.5) rotate(90.5907) scale(48.5026)"><stop stop-color="#4FA83D"></stop><stop offset="0.46875" stop-color="#22CB00" stop-opacity="0.53125"></stop><stop offset="1" stop-opacity="0"></stop></radialGradient></defs></svg>