<svg xmlns="http://www.w3.org/2000/svg" width="86" height="81" viewBox="0 0 86 81"><g id="Group_5554" data-name="Group 5554" transform="translate(-1280 -10849)"><rect id="Rectangle_3994" data-name="Rectangle 3994" width="86" height="81" rx="22" transform="translate(1280 10849)" fill="#cae2bc" opacity="0.2"></rect><g id="startup" transform="translate(1305.949 10873)"><path id="Path_21327" data-name="Path 21327" d="M16.33,304.923a2.873,2.873,0,0,0,.721-2.17s-3.288,3.1-5.723,3.361a3.889,3.889,0,0,1,.456-2.243,27.563,27.563,0,0,0-3.619.92,26.323,26.323,0,0,0,.926-3.606,3.813,3.813,0,0,1-2.243.456c.265-2.435,3.361-5.723,3.361-5.723a2.9,2.9,0,0,0-2.17.721c-.767-4.314,4.995-4.34,4.995-4.34l7.628,7.628C20.67,299.935,20.637,305.684,16.33,304.923Z" transform="translate(-6.35 -272.962)" fill="#4fa83d"></path><path id="Path_21328" data-name="Path 21328" d="M32.958,295.6a5.5,5.5,0,0,0-3.579,1.4,2.11,2.11,0,0,0-.47,1.032,4.331,4.331,0,0,1,1.522-.232l1.568.04-1.072,1.145a15.431,15.431,0,0,0-2.977,4.5,5.575,5.575,0,0,0,1.072-.357l1.2-.516-.245,1.29c-.013.073-.245,1.284-.542,2.415,1.125-.3,2.342-.523,2.415-.536l1.29-.245-.516,1.2a6.078,6.078,0,0,0-.357,1.072,15.7,15.7,0,0,0,4.5-2.977l1.145-1.072.04,1.568a4.343,4.343,0,0,1-.225,1.522,2.087,2.087,0,0,0,1.025-.47c1.111-.926,1.35-2.858,1.4-3.586Z" transform="translate(-26.054 -276.044)" fill="#cae2bc"></path><path id="Path_21329" data-name="Path 21329" d="M20.255,153.392a11.887,11.887,0,0,0-20.2,6.933,6.868,6.868,0,0,1,.476-.516,9.433,9.433,0,0,1,13.318,0,9.433,9.433,0,0,1,0,13.318c-.165.165-.344.324-.516.476a11.885,11.885,0,0,0,6.927-20.211Z" transform="translate(0 -139.988)" fill="#4fa83d"></path><path id="Path_21330" data-name="Path 21330" d="M124.141,0a24.568,24.568,0,0,0-4.816.476A24.334,24.334,0,0,0,100.35,19.338l7.641,7.641A24.266,24.266,0,0,0,127.323,3.189V0Z" transform="translate(-93.664)" fill="#cae2bc"></path><path id="Path_21331" data-name="Path 21331" d="M269.426,88.508a5.317,5.317,0,1,0-3.778,9.077,5.322,5.322,0,0,0,3.778-9.077Z" transform="translate(-243.078 -81.198)" fill="#fff"></path><circle id="Ellipse_644" data-name="Ellipse 644" cx="3.539" cy="3.539" r="3.539" transform="translate(19.051 7.529)" fill="#4fa83d"></circle><path id="Path_21332" data-name="Path 21332" d="M394.672,8,387.15.476A24.517,24.517,0,0,1,391.966,0h3.182V3.182A24.566,24.566,0,0,1,394.672,8Z" transform="translate(-361.49)" fill="#4fa83d"></path></g></g></svg>