<svg xmlns="http://www.w3.org/2000/svg" width="455" height="339" viewBox="0 0 455 339" fill="none"><g clip-path="url(#clip0_330_5508)"><path d="M420.489 227.529C420.103 228.043 420.013 228.704 419.601 229.214C418.725 230.313 417.602 230.909 416.209 231.003C415.977 231.018 415.745 231.014 415.513 231.014C395.053 231.014 374.592 231.011 354.128 231.022C352.151 231.022 350.616 230.313 349.669 228.524C349.291 227.811 349.19 227.03 349.194 226.231C349.194 221.977 349.194 217.727 349.194 213.473C349.194 211.166 350.234 209.699 352.417 208.885C352.518 208.848 352.653 208.848 352.675 208.698H416.726C417.407 208.975 418.123 209.155 418.733 209.621C419.65 210.322 420.084 211.305 420.485 212.322V227.526L420.489 227.529ZM384.843 228.786C395.124 228.786 405.405 228.786 415.682 228.786C417.385 228.786 418.257 227.92 418.257 226.224C418.257 221.992 418.257 217.761 418.257 213.529C418.257 211.789 417.396 210.934 415.644 210.934C395.109 210.934 374.57 210.934 354.034 210.934C352.286 210.934 351.425 211.789 351.425 213.533C351.425 217.716 351.425 221.902 351.425 226.085C351.425 227.968 352.249 228.786 354.143 228.786C364.375 228.786 374.611 228.786 384.843 228.786Z" fill="url(#paint0_radial_330_5508)"/><path d="M420.489 252.082C420.219 252.607 420.002 253.166 419.673 253.646C418.875 254.798 417.744 255.424 416.348 255.544C416.093 255.567 415.839 255.567 415.584 255.567C395.094 255.567 374.603 255.567 354.113 255.574C352.129 255.574 350.605 254.847 349.665 253.057C349.313 252.39 349.201 251.65 349.201 250.9C349.201 246.575 349.19 242.253 349.205 237.928C349.216 235.145 351.111 233.254 353.9 233.254C374.529 233.246 395.161 233.25 415.79 233.254C418.119 233.254 419.691 234.451 420.35 236.679C420.376 236.769 420.38 236.859 420.492 236.878V252.082H420.489ZM384.772 253.339C395.075 253.339 405.378 253.339 415.682 253.339C417.385 253.339 418.257 252.472 418.257 250.776C418.257 246.545 418.257 242.313 418.257 238.082C418.257 236.341 417.396 235.482 415.648 235.482C395.113 235.482 374.574 235.482 354.038 235.482C352.286 235.482 351.425 236.338 351.425 238.078C351.425 242.261 351.425 246.447 351.425 250.63C351.425 252.517 352.249 253.335 354.139 253.335C364.349 253.335 374.559 253.335 384.772 253.335V253.339Z" fill="url(#paint1_radial_330_5508)"/><path d="M420.489 276.631C420.219 277.156 420.002 277.715 419.673 278.195C418.875 279.347 417.744 279.973 416.348 280.093C416.093 280.116 415.839 280.116 415.584 280.116C395.094 280.116 374.603 280.116 354.113 280.123C352.129 280.123 350.605 279.395 349.665 277.606C349.313 276.938 349.201 276.199 349.201 275.449C349.201 271.124 349.19 266.802 349.205 262.477C349.216 259.693 351.111 257.803 353.9 257.803C374.529 257.795 395.161 257.799 415.79 257.803C418.119 257.803 419.691 258.999 420.35 261.228C420.376 261.318 420.38 261.408 420.492 261.426V276.631H420.489ZM384.839 260.031C374.559 260.031 364.278 260.031 353.997 260.031C352.294 260.031 351.421 260.897 351.421 262.597C351.421 266.828 351.421 271.06 351.421 275.291C351.421 277.032 352.282 277.887 354.034 277.887C374.57 277.887 395.109 277.887 415.644 277.887C417.392 277.887 418.254 277.032 418.254 275.288C418.254 271.105 418.254 266.918 418.254 262.736C418.254 260.852 417.43 260.035 415.536 260.035C405.303 260.035 395.068 260.035 384.836 260.035L384.839 260.031Z" fill="url(#paint2_radial_330_5508)"/><path d="M384.843 228.786C374.611 228.786 364.375 228.786 354.143 228.786C352.249 228.786 351.425 227.968 351.425 226.085C351.425 221.902 351.425 217.716 351.425 213.533C351.425 211.793 352.286 210.934 354.034 210.934C374.57 210.934 395.109 210.934 415.644 210.934C417.396 210.934 418.257 211.789 418.257 213.529C418.257 217.761 418.257 221.992 418.257 226.224C418.257 227.92 417.385 228.786 415.682 228.786C405.401 228.786 395.12 228.786 384.843 228.786ZM369.238 218.748C365.599 218.748 361.96 218.744 358.321 218.751C357.509 218.751 356.996 219.22 357.015 219.884C357.033 220.526 357.52 220.935 358.303 220.965C358.419 220.968 358.535 220.965 358.651 220.965C365.719 220.965 372.791 220.965 379.86 220.965C380.137 220.965 380.418 220.953 380.684 220.89C381.137 220.785 381.384 220.451 381.459 220.004C381.526 219.61 381.372 219.276 381.065 219.021C380.74 218.748 380.343 218.748 379.946 218.748C376.378 218.748 372.806 218.748 369.238 218.748ZM408.25 223.2C410.054 223.193 411.563 221.681 411.574 219.873C411.586 218.039 410.051 216.501 408.22 216.512C406.412 216.523 404.91 218.024 404.899 219.839C404.888 221.674 406.423 223.212 408.254 223.204L408.25 223.2Z" fill="url(#paint3_radial_330_5508)"/><path d="M384.772 253.335C374.562 253.335 364.353 253.335 354.139 253.335C352.245 253.335 351.425 252.517 351.425 250.63C351.425 246.447 351.425 242.261 351.425 238.078C351.425 236.338 352.286 235.482 354.038 235.482C374.574 235.482 395.113 235.482 415.648 235.482C417.396 235.482 418.257 236.338 418.257 238.082C418.257 242.313 418.257 246.545 418.257 250.776C418.257 252.472 417.385 253.339 415.682 253.339C405.378 253.339 395.075 253.339 384.772 253.339V253.335ZM369.257 245.513C372.803 245.513 376.352 245.513 379.897 245.513C380.152 245.513 380.41 245.506 380.654 245.45C381.167 245.329 381.451 244.954 381.47 244.452C381.488 243.915 381.208 243.514 380.669 243.371C380.429 243.308 380.167 243.304 379.912 243.304C372.795 243.304 365.682 243.304 358.565 243.304C358.355 243.304 358.145 243.296 357.943 243.341C357.374 243.461 357.033 243.833 357.03 244.407C357.03 244.981 357.359 245.363 357.932 245.48C358.156 245.525 358.392 245.521 358.624 245.521C362.17 245.521 365.719 245.521 369.265 245.521L369.257 245.513ZM411.574 244.407C411.574 242.599 410.081 241.083 408.272 241.06C406.438 241.038 404.899 242.565 404.899 244.403C404.899 246.241 406.438 247.768 408.269 247.749C410.073 247.73 411.574 246.211 411.574 244.407Z" fill="url(#paint4_radial_330_5508)"/><path d="M384.843 260.031C395.075 260.031 405.311 260.031 415.543 260.031C417.437 260.031 418.261 260.849 418.261 262.732C418.261 266.915 418.261 271.101 418.261 275.284C418.261 277.024 417.4 277.883 415.652 277.883C395.116 277.883 374.577 277.883 354.042 277.883C352.29 277.883 351.429 277.028 351.429 275.288C351.429 271.056 351.429 266.825 351.429 262.593C351.429 260.897 352.301 260.031 354.005 260.027C364.285 260.027 374.566 260.027 384.847 260.027L384.843 260.031ZM369.25 267.849C365.611 267.849 361.972 267.845 358.332 267.849C357.516 267.849 357.003 268.31 357.018 268.974C357.03 269.616 357.524 270.032 358.303 270.062C358.419 270.066 358.535 270.062 358.651 270.062C365.719 270.062 372.791 270.062 379.86 270.062C380.137 270.062 380.418 270.051 380.684 269.991C381.137 269.886 381.387 269.556 381.466 269.113C381.533 268.719 381.384 268.381 381.08 268.126C380.755 267.852 380.362 267.849 379.961 267.849C376.393 267.849 372.821 267.849 369.253 267.849H369.25ZM411.578 268.948C411.571 267.136 410.069 265.628 408.261 265.617C406.427 265.602 404.895 267.132 404.899 268.974C404.907 270.812 406.453 272.335 408.284 272.309C410.088 272.283 411.582 270.76 411.578 268.952V268.948Z" fill="url(#paint5_radial_330_5508)"/><path d="M369.238 218.748C372.806 218.748 376.378 218.748 379.946 218.748C380.343 218.748 380.74 218.748 381.065 219.021C381.372 219.277 381.522 219.61 381.459 220.004C381.384 220.447 381.137 220.781 380.684 220.89C380.418 220.953 380.133 220.965 379.86 220.965C372.791 220.968 365.719 220.965 358.651 220.965C358.535 220.965 358.419 220.965 358.302 220.965C357.52 220.935 357.03 220.522 357.015 219.884C356.996 219.22 357.509 218.755 358.321 218.751C361.96 218.744 365.599 218.748 369.238 218.748Z" fill="#C9E2BB"/><path d="M408.25 223.2C406.419 223.208 404.884 221.674 404.895 219.835C404.907 218.024 406.408 216.519 408.216 216.508C410.047 216.497 411.582 218.035 411.571 219.869C411.56 221.677 410.051 223.185 408.246 223.197L408.25 223.2Z" fill="white"/><path d="M369.257 245.517C365.712 245.517 362.162 245.517 358.617 245.517C358.385 245.517 358.149 245.525 357.924 245.476C357.352 245.356 357.018 244.977 357.022 244.403C357.022 243.829 357.367 243.458 357.936 243.338C358.138 243.296 358.351 243.3 358.557 243.3C365.674 243.3 372.788 243.3 379.905 243.3C380.156 243.3 380.418 243.304 380.661 243.368C381.2 243.51 381.481 243.908 381.462 244.448C381.444 244.954 381.159 245.326 380.646 245.446C380.403 245.502 380.141 245.51 379.89 245.51C376.344 245.513 372.795 245.51 369.25 245.51L369.257 245.517Z" fill="#C9E2BB"/><path d="M411.574 244.41C411.574 246.219 410.073 247.734 408.269 247.753C406.438 247.772 404.895 246.241 404.899 244.407C404.899 242.568 406.438 241.045 408.272 241.064C410.081 241.083 411.574 242.602 411.574 244.41Z" fill="white"/><path d="M369.246 267.849C372.814 267.849 376.386 267.849 379.953 267.849C380.354 267.849 380.747 267.849 381.073 268.126C381.376 268.381 381.526 268.719 381.459 269.113C381.38 269.556 381.133 269.889 380.676 269.991C380.41 270.051 380.126 270.062 379.852 270.062C372.784 270.062 365.712 270.062 358.643 270.062C358.527 270.062 358.411 270.062 358.295 270.062C357.516 270.032 357.026 269.616 357.011 268.974C356.996 268.31 357.509 267.852 358.325 267.849C361.964 267.841 365.603 267.849 369.242 267.849H369.246Z" fill="#C9E2BB"/><path d="M411.574 268.948C411.582 270.756 410.088 272.279 408.28 272.305C406.449 272.331 404.903 270.808 404.895 268.97C404.888 267.132 406.423 265.602 408.257 265.613C410.066 265.624 411.567 267.136 411.574 268.944V268.948Z" fill="white"/><path d="M438.276 197.616C438.276 201.848 438.295 206.083 438.257 210.315C438.25 211.069 438.4 211.357 439.212 211.305C440.354 211.23 441.507 211.286 442.656 211.286C443.049 211.286 443.405 211.376 443.577 211.774C443.735 212.141 443.506 212.412 443.285 212.67C440.17 216.35 437.052 220.027 433.937 223.707C433.469 224.258 433.027 224.262 432.559 223.707C429.444 220.027 426.325 216.35 423.207 212.678C422.978 212.408 422.817 212.123 422.941 211.77C423.091 211.339 423.476 211.294 423.854 211.29C425.004 211.279 426.153 211.234 427.299 211.301C428.096 211.35 428.272 211.069 428.272 210.303C428.246 201.912 428.272 193.52 428.231 185.128C428.227 184.16 428.441 183.89 429.429 183.92C432.095 183.999 434.764 183.969 437.434 183.931C438.122 183.92 438.302 184.119 438.295 184.802C438.261 189.071 438.28 193.34 438.28 197.613L438.276 197.616Z" fill="url(#paint6_radial_330_5508)"/><path d="M340.058 207.441C340.058 210.48 340.058 213.522 340.058 216.56C340.058 217.343 340.463 217.735 341.272 217.735C341.975 217.735 342.675 217.735 343.379 217.735C343.668 217.735 343.956 217.735 344.079 218.065C344.181 218.331 344.064 218.552 343.892 218.759C341.53 221.546 339.171 224.337 336.809 227.124C336.427 227.574 336.064 227.514 335.693 227.075C333.353 224.303 331.006 221.539 328.662 218.774C328.475 218.552 328.299 218.324 328.464 218.02C328.625 217.723 328.913 217.731 329.201 217.731C330.017 217.731 330.834 217.686 331.646 217.746C332.301 217.795 332.477 217.596 332.477 216.928C332.451 210.596 332.473 204.264 332.443 197.928C332.443 197.192 332.574 196.922 333.383 196.949C335.349 197.016 337.314 196.997 339.28 196.956C339.89 196.945 340.085 197.072 340.077 197.729C340.04 200.966 340.058 204.204 340.058 207.441Z" fill="url(#paint7_radial_330_5508)"/><path d="M356.202 179.227C356.202 176.695 356.228 174.163 356.183 171.631C356.172 170.963 356.393 170.851 356.996 170.862C359.018 170.899 361.039 170.914 363.061 170.854C363.746 170.836 363.825 171.079 363.825 171.665C363.806 176.646 363.825 181.624 363.799 186.606C363.799 187.229 363.9 187.51 364.604 187.45C365.412 187.379 366.232 187.435 367.045 187.435C367.359 187.435 367.673 187.424 367.827 187.784C367.962 188.099 367.778 188.321 367.595 188.538C365.27 191.28 362.934 194.023 360.616 196.772C360.171 197.301 359.823 197.256 359.396 196.75C357.097 194.019 354.787 191.299 352.481 188.572C352.29 188.343 352.02 188.129 352.211 187.765C352.387 187.428 352.698 187.435 353.012 187.439C353.855 187.439 354.701 187.401 355.54 187.454C356.12 187.491 356.221 187.27 356.217 186.745C356.191 184.239 356.206 181.737 356.206 179.231L356.202 179.227Z" fill="url(#paint8_radial_330_5508)"/><path d="M393.36 179.201C393.36 176.665 393.375 174.133 393.349 171.601C393.345 171.064 393.461 170.877 394.034 170.888C396.086 170.926 398.138 170.929 400.189 170.888C400.807 170.877 400.983 171.016 400.979 171.665C400.949 176.646 400.979 181.632 400.946 186.614C400.942 187.33 401.148 187.529 401.837 187.48C402.645 187.42 403.465 187.465 404.281 187.469C404.562 187.469 404.865 187.458 404.985 187.795C405.083 188.062 404.974 188.283 404.798 188.489C402.432 191.277 400.073 194.068 397.707 196.859C397.363 197.267 397.014 197.286 396.655 196.862C394.274 194.053 391.882 191.25 389.515 188.429C389.092 187.927 389.291 187.506 389.946 187.48C390.844 187.446 391.747 187.431 392.642 187.48C393.256 187.518 393.379 187.293 393.372 186.722C393.342 184.217 393.36 181.711 393.36 179.205V179.201Z" fill="url(#paint9_radial_330_5508)"/><path d="M13.9947 84.7501V279.478C13.9947 295.496 26.2747 308.596 41.6846 309.008C110.112 310.843 349.444 315.288 414.581 314.29C425.775 314.118 434.847 304.807 435.169 293.174C436.423 247.937 438.463 139.156 430.915 88.6515C429.324 78.0165 420.687 70.0637 410.339 69.7185C353.005 67.8129 99.2995 61.7582 34.1893 63.2775C22.9613 63.5401 13.9947 73.0722 13.9947 84.7464V84.7501Z" fill="url(#paint10_linear_330_5508)"/><path d="M25.7505 83.8048V268.809C25.7505 278.161 32.9725 285.784 41.9729 285.923L405.214 290.585C414.135 290.724 421.447 283.267 421.477 273.993L422.084 90.6435C422.106 84.0149 417.026 78.5792 410.65 78.4179L38.7606 70.6076C31.6285 70.4275 25.7543 76.3884 25.7543 83.801L25.7505 83.8048Z" fill="url(#paint11_linear_330_5508)"/><path d="M36.6678 90.6397V259.247C36.6678 267.77 43.4967 274.717 52.0065 274.845L395.494 279.095C403.929 279.223 410.844 272.422 410.874 263.974L411.447 96.8706C411.47 90.8272 406.663 85.8755 400.635 85.7292L48.9665 78.6129C42.2237 78.4479 36.664 83.8798 36.664 90.6397H36.6678Z" fill="#3C7233"/><path opacity="0.65" d="M424.21 298.216H424.199L25.7393 291.159C25.4248 291.156 25.174 290.893 25.1777 290.578C25.1815 290.263 25.4323 289.982 25.7581 290.015L424.218 297.072C424.532 297.075 424.783 297.338 424.779 297.653C424.775 297.964 424.517 298.216 424.206 298.216H424.21Z" fill="white"/><path d="M451.391 310.149C451.391 315.682 446.913 320.168 441.391 320.168H9.99996C4.47771 320.168 0 315.682 0 310.149C0 304.615 4.47771 300.129 9.99996 300.129H441.391C446.913 300.129 451.391 304.615 451.391 310.149Z" fill="url(#paint12_linear_330_5508)"/><path d="M164.316 97.6772C162.781 96.1279 160.696 95.1675 158.517 95.1675H53.5977C49.0863 95.1675 45.713 99.0127 45.713 103.537V117.833C45.713 120.024 46.4468 122.125 48.008 123.663C49.5655 125.201 51.6059 126.048 53.7924 126.018L158.592 124.477C163.036 124.413 166.592 120.8 166.626 116.348L166.708 103.548C166.723 101.365 165.862 99.2227 164.327 97.6772H164.316Z" fill="#3E7A35"/><path d="M164.589 139.79C163.178 138.409 161.246 137.655 159.277 137.7L56.1061 140.108C54.1181 140.153 52.2274 141.009 50.8796 142.476C49.5318 143.942 48.8354 145.893 48.9552 147.885L55.5445 258.639C55.7766 262.556 59.0451 265.598 62.9612 265.542L159.576 264.157C163.582 264.101 166.843 260.83 166.843 256.816V145.038C166.843 143.061 166.001 141.17 164.589 139.786V139.79Z" fill="#3E7A35"/><path d="M402.155 103.079C399.339 98.4162 372.87 100.078 365.487 99.4365C355.236 98.5437 351.781 101.331 352.024 110.48C352.024 110.503 355.577 243.896 355.577 243.911C355.865 254.355 368.441 252.044 376.191 251.227C384.719 250.326 398.913 253.335 399.272 242.096C399.272 242.073 403.491 110.454 403.51 109.85C403.589 107.408 403.285 104.951 402.155 103.079Z" fill="#3E7A35"/><path d="M391.144 201.686C390.523 201.686 389.976 201.236 389.871 200.606C389.777 200.051 389.68 199.499 389.575 198.948C389.441 198.246 389.897 197.567 390.597 197.432C391.298 197.297 391.975 197.755 392.11 198.456C392.222 199.03 392.323 199.604 392.421 200.178C392.537 200.884 392.061 201.551 391.357 201.668C391.286 201.679 391.215 201.686 391.144 201.686ZM389.965 196.082C389.388 196.082 388.864 195.692 388.714 195.107C388.576 194.559 388.43 194.019 388.276 193.475C388.082 192.788 388.482 192.072 389.167 191.877C389.852 191.682 390.567 192.083 390.762 192.769C390.919 193.332 391.073 193.895 391.219 194.461C391.395 195.155 390.979 195.861 390.287 196.037C390.178 196.063 390.073 196.078 389.965 196.078V196.082ZM388.317 190.597C387.782 190.597 387.284 190.264 387.097 189.727C386.913 189.194 386.723 188.666 386.524 188.14C386.273 187.473 386.61 186.726 387.28 186.475C387.951 186.223 388.692 186.561 388.943 187.232C389.149 187.78 389.347 188.328 389.538 188.879C389.774 189.555 389.414 190.294 388.74 190.526C388.602 190.575 388.456 190.597 388.317 190.597ZM386.225 185.271C385.73 185.271 385.255 184.982 385.041 184.498C384.813 183.984 384.581 183.474 384.345 182.964C384.042 182.315 384.319 181.546 384.963 181.242C385.611 180.938 386.378 181.215 386.681 181.864C386.928 182.393 387.168 182.922 387.404 183.455C387.692 184.108 387.396 184.873 386.745 185.162C386.576 185.237 386.397 185.274 386.225 185.274V185.271ZM383.716 180.131C383.256 180.131 382.81 179.884 382.578 179.449C382.312 178.953 382.043 178.462 381.762 177.974C381.41 177.352 381.627 176.564 382.245 176.207C382.866 175.855 383.652 176.072 384.008 176.691C384.296 177.198 384.577 177.708 384.851 178.218C385.187 178.848 384.955 179.632 384.326 179.97C384.132 180.075 383.922 180.124 383.716 180.124V180.131ZM380.822 175.202C380.395 175.202 379.98 174.992 379.733 174.606C379.429 174.133 379.122 173.66 378.812 173.195C378.415 172.602 378.572 171.796 379.167 171.398C379.759 171.001 380.564 171.158 380.961 171.755C381.283 172.238 381.601 172.722 381.912 173.214C382.297 173.818 382.121 174.617 381.518 175.003C381.301 175.142 381.062 175.206 380.826 175.206L380.822 175.202ZM377.58 170.498C377.187 170.498 376.797 170.318 376.543 169.976C376.21 169.526 375.869 169.076 375.524 168.633C375.086 168.067 375.188 167.257 375.753 166.818C376.314 166.379 377.127 166.48 377.565 167.047C377.921 167.504 378.272 167.966 378.617 168.431C379.044 169.005 378.924 169.815 378.351 170.243C378.119 170.415 377.849 170.498 377.58 170.498ZM106.746 167.744C106.035 167.744 105.454 167.167 105.454 166.45C105.454 165.734 106.031 165.156 106.746 165.152C107.311 165.152 107.877 165.145 108.442 165.137H108.461C109.165 165.137 109.741 165.704 109.752 166.413C109.764 167.129 109.195 167.714 108.48 167.726C107.903 167.733 107.326 167.741 106.746 167.741V167.744ZM102.748 167.688C102.748 167.688 102.721 167.688 102.706 167.688C102.13 167.669 101.55 167.647 100.973 167.621C100.262 167.587 99.7076 166.983 99.7413 166.27C99.775 165.557 100.389 164.998 101.089 165.036C101.654 165.062 102.22 165.085 102.785 165.1C103.5 165.122 104.058 165.719 104.036 166.435C104.013 167.137 103.44 167.688 102.744 167.688H102.748ZM112.459 167.609C111.77 167.609 111.201 167.069 111.168 166.371C111.134 165.659 111.688 165.051 112.399 165.021C112.965 164.995 113.53 164.965 114.095 164.935C114.799 164.89 115.417 165.441 115.458 166.154C115.499 166.867 114.953 167.478 114.241 167.519C113.665 167.553 113.088 167.583 112.512 167.606C112.493 167.606 112.474 167.606 112.452 167.606L112.459 167.609ZM97.0419 167.365C97.0045 167.365 96.9708 167.365 96.9333 167.362C96.3568 167.313 95.7802 167.26 95.2036 167.204C94.4923 167.133 93.9756 166.499 94.0468 165.786C94.1179 165.073 94.7469 164.556 95.4582 164.627C96.0198 164.683 96.5814 164.736 97.1467 164.781C97.8581 164.841 98.386 165.464 98.3298 166.176C98.2737 166.852 97.7083 167.365 97.0419 167.365ZM118.161 167.242C117.495 167.242 116.933 166.732 116.873 166.056C116.813 165.344 117.341 164.717 118.053 164.657C118.618 164.608 119.183 164.559 119.745 164.507C120.46 164.439 121.085 164.961 121.153 165.674C121.22 166.386 120.7 167.017 119.988 167.084C119.415 167.14 118.843 167.189 118.266 167.238C118.229 167.238 118.191 167.242 118.158 167.242H118.161ZM91.3624 166.735C91.3025 166.735 91.2426 166.732 91.1827 166.724C90.6061 166.641 90.0333 166.559 89.4605 166.465C88.7566 166.353 88.2737 165.689 88.386 164.983C88.4983 164.278 89.1685 163.794 89.8648 163.907C90.4227 163.997 90.9805 164.079 91.5384 164.158C92.246 164.256 92.7364 164.912 92.6391 165.621C92.5492 166.27 91.9951 166.735 91.3624 166.735ZM123.844 166.66C123.201 166.66 122.643 166.176 122.564 165.52C122.478 164.811 122.983 164.166 123.695 164.079C124.26 164.012 124.822 163.941 125.383 163.869C126.091 163.779 126.739 164.278 126.832 164.987C126.922 165.696 126.424 166.345 125.716 166.439C125.147 166.514 124.575 166.585 124.002 166.653C123.949 166.66 123.897 166.664 123.844 166.664V166.66ZM374.019 166.034C373.656 166.034 373.293 165.88 373.039 165.58C372.675 165.152 372.305 164.728 371.93 164.308C371.455 163.775 371.504 162.954 372.035 162.481C372.567 162.005 373.383 162.054 373.858 162.586C374.244 163.021 374.626 163.457 375 163.895C375.465 164.439 375.401 165.257 374.858 165.722C374.615 165.932 374.315 166.034 374.019 166.034ZM129.505 165.891C128.876 165.891 128.326 165.434 128.229 164.792C128.12 164.087 128.607 163.427 129.311 163.318C129.872 163.232 130.434 163.145 130.992 163.055C131.695 162.943 132.358 163.423 132.474 164.128C132.586 164.833 132.107 165.497 131.403 165.614C130.838 165.704 130.269 165.794 129.696 165.88C129.629 165.891 129.565 165.895 129.502 165.895L129.505 165.891ZM85.7278 165.764C85.6417 165.764 85.5556 165.756 85.4658 165.737C84.8967 165.621 84.3276 165.497 83.7623 165.37C83.0659 165.212 82.6316 164.518 82.7889 163.82C82.9461 163.123 83.6387 162.684 84.3351 162.845C84.8855 162.969 85.4358 163.089 85.9862 163.201C86.6863 163.344 87.1355 164.031 86.9933 164.728C86.866 165.34 86.3306 165.764 85.7278 165.764ZM135.14 164.946C134.53 164.946 133.983 164.507 133.871 163.884C133.743 163.183 134.208 162.508 134.911 162.376L136.589 162.065C137.289 161.934 137.966 162.395 138.098 163.096C138.229 163.798 137.768 164.477 137.068 164.608L135.376 164.923C135.297 164.938 135.218 164.946 135.144 164.946H135.14ZM80.1719 164.417C80.0558 164.417 79.9398 164.402 79.8237 164.368C79.2621 164.211 78.7043 164.049 78.1502 163.88C77.4688 163.674 77.0832 162.95 77.2891 162.267C77.495 161.585 78.2213 161.198 78.899 161.405C79.4381 161.57 79.9772 161.727 80.5201 161.877C81.209 162.069 81.6095 162.785 81.4149 163.472C81.2539 164.042 80.7372 164.417 80.1719 164.417ZM140.748 163.858C140.145 163.858 139.61 163.434 139.483 162.823C139.34 162.121 139.79 161.438 140.49 161.296C141.048 161.183 141.606 161.067 142.16 160.951C142.86 160.804 143.545 161.251 143.691 161.952C143.837 162.654 143.391 163.34 142.691 163.487C142.13 163.607 141.568 163.723 141.007 163.835C140.92 163.854 140.834 163.862 140.748 163.862V163.858ZM74.732 162.665C74.586 162.665 74.4362 162.639 74.2902 162.586C73.7436 162.387 73.2007 162.181 72.6579 161.967C71.9952 161.705 71.6657 160.954 71.9278 160.29C72.1899 159.626 72.9387 159.3 73.6013 159.559C74.1217 159.765 74.6496 159.964 75.1775 160.155C75.8477 160.399 76.1921 161.142 75.9488 161.814C75.7578 162.339 75.2636 162.665 74.7357 162.665H74.732ZM146.334 162.661C145.743 162.661 145.207 162.252 145.072 161.648C144.915 160.951 145.357 160.257 146.053 160.103C146.607 159.979 147.165 159.852 147.719 159.724C148.416 159.563 149.108 160.002 149.266 160.696C149.427 161.393 148.989 162.087 148.296 162.245C147.738 162.372 147.176 162.5 146.619 162.624C146.525 162.646 146.428 162.654 146.338 162.654L146.334 162.661ZM370.167 161.814C369.83 161.814 369.493 161.682 369.242 161.423C368.849 161.022 368.452 160.621 368.055 160.227C367.546 159.724 367.542 158.906 368.044 158.396C368.546 157.886 369.362 157.882 369.871 158.385C370.283 158.794 370.691 159.203 371.095 159.619C371.593 160.129 371.582 160.951 371.073 161.45C370.822 161.693 370.496 161.817 370.171 161.817L370.167 161.814ZM151.898 161.367C151.313 161.367 150.786 160.969 150.643 160.377C150.475 159.683 150.902 158.981 151.598 158.816C152.152 158.681 152.706 158.546 153.257 158.411C153.949 158.242 154.649 158.666 154.822 159.36C154.994 160.054 154.567 160.756 153.874 160.928C153.316 161.067 152.759 161.202 152.205 161.337C152.103 161.363 152.002 161.375 151.901 161.375L151.898 161.367ZM69.4456 160.489C69.2659 160.489 69.0787 160.452 68.9065 160.369C68.3786 160.125 67.8507 159.874 67.3303 159.615C66.6901 159.3 66.428 158.524 66.7425 157.882C67.057 157.241 67.832 156.978 68.4722 157.293C68.9739 157.541 69.4793 157.785 69.9885 158.017C70.6362 158.317 70.9207 159.086 70.6212 159.735C70.4041 160.208 69.9361 160.489 69.4456 160.489ZM157.442 159.987C156.866 159.987 156.342 159.596 156.192 159.011C156.016 158.317 156.431 157.612 157.124 157.436C157.674 157.293 158.228 157.151 158.779 157.008C159.471 156.828 160.175 157.244 160.355 157.935C160.535 158.625 160.119 159.334 159.43 159.514C158.876 159.66 158.322 159.803 157.764 159.945C157.656 159.972 157.547 159.987 157.442 159.987ZM162.968 158.531C162.399 158.531 161.879 158.152 161.722 157.575C161.534 156.884 161.942 156.175 162.631 155.988L164.282 155.538C164.971 155.35 165.683 155.755 165.87 156.445C166.057 157.136 165.653 157.848 164.964 158.036L163.305 158.486C163.193 158.516 163.081 158.531 162.968 158.531ZM64.3726 157.867C64.1555 157.867 63.9346 157.811 63.7287 157.695C63.2233 157.406 62.7216 157.106 62.2274 156.802C61.6171 156.43 61.4262 155.631 61.7968 155.024C62.1675 154.412 62.9649 154.221 63.5714 154.592C64.0507 154.885 64.5299 155.17 65.0128 155.448C65.6306 155.804 65.844 156.595 65.4883 157.214C65.2487 157.631 64.8144 157.863 64.3651 157.863L64.3726 157.867ZM366.056 157.848C365.745 157.848 365.435 157.74 365.188 157.514C364.772 157.136 364.349 156.76 363.926 156.389C363.387 155.92 363.334 155.102 363.802 154.562C364.27 154.022 365.086 153.969 365.626 154.438C366.06 154.821 366.494 155.204 366.921 155.594C367.449 156.074 367.49 156.892 367.011 157.424C366.756 157.706 366.404 157.848 366.052 157.848H366.056ZM168.479 157.016C167.914 157.016 167.397 156.64 167.236 156.07C167.045 155.384 167.446 154.667 168.131 154.476L169.778 154.011C170.467 153.816 171.179 154.213 171.373 154.904C171.568 155.59 171.171 156.307 170.482 156.502L168.827 156.971C168.711 157.004 168.592 157.019 168.479 157.019V157.016ZM173.975 155.444C173.414 155.444 172.897 155.076 172.736 154.51C172.538 153.823 172.935 153.107 173.62 152.908L175.263 152.428C175.948 152.229 176.667 152.623 176.866 153.309C177.064 153.996 176.671 154.716 175.986 154.915L174.338 155.395C174.219 155.429 174.099 155.448 173.979 155.448L173.975 155.444ZM59.5617 154.795C59.3034 154.795 59.0451 154.72 58.8204 154.558C58.3449 154.225 57.8732 153.879 57.4052 153.531C56.8324 153.103 56.7164 152.293 57.1432 151.719C57.57 151.145 58.3786 151.028 58.9515 151.456C59.4007 151.794 59.85 152.12 60.3068 152.443C60.8908 152.855 61.0293 153.662 60.6175 154.247C60.3667 154.603 59.9661 154.795 59.5617 154.795ZM361.713 154.138C361.429 154.138 361.144 154.045 360.905 153.853C360.466 153.501 360.021 153.152 359.575 152.807C359.01 152.368 358.909 151.557 359.343 150.991C359.781 150.424 360.59 150.323 361.155 150.758C361.612 151.115 362.069 151.471 362.518 151.835C363.076 152.281 363.166 153.095 362.717 153.654C362.462 153.973 362.088 154.138 361.709 154.138H361.713ZM179.46 153.834C178.902 153.834 178.389 153.471 178.221 152.908C178.019 152.221 178.408 151.501 179.093 151.299L180.737 150.811C181.422 150.605 182.141 150.995 182.343 151.681C182.545 152.368 182.159 153.088 181.474 153.29L179.831 153.782C179.707 153.819 179.584 153.834 179.464 153.834H179.46ZM184.937 152.195C184.383 152.195 183.87 151.835 183.702 151.272C183.496 150.59 183.882 149.866 184.567 149.659L186.207 149.164C186.888 148.958 187.611 149.344 187.817 150.031C188.022 150.713 187.637 151.437 186.952 151.644L185.308 152.139C185.185 152.176 185.057 152.195 184.934 152.195H184.937ZM55.0653 151.276C54.7658 151.276 54.4625 151.171 54.2192 150.961C53.7774 150.575 53.3394 150.184 52.9088 149.787C52.3847 149.303 52.351 148.481 52.8339 147.956C53.3169 147.431 54.1368 147.397 54.661 147.881C55.0728 148.26 55.4884 148.635 55.9114 149.003C56.4505 149.472 56.5067 150.289 56.0425 150.83C55.7879 151.126 55.4285 151.276 55.0653 151.276ZM357.161 150.691C356.902 150.691 356.64 150.612 356.412 150.451C355.951 150.124 355.491 149.802 355.027 149.483C354.439 149.078 354.289 148.271 354.69 147.682C355.094 147.093 355.899 146.943 356.487 147.345C356.966 147.671 357.438 148.005 357.909 148.339C358.49 148.751 358.628 149.562 358.213 150.143C357.962 150.499 357.561 150.687 357.157 150.687L357.161 150.691ZM190.407 150.537C189.853 150.537 189.34 150.177 189.172 149.618C188.966 148.935 189.352 148.211 190.033 148.005L191.673 147.506C192.354 147.3 193.077 147.686 193.283 148.369C193.489 149.051 193.103 149.775 192.422 149.982L190.782 150.481C190.658 150.518 190.531 150.537 190.407 150.537ZM195.877 148.875C195.323 148.875 194.81 148.515 194.642 147.956C194.436 147.273 194.821 146.549 195.503 146.343L197.143 145.844C197.824 145.634 198.547 146.024 198.752 146.707C198.958 147.39 198.573 148.114 197.891 148.32L196.252 148.819C196.128 148.856 196.001 148.875 195.877 148.875ZM352.413 147.51C352.178 147.51 351.942 147.446 351.728 147.311C351.253 147.011 350.77 146.714 350.287 146.422C349.677 146.05 349.482 145.255 349.849 144.644C350.219 144.032 351.013 143.837 351.623 144.205C352.118 144.505 352.612 144.809 353.102 145.12C353.705 145.499 353.888 146.302 353.507 146.906C353.259 147.296 352.84 147.51 352.413 147.51ZM50.9507 147.307C50.6063 147.307 50.2619 147.168 50.0073 146.898C49.6067 146.471 49.2136 146.035 48.828 145.597C48.3562 145.06 48.4049 144.242 48.9403 143.77C49.4756 143.297 50.2918 143.346 50.7635 143.882C51.1342 144.302 51.5086 144.715 51.8905 145.124C52.3772 145.645 52.351 146.463 51.8306 146.954C51.5797 147.187 51.2652 147.303 50.947 147.303L50.9507 147.307ZM201.347 147.217C200.793 147.217 200.28 146.857 200.111 146.294C199.906 145.612 200.291 144.888 200.976 144.681L202.62 144.186C203.301 143.98 204.024 144.37 204.23 145.053C204.436 145.735 204.046 146.459 203.365 146.666L201.725 147.161C201.602 147.198 201.474 147.217 201.351 147.217H201.347ZM206.821 145.574C206.263 145.574 205.75 145.21 205.581 144.647C205.379 143.961 205.769 143.241 206.454 143.038L208.101 142.55C208.786 142.348 209.505 142.738 209.707 143.424C209.909 144.111 209.52 144.831 208.835 145.034L207.191 145.521C207.068 145.559 206.944 145.574 206.824 145.574H206.821ZM347.494 144.599C347.28 144.599 347.067 144.546 346.869 144.437C346.374 144.164 345.88 143.893 345.379 143.627C344.75 143.293 344.51 142.509 344.843 141.875C345.18 141.245 345.963 141.005 346.592 141.339C347.105 141.613 347.61 141.886 348.119 142.168C348.744 142.513 348.969 143.301 348.625 143.927C348.389 144.355 347.947 144.595 347.494 144.595V144.599ZM212.302 143.961C211.74 143.961 211.227 143.593 211.062 143.027C210.864 142.34 211.257 141.62 211.942 141.421L213.593 140.945C214.278 140.746 214.993 141.144 215.192 141.83C215.39 142.517 214.993 143.233 214.308 143.432L212.665 143.908C212.545 143.942 212.421 143.961 212.302 143.961ZM47.2593 142.941C46.8699 142.941 46.488 142.764 46.2334 142.434C45.8778 141.969 45.5296 141.5 45.1889 141.024C44.7733 140.442 44.9043 139.636 45.4809 139.216C46.0612 138.795 46.8662 138.93 47.2855 139.508C47.6112 139.962 47.9444 140.412 48.2851 140.859C48.7194 141.425 48.6108 142.239 48.0455 142.674C47.8096 142.854 47.5363 142.941 47.263 142.941H47.2593ZM217.794 142.385C217.229 142.385 216.712 142.014 216.551 141.44C216.356 140.754 216.757 140.037 217.446 139.842L219.101 139.377C219.789 139.186 220.501 139.587 220.692 140.277C220.883 140.967 220.482 141.68 219.793 141.871L218.146 142.333C218.03 142.367 217.91 142.382 217.794 142.382V142.385ZM342.417 141.965C342.23 141.965 342.035 141.924 341.856 141.838C341.346 141.59 340.837 141.35 340.324 141.11C339.677 140.81 339.396 140.041 339.695 139.392C339.995 138.743 340.762 138.461 341.41 138.762C341.934 139.005 342.458 139.253 342.979 139.504C343.623 139.816 343.892 140.588 343.582 141.234C343.357 141.695 342.896 141.965 342.417 141.965ZM223.297 140.859C222.728 140.859 222.208 140.48 222.051 139.902C221.864 139.212 222.272 138.503 222.961 138.315L224.619 137.869C225.308 137.685 226.016 138.094 226.203 138.784C226.386 139.474 225.978 140.183 225.289 140.371L223.638 140.817C223.526 140.847 223.414 140.862 223.301 140.862L223.297 140.859ZM337.202 139.617C337.037 139.617 336.869 139.583 336.704 139.516C336.184 139.298 335.659 139.084 335.132 138.874C334.469 138.608 334.143 137.858 334.409 137.194C334.671 136.53 335.424 136.207 336.086 136.47C336.625 136.683 337.161 136.901 337.696 137.126C338.355 137.4 338.666 138.158 338.392 138.818C338.187 139.317 337.704 139.613 337.198 139.613L337.202 139.617ZM228.82 139.396C228.243 139.396 227.719 139.009 227.569 138.424C227.39 137.73 227.809 137.025 228.498 136.848L230.164 136.421C230.856 136.244 231.56 136.665 231.732 137.359C231.908 138.053 231.489 138.758 230.797 138.93L229.142 139.354C229.033 139.381 228.925 139.396 228.82 139.396ZM44.0058 138.233C43.5753 138.233 43.1522 138.015 42.9088 137.621C42.6018 137.126 42.2986 136.623 42.0066 136.121C41.6472 135.502 41.8531 134.71 42.4708 134.35C43.0848 133.99 43.8785 134.196 44.2379 134.815C44.5187 135.299 44.8108 135.779 45.1065 136.256C45.4847 136.863 45.2975 137.662 44.6947 138.038C44.4813 138.169 44.2454 138.233 44.0133 138.233H44.0058ZM234.361 138.008C233.777 138.008 233.249 137.61 233.107 137.017C232.938 136.323 233.365 135.622 234.057 135.453C234.615 135.318 235.173 135.183 235.731 135.052C236.424 134.89 237.12 135.318 237.285 136.012C237.449 136.706 237.019 137.404 236.326 137.569C235.772 137.7 235.218 137.831 234.664 137.966C234.563 137.993 234.462 138.004 234.361 138.004V138.008ZM331.859 137.561C331.717 137.561 331.571 137.539 331.429 137.486C330.897 137.299 330.362 137.115 329.826 136.935C329.149 136.71 328.786 135.974 329.01 135.295C329.235 134.616 329.969 134.253 330.646 134.478C331.197 134.661 331.743 134.849 332.294 135.044C332.968 135.28 333.319 136.023 333.084 136.695C332.896 137.227 332.398 137.557 331.867 137.557L331.859 137.561ZM239.924 136.706C239.333 136.706 238.797 136.297 238.662 135.693C238.505 134.995 238.943 134.301 239.64 134.147C240.201 134.024 240.759 133.896 241.321 133.776C242.021 133.626 242.706 134.065 242.859 134.766C243.013 135.464 242.571 136.154 241.871 136.308C241.313 136.428 240.759 136.552 240.205 136.676C240.111 136.698 240.014 136.706 239.92 136.706H239.924ZM326.416 135.809C326.296 135.809 326.176 135.794 326.056 135.757L325.798 135.682C325.341 135.55 324.881 135.423 324.424 135.295C323.735 135.108 323.331 134.395 323.522 133.705C323.709 133.015 324.42 132.609 325.109 132.801C325.577 132.928 326.049 133.063 326.517 133.195L326.775 133.27C327.46 133.468 327.857 134.185 327.659 134.871C327.494 135.438 326.977 135.806 326.419 135.806L326.416 135.809ZM245.514 135.505C244.911 135.505 244.376 135.082 244.248 134.47C244.106 133.769 244.555 133.086 245.255 132.943C245.817 132.827 246.379 132.714 246.944 132.602C247.644 132.463 248.325 132.917 248.464 133.619C248.603 134.32 248.149 135.003 247.449 135.142C246.892 135.254 246.334 135.367 245.776 135.479C245.69 135.498 245.6 135.505 245.518 135.505H245.514ZM251.122 134.414C250.512 134.414 249.965 133.979 249.853 133.352C249.726 132.651 250.19 131.975 250.89 131.844C251.455 131.739 252.021 131.638 252.586 131.537C253.29 131.413 253.96 131.882 254.084 132.587C254.207 133.292 253.739 133.964 253.035 134.087C252.474 134.185 251.916 134.286 251.358 134.391C251.279 134.406 251.201 134.414 251.122 134.414ZM320.893 134.35C320.792 134.35 320.695 134.339 320.594 134.316C320.044 134.185 319.493 134.057 318.943 133.934C318.247 133.776 317.809 133.086 317.966 132.388C318.123 131.69 318.812 131.248 319.508 131.409C320.07 131.537 320.635 131.664 321.197 131.799C321.889 131.964 322.32 132.662 322.155 133.36C322.013 133.956 321.485 134.354 320.901 134.354L320.893 134.35ZM256.753 133.442C256.131 133.442 255.581 132.988 255.48 132.354C255.368 131.649 255.847 130.985 256.551 130.869C257.12 130.779 257.685 130.689 258.254 130.599C258.958 130.49 259.621 130.974 259.726 131.683C259.834 132.388 259.351 133.052 258.644 133.157C258.082 133.243 257.52 133.333 256.959 133.423C256.888 133.435 256.82 133.438 256.753 133.438V133.442ZM41.2091 133.243C40.7374 133.243 40.2806 132.981 40.0523 132.531C39.7902 132.009 39.5356 131.484 39.2885 130.955C38.9852 130.306 39.2623 129.537 39.91 129.233C40.5577 128.929 41.3252 129.207 41.6284 129.856C41.8643 130.362 42.1114 130.869 42.3622 131.368C42.6805 132.005 42.4259 132.786 41.7857 133.105C41.5985 133.198 41.4001 133.243 41.2054 133.243H41.2091ZM315.304 133.153C315.225 133.153 315.143 133.146 315.06 133.131C314.506 133.026 313.949 132.921 313.391 132.823C312.687 132.699 312.219 132.028 312.342 131.323C312.466 130.617 313.136 130.149 313.84 130.272C314.409 130.374 314.974 130.479 315.543 130.587C316.244 130.722 316.704 131.398 316.569 132.103C316.453 132.722 315.91 133.157 315.3 133.157L315.304 133.153ZM262.403 132.602C261.766 132.602 261.212 132.133 261.122 131.48C261.025 130.771 261.519 130.119 262.227 130.021C262.796 129.942 263.365 129.867 263.934 129.796C264.638 129.702 265.289 130.205 265.379 130.914C265.469 131.623 264.971 132.272 264.263 132.362C263.702 132.433 263.136 132.508 262.575 132.587C262.515 132.594 262.455 132.598 262.399 132.598L262.403 132.602ZM309.669 132.208C309.609 132.208 309.546 132.204 309.482 132.193C308.921 132.11 308.363 132.035 307.801 131.96C307.093 131.867 306.596 131.214 306.689 130.509C306.783 129.8 307.434 129.304 308.138 129.395C308.711 129.47 309.28 129.548 309.853 129.631C310.56 129.732 311.047 130.389 310.946 131.098C310.852 131.743 310.302 132.208 309.669 132.208ZM268.075 131.9C267.423 131.9 266.865 131.409 266.79 130.749C266.712 130.04 267.225 129.398 267.932 129.32C268.505 129.256 269.074 129.196 269.647 129.136C270.358 129.057 270.991 129.582 271.062 130.291C271.133 131.004 270.617 131.638 269.909 131.709C269.344 131.765 268.778 131.825 268.213 131.889C268.164 131.893 268.116 131.897 268.071 131.897L268.075 131.9ZM304.001 131.503C303.956 131.503 303.911 131.503 303.866 131.495C303.305 131.439 302.739 131.383 302.174 131.33C301.463 131.266 300.938 130.636 301.002 129.923C301.066 129.211 301.698 128.686 302.406 128.749C302.979 128.802 303.555 128.858 304.128 128.914C304.84 128.986 305.356 129.623 305.281 130.336C305.214 131.004 304.652 131.499 303.997 131.499L304.001 131.503ZM273.762 131.349C273.095 131.349 272.53 130.835 272.474 130.16C272.414 129.447 272.945 128.821 273.657 128.764C274.23 128.716 274.802 128.674 275.375 128.629C276.083 128.58 276.704 129.113 276.757 129.826C276.809 130.539 276.274 131.158 275.562 131.21C274.997 131.251 274.432 131.296 273.866 131.341C273.829 131.341 273.795 131.345 273.758 131.345L273.762 131.349ZM298.307 131.03C298.28 131.03 298.25 131.03 298.224 131.03C297.659 130.996 297.094 130.963 296.528 130.933C295.817 130.895 295.266 130.287 295.304 129.575C295.341 128.862 295.955 128.31 296.659 128.348C297.236 128.378 297.809 128.412 298.385 128.445C299.096 128.49 299.639 129.106 299.594 129.818C299.553 130.505 298.984 131.03 298.307 131.03ZM279.463 130.966C278.782 130.966 278.209 130.43 278.176 129.74C278.138 129.027 278.685 128.415 279.4 128.378C279.976 128.348 280.549 128.322 281.122 128.295C281.845 128.265 282.436 128.821 282.466 129.533C282.496 130.246 281.942 130.85 281.231 130.88C280.665 130.903 280.096 130.933 279.531 130.959C279.508 130.959 279.486 130.959 279.463 130.959V130.966ZM292.601 130.779C292.601 130.779 292.578 130.779 292.567 130.779C292.002 130.764 291.436 130.753 290.867 130.745C290.152 130.734 289.583 130.145 289.594 129.432C289.606 128.716 290.194 128.142 290.905 128.157C291.481 128.164 292.058 128.175 292.631 128.19C293.346 128.209 293.907 128.802 293.889 129.518C293.87 130.22 293.297 130.779 292.597 130.779H292.601ZM285.173 130.76C284.473 130.76 283.896 130.197 283.881 129.492C283.866 128.776 284.435 128.187 285.147 128.172C285.723 128.16 286.296 128.153 286.873 128.145C287.573 128.157 288.172 128.712 288.176 129.428C288.183 130.145 287.61 130.73 286.895 130.734C286.33 130.738 285.761 130.749 285.195 130.76C285.188 130.76 285.177 130.76 285.169 130.76H285.173ZM38.8767 128.018C38.3637 128.018 37.877 127.706 37.6749 127.2C37.4615 126.66 37.2518 126.112 37.0534 125.564C36.8063 124.893 37.1507 124.15 37.8209 123.903C38.491 123.655 39.2323 124 39.4794 124.672C39.6704 125.197 39.8725 125.722 40.0785 126.243C40.3405 126.907 40.0186 127.661 39.3521 127.924C39.1949 127.988 39.0339 128.014 38.8767 128.014V128.018ZM36.9972 122.616C36.4431 122.616 35.9302 122.256 35.7617 121.697C35.5933 121.138 35.4323 120.579 35.2788 120.016C35.0878 119.326 35.4922 118.613 36.1811 118.426C36.8699 118.238 37.5813 118.639 37.7685 119.33C37.9182 119.87 38.0717 120.41 38.2327 120.947C38.4386 121.629 38.053 122.353 37.3679 122.56C37.2443 122.597 37.117 122.616 36.9935 122.616H36.9972ZM35.5708 117.075C34.9755 117.075 34.4401 116.659 34.3091 116.051C34.1856 115.481 34.0732 114.911 33.9647 114.34C33.8299 113.639 34.2904 112.96 34.9905 112.825C35.6906 112.69 36.3683 113.151 36.503 113.853C36.6079 114.404 36.7202 114.956 36.8362 115.503C36.986 116.201 36.5405 116.891 35.8441 117.041C35.7543 117.06 35.6607 117.071 35.5708 117.071V117.075ZM34.5899 111.437C33.9534 111.437 33.3993 110.964 33.3095 110.315C33.2309 109.738 33.1635 109.16 33.0998 108.582C33.0212 107.873 33.5341 107.232 34.2417 107.153C34.9456 107.074 35.5895 107.588 35.6681 108.297C35.728 108.856 35.7992 109.415 35.8703 109.97C35.9639 110.679 35.4697 111.332 34.7621 111.426C34.7022 111.433 34.6461 111.437 34.5899 111.437ZM34.0508 105.739C33.3694 105.739 32.8003 105.206 32.7629 104.516C32.7292 103.934 32.703 103.353 32.6843 102.771C32.6618 102.059 33.2196 101.458 33.931 101.436C34.6573 101.425 35.2413 101.972 35.2638 102.685C35.2825 103.248 35.3087 103.81 35.3387 104.369C35.3799 105.082 34.8333 105.694 34.1219 105.735C34.0957 105.735 34.0732 105.735 34.047 105.735L34.0508 105.739ZM33.9534 100.018C33.9534 100.018 33.9347 100.018 33.9272 100.018C33.2121 100.003 32.6468 99.4102 32.6618 98.6974C32.673 98.116 32.6917 97.5345 32.7179 96.9531C32.7479 96.2403 33.3619 95.6814 34.0658 95.7151C34.7771 95.7451 35.3312 96.3491 35.3012 97.0656C35.275 97.6283 35.2601 98.191 35.2488 98.7537C35.2339 99.4589 34.6573 100.022 33.9572 100.022L33.9534 100.018ZM34.2904 94.3046C34.2492 94.3046 34.208 94.3046 34.1631 94.2971C33.4518 94.2296 32.9351 93.5956 33.0025 92.8829C33.0586 92.3052 33.1223 91.7237 33.1897 91.146C33.2758 90.437 33.9197 89.9306 34.6273 90.0169C35.3349 90.1031 35.8404 90.7484 35.7543 91.4574C35.6869 92.0163 35.627 92.5753 35.5708 93.1342C35.5072 93.8019 34.9418 94.3046 34.2866 94.3046H34.2904ZM35.0616 88.6326C34.9868 88.6326 34.9119 88.6251 34.837 88.6139C34.1331 88.4901 33.6652 87.8186 33.7887 87.1133C33.8898 86.5394 33.9984 85.9654 34.1107 85.3952C34.2529 84.6937 34.9306 84.2361 35.6307 84.3824C36.3308 84.5212 36.7838 85.2039 36.6416 85.9054C36.533 86.4568 36.4282 87.0083 36.3308 87.5635C36.2185 88.1899 35.6756 88.6326 35.0616 88.6326ZM36.2709 83.0394C36.1623 83.0394 36.0538 83.0244 35.9452 82.9981C35.2526 82.8181 34.8407 82.1128 35.0167 81.4188C35.1627 80.8561 35.3162 80.2934 35.4735 79.7307C35.6681 79.0442 36.3832 78.6428 37.0684 78.8379C37.7535 79.033 38.1541 79.7495 37.9557 80.436C37.8022 80.9761 37.6562 81.5201 37.5139 82.064C37.3641 82.6492 36.84 83.0356 36.2634 83.0356L36.2709 83.0394ZM37.922 77.5587C37.7834 77.5587 37.6374 77.5362 37.4989 77.4874C36.825 77.2548 36.4693 76.5158 36.7015 75.8406C36.8924 75.2891 37.0908 74.7414 37.293 74.1937C37.5438 73.526 38.2889 73.1846 38.9553 73.436C39.6217 73.6873 39.9624 74.4338 39.7116 75.1016C39.5131 75.6268 39.3259 76.1557 39.1425 76.6884C38.959 77.2248 38.4573 77.5587 37.922 77.5587ZM40.0148 72.2356C39.8388 72.2356 39.6629 72.198 39.4907 72.123C38.8392 71.8342 38.5435 71.0689 38.8355 70.4162C39.0713 69.8835 39.3147 69.3545 39.5655 68.8256C39.8725 68.1804 40.64 67.9028 41.2877 68.2104C41.9317 68.518 42.2087 69.287 41.9017 69.936C41.6621 70.4424 41.4263 70.9526 41.2016 71.4665C40.9882 71.9505 40.5165 72.2356 40.0186 72.2356H40.0148ZM42.5532 67.1075C42.3435 67.1075 42.1264 67.055 41.9317 66.9462C41.3065 66.6011 41.0781 65.8133 41.4263 65.1868C41.7071 64.6766 41.9953 64.1665 42.2911 63.6638C42.6543 63.0486 43.4442 62.8422 44.0582 63.2024C44.6722 63.5662 44.8781 64.3578 44.5187 64.973C44.2342 65.4569 43.9571 65.9446 43.6876 66.436C43.4517 66.8637 43.0099 67.1037 42.5569 67.1037L42.5532 67.1075ZM45.5258 62.2158C45.2787 62.2158 45.0316 62.1445 44.8108 61.9982C44.2155 61.6005 44.0545 60.7978 44.4513 60.2013C44.7733 59.7136 45.1028 59.2335 45.4397 58.757C45.8516 58.1718 46.6565 58.0293 47.2405 58.4419C47.8246 58.8508 47.9669 59.6611 47.555 60.2463C47.2331 60.7077 46.9148 61.1729 46.6041 61.6418C46.357 62.0169 45.9452 62.2195 45.5258 62.2195V62.2158ZM48.8766 57.5754C48.5958 57.5754 48.3188 57.4853 48.0792 57.3015C47.5176 56.8589 47.4202 56.0448 47.8583 55.4821C48.2177 55.0245 48.5809 54.5668 48.9515 54.1166C49.4045 53.5652 50.2169 53.4827 50.771 53.9366C51.3214 54.3905 51.4038 55.2045 50.9507 55.7597C50.5951 56.1949 50.2432 56.6338 49.895 57.0764C49.6404 57.4028 49.2622 57.5716 48.8766 57.5716V57.5754ZM52.5681 53.2051C52.2574 53.2051 51.9466 53.0925 51.6958 52.8674C51.1679 52.3873 51.1305 51.5657 51.6134 51.0368C52.0065 50.6054 52.3996 50.1815 52.804 49.7613C53.2944 49.2437 54.1143 49.2249 54.631 49.7201C55.1477 50.2153 55.1664 51.033 54.6722 51.5507C54.2828 51.9596 53.9009 52.3685 53.5228 52.7849C53.2682 53.0663 52.92 53.2051 52.5681 53.2051ZM56.5703 49.1199C56.2296 49.1199 55.8852 48.9848 55.6306 48.7147C55.1402 48.197 55.1626 47.3755 55.6793 46.8841C56.1024 46.4827 56.5254 46.0888 56.956 45.6987C57.4839 45.2185 58.3 45.256 58.7792 45.7887C59.2585 46.3176 59.2173 47.1354 58.6894 47.6156C58.2738 47.9945 57.862 48.3771 57.4539 48.7635C57.2031 48.9998 56.8848 49.1199 56.5666 49.1199H56.5703ZM60.8534 45.3348C60.479 45.3348 60.1083 45.1735 59.8537 44.8621C59.4007 44.3107 59.4794 43.4929 60.0297 43.039C60.479 42.6713 60.9282 42.3075 61.385 41.9473C61.9466 41.5047 62.759 41.6022 63.2008 42.1612C63.6426 42.7239 63.5452 43.5379 62.9874 43.9805C62.5456 44.3294 62.1076 44.682 61.6733 45.0384C61.4337 45.2372 61.1416 45.3348 60.8534 45.3348ZM65.3872 41.8535C64.9829 41.8535 64.586 41.666 64.3352 41.3134C63.9196 40.7319 64.0544 39.9216 64.6347 39.509C65.1064 39.1713 65.5819 38.8375 66.0574 38.5111C66.6452 38.106 67.4501 38.2598 67.8545 38.8487C68.2588 39.4377 68.1053 40.2442 67.5175 40.6494C67.0533 40.9682 66.5928 41.2908 66.136 41.6172C65.9076 41.7785 65.6456 41.8573 65.3872 41.8573V41.8535ZM70.142 38.6837C69.7114 38.6837 69.2884 38.4661 69.0413 38.0722C68.6669 37.4645 68.8541 36.6655 69.4606 36.2903C69.951 35.9865 70.449 35.6826 70.9469 35.3863C71.5609 35.0224 72.3546 35.225 72.7178 35.8402C73.0809 36.4554 72.8788 37.2507 72.2648 37.6145C71.7818 37.9034 71.2988 38.196 70.8196 38.4924C70.6062 38.6237 70.3741 38.6874 70.142 38.6874V38.6837ZM75.0877 35.8289C74.6272 35.8289 74.1816 35.5813 73.9458 35.1462C73.6088 34.516 73.8484 33.7319 74.4774 33.3943C74.9866 33.1205 75.4995 32.8541 76.0162 32.5878C76.6526 32.2614 77.4314 32.5127 77.7533 33.1505C78.079 33.7882 77.8245 34.5685 77.1917 34.8911C76.6901 35.1462 76.1921 35.4088 75.6942 35.6751C75.4995 35.7801 75.2898 35.8289 75.0877 35.8289ZM80.2018 33.2893C79.7114 33.2893 79.2434 33.0079 79.0263 32.5352C78.7305 31.8863 79.015 31.1172 79.6627 30.8209C80.1906 30.5808 80.7185 30.3407 81.2501 30.1119C81.9053 29.8268 82.6653 30.1269 82.9499 30.7834C83.2344 31.4399 82.9349 32.2014 82.2797 32.4865C81.763 32.7116 81.2501 32.9404 80.7372 33.1767C80.5613 33.2555 80.3815 33.293 80.1981 33.293L80.2018 33.2893ZM85.462 31.0647C84.9454 31.0647 84.4549 30.7496 84.2565 30.2357C83.9982 29.5679 84.3314 28.8177 84.994 28.5626C85.5332 28.3525 86.076 28.1499 86.6189 27.9511C87.289 27.7035 88.0303 28.0487 88.2774 28.7201C88.5245 29.3916 88.1801 30.1344 87.5099 30.382C86.982 30.5771 86.4542 30.7759 85.93 30.9784C85.7765 31.0385 85.6193 31.0647 85.4658 31.0647H85.462ZM90.8457 29.1591C90.2991 29.1591 89.79 28.8102 89.614 28.2587C89.3969 27.5797 89.7712 26.8482 90.4489 26.6307C90.9992 26.4543 91.5533 26.2818 92.1074 26.113C92.7888 25.9067 93.5114 26.293 93.7173 26.9795C93.9232 27.666 93.5376 28.3863 92.8525 28.5926C92.3134 28.7539 91.7742 28.9227 91.2389 29.0953C91.1078 29.1365 90.973 29.1591 90.8457 29.1591ZM96.3343 27.5722C95.7577 27.5722 95.2336 27.1859 95.0838 26.6006C94.9041 25.9067 95.3235 25.2014 96.0123 25.0251C96.5739 24.8788 97.1355 24.74 97.6971 24.6049C98.3897 24.4361 99.0861 24.8675 99.2545 25.5615C99.4193 26.2555 98.9925 26.957 98.2999 27.1221C97.7532 27.2534 97.2029 27.3884 96.66 27.531C96.5514 27.5572 96.4429 27.5722 96.3381 27.5722H96.3343ZM101.905 26.3043C101.302 26.3043 100.76 25.8766 100.64 25.2614C100.501 24.5599 100.958 23.8772 101.658 23.7421C102.227 23.6296 102.796 23.5208 103.365 23.4195C104.069 23.292 104.739 23.7609 104.867 24.4661C104.994 25.1714 104.526 25.8429 103.822 25.9704C103.268 26.0717 102.714 26.173 102.16 26.2855C102.074 26.3005 101.991 26.3118 101.909 26.3118L101.905 26.3043ZM107.54 25.359C106.903 25.359 106.349 24.89 106.263 24.2411C106.166 23.5321 106.66 22.8793 107.368 22.7818C107.94 22.703 108.517 22.628 109.09 22.5605C109.805 22.4742 110.441 22.9806 110.527 23.6934C110.614 24.4024 110.108 25.0476 109.397 25.1339C108.835 25.2014 108.277 25.2727 107.72 25.3515C107.66 25.359 107.6 25.3627 107.54 25.3627V25.359ZM113.223 24.74C112.557 24.74 111.991 24.2261 111.935 23.5471C111.879 22.8343 112.411 22.2116 113.122 22.1553C113.699 22.1103 114.279 22.069 114.855 22.0315C115.57 21.9903 116.181 22.5305 116.226 23.2432C116.271 23.956 115.728 24.5712 115.016 24.6162C114.455 24.65 113.889 24.6912 113.328 24.7362C113.294 24.7362 113.26 24.74 113.223 24.74ZM126.36 24.5862C126.334 24.5862 126.312 24.5862 126.286 24.5862C125.724 24.5524 125.159 24.5262 124.597 24.5074C123.886 24.4811 123.328 23.8772 123.354 23.1644C123.38 22.4517 123.976 21.8965 124.694 21.919C125.275 21.9415 125.851 21.9678 126.432 22.0015C127.143 22.0428 127.689 22.6543 127.648 23.367C127.611 24.0572 127.038 24.5899 126.36 24.5899V24.5862ZM118.932 24.4549C118.232 24.4549 117.656 23.8922 117.641 23.1869C117.626 22.4704 118.191 21.8815 118.906 21.8665C119.487 21.8552 120.063 21.8477 120.643 21.844H120.647C121.359 21.844 121.935 22.4217 121.939 23.1344C121.939 23.8509 121.366 24.4324 120.651 24.4324C120.086 24.4324 119.524 24.4399 118.959 24.4511C118.951 24.4511 118.94 24.4511 118.932 24.4511V24.4549Z" fill="white"/><path d="M134.956 11.8579L134.661 21.5364L141.328 17.575L134.956 11.8579Z" fill="#C9E2BB"/><path d="M178.55 7.63019L151.774 29.7555C151.261 30.1794 150.598 30.3745 149.939 30.2995C149.281 30.2244 148.678 29.8831 148.277 29.3504L127.12 1.5793C126.877 1.26043 126.851 0.829032 127.057 0.48391C127.259 0.138788 127.652 -0.0450274 128.045 0.0112425L178.55 7.63394V7.63019Z" fill="url(#paint13_radial_330_5508)"/><path d="M134.96 11.8617L178.55 7.63019L138.36 16.352L138.165 19.0342L134.96 11.8617Z" fill="#C9E2BB"/><path d="M140.396 19.0005L134.661 21.5364L138.36 16.352L140.396 19.0005Z" fill="url(#paint14_radial_330_5508)"/><path d="M344.061 71.1628V111.493C344.061 114.779 342.061 117.443 339.598 117.443H192.957C190.909 117.443 189.123 119.3 188.625 121.952L185.993 135.993C185.645 137.854 183.702 138.011 183.189 136.215L179.797 124.349C179.138 122.042 177.476 120.515 175.626 120.515H169.325C166.858 120.515 164.863 117.852 164.863 114.566V73.106C164.863 69.8386 166.839 67.1826 169.288 67.1564L339.561 65.2094C342.043 65.1794 344.064 67.8541 344.064 71.1591L344.061 71.1628Z" fill="white"/><path d="M169.565 91.585C169.565 101.8 177.618 110.083 187.551 110.083C197.483 110.083 205.536 101.804 205.536 91.585C205.536 81.3664 197.483 73.0872 187.551 73.0872C177.618 73.0872 169.565 81.3664 169.565 91.585Z" fill="url(#paint15_radial_330_5508)"/><path d="M194.065 84.0861C194.065 87.4098 191.377 90.9961 188.06 90.9961C184.743 90.9961 182.055 87.4098 182.055 84.0861C182.055 80.7624 184.743 78.4066 188.06 78.4066C191.377 78.4066 194.065 80.7624 194.065 84.0861Z" fill="white"/><path d="M180.61 103.788H195.267C196.809 103.788 198.176 102.79 198.648 101.316L199.438 98.8476C200.014 97.0395 199.074 95.0813 197.296 94.4285C191.332 92.2415 185.162 92.5229 178.846 94.6311C177.075 95.2201 176.094 97.1182 176.581 98.9226L177.188 101.166C177.607 102.715 179.011 103.792 180.613 103.792L180.61 103.788Z" fill="white"/><path d="M215.997 96.4093C215.997 98.3412 217.558 99.9055 219.486 99.9055H322.163C324.091 99.9055 325.652 98.3412 325.652 96.4093C325.652 94.4773 324.091 92.913 322.163 92.913H219.486C217.558 92.913 215.997 94.4773 215.997 96.4093Z" fill="#7D97F4"/><path d="M322.881 104.996H267.925C266.06 104.996 264.548 106.511 264.548 108.38V108.481C264.548 110.35 266.06 111.865 267.925 111.865H322.881C324.747 111.865 326.258 110.35 326.258 108.481V108.38C326.258 106.511 324.747 104.996 322.881 104.996Z" fill="#7D97F4"/><path d="M259.471 104.996H219.348C217.489 104.996 215.982 106.506 215.982 108.368V108.492C215.982 110.355 217.489 111.865 219.348 111.865H259.471C261.33 111.865 262.837 110.355 262.837 108.492V108.368C262.837 106.506 261.33 104.996 259.471 104.996Z" fill="#7D97F4"/><path d="M230.242 78.7893C230.426 78.6092 230.493 78.3391 230.415 78.0953C230.336 77.8514 230.123 77.6714 229.868 77.6338L224.503 76.8536L222.103 71.9844C221.991 71.7518 221.755 71.6055 221.497 71.6055C221.238 71.6055 221.002 71.7518 220.89 71.9844L218.648 76.5347C218.55 76.7335 218.359 76.8723 218.138 76.9061L213.125 77.6376C212.871 77.6751 212.657 77.8552 212.579 78.099C212.5 78.3429 212.564 78.6129 212.751 78.793L216.379 82.3343C216.54 82.4881 216.611 82.7132 216.573 82.9345L215.716 87.935C215.671 88.1901 215.776 88.4452 215.986 88.599C216.195 88.749 216.469 88.7715 216.697 88.6515L221.178 86.2919C221.377 86.1869 221.613 86.1869 221.807 86.2919L226.289 88.6515C226.517 88.7715 226.794 88.7528 227 88.599C227.21 88.4489 227.311 88.1901 227.27 87.935L226.412 82.9345C226.375 82.7132 226.446 82.4918 226.607 82.3343L230.235 78.793L230.242 78.7893Z" fill="#56D340"/><path d="M254.241 78.7893C254.424 78.6092 254.492 78.3391 254.413 78.0953C254.334 77.8514 254.121 77.6714 253.866 77.6338L248.501 76.8536L246.102 71.9844C245.989 71.7518 245.753 71.6055 245.495 71.6055C245.237 71.6055 245.001 71.7518 244.889 71.9844L242.646 76.5347C242.549 76.7335 242.358 76.8723 242.137 76.9061L237.124 77.6376C236.869 77.6751 236.656 77.8552 236.577 78.099C236.498 78.3429 236.562 78.6129 236.749 78.793L240.377 82.3343C240.538 82.4881 240.609 82.7132 240.572 82.9345L239.714 87.935C239.67 88.1901 239.774 88.4452 239.984 88.599C240.194 88.749 240.467 88.7715 240.695 88.6515L245.177 86.2919C245.375 86.1869 245.607 86.1869 245.806 86.2919L250.287 88.6515C250.516 88.7715 250.793 88.7528 250.999 88.599C251.208 88.4489 251.309 88.1901 251.268 87.935L250.411 82.9345C250.373 82.7132 250.444 82.4918 250.605 82.3343L254.233 78.793L254.241 78.7893Z" fill="#56D340"/><path d="M278.239 78.7893C278.423 78.6092 278.49 78.3391 278.411 78.0953C278.333 77.8514 278.119 77.6714 277.865 77.6338L272.5 76.8536L270.1 71.9844C269.988 71.7518 269.752 71.6055 269.493 71.6055C269.235 71.6055 268.999 71.7518 268.887 71.9844L266.644 76.5347C266.547 76.7335 266.356 76.8723 266.135 76.9061L261.122 77.6376C260.868 77.6751 260.654 77.8552 260.575 78.099C260.497 78.3429 260.561 78.6129 260.748 78.793L264.376 82.3343C264.537 82.4881 264.608 82.7132 264.57 82.9345L263.713 87.935C263.668 88.1901 263.773 88.4452 263.982 88.599C264.192 88.749 264.465 88.7715 264.694 88.6515L269.175 86.2919C269.374 86.1869 269.61 86.1869 269.804 86.2919L274.286 88.6515C274.514 88.7715 274.791 88.7528 274.997 88.599C275.207 88.4489 275.308 88.1901 275.267 87.935L274.409 82.9345C274.372 82.7132 274.443 82.4918 274.604 82.3343L278.232 78.793L278.239 78.7893Z" fill="#56D340"/><path d="M302.234 78.7893C302.417 78.6092 302.485 78.3391 302.406 78.0953C302.327 77.8514 302.114 77.6714 301.859 77.6338L296.494 76.8536L294.095 71.9844C293.982 71.7518 293.746 71.6055 293.488 71.6055C293.23 71.6055 292.994 71.7518 292.882 71.9844L290.639 76.5347C290.542 76.7335 290.351 76.8723 290.13 76.9061L285.117 77.6376C284.862 77.6751 284.649 77.8552 284.57 78.099C284.492 78.3429 284.555 78.6129 284.742 78.793L288.37 82.3343C288.531 82.4881 288.602 82.7132 288.565 82.9345L287.708 87.935C287.663 88.1901 287.767 88.4452 287.977 88.599C288.187 88.749 288.46 88.7715 288.688 88.6515L293.17 86.2919C293.368 86.1869 293.604 86.1869 293.799 86.2919L298.28 88.6515C298.509 88.7715 298.786 88.7528 298.992 88.599C299.201 88.4489 299.302 88.1901 299.261 87.935L298.404 82.9345C298.366 82.7132 298.438 82.4918 298.599 82.3343L302.226 78.793L302.234 78.7893Z" fill="#56D340"/><path d="M326.232 78.7893C326.416 78.6092 326.483 78.3391 326.404 78.0953C326.326 77.8514 326.112 77.6714 325.858 77.6338L320.493 76.8536L318.093 71.9844C317.981 71.7518 317.745 71.6055 317.487 71.6055C317.228 71.6055 316.992 71.7518 316.88 71.9844L314.637 76.5347C314.54 76.7335 314.349 76.8723 314.128 76.9061L309.115 77.6376C308.861 77.6751 308.647 77.8552 308.569 78.099C308.49 78.3429 308.554 78.6129 308.741 78.793L312.369 82.3343C312.53 82.4881 312.601 82.7132 312.563 82.9345L311.706 87.935C311.661 88.1901 311.766 88.4452 311.975 88.599C312.185 88.749 312.458 88.7715 312.687 88.6515L317.168 86.2919C317.367 86.1869 317.599 86.1869 317.797 86.2919L322.279 88.6515C322.507 88.7715 322.784 88.7528 322.99 88.599C323.2 88.4489 323.301 88.1901 323.26 87.935L322.402 82.9345C322.365 82.7132 322.436 82.4918 322.597 82.3343L326.225 78.793L326.232 78.7893Z" fill="#56D340"/><path d="M344.061 131.184V171.515C344.061 174.801 342.061 177.464 339.598 177.464H192.957C190.909 177.464 189.123 179.321 188.625 181.973L185.993 196.015C185.645 197.875 183.702 198.033 183.189 196.236L179.797 184.37C179.138 182.063 177.476 180.537 175.626 180.537H169.325C166.858 180.537 164.863 177.873 164.863 174.587V133.127C164.863 129.86 166.839 127.204 169.288 127.178L339.561 125.231C342.043 125.201 344.064 127.875 344.064 131.18L344.061 131.184Z" fill="white"/><path d="M169.565 151.606C169.565 161.821 177.618 170.104 187.551 170.104C197.483 170.104 205.536 161.825 205.536 151.606C205.536 141.388 197.483 133.109 187.551 133.109C177.618 133.109 169.565 141.388 169.565 151.606Z" fill="url(#paint16_radial_330_5508)"/><path d="M194.065 144.107C194.065 147.431 191.377 151.017 188.06 151.017C184.743 151.017 182.055 147.431 182.055 144.107C182.055 140.784 184.743 138.428 188.06 138.428C191.377 138.428 194.065 140.784 194.065 144.107Z" fill="white"/><path d="M180.61 163.809H195.267C196.809 163.809 198.176 162.812 198.648 161.337L199.438 158.869C200.014 157.061 199.074 155.103 197.296 154.45C191.332 152.263 185.162 152.544 178.846 154.652C177.075 155.241 176.094 157.14 176.581 158.944L177.188 161.187C177.607 162.737 179.011 163.813 180.613 163.813L180.61 163.809Z" fill="white"/><path d="M215.997 156.431C215.997 158.362 217.558 159.927 219.486 159.927H322.163C324.091 159.927 325.652 158.362 325.652 156.431C325.652 154.499 324.091 152.934 322.163 152.934H219.486C217.558 152.934 215.997 154.499 215.997 156.431Z" fill="#7D97F4"/><path d="M322.881 165.017H267.925C266.06 165.017 264.548 166.532 264.548 168.401V168.502C264.548 170.371 266.06 171.886 267.925 171.886H322.881C324.747 171.886 326.258 170.371 326.258 168.502V168.401C326.258 166.532 324.747 165.017 322.881 165.017Z" fill="#7D97F4"/><path d="M259.471 165.017H219.348C217.489 165.017 215.982 166.527 215.982 168.39V168.514C215.982 170.376 217.489 171.886 219.348 171.886H259.471C261.33 171.886 262.837 170.376 262.837 168.514V168.39C262.837 166.527 261.33 165.017 259.471 165.017Z" fill="#7D97F4"/><path d="M230.242 138.81C230.426 138.63 230.493 138.36 230.415 138.117C230.336 137.873 230.123 137.693 229.868 137.655L224.503 136.875L222.103 132.006C221.991 131.773 221.755 131.627 221.497 131.627C221.238 131.627 221.002 131.773 220.89 132.006L218.648 136.556C218.55 136.755 218.359 136.894 218.138 136.927L213.125 137.659C212.871 137.696 212.657 137.876 212.579 138.12C212.5 138.364 212.564 138.634 212.751 138.814L216.379 142.356C216.54 142.509 216.611 142.734 216.573 142.956L215.716 147.956C215.671 148.211 215.776 148.466 215.986 148.62C216.195 148.77 216.469 148.793 216.697 148.673L221.178 146.313C221.377 146.208 221.613 146.208 221.807 146.313L226.289 148.673C226.517 148.793 226.794 148.774 227 148.62C227.21 148.47 227.311 148.211 227.27 147.956L226.412 142.956C226.375 142.734 226.446 142.513 226.607 142.356L230.235 138.814L230.242 138.81Z" fill="#56D340"/><path d="M254.241 138.81C254.424 138.63 254.492 138.36 254.413 138.117C254.334 137.873 254.121 137.693 253.866 137.655L248.501 136.875L246.102 132.006C245.989 131.773 245.753 131.627 245.495 131.627C245.237 131.627 245.001 131.773 244.889 132.006L242.646 136.556C242.549 136.755 242.358 136.894 242.137 136.927L237.124 137.659C236.869 137.696 236.656 137.876 236.577 138.12C236.498 138.364 236.562 138.634 236.749 138.814L240.377 142.356C240.538 142.509 240.609 142.734 240.572 142.956L239.714 147.956C239.67 148.211 239.774 148.466 239.984 148.62C240.194 148.77 240.467 148.793 240.695 148.673L245.177 146.313C245.375 146.208 245.607 146.208 245.806 146.313L250.287 148.673C250.516 148.793 250.793 148.774 250.999 148.62C251.208 148.47 251.309 148.211 251.268 147.956L250.411 142.956C250.373 142.734 250.444 142.513 250.605 142.356L254.233 138.814L254.241 138.81Z" fill="#56D340"/><path d="M278.239 138.81C278.423 138.63 278.49 138.36 278.411 138.117C278.333 137.873 278.119 137.693 277.865 137.655L272.5 136.875L270.1 132.006C269.988 131.773 269.752 131.627 269.493 131.627C269.235 131.627 268.999 131.773 268.887 132.006L266.644 136.556C266.547 136.755 266.356 136.894 266.135 136.927L261.122 137.659C260.868 137.696 260.654 137.876 260.575 138.12C260.497 138.364 260.561 138.634 260.748 138.814L264.376 142.356C264.537 142.509 264.608 142.734 264.57 142.956L263.713 147.956C263.668 148.211 263.773 148.466 263.982 148.62C264.192 148.77 264.465 148.793 264.694 148.673L269.175 146.313C269.374 146.208 269.61 146.208 269.804 146.313L274.286 148.673C274.514 148.793 274.791 148.774 274.997 148.62C275.207 148.47 275.308 148.211 275.267 147.956L274.409 142.956C274.372 142.734 274.443 142.513 274.604 142.356L278.232 138.814L278.239 138.81Z" fill="#56D340"/><path d="M302.234 138.81C302.417 138.63 302.485 138.36 302.406 138.117C302.327 137.873 302.114 137.693 301.859 137.655L296.494 136.875L294.095 132.006C293.982 131.773 293.746 131.627 293.488 131.627C293.23 131.627 292.994 131.773 292.882 132.006L290.639 136.556C290.542 136.755 290.351 136.894 290.13 136.927L285.117 137.659C284.862 137.696 284.649 137.876 284.57 138.12C284.492 138.364 284.555 138.634 284.742 138.814L288.37 142.356C288.531 142.509 288.602 142.734 288.565 142.956L287.708 147.956C287.663 148.211 287.767 148.466 287.977 148.62C288.187 148.77 288.46 148.793 288.688 148.673L293.17 146.313C293.368 146.208 293.604 146.208 293.799 146.313L298.28 148.673C298.509 148.793 298.786 148.774 298.992 148.62C299.201 148.47 299.302 148.211 299.261 147.956L298.404 142.956C298.366 142.734 298.438 142.513 298.599 142.356L302.226 138.814L302.234 138.81Z" fill="#56D340"/><path d="M326.232 138.81C326.416 138.63 326.483 138.36 326.404 138.117C326.326 137.873 326.112 137.693 325.858 137.655L320.493 136.875L318.093 132.006C317.981 131.773 317.745 131.627 317.487 131.627C317.228 131.627 316.992 131.773 316.88 132.006L314.637 136.556C314.54 136.755 314.349 136.894 314.128 136.927L309.115 137.659C308.861 137.696 308.647 137.876 308.569 138.12C308.49 138.364 308.554 138.634 308.741 138.814L312.369 142.356C312.53 142.509 312.601 142.734 312.563 142.956L311.706 147.956C311.661 148.211 311.766 148.466 311.975 148.62C312.185 148.77 312.458 148.793 312.687 148.673L317.168 146.313C317.367 146.208 317.599 146.208 317.797 146.313L322.279 148.673C322.507 148.793 322.784 148.774 322.99 148.62C323.2 148.47 323.301 148.211 323.26 147.956L322.402 142.956C322.365 142.734 322.436 142.513 322.597 142.356L326.225 138.814L326.232 138.81Z" fill="#56D340"/><path d="M343.686 190.83V231.161C343.686 234.447 341.687 237.11 339.224 237.11H192.583C190.535 237.11 188.749 238.967 188.251 241.619L185.619 255.661C185.271 257.521 183.328 257.679 182.815 255.882L179.423 244.017C178.764 241.709 177.101 240.183 175.252 240.183H168.951C166.484 240.183 164.488 237.519 164.488 234.233V192.773C164.488 189.506 166.465 186.85 168.914 186.824L339.186 184.877C341.668 184.847 343.69 187.522 343.69 190.826L343.686 190.83Z" fill="white"/><path d="M169.191 211.252C169.191 221.467 177.244 229.75 187.176 229.75C197.109 229.75 205.162 221.471 205.162 211.252C205.162 201.034 197.109 192.755 187.176 192.755C177.244 192.755 169.191 201.034 169.191 211.252Z" fill="url(#paint17_radial_330_5508)"/><path d="M193.691 203.754C193.691 207.077 191.003 210.663 187.685 210.663C184.368 210.663 181.68 207.077 181.68 203.754C181.68 200.43 184.368 198.074 187.685 198.074C191.003 198.074 193.691 200.43 193.691 203.754Z" fill="white"/><path d="M180.235 223.456H194.892C196.435 223.456 197.802 222.458 198.273 220.983L199.063 218.515C199.64 216.707 198.7 214.749 196.922 214.096C190.958 211.909 184.788 212.19 178.472 214.299C176.701 214.887 175.72 216.786 176.207 218.59L176.813 220.833C177.233 222.383 178.636 223.459 180.239 223.459L180.235 223.456Z" fill="white"/><path d="M215.622 216.077C215.622 218.009 217.184 219.573 219.112 219.573H321.788C323.716 219.573 325.278 218.009 325.278 216.077C325.278 214.145 323.716 212.58 321.788 212.58H219.112C217.184 212.58 215.622 214.145 215.622 216.077Z" fill="#7D97F4"/><path d="M322.507 224.663H267.55C265.685 224.663 264.173 226.178 264.173 228.047V228.148C264.173 230.017 265.685 231.532 267.55 231.532H322.507C324.372 231.532 325.884 230.017 325.884 228.148V228.047C325.884 226.178 324.372 224.663 322.507 224.663Z" fill="#7D97F4"/><path d="M259.097 224.663H218.973C217.114 224.663 215.607 226.173 215.607 228.036V228.16C215.607 230.022 217.114 231.532 218.973 231.532H259.097C260.955 231.532 262.462 230.022 262.462 228.16V228.036C262.462 226.173 260.955 224.663 259.097 224.663Z" fill="#7D97F4"/><path d="M229.868 198.457C230.051 198.277 230.119 198.006 230.04 197.763C229.962 197.519 229.748 197.339 229.494 197.301L224.129 196.521L221.729 191.652C221.616 191.419 221.381 191.273 221.122 191.273C220.864 191.273 220.628 191.419 220.516 191.652L218.273 196.202C218.176 196.401 217.985 196.54 217.764 196.573L212.751 197.305C212.496 197.342 212.283 197.523 212.204 197.766C212.126 198.01 212.189 198.28 212.376 198.46L216.004 202.002C216.165 202.155 216.236 202.381 216.199 202.602L215.342 207.602C215.297 207.857 215.402 208.113 215.611 208.266C215.821 208.416 216.094 208.439 216.323 208.319L220.804 205.959C221.002 205.854 221.238 205.854 221.433 205.959L225.914 208.319C226.143 208.439 226.42 208.42 226.626 208.266C226.835 208.116 226.937 207.857 226.895 207.602L226.038 202.602C226.001 202.381 226.072 202.159 226.233 202.002L229.861 198.46L229.868 198.457Z" fill="#56D340"/><path d="M253.866 198.457C254.05 198.277 254.117 198.006 254.039 197.763C253.96 197.519 253.747 197.339 253.492 197.301L248.127 196.521L245.727 191.652C245.615 191.419 245.379 191.273 245.121 191.273C244.862 191.273 244.626 191.419 244.514 191.652L242.272 196.202C242.174 196.401 241.983 196.54 241.762 196.573L236.749 197.305C236.495 197.342 236.281 197.523 236.203 197.766C236.124 198.01 236.188 198.28 236.375 198.46L240.003 202.002C240.164 202.155 240.235 202.381 240.197 202.602L239.34 207.602C239.295 207.857 239.4 208.113 239.61 208.266C239.819 208.416 240.093 208.439 240.321 208.319L244.802 205.959C245.001 205.854 245.233 205.854 245.431 205.959L249.913 208.319C250.141 208.439 250.418 208.42 250.624 208.266C250.834 208.116 250.935 207.857 250.894 207.602L250.036 202.602C249.999 202.381 250.07 202.159 250.231 202.002L253.859 198.46L253.866 198.457Z" fill="#56D340"/><path d="M277.865 198.457C278.048 198.277 278.116 198.006 278.037 197.763C277.958 197.519 277.745 197.339 277.49 197.301L272.125 196.521L269.726 191.652C269.613 191.419 269.377 191.273 269.119 191.273C268.861 191.273 268.625 191.419 268.513 191.652L266.27 196.202C266.173 196.401 265.982 196.54 265.761 196.573L260.748 197.305C260.493 197.342 260.28 197.523 260.201 197.766C260.122 198.01 260.186 198.28 260.373 198.46L264.001 202.002C264.162 202.155 264.233 202.381 264.196 202.602L263.338 207.602C263.294 207.857 263.398 208.113 263.608 208.266C263.818 208.416 264.091 208.439 264.319 208.319L268.801 205.959C268.999 205.854 269.235 205.854 269.43 205.959L273.911 208.319C274.14 208.439 274.417 208.42 274.623 208.266C274.832 208.116 274.933 207.857 274.892 207.602L274.035 202.602C273.997 202.381 274.068 202.159 274.229 202.002L277.857 198.46L277.865 198.457Z" fill="#56D340"/><path d="M301.859 198.457C302.043 198.277 302.11 198.006 302.032 197.763C301.953 197.519 301.74 197.339 301.485 197.301L296.12 196.521L293.72 191.652C293.608 191.419 293.372 191.273 293.114 191.273C292.855 191.273 292.62 191.419 292.507 191.652L290.265 196.202C290.167 196.401 289.976 196.54 289.755 196.573L284.742 197.305C284.488 197.342 284.274 197.523 284.196 197.766C284.117 198.01 284.181 198.28 284.368 198.46L287.996 202.002C288.157 202.155 288.228 202.381 288.19 202.602L287.333 207.602C287.288 207.857 287.393 208.113 287.603 208.266C287.812 208.416 288.086 208.439 288.314 208.319L292.795 205.959C292.994 205.854 293.23 205.854 293.424 205.959L297.906 208.319C298.134 208.439 298.411 208.42 298.617 208.266C298.827 208.116 298.928 207.857 298.887 207.602L298.029 202.602C297.992 202.381 298.063 202.159 298.224 202.002L301.852 198.46L301.859 198.457Z" fill="#56D340"/><path d="M325.858 198.457C326.041 198.277 326.109 198.006 326.03 197.763C325.951 197.519 325.738 197.339 325.483 197.301L320.118 196.521L317.719 191.652C317.606 191.419 317.37 191.273 317.112 191.273C316.854 191.273 316.618 191.419 316.506 191.652L314.263 196.202C314.166 196.401 313.975 196.54 313.754 196.573L308.741 197.305C308.486 197.342 308.273 197.523 308.194 197.766C308.116 198.01 308.179 198.28 308.366 198.46L311.994 202.002C312.155 202.155 312.226 202.381 312.189 202.602L311.332 207.602C311.287 207.857 311.391 208.113 311.601 208.266C311.811 208.416 312.084 208.439 312.312 208.319L316.794 205.959C316.992 205.854 317.224 205.854 317.423 205.959L321.904 208.319C322.133 208.439 322.41 208.42 322.616 208.266C322.825 208.116 322.926 207.857 322.885 207.602L322.028 202.602C321.99 202.381 322.062 202.159 322.223 202.002L325.85 198.46L325.858 198.457Z" fill="#56D340"/><path d="M126.267 153.486C122.882 153.812 119.318 155.283 116.679 157.406C111.782 161.348 111.568 167.471 109.79 173.038C108.813 176.095 106.978 179.858 104.429 181.936C99.4155 186.013 93.2755 186.396 89.4904 192.121C79.8499 206.71 85.6829 231.652 105.312 232.913C117.442 233.689 132.886 227.916 133.545 213.758C134.462 194.064 132.661 151.588 126.267 153.486Z" fill="#161617"/><path d="M143.309 198.745C143.309 198.745 153.586 222.244 168.198 225.883C171.025 226.434 174.35 226.194 175.832 227.117C177.521 228.167 175.469 231.003 174.645 233.149C173.826 235.298 173.504 234.293 173.14 233.607C172.777 232.92 174.312 230.759 172.306 229.904C170.299 229.052 170.905 230.362 171.849 231.487C172.792 232.616 172.762 234.353 172.699 234.443C172.639 234.533 171.119 233.772 169.689 233.104C168.461 232.53 167.775 230.947 167.603 230.508C164.709 230.17 146.6 227.316 138.902 208.236C138.902 208.236 138.161 189.292 143.305 198.745H143.309Z" fill="url(#paint18_linear_330_5508)"/><path d="M99.0936 327.675L98.8914 332.326C98.8539 333.208 98.2212 333.955 97.3564 334.123C95.8963 334.408 93.5413 334.765 91.2089 334.701C90.1831 334.671 89.4455 333.692 89.6776 332.694C90.1044 330.871 90.9281 328.121 92.2946 326.433L97.3976 326.035C98.341 325.96 99.1347 326.733 99.0936 327.679V327.675Z" fill="#FCFCFC"/><path d="M134.852 270.572L136.106 275.58C136.106 275.58 135.499 305.073 135.896 316.818C135.96 318.66 136.574 320.438 137.656 321.928L143.305 329.693L129.977 323.154L129.603 321.616L131.463 318.578L126.181 286.005C125.87 284.092 126.117 282.13 126.892 280.352L129.142 275.182L134.852 270.568V270.572Z" fill="url(#paint19_linear_330_5508)"/><path d="M144.241 330.811L140.175 331.13C139.415 331.19 138.67 330.894 138.157 330.327C136.761 328.774 133.886 325.762 132.62 325.773C130.92 325.792 131.606 331.798 131.606 331.798L130.658 331.873L128.876 324.482C128.427 322.622 129.217 320.686 130.834 319.67C130.834 319.67 131.445 322.502 133.639 323.605C135.832 324.708 142.616 328.74 142.616 328.74C142.616 328.74 143.395 328.568 144.271 328.654C145.574 328.785 145.54 330.702 144.238 330.807L144.241 330.811Z" fill="#FCFCFC"/><path d="M117.585 274.346C117.585 274.346 103.189 307.774 101.074 315.314C98.9588 322.854 98.4945 329.044 98.502 329.626C98.517 330.533 97.4612 331.49 94.365 331.734C92.7664 331.858 91.9352 331.276 91.5047 330.687C91.1378 330.184 91.0666 329.52 91.2987 328.939C92.1224 326.88 94.7282 320.307 95.6566 317.344C96.7611 313.806 98.502 298.036 99.7001 292.506C100.898 286.977 102.268 280.971 108.895 275.021C108.895 275.021 113.362 269.897 117.588 274.342L117.585 274.346Z" fill="url(#paint20_linear_330_5508)"/><path d="M124.163 220.901C127.079 202.058 115.226 192.454 115.226 192.454C118.768 188.474 124.125 185.462 128.232 183.553C131.943 181.831 136.323 182.446 139.419 185.124C142.822 188.073 146.529 192.244 146.031 196.153C145.507 200.287 139.415 221.197 139.415 221.197C139.415 221.197 132.583 225.114 124.163 220.901Z" fill="#C9E2BB"/><path d="M115.215 230.816C116.57 225.324 124.163 220.901 124.163 220.901C132.583 225.114 139.415 221.197 139.415 221.197C139.415 221.197 141.478 227.166 140.823 232.913C140.164 238.66 136.109 275.584 136.109 275.584C125.428 278.634 108.393 275.52 108.393 275.52C114.35 262.683 113.859 236.311 115.215 230.819V230.816Z" fill="#C9E2BB"/><path d="M128.858 171.908L126.888 185.286C126.66 186.715 127.54 186.854 128.981 186.974C131.265 187.165 134.189 187.098 135.046 185.211C135.132 185.019 135.17 184.806 135.181 184.595L135.844 173.42C135.896 172.535 135.357 171.721 134.522 171.425L131.482 170.348C130.314 169.935 129.052 170.682 128.858 171.908Z" fill="url(#paint21_linear_330_5508)"/><path d="M121.029 199.792C120.434 200.584 111.418 211.331 108.835 223.328C106.252 235.321 107.12 243.33 107.12 243.33C107.12 243.33 109.745 245.292 108.801 246.68C107.858 248.072 108.109 249.017 106.903 249.287C105.698 249.557 104.204 249.936 104.384 247.554C104.567 245.168 101.726 244.688 102.197 243.247C102.665 241.814 99.453 203.101 115.005 192.601C115.08 192.552 115.151 192.503 115.226 192.454C121.8 194.837 121.988 198.52 121.029 199.792Z" fill="url(#paint22_linear_330_5508)"/><path d="M87.6222 280.371C87.6447 280.371 87.6709 280.367 87.6934 280.356L89.8461 279.324C89.9285 279.283 89.9622 279.185 89.9247 279.103C89.8836 279.02 89.7862 278.986 89.7039 279.024L87.5511 280.055C87.4687 280.097 87.4351 280.194 87.4725 280.277C87.5024 280.337 87.5586 280.371 87.6222 280.371Z" fill="#DCE5FE"/><path d="M131.407 159.041C131.407 159.041 136.334 160.384 140.411 166.702C144.488 173.019 142.542 176.455 139.629 177.284C136.716 178.113 132.261 178.65 126.971 174.928C121.681 171.207 125.035 157.522 131.407 159.041Z" fill="url(#paint23_linear_330_5508)"/><path d="M128.813 172.13C128.813 172.13 126.349 167.287 124.253 169.631C122.152 171.976 126.813 174.069 128.61 174.707L128.813 172.13Z" fill="url(#paint24_linear_330_5508)"/><path d="M129.644 170.899C129.644 170.899 124.799 161.502 133.519 160.204L135.769 161.367C135.769 161.367 138.236 155.459 132.624 153.561C127.012 151.659 119.475 155.046 118.195 162.451C116.915 169.856 118.843 174.264 123.025 177.157C127.207 180.049 128.221 175.99 128.221 175.99C128.221 175.99 125.765 173.086 126.36 171.274C126.956 169.463 129.138 171.256 129.138 171.256L129.648 170.899H129.644Z" fill="#161617"/><g opacity="0.7"><path d="M89.4156 209.399C89.4156 209.399 89.4418 209.399 89.4568 209.395C89.5391 209.373 89.5878 209.287 89.5653 209.208C87.1318 200.381 93.9195 195.242 99.9097 190.71C99.9771 190.658 99.9921 190.564 99.9397 190.493C99.8873 190.425 99.7937 190.414 99.7225 190.463C93.6537 195.054 86.7761 200.257 89.2658 209.287C89.2845 209.354 89.3482 209.399 89.4156 209.399Z" fill="url(#paint25_linear_330_5508)"/><path d="M109.722 181.456C109.775 181.456 109.824 181.429 109.854 181.381C111.34 178.957 112.047 176.136 112.729 173.409C113.403 170.712 114.103 167.925 115.552 165.479C116.791 163.389 118.311 161.761 119.921 160.032C120.232 159.702 120.542 159.364 120.857 159.026C120.913 158.963 120.909 158.865 120.849 158.809C120.786 158.753 120.688 158.756 120.632 158.816C120.321 159.158 120.007 159.492 119.7 159.822C118.079 161.559 116.548 163.202 115.29 165.321C113.815 167.805 113.111 170.618 112.433 173.334C111.755 176.039 111.055 178.833 109.595 181.219C109.55 181.291 109.573 181.388 109.644 181.429C109.67 181.444 109.696 181.452 109.722 181.452V181.456Z" fill="url(#paint26_linear_330_5508)"/></g><path d="M411.773 327.607C411.773 327.607 412.451 331.456 412.784 335.268C412.915 336.757 411.769 338.051 410.279 338.111C405.214 338.321 394.383 338.734 390.496 338.561C389.912 338.535 389.53 337.935 389.748 337.391C389.927 336.933 390.279 336.565 390.725 336.359L408.617 328.121L411.777 327.611L411.773 327.607Z" fill="#FCFCFC"/><path d="M412.331 325.345L411.784 329.948C411.784 329.948 408.65 331.411 406.509 329.764L407.808 324.633L412.331 325.345Z" fill="url(#paint27_linear_330_5508)"/><path d="M411.919 238.795C412.155 239.995 413.184 298.79 406.91 325.135C406.808 325.567 407.026 326.009 407.434 326.174C408.396 326.568 410.283 327.138 412.54 327.213C413.241 327.236 413.869 326.782 414.064 326.107C415.857 319.992 424.446 289.366 425.569 260.11C426.82 227.417 425.569 258.996 425.569 258.996L424.835 238.787H411.919V238.795Z" fill="#C9E2BB"/><path d="M432.357 329.614C432.357 329.614 433.435 331.557 434.483 336.719C434.671 337.653 434.023 338.542 433.076 338.636C431.402 338.801 428.83 339.011 426.767 339C425.816 338.993 425.075 338.164 425.191 337.218C425.419 335.335 426.131 332.24 428.328 329.832L432.357 329.614Z" fill="#FCFCFC"/><path d="M433.304 323.695L432.031 330.657C432.031 330.657 430.773 331.595 428.28 330.916L428.886 323.425L433.304 323.695Z" fill="url(#paint28_linear_330_5508)"/><path d="M436.745 240.599C441.874 271.619 435.633 317.265 433.525 326.201C433.398 326.748 432.956 327.168 432.402 327.258C431.462 327.416 429.916 327.544 428.388 327.097C427.864 326.943 427.494 326.471 427.471 325.923C427.19 318.702 427.696 274.357 422.918 256.835C422.675 255.946 422.136 255.173 421.387 254.64L412.11 248.03L411.398 237.35L436.741 240.603L436.745 240.599Z" fill="#C9E2BB"/><path d="M404.06 181.823C419.433 181.568 436.397 185.867 436.397 185.867C440.979 212.659 437.198 243.559 437.198 243.559C425.296 246.687 411.87 241.646 411.87 241.646C409.893 230.448 400.665 198.933 400.665 198.933C393.155 197.999 386.966 195.827 381.87 192.957C385.757 188.444 387.591 182.697 388.385 179.302C393.821 180.994 399.321 181.898 404.06 181.82V181.823Z" fill="#C9E2BB"/><path d="M358.651 159.135C360.159 157.308 362.073 158.171 362.073 158.171C364.334 167.744 376.195 175.51 388.381 179.302C387.584 182.697 385.753 188.441 381.867 192.957C361.642 181.564 358.651 159.135 358.651 159.135Z" fill="url(#paint29_linear_330_5508)"/><path d="M359.018 159.6C358.86 160.103 360.691 160.868 361.766 158.813C361.803 157.826 362.402 153.598 361.814 152.795C358.681 148.515 352.604 143.147 352.604 143.147C351.578 144.164 352.425 145.158 352.425 145.158L355.371 148.234C354.753 149.352 354.005 150.293 353.649 151.644C353.383 152.668 353.544 153.76 354.061 154.69C354.577 155.624 355.285 156.839 355.951 157.788C357.213 159.585 359.014 159.6 359.014 159.6H359.018Z" fill="url(#paint30_linear_330_5508)"/><path d="M356.663 150.233L359.347 152.514L360.189 154.784L357.793 157.447C357.793 157.447 356.988 152.942 356.389 151.966C355.79 150.991 356.101 150.518 356.659 150.233H356.663Z" fill="url(#paint31_linear_330_5508)"/><path d="M430.496 200.782L436.393 185.867C436.393 185.867 450.751 195.643 453.113 208.037C450.399 208.236 445.85 208.99 441.02 211.436C438.838 206.518 430.5 200.782 430.5 200.782H430.496Z" fill="#C9E2BB"/><path d="M419.631 169.32L424.521 183.493C424.603 183.729 424.506 183.988 424.289 184.108C422.956 184.847 418.153 186.981 412.364 183.305C411.762 182.922 411.35 182.296 411.26 181.587L409.676 169.32H419.631Z" fill="url(#paint32_linear_330_5508)"/><path d="M408.987 156.194C408.987 156.194 403.615 166.326 404.304 170.415C404.993 174.508 411.649 174.215 417.464 170.892L421.526 159.953L408.987 156.194Z" fill="url(#paint33_linear_330_5508)"/><path d="M417.205 165.52C416.969 165.415 416.883 165.126 417.022 164.908C417.452 164.248 418.257 162.905 418.516 161.731C418.516 161.731 419.482 161.112 416.06 160.291C412.638 159.469 407.531 158.194 406.46 155.275C405.416 152.428 408.164 145.27 412.548 150.972C412.716 151.19 413.042 151.194 413.207 150.976C413.926 150.038 415.816 148.091 418.441 149.273C420.897 150.376 421.174 152.18 421.14 153.088C421.129 153.354 421.369 153.564 421.631 153.512C422.874 153.276 425.85 153.069 427.243 156.134C428.388 158.655 427.643 160.084 426.966 160.782C426.745 161.007 426.842 161.382 427.142 161.472C427.958 161.724 429.01 162.414 428.905 164.331C428.759 166.979 425.805 166.747 424.963 166.627C424.824 166.608 424.686 166.653 424.592 166.758C423.869 167.557 420.62 170.956 417.104 171.364C416.801 171.398 416.565 171.098 416.662 170.809L418.186 166.375C418.257 166.169 418.16 165.944 417.962 165.854L417.205 165.52Z" fill="#161617"/><path d="M416.595 166.15C416.595 166.15 420.418 163.52 420.698 165.734C420.979 167.947 417.254 168.941 415.412 168.116L416.595 166.15Z" fill="url(#paint34_linear_330_5508)"/><path d="M453.016 208.158C453.016 208.158 462.828 230.557 438.841 233.832L435.569 231.101C435.569 231.101 447.565 224.543 441.02 211.432C441.02 211.432 448.107 205.423 453.016 208.154V208.158Z" fill="url(#paint35_linear_330_5508)"/><path d="M435.569 231.101H426.846C426.846 231.101 421.395 238.202 421.938 239.841C422.484 241.481 427.872 240.179 427.872 240.179L430.661 235.471C430.661 235.471 438.838 236.019 438.838 233.832C438.838 231.645 435.565 231.101 435.565 231.101H435.569Z" fill="url(#paint36_linear_330_5508)"/><path d="M408.916 155.785C408.886 155.785 408.856 155.774 408.83 155.755C408.048 155.166 407.606 154.442 407.52 153.598C407.336 151.839 408.748 150.203 408.808 150.136C408.86 150.076 408.95 150.072 409.01 150.125C409.07 150.177 409.074 150.267 409.025 150.327C409.01 150.342 407.636 151.94 407.804 153.572C407.883 154.334 408.287 154.99 409.002 155.526C409.066 155.575 409.077 155.665 409.032 155.729C409.002 155.767 408.961 155.785 408.916 155.785Z" fill="url(#paint37_linear_330_5508)"/></g><defs><radialGradient id="paint0_radial_330_5508" cx="0" cy="0" r="1" gradientUnits="userSpaceOnUse" gradientTransform="translate(384.843 219.862) scale(26.4095 26.4619)"><stop stop-color="#4FA83D"/><stop offset="0.98"/></radialGradient><radialGradient id="paint1_radial_330_5508" cx="0" cy="0" r="1" gradientUnits="userSpaceOnUse" gradientTransform="translate(384.839 244.41) scale(26.4095 26.4619)"><stop stop-color="#4FA83D"/><stop offset="0.98"/></radialGradient><radialGradient id="paint2_radial_330_5508" cx="0" cy="0" r="1" gradientUnits="userSpaceOnUse" gradientTransform="translate(384.839 268.963) scale(26.4095 26.4619)"><stop stop-color="#4FA83D"/><stop offset="0.98"/></radialGradient><radialGradient id="paint3_radial_330_5508" cx="0" cy="0" r="1" gradientUnits="userSpaceOnUse" gradientTransform="translate(352.428 203.101) scale(117.218 117.45)"><stop stop-color="#4FA83D"/><stop offset="0.98"/></radialGradient><radialGradient id="paint4_radial_330_5508" cx="0" cy="0" r="1" gradientUnits="userSpaceOnUse" gradientTransform="translate(352.428 203.101) scale(117.218 117.45)"><stop stop-color="#4FA83D"/><stop offset="0.98"/></radialGradient><radialGradient id="paint5_radial_330_5508" cx="0" cy="0" r="1" gradientUnits="userSpaceOnUse" gradientTransform="translate(352.428 203.101) scale(117.218 117.45)"><stop stop-color="#4FA83D"/><stop offset="0.98"/></radialGradient><radialGradient id="paint6_radial_330_5508" cx="0" cy="0" r="1" gradientUnits="userSpaceOnUse" gradientTransform="translate(385.502 202.047) scale(74.9566 75.1054)"><stop stop-color="#4FA83D"/><stop offset="0.98"/></radialGradient><radialGradient id="paint7_radial_330_5508" cx="0" cy="0" r="1" gradientUnits="userSpaceOnUse" gradientTransform="translate(385.502 202.047) scale(74.9566 75.1053)"><stop stop-color="#4FA83D"/><stop offset="0.98"/></radialGradient><radialGradient id="paint8_radial_330_5508" cx="0" cy="0" r="1" gradientUnits="userSpaceOnUse" gradientTransform="translate(385.502 202.047) scale(74.9566 75.1053)"><stop stop-color="#4FA83D"/><stop offset="0.98"/></radialGradient><radialGradient id="paint9_radial_330_5508" cx="0" cy="0" r="1" gradientUnits="userSpaceOnUse" gradientTransform="translate(385.502 202.047) scale(74.9565 75.1053)"><stop stop-color="#4FA83D"/><stop offset="0.98"/></radialGradient><linearGradient id="paint10_linear_330_5508" x1="212.893" y1="316.488" x2="238.933" y2="32.9574" gradientUnits="userSpaceOnUse"><stop stop-color="#151618"/><stop offset="1" stop-color="#1C221D"/></linearGradient><linearGradient id="paint11_linear_330_5508" x1="25.7505" y1="180.597" x2="422.084" y2="180.597" gradientUnits="userSpaceOnUse"><stop stop-color="#33512C"/><stop offset="1" stop-color="#355B2D"/></linearGradient><linearGradient id="paint12_linear_330_5508" x1="253.099" y1="162.485" x2="217.591" y2="353.065" gradientUnits="userSpaceOnUse"><stop stop-color="#151618"/><stop offset="1" stop-color="#1C221D"/></linearGradient><radialGradient id="paint13_radial_330_5508" cx="0" cy="0" r="1" gradientUnits="userSpaceOnUse" gradientTransform="translate(177.693 0.975333) scale(73.5152 73.6611)"><stop stop-color="#4FA83D"/><stop offset="0.98"/></radialGradient><radialGradient id="paint14_radial_330_5508" cx="0" cy="0" r="1" gradientUnits="userSpaceOnUse" gradientTransform="translate(177.693 0.975323) scale(73.5153 73.6611)"><stop stop-color="#4FA83D"/><stop offset="0.98"/></radialGradient><radialGradient id="paint15_radial_330_5508" cx="0" cy="0" r="1" gradientUnits="userSpaceOnUse" gradientTransform="translate(187.551 91.5813) rotate(180) scale(18.2253 18.2615)"><stop stop-color="#4FA83D"/><stop offset="0.98"/></radialGradient><radialGradient id="paint16_radial_330_5508" cx="0" cy="0" r="1" gradientUnits="userSpaceOnUse" gradientTransform="translate(187.551 151.603) rotate(180) scale(18.2253 18.2615)"><stop stop-color="#4FA83D"/><stop offset="0.98"/></radialGradient><radialGradient id="paint17_radial_330_5508" cx="0" cy="0" r="1" gradientUnits="userSpaceOnUse" gradientTransform="translate(187.176 211.249) rotate(180) scale(18.2253 18.2615)"><stop stop-color="#4FA83D"/><stop offset="0.98"/></radialGradient><linearGradient id="paint18_linear_330_5508" x1="187.083" y1="-69.1932" x2="180.772" y2="-8.29291" gradientUnits="userSpaceOnUse"><stop stop-color="#FF928E"/><stop offset="1" stop-color="#FEB3B1"/></linearGradient><linearGradient id="paint19_linear_330_5508" x1="143.865" y1="365.587" x2="116.704" y2="200.959" gradientUnits="userSpaceOnUse"><stop stop-color="#FF928E"/><stop offset="1" stop-color="#FEB3B1"/></linearGradient><linearGradient id="paint20_linear_330_5508" x1="115.585" y1="370.281" x2="88.4167" y2="205.608" gradientUnits="userSpaceOnUse"><stop stop-color="#FF928E"/><stop offset="1" stop-color="#FEB3B1"/></linearGradient><linearGradient id="paint21_linear_330_5508" x1="133.904" y1="169.057" x2="125.49" y2="210.263" gradientUnits="userSpaceOnUse"><stop stop-color="#FF928E"/><stop offset="1" stop-color="#FEB3B1"/></linearGradient><linearGradient id="paint22_linear_330_5508" x1="116.007" y1="49.9724" x2="114.456" y2="111.181" gradientUnits="userSpaceOnUse"><stop stop-color="#FF928E"/><stop offset="1" stop-color="#FEB3B1"/></linearGradient><linearGradient id="paint23_linear_330_5508" x1="595.779" y1="-950.882" x2="584.982" y2="-924.806" gradientUnits="userSpaceOnUse"><stop stop-color="#FF928E"/><stop offset="1" stop-color="#FEB3B1"/></linearGradient><linearGradient id="paint24_linear_330_5508" x1="590.425" y1="-953.102" x2="579.628" y2="-927.026" gradientUnits="userSpaceOnUse"><stop stop-color="#FF928E"/><stop offset="1" stop-color="#FEB3B1"/></linearGradient><linearGradient id="paint25_linear_330_5508" x1="88.7417" y1="199.912" x2="99.9696" y2="199.912" gradientUnits="userSpaceOnUse"><stop stop-color="#DAE3FE"/><stop offset="1" stop-color="#E9EFFD"/></linearGradient><linearGradient id="paint26_linear_330_5508" x1="109.569" y1="170.115" x2="120.898" y2="170.115" gradientUnits="userSpaceOnUse"><stop stop-color="#DAE3FE"/><stop offset="1" stop-color="#E9EFFD"/></linearGradient><linearGradient id="paint27_linear_330_5508" x1="412.331" y1="327.592" x2="406.509" y2="327.592" gradientUnits="userSpaceOnUse"><stop stop-color="#FF928E"/><stop offset="1" stop-color="#FEB3B1"/></linearGradient><linearGradient id="paint28_linear_330_5508" x1="433.304" y1="327.292" x2="428.28" y2="327.292" gradientUnits="userSpaceOnUse"><stop stop-color="#FF928E"/><stop offset="1" stop-color="#FEB3B1"/></linearGradient><linearGradient id="paint29_linear_330_5508" x1="634.947" y1="-128.712" x2="586.808" y2="-73.5041" gradientUnits="userSpaceOnUse"><stop stop-color="#FF928E"/><stop offset="1" stop-color="#FEB3B1"/></linearGradient><linearGradient id="paint30_linear_330_5508" x1="-489.514" y1="-821.59" x2="-441.372" y2="-766.382" gradientUnits="userSpaceOnUse"><stop stop-color="#FF928E"/><stop offset="1" stop-color="#FEB3B1"/></linearGradient><linearGradient id="paint31_linear_330_5508" x1="343.746" y1="144.265" x2="365.958" y2="159.975" gradientUnits="userSpaceOnUse"><stop stop-color="#FF928E"/><stop offset="1" stop-color="#FEB3B1"/></linearGradient><linearGradient id="paint32_linear_330_5508" x1="417.018" y1="162.68" x2="417.195" y2="188.756" gradientUnits="userSpaceOnUse"><stop stop-color="#FF928E"/><stop offset="1" stop-color="#FEB3B1"/></linearGradient><linearGradient id="paint33_linear_330_5508" x1="419.055" y1="154.615" x2="406.793" y2="173.319" gradientUnits="userSpaceOnUse"><stop stop-color="#FF928E"/><stop offset="1" stop-color="#FEB3B1"/></linearGradient><linearGradient id="paint34_linear_330_5508" x1="424.124" y1="157.939" x2="411.862" y2="176.643" gradientUnits="userSpaceOnUse"><stop stop-color="#FF928E"/><stop offset="1" stop-color="#FEB3B1"/></linearGradient><linearGradient id="paint35_linear_330_5508" x1="613.378" y1="433.807" x2="585.538" y2="398.685" gradientUnits="userSpaceOnUse"><stop stop-color="#FF928E"/><stop offset="1" stop-color="#FEB3B1"/></linearGradient><linearGradient id="paint36_linear_330_5508" x1="596.624" y1="447.087" x2="568.784" y2="411.965" gradientUnits="userSpaceOnUse"><stop stop-color="#FF928E"/><stop offset="1" stop-color="#FEB3B1"/></linearGradient><linearGradient id="paint37_linear_330_5508" x1="407.501" y1="152.938" x2="409.059" y2="152.938" gradientUnits="userSpaceOnUse"><stop stop-color="#FF928E"/><stop offset="1" stop-color="#FEB3B1"/></linearGradient><clipPath id="clip0_330_5508"><rect width="455" height="339" fill="white"/></clipPath></defs></svg>