<svg width="11" height="12" viewBox="0 0 11 12" fill="none" xmlns="http://www.w3.org/2000/svg">
<g id="Group 44218">
<path id="Vector" fill-rule="evenodd" clip-rule="evenodd" d="M4.06355 3.82914C3.96324 3.60612 3.85763 3.60165 3.76219 3.59775C3.68414 3.5944 3.59477 3.59461 3.50556 3.59461C3.41626 3.59461 3.27117 3.62816 3.14846 3.76217C3.02569 3.89618 2.67969 4.22013 2.67969 4.879C2.67969 5.53794 3.15963 6.17463 3.22652 6.26405C3.29349 6.35334 4.15298 7.74865 5.51418 8.28544C6.64545 8.73155 6.87565 8.64281 7.1212 8.62049C7.36675 8.59816 7.91352 8.2966 8.02513 7.98387C8.13674 7.67121 8.13674 7.4032 8.10326 7.34718C8.06977 7.29138 7.98048 7.25789 7.84655 7.19092C7.71261 7.12396 7.05424 6.79993 6.93146 6.75528C6.80869 6.71064 6.7194 6.68832 6.63011 6.82239C6.54081 6.95633 6.28431 7.25789 6.20618 7.34718C6.12805 7.43668 6.04992 7.44784 5.91598 7.38087C5.78205 7.3137 5.35073 7.17243 4.83906 6.71621C4.44095 6.36128 4.17216 5.92292 4.09403 5.78885C4.01591 5.65491 4.08566 5.58236 4.15284 5.5156C4.21297 5.4556 4.28678 5.35927 4.35375 5.28107C4.42057 5.20287 4.44289 5.14706 4.48754 5.05777C4.53218 4.96834 4.50986 4.89014 4.47638 4.82318C4.44289 4.75621 4.18263 4.09394 4.06355 3.82914Z" fill="#4FA83D"/>
<path id="Vector_2" d="M9.19603 2.28261C8.18405 1.26993 6.83841 0.711938 5.40474 0.711304C2.4504 0.711304 0.0461811 3.11476 0.0449936 6.06895C0.0446453 7.01328 0.291382 7.93506 0.760364 8.74761L0 11.524L2.84126 10.779C3.62409 11.2059 4.50548 11.4309 5.40244 11.4312H5.40471H5.40474C8.35858 11.4312 10.7632 9.02733 10.7644 6.07327C10.7649 4.64156 10.2079 3.29537 9.19603 2.28261ZM5.40474 10.5263H5.403C4.6035 10.5259 3.81948 10.3112 3.13564 9.90546L2.97289 9.80898L1.28683 10.251L1.73698 8.60774L1.63095 8.43928C1.18499 7.73019 0.949553 6.91073 0.949901 6.06931C0.950875 3.61389 2.94917 1.61628 5.40642 1.61628C6.59636 1.61677 7.71473 2.08059 8.55587 2.9223C9.39694 3.76401 9.85979 4.88293 9.85944 6.07294C9.85839 8.52843 7.86002 10.5263 5.40474 10.5263Z" fill="#4FA83D"/>
</g>
</svg>
