<svg xmlns="http://www.w3.org/2000/svg" width="36" height="37" viewBox="0 0 36 37" fill="none">
<path fill-rule="evenodd" clip-rule="evenodd" d="M15.2493 14.2747C15.0704 13.877 14.8821 13.869 14.7119 13.8621C14.5726 13.8561 14.4133 13.8564 14.2541 13.8564C14.0949 13.8564 13.8361 13.9163 13.6173 14.1553C13.3983 14.3943 12.7812 14.972 12.7812 16.1471C12.7812 17.3223 13.6372 18.4578 13.7565 18.6173C13.8759 18.7765 15.4088 21.265 17.8364 22.2223C19.854 23.0179 20.2646 22.8597 20.7025 22.8199C21.1404 22.7801 22.1155 22.2422 22.3146 21.6845C22.5137 21.1269 22.5137 20.6489 22.4539 20.549C22.3942 20.4495 22.235 20.3897 21.9961 20.2703C21.7572 20.1509 20.5831 19.573 20.3641 19.4934C20.1451 19.4137 19.9859 19.3739 19.8266 19.6131C19.6674 19.8519 19.2099 20.3897 19.0706 20.549C18.9312 20.7086 18.7919 20.7285 18.553 20.6091C18.3142 20.4893 17.5449 20.2373 16.6324 19.4237C15.9224 18.7907 15.443 18.0089 15.3037 17.7698C15.1643 17.5309 15.2887 17.4015 15.4086 17.2824C15.5158 17.1755 15.6474 17.0036 15.7669 16.8642C15.886 16.7247 15.9258 16.6252 16.0055 16.4659C16.0851 16.3064 16.0453 16.167 15.9856 16.0475C15.9258 15.9281 15.4617 14.747 15.2493 14.2747Z" fill="white"/>
<path d="M24.4007 11.5162C22.5959 9.71016 20.196 8.715 17.6391 8.71387C12.3702 8.71387 8.08236 13.0003 8.08024 18.269C8.07962 19.9532 8.51967 21.5971 9.35607 23.0462L8 27.9978L13.0672 26.6691C14.4634 27.4305 16.0353 27.8317 17.635 27.8323H17.6391H17.6391C22.9071 27.8323 27.1956 23.5451 27.1978 18.2767C27.1987 15.7233 26.2053 13.3224 24.4007 11.5162ZM17.6391 26.2185H17.636C16.2101 26.2177 14.8119 25.8349 13.5923 25.1112L13.302 24.9392L10.295 25.7275L11.0978 22.7968L10.9087 22.4964C10.1134 21.2317 9.69348 19.7703 9.6941 18.2696C9.69584 13.8905 13.2597 10.3279 17.6421 10.3279C19.7643 10.3287 21.7589 11.1559 23.259 12.6571C24.759 14.1582 25.5845 16.1538 25.5839 18.2761C25.582 22.6553 22.018 26.2185 17.6391 26.2185Z" fill="white"/>
</svg>