<svg xmlns="http://www.w3.org/2000/svg" width="35" height="21" viewBox="0 0 35 21" fill="none"><g id="Myanmar"><g id="Group"><g id="Clip path group"><mask id="mask0_9372_34636" style="mask-type:luminance" maskUnits="userSpaceOnUse" x="0" y="0" width="35" height="21"><g id="SVGID_00000099644256396626833050000006248866957448511880_"><path id="Vector" d="M34.3435 0.710449H0.780518V20.2895H34.3435V0.710449Z" fill="white"></path></g></mask><g mask="url(#mask0_9372_34636)"><path id="Vector_2" d="M34.3435 0.710449H0.780518V20.2895H34.3435V0.710449Z" fill="#FECC02"></path></g></g><g id="Clip path group_2"><mask id="mask1_9372_34636" style="mask-type:luminance" maskUnits="userSpaceOnUse" x="0" y="0" width="35" height="21"><g id="SVGID_00000099644256396626833050000006248866957448511880__2"><path id="Vector_3" d="M34.3435 0.710449H0.780518V20.2895H34.3435V0.710449Z" fill="white"></path></g></mask><g mask="url(#mask1_9372_34636)"><path id="Vector_4" d="M34.3435 7.23853H0.780518V20.2905H34.3435V7.23853Z" fill="#30B42F"></path></g></g><g id="Clip path group_3"><mask id="mask2_9372_34636" style="mask-type:luminance" maskUnits="userSpaceOnUse" x="0" y="0" width="35" height="21"><g id="SVGID_00000099644256396626833050000006248866957448511880__3"><path id="Vector_5" d="M34.3435 0.710449H0.780518V20.2895H34.3435V0.710449Z" fill="white"></path></g></mask><g mask="url(#mask2_9372_34636)"><path id="Vector_6" d="M34.3435 13.7634H0.780518V20.2894H34.3435V13.7634Z" fill="#EB2337"></path></g></g></g><path id="Vector_7" d="M20.1454 12.1174L21.9156 17.4666L17.2806 14.1601L12.6455 17.4666L14.4157 12.1174L9.78052 8.81569H15.5103L17.2806 3.46655L19.0556 8.81569H24.7805L20.1454 12.1174Z" fill="white"></path></g></svg>