<svg xmlns="http://www.w3.org/2000/svg" width="35" height="21" viewBox="0 0 35 21" fill="none"><mask id="mask0_9372_27813" style="mask-type:luminance" maskUnits="userSpaceOnUse" x="0" y="0" width="35" height="21"><path d="M34.2195 0.71106H0.656494V20.289H34.2195V0.71106Z" fill="white"></path></mask><g mask="url(#mask0_9372_27813)"><path d="M17.4445 0.71106V1.33406V1.54706V1.64705L13.7185 3.50806H17.4445V4.06906V4.90805V5.74706V6.30606H13.7185L17.4445 8.16905V8.48206V9.10605V9.16005H16.2975H15.8695H15.6715L10.4455 6.54506V9.16005H9.88448H9.04549H8.20848H7.64748V6.54506L2.42149 9.16005H1.79549H0.656494V20.289H34.2185V0.71106H17.4445Z" fill="#1A237B"></path></g><mask id="mask1_9372_27813" style="mask-type:luminance" maskUnits="userSpaceOnUse" x="0" y="0" width="35" height="21"><path d="M34.2195 0.71106H0.656494V20.289H34.2195V0.71106Z" fill="white"></path></mask><g mask="url(#mask1_9372_27813)"><path d="M0.656494 6.30603V8.16502L4.3745 6.30603H0.656494Z" fill="#1A237B"></path></g><mask id="mask2_9372_27813" style="mask-type:luminance" maskUnits="userSpaceOnUse" x="0" y="0" width="35" height="21"><path d="M34.2195 0.71106H0.656494V20.289H34.2195V0.71106Z" fill="white"></path></mask><g mask="url(#mask2_9372_27813)"><path d="M10.4456 0.71106V3.27205L15.5616 0.71106H10.4456Z" fill="#1A237B"></path></g><mask id="mask3_9372_27813" style="mask-type:luminance" maskUnits="userSpaceOnUse" x="0" y="0" width="35" height="21"><path d="M34.2195 0.71106H0.656494V20.289H34.2195V0.71106Z" fill="white"></path></mask><g mask="url(#mask3_9372_27813)"><path d="M7.64746 0.71106H2.53247L7.64746 3.27205V0.71106Z" fill="#1A237B"></path></g><mask id="mask4_9372_27813" style="mask-type:luminance" maskUnits="userSpaceOnUse" x="0" y="0" width="35" height="21"><path d="M34.2195 0.71106H0.656494V20.289H34.2195V0.71106Z" fill="white"></path></mask><g mask="url(#mask4_9372_27813)"><path d="M0.656494 3.5081H4.3745L0.656494 1.6521V3.5081Z" fill="#1A237B"></path></g><mask id="mask5_9372_27813" style="mask-type:luminance" maskUnits="userSpaceOnUse" x="0" y="0" width="35" height="21"><path d="M34.2195 0.71106H0.656494V20.289H34.2195V0.71106Z" fill="white"></path></mask><g mask="url(#mask5_9372_27813)"><path d="M17.4375 0.71106L11.8435 3.50806H10.5905L16.1845 0.71106H15.5615L10.4455 3.27205V0.71106H9.88452V3.55005V3.86305V4.06906H10.7235H11.9755H12.4035H12.5995H17.4445V3.50806H13.7185L17.4445 1.64705V1.54706V1.33406V0.71106H17.4375Z" fill="white"></path></g><mask id="mask6_9372_27813" style="mask-type:luminance" maskUnits="userSpaceOnUse" x="0" y="0" width="35" height="21"><path d="M34.2195 0.71106H0.656494V20.289H34.2195V0.71106Z" fill="white"></path></mask><g mask="url(#mask6_9372_27813)"><path d="M7.64748 0.71106V3.27205L2.53249 0.71106H0.656494L6.2505 3.50806H4.9995L0.656494 1.33905V1.65205L4.3745 3.50806H0.656494V4.06906H5.4915H6.11848H7.36748H8.20848V3.86305V3.65005V3.55005V0.71106H7.64748Z" fill="white"></path></g><mask id="mask7_9372_27813" style="mask-type:luminance" maskUnits="userSpaceOnUse" x="0" y="0" width="35" height="21"><path d="M34.2195 0.71106H0.656494V20.289H34.2195V0.71106Z" fill="white"></path></mask><g mask="url(#mask7_9372_27813)"><path d="M11.9755 5.74707H10.7235H9.88452V5.95207V6.16608V6.26508V9.16006H10.4455V6.54507L15.6715 9.16006H15.8695H16.2975H17.4445V9.10606L11.8435 6.30608H13.0935L17.4445 8.48207V8.16907L13.7185 6.30608H17.4445V5.74707H12.5995H11.9755Z" fill="white"></path></g><mask id="mask8_9372_27813" style="mask-type:luminance" maskUnits="userSpaceOnUse" x="0" y="0" width="35" height="21"><path d="M34.2195 0.71106H0.656494V20.289H34.2195V0.71106Z" fill="white"></path></mask><g mask="url(#mask8_9372_27813)"><path d="M7.36748 5.74707H6.11848H5.6895H5.4915H0.656494V6.30608H4.3745L0.656494 8.16507V9.10207L6.2505 6.30608H7.5005L1.79549 9.16006H2.42149L7.64748 6.54507V9.16006H8.20848V6.26508V5.95207V5.74707H7.36748Z" fill="white"></path></g><mask id="mask9_9372_27813" style="mask-type:luminance" maskUnits="userSpaceOnUse" x="0" y="0" width="35" height="21"><path d="M34.2195 0.71106H0.656494V20.289H34.2195V0.71106Z" fill="white"></path></mask><g mask="url(#mask9_9372_27813)"><path d="M6.2505 6.30603L0.656494 9.10202V9.16002H1.79549L7.5005 6.30603H6.2505Z" fill="#BD0034"></path></g><mask id="mask10_9372_27813" style="mask-type:luminance" maskUnits="userSpaceOnUse" x="0" y="0" width="35" height="21"><path d="M34.2195 0.71106H0.656494V20.289H34.2195V0.71106Z" fill="white"></path></mask><g mask="url(#mask10_9372_27813)"><path d="M0.656494 1.33905L4.9995 3.50806H6.2505L0.656494 0.71106V1.33905Z" fill="#BD0034"></path></g><mask id="mask11_9372_27813" style="mask-type:luminance" maskUnits="userSpaceOnUse" x="0" y="0" width="35" height="21"><path d="M34.2195 0.71106H0.656494V20.289H34.2195V0.71106Z" fill="white"></path></mask><g mask="url(#mask11_9372_27813)"><path d="M17.4376 0.71106H16.1846L10.5906 3.50806H11.8436L17.4376 0.71106Z" fill="#BD0034"></path></g><mask id="mask12_9372_27813" style="mask-type:luminance" maskUnits="userSpaceOnUse" x="0" y="0" width="35" height="21"><path d="M34.2195 0.71106H0.656494V20.289H34.2195V0.71106Z" fill="white"></path></mask><g mask="url(#mask12_9372_27813)"><path d="M11.8435 6.30603L17.4445 9.10602V8.48203L13.0935 6.30603H11.8435Z" fill="#BD0034"></path></g><mask id="mask13_9372_27813" style="mask-type:luminance" maskUnits="userSpaceOnUse" x="0" y="0" width="35" height="21"><path d="M34.2195 0.71106H0.656494V20.289H34.2195V0.71106Z" fill="white"></path></mask><g mask="url(#mask13_9372_27813)"><path d="M8.20848 0.71106V3.55005V3.65005V3.86305V4.06906H7.36748H6.11848H5.4915H0.656494V5.74706H5.4915H5.6895H6.11848H7.36748H8.20848V5.95206V6.26506V9.16005H9.04549H9.88448V6.26506V6.16606V5.95206V5.74706H10.7235H11.9755H12.5995H17.4445V4.90805V4.06906H12.5995H12.4035H11.9755H10.7235H9.88448V3.86305V3.55005V0.71106H8.20848Z" fill="#BD0034"></path></g><mask id="mask14_9372_27813" style="mask-type:luminance" maskUnits="userSpaceOnUse" x="0" y="0" width="35" height="21"><path d="M34.2195 0.71106H0.656494V20.289H34.2195V0.71106Z" fill="white"></path></mask><g mask="url(#mask14_9372_27813)"><path d="M23.9546 6.42509H24.8646L25.1486 5.55811L25.4296 6.42509H26.3386L25.6036 6.9621L25.8836 7.8291L25.1486 7.2921L24.4076 7.8291L24.6916 6.9621L23.9546 6.42509Z" fill="white"></path></g><mask id="mask15_9372_27813" style="mask-type:luminance" maskUnits="userSpaceOnUse" x="0" y="0" width="35" height="21"><path d="M34.2195 0.71106H0.656494V20.289H34.2195V0.71106Z" fill="white"></path></mask><g mask="url(#mask15_9372_27813)"><path d="M24.3584 6.55811H24.9594L25.1484 5.98511L25.3334 6.55811H25.9344L25.4494 6.91209L25.6334 7.48711L25.1484 7.1321L24.6594 7.48711L24.8454 6.91209L24.3584 6.55811Z" fill="#BD0034"></path></g><mask id="mask16_9372_27813" style="mask-type:luminance" maskUnits="userSpaceOnUse" x="0" y="0" width="35" height="21"><path d="M34.2195 0.71106H0.656494V20.289H34.2195V0.71106Z" fill="white"></path></mask><g mask="url(#mask16_9372_27813)"><path d="M20.3035 10.097H21.2145L21.4995 9.22803L21.7805 10.097H22.6925L21.9565 10.631L22.2355 11.499L21.4995 10.963L20.7625 11.499L21.0435 10.631L20.3035 10.097Z" fill="white"></path></g><mask id="mask17_9372_27813" style="mask-type:luminance" maskUnits="userSpaceOnUse" x="0" y="0" width="35" height="21"><path d="M34.2195 0.71106H0.656494V20.289H34.2195V0.71106Z" fill="white"></path></mask><g mask="url(#mask17_9372_27813)"><path d="M20.7095 10.2281H21.3115L21.4995 9.65405L21.6845 10.2281H22.2905L21.8005 10.5821L21.9875 11.1571L21.4995 10.8L21.0095 11.1571L21.1985 10.5821L20.7095 10.2281Z" fill="#BD0034"></path></g><mask id="mask18_9372_27813" style="mask-type:luminance" maskUnits="userSpaceOnUse" x="0" y="0" width="35" height="21"><path d="M34.2195 0.71106H0.656494V20.289H34.2195V0.71106Z" fill="white"></path></mask><g mask="url(#mask18_9372_27813)"><path d="M27.2104 9.18707H28.0234L28.2755 8.41406L28.5255 9.18707H29.3344L28.6794 9.66006L28.9315 10.4341L28.2755 9.95807L27.6174 10.4341L27.8694 9.66006L27.2104 9.18707Z" fill="white"></path></g><mask id="mask19_9372_27813" style="mask-type:luminance" maskUnits="userSpaceOnUse" x="0" y="0" width="35" height="21"><path d="M34.2195 0.71106H0.656494V20.289H34.2195V0.71106Z" fill="white"></path></mask><g mask="url(#mask19_9372_27813)"><path d="M27.5715 9.30299H28.1105L28.2755 8.79199L28.4405 9.30299H28.9785L28.5435 9.61899L28.7085 10.129L28.2755 9.814L27.8395 10.129L28.0065 9.61899L27.5715 9.30299Z" fill="#BD0034"></path></g><mask id="mask20_9372_27813" style="mask-type:luminance" maskUnits="userSpaceOnUse" x="0" y="0" width="35" height="21"><path d="M34.2195 0.71106H0.656494V20.289H34.2195V0.71106Z" fill="white"></path></mask><g mask="url(#mask20_9372_27813)"><path d="M23.8215 15.8561H24.8335L25.1485 14.8921L25.4595 15.8561H26.4735L25.6545 16.4521L25.9655 17.4161L25.1485 16.8211L24.3295 17.4161L24.6405 16.4521L23.8215 15.8561Z" fill="white"></path></g><mask id="mask21_9372_27813" style="mask-type:luminance" maskUnits="userSpaceOnUse" x="0" y="0" width="35" height="21"><path d="M34.2195 0.71106H0.656494V20.289H34.2195V0.71106Z" fill="white"></path></mask><g mask="url(#mask21_9372_27813)"><path d="M24.2705 16.0031H24.9405L25.1485 15.3661L25.3545 16.0031H26.0235L25.4835 16.3971L25.6905 17.0361L25.1485 16.6411L24.6065 17.0361L24.8145 16.3971L24.2705 16.0031Z" fill="#BD0034"></path></g></svg>