<svg xmlns="http://www.w3.org/2000/svg" width="35" height="21" viewBox="0 0 35 21" fill="none"><g id="AUSTRALIA_2_"><g id="Group"><g id="Group_2"><g id="Clip path group"><mask id="mask0_9372_27525" style="mask-type:luminance" maskUnits="userSpaceOnUse" x="0" y="0" width="35" height="21"><g id="SVGID_00000123402007188672039330000004463701757295784598_"><path id="Vector" d="M34.2195 0.710449H0.656494V20.2894H34.2195V0.710449Z" fill="white"></path></g></mask><g mask="url(#mask0_9372_27525)"><path id="Vector_2" d="M34.2195 0.710449H0.656494V20.2894H34.2195V0.710449Z" fill="#180087"></path></g></g><g id="Clip path group_2"><mask id="mask1_9372_27525" style="mask-type:luminance" maskUnits="userSpaceOnUse" x="0" y="0" width="35" height="21"><g id="SVGID_00000123402007188672039330000004463701757295784598__2"><path id="Vector_3" d="M34.2195 0.710449H0.656494V20.2894H34.2195V0.710449Z" fill="white"></path></g></mask><g mask="url(#mask1_9372_27525)"><path id="Vector_4" d="M9.4826 12.7054L9.9986 14.2964L11.5566 13.7044L10.6376 15.0944L12.0686 15.9464L10.4086 16.0904L10.6376 17.7414L9.4826 16.5344L8.33856 17.7414L8.56659 16.0904L6.90259 15.9464L8.33856 15.0944L7.41461 13.7044L8.97656 14.2964L9.4826 12.7054Z" fill="white"></path></g></g><g id="Clip path group_3"><mask id="mask2_9372_27525" style="mask-type:luminance" maskUnits="userSpaceOnUse" x="0" y="0" width="35" height="21"><g id="SVGID_00000123402007188672039330000004463701757295784598__3"><path id="Vector_5" d="M34.2195 0.710449H0.656494V20.2894H34.2195V0.710449Z" fill="white"></path></g></mask><g mask="url(#mask2_9372_27525)"><path id="Vector_6" d="M27.1415 15.5654L27.3895 16.3224L28.1315 16.0414L27.6935 16.7034L28.3755 17.1094L27.5805 17.1774L27.6935 17.9634L27.1415 17.3874L26.5985 17.9634L26.7075 17.1774L25.9165 17.1094L26.5985 16.7034L26.1605 16.0414L26.9025 16.3224L27.1415 15.5654Z" fill="white"></path></g></g><g id="Clip path group_4"><mask id="mask3_9372_27525" style="mask-type:luminance" maskUnits="userSpaceOnUse" x="0" y="0" width="35" height="21"><g id="SVGID_00000123402007188672039330000004463701757295784598__4"><path id="Vector_7" d="M34.2195 0.710449H0.656494V20.2894H34.2195V0.710449Z" fill="white"></path></g></mask><g mask="url(#mask3_9372_27525)"><path id="Vector_8" d="M22.7305 8.57544L22.9734 9.33145L23.7155 9.04944L23.2775 9.71344L23.9595 10.1184L23.1685 10.1854L23.2775 10.9734L22.7305 10.3974L22.1815 10.9734L22.2914 10.1854L21.5005 10.1184L22.1815 9.71344L21.7444 9.04944L22.4865 9.33145L22.7305 8.57544Z" fill="white"></path></g></g><g id="Clip path group_5"><mask id="mask4_9372_27525" style="mask-type:luminance" maskUnits="userSpaceOnUse" x="0" y="0" width="35" height="21"><g id="SVGID_00000123402007188672039330000004463701757295784598__5"><path id="Vector_9" d="M34.2195 0.710449H0.656494V20.2894H34.2195V0.710449Z" fill="white"></path></g></mask><g mask="url(#mask4_9372_27525)"><path id="Vector_10" d="M27.1415 3.79248L27.3895 4.54947L28.1315 4.26947L27.6935 4.92947L28.3755 5.33548L27.5805 5.40547L27.6935 6.19048L27.1415 5.61647L26.5985 6.19048L26.7075 5.40547L25.9165 5.33548L26.5985 4.92947L26.1605 4.26947L26.9025 4.54947L27.1415 3.79248Z" fill="white"></path></g></g><g id="Clip path group_6"><mask id="mask5_9372_27525" style="mask-type:luminance" maskUnits="userSpaceOnUse" x="0" y="0" width="35" height="21"><g id="SVGID_00000123402007188672039330000004463701757295784598__6"><path id="Vector_11" d="M34.2195 0.710449H0.656494V20.2894H34.2195V0.710449Z" fill="white"></path></g></mask><g mask="url(#mask5_9372_27525)"><path id="Vector_12" d="M31.0706 7.39941L31.3106 8.15541L32.0586 7.87341L31.6156 8.53542L32.3016 8.93941L31.5066 9.00941L31.6196 9.79741L31.0706 9.22041L30.5236 9.79741L30.6336 9.00941L29.8406 8.93941L30.5236 8.53542L30.0866 7.87341L30.8286 8.15541L31.0706 7.39941Z" fill="white"></path></g></g><g id="Clip path group_7"><mask id="mask6_9372_27525" style="mask-type:luminance" maskUnits="userSpaceOnUse" x="0" y="0" width="35" height="21"><g id="SVGID_00000123402007188672039330000004463701757295784598__7"><path id="Vector_13" d="M34.2195 0.710449H0.656494V20.2894H34.2195V0.710449Z" fill="white"></path></g></mask><g mask="url(#mask6_9372_27525)"><path id="Vector_14" d="M28.9104 10.9404L29.1034 11.4114L29.6094 11.4494L29.2234 11.7774L29.3424 12.2724L28.9104 12.0024L28.4804 12.2724L28.6004 11.7774L28.2114 11.4494L28.7194 11.4114L28.9104 10.9404Z" fill="white"></path></g></g><g id="Clip path group_8"><mask id="mask7_9372_27525" style="mask-type:luminance" maskUnits="userSpaceOnUse" x="0" y="0" width="35" height="21"><g id="SVGID_00000123402007188672039330000004463701757295784598__8"><path id="Vector_15" d="M34.2195 0.710449H0.656494V20.2894H34.2195V0.710449Z" fill="white"></path></g></mask><g mask="url(#mask7_9372_27525)"><path id="Vector_16" d="M8.01654 0.710449V3.65544H0.656494V6.59845H8.01654V9.54144H10.9555V6.59845H18.3185V3.65544H10.9555V0.710449H8.01654Z" fill="white"></path></g></g><g id="Clip path group_9"><mask id="mask8_9372_27525" style="mask-type:luminance" maskUnits="userSpaceOnUse" x="0" y="0" width="35" height="21"><g id="SVGID_00000123402007188672039330000004463701757295784598__9"><path id="Vector_17" d="M34.2195 0.710449H0.656494V20.2894H34.2195V0.710449Z" fill="white"></path></g></mask><g mask="url(#mask8_9372_27525)"><path id="Vector_18" d="M0.656494 0.710449V1.69745L16.3425 9.54144H18.3145V8.55444L2.63153 0.710449H0.656494Z" fill="white"></path></g></g><g id="Clip path group_10"><mask id="mask9_9372_27525" style="mask-type:luminance" maskUnits="userSpaceOnUse" x="0" y="0" width="35" height="21"><g id="SVGID_00000123402007188672039330000004463701757295784598__10"><path id="Vector_19" d="M34.2195 0.710449H0.656494V20.2894H34.2195V0.710449Z" fill="white"></path></g></mask><g mask="url(#mask9_9372_27525)"><path id="Vector_20" d="M16.3425 0.710449L0.656494 8.55444V9.54144H2.63153L18.3145 1.69745V0.710449H16.3425Z" fill="white"></path></g></g><g id="Clip path group_11"><mask id="mask10_9372_27525" style="mask-type:luminance" maskUnits="userSpaceOnUse" x="0" y="0" width="35" height="21"><g id="SVGID_00000123402007188672039330000004463701757295784598__11"><path id="Vector_21" d="M34.2195 0.710449H0.656494V20.2894H34.2195V0.710449Z" fill="white"></path></g></mask><g mask="url(#mask10_9372_27525)"><path id="Vector_22" d="M8.6015 0.710449V4.24245H0.656494V6.00945H8.6015V9.54144H10.3675V6.00945H18.3145V4.24245H10.3675V0.710449H8.6015Z" fill="#EA0020"></path></g></g><g id="Clip path group_12"><mask id="mask11_9372_27525" style="mask-type:luminance" maskUnits="userSpaceOnUse" x="0" y="0" width="35" height="21"><g id="SVGID_00000123402007188672039330000004463701757295784598__12"><path id="Vector_23" d="M34.2195 0.710449H0.656494V20.2894H34.2195V0.710449Z" fill="white"></path></g></mask><g mask="url(#mask11_9372_27525)"><path id="Vector_24" d="M0.656494 0.710449V1.36945L5.22253 3.65445H6.54254L0.656494 0.710449ZM16.9985 0.710449L11.1135 3.65445H12.4295L18.3145 0.710449H16.9985Z" fill="#EA0020"></path></g></g><g id="Clip path group_13"><mask id="mask12_9372_27525" style="mask-type:luminance" maskUnits="userSpaceOnUse" x="0" y="0" width="35" height="21"><g id="SVGID_00000123402007188672039330000004463701757295784598__13"><path id="Vector_25" d="M34.2195 0.710449H0.656494V20.2894H34.2195V0.710449Z" fill="white"></path></g></mask><g mask="url(#mask12_9372_27525)"><path id="Vector_26" d="M6.54352 6.59839L0.656494 9.54138H1.97253L7.8595 6.59839H6.54352ZM12.4295 6.59839L18.3185 9.54138V8.88338L13.7465 6.59839H12.4295Z" fill="#EA0020"></path></g></g></g></g></g></svg>