<svg xmlns="http://www.w3.org/2000/svg" width="229.78" height="227.155" viewBox="0 0 229.78 227.155"><g id="Group_3755" data-name="Group 3755" transform="translate(-720.665 -100.436)" opacity="0.08"><path id="Path_14230" data-name="Path 14230" d="M822.687,112.212a11.667,11.667,0,0,0-14.054-11.5,116.253,116.253,0,0,0-36.237,15.1,11.679,11.679,0,0,0-1.858,18,11.469,11.469,0,0,0,14.054,1.86,90.6,90.6,0,0,1,29.5-12.2A11.379,11.379,0,0,0,822.687,112.212Zm-68.526,38.1a11.6,11.6,0,0,0-18,1.86,116.233,116.233,0,0,0-15.1,36.238,11.591,11.591,0,0,0,11.384,14.051c5.227,0,10.1-3.482,11.149-8.593a92.649,92.649,0,0,1,12.193-29.386A11.265,11.265,0,0,0,754.161,150.307Zm-21.719,75.379a11.667,11.667,0,0,0-11.5,14.054,117.4,117.4,0,0,0,15.1,36.237,11.606,11.606,0,0,0,18,1.858,11.288,11.288,0,0,0,1.741-14.054A88.982,88.982,0,0,1,743.592,234.4,11.135,11.135,0,0,0,732.443,225.686ZM772.4,312.212a117.438,117.438,0,0,0,36.237,15.1,11.65,11.65,0,0,0,14.054-11.383c0-5.226-3.485-10.1-8.6-11.15a92.574,92.574,0,0,1-29.384-12.2A11.592,11.592,0,0,0,772.4,312.212Zm178.049-98.141A116.305,116.305,0,0,1,860.665,327.2a11.651,11.651,0,0,1-5.459-22.649,92.844,92.844,0,0,0,0-180.953,11.478,11.478,0,0,1-8.711-11.266,11.629,11.629,0,0,1,14.17-11.382A116.305,116.305,0,0,1,950.445,214.071Z" transform="translate(0 0)" fill="#fff"></path><path id="Path_14231" data-name="Path 14231" d="M791.125,200.3a11.733,11.733,0,0,1-16.614,0l-24.982-24.982a11.734,11.734,0,0,1,0-16.614h0a11.734,11.734,0,0,1,16.615,0l16.616,16.614L824.472,133.6a11.733,11.733,0,0,1,16.614,0h0a11.734,11.734,0,0,1,0,16.614Z" transform="translate(40.247 47.062)" fill="#fff"></path></g></svg>