<svg xmlns="http://www.w3.org/2000/svg" width="63" height="63" viewBox="0 0 63 63" fill="none"><rect x="0.0722656" width="62.37" height="62.37" rx="31.185" fill="url(#paint0_linear_1814_15306)" fill-opacity="0.7"></rect><path d="M24.4377 33.8195C25.4423 33.8195 26.5578 31.5986 26.6996 28.531H22.1757C22.3176 31.5986 23.433 33.8195 24.4377 33.8195ZM18.5312 27.2185H20.8629C20.9408 25.2937 21.3602 23.6325 22.0056 22.456C20.1285 23.3019 18.7662 25.0911 18.5312 27.2185ZM30.3441 27.2185C30.1091 25.0911 28.7469 23.3019 26.8698 22.456C27.5151 23.6325 27.9345 25.2937 28.0125 27.2185H30.3441ZM24.4377 21.9301C23.433 21.9301 22.3175 24.1509 22.1757 27.2185H26.6996C26.5578 24.1509 25.4423 21.9301 24.4377 21.9301Z" fill="url(#paint1_linear_1814_15306)"></path><path d="M28.0277 38.8766V37.805C28.326 37.6961 28.6233 37.5718 28.9181 37.4321L29.6785 38.1928C30.4803 38.9951 31.8793 38.9951 32.681 38.1928L34.7555 36.1183C35.5794 35.3274 35.5792 33.9064 34.7555 33.1158C34.7555 33.1158 33.9951 32.3551 33.9951 32.3551C34.1345 32.0603 34.2588 31.7623 34.3678 31.4649H35.4393C36.6102 31.4649 37.5625 30.5126 37.5625 29.3417V26.4078C37.5625 25.237 36.6102 24.2846 35.4393 24.2846H34.3678C34.2588 23.9873 34.1345 23.6893 33.9951 23.3945L34.7555 22.6337C35.5791 21.8431 35.5796 20.4222 34.7555 19.6313C34.7555 19.6313 32.681 17.5568 32.681 17.5568C31.8793 16.7544 30.4803 16.7544 29.6785 17.5568L28.9178 18.3168C28.6233 18.1778 28.326 18.0534 28.0276 17.9445V16.873C28.0276 15.7021 27.0753 14.7498 25.9044 14.7498H22.9706C21.7997 14.7498 20.8474 15.7021 20.8474 16.873V17.9445C20.549 18.0535 20.2517 18.1778 19.9572 18.3168L19.1965 17.5568C18.3947 16.7544 16.9957 16.7544 16.194 17.5568L14.1195 19.6313C13.2956 20.4221 13.2958 21.8432 14.1195 22.6337C14.1195 22.6337 14.8799 23.3945 14.8799 23.3945C14.7405 23.6893 14.6162 23.9873 14.5072 24.2846H13.4357C12.2648 24.2846 11.3125 25.237 11.3125 26.4078V29.3417C11.3125 30.5126 12.2648 31.4649 13.4357 31.4649H14.5072C14.6162 31.7623 14.7405 32.0603 14.8799 32.3551L14.1195 33.1158C13.2959 33.9065 13.2955 35.3274 14.1195 36.1183C14.1195 36.1183 16.194 38.1928 16.194 38.1928C16.9957 38.9951 18.3947 38.9951 19.1965 38.1928L19.9569 37.4321C20.2517 37.5718 20.549 37.6961 20.8473 37.805V38.8766C20.8473 40.0474 21.7997 40.9998 22.9705 40.9998H25.9044C27.0753 40.9998 28.0277 40.0474 28.0277 38.8766ZM17.1803 27.8748C17.1803 23.8732 20.4359 20.6176 24.4375 20.6176C34.0652 21.0163 34.0624 34.7347 24.4375 35.132C20.4359 35.132 17.1803 31.8764 17.1803 27.8748Z" fill="white"></path><path d="M18.5312 28.531C18.7662 30.6585 20.1285 32.4476 22.0056 33.2936C21.3602 32.117 20.9408 30.4558 20.8629 28.531H18.5312ZM28.0125 28.531C27.9345 30.4558 27.5151 32.117 26.8698 33.2936C28.7469 32.4476 30.1092 30.6585 30.3441 28.531H28.0125ZM46.7502 23.9373H37.8186C38.1992 24.2982 38.4945 24.7444 38.6717 25.2498H46.7502C48.2005 25.2498 49.3752 26.4244 49.3752 27.8748V39.6873C49.3752 41.1376 48.2005 42.3123 46.7502 42.3123H37.917C37.6348 42.3123 37.3789 42.5026 37.2936 42.7782C36.5414 45.4044 33.9749 47.1649 31.2955 46.8863C32.2864 45.8888 32.8377 44.3794 32.6605 42.8898C32.6211 42.5616 32.3389 42.3123 32.0108 42.3123H28.3752C27.9617 42.3123 27.5746 42.2138 27.2267 42.0432C26.6949 42.2855 26.044 42.3337 25.4483 42.3123C26.1636 43.1194 27.2136 43.6248 28.3752 43.6248H31.3808C31.3152 44.9307 30.5474 46.1448 29.4449 46.591C29.1889 46.6894 29.0249 46.9388 29.0314 47.2079C29.038 47.4835 29.2086 47.7198 29.4645 47.8116C30.2192 48.0873 31.0133 48.2185 31.8073 48.2185C34.7046 48.2521 37.385 46.3801 38.3896 43.6248H46.7502C48.9224 43.6248 50.6877 41.8595 50.6877 39.6873V27.8748C50.6877 25.7026 48.9223 23.9373 46.7502 23.9373Z" fill="url(#paint2_linear_1814_15306)"></path><path d="M33.7034 39.031C33.4888 39.2554 33.2425 39.4579 32.9749 39.6085C32.92 39.9931 33.2378 40.3465 33.6246 40.3435H41.4996C42.3592 40.3278 42.3636 39.0477 41.4996 39.031C41.4996 39.031 33.7034 39.031 33.7034 39.031ZM45.4371 35.7498C45.4371 35.3888 45.1418 35.0935 44.7809 35.0935H36.6499C36.5909 35.5594 36.4334 36.0057 36.1906 36.406H44.7809C45.1418 36.406 45.4371 36.1107 45.4371 35.7498ZM36.8534 32.4685H44.7809C45.1418 32.4685 45.4371 32.1732 45.4371 31.8123C45.4371 31.4513 45.1418 31.156 44.7809 31.156H38.3562C37.9952 31.7269 37.4768 32.1929 36.8534 32.4685ZM42.1559 27.8748C42.1559 27.5138 41.8606 27.2185 41.4996 27.2185H38.8746V28.531H41.4996C41.8606 28.531 42.1559 28.2357 42.1559 27.8748Z" fill="url(#paint3_linear_1814_15306)"></path><defs><linearGradient id="paint0_linear_1814_15306" x1="-3.91856" y1="-2.94082" x2="42.2814" y2="54.8092" gradientUnits="userSpaceOnUse"><stop stop-color="#56B743"></stop><stop offset="1" stop-color="#083100"></stop></linearGradient><linearGradient id="paint1_linear_1814_15306" x1="16.5" y1="17.5" x2="43" y2="42" gradientUnits="userSpaceOnUse"><stop offset="0.494792" stop-color="#7CE06A"></stop><stop offset="1" stop-color="#0C2A08"></stop></linearGradient><linearGradient id="paint2_linear_1814_15306" x1="13.0019" y1="14.8898" x2="66.1263" y2="80.3549" gradientUnits="userSpaceOnUse"><stop offset="0.494792" stop-color="#7CE06A"></stop><stop offset="1" stop-color="#0C2A08"></stop></linearGradient><linearGradient id="paint3_linear_1814_15306" x1="30.8248" y1="22.3281" x2="59.9471" y2="48.0713" gradientUnits="userSpaceOnUse"><stop stop-color="#7CE06A"></stop><stop offset="1" stop-color="#0C2A08"></stop></linearGradient></defs></svg>