<svg xmlns="http://www.w3.org/2000/svg" width="63" height="63" viewBox="0 0 63 63" fill="none"><rect x="0.21875" width="62.37" height="62.37" rx="31.185" fill="url(#paint0_linear_1814_15267)" fill-opacity="0.7"></rect><g style="mix-blend-mode:luminosity"><path d="M31.746 51.0824C43.209 51.0824 52.5017 42.1459 52.5017 31.1223C52.5017 20.0986 43.209 11.1621 31.746 11.1621C20.2829 11.1621 10.9902 20.0986 10.9902 31.1223C10.9902 42.1459 20.2829 51.0824 31.746 51.0824Z" fill="#59A52C"></path><path d="M40.393 31.5643C40.5945 33.0597 40.1336 34.8766 38.8956 36.9171C35.7567 42.1997 27.8374 42.7723 22.5527 40.0333L23.8052 34.7226H25.8068C28.9891 38.412 32.6752 35.8669 33.1216 34.2612C33.4383 33.1169 32.7186 32.0111 31.4801 31.5643H30.1403C29.3512 31.3046 28.4958 31.3046 27.7067 31.5643H29.0315C28.2371 31.8395 27.508 32.2673 26.8878 32.822H25.0726L25.3604 31.5643H24.0206L26.5834 20.6221H41.4729L40.2778 25.7793H32.2288L31.8686 27.3028C36.1881 27.3028 38.7225 28.91 39.0676 31.5654H40.3924L40.393 31.5643Z" fill="white"></path></g><defs><linearGradient id="paint0_linear_1814_15267" x1="-3.77207" y1="-2.94082" x2="75.0005" y2="72.6328" gradientUnits="userSpaceOnUse"><stop stop-color="#56B743"></stop><stop offset="1" stop-color="#083100"></stop></linearGradient></defs></svg>