<svg xmlns="http://www.w3.org/2000/svg" width="63" height="63" viewBox="0 0 63 63" fill="none"><rect x="0.316406" width="62.37" height="62.37" rx="31.185" fill="url(#paint0_linear_1814_15286)" fill-opacity="0.7"></rect><path d="M14.0096 29.0302C14.4198 25.59 15.8268 22.3448 18.0574 19.694C18.3042 19.3963 18.6104 19.1535 18.9564 18.9809C19.3024 18.8084 19.6806 18.71 20.0668 18.692C20.453 18.6741 20.8388 18.7369 21.1993 18.8765C21.5599 19.0162 21.8873 19.2295 22.1607 19.5029L26.9655 24.4107C27.4283 24.8724 27.7118 25.4836 27.7656 26.1351C27.8194 26.7866 27.6398 27.436 27.259 27.9673C26.9706 28.3766 26.7533 28.8316 26.6165 29.3132C26.573 29.4554 26.4852 29.5798 26.3658 29.6682C26.2464 29.7567 26.1018 29.8045 25.9532 29.8047H14.7007C14.6027 29.8049 14.5057 29.7843 14.4162 29.7443C14.3267 29.7043 14.2466 29.6457 14.1814 29.5726C14.1161 29.4994 14.067 29.4133 14.0374 29.3198C14.0078 29.2263 13.9983 29.1276 14.0096 29.0302ZM33.5694 13.1433C33.1856 13.1098 32.7991 13.1566 32.4344 13.2805C32.0696 13.4044 31.7346 13.6028 31.4506 13.8631C31.1667 14.1234 30.9399 14.44 30.7848 14.7926C30.6297 15.1452 30.5496 15.5263 30.5496 15.9115V22.9745C30.5448 23.6299 30.7739 24.2655 31.1956 24.7671C31.6173 25.2688 32.2041 25.6036 32.8505 25.7114C34.0677 25.9123 35.1834 26.5124 36.0219 27.4174C36.8604 28.3224 37.3739 29.4806 37.4815 30.7097C37.5892 31.9387 37.2848 33.1686 36.6164 34.2056C35.9481 35.2425 34.9536 36.0276 33.7899 36.437C33.6545 36.4867 33.5376 36.5769 33.455 36.6952C33.3724 36.8135 33.328 36.9543 33.328 37.0986V48.4268C33.3274 48.5251 33.3476 48.6225 33.3874 48.7125C33.4272 48.8024 33.4856 48.8829 33.5588 48.9485C33.632 49.0142 33.7184 49.0636 33.8121 49.0934C33.9058 49.1232 34.0048 49.1328 34.1025 49.1215C38.4365 48.5863 42.4315 46.5038 45.3522 43.257C48.2729 40.0102 49.9228 35.8177 49.9983 31.4511C50.1285 22.0228 42.9117 13.9804 33.5694 13.1433ZM30.0721 36.4318C29.2956 36.1548 28.5904 35.7084 28.0078 35.1251C27.4251 34.5418 26.9795 33.8361 26.7033 33.0592C26.656 32.9214 26.5671 32.8017 26.4489 32.7165C26.3308 32.6313 26.1891 32.5848 26.0435 32.5834H14.699C14.6008 32.5827 14.5036 32.6029 14.4138 32.6426C14.324 32.6823 14.2437 32.7406 14.178 32.8136C14.1124 32.8866 14.063 32.9728 14.033 33.0663C14.0031 33.1598 13.9934 33.2586 14.0044 33.3562C14.4908 37.3703 16.3088 41.1055 19.1677 43.9646C22.0266 46.8238 25.7614 48.6419 29.7752 49.1284C29.8727 49.1394 29.9715 49.1297 30.065 49.0998C30.1585 49.0698 30.2446 49.0204 30.3177 48.9548C30.3907 48.8891 30.449 48.8088 30.4886 48.7189C30.5283 48.6291 30.5485 48.5319 30.5479 48.4337V37.0986C30.5482 36.9517 30.5024 36.8084 30.4171 36.6888C30.3318 36.5692 30.2111 36.4793 30.0721 36.4318Z" fill="white"></path><defs><linearGradient id="paint0_linear_1814_15286" x1="-3.67441" y1="-2.94082" x2="42.5256" y2="54.8092" gradientUnits="userSpaceOnUse"><stop stop-color="#56B743"></stop><stop offset="1" stop-color="#083100"></stop></linearGradient></defs></svg>