<svg xmlns="http://www.w3.org/2000/svg" width="63" height="63" viewBox="0 0 63 63" fill="none"><rect x="0.582031" width="62.37" height="62.37" rx="31.185" fill="url(#paint0_linear_1814_15318)" fill-opacity="0.7"></rect><path d="M22.9346 36.5128V31.6445" stroke="white" stroke-width="2" stroke-linecap="round" stroke-linejoin="round"></path><path d="M18.0664 41.3797V36.5114" stroke="white" stroke-width="2" stroke-linecap="round" stroke-linejoin="round"></path><path d="M27.8037 41.3797V36.5114" stroke="white" stroke-width="2" stroke-linecap="round" stroke-linejoin="round"></path><path d="M22.9346 46.2489V41.3806" stroke="white" stroke-width="2" stroke-linecap="round" stroke-linejoin="round"></path><path d="M13.1973 36.5114H32.6712" stroke="white" stroke-width="2" stroke-linecap="round" stroke-linejoin="round"></path><path d="M13.1973 41.3806H32.6712" stroke="white" stroke-width="2" stroke-linecap="round" stroke-linejoin="round"></path><path d="M32.6712 31.6445H13.1973V46.2494H32.6712V31.6445Z" stroke="white" stroke-width="2" stroke-linecap="round" stroke-linejoin="round"></path><path d="M17.9102 15.0153L14.4461 21.0153L21.3743 21.0153L17.9102 15.0153ZM18.5102 29.5859L18.5102 20.4153L17.3102 20.4153L17.3102 29.5859L18.5102 29.5859Z" fill="url(#paint1_linear_1814_15318)"></path><path d="M53 44.1812L46.9764 40.7584L47.024 47.6865L53 44.1812ZM34.9065 44.9056L47.6043 44.8183L47.596 43.6184L34.8982 43.7056L34.9065 44.9056Z" fill="url(#paint2_linear_1814_15318)"></path><path d="M45.1087 18.9009L38.433 20.7543L43.3758 25.6089L45.1087 18.9009ZM34.223 30.8407L41.7529 23.174L40.8968 22.3331L33.3669 29.9999L34.223 30.8407Z" fill="url(#paint3_linear_1814_15318)"></path><path d="M22.3893 16.9583L21.418 15.0156H49.9655L49.9656 40.2712L47.5372 38.8141L47.5371 16.9583H22.3893Z" fill="white" stroke="white" stroke-width="0.2"></path><defs><linearGradient id="paint0_linear_1814_15318" x1="-3.40879" y1="-2.94082" x2="47.9973" y2="62.37" gradientUnits="userSpaceOnUse"><stop stop-color="#56B743"></stop><stop offset="1" stop-color="#083100"></stop></linearGradient><linearGradient id="paint1_linear_1814_15318" x1="4.34711" y1="27.1617" x2="67.1488" y2="4.40363" gradientUnits="userSpaceOnUse"><stop offset="0.453125" stop-color="#7CE06A"></stop><stop offset="1" stop-color="#12330C"></stop></linearGradient><linearGradient id="paint2_linear_1814_15318" x1="37.8201" y1="30.7222" x2="57.3719" y2="96.0651" gradientUnits="userSpaceOnUse"><stop offset="0.453125" stop-color="#7CE06A"></stop><stop offset="1" stop-color="#12330C"></stop></linearGradient><linearGradient id="paint3_linear_1814_15318" x1="26.0007" y1="19" x2="86.5007" y2="49" gradientUnits="userSpaceOnUse"><stop offset="0.453125" stop-color="#7CE06A"></stop><stop offset="1" stop-color="#12330C"></stop></linearGradient></defs></svg>