<svg xmlns="http://www.w3.org/2000/svg" width="63" height="63" viewBox="0 0 63 63" fill="none"><rect x="0.12207" width="62.37" height="62.37" rx="31.185" fill="url(#paint0_linear_1814_15341)" fill-opacity="0.7"></rect><path d="M45.8488 14.8563H16.7658C15.6088 14.8563 14.4992 15.3159 13.6811 16.134C12.8629 16.9521 12.4033 18.0617 12.4033 19.2187V39.5769C12.4033 40.7339 12.8629 41.8435 13.6811 42.6616C14.4992 43.4798 15.6088 43.9394 16.7658 43.9394H29.8531V46.8477H25.4907C25.105 46.8477 24.7352 47.0009 24.4625 47.2736C24.1897 47.5463 24.0365 47.9162 24.0365 48.3018C24.0365 48.6875 24.1897 49.0574 24.4625 49.3301C24.7352 49.6028 25.105 49.756 25.4907 49.756H37.1239C37.5096 49.756 37.8794 49.6028 38.1522 49.3301C38.4249 49.0574 38.5781 48.6875 38.5781 48.3018C38.5781 47.9162 38.4249 47.5463 38.1522 47.2736C37.8794 47.0009 37.5096 46.8477 37.1239 46.8477H32.7615V43.9394H45.8488C47.0058 43.9394 48.1154 43.4798 48.9335 42.6616C49.7517 41.8435 50.2113 40.7339 50.2113 39.5769V19.2187C50.2113 18.0617 49.7517 16.9521 48.9335 16.134C48.1154 15.3159 47.0058 14.8563 45.8488 14.8563ZM45.8488 41.0311H16.7658C16.3801 41.0311 16.0102 40.8779 15.7375 40.6052C15.4648 40.3325 15.3116 39.9626 15.3116 39.5769V41.5546L47.303 41.0311V39.5769C47.303 39.9626 47.1498 40.3325 46.8771 40.6052C46.6044 40.8779 46.2345 41.0311 45.8488 41.0311Z" fill="#E8E8E8"></path><g clip-path="url(#clip0_1814_15341)"><path d="M22.5102 19.6945L31.3073 17.7395L40.1044 19.6945C40.3422 19.7473 40.5548 19.8796 40.7072 20.0696C40.8596 20.2596 40.9427 20.4958 40.9427 20.7394V31.4315C40.9426 32.489 40.6815 33.5301 40.1825 34.4624C39.6834 35.3948 38.9619 36.1895 38.082 36.776L31.3073 41.2929L24.5325 36.776C23.6528 36.1896 22.9314 35.395 22.4324 34.4629C21.9334 33.5308 21.6721 32.4899 21.6719 31.4326V20.7394C21.6719 20.4958 21.755 20.2596 21.9074 20.0696C22.0598 19.8796 22.2724 19.7473 22.5102 19.6945V19.6945Z" fill="url(#paint1_linear_1814_15341)"></path><path d="M35.1226 27.523V29.6088C35.1226 30.4295 35.0259 31.143 34.8324 31.7494C34.6443 32.3558 34.3724 32.8577 34.0169 33.255C33.6667 33.6523 33.2485 33.9476 32.7623 34.1411C32.2762 34.3345 31.7403 34.4312 31.1549 34.4312C30.6844 34.4312 30.2453 34.3711 29.8375 34.2508C29.4298 34.1254 29.0612 33.9372 28.7319 33.6863C28.4078 33.4301 28.1281 33.1112 27.8929 32.7296C27.6576 32.348 27.4773 31.8984 27.3518 31.3809C27.2263 30.8581 27.1636 30.2674 27.1636 29.6088V27.523C27.1636 26.697 27.2577 25.9834 27.4459 25.3823C27.6393 24.7759 27.9138 24.274 28.2692 23.8767C28.6247 23.4794 29.0455 23.1841 29.5317 22.9907C30.0179 22.7972 30.5537 22.7005 31.1392 22.7005C31.6097 22.7005 32.0462 22.7633 32.4487 22.8887C32.8564 23.009 33.225 23.1971 33.5543 23.4533C33.8836 23.7042 34.1633 24.0205 34.3933 24.4021C34.6286 24.7837 34.8089 25.2359 34.9344 25.7587C35.0598 26.2762 35.1226 26.8643 35.1226 27.523ZM32.48 29.9302V27.1858C32.48 26.8198 32.4591 26.501 32.4173 26.2291C32.3807 25.9573 32.3232 25.7273 32.2448 25.5391C32.1716 25.3509 32.0801 25.1993 31.9704 25.0843C31.8606 24.9641 31.7351 24.8778 31.594 24.8255C31.4581 24.768 31.3065 24.7393 31.1392 24.7393C30.9301 24.7393 30.7419 24.7837 30.5746 24.8726C30.4125 24.9562 30.274 25.0921 30.159 25.2803C30.044 25.4685 29.9551 25.7194 29.8924 26.0331C29.8349 26.3468 29.8061 26.731 29.8061 27.1858V29.9302C29.8061 30.3014 29.8244 30.6255 29.861 30.9026C29.9029 31.1744 29.9604 31.407 30.0335 31.6005C30.112 31.7886 30.2061 31.9429 30.3158 32.0631C30.4256 32.1781 30.5511 32.2617 30.6922 32.314C30.8334 32.3663 30.9876 32.3924 31.1549 32.3924C31.3587 32.3924 31.5417 32.3506 31.7038 32.267C31.8658 32.1833 32.0043 32.0474 32.1193 31.8592C32.2396 31.6658 32.3284 31.4123 32.3859 31.0986C32.4487 30.7797 32.48 30.3903 32.48 29.9302Z" fill="white"></path></g><defs><linearGradient id="paint0_linear_1814_15341" x1="-3.86875" y1="-2.94082" x2="58.5629" y2="71.4296" gradientUnits="userSpaceOnUse"><stop stop-color="#56B743"></stop><stop offset="1" stop-color="#083100"></stop></linearGradient><linearGradient id="paint1_linear_1814_15341" x1="12.3346" y1="15.3714" x2="46.4181" y2="42.5033" gradientUnits="userSpaceOnUse"><stop stop-color="#51AF40"></stop><stop offset="1" stop-color="#0C2A08"></stop></linearGradient><clipPath id="clip0_1814_15341"><rect x="18.46" y="16.6689" width="25.6944" height="25.6946" fill="white"></rect></clipPath></defs></svg>