<svg xmlns="http://www.w3.org/2000/svg" width="1440" height="794" viewBox="0 0 1440 794" fill="none"><path d="M566.198 306.092C538.721 300.747 509.054 297.327 473.566 295.395C379.105 290.24 305.106 311.751 233.54 332.539C206.125 340.504 177.776 348.745 149.145 355.144C99.4079 366.346 50.5284 370.795 -5.90302 359.817C-50.1246 351.215 -98.9818 333.146 -156.551 301.423L-156.628 301.542C-124.039 319.496 -94.0386 333.266 -64.9381 343.62C-37.6985 353.317 -12.0168 359.737 13.5794 363.244C36.845 366.441 59.7017 367.159 83.4437 365.449C103.78 363.985 125.293 360.656 149.195 355.278C177.837 348.881 206.186 340.64 233.601 332.675C305.156 311.885 379.141 290.391 473.57 295.539C530.556 298.642 604.948 306.843 675.134 343.037C720.155 366.248 762.512 397.45 801.05 435.775C846.378 480.871 894.788 519.453 944.943 550.46C991.538 579.265 1039.45 601.452 1087.34 616.389C1106.94 622.506 1126.31 627.429 1145.52 631.167C1192.39 640.285 1238.39 642.358 1284.85 637.545C1351.53 630.633 1420.3 609.433 1495.08 572.723L1495 572.592C1369.23 634.316 1259.14 653.125 1145.69 631.056C1126.38 627.299 1106.97 622.358 1087.38 616.253C987.584 585.12 888.607 522.677 801.155 435.681C781.279 415.898 760.253 397.89 738.666 382.152C718.383 367.366 697.043 354.162 675.214 342.909C644.327 326.987 610.977 315.405 573.237 307.509C570.907 307.027 568.565 306.552 566.198 306.092Z" stroke="url(#paint0_linear_2520_17273)" stroke-miterlimit="10"></path><path d="M533.185 293.726C519.216 291.009 504.398 288.633 488.365 286.527C441.282 280.342 396.042 280.833 345.966 288.079C301.773 294.471 260.803 305.075 217.418 316.309C198.307 321.252 178.542 326.374 158.648 331.041C59.553 354.571 -23.2062 354.35 -152.934 283.555L-153.101 283.799C-119.842 301.941 -89.4424 315.617 -60.1375 325.591C-32.7493 334.914 -6.89043 340.814 18.9276 343.628C42.1702 346.161 65.3955 346.158 89.9398 343.619C110.434 341.507 132.3 337.597 158.736 331.316C178.63 326.649 198.395 321.527 217.506 316.584C303.634 294.288 384.989 273.234 488.32 286.815C543.677 294.094 615.58 307.947 680.747 350.832C722.136 378.078 762.43 411.784 800.518 451.026C846.227 498.127 896.327 536.455 949.438 564.95C973.932 578.088 999.021 589.068 1024 597.57C1047.96 605.719 1071.96 611.669 1095.36 615.217C1164.68 625.758 1227.05 626.486 1291.63 617.521C1357.07 608.435 1425.38 589.345 1506.6 557.454L1506.46 557.187C1347.61 619.567 1232.35 635.756 1095.4 614.937C1090.1 614.136 1084.79 613.217 1079.48 612.185C982.165 593.255 883.779 536.433 800.745 450.86C762.641 411.596 722.329 377.867 680.92 350.617C652.682 332.028 621.482 317.661 585.528 306.671C569.067 301.624 551.888 297.364 533.185 293.726Z" stroke="url(#paint1_linear_2520_17273)" stroke-miterlimit="10"></path><path d="M479.005 272.175C381.054 253.121 294.943 274.933 204.172 297.912C192.421 300.884 180.271 303.96 168.162 306.929C74.5329 330.184 -8.30193 341.917 -149.307 265.687L-149.541 266.053C-84.4025 301.265 -29.1567 319.679 24.3199 324.001C72.5002 327.896 116.726 320.162 168.321 307.342C180.429 304.373 192.58 301.298 204.33 298.326C295.036 275.352 381.109 253.562 478.935 272.592C486.904 274.142 494.94 275.963 503.072 278.071C568.928 295.183 632.498 314.212 686.375 358.6C723.926 389.536 761.101 424.757 800.017 466.273C844.659 513.892 896.662 550.928 954.569 576.33C1001.8 597.056 1051.89 609.744 1103.43 614.025C1167.74 619.375 1227.71 615.612 1297.89 601.829C1363.74 588.896 1433.64 568.058 1518.17 542.164L1517.99 541.747C1348.77 593.591 1238.2 624.794 1103.46 613.591C1021.97 606.81 903.253 575.707 800.396 466.002C761.46 424.473 724.267 389.239 686.707 358.292C661.914 337.859 632.775 321.111 597.633 307.067C565.465 294.213 532.017 285.145 503.185 277.653C495.041 275.553 486.984 273.728 479.005 272.175Z" stroke="url(#paint2_linear_2520_17273)" stroke-miterlimit="10"></path><path d="M475.961 258.522C434.713 250.498 392.281 248.228 347.332 251.577C289.072 255.921 231.365 269.158 177.669 282.831C69.3136 310.783 -6.51724 322.378 -145.686 247.824L-145.999 248.318C-79.9494 283.707 -24.1208 301.526 29.6949 304.386C80.8733 307.114 127.086 296.488 177.876 283.387C287.528 255.477 396.048 233.388 517.813 269.359C592.613 291.442 649.581 323.182 691.973 366.387C726.483 401.558 759.916 437.859 799.498 481.54C844.361 531.038 898.187 567.252 959.476 589.183C1019.91 610.805 1075.5 613.999 1111.51 612.868C1207.4 609.861 1285.78 589.25 1385.02 563.157C1427.33 552.029 1475.28 539.419 1529.69 526.907L1529.49 526.343C1475.08 538.854 1427.11 551.462 1384.8 562.589C1285.61 588.672 1207.26 609.278 1111.45 612.283C1041.5 614.487 908.004 600.363 799.992 481.177C760.4 437.494 726.957 401.192 692.448 366.011C649.966 322.712 592.901 290.915 517.989 268.791C504.091 264.701 490.097 261.272 475.961 258.522Z" stroke="url(#paint3_linear_2520_17273)" stroke-width="1.5" stroke-miterlimit="10"></path><path d="M460.134 239.067C428.856 232.982 396.671 230.326 363.015 230.986C311.029 232.02 255.172 240.828 187.202 258.721C80.8893 287.061 4.08068 307.537 -142.04 229.949L-142.431 230.561C-74.5497 266.594 -19.8006 283.314 35.105 284.76C87.2649 286.131 135.934 273.154 187.479 259.416C329.49 222.037 432.686 222.4 532.574 260.605C603.723 287.829 659.248 326.037 697.601 374.134C727.245 411.304 761.966 454.498 799.019 496.77C844.219 548.331 899.872 583.706 964.419 601.902C1027.09 619.571 1083.42 616.963 1119.65 611.669C1185.93 601.985 1242.27 585.614 1301.92 568.28C1367.3 549.281 1441.39 527.75 1541.24 511.613L1541.05 510.907C1441.16 527.054 1367.02 548.586 1301.63 567.593C1242.01 584.912 1185.7 601.28 1119.47 610.956C1061 619.495 912.816 625.436 799.657 496.339C762.613 454.079 727.901 410.896 698.267 373.729C659.807 325.505 604.168 287.217 532.867 259.936C508.993 250.818 484.837 243.872 460.134 239.067Z" stroke="url(#paint4_linear_2520_17273)" stroke-width="2" stroke-miterlimit="10"></path><path d="M447.933 218.161C372.758 203.537 290.785 209.109 196.706 234.619L188.428 236.89C77.7772 267.311 4.67212 287.409 -138.422 212.082L-138.892 212.822C4.57493 288.355 77.8409 268.213 188.754 237.728L197.032 235.457C334.033 198.298 445.327 203.515 547.262 251.87C615.895 284.426 668.353 328.174 703.168 381.893C736.497 433.305 766.783 474.662 798.474 512.038C844.07 565.808 901.524 600.3 969.237 614.571C970.886 614.921 972.539 615.252 974.183 615.572C1040.95 628.56 1098.8 618.065 1127.72 610.5C1176.02 597.879 1218.32 582.62 1259.21 567.862C1338.61 539.219 1420.7 509.608 1552.71 496.362L1552.55 495.5C1420.42 508.76 1338.26 538.396 1258.81 567.056C1217.92 581.807 1175.65 597.052 1127.4 609.662C1080.36 621.954 917.694 651.204 799.234 511.536C767.559 474.192 737.299 432.869 703.996 381.49C669.081 327.618 616.482 283.756 547.671 251.108C515.535 235.852 482.446 224.884 447.933 218.161Z" stroke="url(#paint5_linear_2520_17273)" stroke-width="2" stroke-miterlimit="10"></path><path d="M438.804 196.28C424.164 193.432 409.296 191.372 394.219 190.102C335.761 185.183 272.5 192.053 206.211 210.523C199.082 212.53 192.122 214.512 185.332 216.451C77.2228 247.271 5.80576 267.63 -134.792 194.222L-135.329 195.083C-69.0118 229.712 -15.901 245.301 36.8561 245.613C85.7474 245.908 129.873 233.327 185.733 217.408C192.533 215.471 199.483 213.487 206.611 211.48C340.352 174.213 459.913 184.862 561.978 243.107C627.311 280.393 678.068 331.047 708.776 389.616C737.074 443.597 766.255 488.62 797.98 527.274C844.007 583.355 903.216 616.927 974.011 627.142C1026.68 634.72 1085.68 628.215 1135.87 609.292C1173.55 595.085 1206.54 580.098 1238.44 565.599C1326.2 525.724 1409.08 488.065 1564.24 481.081L1564.13 480.075C1408.74 487.062 1325.75 524.777 1237.89 564.698C1206.01 579.183 1173.04 594.162 1135.39 608.366C1040.46 644.169 895.377 644.262 798.894 526.706C767.222 488.12 738.073 443.151 709.807 389.234C679.003 330.483 628.083 279.664 562.564 242.274C523.776 220.151 482.303 204.742 438.804 196.28Z" stroke="url(#paint6_linear_2520_17273)" stroke-width="2" stroke-miterlimit="10"></path><path d="M433.142 173.587C425.404 172.081 417.6 170.802 409.73 169.749C348.42 161.561 283.143 167.169 215.723 186.422C204.384 189.684 193.553 192.902 183.07 196.006C73.5252 228.506 7.41365 248.128 -131.164 176.347L-131.803 177.341C-66.3538 211.237 -14.1682 226.331 37.4325 226.274C85.3577 226.229 128.677 213.376 183.509 197.104C193.993 193.991 204.824 190.773 216.151 187.518C349.689 149.39 474.334 165.588 576.646 234.348C639.781 276.789 687.395 333.151 714.336 397.344C738.609 455.197 765.791 502.68 797.427 542.512C843.223 600.173 905.881 633.784 978.62 639.704C1057.12 646.094 1120.42 619.729 1143.98 608.091C1175.41 592.571 1202.97 577.112 1229.62 562.165C1326.48 507.829 1402.98 464.915 1575.69 465.818L1575.64 464.66C1496.27 464.249 1431.88 473.117 1373 492.587C1319.82 510.166 1275.65 534.945 1228.88 561.179C1202.24 576.119 1174.69 591.571 1143.3 607.078C1065.12 645.68 904.506 675.378 798.471 541.893C766.904 502.151 739.782 454.756 715.543 397.006C688.516 332.585 640.733 276.028 577.386 233.45C533.169 203.703 484.736 183.623 433.142 173.587Z" stroke="url(#paint7_linear_2520_17273)" stroke-width="2" stroke-miterlimit="10"></path><path d="M430.025 150.344C428.413 150.03 426.798 149.726 425.172 149.428C361.399 137.864 294.132 142.196 225.23 162.308C209.819 166.833 195.434 171.281 181.524 175.582C74.1782 208.788 9.38524 228.839 -127.556 158.475L-128.241 159.594C9.30317 230.266 74.3375 210.147 182.065 176.825C195.965 172.522 210.35 168.074 225.748 163.556C359.924 124.385 489.758 146.42 591.352 225.575C652.439 273.182 696.9 335.248 719.943 405.069C740.387 467.014 765.567 516.966 796.93 557.758C834.605 606.775 883.257 637.127 941.279 647.974C1022.38 663.109 1103.38 636.661 1152.15 606.868C1179.86 589.938 1204.17 573.521 1227.67 557.645C1327.91 489.935 1400.34 441.009 1587.2 450.543L1587.21 449.246C1500.96 444.847 1433.09 452.838 1373.63 474.395C1319.24 494.118 1276.37 523.07 1226.74 556.604C1203.24 572.471 1178.96 588.883 1151.27 605.799C1102.74 635.448 1022.15 661.755 941.504 646.708C940.886 646.588 940.266 646.477 939.648 646.356C882.767 635.291 835.161 605.258 798.118 557.071C766.852 516.394 741.733 466.578 721.338 404.767C698.213 334.701 653.589 272.411 592.276 224.627C543.81 186.836 489.242 161.863 430.025 150.344Z" stroke="url(#paint8_linear_2520_17273)" stroke-width="2" stroke-miterlimit="10"></path><path d="M428.985 126.685C366.511 114.533 301.238 118.392 234.731 138.205C215.324 143.999 197.663 149.702 180.582 155.213C75.2542 189.221 11.6748 209.738 -123.929 140.6L-124.681 141.84C11.5937 211.328 75.4408 190.72 181.21 156.568C198.28 151.055 215.929 145.359 235.323 139.573C372.745 98.6339 504.4 126.051 606.047 216.784C664.359 268.821 706.799 338.429 725.55 412.768C742.227 478.885 765.409 531.287 796.421 572.986C833.524 622.876 881.997 652.81 940.413 662.023C1026.96 675.627 1112.95 640.15 1160.29 605.636C1185.81 587.036 1208.13 569.277 1229.73 552.104C1328.49 473.541 1399.84 416.776 1598.69 435.25L1598.78 433.815C1399.23 415.272 1327.66 472.205 1228.61 551.006C1207.03 568.174 1184.71 585.924 1159.22 604.51C1112.13 638.834 1026.62 674.128 940.612 660.609C882.625 651.48 834.588 621.764 797.751 572.241C766.86 530.699 743.754 478.465 727.118 412.529C708.3 337.918 665.694 268.048 607.161 215.805C558.509 172.377 502.442 143.212 440.518 129.13C436.69 128.251 432.838 127.435 428.985 126.685Z" stroke="url(#paint9_linear_2520_17273)" stroke-width="3" stroke-miterlimit="10"></path><path d="M430.201 102.743C370.544 91.1379 307.691 94.8468 244.237 114.107C220.918 121.185 200.206 128.159 180.19 134.905C76.6933 169.777 14.2294 190.816 -120.307 122.727L-121.14 124.104C14.1474 192.578 76.9036 171.433 180.888 136.398C200.892 129.659 221.594 122.683 244.89 115.61C346.171 84.867 445.931 93.949 533.381 141.847C635.355 197.713 709.275 301.864 731.13 420.475C744.267 491.772 766.913 549.385 798.454 591.722C826.176 628.938 860.81 654.536 901.407 667.805C945.649 682.281 997.014 681.815 1049.9 666.474C1093.67 653.785 1136.87 631.159 1168.43 604.404C1192.68 583.848 1213.8 564.42 1234.22 545.623C1334.48 453.385 1400.72 392.452 1610.17 419.966L1610.34 418.394C1400 390.765 1333.53 451.919 1232.91 544.488C1212.5 563.269 1191.39 582.678 1167.17 603.223C1105.74 655.302 996.542 697.257 901.943 666.332C815.826 638.176 757.366 553.101 732.891 420.301C710.953 301.225 636.694 196.635 534.259 140.517C501.144 122.365 466.255 109.756 430.201 102.743Z" stroke="url(#paint10_linear_2520_17273)" stroke-width="3" stroke-miterlimit="10"></path><defs><linearGradient id="paint0_linear_2520_17273" x1="650.223" y1="534.818" x2="690.03" y2="330.181" gradientUnits="userSpaceOnUse"><stop stop-color="#4FA83D" stop-opacity="0"></stop><stop offset="1" stop-color="#4FA83D" stop-opacity="0.4"></stop></linearGradient><linearGradient id="paint1_linear_2520_17273" x1="655.478" y1="529.98" x2="695.301" y2="325.262" gradientUnits="userSpaceOnUse"><stop stop-color="#4FA83D" stop-opacity="0"></stop><stop offset="1" stop-color="#4FA83D" stop-opacity="0.4"></stop></linearGradient><linearGradient id="paint2_linear_2520_17273" x1="659.716" y1="530.563" x2="701.558" y2="315.468" gradientUnits="userSpaceOnUse"><stop stop-color="#4FA83D" stop-opacity="0"></stop><stop offset="1" stop-color="#4FA83D" stop-opacity="0.4"></stop></linearGradient><linearGradient id="paint3_linear_2520_17273" x1="662.946" y1="536.166" x2="708.168" y2="303.692" gradientUnits="userSpaceOnUse"><stop stop-color="#4FA83D" stop-opacity="0"></stop><stop offset="1" stop-color="#4FA83D" stop-opacity="0.4"></stop></linearGradient><linearGradient id="paint4_linear_2520_17273" x1="665.571" y1="545.018" x2="715.427" y2="288.728" gradientUnits="userSpaceOnUse"><stop stop-color="#4FA83D" stop-opacity="0"></stop><stop offset="1" stop-color="#4FA83D" stop-opacity="0.4"></stop></linearGradient><linearGradient id="paint5_linear_2520_17273" x1="667.737" y1="555.96" x2="723.038" y2="271.676" gradientUnits="userSpaceOnUse"><stop stop-color="#4FA83D" stop-opacity="0"></stop><stop offset="1" stop-color="#4FA83D" stop-opacity="0.4"></stop></linearGradient><linearGradient id="paint6_linear_2520_17273" x1="669.668" y1="568.31" x2="730.982" y2="253.117" gradientUnits="userSpaceOnUse"><stop stop-color="#4FA83D" stop-opacity="0"></stop><stop offset="1" stop-color="#4FA83D" stop-opacity="0.4"></stop></linearGradient><linearGradient id="paint7_linear_2520_17273" x1="671.354" y1="581.652" x2="739.154" y2="233.114" gradientUnits="userSpaceOnUse"><stop stop-color="#4FA83D" stop-opacity="0"></stop><stop offset="1" stop-color="#4FA83D" stop-opacity="0.4"></stop></linearGradient><linearGradient id="paint8_linear_2520_17273" x1="672.927" y1="595.779" x2="747.561" y2="212.113" gradientUnits="userSpaceOnUse"><stop stop-color="#4FA83D" stop-opacity="0"></stop><stop offset="1" stop-color="#4FA83D" stop-opacity="0.4"></stop></linearGradient><linearGradient id="paint9_linear_2520_17273" x1="674.39" y1="610.428" x2="756.112" y2="190.32" gradientUnits="userSpaceOnUse"><stop stop-color="#4FA83D" stop-opacity="0"></stop><stop offset="1" stop-color="#4FA83D" stop-opacity="0.4"></stop></linearGradient><linearGradient id="paint10_linear_2520_17273" x1="675.755" y1="625.499" x2="764.784" y2="167.828" gradientUnits="userSpaceOnUse"><stop stop-color="#4FA83D" stop-opacity="0"></stop><stop offset="1" stop-color="#4FA83D" stop-opacity="0.4"></stop></linearGradient></defs></svg>