<svg xmlns="http://www.w3.org/2000/svg" width="398" height="289" viewBox="0 0 398 289" fill="none"><rect x="397.5" y="288.5" width="397" height="288" rx="14.5" transform="rotate(180 397.5 288.5)" stroke="#59A52C" stroke-opacity="0.19"></rect><line x1="398" y1="245.786" x2="1.06409" y2="245.786" stroke="#59A52C" stroke-opacity="0.14"></line><line x1="398" y1="203.286" x2="1.06409" y2="203.286" stroke="#59A52C" stroke-opacity="0.14"></line><line x1="398" y1="160.786" x2="1.06409" y2="160.786" stroke="#59A52C" stroke-opacity="0.14"></line><line x1="398" y1="118.286" x2="1.06409" y2="118.286" stroke="#59A52C" stroke-opacity="0.14"></line><line x1="398" y1="75.7855" x2="1.06409" y2="75.7856" stroke="#59A52C" stroke-opacity="0.14"></line><line x1="398" y1="33.2858" x2="1.06409" y2="33.2858" stroke="#59A52C" stroke-opacity="0.14"></line><line x1="179.344" y1="289" x2="179.344" y2="0.000152611" stroke="#59A52C" stroke-opacity="0.14"></line><line x1="216.59" y1="289" x2="216.59" y2="0.000152611" stroke="#59A52C" stroke-opacity="0.14"></line><line x1="253.836" y1="289" x2="253.836" y2="0.000152611" stroke="#59A52C" stroke-opacity="0.14"></line><line x1="291.082" y1="289" x2="291.082" y2="0.000152611" stroke="#59A52C" stroke-opacity="0.14"></line><line x1="328.328" y1="289" x2="328.328" y2="0.000152611" stroke="#59A52C" stroke-opacity="0.14"></line><line x1="365.574" y1="289" x2="365.574" y2="0.00015261" stroke="#59A52C" stroke-opacity="0.14"></line><line x1="67.6055" y1="289" x2="67.6055" y2="0.000152611" stroke="#59A52C" stroke-opacity="0.14"></line><line x1="30.3613" y1="289" x2="30.3613" y2="0.000152611" stroke="#59A52C" stroke-opacity="0.14"></line><line x1="104.852" y1="289" x2="104.852" y2="0.000152611" stroke="#59A52C" stroke-opacity="0.14"></line><line x1="142.098" y1="289" x2="142.098" y2="0.000152611" stroke="#59A52C" stroke-opacity="0.14"></line></svg>