<svg width="31" height="32" viewBox="0 0 31 32" fill="none" xmlns="http://www.w3.org/2000/svg">
<g clip-path="url(#clip0_255_8576)">
<path d="M5.87983 31.3906C5.66929 31.3909 5.46076 31.3496 5.26623 31.2691C5.07169 31.1886 4.89498 31.0704 4.74623 30.9214L0.47326 26.6485C0.249125 26.4242 0.0965035 26.1385 0.0346831 25.8275C-0.0271372 25.5165 0.0046193 25.1942 0.125938 24.9013C0.247257 24.6083 0.452693 24.3579 0.716283 24.1817C0.979873 24.0055 1.28979 23.9114 1.60685 23.9112H22.9826C24.2584 23.9112 25.482 23.4044 26.3841 22.5023C27.2862 21.6002 27.7931 20.3766 27.7931 19.1008C27.7931 17.825 27.2862 16.6014 26.3841 15.6993C25.482 14.7972 24.2584 14.2903 22.9826 14.2903H8.01715C7.80353 14.2952 7.59109 14.2574 7.39231 14.179C7.19353 14.1006 7.01241 13.9833 6.8596 13.834C6.70679 13.6846 6.58537 13.5062 6.50248 13.3093C6.41958 13.1123 6.37688 12.9008 6.37688 12.6871C6.37688 12.4735 6.41958 12.262 6.50248 12.065C6.58537 11.8681 6.70679 11.6897 6.8596 11.5403C7.01241 11.391 7.19353 11.2737 7.39231 11.1953C7.59109 11.1169 7.80353 11.0791 8.01715 11.0839H22.9826C25.1089 11.0839 27.1481 11.9286 28.6517 13.4322C30.1552 14.9357 30.9999 16.9749 30.9999 19.1012C30.9999 21.2275 30.1552 23.2668 28.6517 24.7703C27.1481 26.2738 25.1089 27.1185 22.9826 27.1185H5.4718L7.01007 28.6568C7.23421 28.881 7.38683 29.1667 7.44865 29.4777C7.51047 29.7887 7.47871 30.111 7.35739 30.4039C7.23607 30.6969 7.03064 30.9473 6.76705 31.1235C6.50346 31.2997 6.19354 31.3938 5.87648 31.394L5.87983 31.3906Z" fill="#59A52C"/>
<path d="M22.9827 20.7007H8.01727C5.89096 20.7007 3.85173 19.856 2.3482 18.3524C0.844673 16.8489 0 14.8097 0 12.6834C0 10.5571 0.844673 8.51785 2.3482 7.01432C3.85173 5.51079 5.89096 4.66611 8.01727 4.66611H25.5683L24.0459 3.11863C23.8925 2.96985 23.7704 2.79191 23.6867 2.59526C23.6031 2.39861 23.5595 2.18721 23.5587 1.97351C23.5579 1.7598 23.5998 1.54808 23.682 1.3508C23.7642 1.15352 23.8849 0.974655 24.0372 0.824716C24.1895 0.674778 24.3702 0.55679 24.5688 0.477687C24.7673 0.398585 24.9796 0.359963 25.1933 0.364092C25.407 0.36822 25.6177 0.415016 25.813 0.501728C26.0083 0.588441 26.1843 0.713321 26.3307 0.86903L30.54 5.142C30.7616 5.36729 30.9116 5.65301 30.9713 5.96329C31.0311 6.27356 30.9978 6.59457 30.8757 6.886C30.7536 7.17743 30.5482 7.4263 30.2851 7.60136C30.0221 7.77643 29.7132 7.86989 29.3972 7.87H8.01727C6.74146 7.87 5.5179 8.37682 4.61577 9.27895C3.71364 10.1811 3.20682 11.4046 3.20682 12.6804C3.20682 13.9563 3.71364 15.1798 4.61577 16.0819C5.5179 16.9841 6.74146 17.4909 8.01727 17.4909H22.9827C23.1933 17.4909 23.4018 17.5324 23.5964 17.613C23.791 17.6936 23.9677 17.8117 24.1167 17.9606C24.2656 18.1095 24.3837 18.2863 24.4643 18.4808C24.5449 18.6754 24.5864 18.8839 24.5864 19.0945C24.5864 19.3051 24.5449 19.5136 24.4643 19.7082C24.3837 19.9028 24.2656 20.0795 24.1167 20.2284C23.9677 20.3774 23.791 20.4955 23.5964 20.5761C23.4018 20.6567 23.1933 20.6981 22.9827 20.6981V20.7007Z" fill="#CAE2BC"/>
</g>
<defs>
<clipPath id="clip0_255_8576">
<rect width="31" height="31" fill="white" transform="translate(0 0.390625)"/>
</clipPath>
</defs>
</svg>
