<svg width="31" height="25" viewBox="0 0 31 25" fill="none" xmlns="http://www.w3.org/2000/svg">
<g clip-path="url(#clip0_255_8510)">
<path d="M18.1602 15.4021C17.6168 15.9466 16.9241 16.3178 16.1697 16.4684C15.4154 16.6191 14.6333 16.5427 13.9224 16.2487C13.2115 15.9547 12.6038 15.4564 12.1763 14.8169C11.7487 14.1774 11.5205 13.4254 11.5205 12.6561C11.5205 11.8868 11.7487 11.1349 12.1763 10.4953C12.6038 9.85583 13.2115 9.35755 13.9224 9.06355C14.6333 8.76955 15.4154 8.69306 16.1697 8.84376C16.9241 8.99445 17.6168 9.36556 18.1602 9.91011C18.8852 10.6401 19.2921 11.6272 19.2921 12.6561C19.2921 13.685 18.8852 14.6721 18.1602 15.4021Z" fill="#59A52C"/>
<path d="M21.294 19.1951C20.9168 19.1951 20.5546 19.0473 20.285 18.7834C20.1522 18.6548 20.0466 18.5009 19.9745 18.3307C19.9024 18.1604 19.8652 17.9775 19.8652 17.7926C19.8652 17.6078 19.9024 17.4248 19.9745 17.2546C20.0466 17.0844 20.1522 16.9304 20.285 16.8018C20.8414 16.2641 21.2839 15.6199 21.5861 14.9077C21.8883 14.1954 22.0441 13.4295 22.0441 12.6558C22.0441 11.8821 21.8883 11.1162 21.5861 10.4039C21.2839 9.69166 20.8414 9.0475 20.285 8.50983C20.1523 8.38115 20.0469 8.22715 19.9748 8.05695C19.9028 7.88674 19.8657 7.70381 19.8657 7.51899C19.8657 7.33417 19.9028 7.15124 19.9748 6.98104C20.0469 6.81083 20.1523 6.65683 20.285 6.52816C20.5565 6.26483 20.9198 6.11755 21.298 6.11755C21.6762 6.11755 22.0396 6.26483 22.3111 6.52816C23.1337 7.32309 23.7879 8.27546 24.2347 9.32854C24.6815 10.3816 24.9117 11.5139 24.9117 12.6578C24.9117 13.8018 24.6815 14.934 24.2347 15.9871C23.7879 17.0402 23.1337 17.9926 22.3111 18.7875C22.0388 19.0517 21.6734 19.1981 21.294 19.1951Z" fill="#CAE2BC"/>
<path d="M24.6268 24.6396C24.1813 24.6428 23.751 24.4778 23.422 24.1775C23.2653 24.0374 23.1399 23.8658 23.054 23.6739C22.9682 23.4821 22.9238 23.2742 22.9238 23.064C22.9238 22.8538 22.9682 22.646 23.054 22.4541C23.1399 22.2623 23.2653 22.0907 23.422 21.9506C24.7334 20.7831 25.7828 19.3513 26.5014 17.7493C27.2201 16.1474 27.5916 14.4115 27.5916 12.6557C27.5916 10.9 27.2201 9.16405 26.5014 7.56209C25.7828 5.96012 24.7334 4.52834 23.422 3.36083C23.2653 3.22075 23.1399 3.04917 23.054 2.8573C22.9682 2.66543 22.9238 2.4576 22.9238 2.2474C22.9238 2.0372 22.9682 1.82936 23.054 1.63749C23.1399 1.44562 23.2653 1.27404 23.422 1.13397C23.7524 0.83701 24.181 0.672729 24.6252 0.672729C25.0695 0.672729 25.4981 0.83701 25.8285 1.13397C27.4462 2.58792 28.7418 4.36434 29.6319 6.34901C30.5219 8.33367 30.9868 10.4826 30.9966 12.6577C30.9864 14.8322 30.5214 16.9805 29.6316 18.9646C28.7417 20.9487 27.4466 22.7247 25.8295 24.1785C25.5008 24.4772 25.0719 24.6414 24.6278 24.6386L24.6268 24.6396Z" fill="#CAE2BC"/>
<path d="M9.52231 19.1952C9.14543 19.1955 8.78335 19.0485 8.51332 18.7855C7.69082 17.9905 7.03674 17.0381 6.59002 15.9851C6.1433 14.932 5.91309 13.7998 5.91309 12.6559C5.91309 11.512 6.1433 10.3798 6.59002 9.32668C7.03674 8.27361 7.69082 7.32121 8.51332 6.5262C8.78479 6.26287 9.14814 6.1156 9.52635 6.1156C9.90456 6.1156 10.2679 6.26287 10.5394 6.5262C10.672 6.65487 10.7775 6.80888 10.8496 6.97908C10.9216 7.14929 10.9587 7.33222 10.9587 7.51704C10.9587 7.70186 10.9216 7.88479 10.8496 8.055C10.7775 8.2252 10.672 8.3792 10.5394 8.50788C9.98297 9.04555 9.54048 9.68971 9.23827 10.402C8.93606 11.1143 8.78033 11.8801 8.78033 12.6539C8.78033 13.4276 8.93606 14.1934 9.23827 14.9057C9.54048 15.618 9.98297 16.2622 10.5394 16.7998C10.6722 16.9284 10.7778 17.0824 10.8499 17.2526C10.922 17.4228 10.9591 17.6058 10.9591 17.7907C10.9591 17.9755 10.922 18.1585 10.8499 18.3287C10.7778 18.4989 10.6722 18.6529 10.5394 18.7815C10.2681 19.0479 9.90259 19.1966 9.52231 19.1952Z" fill="#CAE2BC"/>
<path d="M6.37276 24.6396C5.92827 24.643 5.49885 24.4787 5.17004 24.1795C3.55238 22.7255 2.25688 20.9491 1.36682 18.9644C0.476757 16.9798 0.0118402 14.8309 0.00195312 12.6558C0.0119676 10.4806 0.477044 8.33165 1.36728 6.347C2.25751 4.36235 3.55321 2.58595 5.17105 1.13201C5.50147 0.835057 5.93003 0.670776 6.37428 0.670776C6.81853 0.670776 7.24709 0.835057 7.57751 1.13201C7.73438 1.272 7.8599 1.44356 7.94584 1.63544C8.03179 1.82732 8.07621 2.03519 8.07621 2.24544C8.07621 2.45569 8.03179 2.66357 7.94584 2.85545C7.8599 3.04733 7.73438 3.21888 7.57751 3.35887C6.26631 4.52647 5.21698 5.95828 4.49845 7.56024C3.77992 9.16219 3.40845 10.898 3.40845 12.6538C3.40845 14.4095 3.77992 16.1453 4.49845 17.7473C5.21698 19.3492 6.26631 20.781 7.57751 21.9487C7.73423 22.0887 7.85962 22.2603 7.94547 22.4522C8.03132 22.644 8.0757 22.8519 8.0757 23.0621C8.0757 23.2723 8.03132 23.4801 7.94547 23.672C7.85962 23.8639 7.73423 24.0354 7.57751 24.1755C7.24875 24.4756 6.81889 24.6406 6.37377 24.6376L6.37276 24.6396Z" fill="#CAE2BC"/>
</g>
<defs>
<clipPath id="clip0_255_8510">
<rect width="30.9954" height="23.9688" fill="white" transform="translate(0.00195312 0.671875)"/>
</clipPath>
</defs>
</svg>
