<svg width="31" height="31" viewBox="0 0 31 31" fill="none" xmlns="http://www.w3.org/2000/svg">
<g clip-path="url(#clip0_255_8632)">
<path d="M12.4803 5.03041C9.59224 5.0351 6.79517 6.0408 4.56537 7.8763C2.33556 9.71179 0.810946 12.2636 0.251316 15.0969C-0.308314 17.9303 0.131598 20.8699 1.4961 23.4154C2.8606 25.9608 5.06536 27.9546 7.73478 29.0569C10.4042 30.1593 13.3733 30.3021 16.1362 29.4612C18.8992 28.6203 21.2851 26.8476 22.8878 24.445C24.4904 22.0423 25.2106 19.1584 24.9257 16.2844C24.6407 13.4104 23.3683 10.7241 21.3251 8.6829C20.1632 7.52272 18.784 6.603 17.2664 5.97626C15.7487 5.34952 14.1223 5.02813 12.4803 5.03041ZM21.1381 12.5256H17.4534C17.0618 10.9798 16.4827 9.48784 15.729 8.08265C18.0093 8.86479 19.9317 10.442 21.1443 12.5256H21.1381ZM12.4928 7.57838C13.5426 9.09226 14.348 10.7617 14.8796 12.5256H10.1069C10.635 10.7602 11.4369 9.0888 12.4835 7.5722L12.4928 7.57838ZM9.25655 8.07748C8.50282 9.48268 7.92374 10.9747 7.53209 12.5204H3.84743C5.05371 10.4355 6.97347 8.85749 9.25239 8.07748H9.25655ZM3.84743 22.5205H7.53209C7.92375 24.0662 8.50283 25.5582 9.25655 26.9634C6.97051 26.1834 5.04496 24.6007 3.83709 22.509L3.84743 22.5205ZM12.4917 27.4677C11.4423 25.9536 10.6369 24.2842 10.1049 22.5205H14.8776C14.3421 24.284 13.5328 25.9523 12.4793 27.4645L12.4917 27.4677ZM15.7279 26.9686C16.4818 25.5634 17.0608 24.0713 17.4524 22.5255H21.1371C19.9289 24.6132 18.0089 26.1957 15.729 26.9831L15.7279 26.9686ZM17.938 20.0209C17.9587 19.8466 17.978 19.6744 17.9959 19.5043H15.481C15.4593 19.6789 15.4387 19.8535 15.4149 20.0209H9.5686C9.54518 19.8466 9.52317 19.6744 9.50251 19.5043H6.98758C7.00515 19.6789 7.02476 19.8535 7.0475 20.0209H2.8235C2.39058 18.3831 2.39058 16.6608 2.8235 15.023H7.0475C7.0258 15.1976 7.00825 15.3702 6.98758 15.5396H9.50251C9.52317 15.364 9.54518 15.1918 9.5686 15.023H15.4149C15.4397 15.1955 15.4613 15.3702 15.481 15.5396H17.9959C17.9787 15.3653 17.9594 15.1931 17.938 15.023H22.16C22.5925 16.6609 22.5925 18.383 22.16 20.0209H17.938Z" fill="#CAE2BC"/>
<path d="M6.40837 15.77H7.33833L7.87565 18.3076L8.42634 15.77H9.38518L8.36428 19.2934H7.41792L6.86509 16.7267L6.30608 19.2934H5.34925L4.35938 15.77H5.34925L5.90006 18.2963L6.40837 15.77Z" fill="#59A52C"/>
<path d="M11.6645 15.7689H12.5995L13.1369 18.3066L13.6875 15.7689H14.6465L13.6318 19.282H12.6853L12.1326 16.7154L11.5736 19.282H10.6168L9.62891 15.7585H10.6168L11.1674 18.2849L11.6645 15.7689Z" fill="#59A52C"/>
<path d="M16.9346 15.77H17.8645L18.4019 18.3076L18.9525 15.77H19.9114L18.8895 19.2934H17.9431L17.3903 16.7267L16.8313 19.2934H15.8744L14.8867 15.77H15.8744L16.4251 18.2963L16.9346 15.77Z" fill="#59A52C"/>
<path d="M19.9248 18.3137H20.9043V19.2799H19.9248V18.3137Z" fill="#59A52C"/>
<path d="M24.9826 12.5287C28.1395 12.5287 30.6986 9.96956 30.6986 6.81269C30.6986 3.65583 28.1395 1.09668 24.9826 1.09668C21.8257 1.09668 19.2666 3.65583 19.2666 6.81269C19.2666 9.96956 21.8257 12.5287 24.9826 12.5287Z" fill="white"/>
<path d="M30.1577 7.66715C30.6215 4.80902 28.6805 2.11609 25.8224 1.6523C22.9643 1.18852 20.2713 3.12951 19.8075 5.98763C19.3437 8.84575 21.2847 11.5387 24.1429 12.0025C27.001 12.4663 29.6939 10.5253 30.1577 7.66715Z" fill="#59A52C"/>
<path d="M27.5309 5.611V4.72658C27.5309 4.59845 27.5019 4.5653 27.38 4.56324C26.8377 4.56263 26.3044 4.42441 25.8301 4.16138C25.5697 4.01363 25.3238 3.82962 25.0717 3.65913C24.9787 3.59507 24.959 3.59507 24.865 3.65913L24.5199 3.9071C23.9525 4.32573 23.269 4.55764 22.564 4.57055C22.4534 4.57055 22.4223 4.60773 22.4223 4.72758V6.27748C22.4183 6.53721 22.4419 6.79666 22.4927 7.05142C22.6339 7.82846 23.0412 8.53212 23.6448 9.04151C24.0447 9.37525 24.46 9.68719 24.8691 10.0096C24.9528 10.0757 24.9818 10.0736 25.0655 10.0096C25.4168 9.73403 25.7691 9.45857 26.1225 9.18303C26.3416 9.01768 26.5404 8.82686 26.7145 8.61468C27.2192 7.99336 27.5001 7.22034 27.5122 6.42001C27.5308 6.13689 27.5309 5.87655 27.5309 5.611Z" fill="#CAE2BC"/>
<path d="M27.5268 5.61004V6.39634C27.515 7.19704 27.2339 7.97046 26.729 8.59202C26.5546 8.804 26.3559 8.99479 26.137 9.16037C25.7826 9.43418 25.4313 9.71102 25.08 9.9869C24.9963 10.053 24.9652 10.053 24.8836 9.9869C24.4703 9.66453 24.0571 9.35454 23.6593 9.01872C23.0559 8.50917 22.6486 7.80559 22.5072 7.02863C22.4561 6.77391 22.4322 6.51459 22.4359 6.25482C22.4359 5.73819 22.4359 5.22982 22.4359 4.70493C22.4359 4.583 22.4669 4.54983 22.5774 4.54777C23.2828 4.53528 23.9669 4.30346 24.5345 3.88444L24.8786 3.63647C24.9716 3.57034 24.9911 3.57241 25.0852 3.63647C25.3373 3.80696 25.5822 3.98981 25.8436 4.1386C26.3179 4.40163 26.8512 4.53997 27.3935 4.54058C27.5123 4.54058 27.5443 4.57567 27.5443 4.70379V5.58835L27.5268 5.61004Z" fill="#CAE2BC"/>
</g>
<defs>
<clipPath id="clip0_255_8632">
<rect width="30.9979" height="29.2031" fill="white" transform="translate(0.000976562 0.8125)"/>
</clipPath>
</defs>
</svg>
