<svg xmlns="http://www.w3.org/2000/svg" width="76.816" height="76.816" viewBox="0 0 76.816 76.816"><g id="Group_5642" data-name="Group 5642" transform="translate(-1463 -1625)"><g id="Group_5385" data-name="Group 5385" transform="translate(-257.268 -579.875)"><path id="Icon_ionic-ios-checkmark-circle" data-name="Icon ionic-ios-checkmark-circle" d="M41.783,3.375A38.408,38.408,0,1,0,80.191,41.783,38.4,38.4,0,0,0,41.783,3.375Zm19.666,27.79L36.76,55.964h-.018A3.335,3.335,0,0,1,34.6,56.98a3.233,3.233,0,0,1-2.16-1.053L22.1,45.587a.736.736,0,0,1,0-1.053l3.287-3.287a.714.714,0,0,1,1.034,0l8.2,8.2L57.146,26.752a.729.729,0,0,1,.517-.222h0a.671.671,0,0,1,.517.222l3.231,3.342A.728.728,0,0,1,61.448,31.165Z" transform="translate(1716.893 2201.5)" fill="#4fa83d"></path><circle id="Ellipse_1458" data-name="Ellipse 1458" cx="27.14" cy="27.14" r="27.14" transform="translate(1733.483 2213.568)" fill="#4fa83d"></circle><path id="Icon_weather-stars" data-name="Icon weather-stars" d="M6.444,34.314a5.765,5.765,0,0,0,4.037-1.835,5.75,5.75,0,0,0,1.664-4.111,5.937,5.937,0,0,0,5.676,5.946,5.937,5.937,0,0,0-5.676,5.946,5.65,5.65,0,0,0-1.664-4.111A5.765,5.765,0,0,0,6.444,34.314Zm5.7-17.616A11.245,11.245,0,0,0,20,13.1a11.2,11.2,0,0,0,3.23-8.025,11.2,11.2,0,0,0,3.23,8.025,11.356,11.356,0,0,0,7.878,3.6,11.34,11.34,0,0,0-5.6,1.737A11.758,11.758,0,0,0,24.7,22.668a11.505,11.505,0,0,0-1.468,5.7A11.257,11.257,0,0,0,20,20.319,11.171,11.171,0,0,0,12.145,16.7Zm8.123,26.351a8.74,8.74,0,0,0,8.343-8.735,8.742,8.742,0,0,0,8.319,8.735,8.742,8.742,0,0,0-8.319,8.735,8.426,8.426,0,0,0-2.422-6.043A8.571,8.571,0,0,0,20.268,43.049Zm16.662-11.6a8.7,8.7,0,0,0,8.294-8.759,8.74,8.74,0,0,0,8.343,8.735,8.74,8.74,0,0,0-8.343,8.735,8.654,8.654,0,0,0-8.294-8.71Z" transform="translate(1730.616 2216.063)" fill="#fff"></path></g></g></svg>