<svg width="31" height="18" viewBox="0 0 31 18" fill="none" xmlns="http://www.w3.org/2000/svg">
<g clip-path="url(#clip0_255_8585)">
<path d="M29.3239 0.359375H1.67657C0.751166 0.359375 0.000976562 1.10956 0.000976562 2.03497V16.2775C0.000976562 17.2029 0.751166 17.9531 1.67657 17.9531H29.3239C30.2493 17.9531 30.9995 17.2029 30.9995 16.2775V2.03497C30.9995 1.10956 30.2493 0.359375 29.3239 0.359375Z" fill="#CAE2BC"/>
<path d="M5.00943 11.5876H6.43368V5.97942H3.97559V7.12385H5.00943V11.5876Z" fill="#4FA83D"/>
<path d="M10.0322 11.627C11.6165 11.627 12.5045 10.6108 12.5045 8.7785C12.5045 6.94623 11.6156 5.93585 10.0322 5.93585C8.43201 5.93585 7.54395 6.9521 7.54395 8.77599C7.54395 10.5999 8.43201 11.627 10.0322 11.627ZM10.0322 6.97891C10.736 6.97891 11.0485 7.49918 11.0485 8.7785C11.0485 10.0578 10.7368 10.5865 10.0322 10.5865C9.3117 10.5865 9.00842 10.0587 9.00842 8.7785C9.00842 7.49834 9.3117 6.97975 10.0322 6.97975V6.97891Z" fill="#4FA83D"/>
<path d="M13.1108 10.0277C13.1108 11.0196 14.0065 11.6513 15.4073 11.6513C16.8081 11.6513 17.7028 11.0112 17.7028 10.0034C17.6983 9.69401 17.6004 9.39325 17.4218 9.14056C17.2433 8.88788 16.9926 8.69508 16.7025 8.58748C16.9145 8.47674 17.0922 8.31006 17.2163 8.10551C17.3403 7.90096 17.406 7.66636 17.4062 7.42713C17.4062 6.50556 16.6304 5.92329 15.3955 5.92329C14.1799 5.92329 13.3957 6.49131 13.3957 7.38775C13.4064 7.6387 13.484 7.88223 13.6204 8.09316C13.7568 8.30408 13.947 8.47473 14.1715 8.58748C13.8687 8.69042 13.6048 8.88364 13.4152 9.14112C13.2255 9.3986 13.1193 9.70799 13.1108 10.0277ZM15.4073 6.85994C15.9275 6.85994 16.2149 7.09202 16.2149 7.50756C16.2149 7.90803 15.9267 8.13172 15.4073 8.13172C14.8878 8.13172 14.5996 7.90719 14.5996 7.50756C14.5996 7.09118 14.8878 6.85911 15.4081 6.85911L15.4073 6.85994ZM15.4073 9.15634C16.023 9.15634 16.3674 9.42025 16.3674 9.88439C16.3674 10.3645 16.023 10.6208 15.4073 10.6208C14.7915 10.6208 14.4555 10.3569 14.4555 9.88439C14.4555 9.41188 14.7915 9.15551 15.4081 9.15551L15.4073 9.15634Z" fill="#4FA83D"/>
<path d="M20.792 11.627C22.3754 11.627 23.2635 10.6108 23.2635 8.7785C23.2635 6.94623 22.3754 5.93836 20.792 5.93836C19.1918 5.93836 18.3037 6.95461 18.3037 8.7785C18.3037 10.6024 19.1893 11.627 20.792 11.627ZM20.792 6.97891C21.4957 6.97891 21.8074 7.49918 21.8074 8.7785C21.8074 10.0578 21.4957 10.5865 20.792 10.5865C20.0723 10.5865 19.7682 10.0587 19.7682 8.7785C19.7682 7.49834 20.0715 6.97975 20.792 6.97975V6.97891Z" fill="#4FA83D"/>
<path d="M24.6256 10.7716H25.1517C25.3019 10.7932 25.4551 10.7812 25.6 10.7363C25.745 10.6915 25.8782 10.615 25.99 10.5124C26.1017 10.4097 26.1893 10.2835 26.2463 10.1429C26.3033 10.0023 26.3284 9.85073 26.3196 9.69924C26.3196 9.05414 25.8932 8.68885 25.1517 8.68885H23.8892V11.5868H24.6256V10.7716ZM24.6256 9.26861H25.114C25.4366 9.26861 25.6234 9.42109 25.6234 9.72437C25.6234 10.0277 25.4366 10.1919 25.114 10.1919H24.6256V9.26861Z" fill="#4FA83D"/>
</g>
<defs>
<clipPath id="clip0_255_8585">
<rect width="30.9985" height="17.5938" fill="white" transform="translate(0.000976562 0.359375)"/>
</clipPath>
</defs>
</svg>
