<svg width="31" height="32" viewBox="0 0 31 32" fill="none" xmlns="http://www.w3.org/2000/svg">
<g clip-path="url(#clip0_255_8522)">
<path d="M27.1258 0.640625H3.87525C2.84838 0.643577 1.86441 1.05281 1.1383 1.77892C0.412184 2.50503 0.00295196 3.48901 0 4.51588V27.7654C0.00295196 28.7922 0.412184 29.7762 1.1383 30.5023C1.86441 31.2284 2.84838 31.6377 3.87525 31.6406H27.1258C28.1526 31.6377 29.1366 31.2284 29.8627 30.5023C30.5888 29.7762 30.9981 28.7922 31.001 27.7654V4.51588C30.9981 3.48901 30.5888 2.50503 29.8627 1.77892C29.1366 1.05281 28.1526 0.643577 27.1258 0.640625ZM11.6247 24.8594V7.42181L23.2475 16.1406L11.6247 24.8594Z" fill="#CAE2BC"/>
<path d="M27.2733 3.7337H3.2793V27.7277H27.2733V3.7337Z" fill="#CAE2BC"/>
<path d="M11.9941 10.9227V21.7043L19.5636 16.3135L11.9941 10.9227Z" fill="#569532"/>
</g>
<defs>
<clipPath id="clip0_255_8522">
<rect width="31" height="31" fill="white" transform="translate(0 0.640625)"/>
</clipPath>
</defs>
</svg>
