<svg xmlns="http://www.w3.org/2000/svg" id="close_2_" data-name="close (2)" width="37.825" height="37.825" viewBox="0 0 37.825 37.825"><g id="Group_3187" data-name="Group 3187"><g id="Group_3186" data-name="Group 3186"><path id="Path_13898" data-name="Path 13898" d="M36.249,17.336a1.577,1.577,0,0,0-1.576,1.576A15.76,15.76,0,1,1,30.1,7.808a1.576,1.576,0,1,0,2.236-2.221,18.912,18.912,0,1,0,5.492,13.326A1.577,1.577,0,0,0,36.249,17.336Z" fill="rgba(255,255,255,0.33)"></path></g></g><g id="Group_3189" data-name="Group 3189" transform="translate(12.608 12.608)"><g id="Group_3188" data-name="Group 3188"><path id="Path_13899" data-name="Path 13899" d="M136.534,134.306l3.614-3.614a1.576,1.576,0,1,0-2.229-2.229l-3.614,3.614-3.614-3.614a1.576,1.576,0,1,0-2.229,2.229l3.614,3.614-3.614,3.614a1.576,1.576,0,1,0,2.229,2.229l3.614-3.614,3.614,3.614a1.576,1.576,0,1,0,2.229-2.229Z" transform="translate(-128.002 -128.002)" fill="rgba(255,255,255,0.33)"></path></g></g></svg>