<svg xmlns="http://www.w3.org/2000/svg" width="138" height="24" viewBox="0 0 138 24" fill="none"><path d="M44.9659 5.04346V14.2096H42.5044V5.04346H44.9659Z" fill="#717171"></path><path d="M51.0448 4.75781H51.1808C52.6497 4.75781 53.8146 5.31504 54.6759 6.43053C55.2925 7.31022 55.6008 8.31176 55.6008 9.43566C55.6008 10.6961 55.2468 11.7796 54.5399 12.686C54.3492 12.8951 54.2447 12.9985 54.2269 12.9985C53.5924 12.8446 52.9753 12.6545 52.3772 12.4277C52.0326 12.2827 51.8509 12.2008 51.8331 12.1824C52.2138 11.9833 52.5132 11.6026 52.7306 11.0401C52.8845 10.5958 52.9617 10.1105 52.9617 9.58481V9.48923C52.9617 8.41942 52.6581 7.61746 52.0505 7.08229C51.7511 6.84648 51.4066 6.72884 51.0164 6.72884C50.4271 6.72884 49.9424 7.0324 49.5611 7.64004C49.2617 8.15683 49.1126 8.80543 49.1126 9.58481C49.1126 10.9177 49.6976 11.8694 50.8672 12.4408C51.3383 12.7034 52.0915 13.0033 53.1245 13.3383C53.8682 13.5831 54.5934 13.7779 55.3003 13.9234C55.5183 13.9691 55.627 14.0006 55.627 14.0184L54.9338 15.8955H54.9201C53.9774 15.6234 53.0205 15.2836 52.051 14.8755C51.3168 14.531 50.8357 14.3593 50.6094 14.3593C50.0837 14.3593 49.476 14.196 48.787 13.8693C47.8443 13.362 47.182 12.6046 46.8012 11.5979C46.5838 10.9997 46.4751 10.3694 46.4751 9.7077V9.54437C46.4751 8.24821 46.8826 7.12378 47.6988 6.17214C48.5969 5.22891 49.7118 4.75781 51.0448 4.75781Z" fill="#717171"></path><path d="M62.1961 4.6626H62.5223C63.7917 4.6626 64.716 4.8212 65.2969 5.13842C66.1582 5.59218 66.5888 6.25812 66.5888 7.13781V7.16512C66.5888 8.05373 66.0768 8.71547 65.0521 9.15032L65.0117 9.16398V9.20442C65.6282 9.37668 66.1041 9.68076 66.4397 10.1156C66.7479 10.5326 66.9023 11.0179 66.9023 11.5709C66.9023 12.5142 66.458 13.2757 65.5694 13.8555C65.3063 14.0099 64.9802 14.1506 64.5899 14.2772C63.7743 14.4589 63.0806 14.5493 62.5092 14.5493L62.4955 14.5356V12.6859C62.4955 12.668 62.6678 12.6454 63.0123 12.6176C63.3206 12.5451 63.5291 12.4727 63.6378 12.4002C63.9912 12.1828 64.1682 11.8613 64.1682 11.4344C64.1682 10.8997 63.8368 10.5505 63.1756 10.3871C62.9398 10.342 62.7219 10.3194 62.5228 10.3194L62.4955 10.2926V8.48439C62.4955 8.46653 62.6678 8.43922 63.0123 8.40298C63.2665 8.34836 63.4566 8.27641 63.5837 8.18556C63.8463 8.00437 63.9781 7.78221 63.9781 7.51909V7.42351C63.9781 6.97027 63.6745 6.68457 63.0669 6.56693L62.6993 6.53962H62.6042C62.3049 6.53962 62.0465 6.558 61.829 6.59424V14.5366L61.8017 14.5503H61.6521C60.6547 14.5503 59.857 14.4957 59.2588 14.387L59.2451 14.3738V4.89421C59.2451 4.8669 59.5896 4.817 60.2792 4.74453C60.9767 4.68991 61.6158 4.6626 62.1961 4.6626Z" fill="#717171"></path><path d="M70.4239 4.88037L70.4375 4.89403V8.96003H71.1723C71.7521 8.96003 72.1738 8.74733 72.4364 8.32087C72.5094 8.15807 72.5462 8.00839 72.5462 7.87236V7.75C72.5462 7.33352 72.3377 7.02944 71.9201 6.8388C71.7389 6.76632 71.5257 6.73008 71.281 6.73008H71.0903L71.0772 6.71643V4.90768L71.0903 4.8809H71.1324C73.1086 4.8809 74.3281 5.40661 74.7903 6.45856C74.9442 6.80308 75.0214 7.19277 75.0214 7.62815C75.0214 8.44429 74.6228 9.12914 73.825 9.68164C73.5976 9.80873 73.4668 9.87175 73.4301 9.87175V9.89906C73.6207 9.99885 73.7746 10.1028 73.8922 10.2121C74.2367 10.5477 74.5046 11.0918 74.6952 11.8444C74.9846 12.9956 75.212 13.7939 75.3754 14.2376H75.3622H72.8455C72.7279 14.0659 72.5603 13.567 72.3424 12.7419C72.1791 11.9982 72.043 11.5229 71.9338 11.3139C71.7526 10.9421 71.4175 10.7562 70.9281 10.7562H70.4381V14.224L70.4113 14.2371H67.9902L67.9634 14.224V5.0978C67.9634 5.07942 68.2402 5.04318 68.7932 4.98909C69.572 4.91661 70.1156 4.88037 70.4239 4.88037Z" fill="#717171"></path><path d="M84.2958 12.8502C83.4534 13.8019 82.3515 14.2777 80.9913 14.2777C79.6038 14.2777 78.5072 13.8013 77.7005 12.8502C76.9657 11.9789 76.5986 10.8776 76.5986 9.54469C76.5986 8.12143 76.9657 6.97022 77.7005 6.09053C78.4258 5.2203 79.4231 4.73555 80.6925 4.63524V6.63463C80.2119 6.73441 79.8354 7.0427 79.5638 7.55948C79.3002 8.05841 79.1694 8.69283 79.1694 9.46328C79.1694 10.2884 79.3328 10.959 79.6594 11.4758C80.0129 12.0199 80.475 12.2914 81.0464 12.2914C81.6262 12.2914 82.0884 12.0194 82.4335 11.4758C82.7691 10.9501 82.9366 10.2742 82.9366 9.44963C82.9366 8.66973 82.7958 8.02637 82.5149 7.51852C82.225 7.01118 81.8263 6.71183 81.318 6.62097V4.62158C82.6236 4.66727 83.6572 5.15675 84.4192 6.09053C85.1445 6.97022 85.5069 8.07206 85.5069 9.39554C85.5058 10.792 85.1025 11.9432 84.2958 12.8502Z" fill="#717171"></path><path d="M92.1696 5.00293C92.1969 5.00293 92.2825 5.26605 92.428 5.79176L94.9305 14.1832L94.9169 14.1969H92.2788C92.2599 14.1969 92.1875 13.9474 92.0614 13.449L91.6801 12.062H89.8309V12.0483L90.1981 10.2401H91.3409L90.457 6.78542H90.4433L88.7969 14.1827L88.7837 14.1963H86.2681L86.2402 14.169L88.9056 5.00293H92.1696V5.00293Z" fill="#717171"></path><path d="M98.6162 4.79834H98.9155C101.091 4.79834 102.619 5.37447 103.499 6.52568C104.07 7.26935 104.356 8.21679 104.356 9.368C104.356 11.2718 103.676 12.6593 102.316 13.5296C101.916 13.7565 101.505 13.9287 101.078 14.0469C100.679 14.1829 100.176 14.2822 99.5689 14.3457L98.9707 14.4003L98.957 14.3867V12.4556L98.9707 12.4419H99.0111C99.8541 12.4419 100.544 12.1342 101.078 11.5171C101.477 10.973 101.677 10.3154 101.677 9.54498V9.34121C101.677 8.43474 101.373 7.73624 100.766 7.24676C100.321 6.90224 99.7501 6.72998 99.0521 6.72998C98.7438 6.72998 98.4896 6.74836 98.2901 6.7846V14.3867L98.2627 14.4003H98.1272C97.2113 14.4003 96.4272 14.3457 95.7744 14.237L95.7607 14.2239V5.01577C95.7607 4.98898 96.0958 4.93909 96.767 4.86661C97.392 4.82145 98.0086 4.79834 98.6162 4.79834Z" fill="#717171"></path><path d="M112.447 13.9646C112.256 14.0644 111.966 14.1511 111.576 14.223C111.132 14.3049 110.656 14.3454 110.148 14.3454C108.525 14.3454 107.274 13.8874 106.395 12.972C105.606 12.1559 105.211 11.0908 105.211 9.77624C105.211 8.23481 105.719 7.02006 106.735 6.13144C107.668 5.31582 108.861 4.90723 110.312 4.90723C110.801 4.90723 111.264 4.94819 111.699 5.0296C112.089 5.1026 112.388 5.19293 112.597 5.30164L112.12 7.24641C111.894 7.14663 111.653 7.06942 111.4 7.01533C111.082 6.95231 110.756 6.92027 110.421 6.92027C109.668 6.92027 109.056 7.1377 108.585 7.57308C108.059 8.05415 107.796 8.73374 107.796 9.61291C107.796 11.408 108.689 12.3055 110.475 12.3055C111.128 12.3055 111.672 12.2194 112.107 12.0472L112.447 13.9646Z" fill="#717171"></path><path d="M119.301 5.00293C119.328 5.00293 119.414 5.26605 119.56 5.79176L122.061 14.1827L122.048 14.1963H119.41C119.391 14.1963 119.318 13.9469 119.192 13.4485L118.811 12.0614H116.962V12.0478L117.329 10.2396H118.471L117.587 6.78489H117.574L115.928 14.1827L115.915 14.1963H113.399L113.372 14.169L116.037 5.00293H119.301V5.00293Z" fill="#717171"></path><path d="M123.367 11.7614C123.675 11.9248 124.024 12.0566 124.414 12.1559C124.877 12.274 125.321 12.3329 125.747 12.3329C126.581 12.3329 126.998 12.0834 126.998 11.585C126.998 11.2137 126.518 10.8644 125.557 10.5378C124.732 10.2389 124.106 9.88023 123.68 9.46375C123.208 8.99213 122.973 8.43018 122.973 7.77738C122.973 6.94338 123.299 6.26326 123.952 5.73702C124.623 5.184 125.525 4.90723 126.659 4.90723C127.166 4.90723 127.643 4.95292 128.086 5.04325C128.458 5.11573 128.807 5.22444 129.134 5.36939L128.617 7.34147C128.563 7.31416 128.508 7.2921 128.453 7.27372C128.39 7.24641 128.327 7.22383 128.263 7.20545C128.118 7.1419 127.969 7.09201 127.814 7.05577C127.425 6.95598 127.03 6.90609 126.631 6.90609C125.861 6.90609 125.475 7.13297 125.475 7.58621C125.475 7.88556 126.023 8.24374 127.121 8.66074C128.707 9.25 129.501 10.1701 129.501 11.4211C129.501 12.2646 129.183 12.9489 128.548 13.4746C127.86 14.0549 126.876 14.3448 125.597 14.3448C125.08 14.3448 124.559 14.286 124.033 14.1684C123.562 14.0597 123.185 13.9326 122.905 13.7876L123.367 11.7614Z" fill="#717171"></path><path d="M132.616 7.11059H130.276V5.04346H137.457V7.11059H135.077V14.2101H132.616V7.11059Z" fill="#717171"></path><path d="M43.6724 17.2533H42.5254V16.2402H46.0457V17.2533H44.8793V20.7337H43.6724V17.2533Z" fill="#525252"></path><path d="M49.9931 20.3478C49.6733 20.6593 49.24 20.8147 48.6933 20.8147C48.1912 20.8147 47.7842 20.6614 47.4732 20.3547C47.1665 20.048 47.0132 19.6499 47.0132 19.1614C47.0132 18.6368 47.1728 18.2208 47.4932 17.9141C47.7779 17.6342 48.1465 17.4787 48.6003 17.4478V18.2944C48.3561 18.3789 48.2337 18.6567 48.2337 19.1278C48.2337 19.372 48.2715 19.5695 48.3472 19.7213C48.4359 19.8946 48.5625 19.9813 48.7269 19.9813C48.9091 19.9813 49.0446 19.892 49.1334 19.7145C49.2132 19.5679 49.2536 19.372 49.2536 19.1278C49.2536 18.6835 49.1381 18.4099 48.907 18.3075V17.4478C49.3692 17.4787 49.7426 17.6389 50.0272 17.9278C50.325 18.2256 50.4742 18.6168 50.4742 19.1016C50.4731 19.6205 50.3135 20.0364 49.9931 20.3478Z" fill="#525252"></path><path d="M52.9734 16.52V17.4538H53.6535V18.334H52.9734V19.2736C52.9734 19.6386 53.0999 19.8203 53.3536 19.8203C53.4781 19.8203 53.5736 19.8114 53.6403 19.7935V20.7073C53.476 20.7693 53.2381 20.8008 52.9266 20.8008C52.58 20.8008 52.3064 20.7005 52.1068 20.5009C51.902 20.2961 51.7996 19.9568 51.7996 19.4805V18.334H51.3931V17.4538H51.7996V16.8399L52.9734 16.52Z" fill="#525252"></path><path d="M56.214 17.3608H56.3007C56.7718 17.3608 57.141 17.4853 57.4078 17.7342C57.5459 17.8766 57.6347 18.01 57.6746 18.1344C57.7592 18.3078 57.8012 18.5766 57.8012 18.9417V20.0414C57.8012 20.3302 57.819 20.5655 57.8547 20.7483L57.8484 20.7551H56.7545C56.7455 20.7551 56.7235 20.6595 56.6878 20.4684H56.661C56.4436 20.7089 56.1431 20.8292 55.7608 20.8292H55.7277C55.368 20.8292 55.0786 20.6953 54.8612 20.429C54.7146 20.2373 54.6411 20.033 54.6411 19.815V19.762C54.6411 19.2547 54.9032 18.9175 55.4278 18.7489C55.6899 18.678 55.9772 18.6418 56.2881 18.6418H56.2949V19.2552C56.2949 19.2599 56.2393 19.2751 56.1284 19.3019C55.9331 19.3776 55.8349 19.4999 55.8349 19.6685C55.8349 19.8282 55.9126 19.9306 56.0686 19.9757L56.1621 19.9826H56.1888C56.3669 19.9826 56.5045 19.8849 56.6022 19.689C56.6111 19.6312 56.6153 19.5314 56.6153 19.3891V18.8755C56.6153 18.5908 56.5754 18.4154 56.4955 18.3487C56.4063 18.2421 56.2624 18.1885 56.0623 18.1885H56.0024C55.7356 18.1885 55.431 18.2689 55.0886 18.4285C55.0844 18.4196 55.0129 18.1644 54.8753 17.6623C55.2692 17.4611 55.7162 17.3608 56.214 17.3608Z" fill="#525252"></path><path d="M59.1875 15.9941H60.3944V20.7345H59.1875V15.9941Z" fill="#525252"></path><path d="M65.0684 16.0537H65.2281C65.8504 16.0537 66.3042 16.1314 66.5883 16.2869C67.0105 16.5096 67.2217 16.8357 67.2217 17.2674V17.2811C67.2217 17.7165 66.9706 18.041 66.4686 18.2542L66.4486 18.2611V18.281C66.7511 18.3656 66.9843 18.5142 67.1487 18.728C67.2999 18.9323 67.3755 19.1696 67.3755 19.4412C67.3755 19.9039 67.1576 20.2773 66.7222 20.5614C66.5935 20.637 66.4334 20.7063 66.2422 20.7683C65.842 20.8571 65.5022 20.9012 65.2223 20.9012L65.2155 20.8949V19.9884C65.2155 19.979 65.3 19.9685 65.4691 19.9548C65.6204 19.9191 65.7223 19.8839 65.7758 19.8477C65.9491 19.7416 66.0358 19.5835 66.0358 19.375C66.0358 19.1124 65.8735 18.9417 65.5489 18.8614C65.4334 18.8393 65.3268 18.8278 65.2291 18.8278L65.2155 18.8146V17.9271C65.2155 17.9181 65.3 17.905 65.4691 17.8871C65.5936 17.8604 65.6865 17.8246 65.749 17.78C65.8777 17.6912 65.9423 17.5825 65.9423 17.4539V17.4071C65.9423 17.185 65.7937 17.0447 65.4959 16.987L65.3158 16.9738H65.269C65.1225 16.9738 64.9959 16.9833 64.8893 17.0006V20.8944L64.8762 20.9007H64.8027C64.3137 20.9007 63.9224 20.8744 63.6294 20.8214L63.6226 20.8145V16.1672C63.6226 16.1535 63.7917 16.1293 64.1294 16.0936C64.4707 16.0663 64.7843 16.0537 65.0684 16.0537Z" fill="#525252"></path><path d="M68.5824 18.5605C68.5824 18.0673 68.573 17.6981 68.5557 17.4539H69.5824L69.6286 18.0474H69.6554C69.7352 17.8205 69.8665 17.6472 70.0488 17.5274C70.1995 17.4297 70.3597 17.3804 70.5288 17.3804C70.6312 17.3804 70.711 17.3872 70.7688 17.4003V18.5274C70.6711 18.5048 70.5687 18.4938 70.4621 18.4938C70.0929 18.4938 69.8728 18.6314 69.8019 18.9071C69.793 18.9785 69.7888 19.0468 69.7888 19.114V20.7342H68.5819V18.5605H68.5824Z" fill="#525252"></path><path d="M74.7099 20.3478C74.3901 20.6593 73.9568 20.8147 73.4101 20.8147C72.9075 20.8147 72.5015 20.6614 72.1896 20.3547C71.8828 20.048 71.7295 19.6499 71.7295 19.1614C71.7295 18.6368 71.8902 18.2208 72.21 17.9141C72.4947 17.6342 72.8639 17.4787 73.3166 17.4478V18.2944C73.0729 18.3789 72.95 18.6567 72.95 19.1278C72.95 19.372 72.9884 19.5695 73.0635 19.7213C73.1522 19.8946 73.2793 19.9813 73.4437 19.9813C73.6259 19.9813 73.7614 19.892 73.8502 19.7145C73.93 19.5679 73.9705 19.372 73.9705 19.1278C73.9705 18.6835 73.8544 18.4099 73.6238 18.3075V17.4478C74.0855 17.4787 74.4599 17.6389 74.7441 17.9278C75.0418 18.2256 75.191 18.6168 75.191 19.1016C75.1899 19.6205 75.0303 20.0364 74.7099 20.3478Z" fill="#525252"></path><path d="M77.7108 17.3608H77.7969C78.268 17.3608 78.6372 17.4853 78.904 17.7342C79.0422 17.8766 79.1309 18.01 79.1703 18.1344C79.2543 18.3078 79.2969 18.5766 79.2969 18.9417V20.0414C79.2969 20.3302 79.3147 20.5655 79.3499 20.7483L79.3431 20.7551H78.2497C78.2407 20.7551 78.2181 20.6595 78.183 20.4684H78.1562C77.9382 20.7089 77.6383 20.8292 77.256 20.8292H77.2224C76.8621 20.8292 76.5733 20.6953 76.3553 20.429C76.2083 20.2373 76.1353 20.033 76.1353 19.815V19.762C76.1353 19.2547 76.3973 18.9175 76.922 18.7489C77.1841 18.678 77.4713 18.6418 77.7822 18.6418H77.7891V19.2552C77.7891 19.2599 77.7334 19.2751 77.6226 19.3019C77.4267 19.3776 77.3295 19.4999 77.3295 19.6685C77.3295 19.8282 77.4073 19.9306 77.5632 19.9757L77.6567 19.9826H77.683C77.861 19.9826 77.9986 19.8849 78.0963 19.689C78.1052 19.6312 78.1094 19.5314 78.1094 19.3891V18.8755C78.1094 18.5908 78.0695 18.4154 77.9897 18.3487C77.9004 18.2421 77.756 18.1885 77.5564 18.1885H77.4965C77.2298 18.1885 76.9251 18.2689 76.5827 18.4285C76.5785 18.4196 76.5071 18.1644 76.3695 17.6623C76.7655 17.4611 77.2124 17.3608 77.7108 17.3608Z" fill="#525252"></path><path d="M82.7846 15.9336H83.9915L83.9983 15.9472V19.7344C83.9983 20.112 84.0073 20.4455 84.0246 20.7343L84.0178 20.7412H82.8582L82.8445 20.7343V19.5611L82.8513 19.1409C82.8513 18.883 82.7909 18.6604 82.6712 18.4739C82.5646 18.3405 82.4354 18.2738 82.2841 18.2738C82 18.2738 81.813 18.4335 81.7238 18.7544C81.7064 18.8605 81.6975 18.9655 81.6975 19.0674C81.6975 19.4854 81.8356 19.7412 82.1108 19.8342C82.1597 19.8473 82.2085 19.8536 82.2579 19.8536H82.3109C82.3645 19.8536 82.4375 19.8342 82.531 19.7937V20.5542C82.3577 20.7275 82.1266 20.8142 81.8377 20.8142C81.4507 20.8142 81.1109 20.6277 80.8178 20.2538C80.5773 19.9114 80.4575 19.5096 80.4575 19.0469V18.9471C80.4575 18.4319 80.6198 18.0097 80.9438 17.6809C81.1881 17.454 81.4801 17.34 81.8172 17.34C82.2216 17.34 82.5346 17.4755 82.7568 17.7471H82.7704V15.9467L82.7846 15.9336Z" fill="#525252"></path><path d="M87.8851 20.6607C87.694 20.7542 87.3941 20.801 86.9855 20.801C86.4383 20.801 86.005 20.6497 85.6846 20.3472C85.3648 20.0494 85.2046 19.6403 85.2046 19.1204C85.2046 18.6267 85.3669 18.2202 85.6914 17.9004C86.0381 17.5579 86.5181 17.3867 87.1315 17.3867C87.4119 17.3867 87.6625 17.4245 87.8851 17.5002L87.7187 18.3798C87.59 18.3268 87.4167 18.3005 87.1982 18.3005C86.683 18.3005 86.4299 18.5605 86.4383 19.0804C86.4383 19.3341 86.5181 19.5316 86.6777 19.6739C86.8206 19.8031 87.0049 19.8672 87.2313 19.8672C87.4361 19.8672 87.611 19.8388 87.7581 19.781L87.8851 20.6607Z" fill="#525252"></path><path d="M90.4188 17.3608H90.5054C90.9765 17.3608 91.3457 17.4853 91.612 17.7342C91.7501 17.8766 91.8394 18.01 91.8782 18.1344C91.9628 18.3078 92.0053 18.5766 92.0053 18.9417V20.0414C92.0053 20.3302 92.0227 20.5655 92.0584 20.7483L92.0516 20.7551H90.9581C90.9492 20.7551 90.9271 20.6595 90.8914 20.4684H90.8652C90.6467 20.7089 90.3473 20.8292 89.965 20.8292H89.9319C89.5711 20.8292 89.2828 20.6953 89.0648 20.429C88.9178 20.2373 88.8442 20.033 88.8442 19.815V19.762C88.8442 19.2547 89.1068 18.9175 89.631 18.7489C89.8936 18.678 90.1798 18.6418 90.4907 18.6418H90.4975V19.2552C90.4975 19.2599 90.4419 19.2751 90.331 19.3019C90.1351 19.3776 90.038 19.4999 90.038 19.6685C90.038 19.8282 90.1152 19.9306 90.2712 19.9757L90.3647 19.9826H90.3909C90.5689 19.9826 90.7071 19.8849 90.8042 19.689C90.8132 19.6312 90.8179 19.5314 90.8179 19.3891V18.8755C90.8179 18.5908 90.7774 18.4154 90.6976 18.3487C90.6089 18.2421 90.4639 18.1885 90.2643 18.1885H90.2045C89.9382 18.1885 89.6336 18.2689 89.2906 18.4285C89.2864 18.4196 89.2155 18.1644 89.0774 17.6623C89.4739 17.4611 89.9203 17.3608 90.4188 17.3608Z" fill="#525252"></path><path d="M93.3324 19.7206C93.6034 19.8856 93.9059 19.9675 94.2389 19.9675C94.4789 19.9675 94.5986 19.9071 94.5986 19.7873C94.5986 19.6939 94.4563 19.6009 94.1722 19.5069C93.8298 19.4003 93.5766 19.2532 93.4117 19.0668C93.2689 18.9029 93.2006 18.716 93.2048 18.5069C93.2048 18.1776 93.3335 17.9087 93.5919 17.7002C93.8581 17.487 94.2053 17.3799 94.6323 17.3799C94.8182 17.3799 95.0057 17.3998 95.1921 17.4403C95.3476 17.4713 95.4857 17.5133 95.6054 17.5668L95.4122 18.3804C95.3187 18.3362 95.2121 18.2963 95.0923 18.2606C94.9411 18.2202 94.8056 18.2002 94.6858 18.2002C94.4684 18.2002 94.3586 18.2627 94.3586 18.3872C94.3586 18.4807 94.5235 18.5805 94.8523 18.6871C95.4437 18.8782 95.7435 19.2159 95.7525 19.7002C95.7525 20.0289 95.6301 20.2915 95.3859 20.4869C95.1186 20.6959 94.741 20.801 94.2525 20.801C93.803 20.801 93.428 20.7232 93.1255 20.5672L93.3324 19.7206Z" fill="#525252"></path><path d="M98.3132 16.52V17.4538H98.9933V18.334H98.3132V19.2736C98.3132 19.6386 98.4403 19.8203 98.6929 19.8203C98.8174 19.8203 98.9135 19.8114 98.9797 19.7935V20.7073C98.8153 20.7693 98.5774 20.8008 98.2665 20.8008C97.9198 20.8008 97.6462 20.7005 97.4461 20.5009C97.2413 20.2961 97.1394 19.9568 97.1394 19.4805V18.334H96.7329V17.4538H97.1394V16.8399L98.3132 16.52Z" fill="#525252"></path><path d="M102.327 19.5345C102.479 19.6143 102.649 19.6795 102.841 19.7278C103.067 19.7855 103.285 19.8144 103.494 19.8144C103.903 19.8144 104.107 19.6921 104.107 19.4473C104.107 19.2651 103.872 19.0944 103.4 18.9342C102.996 18.7872 102.689 18.6117 102.48 18.4069C102.249 18.1758 102.133 17.9006 102.133 17.5803C102.133 17.1717 102.294 16.8382 102.614 16.5803C102.942 16.3093 103.385 16.1738 103.94 16.1738C104.189 16.1738 104.423 16.1964 104.641 16.2405C104.823 16.2762 104.994 16.3298 105.154 16.4007L104.9 17.3671C104.874 17.3539 104.847 17.3429 104.821 17.334C104.79 17.3203 104.759 17.3093 104.728 17.3004C104.657 17.2688 104.583 17.2447 104.508 17.2274C104.316 17.1785 104.123 17.1538 103.927 17.1538C103.55 17.1538 103.361 17.2652 103.361 17.4878C103.361 17.6344 103.629 17.8098 104.167 18.0141C104.946 18.3029 105.335 18.7546 105.335 19.368C105.335 19.7813 105.179 20.1169 104.867 20.3748C104.53 20.6595 104.047 20.8018 103.42 20.8018C103.167 20.8018 102.911 20.7724 102.654 20.7146C102.423 20.6616 102.238 20.5991 102.101 20.5282L102.327 19.5345Z" fill="#525252"></path><path d="M109.381 20.3478C109.061 20.6593 108.628 20.8147 108.081 20.8147C107.579 20.8147 107.172 20.6614 106.861 20.3547C106.554 20.048 106.401 19.6499 106.401 19.1614C106.401 18.6368 106.561 18.2208 106.881 17.9141C107.166 17.6342 107.535 17.4787 107.988 17.4478V18.2944C107.744 18.3789 107.621 18.6567 107.621 19.1278C107.621 19.372 107.66 19.5695 107.735 19.7213C107.824 19.8946 107.95 19.9813 108.115 19.9813C108.297 19.9813 108.432 19.892 108.521 19.7145C108.601 19.5679 108.641 19.372 108.641 19.1278C108.641 18.6835 108.525 18.4099 108.295 18.3075V17.4478C108.756 17.4787 109.13 17.6389 109.415 17.9278C109.712 18.2256 109.861 18.6168 109.861 19.1016C109.861 19.6205 109.702 20.0364 109.381 20.3478Z" fill="#525252"></path><path d="M111.041 15.9941H112.248V20.7345H111.041V15.9941Z" fill="#525252"></path><path d="M116.896 19.6142C116.896 19.8269 116.898 20.0365 116.902 20.2413C116.907 20.401 116.914 20.5654 116.922 20.7339H115.882L115.829 20.3007H115.809C115.72 20.4341 115.613 20.5407 115.489 20.621C115.298 20.745 115.073 20.8075 114.815 20.8075C114.038 20.8075 113.649 20.3337 113.649 19.3868V17.4536H114.856V19.1936C114.856 19.6247 114.996 19.8406 115.276 19.8406C115.467 19.8406 115.596 19.7471 115.662 19.5607C115.68 19.5208 115.689 19.463 115.689 19.3868V17.4536H116.896V19.6142V19.6142Z" fill="#525252"></path><path d="M119.629 16.52V17.4538H120.309V18.334H119.629V19.2736C119.629 19.6386 119.756 19.8203 120.009 19.8203C120.133 19.8203 120.229 19.8114 120.296 19.7935V20.7073C120.131 20.7693 119.894 20.8008 119.583 20.8008C119.236 20.8008 118.963 20.7005 118.763 20.5009C118.558 20.2961 118.456 19.9568 118.456 19.4805V18.334H118.049V17.4538H118.456V16.8399L119.629 16.52Z" fill="#525252"></path><path d="M122.13 17.1133C121.726 17.1133 121.524 16.9253 121.524 16.5466C121.524 16.1643 121.728 15.9736 122.137 15.9736C122.537 15.9736 122.741 16.1643 122.75 16.5466C122.75 16.9247 122.545 17.1133 122.137 17.1133H122.13ZM121.53 20.7345V17.4541H122.737V20.7345H121.53Z" fill="#525252"></path><path d="M126.917 20.3478C126.597 20.6593 126.164 20.8147 125.617 20.8147C125.115 20.8147 124.708 20.6614 124.397 20.3547C124.09 20.048 123.937 19.6499 123.937 19.1614C123.937 18.6368 124.097 18.2208 124.417 17.9141C124.702 17.6342 125.07 17.4787 125.524 17.4478V18.2944C125.279 18.3789 125.157 18.6567 125.157 19.1278C125.157 19.372 125.195 19.5695 125.271 19.7213C125.359 19.8946 125.486 19.9813 125.651 19.9813C125.833 19.9813 125.968 19.892 126.057 19.7145C126.138 19.5679 126.177 19.372 126.177 19.1278C126.177 18.6835 126.061 18.4099 125.831 18.3075V17.4478C126.293 17.4787 126.666 17.6389 126.951 17.9278C127.249 18.2256 127.398 18.6168 127.398 19.1016C127.397 19.6205 127.237 20.0364 126.917 20.3478Z" fill="#525252"></path><path d="M128.577 18.5746C128.577 18.3745 128.575 18.1702 128.571 17.9606L128.551 17.4543H129.591L129.644 17.8745H129.664C129.699 17.8209 129.741 17.77 129.79 17.7211C129.853 17.6639 129.921 17.6103 129.997 17.5615C130.193 17.4412 130.41 17.3813 130.65 17.3813C131.442 17.3813 131.838 17.8551 131.838 18.802V20.7352H130.631V18.9485C130.631 18.5488 130.491 18.3487 130.211 18.3487C130.104 18.3487 130.015 18.3803 129.945 18.4422C129.896 18.4916 129.853 18.5557 129.818 18.6355C129.795 18.6849 129.784 18.7642 129.784 18.8755V20.7357H128.577V18.5746V18.5746Z" fill="#525252"></path><path d="M133.178 19.7206C133.449 19.8856 133.752 19.9675 134.085 19.9675C134.325 19.9675 134.444 19.9071 134.444 19.7873C134.444 19.6939 134.302 19.6009 134.018 19.5069C133.675 19.4003 133.422 19.2532 133.258 19.0668C133.115 18.9029 133.047 18.716 133.051 18.5069C133.051 18.1776 133.18 17.9087 133.438 17.7002C133.704 17.487 134.051 17.3799 134.478 17.3799C134.664 17.3799 134.851 17.3998 135.038 17.4403C135.193 17.4713 135.331 17.5133 135.451 17.5668L135.258 18.3804C135.164 18.3362 135.058 18.2963 134.938 18.2606C134.787 18.2202 134.651 18.2002 134.532 18.2002C134.314 18.2002 134.204 18.2627 134.204 18.3872C134.204 18.4807 134.369 18.5805 134.698 18.6871C135.289 18.8782 135.589 19.2159 135.598 19.7002C135.598 20.0289 135.476 20.2915 135.232 20.4869C134.964 20.6959 134.587 20.801 134.098 20.801C133.649 20.801 133.274 20.7232 132.971 20.5672L133.178 19.7206Z" fill="#525252"></path><path d="M27.7079 22.3794C29.0959 21.3442 29.1794 21.2823 29.9478 20.5512C30.3889 20.0911 30.9735 19.4725 31.3868 18.9877C27.2872 16.324 4.73879 14.1213 6.50184 20.2272C6.56749 20.4525 6.6657 20.6877 6.9367 21.1042C8.54062 22.3384 10.3835 23.33 12.4218 24.0001C9.98646 23.0978 9.86304 21.8799 11.1508 21.2234C14.7068 19.411 25.6859 21.86 27.0766 22.7423C27.0803 22.7559 27.0834 22.7743 27.086 22.7874L27.7079 22.3794Z" fill="url(#paint0_linear_120_40)"></path><path d="M33.4111 15.8876C34.1936 14.1949 34.2241 14.1287 34.5476 13.1109C34.7041 12.5321 34.9168 11.7612 35.0392 11.1761C28.2054 8.52547 1.42036 5.24673 1.6089 14.4722C2.43502 16.2436 3.5605 17.8875 4.94489 19.3218C2.24963 11.5117 26.8552 14.1035 32.7168 16.7489C32.7693 16.7725 32.835 16.8124 32.8859 16.8392L33.4111 15.8876Z" fill="url(#paint1_linear_120_40)"></path><path d="M35.3545 7.07373C35.2116 5.28757 35.2053 5.21824 34.9979 4.1978C34.8934 3.7724 34.7663 3.20205 34.6428 2.78242C30.7417 0.574536 2.8128 -3.56604 0.0350845 6.2224C-0.0946368 8.20393 0.138021 10.1708 0.688943 12.0425C1.79394 2.18476 30.6041 6.35475 35.3524 8.52903V8.5306C35.3545 8.09312 35.3802 7.50964 35.3545 7.07373Z" fill="url(#paint2_linear_120_40)"></path><defs><linearGradient id="paint0_linear_120_40" x1="6.40453" y1="20.1546" x2="31.3874" y2="20.1546" gradientUnits="userSpaceOnUse"><stop stop-color="#6F6F6F"></stop><stop offset="1" stop-color="#343434"></stop></linearGradient><linearGradient id="paint1_linear_120_40" x1="35.0396" y1="13.8471" x2="1.60838" y2="13.8471" gradientUnits="userSpaceOnUse"><stop stop-color="#202020"></stop><stop offset="0.2963" stop-color="#505050"></stop><stop offset="0.6914" stop-color="#4A4A4A"></stop><stop offset="1" stop-color="#7E7E7E"></stop></linearGradient><linearGradient id="paint2_linear_120_40" x1="35.3662" y1="6.02173" x2="0.000999158" y2="6.02173" gradientUnits="userSpaceOnUse"><stop stop-color="#4B4B4B"></stop><stop offset="0.2963" stop-color="#6A6A6A"></stop><stop offset="0.6914" stop-color="#3A3A3A"></stop><stop offset="1" stop-color="#1A1A1A"></stop></linearGradient></defs></svg>