<svg width="45" height="46" viewBox="0 0 45 46" fill="none" xmlns="http://www.w3.org/2000/svg">
<g clip-path="url(#clip0_98_5842)">
<path d="M44.4875 36.4399C44.2727 37.4331 43.9593 38.3858 43.2997 39.192C42.2585 40.4656 40.9317 41.2617 39.2788 41.292C36.1374 41.3476 32.9961 41.3122 29.8572 41.3148C29.8143 41.3148 29.7738 41.2996 29.6929 41.2844V37.6327H30.2136C33.0213 37.6327 35.8291 37.6327 38.6369 37.6327C40.0547 37.6327 40.7724 36.915 40.7724 35.5023C40.7724 27.1375 40.7724 18.7726 40.7724 10.4078C40.7724 10.2536 40.7724 10.097 40.7724 9.91501H3.73551V20.9763C2.28234 20.9915 1.07684 21.5247 0.0078125 22.394C0.0078125 16.7585 0.0078125 11.123 0.0078125 5.48745C0.0330851 5.42175 0.0709939 5.35857 0.0836302 5.29034C0.386901 3.5643 1.29166 2.23502 2.81812 1.38843C3.44741 1.03968 4.18536 0.877945 4.87278 0.632812C16.4552 0.632812 28.0401 0.632812 39.6225 0.632812C39.7034 0.660611 39.7792 0.695991 39.8626 0.713681C42.1245 1.17362 43.5853 2.51806 44.2853 4.70151C44.3687 4.95928 44.4218 5.22716 44.4875 5.48998V36.4424V36.4399Z" fill="#4FA83D"/>
<path d="M0.0078125 25.9496C0.033085 25.9016 0.0709939 25.8535 0.0836301 25.803C0.541063 23.9304 1.93358 22.8311 3.87704 22.8311C10.175 22.8286 16.4704 22.8311 22.7683 22.8311C23.3622 22.8311 23.9611 22.7907 24.5475 22.8665C26.4707 23.1141 27.8 24.638 27.8051 26.5814C27.8152 30.0764 27.8076 33.574 27.8076 37.069C27.8076 38.4412 27.8101 39.8135 27.8076 41.1857C27.8 43.4222 26.2154 45.0219 23.9864 45.0219C17.269 45.027 10.5515 45.027 3.8366 45.0219C1.93863 45.0219 0.541063 43.9024 0.0861574 42.05C0.0735211 41.9969 0.0356123 41.9514 0.0103398 41.9034C0.0103398 36.5863 0.0103398 31.2692 0.0103398 25.9496H0.0078125ZM3.72288 30.2457C3.72288 30.415 3.72288 30.5414 3.72288 30.6703C3.72288 33.8343 3.72288 36.9957 3.72288 40.1597C3.72288 41.0215 4.02615 41.3171 4.90816 41.3171C10.9003 41.3171 16.8924 41.3171 22.8845 41.3171C23.812 41.3171 24.0926 41.0341 24.0951 40.0965C24.0951 36.9755 24.0951 33.857 24.0951 30.736C24.0951 30.5818 24.0951 30.4251 24.0951 30.2457H3.72288Z" fill="#CADFBD"/>
<path d="M31.552 17.2568C31.8274 16.9358 32.0498 16.6503 32.3 16.3925C33.0481 15.6293 33.8088 14.8762 34.567 14.1231C35.2493 13.4458 36.0909 13.3953 36.6747 13.9968C37.2535 14.5881 37.2029 15.4069 36.5433 16.0716C35.636 16.9813 34.7237 17.8886 33.8139 18.7983C33.7128 18.8994 33.6167 19.0056 33.4676 19.1622C33.872 19.554 34.2612 19.9356 34.658 20.307C35.1609 20.7771 35.3707 21.3331 35.0952 21.9851C34.8273 22.6194 34.294 22.8418 33.6243 22.8342C32.2065 22.8215 30.7887 22.8342 29.371 22.8291C28.3651 22.8291 27.8066 22.2782 27.8066 21.2825C27.8041 19.8395 27.8041 18.3965 27.8066 16.951C27.8066 16.251 28.1073 15.7557 28.676 15.5408C29.28 15.3134 29.8107 15.4575 30.258 15.9174C30.6599 16.3293 31.0592 16.7463 31.5494 17.2543L31.552 17.2568Z" fill="#4FA83D"/>
<path d="M3.72128 30.2461H24.091C24.091 30.4255 24.091 30.5822 24.091 30.7364C24.091 33.8574 24.091 36.9759 24.091 40.0969C24.091 41.0345 23.8104 41.3175 22.8804 41.3175C16.8883 41.3175 10.8962 41.3175 4.90403 41.3175C4.01949 41.3175 3.71875 41.0244 3.71875 40.1601C3.71875 36.9961 3.71875 33.8346 3.71875 30.6707C3.71875 30.5418 3.71875 30.4129 3.71875 30.2461H3.72128Z" fill="#4FA83D"/>
</g>
<defs>
<clipPath id="clip0_98_5842">
<rect width="44.4797" height="44.3918" fill="white" transform="translate(0 0.632812)"/>
</clipPath>
</defs>
</svg>
