<svg width="61" height="60" viewBox="0 0 61 60" fill="none" xmlns="http://www.w3.org/2000/svg">
<g clip-path="url(#clip0_98_5852)">
<path d="M9.18426 38.192C9.18426 37.9478 9.18426 37.73 9.18426 37.51C9.18426 30.1289 9.18426 22.7456 9.18426 15.3644C9.18426 13.094 10.3635 11.323 12.3457 10.6674C12.8539 10.5002 13.4105 10.3968 13.9451 10.3968C24.6855 10.3814 35.4259 10.3792 46.1663 10.388C48.8569 10.3902 50.9315 12.456 50.936 15.1576C50.9492 24.84 50.9492 34.5246 50.936 44.2069C50.9315 46.8954 48.8371 48.9502 46.1399 48.9524C39.3727 48.9612 32.6033 48.9546 25.8361 48.9546H25.1519C25.1519 49.1614 25.1519 49.3396 25.1519 49.52C25.1519 51.6167 25.1321 53.7133 25.1629 55.8099C25.1739 56.6349 24.8351 57.2136 24.1707 57.6404C23.1345 58.3092 21.9619 58.6304 20.7717 58.8416C15.6017 59.7546 10.4295 59.7898 5.28585 58.659C4.40145 58.4654 3.54345 58.0826 2.72064 57.6888C1.95944 57.3236 1.62064 56.6702 1.62504 55.7747C1.65144 51.1041 1.64924 46.4334 1.62724 41.7605C1.62284 40.7551 2.03644 40.0753 2.90765 39.6265C4.30905 38.9026 5.83365 38.6408 7.36926 38.4186C7.95666 38.335 8.54626 38.2668 9.17986 38.1876L9.18426 38.192ZM25.1519 45.1442C25.3653 45.153 25.5325 45.1684 25.6997 45.1684C32.2271 45.1684 38.7545 45.1684 45.2819 45.1684C46.5403 45.1684 47.1453 44.5523 47.1453 43.2719C47.1453 36.2318 47.1453 29.1939 47.1453 22.1538C47.1453 20.8667 46.5601 20.2771 45.2753 20.2771C42.4285 20.2771 39.5817 20.2771 36.7371 20.2771C33.5669 20.2771 30.3967 20.2639 27.2265 20.2859C26.3333 20.2925 25.6909 19.9911 25.2685 19.1837C24.9473 18.5655 24.5359 17.9935 24.2103 17.3775C23.8011 16.5965 23.1983 16.2665 22.3095 16.2775C19.8213 16.3083 17.3331 16.2863 14.8449 16.2885C13.5491 16.2885 12.9771 16.8627 12.9771 18.1563C12.9771 24.5826 12.9771 31.0067 12.9771 37.433V37.9148C14.9175 38.0534 16.7875 38.1458 18.6487 38.3284C20.3603 38.4956 22.0565 38.7838 23.6471 39.5055C24.6855 39.9763 25.2289 40.7155 25.1629 41.9057C25.1035 42.9727 25.1497 44.0441 25.1497 45.142L25.1519 45.1442ZM23.6119 43.0871C16.7611 44.8559 9.98506 44.8625 3.17605 43.0739C3.17605 44.8405 3.18925 46.6798 3.16505 48.5168C3.16065 48.9062 3.30145 49.1482 3.63365 49.267C4.35305 49.5222 5.06585 49.8236 5.80945 49.9732C10.6209 50.9523 15.4521 50.9611 20.2789 50.1074C21.2403 49.938 22.1731 49.5772 23.0993 49.2538C23.3083 49.1812 23.5855 48.8908 23.5899 48.695C23.6273 46.8052 23.6119 44.9153 23.6119 43.0871ZM3.17605 50.862C3.17605 52.4439 3.18925 54.0939 3.16725 55.7439C3.16065 56.1487 3.29705 56.4149 3.65565 56.5337C4.52685 56.8198 5.38925 57.1608 6.28465 57.3324C10.6627 58.164 15.0649 58.1772 19.4627 57.5172C20.6639 57.3368 21.8321 56.9232 23.0047 56.5821C23.4249 56.4589 23.6383 56.1685 23.6273 55.6625C23.5899 54.1797 23.6141 52.6969 23.6119 51.2119C23.6119 51.0689 23.5921 50.9258 23.5877 50.8752C16.7633 52.7431 9.99166 52.7409 3.17605 50.862ZM40.3033 14.0158C39.3969 14.0026 38.6489 14.7374 38.6379 15.6526C38.6269 16.5679 39.3529 17.3203 40.2615 17.3335C41.1591 17.3467 41.9247 16.5965 41.9379 15.6944C41.9489 14.7946 41.2031 14.029 40.3033 14.0136V14.0158ZM43.3393 15.6835C43.3415 16.5965 44.0873 17.3401 44.9915 17.3335C45.8891 17.3269 46.6459 16.5635 46.6415 15.6658C46.6371 14.7726 45.8671 14.0092 44.9761 14.0136C44.0697 14.018 43.3371 14.766 43.3415 15.6812L43.3393 15.6835ZM33.9365 15.6812C33.9365 16.5943 34.6801 17.3379 35.5865 17.3357C36.4885 17.3313 37.2365 16.5767 37.2343 15.6724C37.2321 14.7704 36.4753 14.0158 35.5755 14.018C34.6691 14.0202 33.9343 14.766 33.9365 15.6812Z" fill="#328422"/>
<path d="M25.1492 45.146C25.1492 44.046 25.103 42.9746 25.1624 41.9097C25.2284 40.7173 24.6828 39.9803 23.6466 39.5095C22.056 38.7879 20.362 38.5019 18.6482 38.3325C16.787 38.1499 14.917 38.0553 12.9766 37.9189V37.4371C12.9766 31.0108 12.9766 24.5867 12.9766 18.1603C12.9766 16.8689 13.5486 16.2947 14.8444 16.2925C17.3326 16.2903 19.8208 16.3123 22.309 16.2815C23.1978 16.2705 23.8006 16.6005 24.2098 17.3815C24.5332 17.9997 24.9446 18.5696 25.268 19.1878C25.6904 19.9952 26.3328 20.2966 27.226 20.29C30.3962 20.2658 33.5664 20.2812 36.7366 20.2812C39.5834 20.2812 42.4302 20.2812 45.2748 20.2812C46.5574 20.2812 47.1448 20.8708 47.1448 22.1578C47.1448 29.1979 47.1448 36.2359 47.1448 43.276C47.1448 44.5564 46.5398 45.1724 45.2814 45.1724C38.754 45.1724 32.2266 45.1724 25.6992 45.1724C25.532 45.1724 25.367 45.1592 25.1514 45.1482L25.1492 45.146ZM30.0596 32.1988C34.2198 32.1988 38.38 32.1988 42.5402 32.1988C43.9548 32.1988 44.4278 31.7214 44.4278 30.287C44.4278 28.4631 44.4278 26.6371 44.4278 24.8133C44.4278 23.5658 43.9064 23.0422 42.6568 23.04C34.2506 23.04 25.8444 23.04 17.4382 23.04C16.2084 23.04 15.6694 23.5878 15.6672 24.8243C15.665 26.6833 15.665 28.5423 15.6672 30.3992C15.6672 31.6642 16.204 32.1944 17.4756 32.1966C21.671 32.1966 25.8642 32.1966 30.0596 32.1966V32.1988ZM37.797 42.8536C39.4338 42.8536 41.0684 42.858 42.7052 42.8536C43.88 42.8492 44.4256 42.3036 44.4278 41.1331C44.4322 39.2235 44.4322 37.3161 44.4278 35.4064C44.4256 34.2338 43.8866 33.686 42.7074 33.686C39.469 33.6794 36.2306 33.6794 32.9922 33.686C31.8482 33.6882 31.2982 34.2448 31.296 35.38C31.2916 37.3051 31.2916 39.2323 31.296 41.1573C31.296 42.2904 31.8526 42.8492 32.99 42.8536C34.5916 42.8602 36.1932 42.8536 37.797 42.8536ZM21.9416 36.7067C23.7654 36.7067 25.5892 36.7111 27.413 36.7045C27.9498 36.7045 28.271 36.4229 28.2908 35.9806C28.3106 35.5274 27.9652 35.2018 27.4284 35.1688C27.3426 35.1644 27.259 35.1688 27.1732 35.1688C23.695 35.1688 20.2168 35.1688 16.7386 35.1688C16.5692 35.1688 16.3954 35.1666 16.2304 35.2018C15.7992 35.2942 15.555 35.6484 15.6254 36.0665C15.7112 36.5681 16.0588 36.7111 16.5186 36.7089C18.3248 36.7045 20.1332 36.7089 21.9394 36.7089L21.9416 36.7067Z" fill="#C9E2BB"/>
<path d="M23.611 43.0874C23.611 44.9156 23.6264 46.8055 23.589 48.6953C23.5846 48.8911 23.3096 49.1793 23.0984 49.2541C22.1722 49.5797 21.2394 49.9383 20.278 50.1077C15.4512 50.9614 10.62 50.9526 5.80857 49.9735C5.06497 49.8217 4.35217 49.5225 3.63276 49.2673C3.30056 49.1485 3.15976 48.9087 3.16416 48.5171C3.18616 46.6801 3.17516 44.8408 3.17516 43.0742C9.98418 44.8628 16.7602 44.8562 23.611 43.0874ZM4.18496 46.6757C4.18496 47.3027 4.70197 47.8307 5.30917 47.8219C5.91197 47.8153 6.44217 47.2697 6.43557 46.6625C6.42897 46.0641 5.92737 45.5691 5.32237 45.5603C4.68437 45.5493 4.18496 46.0399 4.18496 46.6757Z" fill="#4FA83D"/>
<path d="M3.17309 50.8594C9.98651 52.7382 16.7581 52.7382 23.5847 50.8726C23.5891 50.9254 23.6089 51.0684 23.6089 51.2092C23.6111 52.692 23.5869 54.177 23.6243 55.6599C23.6375 56.1659 23.4241 56.4563 23.0017 56.5795C21.8291 56.9205 20.6609 57.3341 19.4597 57.5145C15.0641 58.1745 10.6597 58.1613 6.2817 57.3297C5.38629 57.1603 4.52389 56.8171 3.65269 56.5311C3.29409 56.4123 3.15769 56.1461 3.16429 55.7413C3.18849 54.0912 3.17309 52.4412 3.17309 50.8594ZM4.18289 54.628C4.17409 55.2639 4.67129 55.7853 5.28949 55.7919C5.8923 55.7985 6.4291 55.2617 6.4335 54.65C6.4357 54.0538 5.9407 53.5456 5.33789 53.528C4.69989 53.5082 4.19169 53.9922 4.18289 54.628Z" fill="#4FA83D"/>
<path d="M40.3062 14.0156C41.206 14.0288 41.9518 14.7966 41.9408 15.6965C41.9298 16.5985 41.162 17.3465 40.2644 17.3355C39.3558 17.3223 38.6297 16.5721 38.6407 15.6547C38.6517 14.7394 39.3997 14.0024 40.3062 14.0178V14.0156Z" fill="#C9E2BB"/>
<path d="M43.3381 15.6833C43.3359 14.7681 44.0685 14.02 44.9727 14.0156C45.8637 14.0112 46.6337 14.7747 46.6381 15.6679C46.6425 16.5633 45.8879 17.3289 44.9881 17.3355C44.0839 17.3421 43.3381 16.5963 43.3359 15.6855L43.3381 15.6833Z" fill="#C9E2BB"/>
<path d="M33.9375 15.6789C33.9375 14.7636 34.6701 14.0178 35.5765 14.0156C36.4763 14.0134 37.2309 14.768 37.2353 15.6701C37.2375 16.5743 36.4895 17.3289 35.5875 17.3333C34.6833 17.3377 33.9397 16.5919 33.9375 15.6789Z" fill="#C9E2BB"/>
<path d="M30.0581 32.1956C25.8627 32.1956 21.6695 32.1956 17.4741 32.1956C16.2047 32.1956 15.6679 31.6632 15.6657 30.3982C15.6635 28.5392 15.6635 26.6801 15.6657 24.8233C15.6657 23.5869 16.2069 23.0391 17.4367 23.0391C25.8429 23.0391 34.2492 23.0391 42.6554 23.0391C43.9028 23.0391 44.4242 23.5649 44.4264 24.8123C44.4286 26.6361 44.4264 28.4622 44.4264 30.286C44.4264 31.7182 43.9534 32.1978 42.5388 32.1978C38.3786 32.1978 34.2184 32.1978 30.0581 32.1978V32.1956ZM28.3971 27.0827C28.3971 27.0827 28.3949 27.0827 28.3927 27.0827C28.3927 27.4919 28.3795 27.8989 28.3949 28.3082C28.4235 29.0452 28.9669 29.3422 29.5763 28.9462C30.1747 28.5568 30.7621 28.1476 31.3363 27.7251C31.8313 27.3621 31.8467 26.8561 31.3649 26.4975C30.7643 26.0509 30.1483 25.6241 29.5191 25.2215C28.9823 24.8783 28.4389 25.1687 28.3993 25.8067C28.3729 26.2313 28.3949 26.6581 28.3949 27.0827H28.3971Z" fill="#4FA83D"/>
<path d="M37.7934 42.8522C36.1918 42.8522 34.5902 42.8566 32.9864 42.8522C31.849 42.8478 31.2946 42.289 31.2924 41.156C31.288 39.2309 31.288 37.3037 31.2924 35.3787C31.2924 34.2456 31.8446 33.6868 32.9886 33.6846C36.227 33.678 39.4654 33.678 42.7038 33.6846C43.883 33.6846 44.422 34.2324 44.4242 35.4051C44.4286 37.3147 44.4286 39.2221 44.4242 41.1318C44.422 42.3044 43.8786 42.8478 42.7016 42.8522C41.0648 42.8588 39.4302 42.8522 37.7934 42.8522ZM37.4854 38.9119C37.3248 38.6369 37.2082 38.4323 37.0872 38.2299C36.7418 37.6469 36.4206 37.6381 36.0884 38.2101C35.6616 38.9449 35.2436 39.6863 34.83 40.4278C34.5198 40.9844 34.6826 41.2792 35.303 41.2814C37.0388 41.288 38.7746 41.288 40.5126 41.2814C41.1286 41.2814 41.3068 40.9756 41.0032 40.43C40.44 39.4201 39.8702 38.4147 39.2916 37.4137C38.9968 36.9055 38.6448 36.9055 38.3456 37.4093C38.0684 37.8757 37.8066 38.3509 37.4876 38.9097L37.4854 38.9119ZM36.5152 35.3589C36.106 35.3435 35.809 35.6141 35.7848 35.9749C35.7584 36.3665 36.0312 36.6745 36.4184 36.6855C36.7946 36.6987 37.1312 36.3907 37.1114 36.0233C37.0894 35.6295 36.8562 35.4095 36.5152 35.3567V35.3589Z" fill="black"/>
<path d="M21.9432 36.7051C20.137 36.7051 18.3286 36.7029 16.5224 36.7051C16.0626 36.7051 15.7128 36.5621 15.6292 36.0627C15.5588 35.6424 15.803 35.2904 16.2342 35.198C16.3992 35.1628 16.573 35.165 16.7424 35.165C20.2206 35.165 23.6988 35.165 27.177 35.165C27.2628 35.165 27.3486 35.1628 27.4322 35.165C27.969 35.198 28.3144 35.5236 28.2946 35.9769C28.2748 36.4213 27.9536 36.6985 27.4168 36.7007C25.593 36.7073 23.7692 36.7029 21.9454 36.7029L21.9432 36.7051Z" fill="black"/>
<path d="M4.1875 46.678C4.1875 46.0422 4.6869 45.5538 5.3249 45.5626C5.9299 45.5714 6.42931 46.0686 6.43811 46.6648C6.44691 47.272 5.9167 47.8177 5.3117 47.8243C4.7045 47.8309 4.1875 47.3028 4.1875 46.678Z" fill="black"/>
<path d="M4.18762 54.6317C4.19642 53.9959 4.70242 53.5141 5.34262 53.5317C5.94542 53.5493 6.44042 54.0575 6.43822 54.6537C6.43602 55.2653 5.89702 55.8022 5.29422 55.7956C4.67602 55.789 4.17882 55.2675 4.18762 54.6317Z" fill="black"/>
<path d="M28.3992 27.0851C28.3992 26.6605 28.3772 26.2336 28.4036 25.809C28.4432 25.171 28.9866 24.8806 29.5234 25.2238C30.1526 25.6264 30.7686 26.0532 31.3692 26.4999C31.851 26.8585 31.8356 27.3645 31.3406 27.7275C30.7642 28.1499 30.1768 28.5569 29.5806 28.9485C28.9712 29.3445 28.4278 29.0475 28.3992 28.3105C28.3838 27.9035 28.397 27.4943 28.397 27.0851C28.397 27.0851 28.3992 27.0851 28.4014 27.0851H28.3992Z" fill="#161617"/>
<path d="M37.4904 38.9129C37.8094 38.3541 38.0712 37.8789 38.3484 37.4125C38.6476 36.9087 39.0018 36.9087 39.2944 37.4169C39.873 38.4179 40.445 39.4233 41.006 40.4331C41.3096 40.9765 41.1314 41.2823 40.5154 41.2845C38.7796 41.2889 37.0438 41.2911 35.3058 41.2845C34.6854 41.2845 34.5226 40.9875 34.8328 40.4309C35.2464 39.6873 35.6644 38.9481 36.0912 38.2133C36.4234 37.6391 36.7446 37.6501 37.09 38.2331C37.211 38.4355 37.3276 38.6401 37.4882 38.9151L37.4904 38.9129Z" fill="#4FA83D"/>
<path d="M36.5134 35.3594C36.8544 35.4122 37.0876 35.6322 37.1096 36.026C37.1316 36.3956 36.7928 36.7014 36.4166 36.6882C36.0294 36.675 35.7566 36.3692 35.783 35.9776C35.8072 35.6168 36.1042 35.3462 36.5134 35.3616V35.3594Z" fill="#4FA83D"/>
<path d="M44.8258 56.639C46.0204 56.606 47.1512 56.463 48.2402 56.1132C53.7666 54.34 57.071 50.5867 58.1534 44.893C58.2788 44.2352 58.281 43.551 58.3206 42.88C58.3536 42.3388 58.6616 41.9868 59.1236 42.0088C59.5768 42.0286 59.8606 42.374 59.8584 42.9042C59.832 49.8387 55.0316 56.001 48.2996 57.6885C47.1732 57.9701 46.0094 58.0933 44.8654 58.2891C44.894 58.3265 44.9754 58.4211 45.0458 58.5223C45.2658 58.8347 45.2306 59.2527 44.9688 59.5145C44.7048 59.7785 44.2604 59.8401 43.9832 59.5827C43.4002 59.0437 42.8348 58.4827 42.2936 57.8997C42.0076 57.5939 42.067 57.1912 42.386 56.8612C42.8568 56.3772 43.3364 55.902 43.816 55.429C44.1746 55.0748 44.6212 55.044 44.9424 55.3366C45.2636 55.6292 45.268 56.0714 44.9534 56.4674C44.9182 56.5114 44.8874 56.5576 44.8258 56.6412V56.639Z" fill="#C9E2BB"/>
<path d="M15.7854 2.04078C15.6952 1.93958 15.6006 1.84498 15.517 1.74158C15.2288 1.38517 15.2398 0.905561 15.5412 0.582156C15.8382 0.26315 16.364 0.183949 16.6918 0.487554C17.354 1.10136 17.9898 1.74158 18.6058 2.40159C18.8984 2.71619 18.8566 3.1892 18.5398 3.52141C17.9832 4.10662 17.4112 4.67643 16.8326 5.23743C16.4542 5.60484 15.968 5.62244 15.6116 5.31884C15.2398 5.00203 15.2112 4.52242 15.5346 4.07142C15.5654 4.02961 15.5962 3.98561 15.6886 3.85801C15.2442 3.91961 14.879 3.96361 14.516 4.02301C14.1398 4.08462 13.757 4.13522 13.3896 4.23642C6.99197 6.00305 3.03636 10.1237 1.57996 16.5984C1.36655 17.5488 1.37095 18.5521 1.28295 19.5311C1.24335 19.9733 1.02995 20.2747 0.644953 20.3869C0.277552 20.4925 -0.136049 20.3605 -0.316449 20.0261C-0.408849 19.8545 -0.457249 19.6367 -0.452849 19.4409C-0.338449 13.8462 1.90776 9.2833 6.26157 5.79184C8.95217 3.63361 12.0608 2.44119 15.5016 2.13758C15.5698 2.13098 15.638 2.11998 15.704 2.10458C15.7282 2.09798 15.7458 2.07378 15.7876 2.04078H15.7854Z" fill="#C9E2BB"/>
</g>
<defs>
<clipPath id="clip0_98_5852">
<rect width="60.3109" height="59.4494" fill="white" transform="translate(0 0.320312)"/>
</clipPath>
</defs>
</svg>
