<svg width="89" height="49" viewBox="0 0 89 49" fill="none" xmlns="http://www.w3.org/2000/svg">
<path d="M36.6664 29.5851C36.0686 29.5851 35.5989 29.5621 35.1316 29.5915C34.5748 29.6248 34.3035 29.9589 34.3009 30.5848C34.2945 32.2015 34.2983 33.8182 34.2983 35.4348C34.2983 35.6 34.2983 35.7651 34.2983 35.952H33.4266C33.4177 35.8125 33.401 35.6793 33.401 35.5462C33.3997 33.9142 33.3959 32.2821 33.401 30.6501C33.4049 29.3714 34.0705 28.7032 35.3416 28.6904C35.7217 28.6865 36.1019 28.6904 36.6229 28.6904C36.308 28.3461 36.0763 28.0824 35.8357 27.8289C35.6129 27.5934 35.4005 27.3336 35.7 27.0443C36.0251 26.7307 36.2773 26.9841 36.5051 27.2312C36.9608 27.724 37.4076 28.2257 37.8773 28.7032C38.1858 29.0168 38.1999 29.2869 37.8889 29.603C37.3871 30.1138 36.9007 30.6411 36.4104 31.1634C36.1966 31.39 35.956 31.5064 35.6987 31.2568C35.444 31.0085 35.5528 30.7653 35.7678 30.54C36.0405 30.2559 36.3067 29.9653 36.6639 29.5826L36.6664 29.5851Z" fill="#CADFBD"/>
<path d="M36.6511 46.5338C36.0994 46.5338 35.677 46.5389 35.2533 46.5338C34.1115 46.5184 33.4164 45.8477 33.4062 44.7174C33.3921 43.0086 33.401 41.2984 33.4036 39.5896C33.4036 39.4872 33.4241 39.3848 33.4356 39.2734H34.2753C34.2843 39.4411 34.2984 39.6011 34.2984 39.7624C34.2996 41.365 34.2984 42.9676 34.3009 44.5689C34.3022 45.3651 34.58 45.6403 35.3749 45.648C35.7653 45.6518 36.1557 45.648 36.678 45.648C36.3247 45.2716 36.061 44.9862 35.7935 44.7059C35.5682 44.4703 35.4427 44.2118 35.7294 43.9558C35.9957 43.7177 36.2338 43.8598 36.4412 44.0825C36.9301 44.6073 37.4191 45.1308 37.9119 45.6518C38.1756 45.9296 38.2076 46.192 37.9222 46.4864C37.414 47.0138 36.9199 47.5552 36.4232 48.0928C36.2146 48.3194 35.9803 48.4551 35.7128 48.2157C35.4235 47.9546 35.5566 47.7037 35.7819 47.4682C36.0443 47.1942 36.2978 46.9114 36.6472 46.5325L36.6511 46.5338Z" fill="#CADFBD"/>
<path d="M33.8476 36.8633C34.2764 36.8671 34.6054 37.1922 34.6054 37.6121C34.6054 38.0255 34.2662 38.3596 33.8438 38.3596C33.4277 38.3596 33.0821 38.0166 33.086 37.6083C33.0898 37.1897 33.4265 36.8607 33.8476 36.8646V36.8633Z" fill="#CADFBD"/>
<path d="M88.0206 16.5805H42.8594V12.8466C42.8594 10.851 44.4773 9.23438 46.4717 9.23438H84.4071C86.4027 9.23438 88.0194 10.8523 88.0194 12.8466V16.5805H88.0206Z" fill="#161617"/>
<path d="M42.8594 16.582H88.0194V44.0527C88.0194 46.1724 86.299 47.8928 84.1792 47.8928H46.0595C44.293 47.8928 42.8594 46.4591 42.8594 44.6927V16.582Z" fill="#4FA83D"/>
<path d="M65.3864 28.2688C58.8108 28.2688 52.2365 28.265 45.6609 28.2778C45.2308 28.2778 45.09 28.1933 45.0938 27.7299C45.1194 25.2006 45.113 22.67 45.0989 20.1407C45.0964 19.7579 45.1681 19.6133 45.5982 19.6133C58.8223 19.6261 72.0464 19.6248 85.2693 19.6158C85.6495 19.6158 85.7698 19.7016 85.7672 20.0997C85.7493 22.6585 85.7468 25.2185 85.7672 27.7773C85.7711 28.2035 85.6252 28.2765 85.2424 28.2752C78.6233 28.265 72.0042 28.2675 65.3851 28.2675L65.3864 28.2688Z" fill="#161617"/>
<path d="M71.5042 37.7587C71.5042 39.817 71.4952 41.8766 71.5119 43.9349C71.5144 44.3061 71.4427 44.4405 71.0344 44.4379C67.2992 44.4213 63.5628 44.4213 59.8276 44.4379C59.427 44.4392 59.3438 44.3189 59.3438 43.94C59.3566 39.8221 59.3566 35.7043 59.3438 31.5877C59.3438 31.2152 59.4141 31.0847 59.8212 31.0859C63.5564 31.1026 67.2928 31.1026 71.028 31.0859C71.4287 31.0847 71.5144 31.2024 71.5119 31.5826C71.4939 33.6409 71.5029 35.7004 71.5029 37.7587H71.5042Z" fill="#CADFBD"/>
<path d="M57.2236 37.7767C57.2236 39.8363 57.2121 41.8946 57.2338 43.9541C57.2377 44.3535 57.1173 44.438 56.7385 44.4367C53.0174 44.4226 49.295 44.4239 45.5739 44.4367C45.2117 44.4367 45.1003 44.3407 45.1016 43.9708C45.1144 39.8376 45.1131 35.7044 45.1016 31.5724C45.1016 31.2243 45.172 31.0886 45.5573 31.0899C49.3078 31.1039 53.0596 31.1027 56.8101 31.0911C57.1404 31.0911 57.2326 31.182 57.23 31.5123C57.2159 33.6013 57.2223 35.689 57.2223 37.778L57.2236 37.7767Z" fill="#CADFBD"/>
<path d="M73.6484 37.7358C73.6484 35.6622 73.656 33.5885 73.6407 31.5149C73.6381 31.1872 73.7239 31.0925 74.058 31.0938C77.8226 31.1053 81.5885 31.1053 85.3531 31.0938C85.6987 31.0938 85.7653 31.2128 85.764 31.5277C85.755 35.6891 85.755 39.8504 85.764 44.0131C85.764 44.3446 85.6667 44.4342 85.3403 44.4342C81.5757 44.424 77.8098 44.4227 74.0452 44.4355C73.6944 44.4355 73.6394 44.31 73.642 44.0016C73.6535 41.9138 73.6484 39.8248 73.6484 37.7371V37.7358Z" fill="#161617"/>
<path d="M74.8902 14.8154C71.4187 14.8154 67.9459 14.809 64.4744 14.8243C64.1032 14.8256 64.0072 14.7207 64.0162 14.3584C64.0418 13.4035 64.0405 12.4461 64.0162 11.4899C64.0072 11.1366 64.1173 11.0521 64.4591 11.0521C68.3875 11.0636 72.3147 11.0598 76.2432 11.0598C79.259 11.0598 82.2747 11.0675 85.2905 11.0508C85.6848 11.0483 85.7885 11.1558 85.777 11.5424C85.7488 12.4832 85.7501 13.4253 85.777 14.3661C85.7872 14.7424 85.6656 14.8269 85.3059 14.8243C81.8344 14.8115 78.3616 14.8167 74.8902 14.8167V14.8154Z" fill="#CADFBD"/>
<path d="M51.125 12.9223C51.1301 11.7664 52.0825 10.8218 53.2384 10.8282C54.3853 10.8346 55.3492 11.8074 55.3376 12.9479C55.3261 14.0948 54.3507 15.0586 53.2128 15.0471C52.0607 15.0356 51.1199 14.0781 51.125 12.9223Z" fill="#93E080"/>
<path d="M49.2826 12.9492C49.3287 14.0078 48.4595 15.0203 47.191 15.042C46.0415 15.0612 45.1224 14.0871 45.125 12.9223C45.1276 11.7549 46.0671 10.8128 47.2166 10.8243C48.3763 10.8358 49.2852 11.769 49.2826 12.9479V12.9492Z" fill="#4FA83D"/>
<path d="M60.0753 12.9338C60.0049 12.8532 59.9524 12.7866 59.8922 12.7252C59.6644 12.4961 59.4353 12.2695 59.2074 12.0404C59.0577 11.8906 58.9757 11.7114 59.1332 11.536C59.2996 11.3517 59.4711 11.4452 59.6286 11.5885C59.9409 11.8701 60.1956 12.409 60.5489 12.3924C60.8587 12.377 61.1454 11.8829 61.4398 11.5988C61.5909 11.4528 61.7598 11.3504 61.9352 11.5296C62.1029 11.7012 62.0261 11.8804 61.8763 12.0314C61.6485 12.2605 61.4309 12.4999 61.1876 12.7111C60.9892 12.8839 61.0161 13.003 61.1979 13.1642C61.4283 13.369 61.6369 13.5969 61.8546 13.8145C62.0146 13.9745 62.1182 14.1575 61.925 14.347C61.7432 14.5262 61.5768 14.4046 61.4321 14.2599C61.2132 14.0423 60.9828 13.8363 60.7819 13.6046C60.6116 13.41 60.49 13.3716 60.3057 13.593C60.1098 13.8286 59.8743 14.0321 59.6554 14.2497C59.5133 14.3892 59.3546 14.5287 59.1626 14.3559C58.9616 14.1755 59.0513 13.9873 59.2125 13.8247C59.4391 13.5956 59.6695 13.369 59.8961 13.1386C59.9562 13.0785 60.0087 13.0106 60.0766 12.9326L60.0753 12.9338Z" fill="#CADFBD"/>
<path d="M14.5586 5.22515C18.6496 5.22515 22.7406 5.22771 26.8329 5.21875C27.0761 5.21875 27.1273 5.28531 27.126 5.51828C27.1184 8.99099 27.1209 12.4637 27.1209 15.9377C27.1209 16.8824 26.5782 17.4251 25.6322 17.4264C24.7272 17.4264 23.821 17.4225 22.916 17.4302C22.756 17.4302 22.6933 17.3982 22.6805 17.2216C22.4129 13.3853 19.4611 10.2377 15.6504 9.71165C11.3623 9.12027 7.28407 12.04 6.49812 16.2667C6.43796 16.5905 6.38036 16.9182 6.37908 17.2497C6.37908 17.379 6.3394 17.4315 6.19859 17.4302C5.20656 17.4238 4.21324 17.4405 3.22121 17.4213C2.48134 17.4059 1.94372 16.7979 1.94372 16.0158C1.94244 12.8912 1.94372 9.76669 1.94372 6.64086C1.94372 6.25813 1.9578 5.87412 1.9386 5.49268C1.92836 5.27635 1.98724 5.22003 2.20741 5.22131C4.82766 5.23027 7.44792 5.22643 10.0682 5.22643C11.5658 5.22643 13.0622 5.22643 14.5598 5.22643L14.5586 5.22515ZM21.9854 8.07833C21.4862 8.05785 21.1918 8.30618 21.2263 8.73755C21.298 9.62972 21.385 10.5206 21.4759 11.4102C21.5041 11.6803 21.6756 11.8429 21.9393 11.9095C22.276 11.9952 22.482 11.7891 22.6741 11.5715C22.7803 11.4499 22.8443 11.455 22.9569 11.5715C23.3307 11.9594 23.716 12.337 24.0987 12.7171C24.5045 13.1191 24.9717 13.1191 25.3826 12.7146C25.5375 12.5623 25.6911 12.4087 25.8434 12.2538C26.2863 11.8058 26.2902 11.359 25.8511 10.9162C25.5273 10.5885 25.1996 10.2646 24.8744 9.93821C24.6018 9.66557 24.5992 9.663 24.8693 9.38652C25.0537 9.19708 25.1407 8.98587 25.0524 8.72474C24.9602 8.45338 24.7541 8.32794 24.4815 8.30234C23.6418 8.22553 22.8021 8.15257 21.9867 8.07961L21.9854 8.07833Z" fill="#CADFBD"/>
<path d="M14.5382 4.43973C10.4562 4.43973 6.37541 4.43973 2.29334 4.43973C2.06208 4.43973 1.94645 4.31983 1.94645 4.08004C1.94645 3.20066 1.94389 2.32256 1.94645 1.44319C1.94901 0.603488 2.51351 0.0351562 3.35578 0.0351562C10.8056 0.0351562 18.2555 0.0351562 25.7041 0.0351562C26.5592 0.0351562 27.1198 0.600928 27.1211 1.46111C27.1236 2.36609 27.1134 3.27106 27.1275 4.17604C27.1301 4.39237 27.0788 4.44485 26.86 4.44485C22.7523 4.43717 18.6446 4.43973 14.537 4.43973H14.5382ZM18.4309 3.49251C20.7119 3.49251 22.9917 3.49251 25.2727 3.49251C25.8526 3.49251 26.1751 3.16738 26.179 2.58881C26.1803 2.33665 26.1828 2.08448 26.179 1.83103C26.17 1.32414 25.8295 0.981096 25.3201 0.979816C20.7247 0.977256 16.1281 0.977256 11.5327 0.979816C11.0271 0.979816 10.6892 1.3267 10.6789 1.83615C10.6738 2.06272 10.6789 2.28928 10.6789 2.51457C10.6789 3.18402 10.981 3.48995 11.6441 3.49123C13.9072 3.49123 16.1703 3.49123 18.4334 3.49123L18.4309 3.49251ZM6.09892 2.63873C6.09892 2.63873 6.09892 2.63489 6.09892 2.63361C6.16804 2.63361 6.23844 2.63873 6.30756 2.63361C6.55333 2.61185 6.70438 2.45441 6.69926 2.23168C6.69414 2.01152 6.53925 1.86432 6.28836 1.85407C6.14116 1.84767 5.99139 1.84639 5.84547 1.85919C5.63426 1.87712 5.51138 2.00256 5.49601 2.21248C5.47937 2.43649 5.5997 2.57473 5.81347 2.62337C5.90563 2.64385 6.00419 2.63617 6.09892 2.64001V2.63873ZM8.70381 1.85663C8.61676 1.85663 8.52972 1.85023 8.44268 1.85791C8.23019 1.87712 8.10859 2 8.09323 2.20992C8.07658 2.43393 8.19307 2.57473 8.4094 2.62209C8.50156 2.64257 8.60012 2.63489 8.69485 2.63489C9.1083 2.63489 9.30799 2.50177 9.30159 2.23168C9.29519 1.97184 9.10574 1.85151 8.70381 1.85663ZM3.51451 1.85919V1.85663C3.42746 1.85663 3.34042 1.85151 3.25338 1.85663C3.03961 1.87328 2.91672 2.00512 2.89624 2.20608C2.87576 2.41089 2.98201 2.56577 3.18681 2.61057C3.3993 2.65665 3.62075 2.66177 3.83196 2.60417C4.02524 2.55169 4.11229 2.40577 4.09821 2.20864C4.08413 2.01024 3.97148 1.88864 3.77435 1.86048C3.68987 1.84767 3.60027 1.85791 3.51451 1.85791V1.85919Z" fill="#4FA83D"/>
<path d="M21.9314 17.8051C21.9429 21.8628 18.6289 25.1934 14.5609 25.2101C10.4776 25.228 7.12515 21.8884 7.13283 17.8102C7.14051 13.7372 10.4417 10.4334 14.5161 10.4219C18.5956 10.4104 21.9186 13.7193 21.9314 17.8051ZM20.9791 17.8051C20.9714 14.2377 18.0759 11.3563 14.5123 11.3666C10.9614 11.3768 8.07878 14.2735 8.08646 17.8205C8.09542 21.3841 11.0011 24.2795 14.5532 24.2654C18.1028 24.25 20.9868 21.3508 20.9791 17.8051Z" fill="#4FA83D"/>
<path d="M18.4281 3.4899C16.165 3.4899 13.9019 3.4899 11.6387 3.4899C10.9757 3.4899 10.6736 3.18397 10.6736 2.51324C10.6736 2.28667 10.6697 2.06011 10.6736 1.83482C10.6838 1.32537 11.0218 0.978483 11.5274 0.978483C16.1227 0.975922 20.7194 0.975922 25.3147 0.978483C25.8242 0.978483 26.1647 1.32281 26.1736 1.8297C26.1788 2.08187 26.1762 2.33403 26.1736 2.58748C26.1698 3.16605 25.8485 3.4899 25.2674 3.49118C22.9863 3.49246 20.7066 3.49118 18.4255 3.49118L18.4281 3.4899ZM18.4486 1.76058C16.3352 1.76058 14.2206 1.76058 12.1072 1.76058C11.457 1.76058 11.4698 1.76058 11.4506 2.39931C11.4429 2.6502 11.5082 2.71164 11.7603 2.71164C16.0754 2.70268 20.3891 2.70652 24.7042 2.70268C24.9269 2.70268 25.2226 2.80124 25.3519 2.65532C25.4619 2.53116 25.3736 2.24187 25.3954 2.02811C25.4171 1.81434 25.3493 1.7529 25.1291 1.75418C22.9018 1.76314 20.6759 1.7593 18.4486 1.7593V1.76058Z" fill="#030303"/>
<path d="M6.09663 2.6344C6.00191 2.62928 5.90334 2.63696 5.81118 2.61776C5.59613 2.5704 5.47709 2.43216 5.49373 2.20687C5.50909 1.99823 5.63197 1.8715 5.84318 1.85358C5.99038 1.84078 6.13887 1.84206 6.28607 1.84846C6.53824 1.8587 6.69313 2.00591 6.69697 2.22607C6.70209 2.4488 6.54976 2.60624 6.30528 2.628C6.23615 2.6344 6.16575 2.628 6.09663 2.628C6.09663 2.62928 6.09663 2.63184 6.09663 2.63312V2.6344Z" fill="#030303"/>
<path d="M8.69807 1.85406C9.10001 1.84894 9.28945 1.96926 9.29585 2.22911C9.30225 2.4992 9.10257 2.63232 8.68911 2.63232C8.59311 2.63232 8.49583 2.64 8.40366 2.61952C8.18862 2.57216 8.07085 2.43135 8.08749 2.20735C8.10285 1.99743 8.22446 1.87454 8.43694 1.85534C8.52271 1.84766 8.61103 1.85406 8.69807 1.85406Z" fill="#030303"/>
<path d="M3.51138 1.85569C3.59843 1.85569 3.68675 1.84545 3.77123 1.85825C3.96836 1.88641 4.081 2.00929 4.09508 2.20641C4.10917 2.40354 4.02212 2.55074 3.82884 2.60194C3.61763 2.65954 3.39618 2.65442 3.18369 2.60834C2.97889 2.56354 2.87264 2.40866 2.89312 2.20385C2.91232 2.00289 3.03521 1.87105 3.25025 1.85441C3.33602 1.84801 3.42434 1.85441 3.51138 1.85441V1.85697V1.85569Z" fill="#030303"/>
<path d="M24.0376 9.08251C23.9634 9.17723 23.8789 9.26555 23.8187 9.36923C23.6702 9.62524 23.7176 9.88252 23.9557 10.1244C24.3896 10.5635 24.8249 11.0025 25.2677 11.4326C25.3778 11.5402 25.4034 11.6093 25.2741 11.7194C25.0898 11.8768 24.9298 12.1699 24.7416 12.1853C24.5458 12.2007 24.3884 11.8909 24.2143 11.7232C23.9391 11.457 23.6715 11.183 23.4014 10.9117C22.9585 10.4688 22.7153 10.4624 22.234 10.8976C22.1636 10.6403 22.1675 10.3843 22.1444 10.1334C22.1099 9.76092 22.0779 9.38843 22.0433 9.01594C22.0356 8.93146 22.0241 8.85978 22.1521 8.87258C22.7665 8.93402 23.381 8.98906 23.9954 9.04922C24.0095 9.0505 24.021 9.06971 24.0376 9.08379V9.08251Z" fill="#93E080"/>
<path d="M18.4517 1.76293C20.679 1.76293 22.905 1.76677 25.1323 1.75781C25.3525 1.75781 25.4203 1.81797 25.3985 2.03174C25.3768 2.2455 25.4651 2.53479 25.355 2.65895C25.2257 2.80487 24.93 2.70503 24.7073 2.70631C20.3923 2.70887 16.0785 2.70631 11.7635 2.71527C11.51 2.71527 11.446 2.65511 11.4537 2.40295C11.4729 1.76421 11.4601 1.76421 12.1104 1.76421C14.2237 1.76421 16.3384 1.76421 18.4517 1.76421V1.76293Z" fill="#FDFDFD"/>
<path d="M14.5311 17.4244C13.7222 17.4244 12.9132 17.4206 12.1055 17.4283C11.9455 17.4295 11.8994 17.3924 11.9071 17.2273C11.9442 16.522 12.044 15.8295 12.2117 15.1434C12.2527 14.9732 12.3231 14.9706 12.4639 14.9962C13.8374 15.242 15.2134 15.2407 16.5856 14.9962C16.7469 14.968 16.8096 14.9898 16.8493 15.1613C17.0068 15.8231 17.104 16.49 17.1463 17.1684C17.1591 17.3655 17.1207 17.4334 16.9043 17.4295C16.1133 17.4155 15.3222 17.4244 14.5299 17.4244H14.5311Z" fill="#CADFBD"/>
<path d="M14.5558 18.2083C15.3558 18.2083 16.1571 18.2134 16.9571 18.2044C17.1235 18.2019 17.1581 18.2492 17.1491 18.408C17.112 19.1133 17.0135 19.807 16.8419 20.4931C16.8048 20.6391 16.7613 20.6621 16.6154 20.6365C15.224 20.392 13.83 20.3907 12.4386 20.6365C12.2888 20.6634 12.2491 20.6314 12.2146 20.4893C12.043 19.8045 11.9445 19.1094 11.9074 18.4041C11.8984 18.239 11.9419 18.2019 12.1032 18.2032C12.9212 18.2121 13.7391 18.207 14.5558 18.207V18.2083Z" fill="#CADFBD"/>
<path d="M14.6863 14.3967C13.9029 14.3915 13.2897 14.3339 12.6792 14.2431C12.5486 14.2239 12.5179 14.1906 12.5729 14.0626C12.7982 13.5403 13.0683 13.0488 13.4792 12.6469C14.1563 11.9851 14.8885 11.9825 15.5669 12.6379C15.9804 13.0373 16.2505 13.5288 16.4771 14.051C16.5398 14.1944 16.5065 14.2303 16.3631 14.2443C16.1302 14.2674 15.8998 14.3186 15.6668 14.3378C15.2853 14.3685 14.9039 14.3839 14.6863 14.3967Z" fill="#CADFBD"/>
<path d="M14.5565 21.2385C15.1671 21.2359 15.7725 21.2871 16.3741 21.3883C16.4893 21.4075 16.5508 21.4164 16.4893 21.5585C16.2513 22.1038 15.9696 22.6209 15.5268 23.0305C14.8778 23.6309 14.1827 23.6309 13.5324 23.0305C13.0895 22.6209 12.8092 22.1038 12.5711 21.5585C12.5097 21.4177 12.5711 21.4075 12.6863 21.3883C13.3059 21.2846 13.928 21.2346 14.5565 21.2385Z" fill="#CADFBD"/>
<path d="M10.0059 17.4266C9.69228 17.4266 9.37867 17.4176 9.06634 17.4304C8.90634 17.4368 8.87817 17.3767 8.89482 17.2359C9.01642 16.185 9.38635 15.2352 10.0251 14.3904C10.0968 14.2956 10.1557 14.2828 10.2632 14.3353C10.6075 14.503 10.9672 14.631 11.3346 14.7347C11.4447 14.7654 11.5061 14.7897 11.4664 14.9421C11.268 15.7011 11.1515 16.4743 11.1362 17.2589C11.1336 17.4023 11.076 17.4317 10.948 17.4292C10.6344 17.4215 10.3221 17.4266 10.0085 17.4266H10.0059Z" fill="#CADFBD"/>
<path d="M19.0666 17.4271C18.744 17.4271 18.4227 17.422 18.1002 17.4296C17.976 17.4322 17.9338 17.3912 17.9312 17.2671C17.9146 16.4735 17.793 15.6927 17.5971 14.9234C17.5677 14.8056 17.5946 14.7749 17.6995 14.7467C18.0848 14.6405 18.4586 14.5009 18.8196 14.3307C18.922 14.2821 18.9719 14.3025 19.0346 14.3845C19.6798 15.2357 20.0522 16.1931 20.1713 17.2543C20.1866 17.3925 20.147 17.4348 20.0062 17.4309C19.6938 17.4207 19.3802 17.4284 19.0666 17.4284V17.4271Z" fill="#CADFBD"/>
<path d="M9.99591 18.2061C10.3095 18.2061 10.6218 18.2125 10.9355 18.2036C11.0788 18.1984 11.1313 18.2381 11.1339 18.3892C11.1505 19.1649 11.267 19.929 11.4603 20.6804C11.4948 20.8161 11.4705 20.857 11.3374 20.8942C10.9611 20.9966 10.5937 21.1323 10.243 21.3038C10.1393 21.3537 10.0919 21.3294 10.0305 21.2475C9.3866 20.3962 9.01283 19.4388 8.89379 18.3789C8.87843 18.2407 8.91683 18.1997 9.05763 18.2036C9.36996 18.2138 9.68358 18.2074 9.99719 18.2074L9.99591 18.2061Z" fill="#CADFBD"/>
<path d="M19.0742 18.2098C19.3699 18.2098 19.6669 18.2239 19.9613 18.2047C20.1661 18.1906 20.1853 18.2725 20.1635 18.4428C20.0342 19.4629 19.6733 20.3897 19.0576 21.2153C18.9948 21.2998 18.95 21.3766 18.8092 21.3036C18.4623 21.1244 18.0924 20.9951 17.7148 20.894C17.5676 20.8543 17.5727 20.7942 17.6034 20.6751C17.7929 19.9238 17.9094 19.1596 17.9273 18.3839C17.9298 18.2495 17.9708 18.2034 18.1078 18.2072C18.4291 18.2162 18.7516 18.2098 19.0729 18.2098H19.0742Z" fill="#CADFBD"/>
<path d="M10.7044 13.6699C11.1563 13.2001 12.0549 12.6484 12.5131 12.5703C12.2059 13.0247 11.9627 13.483 11.7758 13.9681C11.7412 14.0577 11.6862 14.0193 11.6286 14.0039C11.3214 13.9169 11.0206 13.8158 10.7031 13.6711L10.7044 13.6699Z" fill="#CADFBD"/>
<path d="M18.3716 13.6545C18.0516 13.8311 17.7239 13.9079 17.4077 14.018C17.3258 14.0462 17.3028 13.995 17.2797 13.9335C17.0928 13.4599 16.8586 13.0106 16.5859 12.5703C17.2631 12.7879 17.8353 13.1681 18.3729 13.6532L18.3716 13.6545Z" fill="#CADFBD"/>
<path d="M18.3702 21.9652C17.8364 22.4592 17.2565 22.8279 16.5781 23.0583C16.8559 22.6128 17.094 22.1533 17.2847 21.6695C17.3167 21.5888 17.3705 21.5939 17.4294 21.6144C17.7378 21.7155 18.0515 21.8013 18.3689 21.9652H18.3702Z" fill="#CADFBD"/>
<path d="M12.5448 23.1066C11.8088 22.8442 11.2366 22.4602 10.6875 21.9751C11.0126 21.7997 11.3416 21.7127 11.6655 21.6115C11.7512 21.5847 11.7679 21.6525 11.7896 21.7075C11.9752 22.1812 12.2108 22.6279 12.5461 23.1079L12.5448 23.1066Z" fill="#CADFBD"/>
<path d="M23.4095 37.9568C22.3163 37.7469 21.2116 37.5843 20.1364 37.3066C19.5527 37.1555 18.7604 36.9328 18.7501 36.2352C18.7386 35.5261 19.5438 35.3494 20.1147 35.1395C21.5854 34.5993 23.124 34.5097 24.6588 34.7017C25.5216 34.8092 26.3702 35.0729 27.2035 35.3366C27.6183 35.4685 28.1124 35.7065 28.1213 36.2134C28.1316 36.728 27.6221 36.9264 27.224 37.112C26.0259 37.6701 24.7433 37.8237 23.4364 37.8224C23.4274 37.8672 23.4184 37.912 23.4108 37.9581L23.4095 37.9568Z" fill="#4FA83D"/>
<path d="M5.39016 37.9079C4.54917 37.7454 3.46498 37.5649 2.3987 37.3153C2.02237 37.227 1.66011 37.0081 1.33626 36.7828C0.799923 36.4116 0.805043 36.0212 1.34906 35.6487C1.67419 35.426 2.03901 35.234 2.41406 35.1162C4.5799 34.4339 6.75597 34.4352 8.92181 35.12C9.2815 35.234 9.63351 35.4157 9.94712 35.6269C10.5257 36.0173 10.5449 36.4794 9.92792 36.8122C9.29046 37.1553 8.59156 37.4228 7.88753 37.5931C7.16431 37.7684 6.40268 37.7876 5.39016 37.9067V37.9079Z" fill="#4FA83D"/>
<path d="M28.1564 41.1587C28.1564 41.7718 28.2178 42.3709 28.1295 42.9456C28.0873 43.2246 27.8172 43.5818 27.5599 43.6919C26.8187 44.0093 26.0482 44.3024 25.2609 44.4547C23.689 44.7594 22.1095 44.6685 20.5606 44.2435C20.2688 44.1629 19.9846 44.0528 19.7043 43.9389C19.0041 43.6534 18.5663 43.208 18.6828 42.3696C18.7365 41.9779 18.6917 41.5734 18.6917 41.1484C21.8381 42.4989 24.9601 42.5065 28.1577 41.1587H28.1564Z" fill="#4FA83D"/>
<path d="M0.916369 41.1484C4.08448 42.5053 7.20523 42.5117 10.3746 41.1574C10.3746 41.7936 10.4335 42.4182 10.3477 43.0237C10.3106 43.2822 10.0188 43.6086 9.76404 43.7136C9.01777 44.0208 8.24847 44.3152 7.45996 44.465C5.88678 44.762 4.30849 44.6698 2.76091 44.2397C2.45498 44.1539 2.15801 44.0298 1.86488 43.9056C1.19798 43.6227 0.802445 43.1798 0.907409 42.3875C0.961171 41.9856 0.916369 41.5708 0.916369 41.1484Z" fill="#4FA83D"/>
<path d="M18.6995 44.5416C21.865 45.8972 24.9743 45.9061 28.1411 44.5595C28.1411 45.1932 28.1961 45.8434 28.1129 46.4745C28.0822 46.7125 27.7686 46.966 27.5254 47.1158C26.6345 47.6662 25.622 47.853 24.5992 47.9439C23.204 48.0694 21.8164 48.0143 20.4647 47.5983C20.1459 47.4998 19.8374 47.3641 19.5302 47.2284C18.9504 46.9724 18.6137 46.5743 18.6905 45.8844C18.7392 45.4479 18.6995 45.0024 18.6995 44.5391V44.5416Z" fill="#4FA83D"/>
<path d="M10.3874 44.5455C10.3874 45.1522 10.4514 45.7218 10.3618 46.2645C10.3132 46.5628 10.0648 46.9046 9.80626 47.0774C8.92175 47.6687 7.88875 47.8479 6.85064 47.9452C5.44259 48.0771 4.04094 48.0207 2.67641 47.6009C2.32824 47.4934 1.98775 47.3462 1.65878 47.1887C1.13908 46.9391 0.851068 46.5564 0.91507 45.933C0.961152 45.4812 0.92403 45.0204 0.92403 44.5391C4.09086 45.9113 7.20777 45.91 10.3874 44.5455Z" fill="#4FA83D"/>
<path d="M10.3869 37.7744C10.3869 38.385 10.4471 38.9687 10.3613 39.5294C10.3178 39.8097 10.0605 40.1822 9.80836 40.282C8.95585 40.6174 8.07902 40.954 7.18043 41.0987C5.63925 41.347 4.08784 41.2548 2.58251 40.7825C2.26505 40.6827 1.95784 40.5406 1.65703 40.3959C1.13349 40.1451 0.853165 39.7585 0.914607 39.1377C0.959409 38.6846 0.923568 38.2237 0.923568 37.7578C4.084 39.13 7.20219 39.1274 10.3869 37.7744Z" fill="#4FA83D"/>
<path d="M28.1578 37.7656C28.1578 38.3967 28.2231 39.0226 28.1284 39.6242C28.0862 39.8943 27.7713 40.2322 27.5025 40.3346C26.6743 40.6495 25.8243 40.9631 24.9539 41.0988C23.4114 41.3395 21.8613 41.2524 20.3547 40.7801C20.0372 40.6802 19.73 40.5382 19.4292 40.3935C18.9057 40.1426 18.6266 39.7535 18.6881 39.134C18.7316 38.6911 18.697 38.2405 18.697 37.772C21.8498 39.1135 24.9833 39.1429 28.1578 37.7656Z" fill="#4FA83D"/>
<path d="M22.9671 30.8394C22.9671 30.2122 22.9901 29.7194 22.9607 29.2304C22.9248 28.6455 22.5754 28.3626 21.9187 28.36C20.2226 28.3536 18.5279 28.3575 16.8318 28.3575C16.659 28.3575 16.4849 28.3575 16.2891 28.3575V27.4435C16.4363 27.4333 16.5745 27.4167 16.714 27.4167C18.4255 27.4154 20.1369 27.4115 21.8483 27.4167C23.1898 27.4205 23.89 28.1194 23.904 29.4519C23.9079 29.85 23.904 30.2493 23.904 30.7959C24.2663 30.4657 24.5415 30.2225 24.8078 29.9703C25.0548 29.7361 25.3262 29.5133 25.6308 29.8282C25.9598 30.17 25.6948 30.4337 25.435 30.673C24.9178 31.1505 24.3917 31.619 23.8913 32.1131C23.5636 32.4369 23.2794 32.4523 22.9466 32.1246C22.4102 31.5972 21.8573 31.089 21.3094 30.5732C21.0713 30.3492 20.9497 30.0957 21.2108 29.8269C21.4707 29.5594 21.7267 29.6733 21.9622 29.8999C22.2605 30.1866 22.5651 30.4657 22.9658 30.8394H22.9671Z" fill="#CADFBD"/>
<path d="M5.19738 30.8202C5.19738 30.2416 5.19226 29.7975 5.19738 29.3546C5.21402 28.1565 5.91677 27.4268 7.10209 27.4179C8.89415 27.4038 10.6875 27.4128 12.4796 27.4153C12.5871 27.4153 12.6946 27.4371 12.8111 27.4486V28.3293C12.6357 28.3382 12.4668 28.3536 12.2978 28.3536C10.6171 28.3549 8.93639 28.3523 7.25569 28.3561C6.42111 28.3574 6.13182 28.6493 6.12285 29.4826C6.11901 29.8922 6.12285 30.3018 6.12285 30.8496C6.51839 30.4784 6.81664 30.2019 7.11105 29.9216C7.3581 29.6861 7.62947 29.5543 7.89828 29.8551C8.14789 30.1341 7.9994 30.3837 7.76515 30.6013C7.21473 31.1146 6.66559 31.6279 6.11901 32.145C5.82716 32.4215 5.55195 32.4548 5.24346 32.1565C4.69048 31.6228 4.12342 31.1056 3.55764 30.5847C3.32084 30.3658 3.17747 30.12 3.42964 29.8397C3.70357 29.5363 3.96598 29.6759 4.21303 29.9127C4.49976 30.1879 4.79673 30.4528 5.19482 30.8202H5.19738Z" fill="#CADFBD"/>
<path d="M15.3337 27.8808C15.3298 28.3301 14.9881 28.6757 14.549 28.6757C14.1151 28.6757 13.7656 28.3198 13.7656 27.877C13.7656 27.4405 14.1253 27.0782 14.5541 27.0821C14.9932 27.0859 15.3388 27.4392 15.335 27.8808H15.3337Z" fill="#CADFBD"/>
</svg>
