<svg width="62" height="51" viewBox="0 0 62 51" fill="none" xmlns="http://www.w3.org/2000/svg">
<path d="M57.7808 1.82159V44.1501C57.7244 44.2629 57.6656 44.3733 57.614 44.4885C57.1797 45.4617 56.4334 45.9681 55.3632 45.9681C40.6005 45.9705 25.8366 45.9681 11.0739 45.9717C10.282 45.9717 9.65571 45.6597 9.14938 45.0705C8.91661 44.7993 8.84702 44.4429 8.65625 44.1501C8.65625 30.0406 8.65625 15.9323 8.65625 1.82279C8.71264 1.70999 8.77143 1.59959 8.82303 1.48439C9.25736 0.509997 10.0037 0.00479997 11.0739 0.00359998C25.8366 0.00239999 40.6005 0.00359998 55.3632 0C56.1551 0 56.7814 0.311998 57.2877 0.901195C57.5205 1.17239 57.59 1.52879 57.7808 1.82159ZM33.2179 6.13076C25.9266 6.13076 18.6352 6.13076 11.3439 6.13076C10.4248 6.13076 10.192 6.36476 10.192 7.29116C10.192 19.2767 10.192 31.2622 10.192 43.2477C10.192 44.2113 10.414 44.4369 11.3631 44.4369C25.929 44.4369 40.4961 44.4369 55.062 44.4369C56.0075 44.4369 56.2462 44.1981 56.2462 43.2525C56.2462 31.267 56.2462 19.2815 56.2462 7.29596C56.2462 6.37916 55.9991 6.13076 55.092 6.13076C47.8007 6.13076 40.5093 6.13076 33.2179 6.13076ZM37.7701 3.83278C43.5401 3.83278 49.31 3.83278 55.0788 3.83278C55.2228 3.83278 55.368 3.84238 55.5095 3.82798C55.8875 3.78958 56.1251 3.55558 56.2234 3.21358C56.3206 2.87998 56.1275 2.64118 55.8731 2.43839C55.6475 2.25719 55.3896 2.30159 55.1376 2.30159C43.5977 2.30039 32.0589 2.30039 20.519 2.30039C20.3906 2.30039 20.2622 2.29199 20.1362 2.30519C19.7583 2.34359 19.5207 2.57878 19.4223 2.91958C19.3251 3.25318 19.5183 3.49198 19.7715 3.69478C19.9826 3.86398 20.2226 3.83158 20.459 3.83158C26.2289 3.83158 31.9989 3.83158 37.7677 3.83158L37.7701 3.83278ZM10.9443 3.82918C11.3679 3.83758 11.7086 3.51478 11.7242 3.09358C11.7386 2.67238 11.4207 2.32439 10.9995 2.30399C10.558 2.28239 10.198 2.62318 10.1956 3.06358C10.1944 3.48598 10.522 3.82198 10.9443 3.83038V3.82918ZM14.0291 3.82918C14.4526 3.82918 14.7874 3.50158 14.7946 3.07918C14.8018 2.65678 14.4766 2.31719 14.0543 2.30399C13.6127 2.28959 13.2588 2.63758 13.266 3.07798C13.272 3.50158 13.6055 3.82918 14.0303 3.82918H14.0291ZM17.8649 3.10318C17.8853 2.68198 17.5698 2.33039 17.1498 2.30399C16.7287 2.27759 16.3711 2.58598 16.3376 3.00478C16.3028 3.44398 16.6339 3.81478 17.0742 3.82918C17.4966 3.84238 17.8433 3.52438 17.8637 3.10318H17.8649Z" fill="#4FA83D"/>
<path d="M33.2134 6.13281C40.5048 6.13281 47.7961 6.13281 55.0875 6.13281C55.9958 6.13281 56.2417 6.38121 56.2417 7.29801C56.2417 19.2835 56.2417 31.2691 56.2417 43.2546C56.2417 44.2002 56.0029 44.439 55.0575 44.439C40.4916 44.439 25.9245 44.439 11.3585 44.439C10.4095 44.439 10.1875 44.2134 10.1875 43.2498C10.1875 31.2643 10.1875 19.2787 10.1875 7.29321C10.1875 6.36801 10.4203 6.13281 11.3393 6.13281C18.6307 6.13281 25.9221 6.13281 33.2134 6.13281ZM33.115 27.5839C38.1027 27.5839 43.0904 27.5839 48.0781 27.5839C48.2701 27.5839 48.462 27.5875 48.6528 27.5707C50.1502 27.4387 51.1221 25.9735 50.6541 24.5587C50.323 23.5579 49.4471 22.9879 48.2257 22.9879C38.1543 22.9879 28.0841 22.9879 18.0128 22.9879C17.8532 22.9879 17.6924 22.9879 17.534 23.0047C16.1219 23.1547 15.1728 24.5455 15.5663 25.8823C15.8747 26.9299 16.7998 27.5827 18.0092 27.5827C23.0449 27.5863 28.0805 27.5839 33.115 27.5839ZM30.4802 37.5426C35.1019 37.5426 39.7225 37.5426 44.3442 37.5426C44.4882 37.5426 44.6334 37.5522 44.7762 37.5354C45.1697 37.491 45.5236 37.1214 45.4805 36.7578C45.4337 36.357 45.2081 36.081 44.7846 36.0186C44.6598 35.9994 44.529 36.0114 44.4018 36.0114C35.1427 36.0114 25.8849 36.0114 16.6258 36.0114C15.8663 36.0114 15.4583 36.291 15.4763 36.7962C15.4931 37.2882 15.8807 37.5426 16.6174 37.5426C21.2391 37.5426 25.8597 37.5426 30.4814 37.5426H30.4802ZM33.2074 10.7288C30.0123 10.7288 26.8171 10.7288 23.622 10.7288C23.4624 10.7288 23.2992 10.7168 23.1444 10.7456C22.7317 10.8224 22.4797 11.0804 22.4845 11.5016C22.4893 11.9216 22.7461 12.1736 23.1588 12.2456C23.2992 12.2696 23.4456 12.26 23.5896 12.26C30.0123 12.26 36.4349 12.26 42.8576 12.26C43.0016 12.26 43.148 12.2696 43.2872 12.2432C43.6999 12.1652 43.9519 11.9072 43.9471 11.4872C43.9423 11.0672 43.6867 10.814 43.2728 10.7432C43.1168 10.7168 42.9536 10.7288 42.794 10.7288C39.5989 10.7288 36.4038 10.7288 33.2086 10.7288H33.2074ZM22.421 40.6074C23.4924 40.6074 24.5638 40.6074 25.6353 40.6074C26.6108 40.6074 27.5862 40.6146 28.5617 40.6026C29.0224 40.5966 29.3824 40.2294 29.368 39.8214C29.3548 39.4242 29.0116 39.1026 28.5713 39.0762C28.4753 39.0702 28.3793 39.0738 28.2833 39.0738C24.3983 39.0738 20.512 39.0738 16.627 39.0738C16.483 39.0738 16.3366 39.0654 16.1962 39.0858C15.7823 39.1482 15.4463 39.4974 15.4823 39.8574C15.5231 40.2726 15.7799 40.5174 16.1878 40.5906C16.3282 40.6158 16.4746 40.605 16.6186 40.605C18.5539 40.605 20.488 40.605 22.4234 40.605L22.421 40.6074ZM33.2278 15.326C35.2243 15.326 37.2196 15.3296 39.2162 15.3236C39.7789 15.3224 40.1244 15.008 40.116 14.5472C40.1076 14.1044 39.7693 13.8152 39.2377 13.7948C39.1742 13.7924 39.1106 13.7948 39.0458 13.7948C35.1487 13.7948 31.2529 13.7948 27.3558 13.796C27.1975 13.796 27.0319 13.7948 26.8819 13.8356C26.3888 13.97 26.1668 14.5088 26.4212 14.9372C26.6167 15.2672 26.9335 15.3296 27.2875 15.3296C29.2672 15.3248 31.2481 15.3272 33.2278 15.3272V15.326ZM32.8307 40.6074C33.1966 40.6074 33.5626 40.617 33.9285 40.605C34.3892 40.5894 34.7456 40.2486 34.7456 39.843C34.7456 39.4374 34.3904 39.0882 33.9285 39.081C33.1966 39.069 32.4647 39.069 31.7328 39.081C31.2721 39.0882 30.9157 39.4362 30.9157 39.843C30.9157 40.2486 31.2709 40.5906 31.7328 40.6062C32.0988 40.6182 32.4647 40.6086 32.8307 40.6086V40.6074Z" fill="#CADFBD"/>
<path d="M37.7694 3.83167C31.9994 3.83167 26.2295 3.83167 20.4607 3.83167C20.2243 3.83167 19.9844 3.86407 19.7732 3.69487C19.52 3.49207 19.3269 3.25327 19.424 2.91967C19.5236 2.57768 19.76 2.34368 20.1379 2.30528C20.2651 2.29208 20.3935 2.30048 20.5207 2.30048C32.0606 2.30048 43.5994 2.30048 55.1393 2.30168C55.3901 2.30168 55.6493 2.25728 55.8748 2.43848C56.128 2.64128 56.3212 2.88007 56.2252 3.21367C56.1256 3.55567 55.8892 3.78967 55.5113 3.82807C55.3685 3.84247 55.2233 3.83287 55.0805 3.83287C49.3106 3.83287 43.5406 3.83287 37.7718 3.83287L37.7694 3.83167Z" fill="#E1E4E6"/>
<path d="M10.944 3.83205C10.5217 3.82365 10.1929 3.48765 10.1953 3.06526C10.1977 2.62486 10.5577 2.28406 10.9992 2.30566C11.4204 2.32726 11.7395 2.67406 11.7239 3.09526C11.7095 3.51645 11.3676 3.83925 10.944 3.83085V3.83205Z" fill="#93E080"/>
<path d="M14.03 3.83031C13.6065 3.83031 13.2729 3.50151 13.2657 3.07911C13.2585 2.63872 13.6137 2.29072 14.054 2.30512C14.4764 2.31832 14.8003 2.65912 14.7943 3.08031C14.7871 3.50391 14.4536 3.83151 14.0288 3.83031H14.03Z" fill="#93E080"/>
<path d="M17.8646 3.10546C17.8442 3.52546 17.4975 3.84465 17.0751 3.83145C16.6348 3.81705 16.3037 3.44746 16.3384 3.00706C16.3708 2.58826 16.7284 2.27986 17.1507 2.30626C17.5707 2.33266 17.8862 2.68546 17.8658 3.10546H17.8646Z" fill="#93E080"/>
<path d="M30.4822 37.5422C25.8604 37.5422 21.2399 37.5422 16.6182 37.5422C15.8815 37.5422 15.4939 37.2878 15.4771 36.7958C15.4591 36.2906 15.8671 36.011 16.6266 36.011C25.8856 36.011 35.1435 36.011 44.4026 36.011C44.531 36.011 44.6606 36.0002 44.7853 36.0182C45.2077 36.0818 45.4345 36.3578 45.4812 36.7574C45.5232 37.121 45.1705 37.4906 44.7769 37.535C44.6342 37.5506 44.489 37.5422 44.345 37.5422C39.7233 37.5422 35.1027 37.5422 30.481 37.5422H30.4822Z" fill="white"/>
<path d="M33.2085 10.7293C36.4037 10.7293 39.5988 10.7293 42.7939 10.7293C42.9535 10.7293 43.1167 10.7173 43.2727 10.7437C43.6866 10.8145 43.9434 11.0677 43.947 11.4877C43.9518 11.9089 43.6998 12.1657 43.2871 12.2437C43.1479 12.2701 43.0003 12.2605 42.8575 12.2605C36.4348 12.2605 30.0122 12.2605 23.5895 12.2605C23.4455 12.2605 23.2991 12.2713 23.1587 12.2461C22.7448 12.1741 22.488 11.9221 22.4844 11.5021C22.4796 11.0809 22.7316 10.8229 23.1443 10.7461C23.2991 10.7173 23.4623 10.7293 23.6219 10.7293C26.817 10.7293 30.0122 10.7293 33.2073 10.7293H33.2085Z" fill="white"/>
<path d="M22.428 40.6075C20.4927 40.6075 18.5586 40.6075 16.6233 40.6075C16.4793 40.6075 16.3329 40.6183 16.1925 40.5931C15.7846 40.5199 15.5278 40.2751 15.487 39.8599C15.451 39.4999 15.787 39.1495 16.2009 39.0883C16.3425 39.0667 16.4877 39.0763 16.6317 39.0763C20.5167 39.0763 24.4029 39.0763 28.288 39.0763C28.384 39.0763 28.48 39.0727 28.576 39.0787C29.0175 39.1051 29.3594 39.4255 29.3726 39.8239C29.387 40.2319 29.0271 40.5991 28.5664 40.6051C27.5909 40.6171 26.6154 40.6099 25.64 40.6099C24.5685 40.6099 23.4971 40.6099 22.4256 40.6099L22.428 40.6075Z" fill="white"/>
<path d="M33.2326 15.3225C31.2529 15.3225 29.2719 15.3201 27.2922 15.3249C26.9383 15.3249 26.6215 15.2637 26.4259 14.9325C26.1728 14.5041 26.3936 13.9653 26.8867 13.8309C27.0379 13.7901 27.2022 13.7913 27.3606 13.7913C31.2577 13.7889 35.1535 13.7901 39.0505 13.7901C39.1141 13.7901 39.1789 13.7877 39.2425 13.7901C39.774 13.8105 40.1124 14.0997 40.1208 14.5425C40.1304 15.0045 39.7836 15.3177 39.2209 15.3189C37.2244 15.3249 35.2291 15.3213 33.2326 15.3213V15.3225Z" fill="white"/>
<path d="M32.829 40.6069C32.463 40.6069 32.0971 40.6165 31.7311 40.6045C31.2704 40.5889 30.9141 40.2481 30.9141 39.8413C30.9141 39.4357 31.2704 39.0877 31.7311 39.0793C32.463 39.0673 33.1949 39.0673 33.9268 39.0793C34.3876 39.0865 34.7439 39.4357 34.7439 39.8413C34.7439 40.2469 34.3876 40.5889 33.9268 40.6033C33.5609 40.6153 33.1949 40.6057 32.829 40.6057V40.6069Z" fill="white"/>
<path d="M0.425127 50.4179C0.084376 50.2607 -0.00681101 49.9895 0.000387958 49.6259C0.0687782 46.1015 2.75519 42.9683 6.2251 42.4007C6.65824 42.3299 7.10097 42.2999 7.54011 42.2903C8.3188 42.2735 9.09989 42.2627 9.87858 42.2903C12.835 42.3995 14.9994 43.8023 16.4164 46.3739C16.9744 47.3855 17.2167 48.4919 17.2647 49.6451C17.2803 50.0039 17.1711 50.2643 16.8412 50.4179H0.425127Z" fill="#357E26"/>
<path d="M8.62019 41.1345C5.7646 41.1333 3.43813 38.7993 3.44533 35.9433C3.45133 33.0945 5.7766 30.7761 8.62619 30.7773C11.483 30.7785 13.8082 33.1113 13.801 35.9685C13.7938 38.8185 11.4698 41.1369 8.62019 41.1357V41.1345Z" fill="#357E26"/>
<path d="M6.71164 45.9111H7.062V47.0383C7.062 47.1696 7.03388 47.2801 6.97763 47.3699C6.92217 47.4598 6.84522 47.5274 6.74679 47.5727C6.64914 47.618 6.53665 47.6406 6.40932 47.6406C6.28198 47.6406 6.16871 47.618 6.0695 47.5727C5.97107 47.5274 5.89373 47.4598 5.83748 47.3699C5.78202 47.2801 5.75429 47.1696 5.75429 47.0383V45.9111H6.10582V47.0383C6.10582 47.1149 6.11793 47.1774 6.14215 47.2258C6.16637 47.2742 6.20113 47.3098 6.24644 47.3324C6.29253 47.3551 6.34682 47.3664 6.40932 47.3664C6.47337 47.3664 6.52767 47.3551 6.57219 47.3324C6.6175 47.3098 6.65188 47.2742 6.67531 47.2258C6.69953 47.1774 6.71164 47.1149 6.71164 47.0383V45.9111ZM8.23965 47.1707C8.23965 47.1403 8.23496 47.1129 8.22559 47.0887C8.21699 47.0637 8.20059 47.0411 8.17637 47.0207C8.15215 46.9997 8.11817 46.979 8.07443 46.9586C8.03068 46.9383 7.97404 46.9172 7.90452 46.8954C7.82718 46.8704 7.75375 46.8422 7.68422 46.811C7.61548 46.7797 7.55454 46.7434 7.50142 46.702C7.44908 46.6598 7.40768 46.611 7.37721 46.5555C7.34753 46.5001 7.33268 46.4356 7.33268 46.3622C7.33268 46.2911 7.34831 46.2267 7.37956 46.1689C7.4108 46.1103 7.45455 46.0603 7.5108 46.0189C7.56704 45.9767 7.63344 45.9443 7.71 45.9216C7.78734 45.899 7.8721 45.8876 7.96428 45.8876C8.09005 45.8876 8.19981 45.9103 8.29355 45.9556C8.38729 46.0009 8.45994 46.063 8.5115 46.1419C8.56384 46.2208 8.59001 46.311 8.59001 46.4126H8.24082C8.24082 46.3626 8.23027 46.3188 8.20918 46.2813C8.18887 46.2431 8.15762 46.213 8.11544 46.1911C8.07404 46.1692 8.0217 46.1583 7.95842 46.1583C7.89749 46.1583 7.84671 46.1677 7.80609 46.1864C7.76546 46.2044 7.735 46.229 7.71469 46.2603C7.69438 46.2907 7.68422 46.3251 7.68422 46.3634C7.68422 46.3923 7.69125 46.4184 7.70531 46.4419C7.72016 46.4653 7.74203 46.4872 7.77093 46.5075C7.79984 46.5278 7.83538 46.547 7.87757 46.5649C7.91975 46.5829 7.96857 46.6005 8.02404 46.6177C8.117 46.6458 8.19864 46.6774 8.26894 46.7126C8.34003 46.7477 8.3994 46.7872 8.44705 46.8309C8.49471 46.8747 8.53064 46.9243 8.55486 46.9797C8.57908 47.0352 8.59118 47.0981 8.59118 47.1684C8.59118 47.2426 8.57673 47.309 8.54783 47.3676C8.51892 47.4262 8.47713 47.4758 8.42245 47.5164C8.36776 47.557 8.30253 47.5879 8.22676 47.609C8.15098 47.6301 8.06622 47.6406 7.97248 47.6406C7.88811 47.6406 7.80491 47.6297 7.72289 47.6078C7.64086 47.5852 7.56626 47.5512 7.49908 47.5059C7.43268 47.4606 7.37956 47.4028 7.33972 47.3324C7.29987 47.2621 7.27995 47.1789 7.27995 47.0829H7.63266C7.63266 47.136 7.64086 47.1809 7.65727 47.2176C7.67367 47.2543 7.69672 47.284 7.72641 47.3067C7.75687 47.3293 7.79281 47.3457 7.83421 47.3559C7.87639 47.366 7.92248 47.3711 7.97248 47.3711C8.03341 47.3711 8.08341 47.3625 8.12247 47.3453C8.16231 47.3281 8.1916 47.3043 8.21035 47.2739C8.22988 47.2434 8.23965 47.209 8.23965 47.1707ZM9.97507 47.343V47.6172H9.06693V47.343H9.97507ZM9.18177 45.9111V47.6172H8.83023V45.9111H9.18177ZM9.85672 46.6059V46.8731H9.06693V46.6059H9.85672ZM9.97389 45.9111V46.1864H9.06693V45.9111H9.97389ZM10.1801 45.9111H10.8164C10.9469 45.9111 11.059 45.9306 11.1527 45.9697C11.2472 46.0087 11.3199 46.0665 11.3707 46.1431C11.4214 46.2196 11.4468 46.3138 11.4468 46.4255C11.4468 46.5169 11.4312 46.5954 11.4 46.661C11.3695 46.7258 11.3261 46.7801 11.2699 46.8239C11.2144 46.8669 11.1492 46.9012 11.0742 46.927L10.9629 46.9856H10.4098L10.4075 46.7114H10.8188C10.8805 46.7114 10.9316 46.7005 10.9723 46.6786C11.0129 46.6567 11.0433 46.6262 11.0637 46.5872C11.0847 46.5481 11.0953 46.5028 11.0953 46.4513C11.0953 46.3966 11.0851 46.3493 11.0648 46.3095C11.0445 46.2696 11.0137 46.2392 10.9723 46.2181C10.9309 46.197 10.8789 46.1864 10.8164 46.1864H10.5317V47.6172H10.1801V45.9111ZM11.134 47.6172L10.7449 46.8567L11.1164 46.8544L11.5101 47.6008V47.6172H11.134Z" fill="#CADFBD"/>
<path d="M18.1631 27.5803C17.9711 27.5803 17.7792 27.5839 17.5884 27.5671C16.091 27.4351 15.1191 25.97 15.5871 24.5552C15.9182 23.5544 16.7941 22.9844 18.0155 22.9844C28.0869 22.9844 38.157 22.9844 48.2284 22.9844C48.388 22.9844 48.5488 22.9844 48.7071 23.0012C50.1193 23.1512 51.0684 24.542 50.6749 25.8788C50.3665 26.9264 49.4414 27.5791 48.232 27.5791C43.1963 27.5827 38.1606 27.5803 33.1262 27.5803C28.1385 27.5803 23.1508 27.5803 18.1631 27.5803ZM37.9615 26.8256C38.4186 26.828 38.5218 26.6852 38.5026 26.264C38.4702 25.5632 38.4822 24.86 38.499 24.158C38.5062 23.8604 38.4366 23.7428 38.1079 23.7428C31.33 23.7524 24.5522 23.7476 17.7744 23.7536C16.8661 23.7536 16.2122 24.4148 16.2122 25.2812C16.2122 26.1488 16.8649 26.8088 17.772 26.8112C21.1447 26.8196 24.5174 26.8148 27.8901 26.8148C31.2472 26.8148 34.6043 26.8052 37.9603 26.8268L37.9615 26.8256Z" fill="#161617"/>
<path d="M27.8901 26.813C31.2472 26.813 34.6043 26.8034 37.9602 26.825C38.4174 26.8274 38.5205 26.6846 38.5014 26.2634C38.469 25.5626 38.481 24.8594 38.4978 24.1574C38.505 23.8598 38.4354 23.7422 38.1066 23.7422C31.3288 23.7518 24.5509 23.747 17.7731 23.753C16.8648 23.753 16.2109 24.4142 16.2109 25.2806C16.2109 26.1482 16.8636 26.8082 17.7707 26.8106C21.1434 26.819 24.5162 26.8142 27.8889 26.8142L27.8901 26.813Z" fill="#4FA83D"/>
<path d="M50.7685 22.6974C50.2513 22.353 49.733 22.0086 49.2171 21.6618C48.7192 21.327 48.7024 21.0318 49.1547 20.6238C49.4858 20.325 49.8146 20.0238 50.1446 19.7238C50.2897 19.5918 50.4385 18.9678 50.3677 18.7878C50.3161 18.6546 50.1985 18.7146 50.1146 18.7086C48.9219 18.6138 47.7293 18.525 46.5355 18.4362C46.3819 18.4254 46.2283 18.4146 46.1071 18.3066C45.8816 18.1074 45.872 17.8674 46.0243 17.6298C46.3123 17.1798 46.6051 16.7322 46.9182 16.299C47.2086 15.8982 47.6165 15.657 48.0928 15.5202C49.1403 15.2178 50.1817 14.8986 51.2304 14.5975C51.4176 14.5435 51.516 14.4427 51.5999 14.2735C53.5077 10.4155 56.5252 7.95069 60.7474 7.0063C61.1842 6.9091 61.3881 7.0459 61.4697 7.48029C62.0193 10.3963 61.6089 13.1755 60.2735 15.8226C59.73 16.899 59.0569 17.8878 58.2338 18.7698C58.1162 18.8958 58.0982 19.023 58.1162 19.185C58.2326 20.2146 58.3226 21.2466 58.457 22.2726C58.5482 22.9698 58.4138 23.5878 57.9986 24.1554C57.7743 24.4638 57.5775 24.7926 57.3591 25.1058C57.0568 25.5402 56.6368 25.5114 56.3945 25.0362C55.8497 23.9706 55.3074 22.9038 54.7783 21.831C54.6751 21.621 54.6079 21.585 54.3739 21.6798C53.9948 21.8334 53.7872 22.0698 53.6876 22.4646C53.5953 22.8318 53.4441 23.1858 53.3061 23.5398C53.1381 23.973 52.8454 24.0726 52.4554 23.8206C51.8879 23.4534 51.3288 23.0718 50.7661 22.6974H50.7685ZM58.3814 11.3659C57.7743 10.9603 57.1623 10.5619 56.5624 10.1467C56.3981 10.0327 56.2961 10.0423 56.1413 10.1647C53.2545 12.4447 51.6395 15.4074 51.336 19.0794C51.3204 19.2738 51.3636 19.3974 51.5364 19.5078C52.1867 19.9266 52.8298 20.3574 53.4681 20.7942C53.6205 20.8986 53.7428 20.9178 53.912 20.8314C57.2103 19.1334 59.3388 16.491 60.3323 12.9223C60.3863 12.7303 60.3227 12.6535 60.1787 12.5599C59.5764 12.1675 58.9801 11.7643 58.3826 11.3659H58.3814ZM60.5651 11.6263C60.5855 11.5723 60.6071 11.5351 60.6119 11.4955C60.757 10.4215 60.7546 9.34748 60.6119 8.27229C60.5855 8.07069 60.5123 8.05749 60.3395 8.10309C59.3556 8.36589 58.4198 8.74149 57.5355 9.24668C57.4467 9.29708 57.3243 9.31628 57.2907 9.44108C58.3778 10.1659 59.4636 10.8907 60.5639 11.6251L60.5651 11.6263ZM51.0168 15.6846C50.1386 15.9438 49.3227 16.2102 48.4936 16.419C47.8937 16.5702 47.5865 16.983 47.3082 17.5074C48.3364 17.5842 49.3299 17.6526 50.3233 17.7366C50.4961 17.751 50.5201 17.6742 50.5417 17.5422C50.6437 16.9326 50.8033 16.3374 51.0156 15.6846H51.0168ZM57.1995 19.7994C56.6788 20.2506 56.1941 20.6322 55.6662 20.9514C55.4958 21.0546 55.5198 21.1434 55.5942 21.2862C55.8845 21.8442 56.1653 22.407 56.4497 22.9674C56.6104 23.283 56.7712 23.5974 56.9488 23.9442C57.2115 23.5422 57.5403 23.217 57.4995 22.7466C57.4167 21.7854 57.3051 20.8266 57.1983 19.7994H57.1995ZM51.3336 21.8922C51.6599 22.1094 51.9899 22.3206 52.309 22.5474C52.4878 22.6746 52.5994 22.7154 52.6606 22.4418C52.705 22.2426 52.7794 22.0458 52.8682 21.8598C52.951 21.6858 52.9162 21.591 52.7542 21.4902C52.3942 21.267 52.0463 21.0234 51.6923 20.787C50.958 20.2974 50.9628 20.3022 50.3101 20.8962C50.1553 21.0366 50.1374 21.1086 50.3269 21.225C50.6689 21.4362 50.9988 21.6678 51.3336 21.8922Z" fill="#357E26"/>
<path d="M58.378 11.3656C58.9767 11.7651 59.5718 12.1671 60.1742 12.5595C60.3181 12.6531 60.3817 12.7299 60.3277 12.9219C59.3331 16.4907 57.2046 19.1331 53.9075 20.8311C53.7383 20.9175 53.6159 20.8983 53.4635 20.7939C52.8252 20.3571 52.1833 19.9251 51.5318 19.5075C51.359 19.3959 51.3146 19.2735 51.3314 19.0791C51.6362 15.4071 53.25 12.4443 56.1367 10.1644C56.2915 10.042 56.3935 10.0324 56.5579 10.1464C57.1578 10.5628 57.7697 10.9612 58.3768 11.3656H58.378ZM55.1697 16.1607C56.1187 16.7895 57.393 16.5339 58.0229 15.5895C58.6492 14.6499 58.396 13.3575 57.4602 12.7275C56.5159 12.0915 55.2009 12.3579 54.5794 13.3119C53.9579 14.2647 54.2206 15.5319 55.1709 16.1607H55.1697Z" fill="#4FA83D"/>
<path d="M60.5622 11.6262C59.462 10.8918 58.3761 10.1682 57.2891 9.44223C57.3227 9.31743 57.445 9.29823 57.5338 9.24783C58.4181 8.74263 59.354 8.36704 60.3378 8.10424C60.5106 8.05744 60.5838 8.07184 60.6102 8.27344C60.753 9.34863 60.7554 10.4226 60.6102 11.4966C60.6054 11.5362 60.5826 11.5734 60.5634 11.6274L60.5622 11.6262Z" fill="#4FA83D"/>
<path d="M51.02 15.6836C50.8076 16.3364 50.6468 16.9316 50.546 17.5412C50.5244 17.6732 50.4992 17.75 50.3277 17.7356C49.3342 17.6516 48.3408 17.5832 47.3125 17.5064C47.5909 16.982 47.898 16.5692 48.4979 16.418C49.327 16.2092 50.1429 15.9428 51.0212 15.6836H51.02Z" fill="#4FA83D"/>
<path d="M57.1921 19.7969C57.2989 20.8241 57.4105 21.7829 57.4933 22.7441C57.5341 23.2145 57.2053 23.5397 56.9425 23.9416C56.765 23.5949 56.603 23.2805 56.4434 22.9649C56.1579 22.4045 55.8783 21.8417 55.5879 21.2837C55.5136 21.1409 55.4896 21.0509 55.6599 20.9489C56.1879 20.6297 56.6714 20.2493 57.1933 19.7969H57.1921Z" fill="#4FA83D"/>
<path d="M51.3317 21.8917C50.9969 21.6685 50.667 21.4357 50.325 21.2245C50.1355 21.1081 50.1535 21.0361 50.3082 20.8957C50.9609 20.3017 50.9573 20.2969 51.6904 20.7865C52.0432 21.0217 52.3911 21.2653 52.7523 21.4897C52.9143 21.5905 52.9491 21.6853 52.8663 21.8593C52.7775 22.0441 52.7043 22.2409 52.6587 22.4413C52.5975 22.7149 52.4859 22.6741 52.3071 22.5469C51.988 22.3201 51.6568 22.1089 51.3317 21.8917Z" fill="#4FA83D"/>
<path d="M55.1704 16.1588C54.2201 15.53 53.9574 14.2629 54.5789 13.3101C55.2016 12.3561 56.5166 12.0885 57.4597 12.7257C58.3955 13.3569 58.6487 14.6481 58.0224 15.5876C57.3925 16.532 56.1183 16.7876 55.1692 16.1588H55.1704ZM55.7127 15.338C56.2143 15.6704 56.879 15.536 57.2077 15.0368C57.5341 14.5425 57.3961 13.8597 56.9042 13.5357C56.411 13.2105 55.7319 13.3497 55.4044 13.8441C55.0732 14.3421 55.21 15.0056 55.7127 15.338Z" fill="#2D2D2D"/>
<path d="M55.7146 15.3415C55.2131 15.0091 55.0763 14.3467 55.4063 13.8475C55.7338 13.3531 56.4129 13.2139 56.9061 13.5391C57.398 13.8631 57.536 14.5459 57.2096 15.0403C56.8809 15.5395 56.215 15.6739 55.7146 15.3415Z" fill="#CADFBD"/>
</svg>
