<svg width="103" height="43" viewBox="0 0 103 43" fill="none" xmlns="http://www.w3.org/2000/svg">
<g clip-path="url(#clip0_98_6172)">
<path d="M102.405 8.20989H52.2188V4.06141C52.2188 1.84393 54.0159 0.046875 56.2334 0.046875H98.3904C100.608 0.046875 102.405 1.84393 102.405 4.06141V8.20989Z" fill="#161617"/>
<path d="M52.2188 8.20703H102.405V39.5081C102.405 41.4367 100.84 43.002 98.911 43.002H55.1305C53.5232 43.002 52.2188 41.6976 52.2188 40.0904V8.20703Z" fill="#4FA83D"/>
<path d="M77.2539 21.1958C69.9466 21.1958 62.6394 21.1911 55.3333 21.2063C54.8546 21.2063 54.6986 21.1131 54.7032 20.5972C54.7312 17.7857 54.7242 14.9742 54.7079 12.1639C54.7056 11.7388 54.7848 11.5781 55.2634 11.5781C69.9594 11.5921 84.6543 11.5909 99.3503 11.5805C99.7731 11.5805 99.907 11.676 99.9035 12.1185C99.8826 14.9626 99.8814 17.8067 99.9047 20.6507C99.9082 21.1247 99.7474 21.2051 99.3212 21.2039C91.965 21.1923 84.6089 21.1958 77.2527 21.1958H77.2539Z" fill="#161617"/>
<path d="M84.0596 31.7423C84.0596 34.0297 84.0503 36.3182 84.0689 38.6056C84.0724 39.0178 83.992 39.1669 83.5378 39.1646C79.3869 39.146 75.2347 39.146 71.0838 39.1646C70.6389 39.1669 70.5457 39.0318 70.5469 38.6114C70.562 34.0355 70.5609 29.4596 70.5469 24.8849C70.5457 24.4714 70.6249 24.3258 71.078 24.3282C75.2289 24.3468 79.381 24.3468 83.532 24.3282C83.9769 24.3258 84.0724 24.4574 84.0689 24.879C84.0479 27.1664 84.0596 29.4549 84.0596 31.7423Z" fill="#CADFBD"/>
<path d="M68.1829 31.7609C68.1829 34.0494 68.1701 36.338 68.1945 38.6253C68.1992 39.0702 68.0641 39.1634 67.6436 39.1622C63.5078 39.1471 59.372 39.1471 55.2362 39.1622C54.8332 39.1634 54.7098 39.0563 54.7109 38.644C54.7249 34.0506 54.7238 29.4584 54.7121 24.865C54.7121 24.4772 54.7901 24.327 55.2187 24.3281C59.3872 24.3444 63.5556 24.3421 67.724 24.3293C68.0909 24.3293 68.1933 24.4306 68.191 24.7975C68.1747 27.1186 68.1829 29.4398 68.1829 31.7597V31.7609Z" fill="#CADFBD"/>
<path d="M86.4301 31.7202C86.4301 29.4165 86.4382 27.1117 86.4219 24.808C86.4196 24.4435 86.5151 24.3387 86.8855 24.3399C91.069 24.3527 95.2537 24.3527 99.4373 24.3399C99.8216 24.3387 99.895 24.4726 99.895 24.822C99.8845 29.4468 99.8845 34.0716 99.895 38.6965C99.895 39.0645 99.7867 39.1646 99.4233 39.1635C95.2398 39.1518 91.055 39.1507 86.8715 39.1646C86.4813 39.1658 86.4208 39.0249 86.4231 38.6825C86.4359 36.3625 86.4301 34.0414 86.4301 31.7214V31.7202Z" fill="#161617"/>
<path d="M87.8109 6.24711C83.9523 6.24711 80.0948 6.24012 76.2362 6.25643C75.8228 6.25759 75.7168 6.14113 75.7273 5.73816C75.7552 4.676 75.7552 3.61268 75.7273 2.55052C75.7168 2.15803 75.8391 2.0637 76.2188 2.06486C80.584 2.07767 84.9492 2.07302 89.3145 2.07302C92.6665 2.07302 96.0172 2.08233 99.3692 2.06253C99.8071 2.0602 99.9224 2.179 99.9096 2.60875C99.8782 3.65344 99.8793 4.70162 99.9096 5.74631C99.9213 6.16442 99.7862 6.25759 99.3867 6.25643C95.5281 6.24129 91.6706 6.24711 87.812 6.24711H87.8109Z" fill="#CADFBD"/>
<path d="M61.4141 4.14066C61.4199 2.85606 62.4786 1.80555 63.7621 1.81253C65.0363 1.81952 66.1078 2.90148 66.095 4.16862C66.0821 5.4439 64.999 6.51538 63.7341 6.50257C62.4541 6.48976 61.4083 5.42527 61.4141 4.14066Z" fill="#93E080"/>
<path d="M59.3547 4.17336C59.4059 5.34965 58.4404 6.4747 57.03 6.49916C55.7523 6.52128 54.7309 5.437 54.7344 4.14424C54.7367 2.84682 55.7814 1.79981 57.0591 1.81262C58.3484 1.82543 59.357 2.86313 59.3547 4.17336Z" fill="#4FA83D"/>
<path d="M71.3474 4.15959C71.2694 4.06991 71.21 3.99538 71.1436 3.92783C70.8909 3.67277 70.6358 3.42121 70.3819 3.16731C70.2154 3.00077 70.1234 2.80161 70.2992 2.60712C70.4844 2.4033 70.6742 2.50579 70.8501 2.66535C71.1972 2.97864 71.4802 3.57727 71.8739 3.55747C72.2186 3.54 72.5366 2.99145 72.865 2.67467C73.0327 2.51278 73.2203 2.39865 73.4148 2.59896C73.6011 2.78997 73.5149 2.98796 73.3484 3.15683C73.0956 3.41189 72.8534 3.67743 72.5832 3.91269C72.3619 4.10485 72.3922 4.23762 72.5936 4.41698C72.8487 4.64408 73.0805 4.89798 73.3227 5.14022C73.5009 5.31842 73.6151 5.52223 73.4019 5.73187C73.1993 5.93102 73.0141 5.79476 72.8534 5.6352C72.6111 5.39412 72.3549 5.16352 72.1301 4.90613C71.9414 4.68951 71.8063 4.64758 71.6013 4.89448C71.3835 5.15653 71.1227 5.38364 70.8792 5.62355C70.722 5.77845 70.545 5.93335 70.3318 5.74235C70.1082 5.54086 70.2084 5.33239 70.3866 5.15187C70.6381 4.89681 70.8944 4.64525 71.1471 4.39019C71.2135 4.32264 71.2717 4.2481 71.3474 4.16076V4.15959Z" fill="#CADFBD"/>
<path d="M35.1106 12.2114H0V9.30913C0 7.75782 1.25786 6.5 2.80922 6.5H32.3026C33.8539 6.5 35.1118 7.75782 35.1118 9.30913V12.2114H35.1106Z" fill="#161617"/>
<path d="M0.0078125 12.2109H35.0649V33.0593C35.0649 34.9879 33.4995 36.5532 31.5708 36.5532H2.91953C1.31226 36.5532 0.0078125 35.2488 0.0078125 33.6416V12.2109Z" fill="#CAE2BC"/>
<path d="M24.9002 10.8409C22.2005 10.8409 19.5019 10.8362 16.8021 10.8479C16.5133 10.849 16.4388 10.7675 16.4458 10.4857C16.4656 9.74261 16.4656 8.9984 16.4458 8.25535C16.4388 7.98049 16.5238 7.91411 16.7893 7.91527C19.8431 7.92459 22.8969 7.9211 25.9508 7.9211C28.2953 7.9211 30.6398 7.92692 32.9843 7.91411C33.2906 7.91178 33.371 7.99563 33.3617 8.29611C33.3395 9.02751 33.3407 9.76008 33.3617 10.4915C33.3698 10.7838 33.2755 10.849 32.9959 10.8479C30.2962 10.8374 27.5976 10.842 24.8979 10.842L24.9002 10.8409Z" fill="#CADFBD"/>
<path d="M6.4297 9.3704C6.43319 8.47129 7.1751 7.7364 8.07307 7.74222C8.96522 7.74688 9.71411 8.5039 9.7048 9.3902C9.69548 10.2823 8.93843 11.0312 8.05327 11.023C7.15763 11.0137 6.42621 10.2695 6.4297 9.3704Z" fill="#93E080"/>
<path d="M4.99763 9.38708C5.03374 10.2105 4.35822 10.9978 3.37173 11.0141C2.47842 11.0292 1.7633 10.271 1.76563 9.36611C1.76796 8.45885 2.49822 7.72629 3.3927 7.73444C4.29416 7.74259 4.99996 8.46933 4.9988 9.38591L4.99763 9.38708Z" fill="#4FA83D"/>
<path d="M13.3784 9.37647C13.3237 9.31358 13.2829 9.26117 13.2363 9.21458C13.0593 9.03639 12.8811 8.86053 12.704 8.68234C12.5876 8.56588 12.5235 8.42612 12.6458 8.29102C12.7751 8.14777 12.9079 8.21998 13.0313 8.33178C13.2736 8.55074 13.4716 8.97001 13.7476 8.95603C13.9887 8.94439 14.2112 8.56005 14.4406 8.33877C14.5582 8.2258 14.6887 8.14544 14.8249 8.2852C14.9554 8.41913 14.8948 8.55772 14.7784 8.67535C14.6013 8.85354 14.4324 9.03989 14.2426 9.2041C14.0877 9.33804 14.1098 9.43121 14.2508 9.55699C14.4301 9.71538 14.592 9.89357 14.7609 10.0624C14.8855 10.1871 14.9659 10.3292 14.8156 10.4759C14.6735 10.6145 14.5443 10.5202 14.4324 10.4083C14.2624 10.2395 14.083 10.0788 13.927 9.89823C13.7954 9.74683 13.6999 9.71771 13.5566 9.89008C13.404 10.0741 13.2212 10.2325 13.0511 10.4002C12.9405 10.5085 12.817 10.6168 12.6679 10.4829C12.5119 10.342 12.5818 10.1964 12.7064 10.0694C12.8822 9.89124 13.0616 9.71538 13.2386 9.53603C13.2852 9.48944 13.326 9.43703 13.3784 9.37531V9.37647Z" fill="#CADFBD"/>
<path d="M19.6651 28.5976C19.1946 28.5837 18.7741 28.5254 18.4352 28.2832C17.7096 27.7661 17.0096 27.723 16.2922 28.2762C16.2281 28.3251 16.1466 28.3519 16.0697 28.3833C15.3919 28.6629 14.7129 28.6698 14.0478 28.3566C13.462 28.0805 12.882 27.7917 12.3078 27.4912C11.7324 27.1896 11.5251 26.5467 11.8 25.9865C12.0725 25.4333 12.7178 25.2027 13.3036 25.4729C13.8172 25.7093 14.3227 25.962 14.8235 26.2253C15.0134 26.3254 15.1671 26.3219 15.35 26.2194C15.6167 26.0704 15.8962 25.9434 16.1699 25.806C16.963 25.4077 17.7888 25.3599 18.5354 25.8316C19.2901 26.3091 19.9609 26.3557 20.6865 25.8234C20.9206 25.6522 21.2037 25.5404 21.4762 25.431C22.005 25.219 22.6048 25.4461 22.875 25.9376C23.1429 26.4244 23.0567 27.0789 22.5792 27.3573C21.7499 27.8406 20.923 28.3542 19.9609 28.558C19.8468 28.5825 19.728 28.5883 19.6628 28.5965L19.6651 28.5976Z" fill="#4FA83D"/>
<path d="M20.7448 21.8405C20.7506 21.6646 20.838 21.4259 21.0173 21.2244C21.1105 21.1184 21.2188 21.0252 21.3132 20.9204C21.5158 20.6945 21.9142 20.5093 21.8909 20.2577C21.8687 20.019 21.5135 19.8117 21.3027 19.5915C21.2049 19.4891 21.0977 19.3947 21.008 19.2864C20.6225 18.8264 20.661 18.1672 21.093 17.7526C21.5123 17.3484 22.1552 17.3275 22.6071 17.7048C22.8599 17.9168 23.0579 18.18 23.2733 18.4269C23.4434 18.6202 23.6064 18.6878 23.8114 18.4397C24.0129 18.1951 24.2517 17.9808 24.4834 17.763C24.954 17.3216 25.6307 17.3251 26.0744 17.7654C26.517 18.2044 26.5275 18.8823 26.0872 19.354C25.8461 19.6125 25.5934 19.8606 25.3372 20.1028C25.2195 20.2135 25.1846 20.302 25.329 20.4115C25.5992 20.6164 25.7681 20.9157 26.036 21.1324C26.5182 21.5214 26.5368 22.2539 26.1222 22.7128C25.7029 23.1775 25.0064 23.2287 24.5347 22.8106C24.2528 22.5602 23.9908 22.2877 23.7322 22.014C23.6146 21.8906 23.5377 21.8906 23.4201 22.014C23.1604 22.2877 22.8983 22.5602 22.6153 22.8095C22.2542 23.1262 21.835 23.1787 21.3947 22.983C20.9882 22.8025 20.7332 22.3832 20.7448 21.8428V21.8405Z" fill="#4FA83D"/>
<path d="M11.1822 21.9008C11.0366 21.881 10.9795 22.0045 10.8992 22.0825C10.6616 22.3119 10.4368 22.5554 10.1945 22.779C9.72285 23.2134 9.04034 23.1947 8.60359 22.7452C8.17731 22.3073 8.17149 21.6399 8.60009 21.1822C8.84235 20.9237 9.09275 20.6733 9.35248 20.4334C9.48875 20.3076 9.49108 20.2214 9.35248 20.0945C9.10091 19.8627 8.86098 19.6181 8.62572 19.3712C8.16566 18.889 8.17032 18.2054 8.63037 17.7582C9.07761 17.3226 9.74731 17.3273 10.2213 17.7768C10.4694 18.0121 10.714 18.252 10.9469 18.5024C11.0739 18.6386 11.1589 18.641 11.2859 18.5024C11.5176 18.252 11.7634 18.0121 12.0103 17.7756C12.482 17.3261 13.1517 17.3203 13.6013 17.7547C14.0613 18.1996 14.0695 18.8855 13.6117 19.3689C13.3928 19.6006 13.1598 19.8184 12.9385 20.0467C12.8605 20.1271 12.7371 20.1841 12.7569 20.3297C12.6241 20.3449 12.5064 20.3984 12.4133 20.4916C12.0546 20.8456 11.6982 21.2009 11.3429 21.5596C11.2509 21.6527 11.195 21.7692 11.181 21.902L11.1822 21.9008Z" fill="#4FA83D"/>
<path d="M11.1797 21.9004C11.1948 21.7676 11.2496 21.6512 11.3416 21.558C11.6956 21.2004 12.0532 20.8441 12.4119 20.49C12.5051 20.398 12.6227 20.3433 12.7555 20.3281C13.056 20.6205 13.3693 20.9011 13.6523 21.2086C14.0704 21.6616 14.0402 22.3418 13.6046 22.7657C13.1783 23.1815 12.5144 23.2083 12.0695 22.803C11.7574 22.5188 11.4755 22.202 11.1797 21.9004Z" fill="#4FA83D"/>
<path d="M47.1017 22.7828H37.3778C37.1343 22.7828 36.9375 22.586 36.9375 22.3426C36.9375 22.0992 37.1343 21.9023 37.3778 21.9023H47.1017C47.3451 21.9023 47.542 22.0992 47.542 22.3426C47.542 22.586 47.3451 22.7828 47.1017 22.7828Z" fill="#4FA83D"/>
<path d="M46.5859 24.102L49.6304 22.3446L46.5859 20.5859V24.102Z" fill="#4FA83D"/>
</g>
<defs>
<clipPath id="clip0_98_6172">
<rect width="102.395" height="42.958" fill="white" transform="translate(0 0.046875)"/>
</clipPath>
</defs>
</svg>
